<svg xmlns="http://www.w3.org/2000/svg" width="118.247" height="150.417" viewBox="0 0 118.247 150.417">
  <g id="_23_NYCRR_500" data-name="23 NYCRR 500" transform="translate(0.75 0.75)">
    <path id="azom3zOb" d="M65.684,12.8c32.91,0,58.374,22.379,58.374,55.124s-25.423,55.124-58.374,55.124S7.31,100.669,7.31,67.924,32.733,12.8,65.684,12.8Z" transform="translate(-7.31 25.869)" fill="none" stroke="#fff" stroke-miterlimit="10" stroke-width="1.5"/>
    <path id="azom3zOb-2" data-name="azom3zOb" d="M65.684,12.8c32.91,0,58.374,22.379,58.374,55.124s-25.423,55.124-58.374,55.124S7.31,100.669,7.31,67.924,32.733,12.8,65.684,12.8Z" transform="translate(-7.31 25.869)" fill="none" stroke="#fff" stroke-width="1.5"/>
    <path id="eo1I9AAQ" d="M35.966,20.749s-.74,17.73-.494,18.018,25.217,24.065,25.3,24.312,0,.987.288,1.275.946,1.07.946,1.4a1.769,1.769,0,0,0,.617,1.152c.247,0,1.028.535.823.7s-1.44.905-1.6,1.6a6.66,6.66,0,0,0,0,1.81,10.408,10.408,0,0,1-1.152,2.1,3.426,3.426,0,0,1,.288.864v1.028c0,.247.864.329.864.617s.329.7-.247,1.028a1.234,1.234,0,0,1-.987,0c-.247,0-5.266.905-5.677.74a5.059,5.059,0,0,0-2.221,0,13.782,13.782,0,0,1-3.661.494c-.206-.247-.206-.617-.37-.782a.823.823,0,0,1-.452-.905,5.554,5.554,0,0,0-.37-2.3c-.206,0-1.728-1.728-2.016-1.933s-1.522-1.44-1.851-1.481-1.4,0-1.522-.494,0-1.44-.329-1.481-1.728.37-1.892.288-1.728-.74-1.769-.987a2.88,2.88,0,0,0-.946-1.152c-.329,0-.453-.411-.864-.37s-.905.247-1.111,0a.987.987,0,0,0-.987-.329,9.214,9.214,0,0,1-2.139-.247c-.247,0-.987-.576-.782-1.028s.37-.37.329-.7-.37-.864-.288-1.152a2.738,2.738,0,0,0,.206-.782c-.041-.123-1.358-.7-1.316-1.07s.411-.617.411-.782-2.509-1.728-2.592-2.715-1.645-2.427-1.892-2.8a2.551,2.551,0,0,1-.329-1.975c.206-.535.7-1.234.617-1.6a1.81,1.81,0,0,0-1.152-.864s-1.522-.658-1.522-1.6a4.525,4.525,0,0,0,0-1.481,3.538,3.538,0,0,1,0-1.6,7.539,7.539,0,0,0,.987,1.44c.247.123.453.411.535.206a2.057,2.057,0,0,0,0-1.316,3,3,0,0,0-.411-.37s0-.617-.288-.7-.494-.206-.37-.453.37-.206.7-.37,0-.658-.329-.782-.7-.37-.74,0,.288,1.81,0,1.81-.782-.7-1.152-.905-1.152-.288-1.275-.452.411-.864.288-1.07a2.88,2.88,0,0,0-.535-.7v-.658a24.352,24.352,0,0,1-2.8-3.373c0-.37.37-1.152.288-1.316s-.74-.74-.617-1.316.535-1.44.411-1.933a14.193,14.193,0,0,0-1.481-3.085c-.329-.329-1.07-1.234-.864-1.769s1.152-1.892,1.4-2.633a3.579,3.579,0,0,0,0-1.645,15.428,15.428,0,0,0,.7-1.933,2.715,2.715,0,0,0-.494-1.358s-.7-1.07,0-1.522a175.7,175.7,0,0,0,17.895,1.4Z" transform="translate(21.091 46.264)" fill="#fff"/>
    <path id="eo1I9AAQ-2" data-name="eo1I9AAQ" d="M35.966,20.749s-.74,17.73-.494,18.018,25.217,24.065,25.3,24.312,0,.987.288,1.275.946,1.07.946,1.4a1.769,1.769,0,0,0,.617,1.152c.247,0,1.028.535.823.7s-1.44.905-1.6,1.6a6.66,6.66,0,0,0,0,1.81,10.408,10.408,0,0,1-1.152,2.1,3.426,3.426,0,0,1,.288.864v1.028c0,.247.864.329.864.617s.329.7-.247,1.028a1.234,1.234,0,0,1-.987,0c-.247,0-5.266.905-5.677.74a5.059,5.059,0,0,0-2.221,0,13.782,13.782,0,0,1-3.661.494c-.206-.247-.206-.617-.37-.782a.823.823,0,0,1-.452-.905,5.554,5.554,0,0,0-.37-2.3c-.206,0-1.728-1.728-2.016-1.933s-1.522-1.44-1.851-1.481-1.4,0-1.522-.494,0-1.44-.329-1.481-1.728.37-1.892.288-1.728-.74-1.769-.987a2.88,2.88,0,0,0-.946-1.152c-.329,0-.453-.411-.864-.37s-.905.247-1.111,0a.987.987,0,0,0-.987-.329,9.214,9.214,0,0,1-2.139-.247c-.247,0-.987-.576-.782-1.028s.37-.37.329-.7-.37-.864-.288-1.152a2.738,2.738,0,0,0,.206-.782c-.041-.123-1.358-.7-1.316-1.07s.411-.617.411-.782-2.509-1.728-2.592-2.715-1.645-2.427-1.892-2.8a2.551,2.551,0,0,1-.329-1.975c.206-.535.7-1.234.617-1.6a1.81,1.81,0,0,0-1.152-.864s-1.522-.658-1.522-1.6a4.525,4.525,0,0,0,0-1.481,3.538,3.538,0,0,1,0-1.6,7.539,7.539,0,0,0,.987,1.44c.247.123.453.411.535.206a2.057,2.057,0,0,0,0-1.316,3,3,0,0,0-.411-.37s0-.617-.288-.7-.494-.206-.37-.453.37-.206.7-.37,0-.658-.329-.782-.7-.37-.74,0,.288,1.81,0,1.81-.782-.7-1.152-.905-1.152-.288-1.275-.452.411-.864.288-1.07a2.88,2.88,0,0,0-.535-.7v-.658a24.352,24.352,0,0,1-2.8-3.373c0-.37.37-1.152.288-1.316s-.74-.74-.617-1.316.535-1.44.411-1.933a14.193,14.193,0,0,0-1.481-3.085c-.329-.329-1.07-1.234-.864-1.769s1.152-1.892,1.4-2.633a3.579,3.579,0,0,0,0-1.645,15.428,15.428,0,0,0,.7-1.933,2.715,2.715,0,0,0-.494-1.358s-.7-1.07,0-1.522a175.7,175.7,0,0,0,17.895,1.4Z" transform="translate(21.091 46.264)" fill="#fff"/>
    <path id="Path_83" data-name="Path 83" d="M14.93,45.566v-15.8A26.369,26.369,0,0,1,41.3,3.4h0A26.369,26.369,0,0,1,67.668,29.769v15.8" transform="translate(16.416 -3.4)" fill="none" stroke="#fff" stroke-width="1.5"/>
  </g>
</svg>
