<svg xmlns="http://www.w3.org/2000/svg" width="128.259" height="99.731" viewBox="0 0 128.259 99.731">
  <g id="saas-icon" transform="translate(-5.77 -26.5)">
    <path id="Path_55" data-name="Path 55" d="M157.242,52.068l-.447-.2v-.495a10.727,10.727,0,0,0-10.4-10.816h-.337l-.227-.268A15.173,15.173,0,0,0,133.8,34.36,15.42,15.42,0,0,0,118.52,48.887V49.3l-.371.206a10.85,10.85,0,0,0,4.968,20.43h30.62a9.3,9.3,0,0,0,3.539-17.866" transform="translate(-32.249 -1.364)" fill="#fff" stroke="#777e8c" stroke-miterlimit="10" stroke-width="4"/>
    <path id="Path_56" data-name="Path 56" d="M108.611,69.237l-.983-.44V67.7A23.755,23.755,0,0,0,84.615,43.743h-.749l-.509-.577A33.561,33.561,0,0,0,56.716,30,34.126,34.126,0,0,0,22.887,62.159l-.048.921-.811.447a24.051,24.051,0,0,0,10.995,45.264h67.8a20.615,20.615,0,0,0,7.792-39.553" transform="translate(0)" fill="#fff" stroke="#777e8c" stroke-miterlimit="10" stroke-width="7"/>
    <circle id="Ellipse_1" data-name="Ellipse 1" cx="10.314" cy="10.314" r="10.314" transform="translate(82.155 97.391)" fill="#fff"/>
    <circle id="Ellipse_2" data-name="Ellipse 2" cx="6.349" cy="6.349" r="6.349" transform="translate(114.795 85.997)" fill="#fff"/>
    <path id="Path_57" data-name="Path 57" d="M168.352,105.642,165,105.477l-2.625-2.817-4.013,2.062.749,3.773-1.821,2.824-3.752.859-.227,4.508,3.642,1.237,1.532,2.989-1.127,3.676,3.786,2.453,2.893-2.543,3.353.172,2.625,2.817,4.013-2.062-.749-3.779,1.821-2.817,3.752-.866.227-4.5-3.642-1.237-1.532-2.989,1.127-3.683-3.786-2.446Zm2.061,12.17a4.151,4.151,0,1,1,.021.007Z" transform="translate(-45.05 -22.73)" fill="#2764ff"/>
    <path id="Path_58" data-name="Path 58" d="M129.529,117.554l-4.686-1.374-2.556,4.377-3.669.385-3.436-3.752-4.295,2.336,1.285,4.906-2.323,2.865-5.064-.241-1.374,4.686,4.384,2.563.385,3.669-3.752,3.436,2.329,4.3,4.906-1.285,2.866,2.323-.234,5.064,4.686,1.374,2.556-4.377,3.669-.385,3.436,3.752,4.295-2.336-1.306-4.927,2.323-2.865,5.064.241,1.374-4.686-4.377-2.563-.385-3.669,3.752-3.436-2.33-4.3-4.906,1.285-2.865-2.316Zm-.35,18.265a7.36,7.36,0,1,1-6.116-8.418,7.36,7.36,0,0,1,6.116,8.418Z" transform="translate(-29.439 -26.96)" fill="#2764ff"/>
  </g>
</svg>
