<svg id="Layer_1" data-name="Layer 1" xmlns="http://www.w3.org/2000/svg" viewBox="0 0 228.21 58.98"><defs><style>.cls-1{stroke:#000;stroke-miterlimit:2.61;stroke-width:0.32px;fill-rule:evenodd;}</style></defs><path class="cls-1" d="M138.15,17.34a18.32,18.32,0,0,0-9.24,2.31c0-8.21,0-15.66.26-18.22L112,4.51V6.05l1.79.25c2.31.52,3.08,1.8,3.6,4.88.51,6.16.25,39,0,44.39a66.5,66.5,0,0,0,14.37,1.8c13.6,0,21.81-8.47,21.81-21.81,0-10.52-6.67-18.22-15.4-18.22Zm-5.9,37.2a11.79,11.79,0,0,1-3.08-.25c-.26-3.59-.51-18.73-.26-32.08a11.47,11.47,0,0,1,3.85-.77c5.65,0,8.73,6.67,8.73,14.89,0,10.26-3.85,18.21-9.24,18.21Z"/><path class="cls-1" d="M47.31,2.46H2.15v2.3L4.72,5c3.33.51,4.62,2.57,5.13,7.44.77,9.24.51,25.92,0,33.87-.51,4.88-1.8,7.19-5.13,7.44l-2.57.52v2.05h29V54.29l-3.08-.52c-3.34-.25-4.62-2.56-5.13-7.44-.26-3.33-.52-8.72-.52-15.39l6.16.25c3.85,0,5.65,3.08,6.42,7.45h2.31V20.42H35c-.77,4.36-2.57,7.44-6.42,7.44l-6.16.25c0-8.72.26-16.93.52-21.81h9c6.93,0,10.52,4.37,13.08,12.06l2.57-.77L47.31,2.46Z"/><path class="cls-1" d="M61.94,16.82c12.83,0,19.25,8.73,19.25,20.28,0,11-7.19,20.27-20,20.27S41.93,48.64,41.93,37.1c0-11,7.18-20.28,20-20.28Zm-.77,2.57c-5.64,0-7.18,7.7-7.18,17.71,0,9.75,2.56,17.7,7.7,17.7,5.9,0,7.44-7.7,7.44-17.7,0-9.76-2.57-17.71-8-17.71Z"/><path class="cls-1" d="M156.88,37.35c0-10.52,6.68-20.53,19.76-20.53,10.78,0,15.91,8,15.91,18.48H168.69c-.26,9.49,4.36,16.42,13.6,16.42A13.15,13.15,0,0,0,191,48.9l1,1.28c-2.57,3.59-8.21,7.19-15.4,7.19-11.54,0-19.76-8.21-19.76-20Zm11.81-4.87,12.06-.26c0-5.13-.77-12.83-5.13-12.83s-6.68,7.18-6.93,13.09Z"/><path class="cls-1" d="M223.09,18.88a31.29,31.29,0,0,0-11.81-2.06c-9.49,0-15.39,5.65-15.39,12.32s4.36,9.5,10.52,11.55c6.41,2.31,8.21,4.1,8.21,7.18s-2.31,5.9-6.42,5.9c-4.87,0-8.46-2.82-11.29-10.52l-1.79.52.25,11.29A40.63,40.63,0,0,0,209,57.37c10,0,16.43-5.13,16.43-13.09,0-5.39-2.83-8.47-9.5-11-7.18-2.83-9.75-4.62-9.75-8a5.33,5.33,0,0,1,5.39-5.64c4.62,0,7.7,2.82,10,9.75l1.79-.52-.25-10Z"/><path class="cls-1" d="M114.54,17.85c-4.36-2.57-12.06-1.28-16.16,8l.25-9L81.44,20.16V21.7l1.8.26c2.31.25,3.33,1.54,3.59,4.87a215.86,215.86,0,0,1,0,22.33c-.26,3.08-1.28,4.61-3.59,4.87l-1.8.26v2.05h23.87V54.29L102.23,54c-2.57-.26-3.34-1.79-3.6-4.87a183.25,183.25,0,0,1-.25-20.79c1.28-1.8,6.93-3.33,12.06,0l4.1-10.52Z"/></svg>