<svg xmlns="http://www.w3.org/2000/svg" width="100.055" height="75.036" viewBox="0 0 100.055 75.036">
  <g id="gmail-icon" transform="translate(-27 -56.89)">
    <path id="Path_1" data-name="Path 1" d="M33.822,150.415H49.74V111.757L27,94.7v48.893A6.822,6.822,0,0,0,33.822,150.415Z" transform="translate(0 -18.489)" fill="#4285f4"/>
    <path id="Path_2" data-name="Path 2" d="M178.3,150.415h15.918a6.822,6.822,0,0,0,6.822-6.822V94.7L178.3,111.757Z" transform="translate(-73.985 -18.489)" fill="#34a853"/>
    <path id="Path_3" data-name="Path 3" d="M178.3,63.717V93.278l22.74-17.057V67.13a10.22,10.22,0,0,0-16.352-8.176Z" transform="translate(-73.985 -0.01)" fill="#fbbc04"/>
    <path id="Path_4" data-name="Path 4" d="M71.5,99.792V70.23L98.788,90.7l27.288-20.44V99.817l-27.288,20.44Z" transform="translate(-21.76 -6.523)" fill="#ea4335" fill-rule="evenodd"/>
    <path id="Path_5" data-name="Path 5" d="M27,67.12v9.091L49.74,93.268V63.707l-6.388-4.773A10.22,10.22,0,0,0,27,67.12Z" transform="translate(0 0)" fill="#c5221f"/>
  </g>
</svg>
