<svg xmlns="http://www.w3.org/2000/svg" width="104.164" height="93.127" viewBox="0 0 104.164 93.127">
  <g id="gdrive-icon" transform="translate(-27.88 -43.479)">
    <path id="Path_6" data-name="Path 6" d="M35.759,177.951l4.591,7.938a10.866,10.866,0,0,0,3.937,3.937L60.7,161.4H27.88a10.812,10.812,0,0,0,1.432,5.363Z" transform="translate(0 -54.677)" fill="#0066da"/>
    <path id="Path_7" data-name="Path 7" d="M79.967,74.575,63.561,46.15a10.812,10.812,0,0,0-3.942,3.942L29.312,102.614a10.828,10.828,0,0,0-1.432,5.363H60.7Z" transform="translate(0 -1.238)" fill="#00ac47"/>
    <path id="Path_8" data-name="Path 8" d="M110.821,73.337l16.406-28.425a10.48,10.48,0,0,0-5.363-1.432H99.783a11.091,11.091,0,0,0-5.363,1.432Z" transform="translate(-30.853)" fill="#00832d"/>
    <path id="Path_9" data-name="Path 9" d="M113.421,161.45H74.881L58.47,189.875a10.512,10.512,0,0,0,5.363,1.432h60.6a11.129,11.129,0,0,0,5.363-1.432Z" transform="translate(-14.184 -54.7)" fill="#2684fc"/>
    <path id="Path_10" data-name="Path 10" d="M177.374,189.853a10.866,10.866,0,0,0,3.937-3.937l1.909-3.282,9.117-15.811a10.812,10.812,0,0,0,1.432-5.363H161Z" transform="translate(-61.725 -54.705)" fill="#ea4335"/>
    <path id="Path_11" data-name="Path 11" d="M160.5,76.385,145.348,50.132a10.812,10.812,0,0,0-3.942-3.942L125,74.594l19.27,33.413h32.753a10.828,10.828,0,0,0-1.432-5.363Z" transform="translate(-45.033 -1.257)" fill="#ffba00"/>
  </g>
</svg>
