<svg xmlns="http://www.w3.org/2000/svg" width="226.128" height="107.272" viewBox="0 0 226.128 107.272">
  <g id="google_workplace" transform="translate(72.007)">
    <g id="Product_name" transform="translate(-72.007 62.325)">
      <g id="_x28_type_product_name_here_x29_">
        <g id="Group_8" data-name="Group 8">
          <path id="Path_35" data-name="Path 35" d="M356.144,7.15h4.629l-9.211,34.53h-4.534L339.6,18.919h-.194L331.978,41.68h-4.535L317.85,7.15h4.629L329.76,34.3h.194l7.475-22.521h4.147L349.052,34.3h.194Z" transform="translate(-317.85 -7.15)" fill="#5f6368"/>
          <path id="Path_36" data-name="Path 36" d="M398.93,39.057a12.508,12.508,0,0,1,3.423-9.017,11.675,11.675,0,0,1,8.728-3.57,11.514,11.514,0,0,1,8.681,3.57,12.392,12.392,0,0,1,3.47,9.017,12.3,12.3,0,0,1-3.47,9.017,11.522,11.522,0,0,1-8.681,3.57,11.659,11.659,0,0,1-8.728-3.57A12.5,12.5,0,0,1,398.93,39.057Zm4.435,0a8.662,8.662,0,0,0,2.217,6.175,7.577,7.577,0,0,0,11,0,8.653,8.653,0,0,0,2.217-6.175,8.584,8.584,0,0,0-2.217-6.123,7.476,7.476,0,0,0-11,0A8.584,8.584,0,0,0,403.365,39.057Z" transform="translate(-356.426 -16.342)" fill="#5f6368"/>
          <path id="Path_37" data-name="Path 37" d="M455.745,50.958H451.31V27.326h4.246v3.858h.194a6.416,6.416,0,0,1,2.773-3.208,7.685,7.685,0,0,1,4.126-1.326,8.393,8.393,0,0,1,3.282.577l-1.352,4.293a7.352,7.352,0,0,0-2.605-.335,5.754,5.754,0,0,0-4.367,2.023,6.78,6.78,0,0,0-1.856,4.728V50.958Z" transform="translate(-381.348 -16.428)" fill="#5f6368"/>
          <path id="Path_38" data-name="Path 38" d="M503.885,41.68h-5.352l-7.381-11.14-3.617,3.57v7.57H483.1V7.15h4.435V28.418l10.222-10.369h5.693v.194l-9.211,9.163,9.646,14.081Z" transform="translate(-396.473 -7.15)" fill="#5f6368"/>
          <path id="Path_39" data-name="Path 39" d="M541.567,44.31a6.413,6.413,0,0,1-2.7,5.211,10.672,10.672,0,0,1-6.8,2.123,10.793,10.793,0,0,1-6.27-1.856,10.2,10.2,0,0,1-3.858-4.9l3.953-1.688a7.3,7.3,0,0,0,2.532,3.3,6.167,6.167,0,0,0,3.643,1.179,6.4,6.4,0,0,0,3.544-.917,2.591,2.591,0,0,0,1.421-2.17q0-2.265-3.47-3.329l-4.052-1.012q-6.9-1.738-6.9-6.658a6.145,6.145,0,0,1,2.626-5.185,12.046,12.046,0,0,1,12.393-.461,8.128,8.128,0,0,1,3.544,4.005L537.221,33.6a4.959,4.959,0,0,0-2.2-2.338,6.894,6.894,0,0,0-3.4-.844,5.658,5.658,0,0,0-3.109.87,2.51,2.51,0,0,0-1.373,2.123q0,2.029,3.811,2.894l3.57.917Q541.567,38.952,541.567,44.31Z" transform="translate(-414.952 -16.337)" fill="#5f6368"/>
          <path id="Path_40" data-name="Path 40" d="M577.437,51.643a10.2,10.2,0,0,1-4.749-1.111,8.3,8.3,0,0,1-3.3-2.941h-.194l.194,3.282V61.289H564.95V27.241H569.2v3.282h.194a8.3,8.3,0,0,1,3.3-2.941,10.483,10.483,0,0,1,12.66,2.553,12.915,12.915,0,0,1,3.329,8.922,12.8,12.8,0,0,1-3.329,8.922A10.17,10.17,0,0,1,577.437,51.643Zm-.723-4.047a6.91,6.91,0,0,0,5.352-2.411,8.694,8.694,0,0,0,2.17-6.123,8.8,8.8,0,0,0-2.17-6.123,7.2,7.2,0,0,0-10.752,0,8.928,8.928,0,0,0-2.123,6.123,9.01,9.01,0,0,0,2.123,6.175A7.044,7.044,0,0,0,576.714,47.6Z" transform="translate(-435.415 -16.342)" fill="#5f6368"/>
          <path id="Path_41" data-name="Path 41" d="M624.022,26.47a11,11,0,0,1,7.764,2.626,9.327,9.327,0,0,1,2.846,7.208V50.867h-4.246V47.586h-.194a8.471,8.471,0,0,1-7.329,4.052,9.526,9.526,0,0,1-6.537-2.317,7.39,7.39,0,0,1-2.626-5.787,7.02,7.02,0,0,1,2.773-5.835,11.685,11.685,0,0,1,7.4-2.17,13.1,13.1,0,0,1,6.511,1.447V35.964a5.063,5.063,0,0,0-1.835-3.932,6.3,6.3,0,0,0-4.293-1.615,6.794,6.794,0,0,0-5.882,3.135l-3.905-2.459Q617.7,26.47,624.022,26.47Zm-5.74,17.168a3.53,3.53,0,0,0,1.473,2.894A5.417,5.417,0,0,0,623.2,47.69a7.062,7.062,0,0,0,4.991-2.076,6.5,6.5,0,0,0,2.2-4.87A9.137,9.137,0,0,0,624.6,39.1a7.53,7.53,0,0,0-4.508,1.3A3.871,3.871,0,0,0,618.282,43.638Z" transform="translate(-458.609 -16.342)" fill="#5f6368"/>
          <path id="Path_42" data-name="Path 42" d="M671.291,51.643a11.659,11.659,0,0,1-8.728-3.57,12.7,12.7,0,0,1-3.423-9.017,12.508,12.508,0,0,1,3.423-9.017,11.674,11.674,0,0,1,8.728-3.57,10.823,10.823,0,0,1,10.369,6.8l-4.052,1.688A6.665,6.665,0,0,0,671,30.522a6.857,6.857,0,0,0-5.258,2.459,8.853,8.853,0,0,0-2.17,6.076,8.853,8.853,0,0,0,2.17,6.076A6.85,6.85,0,0,0,671,47.591a6.945,6.945,0,0,0,6.846-4.435l3.953,1.688a10.607,10.607,0,0,1-4.073,4.991A11.51,11.51,0,0,1,671.291,51.643Z" transform="translate(-480.229 -16.342)" fill="#5f6368"/>
          <path id="Path_43" data-name="Path 43" d="M717.013,51.643a11.315,11.315,0,0,1-8.587-3.57,12.606,12.606,0,0,1-3.376-9.017,12.819,12.819,0,0,1,3.282-9,11.791,11.791,0,0,1,16.759-.189q3.114,3.4,3.109,9.525l-.047.482H709.585a7.673,7.673,0,0,0,2.317,5.593,7.4,7.4,0,0,0,5.305,2.123q4.246,0,6.658-4.246l3.953,1.929a11.75,11.75,0,0,1-4.414,4.676A12.238,12.238,0,0,1,717.013,51.643ZM709.925,36.21h13.551a5.884,5.884,0,0,0-2-4.073,7.018,7.018,0,0,0-4.849-1.615,6.431,6.431,0,0,0-4.314,1.541A7.365,7.365,0,0,0,709.925,36.21Z" transform="translate(-502.072 -16.342)" fill="#5f6368"/>
        </g>
      </g>
    </g>
    <g id="Google_logo">
      <g id="_x32_94x96">
        <path id="Path_44" data-name="Path 44" d="M19.795,39.044A19.789,19.789,0,0,1,0,19.522,19.789,19.789,0,0,1,19.795,0,18.576,18.576,0,0,1,33.162,5.379L29.4,9.137a13.585,13.585,0,0,0-9.609-3.811A14,14,0,0,0,5.808,19.517,13.994,13.994,0,0,0,19.795,33.7a13.039,13.039,0,0,0,9.85-3.905,11.157,11.157,0,0,0,2.9-6.715h-12.9V17.761H37.728a17.582,17.582,0,0,1,.283,3.334c0,4-1.1,8.954-4.613,12.476C29.975,37.136,25.6,39.044,19.795,39.044Z" fill="#4285f4"/>
        <path id="Path_45" data-name="Path 45" d="M101.3,39.091A12.594,12.594,0,1,1,88.7,26.52,12.407,12.407,0,0,1,101.3,39.091Zm-5.515,0c0-4.524-3.282-7.617-7.082-7.617s-7.082,3.093-7.082,7.617c0,4.477,3.282,7.617,7.082,7.617S95.784,43.562,95.784,39.091Z" transform="translate(-36.212 -12.618)" fill="#ea4335"/>
        <path id="Path_46" data-name="Path 46" d="M153.589,39.091a12.594,12.594,0,1,1-12.6-12.571A12.407,12.407,0,0,1,153.589,39.091Zm-5.515,0c0-4.524-3.282-7.617-7.082-7.617s-7.082,3.093-7.082,7.617c0,4.477,3.282,7.617,7.082,7.617A7.269,7.269,0,0,0,148.074,39.091Z" transform="translate(-61.09 -12.618)" fill="#fbbc04"/>
        <path id="Path_47" data-name="Path 47" d="M204.622,27.28V49.848c0,9.284-5.473,13.1-11.942,13.1a11.968,11.968,0,0,1-11.134-7.428l4.807-2a6.948,6.948,0,0,0,6.327,4.477c4.141,0,6.71-2.569,6.71-7.381V48.8H199.2a8.558,8.558,0,0,1-6.616,2.857A12.441,12.441,0,0,1,180.55,39.138c0-7.093,5.756-12.618,12.036-12.618a8.7,8.7,0,0,1,6.616,2.81h.189V27.28h5.232Zm-4.854,11.858c0-4.43-2.951-7.664-6.71-7.664-3.806,0-6.993,3.24-6.993,7.664,0,4.382,3.187,7.57,6.993,7.57C196.817,46.708,199.768,43.515,199.768,39.138Z" transform="translate(-85.902 -12.618)" fill="#4285f4"/>
        <path id="Path_48" data-name="Path 48" d="M239.56,2.54V39.487h-5.52V2.54Z" transform="translate(-111.351 -1.208)" fill="#34a853"/>
        <path id="Path_49" data-name="Path 49" d="M268.452,43.232l4.283,2.857a12.491,12.491,0,0,1-10.469,5.572A12.3,12.3,0,0,1,249.8,39.091c0-7.475,5.379-12.571,11.847-12.571,6.516,0,9.7,5.19,10.752,8l.571,1.426-16.8,6.951a6.393,6.393,0,0,0,6.091,3.811A7.171,7.171,0,0,0,268.452,43.232Zm-13.179-4.524L266.5,34.043a4.862,4.862,0,0,0-4.66-2.668A6.9,6.9,0,0,0,255.273,38.708Z" transform="translate(-118.85 -12.618)" fill="#ea4335"/>
      </g>
    </g>
  </g>
</svg>
