<svg id="google_workplace" xmlns="http://www.w3.org/2000/svg" width="204.899" height="26.255" viewBox="0 0 204.899 26.255">
  <g id="Product_name" transform="translate(86.928 1.955)">
    <g id="_x28_type_product_name_here_x29_">
      <g id="Group_8" data-name="Group 8">
        <path id="Path_35" data-name="Path 35" d="M337.828,7.15h2.415l-4.805,18.015h-2.366L329.2,13.29h-.1L325.22,25.165h-2.366l-5-18.015h2.415l3.8,14.167h.1l3.9-11.749h2.163l3.9,11.749h.1Z" transform="translate(-317.85 -7.15)" fill="#5f6368"/>
        <path id="Path_36" data-name="Path 36" d="M398.93,33.036a6.525,6.525,0,0,1,1.786-4.7,6.091,6.091,0,0,1,4.554-1.862,6.007,6.007,0,0,1,4.529,1.862,6.465,6.465,0,0,1,1.811,4.7,6.419,6.419,0,0,1-1.811,4.7,6.011,6.011,0,0,1-4.529,1.862,6.082,6.082,0,0,1-4.554-1.862A6.521,6.521,0,0,1,398.93,33.036Zm2.314,0a4.519,4.519,0,0,0,1.157,3.222,3.953,3.953,0,0,0,5.738,0,4.514,4.514,0,0,0,1.157-3.222,4.478,4.478,0,0,0-1.157-3.194,3.9,3.9,0,0,0-5.738,0A4.478,4.478,0,0,0,401.244,33.036Z" transform="translate(-376.756 -21.186)" fill="#5f6368"/>
        <path id="Path_37" data-name="Path 37" d="M453.624,39.332H451.31V27h2.215v2.013h.1a3.347,3.347,0,0,1,1.447-1.674,4.009,4.009,0,0,1,2.152-.692,4.379,4.379,0,0,1,1.712.3l-.706,2.24a3.835,3.835,0,0,0-1.359-.175,3,3,0,0,0-2.278,1.056,3.537,3.537,0,0,0-.968,2.467v6.793Z" transform="translate(-414.81 -21.317)" fill="#5f6368"/>
        <path id="Path_38" data-name="Path 38" d="M493.944,25.165h-2.792L487.3,19.353l-1.887,1.862v3.949H483.1V7.15h2.314v11.1l5.333-5.41h2.97v.1l-4.805,4.781,5.032,7.346Z" transform="translate(-437.906 -7.15)" fill="#5f6368"/>
        <path id="Path_39" data-name="Path 39" d="M532.179,35.772a3.346,3.346,0,0,1-1.408,2.718,5.568,5.568,0,0,1-3.547,1.108,5.631,5.631,0,0,1-3.271-.968,5.321,5.321,0,0,1-2.013-2.554L524,35.2a3.807,3.807,0,0,0,1.321,1.723,3.217,3.217,0,0,0,1.9.615,3.336,3.336,0,0,0,1.849-.479,1.352,1.352,0,0,0,.741-1.132q0-1.181-1.811-1.737l-2.114-.528q-3.6-.907-3.6-3.473a3.206,3.206,0,0,1,1.37-2.7,6.284,6.284,0,0,1,6.465-.241,4.241,4.241,0,0,1,1.849,2.089l-2.062.856a2.587,2.587,0,0,0-1.146-1.22,3.6,3.6,0,0,0-1.775-.44,2.952,2.952,0,0,0-1.622.454,1.309,1.309,0,0,0-.716,1.108q0,1.058,1.988,1.51l1.862.479Q532.179,32.977,532.179,35.772Z" transform="translate(-466.124 -21.179)" fill="#5f6368"/>
        <path id="Path_40" data-name="Path 40" d="M571.464,39.6a5.319,5.319,0,0,1-2.478-.58,4.328,4.328,0,0,1-1.723-1.534h-.1l.1,1.712v5.434H564.95V26.872h2.215v1.712h.1a4.328,4.328,0,0,1,1.723-1.534,5.469,5.469,0,0,1,6.6,1.332,7.106,7.106,0,0,1,0,9.309A5.306,5.306,0,0,1,571.464,39.6Zm-.377-2.111a3.6,3.6,0,0,0,2.792-1.258,4.535,4.535,0,0,0,1.132-3.194,4.591,4.591,0,0,0-1.132-3.194,3.755,3.755,0,0,0-5.609,0,4.658,4.658,0,0,0-1.108,3.194,4.7,4.7,0,0,0,1.108,3.222A3.675,3.675,0,0,0,571.087,37.492Z" transform="translate(-497.371 -21.186)" fill="#5f6368"/>
        <path id="Path_41" data-name="Path 41" d="M619.085,26.47a5.739,5.739,0,0,1,4.05,1.37,4.866,4.866,0,0,1,1.485,3.76v7.6h-2.215V37.486h-.1a4.419,4.419,0,0,1-3.823,2.114,4.97,4.97,0,0,1-3.41-1.209,3.855,3.855,0,0,1-1.37-3.019,3.663,3.663,0,0,1,1.447-3.044,6.1,6.1,0,0,1,3.862-1.132,6.833,6.833,0,0,1,3.4.755v-.528a2.641,2.641,0,0,0-.957-2.051,3.285,3.285,0,0,0-2.24-.842,3.544,3.544,0,0,0-3.068,1.635L614.1,28.882A5.686,5.686,0,0,1,619.085,26.47Zm-2.995,8.957a1.841,1.841,0,0,0,.768,1.51,2.826,2.826,0,0,0,1.8.6,3.684,3.684,0,0,0,2.6-1.083,3.389,3.389,0,0,0,1.146-2.541,4.767,4.767,0,0,0-3.019-.856,3.928,3.928,0,0,0-2.352.678A2.019,2.019,0,0,0,616.09,35.427Z" transform="translate(-532.789 -21.186)" fill="#5f6368"/>
        <path id="Path_42" data-name="Path 42" d="M665.479,39.6a6.082,6.082,0,0,1-4.554-1.862,6.627,6.627,0,0,1-1.786-4.7,6.525,6.525,0,0,1,1.786-4.7,6.091,6.091,0,0,1,4.554-1.862,5.646,5.646,0,0,1,5.41,3.547l-2.114.881a3.477,3.477,0,0,0-3.446-2.314,3.577,3.577,0,0,0-2.743,1.283,5,5,0,0,0,0,6.339,3.573,3.573,0,0,0,2.743,1.283,3.623,3.623,0,0,0,3.572-2.314l2.062.881a5.534,5.534,0,0,1-2.125,2.6A6,6,0,0,1,665.479,39.6Z" transform="translate(-565.802 -21.186)" fill="#5f6368"/>
        <path id="Path_43" data-name="Path 43" d="M711.291,39.6a5.9,5.9,0,0,1-4.48-1.862,6.577,6.577,0,0,1-1.761-4.7,6.688,6.688,0,0,1,1.712-4.693,6.152,6.152,0,0,1,8.743-.1,7.085,7.085,0,0,1,1.622,4.969l-.025.252h-9.687a4,4,0,0,0,1.209,2.918,3.9,3.9,0,0,0,6.241-1.108l2.062,1.006a6.129,6.129,0,0,1-2.3,2.44A6.384,6.384,0,0,1,711.291,39.6Zm-3.7-8.051h7.07a3.069,3.069,0,0,0-1.045-2.125,3.661,3.661,0,0,0-2.53-.842,3.355,3.355,0,0,0-2.251.8A3.842,3.842,0,0,0,707.593,31.551Z" transform="translate(-599.156 -21.186)" fill="#5f6368"/>
      </g>
    </g>
  </g>
  <g id="Google_logo">
    <g id="_x32_94x96">
      <path id="Path_44" data-name="Path 44" d="M10.327,20.369A10.324,10.324,0,0,1,0,10.185,10.324,10.324,0,0,1,10.327,0,9.691,9.691,0,0,1,17.3,2.806L15.34,4.767a7.087,7.087,0,0,0-5.013-1.988,7.3,7.3,0,0,0-7.3,7.4,7.3,7.3,0,0,0,7.3,7.4,6.8,6.8,0,0,0,5.139-2.037,5.821,5.821,0,0,0,1.515-3.5H10.253V9.266h9.43a9.173,9.173,0,0,1,.148,1.739,9.2,9.2,0,0,1-2.407,6.509A9.306,9.306,0,0,1,10.327,20.369Z" fill="#4285f4"/>
      <path id="Path_45" data-name="Path 45" d="M89.251,33.078a6.571,6.571,0,1,1-6.572-6.558A6.473,6.473,0,0,1,89.251,33.078Zm-2.877,0a3.7,3.7,0,1,0-7.39,0,3.7,3.7,0,1,0,7.39,0Z" transform="translate(-55.295 -19.267)" fill="#ea4335"/>
      <path id="Path_46" data-name="Path 46" d="M141.541,33.078a6.571,6.571,0,1,1-6.572-6.558A6.473,6.473,0,0,1,141.541,33.078Zm-2.877,0a3.7,3.7,0,1,0-7.39,0,3.7,3.7,0,1,0,7.39,0Z" transform="translate(-93.284 -19.267)" fill="#fbbc04"/>
      <path id="Path_47" data-name="Path 47" d="M193.109,26.917V38.69c0,4.843-2.855,6.832-6.23,6.832a6.244,6.244,0,0,1-5.809-3.875l2.508-1.042a3.625,3.625,0,0,0,3.3,2.336c2.161,0,3.5-1.34,3.5-3.851v-.944h-.1a4.465,4.465,0,0,1-3.451,1.491,6.564,6.564,0,0,1,0-13.116,4.537,4.537,0,0,1,3.451,1.466h.1V26.917h2.729ZM190.576,33.1c0-2.311-1.54-4-3.5-4a3.792,3.792,0,0,0-3.648,4,3.761,3.761,0,0,0,3.648,3.949A3.665,3.665,0,0,0,190.576,33.1Z" transform="translate(-131.172 -19.267)" fill="#4285f4"/>
      <path id="Path_48" data-name="Path 48" d="M236.92,2.54V21.815h-2.88V2.54Z" transform="translate(-170.033 -1.845)" fill="#34a853"/>
      <path id="Path_49" data-name="Path 49" d="M259.531,35.239l2.234,1.491a6.516,6.516,0,0,1-5.462,2.907,6.417,6.417,0,0,1-6.5-6.558,6.231,6.231,0,0,1,6.181-6.558,6.093,6.093,0,0,1,5.609,4.173l.3.744-8.762,3.626a3.335,3.335,0,0,0,3.178,1.988A3.741,3.741,0,0,0,259.531,35.239Zm-6.875-2.36,5.858-2.434a2.536,2.536,0,0,0-2.431-1.392A3.6,3.6,0,0,0,252.655,32.879Z" transform="translate(-181.483 -19.267)" fill="#ea4335"/>
    </g>
  </g>
</svg>
