<svg xmlns="http://www.w3.org/2000/svg" viewBox="0 0 416.22 361.16"><defs><style>.cls-1{fill:#4285f4;}.cls-2{fill:#34a853;}.cls-3{fill:#fbbc04;}.cls-4,.cls-9{fill:#ea4335;}.cls-4{fill-rule:evenodd;}.cls-5{fill:#c5221f;}.cls-6{fill:#fff;}.cls-7{fill:#188038;}.cls-8{fill:#1967d2;}.cls-10{fill:#0066da;}.cls-11{fill:#00ac47;}.cls-12{fill:#00832d;}.cls-13{fill:#2684fc;}.cls-14{fill:#ffba00;}.cls-15{fill:#5f6368;}</style></defs><g id="Layer_2" data-name="Layer 2"><g id="Layer_1-2" data-name="Layer 1"><path class="cls-1" d="M95.54,79.59h15.92V40.93l-22.74-17V72.77A6.82,6.82,0,0,0,95.54,79.59Z"/><path class="cls-2" d="M166,79.59H182a6.82,6.82,0,0,0,6.82-6.82V23.88L166,40.93Z"/><path class="cls-3" d="M166,11.37V40.93l22.74-17v-9.1a10.23,10.23,0,0,0-16.37-8.19Z"/><path class="cls-4" d="M111.46,40.93V11.37l27.29,20.47L166,11.37V40.93L138.75,61.4Z"/><path class="cls-5" d="M88.72,14.78v9.1l22.74,17.05V11.37l-6.37-4.78A10.23,10.23,0,0,0,88.72,14.78Z"/><path class="cls-6" d="M307,20.47H261.55V66H307Z"/><path class="cls-1" d="M270.88,55.75a8.9,8.9,0,0,1-3.52-5l3.94-1.62a6.1,6.1,0,0,0,1.88,3.17,4.85,4.85,0,0,0,3.23,1.12,5,5,0,0,0,3.32-1.18,3.77,3.77,0,0,0,1.4-3,3.73,3.73,0,0,0-1.47-3A5.72,5.72,0,0,0,276,45h-2.28V41.08h2.05a5.06,5.06,0,0,0,3.2-1,3.4,3.4,0,0,0,1.29-2.81,3.1,3.1,0,0,0-1.16-2.53,4.48,4.48,0,0,0-2.93-.94,4,4,0,0,0-2.76.92A5.34,5.34,0,0,0,271.91,37L268,35.36a8.74,8.74,0,0,1,2.85-3.89,8.23,8.23,0,0,1,5.33-1.68,9.74,9.74,0,0,1,4.31.93,7.32,7.32,0,0,1,3,2.57A6.47,6.47,0,0,1,284.57,37a6,6,0,0,1-1,3.53,6.94,6.94,0,0,1-2.48,2.23V43a7.35,7.35,0,0,1,3.17,2.47,6.44,6.44,0,0,1,1.24,4,7.37,7.37,0,0,1-1.18,4.13,8.06,8.06,0,0,1-3.24,2.86,10.27,10.27,0,0,1-4.66,1A9.65,9.65,0,0,1,270.88,55.75Z"/><path class="cls-1" d="M295.11,36.17l-4.33,3.14L288.61,36l7.78-5.6h3V56.85h-4.25V36.17Z"/><path class="cls-2" d="M307,66H261.55V86.41H307Z"/><path class="cls-1" d="M307,0H247.9a6.82,6.82,0,0,0-6.82,6.82V66h20.47V20.47H307Z"/><path class="cls-7" d="M241.08,66V79.59a6.81,6.81,0,0,0,6.82,6.82h13.65V66Z"/><path class="cls-3" d="M327.49,20.47H307V66h20.46Z"/><path class="cls-8" d="M327.49,20.47V6.82A6.82,6.82,0,0,0,320.67,0H307V20.47Z"/><path class="cls-9" d="M307,86.41,327.49,66H307Z"/><path class="cls-10" d="M96.23,226.66l4.37,7.57a10.32,10.32,0,0,0,3.76,3.75L120,210.92H88.72A10.28,10.28,0,0,0,90.09,216Z"/><path class="cls-11" d="M138.35,179.08,122.72,152a10.29,10.29,0,0,0-3.75,3.75l-28.88,50a10.29,10.29,0,0,0-1.37,5.12H120Z"/><path class="cls-12" d="M138.35,179.08,154,152a10,10,0,0,0-5.12-1.37h-21a10.61,10.61,0,0,0-5.11,1.37Z"/><path class="cls-13" d="M156.71,210.92H120L104.36,238a10,10,0,0,0,5.11,1.36h57.76a10.64,10.64,0,0,0,5.12-1.36Z"/><path class="cls-9" d="M172.35,238a10.37,10.37,0,0,0,3.75-3.75l1.82-3.13,8.7-15.07a10.27,10.27,0,0,0,1.36-5.11H156.77Z"/><path class="cls-14" d="M172.18,180.79l-14.44-25A10.37,10.37,0,0,0,154,152l-15.64,27.06,18.36,31.84h31.22a10.29,10.29,0,0,0-1.37-5.12Z"/><path class="cls-12" d="M272.52,221.15h-25v18.19a6.8,6.8,0,0,0,6.82,6.82h18.19Z"/><path class="cls-14" d="M272.52,146.11H254.33a6.8,6.8,0,0,0-6.82,6.82v68.22h25v-50h22.74v-25Z"/><path class="cls-10" d="M320.27,221.15h-25v25h18.19a6.8,6.8,0,0,0,6.82-6.82Z"/><path class="cls-11" d="M295.26,221.15H272.52v25h22.74Z"/><path class="cls-13" d="M295.26,171.12v50h25v-50Z"/><path class="cls-9" d="M295.26,146.11v25h25Z"/><path class="cls-6" d="M295.26,171.12H272.52v50h22.74Z"/><g id="Product_name" data-name="Product name"><g id="_type_product_name_here_" data-name="(type product name here)"><path class="cls-15" d="M217.16,311.8h4.91l-9.77,36.59h-4.8l-7.87-24.12h-.21l-7.87,24.12h-4.81L176.58,311.8h4.9l7.72,28.77h.21l7.92-23.86h4.39l7.92,23.86h.21Z"/><path class="cls-15" d="M221.62,335.87a13.25,13.25,0,0,1,3.63-9.56,12.37,12.37,0,0,1,9.25-3.78,12.21,12.21,0,0,1,9.2,3.78,13.16,13.16,0,0,1,3.68,9.56,13,13,0,0,1-3.68,9.55,12.19,12.19,0,0,1-9.2,3.79,12.33,12.33,0,0,1-9.25-3.79A13.21,13.21,0,0,1,221.62,335.87Zm4.7,0a9.16,9.16,0,0,0,2.35,6.54,8,8,0,0,0,11.66,0,10.21,10.21,0,0,0,0-13,7.92,7.92,0,0,0-11.66,0A9.08,9.08,0,0,0,226.32,335.87Z"/><path class="cls-15" d="M255.42,348.39h-4.7v-25h4.5v4.08h.21a6.73,6.73,0,0,1,2.93-3.39,8.17,8.17,0,0,1,4.38-1.41,8.94,8.94,0,0,1,3.47.61l-1.43,4.55a7.75,7.75,0,0,0-2.76-.36,6.1,6.1,0,0,0-4.63,2.15,7.18,7.18,0,0,0-2,5v13.8Z"/><path class="cls-15" d="M290.41,348.39h-5.67l-7.83-11.81-3.83,3.79v8h-4.7V311.8h4.7v22.53l10.83-11h6v.2l-9.76,9.71,10.22,14.92Z"/><path class="cls-15" d="M310.76,341.44A6.81,6.81,0,0,1,307.9,347a12.46,12.46,0,0,1-13.85.29,10.82,10.82,0,0,1-4.09-5.19l4.19-1.79a7.74,7.74,0,0,0,2.68,3.5,6.56,6.56,0,0,0,3.86,1.25,6.8,6.8,0,0,0,3.76-1,2.77,2.77,0,0,0,1.5-2.3q0-2.4-3.68-3.53L298,337.15q-7.31-1.84-7.31-7.06a6.51,6.51,0,0,1,2.78-5.49,12.73,12.73,0,0,1,13.14-.49,8.64,8.64,0,0,1,3.75,4.24l-4.19,1.74a5.27,5.27,0,0,0-2.33-2.48,7.33,7.33,0,0,0-3.6-.89,6,6,0,0,0-3.3.92,2.67,2.67,0,0,0-1.45,2.25c0,1.43,1.34,2.46,4,3.07l3.78,1Q310.76,335.76,310.76,341.44Z"/><path class="cls-15" d="M327.08,349.21a10.87,10.87,0,0,1-5-1.18,8.8,8.8,0,0,1-3.5-3.12h-.2l.2,3.48v11h-4.7V323.35h4.5v3.47h.21a8.72,8.72,0,0,1,3.5-3.11,11.1,11.1,0,0,1,13.41,2.7,14.43,14.43,0,0,1,0,18.91A10.78,10.78,0,0,1,327.08,349.21Zm-.76-4.29a7.3,7.3,0,0,0,5.67-2.56,9.21,9.21,0,0,0,2.3-6.49,9.35,9.35,0,0,0-2.3-6.49,7.63,7.63,0,0,0-11.39,0,10.57,10.57,0,0,0,0,13A7.44,7.44,0,0,0,326.32,344.92Z"/><path class="cls-15" d="M351.87,322.53q5.22,0,8.23,2.78a9.91,9.91,0,0,1,3,7.64v15.43h-4.5v-3.47h-.21a9,9,0,0,1-7.76,4.29,10.12,10.12,0,0,1-6.93-2.45,7.84,7.84,0,0,1-2.79-6.14,7.43,7.43,0,0,1,2.94-6.18,12.42,12.42,0,0,1,7.85-2.3,13.93,13.93,0,0,1,6.9,1.53v-1.07a5.37,5.37,0,0,0-1.95-4.17,6.66,6.66,0,0,0-4.55-1.71,7.21,7.21,0,0,0-6.23,3.32l-4.14-2.6Q345.17,322.53,351.87,322.53Zm-6.08,18.19a3.76,3.76,0,0,0,1.56,3.07A5.74,5.74,0,0,0,351,345a7.53,7.53,0,0,0,5.29-2.2,6.89,6.89,0,0,0,2.32-5.16,9.64,9.64,0,0,0-6.13-1.74,8,8,0,0,0-4.78,1.38A4.09,4.09,0,0,0,345.79,340.72Z"/><path class="cls-15" d="M379.06,349.21a12.33,12.33,0,0,1-9.25-3.79,13.42,13.42,0,0,1-3.63-9.55,13.25,13.25,0,0,1,3.63-9.56,12.36,12.36,0,0,1,9.25-3.78,11.73,11.73,0,0,1,6.69,1.92,11.57,11.57,0,0,1,4.29,5.28l-4.29,1.79a7.07,7.07,0,0,0-7-4.7,7.26,7.26,0,0,0-5.57,2.61,10.17,10.17,0,0,0,0,12.88,7.24,7.24,0,0,0,5.57,2.6,7.36,7.36,0,0,0,7.26-4.7l4.18,1.79a11.26,11.26,0,0,1-4.31,5.29A12.21,12.21,0,0,1,379.06,349.21Z"/><path class="cls-15" d="M404.36,349.21a12,12,0,0,1-9.1-3.79,13.36,13.36,0,0,1-3.58-9.55,13.61,13.61,0,0,1,3.48-9.54,12.51,12.51,0,0,1,17.76-.2q3.3,3.6,3.3,10.1l-.05.51H396.49a8.15,8.15,0,0,0,2.45,5.93,7.85,7.85,0,0,0,5.63,2.25q4.5,0,7.05-4.5l4.19,2a12.43,12.43,0,0,1-4.68,5A13,13,0,0,1,404.36,349.21Zm-7.51-16.36h14.36a6.24,6.24,0,0,0-2.12-4.32,7.49,7.49,0,0,0-5.14-1.71,6.8,6.8,0,0,0-4.57,1.64A7.73,7.73,0,0,0,396.85,332.85Z"/></g></g><g id="Google_logo" data-name="Google logo"><g id="_294x96" data-name="294x96"><path class="cls-1" d="M21,349.2a20.69,20.69,0,1,1,0-41.38,19.7,19.7,0,0,1,14.16,5.7l-4,4a14.4,14.4,0,0,0-10.18-4,15,15,0,0,0,0,30.07,13.84,13.84,0,0,0,10.44-4.14,11.8,11.8,0,0,0,3.07-7.12H20.83v-5.63H40a18.6,18.6,0,0,1,.3,3.53c0,4.24-1.16,9.49-4.89,13.22S27.13,349.2,21,349.2Z"/><path class="cls-9" d="M69,335.88a13.35,13.35,0,1,1-13.35-13.32A13.15,13.15,0,0,1,69,335.88Zm-5.85,0c0-4.8-3.48-8.07-7.5-8.07s-7.51,3.27-7.51,8.07S51.6,344,55.63,344,63.13,340.62,63.13,335.88Z"/><path class="cls-3" d="M98,335.88a13.35,13.35,0,1,1-13.34-13.32A13.14,13.14,0,0,1,98,335.88Zm-5.84,0c0-4.8-3.48-8.07-7.5-8.07s-7.51,3.27-7.51,8.07S80.65,344,84.68,344,92.18,340.62,92.18,335.88Z"/><path class="cls-1" d="M125.81,323.36v23.92c0,9.84-5.8,13.88-12.65,13.88a12.67,12.67,0,0,1-11.8-7.88l5.09-2.11a7.37,7.37,0,0,0,6.71,4.74c4.39,0,7.11-2.72,7.11-7.82v-1.92h-.2a9.05,9.05,0,0,1-7,3c-6.66,0-12.76-5.8-12.76-13.27s6.1-13.37,12.76-13.37a9.2,9.2,0,0,1,7,3h.2v-2.18Zm-5.14,12.57c0-4.7-3.13-8.12-7.11-8.12s-7.41,3.43-7.41,8.12,3.37,8,7.41,8S120.67,340.57,120.67,335.93Z"/><path class="cls-2" d="M135.87,309.24v39.15H130V309.24Z"/><path class="cls-9" d="M158.54,340.27l4.54,3a13.25,13.25,0,0,1-11.1,5.9,13,13,0,0,1-13.21-13.32c0-7.92,5.7-13.32,12.56-13.32s10.28,5.5,11.39,8.47l.61,1.52-17.8,7.36a6.78,6.78,0,0,0,6.45,4A7.6,7.6,0,0,0,158.54,340.27Zm-14-4.8,11.9-4.94a5.14,5.14,0,0,0-4.94-2.83A7.31,7.31,0,0,0,144.57,335.47Z"/></g></g></g></g></svg>