<svg id="Layer_1" xmlns="http://www.w3.org/2000/svg" width="176.889" height="156.338" viewBox="0 0 176.889 156.338">
  <g id="Group_14" data-name="Group 14" transform="translate(0 0)">
    <path id="Path_82" data-name="Path 82" d="M52.655,23.069s-22.214,9.873-38.669,9.873c-3.7,0-11.518-.823-13.987-6.171,9.05-.823,29.207-4.525,40.726-8.639.823,5.348,11.93,4.936,11.93,4.936m2.057,0c-8.227,4.525-27.562,10.7-39.08,11.518,1.645,2.057,9.873,3.7,17.689,3.291,12.341-.823,25.916-8.639,29.207-11.518-3.291-.823-3.7-4.114-7.816-3.291m8.639,4.525c-2.88,2.057-16.455,9.873-28.8,11.518,4.525,4.114,13.987,2.88,18.1,1.645C59.237,38.7,71.579,31.3,71.579,31.3s-4.936-4.525-8.227-3.7m9.05,3.7c-2.057,1.645-16.043,8.639-19.746,9.873,2.057.823,4.525.823,6.993,1.234,1.234-3.291,5.348-5.759,7.816-6.993A22.616,22.616,0,0,1,81.04,33.353a5.091,5.091,0,0,0,1.234-.823s-7.4-.411-9.873-1.234m11.107,1.645c-.411.411-.823.411-1.234.823,2.468.823,4.525,3.291,4.936,3.7a10.23,10.23,0,0,0,.823-5.348,12.667,12.667,0,0,0-4.525.823m1.645-6.993c-12.341,0-9.462-11.93-9.462-14.4s0-7.4-7.816-6.582-20.98,9.05-25.5,11.93c0,2.057,5.759,5.348,13.987,4.114.411,0,7.816-1.234,8.227-1.234.411.411-5.759,2.057-5.759,2.468,2.057,1.234,3.291,2.88,4.936,3.291.411,0,6.582-1.234,7.4-.823.411,0-4.525,1.645-4.114,1.645a19.617,19.617,0,0,1,5.759,3.7c.411,0,4.936-.411,5.348-.411s-2.88,1.234-2.468,1.234a42.634,42.634,0,0,0,6.582.411c2.057,0,4.525-.411,5.348,0s-1.645-5.348-2.468-5.348m91.736.823c-9.05-.823-29.207-4.525-40.726-8.639-.823,5.348-11.93,4.936-11.93,4.936s22.214,9.462,38.669,9.873c4.114,0,10.284-1.234,13.987-6.171m-15.632,7.816c-11.107-.823-30.853-6.993-39.08-11.518-4.525-.823-4.525,2.88-7.4,3.291,3.291,2.468,16.455,10.284,29.207,11.518,2.468,0,10.284.411,17.278-3.291m-55.946-3.7s12.341,7.4,18.923,9.462c4.114,1.234,13.575,2.468,18.1-1.645-12.341-1.645-25.916-9.462-28.8-11.518-3.291-.411-8.227,3.7-8.227,3.7m-10.7,1.645,1.234,1.234c4.114-1.234,10.284,0,13.164,1.645a16.8,16.8,0,0,1,8.227,7.4,19.216,19.216,0,0,0,6.993-1.234c-3.7-1.234-17.278-8.227-19.746-9.873-2.468.411-9.873.823-9.873.823m-5.759-.411a9.546,9.546,0,0,0,1.234,5.759,12.988,12.988,0,0,1,4.936-4.114c-.411-.411-1.234-.823-1.645-1.234a22.149,22.149,0,0,0-4.525-.411M109.425,5.38c-7.816-.823-7.816,4.114-7.816,6.582s2.88,14.4-9.462,14.4c-.823,0-3.291,5.759-2.88,5.348,1.234-.411,3.291,0,5.348,0A42.634,42.634,0,0,0,101.2,31.3c.411,0-2.88-1.234-2.468-1.234s4.936.411,5.348.411a11.125,11.125,0,0,1,5.348-3.7c.411,0-4.525-1.645-4.114-1.645.823-.411,6.993.823,7.4.823,1.645-.411,2.88-2.057,4.936-3.291.411,0-6.171-2.057-5.759-2.468.411,0,7.816,1.234,8.227,1.234,8.227.823,13.987-2.057,13.987-4.114C129.993,14.43,116.829,6.2,109.425,5.38M93.793,108.223a5.93,5.93,0,0,1,3.7,4.525,4.5,4.5,0,0,1-1.645,4.936,9.383,9.383,0,0,1-4.936,2.468,27.175,27.175,0,0,1,6.171,2.057c.411,0,.411-.411.823-.411a9.928,9.928,0,0,0,4.525-9.05c-.411-3.291-2.057-6.993-5.348-8.639-2.88-2.057-6.582-2.468-9.462-2.468a21.515,21.515,0,0,1-7.4-1.234,5.531,5.531,0,0,1-3.7-3.7,7.82,7.82,0,0,1,2.057-5.348c.823-.411,1.234-1.234,2.468-1.234-.411,0-.411,0-.823-.411a36.2,36.2,0,0,1-6.171-2.057,14.376,14.376,0,0,0-3.291,9.05,9.829,9.829,0,0,0,2.057,5.759,8.626,8.626,0,0,0,4.525,3.291A26.994,26.994,0,0,0,86.8,107.4c2.88,0,4.936,0,6.993.823m-.411,30.442a9.873,9.873,0,0,0-4.936-2.88,15.206,15.206,0,0,1-4.525-2.057c-2.468-1.646-2.468-6.171,0-7.816.411,0,.411-.411.823-.411-1.234-.411-2.88-1.234-4.114-1.645a7.5,7.5,0,0,0-2.057,4.525,9.342,9.342,0,0,0,2.468,6.582c3.7,3.291,7.816,2.468,9.462,4.525a6.159,6.159,0,0,1,2.057,6.171c-.823,4.525-4.525,4.114-4.114,4.114a2.4,2.4,0,0,0,1.645.411,5.234,5.234,0,0,0,4.114-3.291,12.011,12.011,0,0,0,.823-3.7,6.854,6.854,0,0,0-1.645-4.525m-9.05,7.4a6.159,6.159,0,0,1,2.057-6.171l.411-.411-2.468-1.234-.411.411a6.854,6.854,0,0,0-1.645,4.525c0,1.645,0,2.88.823,3.7a4.54,4.54,0,0,0,4.114,3.291c1.234,0,1.645,0,1.645-.411,0,.411-4.114.411-4.525-3.7m14.4-17.278a7.821,7.821,0,0,0-4.114-6.582,17.329,17.329,0,0,0-7.4-1.645,14.423,14.423,0,0,1-5.759-2.468c-1.645-1.645-2.057-2.88-1.645-4.936a6.955,6.955,0,0,1,2.88-4.114,1.511,1.511,0,0,1-1.234-.411,17.192,17.192,0,0,1-4.114-1.645,16.232,16.232,0,0,0-2.468,6.171c-.411,3.7,2.057,7.4,4.525,9.05a19.716,19.716,0,0,0,8.227,2.88,11.946,11.946,0,0,1,5.759,1.234c2.468,1.645,2.468,6.171,0,7.816a8.269,8.269,0,0,1-3.291,1.646,14.611,14.611,0,0,1,3.7,1.645,8.606,8.606,0,0,0,2.468-1.645,11.171,11.171,0,0,0,2.468-6.993M102.02,86.42c-2.88-2.468-6.582-3.291-9.873-3.7-3.7-.411-6.171,0-9.05-.411-5.348-.823-10.7-3.7-10.284-6.582,0-3.7,2.88-6.171,6.993-7.4a35.576,35.576,0,0,1-9.462-2.468h-.411a13.114,13.114,0,0,0-4.114,10.7,10.4,10.4,0,0,0,2.468,6.171,12.859,12.859,0,0,0,4.525,3.7,29.961,29.961,0,0,0,9.873,2.88c3.291.411,6.993,0,9.05.411,2.468.411,4.936.823,6.582,2.468a8.664,8.664,0,0,1,2.057,5.348q0,2.468-3.7,3.7c-.823.411-1.645.411-2.057.823a20.862,20.862,0,0,1,6.582,3.7,17.892,17.892,0,0,0,2.88-2.468,9.829,9.829,0,0,0,2.057-5.759c.411-4.525-.823-8.639-4.114-11.107M88.445,37.467l-2.468,5.759v14.4h4.936v-14.4Zm0-8.227L90.913,24.3v-2.88a2.3,2.3,0,0,0-2.468-2.057c-1.234,0-2.468.411-2.468,2.057V24.3ZM86.388,68.32V81.072H90.5V68.32Zm0,21.8v11.518H90.5V90.122Zm3.7,29.207a111.692,111.692,0,0,1,.411-11.518H86.8V119.33Zm-.411,15.632a76.038,76.038,0,0,1,.411-9.462h-2.88a69.724,69.724,0,0,0,.411,9.462ZM87.211,139.9c.411,11.93.823,19.335,1.234,18.923.411,0,.823-7.4.823-18.923ZM88.445,2.5a6.5,6.5,0,0,0-6.582,6.582,6.582,6.582,0,1,0,13.164,0A6.5,6.5,0,0,0,88.445,2.5m0,13.575c-2.057,0-4.114-1.234-4.525-.411-.823.411.823,3.7,4.525,3.7,3.291,0,5.348-3.291,4.525-3.7-.411-.411-2.468.823-4.525.411m23.037,60.06a10.4,10.4,0,0,1-2.468,6.171,12.859,12.859,0,0,1-4.525,3.7h0a21.059,21.059,0,0,0-8.639-4.114c4.936-.823,9.05-3.7,8.639-6.171,0-4.114-3.7-6.582-9.05-7.816-9.462-1.645-24.682,1.645-33.732-10.284a25.164,25.164,0,0,1-2.057-4.936c-.411-2.057,0-3.291,0-4.936a12.492,12.492,0,0,1,4.936-8.639C69.933,35,74.869,35,79.395,34.587c2.057,0,5.759,2.468,7.4,4.936a1.511,1.511,0,0,1-.411,1.234c-1.234,1.645-4.525,2.468-6.582,2.468-3.7,0-5.759-3.7-10.284,1.645-1.234.823-1.234,3.291-1.645,4.936,0,2.057,0,3.291.823,4.525,1.645,2.88,6.582,4.936,11.107,5.759,2.468.411,4.936.411,7.816.823a39.872,39.872,0,0,1,9.462,1.234,22.361,22.361,0,0,1,9.462,4.525c3.7.823,5.348,5.348,4.936,9.462m-32.5-39.9a.823.823,0,1,0,.823-.823.885.885,0,0,0-.823.823m38.257,15.632c-.411,1.645-.823,3.7-2.057,4.936a17.611,17.611,0,0,1-7.4,6.171,34,34,0,0,0-5.348-2.88,25.163,25.163,0,0,0-4.936-2.057h-.411c4.936-.823,9.462-2.88,11.107-5.759.823-1.234.823-2.468.823-4.525-.411-1.645-.411-4.114-1.645-4.936-4.525-4.936-6.582-1.234-10.284-1.645-2.057,0-6.993-1.234-6.993-3.291,1.645-2.468,4.936-4.936,7.4-4.936,4.114.411,9.462.411,14.809,4.525a14.21,14.21,0,0,1,4.936,8.639c.411,2.88.411,4.114,0,5.759M98.318,36.233a.823.823,0,1,0-.823.823c.411-.411.823-.411.823-.823" transform="translate(0 -2.5)" fill="#fff"/>
  </g>
</svg>
