<svg xmlns="http://www.w3.org/2000/svg" viewBox="0 0 500.13 499.03"><defs><style>.cls-1{fill:#fff;stroke:#000;stroke-linejoin:round;stroke-width:0.13px;}.cls-2{isolation:isolate;font-size:83.79px;fill:#072452;font-family:ArialMT, Arial;}</style></defs><g id="Layer_2" data-name="Layer 2"><g id="svg2"><polygon class="cls-1" points="65.06 208.56 65.16 208.66 65.26 208.66 65.16 208.46 65.16 208.56 65.06 208.56"/><polygon class="cls-1" points="43.26 189.86 43.26 189.96 43.36 189.96 43.46 189.76 43.26 189.86"/><path class="cls-1" d="M43.36,190h0Z"/><polygon class="cls-1" points="172.66 245.96 172.56 245.86 172.56 245.96 172.66 245.96"/><polygon class="cls-1" points="256.66 398.86 256.76 398.76 256.56 398.76 256.66 398.86"/><polygon class="cls-1" points="445.46 256.56 445.36 256.66 445.46 256.66 445.46 256.56"/><polygon class="cls-1" points="452.36 114.96 452.46 115.06 452.46 115.06 452.36 114.96"/><polygon class="cls-1" points="369.06 85.46 369.26 85.66 369.36 85.66 369.36 85.56 369.16 85.46 369.06 85.46"/><polygon class="cls-1" points="369.26 84.76 369.36 84.76 369.56 84.96 369.66 84.66 369.46 84.66 369.36 84.56 369.26 84.46 369.06 84.56 368.96 84.66 369.06 84.76 369.26 84.76"/><polygon class="cls-1" points="361.16 84.36 361.16 84.36 361.16 84.46 361.16 84.36"/><polygon class="cls-1" points="361.06 84.96 361.06 85.06 361.16 85.06 361.16 85.06 361.16 84.96 361.26 84.86 361.26 84.66 361.36 84.56 361.26 84.46 361.26 84.66 361.16 84.66 361.16 84.36 361.16 84.16 361.16 84.16 361.16 83.96 361.16 84.06 360.96 84.16 361.06 84.36 360.96 84.36 360.96 84.16 360.96 84.16 361.06 84.06 361.16 83.86 361.06 83.86 360.96 83.56 360.56 83.86 360.56 84.16 360.66 84.16 360.76 84.36 360.66 84.46 360.56 84.56 360.56 84.66 360.66 84.66 360.76 84.76 360.66 84.86 360.46 84.96 360.46 85.06 361.06 84.96"/><polygon class="cls-1" points="362.36 84.66 362.46 84.56 362.56 84.46 362.46 84.46 362.46 84.36 362.46 84.26 362.36 84.36 362.26 84.56 362.36 84.56 362.36 84.66"/><polygon class="cls-1" points="361.16 83.86 361.36 83.66 361.36 83.56 361.36 83.46 361.36 83.36 361.26 83.36 361.26 83.16 361.36 82.86 361.56 82.56 361.56 82.66 361.66 82.56 361.66 82.56 361.66 82.16 361.66 81.96 361.56 81.96 361.46 81.86 361.36 81.96 361.26 81.96 361.46 81.96 361.46 82.06 361.46 82.16 361.36 82.06 361.26 82.26 361.26 82.46 361.16 82.66 361.16 83.06 361.16 83.56 361.06 83.76 361.16 83.86 361.16 83.96 361.16 83.86"/><polygon class="cls-1" points="359.26 83.36 359.16 83.56 359.26 83.56 359.26 83.46 359.26 83.36"/><rect class="cls-1" x="358.36" y="83.56" width="0.1" height="0.1"/><polygon class="cls-1" points="360.46 84.16 360.46 84.26 360.56 84.36 360.56 84.46 360.66 84.36 360.66 84.16 360.56 84.16 360.46 84.16"/><polygon class="cls-1" points="362.26 84.56 362.16 84.66 362.26 84.66 362.26 84.56"/><rect class="cls-1" x="361.06" y="83.56" width="0.1" height="0.1"/><polygon class="cls-1" points="360.56 82.96 360.56 83.06 360.66 83.16 360.56 83.16 360.46 82.96 360.46 83.06 360.46 83.16 360.46 83.16 360.46 83.36 360.46 83.56 360.46 83.56 360.56 83.76 360.86 83.56 360.96 83.56 360.86 83.46 360.96 83.16 360.86 83.06 360.66 82.76 360.56 82.96"/><polygon class="cls-1" points="362.16 83.86 362.26 83.76 362.16 83.76 362.06 83.86 362.16 83.86"/><polygon class="cls-1" points="359.06 82.26 359.06 82.36 359.26 82.16 359.16 81.96 359.26 81.96 359.26 81.96 359.06 81.86 358.86 81.96 358.86 81.96 358.86 82.26 358.96 82.36 359.06 82.26"/><polygon class="cls-1" points="359.26 82.76 359.16 82.96 359.16 83.06 359.26 83.26 359.36 83.06 359.36 82.96 359.36 82.86 359.26 82.76"/><polygon class="cls-1" points="368.76 84.66 368.76 84.56 368.66 84.66 368.66 84.76 368.76 84.66"/><polygon class="cls-1" points="364.06 85.66 364.16 85.76 364.26 85.66 364.26 85.46 364.16 85.46 364.06 85.66"/><polygon class="cls-1" points="361.96 83.36 362.26 83.26 362.36 83.26 362.46 83.36 362.56 83.36 362.56 83.26 362.66 83.26 362.56 83.06 362.36 82.96 362.36 82.86 362.26 82.76 362.06 82.86 362.06 82.96 362.06 83.06 362.16 83.06 362.06 83.06 361.96 83.26 361.76 83.56 361.76 83.56 361.96 83.36"/><polygon class="cls-1" points="368.46 86.16 368.46 86.16 368.46 86.26 368.46 86.16"/><polygon class="cls-1" points="368.46 86.16 368.36 86.16 368.36 86.26 368.46 86.16"/><polygon class="cls-1" points="368.76 85.06 368.76 85.36 368.76 85.46 368.86 85.36 368.76 84.76 368.66 84.86 368.76 84.86 368.76 85.06"/><polygon class="cls-1" points="368.56 86.06 368.46 85.86 368.36 85.76 368.26 86.06 368.36 86.16 368.46 86.06 368.36 86.06 368.46 85.96 368.56 86.06"/><polygon class="cls-1" points="368.16 85.76 368.16 85.86 368.16 85.96 368.26 86.06 368.26 85.76 368.16 85.76"/><polygon class="cls-1" points="368.16 86.36 368.36 86.46 368.36 86.36 368.36 86.26 368.16 86.16 368.16 86.36"/><polygon class="cls-1" points="368.16 85.86 368.16 85.76 368.26 85.46 368.26 85.36 368.46 85.26 368.46 85.26 368.46 85.16 368.26 85.16 368.26 85.26 368.16 85.56 368.06 85.76 368.16 85.86"/><polygon class="cls-1" points="371.86 90.76 371.86 90.66 371.76 90.76 371.86 90.76"/><polygon class="cls-1" points="371.46 87.36 371.56 87.56 371.86 87.66 371.96 87.56 371.96 87.36 371.96 87.36 372.06 87.26 371.96 87.26 371.96 87.16 371.76 87.26 371.96 87.16 372.36 86.56 372.16 86.56 371.96 86.76 371.96 86.86 371.86 87.06 371.56 87.26 371.46 87.36"/><polygon class="cls-1" points="372.16 87.66 372.16 87.56 372.06 87.66 372.16 87.66"/><polygon class="cls-1" points="373.96 90.56 374.06 90.86 374.06 90.56 373.96 90.56"/><polygon class="cls-1" points="372.66 89.36 372.76 89.26 372.66 89.06 372.66 89.16 372.66 89.06 372.56 89.06 372.56 89.16 372.56 89.16 372.46 89.26 372.66 89.36"/><polygon class="cls-1" points="372.06 86.96 371.96 87.16 372.06 87.16 372.26 87.06 372.56 87.06 372.66 86.96 372.66 86.36 372.46 86.26 372.16 86.26 372.16 86.36 372.36 86.56 372.36 86.66 372.06 86.96"/><polygon class="cls-1" points="380.86 98.46 380.86 98.56 380.96 98.56 380.86 98.46"/><polygon class="cls-1" points="374.36 90.26 374.26 90.36 374.36 90.36 374.36 90.26"/><polygon class="cls-1" points="372.86 88.96 372.86 88.86 372.66 88.96 372.66 88.96 372.86 89.06 372.86 88.96"/><rect class="cls-1" x="374.16" y="90.36" width="0.1" height="0.1"/><polygon class="cls-1" points="371.56 87.66 371.66 87.76 371.66 87.66 371.56 87.56 371.46 87.56 371.56 87.66"/><polygon class="cls-1" points="372.56 87.36 372.46 87.46 372.46 87.76 372.46 87.86 372.76 87.56 372.86 87.46 372.86 87.36 372.66 87.26 372.66 87.26 372.56 87.36"/><polygon class="cls-1" points="381.86 98.26 381.86 98.46 381.96 98.26 381.86 98.26"/><polygon class="cls-1" points="362.96 85.36 363.06 85.36 363.06 85.26 362.96 85.36"/><polygon class="cls-1" points="382.06 98.16 381.96 98.26 382.06 98.36 382.06 98.16"/><polygon class="cls-1" points="376.46 93.46 376.36 93.26 376.26 93.56 376.36 93.56 376.46 93.46"/><polygon class="cls-1" points="376.46 93.86 375.86 94.16 376.06 94.16 376.36 94.06 376.46 93.86"/><polygon class="cls-1" points="374.66 90.76 374.56 90.76 374.56 90.76 374.46 91.06 374.56 91.26 374.56 91.36 374.66 91.36 374.76 91.26 374.86 91.06 374.76 91.16 374.86 91.06 374.76 90.76 374.86 90.66 374.76 90.56 374.66 90.56 374.66 90.76"/><polygon class="cls-1" points="376.16 94.46 376.06 94.46 375.96 94.36 375.96 94.46 375.86 94.56 375.96 94.66 375.86 94.66 376.06 94.76 376.06 94.56 376.16 94.46"/><polygon class="cls-1" points="376.06 94.86 376.06 94.76 375.96 94.86 376.06 94.86"/><polygon class="cls-1" points="368.16 85.36 368.06 85.26 368.16 85.16 368.06 85.06 367.96 85.06 367.96 85.16 367.86 85.26 367.86 85.36 367.86 85.36 367.96 85.46 367.96 85.46 367.96 85.56 368.06 85.46 368.16 85.36"/><polygon class="cls-1" points="363.06 84.86 363.06 84.96 363.26 84.86 363.36 84.76 363.26 84.66 363.06 84.86"/><polygon class="cls-1" points="372.06 87.76 372.16 87.86 372.16 87.76 372.06 87.76"/><polygon class="cls-1" points="369.56 84.96 369.66 85.26 369.76 85.36 369.66 85.36 369.46 84.96 369.26 84.76 369.06 84.96 369.16 85.36 369.46 85.66 369.66 85.66 369.76 85.46 369.76 85.56 369.86 85.56 370.06 85.36 370.06 85.26 370.16 85.26 370.26 85.26 370.26 85.16 370.66 84.86 370.76 84.76 370.66 84.76 370.36 84.86 370.76 84.66 370.46 84.66 370.46 84.56 370.56 84.36 370.46 84.46 370.46 84.36 370.46 84.26 370.56 84.26 370.46 84.36 370.56 84.36 370.66 84.36 370.66 84.46 370.46 84.56 370.56 84.66 370.76 84.66 370.76 84.66 370.76 84.76 370.86 84.76 370.86 84.66 370.96 84.56 370.86 84.96 371.06 84.76 371.36 84.66 371.26 84.66 371.26 84.56 371.26 84.46 371.16 84.16 370.76 84.06 370.56 83.96 370.26 83.96 370.26 84.16 370.36 84.26 370.26 84.26 370.26 84.16 370.16 84.06 370.06 84.06 369.96 83.96 369.76 83.96 369.66 84.06 369.46 84.26 369.56 84.36 369.76 84.26 369.66 84.46 369.86 84.46 369.76 84.56 370.06 84.66 370.06 84.76 369.76 84.56 369.66 84.66 369.66 84.66 369.66 84.76 369.56 84.96"/><rect class="cls-1" x="373.16" y="87.86" width="0.1" height="0.1"/><polygon class="cls-1" points="367.96 85.56 367.96 85.66 368.06 85.66 367.96 85.56"/><polygon class="cls-1" points="374.46 90.76 374.36 90.56 374.66 90.46 374.66 90.36 374.56 90.26 374.16 90.56 374.16 90.56 374.16 90.86 374.26 90.86 374.36 90.86 374.46 90.76"/><polygon class="cls-1" points="381.76 98.26 381.66 98.36 381.66 98.46 381.76 98.36 381.76 98.26"/><polygon class="cls-1" points="409.76 102.36 409.66 102.36 409.76 102.46 409.76 102.36"/><polygon class="cls-1" points="372.46 87.96 372.46 87.86 372.36 87.96 372.46 87.96"/><polygon class="cls-1" points="364.56 85.36 364.66 85.36 364.56 85.26 364.56 85.36"/><polygon class="cls-1" points="363.06 85.26 363.06 85.26 363.06 85.16 363.06 85.26"/><rect class="cls-1" x="348.86" y="78.16" width="0.1" height="0.1"/><polygon class="cls-1" points="351.76 80.36 351.86 80.26 351.76 80.26 351.66 80.36 351.66 80.46 351.66 80.56 351.76 80.56 351.76 80.36"/><polygon class="cls-1" points="351.26 79.66 351.06 79.96 350.96 80.26 351.36 79.96 351.36 79.86 351.46 79.86 351.56 79.76 351.56 79.66 351.46 79.56 351.36 79.46 351.26 79.56 351.26 79.66"/><polygon class="cls-1" points="333.06 76.16 333.06 76.16 333.16 76.16 333.16 76.06 333.26 76.06 333.16 75.96 333.06 76.06 333.06 76.16"/><rect class="cls-1" x="350.96" y="80.36" width="0.1" height="0.1"/><polygon class="cls-1" points="343.66 76.46 343.56 76.56 343.56 76.46 343.36 76.46 343.36 76.66 343.76 76.56 343.66 76.46"/><polygon class="cls-1" points="350.56 79.86 350.66 79.86 350.56 79.86 350.46 79.86 350.56 79.86"/><polygon class="cls-1" points="348.86 78.66 348.96 78.56 348.86 78.46 348.86 78.56 348.86 78.66"/><polygon class="cls-1" points="352.56 79.86 352.46 79.76 352.56 79.76 352.46 79.66 352.36 79.76 352.46 79.86 352.56 79.86"/><polygon class="cls-1" points="341.46 76.16 341.46 76.16 341.56 76.16 341.46 76.16"/><polygon class="cls-1" points="355.46 81.16 355.36 81.16 355.36 81.26 355.36 81.36 355.46 81.46 355.66 81.66 355.76 81.76 355.76 81.56 355.66 81.26 355.56 81.26 355.66 81.16 355.46 81.16"/><rect class="cls-1" x="353.96" y="79.56" width="0.1" height="0.1"/><polygon class="cls-1" points="366.26 373.26 366.26 373.16 366.16 373.36 365.96 373.16 365.86 373.16 365.76 373.16 365.86 373.06 365.56 372.96 365.56 372.86 365.66 372.86 365.66 372.76 365.76 372.76 365.76 372.66 365.66 372.66 365.86 372.56 366.06 372.56 366.26 372.66 366.36 372.56 366.26 372.56 366.26 372.56 366.26 372.46 366.26 372.46 366.16 372.36 366.26 372.26 366.26 372.16 366.26 372.16 366.26 372.06 366.26 371.86 366.36 371.76 366.26 371.76 366.26 371.56 366.16 371.56 366.06 371.56 366.06 371.46 365.96 371.36 365.86 371.36 365.76 371.26 365.56 371.26 365.56 371.16 365.36 371.16 365.26 371.06 365.06 371.06 364.96 371.06 364.96 371.26 364.86 371.56 364.86 371.56 364.86 371.66 364.76 371.76 364.76 371.86 364.66 371.86 364.66 372.16 364.46 372.26 364.06 372.66 363.96 372.66 364.06 372.76 363.96 372.76 363.76 372.86 363.76 372.96 363.66 372.96 363.56 373.16 363.46 373.16 363.46 373.16 363.46 373.56 363.66 373.76 363.86 373.86 364.16 373.76 364.26 373.76 364.76 373.66 364.86 373.56 364.96 373.66 364.96 373.56 365.06 373.56 365.16 373.46 365.26 373.56 365.36 373.56 365.46 373.46 365.46 373.56 365.56 373.46 365.76 373.66 365.66 373.86 365.86 374.16 366.16 374.26 366.26 374.06 366.26 373.96 366.36 373.86 366.26 373.86 366.26 373.76 366.26 373.66 366.26 373.66 366.26 373.46 366.26 373.36 366.36 373.46 366.46 373.36 366.36 373.26 366.26 373.26"/><polygon class="cls-1" points="365.66 369.46 365.56 369.46 365.56 369.46 365.66 369.46"/><polygon class="cls-1" points="366.36 372.26 366.46 372.26 366.36 372.16 366.36 372.26"/><rect class="cls-1" x="362.56" y="372.66" width="0.1" height="0.1"/><polygon class="cls-1" points="367.56 371.96 367.46 372.06 367.26 372.06 367.36 372.16 367.46 372.36 367.56 372.16 367.76 372.26 367.86 372.16 367.56 372.06 367.56 371.96"/><polygon class="cls-1" points="359.26 372.76 359.26 372.86 359.26 372.96 359.36 372.96 359.36 372.86 359.46 372.76 359.36 372.76 359.26 372.76"/><polygon class="cls-1" points="367.46 369.06 367.36 368.96 367.26 369.06 367.26 369.16 367.36 369.06 367.46 369.16 367.46 369.06"/><rect class="cls-1" x="345.06" y="379.56" width="0.1" height="0.1"/><rect class="cls-1" x="360.06" y="372.06" width="0.1" height="0.1"/><rect class="cls-1" x="344.96" y="379.46" width="0.1" height="0.1"/><polygon class="cls-1" points="352.86 375.26 352.96 375.06 352.96 374.96 352.86 375.16 352.86 375.26"/><polygon class="cls-1" points="371.16 366.86 371.16 366.96 371.26 366.86 371.16 366.86"/><rect class="cls-1" x="371.16" y="366.96" width="0.1" height="0.1"/><polygon class="cls-1" points="370.56 366.76 370.56 366.66 370.46 366.66 370.56 366.76"/><polygon class="cls-1" points="368.56 368.66 368.46 368.76 368.36 368.76 368.26 368.66 368.16 368.76 368.26 368.86 368.26 368.86 368.26 369.06 368.56 368.86 368.76 368.76 368.76 368.66 368.56 368.56 368.56 368.66"/><polygon class="cls-1" points="371.16 367.26 371.16 367.26 371.06 367.26 371.16 367.26"/><polygon class="cls-1" points="369.06 371.36 368.96 371.36 368.96 371.46 369.06 371.56 369.06 371.56 369.16 371.56 369.16 371.46 369.06 371.46 369.16 371.36 369.06 371.36"/><path class="cls-1" d="M368.76,368.46v0Z"/><rect class="cls-1" x="370.46" y="367.26" width="0.1" height="0.1"/><rect class="cls-1" x="369.96" y="366.76" width="0.1" height="0.1"/><polygon class="cls-1" points="374.36 362.46 374.36 362.56 374.46 362.46 374.36 362.46"/><rect class="cls-1" x="374.56" y="364.36" width="0.1" height="0.1"/><polygon class="cls-1" points="373.46 364.86 373.36 364.86 373.36 364.96 373.46 364.86"/><polygon class="cls-1" points="374.36 364.66 374.46 364.66 374.56 364.56 374.56 364.46 374.56 364.46 374.36 364.66 374.16 364.66 374.36 364.66"/><rect class="cls-1" x="374.66" y="364.16" width="0.1" height="0.1"/><polygon class="cls-1" points="373.96 364.76 373.86 364.66 373.86 364.76 373.96 364.76"/><polygon class="cls-1" points="373.26 363.86 373.26 364.06 373.36 363.86 373.26 363.76 373.26 363.86"/><rect class="cls-1" x="373.96" y="362.56" width="0.1" height="0.1"/><rect class="cls-1" x="373.86" y="362.66" width="0.1" height="0.1"/><rect class="cls-1" x="374.26" y="362.56" width="0.1" height="0.1"/><polygon class="cls-1" points="393.46 358.76 393.36 358.76 393.36 358.86 393.46 358.76"/><polygon class="cls-1" points="382.46 361.16 382.56 361.06 382.46 361.06 382.46 361.16"/><polygon class="cls-1" points="393.36 358.66 393.36 358.76 393.46 358.66 393.36 358.66"/><polygon class="cls-1" points="373.76 364.66 373.96 364.56 373.96 364.66 373.96 364.66 373.96 364.66 374.06 364.66 374.06 364.56 374.16 364.46 374.06 364.46 374.06 364.36 373.86 364.36 373.86 364.16 373.76 364.16 373.66 364.46 373.56 364.46 373.56 364.56 373.76 364.66"/><rect class="cls-1" x="374.96" y="362.46" width="0.1" height="0.1"/><polygon class="cls-1" points="391.76 360.16 391.96 360.16 392.06 360.16 391.96 360.06 392.16 359.96 391.86 359.96 391.76 359.86 391.76 359.86 391.76 359.76 391.76 359.96 391.76 360.06 391.76 360.06 391.76 360.16"/><polygon class="cls-1" points="382.96 361.86 383.06 361.76 383.06 361.66 382.96 361.66 382.86 361.76 382.86 361.86 382.86 361.96 382.86 361.96 382.96 361.86"/><rect class="cls-1" x="383.76" y="361.16" width="0.1" height="0.1"/><rect class="cls-1" x="374.86" y="362.56" width="0.1" height="0.1"/><rect class="cls-1" x="383.16" y="361.66" width="0.1" height="0.1"/><polygon class="cls-1" points="387.16 362.36 387.06 362.26 386.96 362.26 386.26 362.36 385.76 362.46 384.66 362.56 384.16 362.56 383.76 362.46 383.56 362.36 383.56 362.46 383.56 362.56 383.46 362.66 383.36 362.66 383.06 362.56 382.86 362.56 382.76 362.46 382.66 362.36 382.36 362.46 382.26 362.56 382.16 362.56 382.16 362.66 382.06 362.76 381.96 362.76 381.86 362.86 381.96 362.86 381.96 363.06 382.06 363.06 382.16 363.06 382.26 363.06 382.66 362.96 383.86 362.76 384.86 362.56 386.26 362.46 387.26 362.46 387.36 362.56 387.56 362.66 387.56 362.46 387.16 362.36"/><polygon class="cls-1" points="411.36 354.16 411.26 354.26 411.26 354.36 411.46 354.36 411.36 354.26 411.46 354.26 411.36 354.16"/><rect class="cls-1" x="392.26" y="362.66" width="0.1" height="0.1"/><rect class="cls-1" x="391.16" y="362.16" width="0.1" height="0.1"/><rect class="cls-1" x="411.46" y="354.06" width="0.1" height="0.1"/><polygon class="cls-1" points="394.16 361.56 394.26 361.46 394.16 361.46 394.16 361.56"/><polygon class="cls-1" points="407.56 361.36 407.46 361.36 407.36 361.36 407.46 361.46 407.56 361.36"/><polygon class="cls-1" points="380.36 362.26 380.36 362.36 380.46 362.36 380.36 362.26"/><polygon class="cls-1" points="380.56 363.76 380.56 363.66 380.36 363.86 380.26 363.86 380.26 363.86 380.26 363.66 380.26 363.56 380.36 363.56 380.46 363.46 380.36 363.36 380.16 363.46 380.16 363.56 380.06 363.56 380.06 363.56 379.96 363.56 379.86 363.56 379.86 363.56 379.86 363.36 379.76 363.36 379.56 363.36 379.46 363.36 379.46 363.16 379.36 363.26 379.26 363.26 379.26 363.16 379.46 363.16 379.56 363.16 379.56 363.06 379.36 363.06 379.36 363.06 379.06 363.06 379.06 362.96 379.06 362.96 379.06 363.06 378.76 363.06 378.86 363.06 378.86 363.26 378.76 363.26 378.76 363.36 378.46 363.36 378.56 363.46 378.46 363.46 378.36 363.56 378.36 363.56 378.36 363.56 378.26 363.56 378.36 363.26 378.06 363.46 378.06 363.56 378.06 363.56 377.96 363.56 377.86 363.56 377.96 363.66 377.86 363.76 377.76 363.76 377.66 363.86 377.56 363.86 377.46 363.96 377.36 363.96 377.16 364.06 377.16 364.06 377.26 364.16 377.46 364.06 377.46 364.26 377.66 364.06 377.76 364.16 377.76 364.26 377.66 364.46 377.56 364.56 377.56 364.66 377.76 364.66 377.66 364.66 377.76 364.66 377.76 364.56 378.06 364.26 377.96 364.16 378.16 364.06 378.36 364.06 378.56 364.06 378.66 364.16 378.56 364.36 378.76 364.26 378.86 364.36 378.76 364.46 378.86 364.46 378.96 364.36 379.06 364.36 379.16 364.36 379.46 364.26 379.56 364.36 379.56 364.46 379.66 364.36 379.66 364.26 379.66 364.26 379.66 364.06 379.76 364.06 379.86 364.16 380.06 364.06 380.26 363.96 380.36 364.06 380.46 364.06 380.36 364.16 380.56 364.16 380.66 364.06 380.86 364.06 380.96 363.96 380.66 363.96 380.56 363.76"/><polygon class="cls-1" points="381.46 361.86 381.36 361.96 381.46 361.96 381.56 361.96 381.56 361.96 381.66 361.96 381.56 361.76 381.46 361.86"/><rect class="cls-1" x="390.86" y="362.26" width="0.1" height="0.1"/><polygon class="cls-1" points="383.46 360.86 383.46 360.96 383.36 360.86 383.16 360.96 383.16 361.06 383.26 361.16 383.16 361.26 383.26 361.36 383.36 361.36 383.46 361.16 383.56 361.16 383.56 361.06 383.66 360.86 383.46 360.86 383.46 360.86"/><polygon class="cls-1" points="380.06 362.36 380.06 362.26 379.96 362.36 380.06 362.36"/><path class="cls-1" d="M378.86,362.46h0Z"/><polygon class="cls-1" points="392.06 359.46 392.16 359.56 392.36 359.56 392.46 359.76 392.46 359.56 392.56 359.66 392.66 359.56 392.56 359.56 392.46 359.36 392.46 359.26 392.66 359.16 392.76 359.06 392.76 358.96 392.66 358.96 392.56 359.06 392.56 358.96 392.46 359.06 392.46 359.06 392.36 359.16 392.46 359.26 392.36 359.26 392.16 359.26 391.96 359.06 391.86 359.06 391.76 359.16 391.66 359.26 391.66 359.36 391.56 359.36 391.46 359.26 391.36 359.36 391.46 359.56 391.66 359.56 391.66 359.66 391.76 359.76 391.86 359.56 392.06 359.46"/><polygon class="cls-1" points="383.46 362.26 383.56 362.36 383.56 362.36 383.46 362.26"/><polygon class="cls-1" points="391.86 359.76 391.76 359.86 391.86 359.86 391.86 359.76"/><path class="cls-1" d="M423.76,334.26v0Z"/><rect class="cls-1" x="323.86" y="421.86" width="0.1" height="0.1"/><polygon class="cls-1" points="325.56 418.06 325.66 418.26 325.66 418.16 325.56 418.06"/><polygon class="cls-1" points="326.36 418.66 326.06 418.56 325.96 418.46 325.96 418.16 325.86 418.16 325.86 417.96 325.86 417.86 325.76 417.96 325.66 418.06 325.56 417.96 325.56 418.06 325.66 418.16 325.66 418.16 325.66 418.26 325.66 418.36 325.36 418.46 325.06 418.56 324.96 418.56 324.76 418.56 324.46 418.56 324.36 418.66 324.16 418.76 324.46 418.76 324.46 418.96 324.36 418.96 324.36 419.06 324.26 419.06 324.16 419.16 324.16 419.26 324.26 419.26 324.36 419.36 324.46 419.46 324.56 419.56 324.56 419.66 324.36 419.66 324.46 419.76 324.36 419.86 324.46 419.96 324.66 420.06 324.56 420.16 324.46 420.16 324.56 420.26 324.56 420.36 324.26 420.26 324.16 420.36 324.06 420.46 323.96 420.56 323.96 420.66 324.06 420.76 324.06 420.76 324.16 420.86 324.26 420.76 324.36 420.86 324.46 421.26 324.16 421.26 324.06 421.26 323.86 421.56 323.86 421.66 323.86 421.76 323.86 421.76 323.96 421.86 324.06 421.86 324.06 421.86 323.96 422.16 324.06 422.46 323.96 422.56 323.86 422.76 323.66 422.76 323.76 422.86 323.76 422.96 323.86 423.06 323.96 423.16 323.86 423.26 324.06 423.36 323.96 423.46 323.86 423.66 323.96 423.66 323.96 423.76 324.16 423.56 324.16 423.46 324.26 423.16 324.36 423.06 324.56 422.96 324.66 422.96 324.66 423.06 324.76 423.16 324.86 423.06 324.96 422.96 324.86 422.96 324.86 422.86 324.96 422.86 325.06 422.86 325.06 422.76 324.86 422.76 324.86 422.66 324.76 422.66 324.76 422.66 324.76 422.56 324.66 422.56 324.66 422.36 324.76 422.26 324.76 422.16 324.96 421.76 325.06 421.46 325.16 421.26 325.36 421.06 325.36 420.96 325.46 420.86 325.56 420.86 325.56 420.76 325.66 420.66 325.76 420.56 325.76 420.46 325.86 420.26 325.76 420.26 325.66 420.36 325.66 420.26 325.66 420.16 325.66 419.96 325.86 419.66 326.06 419.26 326.36 419.16 326.36 418.96 326.36 418.76 326.56 418.66 326.56 418.56 326.46 418.56 326.36 418.66"/><polygon class="cls-1" points="256.96 414.26 256.96 414.26 257.16 414.36 257.06 414.26 256.96 414.26"/><path class="cls-1" d="M499.16,159l-.2-.2v-.3l-.2-.2.1-.3-.1-.1-.1-.2v-.2l.2-.1v-.6h-.2l.1.2v.3l-.2.2-.1.2h-.1l-.1-.3v-.1l.1.1v.1h.1v-.1h.1V157h-.1v.1h-.1V157h-.1l.2-.1.1-.1-.2-.2-.1-.3v-.1l.1-.2.1-.2-.2-.1-.2-.1-.3-.3v-.2l-.2-.4V154h0v-.2h-.1l.1-.3-.1-.1.1-.1-.1-.2v-.2l.1-.1-.2-.1-.1-.2-.2-.4v-1.8l-.1-.1v-.7l-.2-.5-.1-.3-.1-.1h-.3l-.1-.1-.1-.3-.1-.3.1-.1v-.3l-.1-.7v-.1h-.3l-.1-.1h-.1l-.1-.2-.1-.3V146l-.1-.1v.1l-.1-.6v-1.1H495v-.1l-.1-.3.1-.3-.1-.2v-.1h-.1l-.1-.3h-.3l-.1-.3v-.9h.4l-.1.1-.1-.1-.1-.2v.2h-.1l-.1-.2v-.3l-.1-.1V141l.1-.6v-.1H494l-.1-.2v-.6h-.1l-.1-.3v-.4h0l-.1-.3-.1-.2V138l-.1-.1v-.1l-.1-.2v.2l-.1-.1-.2-.2-.1-.1V137h-.1l-.2-.3v-.2l-.2-.2-.2-.1-.2-.2-.1-.2-.2-.7-.1-.3-.1-.1-.1-.2-.3-.4-.3-.3-.2-.1-.1-.2-.3-.3h-.3l-.3-.2-.4-.1-.6-.3v.1h.1l-.1.1-.1-.1-.7-.2h-.1l-.1-.1-.5-.1-.2-.1-.2-.1h-.1l-.1-.1-.3.1-.3-.1h-.3l-.3-.2-.5-.2h-.7l-.1.1h-.3l-.3.2h-.3l-.3.2-.3.2-.3.1h-1.1l-.4-.1h-.2l-.3.2v.3l-.3-.1-.2-.1-.1.1h-.3l-.4-.2-.4-.1-.6-.1h-.3l-.3.2H477l-.1.1-.3-.1h-.2l-.1.1-.2-.1-.1.2-.5-.1-.3.1-.2-.1v-.3h-.1l-.1.1-.1.1-.2-.2.1-.1-.2.1-.3-.2-.4-.2-.5-.5-.3-.3-.3-.3h-.3l-.3-.1-.5-.3-.1.1-.1.1h-.4l-.3.2-.2.1-.2-.1-.3-.2-.2-.1h-.2l-.2.1-.2.1-.3-.1h-.1l-.3-.2-.3-.3-.2-.2-.3-.4-.1-.2-.2-.4-.2-.6-.1-.2-.2-.3-.3-.3-.2-.1h.4l-.1-.1-.2-.1-.4-.1-.7-.3h-.2v-.1l-.2-.2-.1-.1-.3.2-.2.1-.3-.1-.3.2-.6-.5-.2-.2-.2-.2-.3-.3-.1-.1-.2-.1-.3-.3-.2-.3-.2-.3-.2-.3h.1l-.1-.3-.1.1-.2-.1h-.3l-.3-.3h-.2l-.5-.3-.3-.3-.5-.5-.3-.3-.1-.1-.3-.2-.3-.3-.1-.1-.6-.7-.3-.2-.3-.6-.1-.1-.3-.5-.2-.3-.1-.1-.3-.3-.1-.1-.3-.4-.2-.3-.1-.1h-.1v.1h-.1l-.1-.1.2.1-.1-.1-.2-.2-.3-.3-.3-.3-.4-.7-.4-.6v-.1l-.4-.8-.1-.1v.2h-.2l-.2.1-.1-.1h-.3l-.2-.1h-.1l-.1-.1-.2-.1-.2-.1h-.2v.3h-.3l-.3-.1-.1-.1-.5-.5-.3-.2H449l-.3-.3-.1-.2-.4-.5-.1-.1h-.3l-.3-.1-.2-.2-.3-.3h-.3l-.2-.2-.1-.3h-.1v.1l-.2-.1-.2-.3-.4-.3h-.2l-.1.1h-.1l-.2.1h-.2l-.2-.2v.1l-.3-.2-.3-.3-.1-.3h-.4l-.3-.2v-.1H443l-.3-.4-.5-.6-.2-.2-.2-.2h-.4l-.2-.1-.2-.1h.7l-.1-.1-.3-.3-.3-.1-.3.1-.2-.1-.3-.3-.3-.1-.3-.1-.3-.3-.4-.2-.4-.3-.3-.2H438l-.1-.1-.2-.3-.2-.3-.2-.1-.2.1H437l-.1-.1-.2-.2-.2-.1h-.3l-.3-.2h-.1l-.3-.3-.3-.1-.3-.3-.2-.1-.3-.3-.3-.3h-.2l-.1-.1h-.1l-.3-.1-.1-.2-.3-.1.2.1-.4-.2.2.1h-.2l-.4-.3-.1.1h.2l-.1.1-.3-.1h-.5V103l-.3-.1h-.4v.1l-.3.1-.1-.1-.4-.3.1.1-.4-.1-.5-.1v.1H429l-.5-.1-.6.1h-.7l-.3-.1-.5-.3-.3.1v.2l-.2.2-.4.2-.1.1-.3.1-.7.1-.3-.1-.2.1h-.7l-.3.3-.3.1h-.2l-.2.1-.1-.3H422l-.1-.1-.1.1-.1-.1v.1h-.3l-.1-.1-.1.2h-.5l-.2.1-.3.1-.2.1-.7.1H419l-.1-.1-.1.1-.3-.1-.7-.1-.2.1h-.5l-.3-.1-.2.1-.1.1-.6.3h-.1l-.1.1-.3-.2h-.1l-.3-.2-.3.1-.2-.1-.1.1-.1-.1-.4-.1h-.2l-.2.2h-.3l-.3-.2h-.1l-.3.1h-.1l-.5-.3-.3-.3v-.1l-.3-.2-.5-.5h-.1l-.3-.1-.4-.3-.2-.3-.2-.1-.2-.3h-1.6l-.3-.1-.2.1.1.2-.1.2-.1.2-.1-.2-.3-.6v-.1h.1v-.1h-.5l-.3.1h-.6l-.7-.1-.1.1h0v0h0v.6h-.2l-.3.3h-.5l-.2-.1h-.1l-.1.1-.5.3-.8-.1-.5-.2h-.2l.1.3-.1-.1-.3-.3-.5.1V102h-.3l-.3-.3-.6-.4-.9-.9-.3-.1H398l-.1.1.1.1.2-.1.1.1h.1v.1h-.2v.1l.1.1.2-.1.2.2.1.4-.2.3.1.1-.2-.1.1-.3.1-.1-.1-.3h-.3l-.2-.1v-.2l-.2-.3-.1.1v.1l.1-.1.1.2-.1.1h-.2l.2-.1h-.4l-.7-.3-1.3-.7-.5-.2-.3-.2-1.1-.6-.8-.3-.3-.2-1.5-.4h-.5l-.3-.1h-.1v-.1H390l-.3.1h-.4l-.2.1-.4.1-.1.2-.2-.1-.2-.3-.6-1.3-.3-.2-.3-.2-.3.1-.4.4-.6.4-.2.1-.4.9.2.2-.1-.1-.2-.1-.1-.1h-.1v-.1h-.1l-.4.3-.4.3-.1.2-.3.4-.1.3-.3.6-.4.4-.3.4-.3.1.3-.4.3-.8-.3-.2-.7-.1h-.3l-.1.3-.1-.2-.1-.1H381l-.2-.1v.1l-.2.1h-.1l.2-.1.1-.1.3-.1.1-.1H381l.1.1.1-.1v.1h.2v-.1l.1.2h.1v-.1l.1.1h.1v-.1l-.1-.4-.5-.1h-.3v.1h.2l.1.1-.1.1v-.1l-.1.1-.1-.1-.1-.1-.1.1-.3.1v.1h-.2l.1.1-.2.1-.2.1-.2.1-.2.1-.3.1-.1.1-.4.1h-.3l-.2.1-.1.1-.2.1-.5-.6h-.1l-.5-.6h.2v.1l.2-.1.2-.3.1-.2v-.1l-.2-.2H377l.3-.1.1.1.1-.1.1-.1.1-.1-.1-.1.1-.1-.3-.6h-.2l-.1.1.1-.2.1.1-.2-.4v-.3L377,96v.1l-.2.1v-.1h.1V96l.2-.1-.2-.1-.2-.3h-.2l-.1.1.1-.2h.1l-.1-.2-.3-.3-.1-.1-.3-.1-.2.1v-1.1l.1-.1.3-.1.1-.3v-.1l-.1.1h-.1l-.2-.2.2-.1v-.3h-.1l-.1.1.1-.2-.3-.2-.1-.1-.1.1v-.1l.1-.1.1.1.1-.1v.2l.2.1v-.3l-.1-.1-.1-.1-.2-.5-.1-.1h-.1v.4l-.1-.1v-.1l-.1.1v.2l-.3.2.1.2v.1l-.1-.1v-.3h-.1l-.1.1-.1-.1h.1l.2-.2h.1l.3-.2.3-.3V91l-.2-.2-.1.1-.1.2-.2.2-.2.1-.2-.2-.1.2-.2.1-.3-.2h.1l.2.1.2-.1.1-.1V91h-.1l-.1-.1h.1l.1.1-.2-.3-.1.1-.2.1.1-.1-.2-.3.1-.2.3-.5.1.1.1-.1-.3-.3h-.3l-.2-.1v.4l.2.1h-.1V90h-.1v.1l.1.2v.1l-.1.2.1-.3-.2.2-.1.3-.1.1-.1-.1-.2.3v-.3h.1v-.1h.3l.1-.3.1-.1v-.2l-.1-.1-.1.3-.3.1h-.2l-.1.3-.1.2v-.2l-.1.1v.1l.1-.1.2-.2.1-.1v-.1l-.6.2h-.3l-.2.3h-.2l-.1.1-.3.1.2-.1h.2v-.2h.1l-.1-.1h.3l.1-.2h.1l.3-.1.1-.1.3-.3-.1-.1h.2l.1-.2h.1v-.3h-.1l-.1.1h-.3l-.2-.1-.1-.1h-.3v.1l.1.1h.2V90l-.2.1L372,90l-.1.1V90h.3l.2-.2-.3-.1-.1-.1-.1-.1h-.2v-.1h.1l.2-.2h.1v-.1H372v-.2l.2.2.1-.1h.1l.2-.3-.1-.2.2.3h.4l.1-.2v.2h.2v-.1l.1.1.1-.1.1.2.1.1.2-.3v-.3l-.1-.2-.1-.3-.1-.1v-.1l-.1-.2-.1-.1-.1.2-.1.3-.1-.1-.2.2-.1.2v-.3l.3-.3v-.2l-.1-.1H373l-.1.1-.3.3v.1l.1.3-.2-.2-.1.1h0l.2.1-.1.1-.1.1v-.2h-.1V88h0l.1-.2v-.3l-.1.2-.1.1H372v.1l.1.3.1.1v.2l-.1.3-.3.1.3-.3.1-.2-.3-.3h-.1l.2.3-.1.1h-.1l.1-.1-.1-.2V88l-.3-.3h-.1V88l-.3.3v.1l-.1-.2-.2-.2-.2.1h.1v.1l-.1-.1v-.3l-.1-.2.1-.2-.1-.2h.2l.2-.1V87l.1-.2h-.2l.2-.1.1-.1.1-.1-.2-.1h.3l-.3-.2h.1l.3.1V86l.1-.2v.3l.2.1-.1-.5.2-.3v.1l.2-.1-.3.4h-.4l-.2-.1-.2.1.1.1h-.1V86l.1.2-.2-.2.1.3-.2-.2-.2.1-.3.3-.1.1v.1h.3l-.5.1-.1.1.1.2-.1-.1v-.3h.2l-.1-.2-.2.1-.1.2v.1l.1.2h-.1l-.1-.2h-.2l-.2-.2-.1-.1h-.1l-.1.1h-.3l-.2-.2-.2.1.1.1-.1.3-.2.2.2-.3v-.4l-.2.2v-.1l-.2-.1-.1.1v.1l.1.1h-.2v-.2l.1-.2.1-.2-.2-.3v-.2h0l-.1.3-.1.1v.2l-.1.1v.4l.1.3-.1.2V87l-.2.2h-.1l.3-.2-.1-.1-.1-.2.1-.1-.1-.1h.1v-.2H367l-.1.1v-.1h-.1v.1l-.1.2v.1h-.1l-.1.1.1.2h-.1l-.1.2-.1-.1h-.1l-.2.2-.3.3v.1l-.2.3v.2l-.1.1.1.3v.1l-.2.1-.1-.2-.1.1v-.1l-.2-.3-.3.1-.1.1v.4l-.2.5-.1.1v.3H364v.1l-.1-.2-.1-.2.1-.4h.8l-.1.1v.2l-.1-.1.2-.3-.1.1-.1.1-.1-.1-.1.2v-.2h.2l.1-.1h.2v-.1l.3-.5v-.1L365,88l.1-.1v-.1l.2-.3.1-.1v-.2l.1-.2v-.2l.2-.3-.2-.2-.2-.1v.5l-.2-.1h.1l.1-.2-.1-.1-.1-.1-.1.2-.1.2v.1l-.2.2.1-.2v.1l.2-.1v-.3h-.3l-.2.2h-.1l.1.4-.1-.3v-.2l.1-.1v-.1l.3-.2.3-.2h.2v-.1l.1-.1v-.1l-.1.1.1-.2.1.2v.1h.1l-.1-.7h-.1v-.4l-.1.1v-.2l-.1-.2-.3-.1-.2.1v.1l.3.2v.1l.1.1-.1.1.1.1L365,85h0v-.1l-.2.1v-.1h.2l-.2-.1-.1.2-.2.1v.2h.1l.2.1.1.1h-.1l-.2-.1v.1l-.2.1-.2.2.1.2-.1-.1-.1.1-.1.2.2.2-.1.1-.1-.1h.1v-.1l-.1-.1-.1.1v.2l-.2.1.1.1v.1l.1.2-.1-.1v-.1l-.1-.2.1-.1v-.3l.1-.2-.1-.1v-.1h-.1l-.3.3v.2l-.2.2v.1l.2.3v.3l-.1.2h.1v.1l-.3-.2-.1.1.1-.2.2.1.1-.2v-.3h-.2l-.1.1.1-.2-.1-.2h-.2l.2-.3v-.1l-.2-.3.1.1h.1v-.1l-.1-.1.2-.3v-.3l.2-.1h.1l.2-.1v-.1h.1l-.1-.2.2.3.1-.1.1-.2.1-.3L364,84l-.3.1-.1.1h.1v.1h0v.1h-.3v.5l-.2.2V85l-.1.1-.1.2.2-.1-.1.2-.1.1-.2.1h-.1l-.1.1v.1l-.1-.1.3-.3-.1-.2v-.1l-.1.2h-.3l.3-.1v-.1l.1-.1v-.2h0l.1-.2.1-.2v-.2l.1-.2-.2.1-.1.2v.2l-.2.2h-.1l-.1-.1h-.1v.1l.1.2-.2.2-.1.2.1-.3.1-.1-.1-.1v-.2l.1-.2v-.1l.2-.1v-.1l-.1-.1h-.1l.1-.1.2.1.1-.3h-.1l-.3.3.1-.1v-.1l-.2.1-.2.3-.1.2.1.2-.1.1-.1.2-.1-.1h-.1l.1-.1h.1l.1-.1v-.5l.2-.3-.1-.1.1-.1-.1-.1-.1.1-.3.1-.1.1-.1.4.1.2v.4l-.2.3-.1.1h-.3l-.2.1.1-.1h-.3l-.1.1v.1l.2.2h-.1l-.1-.1-.1.1-.2.1.2-.2.1-.4-.2.2-.1.1v-.2h.1l.1-.1.5-.3-.2-.1v-.3l-.1-.1-.1.1h-.2v.2l-.1.2v.1l-.1-.1.1-.3.1-.2h.3l-.1-.2.1-.2v-.2l-.2-.3-.1-.3h-.2l-.1.1.1-.1h0l.1-.1-.1-.2h.1v-.2l.1-.1.1-.2.2-.2V82h.1l.1-.2h.1v-.1l-.1-.1-.1-.1h-.3l-.3.1.2.1-.1.1-.1.1V82h-.1v.2l-.2.3v.3h-.1v.1l-.1.3-.2.3v.3h0v.1h.1l-.1.1v-.1l-.2.1h0l-.1-.1-.1.1v-.1h.1l.1.1.2-.1v-.2h-.3v.1l-.1.1v-.1h0l.3-.4-.2-.2v-.1l.1-.3.1-.1.1-.2-.1.1v-.1l-.1-.1-.2.1-.2.2.2.5-.1.3-.1.2.2-.4-.1-.2-.2-.2V83l-.1.4-.2.4h-.3v-.1l.4-.3v-.2l-.2.3-.1.1v-.2l.3-.2v-.1l-.3.2h-.3l-.1.1-.2-.1h.2l.2-.2.1-.1.1-.1.1-.2-.2.1.2-.3v-.1l-.1.1-.1.1-.2.1v-.1h.2v-.1h-.1l.1-.1h.1l.1-.1v-.1l-.1-.1h-.1l-.2.1-.2.3v.3l-.2.1v-.1h.1l.1-.2h.2l.1-.1v-.1l.3-.3V82l.3-.1v-.2l.2-.2.1-.2-.1-.4-.1-.1-.3.1-.1.1.1.1.1.1h-.1l-.3.3v.1h.2l-.2.1v.1h-.1l-.2.3-.3.7v.1l-.1.4-.1.1-.1-.1.1-.3-.1-.1.1-.1v-.3l.1-.2h-.1v-.1l.1-.2H357l-.1.1V82h-.2l-.1.2.1.1-.1.1v-.2l-.2.1.1-.1.1-.1-.1-.1.2-.1h.3v-.1h-.1l-.2.1-.1.1.1-.2h.1v-.2l.2-.1v-.1h-.1v-.2l-.1-.1-.1.1v-.1h.2v-.2h-.2v.2l-.1-.1v.4h-.1v-.2l-.1-.1h-.1v.2l-.2.3H356l-.1.2v.5l.1.2v.1l-.2-.3V82h-.1l-.1.2v.2l-.1.1v-.2l-.1.1v.5l-.3.1v-.1h.1l.1-.3.1-.3V82l.3-.2-.2-.2h-.1v-.1l-.1-.2V81l.3-.3v-.2l-.2-.1v.1l-.1.1v.1l-.1.1h-.1l-.4.3-.1.1-.1.2.1.2v.3l.1.1h-.1v.2h.1l.1-.1-.1-.5-.1-.1h-.1l-.1.4-.1.1.2.4h-.1v-.1l-.2-.3-.2.1h-.1l.3-.3.2-.5.2-.2v-.7l.1-.2-.1-.1h-.2l-.1.1-.1.2v.4l-.1.3-.4.3-.2.3V82l-.1.1-.1.2-.2.1-.1.2v-.3l.2-.2v-.3l.2-.2.3-.4.1-.2h.2v-.3l-.1-.3h-.1l.1-.1-.1-.3.1-.1v-.1h-.1v.1l-.2.1v-.2l.1.1.1-.1-.1-.2.1.1.2-.1.1-.3-.3.1.1-.2.1-.2h.1l.2.1v-.4l-.1-.1-.2-.1h-.1v.1l-.2.2h-.3v.1l-.1-.1-.2.1v.2h.4l-.3.1v.1h-.1l-.1.3v.1l-.2.2.2.1.1-.1v.2L353,80l-.2.2-.1-.1-.2.2.2.2.1.2-.1.1.2.1h-.2V81h-.1l.1-.1-.1-.3v-.1l-.2-.1-.1.1V81l-.2.1v.1h.3l.2.2-.1.1-.2-.2h-.4v-.2l.2-.2v-.5l-.2-.2.1-.1h-.1l-.1.1-.2.2v.4l-.1-.1v.2l.1.3h-.1l-.1-.1v-.2l-.1-.3v-.3h-.2l-.1.1h-.1v.2h-.1l.2.1.1.3-.1.2v.1l-.2-.1v.2h-.1v-.2l.1-.1h.1l.1-.1v-.3l-.2-.1-.3.1-.2-.1v.1l.1.1v.1l.3-.1-.1.2v.2l-.1-.2-.1-.1h.1l.1-.2v-.1l-.1.1v-.2l-.1-.1.1-.1.1.1h.1v-.3l-.1-.1-.3.1.1-.2h.1l.2-.1-.1-.2.1.1.1-.1h-.1v-.2l-.1.1-.1-.1.1-.1h.1v-.1l.2-.2.1-.1.1.1h.1l.2-.2.1-.1v.1l-.1-.2-.3.1h.1v.1h-.1l-.1.1-.1.3-.1-.1V79l-.2-.1h-.2l-.2.1v.1h.1v.1h-.1l-.1.1v.3l-.1-.1-.1.2.2.2-.1.2v-.3h-.1v.1l-.1.3-.1-.3v-.4l.1-.1-.2-.2-.1.1v.4l-.1.1h0l-.2.3H349l-.1-.1v-.2l-.1.1h-.1l-.3.2h-.6l.1.1h-.1l-.2-.2.1-.1h.1l.2-.1-.1-.1h.3l.2-.2v-.2l-.1-.2h-.1l-.1-.1.3-.1-.2-.3h.1l.1.1.1-.1v-.1h.1l-.1-.2v-.1l.1.2.2-.1v-.1l-.1-.1-.1-.1.1-.1-.1-.1-.3-.1-.1-.1v.2h.1l-.2-.1H348v.1l-.2.1.2.2-.1.1-.1-.2h-.2v.2l.1.3h.2l.1.1-.1.1v-.1h-.1v.2h-.1l.1-.1-.2-.1-.1-.3-.1-.1-.3.1-.1.4.1.3v.2l-.1.1-.2.2.1-.2v-.1l-.1-.4-.1-.4-.1-.1-.1-.1-.1.2.1.3-.1-.2h-.2l-.2.1.1.3v-.1h.1V79l-.1.1v.2l-.1-.1v-.1l.2-.1-.3-.3-.1.2-.1.2v.2l-.1-.1v-.4l.2-.1v-.2h-.1l.1-.1-.1-.3h-.1v.2l-.2.1v-.1l-.1.1v.2h-.1v-.2l.2-.2.1-.1-.1-.1-.2.2h.5l.2-.2v-.1h.1l.1-.2-.1-.1-.3.2h.3v-.3l-.1.1v-.1l.1-.1v-.1l-.2-.2h-.2v.1h.3l-.2.1v.3h-.1v-.1l-.1-.1-.2.2v.2l.1.2-.1-.1v-.1l.1.1V78h-.3l-.2.1v.6h.1l-.1.1v-.1h-.1v.1h-.1l-.3-.2v-.1h.3v-.2l-.1-.1-.1-.3-.1-.1.1-.1v.1l-.1-.1v.1h-.1v-.1l-.1-.1-.1.2-.1-.1v-.1l.2-.1.1-.2h-.1l.1-.1V77l.1-.1V77h.1l-.2-.3v-.1H344l-.2.2-.1-.1-.3.2V77l-.1.1h-.1V77h-.1v.5l-.1.1v.2h.1l.2.2h-.1l-.2-.2-.1.2h-.1v-.2l.1-.3V77l.1-.3-.2-.1.1.3-.1.3v.2h-.1v.1l.1.1h-.1v-.1l-.1-.2.1-.1-.1-.1-.2.1.3-.2-.1-.1h.1l-.1-.1-.1-.1-.1-.1.3-.1-.1-.3-.2-.1v-.2l-.3.1v.1l-.2.1h-.3v.2l.1.1h-.1v.3l-.1-.2-.2.4v.1h.1v.3l-.1-.2-.1.1.1.1-.1.1v-.1l-.1-.3.1-.2h.1l-.1-.5.1-.1.1-.2-.1-.1h.4l-.2.1-.2.2v.1h.1l-.1.1-.1-.1H341v.1l-.1.1h-.1l.1-.1-.3.1.1-.3.1-.1.2.1h.1v-.1l.2-.2-.2-.3-.3-.2h-.1v.1l-.1-.1-.1.1.2.2-.1.1-.1-.1-.1.1-.1-.2-.2.1h0v-.2h.1l-.1-.2v-.1l.1.2v-.1l.1-.1-.3-.1-.3-.1-.1.1-.3.1h-.4v.2l.2.1v.1h-.3v.2l-.2.2h.1l-.1-.2V76l-.1-.2-.1.2v-.2l.1-.1v-.1l.1-.3-.1-.1-.3-.1-.4.2h.1l-.2.3v.1l.2.1-.1.3.1.6v.8l-.1-.1-.2.1.1-.3v-.1l-.3-.5-.1-.1-.1-.1v-.1l-.1-.1-.1-.1.1-.2H337l-.1-.1h0l.1-.2-.2-.3-.2-.1V75l-.3-.1V75l-.1.1.1.2-.1.2.1.3-.4.8-.1-.1-.1.1-.1-.1h.1l.1-.3v-.1l-.1-.1.1-.1v-.1l.1-.1v-.1l-.1-.1-.1-.2-.1-.3-.2-.1-.3.2H335v.1l-.2-.1.1-.2.1-.1-.2-.3.1-.1-.2-.1h0v.1l-.2.1v.1l-.1.2-.3-.1v.2l.1.1.1.2v.1l-.1.1v.2l-.1.2-.1.1.1-.3-.2-.3.1-.1-.1-.1-.3.1h.1v-.1l.2-.2v-.2l-.2-.1-.2.2.1.2-.1.2.1.1-.2.1v.2l.1.3-.1.1v.4l-.2.2h-.1l-.1-.2-.1.1-.1.1h-.1l.1-.2v-.1l.1-.1.1-.3.1-.2-.1-.3h.1l-.1-.1.1-.1h-.2V75l-.1-.3h-.5l-.1.1V75l.1-.1V75l-.1.1-.1.1.1.1v.1h-.1v.2l-.1.2-.1-.1-.2.2-.2-.1-.2.2v.4l-.1.1-.1.2v.1H331V77h-.2v-.6l-3-1.1-3-1,.3-.3.1-.7.2-.3.5-.4v-.1l.1-.8-.1-.3-.1-.1-.1-.1-.1-.1h.1l-.2-.2-.4-.2-.4.1-.2-.1H324l-.1.1-.1-.1-.3-.1-.1.1-.1-.1h-.4l-.4.2-.1.1-.2.1H322l-.2-.1h-.3l-.3-.2h-.1l-.2-.2-.1-.1h-.2l-.1.1-.2-.1-.1.1-.2-.1h-.3l-.3.1v.1h-.3l-.2-.1-.3-.3-.5-.3-.2-.3-4.6-2-.1-.2h-.3v-.1h.1l.1-.1v-.1L313,67v-.1l-.3-.1v-.1h-.2l-.1-.1-.2-.1-.1.1-.1-.1-.1-.1-.6-.8-.5-.8-.3-.6-.2-.3-.2-.6-.3-.2V63l-.1-.1h-.1l-.1-.1-.1.1h-.1l.1-.2h-.1l-.1-.2-.4.1-.1.1h-.1l-.1.1h-.1v-.1l-.1.1v.1l.1.2v.1l-.2-.2-.2-.2-.3.2h-.4l-.2.1-.2-.2-.1.1-.8.3-.1-.1-.3-.1v.1l-.2-.1-.2-.1-.1.1h-.2l-.4-.2h-.6l.2-.5v-.3l.1-1.1.1-.3-.1-.8-.2-.6-.4-.3-.1-.8.1-1h.1v-.1h.2v-.2l.1-.1.1.1v-.3H304l.1-.2v.3l.1.1h.1v-.1l.3-.2.3-.5.8-.2.3-.4h.1l.3-.3.1-.2v-.4l-.1-.1.1-.8h-.1l.1-.1h.1l.2-.3.1-.3.3-.4v-.3l-.1-.2-.1-.6-.1-.3.3-.4.2-.8-.1-.2.1-.6v-.5l-.1-.8-.2-1.2-.1-.5h-.3V46l.1-.1v-.2l-.1.1-1-.6-.4-.3-.3-.1-.4-.2h-.2l-.9-.3-.9.2-.4-1.1-.3-.8-.1-.2-.1-.1v-.4l-.3-.2v-.2l-.2-.3v-.1l-.1-.1.1-.2-.1-.1-.2-.2h-.1l-.1-.2-.1-.1v-.1l-.3-.4-.1-.3-.2-.2h-.1v-.1l-.2-.1h-.8l-.7.3-.3.1-.9.3-.4.2v-.1h.2l.1-.1v.1l-.1-.3-.1-.2-.2-.3-.1-.1h-.1v-.4l-.2-.3L296,38v-.4l-.1-.2-.2-.1.1-.3-.1-.2-.1-.2.1-.3V36l-.1-.1-.2-.3v.2l-.1-.2-.2-.1h-.2l-.3.2h-.2v.1h.3l.1-.2.2-.1.1-.3-.1-.5-.1-.2v-.7l-.1-.1v-.2l-.3-.3-.2-.1v-.7l-.1-.2-.2-.1v-.2l.1-.2-.1-.2h-.1l-.2-.2-.3.1.1-.2-.1-.3v-.1l-.3-.3-.1-.3-.1-.2-.1-.3v-.5l-.2-.2-.1-.3-.1-.2v-.3l.1-.2v-.2l-.3-.3-.1-.3v-.5l.1-.2.1-.3-.8-2.1-.1-.3v-.9l.1-.1v.1l.2-.4-.2-1.9-.1-.6v-.5l.1-.2-.1-.3.1-.1v-1l.1-.3v-.5h-.1v.7l-.2-.2H291l-.6-.3-.1-.1v-.6l-.1-.3v-.5l-.1-.1v-.1l-.3-.8-.2-.3-.1-.3-.3-.3v-.1l-1.2-1.3-1-1-.3-.3-.4-.4h-.2l-.2-.2-.3.1-.1.1-.1.1-.3.9-.1,1.1-.1.3-.1.1v.4l-.1.3-.2.3-.3.7-.1.2v.5l-.3.2-.3.1-.2.2-.2.1-.4.1-.1.1-.3.3-.1.2v.5l-.1.3-.2.3-.3.2v.1l-.1.2-.3.1-.1.1-.1.1V19l-.2.3-.2.1h-.2l-.1.1-.2.1-.1.2.1.3-.1.3-.3-.1-.2.2-.1.4-.1.1-.1.1-.1.6-.1.2-.3.3-.4.9-.3.1.1.1-.2.2-.1.1-.1.3-.2.2-.5,1-.1.3-.4.5v.2l-.1.1-.3.5-.1.1-.2.1-.1-.2-.1-.1-.1.1v.1l-.2.1-.2.1v.2l-.2.2.1.4-.2-.1-.2.1-.1.2-.1.2.1.1-.1.1-.1-.1-.1.2.1.1.1-.1.1.1-.1.1-.1.2.3.3-.2.3-.2.3-.1.1-.1.3v.3l-.2.3-.1.2h-.1v.3l.1.1h.1v.1l-.2.3h-.1l-.1-.1-.2.2-.3.5-.1.3-.3.4-.1.2.1.2-.1.2v.1l-.2.3-.2.3-.1.2-.2.4-.1-.1-.1.1-.2.2.2.2-.1.2.3.2.1.3h-.1l-.1.2v.1h-.1l-.2.1.1.3V37h-.2l-.3.3v.3h-.3l-.1.2.1.1-.1.1h-.2l-.1.1-.1.1v.2l-.3.3.1.1-.1.2-.7.5v.1l-.2.1h-.1l-.1.1-.3.1-.1.1-.1-.1v.2l-.1-.1-.2.2-.4.2h-.1v.1h-.3l.1.2v-1.9h-.3v.3l-.2.1v.2l-.1.1-.1.3-.1.1-.1-.1h-.2v.1l-.1-.1h-.1l.1.1-.1.3-.5.1-.3-.2h-.4l-.1-.1-.2-.2v-.1l-.2-.2h1.5l-.4.1-.2.1h-.3l-.1.1-.1-.1v.1l-.1-.1-.1-.1h-.1l-.1.1h-.1l-.1.1-.1.1-.1-.1h-.1l.1.1h-.1l-.1-.1v-.1l.1-.1.1-.2-.1-.1h.2l.1-.1v-.4l.1.1.3-.3-.1-.2-.2.1-.2-.1v-.2l-.3-.1v-.2h.1l-.2-.1-.1-.1v-.2l-.1-.2-.1.1-.1-.2h-.2l-.2.1v.2l-.1.2-.1.1-.1.1h-.2l-.1.2h-.2l-.1.1h-.1l-.1.2-.3-.2h-.1l.1.2.1.1v.1l-.2.1-.2-.1-.2.1-.2-.1h-.1l.2.2h-.3l-.2-.2h-.3l-.2-.2h-.2v.1h-.1l-.1-.1h-.4v-.3l-.1.1v-.1h-.3v.1h.2l-.1-.2h-.2l-.3-.1-.1.1h-.2v-.1l.1-.1h.1l-.1-.2.2-.1.1-.2-.1.1-.1-.2-.1.1-.2-.1.2-.1h.1l-.1-.1h-.3l-.1.1-.1.1h-.1l-.1.1h-.1l-.1.2-.3.1.1.1h.1l.1.2h-.1l-.3.1h-.1l-.1-.1-.1.1-.1-.1H256l-.1.2.1.1-.1.1v.1l-.1-.1-.1.3-.2-.1v-.2h-.2v-.1l-.1.1v.2l.1.3-.1.1V39l-.1.1L255,39h-.2l-.1.2-.2-.1-.2.1-2.4.7-3.1-.4-2.2-1.6-.7.2-.4-.5.1-1.1-.8-.3-.6.3-.9.1-.6-.8-.3-.3-.2-.8-.7-.2-.7.5-.5.3-.3-.5-.7.1-.4.5-.3.3-.5-.2h-.5l-.5.5.2.3-.5.4-.5-.3h-.7l-.3-.1-.3.1v.1h-.3l-.3.1-.1-.2-.2.1-.1-.1-.1.1h-.1l-.1.1-.2.1h-.2l-.2-.1-.3.1-.3-.1-.1.3h-.2l-.3-.1-.2-.3-.1-.1.1-.1-.1-.2-.2-.1-.1.1-.6-.1-.3-.1v-.2h-.2l-.1-.1H230l-.1-.2-.1-.1-.1-.1-.1-.1h-.2V35l-.2-.1-.4.1h-.1l-.1.1-.1.1v.2l.2.1-.1.1-.1.1v.2l-.3.2v.2l.1-.1.1.2h.2v.1l-.1.1-.2.1-.1.2h-.1l-.1.2v.1l-.2.1v.2h.1l.1.1v.2l-.1.1v-.1l-.3-.1-.1-.1-.1-.2-.1-.2h-.1v-.1h-.1l-.1.1v.3l-.1.2.1.1v.1l-.2.1-.1.1v.2l-.2.2v.1l-.2.1v.1h1.4l.1.1h.2l.2-.1.1.2.1-.1.2.2h.1l.1.1v.1h.1v.1l-.1.2-.2.1v.1h.1l.1.2h.5l.2.3-.1.1.1.1h.1l.1.1v.2h.1l-.1.1.1.3.3-.1.2.2h.1v.1l-.1.2.3.2.1.1v.2l-.1.1v.3l-.1.2-.1-.1h-.2v.1l.2.5-.1.1.1.1v.2l.3.2v.3l-.2.1-.3.2-.3.3-.2-.1-.1.1-.1.1h-.2v.1l-.3-.2h-.1l-.1-.1h-.6v.1h-.1v-.2H228l-.1.1-.2-.1-.1.1v-.1h-.2v-.2l-.1-.1-.2-.2h-.2l-.1-.2-.1.1h-.1l-.1-.1-.3.1-.1.3-.3-.1-.2-.2-.2-.2h-.2l-.1-.2h-.2l-.2-.2h-.1l.1-.5-.2.1h-.3v.2h-.1L224,43h-.1l-.2-.2v-.1h-.1l-.1-.1-.3.1-.2-.1-.2.3h-.3l-.1.2-.2.1H222l-.1.1h-.3l-.2-.3-.1-.1h-.1l-.2-.2-.1.1-.2.2h-.1v.2h-.3l-.1-.1v.1l-.3-.1-.3-.1-.1.2h-.1v.1l-.2.1-.1.1-.1.1-.1.2-.1.1-.2.1v.2l-.1-.1v-.3l-.1-.1h.1l-.2-.1h-.1l-.1-.1h.6v-.1h-.1l-.1-.1-.2.1v-.1h-.4l-.1-.1-.2-.1V43l-.2-.2-.3.1h-.2l-.1.1-.1.2-.1-.1h-.3l-.1-.1h-.1l-.1-.2-.1-.2-.1-.1-.2-.1h.1l-.1-.2v-.3l-.1-.1-.1-.1v.1l-.1-.1-.1.1-.2-.1h-.1V42l-.3.1-.1.2-.3-.1-.1.1-.1.1h-.2l-.2.3-.3.1v.3l-.1-.1-.1-.1H213l-.1-.2-.2-.2.1-.1h-.2l-.3-.2-.1.3-.2-.1-.2.1-.1-.1-.1.2v.1l-.2.1.2.1v-.1l-.2.3h.3l-.2-.1-.2.1v.1l-.3.1h-.1v.4l.1.1-.1.1.1.2-.2.2.1.2-.1.1-.1.2v.1l-.3.1h-.1l-.1.1h-.1l-.1.1.1.3-.1.1h-.1l-.1.2v.3l-.1-.1-.1.1-.2.1.1.1v.2h-.2v.1l-.2-.1-.1.1h-.1v-.8h-.1l-.2.1-.1.1-.2-.1h-.2V46l-.3.1V46h-.1l-.1-.1-.1-.2v.1h-.2l-.2-.1v-.1l-.1-.2h-.1l.1.2h-.1l-.1-.1-.2.1-.2-.1-.2.1v-.1h.5l-.1-.1-.1.2-.2-.1v.3h-.1l.1.2-.1.1-.1-.1-.2.1h-.3V46l-.1.2v.2l-.3-.2v.1h-.3l-.1.1v.1l-.1.2h-.3l-.1-.1-.1-.1-.1.1-.1-.1h-.2v.1h-.1l-.1.1.3.2v.2h-.1l.1.3-.1.2.1.2-.1.1h-.1l.1.1-.1.1.1.1-.2.3v.1l-.1.1v.2l-.3-.2v.1l-.2-.2-.3-.1-.1.1v.2h.1v-.1h-.2l-.2.2h-.2l-.3-.1v-.1l-.1-.2v-.3l-.1-.2-.3-.1-.2-.1v.1h-.2l-.3.3.1-.4-.2-.1v-.1l-.1-.1-.1.1-.3-.1v.1h-.3l.1-.3-.2-.1-.1.1-.1.2-.1.1v.1l-.2.1h0v.1l-.1.1-.3.1v.2l.1.1-.1.1v.1l.1.2h.1l.1.1-.2.2h-.7l-.1.2-.2-.2-.2.1h-.2l-.1-.1-.2.1v.2l.1.1.1.2-.1.1v.1l-.1.1v.1l.3.2-.1.1.3.2v-.1l.1.1-.2.3v0l-.1.1-.2.1v.3h-.1l-.2-.1-.1.1v.2l-.1-.2-.1.1v-.1l-.1-.3h-.3V51l-.1.2H196v.1l-.1.2h-.1v-.1l-.3-.1-.1-.1-.2-.1-.1.1-.2-.1-.2.2-.2-.1V51h-.4l-.1.1v.1l-.1.3v.2l.8.1-.3.5-.2-.2-.2.2-.1.2-.1-.1h-.1l-.1.2-.1-.1-.2.2h-.1v-.2l-.1-.1-.2.1h-.1l-.1-.3h0l-.1-.3-.1-.1h-.2l-.2-.1.1-.1v-.1l.2-.1-.2-.3L192,51l-.1-.1v-.1l.1-.1v.1l-.6.1h-.1l-.1.1-.1-.1-.1-.2-.1-.1v.1h-.2l-.2-.1-.3.1-.1-.2H190l-.1.1h-.1l-.1-.1-.1-.2-.1.1-.1-.1-.2.1-.2-.1h-.3l-.1-.1h-.1l-.1-.1-.2-.2h-.3V50l-.3-.1-.1-.2h-.3l.5.1-.1-.1-.1-.1h-.1l.1-.1-.1-.3-.1-.1.1-.1-.1-.1-.2-.2H187l-.1.1h-.2l.1-.1-.1-.3v-.1l-.1-.1h-.3v.2l-.1.1v-.1h-.3l.1-.2h-.1v-.1l-.2-.2v-.2l-.2.1h-.2l-.1-.2.1-.3-.2-.1-.1-.3h-.3l-.3-.1-.1-.2v-.4l-.1-.1-.1.1v.1H184v-.2l-.2-.2v-.1l-.1-.1v-.1l-.1-.1h-.1v-.1l-.1.1-.2-.2-.2.1-.1.1h-.3l-.1.1-.2-.2-.1-.1-.3-.1-.1.1v-.1l-.1-.2h-.3v-.1l.1-.1-.1-.1.1-.2h.1l-.1-.1.1-.2.2-.1v.1l.1-.1V44l.1-.3-.2-.3v-.1l-.1.1.1.2-.2.2-.1-.1-.1-.2h-.3l-.2.1h.7l-.1-.2.1-.3-.2-.3.1-.1-.1-.2.2-.1v-.3l.1-.3-.1-.1.1-.1h.1v-.5h-.1v.7h.1l.1-.1h-.2l.1-.1-.1-.1v-.1h0l-.1-.3.1-.3.2-.1v-.3l-.1-.1.1-.1-.2-.2v-.2h0l.1-.1.1-.2-.1-.1h.1l-.1-.3.2-.1v-.2l-.2-.2.1-.2-.2-.1v-.1h-.5l-.1.1H181l-.2-.2-.1-.2-.3-.1h0l-.1.1-.1.1-.1-.2H180v-.1l-.2-.2-.1-.2-.1.2-.2-.2-.2-.3v-.1l.5-.1v-.2h.1l-.2-.2.1-.3V36l-.1-.1.1-.2-.3-.2v-.1l-.1-.1v-.2l.1-.1-.3-.3.1-.2-.2-.2-.3-.2h0v-.2h.2l-.1-.1v-.2l-.2-.2v.4l.1-.2-.1-.1-.2-.3v-.1l-.1-.5.1-.2-.1-.5.1-.3v-.5l.1-.1-.1-.2.1-.1-.1-.2.2-.2v-.1l-.2-.1.1-.3.3-.3v-.1l.1-.4.1-.1-.2-.2v-.2l.1-.2.1-.2-.1-.3v-.1l.2-.1v-.2l.2-.1.1-.2.1.1h.1V27h-.2v-.1l.1-.1h.1v-.1l.1-.1-.2-.4.1-.3v-.1h.3l.2-.1-.2-.2.1-.1v-.2l.1-.3h.2l.1-.3.1-.1.1-.1.1-.1.1-.1-.1-.3.1-.1-.1,1,.1-.1v-.2l-.1-.1-.1-.4.1-.2h-.1l-.2.1h-.1v-.3l.1-.2.1-.2h.2v-.1h-.2V23l.3-.1v-.3l-.2-.2-.3-.1-.1-.2v-.2h-.3l-.1-.1.2-.1v-.1h-.1l.1-.1.1-.2v-.2h.2l.2-.1.1.1v-.2l.2.1.1-.1.1.1.2-.2h.2l-.1-.1h.2l.1-.3.1-.1h.3v-.1l.1-.1.1-.1.1-.1h.1l.1-.2.1.1.2-.1.1-.2-.1-.2.1-.1-.1-.1-.1-.1v-.1h-.1v-.1l.2-.1.1-.2.2-.1h.1l.1-.2h.1v.1l-.1.1h.1l.2-.1.1-.2.1.2.1-.1v-.1l-.1-.1.1-.1.1-.1.1.1v-.2l-.1-.1v-.3h-.1v-.4l.1-.1h.2l-.1-.2.2.2v-.3h.3l.1-.1-.1-.1h.1l.1.1h.1v-.2l.2-.1L185,16v-.1l-.1-.2h-.3v1.1h-.2l-.1.2-.1-.1H184v-.1l.2-.2-.1-.1.1-.1h-.1l-.1.1-.1-.1.1-.1v-.2l-.1.1h0l-.1.1-.1-.1v-.1l.1.1h.1V16l-.3-.1v-.1h-.2l-.2-.2h-.1l.3-.5.1-.1.1-.3-.3-.2h-.5l-.3-.2-.1-.1-.2-.2v-.1l-.5-.1v-.3l-.1-.1.3-.4-.1-.1h-.1v-.1h0l.1-.1.1-.2h.2v-.2l.2-.2.2-.1v-.1l-.1-.3.2-.1-.2-.2-.2.1-.3-.3-.1-.1-.2-.2h-.2l-.2-.3H181v.3h-.2l-.1-.3h-.1v.2l.1.1-.2-.1-.1-.1-.2.1H180l-.1-.1.1-.2-.2-.1v-.1l-.1.2h0l-.2.2-.1-.1.1-.1-.3-.1.1-.1-.2-.1V10l-.1.1-.3-.1v-.1h0l-.1.3.1.1h-.1v-.1l-.1.1-.2-.1-.1-.2h-.1l-.1.1-.1-.1-.2.1-.1-.1h-.4v-.2l-.1-.1-.2.1v0l-.3.1.1.2H176l-.1-.1.1-.3-.1-.1v-.2l.1-.1h.1v.1h.2l-.1-.2h.2l-.1-.3.2-.1h.1l.1-.1.1.1.3-.2v-.3l-.1-.1.1-.1.2-.3.4-.4h0l-.2-.1.2-.3v-.4l-.2-.2.1-.1.1-.2-.1-.1.1-.2.1-.1.1-.1.1-.8.1-.2.1-.2h.1l-.1-.2.1-.2-.1-.1.1-.1-.2-.3v-.3l.1-.1V3l-.2-.1.2-.2-.1-.1.1-.1-.1-.1H178l-.2-.1-.1.1h0v-.1h-.1l-.1-.2V2l-.1-.1-.1-.1H177l-.1-.6-.3-.4-.1-.3-.3.2-.1.1-.3-.2V.36l-.1-.2-.2-.1-.2.1-.1.1-.2.1h-.3v.2l-.1.1h.1v.1h-.3l-.1.3h-.6l-.2.1V.86l-.2-.1L173,1l-.2-.1v.3l-.1.2h0l-.1-.3h-.7l-.3-.1-.2.1-.1.1H171l-.3-.2V.86h0l-.1.1-.1-.1-.2.1-.2-.1-.1-.1h-.1l-.3-.1-.1.1-.2.1h-.2l-.2.3.2.1h.5l.1.1v.2l.3.2.1.2-.1.2.1.3v.1l.1-.2.1.1v.1l-.1.2.1.2-.1.3.2.1.1.3.2.2v.2l.2.1.1.3.1.2-.1.4h-.2l-.1.1-.2.2v.2l-.3.1v.1l.1.1-.1.1-.1.2-.4-.5v.1l-.2.1V6l-.1.1h-.2l-.2.2-.1.1.1.1-.1.1h.1l-.1.1h-.1l-.1.2.1-.1-.2-.1-.4.1v.1h-.3l-.1.1.1.1-.2.1h0l-.3.3-.3-.1-.1-.1h-.3v.5l-.1.2-.2.1v.1h-.3v.2l.2.1v.2l.1.1-.2.2.1.1.1.1-.1.1H166l.1.3-.1.2-.1.1h-.2v0h-.4v-.1h-.6l-.1.1h-.1l-.2-.1-.2.2-.3.1v.1h-.1l-.2.2v-.2h-.2v-.1h-.1l-.1-.1-.2-.2h-.1l-.1.1-.2-.3v.2l-.3-.2-.1.2-.1-.2-.2-.1v.2h-.1l-.1-.1h-.2l-.1-.1v.1H161l-.1.3.2.1v.1h.1l.1.1h.1v.2l.3.1v.1l-.2.1.1.1h-.3v.1l-.2.1.1.2h-.3v.2h-.2l-.3-.1H160v-.1h-.3v.1h-.2l.1-.1-.1-.1h.2l-.1.2h-.1l-.2.2-.3.1v.2l-.1.1v.2l.1.3-.1.1h-.1l.1.2v.1l.2.1-.1.1-.1.3v-.5h-.1l-.2.2-.2.1v.1l-.1.1h-.1l-.3.1h-.2l-.1-.2-.2.1-.1.2h-.2v-.2h-.2v-.1h-.2l-.1.1h-.4l-.3.1-.1-.1.1-.1v-.1h-.1l-.1.2-.3.1h.3v.1l.1.1v.1h-.3v-.1l-.2.1v.1l-.1.1v.2H155l.1.2-.1.3v.1h-.2l-.2-.1v-.1h-.3l-.1.1.1.1-.1.1H154l-.2-.1-.1.1h-.2v.1l-.1.3v.3l-.2-.1-.1-.3-.3-.3-.1-.1v-.2l.1-.1h-.1l-.1.1-.1.2-.1-.1-.1.2h-.2l-.1.1v-.2l-.1.1-.1.1-.3-.2-.2.1v.3l.1.1-.1.1h.4l-.1-.1h-.1v.1l-.1.1h-.2v.2h.1v.2H151l-.1.1-.1.1v-.1l-.2-.1h0l-.3-.1v-.3l-.3.1-.2-.1-.1-.1-.1.1-.2-.2h-.3L149,15l-.2.1h-.2V15h.1l-.1.1-.2-.2h-.1v-.3h-.2v.1H148l-.3-.3v.1h-.1l-.1-.1h-.1l-.1-.1v.1h-.4v.1h-.1l-.1-.1-.1.1-.1.2h.2l.1.1h-.1V15h-.2l.2-.2-.1-.1-.1-.1h-.1l-.1.1v.1l-.3-.1.2.2V15l-.3.1h-.2l.1.2-.1.2h0l.2.1.1-.1v.3l.1.2-.1.1h-.1l-.2.1v.2l.1.1h-.4v-.1l-.1-.2h-.2l-.1-.1h-.3l-.3-.1-.1.1v.1h-.5l-.2.1-.4-.2-.2.1v.2l-.2.2h-.1l.1.3.3.1-.1.3-.2.2-.3.1v.3l-.1.3.2.1v.1l.1.2.2.1v.1h.1l-.3.2v.1l.3.2.1.2h.2v.1l-.2.2.1.1v.3l.1.3-.1.3.1.2-.1.1v.2h-.1v.2H143l-.3-.2-.1-.2h-.1l-.1-.3h.3l-.1-.2h-.2l-.2-.1-.3.3-.3.2-.2.2-.3.2h-.2v.3l-.1.2-.3.3-.1.1h-.3l-.1-.1-.2-.2-.2-.3h.1v-.3l-.5-.3L139,21h.2l.1-.2v-.3l.1-.1v-.1l-.1-.1h-.1L139,20v-.2l-.3-.2-.3-.2h-.6l-.2-.1h-.4l-.3-.3v-.1l-.1-.1v-.4l.2-.2.2-.7H137l-.3-.1-.1-.1-.3.1-.1-.2h-.1l-.1-.1-.1-.1-.1.2v.1h-.1l-.2.1h-.3l-.5-.3-.3.1h-.2l-.3.3v.1h.2l-.1.2h.4v.1l-.1.1.2.2-.1.1-.3.3v.3l-.2.1-.2-.1h-.1l-.2-.1h-.1v.1l-.1-.1h.5l.1.3v.2l-.1-.2-.1.1-.2-.2h-.1l-.1-.1H133v-.4l-.3.1h-.2v-.1l.1-.1-.1-.1.1-.2-.1-.2-.3-.3-.2-.3-.2-.1-.2-.3-.1-.1-.2-.1h-.2v.5l-.1.3v.1l-.1.1v.1l.1.1h.2V18l.1.1h.2l-.3.3-.2-.1h-.2v.1h-.1l-.1-.1-.2-.1-.1-.1.1-.1-.3-.1h-.2l-.3.1-.3-.1H129v-.1l-.1-.1h-.1v.1l-.1-.1-.1.1-.3.2-.1-.1-.1.1-.1.1h-.2l-.1.1-.1.2-.1.1-.1.2-.1-.1v.3h-.1l-.2-.3h-.1l-.2-.1v-.3l-.4-.1V18l-.2-.1-.3-.7-.3-.3-.1-.2.1-.1v-.8l-.3-.4-.3-.3h-.2l-.2-.3h-.1l-.3.2h-.3l-.2-.1-.3-.1H123v-.2h-.3l-.2.1-.3.1-.7-.1H121l-.3.2-.6.1v.1l-.3-.1h-.3l-.2.2-.4-.2-.4-.3-.4-.9-.4-.4-1.1-.5h-.2l-.3.3-.1.3v.4l.2.5.3.3.3.3.3.2.2.2.2.5.3.3.1.3.1.1v.1l.3.2.3.2.2.3.3.2.3.1.1.6.3.3.3.3.3.4.3.3.1.1.3-.1.3.1.3.2.3.1.6.3.2.2.4.3.2.4v-.4l.3.2.2.3.5.5.3.3V23l-.1-.1-.2.3-.4.4-.2.2-.1.3.1.2.3.2-.1.8.3.9v1l-.1.3-.2.3-.1.2.3.3.5.4.2.3.4.4.1.3.2.3.1.2.4.2v.4l.2.3.1.2.4.3.1.1-.1.1h0l.1.2v.2h.2v.1l-.1.1v.3l.2.1.1.2h-.1l-.2.2v.1l.2.2v.2h-.1l.1.2v-.1l-.1.2-.2.2v.2l-.3.2v.3h-.1l-.1-.1v.3l-.1.2v.2l-.1.3-.1.2.1.1h.2v-.3l.2.1-.1.1.1.1h.2l.1-.1h.1l.2.2.1-.1.3.2.9.3.3.1.4.2.6.3H131l.4-.1.8-.3,1.2-.3.7-.1.4.1.2.1v.2l-.3.4v.2l.3.8.1.3-.1.3v.1l.4.4-.3.2v.2h.1l-.1.3v.3h-.1l-.3.2h-.1l-.1.1h-.1l-.3-.2h-.1l-.1.2-.2.2h-.3v-.1l-.3-.2h-.3l-.1.1-.3.1H132l-.2.2h-.2v.3h-.1l-.2.3h.4l-.1.1.1.3v-.1l-.1.1-.1-.1h-.3l.1-.2-.1-.1-.1-.1-.3.3v.1l-.1.1-.1.1v.1l-.1.1-.2-.1h-.1l-.1.2-.1.1-.2-.1h-.3l-.1.3-.2.1-.1-.3h-.4l-.1-.1-.1-.1h-.1l-.3.2-.2-.1h-.2l-.1-.1-.1.1-.1-.1-.2.2h-.1l-.1.1-.2.2h-.1v.2l-.3.1-.1.1-.2.1v.7l-.1.4v.1h.2v.3h-.1l.1.2-.1.1v.2l-.2.4v.1h.1V46l-.1.1.1.3h.1l-.1.3v.1l-.1.3-.2.2-.1.3-.2.2v.3l-.2.1h-.3l-.2.1h-.3v.2l-.2.3-.1.2-.3.3h-.1l-.2-.1-.1.1-.2.1-.1.2h-.2v.1l-.3.2-.1.1-.1.1v.1l-.1.1-.1.1v-.6l-.2.1v.2l.1.1-.1.1-.1-.1-.1-.2-.1-.1h-.5l-.1-.1.1-.3v-.1l.2-.3.1-.1-.1-.1.3-.3.2-.3-.1-.3h-.4l-.2-.1-.2.2v.1l-.2.2v.1l.9.3h-.1l-.1-.1-.3.2-.2.2-.2.2-.3.1-.1-.1v.2l-.3.2-.3.4-.2.1.1.1-.1.2h.1l-.2.3h-.3l-.2.2h-.1l-.2.3-.2.2h-.1l-.2.1h-.1l-.2-.1-.1.1v.2l-.1.3h-.1v-.3l-.3.2h-.1l-.1-.1-.3-.3-.2-.2v-.1l.1-.1-.2-.3-.1-.1-.2.3-.5.3.1.1-.2.3V52h-.3v-.3H115l.1.1-.2.2-.1.2-.2.1-.1-.1v-.1l-.1-.1h-.1l-.2.2.1.3.1.1-.2.3-.3.3-.2.3-.2.1v.2l-.3-.1-.2.1-.1-.1.1-.3-.2-.2-.1.1h-.1l-.2-.2-.3.2v.2l-.3.1h1l.1.3-.1.3v.3l-.1.3-.1.1v.2l.2-.3-.1.3-.1.1-.1.4-.2.3-.2.2h-.2l.1-.1-.1-.2h-.2l-.3.1-.2-.1-.1.1-.1-.1.1-.1-.1-.1h-.2l-.3.2-.1-.1-.2.5-.2.2.1.1-.3.2-.1.2h.1l-.1.1-.1.3-.2.1.2.3v.1l.1.1-.1.1.1.2-.1.1-.2-.1v.3l-.1.1-.1.3-.2.2v-.3l-.2.1h-.4l-.1.1h-.1l-.1.1h-.3l-.2.3-.1-.1h-.1v-.2l-.1-.1-.2-.4-.1-.1-.1-.1.2-.3v-.3l.3-.2h.1l.1-.3v-.1h.2l.1-.3-.1-.2.1-.1.1.1.1-.1h.1l-.1-.3.2-.2V56h-.3v-.1l.1-.3-.2-.2v-.1l-.2-.2.1-.1-.1-.1-.1-.2h-.2l-.1-.2.1-.1h-.2l-.1.1-.1-.3-.1.1-.3-.1v-.1l-.1.1h-.2l.1.3-.3-.3-.3.2-.1.2-.1-.1-.1-.1.3.4-.1.1h-.5l-.2.3h-.1l-.1.2-.1.1-.1-.1-.1.1-.1.1-.2.1-.1-.1-.3.2h0l-.3-.1.1.2-.1.3-.2.1-.1.2-.1-.1h-.3l-.1.1v.3l-.2.1v.3l-.2.2v.2h-.4l-.2.1h.1l-.3-.1-.3.1h-.2v.1l-.1.3v-.3l-.2.2-.2-.1h-.1l-.1.2-.4.1h-.1l-.1-.2-.2-.2-.1-.1-.3-.1-1.3.3-3.5-3.1-3.3-2.9-2.9.8.1-.5-.1-.3v-1.2l.1-1,.2-.5-.1-.4v-.3l-.1-1.8-.1-.3-.1-.3-.1-.3.1-.3-.2-.5-.1-.3-.2-.3-.3-.3-.3-.1-.6-.2-.2.1-.4-.3-.1-.2-.2-.5-.3-1.3v-.7l-.1-.1-.1-1.3-.3-.3-.3-.2h-.5l-.1.2-.2.3-1,.4-.2.2-.2.3-.1.4-.2.1-.3.7-.1.2h-1l-.6-.3h-.3l-.2.1-.4.8-.2.2-.1.1-.3.3-.3.3-.3.1.1.3-.1.2-.2.1-.1.2-.1.1h-.4l-.5-.5-.3-.3-.3-.3-.3.1-.2-.1h-.1l-.1-.1-.1-.3H75l-.1-.3-.2-.2h-.1l-.2.1-.2-.2-.2.1-.2.3h-.1l-.2.2-.2.2-.1.1-.1.7h0v.5h.4l-.1.4.1.3h.2l.2-.1.1-.1h.2l.3.2-.2.3h.3l.1.1v.2h-16v-.2l-.4-.3L58,45l-.1.1h-.2V45l-.1.2-.1-.1V45l-.1.1-.8-.3-.2.2-.4.2-.3.2h0l-.1.2-.2-.1-.1.1h-.4v-.1h-.2l-.1-.1-.1.1h-.4l-.3.3h-.1v0l-.2-.1-.3.1-.1-.1.1-.1h-.3v8.1l.2.2.3.1.1-.1.1-.3.2-.1.3-.3h.4l.3-.1v.5l-.1.2.1-.1.2.1.2-.1.3-.1h.2l.1-.2H56l.3.3.3.1h.6l.3-.1.4.1.2-.1.1.1v.3l.3.1.4-.4.1-.1.2.1.2-.1h.3v.2h.2l.1.2.2-.1h.1l.7.6.1.1.1.2-.3.2.2.2.4.2.1.2-.3.1-.1.1.1.2v.3h.2l.3.2h.1l.2.2L62,57v.1h-.3l-.1-.3v.3l.1.2.1.1.1.3-.2.2h-.3l-.2.2v.3l.1.1.2.1.3.2.4.7-.1.2H62l-.1-.1h-.2l-.2-.1h-.2l-.1-.1-.2.1v.2l-.1.1v0l-.3.1v-.1l-.2.1h-.6l.1-.2-.1-.3.1-.1-.2-.1v.3l-.2.1-.3-.1v.2l-.1.1h0l-.2-.2-.5-.5v-.2l-.2-.1-.1-.1v-.2l-.1-.1h-.2l-.1-.1v-.1h-.1l-.3.1-.1.1-.1.2h-.2l-.1.2V59h-.4v.2l-.3.2v.3h-.2v.1h-.2v-.3h-.1l-.2-.3-.1-.1L55,59l-.1.1v.2h-.2l-.2.1-.1.3-.1.1-.2-.2-.2.3-.2.1-.1.2-.3.2v-.2h-.1l-.2-.1-.1.1h-.2l-.3.1-.1-.2-.2.1-.1-.1-.2.3-.1.2-.3-.1-.1-.2H51l.2.2-.1.2-.1.1h-.3v-.1l-.1-.2h-.2v3.9l-.1,2.4v1l.1,1.4-.1.3-.1.2V70l.1.1.7.6.1.2.1.1.3.3.1.1.1.2h0l.1.2.2.2.3.3.1-.1.3.1.2-.1.3.5h.2l.3.1h.2l.2.1.2.3h.1l.1.2.1.1.2.1.3.1v.1l.3.1.3.1v.3H56l.2.2-.1.3.1.1.2.3-.1.3-.1.2.2.1.1.2h.1l.1.1v-.3h.1l-.1.2-.1.2-.1.3-.2.3-.1.1.1.2h-.2l-.1.1v.1l-.3-.1h.2l-.1.1.2.1-.1.1.3.3.1.2h.1l.2.1v.2l-.2.3.3.3h.1l.2.2v.7l.1.1h.2l.1.1.2.1.3.3v.2l.2.3.2-.1.2.1.1.2h-.2l-.3-.3H58v.1l.2.1.1.1-.1.3.1.1.3.4v.5l-.2.2v.2l-.2.3-.1.3.1.3.2.3v.6l.2.3v.2l-.3.1-.2.1v1.2l-.2.2-.1.1.1.4-.9,4.7-1.2,7-1,5.5L53,114.76l-.6,3.3-.6,3.5h-.1l-.2.2v.5l-.1.4-.3.3-.3.2-.3.2h-.1v-.2l-.1-.1L50,123h-.1l-.1-.3.2-.2h-.3l-.1-.1-.1-.3v.2l-.1.1-.2.1-.1-.1-.2-.1-.1.1-.2.3.3.2v.1l-.3.1-.1.1v.2l-.2.1h-.1l-.1-.1L48,123l-.1-.1-.1.1-.1-.1h0l-.2-.1-.1-.2.2-.1.1-.1v-.1l-.4.2h-.2l.2-.2L47,122v-.2l.3-.1.1-.1-.1-.4v-.3l-.1-.1-.2-.1-.2-.2-.1.3.1.2-.1.1-.1.2-.2-.1-.1-.2-.2-.3-.2-.1-.1.1h-.3l-.2-.1-.2.1.2.2-.1.1h-.3v.2h-.1l-.3-.2-.1.1-.1.3h-.2l-.1-.1.2-.3-.1-.3-.4-.1.1.2-.2.2-.1.1-.2.1-.2.1-.3.1-.2.1-.1-.1-.1-.1v-.2l.2-.3v-.2h-.4v.5l-.1-.2-.1-.1-.1-.1v.6l-.1.2h-.2l-.1-.2h-.1l-.3-.1-.3-.3h-.3l-.1.1-.2.3-.3-.1-.1.2-.1.1-.1.3.1.2-.1.1v.1l-.2.1-.2-.1H39l.1.2.2.3-.3.2-.1.1.1.3-.3.1-.2.1-.1.3-.1.1h-.1l-.1.1v.1l-.1.2-.1-.1-.3-.1-.1-.2-.1-.1-.2-.1v.1l.1.1.1.2-.1.2h-.5l-.1.2h1l-.2-.1.1-.3h-.2v.2l-.3.2-.1-.1.1-.2-.1-.1-.2.1-.1.1v.2l-.1.2-.3-.3H36l.1.2-.2.1v-.9h-.3l-.1.1v.2l-.2.2-.1-.3.1-.2-.1-.1h-.1l-.1.3h-.1v-.3h-.1l-.2.1-.3-.1h.4l.1.2.1.3-.1.1-.2.2-.2-.1-.2-.3H34l.1.2.2.1v.2l-.1.1v-.1l-.1-.1h-.4v-.2l-.1-.1-.1.1-.2.1-.2-.2-.2.2-.3.3h.1v-.1l-.1-.1h-.1l-.2-.2h-.2l-.1.1v.1l-.1.1-.1-.1-.2-.1v.3l.2.2v.1h-.1l-.3-.2-.2-.1-.1.1v.2l-.2-.1-.2.3-.2.2-.3.2H30l-.1-.1-.2-.1v-.1l.2-.1.1-.3v-.1h0l-.1.1-.1.1.1.1-.3.3-.1-.2-.2.2-.3-.1-.2.1h-.1l-.2-.2h-.2V125l.4-.2-.1.1v.3l-.1.1h-.2v-.1l-.1-.2-.1.1h-.2l-.2.1-.3.1-.2.1-.2.2-.2-.1-.1.1v.1l-.1.1-.1-.1v.2l-.1.1v-.2l-.3.1.1.2v.1h-.1v.1l-.1.1h-.1l-.1.1.1.1-.1.1.1.1-.3.1-.1-.1-.1.1.3-.1h-.3v.3l-.1-.1-.1-.1-.3-.1v.2l-.1.2-.3.1-.3.3.1.1-.2.1-.1.2-.3.3-.2-.1-.1.1-.2.1v.1h-.1l-.3.2.1.1-.1.1-.2-.2-.1.1v.2l-.3.1-.2.1-.1-.2-.2.3-.2.1v-.2l.1-.1-.3-.1-.1.1h-.3l.1.1v.1h-.2l-.2.2h.1l-.1.3-.1.1v.6h-.2l-.2.2-.1-.1h-.1l.1.1v.2h-.2v.2h-.1l-.1-.2-.1.1v-.2l-.2.1v.1l.1.1v.2l-.3.1v.3H19v-.1l-.1-.1-.1.2h-.1v-.9h-.2l-.1.3h-.3l-.3.3-.1.1h-.2l-.1.1-.2.1.1.1v.1l.4-.1v.3l-.3.2-.2.1v-.1h-.1l-.1.2-.2-.1h-.1l-.2.1-.3-.2v.1H16v.1h-.2v.1l.1.1-.1.1v.1l-.2-.1-.1.2-.1.1-.1-.1-.1.1-.1.1-.2.1-.2-.1-.1.3-.1.1-.3.1v-.1H14l-.1.2h-.1l-.1.1-.1.1v.1h.1v.1l.2.3-.1.1h.1v.5l-.1.2.1.2v.3l-.1.1v.1l-.1.1-.1.1v.1l-.2.2v.2l-.1.3v.1l-.2.1v.2l-.1.2v.1l-.1.1-.1.3-.2.1.1.1-.1.2-.1.3v.4l.1.2v.4l-.1.1.1.2-.2.1-.1.3v.2l.1.1v.2l.1.2-.1.1-.1-.1-.2.1v.5H12v.1l-.1.1v.2l-.3.1v.2l-.2.1h-.1l-.1.3h-.1v.3H11l-.2.3-.3.1v.1h-.2l-.1.1v.3l-.3.1h-.2l-.1.1v.2l-.2.2v.5l-.1-.1-.1.2v.4l-.1.3v.2l-.2.1h-.1l-.1.1v.1l-.2.2h1.2l.1.5-.1.1.1.1-.3.3v.5l.4.4v.6l.1.1.2.1.1.3h.1l.3.3v.4l.1.2v.2l.1-.1.1.4.1.1.1.3.2.1.1.2v.2h-.1l-.1.1.1.3-.1.1v.1l-.1.1-.1.3-.1.1.1.1-.1.1-.2.3h-.1l-.1-.1-.2.1v.2l-.1.1h-.1v.1l-.1.1.1.1-.2.2-.1-.1v-.1l-.2.1v.1l-.2.1h-.4l-.3.1h-.3l-.1.1-.1-.1h-.1l-.1.2-.2.1-.1.1v.3l-.3.1h-.1l-.2.1h0l-.3.2h-.3l-.1.1h-.1l-.3.1-.4-2.5-.1.3h-.3l-.3.1-.1.1-.3.3-.1.2-.3.4h-.1l-.2.3-.1.1h-.1l-.1.3v.1l-.1.2-.3.3-.2.3v.1l.2.3v.5l.2.1v.2l-.1.2-.4.5-.3.3-.1.1.1.2v.1l.2.2.1.2.2.2.1.4.1.1.3.2.2.2v.4l.2.3v.1l-.3.3-.4.3H3v-.3h-.1l-.3.2-.3-.1h-.1l-.3.2h-.2l-.1.2-.5-.1-.3-.3h0l-.1.1-.1-.2-.1-.1-.1.1v.2l.3.6.2.2v.4l.2.2-.2.2v.2l-.3.4-.3.1H.06l.1.4h.2l.5.5.3.3.3.1.1.3.3.3h.3l.1.3.2.3.1.1h.1l.6.2.1.1.4.3.2.1.1.3-.1.4v.3l-.1.2-.2-.2h-.4l-.2-.3H3l-.1.2.2.3h-.2l-.1.1.3.3.1.2v.3l.1.1.1.1h.1l.1-.1h.3l.2.2.1.4h.2l.3-.1.3.3v.3h-.3l.2.1.2.3.2.2.1.3-.2.2.1.3v.2l-.1.3.2.1.1.3.2.1v.1l.1.1.2.3-.2.2.2.2-.1.4.3.3.2.1h.2v.2h.1l.3.1.2.2h.4l.1.2.1.3.2.3.2-.1v.1l.1-.1.3.1h.2l.1.1h.3l.2.4.2.7-.1.3-.1.1.1.3.2-.1.1.1v.2l.1-.1.1.1v.3l.2.2h.1l.1.2h.1l.1.1h.2l.2-.1.3.1h.2l.2.3.2.1.1.3.1.5.3.3v.3l.2.3h.2v.3l.1.1v.2l.1.3.2.2.1-.1.1-.3v.3h.2l.3.1.3.8.3.1-.1.2-.1.1v.1l.1.2v.3l.1.2-.1.2v.3l-.2.4-.2.2-.3.2-.3.2.1.1.3.1v.1l-.1.1-.1.1-.2.1v.1l-.3.2H13l-.1-.2-1.2-.6-.3.4-.3.1.1.1.1.2v.1l-.3.1-.1.3-.2.1-.1.2-.3.1-.2.1v.1l-.1.3-.2.2h6v.1l-.1.1.1.1.2.1h.1v.1l.1-.1h.1v.1l.2-.1v.1l.1.1h.2l.1-.1.1.1.1-.1v.1h.1v.1l.1-.1.1.1h.2l.2.1v-.1l.1.1H18v.1l.1-.1v.1h.2l.1.1h.1v.1l.1.1h.1l.3-.1h.1l.1.1v-.1l.3.1.1-.1h.2l.1-.1.2.2h.1l.1.1h.1l.1-.1.1.1h.1l.1.1h-.1v.3h.1v.1l.2.2h.1l.2-.1.2.1.3-.1.2.1-.1.8.3.2h.2l-.1.3.2.3-.1.2v.3l-.1.3v.2l-.1.3v.1h.2l.2.2.1-.1.1.1.2.1h.2l.3.2.3.2-.2.1-.3.3v.1l.1.1v.3l.2.2.1.1-.2.1-.1.3-.2.1-.1.2.1.1.2.1v.4l-.1.2-.3.1v.2h10.4l.2-.3.1.1h0v-.2l.2-.1.3.3h.1l.5-.2H35v-.2h.1l.3.1h.3v-1.6l.1-.2.1-.1.1-.3.1-.1.1-.1.3-.2.4-.2.3-.2.2-.2h.2l.1-.1h0l.1-.1.2.1h.3v-.3l.1.1.2-.4.1-.1v-.1l.1.1.1-.2h.3l.1-.2h.1l.1-.2h.1l.1-.3h0v-.1l.2-.2.3-.2v.1l.2-.1v-.2l.1.1v-.1l.1.1.1-.1h0l.1-.1.1-.1.1-.1h-.1v-.1l.3-.1v-.1h.2V190l-.1-.1h.1v-.1l.1-.1h-.1l.1-.1.1-.1.2.2.1-.1v-.1l.1-.1.1-.1h.1l.2-.2.1.1v-.1h.1l.1-.2.1.1v-.1l.1-.1v-.1h.2l-.1-.1.2.1v-.3l.1-.1.1-.1.1.1v.3h.2l.1-.2h.1l.2-.1v-.1h-.3v.1h.1l.1-.2.1.1v.1l.2-.1v.1h.1v-.1l.2-.1.1.1.1-.1-.1.3h-.2l.1.3h-.1l-.1-.1-.1.1.1.2.2.3v.1l-.1-.2-.2.2h-.1v.2l-.2-.1v.3h.1v.1h-.3l-.1-.1h0l.1.2-.1-.1v.1h.2l.1.2-.1.1h-.2l-.2-.2-.1.1v.2l-.1.1h.1l-.1.2-.1.1.2.4.2.1-.1.1.2.2h.2v.2H44l.2.4h.1l-.1.1.1.1-.1.1v.2h-.1v.3l-.1.2-.2.1-.3-.1-.1.1-.1.3-.1-.1H43l-.1.3v1.9l-.1,1.4v8.2l.1,3.6L44,208l.2.1v.1h.2l.1.2h.2l.2.1.1.3.3.2.2.3-.1.1h.1l.1.1.1-.1.2.1v.1l.1-.1.2.1h.1v.1l.1.1.3-.1.1.1.1.1.2-.1.2.1.3-.1.1-.1h.1l.1.1.1-.2h.1l.3-.1.1.1h.3l.2.1.1-.1v-.1h-.4v-.7l.1.1h.1v-.1l.1.1v-.1l.2-.1.1-.1h.1l.1-.2h.1v-.1h.1v-.1l.2-.1-.1.1h-.1l.1-.2v.1l.1-.1v.1h.3V208h.1l.1-.1h.2v-.1l.1.1v-.1h0l.1-.1.1-.1v.1l.1-.2.1.1.1-.2.1.1.1-.2h.2v-.2H52l.1.1.1-.1.2-.1.3.1.1.1.1-.1.1.1.1-.1.2.1h.4v-.1h.2v.1H54l.1.1.2-.1v.1l.1.1v-.1h.1l.1.2.1.2h.1l-.1.1.1.1.2-.2.1.2.2-.2.1.1.1-.1.2-.1.1.1.1-.2.3.1.2-.1.1.1v-.2h.2l.2.1v-.2l.4.1v.1h-.5v-.2h.3l.2.1.1-.1v.2h.2l.1.1v-.1l.1-.1.1.1H58v-.1l.1.1v-.2h.3l.1-.2h.1l.1.2.1-.1.1.2h-.2l-.1-.1.1-.1.1.2h.1v.1l.1-.2.2.1v-.1h.2l-.1.2h.1l.1-.1v.1h.1l.1-.2v.1l.3.1.1-.1.1.1v-.1h.1l.1.2.1-.1h-.1l.1-.1.3-.1v.1h-.1l.2.1.1-.2.2.2.1.1.2-.1h.2l.1.1.2.1-.3.1v.1h.1l-.1.1h.1l.1-.1v.1h.2l.1.2.1-.2.2.1.2-.1.1.1.1-.2.1.3.2-.1.1.1.1-.1.1.1h.1v.1h.2v.1l-.1.1h.1l.1.1.1-.1v.1h.2l-.1-.2h.1l.2-.1h.3l-.1.2h.1v.1l.2-.1.2.2.2.1.2-.2h.1v.1l.1-.1h.1l.1.1H66v-.2l.2-.1.1.1.1-.1h.1l-.1.1.1.1.1-.1h.2l-.1-.1h.2v-.1H67l-.1.1.2.1.1-.1v.1l.1.1.2-.1v.1h-.8l.1.1.1-.1H67l-.1.2v.2h-.2l-.1.2.1.1-.1.2.1.1v.1l.1.1.1.1h.2l.2.1-.1.2.2.2-.1.3,1.4-.3.9-.2v-.1l.3-.2.2-.2v-.2l.3-.2.5-.1.2-.2.2.2h.1l.1.1.1.1v-.1l.1-.1.1-.1-.1-.1.1-.2.4-.2h.1l.2.2.1-.1.1-.2.1-.1h.1l.1-.2.2-.1.1-.1.2-.1.1-.2v-.3l.1-.2.2-.1.1-.3h-.2l.1-.3h.2l.1-.3h.1l.2-.3.2-.1v-.1l.2-.1.1-.2.2-.1.1-.1-.1-.1.1-.1v-.1l.1-.1-.1-.1h-.1v.1l.1-.2h.1l.1-.1.1-.1.1-.2.1.1v-.2l.2-.1h.3v-.2h.1l.1-.1.1.1v-.1l.1.1v-.1l.2.1.2.1.3-.2.2.1h.2l.1-.1.1.1.1-.2h-.4v.1l.1-.1h.4l.1.1h.1l.1.1.1-.1.2.1.1.1v.1l.1-.1v.1h.2v.2l.1-.1v.1h.2v.1h.2l.1.1h.1l.1.2v.1l.1-.1v.1h.1v-.1l.1.1.1-.1.1.1.3-1.4.3.2.3-.3.1-.2.3-.3.1-.3.3-.4.1-.1.3-.1.2-.1h.4v-.2l.2-.1.2.1.2-.1.1-.1.3-.1.1-.1v-.2l.1-.1h.2v-.3l-.1-.2.2-.3h.1l.1.1.2.1.2-.1.2.2v-.2h.2l.2.1.1-.1h.1V200l-.1-.2.1-.2-.2-.2.1-.1.1-.1.2.1v-.1l.1.1.1-.1.2.1.1.1.3-.1.1-.1h.2l.1.1h.3l.2.2h.2l.1-.1.2-.1h.1l.1-.1h.1l-.1-.1v-.2l.1-.1h-1.1l.2-.1h.2v.1h.1l.1-.1.3-.2h-.1l.1-.1h.1v-.1l.1.1.1-.1H89v.5l.1.1v-.1l.1-.1v-.2l.1-.1v.1l.1-.1.1-.1h-.2l.1-.1v-.1l.2-.2.1-.1v.1h.1l.1-.2v.2l.1-.1.1-.3.1-.1h.1v-.1l.1-.1.2.1v-.1l-.1-.1.1-.1h.2v-.2l.1-.1.1.1v-.1l-.3.1.1.1v-.1l-.1-.2h.4v.1l.2-.1v-.3h.2l.1-.2h.2v-.2l.2-.1h0l.2-.1.1.1v-.2h.1v-.1h.1l.1-.1h.1l.1-.1v-.1h-.1l.1-.1.3-.1h.3v-.2l.1.1.1-.2-.1-.1.2-.1.1.1.1.1.1-.2h.1v-.1H94v-.1h.1l-.1-.2h.1v-.2l.1-.1.4.1.1.1v-.1l.1-.1.1.1.1-.1-.1-.1H95l.2.1v-.2l.3.1h.1l.1-.1h.2v.1H96v-.2h.3l.2.1h.1l-.1-.1h.2l.1-.1.2.1-.1.3.1.1v-.1l.1-.1h-.4v-.1l.1-.1v.3l.3.1.3-.1v-.3l.1-.1h.3l.1-.1.1.1h.1l.2.1h.1v-.2l.1-.1v.2l.2-.1h.1l.1-.1v-.1l.1.1V193l.3.2.1.1h.1l.2-.1h-.1l.1-.1.1.1-.1-.2v-.1h.3v-.2l.3-.1.1.1.1-.1.1.1.1-.1v.1h.2v.1h.2v.3l.1.1.1-.2h.1l-.1-.1.2-.1h.4l.2.3h.1l.3-.3v.2h.1l.1.1v-.2l.2.1h.1l-.2-.1.1-.3.2-.1.2-.1.1.1v.1l.1-.1h.1l-.1-.1.1-.1h.1v.2h.2v-.1l.2-.1h.2l.1.1.1.1-.1.1v.1l-.1.2h.5v-.1l.1-.1v-.2h.2v-.2h.1l.1.1h.1v.1l-.2.1.1.2.1.1v-.1l.1.1.1-.1.1-.2.1-.1-.1-.3v-.1l.2-.1v.2l-.1.2.2.1.2.2h.1v-.2l.1-.1h.4l.1-.1.2-.1v.2h.1l-.1.1h-.4v.1l.2.2-.2.3.3.1V193l.3-.3.2.2h.2l-.2.2.1.1v.1l.1-.2h.1l.1.3.1.1.1-.1.2-.1h.1v.3l.3-.1.1.1h.1v-.1l-.1-.3v-.1l.1-.1h.2l.1-.3.3.2.2-.1v-.7l.3-.1-.1-.2h0l.1.1h.1l.3-.2.1-.2v-.1l-.1-.1v-.1l.7.3.3.3.2.2.1.3.2.3.2.4.3.3.1.2-.1.3-.4.4-.1.3v.5l.1.2.1.3-.2.6.1.2.1.3.2.2.1.5-.1.3v.3l.2.3v.2l-.1.2-1.7.2-.1.1-.2.5-.3.3-.3.3-.2.1-.2.3.2.3v.4l-.2.3-.2.2h-.3l-.1.3.1.2.2.2-.1.3.2.3.1.3v.2l-.2.1v.2l-.1.1.1.1.1.1v.1l.1.1h.3l.3.1.1.3.1.3v.3l-.1.3.1.3-.1.3h-.2v.3l.2.1h.2l.3.2.5.7.2.7-.3-.1v.1l.1.3.1.3.3.3v.1l-.3.2-.4.3.1.1.2.3.1.2-.1.2-.6.2-.3.3-.2.2v.2l.2.5h.4l.1.2-.1.1-.3.1-.1.1v.4l.2.7.1.1h.5l.1.2-.1.1-.4.1-.1.2.2.4v.4l.2.9.1.2h.1l.5.2h.4l.1.1.1.1-.1.3-.3.3v.2l.2.2-.1.2v.1l.2.3v.1l-.2.3-.3.3-.1.1.1.1.3.3.5.3h.2v-1.7l-.2-.2.1-.1h.7l.3-.2h.2l.1.2v.2l.3.8v.4l-.2.4v.1l.2.3h.3l.2.1.1.1-.2.6-.2.3v.1l.1-.1.1.1-.1.2v.2h.1l.3-.1h.1l.2.3h.2l.1-.3.2-.1.1.1.2.3.2.2.4-.3h.6l.1.1.2.3.1.2-.1.2-.2.1-.2.3v.2l.1.2h.1l.3-.3.1-.2h.2l.3.2.1.1.1.1-.2.4.1.2h.3l.1-.3v-.3l-.1-.3.3-.1.1-.1.2.2v.1l-.2.3-.1.3.1.4.2.2.3.1.7.3h.5l.1.1.2.3h.1l.3-.2.2-.1.1.1.1.4v.4l-.1.4-.1.2v.1l.1.3.3.2.2.1.2.3.3.3.1.1.2.2.7.1h.7v.2l-.1.3.1.1.1.1.1-.1.1-.2.3-.1.3-.3.2.2h.1l.2.1h.1l.1-.1h.2v.3l-.1.2.1.1h.3v-.1l.1-.3h.2l.1.1v.3h.1l.2-.2.1-.1h.1v.2h.2l.1-.1h.1l.2.1.1.3h.1l.2-.2.2.2.1-.1v-.1h.1l.3.3.1.1.3-.1.3-.2h.2l.1-.1v-.3l.1-.3v-.2l.1-.1h.2l.3.2.3.1.2-.3.1.1.1-.1.2-.2.1-.1.3.2h.3l.6.2.2.2.3-.1.4.2.1.2.3.1.3.1.3.1.3.5.3.3h.8v.3l.2.2H136l.1.1.1.1.1-.1.2.1.1.3.3.3.1.1.3-.1.3.2.4.2h.5l.1.1h.2v-.1l-.1-.1v-.1h-.1v-.1h.3l.1-.1h.3l.1-.1v-.1l-.1-.2.1-.1.1.1.2.2.2-.1-.1-.2.1-.1h.1v.3h.2v.2l.2-.1v.2h.5v.2l-.1.1v.1h.4l.1.1v.1l-.2.1-.1.3.2.1h.2l.1.2.2.5.2.1v.3h.2l-.1.3.1.2.3.1v.1l.1.1h.1l.1-.2h.2v.2l.1-.1v-.1l.1-.1h.2l.2.2.2.1v.3l.2.1.2.3h.1l.2.2-.1.2.1.1h.1l.1-.1.1-.1.3.1v.4l.2.3.2.3.3.1.1-.3h.1v.2l.2.2v-.2l.1-.2.2.1.1-.1.1.1v-1.7h.3l.2-.2v-.1l.2-.1h.1v.1l-.1.3h.3v.1l-.1.2.1.1h.1l.2-.1.1.1-.2.1v.2l.7.3.2.1h.2l.2-.1.3.3.3-.1-.1-.2.1-.1h.1v.3h.1l.1-.2h.1v.1l-.1.2.1.1.1-.2h.1l.1.1v.3l.2.2.1.2.2-.3v.3l.1.1.1-.1.2.2.1-.1.2.1.1-.1.1.1h-.1v.1l.2-.2.1.2.1-.2h.2l.1.2.1-.1.2.2h.1l-.1-.2.2.1v-.3h.2l.1-.3h.1l.1.1.1-.2h.1l.2.2v.3l.2.1.1-.2v-.4h.2v.3l.1.1.1.1.1.2h.1l.1-.2h.1l.1.1.1.1-.1.2.1.4.1.1v.3l-.1.2v.1l.2.2.1.2h.1v.1l.2.1.2-.1v.3h.2l.2.3.1-.1h.2v.3l.2.3.1-.1h-.1v-.1l.3.1.1.1-.1.2h.1l.1.1-.1.2h.2l.1.1.1-.1.2.2v.1l.2.1h.1l.2-.1v.1l.2.3v.6l.2.2v.3l.2.1.1-.2h.1v.4l.1-.2.2-.1v.1h.1v-.2l.1.1.3.1.1-.1.1-.2h.1v.3h.1l.1-.1-.1-.1.1-.1.1.1h.2v-.1l.1.1.3-.2.2-.1-.1-.1.2.2.2-.1v.1l.3.1h.1v-.2l.2.1h.1v-.2h.1v.2h.1l.2-.2h.2v-.1l.1-.1.1.1-.1.3.1.1h.2l.3.1v.1l.2.1.2.1h.3l.3.2.5-.2.2-.1h.2l-.1-.2.3-.1h.6v-.2h.3l.2-.1-.1-.3h.1l.2.1v.2l.1.1.2-.1h.3v.2l.1.1.1.1.1.1.2-.1.2.2.2-.2-.1-.1.1-.2v.1h.2l.2.1v.1l.1.1.1-.1-.1-.1.1-.1h.1l-.1.3.2-.2.3.2.1-.1v-.1l.1-.2v-.2h.1l.2.1h.1l.1.2h.1l.2-.1.1-.1-.3-.1v-.1h.2l.2.1.2-.1.3.2-.1.1-.1-.1-.1.1v.2l.1.1v.1l-.1-.1h-.1l.1.3.3-.1v-.6h.3l.1.2h.1l.3-.2h.1l.1.1-.1.2.1.2.1.2.3.3.1.2.4.2h.2l.2.1.1.2.3.1.2.1h.1v.3l.2.1.2-.1.3.2.1-.1v.2l.2.2v-.2l.1-.1.1.3.2.2.2.1h.1l.1-.1h.1l.1-.2.2.2v.2l.1-.1v.2h.1l.1-.1.1.1h.2l-.1.1h.2l-.1.2h.2l.1.2h.1v-.7h.3l.1.1-.2.2h.3l.1.1.1-.1.1.1h.3l.1.1h-.2v.1l.2.1-.1.1h-.3v.1l.1.1.2-.1v.1l-.3.3h.5l-.1.1v.2l-.1.1-.1.1.1.1v-.1l.1-.1h.2v.1l-.1.1.1.2v.3h.1l.2.1h.2v.1l.1.1h-.1l-.1.2-.1-.1.2.3h.3l.1.1v.1h-.2l-.1.1v.2l-.1.2v.1l-.2.2-.1.2v.1l-.3.3-.2.1h-.1l-.1.1v.1l.1.1-.2.1.2.2-.2.1.1.2v.1l-.1.1-.1.1v.3h.3v.4l.1.1v.2l.2.1v.1l-.2.1v.1l.1.2-.1.1.1.1v.2l.1.1v.1l.1.1.1.2.2.1-.1.1.1.1.1-.1v.2l.1-.1v.2l.1-.1v.1l.1-.1v.4l-.1-.1v.4l-.1.1h.1v.1h.1v.1l-.1.1h.2l.1.1v.2h.1l-.1.1.3.2v.2l-.1-.1v.1l.3.1v.2l.1.1v.2l.1.1h-.1l.1.1v.2l.1.2h-.1l.1.2.1.4.3.2.3-.1.3,6.2h-3.3l-.8.1,4.1,4.7.4,5.2.4,4.9,8.9.2,8.7.3,4.5.3.3-.2.2-.2.1-.5.3.2h.4l.3-.1v.3l.2.3v.3l-.1.4.1.1-.3.2-.1.1-.1-.1-.1.1v.1l-.2.4.2.3.2.3v.2l-.2.3-.2.2-.3.2-.1.3-.3.2-.1.2-.1.1-.3.8v.2l-.1.5v.2l-.1.3.1.2.1.3v.2h-6.6v.4l.2.3-.1.1h.1l-.1.1.1.1-.1.1h.1l-.1.3h.1l-.1.2-.1.1.1.1-.1.2.1.1.1-.1.1.1-.1.2v.2h.2v.1l.2.2h.2l-.1.2-.1.1v.3h.2v.1h-.2v.2h.2l-.2.2v.4h.1v.4h.1l.3-.1h.1l.1.1-.3-2.7.1.7.3.2h.1v.2h.1l.2.3h.1v.1l.3.2-.1.1.1.1.2.1v.1l.2.1-.1.1v.1l.1.1.2-.1v.3l.2.1v.2h.1v.1l.2.1v-.1h.2v.1h.4l.1.2-.1.2.3.1.4-.1-.1.3.1.1.1.1.2-.1.1.1v.4l.4.2.2-.2h.2l.2.2v.3l.2.1h.1l.1.1h.1l.1.1.1-.1v.2l.3-.1,1.2-.8,1.6,1.4-.4-.1H207v.1l.2.1v.1l-.1.1v.1l.2-.1-.1.2h.1l-.1.2v.1l.1-.1v.3l-.1.2.1.2.2.1.2.4h.1l.2.3h.1l.2.2-.2.5.5.4v.3h-.5l1.6,2.9.2.8.1.3.9.8V301l.2.1.1-.1.1.1v.2l.1.1.2.1v.1l-1.3.1-2.7,8.4h.6v1h.1l.1.1.2.2-.1.2h.1l-.2.3h-1l-1.3,2.8-1.9,3.9-1.3,2.7,3.5,2.7-.1.2-.3.4-.2.3-1.1-1.1-.2-.1h-.1l-.2.1-.2.3-.2.1h-.5l-.2.1-.2.4v.1l-.5.1-.3.2-.1.3-.3.1h-.3l-.1.2-.1.1v.1l.1.1h.3l.1.1.1.1-.1.2-.3.1-.1.2-.1.1.1.3.3.2v-.1l.2-.2.1-.1h.3l.1.1.1.1v.2l-.1.4-.1.3.2.6.3.3.5.1.3.5v.2l-.3.4-.1.3.3.8-.2.3v.3l.3.3h.3v.1l-.1.3-.1.3v.3h.4l.3-.5h.2l.1.1.1.2.3.4.1.2.1.2v.1H205l-.5-.1-.2.1-.2.1-.2.4v.1l.2.1h.2l.3-.2h.2l.4.3.1.2-.1.3-.5.3v-.6l-.1.2.2.1.2-.1.2.1.1.1.2.3.1.1h.2l.2-.2h.2v.4l.1.2-.2.2-.3.4-.3.2.1.3.3.4-.3.4v.1l.2.7v.4l-.1.2-.8.5-.1.1.2.2.2.2.5.1.1.1-.1.3-.1.2-.5.6-.1.3-.2.4v.2l-.1.2-.2.3-.2.1-.1.3v.3l.1.3.4.2.2.2v.1l-.3.1-.2.3.2.3.1.2.5.3v.1l-.2.2-.5.3-.1.2v.1l.1.1.2.2h.2v.3l-.3.5-.3.1-.3.1v.1l.7.3.1.1-.1.1h0l-.3.2.1.1h.1v.2l-.2.6-.2.2v.4l-.4.3-.1.2v.2h.2l.1.1-.1.4.1-.1.1.1h.2l.1-.2.1.1h.2l.1.3.1.1-.1.2h.5l.1.1h.2l.2.1-.1-.1.4-.2.1.1.1.2h.1l.1.2h.1l.1-.3.1-.1.3.2h.2l.2-.1v-.2h-.1v-.2h.1l.1-.1.2.2v-.1l.1-.1v-.1h.2l.1-.1.2.2.1.1h.3l.3-.2v.2l.1.2-.1.1h.1v.1h.1v.1h.1v.1l.1-.1v.4l.1.2h.1l.3.1.2-.1.1-.1h.1l.2.2h.2v.1h.1l.2-.1.1.1.1-.1v.1l.1-.1.2.2h.2l-.1.1.2-.1.3.1v.1l.1-.1v.1h.2l-.1.2h.1v.1h.2l.1-.1.1.1h.1v.1l.1-.1v.1l.2.1h.1l-.1-.1.2-.1v-.1l.2-.1v.1h.1l.1.1v.1l.1-.1v.1h.3l.2.2.3-.2v-.1h.2l-.1-.1v-1.6h.1l.1-.1.1.1v.1l.1.1v.1l.1-.1h.2l.1-.1.1.1.2-.1.3.1.2-.1-.1.3.1.1h.1l.1-.1.1.1.1-.1h.3l-.1-.2h.2v.1l.1.1.1-.1h.2l.1-.1.1.1.2-.2.1.1-.1.1.1.1h.2l.2-.1.1.2.1.1h.2l.1-.1.1.1.1.1.1.1.1-.1v-.1l.2-.1h.1l.1.2-.1.2.1.1.2.1h.1l.1.2h.1l.2-.1.1-.1.2-.1v-.5l.2-.1h.1l-.1.1h.1v.1h.1l.2-.1v-.1h.2l.1-.1.1.1.1.1-.1.1.2.1.2-.2.1-.1v-.1h.1V352l-.1-.1v-.1h.2v.1l.1-.1v.2l.1.2.2.1.2.1.1.1h.1l-.1-.3h.2l.3-.2v-.1l.1-.1h0l.1.1.1-.1h.1v-.1h.1l.1.1.1-.2h.1l-.1-.1.1-.1v-.2l.3-.2h-.1v-.2l.2.1v-.1h.1l-.1-.1v-.1l.1-.1v-.2h.2v-.1l.1-.1h.3l.1-.2.1.1v-.1h.1v.1h.1v-.1l.1.1.1-.1.1.1.1-.1.1.1v-.1h.3l.1-.1v.3l-.1.1.2.1v.1l.1.1h-.1l.2.1v.4l.1.3.1.1.1-.1v.1h.1v.1l.1.2h.1v.1l.2.2.1-.1.1.1.2.1.2.2.1-.1.1.1h.3l.1.1v.2l.3.2v.1h.2l.1-.1.1.2v-.1h.2v.1l.1.1.1-.1h.4l.1-.1v-.1h.1l.3.2h.4l.1-.1h.1l.2.1.3.1.1.1h.1V353l.3-.1.2.2h.3l.1-.1.2-.1.1.1.1-.1.3.1h.5l.2.2.1.3.1.3.3.2v.1l-.1.2.2.1.1.1.1-.1.1.1.1-.1.3.1.1.1-.1.1.1.1.1.3-.1.3v.1h-.1l-.1.2.1.2v.2l.3.7.3.2.1.2.1.2h.2l.1.1.3.2.3.3v.3l.1.1v.3l.1.2-.1.1.1.3-.1.3v.1l-.1.1v.1l.1.1v.1l-.2-.1-.1.1v.2l-.2.1v.2l-.1.1v.5l-.1.1.1.3-.1.2.2.1v.2l.1.3-.1.2.1.1-.1.1h.2v.2l.2.3-.2.1.1.1-.1.3.2.1.1.1.1.1-.1.1.1.1v.3H238l.2.3.1.2v.5l.3-.1h.1l.2.1.2.1v.3l.3.3-.1.1-.1.2H239l.2.3-.1.1.1.1h.1l.1.1-.2.2-.3.1v.1l.1.3-.1.2.3.2.2.3v.2h.1l.1.2-.1.4-.4.5.1.1-.1.3h-.2v.2h.1l.1.2.1.3v.1l.1.2v.2l.2.2-.1.1v.1l-.1.2v.4l.1.1.3-.1v.1l.2.1.1.1.1-.1.1.2v.3h.1l.1.1-.1.3.1.1.1.1.1-.1h.1l.1.1-.1.1-.1.3.1.2h-.1l.2.2v.3l-.2.3.1.1v.5l.1.2-.1.3-.1.2.3.2-.1.2h.2v.3l.1.1h.1l.1.1h.1l.1-.1h.1v.2h.2l.1.1.2.1h.1l.3-.4h.2l.3.2.1.1h.1v.1h.1v.1l.3.1h.5v-.1l.1-.1h.2v.1l.3-.1.1-.1.1.1h.1l.2-.1v-.1h.1l.2-.2.1.1.1.2.2.1.1-.1v.1l.2.1.1-.2h.1l.2-.1.2-.1.2-.1.1-.1.2.1.1-.1.2.1h.3l.1.1v-.1h.2l-.1-.3.1-.1v-.2h.2v-.2h.2l.1-.2h.1l.1.2.3-.1.1.1v-.2l.2-.2.3.1.1-.1.2-.1v-.1h.2l.1-.1h.1l.1-.1h.2v.2l.5-.1.1-.1v-.2l.2-.2.2-.3.1.1h.2l.1.2h.2l.1.1h.1l.1.2h.1l.1-.1.2-.1v.2l.3.1-.1.2v.1l.3-.1.2.1h.1l.2.1h.2V376l.3.3.4.1.2.1.1.1v.2l.2.4.2.1.3.3.2.1.2.2.2-.1.3.1v.2l.1.2v.2l.3.3-.3.3-.3.3-.2.3.1.1v.2l.2.4v.6l.1.3.4.4.2.3.2.7-.1.2-.2.4-.3.3-.3.3-.2.6.1.3.2.6v.2l-.1.9-.2.4-.1.3-.2.4-.1.2-.2.1-.1.3-.3.8-.2.7-.1.3-.2.3v.5l-.3.7v.3l.1.3-.1.2.1.2.2.2.1.2.1.3-.1.2H255l-.2.3-.1.3-.2.3-.1.5-.2.3-.2.3-.3.4-.3.2-.2.3-.1.2-.2.3v.2l-.1.1-.2.1v.3l.3.2v.5l.1.3v.7l.3-.1h.1l.2.1.2.1-.1.2.1.2h.1l.3-.2.3.2.2.1.3.3.2.4h.1l.1-.1-.1-.3.4-.3.1-.2v-.3l.2-.1.3.2h.1l.3-.4.4-.3h.2l.2.3.2.2h.2v-.3l.1-.1h.1l.3.3h.4l-.1-.1v-.1l-.3-.2h-.1l.1-.2.2-.1.3.1h.1l.3-.3.4-.3h.1l.1.1v.3l-.3.4v.2l.2.4.2.3v-.1h.1v-.4l.1-.3h.2l.1.2.2.2.1-.1.2-.2.1-.1.2.1.1.2.1.1.3.2-.1.1v.1h.2l.1.2v.2l.1.1.1-.2-.1-.2h.1v-.1h.1v.1h.1l.2-.1.1.1-.1.1v.1l.1-.1v.1l.3-.2.1.1-.1.2.1.1.1-.1v.1h-.1l-.1.2.2-.1.2.1.1.2v.1l.2.1-.1.1v.1l-.1.1v-.1l-.2-.1.1.2h-.2l.2.1-.1.1h.2v.1l-.1.3.2-.1.3.2h-7.2l.1.1h-.2l-.1.1.2.1.2.1v.1l-.2.1h.3v.1l-.1.2h.2v.1l-.2-.1-.1.1v.1h-.1l-.1.2v.1l.1-.1.1.2v.1h.1l-.1.2h.2l-.1.1h-.1v.3h.3l-.1.1h-.1l-.1.2.2-.1h.1l-.1.1.1.2H257l-.1-.2v.2h-.2l.1.3.1.1h-.1v.1l.3.1v.2h.1l.1-.1v.2l.1.1.1-.1v.1l.2.1-.1.1h.1l-.1.1h.2v.1l.1.1.1-.1v.2l.1-.1v.1h.2l.1.2v.2h-.1l-.1.3.1.2-.1.1v.1l.3.2h.1l.1.2.1.2.3.2.1.1.2.3h.1v.2l.2.1-.2.3.1.1.1.1h-.1l.1.1v.3l-.1.2-.1.2-.2.3v.1h-.1l.1.1h-.1l-.2.1v.2h-.1l.1.1-.2.1v.1l.1.1-.1.1h-.1v.2l.2.1-.1.1h-.1l.1.1h.1v.2h.1v.2h-.1v-6.3l-.1.1v.1l.1.1v.2l-.1-.1-.2.1h.1v.2l.1-.2.1.1h-.1l.1.2h-.1l-.1.1.1.2-.2-.1-.1.1v-.1h-.1v.3h.2l-.1.2v.1l-.1-.1-.2.1.2.1.1.1-.2.1h.1l.2-.1h.1v.1h-.2v.3h-.1v.3h-.1l.1.1-.1.2h-.1v.2l-.1-.1-.1.1.2.1h.1v.1h.2l.1.2h-.2v.1l.2.1-.2.2-.1-.2h-.1v.1l.2.2-.1.2-.2.1-.1-.2v.2l.2.1-.1.2h.2l.1-.2.1.2.1.1v.2h-.1l-.1.1-.2-.1.2.2h.2v-.1h.2v.1l-.2.1v.1l.1.2h.1l.1.2h-.1l-.1-.1v.1l.1.1.1.2.1.1h-.1v.1h.3l.1.1.1.1v.1l-.4-.1v.1h.2l-.1.2-.1.1.3.1-.1.2.1.1-.1.1-.2.1.2.2.2.1h-.2l-.3-.2v.1l.1.2v.1l-.2.1-.2-.1v.2h-.1l.3.2v.1h-.4l.2.2-.2.2-.1-.2h-.6l.1.2.1.1v.1l-.1.1-.1.1-.2-.2-.1-.1.1.3.2.1.1.1-.2.1-.1-.2-.2-.2h-.2l.1.2.2.2h.1l.1.1h-.2l-.2-.2-.1.2v.1l.3.3-.3.1H257v.2l-.2.1h-.1l.1.2.3-.1v.1l-.4.1-.1.1.1.1v.1l.1.1h.2l.1-.1.3-.3.2.1.2.4h.2l.2-.1h.1l.1-.1.2-.1.1-.1h.3l.2.1h0l-.2-.1h-.3l-.1.1-.2.1-.1.1h-.1l-.2.1h-.2l-.2-.4-.2-.1-.3.3-.1.1h-.2l-.1-.1h-.1l-.1-.1-.2-.4H256l-.1.1-.1.3-.2.3h-.2l-.1-.2-.2-.1h-.2l-.1.1v.5h-.4l-.3.1-.1.2v.3l-.2.3-.3.1-.2.3-.1.2h-.9l.4-1.9v-.4l-.1-.1h-.1l-.2.2-.1.3v.2l-.2.3-.1.3v.4l-.1.2-.2.1h-.3l-.1.1-.1.2v.3l-.3.1h-.1l-.2-.3-.2-.2-.2-.1H250v.3l.1.3v.2l-.2.1-.2-.1-.1-.1-.3-.3v-.1l-.3-.2h-.1l-.2.2-.1.1h.1v.2l.3.2.1.1v.2l-.2.1h-.5l-.1.1-.1.2-.2.1h-.1l-.2-.3-.3-.3-.1-.1h-.1l-.1.2v.2l-.3.4-.1.3-.1.2h-.1l-.2-.4-.1-.1h-.1l-.1.2v.2l.1.3v.2l-.1.1-.5-.2h-.3l-.2.2-.1.1h-.2l-.2-.1-.1-.5-.2-.1h-.1l-.3.5-.1.4-.1.3-.1.1H243l-.1.2v1.1l-.3.3v.1l-.1.2-.2.1h-.1l-.3-.1h-.2l-.1.3-.2.1-.1-.1-.4-.3-.3.1-.1.1-.1.1.1.2.6.3.1.2v.2l-.1.2-.3-.1-.3-.2-.3.1-.2.1-.1.1.1.3-.1.1-.1.1-.1-.1-.2-.2-.2-.3-.2-.1h-.2l-.5.4.3-.5-.1.2h-.2l-.3-.1h-.3l-.1.2-.1.3-.1.1h-.3l-.2.2v.2h.1l.2.3v.2l-.1.1-.5.3-.3.3-.1.2H236l-.2-.3h-.1l-.1.2-.2.3-.3.1-.2.2v.3l-.1.1h-.1l-.3-.2v-.1l.1-.2v-.1l-.2-.1h-.2l-.1.2-.1.1.1.2-.2.1.1.2-.1.1h-.1l-.2.1-.1.1-.5.4-.2-.2-.5.2-.1.2.1.3.5.2.3.3.4.3v.2l-.3.7v.3l-.1.2h-.2l-.1-.2-.1-.2-.1-.3-.1-.1-.3-.1h-.8l-.3-.2-.3.1-.3.5v.3l.3.6v.1l-.1.1-.3.1-.4.1-.4.1-.3.1-.2.3v.4l.2.3.2.2-.1.2-.2.2-.3.2-1,.8-.3.3-.2.3-.3.4h-1l-.3.2-.2.1-.1.3.1.6v.3l-.1.2-.3.3-.2.2-.6.2-.2.1-.2.2-.1.3.3.3-.2.3-.1.5h-.2l-.9.1-.2.1-.3.3h-.4l-.3.1-.2.5-.3.4-.3.5.1.3-.1.3-.6,1.1-.2.1h-.5l-.2.1-.1.4v.5l-.3.3-.3.2-.2.2-.3.2-.6.3-.3.5-.4.3-.3.3-.8,1-.6.5-.3.3-.1.1-.5.2h-.7l-.3.1-.6.5-.4.7v.2l.1.5-.1.5-.3.3-.8.4-.3.3-.3.3-.2.4-.3.3-.9.5-.4.2H208l-.2.2.2-.1.3.1.6.3.1.1-.1.5.1.1.1.2.3.1.3.1.1-.3h.4l.2.1h.3l.2.1-.1.1v.2h.5v-.2l.3-.2.1-.1.1.2.4-.2.1-.2.1.1.2.3.1.2h.1l.2-.2v-.1l.1-.1.1.1v.1l.1.1h.3l.2-.1.1-.3.3-.2h.1l.1-.1.1-.1-.1-.2v-.1l-.1-.1V455h.2v-.2l.2-.2.2-.3h.2l.2-.1V454h-.2v-.2l.3.1h.1l.1-.1h-.1l.1-.2.2-.2h.1v.1h-.1v.1h.2l.2.1h.2v-.2l.1-.1h.5l.1.2h.3l.3-.1.2.1.1.1v.1l.1-.1v.1l.3-.3h.2v.1h.5l.2.1.1.1h.2l.1.2.3.1v.1l-.1.3.1.2h.3l.3.1.2.1h.1v.2l.2.2.2-.1.1.1.2-.1v.1l.1.1.1-.1v.1l-.3.1v.1h.3l.1.2.2.2v.1h-.2l.2.2.2-.1.1.3-.2.2.1.1.2-.1h.1l.3-.1v.2l.3.3.1-.2.1.1v.3l-.2.1.1.2v.1h.3l.2.1v.2l.1.1.1.2h.1l.1-.2.2-.1.2.3.1.1-.1.1.2.2h.2l.1-.1.1.3h.2v.2h-.1v.1l.1.1v.2h.2v.1h-.1l.1.1h.3v-.1h.1l.1.1v.1l.2.1v.2h.1l.3.1.2-.1V460l.1.1v.2l.1.2v.1h.1l.1-.1.1.1.1.1-.1.1v.2h.1l.1-.2h.1l.2.1v.1h-.1v.1l.1.1.1.1h.3l.3.1-.2.2.1.1.2.1-.1.2.1.2.2.2h.2v.1l-.2.1v.2l.2.1.1.1h.1l-.1.2v.1h.1l.2-.1h.1l.1.3h.1l.2-.2h.1l.1.1v.3l.2.1h.2v.1h.2v.3l.2.1h-.1v.1l.1.1.1.3.1.1.1.1v.2l-.3.3v.3l.1.1-.2.3h.1v.3l.1.1-.1.1-.1.3v.6l.1.3v.1l.3.1V468l.2-.1.3.1.3.1.1-.1.1-.1h.2l.1-.1.2.2h.1v-.1h.2l.2-.3.1-.1.3.1v-.1l.2-.3v-.1h.4l.2-.1-.1-.2.3.1.1-.2v-.1h.3l-.1-.1.1-.1v-.3h.1l-.1-.1h.1l.1.2h.1l.1-.2.1.1v.1h.4v-.1l.1-.1-.1-.1.1-.2h.1l.1-.2-.2-.2v-.2h.1l-.2-.1.1-.2.1.1.1-.2.1-.1h.1l.1-.1h.2v.1h.1l.2-.1.1-.1h.1v.1h.1l.1.2v.2l.1.1.1.2.2.1v.1l.1-.1.3.1v.2l.1.1.2.1v.3l.1.1.3-.1.1.2h.2v.2h.1l.1.1v.1l-.1.1-.1.2.2.1h.2l.1.1v.1h.1l.2-.1h.2v.2l.2.1h.1v.3l-.1.1.1.1v-.1l.2.3h.2l-.1.2v.3h-3.2v.2h.1l.1.1h.1v.1h.1l.1-.1.2.1v.1l.1.1h-.1v.1l.2.1.1.1-.2.1v.1h.3l.2.2-.1.1.1.1v.4h.1v.1h.1l.7.1v.1h.2l.1.1-.1.1h.2v.1l.3.2h.2v.1h.2l.1.1.3.1.1.1h.2v-.2h.1l.1-.1.2-.3V471H242l.1-.1.2-.1.2.1.1.1v.1h.1l-.1.1.2.1.1.1-.1.1.1.1.3.1.1.1v.1l-.1.1v.1l.3.1v.1l.1.1h-.1v.2h.1l.1-.1.3.1h.1v-.1h.1l.1.1h-.1l.2.2.3.2-.1.1h.1l.3.3.1-.1h.3l.1-.1.2.1.3-.2.4.1.1.2h.2l.1-.1.1.1h.1l.2.2h1.1v.1l.1.1v.2l.3.1v.1h.1v.1h.1v-.2h.2l.1.1h.1l.1.1.3.5v.1l.2.1h.1l.1.3.1-.1.1.1v.1h-.1v.1h0v.1h-.1v.1h.1v.2h0l3.8,2.8.2.1v.1l.4.2.1.1v.1l.1.1v.1h.1v.1l.2-.2.1.1.1-.1h0v-.1h.1l.1-.1h.2v.1h.1v.1h.1l.1.1.4.1v.1h.1v.1h0v.1h-.1l.1.2h.2l.2.1h.3v.1l.2.1.1.2.3.1.1-.1h.2l-.1.1v.3h.1l.1.1-.1.1.1.1v.2l.1.1h.1l.1.1h.2v.1h.3l.1.1h.2v.2l.2.1-.1.1-.1-.1v.1h0l.2.1-.1.1-.1-.1h0l.2.2v.1l-.1.1h.2v.1h0v.1h.1v.1h.1l-.1.1.1.1h.1v.1l.1.1.1.2v.3l.1.2.1.1v.1l.2.1v.2h0l-.1.1h.1v.2l.1.2-.1.2h0l-.1.3.3.1.1.1v.2l.2.2h.1l.1.2.2.1.1.2h.2v.1l.2.1.1-.1.1.1.2-.1.3.1.1-.1.1.1v.1l.1.1v.1l.1.2v.1l.2.2.1.3h.1V488h.1v.1l.1.1.3.1.1-.2h.1l.2.3h.1l.2-.1h.1l.1.1.2.1.1.2.1.1h.1l.1-.2h.3l.1.3.3.2.4.1.1.1h.1l.1-.1.3-.1h.2l.2.1.3.2v-.1l.1-.2.1-.1.2-.1h.4l.1-.1.1-.1.1-.2.1-.7v-.2l.2-.1.1-.1.1-.1.2-.2.3-.1.5-.1h.5l.6-.2.6-.4.3-.3v-4.2l-.4-.2v.1h-1.4v-.1l-.2-.1.2.1h-.1v.1h-.1v.1l-.1.1-.1-.1v.1l-.2-.3.1-.1v-.1l-.1.1h-.1l-.1-.2v-.1l.1-.1.2.1-.2-.2h0v-.1l.2-.3.1-.1h-.1v-.1h.2l.1-.5.3-.3h.1l.1.1.1-.1v-.1l-.1-.1-.1.1h-.2l-.1.1v-.1h-.1l-.1.1.1-.1h.1v-.1l.1-.1h.2v.1l.1-.1h-.1v-.1h-.1v-.1h.1V479l.2.1.1.1.1-.1h.2l.1-.1.3.1.1-.1.1-.1.4-.1h.1l-.1.1v.1l-.4.6-.3.8-.1.4v.3l.2.3.6.9.4.9v.1l.1.4-.1.2-.1.5-.1.5-.1.2-.9,1.6-.2.4-.6.9-.3.3-.4.3-.4.1-.4-.1-.5-.2-.3-.3-.1-.1-.3-.3-.3-.3-.2-.3v-.2l.1-.2.1-.1v-.1l-.1.1-.6.6-.2.3-.2.1h-.2l-.2-.1-.2-.2v-.1h0l.1.1v-.1l-.2-.1h-.1l-.1.1-.2.4-.1.5.1.3v.1l-.1-.1.1.7v.2l-.1.1-.5.7-.4.4-.2.4-.1.1h-.2l-.5-.2-.2-.2v-.2h.1v-.1h0l-.2.2-.3.5-.3.3-.1.1-.1.2-.2.2h-.1l-.1-.1H262v-.3l.1-.2.1.1-.1-.2.1-.1h-.1l-.1.2-.1.3v.1h-.1l-.5,1.3.3,1.5.1.3.1.2v.3l-.1.7h0l-.1.2-.1-.1h.1v-.2l-.1.1v.3l-.2.3.1-.1.1.2v.1l-.1.1h-.2l-.1-.1v-.1l.1.1v-.2h.2l-.3-.1-.1-.2-.1.3v.2l-.1.2v.2l-.1.2-.1-.1h0l.1.1v.2h0v.3l.1.1-.1.1v.1h.1l1.1.1h0l.1.1v.2l.1.2v.1l.1.1.1.1h.6l1.2-.9.4-.2,1.2-.9,1.4-1.2,3.1-2.5.7-.7,1-1.1.4-.6.4-.6.2-.5.3-.6v-.1l.1-.1.5-.9h0l.5-1.3.2-.8v-.1l.2-.9.1-.4.6-1.5.3-.8.3-.6.2-.4.6-.8.4-.5.6-.5.4-.3.5-.3.2-.7.1-.3.2-.2v.1h0l.2-.1v-.1h.1v-.1l-.1-.2h-.5v-.1l.1.1.1-.1.1.1V477l-.2-.2v-.5l-.2-.1-.1-.1-.2-.1-.3-.1-.3-.2-.3-.3h-.1l-.1.1h.1v.1h-.1l-.2-.2-.1-.3.1-.1.2-.1h.1l.1.1v-.4l-.2-.2.1.1h0l.1.1v0h0v-.1l-.1-.1v-.1l-.1-.2v-.2l.3-.3.5-.3.1-.1.6-.2h.3l.1-.1v-.1l-.1-.1v-.1l.1-.1h0l.2-.1-.1-.1v-.1h0v-.3h0l-.1.3-.1.1-.3.1-.1-.1v-.1l-.1-.2v-.5h.1l-.1-.1v-.1h0l.3-.1h.1l.4.1h.1v.1h-.1v0h.1l-.2.2v.1l.2.5.1.2-.2-.1-.1.1.1.1v.1l.1.1h-.1v.1l-.1-.1h0v.1l.2.2h.1l.1-.3.2-.7v-.2h0v-.1l-.1-.6.1-.5.2-1.1.1-.3.2-.1h.2l-.1-.1v-.2l.1-.2.3-.1v-.1h-.1v-.1l.2-.1.3.1.2.1-.1-.1.1-.1v-.1l.1-.1h-.1l.2.2v.2l.1.1v-.1l.2-.1.1-.2.1-.1.2-.2.3-.2.3.1v.1l.1.1.1-.1h.1l-.1-.1.2.1.2-.2h.2l.5.1.6-.1h-.2l-.1-.1-.1-.4v-.6l.1-.3.1-.2.2-.1h.4l.2-.2h.2l1-.2.3-.1H287l-.1-.1-.3-.6-.2-.7v-.8l.2-.2.1-.1.4-.2h.1l.1.1.5.1.3-.1-.2-.2-.1-.3-.2-.7v-.3l.1-.6.1-.6.1-.1v-.1l.1-.2.2-.1h.4l.2.2v.4h0l.1.1v.2l.1.2.1.2.1.5-.1.2-.3-.1.6.2v.1l-.2.1h.1l.1-.1v-.1l-.2-.6v-.6l-.1-.9V459l.1-.4.4-.9.1-.3.1-.1.1-.2.2-.3.4-.2h.2l.4.1.1.2v.1l.1.1-.1.4.1-.4.1-.1v-.2l.1-.1v-.1l.2-.2h0l.1.1v-.3h-.1l-.2.1h-.1l-.3.2-.3.1-.2-.1-.2-.5v-.5l-.3.2-.1.2h-.1v-.2l-.1-.1h-.2l-.2-.1-.1-.3v-.3l.1-.1v.1l.2-.1h-.2l-.1-.1v-.1l.1-.1-.3.1v0H289l-.1-.1v-.3h.1v-.3l.1-.1H289v-.1h-.1l-.1-.1v-.3l.1-.2h.1l-.1-.1v-.2l.1-.2v-.1h-.1l.1-.2.1-.1h0V452l.1.1-.1-.2H289v-.3l.1-.1h.1v.1l.1.1.1-.1.1.1v.2l-.1.1h.1v-.1h.1l-.1.2-.3.1h-.1v.1l.3-.1.1-.1.1-.1h.1v.1h.2v.2l-.2.3h0v.2h-.1l-.1.1.1.1v.1h-.1l.2.1v.1l.2.1.1.1v.2l-.1.1.1.1v.1l-.1.1h-.1l-.1.1.1.1h.2l.3.1.1.1v.1h-.1l.1.1h.1l.1.1-.1.2h-.1v.1l.1-.1.4.1.1.1-.1.2h0l.1-.1.3.1v-.1l.1-.2h.2l.1.1v.1h.1l-.1-.2v0h.2l.2.1.1.1.1.2-.1.1.1.1h.1v-.1h.2l.2.1.1.1h0l.1.1-.1.3-.2.1h.1l-.1.1-.1.1h-.1v.1l-.2.1h.2l.1.1v.1h-.1v.1l-.2.1.1.1h.6l.5.2.6.3.4.1-.3-.1-.1-.1-.1-.4V457l.1-.4.1-.2.1-.1h.9l.6.2.3-.1h0v-.1h0l-.1.1v-.3l.1-.3.1-.1v.1h.1v.1l.1-.1.2.1h.2l.2.1h.6l.2-.1v-.1l-.1-.1-.1-.2.1-.7.2-.1.3.1.3-.1h0l.3.6h0l.1.1h.2l.1.3-.1.1v.2l-.1.1-.1.2.1.1v.4h-.3l-.2.4.1.2-.1.6-.1.1v.2l-.1.1h-.1l-.2-.1-.4-.3-.2-.3v-.2l.1-.2.2-.1.2.1.1-.1h.1l.1-.1h.1V457l-.3-.5-.1-.2v-.2l-.2-.3.1.3v.1l-.1.1.1.1-.1.1.1.1h-.1l-.1-.1h0v.1h-.1v-.1l-.4-.3-.1-.2-.2-.1v-.1h-.1v.1h-.1l-.1.1-.1.1.1.2.3.5.2,1,.1,1.4v.5l-.1.7-.1.5-.4.7-.1.2-.1.1-.8.3v.2l-.3.1-.2.1-.3.3-.4.2h-.4l-.3-.1v.2l.1.4.1.2v.6l-.2.2-.1.2-.1.1-.2.1H293l-.5.2-.3.2-.1.1-.2.1h-.1l-.4-.1-.2-.1-.1-.2h0v-.1l-.2.3v.7l.2,1,.1.6v.3l-.2.7-.1.3-.3.6-.5.6-.3.3-.4.2-.3.2-.5.2h-.1l-.5-.2-.1-.2v-.3l-.2.1-.2.2-.2.4-.1.3v.1l.1-.2.1-.2v.2l-.2.3.1.3.2.3v0l-.1-.2-.3-.2h0l.1.1-.1-.1h0l-.1-.3-.2.1-.3.2-.5.8-.6.7-.9.8-.4.1h-.3l-.3.1h-.7l-.5.1H282l.1.1h.4l.2.1h.1v-.1l.2.1h0v-.1h.1l-.1.1h-.1v.1h-.1l.1.2v.1l-.3.2-.3.1-.2.1h-.5l-.3-.1-.2-.1-.7-.4-.4-.1h-.4l-.2.1-.3-.3.1-.1H279v.1h0l.3.3-.2.1v.1h0l.1.1v.1l.2.2.1.1.1.1.1.1v.1l.3.1.1.1.1.2v.2l-.1.2H280l-.2.1-.1.1.2.3v.1l.1.3-.1.5-.1.1-.1.2-.3.3v.2l.1.1v.1l1.2-1.3.7-.7.5-.4.9-.6,1.3-.7,1.2-.5,1.2-.7.8-.4.9-.6,1-.7.9-.7.1-.1.1-.2.3-.4.2-.2.1-.1v-.1h0l.1-.1.7-.5,1-.9,1.2-1,.2-.2.6-.5.5-.5.1-.1.3-.4.2-.2.3-.4.1-.1.2-.3.8-1.2.1-.2,1.4-1.9,1.1-1.6.4-.6.8-1,.2-.2.4-.7.3-.6.3-.6.3-1,.1-.3.2-.3V455l.2-.4.2-.4.5-1.4.2-.4.2-.4.3-.8.5-1.2.2-.3.3-.6.3-.6.3-.7.3-.7.1-.2.2-.2.1-.2.2-.3,1.5-2.1.7-.8.3-.3v-.2l.3-.3h-.5v.3h.5l.9-1.2,1.6-1.9.1-.1,1-1.1.6-.6.6-.5.2-.1.3-.3,1.3-1,1.4-.8,1-.7,1.1-.6.7-.3.2-.1h.1l.1-.1.1.1.2-.1-.1-.1v-.2l.3-.2h.1l.1-.1-.1-.1.2-.2.2-.1.1-.2h-.1v-.1l.2-.2h.1l-.1-.1v-.1h-.3v.1l.1-.3.2-.3.1-.1h-.1V431l.1-.3.2-.3.3-.3.1-.1h-.1l-.1-.1.1-.3.3-.6.4-.3-.1-.1v.1l-.6.1v-.4l.1-.1v-.1h-.1v-.1l.2-.3v-.1l.1-.1.1-.1H323v-.1l.1-.1h.1v-.1h-.1V427l.1-.2v-.1l.1-.1.1-.2h.1V426l.1-.1v.1l.1-.1-.2-.2-.1.1-.2-.2v-.3l.1-.3.1-.1-.1-.1v-.1l.1-.1v-.2l.3-.2.1-.2h.1l.1-.2v-.2h-.2v.1l-.1-.1-.1-.2.1-.2.1-.1h.1v.1l.1-.1-.1-.3-.2-.2.1-.3-.2-.2.1-.1v.8l.1-.2-.1-.2-.1-.2.1-.2v-.2l-.1-.2v-.3l-.3-.1-.2-.1-.1-.1v-.1l.1.1.1-.1v-.2l.1-.2h-.1l.2-.1h.3v.2h.2l.1-.1.1-.1H324l.1-.1-.1-.2V420l-.3-.1-.2-.2.1-.2-.3-.2v-.2l-.2-.4.1-.1v-.3l.1-.2.1-.2.3-.1h.1l.1.1h.1l.1-.1h.1l.1-.2h-.1v-.1h.2l-.1-.1v-.1l.1-.3h.2v.1l.1.1v.1l.1-.2-.1-.2v-.2h.1v-.1l.1-.1h-.2l-.1-.1v-.3l-.1.1h-.1v.1h-.1v-.1h-.1l-.1.1h-.4v.1l-.2-.1-.1-.2-.2-.3v-.3l.1-.1v-.3h.2l.2-.2v.1l.2-.2.2-.1.1-.1.3-.1.2.1.2.2v.1l-.2.1v.1l.2-.1h.1l.1-.1h.1l.1-.1H325l-.1-.3.1-.2.1-.1.1-.1h.1l.1-.2-.1.1-.1-.2v.2h-.3l-.2-.3.2-.2-.1-.1-.1.2-.1-.1-.1.1v.1l-.1.2v.1l-.2.1h-.3l-.2-.2-.3-.3-.1-.3v-.2h.1v.1l.1-.1V413h.1l-.1-.2.1-.1.1-.3.1-.1v-.2h.1l-.1-.1.1-.1h-.1l-.1-.2v-.1h-.1v.1l-.1-.1-.1.1v.1h-.1l-.2-.1-.2-.3.1-.1h.1l-.1-.1.1-.1H323v-.3l.1-.2-.1.1-.2-.2.1-.1-.1-.2.1-.3.1-.5.1-.1h.3l.1-.3.1-.1.1-.2h-.2v-.1l-.1.2h-.3l-.1-.1-.1-.2-.2-.1v.2l-.2-.1-.1-.1-.1-.1-.1-.4.1-.3-.1-.2v1.4l.1-.7.2-.5.1-.1.1-.3.3-.5.2-.4.3-.3v-.2l.1-.3.3-.6.1-.4.3-.5.3-.6.1-.1.1-.2V403l-.1.1v.1l-.2-.1-.2-.3.1-.4-.1-.1-.1.1h-.5l-.2-.6v-.6l-.1-.1-.1-.2.2-.8v-.3h.1l-.1-.1.1-.1.2-.6.2-.3-.1-.1.1-.2v-.2l.2-.1.1-.1.1.1v-.2l.1-.5.7-1.1.4-.8.3-.4.4-.3.3-.1h.5l.1-.2.1-.1h.1v-.3h.1l.2-.4-.4-.3.3-.1.3-.2.3-.1h.2l.1-.1.1-.4.3-.3.3-.5.3-.3.4-.3.1-.1.9-.9.7-.5.3-.3.3-.2h.2V389h-.1v-.1l.1-.3.2-.2v-.3l-.1-.1-.1-.3v-.1h.3l.1-.3.1-.3.4-.5.9-.8,1.6-1.2.4-.3,1.1-.7.5-.3.6-.2.1-.2.4-.3v-.1h.1l1.8-1.1.3-.1v.6l.3-.3.2-.1v-.2l.1-.1.5-.3.6-.4.2-.2.3-.2.3-.1h.1v-.1l.1-.1.1.1v-.1h.1l-.1-.1.1-.1h-.1v-.1l-.1-.1-.1-.1.2-.2.1-.1v-.4l.8-.7.6-.3.9-.6.3-.1.2-.2,1-.5,1.3-.8,1.4-.6.5-.3.5-.1.3.1-.1.2h.1l.1-.2v.4h.1l-.1-.1v-.2h.2v-.1l-.1-.2h-.1l.1-.1h.1l.1.2v-.2h.4l.3.1.1.1.1.2-.2.1v.3h.2v.1l.1-.1.1-.1.1.1.1.1v-.1l.1-.1h.2l-.1-.1.1-.1.2-.2h.6l-.1.1.1.1v-.1l.1-.1h.1V374l.2-.1.1-.1.1-.1h-.1v.1l-.1.1-.1-.1v-.2l.3-.2h.1l.1-.1h-.7v-.1l.2-.1v-.2l.1-.2.1-.1-.3.1.1-.1h.1v-.2l.2-.1.5-.3.3-.1.1.1.1.1-.1.1h.1l.1-.1V372l.1-.1.3-.2.2.1.1-.2.2-.1.9-.3.7-.1h.4l.2.1v.1l.4-.1h.1v.1h.8l.1.2.1-.1h.3v.1l.1-.1h.2v.1h.3l-.1.2.1.1h.1l.3-.1.1-.1h.3l.1.1v.2h.2l.1.1v.2h.3v.2h.2v-.1h.1l.1-.1h.1l.2-.2.3.1v.1l.1-.1.1.1.2-.1.2-.1v-.2l.1.1v-.1l-.2-.3.2-.2v-.2h-.3l-.1-.3-.1-.3v-.4l.2-.3.2-.1h.1v.1h.1l.2-.1.1.1.2-.1v.1l.3-.3.3-.2.3-.1h.2l.1.1-.1.1h.3v.2l.1-.2.1.1h.1l.1-.2h.4v-.1l-.1-.1v-.2l-.2-.1h0l.2-.2.3-.1.1.1v.2h.4v-.2h-.1l.1-.2-.2-.1v-.2h.1l.1.1.2-.1v.1h.2l-.1.2.1-.1.2.1v.1h.1v.1l.1-.1v-.1h-.1l.1-.1-.3-.1.2-.1.1-.1h.1l-.1.2.1-.1h.2v.3l.1.1v-.2l.2-.2h-.1V368l.1-.3h.2l.1-.1h.2v-.2h-.1l-1.6.4-.1-.1-.1-.1v-.3l.1-.1.1-.1.1.1v.1l.2-.2h.3l.1-.1.2-.2h.1l.1.1.1-.1h0l.1-.1h.1l.1-.1v-.2l.1-.1h.3l.1-.1.1-.2h.3l.1.2-.1.1v.3l.3-.2h.2l.3.1-.1.2-.1.1h.3l.1-.1h.2l.1-.1v-.1h.2l.1.1.4-.1h.3l-.1-.1.1-.1h.1v-.1l.3-.1.2.1h.1V366l.1.1.2.1-.1-.1h.2l.1-.1.1-.1.1.1v.2l.1-.1h.1v.1h.2v.3l.1-.1h.1l.1-.1.3-.3v-.1l.1-.3.1.1.1-.1.1-.2h.3l.1.2.1-.1v-.1h-.1l-.1-.1-.3-.2-.2.1v-.1l-.1.1-.3-.1-.1-.1.1-.2v-.1l.2-.2.1-.1-1.2.4-.3.1v.1l-.3.2-.2.3-.1.1h-.1v.1l.1.1-.3-.1v-.1l.3-.2.2-.4.2-.2-.3.1h-.2l-.1.2h-.1V365l-.1.1h-.2l.2-.1h-.1l.1-.1.1-.1.1.1.2-.2h-.1l-.1-.2-.1-.1v.1h-.1l.1.1h-.1l-.1.1h-.1v.1h-.3l.1-.1h-.1l.1-.1-.1-.1-.1-.1v-.2h.1l.1-.1h-.1V364l.2-.1-.1-.1v-.1h.1l.1-.2h-.1v-.2h.1l.1-.1-.2-.1v-.3l.1-.1h.1l-.1-.1.1-.1v.3h.1v-.1l.2-.2.1.1v-.1l.1.1.1-.2h.1v.1l.3-.1h.1v.1l.2-.1h.1v.1l-.1.2.2-.1.1-.1v-.1h.1l.2-.1h.1l.3-.2h.3l.1.1.2-.2.1-.2h.1l.1.1v-.1h.1v.2l.1-.1.2.2.2-.1h-.2l-.1-.1.1-.2h.2v.1h-.2l.1-.1v-.1h.1l-.1-.1v-.2h.1v-.1l.1.1v-.2h.1V361l.1.2.2-.1.2.2-.1.1.1.1v-.1h.1v-.1h.1l.1-.1.2-.1-.3-.1v.1l-.1-.2h.2l-.1-.1h.1l-.1-.1h.1l.1.1.1-.1h.1l.1.1.1-.1v.2h.1l-.1.1-.1.1v.1h-.1l.1.1.2-.1.1.1.2-.1v.1h-.1l-.1.2v.1l-.1.1-.1-.1v.2h-.9l-.1.1-.1.1v.2h.1v.2l.2-.2.1.1v-.1h.1v-.1l.1-.1h.2v-.1l.1.1-.1.2.1.1h.1v-.1l.1-.1.1.1v-.1l.1-.1.1-.1.1.1.1-.2v.1h.1l.2.2h.1v.1l-.2.1-.1.3v.1l.1.1.1-.1.4-.2h.1l-.1.2h.2v-.1l.1.1.1-.1v-.1h-.1l.2-.1h.1l.1.1v-.1h.1l.3-.2.3-.2v-.2h.2l.1-.3-.1-.1v-.1l.1-.1.2-.1.2-.1.1.1-.1.1.1.1-.2.3.1.1.2-.1.1-.3h.1v-.1l.1-.1.2-.1h.1l.1-.1h.3l.2-.1h.6l.3-.1h.1l.1-.1.1-.1.2-.1h.3l.1.1-.1.1-.2.1.1.1h.2l.2-.1-.1-.2.1.1v.1l.2-.1h.1l.2.1h.1v.1l.1.1.1-.1v.1l.4.3.1.2v.1l.1-.1.2.3h.1l.1.1v-.1l.2-.1.1.1.2.2h.2v.1h.2l.1.1.3.1.1.2h.1l.1.1.1.1.1.1v-.1h.1v.1l-.1.2v.1h.2v-.2l.2-.1.3-.1.1-.1.2-.1h.3l.1-.1.3-.1,1.1-.1h.8l-.2-.1-.1-.1h-1.5v-.1h-.6l.1-.1.1.1v-.1h.1l-.2-.1h-.4l.1.1-.1.1v-.1l-.3.1v-.1h-.1l.1-.1.1-.1.1.1.2-.1h.3l.3.1.1.1h.2v.1l.2.1.1.1.1.1h.1V362l.2-.1h.3l.3-.2h.5l-.1-.1v-.1l.3-.2h.1v-.1h-.2l.2-.1-.1-.1h-.1l-.1.2-.1-.1V361h.2l-.1-.1.1-.2-.1-.1h.2v-.2h-.2l-.1-.1v-.1h-.2l-.2.1-.1-.1.2-.2-.1-.1-.2.1h-.1l-.1-.1-.1.1v-.2l-.1-.3-.1-.1-.2-.2-.1-.1V359l-.1.1-.1-.1v-.1l.2-.3H391l.1-.1v-.1l.3-.2.2-.1-.1-.1h.1l.1-.1h.2l.1-.1v-.1l.4-.1h.2v-.1l.2-.1.1.1.2.1.1-.1.1-.1v-.1l.1-.1.1.1-.1-.2h.3l.1-.1.3.1h.1l.1.1.1-.1v.1h.2l-.1.1.1.1-.1.1v.1l.1.1v.3l-.4.3-.1.1v.1l-.2.2.1.1.2.1-.3.2-.2.2v.1l.1.1-.2.2-.1.2-.1.2-.1-.1h-.1l-.1.1.2.1v.1l-.2.1.1.2.1-.1h.1l.1.1h.2v.2l-.1.1h-.2l.1-.1h-.1l-.1-.1v.2l-.2.1h.3v.1l.1.1h.3l.3.1.2.2h.1l.1.1.1-.1h.2l.2-.1h.5l.4.1.6-.1.8-.1,1.2-.1.3.1h.2v-.2l.1-.1.5-.1h1.6l.3.1.2-.1h1.5l1,.1,2.7.2.4.2.2.1-.1.1.3.1.1.2v-.3h-.1v-.1l.1-.1h-.1l.1-.1.1-.1v-.1l-.1.1-.1.1-.1-.1v-.1h-.1l-.1-.2v-.2l.1-.3.1-.1.2-.2h.1v.1l.1-.1h.1l.1-.1v-.4l.2-.3.3-.1v-.1l.2.1v-.3l.1-.2.2-.1.1.1h.1l.1-.1.1.1-.1-.2h.1v.1l.1-.2h.1l.1-.1-.2-.1.1-.1-.1-.1v.1l-.1-.1v.2l-.1.1-.2-.1v.1h-.2l.1.1-.1.1h-.2l-.2-.2-.2-.3v-.1h-.3l-.1-.2-.2-.7v-.7l.1-.2.2-.5.1-.2.2-.2.2-.1.1.2h.1l.1-.2.1-.1.2-.3.2-.1h.2l.1-.1h.1l.1-.3v.6l.2-.2.3-.3.3-.2h.1l.3-.2-.1-.1.1-.1h-.1v-.2l.1-.1.2-.2h.2l.6-.5.9-.4.3-.2.3-.1.5-.3.7-.3.7-.2,1.7-.4.6-.3.5-.2.6-.3.3-.3.6-.4.4-.3.5-.3.2-.1.1-.2.2-.3v-.3l-.1-.4-.3-1.5-.3-.9v-.5l.2-.9-.1-.1h-.2l-.2-.1-.1-.2-.3-.5v.1l.1-.3.3-.3.1-.1.2-.2.3-.3.1-.3.2-.1h.1l.2-.4h.1l-.1-.3.1-.3v-.8l.1-.3.3-.6.2-.3.3-.2.1-.2.3-.2.3-1.1.2-.1.1-.3V336h.1l-.1-.2h0l.1-.3v-.1l.1-.2.3-.3v-.2l.2-.1v-.3l.2-.2.1-.1.2-.1h.1l-.1-.1h.1v.1h.1l.2-.1h.1l.1-.1h.1v-.1h.1v-.1h.1l.2-.1-.1-.1.1-.1v-.1h.1l-.1.2.3.2.1.1-.1.1v.2h.1v-.1h.1l.2-.3.2-.1.1.1.1-.1h-.1l.1-.2v-.1l.1-.2.3-.3h.3v-.1h.1v.3h.1l-.1-.1.2-.3.1-.3h.1V332l.1-.1-.2.1-.2-.1-.1.1-.1.2h.2l-.1.1-.2-.1.1-.1.1-.3v.1h.4l.1-.1.1-.1.1.1v.1h.1l.1-.2-.1.1h0v-.1h.1l-.1-.1.1-.1v-.1l.2.1h.1l-.1.1h.2v.1l.1-.1.1-.2.3-.3v-.3l.3-.5.1-.3h.1v-.1l.2-.4.3-.7v-.1l.1-.3.3-.4.1-.1.1-.3h.1v-.2l-.2.1v-.2h.1v-.2h-.2l.1-.1-.1-.1.1-.2.2-.1h.2l.1.2v.2l.2-.1v-.1l.1-.3.3-.3.2-.3.1-.2v.1l.1-.1v-.3l.2-.6v-.4l-.3-.3.1-.2.3-.1.1-.3v-.1l.1-.2v-.1l.1-.2.1-.1-.1-.1v-.1l.1-.2.2-.1.3-.2v-.2l.1-.1v-.1l.1-.1.1-.2.2-.3.1-.3v-.2l.1-.2.3-.3.5-.5.6-.5.3-.2.5-.3.4-.2h.3l.2-.1V318l.4-.9.5-1.2.4-1.3.1-.8-.1-.8-2.1-.2-.1-.9-.3-1.9-.2-1.4v-.7l.1-1,.1-.8.2-.5-.1-.2v-1.1l.2-.4.2-.6v-.1l.4-.8.2-.3-.1-.1.1-.3v-.1l.3-.5v-.2l.6-1.1.4-.6-.1.1-.1-.2.1-.1-.2.1-.1-.2h.1v.1h.3l.1.1.3-.7.3-.6.3-.3.3-.3.6-.3.3-.1h.1l.2-.2.2-.1.1.1h.2l.7-.3.1-.1-.1-.1v-.2l.1-.2.7-.7.1-.2.3-.2-.1-.3.6-.5.1-.1h-.1l-.6-.8-.1-.5v-.2l.1-.1-.1-.6v-.8l-.2-.6-.1-.6v-.3l-.1-.7.1-.4V287l.1-.3.1-.2.2-.1.1-.2v-.3l.1-.2.1-.1-.1-.1V285l.3-.4v-.5l.3-.5.2-.1-.2-.2-.2-.3-.1-.8.1-.5v-.1h.1l.1-.1v-.2l.1-.2.1-.1h.1v-.2l.2-.2-.1-.1.1-.3v-.5l.1-.4V279l.3-.5v-.2l.1-.1v-.3l-.1.1v-.1l.1-.1h0l.3-.4.2-.2.2-.1v-.3l.1-.2v-.1H446l-.1-.1-.1-.3.2-.4-.2.3v-.1l.1-.3h.1v-.1l.3-.3.2-.1.1-.3.1-.1.1-.3.1-.1-.1-.3v-.5l.1-.1.2-.5.3-.6.3-1.2.3-.4.1-.2.1-.1v-.1l-.2-.1v-.1l.1-.1v-.1l-.1-.1-.3-.7-.1-.1v-.1l-.2-.6h-.1l-.2-.7-.1-.8V266l-.1-.7-.1-.1v-.1l-.3-.9-.2-1.1-.1-.1.1-.1-.1-.5v-3.3l-.2-.5v.2l-.1-.3-.1-.5v-1h-.1v.1h-.1l.1-.1v-.3h-.1l-.2-.1-.2-.3v-1.4l.2-.8.1-.2.1-.3v-.4l.2-.3.1-.7.2-.7v-.3l.2-.3v-.1l.1-.1v-.4l-.1-.1v.1l-.1-.3.1-.5v-.4l.1-.3.1-.4.3-.8v-.2l.1-.3.1-.4v-.2l.2-.8v-.4l-.1-.3-.2-.1v-.1l-.3-.4-.2-.3-.2-.5v-.5l.1-.3.3-.3.1-.1v-.2l-.1-.1h.3l.2-.2h.2l.1.2v.1l.3-.3.1-.2v.1l-.1.1h-.2v-.3l.1-.1-.2-.1v-.2h-.7l-.1-.1v-.2l.1-.4v-.2l.3-.2V240l.1-.1h-.2v-.2l.2.1.2-.3-.1-.1.1-.1-.1-.2-.1-.1v-.4H447l.1-.1-.1-.2-.1-.1-.3.3-.1-.1-.2-.3-.1-.3.1-.7V237l.2-.6.2-.3.2-.1h.2v-.1l.3-.2.3-.1.1-.2.2-.1.3-.2.2-.1.2-.1h-.1l.2-.1.3-.1v-.1l.2-.3.1-.1h.1l.1-.1.1-.2.2-.2h.2l.3-.3h.1l.1-.1.2-.3.1-.1.2-.3h.1v-.1l.2-.3-.2-.3.7-.2.1.2-.1.3-.3.6.6.1.4.1v-.1l.2.1h.2l.3-.1.3-.3.4-.3.2-.1h.5l.3-.3.3-.4.3-.3h.2l.2-.3.2-.3.3-.3.3-.3.3-.2.6-.8.4-.4.2-.3.2-.1.1-.2h.2v-.4l.2-.2.2-.2.2-.1.3-.4.2-.3.2-.3.2-.3.3-.4.3-.4h.1l.1-.2v-.1l.1-.1.5-.8.7-.9.3-.3.8-1.3.1-.2.1-.3.2-.3.3-.4.3-.5.1-.4.7-1.4.6-1.4.3-.6,1-1.9.3-.5.5-.5.1-.2-.1-.1h.3v-.2l.1-.1.3-1,.4-.8.7-.8.7-.8-.1-.1.3-.7,1-1.3.3-.4v-.2l.4-.6.3-.5.3-.4,1.1-1.1.1-.1.4-.4,1-.7.6-.3.3-.3.4-.3.5-.3,1-.4.8-.2.4-.1.1.1v-.4l.1.1.1-.1.1-.1.5-1.1.3-.5h.1l.1-.1v-.1l-.1-.1v-.5l.1-.2.3-.3.4-.3.3-.4.3-.2.2-.3.2-.2.2-.1.2.1v-.1l.2-.2.1-.2.3-.4.2-.2.2.1.2-.2v-.2l.2-.2.3-.6.3-.5.2-.3.3-.5.5-.4.2-.4.2-.3.3-.4.5-.6-.1.1.1-.2.3-.3h.1l.3-.4.3-.1h.1v.1h-.1l.1.1.2-.3h.2v-.5l.2-.3.1-.2.2-.2.2-.3h.1l.2-.2.2-.1v-.1l.2-.2h.2v-.3l.3-.3.1-.2.3-.3h.1v-.2h.2l.2-.3.1-.4.1-.2.3-.3.1-.1.3-.1v-.1l.1-.1.3-.1h-.1l.1-.1.2-.1.2-.3.2-.1.3-.3.1-.3v-.1l.2-.1.1-.2v-.1l.1-.1.2-.1.1-.2v-.4h.1l.1-.1v-.3l.2-.1V181l.2-.2v-.2l.2-.2.1-.1h-.1l.1-.1V180l.1-.3.1-.1.2-.3.3-.3.1-.1.1-.3.1-.3.2-.2V178l.2-.5.2-.1v-.1l-.1-.3v-.3l.3-.3h.1l.1-.2h-.1v3.6l.3-.3-.1-.2.1-.2.1-.1v-.1l-.1-.2.1-.2.2-.1-.1-.3.1-.1.3-.4v-.3l.1-.1.1-.2.1-.1.1-.1.1.1h.1v-.3l.1-.1-.1-.2v-.2l.1-.1v-.3l.1-.2.1-.2.1-.3.3-.8-.2-.2.1-.1h.2l.1-.1-.1-.1h-.1v-.1l.2-.4-.2-.1V173l.1-.2.1-.3.3-.4h-2.4l.1-.3v-.3l.1-.3.3-.9.3-.6v-.2l.3-.3v.6l.1-.3.1-.6v-.4l-.2-.2v-.4h-.1v-.1h0l-.1-.2v-.1h.2v-.3l.2-.6-.1-.3-.1-.2.1-.2h-.2l-.1-.1.1-.1h.1l.2-.5.2-.3v-.2l-.2-.2v-.2l-.1-.1-.1-.2-.1-.2h.2l-.1-.1h.1l.1-.3.2-.2-.1-.3.1-.1.1-.1-.1-.1v-.9l.1-.3.1-.2-.1-.2.1-.3-.1-.2.1-.2-.1-.1v.3l-.1-.3.1-.3.1-.2V159Zm-134.4-70.6Zm-.2-1,.1-.2-.1.2Zm.1-1.6h0l-.1.2.1-.2h0Zm-55.4,347.5h0l-.2-.3-.2-.1h-.1v-.1h.1l.2.1.1.3.1.1.1-.1-.1.1Zm-1.7,1.7v-.1h0v.1Zm-3.1,6.6h0l-.1.1.1-.1h0v-.1h0V441h-.1v-.1h.1v.7Zm-.7,0Zm-8.1-13.5h0l-.1-.2h0ZM289,422Zm-4-2.6Zm-9.7-3h0l-.2-.1v.1h0v-.1l.2.1Zm-8.8-2h0l.1-.2-.1.2Zm-2.8.3h0l-.2-.1h0l.2.1Zm44.2,17.3-.2.3-.1-.1h0l.1.1.2-.3h0l.2.1Zm-.5.1h0v-.3l-.2-.1h.1l.1.1v.3h0l.3-.1-.1.1Zm-.8,6.3h0l-.2-.1-.2-.1v-.3h0v.2l.2.1.1.1.1.1Zm-.2.5h0l-.3.1.1-.1Zm-1,2.1h0v0Zm0-9.2-.1.2-.1.1h-.4l-.2-.1-.2.2-.2-.2H304v-.1h.2l.2.2.2-.2.2.1h.4l.1-.1.1-.1.1-.1.2.1.2-.1v-.1l.1-.1h.1l.1.2h.2l.1.2.1.2.1-.1h0l-.2.1-.1-.2-.1-.2h-.2l-.1-.2h-.1l-.1.1v.1l-.2.1Zm-.9,9.1h0l.2-.2h0v.1l-.2.1Zm4.6-8.4-.1-.1h0l.1.1Zm-.2-.2Zm-.4-.1h-.2l-.1-.1h-.1l-.1-.3h0l.1.3h.1l.1.1Zm.2-.4Zm-.3.3h0V432h0Zm-4.1-.7h-.2v-.1Zm4.2.5h0l.1-.1-.1.1Zm-4.8-.2.1-.2.2-.1v-.1l.1-.1v.1l-.1.1v.1l-.2.1-.1.1Zm2.8,5.4h0l-.2.1v-.1Zm-.3-.1h0l.2-.1v.1Zm0-.2Zm0-1h0v.2h.1v.1h-.1v-.3Zm0-.1Zm0,.5v.3h.1v.1h-.1v-.4Zm0,.5.2-.1v.1h-.2Zm-.1,1h.3v.1l-.3-.1Zm.1-.2Zm0,1.6Zm0,.2Zm0-.5Zm.4-3.4Zm0-3.7h0l-.1.1h0l.1-.1h0l.3.1h.1l.1-.1h.1v.1h-.1l-.1.1h-.1Zm.4-.2h.2l.1-.1.2.1h-.1l-.1-.1-.1.1Zm1.7.8h0l-.1-.1.1.1.3-.1v.1Zm-41.5-18.1Zm3.3,1.6Zm5.9.6h.5l.1-.1.3.2h0l-.3-.2-.1.1h-.5Zm25.9,15.1h0l.2-.2v.1Zm1.4.7.2-.1v.1Zm.3,9.1h-.3l.1-.1.2.1Zm.3.3h0l.1-.2h0l-.1.2Zm.6-.6Zm.6-.6h0l.1.2v.1h0l-.1-.3Zm.4-.1Zm.2-.3Zm.1-.4Zm.1-.1H306l-.3.1h-.3l.2-.1h.1l.3-.1h.1l.2.1v-.2h.1l-.1.2Zm.6-4.5Zm.3.1h0l-.1.2h0Zm-.1.3Zm.1-.1Zm.1-.2v-.2h0v.2Zm.6-.4h-.1v-.2h-.1v-.1h.1v.2l.1.1Zm.2-.5Zm0-.1Zm.7-.3h0v.1h0Zm63.7-343Zm-4.3-3.9v.2h-.1Zm-.3.5Zm-3.6.3h0l.1-.3.1-.1.1.1h-.1l-.2.3Zm-2.3-3Zm-2.2.5h0l.2.2-.2-.2Zm-.5-.6-.1.2.1-.2-.2-.2Zm-.6-.7.2-.1h.1l-.3.1-.1.2.2.1.1.1h-.2l-.1-.2Zm-.3,0v0Zm-.5-.4h0v.3l-.1-.1Zm-98.8,331.8Zm2.1.3h-.3l-.2-.1-.3-.3h-.3l-.3.2h-.4l-.2.4h-.1l-.1-.1h0l.1.1h.1l.2-.4h.4l.3-.2h.3l.3.3.2.1h.3Zm6.6.3-.2-.1-.1-.1h-.1v-.3h0v.2h.1l.1.1.2.2Zm.2-.8h0l-.2.3h0l.2-.3h0l.3.1h0Zm.7.4-.3.1h-.1l-.1-.1h0l.1.1h.1l.3-.1.2-.1h0Zm.5-.3-.3.2h0l.3-.2h0l.2.1h0l-.2-.1Zm4.6,1.3-.4-.1-.2-.3-.2.1h-.3l-.1.1-.3.1-.1.1h-.1l-.2-.1-.2-.3h0l-.1.1v.3l-.2.2h-.1l-.1-.1v-.1l-.1-.3-.1-.2h-.1l-.1.1-.2.2-.1.1v-.1l-.2-.1h0l.2.1v.1l.1-.1.2-.2.1-.1h.1l.1.2.1.3v.1l.1.1h.1l.2-.2v-.3l.1-.1h.2l.2.3.2.1h.1l.1-.1.3-.1.1-.1h.4l.2-.1.2.3.1.1h0Zm.7-.7-.4.3h0l.4-.3h.2v.1h0v-.1Zm.6,1h0l-.2-.1-.1-.1-.3-.3V416h0v.3l.3.3.1.1.2.1Zm1.2.3-.2-.2-.2-.1-.2-.2h0l-.2.2-.2.1-.1-.3h0l.1.3.2-.1.2-.2h.1l.2.2.2.1.1.2Zm.1,0Zm.9.1-.2-.3H277l-.3-.1h0l.3.1h.1l.2.3Zm.6-.6-.2.2-.1.3-.1.2-.1.1h0l.1-.1.1-.2.1-.3.2-.2h0l.2-.1.1.1h0l-.1-.1-.2.1Zm.8.3h0l-.3.1-.2.1h0l.2-.1.3-.1h0l.2.1h0Zm1,.6h-.2l-.3-.1-.2.1h-.2l-.1-.1h0l.1.1h.2l.2-.1.3.1h.2l.3-.2h0Zm.2.1Zm.1.1h0l.2.1.1.1.2-.1h.3l.2.1v.2h0v-.2l-.3-.1h-.3l-.2.1-.1-.1Zm.5.6h-.2l-.2-.1h0l.2.1h.5l.3.3h0l-.3-.3Zm1.3,1.4h-.2l-.2-.3V419l-.1-.1h-.1l-.2.1-.2.1h-.1l-.1-.1h0l.1.1h.2l.2-.1.2-.1h.1l.1.1v.4l.2.3Zm0-.5h0l-.1.2h0l.1-.2Zm1.1.6h-.2l-.3-.3-.2.1-.2.1-.1-.1h0l.1.1.2-.1.2-.1.3.3Zm0-.5h-.2v.2h0v-.2h.2l.4-.1h0Zm1.1-.1h0l-.2.3-.1.1h0l-.2-.2-.2-.1h0l.2.1.2.2h.1l.1-.1.1-.3h.2l.2.1h0l-.2-.1Zm.6.5h-.3l-.1-.2h0l.1.2h.3l.1-.1-.1.1Zm.1-.4Zm.6.5-.2.3h-.2l-.1-.1h0l.1.1h.2l.2-.3h0Zm.5.7h0l-.2-.1-.1-.2h0l.1.2.2.1h0l.1-.2h0Zm0-.2Zm1,.1-.1-.2h-.3l-.3.1-.2-.1h0l.2.1.3-.1h.3l.1.2Zm.2.4h0l-.1-.1.1.1h0l.2.1h0l-.2-.1Zm.1.1h0l.3.2h0Zm.9.1-.2.1-.1.1-.1.1-.1.2h0l.1-.2.1-.1.1-.1.2-.1.2.1v.1h0v-.1Zm.9.7-.2-.1-.3.2-.2-.2-.2-.1h0l.2.1.2.2.3-.2.2.1Zm.5.6-.2.1-.3-.1h0l.3.1.2-.1.1.1h0Zm1.5,1-.3-.2-.2-.2h-.3l-.2-.1-.1.1-.1.1-.1-.1.1-.1-.3-.2h0l.3.2.1.2.1.1.1-.1.1-.1.2.1h.3l.2.2.1.1h0Zm.3.1h0l.1.2h0Zm.5.2h0l-.3.1h0l.3-.1h0l.2.1.1.1h0l-.1-.1Zm.3.6h0l-.1-.1.1.1h0Zm1.3,1.1-.1-.2-.1-.1-.1.1-.1.3h-.2v-.1l-.1-.1v-.4l-.3-.2-.2-.2h0l.2.2.3.2v.4l.1.1v.1h.2l.1-.3.1-.1.1.1.1.2.3.1h.2l.1.1h0l-.1-.1h-.2Zm.5.5h0l.2.1h0Zm.1.2h.4l.2.2h0l-.2-.2Zm.2.9h.3l.1.1.1.2h0l-.1-.2-.1-.1Zm.9.5-.3.3h-.1l-.1-.1h0l.1.1h.2l.2-.3h0l.3.2h0l-.3-.2Zm.3.3h0l.3-.1v.1h0v-.1Zm1.4,1.6h-.2l-.4-.3H296v-.5l-.1-.1v-.1l-.1-.1-.1.2-.2-.1v-.1h0l.2.1.1-.2.1.1v.1l.1.1v.6h.1l.4.3Zm.3.3-.2-.1h0l.2.1h0l.3.3h0l-.3-.3Zm.4.7-.3-.1h0l.3.1.3.2h0Zm1.4,1h0l-.2-.1-.2-.1-.2-.3-.2-.2h-.1l-.2.2h0l-.1-.2h0l.1.1h.2l.2-.2h.1l.2.2.2.3.2.1v.2Zm2.3,0h0l-.2.3h-.2l-.1-.2h-.5l-.1-.1-.2-.2h-.4l-.3-.1h-.2v-.1h.2l.3.1h.5l.2.2.1.1h.5l.1.2h.2l.1-.2h.2v.1l-.2-.1Zm.2.5Zm.4-.4h-.2l-.1.1h-.1v-.1h.1l.1-.1.2.1h.2l.1.1v.1l-.1-.1Zm.7.3-.3.1-.2-.1h-.1v-.1h.1l.2.1Zm1.2,10.2.1-.1h0v.1h.1v.1h-.1v-.1Zm1.1.9h0l-.2-.2h-.2l-.1-.1h.1l-.2-.1v-.1H304v-.1l-.1.1v.2h-.1v-.1l-.1-.1v-.1h0l.1-.1v.1l.1.1v.1h.1v-.2l.1-.1v.1h.1v.1l.2.1h-.1l.1.1h.2l.1.1v.2h.3v.1h0l-.3-.1Zm.3.3h0l.2.1Zm2.4-1.5h-.2l-.3-.1-.2-.1h-.2l-.1-.1h-.2v-.1H306l-.1.1-.1.2-.2.1-.2.1-.1-.1-.3.2-.1.1h-.3v.1h-.1l-.3.1h-.4V442h.4l.3-.1h.1v-.1h.3l.1-.1.3-.2.1.1.2-.1.2-.1.1-.2.1-.1h.2v.1h.2l.1.1h.2l.2.1.3.1.2.1h0l.1.2h.1l.1.1h-.2v-.1Zm.1.3h0l.2.1-.1.1-.1-.2Zm1.2.7h0l-.3-.2h-.3v-.1l-.1.1v-.1l-.1-.1h-.3v-.1h.3l.1.1v.1l.1-.1v.1h.3l.3.3h0l.2-.2.1.1v.1l.1.1h.1l-.1.1-.1-.1v-.1l-.1-.1Zm.7-8.7Zm.2-.2-.1-.1h-.2v-.1h.2l.1.2Zm116.5-101.6Z"/><path class="cls-1" d="M289.66,452.86Z"/><path class="cls-1" d="M291.16,457.46Z"/><polygon class="cls-1" points="270.46 479.66 270.46 479.66 270.56 479.66 270.46 479.66"/><polygon class="cls-1" points="290.96 457.76 290.96 457.76 291.06 457.86 291.16 457.46 291.06 457.46 290.96 457.76"/><text class="cls-2" transform="translate(204.32 215.67)">LGPD</text></g></g></svg>