<svg xmlns="http://www.w3.org/2000/svg" width="503.55" height="107.5" viewBox="0 0 503.55 107.5">
  <g id="microsoft" transform="translate(-6 -5.5)">
    <path id="Path_50" data-name="Path 50" d="M656.656,71.807V62.99H645.648V49.206l-.39.1-10.326,3.166-.195.049V62.942H618.42v-5.8c0-2.728.584-4.773,1.8-6.137a6.29,6.29,0,0,1,5.017-2.046,12.3,12.3,0,0,1,4.774,1.072l.487.195V40.877l-.195-.049A18.7,18.7,0,0,0,624.216,40a17.571,17.571,0,0,0-8.67,2.094,14.727,14.727,0,0,0-5.943,5.894,17.383,17.383,0,0,0-2.094,8.621V62.99h-7.7v8.865h7.647v37.311h11.008V71.855h16.317V95.528c0,9.742,4.627,14.71,13.687,14.71a22.589,22.589,0,0,0,4.676-.536,12.18,12.18,0,0,0,3.41-1.072l.146-.1V99.619l-.438.292a8.275,8.275,0,0,1-2.192.974,8.687,8.687,0,0,1-2.192.39,5.9,5.9,0,0,1-4.676-1.7c-.974-1.12-1.51-3.117-1.51-5.942V71.855h10.959Zm-81.392,29.469q-5.991,0-9.352-3.945t-3.361-11.106c0-4.871,1.12-8.719,3.361-11.4a11.591,11.591,0,0,1,9.255-3.994,11.249,11.249,0,0,1,9.011,3.8c2.192,2.533,3.312,6.332,3.312,11.3,0,5.017-1.023,8.865-3.117,11.447-2,2.582-5.066,3.9-9.109,3.9m.487-39.405c-7.6,0-13.638,2.241-17.974,6.624-4.286,4.384-6.478,10.472-6.478,18.12,0,7.209,2.143,13.054,6.332,17.292s9.937,6.381,17,6.381c7.355,0,13.3-2.241,17.632-6.722,4.286-4.432,6.478-10.472,6.478-17.925,0-7.355-2.046-13.2-6.089-17.389-4.043-4.238-9.693-6.381-16.9-6.381m-42.182,0c-5.163,0-9.449,1.315-12.713,3.945a12.527,12.527,0,0,0-4.968,10.229,14.233,14.233,0,0,0,1.072,5.748,11.58,11.58,0,0,0,3.263,4.286,29.419,29.419,0,0,0,6.673,3.751,49.654,49.654,0,0,1,5.553,2.582,7.7,7.7,0,0,1,2.435,2,4.562,4.562,0,0,1,.682,2.63c0,3.117-2.338,4.627-7.111,4.627a19.449,19.449,0,0,1-5.991-1.12,22.105,22.105,0,0,1-6.137-3.117l-.438-.341v10.57l.146.1a26.875,26.875,0,0,0,5.845,1.8,30.33,30.33,0,0,0,6.235.731c5.6,0,10.131-1.315,13.443-3.945a12.833,12.833,0,0,0,5.017-10.472,12.221,12.221,0,0,0-2.679-7.94c-1.754-2.143-4.871-4.092-9.157-5.845-3.41-1.364-5.6-2.533-6.527-3.41a4.705,4.705,0,0,1-1.315-3.556,3.976,3.976,0,0,1,1.656-3.312,7.511,7.511,0,0,1,4.676-1.315,18.352,18.352,0,0,1,5.553.877,18.729,18.729,0,0,1,4.871,2.241l.438.292V63.867l-.195-.1a22.554,22.554,0,0,0-4.92-1.364,32.652,32.652,0,0,0-5.407-.536m-46.322,39.405q-5.991,0-9.352-3.945t-3.361-11.106c0-4.871,1.12-8.719,3.361-11.4a11.456,11.456,0,0,1,9.255-3.994,11.249,11.249,0,0,1,9.011,3.8c2.192,2.533,3.312,6.332,3.312,11.3,0,5.017-1.023,8.865-3.117,11.447-2.046,2.582-5.114,3.9-9.108,3.9m.487-39.405c-7.6,0-13.638,2.241-17.974,6.624-4.286,4.384-6.478,10.472-6.478,18.12,0,7.209,2.143,13.054,6.332,17.292s9.937,6.381,17,6.381c7.355,0,13.3-2.241,17.633-6.722,4.286-4.432,6.478-10.472,6.478-17.925,0-7.355-2.046-13.2-6.089-17.389-4.043-4.238-9.742-6.381-16.9-6.381m-41.159,9.109V62.99H435.714v46.176h10.862V85.543a16.4,16.4,0,0,1,2.728-9.79,8.217,8.217,0,0,1,7.014-3.7,11.787,11.787,0,0,1,3.263.487,9.495,9.495,0,0,1,2.533,1.023l.438.341V62.893l-.195-.1a11.088,11.088,0,0,0-4.238-.633,11.218,11.218,0,0,0-7.258,2.582,14.677,14.677,0,0,0-4.189,6.186h-.1Zm-30.3-9.109a27,27,0,0,0-13.2,3.166A21.2,21.2,0,0,0,394.36,74a28.249,28.249,0,0,0-2.971,13.249,24.142,24.142,0,0,0,2.923,11.885,20.669,20.669,0,0,0,8.134,8.232,24.38,24.38,0,0,0,11.885,2.874,25.945,25.945,0,0,0,13.1-3.069l.146-.1V97.135l-.438.341a21.206,21.206,0,0,1-5.309,2.776,15.628,15.628,0,0,1-5.212,1.023c-4.238,0-7.7-1.315-10.18-3.945S402.689,91,402.689,86.371c0-4.676,1.315-8.475,3.9-11.252a13.292,13.292,0,0,1,10.18-4.189,17.391,17.391,0,0,1,10.326,3.6l.438.341V64.306l-.146-.1a18.146,18.146,0,0,0-5.017-1.7,29.738,29.738,0,0,0-6.089-.633m-32.391,1.12H373.026v46.176h10.862Zm-5.309-19.678a6.433,6.433,0,0,0-4.627,1.8A6.074,6.074,0,0,0,372,49.644a5.821,5.821,0,0,0,1.9,4.432,6.6,6.6,0,0,0,4.627,1.754,6.721,6.721,0,0,0,4.676-1.754,5.865,5.865,0,0,0,1.948-4.432,6,6,0,0,0-1.9-4.481,6.35,6.35,0,0,0-4.676-1.851M351.5,59.581v49.585H362.6V44.725H347.259L327.775,92.557l-18.9-47.832H292.9v64.393h10.424V59.581h.341l19.971,49.585h7.842l19.678-49.585Z" transform="translate(-147.155 -17.696)" fill="#fff"/>
    <path id="Path_51" data-name="Path 51" d="M57.1,56.6H6V5.5H57.1Z" fill="#f1511b"/>
    <path id="Path_52" data-name="Path 52" d="M172.9,56.6H121.8V5.5h51.1V56.6Z" transform="translate(-59.395)" fill="#80cc28"/>
    <path id="Path_53" data-name="Path 53" d="M57.1,172.4H6V121.3H57.1Z" transform="translate(0 -59.395)" fill="#00adef"/>
    <path id="Path_54" data-name="Path 54" d="M172.9,172.4H121.8V121.3h51.1v51.1Z" transform="translate(-59.395 -59.395)" fill="#fbbc09"/>
  </g>
</svg>
