<svg id="microsoft" xmlns="http://www.w3.org/2000/svg" width="196.559" height="41.962" viewBox="0 0 196.559 41.962">
  <path id="Path_50" data-name="Path 50" d="M434.891,52.416V48.974h-4.3V43.594l-.152.038-4.031,1.236-.076.019v4.069h-6.369V46.693a3.5,3.5,0,0,1,.7-2.4,2.455,2.455,0,0,1,1.958-.8,4.8,4.8,0,0,1,1.863.418l.19.076V40.342l-.076-.019A7.3,7.3,0,0,0,422.228,40a6.859,6.859,0,0,0-3.384.818,5.748,5.748,0,0,0-2.32,2.3,6.786,6.786,0,0,0-.818,3.365v2.491h-3v3.46h2.985V67h4.3V52.435h6.369v9.24c0,3.8,1.806,5.742,5.343,5.742a8.817,8.817,0,0,0,1.825-.209,4.755,4.755,0,0,0,1.331-.418l.057-.038V63.272l-.171.114a3.229,3.229,0,0,1-.856.38,3.391,3.391,0,0,1-.856.152,2.3,2.3,0,0,1-1.825-.665,3.585,3.585,0,0,1-.589-2.32v-8.5h4.278Zm-31.771,11.5a4.537,4.537,0,0,1-3.651-1.54,6.488,6.488,0,0,1-1.312-4.335,6.784,6.784,0,0,1,1.312-4.449,4.524,4.524,0,0,1,3.613-1.559,4.391,4.391,0,0,1,3.517,1.483,6.6,6.6,0,0,1,1.293,4.411,6.993,6.993,0,0,1-1.217,4.468,4.236,4.236,0,0,1-3.555,1.521m.19-15.382a9.461,9.461,0,0,0-7.016,2.586,9.724,9.724,0,0,0-2.529,7.073,9.242,9.242,0,0,0,2.472,6.75,8.964,8.964,0,0,0,6.636,2.491,9.17,9.17,0,0,0,6.883-2.624,9.69,9.69,0,0,0,2.529-7,9.4,9.4,0,0,0-2.377-6.788,8.7,8.7,0,0,0-6.6-2.491m-16.465,0a7.7,7.7,0,0,0-4.962,1.54,4.89,4.89,0,0,0-1.939,3.993,5.556,5.556,0,0,0,.418,2.244,4.52,4.52,0,0,0,1.274,1.673,11.482,11.482,0,0,0,2.6,1.464,19.381,19.381,0,0,1,2.168,1.008,3,3,0,0,1,.951.78,1.781,1.781,0,0,1,.266,1.027c0,1.217-.913,1.806-2.776,1.806a7.591,7.591,0,0,1-2.339-.437,8.628,8.628,0,0,1-2.4-1.217l-.171-.133v4.126l.057.038a10.491,10.491,0,0,0,2.282.7,11.839,11.839,0,0,0,2.434.285,8.247,8.247,0,0,0,5.248-1.54,5.009,5.009,0,0,0,1.958-4.088,4.77,4.77,0,0,0-1.046-3.1,9.048,9.048,0,0,0-3.574-2.282,9.28,9.28,0,0,1-2.548-1.331,1.837,1.837,0,0,1-.513-1.388,1.552,1.552,0,0,1,.646-1.293,2.932,2.932,0,0,1,1.825-.513,7.163,7.163,0,0,1,2.168.342,7.311,7.311,0,0,1,1.9.875l.171.114V49.316l-.076-.038a8.8,8.8,0,0,0-1.92-.532,12.746,12.746,0,0,0-2.111-.209M368.763,63.919a4.537,4.537,0,0,1-3.651-1.54,6.488,6.488,0,0,1-1.312-4.335,6.784,6.784,0,0,1,1.312-4.449,4.472,4.472,0,0,1,3.612-1.559,4.391,4.391,0,0,1,3.517,1.483,6.6,6.6,0,0,1,1.293,4.411,6.993,6.993,0,0,1-1.217,4.468,4.285,4.285,0,0,1-3.555,1.521m.19-15.382a9.461,9.461,0,0,0-7.016,2.586,9.724,9.724,0,0,0-2.529,7.073,9.242,9.242,0,0,0,2.472,6.75,8.964,8.964,0,0,0,6.636,2.491,9.17,9.17,0,0,0,6.883-2.624,9.69,9.69,0,0,0,2.529-7,9.4,9.4,0,0,0-2.377-6.788,8.728,8.728,0,0,0-6.6-2.491m-16.066,3.555V48.974h-4.24V67h4.24V57.777a6.4,6.4,0,0,1,1.065-3.822,3.207,3.207,0,0,1,2.738-1.445,4.6,4.6,0,0,1,1.274.19,3.707,3.707,0,0,1,.989.4l.171.133v-4.3l-.076-.038a4.328,4.328,0,0,0-1.654-.247,4.379,4.379,0,0,0-2.833,1.008,5.729,5.729,0,0,0-1.635,2.415h-.038Zm-11.826-3.555a10.538,10.538,0,0,0-5.153,1.236,8.274,8.274,0,0,0-3.4,3.5,11.027,11.027,0,0,0-1.16,5.172,9.424,9.424,0,0,0,1.141,4.639,8.068,8.068,0,0,0,3.175,3.213,9.517,9.517,0,0,0,4.639,1.122,10.128,10.128,0,0,0,5.115-1.2l.057-.038V62.3l-.171.133a8.278,8.278,0,0,1-2.072,1.084,6.1,6.1,0,0,1-2.034.4,5.241,5.241,0,0,1-3.974-1.54,6.018,6.018,0,0,1-1.464-4.278,6.231,6.231,0,0,1,1.521-4.392,5.188,5.188,0,0,1,3.974-1.635,6.788,6.788,0,0,1,4.031,1.407l.171.133V49.488l-.057-.038a7.083,7.083,0,0,0-1.958-.665,11.608,11.608,0,0,0-2.377-.247m-12.644.437h-4.24V67h4.24Zm-2.072-7.681a2.511,2.511,0,0,0-1.806.7,2.371,2.371,0,0,0-.761,1.768,2.272,2.272,0,0,0,.742,1.73,2.577,2.577,0,0,0,1.806.684,2.623,2.623,0,0,0,1.825-.684,2.289,2.289,0,0,0,.76-1.73,2.342,2.342,0,0,0-.742-1.749,2.479,2.479,0,0,0-1.825-.723m-10.571,6.35V67h4.335V41.844h-5.989l-7.605,18.671-7.377-18.671H292.9V66.98h4.069V47.643h.133L304.9,67h3.061l7.681-19.355Z" transform="translate(-238.351 -33.44)" fill="#706d6e"/>
  <path id="Path_51" data-name="Path 51" d="M25.945,25.445H6V5.5H25.945Z" transform="translate(-6 -5.5)" fill="#f1511b"/>
  <path id="Path_52" data-name="Path 52" d="M141.745,25.445H121.8V5.5h19.945V25.445Z" transform="translate(-99.783 -5.5)" fill="#80cc28"/>
  <path id="Path_53" data-name="Path 53" d="M25.945,141.245H6V121.3H25.945Z" transform="translate(-6 -99.283)" fill="#00adef"/>
  <path id="Path_54" data-name="Path 54" d="M141.745,141.245H121.8V121.3h19.945v19.945Z" transform="translate(-99.783 -99.283)" fill="#fbbc09"/>
</svg>
