<svg id="Homepage" xmlns="http://www.w3.org/2000/svg" width="80.34" height="91.588" viewBox="0 0 80.34 91.588">
  <g id="Homepage_GO-LIVE" transform="translate(0 0)">
    <g id="A-Proven-Platform" transform="translate(0 0)">
      <g id="Group-5" transform="translate(0 0)">
        <g id="MQTT" transform="translate(0 0)">
          <path id="Path" d="M78.617,21.74,42.252.746a3.806,3.806,0,0,0-3.806,0L2.082,21.74a3.806,3.806,0,0,0-1.9,3.3V67.024a3.806,3.806,0,0,0,1.9,3.3L38.446,91.315a3.806,3.806,0,0,0,3.806,0L78.617,70.321a3.807,3.807,0,0,0,1.9-3.3V25.037A3.807,3.807,0,0,0,78.617,21.74Z" transform="translate(-0.179 -0.236)" fill="#909"/>
          <path id="Path-2" data-name="Path" d="M63.041,33.687a1.051,1.051,0,0,1-.79-1.018v-.076A11.3,11.3,0,0,0,48.388,21.552a.991.991,0,0,1-.243.033,1.056,1.056,0,0,1-.894-.476,18.321,18.321,0,0,0-15.642-8.7,18.525,18.525,0,0,0-18.482,18.52,17.292,17.292,0,0,0,.119,2.036,1.056,1.056,0,0,1-.676,1.108,12.983,12.983,0,0,0,4.491,25.152H59.806a12.983,12.983,0,0,0,3.235-25.546Z" transform="translate(1.734 5.689)" fill="#fff" fill-rule="evenodd"/>
          <path id="Path-3" data-name="Path" d="M13.853,39.42V28.864h3.192l1.9,7.2,1.9-7.2h3.2V39.42H22.069V31.114L19.975,39.42H17.92l-2.088-8.306V39.42Z" transform="translate(6.475 13.695)" fill="#909"/>
          <path id="Shape" d="M30.757,38.136a7.009,7.009,0,0,0,1.7.894l-.752,1.5a5.006,5.006,0,0,1-.951-.395c-.067-.033-.542-.347-1.427-.951a5.71,5.71,0,0,1-2.3.476,5.033,5.033,0,0,1-3.806-1.427,5.548,5.548,0,0,1-1.38-4.025,5.626,5.626,0,0,1,1.38-4.02,4.957,4.957,0,0,1,3.753-1.427,4.885,4.885,0,0,1,3.72,1.427,5.546,5.546,0,0,1,1.38,4.02,6.861,6.861,0,0,1-.385,2.379,4.991,4.991,0,0,1-.937,1.546Zm-1.717-1.2a3.147,3.147,0,0,0,.618-1.166,5.607,5.607,0,0,0,.2-1.57,4.009,4.009,0,0,0-.809-2.735,2.911,2.911,0,0,0-4.22,0,3.985,3.985,0,0,0-.813,2.731,4.111,4.111,0,0,0,.813,2.769,2.6,2.6,0,0,0,2.046.918,2.5,2.5,0,0,0,.871-.152,6.1,6.1,0,0,0-1.275-.657l.6-1.218a7.3,7.3,0,0,1,1.984,1.08Z" transform="translate(10.365 13.643)" fill="#909"/>
          <path id="Path-4" data-name="Path" d="M32.474,39.42V30.672h-3.13V28.864h8.387v1.808H34.606v8.768Z" transform="translate(14.014 13.695)" fill="#909"/>
          <path id="Path-5" data-name="Path" d="M38.537,39.42V30.672H35.4V28.864h8.392v1.808H40.668v8.768Z" transform="translate(16.961 13.695)" fill="#909"/>
        </g>
      </g>
    </g>
  </g>
</svg>
