<svg id="Layer_1" data-name="Layer 1" xmlns="http://www.w3.org/2000/svg" viewBox="0 0 200 200"><defs><style>.cls-1,.cls-2,.cls-3{fill:#fff;}.cls-1,.cls-2{stroke:#777e8c;stroke-miterlimit:10;}.cls-1{stroke-width:4px;}.cls-2{stroke-width:7px;}.cls-4{fill:#2764ff;}</style></defs><title>saas-icon</title><path class="cls-1" d="M177.66,60.13l-.65-.29v-.72a15.61,15.61,0,0,0-15.13-15.74l-.49,0-.33-.39a22.08,22.08,0,0,0-17.51-8.63,22.44,22.44,0,0,0-22.24,21.14l0,.6-.54.3A15.79,15.79,0,0,0,128,86.13h44.56a13.54,13.54,0,0,0,5.15-26"/><path class="cls-2" d="M153.82,87.1l-1.43-.64v-1.6A34.57,34.57,0,0,0,118.9,50l-1.09,0-.74-.84A48.84,48.84,0,0,0,78.3,30c-26,0-47.6,20.56-49.23,46.8L29,78.14l-1.18.65a35,35,0,0,0,16,65.87h98.66A30,30,0,0,0,153.82,87.1"/><circle class="cls-3" cx="130.33" cy="143.08" r="15.01"/><circle class="cls-3" cx="172.06" cy="120.73" r="9.24"/><path class="cls-4" d="M175.2,107l-4.88-.24-3.82-4.1-5.84,3,1.09,5.49-2.65,4.11-5.46,1.25-.33,6.56,5.3,1.8,2.23,4.35-1.64,5.35,5.51,3.57,4.21-3.7,4.88.25,3.82,4.1,5.84-3-1.09-5.5,2.65-4.1,5.46-1.26.33-6.55-5.3-1.8-2.23-4.35,1.64-5.36-5.51-3.56Zm3,17.71a7.35,7.35,0,1,1-2.18-10.16A7.36,7.36,0,0,1,178.23,124.72Z"/><path class="cls-4" d="M141.42,118.18l-6.82-2-3.72,6.37-5.34.56-5-5.46-6.25,3.4,1.87,7.14-3.38,4.17-7.37-.35-2,6.82,6.38,3.73.56,5.34-5.46,5,3.39,6.26,7.14-1.87,4.17,3.38-.34,7.37,6.82,2,3.72-6.37,5.34-.56,5,5.46,6.25-3.4L144.48,158l3.38-4.17,7.37.35,2-6.82-6.37-3.73-.56-5.34,5.46-5-3.39-6.26-7.14,1.87-4.17-3.37Zm-.51,26.58a10.71,10.71,0,1,1-8.9-12.25A10.71,10.71,0,0,1,140.91,144.76Z"/></svg>