<svg id="Homepage" xmlns="http://www.w3.org/2000/svg" width="120.565" height="84.389" viewBox="0 0 120.565 84.389">
  <g id="Homepage_GO-LIVE" transform="translate(0)">
    <g id="Encryption_-Control-and-Audit" data-name="Encryption,-Control-and-Audit" transform="translate(0)">
      <g id="salesforce_logo">
        <path id="Path" d="M50.371,9.2A21.126,21.126,0,0,1,65.658,2.642a21.339,21.339,0,0,1,18.6,11.026,25.707,25.707,0,0,1,10.512-2.233,26.22,26.22,0,1,1-5.121,51.928,19,19,0,0,1-24.9,7.817,21.676,21.676,0,0,1-40.3-.979A20.122,20.122,0,0,1,.2,50.3,20.357,20.357,0,0,1,10.259,32.686,23.416,23.416,0,0,1,50.371,9.2" transform="translate(-0.198)" fill="#139cd8"/>
        <path id="Path-2" data-name="Path" d="M13.123,34.932c-.076.2.027.238.051.273a7.042,7.042,0,0,0,.687.416,7.357,7.357,0,0,0,3.607.841c2.474,0,4.01-1.314,4.01-3.431V32.99c0-1.958-1.736-2.671-3.361-3.185l-.214-.068c-1.227-.4-2.285-.744-2.285-1.549v-.041c0-.692.619-1.2,1.576-1.2a7.1,7.1,0,0,1,3.142.806s.241.154.327-.078c.049-.127.46-1.233.5-1.355a.23.23,0,0,0-.122-.278A7.019,7.019,0,0,0,17.5,25.09l-.246,0c-2.266,0-3.845,1.368-3.845,3.328v.041c0,2.063,1.744,2.736,3.377,3.2l.262.081c1.19.365,2.217.681,2.217,1.517V33.3c0,.765-.668,1.336-1.741,1.336a5.837,5.837,0,0,1-3.185-.917c-.173-.1-.273-.176-.408-.257a.2.2,0,0,0-.327.111Z" transform="translate(4.34 8.828)" fill="#fff"/>
        <path id="Path-3" data-name="Path" d="M39.905,34.932c-.076.2.027.238.051.273a7.042,7.042,0,0,0,.687.416,7.357,7.357,0,0,0,3.607.841c2.474,0,4.01-1.314,4.01-3.431V32.99c0-1.958-1.736-2.671-3.361-3.185l-.214-.068c-1.227-.4-2.285-.744-2.285-1.549v-.041c0-.692.619-1.2,1.576-1.2a7.1,7.1,0,0,1,3.142.806s.241.154.327-.078c.049-.127.46-1.233.5-1.355a.23.23,0,0,0-.122-.278,7.019,7.019,0,0,0-3.545-.952l-.246,0c-2.266,0-3.845,1.368-3.845,3.328v.041c0,2.063,1.747,2.736,3.377,3.2l.262.081c1.19.365,2.22.681,2.22,1.517V33.3c0,.765-.668,1.336-1.744,1.336a5.843,5.843,0,0,1-3.185-.917c-.173-.1-.276-.173-.408-.257a.21.21,0,0,0-.324.111Z" transform="translate(13.764 8.828)" fill="#fff"/>
        <path id="Shape" d="M62.253,28.558a4.977,4.977,0,0,0-.938-1.793,4.512,4.512,0,0,0-1.587-1.206,5.744,5.744,0,0,0-4.426,0,4.526,4.526,0,0,0-1.584,1.206,4.916,4.916,0,0,0-.938,1.793,8.207,8.207,0,0,0,0,4.437,4.98,4.98,0,0,0,.938,1.793,4.392,4.392,0,0,0,1.587,1.2,5.877,5.877,0,0,0,4.426,0,4.47,4.47,0,0,0,1.587-1.2,4.958,4.958,0,0,0,.938-1.793,7.783,7.783,0,0,0,.306-2.22,7.873,7.873,0,0,0-.308-2.217M60.19,30.775a5.1,5.1,0,0,1-.662,2.806,2.538,2.538,0,0,1-4.01,0,5.131,5.131,0,0,1-.654-2.806,5.1,5.1,0,0,1,.652-2.8,2.559,2.559,0,0,1,4.012,0,5.058,5.058,0,0,1,.662,2.8" transform="translate(18.196 8.838)" fill="#fff"/>
        <path id="Path-4" data-name="Path" d="M74.318,34.247a.2.2,0,0,0-.265-.124,4.693,4.693,0,0,1-.96.273,7.3,7.3,0,0,1-1.13.081,3.157,3.157,0,0,1-2.363-.884,3.963,3.963,0,0,1-.887-2.823,4.377,4.377,0,0,1,.792-2.717,2.7,2.7,0,0,1,2.29-1.008,6.983,6.983,0,0,1,2.182.311s.162.07.238-.141c.184-.5.316-.86.508-1.411a.186.186,0,0,0-.13-.243,8,8,0,0,0-1.376-.349,10.466,10.466,0,0,0-1.549-.1,5.634,5.634,0,0,0-2.3.443,4.738,4.738,0,0,0-1.663,1.2,5.1,5.1,0,0,0-1,1.793,7.1,7.1,0,0,0-.338,2.222,5.923,5.923,0,0,0,1.374,4.107,5.213,5.213,0,0,0,4.075,1.536,8.391,8.391,0,0,0,2.923-.522.189.189,0,0,0,.084-.246Z" transform="translate(23.084 8.835)" fill="#fff" fill-rule="evenodd"/>
        <path id="Shape-2" data-name="Shape" d="M82.5,28.169a4.356,4.356,0,0,0-.892-1.636,4.04,4.04,0,0,0-1.328-1.011,5.105,5.105,0,0,0-2-.406,5.451,5.451,0,0,0-2.306.449,4.565,4.565,0,0,0-1.609,1.228,5.028,5.028,0,0,0-.946,1.814,7.867,7.867,0,0,0-.306,2.228,7.474,7.474,0,0,0,.316,2.231A4.48,4.48,0,0,0,76.2,36.007a6.987,6.987,0,0,0,2.536.408,7.285,7.285,0,0,0,3.52-.7c.078-.043.151-.119.059-.335l-.46-1.279a.2.2,0,0,0-.262-.122,6.738,6.738,0,0,1-2.869.516,2.86,2.86,0,0,1-3.2-3.144l6.986.005a.206.206,0,0,0,.2-.184,7.356,7.356,0,0,0-.205-3.007m-6.949,1.46a4.064,4.064,0,0,1,.565-1.647,2.225,2.225,0,0,1,2-1.017,2.168,2.168,0,0,1,1.958,1.017,3.461,3.461,0,0,1,.465,1.649Z" transform="translate(25.459 8.838)" fill="#fff" fill-rule="evenodd"/>
        <path id="Shape-3" data-name="Shape" d="M41.106,28.169a4.356,4.356,0,0,0-.892-1.636,4.013,4.013,0,0,0-1.328-1.011,5.112,5.112,0,0,0-2-.406,5.456,5.456,0,0,0-2.309.449,4.565,4.565,0,0,0-1.609,1.228,5.029,5.029,0,0,0-.946,1.814,7.867,7.867,0,0,0-.306,2.228,7.474,7.474,0,0,0,.316,2.231A4.48,4.48,0,0,0,34.8,36.007a6.987,6.987,0,0,0,2.536.408,7.285,7.285,0,0,0,3.52-.7c.078-.043.151-.119.059-.335l-.46-1.279a.2.2,0,0,0-.262-.122,6.738,6.738,0,0,1-2.869.516,3.318,3.318,0,0,1-2.39-.822,3.3,3.3,0,0,1-.814-2.323l6.986.005a.206.206,0,0,0,.2-.184,7.357,7.357,0,0,0-.205-3.007m-6.949,1.46a4.1,4.1,0,0,1,.562-1.647,2.231,2.231,0,0,1,2-1.017,2.173,2.173,0,0,1,1.96,1.017,3.461,3.461,0,0,1,.462,1.649Z" transform="translate(10.892 8.838)" fill="#fff" fill-rule="evenodd"/>
        <path id="Shape-4" data-name="Shape" d="M25.876,29.3c-.284-.022-.652-.032-1.09-.032a6.637,6.637,0,0,0-1.722.222,4.455,4.455,0,0,0-1.457.676,3.385,3.385,0,0,0-1.014,1.154,3.349,3.349,0,0,0-.373,1.609,3.6,3.6,0,0,0,.322,1.6,2.864,2.864,0,0,0,.911,1.092,3.811,3.811,0,0,0,1.422.616,8.266,8.266,0,0,0,1.852.189,12.563,12.563,0,0,0,2.122-.178c.687-.116,1.525-.287,1.76-.341s.489-.124.489-.124a.221.221,0,0,0,.16-.23l0-6.389a3.923,3.923,0,0,0-1.109-3.088,4.764,4.764,0,0,0-3.212-.965,11.39,11.39,0,0,0-1.874.173,6.667,6.667,0,0,0-2.152.789.219.219,0,0,0-.065.278l.495,1.33a.177.177,0,0,0,.23.114.875.875,0,0,0,.116-.059,7.107,7.107,0,0,1,3.044-.708,2.837,2.837,0,0,1,1.728.452c.381.295.573.733.573,1.666v.295c-.6-.087-1.154-.135-1.154-.135M23.1,34.209a1.377,1.377,0,0,1-.4-.414,1.654,1.654,0,0,1-.211-.908,1.523,1.523,0,0,1,.625-1.352,3.131,3.131,0,0,1,2.028-.506,14.279,14.279,0,0,1,1.9.162v3.177a14.24,14.24,0,0,1-1.887.249,3.169,3.169,0,0,1-2.049-.408" transform="translate(6.847 8.834)" fill="#fff"/>
        <path id="Path-5" data-name="Path" d="M67.778,25.664a.19.19,0,0,0-.105-.251,6.415,6.415,0,0,0-1.171-.2,3.5,3.5,0,0,0-1.8.289,3.1,3.1,0,0,0-1.179.871l0-.852a.2.2,0,0,0-.2-.211H61.524a.2.2,0,0,0-.2.211V35.947a.212.212,0,0,0,.214.211h1.836a.211.211,0,0,0,.211-.211V30.739a6.1,6.1,0,0,1,.233-1.833,2.616,2.616,0,0,1,.611-1.027,2.109,2.109,0,0,1,.865-.519,3.351,3.351,0,0,1,.935-.132,3.892,3.892,0,0,1,.768.095.243.243,0,0,0,.257-.189c.119-.322.46-1.279.525-1.468" transform="translate(21.31 8.868)" fill="#fff" fill-rule="evenodd"/>
        <path id="Path-6" data-name="Path" d="M56.489,22.032a5.018,5.018,0,0,0-.692-.162,5.419,5.419,0,0,0-.949-.076,3.993,3.993,0,0,0-2.958,1.063,5.779,5.779,0,0,0-1.406,3.169L50.4,26.5H48.813a.235.235,0,0,0-.235.2l-.26,1.452c-.019.138.041.224.227.224H50.09l-1.568,8.747a10.791,10.791,0,0,1-.419,1.722,3.508,3.508,0,0,1-.487.995,1.29,1.29,0,0,1-.641.495,2.671,2.671,0,0,1-.822.116,3.032,3.032,0,0,1-.56-.062,1.684,1.684,0,0,1-.379-.122.194.194,0,0,0-.254.111c-.057.149-.468,1.282-.516,1.422a.208.208,0,0,0,.108.278,5.048,5.048,0,0,0,.638.187,4.21,4.21,0,0,0,1.025.1,5.085,5.085,0,0,0,1.714-.265,3.272,3.272,0,0,0,1.292-.9,4.671,4.671,0,0,0,.908-1.565,13.226,13.226,0,0,0,.614-2.347l1.574-8.909h2.3a.235.235,0,0,0,.235-.2l.26-1.452c.019-.138-.041-.224-.227-.224H52.653a9.409,9.409,0,0,1,.368-1.576,2.04,2.04,0,0,1,.492-.746,1.439,1.439,0,0,1,.584-.365,2.481,2.481,0,0,1,.749-.105,2.935,2.935,0,0,1,.573.057c.216.046.3.07.357.087.227.07.257,0,.3-.105l.533-1.468a.179.179,0,0,0-.122-.243" transform="translate(15.365 7.669)" fill="#fff" fill-rule="evenodd"/>
        <path id="Path-7" data-name="Path" d="M30.843,37.087a.2.2,0,0,1-.2.214H28.788a.2.2,0,0,1-.2-.214V22.173a.2.2,0,0,1,.2-.211h1.855a.2.2,0,0,1,.2.211Z" transform="translate(9.792 7.728)" fill="#fff" fill-rule="evenodd"/>
      </g>
    </g>
  </g>
</svg>
