<svg id="g4163" xmlns="http://www.w3.org/2000/svg" width="125.782" height="65.418" viewBox="0 0 125.782 65.418">
  <g id="g4165" transform="translate(0 0)">
    <path id="path4167" d="M280.37-168.844c-.109-.232-.158-.349-.217-.461q-2.364-4.494-4.738-8.983a.548.548,0,0,1,.079-.735q3.76-4.392,7.5-8.805a.79.79,0,0,0,.2-.4c-.73.191-1.46.379-2.189.572q-4.543,1.2-9.084,2.416a.417.417,0,0,1-.551-.241q-2.58-4.309-5.177-8.607a1.175,1.175,0,0,0-.375-.419c-.139.765-.28,1.53-.417,2.3q-.722,4.054-1.441,8.11c-.052.292-.124.582-.149.876s-.167.382-.42.461q-5.354,1.681-10.7,3.382a1.184,1.184,0,0,0-.478.266l8.8,3.5c-.108.086-.178.151-.257.2-1.824,1.18-3.651,2.355-5.47,3.542a.582.582,0,0,1-.635.052c-2.178-.981-4.365-1.943-6.547-2.918a6.752,6.752,0,0,1-2.547-1.858,3.377,3.377,0,0,1,.822-5.375,9.753,9.753,0,0,1,2.21-1.005c3.5-1.139,7-2.237,10.512-3.339a.6.6,0,0,0,.485-.542q.7-4.059,1.439-8.11a14.105,14.105,0,0,1,1.1-4.25,7.132,7.132,0,0,1,.978-1.434,3.12,3.12,0,0,1,4.807-.133A9.145,9.145,0,0,1,269.2-199.1q2.433,3.966,4.8,7.971a.521.521,0,0,0,.7.286q5.866-1.573,11.741-3.115a5.523,5.523,0,0,1,2.453-.137,2.417,2.417,0,0,1,1.983,3.454,6.667,6.667,0,0,1-1.3,2.1q-4.1,4.819-8.2,9.633a.561.561,0,0,0-.074.744q2.453,4.623,4.883,9.258a5.148,5.148,0,0,1,.7,2.354,3.794,3.794,0,0,1-3.309,3.79,6.863,6.863,0,0,1-3.078-.382q-3.678-1.137-7.367-2.243a.421.421,0,0,1-.355-.4c-.283-1.73-.591-3.455-.889-5.183a1.106,1.106,0,0,1,.013-.2l8.46,2.334" transform="translate(-165.309 201.85)" fill="#e25a1c" fill-rule="evenodd"/>
    <path id="path4169" d="M292.479-87.522c-2.212,0-4.423-.014-6.635-.005a.641.641,0,0,1-.62-.333q-3.927-5.982-7.876-11.95c-.084-.127-.173-.249-.322-.462-.566,4.3-1.119,8.505-1.673,12.721h-5.791c.068-.564.127-1.11.2-1.653q.848-6.477,1.7-12.954.813-6.188,1.633-12.376a.535.535,0,0,1,.2-.344q2.989-1.949,5.992-3.877a.9.9,0,0,1,.173-.05c-.6,4.613-1.205,9.19-1.806,13.767l.071.049L287.2-115.5c.093.535.173.992.252,1.45.225,1.311.44,2.624.681,3.933a.622.622,0,0,1-.2.611q-3.043,3.185-6.073,6.382c-.088.093-.173.189-.273.3.064.1.12.2.185.294q5.234,7.346,10.471,14.69a2.077,2.077,0,0,0,.233.237v.078" transform="translate(-182.199 145.72)" fill="#3c3a3e" fill-rule="evenodd"/>
    <path id="path4171" d="M83.307-84.721a13.545,13.545,0,0,0-.352-1.733,5.986,5.986,0,0,0-7.219-3.894,8.049,8.049,0,0,0-6.339,7.11,5.776,5.776,0,0,0,3.785,6.118,6.833,6.833,0,0,0,6.064-.692,8.045,8.045,0,0,0,4.06-6.91ZM68-73.6c-.172,1.287-.336,2.5-.5,3.715q-.318,2.421-.627,4.843c-.024.188-.081.272-.283.27-1.591-.006-3.182,0-4.772-.007a.858.858,0,0,1-.159-.044c.1-.762.19-1.526.29-2.29q.526-4.016,1.057-8.031c.407-3.061.73-6.136,1.252-9.177A14.352,14.352,0,0,1,75.111-95.5a11.241,11.241,0,0,1,8.795,1.388,9.811,9.811,0,0,1,4.611,7.458,13.148,13.148,0,0,1-4.353,11.328,13.51,13.51,0,0,1-7.508,3.755,11.094,11.094,0,0,1-8.309-1.807c-.093-.064-.191-.121-.35-.221" transform="translate(-41.676 130.187)" fill="#3c3a3e" fill-rule="evenodd"/>
    <path id="path4173" d="M23.728-116.631,18.5-112.737c-.278-.439-.528-.877-.819-1.284a4.027,4.027,0,0,0-3.034-1.925,3.392,3.392,0,0,0-2.855,1.122,2,2,0,0,0-.134,2.636c.705.923,1.477,1.8,2.265,2.653,1.306,1.416,2.672,2.778,3.97,4.2a8.858,8.858,0,0,1,2.413,4.52,9.209,9.209,0,0,1-1.07,5.961,11.311,11.311,0,0,1-8.577,6.033,11.253,11.253,0,0,1-5.031-.266,7.409,7.409,0,0,1-4.7-4.109C.58-93.911.314-94.667,0-95.435l5.673-3.036c.066.158.112.289.174.412a16.954,16.954,0,0,0,.986,1.925,3.851,3.851,0,0,0,5.038,1.426,5.554,5.554,0,0,0,1.388-.9,2.953,2.953,0,0,0,.559-4.052,19.757,19.757,0,0,0-1.845-2.241c-1.548-1.719-3.158-3.383-4.67-5.132a8.107,8.107,0,0,1-1.974-4.228,7.249,7.249,0,0,1,1.026-4.913,10.653,10.653,0,0,1,9.983-5.452,7.862,7.862,0,0,1,6.037,3.2c.457.575.886,1.172,1.354,1.8" transform="translate(0 147.634)" fill="#3c3a3e" fill-rule="evenodd"/>
    <path id="path4175" d="M168.094-79.353c-.291,2.223-.565,4.336-.85,6.448a.431.431,0,0,1-.19.295c-4.317,2-10,1.72-13.547-2.306a10.407,10.407,0,0,1-2.585-7.586,14.3,14.3,0,0,1,12.313-13.189,10.541,10.541,0,0,1,9.784,3.538,9.855,9.855,0,0,1,2.464,7.118c-.079,1.764-.356,3.521-.576,5.277-.311,2.487-.651,4.972-.98,7.457-.012.088-.03.176-.049.288h-5.164c.069-.571.132-1.13.2-1.688.374-2.871.785-5.737,1.113-8.613a9.2,9.2,0,0,0-.743-5.228,5.052,5.052,0,0,0-4.254-2.9,8.064,8.064,0,0,0-8.608,6.256,5.982,5.982,0,0,0,2.38,6.428,6.515,6.515,0,0,0,6.338.473,8.285,8.285,0,0,0,2.95-2.069" transform="translate(-102.002 130.17)" fill="#3c3a3e" fill-rule="evenodd"/>
    <path id="path4177" d="M242.993-93.959c-.236,1.791-.468,3.554-.705,5.355-1.092,0-2.162-.006-3.233,0a2.037,2.037,0,0,0-1.919,1.377,5.609,5.609,0,0,0-.184.988q-.815,6.167-1.622,12.335c-.136,1.037-.269,2.074-.4,3.127H229.55c.1-.791.2-1.556.3-2.32q.524-4,1.053-7.992c.306-2.305.578-4.615.939-6.912a7.471,7.471,0,0,1,6.653-5.948c1.482-.064,2.97-.011,4.5-.011" transform="translate(-155.155 128.939)" fill="#3c3a3e" fill-rule="evenodd"/>
    <path id="path4179" d="M348.891-28.051V-30.32h-.013l-.89,2.269H347.7l-.89-2.269H346.8v2.269h-.448v-2.718h.692l.811,2.065.8-2.065h.686v2.718Zm-3.945-2.355v2.355H344.5v-2.355h-.851v-.363H345.8v.363h-.851" transform="translate(-232.273 86.215)" fill="#3c3a3e"/>
    <path id="path4181" d="M89.28-125.864h1.333l-.314-2.018Zm1.542,1.3H88.6l-.7,1.38H86.33l3.464-6.471h1.514l1.179,6.471H91.031l-.209-1.38" transform="translate(-58.351 153.05)" fill="#3c3a3e"/>
    <path id="path4183" d="M118.3-128.348h-.79l-.266,1.494h.789a.827.827,0,0,0,.857-.9A.541.541,0,0,0,118.3-128.348Zm-1.913-1.3h2.075a1.686,1.686,0,0,1,1.846,1.76,2.258,2.258,0,0,1-2.4,2.341h-.894l-.419,2.37h-1.351l1.141-6.471" transform="translate(-77.895 153.05)" fill="#3c3a3e"/>
    <path id="path4185" d="M138.875-125.864h1.333l-.314-2.018Zm1.542,1.3H138.2l-.7,1.38h-1.57l3.464-6.471H140.9l1.18,6.471h-1.456l-.209-1.38" transform="translate(-91.873 153.05)" fill="#3c3a3e"/>
    <path id="path4187" d="M167.962-123.629a3.547,3.547,0,0,1-1.465.334,2.732,2.732,0,0,1-2.788-2.893,3.835,3.835,0,0,1,3.788-3.788,2.822,2.822,0,0,1,1.361.333l-.19,1.552a1.745,1.745,0,0,0-1.313-.533,2.323,2.323,0,0,0-2.227,2.3,1.538,1.538,0,0,0,1.523,1.675,2.424,2.424,0,0,0,1.494-.523l-.181,1.541" transform="translate(-110.652 153.27)" fill="#3c3a3e"/>
    <path id="path4189" d="M192.67-125.788h-2.817l-.457,2.608h-1.351l1.142-6.471h1.351l-.457,2.56H192.9l.456-2.56h1.351l-1.141,6.471h-1.351l.457-2.608" transform="translate(-127.101 153.05)" fill="#3c3a3e"/>
    <path id="path4191" d="M217.606-123.18l1.141-6.471h3.588l-.228,1.3H219.87l-.228,1.256H221.7l-.228,1.3h-2.056l-.229,1.3h2.237l-.228,1.3h-3.587" transform="translate(-147.082 153.05)" fill="#3c3a3e"/>
  </g>
</svg>
