<svg xmlns="http://www.w3.org/2000/svg" width="150" height="149" viewBox="0 0 150 149">
  <g id="Layer_1" data-name="Layer 1" transform="translate(0.334 -0.178)">
    <ellipse id="Ellipse_1" data-name="Ellipse 1" cx="75" cy="74.5" rx="75" ry="74.5" transform="translate(-0.334 0.178)" fill="#3668ff"/>
    <path id="Path_19" data-name="Path 19" d="M52.63,36.84v96.794h72.6V36.84Zm68.2,92.365H57.067V41.269h63.722Z" transform="translate(-14.218 -10.527)" fill="#3668ff"/>
    <path id="Path_20" data-name="Path 20" d="M71.074,52.587H64.99V48.84H81.4v3.747H75.35V67.621H71.074Z" transform="translate(-17.107 -13.332)" fill="#3668ff"/>
    <path id="Path_21" data-name="Path 21" d="M91.92,48.84h7.088a13.931,13.931,0,0,1,4.015.559,8.674,8.674,0,0,1,3.18,1.724,7.663,7.663,0,0,1,2.084,2.958,11.073,11.073,0,0,1,.766,4.253,9.9,9.9,0,0,1-.766,4.061,7.985,7.985,0,0,1-2.1,2.9,8.751,8.751,0,0,1-3.172,1.747,13.47,13.47,0,0,1-4.023.575H91.92Zm6.835,15.011a5.961,5.961,0,0,0,4.337-1.479,5.4,5.4,0,0,0,1.533-4.069,7.579,7.579,0,0,0-.352-2.352,4.782,4.782,0,0,0-1.073-1.8,4.935,4.935,0,0,0-1.816-1.157,7.471,7.471,0,0,0-2.621-.406h-2.59V63.851Z" transform="translate(-23.401 -13.332)" fill="#3668ff"/>
    <path id="Path_22" data-name="Path 22" d="M118.84,48.84h12.62v3.747h-8.368v4.245h6.368v3.64h-6.368v7.149H118.84Z" transform="translate(-29.694 -13.332)" fill="#3668ff"/>
    <path id="Path_23" data-name="Path 23" d="M68.32,141V116.307h6.5V132.3c3.716-1.885,8.7-5.87,8.7-13.67a3.249,3.249,0,0,1,6.5,0c0,13.961-11.639,19.969-17.762,21.555C72.259,140.184,69.738,140.82,68.32,141Z" transform="translate(-17.885 -28.885)" fill="#3668ff"/>
    <path id="Path_24" data-name="Path 24" d="M53.78,161.71h2.214a25.173,25.173,0,0,1-2.214-1.77Z" transform="translate(-14.486 -39.301)" fill="#3668ff"/>
    <path id="Path_25" data-name="Path 25" d="M102.328,147.566h10.728a37.14,37.14,0,0,0,2.046-45.684,27.821,27.821,0,0,0-1.939-2.452,6.329,6.329,0,0,1-5.119,5.241,29.83,29.83,0,0,1-5.724,42.91Z" transform="translate(-25.832 -25.157)" fill="#3668ff"/>
    <path id="Path_26" data-name="Path 26" d="M53.78,96.977a29.884,29.884,0,0,1,31.34-5.1c4.9,1.709,5.486-2.207,5.486-2.207a4.145,4.145,0,0,0-2.8-4.6,35.684,35.684,0,0,0-6.046-1.946,37.185,37.185,0,0,0-4.536-.812c-1.3-.115-2.613-.169-3.831-.169a37.071,37.071,0,0,0-19.616,5.6Z" transform="translate(-14.486 -21.118)" fill="#3668ff"/>
    <rect id="Rectangle_3" data-name="Rectangle 3" width="66.32" height="90.786" transform="translate(41.401 29.317)" fill="#3668ff"/>
    <path id="Path_27" data-name="Path 27" d="M52.63,36.84v96.794h72.6V36.84Zm68.2,92.365H57.067V41.269h63.722Z" transform="translate(-14.218 -10.527)" fill="#fff"/>
    <path id="Path_28" data-name="Path 28" d="M71.074,52.587H64.99V48.84H81.4v3.747H75.35V67.621H71.074Z" transform="translate(-17.107 -13.332)" fill="#fff"/>
    <path id="Path_29" data-name="Path 29" d="M91.92,48.84h7.088a13.931,13.931,0,0,1,4.015.559,8.674,8.674,0,0,1,3.18,1.724,7.663,7.663,0,0,1,2.084,2.958,11.073,11.073,0,0,1,.766,4.253,9.9,9.9,0,0,1-.766,4.061,7.985,7.985,0,0,1-2.1,2.9,8.751,8.751,0,0,1-3.172,1.747,13.47,13.47,0,0,1-4.023.575H91.92Zm6.835,15.011a5.961,5.961,0,0,0,4.337-1.479,5.4,5.4,0,0,0,1.533-4.069,7.579,7.579,0,0,0-.352-2.352,4.782,4.782,0,0,0-1.073-1.8,4.935,4.935,0,0,0-1.816-1.157,7.471,7.471,0,0,0-2.621-.406h-2.59V63.851Z" transform="translate(-23.401 -13.332)" fill="#fff"/>
    <path id="Path_30" data-name="Path 30" d="M118.84,48.84h12.62v3.747h-8.368v4.245h6.368v3.64h-6.368v7.149H118.84Z" transform="translate(-29.694 -13.332)" fill="#fff"/>
    <path id="Path_31" data-name="Path 31" d="M69,140.968V116.279h6.49v15.992c3.716-1.885,8.712-5.87,8.712-13.67a3.249,3.249,0,1,1,6.49,0c0,13.961-11.632,19.961-17.754,21.555C72.9,140.156,70.372,140.792,69,140.968Z" transform="translate(-18.044 -28.842)" fill="#fff"/>
    <path id="Path_32" data-name="Path 32" d="M54.41,161.73h2.214a26.672,26.672,0,0,1-2.214-1.77Z" transform="translate(-14.634 -39.305)" fill="#fff"/>
    <path id="Path_33" data-name="Path 33" d="M103,147.586h10.728a37.125,37.125,0,0,0,2.084-45.684,29.661,29.661,0,0,0-1.939-2.452,6.337,6.337,0,0,1-5.126,5.241,29.815,29.815,0,0,1-5.724,42.91Z" transform="translate(-25.991 -25.161)" fill="#fff"/>
    <path id="Path_34" data-name="Path 34" d="M54.408,96.995A29.83,29.83,0,0,1,85.74,91.9c4.9,1.709,5.494-2.207,5.494-2.207a4.161,4.161,0,0,0-2.8-4.6,35.745,35.745,0,0,0-6.053-1.939,36.784,36.784,0,0,0-4.536-.828c-1.31-.123-2.621-.169-3.831-.169a37,37,0,0,0-19.616,5.6Z" transform="translate(-14.631 -21.12)" fill="#fff"/>
  </g>
</svg>
