<?xml version="1.0" encoding="utf-8"?>
<!-- Generator: Adobe Illustrator 24.0.1, SVG Export Plug-In . SVG Version: 6.00 Build 0)  -->
<svg version="1.1" id="Layer_1" xmlns="http://www.w3.org/2000/svg" xmlns:xlink="http://www.w3.org/1999/xlink" x="0px" y="0px"
	 viewBox="0 0 75 75" style="enable-background:new 0 0 75 75;" xml:space="preserve">
<style type="text/css">
	.st0{fill:#0068DA;}
	.st1{fill:none;stroke:#0068DA;stroke-width:2.02;stroke-miterlimit:10;}
	.st2{fill:#FFFFFF;enable-background:new    ;}
	.st3{opacity:0.1;fill:#0D72B9;enable-background:new    ;}
	.st4{fill:none;stroke:#0068DA;stroke-width:2.02;stroke-linecap:round;stroke-linejoin:round;stroke-miterlimit:10;}
</style>
<g id="Layer_7">
	<polygon class="st0" points="11.2,43.2 6.5,43.2 8.9,39 	"/>
	<rect x="25.4" y="61.4" class="st0" width="1.8" height="1.8"/>
	<rect x="21.7" y="61.4" class="st0" width="1.8" height="1.8"/>
	<rect x="18.1" y="61.4" class="st0" width="1.8" height="1.8"/>
	<rect x="14.4" y="61.4" class="st0" width="1.8" height="1.8"/>
	<rect x="10.7" y="61.4" class="st0" width="1.8" height="1.8"/>
	<path class="st0" d="M8.4,61.8c-0.3-0.5-0.5-1-0.5-1.5v-0.8h1.8v0.8c0,0.2,0.1,0.4,0.1,0.5L8.4,61.8z"/>
	<rect x="7.9" y="55.8" class="st0" width="1.8" height="1.8"/>
	<rect x="7.9" y="52.1" class="st0" width="1.8" height="1.8"/>
	<rect x="7.9" y="48.5" class="st0" width="1.8" height="1.8"/>
	<rect x="7.9" y="44.8" class="st0" width="1.8" height="1.8"/>
	<polygon class="st0" points="57.4,38 61.9,38 59.6,42.2 	"/>
	<rect x="58.7" y="25.4" class="st0" width="1.8" height="1.8"/>
	<rect x="58.7" y="28.6" class="st0" width="1.8" height="1.8"/>
	<rect x="58.7" y="31.9" class="st0" width="1.8" height="1.8"/>
	<rect x="58.7" y="35.1" class="st0" width="1.8" height="1.8"/>
	<rect x="58.7" y="21.7" class="st0" width="1.8" height="1.8"/>
	<rect x="58.7" y="18.1" class="st0" width="1.8" height="1.8"/>
	<rect x="58.7" y="14.4" class="st0" width="1.8" height="1.8"/>
	<rect x="58.7" y="10.7" class="st0" width="1.8" height="1.8"/>
	<path class="st0" d="M58.5,9.4C58.3,9.1,58,9,57.8,9V7.1l0,0c1,0,1.8,0.5,2.3,1.3L58.5,9.4z"/>
	<rect x="54.1" y="7" class="st0" width="1.8" height="1.8"/>
	<rect x="50.5" y="7" class="st0" width="1.8" height="1.8"/>
	<rect x="46.8" y="7" class="st0" width="1.8" height="1.8"/>
	<rect x="43.1" y="7" class="st0" width="1.8" height="1.8"/>
	<rect x="39.2" y="7" class="st0" width="1.8" height="1.8"/>
</g>
<g id="Interface-Essential__x2F__Setting__x2F__cog-double-2">
	<g id="Group_144">
		<g id="cog-double-2">
			<path id="Shape_683" class="st1" d="M14,15.4c0.4,0.4,0.9,0.7,1.5,0.7c0.6,0,1.1-0.2,1.5-0.7l1-1.1c0.6-0.6,1.5-0.8,2.3-0.5
				c0.8,0.3,1.3,1.1,1.2,2l-0.1,1.4c0,0.6,0.2,1.1,0.6,1.5c0.4,0.4,1,0.6,1.5,0.6l1.4-0.1c0.9,0,1.6,0.5,2,1.2
				c0.3,0.8,0.1,1.7-0.5,2.3l-1.1,1c-0.4,0.4-0.7,0.9-0.7,1.5c0,0.6,0.2,1.1,0.7,1.5l1.1,1c0.6,0.6,0.8,1.5,0.5,2.3
				c-0.3,0.8-1.1,1.3-2,1.2l-1.4-0.1c-0.6,0-1.1,0.2-1.5,0.6c-0.4,0.4-0.6,1-0.6,1.5l0.1,1.4c0,0.9-0.5,1.6-1.2,2
				c-0.8,0.3-1.7,0.1-2.3-0.5l-1-1.1c-0.4-0.4-0.9-0.7-1.5-0.7c-0.6,0-1.1,0.2-1.5,0.7l-1,1.1c-0.6,0.6-1.5,0.8-2.3,0.5
				c-0.8-0.3-1.3-1.1-1.2-2l0.1-1.4c0-0.6-0.2-1.1-0.6-1.5c-0.4-0.4-1-0.6-1.5-0.6L6,31.3c-0.9,0-1.6-0.5-2-1.2
				c-0.3-0.8-0.1-1.7,0.5-2.3l1.1-1c0.4-0.4,0.7-0.9,0.7-1.5S6,24.2,5.6,23.8l-1.1-1c-0.6-0.6-0.8-1.5-0.5-2.3
				c0.3-0.8,1.1-1.3,2-1.2l1.4,0.1c0.6,0,1.1-0.2,1.5-0.6c0.4-0.4,0.6-1,0.6-1.5l-0.1-1.4c0-0.9,0.5-1.6,1.2-2
				c0.8-0.3,1.7-0.1,2.3,0.5L14,15.4z"/>
			<path id="Oval_86" class="st1" d="M15.5,28.2c1.6,0,2.9-1.3,2.9-2.9s-1.3-2.9-2.9-2.9c-1.6,0-2.9,1.3-2.9,2.9
				S13.9,28.2,15.5,28.2z"/>
			<path id="Shape_684" class="st1" d="M31.5,8.7c-0.3,0-0.6,0.3-0.6,0.6c0,0.3,0.3,0.6,0.6,0.6c0.3,0,0.6-0.3,0.6-0.6
				C32.1,8.9,31.9,8.7,31.5,8.7L31.5,8.7"/>
			<path id="Shape_685" class="st1" d="M35.5,3.8c0.4-0.2,0.9-0.1,1.2,0.3c0.3,0.3,0.4,0.8,0.3,1.2l-0.8,2c-0.2,0.5,0,1,0.4,1.3
				l1.7,1.3c0.4,0.3,0.5,0.8,0.4,1.2c-0.1,0.4-0.5,0.8-0.9,0.8l-2.1,0.3c-0.5,0.1-0.9,0.5-1,1l-0.3,2.1c-0.1,0.5-0.4,0.8-0.8,0.9
				c-0.4,0.1-0.9,0-1.2-0.4l-1.3-1.7c-0.3-0.4-0.9-0.5-1.3-0.4l-2,0.8c-0.4,0.2-0.9,0.1-1.2-0.3c-0.3-0.3-0.4-0.8-0.3-1.2l0.8-2
				c0.2-0.5,0-1-0.4-1.3l-1.7-1.3c-0.4-0.3-0.5-0.8-0.4-1.2s0.5-0.8,0.9-0.8l2.1-0.3c0.5-0.1,0.9-0.5,1-1l0.3-2.1
				c0.1-0.5,0.4-0.8,0.8-0.9c0.4-0.1,0.9,0,1.2,0.4l1.3,1.7c0.3,0.4,0.9,0.5,1.3,0.4L35.5,3.8z"/>
		</g>
	</g>
</g>
<g>
	<path class="st0" d="M35.9,60.5v-8.3h1.8v8.3H35.9z"/>
	<path class="st0" d="M43.3,60.5h-1.8v-6.9h-2.3v-1.5h6.3v1.5h-2.3V60.5z"/>
	<path class="st0" d="M52,58.2c0,0.8-0.3,1.3-0.8,1.8c-0.5,0.4-1.3,0.7-2.3,0.7c-0.9,0-1.7-0.2-2.4-0.5v-1.6c0.6,0.3,1,0.4,1.4,0.5
		s0.7,0.2,1.1,0.2c0.4,0,0.7-0.1,0.9-0.2c0.2-0.1,0.3-0.4,0.3-0.7c0-0.2,0-0.3-0.1-0.4c-0.1-0.1-0.2-0.2-0.4-0.4
		c-0.2-0.1-0.5-0.3-1.1-0.6c-0.5-0.2-0.9-0.5-1.1-0.7c-0.3-0.2-0.5-0.5-0.6-0.8s-0.2-0.6-0.2-1c0-0.7,0.2-1.3,0.7-1.7
		c0.5-0.4,1.2-0.6,2.1-0.6c0.4,0,0.8,0.1,1.2,0.2c0.4,0.1,0.8,0.2,1.2,0.4L51.4,54c-0.4-0.2-0.8-0.3-1.1-0.4
		c-0.3-0.1-0.6-0.1-0.9-0.1c-0.3,0-0.6,0.1-0.8,0.2c-0.2,0.2-0.3,0.4-0.3,0.6c0,0.2,0,0.3,0.1,0.4s0.2,0.2,0.3,0.3s0.5,0.3,1.1,0.6
		c0.8,0.4,1.3,0.7,1.6,1.1S52,57.7,52,58.2z"/>
	<path class="st0" d="M57.2,60.5l-2-6.5h-0.1c0.1,1.3,0.1,2.2,0.1,2.7v3.9h-1.6v-8.3h2.4l2,6.4h0l2.1-6.4h2.4v8.3H61v-3.9
		c0-0.2,0-0.4,0-0.6s0-0.9,0.1-1.9H61l-2.1,6.5H57.2z"/>
</g>
<path class="st1" d="M56,67.2H40.8c-6,0-11-4.9-11-11v0c0-6,4.9-11,11-11H56c6,0,11,4.9,11,11v0C66.9,62.2,62,67.2,56,67.2z"/>
<g>
	<circle class="st2" cx="65.6" cy="65.6" r="6.6"/>
	<circle class="st3" cx="65.5" cy="66.2" r="6.6"/>
	<g id="Interface-Essential__x2F__Time-Files__x2F__time-clock-file-check_1_">
		<g id="Group_236_1_">
			<g id="time-clock-file-check_1_">
				<path id="Oval_147_1_" class="st4" d="M65.6,71.8c3.6,0,6.5-2.9,6.5-6.5c0-3.6-2.9-6.5-6.5-6.5c-3.6,0-6.5,2.9-6.5,6.5
					C59.1,68.8,62,71.8,65.6,71.8z"/>
				<path id="Shape_1069_1_" class="st4" d="M68.5,63.3l-3.2,4.2c-0.1,0.2-0.4,0.3-0.6,0.3c-0.2,0-0.5-0.1-0.6-0.2L62.5,66"/>
			</g>
		</g>
	</g>
</g>
</svg>
