<?xml version="1.0" encoding="utf-8"?>
<!-- Generator: Adobe Illustrator 24.0.1, SVG Export Plug-In . SVG Version: 6.00 Build 0)  -->
<svg version="1.1" id="Layer_3" xmlns="http://www.w3.org/2000/svg" xmlns:xlink="http://www.w3.org/1999/xlink" x="0px" y="0px"
	 viewBox="0 0 75 75" style="enable-background:new 0 0 75 75;" xml:space="preserve">
<style type="text/css">
	.st0{opacity:0.2;fill:#0068DA;enable-background:new    ;}
	.st1{fill:none;stroke:#0068DA;stroke-width:2;stroke-miterlimit:10;}
	.st2{fill:#0068DA;}
	.st3{fill:none;stroke:#0068DA;stroke-width:2;stroke-linecap:round;stroke-linejoin:round;}
	.st4{fill:none;stroke:#0068DA;stroke-width:2;stroke-linejoin:round;}
	.st5{opacity:0.1;fill:none;stroke:#0068DA;stroke-width:2.02;stroke-miterlimit:10;enable-background:new    ;}
	.st6{fill:none;stroke:#0068DA;stroke-width:2.02;stroke-miterlimit:10;}
</style>
<path class="st0" d="M36.1,22.8H4.3c-0.5,0-0.9-0.4-0.9-0.9V10.4c0-0.5,0.4-0.9,0.9-0.9h31.8c0.5,0,0.9,0.4,0.9,0.9v11.5
	C37,22.4,36.6,22.8,36.1,22.8z"/>
<title>Scanning threat reporting_blue</title>
<g id="Layer_2_1_">
	<path class="st0" d="M38.8,41.5h9v4.7c0,2.5-2,4.5-4.5,4.5h0l0,0c-1.2,0-2.4-0.4-3.2-1.3c-0.9-0.8-1.3-2-1.3-3.2L38.8,41.5z"/>
	<path class="st1" d="M38.8,41.5h9v4.7c0,2.5-2,4.5-4.5,4.5h0l0,0c-1.2,0-2.4-0.4-3.2-1.3c-0.9-0.8-1.3-2-1.3-3.2L38.8,41.5z"/>
	<path class="st2" d="M46.8,39.5h-7v-0.4c0-1,0.3-1.9,1-2.7c1.2-1.4,3.4-1.5,4.8-0.2c0.1,0.1,0.2,0.2,0.2,0.2c0.7,0.7,1,1.7,1,2.7
		V39.5z"/>
	<line class="st3" x1="47.9" y1="42" x2="50.6" y2="39.4"/>
	<line class="st3" x1="47.8" y1="46.5" x2="51.5" y2="46.5"/>
	<line class="st3" x1="46.9" y1="50.2" x2="49.6" y2="53.1"/>
	<line class="st3" x1="35.8" y1="39.4" x2="38.2" y2="41.8"/>
	<line class="st3" x1="34.8" y1="46.5" x2="38.8" y2="46.5"/>
	<line class="st3" x1="36.8" y1="53" x2="39.7" y2="50.1"/>
	<line class="st4" x1="72.9" y1="74.3" x2="55.7" y2="57"/>
	<circle class="st4" cx="43.1" cy="44.5" r="17"/>
</g>
<g>
	<path class="st5" d="M50,2.3l14.1,13.9H50V2.3z"/>
	<path class="st6" d="M49.9,1v12.3c0,1.7,0.9,2.8,2.6,2.8h12.5"/>
	<path class="st6" d="M9.4,10.7V4.2c0-1.7,1.4-3.1,3.1-3.1h37.5l15.1,14.8v50.9c0,1.7-1.4,3.1-3.1,3.1H12.7c-1.8,0-3.3-1.5-3.3-3.3
		V22.2"/>
</g>
<path class="st6" d="M36.1,23.1H4.3c-0.5,0-0.9-0.4-0.9-0.9V10.7c0-0.5,0.4-0.9,0.9-0.9h31.8c0.5,0,0.9,0.4,0.9,0.9v11.5
	C37,22.7,36.6,23.1,36.1,23.1z"/>
<g>
	<path class="st2" d="M14,18.3c0,0.8-0.3,1.4-0.8,1.8s-1.3,0.7-2.3,0.7c-0.9,0-1.7-0.2-2.4-0.5v-1.7c0.6,0.3,1.1,0.4,1.5,0.5
		s0.8,0.2,1.1,0.2c0.4,0,0.7-0.1,0.9-0.2s0.3-0.4,0.3-0.7c0-0.2,0-0.3-0.1-0.4s-0.2-0.3-0.4-0.4s-0.6-0.3-1.1-0.6
		c-0.5-0.2-0.9-0.5-1.2-0.7s-0.5-0.5-0.6-0.8s-0.2-0.7-0.2-1.1c0-0.8,0.3-1.4,0.8-1.8s1.2-0.7,2.1-0.7c0.4,0,0.9,0.1,1.3,0.2
		s0.8,0.3,1.3,0.4l-0.6,1.4c-0.5-0.2-0.8-0.3-1.1-0.4s-0.6-0.1-0.9-0.1c-0.3,0-0.6,0.1-0.8,0.2s-0.3,0.4-0.3,0.6
		c0,0.2,0,0.3,0.1,0.4s0.2,0.2,0.4,0.3s0.5,0.3,1.2,0.6c0.8,0.4,1.3,0.8,1.6,1.2S14,17.8,14,18.3z"/>
	<path class="st2" d="M20.2,15.7l1.8-3.5h2l-2.8,5.2v3.3h-1.8v-3.3l-2.8-5.3h2L20.2,15.7z"/>
	<path class="st2" d="M32,18.3c0,0.8-0.3,1.4-0.8,1.8s-1.3,0.7-2.3,0.7c-0.9,0-1.7-0.2-2.4-0.5v-1.7c0.6,0.3,1.1,0.4,1.5,0.5
		s0.8,0.2,1.1,0.2c0.4,0,0.7-0.1,0.9-0.2s0.3-0.4,0.3-0.7c0-0.2,0-0.3-0.1-0.4s-0.2-0.3-0.4-0.4s-0.6-0.3-1.1-0.6
		c-0.5-0.2-0.9-0.5-1.2-0.7s-0.5-0.5-0.6-0.8s-0.2-0.7-0.2-1.1c0-0.8,0.3-1.4,0.8-1.8s1.2-0.7,2.1-0.7c0.4,0,0.9,0.1,1.3,0.2
		s0.8,0.3,1.3,0.4l-0.6,1.4c-0.5-0.2-0.8-0.3-1.1-0.4s-0.6-0.1-0.9-0.1c-0.3,0-0.6,0.1-0.8,0.2s-0.3,0.4-0.3,0.6
		c0,0.2,0,0.3,0.1,0.4s0.2,0.2,0.4,0.3s0.5,0.3,1.2,0.6c0.8,0.4,1.3,0.8,1.6,1.2S32,17.8,32,18.3z"/>
</g>
</svg>
