<?xml version="1.0" encoding="utf-8"?>
<!-- Generator: Adobe Illustrator 24.0.1, SVG Export Plug-In . SVG Version: 6.00 Build 0)  -->
<svg version="1.1" id="Layer_1" xmlns="http://www.w3.org/2000/svg" xmlns:xlink="http://www.w3.org/1999/xlink" x="0px" y="0px"
	 viewBox="0 0 75 75" style="enable-background:new 0 0 75 75;" xml:space="preserve">
<style type="text/css">
	.st0{fill:none;stroke:#0D72B9;stroke-width:2;stroke-miterlimit:10;}
	.st1{clip-path:url(#SVGID_2_);}
	.st2{fill:none;stroke:#0068DA;stroke-width:2.02;stroke-miterlimit:10;}
	.st3{opacity:0.1;fill:#0D72B9;enable-background:new    ;}
	.st4{clip-path:url(#SVGID_4_);}
	.st5{fill:#0D72B9;fill-opacity:0.1;}
	.st6{fill:#0D72B9;}
	.st7{fill:#0068DA;}
	.st8{fill:#FFFFFF;}
	.st9{fill:#FFFFFF;stroke:#0068DA;stroke-width:2.02;stroke-miterlimit:10;}
	.st10{opacity:0.2;}
</style>
<path class="st0" d="M61.3,47.2v-34c0-1.2-1-2.2-2.2-2.2l0,0H21l-8.7,8.7v51.1c0,1.2,1,2.2,2.2,2.2l0,0h36.8"/>
<g>
	<defs>
		<path id="SVGID_1_" d="M61.3,47.2v-34c0-1.2-1-2.2-2.2-2.2l0,0H21l-8.7,8.7v51.1c0,1.2,1,2.2,2.2,2.2l0,0h44.6
			c1.2,0,2.2-1,2.2-2.2V47.2z"/>
	</defs>
	<clipPath id="SVGID_2_">
		<use xlink:href="#SVGID_1_"  style="overflow:visible;"/>
	</clipPath>
	<g class="st1">
		<path class="st2" d="M5.3,19.4c0,0.3,0.3,0.6,0.6,0.6h15.8c0.3,0,0.6-0.3,0.6-0.6V3.6C22.3,3.3,22,3,21.7,3H5.9
			C5.6,3,5.3,3.3,5.3,3.6V19.4z"/>
	</g>
	<use xlink:href="#SVGID_1_"  style="overflow:visible;fill:none;stroke:#0068DA;stroke-width:2.02;stroke-miterlimit:10;"/>
</g>
<path class="st3" d="M1.3,60.2V11L10,2h38.3v9H20.2l-8.9,9.8V62H3.1C2.1,62,1.3,61.2,1.3,60.2L1.3,60.2z"/>
<g>
	<defs>
		<path id="SVGID_3_" d="M1.3,60.2V11L10,2h38.3v9H20.2l-8.9,9.8V62H3.1C2.1,62,1.3,61.2,1.3,60.2L1.3,60.2z"/>
	</defs>
	<clipPath id="SVGID_4_">
		<use xlink:href="#SVGID_3_"  style="overflow:visible;"/>
	</clipPath>
	<g class="st4">
		<path class="st2" d="M-5.7,11.4c0,0.3,0.3,0.6,0.6,0.6h15.8c0.3,0,0.6-0.3,0.6-0.6V-4.4C11.3-4.7,11-5,10.7-5H-5.1
			c-0.3,0-0.6,0.3-0.6,0.6V11.4z"/>
	</g>
</g>
<path class="st2" d="M48.3,11V4.1c0-1.2-1-2.1-2.1-2.1H10l-8.7,8.7v49.5c0,1,0.8,1.8,1.8,1.8c0,0,0,0,0,0h9.2"/>
<path class="st2" d="M37.3,33.4c0.5-2-0.1-4.1-1.6-5.5c-1.6-1.6-4-2.1-6.2-1.4l3.6,3.5c0.5,0.5,0.5,1.3,0,1.7c0,0,0,0,0,0l-0.8,0.8
	l-0.1,0.1l-0.1,0.1l-0.8,0.8c-0.5,0.5-1.3,0.5-1.8,0l-3.6-3.5c-0.7,2.1-0.2,4.4,1.4,6c1.5,1.4,3.6,2,5.6,1.5l12.5,12.2
	c1.2,1.2,3.1,1.2,4.3,0c1.2-1.2,1.2-3.1,0-4.2L37.3,33.4z"/>
<path class="st5" d="M32.2,32.7l-0.1,0.1l-0.8,0.8c-0.5,0.5-1.3,0.5-1.8,0l-3.6-3.5c-0.7,2.1-0.2,4.4,1.4,6c1.5,1.4,3.6,2,5.6,1.5
	l12.5,12.2c1.2,1.2,3.1,1.2,4.3,0"/>
<path class="st0" d="M43.2,38l6.6-6.4c1.2-1.2,1.2-3.1,0-4.2c-1.2-1.2-3.1-1.2-4.3,0l-6.6,6.4"/>
<path class="st2" d="M43.2,38l6.6-6.4c1.2-1.2,1.2-3.1,0-4.2c-1.2-1.2-3.1-1.2-4.3,0l-6.6,6.4"/>
<polygon class="st6" points="27.1,51.2 29.1,48.2 31,47.7 34.5,44.2 34.7,44.3 31.1,47.7 30.6,49.6 27.4,51.6 "/>
<polygon class="st7" points="34.5,42.7 30.5,46.8 28.5,47.3 25.8,51.4 27.3,52.8 31.4,50.2 32,48.2 36.1,44.3 34.5,42.7 "/>
<polygon class="st3" points="39.5,33.7 40.6,37 50.4,27.1 48.3,26 "/>
<path class="st8" d="M73.8,57.4v5.3c0,0.6-0.1,1.1-0.2,1.7c0,0.2-0.1,0.3-0.2,0.4l0,0c-0.1,0.3-0.2,0.6-0.4,0.8l0,0
	c-1,1.9-2.8,3.7-4.6,5.1l-0.1,0.1c-1.5,1.1-3.1,2.1-4.7,3c-0.9-0.5-1.9-1.1-2.8-1.7l-0.4-0.2l-0.2-0.2l-0.6-0.4h0
	c-3.3-2.4-5.9-5.4-5.9-8.5V55c2.2-0.7,6.4-2.2,8.5-3l1.6-0.6l4.8,1.7l1.8,0.6l3.4,1.2l0.2,0V57.4z M53.5,55.2v-5.4
	c1.5-0.6,6-2.1,8.2-2.9l1.5-0.5l0.3-0.1c1.2,0.4,6,2.1,8.8,3.1l1.4,0.5v5.4"/>
<g id="Layer_2_1_">
	<path class="st9" d="M73.8,57.3v5.3c0,0.6-0.1,1.1-0.2,1.7c0,0.2-0.1,0.3-0.2,0.4l0,0c-0.1,0.3-0.2,0.6-0.4,0.8l0,0
		c-1,1.9-2.8,3.7-4.6,5.1l-0.1,0.1c-1.5,1.1-3.1,2.1-4.7,3c-0.9-0.5-1.9-1.1-2.8-1.7l-0.4-0.2l-0.2-0.2l-0.6-0.4h0
		c-3.3-2.4-5.9-5.4-5.9-8.5V55c2.2-0.7,6.4-2.2,8.5-3l1.6-0.6l4.8,1.7l1.8,0.6l3.4,1.2l0.2,0V57.3z M53.6,55.1v-5.4
		c1.5-0.6,6-2.1,8.2-2.9l1.5-0.5l0.3-0.1c1.2,0.4,6,2.1,8.8,3.1l1.4,0.5v5.4"/>
	<path class="st2" d="M70,53.7V62c0,0.4,0,0.7-0.2,1c0,0.1,0,0.2-0.1,0.3l0,0c-0.1,0.2-0.2,0.4-0.2,0.5l0,0
		c-0.6,1.2-1.7,2.3-2.8,3.2L66.6,67c-0.9,0.7-1.9,1.3-3,1.9c-0.6-0.3-1.2-0.7-1.8-1l-0.2-0.2l-0.2-0.1l-0.4-0.3h0
		c-2.1-1.5-3.7-3.4-3.7-5.3v-8.4"/>
	<g class="st10">
		<path class="st7" d="M57.4,53.7l6.3-2.2c0,1.9,0,15.6,0,17.3c-1-0.6-2-1.1-3-1.9l-0.1-0.1c-1.1-0.9-2.2-2-2.8-3.2l0,0
			c-0.1-0.2-0.2-0.4-0.2-0.5l0,0c0-0.1,0-0.2-0.1-0.3c-0.1-0.3-0.2-0.7-0.2-1V53.7"/>
	</g>
	<line class="st2" x1="63.6" y1="51.4" x2="63.6" y2="68.6"/>
</g>
</svg>
