<svg id="Layer_3" data-name="Layer 3" xmlns="http://www.w3.org/2000/svg" viewBox="0 0 75 75"><defs><style>.cls-1,.cls-4{fill:none;stroke:#0068da;stroke-width:1.75px;}.cls-1{stroke-linecap:round;stroke-linejoin:round;}.cls-2,.cls-3{fill:#0068da;}.cls-2{opacity:0.1;isolation:isolate;}.cls-4{stroke-miterlimit:10;}</style></defs><title>Risk assessment</title><g id="Layer_2" data-name="Layer 2"><line class="cls-1" x1="6.58" y1="5.81" x2="6.58" y2="67.55"/><line class="cls-1" x1="68.58" y1="67.55" x2="6.58" y2="67.55"/><polygon class="cls-2" points="12.22 26.19 22.4 26.65 22.4 62.39 12.22 62.39 12.22 26.19"/><polygon class="cls-2" points="27.08 26.19 37.26 38.2 37.26 62.39 27.08 62.39 27.08 26.19"/><polygon class="cls-2" points="41.92 38.03 52.12 38.71 52.12 62.39 41.92 62.39 41.92 38.03"/><polygon class="cls-2" points="56.81 43.2 67 53.65 67 62.39 56.81 62.39 56.81 43.2"/><polygon class="cls-3" points="1.58 7.6 6.58 2.6 11.56 7.6 1.58 7.6"/><polygon class="cls-3" points="68.37 62.52 73.37 67.52 68.37 72.5 68.37 62.52"/><polyline class="cls-4" points="12.22 26.22 27.9 26.22 37.26 38.41 52.12 38.41 66.78 53.23"/></g></svg>