<?xml version="1.0" encoding="utf-8"?>
<!-- Generator: Adobe Illustrator 24.0.1, SVG Export Plug-In . SVG Version: 6.00 Build 0)  -->
<svg version="1.1" id="Layer_1" xmlns="http://www.w3.org/2000/svg" xmlns:xlink="http://www.w3.org/1999/xlink" x="0px" y="0px"
	 viewBox="0 0 75 75" style="enable-background:new 0 0 75 75;" xml:space="preserve">
<style type="text/css">
	.st0{fill:none;stroke:#0068DA;stroke-width:2;stroke-miterlimit:10;}
	.st1{fill:none;stroke:#0068DA;stroke-width:2;stroke-linecap:round;stroke-linejoin:round;}
	.st2{opacity:0.15;fill:#0068DA;enable-background:new    ;}
</style>
<g id="Layer_2_2_">
	<path class="st0" d="M6.7,4.6h61.7c1.1,0,2,0.9,2,2v61.7c0,1.1-0.9,2-2,2H6.7c-1.1,0-2-0.9-2-2V6.7C4.6,5.5,5.5,4.6,6.7,4.6z"/>
	<line class="st1" x1="29.9" y1="49.8" x2="55.8" y2="49.8"/>
	<path class="st2" d="M49.4,20.3c-0.5-1-1-1.9-1.7-2.7c-4.6-5.6-12.9-6.4-18.5-1.7s-6.4,12.9-1.7,18.5c2.5,3,6.2,4.7,10.1,4.8
		c1.6,0,3.3-0.3,4.8-0.9c1-0.4,2-1,2.9-1.6C50.4,32.9,52.1,26.1,49.4,20.3z M40.4,32.5h-6.1l-2-2.3v-3.8l1.3-1.2h7.9l0.9,1.5v3.8
		L40.4,32.5z"/>
	<path class="st0" d="M40.6,25v-1.9c-0.1-1.7-1.6-3-3.3-2.9c-1.6,0.1-2.8,1.3-2.9,2.9V25c-0.8,0-1.5,0.7-1.5,1.5v4
		c0,0.8,0.7,1.5,1.5,1.5h6.2c0.8,0,1.5-0.7,1.5-1.5v-4C42,25.6,41.4,25,40.6,25z"/>
	<line class="st0" x1="34.2" y1="24.9" x2="40.7" y2="24.9"/>
	<polyline class="st1" points="17.9,48.5 19.8,50.2 23.6,46.2 	"/>
	<line class="st1" x1="29.9" y1="58.8" x2="55.8" y2="58.8"/>
	<polyline class="st1" points="17.9,57.5 19.8,59.3 23.6,55.2 	"/>
</g>
</svg>
