<?xml version="1.0" encoding="utf-8"?>
<!-- Generator: Adobe Illustrator 24.0.1, SVG Export Plug-In . SVG Version: 6.00 Build 0)  -->
<svg version="1.1" id="Layer_1" xmlns="http://www.w3.org/2000/svg" xmlns:xlink="http://www.w3.org/1999/xlink" x="0px" y="0px"
	 viewBox="0 0 75 75" style="enable-background:new 0 0 75 75;" xml:space="preserve">
<style type="text/css">
	.st0{opacity:0.1;fill:none;stroke:#0068DA;stroke-width:2.02;stroke-miterlimit:10;enable-background:new    ;}
	.st1{fill:none;stroke:#0068DA;stroke-width:2.02;stroke-miterlimit:10;}
	.st2{fill:#0068DA;}
	.st3{fill:none;stroke:#0068DA;stroke-width:2.02;stroke-linecap:round;stroke-miterlimit:10;}
</style>
<g>
	<path class="st0" d="M50.6,2.3L65.5,17H50.6V2.3z"/>
	<path class="st1" d="M50.5,1v13c0,1.8,1,3,2.8,3h13.2"/>
	<path class="st1" d="M66.5,16.7v53.9c0,1.8-1.5,3.3-3.3,3.3H11c-1.9,0-3.5-1.6-3.5-3.5V4.3C7.5,2.5,9,1,10.8,1h39.7L66.5,16.7z"/>
</g>
<g>
	<path class="st2" d="M21,33.8l-0.4-1.7l-0.5-2.2l0,0l-0.9,3.9h-1.4l-1.4-4.9h1.3l0.6,2.2c0.1,0.4,0.2,0.9,0.3,1.6l0,0
		c0-0.2,0.1-0.6,0.2-1.1l0.1-0.4l0.6-2.4H21l0.6,2.4c0,0.1,0,0.2,0.1,0.3c0,0.1,0,0.3,0.1,0.4c0,0.1,0,0.3,0.1,0.4
		c0,0.1,0,0.2,0,0.3l0,0c0-0.2,0.1-0.5,0.1-0.9c0.1-0.4,0.1-0.6,0.1-0.7l0.6-2.2H24l-1.4,4.9H21V33.8z"/>
	<path class="st2" d="M29.5,33.8h-1.3v-2.9c0-0.7-0.3-1.1-0.8-1.1c-0.4,0-0.6,0.1-0.8,0.4s-0.3,0.7-0.3,1.2v2.3H25v-6.8h1.3v1.4
		c0,0.1,0,0.4,0,0.8v0.4h0.1c0.3-0.5,0.8-0.7,1.4-0.7s1,0.2,1.3,0.5s0.4,0.8,0.4,1.3C29.5,30.6,29.5,33.8,29.5,33.8z"/>
	<path class="st2" d="M34.3,33.8L34,33.1l0,0c-0.2,0.3-0.5,0.5-0.7,0.6s-0.5,0.2-0.9,0.2c-0.5,0-0.8-0.1-1.1-0.4
		c-0.3-0.3-0.4-0.7-0.4-1.2s0.2-0.9,0.5-1.2c0.4-0.2,0.9-0.4,1.7-0.4H34v-0.2c0-0.5-0.3-0.7-0.8-0.7c-0.4,0-0.9,0.1-1.4,0.4
		l-0.4-0.9c0.6-0.3,1.2-0.4,1.9-0.4s1.2,0.1,1.5,0.4s0.5,0.7,0.5,1.3v3.3L34.3,33.8L34.3,33.8z M33.9,31.5h-0.5
		c-0.4,0-0.7,0.1-0.9,0.2s-0.3,0.3-0.3,0.6c0,0.4,0.2,0.6,0.7,0.6c0.3,0,0.6-0.1,0.7-0.3c0.2-0.2,0.3-0.4,0.3-0.7V31.5z"/>
	<path class="st2" d="M38.9,32.8c0.2,0,0.5-0.1,0.8-0.2v1c-0.3,0.1-0.7,0.2-1.2,0.2s-0.9-0.1-1.2-0.4c-0.2-0.3-0.4-0.7-0.4-1.2v-2.4
		h-0.6v-0.6l0.7-0.4l0.4-1h0.9v1h1.4v1h-1.4v2.4c0,0.2,0.1,0.3,0.2,0.4C38.6,32.7,38.8,32.8,38.9,32.8z"/>
	<path class="st2" d="M21,44.6l-0.4-1.7l-0.5-2.2l0,0l-0.9,3.9h-1.4l-1.4-4.9h1.3l0.6,2.2c0.1,0.4,0.2,0.9,0.3,1.6l0,0
		c0-0.2,0.1-0.6,0.2-1.1l0.1-0.4l0.6-2.4H21l0.6,2.4c0,0.1,0,0.2,0.1,0.3c0,0.1,0,0.3,0.1,0.4c0,0.1,0,0.3,0.1,0.4
		c0,0.1,0,0.2,0,0.3l0,0c0-0.2,0.1-0.5,0.1-0.9c0.1-0.4,0.1-0.6,0.1-0.7l0.6-2.2H24l-1.4,4.9H21V44.6z"/>
	<path class="st2" d="M29.5,44.6h-1.3v-2.9c0-0.7-0.3-1.1-0.8-1.1c-0.4,0-0.6,0.1-0.8,0.4s-0.3,0.7-0.3,1.2v2.3H25v-6.8h1.3v1.4
		c0,0.1,0,0.4,0,0.8v0.4h0.1c0.3-0.5,0.8-0.7,1.4-0.7s1,0.2,1.3,0.5s0.4,0.8,0.4,1.3C29.5,41.4,29.5,44.6,29.5,44.6z"/>
	<path class="st2" d="M33.4,44.6c-0.8,0-1.4-0.2-1.9-0.7s-0.7-1.1-0.7-1.9c0-0.8,0.2-1.5,0.6-1.9s1-0.7,1.7-0.7s1.2,0.2,1.6,0.6
		s0.6,0.9,0.6,1.6v0.7h-3.2c0,0.4,0.1,0.7,0.3,0.9s0.5,0.3,0.9,0.3c0.3,0,0.6,0,0.8-0.1s0.5-0.2,0.8-0.3v1c-0.2,0.1-0.5,0.2-0.8,0.3
		C34.1,44.6,33.8,44.6,33.4,44.6z M33.2,40.5c-0.3,0-0.5,0.1-0.7,0.3s-0.3,0.4-0.3,0.8h1.9c0-0.3-0.1-0.6-0.3-0.8
		C33.7,40.6,33.5,40.5,33.2,40.5z"/>
	<path class="st2" d="M41.3,44.6H40v-2.9c0-0.4-0.1-0.6-0.2-0.8s-0.3-0.3-0.6-0.3c-0.4,0-0.6,0.1-0.8,0.4c-0.2,0.3-0.3,0.7-0.3,1.2
		v2.3h-1.3v-4.9h1l0.2,0.6h0c0.1-0.2,0.4-0.4,0.6-0.5c0.3-0.1,0.6-0.2,0.9-0.2c0.6,0,1,0.2,1.3,0.5s0.4,0.8,0.4,1.3L41.3,44.6
		L41.3,44.6z"/>
	<path class="st2" d="M21,55.4l-0.4-1.7l-0.5-2.2l0,0l-0.9,3.9h-1.4l-1.4-4.9h1.3l0.6,2.2c0.1,0.4,0.2,0.9,0.3,1.6l0,0
		c0-0.2,0.1-0.6,0.2-1.1l0.1-0.4l0.6-2.4H21l0.6,2.4c0,0.1,0,0.2,0.1,0.3c0,0.1,0,0.3,0.1,0.4c0,0.1,0,0.3,0.1,0.4
		c0,0.1,0,0.2,0,0.3l0,0c0-0.2,0.1-0.5,0.1-0.9c0.1-0.4,0.1-0.6,0.1-0.7l0.6-2.2H24l-1.4,4.9H21V55.4z"/>
	<path class="st2" d="M29.5,55.4h-1.3v-2.9c0-0.7-0.3-1.1-0.8-1.1c-0.4,0-0.6,0.1-0.8,0.4s-0.3,0.7-0.3,1.2v2.3H25v-6.8h1.3v1.4
		c0,0.1,0,0.4,0,0.8v0.4h0.1c0.3-0.5,0.8-0.7,1.4-0.7s1,0.2,1.3,0.5s0.4,0.8,0.4,1.3C29.5,52.2,29.5,55.4,29.5,55.4z"/>
	<path class="st2" d="M33.4,55.4c-0.8,0-1.4-0.2-1.9-0.7s-0.7-1.1-0.7-1.9c0-0.8,0.2-1.5,0.6-1.9s1-0.7,1.7-0.7s1.2,0.2,1.6,0.6
		s0.6,0.9,0.6,1.6v0.7h-3.2c0,0.4,0.1,0.7,0.3,0.9s0.5,0.3,0.9,0.3c0.3,0,0.6,0,0.8-0.1s0.5-0.2,0.8-0.3v1c-0.2,0.1-0.5,0.2-0.8,0.3
		C34.1,55.4,33.8,55.4,33.4,55.4z M33.2,51.3c-0.3,0-0.5,0.1-0.7,0.3s-0.3,0.4-0.3,0.8h1.9c0-0.3-0.1-0.6-0.3-0.8
		C33.7,51.4,33.5,51.3,33.2,51.3z"/>
	<path class="st2" d="M39.5,50.3c0.2,0,0.3,0,0.5,0l-0.1,1.3c-0.1,0-0.2,0-0.4,0c-0.4,0-0.8,0.1-1,0.3s-0.4,0.5-0.4,0.9v2.5h-1.3
		v-4.9h1l0.2,0.8l0,0c0.2-0.3,0.4-0.5,0.6-0.7C38.9,50.4,39.2,50.3,39.5,50.3z"/>
	<path class="st2" d="M43.3,55.4c-0.8,0-1.4-0.2-1.9-0.7s-0.7-1.1-0.7-1.9c0-0.8,0.2-1.5,0.6-1.9c0.4-0.4,1-0.7,1.7-0.7
		s1.2,0.2,1.6,0.6s0.6,0.9,0.6,1.6v0.7H42c0,0.4,0.1,0.7,0.3,0.9s0.5,0.3,0.9,0.3c0.3,0,0.6,0,0.8-0.1s0.5-0.2,0.8-0.3v1
		c-0.2,0.1-0.5,0.2-0.8,0.3C44,55.4,43.7,55.4,43.3,55.4z M43.1,51.3c-0.3,0-0.5,0.1-0.7,0.3s-0.3,0.4-0.3,0.8H44
		c0-0.3-0.1-0.6-0.3-0.8C43.6,51.4,43.4,51.3,43.1,51.3z"/>
</g>
<line class="st3" x1="43.7" y1="31.4" x2="56.2" y2="31.4"/>
<line class="st3" x1="46.6" y1="42.2" x2="56.2" y2="42.2"/>
<line class="st3" x1="50.1" y1="53.2" x2="56.2" y2="53.2"/>
</svg>
