<?xml version="1.0" encoding="UTF-8"?>
<svg id="Layer_2" data-name="Layer 2" xmlns="http://www.w3.org/2000/svg" xmlns:xlink="http://www.w3.org/1999/xlink" viewBox="0 0 498.97 500">
  <defs>
    <style>
      .cls-1 {
        fill: url(#linear-gradient-2);
      }

      .cls-2 {
        fill: url(#linear-gradient);
      }
    </style>
    <linearGradient id="linear-gradient" x1="0" y1="250" x2="498.97" y2="250" gradientUnits="userSpaceOnUse">
      <stop offset="0" stop-color="#0f26ab"/>
      <stop offset="1" stop-color="#00b0cf"/>
    </linearGradient>
    <linearGradient id="linear-gradient-2" x1="228.85" y1="241.69" x2="349.86" y2="241.69" xlink:href="#linear-gradient"/>
  </defs>
  <g id="Layer_1-2" data-name="Layer 1">
    <g>
      <path class="cls-2" d="m0,264.65v-29.3c.4-3.52.81-7.03,1.2-10.55,5.97-53.79,26.48-101.25,62.67-141.48C102.29,40.6,149.9,13.94,206.54,3.89,215.92,2.23,225.44,1.28,234.89,0c9.75,0,19.49,0,29.24,0,1.58.3,3.15.65,4.73.88,10.9,1.58,21.95,2.46,32.69,4.8,59.73,13.01,108.51,43.86,145.71,92.36,40.04,52.2,56.7,111.64,50.41,177.04-5.07,52.82-25.5,99.48-60.56,139.35-38.68,43.99-86.92,71.38-144.62,81.68-9.39,1.67-18.91,2.61-28.36,3.89h-29.24c-1.25-.28-2.49-.72-3.76-.81-39.03-2.76-75.54-13.94-108.86-34.4C57.64,425.1,17.86,367.88,3.89,293.02c-1.75-9.37-2.61-18.91-3.89-28.37ZM249.85,54.69c-107.23-.16-195.11,87.59-195.27,194.98-.16,107.44,87.41,195.49,194.6,195.65,107.23.16,195.11-87.58,195.27-194.97.16-107.43-87.42-195.49-194.6-195.66Z"/>
      <path class="cls-1" d="m271.04,196.01c0,16.6-.13,33.2.14,49.79.04,2.56,1.32,5.71,3.1,7.52,22.59,22.92,45.42,45.62,68.11,68.44,8.95,9.01,9.88,20.47,2.64,29.43-7.12,8.81-19.72,10.48-28.8,3.73-1.69-1.25-3.22-2.74-4.71-4.23-24.7-24.72-49.32-49.53-74.13-74.15-5.79-5.75-8.58-12.22-8.55-20.4.15-36.45.01-72.9.09-109.34.03-13.12,9.19-22.65,21.23-22.46,11.97.18,20.77,9.52,20.84,22.37.1,16.43.02,32.87.03,49.3Z"/>
    </g>
  </g>
</svg>