<?xml version="1.0" encoding="UTF-8"?>
<svg id="Layer_2" data-name="Layer 2" xmlns="http://www.w3.org/2000/svg" xmlns:xlink="http://www.w3.org/1999/xlink" viewBox="0 0 470.21 470.24">
  <defs>
    <style>
      .cls-1 {
        fill: url(#linear-gradient-2);
      }

      .cls-2 {
        fill: url(#linear-gradient-3);
      }

      .cls-3 {
        fill: url(#linear-gradient);
      }

      .cls-4 {
        fill: url(#linear-gradient-4);
      }
    </style>
    <linearGradient id="linear-gradient" x1="0" y1="260.3" x2="470.21" y2="260.3" gradientUnits="userSpaceOnUse">
      <stop offset="0" stop-color="#0f26ab"/>
      <stop offset="1" stop-color="#00b0cf"/>
    </linearGradient>
    <linearGradient id="linear-gradient-2" x1="100.93" y1="25.31" x2="134.41" y2="25.31" xlink:href="#linear-gradient"/>
    <linearGradient id="linear-gradient-3" x1="336.04" y1="25.31" x2="369.51" y2="25.31" xlink:href="#linear-gradient"/>
    <linearGradient id="linear-gradient-4" x1="117.6" y1="319.11" x2="352.61" y2="319.11" xlink:href="#linear-gradient"/>
  </defs>
  <g id="Layer_1-2" data-name="Layer 1">
    <g>
      <path class="cls-3" d="m0,426.13C0,315.62,0,205.1,0,94.59c.32-1.17.71-2.32.94-3.5,4.27-21.91,23.37-39.56,45.16-40.39,18.32-.69,36.69-.11,55.04-.09l-.18-.17c-.03,22.34-.17,44.67-.04,67,.06,9.69,7.16,16.66,16.4,16.75,9.49.09,16.8-6.88,16.86-16.75.14-22.33-.01-44.67-.04-67.01,0,0-.18.17-.18.17,1.37-.06,2.75-.18,4.12-.18,64.68,0,129.36,0,194.04,0,1.37,0,2.75.12,4.12.18,0,0-.18-.17-.18-.17-.03,22.34-.17,44.67-.04,67,.06,9.69,7.16,16.66,16.4,16.75,9.49.09,16.8-6.88,16.86-16.75.14-22.33-.01-44.67-.04-67.01,0,0-.18.17-.18.17,16.37-.06,32.75-.21,49.12-.17,30.35.08,52,21.76,52.01,52.15.03,105.15.03,210.29-.04,315.44,0,4.4-.37,8.91-1.37,13.18-5.52,23.62-25.52,38.98-50.63,38.99-85.86.03-171.72.01-257.58.01-36.58,0-73.16.08-109.74-.03-22.55-.07-41.43-13.81-48.3-34.84C1.54,432.31.84,429.2,0,426.13Zm33.62-224.35c0,2.1,0,3.9,0,5.71,0,69.49,0,138.98.01,208.46,0,2.14.02,4.3.29,6.41.89,7.11,6.75,13.01,13.85,13.9,2.42.3,4.89.3,7.33.3,120,.01,239.99.01,359.99,0,2.45,0,4.91,0,7.33-.3,7.11-.9,12.96-6.78,13.86-13.9.25-1.97.29-3.97.29-5.96.01-69.79.01-139.59.01-209.38v-5.26H33.62Z"/>
      <path class="cls-1" d="m101.14,50.61c-.05-11.88-.41-23.76-.05-35.63.24-8.02,5.98-12.15,12.79-14.98h7.35c10.01,3.67,13.69,11,13.13,21.38-.53,9.72-.29,19.48-.39,29.23,0,0,.18-.17.18-.17h-33.18l.18.17Z"/>
      <path class="cls-2" d="m356.33,0c10.01,3.67,13.69,11,13.13,21.38-.53,9.72-.29,19.48-.39,29.23,0,0,.18-.17.18-.17h-33.18s.18.17.18.17c-.05-11.88-.41-23.76-.05-35.63.24-8.02,5.98-12.15,12.79-14.98h7.35Z"/>
      <path class="cls-4" d="m201.31,363.96c2.17-2.8,3.08-4.26,4.26-5.44,38.81-38.87,77.67-77.69,116.47-116.58,4.95-4.96,10.42-8.07,17.62-6.29,12.41,3.05,17.05,17.41,8.83,27.19-1.08,1.29-2.29,2.47-3.48,3.65-42.95,42.96-85.9,85.91-128.85,128.86-10.26,10.26-18.99,10.31-29.15.16-20.99-20.98-41.96-41.99-62.98-62.96-4.98-4.97-7.76-10.57-5.79-17.74,3.29-11.92,17.12-16.39,26.72-8.62,1.3,1.06,2.48,2.27,3.67,3.46,16.34,16.33,32.69,32.66,48.99,49.04,1.17,1.18,1.95,2.76,3.69,5.28Z"/>
    </g>
  </g>
</svg>