<?xml version="1.0" encoding="UTF-8"?>
<svg id="Layer_2" data-name="Layer 2" xmlns="http://www.w3.org/2000/svg" xmlns:xlink="http://www.w3.org/1999/xlink" viewBox="0 0 335.5 483.93">
  <defs>
    <style>
      .cls-1 {
        fill: url(#linear-gradient);
      }
    </style>
    <linearGradient id="linear-gradient" x1="0" y1="241.96" x2="335.5" y2="241.96" gradientUnits="userSpaceOnUse">
      <stop offset="0" stop-color="#0f26ab"/>
      <stop offset="1" stop-color="#00b0cf"/>
    </linearGradient>
  </defs>
  <g id="Layer_1-2" data-name="Layer 1">
    <path class="cls-1" d="m167.82,483.93c-8.99-11.34-17.81-22.09-26.23-33.14-31.35-41.13-61.05-83.4-86.67-128.41-19.69-34.6-37.33-70.14-48.17-108.71-12.11-43.07-7.97-84.58,12.85-123.97C38.8,53.36,67.85,27.31,106.11,12.07c36.17-14.41,73.16-15.87,110.33-4.62,38.64,11.7,69.23,34.86,91.5,68.55,20.23,30.61,29.43,64.51,27.25,101.22-1.31,21.99-7.79,42.84-15.79,63.21-21.41,54.53-51.37,104.4-84.45,152.38-20.56,29.82-42.76,58.51-64.24,87.7-.69.93-1.49,1.78-2.88,3.43Zm-.46-245.54c39.56.31,71.84-31.61,72.11-71.3.27-39.24-31.67-71.69-70.93-72.03-39.85-.35-72.16,31.67-72.27,71.6-.1,39.49,31.55,71.43,71.08,71.73Z"/>
  </g>
</svg>