<?xml version="1.0" encoding="UTF-8"?>
<svg id="Layer_2" data-name="Layer 2" xmlns="http://www.w3.org/2000/svg" xmlns:xlink="http://www.w3.org/1999/xlink" viewBox="0 0 494.11 474.47">
  <defs>
    <style>
      .cls-1 {
        fill: url(#linear-gradient-2);
      }

      .cls-2 {
        fill: url(#linear-gradient-3);
      }

      .cls-3 {
        fill: url(#linear-gradient);
      }
    </style>
    <linearGradient id="linear-gradient" x1="341.9" y1="234.17" x2="494.11" y2="234.17" gradientUnits="userSpaceOnUse">
      <stop offset="0" stop-color="#0f26ab"/>
      <stop offset="1" stop-color="#00b0cf"/>
    </linearGradient>
    <linearGradient id="linear-gradient-2" x1="0" y1="240.26" x2="152.13" y2="240.26" xlink:href="#linear-gradient"/>
    <linearGradient id="linear-gradient-3" x1="189.91" y1="237.11" x2="304.13" y2="237.11" xlink:href="#linear-gradient"/>
  </defs>
  <g id="Layer_1-2" data-name="Layer 1">
    <g>
      <path class="cls-3" d="m342.05,468.34v-6.71c0-134.74.04-269.48-.15-404.22,0-5.55,1.79-7.73,6.74-9.64,39.07-15.07,78-30.49,117.01-45.72,15.98-6.24,28.41,2.19,28.41,19.23.02,124.06-.02,248.11.06,372.17,0,10.02-3.84,17.12-13.35,20.84-45.05,17.66-90.1,35.34-135.15,53-.9.35-1.85.55-3.56,1.05Z"/>
      <path class="cls-1" d="m152.02,6.05v6.66c0,134.94-.03,269.87.11,404.81,0,4.89-1.4,7.13-6.05,8.92-39.62,15.28-79.1,30.92-118.67,46.33-12.4,4.83-24.2-.97-26.92-13.02-.47-2.09-.47-4.32-.47-6.48C0,329.21,0,205.16,0,81.1c0-11.57,3.68-17.09,14.32-21.28C58.81,42.33,103.31,24.88,147.81,7.43c1.09-.43,2.22-.73,4.2-1.38Z"/>
      <path class="cls-2" d="m190.03,5.78c14.47,5.68,28.05,11.01,41.63,16.32,22.63,8.86,45.25,17.75,67.92,26.49,3.17,1.22,4.55,2.69,4.55,6.36-.11,136.75-.09,273.5-.1,410.25,0,.78-.1,1.56-.21,3.25-4.83-1.87-9.32-3.6-13.8-5.35-31.65-12.38-63.27-24.82-94.96-37.08-3.58-1.39-5.15-2.91-5.15-7.12.14-136.15.11-272.31.11-408.46,0-1.17,0-2.35,0-4.66Z"/>
    </g>
  </g>
</svg>