<?xml version="1.0" encoding="UTF-8"?>
<svg id="Layer_2" data-name="Layer 2" xmlns="http://www.w3.org/2000/svg" xmlns:xlink="http://www.w3.org/1999/xlink" viewBox="0 0 500 500.11">
  <defs>
    <style>
      .cls-1 {
        fill: url(#linear-gradient-2);
      }

      .cls-2 {
        fill: url(#linear-gradient);
      }
    </style>
    <linearGradient id="linear-gradient" x1="0" y1="250.06" x2="500" y2="250.06" gradientUnits="userSpaceOnUse">
      <stop offset="0" stop-color="#0f26ab"/>
      <stop offset="1" stop-color="#00b0cf"/>
    </linearGradient>
    <linearGradient id="linear-gradient-2" x1="216.42" y1="249.67" x2="283.57" y2="249.67" xlink:href="#linear-gradient"/>
  </defs>
  <g id="Layer_1-2" data-name="Layer 1">
    <g>
      <path class="cls-2" d="m0,235.47c3.64-9.66,10.64-13.59,20.88-12.98,7.77.46,15.58.09,23.9.09,6.61-46.06,26.09-85.75,58.77-118.5,32.71-32.78,72.33-52.44,118.92-59.14,0-6.9,0-13.66,0-20.43,0-2.93-.07-5.86.11-8.78.49-8.46,6.81-15.08,15.32-15.47,7.96-.36,15.95-.34,23.91-.03,8.94.34,15.38,7.1,15.64,16.17.27,9.26.23,18.52.34,27.79,0,.15.14.29-.09-.17,99.05,20.19,158.2,79.37,178.44,178.57,7.78,0,16.21-.03,24.65,0,12.89.05,19.18,6.32,19.21,19.13.02,5.53.01,11.06,0,16.6-.03,13.1-6.27,19.29-19.5,19.33-8.28.02-16.56,0-24.38,0-20.08,99.08-79.23,158.26-178.57,178.6,0,7.15-.37,15.09.09,22.99.6,10.24-3.31,17.24-12.98,20.88h-29.3c-9.65-3.64-13.58-10.62-12.98-20.85.47-7.9.09-15.84.09-23.02-99.36-20.32-158.55-79.55-178.58-178.6-7.47,0-15.28-.37-23.03.09-10.23.61-17.21-3.33-20.85-12.98v-29.3ZM222.47,101.37c-59.44,8.82-112.16,61.19-121.16,120.62.27.17.53.47.8.47,7,.06,13.99.05,20.99.13,11.36.13,17.86,6.45,18.18,17.78.17,6.02.07,12.04.03,18.06-.1,12.86-6.4,19.15-19.23,19.2-6.93.03-13.86,0-20.88,0,9.52,61.55,63.42,112.81,121.28,121.19,0-7.35-.07-14.64.02-21.93.12-11.28,6.53-17.77,17.89-18.07,5.37-.14,10.76.24,16.11-.08,13.2-.8,22.09,6.41,21.12,20.88-.43,6.39-.07,12.84-.07,19.36,64.26-10.36,113.63-66.32,121.1-121.4-8.01,0-15.96.18-23.9-.05-8.26-.24-14.89-5.85-15.5-14.04-.66-8.89-.66-17.9,0-26.78.61-8.19,7.25-13.72,15.52-14.03,5.69-.22,11.39-.08,17.09-.1,2.34,0,4.67,0,7.1,0-11.3-67.32-69.8-114.62-121.4-120.95,0,7.18.05,14.32-.01,21.46-.11,11.6-6.49,18.07-18.14,18.31-6.02.13-12.04.08-18.06.01-12.51-.14-18.78-6.52-18.84-19.1-.03-6.96,0-13.91,0-20.93Z"/>
      <path class="cls-1" d="m283.57,249.52c.15,18.36-14.86,33.6-33.27,33.79-18.55.19-33.93-15.11-33.87-33.69.06-18.4,15.18-33.54,33.53-33.59,18.31-.05,33.47,15.05,33.62,33.49Z"/>
    </g>
  </g>
</svg>