<?xml version="1.0" encoding="utf-8"?>
<!-- Generator: Adobe Illustrator 24.2.0, SVG Export Plug-In . SVG Version: 6.00 Build 0)  -->
<svg version="1.1" id="Layer_1" xmlns="http://www.w3.org/2000/svg" xmlns:xlink="http://www.w3.org/1999/xlink" x="0px" y="0px"
	 viewBox="0 0 30 30" style="enable-background:new 0 0 30 30;" xml:space="preserve">
<style type="text/css">
	.st0{fill:#FFFFFF;stroke:#0694A9;stroke-width:2;stroke-miterlimit:10;}
</style>
<g>
	<path class="st0" d="M26.4,3.36H3.9c-1.4,0-2.54,1.2-2.54,2.68S2.5,8.71,3.9,8.71h22.5c1.4,0,2.54-1.2,2.54-2.68
		S27.8,3.36,26.4,3.36z"/>
	<path class="st0" d="M26.4,11.58H3.9c-1.4,0-2.54,1.2-2.54,2.68s1.14,2.68,2.54,2.68h22.5c1.4,0,2.54-1.2,2.54-2.68
		S27.8,11.58,26.4,11.58L26.4,11.58z"/>
	<path class="st0" d="M26.4,19.8H3.9c-1.4,0-2.54,1.2-2.54,2.68s1.14,2.68,2.54,2.68h22.5c1.4,0,2.54-1.2,2.54-2.68
		S27.8,19.8,26.4,19.8z"/>
</g>
</svg>
