<?xml version="1.0" encoding="utf-8"?>
<!-- Generator: Adobe Illustrator 26.3.1, SVG Export Plug-In . SVG Version: 6.00 Build 0)  -->
<svg version="1.1" id="Layer_2_00000144326705832039399110000000025298412657821859_"
	 xmlns="http://www.w3.org/2000/svg" xmlns:xlink="http://www.w3.org/1999/xlink" x="0px" y="0px" viewBox="0 0 500 500"
	 style="enable-background:new 0 0 500 500;" xml:space="preserve">
<style type="text/css">
	.st0{fill:#0094A4;}
	.st1{fill:#FFFFFF;}
</style>
<g id="Layer_1-2">
	
		<image style="overflow:visible;opacity:0.66;" width="530" height="530" xlink:href="8B1A8CF7.png"  transform="matrix(1 0 0 1 -8 -8)">
	</image>
	<g>
		<g>
			<circle class="st0" cx="250" cy="250" r="250"/>
			<g>
				<path class="st1" d="M98.3,136.6c1.1,1.2,0.8,2.4,0,3.5V136.6z"/>
				<path class="st1" d="M178.3,133.2c-3-16.5-17.6-30.1-33.4-31.9c-18.7-2.2-35.1,6.5-42.9,23c-1.7,3.6-2.3,7.6-3.7,11.3v1.2
					c0.5,1.2,0.5,2.4,0,3.5v6.5c0.7,0.3,0.5,0.9,0.6,1.5c3.4,17.4,16.9,30.5,34.4,32.9C160.6,184.8,183.3,160.7,178.3,133.2
					L178.3,133.2z M168.8,141.5c0.1,18.2-16.1,30.3-29.4,29.9c-18.4-0.6-31.1-13.4-30.9-30.6c0.3-17.2,13.4-30.2,31-29.8
					C156.3,111.3,169.3,125.2,168.8,141.5L168.8,141.5z"/>
				<path class="st1" d="M398.2,239.1c-6.4-23.2-20.6-39.5-43.2-48.2c-12-4.7-24.6-4.8-37.2-4.4c-11.2,0.4-21.7,3.2-31.5,8.6
					c-6.2,3.4-11.8,7.8-17.2,13.6c0-2.4-0.1-3.8,0-5.2c0.8-7-5.4-12.2-12-12.1c-15.4,0.4-30.9,0.1-46.3,0.1c-8.3,0-12.1,3.8-12.1,12
					c0,61,0,122,0,183c0,7.8,3.7,11.5,11.5,11.6c17.5,0,35,0,52.5,0c7.7,0,11.5-3.9,11.5-11.7c0-34.5,0-69.1,0-103.6
					c0-1.8,0-3.5,0.2-5.3c0.6-7.5,3.3-14.1,8.9-19.4c8.7-8.2,19-9.7,29.8-5.5c8.5,3.2,14.7,9,16.2,18.6c0.6,3.6,0.8,7.2,0.8,10.9
					c0,34.5,0,69.1,0,103.6c0,8.3,4.2,12.4,12.5,12.4c15.2,0,30.5,0,45.8,0c7.9,0,12.2-4.3,12.2-12.2c0-42.1,0-84.2,0-126.3
					C400.6,252.7,400,245.8,398.2,239.1L398.2,239.1z M387.6,388.1c-14.7-0.1-29.3-0.1-44,0c-2.6,0-3-0.8-3-3.2
					c-0.1-34.5-0.2-69.1-0.4-103.6c0-7.5-0.6-15-4.2-21.8c-11.5-22.1-44.3-25.7-61.1-6.7c-7.4,8.4-10.4,18.2-10.4,29.3
					c0.1,34.1,0,68.3,0.1,102.4c0,2.8-0.5,3.6-3.5,3.6c-16.4-0.2-32.9-0.1-49.3,0c-2.2,0-2.8-0.6-2.8-2.8
					c0.1-60.4,0.1-120.8,0-181.2c0-2.1,0.6-2.5,2.6-2.5c15.1,0.1,30.1,0.1,45.2,0c2.1,0,2.7,0.5,2.6,2.6c-0.1,9.6,0,19.3,0,29.1
					c5.1-5,10.5-9.4,14.9-14.6c12.1-14.8,27.7-21.8,46.5-22.1c10-0.2,20.1-0.2,29.7,3.4c20.3,7.7,32.8,22.2,38.2,43.1
					c1.4,5.3,1.8,10.6,1.8,16.1c0,41.9,0,83.8,0,125.8C390.6,387.2,390.1,388.1,387.6,388.1L387.6,388.1z"/>
				<path class="st1" d="M173.9,208.2c0-10.3-6.4-16.7-16.7-16.7c-12.4,0-24.8,0-37.2,0c-10.8,0-16.6,5.7-16.6,16.6
					c0,57.8,0,115.5,0,173.2c0,10.3,6.4,16.8,16.7,16.8c12.3,0,24.6,0,36.9,0c10.6,0,16.9-6.4,16.9-16.9c0-28.7,0-57.5,0-86.2
					S173.9,237.2,173.9,208.2L173.9,208.2z M163.9,381.1c0,5.2-1.6,6.9-6.9,6.9c-12.2,0-24.4,0-36.6,0c-5.1,0-6.9-1.9-6.9-7
					c0-57.5,0-115.1,0-172.6c0-5.4,1.5-6.8,6.8-6.8c12.2,0,24.4,0,36.6,0c5.1,0,7,1.8,7,6.9c0,28.8,0,57.6,0,86.5
					S163.9,352.4,163.9,381.1L163.9,381.1z"/>
			</g>
		</g>
	</g>
</g>
</svg>
