<?xml version="1.0" encoding="utf-8"?>
<!-- Generator: Adobe Illustrator 26.3.1, SVG Export Plug-In . SVG Version: 6.00 Build 0)  -->
<svg version="1.1" id="Layer_2_00000142165624849834424580000004732856074033101446_"
	 xmlns="http://www.w3.org/2000/svg" xmlns:xlink="http://www.w3.org/1999/xlink" x="0px" y="0px" viewBox="0 0 537 537"
	 style="enable-background:new 0 0 537 537;" xml:space="preserve">
<style type="text/css">
	.st0{fill:#0094A4;}
	.st1{fill:#FFFFFF;}
</style>
<g id="Layer_1-2">
	
		<image style="overflow:visible;opacity:0.66;" width="531" height="531" xlink:href="DFF7ED4F.png"  transform="matrix(1 0 0 1 7 3)">
	</image>
	<g>
		<g>
			<circle class="st0" cx="265.5" cy="261.5" r="250"/>
			<path class="st1" d="M414,345.8c-0.2-6.9-3.1-13.5-8.7-18.1c-13.2-10.6-26.5-21.2-40-31.5c-13.5-10.4-31.8-9.3-44.3,2.4
				c-3.6,3.4-7.3,6.8-10.9,10.3c-6.2,5.9-6.3,6.1-14.1,3c-32.7-13.3-58.2-35.1-76.6-65.2c-3.8-6.2-6.4-13.1-7.7-20.4
				c-0.5-2.4-0.2-4.3,1.8-6.2c4.6-4.5,9-9.3,13.4-14c12.7-13.2,13.6-31.5,2.3-45.9c-9.7-12.2-19.5-24.4-29-36.7
				c-5.4-7-12.6-10.2-21-11.1c-9.1-1-17.7,1.6-26.1,4.6c-22.4,8.1-38.5,24.2-37.1,53.5c0.7,15.5,2,30.9,5.5,46
				c16.8,73.5,58.3,128.5,124.4,164.7c33.4,18.2,69.4,27.4,107.5,28.8c2.3,0,4.7,0,7,0c11.6-0.1,22.4-2.8,31.3-10.5
				C407.8,385.2,414.5,366.8,414,345.8L414,345.8z M400.9,351.9c-1.1,9.7-4,18.8-9.1,27.1c-7,11.3-17.3,17.1-30.7,17.1
				c-1.7,0-3.4,0-5.1,0c-104.4-1.8-195.1-74.6-219.8-176.3c-4-16.6-5.8-33.5-6.5-50.6c-1-23.6,12.5-34.2,28.4-39.7
				c7-2.4,14.1-4.8,21.7-3.3c4.1,0.8,7.4,2.5,10.1,6c9.4,12.1,19.1,24.1,28.6,36.2c7.3,9.3,6.7,19.8-1.5,28.4
				c-5.4,5.7-10.8,11.4-16.2,17c-2.4,2.5-3.2,5.2-3,8.6c1.1,14.3,6.7,26.8,14.7,38.4c19.8,28.8,45.6,50.5,78.3,63.5
				c4.3,1.7,8.9,2.8,13.4,3.8c3.2,0.7,5.6-0.2,7.8-2.3c6-5.7,12.1-11.3,18.1-17c8.4-7.9,18.9-8.4,28-1.3c12,9.3,23.8,18.9,35.9,28
				C399.6,339.9,401.6,345.3,400.9,351.9L400.9,351.9z"/>
		</g>
	</g>
</g>
</svg>
