<svg width="74" height="65" viewBox="0 0 74 65" fill="none" xmlns="http://www.w3.org/2000/svg">
<path d="M32.9052 25.1824C32.8175 28.0001 32.9831 29.9363 30.3799 36.2761L35.7537 37.7736L44.0203 35.775C41.8952 30.0852 41.0983 28.2054 40.9629 25.1864L32.9052 25.1824Z" fill="white" fill-opacity="0.1" stroke="white" stroke-width="2" stroke-miterlimit="10"/>
<path d="M53.0405 26.3904L51.9444 26.2266C50.5906 27.3903 49.9219 28.4485 50.5577 31.6953L51.3552 32.473L55.0548 31.9564L53.0405 26.3904Z" fill="white" fill-opacity="0.1" stroke="white"/>
<path d="M13.2232 22.4155L12.0668 22.0294C12.0668 22.0294 10.3951 23.9736 10.4444 25.1763L12.2559 27.7843L14.0673 28.2148L15.2073 26.9483L13.2232 22.4155Z" fill="white" fill-opacity="0.1" stroke="white"/>
<path d="M69.8834 6.67659L68.7269 6.29053C68.7269 6.29053 67.0553 8.23473 67.1046 9.43737L68.916 12.0454L70.7275 12.4759L71.8675 11.2094L69.8834 6.67659Z" fill="white" fill-opacity="0.1" stroke="white"/>
<path d="M26.8195 29.715L24.2983 26.4515L23.7283 26.2266L22.0785 26.8626L21.9854 30.4899L22.591 30.9343L23.1418 30.7177L24.1421 31.2315L26.8195 29.715Z" fill="white" fill-opacity="0.1" stroke="white"/>
<path d="M5.83415 16.0745L3.31294 12.811L2.74293 12.5861L1.09318 13.2221L1 16.8494L1.60564 17.2938L2.15647 17.0772L3.15673 17.591L5.83415 16.0745Z" fill="white" fill-opacity="0.1" stroke="white"/>
<path d="M70.3046 30.7013L69.7017 30.4236L68.8713 30.9707L68.1533 32.4345L71.8694 36.8895L72.8696 36.6867L70.3046 30.7013Z" fill="white" fill-opacity="0.1" stroke="white"/>
<path d="M6.74343 29.652L5.34854 29.3743L3.09863 35.5624H5.17589L6.50775 34.9736L8.71107 32.0906L6.74343 29.652Z" fill="white" fill-opacity="0.1" stroke="white"/>
<path d="M13.7617 31.8835C14.3956 32.526 15.3653 34.193 15.9411 35.8377C16.1448 36.4195 16.7882 36.7568 17.3677 36.5466C19.9153 35.6221 22.5611 34.9984 25.2524 34.6888L35.13 38.1252C35.3457 38.2002 35.5805 38.1992 35.7959 38.1236C37.2627 37.6091 43.2433 35.5505 46.936 34.8704C47.0951 34.8411 47.2566 34.8534 47.4102 34.904C49.232 35.504 50.7596 36.1506 51.9534 36.8471C52.2832 37.0395 52.6923 37.0508 53.0205 36.8555L61.1343 32.0275" stroke="white" stroke-width="2" stroke-miterlimit="10" stroke-linecap="round"/>
<path d="M13.8238 31.5918C12.6834 35.3147 12.418 39.2562 13.0487 43.1016C13.6793 46.947 15.1886 50.5896 17.4559 53.7384C19.7232 56.8873 22.6857 59.455 26.1067 61.2366C29.5277 63.0181 33.3125 63.9641 37.1585 63.9989C41.0046 64.0338 44.8054 63.1565 48.2573 61.4371C51.7092 59.7178 54.7165 57.2041 57.0389 54.0968C59.3614 50.9896 60.9346 47.3749 61.633 43.5416C62.3313 39.7082 62.1354 35.7625 61.0609 32.0195" stroke="white" stroke-width="2" stroke-miterlimit="10" stroke-linecap="round"/>
<path d="M69.3117 23.6523C69.2636 23.4344 69.144 23.2389 68.972 23.0968L66.8245 21.3232C66.5653 21.1091 66.2159 21.0396 65.8944 21.1382L65.2591 21.3331C65.0761 21.3892 64.913 21.4967 64.7893 21.6428L62.8203 23.9678C62.3609 24.5103 62.5983 25.3454 63.2744 25.5651L65.5274 26.2971C65.7468 26.3684 65.9841 26.3616 66.1991 26.278L68.8007 25.2655C69.2602 25.0867 69.5208 24.5996 69.4145 24.118L69.3117 23.6523Z" fill="white" fill-opacity="0.1" stroke="white"/>
<mask id="path-12-inside-1_398_308" fill="white">
<path fill-rule="evenodd" clip-rule="evenodd" d="M47.8573 23.0169C44.6686 24.3838 40.8198 25.1824 36.6756 25.1824C32.5315 25.1824 28.6828 24.3838 25.4941 23.017C25.1866 23.0386 24.8755 23.0497 24.5614 23.0497C18.503 23.0497 13.5918 18.9424 13.5918 13.8759C13.5918 10.0802 16.3482 6.82297 20.2783 5.4277C23.8771 2.14797 29.8792 0 36.6756 0C43.4717 0 49.4736 2.14775 53.0724 5.42719C57.0033 6.82217 59.7604 10.0798 59.7604 13.8759C59.7604 18.9424 54.8491 23.0497 48.7908 23.0497C48.4764 23.0497 48.1651 23.0386 47.8573 23.0169Z"/>
</mask>
<path fill-rule="evenodd" clip-rule="evenodd" d="M47.8573 23.0169C44.6686 24.3838 40.8198 25.1824 36.6756 25.1824C32.5315 25.1824 28.6828 24.3838 25.4941 23.017C25.1866 23.0386 24.8755 23.0497 24.5614 23.0497C18.503 23.0497 13.5918 18.9424 13.5918 13.8759C13.5918 10.0802 16.3482 6.82297 20.2783 5.4277C23.8771 2.14797 29.8792 0 36.6756 0C43.4717 0 49.4736 2.14775 53.0724 5.42719C57.0033 6.82217 59.7604 10.0798 59.7604 13.8759C59.7604 18.9424 54.8491 23.0497 48.7908 23.0497C48.4764 23.0497 48.1651 23.0386 47.8573 23.0169Z" fill="white" fill-opacity="0.1"/>
<path d="M47.8573 23.0169L47.9979 21.0219L47.5147 20.9878L47.0694 21.1787L47.8573 23.0169ZM25.4941 23.017L26.282 21.1787L25.8368 20.9879L25.3536 21.0219L25.4941 23.017ZM20.2783 5.4277L20.9474 7.31245L21.3274 7.17754L21.6255 6.90592L20.2783 5.4277ZM53.0724 5.42719L51.7253 6.90548L52.0234 7.17713L52.4035 7.31202L53.0724 5.42719ZM36.6756 27.1824C41.0691 27.1824 45.1885 26.3369 48.6453 24.8552L47.0694 21.1787C44.1487 22.4306 40.5705 23.1824 36.6756 23.1824V27.1824ZM24.7061 24.8552C28.1629 26.3369 32.2822 27.1824 36.6756 27.1824V23.1824C32.7809 23.1824 29.2026 22.4306 26.282 21.1787L24.7061 24.8552ZM24.5614 25.0497C24.9224 25.0497 25.2803 25.037 25.6346 25.012L25.3536 21.0219C25.0929 21.0403 24.8287 21.0497 24.5614 21.0497V25.0497ZM11.5918 13.8759C11.5918 20.367 17.7483 25.0497 24.5614 25.0497V21.0497C19.2578 21.0497 15.5918 17.5179 15.5918 13.8759H11.5918ZM19.6092 3.54296C15.0869 5.14846 11.5918 9.03433 11.5918 13.8759H15.5918C15.5918 11.1261 17.6095 8.49749 20.9474 7.31245L19.6092 3.54296ZM36.6756 -2C29.5118 -2 22.9848 0.255171 18.9311 3.94948L21.6255 6.90592C24.7693 4.04077 30.2466 2 36.6756 2V-2ZM54.4195 3.9489C50.3658 0.254939 43.8391 -2 36.6756 -2V2C43.1044 2 48.5814 4.04056 51.7253 6.90548L54.4195 3.9489ZM52.4035 7.31202C55.7422 8.49683 57.7604 11.1258 57.7604 13.8759H61.7604C61.7604 9.03372 58.2644 5.14751 53.7413 3.54236L52.4035 7.31202ZM57.7604 13.8759C57.7604 17.5179 54.0943 21.0497 48.7908 21.0497V25.0497C55.6039 25.0497 61.7604 20.367 61.7604 13.8759H57.7604ZM48.7908 21.0497C48.5233 21.0497 48.2589 21.0403 47.9979 21.0219L47.7167 25.012C48.0712 25.037 48.4295 25.0497 48.7908 25.0497V21.0497Z" fill="white" mask="url(#path-12-inside-1_398_308)"/>
<path d="M28.3699 56.5122C29.7182 53.2737 33.6672 51.56 37.386 51.5461C40.9705 51.5322 45.1552 53.1404 46.3884 56.5122C46.4517 56.684 46.4613 56.8715 46.416 57.049C46.3706 57.2266 46.2725 57.3858 46.1349 57.5049C45.9973 57.6241 45.8269 57.6975 45.6467 57.7152C45.4666 57.7328 45.2854 57.6939 45.1278 57.6037C42.8012 56.3094 39.9758 55.8123 37.3586 55.7678C33.9221 55.7095 31.6886 56.4344 29.6579 57.5787C28.7837 58.0787 28.0685 57.2343 28.3699 56.5122Z" stroke="white" stroke-width="2" stroke-miterlimit="10"/>
<path d="M30.8773 45.7029C29.9044 47.7149 26.4926 47.7149 25.506 45.7029C25.1343 44.9304 24.9903 44.092 25.0867 43.261C25.443 40.1742 30.9431 40.1742 31.2993 43.261C31.3962 44.0922 31.2513 44.9309 30.8773 45.7029V45.7029Z" stroke="white" stroke-width="2" stroke-miterlimit="10"/>
<path d="M48.6898 45.7029C47.7169 47.7149 44.3051 47.7149 43.3185 45.7029C42.9468 44.9304 42.8028 44.092 42.8992 43.261C43.2555 40.1742 48.7556 40.1742 49.1118 43.261C49.2087 44.0922 49.0638 44.9309 48.6898 45.7029V45.7029Z" stroke="white" stroke-width="2" stroke-miterlimit="10"/>
</svg>
