<?xml version="1.0" encoding="utf-8"?>
<!-- Generator: Adobe Illustrator 27.1.1, SVG Export Plug-In . SVG Version: 6.00 Build 0)  -->
<svg version="1.1" id="Layer_1" xmlns="http://www.w3.org/2000/svg" xmlns:xlink="http://www.w3.org/1999/xlink" x="0px" y="0px"
	 viewBox="0 0 110 213" style="enable-background:new 0 0 110 213;" xml:space="preserve">
<style type="text/css">
	.st0{fill:url(#SVGID_1_);}
	.st1{fill:url(#SVGID_00000098193441322634655520000009235915546995438511_);}
	.st2{fill:#FFFFFF;}
	.st3{fill:url(#SVGID_00000173878551847064392650000008412040619966262183_);}
	.st4{font-family:'OpenSans-Semibold';}
	.st5{font-size:11px;}
</style>
<linearGradient id="SVGID_1_" gradientUnits="userSpaceOnUse" x1="0" y1="22" x2="110" y2="22">
	<stop  offset="0" style="stop-color:#0571FB"/>
	<stop  offset="1" style="stop-color:#051BDB"/>
</linearGradient>
<path class="st0" d="M4,0h102c2.2,0,4,1.8,4,4v36c0,2.2-1.8,4-4,4H4c-2.2,0-4-1.8-4-4V4C0,1.8,1.8,0,4,0z"/>
<linearGradient id="SVGID_00000062900852730907437030000015474224341798547635_" gradientUnits="userSpaceOnUse" x1="0" y1="107" x2="110" y2="107">
	<stop  offset="0" style="stop-color:#9B4FFB"/>
	<stop  offset="1" style="stop-color:#5F07B7"/>
</linearGradient>
<path style="fill:url(#SVGID_00000062900852730907437030000015474224341798547635_);" d="M4,85h102c2.2,0,4,1.8,4,4v36
	c0,2.2-1.8,4-4,4H4c-2.2,0-4-1.8-4-4V89C0,86.8,1.8,85,4,85z"/>
<path class="st2" d="M15.5,97c-5.4,0-10,4.6-10,10s4.6,10,10,10s10-4.6,10-10S21,97,15.5,97z M15.5,102c1.7,0,3,1.3,3,3s-1.3,3-3,3
	c-1.7,0-3-1.3-3-3S13.8,102,15.5,102z M10.4,111.8c0.9-1.3,2.4-2.2,4.1-2.2h2c1.7,0,3.2,0.9,4.1,2.2c-1.3,1.4-3.1,2.2-5.1,2.2
	S11.7,113.1,10.4,111.8z"/>
<linearGradient id="SVGID_00000050628071013086733530000003976994992870911934_" gradientUnits="userSpaceOnUse" x1="0" y1="191" x2="110" y2="191">
	<stop  offset="0" style="stop-color:#0697FF"/>
	<stop  offset="1" style="stop-color:#0185FF"/>
</linearGradient>
<path style="fill:url(#SVGID_00000050628071013086733530000003976994992870911934_);" d="M4,169h102c2.2,0,4,1.8,4,4v36
	c0,2.2-1.8,4-4,4H4c-2.2,0-4-1.8-4-4v-36C0,170.8,1.8,169,4,169z"/>
<text transform="matrix(1 0 0 1 30.0689 26.7861)" class="st2 st4 st5">DADOS</text>
<text transform="matrix(1 0 0 1 30.0688 111.7759)" class="st2 st4 st5">IDENTIDADE</text>
<text transform="matrix(1 0 0 1 30.069 195.7859)" class="st2 st4 st5">INFRA</text>
<g>
	<path class="st2" d="M18.2,22.7c-1.5,0-3.1,0-4.6,0c-0.3,0-0.6,0-1,0c-0.2,0-0.3,0.1-0.4,0.2c-0.1,0.3,0.1,0.5,0.4,0.5
		c0.9,0,1.8,0,2.8,0c0.1,0,0.2,0,0.4,0c0.8,0,1.6,0,2.4,0c0.2,0,0.3-0.1,0.4-0.2C18.7,23,18.5,22.7,18.2,22.7z"/>
	<path class="st2" d="M14.5,24.7c-0.3,0-0.6,0-0.9,0c-0.3,0-0.6,0-0.9,0c-0.2,0-0.4,0.2-0.4,0.4c0,0.2,0.2,0.4,0.4,0.4
		c0.6,0,1.2,0,1.8,0c0.2,0,0.4-0.2,0.4-0.4C14.9,24.9,14.7,24.7,14.5,24.7z"/>
	<path class="st2" d="M15.5,12.8c-5.1,0-9.2,4.1-9.2,9.2s4.1,9.2,9.2,9.2s9.2-4.1,9.2-9.2S20.6,12.8,15.5,12.8z M17.3,15.7
		c0.1,0.1,0.2,0.2,0.3,0.2c0.8,0.8,1.6,1.5,2.4,2.3c0.1,0.1,0.2,0.2,0.3,0.4c-0.1,0-0.1,0-0.2,0c-0.9,0-1.8,0-2.7,0
		c-0.2,0-0.2,0-0.2-0.2c0-0.9,0-1.7,0-2.6C17.3,15.8,17.3,15.8,17.3,15.7z M20.5,27.2c0,0.8-0.6,1.4-1.4,1.4c-2.3,0-4.7,0-7,0
		c-0.1,0-0.2,0-0.4,0c-0.7-0.2-1.1-0.7-1.1-1.4c0-2.4,0-4.9,0-7.3c0-0.9,0-1.9,0-2.8c0-0.5,0.2-0.9,0.6-1.2c0.2-0.1,0.4-0.2,0.6-0.3
		c1.6,0,3.2,0,4.7,0c0,1,0,1.9,0,2.9c0,0.6,0.4,1,1,1c1,0,1.9,0,2.9,0c0,0,0.1,0,0.2,0c0,0,0,0.1,0,0.1C20.5,22,20.5,24.6,20.5,27.2
		z"/>
	<path class="st2" d="M12.6,21.4c0.1,0,0.1,0,0.2,0c1.5,0,3,0,4.5,0c0.3,0,0.7,0,1,0c0.2,0,0.3-0.1,0.4-0.2c0.1-0.3-0.1-0.5-0.4-0.5
		c-0.9,0-1.8,0-2.8,0c-0.9,0-1.9,0-2.8,0c-0.2,0-0.4,0.1-0.4,0.3C12.3,21.2,12.4,21.4,12.6,21.4z"/>
</g>
<g>
	<path class="st2" d="M15.5,197c-0.1,0-0.3,0.1-0.3,0.3c0,0.1,0.1,0.3,0.3,0.3c0.1,0,0.3-0.1,0.3-0.3C15.8,197.2,15.7,197,15.5,197z
		"/>
	<path class="st2" d="M15.5,181.5c-5.5,0-9.9,4.5-9.9,9.9c0,5.5,4.5,9.9,9.9,9.9s9.9-4.5,9.9-9.9C25.5,186,21,181.5,15.5,181.5z
		 M13.6,197.6c-0.8,0-1.6,0-2.4,0c-0.8,0-1.5,0-2.3,0c0,0-0.1,0-0.1,0c-0.1,0-0.2-0.1-0.2-0.3c0-0.1,0.1-0.2,0.2-0.3
		c0,0,0.1,0,0.1,0c1.6,0,3.1,0,4.7,0c0,0,0,0,0,0c0.2,0,0.3,0.1,0.3,0.3C14,197.5,13.8,197.6,13.6,197.6z M15.8,196.5
		C15.8,196.5,15.9,196.5,15.8,196.5c0.4,0.2,0.6,0.5,0.5,0.9c0,0.4-0.3,0.6-0.6,0.7c0,0,0,0,0,0c-0.1,0-0.2,0-0.3,0
		c-0.2-0.1-0.4-0.2-0.6-0.4c-0.3-0.4-0.1-0.9,0.3-1.2c0.1,0,0.1-0.1,0.1-0.2c0-0.2,0-0.4,0-0.6c-0.1,0-0.1,0-0.2,0
		c-0.6,0-1.2,0-1.8,0c-0.6,0-1-0.3-1.2-0.8c-0.2-0.5-0.1-1,0.2-1.4c0.1-0.1,0.1-0.1,0.2-0.2c-0.3-0.3-0.5-0.6-0.5-1.1
		c0-0.4,0.2-0.8,0.5-1.1c-0.2-0.2-0.4-0.4-0.5-0.6c-0.3-0.9,0.3-1.8,1.3-1.8c1.5,0,2.9,0,4.4,0c0.6,0,1.1,0.4,1.3,0.9
		c0.2,0.6,0.1,1.1-0.4,1.5c0,0,0,0-0.1,0.1c0.3,0.3,0.5,0.6,0.5,1.1c0,0.4-0.2,0.8-0.5,1.1c0.1,0.1,0.2,0.2,0.3,0.3
		c0.3,0.4,0.4,0.9,0.1,1.4c-0.2,0.5-0.7,0.8-1.2,0.8c-0.6,0-1.2,0-1.8,0c0,0-0.1,0-0.2,0C15.8,196,15.8,196.2,15.8,196.5z
		 M22.6,197.4c-0.1,0.2-0.2,0.2-0.4,0.2c-1.6,0-3.1,0-4.7,0c-0.1,0-0.1,0-0.2,0c-0.1,0-0.2-0.1-0.2-0.2c0-0.1,0.1-0.2,0.2-0.3
		c0.1,0,0.1,0,0.2,0c1.6,0,3.1,0,4.7,0c0.2,0,0.3,0.1,0.4,0.2C22.6,197.3,22.6,197.3,22.6,197.4z M22.6,190.5
		c-0.1,0.2-0.1,0.5-0.2,0.7c-0.4,1.2-1.2,1.9-2.4,2.2c-0.2,0.1-0.4-0.1-0.4-0.3c0-0.1,0.2-0.2,0.3-0.2c0.3-0.1,0.7-0.2,1-0.4
		c0.8-0.6,1.3-1.5,1.2-2.5c-0.1-1.1-0.6-1.9-1.6-2.3c-0.2-0.1-0.3-0.2-0.3-0.4c-0.7-1.8-2.4-2.9-4.3-2.7c-1.8,0.2-3.4,1.6-3.7,3.4
		c0,0,0,0.1,0,0.1c-0.1,0.2-0.1,0.3-0.4,0.3c-0.4,0-0.7,0-1.1,0.1C9.6,189,9,190,9.1,190.9c0.1,1,0.8,1.9,1.8,2c0.1,0,0.1,0,0.2,0
		c0.1,0.1,0.2,0.2,0.2,0.3c0,0.1-0.2,0.2-0.3,0.2c-0.9-0.2-1.6-0.6-2-1.4c-0.9-1.6-0.1-3.5,1.6-4.1c0.3-0.1,0.6-0.1,1-0.2
		c0.1-0.3,0.2-0.6,0.3-0.9c0.6-1.3,1.5-2.1,2.8-2.6c1.8-0.6,3.4-0.2,4.8,1c0.5,0.4,0.9,1,1.1,1.6c0,0.1,0.1,0.2,0.2,0.2
		c1,0.6,1.6,1.4,1.8,2.6c0,0,0,0.1,0,0.1C22.6,190.2,22.6,190.3,22.6,190.5z"/>
	<path class="st2" d="M13.4,193c1.4,0,2.9,0,4.3,0c0.1,0,0.1,0,0.2,0c0.5-0.1,0.7-0.6,0.6-1c-0.1-0.4-0.4-0.6-0.8-0.6
		c-0.7,0-1.4,0-2.1,0c-0.3,0-0.6,0-0.9,0c-0.4,0-0.8,0-1.3,0c-0.5,0-0.9,0.5-0.8,1C12.6,192.8,13,193,13.4,193z M17.6,191.9
		c0.1,0,0.3,0.1,0.3,0.3c0,0.1-0.1,0.3-0.3,0.3c-0.1,0-0.3-0.1-0.3-0.3C17.3,192,17.4,191.9,17.6,191.9z M16.6,191.9
		c0.1,0,0.3,0.1,0.3,0.3c0,0.1-0.1,0.3-0.3,0.3c-0.1,0-0.3-0.1-0.3-0.3C16.4,192,16.5,191.9,16.6,191.9z M13.3,192.2
		c0-0.2,0.1-0.3,0.3-0.3c0.3,0,0.6,0,0.9,0c0.1,0,0.1,0,0.2,0c0.3,0,0.7,0,1,0c0.1,0,0.3,0,0.3,0.2c0.1,0.2,0,0.3-0.2,0.4
		c-0.1,0-0.1,0-0.2,0c-0.6,0-1.3,0-1.9,0c0,0-0.1,0-0.1,0C13.4,192.4,13.3,192.3,13.3,192.2z"/>
	<path class="st2" d="M17.9,195.2c0.4-0.1,0.7-0.5,0.6-1c-0.1-0.4-0.4-0.7-0.8-0.7c-0.7,0-1.4,0-2.1,0c-0.4,0-0.8,0-1.2,0
		c-0.3,0-0.6,0-1,0c-0.5,0-0.9,0.5-0.8,1c0.1,0.4,0.4,0.7,0.9,0.7c1.4,0,2.8,0,4.3,0C17.8,195.2,17.8,195.2,17.9,195.2z M15.6,194.6
		c-0.3,0-0.7,0-1,0c-0.3,0-0.7,0-1,0c-0.2,0-0.3-0.1-0.3-0.3c0-0.1,0.1-0.2,0.2-0.2c0.1,0,0.1,0,0.2,0c0.6,0,1.3,0,1.9,0
		c0,0,0.1,0,0.1,0c0.2,0,0.3,0.1,0.3,0.3C15.9,194.5,15.8,194.6,15.6,194.6z M16.9,194.4c0,0.1-0.1,0.3-0.3,0.3
		c-0.1,0-0.3-0.1-0.3-0.3c0-0.1,0.1-0.3,0.3-0.3C16.8,194.1,16.9,194.2,16.9,194.4z M17.3,194.4c0-0.1,0.1-0.3,0.3-0.3
		c0.1,0,0.3,0.1,0.3,0.3c0,0.1-0.1,0.3-0.3,0.3C17.4,194.6,17.3,194.5,17.3,194.4z"/>
	<path class="st2" d="M13.3,190.8c1.5,0,3,0,4.5,0c0,0,0.1,0,0.1,0c0.5-0.1,0.7-0.6,0.6-1c-0.1-0.4-0.4-0.6-0.8-0.6
		c-0.7,0-1.4,0-2.2,0c-0.5,0-1,0-1.5,0c-0.2,0-0.5,0-0.7,0c-0.5,0-0.9,0.5-0.8,1C12.6,190.5,12.9,190.8,13.3,190.8z M17.6,189.7
		c0.1,0,0.3,0.1,0.3,0.3c0,0.1-0.1,0.3-0.3,0.3c-0.1,0-0.3-0.1-0.3-0.3C17.3,189.8,17.4,189.7,17.6,189.7z M16.6,189.7
		c0.1,0,0.3,0.1,0.3,0.3c0,0.1-0.1,0.3-0.3,0.3c-0.1,0-0.3-0.1-0.3-0.3C16.4,189.8,16.5,189.7,16.6,189.7z M13.5,189.7
		c0.3,0,0.6,0,0.9,0c0.1,0,0.1,0,0.2,0c0,0,0,0,0,0c0.3,0,0.7,0,1,0c0.2,0,0.4,0.2,0.3,0.4c0,0.1-0.1,0.1-0.2,0.2c0,0-0.1,0-0.1,0
		c-0.6,0-1.3,0-1.9,0c0,0-0.1,0-0.1,0c-0.2,0-0.3-0.1-0.3-0.3C13.3,189.8,13.4,189.7,13.5,189.7z"/>
</g>
</svg>
