<svg width="72" height="70" viewBox="0 0 72 70" fill="none" xmlns="http://www.w3.org/2000/svg">
<rect x="16" y="65" width="40" height="4" rx="2" fill="white" fill-opacity="0.3" stroke="white" stroke-width="2"/>
<rect x="55" y="56" width="16" height="4" rx="2" fill="white" fill-opacity="0.3" stroke="white" stroke-width="2"/>
<rect x="1" y="56" width="16" height="4" rx="2" fill="white" fill-opacity="0.3" stroke="white" stroke-width="2"/>
<path d="M25 39C25 35.134 28.134 32 32 32H40C43.866 32 47 35.134 47 39V65H25V39Z" stroke="white" stroke-width="2"/>
<rect x="31.3438" y="53.9803" width="13.4862" height="2.24771" rx="1" fill="white"/>
<path d="M37.9629 54.9803H42.706V58.8473C42.706 59.9519 41.8106 60.8473 40.706 60.8473H39.9629C38.8583 60.8473 37.9629 59.9519 37.9629 58.8473V54.9803Z" fill="white" fill-opacity="0.3" stroke="white" stroke-width="2"/>
<rect x="23" y="23" width="27" height="4" rx="2" stroke="white" stroke-width="2"/>
<rect x="23" y="1" width="27" height="4" rx="2" stroke="white" stroke-width="2"/>
<rect x="27" y="5" width="18" height="18" fill="white" fill-opacity="0.2" stroke="white" stroke-width="2"/>
<rect x="42.6562" y="41.1715" width="2" height="6" rx="1" transform="rotate(45 42.6562 41.1715)" fill="white"/>
<rect x="42.6562" y="41.1715" width="2" height="6" rx="1" transform="rotate(45 42.6562 41.1715)" fill="white"/>
<rect x="42.6562" y="41.1715" width="2" height="6" rx="1" transform="rotate(45 42.6562 41.1715)" fill="white"/>
<rect x="42.6562" y="41.1715" width="2" height="6" rx="1" transform="rotate(45 42.6562 41.1715)" fill="white"/>
<rect x="38.4141" y="42.5857" width="2" height="6" rx="1" transform="rotate(-45 38.4141 42.5857)" fill="white"/>
<rect x="38.4141" y="42.5857" width="2" height="6" rx="1" transform="rotate(-45 38.4141 42.5857)" fill="white"/>
<rect x="38.4141" y="42.5857" width="2" height="6" rx="1" transform="rotate(-45 38.4141 42.5857)" fill="white"/>
<rect x="38.4141" y="42.5857" width="2" height="6" rx="1" transform="rotate(-45 38.4141 42.5857)" fill="white"/>
<path d="M4 14C4 13.4477 4.44772 13 5 13H26C26.5523 13 27 13.4477 27 14C27 14.5523 26.5523 15 26 15H5C4.44772 15 4 14.5523 4 14Z" fill="white"/>
<rect x="34.6562" y="41.1715" width="2" height="6" rx="1" transform="rotate(45 34.6562 41.1715)" fill="white"/>
<rect x="34.6562" y="41.1715" width="2" height="6" rx="1" transform="rotate(45 34.6562 41.1715)" fill="white"/>
<rect x="34.6562" y="41.1715" width="2" height="6" rx="1" transform="rotate(45 34.6562 41.1715)" fill="white"/>
<rect x="34.6562" y="41.1715" width="2" height="6" rx="1" transform="rotate(45 34.6562 41.1715)" fill="white"/>
<rect x="30.4141" y="42.5857" width="2" height="6" rx="1" transform="rotate(-45 30.4141 42.5857)" fill="white"/>
<rect x="30.4141" y="42.5857" width="2" height="6" rx="1" transform="rotate(-45 30.4141 42.5857)" fill="white"/>
<rect x="30.4141" y="42.5857" width="2" height="6" rx="1" transform="rotate(-45 30.4141 42.5857)" fill="white"/>
<rect x="30.4141" y="42.5857" width="2" height="6" rx="1" transform="rotate(-45 30.4141 42.5857)" fill="white"/>
</svg>
