<svg width="55" height="68" viewBox="0 0 55 68" fill="none" xmlns="http://www.w3.org/2000/svg">
<path d="M8.45364 41.1118C4.92732 41.1118 1.8418 32.7368 1.8418 27.4474C1.8418 12.8409 12.8011 1 27.4076 1C42.0141 1 53.855 12.8409 53.855 27.4474C53.855 34.0592 49.4471 41.1118 46.3615 41.1118" stroke="white" stroke-width="2"/>
<path d="M23.4229 23.7809L23.4229 23.7809L23.4183 23.7874L23.1986 24.1008C23.1981 24.1015 23.1976 24.1022 23.1971 24.1029C22.3787 25.2562 21.1028 26.0676 19.638 26.3424L19.6346 26.343C19.2761 26.4115 18.9112 26.4466 18.5455 26.4473C17.4105 26.4452 16.3066 26.1191 15.377 25.5169L15.377 25.5168L15.3678 25.511L15.0333 25.2995L15.0267 25.2953L15.02 25.2913C14.3687 24.8935 13.8199 24.3685 13.4088 23.7557L13.4086 23.7555C12.8256 22.8869 12.5255 21.881 12.5395 20.861L12.5395 20.8609C12.5534 19.8433 12.8794 18.8467 13.484 17.9938L13.8911 17.4378L13.897 17.4296L13.9029 17.4214C14.0474 17.2153 14.2827 17.0594 14.5666 17.0061C14.8511 16.953 15.1422 17.0113 15.3731 17.1595L15.3731 17.1595L23.3285 22.2642L23.3285 22.2642L23.3339 22.2677C23.5604 22.411 23.7008 22.6249 23.7438 22.8489L23.7437 22.8489L23.7457 22.8587C23.7919 23.0867 23.7437 23.3274 23.6008 23.5315L23.4229 23.7809Z" fill="white" fill-opacity="0.1" stroke="white" stroke-width="2"/>
<path d="M32.2734 23.7809L32.2734 23.7809L32.278 23.7874L32.4977 24.1008C32.4982 24.1015 32.4987 24.1022 32.4992 24.1029C33.3176 25.2562 34.5935 26.0676 36.0583 26.3424L36.0617 26.343C36.4201 26.4115 36.7851 26.4466 37.1508 26.4473C38.2858 26.4452 39.3897 26.1191 40.3193 25.5169L40.3193 25.5168L40.3285 25.511L40.663 25.2995L40.6696 25.2953L40.6762 25.2913C41.3276 24.8935 41.8764 24.3685 42.2875 23.7557L42.2876 23.7555C42.8707 22.8869 43.1708 21.881 43.1568 20.861L43.1568 20.8609C43.1429 19.8433 42.8169 18.8467 42.2123 17.9938L41.8052 17.4378L41.7992 17.4296L41.7934 17.4214C41.6489 17.2153 41.4136 17.0594 41.1297 17.0061C40.8452 16.953 40.5541 17.0113 40.3232 17.1595L40.3231 17.1595L32.3678 22.2642L32.3678 22.2642L32.3624 22.2677C32.1358 22.411 31.9955 22.6249 31.9525 22.8489L31.9526 22.8489L31.9506 22.8587C31.9044 23.0867 31.9526 23.3274 32.0955 23.5315L32.2734 23.7809Z" fill="white" fill-opacity="0.1" stroke="white" stroke-width="2"/>
<path d="M27.7002 33.8324L27.6998 33.8317C27.6906 33.8186 27.6069 33.7368 27.4074 33.7368C27.2078 33.7368 27.1246 33.8186 27.1159 33.8311L27.1151 33.8323C25.2476 36.5132 23.9515 38.9119 23.1262 41.1726L27.7002 33.8324ZM27.7002 33.8324C29.5677 36.5127 30.8638 38.9123 31.6891 41.1725L32.6285 40.8296M27.7002 33.8324L23.1795 41.3392M23.1795 41.3392L23.1819 41.3414C23.2567 41.4126 23.403 41.4609 23.557 41.4186C26.1272 40.6994 28.6891 40.6995 31.2588 41.4189C31.2911 41.4279 31.3294 41.4336 31.3745 41.4336C31.4879 41.4336 31.5799 41.3915 31.6347 41.3396L31.6363 41.338C31.6716 41.3048 31.6871 41.272 31.6933 41.2471C31.6993 41.2228 31.6985 41.1983 31.6889 41.1721L32.6285 40.8296M23.1795 41.3392C23.1441 41.3057 23.1283 41.2726 23.122 41.2474M23.1795 41.3392L23.122 41.2474M32.6285 40.8296C32.7861 41.2619 32.6674 41.7399 32.3226 42.0653L22.1867 40.8301C23.0492 38.4671 24.3924 35.9914 26.2945 33.2607C26.7797 32.5622 28.0349 32.5622 28.5207 33.2607C30.4229 35.9908 31.7659 38.4673 32.6285 40.8296ZM23.122 41.2474C23.116 41.2229 23.1168 41.1986 23.1261 41.173L23.122 41.2474Z" stroke="white" stroke-width="2"/>
<path d="M46.2231 31.4803V43.0576C46.2231 43.8411 45.5783 44.4798 44.7861 44.4798H41.9147C39.5399 44.4798 37.6075 46.394 37.6075 48.7465V51.5909M17.5088 51.5909V48.7465C17.5088 46.394 15.5764 44.4798 13.2017 44.4798H10.3302C9.53804 44.4798 8.89453 43.8411 8.89453 43.0576V31.4803" stroke="white" stroke-width="2" stroke-linecap="round"/>
<path d="M22.0938 49.8143V51.4264" stroke="white" stroke-width="2" stroke-linecap="round"/>
<line x1="25.9648" y1="49.8572" x2="25.9648" y2="51.3835" stroke="white" stroke-width="2" stroke-linecap="round"/>
<path d="M29.751 49.8143V51.4264" stroke="white" stroke-width="2" stroke-linecap="round"/>
<line x1="33.6221" y1="49.8572" x2="33.6221" y2="51.3835" stroke="white" stroke-width="2" stroke-linecap="round"/>
<line x1="22.1367" y1="64" x2="22.1367" y2="66" stroke="white" stroke-width="2" stroke-linecap="round"/>
<line x1="26" y1="64" x2="26" y2="66" stroke="white" stroke-width="2" stroke-linecap="round"/>
<path d="M29.751 64.0857V65.9143" stroke="white" stroke-width="2" stroke-linecap="round"/>
<line x1="33.6221" y1="64" x2="33.6221" y2="66" stroke="white" stroke-width="2" stroke-linecap="round"/>
<rect x="9.5" y="54.5" width="35" height="1" rx="0.5" fill="#C4C4C4" stroke="white"/>
<rect x="3.5" y="58.5" width="47" height="1" rx="0.5" fill="#C4C4C4" stroke="white"/>
<path d="M18 62V65C18 66.1046 18.8954 67 20 67H36C37.1046 67 38 66.1046 38 65V62" stroke="white" stroke-width="2" stroke-linecap="round"/>
</svg>
