<?xml version="1.0" encoding="utf-8"?>
<!-- Generator: Adobe Illustrator 26.0.1, SVG Export Plug-In . SVG Version: 6.00 Build 0)  -->
<svg version="1.1" id="Layer_3" xmlns="http://www.w3.org/2000/svg" xmlns:xlink="http://www.w3.org/1999/xlink" x="0px" y="0px"
	 viewBox="0 0 75 75" style="enable-background:new 0 0 75 75;" xml:space="preserve">
<style type="text/css">
	.st0{fill:#0068DA;}
</style>
<g>
	<g>
		<g>
			<g>
				<g>
					<g>
						<path class="st0" d="M34.8,53.8c-0.5,0-1-0.2-1.4-0.6c-0.4-0.4-0.7-0.9-0.7-1.5l0-2.3c0,0,0,0,0,0L31,51.1
							c-0.8,0.8-2.2,0.9-3,0l-4.1-3.9c-0.4-0.4-0.7-0.9-0.7-1.5c0-0.6,0.2-1.1,0.6-1.5l1.6-1.6l-2.4,0c-0.5,0-1.1-0.2-1.5-0.6
							c-0.4-0.4-0.7-0.9-0.7-1.5l-0.1-5.6c0-0.5,0.2-1,0.6-1.5c0.4-0.4,1-0.7,1.5-0.7l2.3-0.1c0,0,0,0,0,0l-1.7-1.6
							c-0.4-0.4-0.6-0.9-0.6-1.5c0-0.6,0.3-1.1,0.7-1.5l3.9-4c0.8-0.8,2.2-0.9,3,0l1.7,1.6c0,0,0,0,0,0l0-2.3c0-0.5,0.2-1,0.6-1.5
							c0.4-0.4,1-0.7,1.5-0.7l5.7-0.1c0.5,0,1.1,0.2,1.5,0.6c0.4,0.4,0.7,0.9,0.7,1.5l0,2.3c0,0,0,0,0,0l1.6-1.6
							c0.8-0.8,2.2-0.9,3,0l4.1,3.9c0.4,0.4,0.7,0.9,0.7,1.5c0,0.6-0.2,1.1-0.6,1.5l-1.6,1.6l2.4,0c0.5,0,1.1,0.2,1.5,0.6
							c0.4,0.4,0.7,0.9,0.7,1.5l0.1,5.6c0,0.5-0.2,1-0.6,1.5c-0.4,0.4-1,0.7-1.5,0.7l-2.4,0l1.7,1.6l0,0c0.8,0.8,0.9,2,0.2,2.9
							c0,0-0.1,0.1-0.1,0.1l-4,4c-0.8,0.8-2.2,0.9-3,0l-1.7-1.6c0,0,0,0,0,0l0,2.3c0,0.5-0.2,1-0.6,1.5c-0.4,0.4-1,0.7-1.5,0.7
							L34.8,53.8C34.9,53.8,34.8,53.8,34.8,53.8z M35,51.7L35,51.7L35,51.7z M40.4,51.7C40.4,51.7,40.4,51.7,40.4,51.7L40.4,51.7z
							 M34.8,51.5C34.8,51.5,34.8,51.5,34.8,51.5L34.8,51.5C34.8,51.5,34.8,51.5,34.8,51.5z M32.4,46.9c0.1,0,0.3,0,0.4,0.1
							c0.2,0.1,0.4,0.2,0.5,0.2c0.1,0,0.1,0.1,0.2,0.1c0.1,0,0.4,0.2,0.5,0.2c0.5,0.1,0.9,0.6,0.9,1.1l0,2.9l5.3-0.1l0-2.9
							c0-0.5,0.4-1,0.9-1.1c0.1,0,0.2-0.1,0.3-0.1l0.2-0.1c0.1,0,0.3-0.1,0.5-0.2c0.4-0.3,1-0.2,1.4,0.2l2.2,2.1l3.7-3.8l-2.2-2.1
							c-0.3-0.3-0.4-0.8-0.3-1.2c0.1-0.2,0.2-0.4,0.3-0.5c0-0.1,0.1-0.1,0.1-0.2c0-0.1,0.1-0.2,0.1-0.3c0-0.1,0.1-0.2,0.1-0.3
							c0.1-0.5,0.6-0.9,1.1-0.9l3,0l0-5.1l-3,0c0,0,0,0,0,0c-0.5,0-1-0.4-1.1-0.9c0-0.1-0.1-0.2-0.1-0.3l-0.1-0.2
							c-0.1-0.2-0.1-0.3-0.2-0.5c-0.3-0.5-0.2-1.1,0.2-1.4l2.1-2.1l-3.8-3.6l-2.1,2.1c-0.3,0.3-0.8,0.4-1.2,0.3
							c-0.2-0.1-0.4-0.2-0.5-0.2c-0.1,0-0.1-0.1-0.2-0.1c-0.1,0-0.2-0.1-0.3-0.1c-0.1,0-0.2-0.1-0.3-0.1C40.4,27.4,40,27,40,26.4
							l0-2.9l-5.3,0.1l0,2.9c0,0.5-0.4,1-0.9,1.1c-0.1,0-0.2,0.1-0.3,0.1l-0.2,0.1c-0.1,0-0.2,0.1-0.5,0.2c-0.4,0.3-1,0.2-1.4-0.2
							l-2.2-2.1l-3.7,3.8l2.1,2c0.3,0.3,0.4,0.8,0.3,1.2c-0.1,0.2-0.2,0.4-0.3,0.5c0,0.1-0.1,0.1-0.1,0.2c0,0.1-0.2,0.3-0.2,0.5
							c-0.1,0.5-0.6,0.9-1.1,0.9l-3,0.1l0.1,5.2l3,0c0.6,0,1,0.4,1.1,0.9c0,0.1,0.1,0.2,0.1,0.3l0.1,0.2c0,0.1,0.1,0.2,0.2,0.5
							c0.3,0.5,0.2,1-0.2,1.4l-2.1,2.1l3.8,3.7l2.1-2.1C31.8,47,32.1,46.9,32.4,46.9z M23.1,40.3C23.1,40.3,23.1,40.3,23.1,40.3
							L23.1,40.3C23.1,40.3,23.1,40.3,23.1,40.3z M51.8,40.1C51.8,40.1,51.8,40.1,51.8,40.1L51.8,40.1z M23.1,35.1L23.1,35.1
							C23.1,35.1,23.1,35.1,23.1,35.1z M23.2,34.8L23.2,34.8C23.2,34.9,23.2,34.9,23.2,34.8z M51.9,34.7
							C51.9,34.7,51.9,34.7,51.9,34.7L51.9,34.7z M40.2,23.5C40.2,23.5,40.2,23.5,40.2,23.5L40.2,23.5z M34.7,23.3L34.7,23.3
							C34.7,23.3,34.7,23.3,34.7,23.3z"/>
					</g>
				</g>
			</g>
			<g>
				<g>
					<g>
						<path class="st0" d="M37.6,44.2c-1.8,0-3.5-0.7-4.8-1.9c-1.3-1.3-2.1-3-2.1-4.8c0-1.8,0.7-3.6,2-4.9c1.3-1.3,3-2,4.9-2
							c1.8,0,3.6,0.7,4.9,1.9c1.3,1.3,2.1,3,2.1,4.8c0,0,0,0,0,0c0,1.9-0.7,3.6-2,4.8C41.2,43.5,39.5,44.2,37.6,44.2
							C37.6,44.2,37.6,44.2,37.6,44.2z M37.6,32.9C37.5,32.9,37.5,32.9,37.6,32.9c-1.3,0-2.5,0.5-3.3,1.3c-0.8,0.8-1.3,2-1.3,3.2
							c0,1.2,0.5,2.3,1.4,3.2c0.9,0.8,2,1.3,3.3,1.3c1.3,0,2.4-0.5,3.3-1.3c0.8-0.8,1.3-2,1.3-3.2c0-1.2-0.5-2.3-1.4-3.2
							C39.9,33.4,38.8,32.9,37.6,32.9z"/>
					</g>
				</g>
			</g>
		</g>
		<g>
			<g>
				<g>
					<rect x="36.5" y="8.9" class="st0" width="2.3" height="7.4"/>
				</g>
				<g>
					<path class="st0" d="M37.6,11c-2.3,0-4.1-1.8-4.1-4.1c0-2.2,1.9-4.1,4.1-4.1c2.3,0,4.1,1.8,4.1,4.1C41.8,9.2,39.9,11,37.6,11z
						 M37.6,5.1c-1,0-1.8,0.8-1.8,1.8s0.8,1.8,1.8,1.8c1,0,1.8-0.8,1.8-1.8S38.6,5.1,37.6,5.1z"/>
				</g>
			</g>
			<g>
				<g>
					<line class="st0" x1="19" y1="27.3" x2="12.3" y2="23"/>
					
						<rect x="14.5" y="21.2" transform="matrix(0.5402 -0.8415 0.8415 0.5402 -13.9811 24.7323)" class="st0" width="2.3" height="7.9"/>
				</g>
				<g>
					<path class="st0" d="M10.6,26.2c-0.7,0-1.4-0.2-2-0.5c-1-0.5-1.7-1.4-1.9-2.5C6.3,22.1,6.4,21,7,20c1.1-1.9,3.7-2.6,5.6-1.5
						c1,0.5,1.7,1.4,1.9,2.5c0.3,1.1,0.1,2.1-0.4,3.1C13.4,25.4,12,26.2,10.6,26.2z M10.6,20.3c-0.6,0-1.2,0.3-1.6,0.9
						c-0.2,0.4-0.3,0.9-0.2,1.3c0.1,0.5,0.4,0.8,0.8,1.1c0.9,0.5,2,0.2,2.5-0.7c0.2-0.4,0.3-0.9,0.2-1.3c-0.1-0.5-0.4-0.8-0.8-1.1
						C11.2,20.4,10.9,20.3,10.6,20.3z"/>
				</g>
			</g>
			<g>
				<g>
					<line class="st0" x1="18.8" y1="47.4" x2="12.1" y2="51.7"/>
					
						<rect x="11.5" y="48.4" transform="matrix(0.8415 -0.5402 0.5402 0.8415 -24.3049 16.2017)" class="st0" width="7.9" height="2.3"/>
				</g>
				<g>
					<path class="st0" d="M10.4,56.8c-1.4,0-2.8-0.7-3.6-2c-0.6-0.9-0.7-2-0.4-3.1c0.3-1.1,1-1.9,1.9-2.5l0,0c2-1.1,4.5-0.4,5.6,1.5
						c0.6,0.9,0.7,2,0.4,3.1c-0.3,1.1-1,1.9-1.9,2.5C11.8,56.6,11.1,56.8,10.4,56.8z M10.4,50.9c-0.3,0-0.6,0.1-0.9,0.2l0,0
						c-0.4,0.2-0.7,0.6-0.8,1.1c-0.1,0.4-0.1,0.9,0.2,1.3c0.5,0.9,1.6,1.1,2.5,0.7c0.4-0.2,0.7-0.6,0.8-1.1c0.1-0.4,0.1-0.9-0.2-1.3
						C11.7,51.2,11.1,50.9,10.4,50.9z M8.9,50.1L8.9,50.1L8.9,50.1z"/>
				</g>
			</g>
			<g>
				<g>
					<line class="st0" x1="37.3" y1="58.8" x2="37.3" y2="66.1"/>
					<rect x="36.2" y="58.8" class="st0" width="2.3" height="7.4"/>
				</g>
				<g>
					<path class="st0" d="M37.4,72.2c-2.3,0-4.1-1.8-4.1-4.1c0-2.2,1.9-4.1,4.1-4.1s4.1,1.8,4.1,4.1C41.5,70.3,39.6,72.2,37.4,72.2z
						 M37.4,66.3c-1,0-1.8,0.8-1.8,1.8c0,1,0.8,1.8,1.8,1.8s1.8-0.8,1.8-1.8C39.2,67.1,38.4,66.3,37.4,66.3z"/>
				</g>
			</g>
			<g>
				<g>
					<line class="st0" x1="56" y1="47.7" x2="62.7" y2="52"/>
					
						<rect x="58.2" y="45.9" transform="matrix(0.5402 -0.8415 0.8415 0.5402 -14.649 72.8614)" class="st0" width="2.3" height="7.9"/>
				</g>
				<g>
					<path class="st0" d="M64.4,57c-0.7,0-1.4-0.2-2-0.5c-1-0.5-1.7-1.4-1.9-2.5c-0.3-1.1-0.1-2.1,0.4-3.1c1.1-1.9,3.7-2.6,5.6-1.5
						c1,0.5,1.7,1.4,1.9,2.5c0.3,1.1,0.1,2.1-0.4,3.1C67.2,56.3,65.8,57,64.4,57z M64.4,51.1c-0.6,0-1.2,0.3-1.6,0.9
						c-0.2,0.4-0.3,0.9-0.2,1.3c0.1,0.5,0.4,0.8,0.8,1.1c0.9,0.5,2,0.2,2.5-0.7c0.2-0.4,0.3-0.9,0.2-1.3c-0.1-0.5-0.4-0.8-0.8-1.1
						C65.1,51.2,64.7,51.1,64.4,51.1z"/>
				</g>
			</g>
			<g>
				<g>
					<line class="st0" x1="56.2" y1="27.6" x2="62.9" y2="23.3"/>
					
						<rect x="55.6" y="24.3" transform="matrix(0.8415 -0.5402 0.5402 0.8415 -4.324 36.1981)" class="st0" width="7.9" height="2.3"/>
				</g>
				<g>
					<path class="st0" d="M64.6,26.4c-1.4,0-2.8-0.7-3.6-2c-0.6-0.9-0.7-2-0.4-3.1c0.3-1.1,1-1.9,1.9-2.5c2-1.1,4.5-0.4,5.6,1.5
						c0.6,0.9,0.7,2,0.4,3.1c-0.3,1.1-1,1.9-1.9,2.5l0,0C66,26.2,65.3,26.4,64.6,26.4z M64.6,20.6c-0.3,0-0.6,0.1-0.9,0.2
						c-0.4,0.2-0.7,0.6-0.8,1.1c-0.1,0.4-0.1,0.9,0.2,1.3c0.5,0.9,1.6,1.1,2.5,0.7l0,0c0.4-0.2,0.7-0.6,0.8-1.1
						c0.1-0.4,0.1-0.9-0.2-1.3C65.8,20.9,65.2,20.6,64.6,20.6z"/>
				</g>
			</g>
		</g>
	</g>
</g>
</svg>
