<svg id="Layer_3" data-name="Layer 3" xmlns="http://www.w3.org/2000/svg" viewBox="0 0 75 75"><defs><style>.cls-1{fill:#0068da;isolation:isolate;opacity:0.1;}.cls-2{fill:none;stroke:#0068da;stroke-linecap:round;stroke-linejoin:round;stroke-width:2px;}</style></defs><g id="Layer_2" data-name="Layer 2"><circle class="cls-1" cx="37.64" cy="41.97" r="12.78"/><path class="cls-2" d="M63.1,31.82V45.13a15.16,15.16,0,0,1-.6,4.13c-.11.35-.22.72-.35,1.08h0a17.14,17.14,0,0,1-.93,2.16h0c-2.45,4.9-7,9.3-11.56,12.82l-.32.24A85.6,85.6,0,0,1,37.45,73c-2.39-1.25-4.81-2.67-7.13-4.19l-1-.64-.56-.37-1.6-1.09h-.1c-8.35-6.07-15-13.69-15-21.39V25.8c5.32-1.94,16-5.69,21.25-7.54l4.12-1.42,12.09,4.23,4.56,1.6,8.53,3,.37.12ZM12.16,26.2V12.59C15.85,11.2,27.1,7.24,32.88,5.22l3.8-1.33.8-.29c2.93,1,15.2,5.3,22.11,7.75L63,12.57V26.23"/><polyline class="cls-2" points="34.4 41.69 37.47 44.93 42.87 38.03"/></g></svg>