<?xml version="1.0" encoding="utf-8"?>
<!-- Generator: Adobe Illustrator 24.0.1, SVG Export Plug-In . SVG Version: 6.00 Build 0)  -->
<svg version="1.1" id="Layer_3" xmlns="http://www.w3.org/2000/svg" xmlns:xlink="http://www.w3.org/1999/xlink" x="0px" y="0px"
	 viewBox="0 0 75 75" style="enable-background:new 0 0 75 75;" xml:space="preserve">
<style type="text/css">
	.st0{fill:none;stroke:#0067D9;stroke-width:2.02;stroke-miterlimit:10;}
	.st1{fill:none;stroke:#0067D9;stroke-width:2.02;stroke-linecap:round;stroke-linejoin:round;}
	.st2{fill:#0067D9;}
	.st3{opacity:0.15;fill:#0068DA;enable-background:new    ;}
	.st4{fill:none;stroke:#0068DA;stroke-width:2;stroke-linecap:round;stroke-linejoin:round;}
	.st5{fill:none;stroke:#0067D9;stroke-width:2.02;stroke-linecap:round;stroke-miterlimit:10;}
</style>
<title>prove security controls are effective_blue copy 3</title>
<g id="Layer_2_1_">
	<path class="st0" d="M62,61.9v4.3c0,1.1-0.9,2-2,2H15c-1.1,0-2-0.9-2-2V9.5c0-1.1,0.9-2,2-2h25"/>
	<path class="st0" d="M40,7.5h20c1.1,0,2,0.9,2,2v30.4"/>
	<line class="st1" x1="36.2" y1="21" x2="53.9" y2="21"/>
	<line class="st1" x1="36.2" y1="26.1" x2="53.9" y2="26.1"/>
	<line class="st1" x1="36.2" y1="31" x2="53.9" y2="31"/>
	<line class="st1" x1="21.2" y1="36" x2="53.9" y2="36"/>
	<line class="st1" x1="21.2" y1="41" x2="46.3" y2="41"/>
	<line class="st1" x1="21.2" y1="45.9" x2="43.6" y2="45.9"/>
	<line class="st1" x1="21.2" y1="50.9" x2="41.9" y2="50.9"/>
	<line class="st1" x1="21.2" y1="55.8" x2="43.6" y2="55.8"/>
	<line class="st1" x1="21.2" y1="60.8" x2="46.3" y2="60.8"/>
	<circle class="st2" cx="25.2" cy="20" r="2.5"/>
	<path class="st2" d="M22.8,24h4.9c1.4,0,2.6,1.2,2.6,2.6v2.9c0,1.4-1.2,2.6-2.6,2.6h-4.9c-1.4,0-2.6-1.2-2.6-2.6v-2.9
		C20.2,25.1,21.4,24,22.8,24z"/>
	<circle class="st3" cx="58.4" cy="50.9" r="11.6"/>
	<circle class="st4" cx="58.4" cy="50.9" r="11.6"/>
	<polyline class="st5" points="52.4,50.7 56.8,55.1 65,47 	"/>
</g>
</svg>
