<?xml version="1.0" encoding="utf-8"?>
<!-- Generator: Adobe Illustrator 24.0.1, SVG Export Plug-In . SVG Version: 6.00 Build 0)  -->
<svg version="1.1" id="Layer_3" xmlns="http://www.w3.org/2000/svg" xmlns:xlink="http://www.w3.org/1999/xlink" x="0px" y="0px"
	 viewBox="0 0 75 75" style="enable-background:new 0 0 75 75;" xml:space="preserve">
<style type="text/css">
	.st0{fill:none;stroke:#0068DA;stroke-width:2;stroke-linecap:round;stroke-miterlimit:10;}
	.st1{fill:#0068DA;}
	.st2{opacity:0.1;fill:#0068DA;enable-background:new    ;}
</style>
<title>Alerts</title>
<path id="Ellipse_757_copy_2" class="st0" d="M64.2,60.3C51.5,75,29.3,76.7,14.5,64C3.5,54.5-0.5,39.2,4.3,25.5"/>
<path id="Ellipse_757_copy_2-2" class="st0" d="M10.8,14.4C23.5-0.4,45.8-2,60.5,10.7c11,9.5,15.1,24.8,10.2,38.5"/>
<circle class="st1" cx="7.1" cy="19.5" r="1.5"/>
<circle id="Ellipse_784_copy" class="st1" cx="67.9" cy="55" r="1.5"/>
<polygon class="st0" points="30.8,52.3 19.7,41.2 24.6,36.2 30.8,42.4 50.4,22.7 55.3,27.7 "/>
<polygon class="st2" points="30.8,52.3 19.7,41.2 24.6,36.2 30.8,42.4 50.4,22.7 55.3,27.7 "/>
</svg>
