<svg width="798" height="520" viewBox="0 0 798 520" fill="none" xmlns="http://www.w3.org/2000/svg">
<path d="M197.268 170.713L122.402 127.4L122.433 119.51L197.268 162.824V170.713Z" fill="#0533FD"/>
<path d="M197.26 170.713L272.125 127.4L272.095 119.51L197.26 162.824V170.713Z" fill="#E4EBF2"/>
<path d="M272.096 119.51L197.207 76.1653L122.434 119.51L197.261 162.823L272.096 119.51Z" fill="#F7F6F6"/>
<path d="M197.26 170.713L272.126 127.4L272.095 119.51L197.207 76.1653L122.433 119.51L122.402 127.4L197.26 170.713Z" stroke="#272727" stroke-width="0.5" stroke-miterlimit="10"/>
<path d="M272.095 119.51L197.26 162.824V170.713" stroke="#272727" stroke-width="0.5" stroke-miterlimit="10"/>
<path d="M197.261 162.831L122.434 119.51" stroke="#272727" stroke-width="0.5" stroke-miterlimit="10"/>
<path d="M214.779 136.578L165.717 110.102C162.657 108.338 163.055 105.256 166.574 103.201L166.773 103.086C170.3 101.046 175.625 100.824 178.669 102.587L227.731 129.071C230.791 130.835 230.393 133.909 226.874 135.972L226.675 136.094C223.194 138.119 217.839 138.341 214.779 136.578Z" fill="#272727"/>
<path d="M173.559 106.981L219.544 131.686" stroke="#F7F6F6" stroke-width="4" stroke-linecap="round" stroke-linejoin="round"/>
<path d="M231.97 128.194C231.979 126.674 229.86 125.428 227.236 125.411C224.613 125.395 222.478 126.614 222.468 128.134C222.459 129.654 224.578 130.9 227.202 130.917C229.826 130.933 231.96 129.714 231.97 128.194Z" fill="#FFDC1A"/>
<path d="M193.29 149.367L144.229 122.899C141.169 121.135 141.567 118.053 145.086 115.998L145.293 115.883C148.812 113.843 154.136 113.621 157.181 115.385L206.242 141.868C209.302 143.632 208.912 146.714 205.385 148.769L205.187 148.892C201.667 150.916 196.343 151.131 193.29 149.367Z" fill="#272727"/>
<path d="M152.062 119.778L198.056 144.475" stroke="#F7F6F6" stroke-width="4" stroke-linecap="round" stroke-linejoin="round"/>
<path d="M235.833 123.788L186.772 97.3045C183.712 95.5409 184.11 92.4586 187.629 90.4037L187.836 90.281C191.355 88.2491 196.679 88.0268 199.724 89.7903L248.785 116.266C251.845 118.03 251.455 121.112 247.928 123.167L247.729 123.282C244.21 125.329 238.886 125.552 235.833 123.788Z" fill="#272727"/>
<path d="M194.605 94.1917L240.599 118.896" stroke="#F7F6F6" stroke-width="4" stroke-linecap="round" stroke-linejoin="round"/>
<path d="M253.011 115.409C253.02 113.889 250.901 112.643 248.277 112.627C245.654 112.61 243.519 113.829 243.509 115.349C243.5 116.869 245.619 118.115 248.243 118.132C250.867 118.148 253.001 116.929 253.011 115.409Z" fill="#FFDC1A"/>
<path d="M76.0569 240.733L1.19141 197.412L1.22201 189.529L76.0569 232.843V240.733Z" fill="#0533FD"/>
<path d="M76.0488 240.733L150.914 197.412L150.884 189.529L76.0488 232.843V240.733Z" fill="#E4EBF2"/>
<path d="M150.885 189.529L75.9964 146.185L1.22266 189.529L76.0499 232.843L150.885 189.529Z" fill="#F7F6F6"/>
<path d="M76.0493 240.733L150.915 197.412L150.884 189.529L75.9957 146.185L1.22201 189.529L1.19141 197.412L76.0493 240.733Z" stroke="#272727" stroke-width="0.5" stroke-miterlimit="10"/>
<path d="M150.884 189.529L76.0488 232.843V240.733" stroke="#272727" stroke-width="0.5" stroke-miterlimit="10"/>
<path d="M76.0499 232.843L1.22266 189.529" stroke="#272727" stroke-width="0.5" stroke-miterlimit="10"/>
<path d="M52.3633 179.147L59.3786 195.502L112.938 187.942" stroke="#0533FD" stroke-width="6" stroke-linecap="round" stroke-linejoin="round"/>
<path d="M326.19 95.7634L251.324 52.442L251.347 44.5598L326.182 87.8736L326.19 95.7634Z" fill="#0533FD"/>
<path d="M625.055 332.038L400.868 202.281L177.025 332.038L401.029 461.702L625.055 332.038Z" fill="#EEEEEE"/>
<path d="M625.055 332.038L400.868 202.281L177.025 332.038L401.029 461.702L625.055 332.038Z" fill="#EEEEEE"/>
<path d="M625.055 332.038L400.868 202.281L177.025 332.038L401.029 461.702L625.055 332.038Z" fill="#EEEEEE"/>
<path d="M326.174 95.7634L401.039 52.442L401.016 44.5598L326.181 87.8736L326.174 95.7634Z" fill="#E4EBF2"/>
<path d="M401.018 44.5598L326.129 1.21533L251.348 44.5598L326.183 87.8735L401.018 44.5598Z" fill="#F7F6F6"/>
<path d="M326.174 95.7634L401.04 52.442L401.017 44.5598L326.129 1.21533L251.347 44.5598L251.324 52.442L326.174 95.7634Z" stroke="#272727" stroke-width="0.5" stroke-miterlimit="10"/>
<path d="M401.017 44.5598L326.182 87.8736V95.7634" stroke="#272727" stroke-width="0.5" stroke-miterlimit="10"/>
<path d="M326.183 87.8736L251.348 44.5598" stroke="#272727" stroke-width="0.5" stroke-miterlimit="10"/>
<path d="M326.266 10.9302L340.487 19.2111" stroke="#0533FD" stroke-width="6" stroke-linecap="round" stroke-linejoin="round"/>
<path d="M318.18 15.6072L332.394 23.8804" stroke="#0533FD" stroke-width="6" stroke-linecap="round" stroke-linejoin="round"/>
<path d="M378.211 161.29L348.482 143.992C345.86 142.468 343.684 140.281 342.171 137.649C340.658 135.016 339.861 132.032 339.861 128.994C339.861 125.957 340.658 122.972 342.171 120.34C343.684 117.708 345.86 115.52 348.482 113.997L380.483 95.449C381.848 94.6567 382.982 93.5198 383.772 92.1517C384.562 90.7836 384.98 89.2319 384.986 87.6512C384.991 86.0705 384.583 84.516 383.803 83.1425C383.022 81.769 381.896 80.6243 380.537 79.8226L363.416 69.7322" stroke="#0533FD" stroke-width="0.75" stroke-linecap="round" stroke-linejoin="round"/>
<path d="M321.792 194.506L235.811 144.237" stroke="#0533FD" stroke-width="0.75" stroke-linecap="round" stroke-linejoin="round"/>
<path d="M258.203 230.857L219.186 207.671C214.312 204.777 208.751 203.251 203.086 203.251C197.421 203.251 191.861 204.777 186.986 207.671L154.687 226.839C150.767 229.162 146.296 230.387 141.743 230.387C137.189 230.387 132.718 229.162 128.798 226.839L111.738 216.55" stroke="#0533FD" stroke-width="0.75" stroke-linecap="round" stroke-linejoin="round"/>
<path d="M386.022 183.25L366.805 172.101L366.82 167.6L386.022 178.749V183.25Z" fill="#0533FD"/>
<path d="M386.016 183.25L413.342 167.8L413.327 163.299L386.023 178.749L386.016 183.25Z" fill="#E4EBF2"/>
<path d="M413.326 163.299L394.094 152.135L366.82 167.6L386.022 178.749L413.326 163.299Z" fill="#F7F6F6"/>
<path d="M386.015 183.25L413.341 167.8L413.326 163.299L394.093 152.135L366.82 167.6L366.805 172.101L386.015 183.25Z" stroke="#272727" stroke-width="0.5" stroke-miterlimit="10"/>
<path d="M413.327 163.299L386.023 178.749V183.25" stroke="#272727" stroke-width="0.5" stroke-miterlimit="10"/>
<path d="M386.023 178.749L366.82 167.6" stroke="#272727" stroke-width="0.5" stroke-miterlimit="10"/>
<path d="M326.014 216.688L306.797 205.539L306.812 201.038L326.014 212.187V216.688Z" fill="#0533FD"/>
<path d="M326.006 216.688L353.333 201.238L353.317 196.737L326.014 212.187L326.006 216.688Z" fill="#E4EBF2"/>
<path d="M353.318 196.737L334.086 185.573L306.812 201.038L326.015 212.187L353.318 196.737Z" fill="#F7F6F6"/>
<path d="M326.007 216.688L353.333 201.238L353.318 196.737L334.085 185.573L306.812 201.038L306.797 205.539L326.007 216.688Z" stroke="#272727" stroke-width="0.5" stroke-miterlimit="10"/>
<path d="M353.317 196.737L326.014 212.187V216.688" stroke="#272727" stroke-width="0.5" stroke-miterlimit="10"/>
<path d="M326.015 212.187L306.812 201.038" stroke="#272727" stroke-width="0.5" stroke-miterlimit="10"/>
<path d="M266.005 252.825L246.787 241.668L246.802 237.167L266.005 248.316V252.825Z" fill="#0533FD"/>
<path d="M265.998 252.825L293.325 237.367L293.309 232.866L266.006 248.316L265.998 252.825Z" fill="#E4EBF2"/>
<path d="M293.309 232.866L274.076 221.702L246.803 237.167L266.005 248.316L293.309 232.866Z" fill="#F7F6F6"/>
<path d="M265.997 252.825L293.324 237.367L293.308 232.866L274.076 221.702L246.802 237.167L246.787 241.668L265.997 252.825Z" stroke="#272727" stroke-width="0.5" stroke-miterlimit="10"/>
<path d="M293.31 232.866L266.006 248.316V252.825" stroke="#272727" stroke-width="0.5" stroke-miterlimit="10"/>
<path d="M266.005 248.316L246.803 237.175" stroke="#272727" stroke-width="0.5" stroke-miterlimit="10"/>
<path d="M426.331 380.772L238.41 272.039L238.487 252.25L426.316 360.967L426.331 380.772Z" fill="#0533FD"/>
<path d="M426.301 380.772L614.214 272.039L614.145 252.25L426.316 360.967L426.301 380.772Z" fill="#E4EBF2"/>
<path d="M614.147 252.25L426.172 143.448L238.488 252.25L426.318 360.967L614.147 252.25Z" fill="#F7F6F6"/>
<path d="M426.301 380.772L614.214 272.04L614.145 252.25L426.171 143.448L238.487 252.25L238.41 272.04L426.301 380.772Z" stroke="#272727" stroke-width="0.5" stroke-miterlimit="10"/>
<path d="M614.146 252.25L426.316 360.967V380.772" stroke="#272727" stroke-width="0.5" stroke-miterlimit="10"/>
<path d="M426.318 360.967L238.488 252.25" stroke="#272727" stroke-width="0.5" stroke-miterlimit="10"/>
<path fill-rule="evenodd" clip-rule="evenodd" d="M402.77 232.958C406.508 229.132 410.704 225.784 415.263 222.99L417.856 221.373C417.856 221.373 443.041 224.44 460.063 236.708C471.324 244.843 475.241 254.565 475.241 254.565C475.241 254.565 456.781 266.013 432.721 267.83C410.925 269.486 397.208 266.511 397.208 266.511C397.208 266.511 387.783 247.979 402.77 232.935" fill="#FFDC1A"/>
<path d="M361.228 227.944L377.225 230.451L376.529 231.471C365.658 247.327 367.624 263.475 374.333 279.83C394.545 282.605 415.071 284.016 435.275 282.13C435.795 282.608 436.367 283.025 436.981 283.372C441.725 286.117 449.398 286.132 454.11 283.372C458.823 280.612 458.8 276.21 454.049 273.466C449.298 270.721 441.633 270.698 436.92 273.427C435.575 274.126 434.482 275.227 433.791 276.579C417.351 278.112 400.773 277.169 384.141 274.838L383.124 274.692L382.879 274.11C375.856 257.302 376.644 241.906 391.065 226.793L373.415 224.11L365.13 222.806L366.056 221.741C375.435 210.814 388.907 201.107 403.244 192.366L403.955 191.929L404.95 192.106C428.834 196.269 452.703 201.874 472.471 210.952L479.356 206.981C456.597 196.346 428.421 189.828 400.719 184.959C380.936 197.112 362.2 210.738 351.834 226.494L361.221 227.944H361.228ZM448.61 276.655C450.324 277.652 450.339 279.262 448.61 280.251C447.647 280.739 446.583 280.993 445.504 280.993C444.425 280.993 443.361 280.739 442.398 280.251C440.677 279.254 440.669 277.644 442.398 276.663C443.361 276.175 444.425 275.921 445.504 275.921C446.583 275.921 447.647 276.175 448.61 276.663" fill="#272727"/>
<path d="M491.534 213.375L473.174 223.995L471.98 223.343C454.606 213.283 432.474 207.464 409.309 203.369C406.356 205.194 403.464 207.065 400.672 208.982C396.771 208.476 392.532 209.097 389.51 210.845C384.798 213.575 384.821 218.014 389.572 220.759C394.322 223.504 401.988 223.519 406.701 220.797C410.526 218.597 411.214 215.292 408.873 212.654C409.86 212.026 410.862 211.397 411.864 210.784L412.576 210.347L413.578 210.523C436.996 214.61 457.498 221.027 472.791 232.237L491.274 221.541L492.468 222.392C508.694 233.94 518.586 248.025 525.945 262.133L526.244 262.708L525.479 263.122C515.118 268.862 504.404 273.935 493.401 278.311L496.132 284.139C510.638 278.661 524.726 272.131 538.285 264.602C528.531 245.97 515.434 227.529 491.534 213.375ZM401.261 217.577C400.298 218.065 399.234 218.319 398.155 218.319C397.076 218.319 396.012 218.065 395.049 217.577C393.328 216.58 393.328 214.978 395.049 213.989C396.011 213.502 397.074 213.249 398.151 213.249C399.229 213.249 400.292 213.502 401.254 213.989C402.967 214.985 402.983 216.596 401.254 217.585" fill="#272727"/>
<path d="M475.455 273.512C486.168 269.73 496.553 265.076 506.508 259.595C503.658 254.134 500.292 248.961 496.455 244.145C500.334 241.4 500.035 237.329 495.575 234.752C490.832 232 483.159 231.984 478.446 234.714C473.734 237.444 473.764 241.883 478.508 244.628C481.295 246.104 484.422 246.818 487.573 246.698C490.051 249.983 492.25 253.472 494.145 257.126L494.443 257.709L493.678 258.115C483.939 263.493 473.662 267.826 463.016 271.043L470.008 285.948L468.685 286.278C433.448 295.218 397.713 293.439 360.938 288.295L359.928 288.157L359.684 287.574C352.76 270.974 348.973 253.737 356.195 237.014L346.862 235.55C338.668 254.55 343.343 274.393 351.146 293.24C396.726 299.558 438.979 301.575 481.438 289.015L474.346 273.887L475.455 273.512ZM483.955 241.477C482.233 240.48 482.226 238.877 483.955 237.888C484.917 237.402 485.979 237.148 487.057 237.148C488.134 237.148 489.197 237.402 490.159 237.888C491.88 238.885 491.888 240.495 490.159 241.484C489.197 241.971 488.134 242.224 487.057 242.224C485.979 242.224 484.917 241.971 483.955 241.484" fill="#272727"/>
<path fill-rule="evenodd" clip-rule="evenodd" d="M429.675 250.716L422.507 254.864C421.733 255.253 420.879 255.456 420.013 255.456C419.147 255.456 418.293 255.253 417.519 254.864C416.142 254.097 416.127 252.771 417.519 251.981L424.687 247.833C422.981 245.671 423.647 243.049 426.692 241.285C430.616 238.985 437.004 239.031 440.952 241.285C444.899 243.539 444.93 247.266 441.005 249.543C437.945 251.307 433.424 251.69 429.698 250.701" fill="black"/>
<path d="M469.35 370.521L450.133 359.372L450.148 354.872L469.35 366.02V370.521Z" fill="#0533FD"/>
<path d="M469.342 370.521L496.669 355.063L496.653 350.562L469.342 366.02V370.521Z" fill="#E4EBF2"/>
<path d="M496.653 350.562L477.42 339.406L450.146 354.872L469.341 366.02L496.653 350.562Z" fill="#F7F6F6"/>
<path d="M469.343 370.521L496.669 355.063L496.654 350.562L477.421 339.406L450.148 354.872L450.133 359.372L469.343 370.521Z" stroke="#272727" stroke-width="0.5" stroke-miterlimit="10"/>
<path d="M496.653 350.562L469.342 366.02V370.521" stroke="#272727" stroke-width="0.5" stroke-miterlimit="10"/>
<path d="M469.341 366.02L450.146 354.872" stroke="#272727" stroke-width="0.5" stroke-miterlimit="10"/>
<path d="M523.306 446.299L508.977 437.865C507.239 436.848 505.797 435.393 504.795 433.644C503.792 431.895 503.265 429.914 503.265 427.897C503.265 425.88 503.792 423.898 504.795 422.149C505.797 420.4 507.239 418.945 508.977 417.929L529.38 406.014C530.948 405.102 532.249 403.795 533.153 402.221C534.058 400.647 534.534 398.863 534.534 397.047C534.534 395.23 534.058 393.446 533.153 391.872C532.249 390.299 530.948 388.991 529.38 388.079L483.227 361.358" stroke="#0533FD" stroke-width="0.75" stroke-linecap="round" stroke-linejoin="round"/>
<path d="M722.552 423.161L647.725 379.848" stroke="#272727" stroke-width="0.5" stroke-miterlimit="10"/>
<path d="M555.223 519.01L480.357 475.688L480.388 467.806L555.223 511.12V519.01Z" fill="#0533FD"/>
<path d="M555.217 519.01L630.082 475.688L630.052 467.806L555.224 511.12L555.217 519.01Z" fill="#E4EBF2"/>
<path d="M630.051 467.806L555.162 424.462L480.389 467.806L555.224 511.12L630.051 467.806Z" fill="#F7F6F6"/>
<path d="M555.215 519.01L630.081 475.689L630.05 467.806L555.162 424.462L480.388 467.806L480.357 475.689L555.215 519.01Z" stroke="#272727" stroke-width="0.5" stroke-miterlimit="10"/>
<path d="M630.052 467.806L555.225 511.12V519.01" stroke="#272727" stroke-width="0.5" stroke-miterlimit="10"/>
<path d="M555.223 511.12L480.389 467.806" stroke="#272727" stroke-width="0.5" stroke-miterlimit="10"/>
<path d="M722.584 423.197L797.449 379.876L797.419 371.993L722.584 415.307V423.197Z" fill="#E4EBF2"/>
<path d="M722.59 423.197L647.725 379.876L647.755 371.993L722.59 415.307V423.197Z" fill="#0533FD"/>
<path d="M574.62 309.043L555.402 297.895L555.418 293.394L574.612 304.542L574.62 309.043Z" fill="#0533FD"/>
<path d="M574.611 309.043L601.93 293.593L601.915 289.092L574.611 304.542V309.043Z" fill="#E4EBF2"/>
<path d="M601.914 289.092L582.689 277.928L555.416 293.394L574.611 304.542L601.914 289.092Z" fill="#F7F6F6"/>
<path d="M574.612 309.043L601.931 293.593L601.916 289.092L582.691 277.928L555.418 293.394L555.402 297.894L574.612 309.043Z" stroke="#272727" stroke-width="0.5" stroke-miterlimit="10"/>
<path d="M601.915 289.092L574.611 304.542V309.043" stroke="#272727" stroke-width="0.5" stroke-miterlimit="10"/>
<path d="M574.61 304.542L555.416 293.394" stroke="#272727" stroke-width="0.5" stroke-miterlimit="10"/>
<path d="M690.353 357.264L589.393 298.761" stroke="#0533FD" stroke-width="0.75" stroke-linecap="round" stroke-linejoin="round"/>
<path d="M797.418 371.993L722.53 328.649L647.756 371.993L722.583 415.307L797.418 371.993Z" fill="#F7F6F6"/>
<path d="M722.582 423.197L797.448 379.876L797.417 371.993L722.529 328.649L647.755 371.993L647.725 379.876L722.582 423.197Z" stroke="#272727" stroke-width="0.5" stroke-miterlimit="10"/>
<path d="M797.419 371.993L722.584 415.307V423.197" stroke="#272727" stroke-width="0.5" stroke-miterlimit="10"/>
<path d="M358.401 12.1191V42.104L312.832 67.6806L317.048 57.404L321.977 57.4591L333.033 33.3978L339.16 39.8723L344.729 30.5876L348.561 34.1509L358.401 12.1191Z" fill="#FFF4C2"/>
<path d="M312.833 67.6802L308.443 65.2465L312.65 54.97L317.049 57.4037L312.833 67.6802Z" fill="#FFBE2E"/>
<path d="M311.736 67.3453L308.709 65.582L312.925 55.3054L317.314 57.7391L313.739 66.4544L311.736 67.3453Z" fill="#FFDC1A"/>
<path d="M317.579 55.0251L321.978 57.4588L317.049 57.4037L312.65 54.97L317.579 55.0251Z" fill="#FFBE2E"/>
<path d="M317.932 55.3422L322.422 57.8034L317.31 57.7391L313.012 55.3054L317.932 55.3422Z" fill="#FFDC1A"/>
<path d="M328.636 30.9731L333.035 33.3976L321.979 57.459L317.58 55.0253L328.636 30.9731Z" fill="#FFBE2E"/>
<path d="M328.645 30.9729L333.035 33.4066L321.979 57.4587L317.58 55.0342L328.645 30.9729Z" fill="#FFDC1A"/>
<path d="M340.331 28.1631L344.73 30.5876L339.161 39.8723L335.484 35.9876L340.331 28.1631Z" fill="#FFBE2E"/>
<path d="M340.462 28.2959L344.861 30.7296L339.291 40.0051L335.615 36.1204L340.462 28.2959Z" fill="#FFDC1A"/>
<path d="M354.005 9.6853L358.404 12.119L348.564 34.1507L344.732 30.5874L354.005 9.6853Z" fill="#FFBE2E"/>
<path d="M354.107 9.6853L357.58 11.5506L358.081 12.259L348.602 33.6914L344.732 30.204L354.107 9.6853Z" fill="#FFDC1A"/>
<path d="M358.732 12.1832V11.9261L358.247 11.6598L353.848 9.22607L344.603 30.1282L340.213 27.7221L335.458 35.4548L333.455 33.3425L333.272 33.1496L332.907 32.9476L328.508 30.5139L317.36 54.7038L312.742 54.6487H312.431L312.239 55.1446L308.023 65.3845L312.422 67.8182L312.843 68.0478L313.108 67.9008L358.732 42.2874V12.1832ZM354.159 10.1444L357.982 12.2567L348.444 33.5996L345.142 30.5323V30.468L354.159 10.1444ZM335.87 35.9415L340.442 28.5945L344.274 30.7068L339.116 39.3303L335.87 35.9415ZM328.764 31.4231L332.587 33.5354L328.197 43.0864L321.823 56.9814L320.387 56.1916L318 54.8783L328.764 31.4231ZM313.913 55.3008H317.461L319.29 56.3385L320.625 57.0732H318.924H317.095L314.525 55.6314L313.913 55.3008ZM312.797 55.4201L313.766 55.962L316.61 57.5324L312.669 67.212L308.856 65.0998L312.797 55.4201ZM313.51 66.9273L317.287 57.7436L321.86 57.7987H322.161L322.372 57.3304L328.627 43.7385L333.135 34.0221L335.074 36.0609L339.226 40.4507L344.804 31.1476L348.682 34.7384L358.073 13.671V41.9201L313.51 66.9273Z" fill="#16110D"/>
<path d="M561.149 462.087L561.202 458.066H559.425V458.013L557.944 462.223H557.341L555.776 464.192L549.133 466.812L539.877 467.686L533.139 466.602L526.919 461.339C526.953 461.165 526.995 460.993 527.046 460.824L525.205 457.456L525.142 457.529H523.344L523.27 462.087V462.466V462.802C523.492 465.381 525.29 467.928 528.685 469.949C536.027 474.306 548.022 474.475 555.48 470.338C558.939 468.423 560.769 465.918 561.107 463.35V463.265C561.154 462.874 561.168 462.48 561.149 462.087V462.087Z" fill="#0533FD"/>
<path d="M542.545 473.801C537.623 473.901 532.761 472.714 528.444 470.359C525.038 468.338 523.039 465.654 522.764 462.823V462.476L522.838 456.992H524.953L525.281 456.613L525.704 457.182L527.63 460.771V460.96C527.63 461.023 527.63 461.086 527.63 461.15L533.342 466.128L539.868 467.18L549.018 466.296L555.46 463.76L557.047 461.655H557.544L559.205 456.929L559.67 457.508H561.722L561.648 462.086C561.681 462.486 561.681 462.887 561.648 463.286V463.391C561.31 466.233 559.226 468.854 555.767 470.759C551.682 472.851 547.138 473.896 542.545 473.801V473.801ZM523.821 458.013V462.444V462.739C524.012 465.244 525.852 467.644 528.962 469.454C536.155 473.717 548.003 473.895 555.259 469.833C558.433 468.075 560.337 465.728 560.622 463.223V463.118C560.655 462.768 560.655 462.415 560.622 462.065V462.065V458.539H559.649L558.179 462.697H557.481L556.021 464.644L549.209 467.349L539.879 468.243L532.919 467.075L526.371 461.571V461.286C526.371 461.16 526.371 461.044 526.455 460.918L524.953 458.034L523.821 458.013Z" fill="#16110D"/>
<path d="M524.773 458.013L526.995 461.034C527.439 459.182 528.92 457.392 531.438 455.992C537.488 452.635 547.231 452.772 553.186 456.308C555.629 457.761 557.058 459.571 557.47 461.423L559.586 458.15C559.385 457.887 559.163 457.634 558.93 457.382L559.818 457.782C559.215 457.192 554.413 450.298 554.413 450.298L543.401 447.604L533.183 448.93L526.498 454.298L526.022 456.403L525.281 456.645C524.678 457.192 525.197 457.434 524.773 458.013Z" fill="#16110D"/>
<path d="M557.236 462.75L556.971 461.55C556.58 459.761 555.173 458.098 552.92 456.761C547.091 453.319 537.571 453.182 531.679 456.456C529.373 457.74 527.914 459.371 527.448 461.171L527.194 462.223L526.549 461.339L524.328 458.298L524.105 457.992L524.328 457.698C524.366 457.653 524.394 457.601 524.411 457.545C524.427 457.488 524.431 457.429 524.423 457.371C524.41 457.168 524.449 456.966 524.536 456.782C524.623 456.598 524.755 456.439 524.92 456.319L525.089 456.214L525.555 456.056L526.041 454.014L532.97 448.404L543.431 447.099L554.676 449.877L554.782 450.035C556.633 452.688 559.711 457.035 560.134 457.403L560.441 457.708L560.155 458.098L557.236 462.75ZM541.951 453.088C545.961 453.011 549.921 453.979 553.438 455.898C555.284 456.859 556.768 458.387 557.67 460.255L558.971 458.203L558.569 457.74L556.823 455.929L558.156 456.529C556.739 454.593 554.644 451.562 554.062 450.762L543.368 448.12L533.34 449.456L526.993 454.582L526.454 456.824L525.544 457.14C525.459 457.213 525.459 457.256 525.459 457.392C525.479 457.601 525.446 457.81 525.364 458.003L526.824 459.982C527.753 458.065 529.303 456.515 531.224 455.582C534.537 453.879 538.223 453.022 541.951 453.088V453.088Z" fill="#16110D"/>
<path d="M558.327 472.791L561.204 467.854L557.872 465.697C557.644 465.593 557.392 465.55 557.141 465.572C556.891 465.594 556.651 465.681 556.444 465.823C555.839 466.192 555.331 466.7 554.963 467.304C554.595 467.908 554.377 468.591 554.329 469.296C554.305 469.518 554.333 469.743 554.41 469.953C554.487 470.163 554.611 470.352 554.773 470.507V470.507C554.822 470.555 554.879 470.594 554.942 470.622L558.327 472.791Z" fill="#0533FD"/>
<path d="M529.004 449.793C521.536 453.93 521.441 460.824 528.772 465.181C536.102 469.539 548.151 469.717 555.555 465.571C562.96 461.424 563.119 454.53 555.777 450.172C548.436 445.815 536.515 445.647 529.004 449.793ZM553.069 464.087C547.019 467.444 537.276 467.349 531.321 463.771C525.366 460.192 525.45 454.646 531.511 451.278C537.573 447.909 547.294 448.057 553.249 451.562C559.205 455.067 559.131 460.719 553.069 464.087Z" fill="#E4EBF2"/>
<path d="M542.607 469.065C537.687 469.161 532.829 467.971 528.517 465.613C524.804 463.413 522.762 460.497 522.826 457.403C522.889 454.309 524.941 451.446 528.749 449.351C536.344 445.141 548.594 445.31 556.062 449.741C559.775 451.951 561.784 454.866 561.742 457.961C561.7 461.055 559.627 463.918 555.818 466.013C551.738 468.106 547.197 469.155 542.607 469.065V469.065ZM541.972 447.288C537.562 447.209 533.201 448.218 529.278 450.225C525.798 452.14 523.883 454.719 523.82 457.414C523.757 460.108 525.629 462.739 529.014 464.781C536.207 469.054 548.054 469.223 555.311 465.16C558.749 463.255 560.674 460.697 560.716 457.982C560.758 455.266 558.928 452.614 555.554 450.614C551.397 448.342 546.714 447.195 541.972 447.288V447.288ZM542.554 467.012C538.543 467.086 534.582 466.114 531.066 464.192C528.051 462.392 526.369 459.982 526.401 457.456C526.433 454.93 528.168 452.551 531.225 450.835C537.413 447.404 547.398 447.541 553.438 451.162C556.474 452.961 558.135 455.372 558.093 457.908C558.05 460.445 556.337 462.802 553.248 464.528C549.941 466.215 546.269 467.068 542.554 467.012ZM542.025 449.341C538.456 449.273 534.926 450.09 531.753 451.719C528.993 453.256 527.448 455.298 527.417 457.466C527.385 459.634 528.866 461.676 531.584 463.339C537.392 466.781 546.922 466.928 552.825 463.644C555.554 462.087 557.13 460.066 557.162 457.877C557.194 455.687 555.713 453.667 552.994 452.004C549.634 450.179 545.852 449.261 542.025 449.341V449.341Z" fill="#16110D"/>
<path d="M554.973 467.233L558.231 469.265L560.738 467.549L557.226 465.412L554.973 467.233Z" fill="#E4EBF2"/>
<path d="M558.497 473.496L554.668 471.022C554.588 470.982 554.514 470.932 554.446 470.875C554.224 470.67 554.052 470.417 553.942 470.137C553.832 469.856 553.787 469.554 553.811 469.254C553.858 468.465 554.096 467.698 554.502 467.019C554.909 466.339 555.474 465.767 556.149 465.349C556.43 465.165 556.755 465.058 557.092 465.039C557.428 465.021 557.763 465.091 558.063 465.244L558.158 465.307L561.903 467.686L558.497 473.496ZM557.27 466.044C557.049 466.052 556.834 466.118 556.646 466.233C556.127 466.564 555.691 467.01 555.374 467.536C555.056 468.061 554.865 468.653 554.816 469.265C554.801 469.416 554.818 469.569 554.865 469.714C554.912 469.859 554.989 469.993 555.091 470.107L555.218 470.18L558.148 472.075L560.528 468.012L557.598 466.118C557.496 466.066 557.384 466.041 557.27 466.044V466.044Z" fill="#16110D"/>
<path d="M561.206 467.854C560.98 467.76 560.734 467.724 560.49 467.748C560.246 467.771 560.012 467.855 559.809 467.991C559.205 468.361 558.698 468.87 558.33 469.474C557.962 470.078 557.744 470.76 557.694 471.464C557.66 471.718 557.697 471.976 557.802 472.21C557.907 472.444 558.074 472.645 558.286 472.79V472.79L564.347 478.053L568.748 471.138L561.206 467.854Z" fill="#0533FD"/>
<path d="M558.494 469.265L565.359 473.001L568.268 470.801L560.525 467.697L558.494 469.265Z" fill="#E4EBF2"/>
<path d="M564.504 478.769L557.987 473.169C557.72 472.975 557.509 472.714 557.375 472.413C557.242 472.112 557.19 471.781 557.226 471.454C557.274 470.666 557.512 469.901 557.919 469.224C558.325 468.546 558.889 467.975 559.564 467.56C559.835 467.378 560.148 467.268 560.474 467.241C560.8 467.213 561.127 467.269 561.425 467.402L569.528 470.864L564.504 478.769ZM560.695 468.244C560.471 468.259 560.253 468.328 560.061 468.444C559.541 468.775 559.106 469.223 558.79 469.751C558.474 470.279 558.287 470.873 558.241 471.485C558.215 471.647 558.231 471.812 558.288 471.966C558.346 472.119 558.443 472.255 558.569 472.359L564.281 477.253L568.037 471.338L560.97 468.296C560.885 468.253 560.791 468.231 560.695 468.233V468.244Z" fill="#16110D"/>
<path d="M579.6 478.737C579.538 478.691 579.47 478.652 579.399 478.622L569.223 471.254C568.891 471.082 568.517 471.005 568.144 471.031C567.771 471.057 567.412 471.185 567.107 471.401C566.223 471.948 565.482 472.696 564.945 473.584C564.408 474.471 564.091 475.473 564.018 476.506C563.98 476.859 564.031 477.215 564.168 477.543C564.305 477.87 564.523 478.158 564.801 478.379C564.9 478.445 565.007 478.498 565.118 478.537L576.225 484.074C576.292 484.115 576.363 484.15 576.437 484.179L580.319 486.105L583.133 481.137L579.6 478.737Z" fill="#0533FD"/>
<path d="M565.359 473.001L580.338 482.368L582.559 480.737L568.787 471.096L565.835 472.348L565.359 473.001Z" fill="#E4EBF2"/>
<path d="M580.539 486.768L564.905 478.99C564.774 478.937 564.65 478.87 564.534 478.79C564.187 478.523 563.913 478.172 563.739 477.771C563.565 477.369 563.497 476.93 563.54 476.495C563.605 475.382 563.939 474.3 564.514 473.342C565.088 472.384 565.886 471.577 566.84 470.991C567.228 470.729 567.682 470.578 568.15 470.556C568.618 470.534 569.084 470.641 569.495 470.865L583.829 481.032L580.539 486.768ZM568.385 471.559C568.01 471.576 567.646 471.689 567.327 471.885C566.537 472.393 565.875 473.075 565.393 473.878C564.91 474.681 564.62 475.584 564.545 476.516C564.507 476.782 564.536 477.052 564.628 477.303C564.72 477.555 564.873 477.78 565.074 477.958C565.135 478.004 565.203 478.039 565.275 478.064L580.084 485.431L582.432 481.284L568.924 471.696C568.761 471.6 568.574 471.552 568.385 471.559V471.559Z" fill="#16110D"/>
<path d="M586.453 483.274L583.216 481.169H583.152C582.926 481.062 582.676 481.018 582.426 481.04C582.177 481.062 581.939 481.15 581.735 481.295C581.133 481.666 580.628 482.172 580.261 482.774C579.893 483.376 579.673 484.055 579.619 484.758C579.583 485.029 579.629 485.306 579.752 485.551C579.874 485.797 580.068 486.001 580.307 486.136L583.628 488.241L586.453 483.274Z" fill="#0533FD"/>
<path d="M580.52 482.495L584 484.8L585.946 482.926L582.487 481.01L580.52 482.495Z" fill="#E4EBF2"/>
<path d="M583.512 488.757L580.064 486.526C579.748 486.351 579.493 486.086 579.33 485.765C579.168 485.444 579.107 485.082 579.154 484.726C579.202 483.937 579.439 483.17 579.846 482.491C580.253 481.811 580.817 481.239 581.492 480.821C581.771 480.633 582.096 480.523 582.432 480.5C582.769 480.478 583.105 480.545 583.407 480.695L583.502 480.758L587.12 483.137L583.512 488.757ZM582.613 481.505C582.388 481.519 582.171 481.588 581.979 481.705C581.462 482.038 581.03 482.485 580.715 483.01C580.399 483.536 580.209 484.126 580.159 484.736C580.159 485.2 580.297 485.526 580.54 485.642L583.481 487.547L585.776 483.442L582.941 481.589C582.841 481.535 582.728 481.506 582.613 481.505V481.505Z" fill="#16110D"/>
<path d="M586.843 482.916C586.541 482.758 586.202 482.684 585.861 482.703C585.52 482.722 585.191 482.831 584.908 483.021C584.234 483.441 583.67 484.014 583.262 484.693C582.854 485.371 582.613 486.137 582.559 486.926C582.527 487.265 582.587 487.607 582.732 487.916C582.877 488.225 583.102 488.49 583.384 488.683C583.628 488.826 583.906 488.899 584.188 488.894C584.591 488.885 584.985 488.773 585.331 488.568C586.006 488.15 586.57 487.578 586.977 486.898C587.384 486.219 587.621 485.452 587.668 484.663C587.704 484.324 587.647 483.983 587.501 483.675C587.356 483.367 587.128 483.104 586.843 482.916V482.916Z" fill="#16110D"/>
<path d="M727.229 364.261V340.157L741.039 348.099V372.203L727.229 364.261Z" fill="#0533FD"/>
<path d="M727.229 340.158L739.85 332.939L753.675 340.881L741.039 348.099L727.229 340.158Z" fill="#FFBE2E"/>
<path d="M727.422 340.38L739.848 333.272L753.672 341.214L740.924 348.099L727.422 340.38Z" fill="white"/>
<path d="M739.85 332.271L726.697 339.824V364.609L741.094 372.884L754.303 365.332V340.616L739.85 332.271ZM740.465 371.215L727.802 363.941V341.173L740.465 348.433V371.215ZM728.389 340.157L739.85 333.662L752.5 340.922L741.038 347.473L728.389 340.157Z" fill="#16110D"/>
<path d="M741.85 371.154L753.28 364.728V341.789L741.666 348.504L741.85 371.154Z" fill="#E4EBF2"/>
<path d="M709.154 374.303V359.963L722.978 367.891V382.245L709.154 374.303Z" fill="#0533FD"/>
<path d="M709.154 359.963L721.776 352.745L735.6 360.673L722.978 367.891L709.154 359.963Z" fill="#FFBE2E"/>
<path d="M709.35 360.158L721.776 353.051L728.688 357.022L735.6 360.993L722.852 367.891L709.35 360.158Z" fill="white"/>
<path d="M721.776 352.063L708.525 359.616V374.637L722.936 382.912L736.187 375.388V360.339L721.776 352.063ZM722.391 381.271L709.741 373.997V360.965L722.391 368.239V381.271ZM710.329 359.963L721.776 353.412L734.426 360.673L722.978 367.224L710.329 359.963Z" fill="#16110D"/>
<path d="M690.941 384.512V378.169L704.765 386.111V392.481L690.941 384.512Z" fill="#0533FD"/>
<path d="M690.941 378.142L703.563 370.923L717.387 378.865L704.765 386.083L690.941 378.142Z" fill="#FFBE2E"/>
<path d="M691.639 378.017L704.065 370.923L717.889 378.865L705.141 385.75L691.639 378.017Z" fill="white"/>
<path d="M703.563 370.256L690.354 377.808V384.846L704.751 393.191L717.974 385.638V378.531L703.563 370.256ZM704.178 391.452L691.598 384.178V379.143L704.247 386.417L704.178 391.452ZM692.115 378.17L703.563 371.619L716.212 378.865L704.765 385.416L692.115 378.17Z" fill="#16110D"/>
<path d="M723.789 381.381L735.363 374.834V361.51L723.789 368.4V381.381Z" fill="#E4EBF2"/>
<path d="M705.486 391.562L717.06 385.042V379.848L705.486 386.738V391.562Z" fill="#E4EBF2"/>
</svg>
