<?xml version="1.0" encoding="UTF-8"?>
<svg id="Layer_2" data-name="Layer 2" xmlns="http://www.w3.org/2000/svg" viewBox="0 0 311.95 317.43">
  <defs>
    <style>
      .cls-1 {
        fill: #09254c;
      }

      .cls-2 {
        fill: #011b4d;
      }

      .cls-3 {
        fill: #001c4e;
      }

      .cls-4 {
        fill: #172f4b;
      }

      .cls-5 {
        fill: #fbe619;
      }

      .cls-6 {
        fill: #faee16;
      }

      .cls-7 {
        fill: #fedb1a;
      }

      .cls-8 {
        fill: #142d4c;
      }

      .cls-9 {
        fill: #1d3647;
      }

      .cls-10 {
        fill: #1d3547;
      }

      .cls-11 {
        fill: #fbee14;
      }
    </style>
  </defs>
  <g id="Layer_1-2" data-name="Layer 1">
    <path class="cls-7" d="M155.97,212.7c-40.06-24.52-63.24-58.54-65.4-105.67-.25-5.55,1.45-8.39,6.39-10.85,39.38-19.68,78.55-19.85,117.82,.27,4.27,2.18,5.97,4.68,5.84,9.57-1.32,47.58-24.18,82.03-64.64,106.68Z"/>
    <path class="cls-9" d="M201.82,4.88c-8.75-1.82-17.9-1.45-26.33-4.88h-16.65V41.94c-41.42,.06-78.14,13.2-113.1,32.28,0,3.05-.25,5.56,.05,8.01,.86,7.15,.52,13.22-4.89,19.49-6.27,7.28-3.7,18.07,3.66,24.52,7.34,6.44,17.54,6.63,25.1,.48,7.66-6.22,9.53-15.95,4.96-24.6-2.44-4.62-6.75-7.1-10.62-9.5-.59-8.11-.69-8.31,3.14-10.31,26.46-13.8,54.04-23.83,84.36-24.21,7.36-.09,14.73-.01,22.73-.01V17.13c32.81,1.76,87.69,20.74,119.56,41.23,.48,22.5-2.36,44.91-6.08,67.71,4.68,2.69,9.29,5.35,14.64,8.43,6.2-29.19,8.48-57.68,9.61-86.57C276.74,28.96,240.86,13,201.82,4.88ZM64.04,111.48c.04,4.36-2.47,6.41-6.7,6.75-4.12-.36-6.7-2.46-6.67-6.74,.03-4.2,2.47-6.72,6.7-6.71,4.19,.01,6.63,2.4,6.67,6.69Z"/>
    <path class="cls-10" d="M145.92,142.73c-1.74-2.71-4.99-4.49-5.15-8.19,.29-6.93-.18-14.19,7.73-17.83,6.27-3.28,12.16-2.83,17.66,1.73,6.15,8.76,6.06,13.35-.4,21.28-1.71,2.1-3.98,3.84-4.45,6.76-.37,3.51-.02,7.04-.43,10.53-.41,3.42-1.56,6.35-5.58,6.87-4.88-1.05-4.65-5.07-5.19-8.74-.41-2.79,1.23-5.91-1.33-8.34-1.09-1.26-2.21-2.5-2.87-4.06Z"/>
    <path class="cls-4" d="M158.84,144.6c1.21-1.49,2.33-3.07,3.66-4.46,7.62-7.97,7.99-10.33,3.01-20.48,.51-1.37,1.38-2.2,2.96-1.97,7.02,7.27,7.23,13.76,.73,21.98-.25,.45-.39,.94-.43,1.46-2.38,1.92-4.88,3.63-7.89,4.41-.79-.08-1.48-.38-2.04-.95Z"/>
    <path class="cls-6" d="M160.66,144.65c2.45-1.77,4.78-3.79,8.12-3.52-5.19,5.32-5.52,11.9-4.96,18.74,.2,2.39-.27,4.44-3.27,4.66-1.5-6.64-1.42-13.26,.11-19.88Z"/>
    <path class="cls-8" d="M167.14,118.09c-.54,.52-1.09,1.05-1.63,1.57-5.31-3.05-10.73-5.01-16.69-1.67-.74-.6-1.86-.78-2.11-1.91,6.93-4.74,13.8-4.58,20.61,.27,.5,.45,.63,.85,.41,1.22-.21,.35-.41,.52-.6,.52Z"/>
    <path class="cls-5" d="M167.14,118.09c.06-.58,.12-1.16,.19-1.74,9.24,4.43,11.17,17.91,3.37,23.88-.22,.17-.98-.36-1.49-.56,3.23-7.57,5.56-15.05-2.06-21.58Z"/>
    <path class="cls-2" d="M149.2,146.3c.76-.68,1.53-1.36,2.56-2.27,1.5,6.4-1.27,12.99,2.11,18.82,.37,1.52,.05,2.34-1.73,1.71-.53,.03-1.06-.03-1.56-.21-4.72-5.69-2.66-11.9-1.38-18.05Z"/>
    <path class="cls-3" d="M146.72,116.08c.7,.64,1.4,1.28,2.11,1.91-4.69,2.69-6.75,6.82-6.63,12.14,.04,1.62,.17,3.3-1.42,4.41-2.44-9.12-.76-14.31,5.95-18.46Z"/>
    <path class="cls-1" d="M152.14,164.56l1.73-1.71c3.89-.18,5.01-2.58,4.96-6.03-.05-4.08,0-8.15,0-12.23l1.82,.05c-.04,6.63-.07,13.25-.11,19.88-2.8,1.47-5.59,3.18-8.41,.03Z"/>
    <path class="cls-11" d="M149.2,146.3c0,6.05-1.9,12.25,1.38,18.05-3,1.88-3.33-.9-3.25-2.36,.35-6.51-.73-12.87-1.41-19.27,2.15,.23,3.06,1.59,3.29,3.58Z"/>
    <path class="cls-9" d="M253.34,177.94c-2.08-11.05-12.55-18.53-23.16-16.54-11.48,2.15-18.48,13.38-14.85,25.1,1.36,4.39-.56,6.7-2.76,9.49-15.66,19.81-35.11,35.15-56.72,48.28-40.48-24.3-71.43-56.32-84.72-103.14-12.86,7.29-24.93,14.13-37.12,21.04-10.71-26.44-16.67-74.39-16.35-104.22C53.43,38.4,90.81,22.64,131.96,17.37c.27-5.58,.59-10.49-.17-15.8C84.25,7.11,41.69,25.48,0,47.67c1.14,47.24,6.4,93.48,25.82,137.74,12.44-7.18,24.12-13.92,36.53-21.08,18.98,45.41,53.19,75.5,93.44,100.3,28.3-17.35,53.66-37.61,73.11-63.82,2.35-1.47,4.24-.14,6.16-.38,11.68-1.46,20.27-11.93,18.28-22.49Zm-19.24,9.72c-4.05,.23-6.78-2.18-7.05-6.46-.27-4.35,2.13-6.57,6.37-7.09,4.08,.19,6.86,1.94,7.03,6.38,.16,4.31-2.32,6.95-6.35,7.17Z"/>
    <path class="cls-9" d="M257.88,138.91c4.69-21.86,8.31-43.29,7.62-65.02-11.19-5.91-22.06-11.36-33.44-15.63-4.54-1.7-7.67-3.57-9.52-8.82-3.38-9.59-14.37-13.89-24.06-10.73-8.73,2.85-14.28,12.11-12.97,21.67,1.31,9.57,9.64,16.03,19.96,16.24,5.74,.12,9.83-3.12,14.44-5.69,9.83,3.89,19.3,8.25,28.71,13.77-.97,20.79-3.22,41.23-9.69,61.55,12.39,7.21,24.65,14.34,36.99,21.52-22.91,59.84-68.09,97.57-120.14,129.24-41.35-25.3-78.69-54.27-104.35-96.3-4.59,2.7-8.82,5.19-13.59,7.99,29.05,47.74,71.6,79.9,117.89,108.72,62.64-38.36,116.41-83.75,139.47-156.83-12.46-7.24-24.82-14.42-37.33-21.69Zm-52.43-74.82c-4.01,.35-6.73-2.02-7.33-6.15-.54-3.72,3.08-8.03,6.7-7.74,3.98,.31,6.32,2.85,7.26,6.75-.47,3.99-2.7,6.8-6.63,7.15Z"/>
  </g>
</svg>