<svg width="577" height="548" fill="none" xmlns="http://www.w3.org/2000/svg"><path d="M512.59 420.607L395.998 360.09 279.59 420.607l116.5 60.483 116.5-60.483zM396.762 97.028l-56.904-29.831-56.813 29.831 56.858 29.815 56.859-29.815z" fill="#EEE"/><g clip-path="url(#clip0_290_5001)"><path d="M439.602 442.777l-136.741-76.683.054-13.964 136.676 76.683.011 13.964z" fill="#0533FD"/><path d="M439.578 442.777l136.73-76.683-.044-13.964-136.675 76.683-.011 13.964z" fill="#E4EBF2"/><path d="M576.265 352.13l-136.784-76.727-136.567 76.727 136.675 76.683 136.676-76.683z" fill="#F7F6F6"/><path d="M439.58 442.777l136.729-76.683-.043-13.964-136.783-76.727-136.568 76.727-.054 13.964 136.719 76.683z" stroke="#272727" stroke-width=".5" stroke-miterlimit="10"/><path d="M576.265 352.13L439.59 428.813v13.964M439.589 428.813L302.914 352.13" stroke="#272727" stroke-width=".5" stroke-miterlimit="10"/><g clip-path="url(#clip1_290_5001)"><path d="M510.793 326.091s-3.079-.343-2.454 3.153l-39.355-22.934a8.547 8.547 0 00-8.195.239l-85.254 49.379c-3.451-1.583-6.633-2.106-8.061.225-2.573 4.243-.833 6.544.624 7.933a4.83 4.83 0 001.324 1.046h.075l40.916 23.876a8.372 8.372 0 008.002-.254l91.679-53.056s6.069-3.75.699-9.607z" fill="#16110D"/><path d="M414.175 390.472a8.891 8.891 0 01-3.956-.986l-40.946-23.906a5.582 5.582 0 01-1.488-1.195c-1.695-1.434-3.51-4.034-.699-8.516 1.369-2.271 4.239-2.465 8.493-.568l85.001-49.23a9.038 9.038 0 018.656-.254l38.463 22.411a2.83 2.83 0 01.684-1.867 3.251 3.251 0 012.469-.837h.208l.149.149a7.239 7.239 0 012.305 5.857 6.98 6.98 0 01-3.138 4.557l-91.694 53.16a8.996 8.996 0 01-4.507 1.225zm-43.564-35.35a2.875 2.875 0 00-2.662 1.315c-2.276 3.735-1.011 5.767.535 7.261.345.385.752.708 1.205.956l41.006 23.906a7.79 7.79 0 003.75.82 7.798 7.798 0 003.687-1.074l91.738-53.145a5.992 5.992 0 002.603-3.765 6.112 6.112 0 00-1.874-4.767 1.919 1.919 0 00-1.339.508 2.318 2.318 0 00-.312 2.003l.208 1.195-40.455-23.547a7.933 7.933 0 00-7.571.254l-85.566 49.574-.268-.12a11.86 11.86 0 00-4.685-1.374z" fill="#16110D"/><path d="M368.782 354.823l92.006-53.249a8.51 8.51 0 018.151-.24l40.931 23.906c2.127 1.494 2.529 4.647.194 5.976l-91.694 53.085a8.406 8.406 0 01-8.002.254l-40.917-23.815c-2.93-1.749-2.766-4.513-.669-5.917z" fill="#FBFBFB"/><path d="M509.868 325.613l-41.032-24.274a8.385 8.385 0 00-8.134.259l-92.194 54.186a3.465 3.465 0 00-1.281 1.52 4.523 4.523 0 001.966 2.112l40.987 24.243a8.277 8.277 0 004.032.903c1.397-.045 2.966.718 4.174 0l92.971-54c.621-.37-.245-2.146 0-2.836a4.452 4.452 0 00-1.489-2.113z" fill="#E4EBF2"/><path d="M414.131 386.004a8.883 8.883 0 01-4.016-.956l-40.946-23.831a4.464 4.464 0 01-1.729-1.491 4.496 4.496 0 01-.77-2.154c.001-.646.167-1.28.482-1.843a3.754 3.754 0 011.318-1.369h.104l91.962-53.28a9.042 9.042 0 018.656-.269l40.946 23.906a4.739 4.739 0 011.525 1.735c.358.696.539 1.471.528 2.254a3.638 3.638 0 01-.543 1.737 3.605 3.605 0 01-1.316 1.251l-91.695 53.085a8.884 8.884 0 01-4.506 1.225zm-45.066-30.703a2.666 2.666 0 00-1.28 2.241 3.461 3.461 0 001.949 2.719l40.916 23.801a7.775 7.775 0 007.437-.254l91.679-53.115a2.505 2.505 0 001.309-2.077 3.61 3.61 0 00-1.487-2.988l-40.932-23.831a7.971 7.971 0 00-7.57.254l-92.021 53.25z" fill="#16110D"/><path d="M479.649 311.793c-.268-.149-.238-.418 0-.598a1.109 1.109 0 011.011 0c.253.15.223.419 0 .598a1.18 1.18 0 01-1.011 0zM490.238 317.889l-9.102-5.229c-.268-.15-.223-.419 0-.598a1.143 1.143 0 011.026 0l9.102 5.229c.253.165.223.419-.074.598a1.15 1.15 0 01-.952 0z" fill="#16110D"/><path d="M487.219 347.861h-.238a1.212 1.212 0 01-.67-1.494c.129-.323.333-.61.595-.837l4.581-2.689c.221-.112.475-.139.714-.075a.954.954 0 01.58.478c.166.339.198.729.09 1.091a1.507 1.507 0 01-.744.926l-4.388 2.57c-.17.044-.347.054-.52.03zm4.729-4.483h-.119l-4.462 2.63a2.505 2.505 0 00-.312.433c-.089.329 0 .613.164.658.052.02.111.02.163 0l4.462-2.6a.668.668 0 00.372-.463.687.687 0 000-.523.275.275 0 00-.134-.12l-.134-.015zM494.195 343.871a.635.635 0 01-.238 0 1.214 1.214 0 01-.669-1.569c.129-.323.333-.61.595-.836l4.581-2.675a.936.936 0 01.714-.089c.247.078.455.249.58.478.166.339.198.728.089 1.09a1.486 1.486 0 01-.743.927l-4.462 2.569c-.14.066-.292.102-.447.105zm4.73-4.482a.144.144 0 00-.104 0l-4.462 2.629a1.614 1.614 0 00-.312.434c-.09.313 0 .597.163.642a.211.211 0 00.164 0l4.462-2.615a.695.695 0 00.372-.448.735.735 0 000-.538.268.268 0 00-.134-.119l-.149.015zM483.605 349.922h-.193a1.039 1.039 0 01-.64-.627 1.501 1.501 0 01.625-1.823l1.101-.613c.226-.093.473-.118.714-.074a.98.98 0 01.58.463 1.5 1.5 0 01.089 1.105 2.086 2.086 0 01-.655.867l-1.115.627a1.668 1.668 0 01-.506.075zm1.488-2.45a.701.701 0 00-.224 0l-1.026.583a.742.742 0 00-.312.433.707.707 0 000 .463.255.255 0 00.149.179h.208l.981-.553c.149-.129.27-.286.357-.463a.687.687 0 000-.523s0-.104-.119-.119h-.014zM503.342 328.407l-39.578-22.904a5.93 5.93 0 00-5.696.164l-82.518 47.677c-1.487.986-1.576 2.913.476 4.139l39.623 22.889a5.926 5.926 0 005.607-.179l82.22-47.572a2.396 2.396 0 00-.134-4.214z" fill="#FBFBFB"/><path d="M418.28 381.373a6.207 6.207 0 01-2.796-.672l-39.652-22.905a3.127 3.127 0 01-1.74-2.54 2.637 2.637 0 011.249-2.226l82.473-47.677a6.319 6.319 0 016.053-.194l39.653 22.92a2.76 2.76 0 011.077.991 2.791 2.791 0 01.078 2.83 2.774 2.774 0 01-1.022 1.049l-82.219 47.572a6.226 6.226 0 01-3.154.852zm42.746-76.199a5.643 5.643 0 00-2.825.762l-82.458 47.692a1.903 1.903 0 00-.908 1.583c.048.412.2.804.442 1.139.242.335.567.602.942.774l39.622 22.919a5.494 5.494 0 005.221-.179l82.22-47.557a1.986 1.986 0 00.996-1.823 1.961 1.961 0 00-1.1-1.733l-39.653-22.934a5.626 5.626 0 00-2.499-.583v-.06z" fill="#16110D"/><path d="M415.365 390.054l-.699-.299a6.515 6.515 0 000-4.184l.699-.254a7.334 7.334 0 010 4.737zM391.687 377.324a.977.977 0 01-.506-.15l-3.362-1.942a2.347 2.347 0 01-.981-1.868 1.094 1.094 0 01.461-.986.875.875 0 01.892 0l3.362 1.958a2.273 2.273 0 01.996 1.867 1.07 1.07 0 01-.461.971.734.734 0 01-.401.15zm-.134-.792a.345.345 0 00.163 0 .489.489 0 00.089-.329 1.593 1.593 0 00-.624-1.225l-3.362-1.927h-.148c-.015 0-.09.119-.09.328a1.508 1.508 0 00.61 1.211l3.362 1.942z" fill="#fff"/><path d="M480.318 340.596l-36.083-20.917c-.699-.404-.61-1.106.194-1.569l10.411-5.976a2.964 2.964 0 012.692-.105l36.083 20.917c.699.404.61 1.106-.194 1.569l-10.411 5.976a2.963 2.963 0 01-2.692.105z" fill="#FFDC1A"/><path d="M481.523 340.883a2.849 2.849 0 01-1.488-.344l-36.082-20.917a1.37 1.37 0 01-.744-1.165 1.655 1.655 0 01.937-1.375l10.411-5.976a3.544 3.544 0 013.258-.165l36.082 20.918a1.345 1.345 0 01.744 1.165 1.675 1.675 0 01-.937 1.375l-10.411 5.976a3.695 3.695 0 01-1.77.508zm-.908-1.315a2.484 2.484 0 002.142-.104l10.412-5.977c.282-.149.386-.314.386-.388 0-.075 0-.12-.193-.195l-36.068-20.917a2.47 2.47 0 00-2.142.12l-10.411 5.976c-.283.164-.387.329-.387.403 0 .075 0 .12.194.195l36.067 20.887z" fill="#16110D"/><path d="M444.087 360.515l-16.48-9.562c-.922-.538-.803-1.494.268-2.092l10.798-6.26a3.985 3.985 0 013.614-.164l16.48 9.562c.937.538.818 1.494-.253 2.107l-10.813 6.26a4.032 4.032 0 01-3.614.149z" fill="#0533FD"/><path d="M445.663 361.442a3.72 3.72 0 01-1.859-.449l-16.465-9.547a1.616 1.616 0 01-.907-1.404 2.033 2.033 0 011.16-1.674l10.798-6.26a4.563 4.563 0 014.179-.149l16.48 9.562a1.615 1.615 0 01.907 1.389 2.05 2.05 0 01-1.175 1.674l-10.798 6.26c-.71.395-1.509.6-2.32.598zm-4.938-18.796a3.74 3.74 0 00-1.77.433l-10.813 6.261c-.446.268-.595.537-.595.702 0 .164.208.358.342.433l16.539 9.562a3.475 3.475 0 002.975-.164l10.828-6.245c.446-.254.61-.538.61-.703 0-.164-.223-.343-.357-.418l-16.465-9.562c-.4-.207-.845-.31-1.294-.299z" fill="#16110D"/><path d="M420.14 374.545l-35.532-20.663c-.818-.493-.714-1.33.238-1.883l17.758-10.16a3.583 3.583 0 013.228-.164l35.532 20.633c.818.478.714 1.315-.238 1.868l-17.759 10.175a3.578 3.578 0 01-3.227.194z" fill="#FFDC1A"/><path d="M421.553 375.366a3.435 3.435 0 01-1.696-.403L384.34 354.36a1.493 1.493 0 01-.848-1.3 1.883 1.883 0 011.071-1.494l17.848-10.175a4.173 4.173 0 013.778-.135l35.458 20.559a1.49 1.49 0 01.833 1.3 1.887 1.887 0 01-1.071 1.494l-17.803 10.22a4.128 4.128 0 01-2.053.537zm-17.119-33.422a3.198 3.198 0 00-1.487.373l-17.819 10.175c-.386.209-.52.448-.52.568 0 .119.208.284.282.328l35.533 20.604a3.057 3.057 0 002.662-.135l17.848-10.159c.372-.225.506-.449.506-.583 0-.135-.194-.269-.283-.329l-35.607-20.603a2.278 2.278 0 00-1.115-.239z" fill="#16110D"/><path d="M470.62 346.157l-36.811-21.38c-.491-.284-.431-.792.134-1.121l3.941-2.271a2.142 2.142 0 011.919-.089l36.797 21.35c.49.284.431.777-.134 1.106l-3.942 2.286a2.061 2.061 0 01-1.904.119z" fill="#FBFBFB"/><path d="M471.453 346.874a2.24 2.24 0 01-1.116-.269l-36.811-21.365a1.119 1.119 0 01-.61-.971c.017-.234.095-.459.226-.652.13-.194.309-.351.518-.454l3.941-2.286a2.677 2.677 0 012.484-.12l36.797 21.396a1.139 1.139 0 01.609.971 1.347 1.347 0 01-.743 1.121l-3.942 2.286a2.844 2.844 0 01-1.353.343zm-.565-1.24a1.645 1.645 0 001.368 0l3.927-2.286c.163-.104.193-.164.193-.179l-36.856-21.381a1.486 1.486 0 00-1.354.075l-3.941 2.286c-.164.09-.193.164-.193.164l36.856 21.321z" fill="#16110D"/><path d="M462.291 351.557l-36.767-21.35c-.491-.284-.432-.777.134-1.106l3.911-2.316a2.101 2.101 0 011.934 0l36.811 21.291c.491.284.432.777-.133 1.106l-3.942 2.286a2.127 2.127 0 01-1.948.089z" fill="#E4EBF2"/><path d="M463.155 351.685a2.284 2.284 0 01-1.116-.269l-36.796-21.35a1.127 1.127 0 01-.436-.403 1.127 1.127 0 01-.174-.569 1.307 1.307 0 01.743-1.105l3.942-2.286a2.63 2.63 0 012.469 0l36.811 21.261a1.134 1.134 0 01.61.971 1.367 1.367 0 01-.23.662 1.343 1.343 0 01-.528.458l-3.927 2.286c-.42.228-.891.346-1.368.344zm-32.484-25.205a1.668 1.668 0 00-.803.194l-3.941 2.286a.59.59 0 00-.194.164l36.871 21.321a1.62 1.62 0 001.354 0l3.941-2.286c.164-.105.194-.179.194-.179l-36.856-21.381a1.23 1.23 0 00-.566-.119z" fill="#16110D"/><path d="M431.116 343.477l-14.114-8.188c-.595-.344-.521-.941.163-1.33l3.54-2.047a2.527 2.527 0 012.291-.089l14.114 8.187c.595.329.521.927-.163 1.33l-3.54 2.047a2.54 2.54 0 01-2.291.09z" fill="#E4EBF2"/><path d="M432.114 343.707c-.446.008-.887-.1-1.279-.314l-14.115-8.187a1.215 1.215 0 01-.669-1.061 1.494 1.494 0 01.833-1.24l3.54-2.047a3.048 3.048 0 012.84-.09l14.13 8.188a1.234 1.234 0 01.669 1.06 1.49 1.49 0 01-.833 1.241l-3.539 2.046a3.169 3.169 0 01-1.577.404zm-14.873-9.562a.3.3 0 00.119.089l14.114 8.188a1.903 1.903 0 001.726-.09l3.54-2.047c.223-.134.282-.254.282-.269a.316.316 0 00-.119-.089l-14.189-8.188a1.996 1.996 0 00-1.74.09l-3.525 2.047c-.223.134-.283.254-.283.269h.075z" fill="#16110D"/><path d="M422.413 348.481l-14.115-8.202c-.594-.329-.52-.926.164-1.315l3.525-2.062a2.54 2.54 0 012.291-.089L428.407 345c.58.344.506.941-.163 1.33l-3.54 2.047a2.592 2.592 0 01-2.291.104z" fill="#E4EBF2"/><path d="M423.428 348.742a2.565 2.565 0 01-1.279-.299l-14.115-8.187a1.263 1.263 0 01-.684-1.061 1.491 1.491 0 01.847-1.24l3.51-2.062a3.042 3.042 0 012.841-.09l14.115 8.188a1.252 1.252 0 01.684 1.061 1.495 1.495 0 01-.847 1.24l-3.525 2.047a3.179 3.179 0 01-1.547.403zm-.714-1.27a1.968 1.968 0 001.725-.105l3.54-2.046c.223-.12.283-.239.283-.269a.319.319 0 00-.119-.09l-14.115-8.188a2.052 2.052 0 00-1.74.09l-3.555 2.062a.64.64 0 00-.283.269l.119.089 14.145 8.188z" fill="#16110D"/></g></g><path d="M295.734 284.103l-147.605-77.382L.758 284.103l147.488 77.339 147.488-77.339z" fill="#EEE"/><g clip-path="url(#clip2_290_5001)"><path d="M180.443 319.704L6.273 222.937l.07-17.622 174.086 96.768.014 17.621z" fill="#0533FD"/><path d="M180.416 319.704l174.155-96.767-.055-17.622-174.086 96.768-.014 17.621z" fill="#E4EBF2"/><path d="M354.517 205.315l-174.225-96.821L6.344 205.315l174.086 96.768 174.087-96.768z" fill="#F7F6F6"/><path d="M180.415 319.704l174.155-96.767-.055-17.622-174.224-96.821L6.342 205.315l-.069 17.622 174.142 96.767z" stroke="#272727" stroke-width=".5" stroke-miterlimit="10"/><path d="M354.516 205.315L180.43 302.083v17.621M180.43 302.083L6.344 205.315" stroke="#272727" stroke-width=".5" stroke-miterlimit="10"/></g><g clip-path="url(#clip3_290_5001)"><path d="M311.527 196.743l-25.757-14.605a1.367 1.367 0 00-1.301-.125l-28.326 15.669 28.445 26.77 28.186-15.649c.277-.174.498-.421.636-.71.138-.29.188-.612.144-.928v-6.677a4.597 4.597 0 00-.556-2.102 4.783 4.783 0 00-1.471-1.643z" fill="#C6DAEE"/><path d="M310.411 195.992l-24.684-14.042a1.386 1.386 0 00-1.312-.126l-27.318 15.128a.873.873 0 00-.451.655.856.856 0 00.267.742l4.033 3.787a.959.959 0 00.249.178l21.605 9.733a.971.971 0 00.835 0l27.893-15.304c.011-.866-1.117.115-1.117-.751z" fill="#E4EBF2"/><path d="M284.068 224.692l-28.055-26.426a.75.75 0 01-.11-.989c.07-.1.163-.183.273-.242l28.022-15.461a1.942 1.942 0 011.854.126l25.757 14.605a5.283 5.283 0 011.695 1.846c.404.737.618 1.557.625 2.39v6.676c.045.411-.034.826-.226 1.196a2.208 2.208 0 01-.858.891l-28.001 15.502a.838.838 0 01-.976-.114zm-26.266-26.186l26.396 24.882a.822.822 0 00.976.114l27.318-15.116a1.242 1.242 0 00.51-1.19v-6.676a4.122 4.122 0 00-.462-1.835 4.293 4.293 0 00-1.24-1.462l-25.757-14.605a.895.895 0 00-.781-.115l-26.798 14.72a.774.774 0 00-.433.6.758.758 0 00.271.683z" fill="#16110D"/><path d="M283.277 224.347l-25.757-14.668a4.756 4.756 0 01-1.494-1.652 4.555 4.555 0 01-.555-2.124v-6.677c0-1.461.921-2.087 2.059-1.492l25.758 14.605a4.836 4.836 0 011.489 1.661c.356.657.547 1.385.559 2.126v6.677c-.054 1.544-.932 2.16-2.059 1.544z" fill="#E4EBF2"/><path d="M281.261 220.717l-21.996-12.55a2.92 2.92 0 01-.899-1.007 2.806 2.806 0 01-.337-1.288v-3.694c0-.886.553-1.293 1.247-.907l22.006 12.519c.38.259.691.601.908.998.217.397.333.838.339 1.286v3.704c-.022.908-.585 1.315-1.268.939z" fill="#0533FD"/><path d="M283.017 218.943v-2.837a3.242 3.242 0 00-.406-1.531 3.397 3.397 0 00-1.09-1.182l-20.944-11.935-.759-.427-.303-.178a1.348 1.348 0 00-1.334-.073c-.233.154-.42.364-.542.609a1.49 1.49 0 00-.151.789v3.693a3.36 3.36 0 00.433 1.586c.247.467.622.86 1.084 1.137l22.017 12.519c.23.131.492.203.759.209.202-.001.4-.051.575-.146.232-.154.418-.365.538-.61.12-.246.17-.518.145-.788v-.866l-.022.031zm-2.016-4.694c.31.211.564.488.743.811.179.322.277.68.287 1.046v2.243l-20.457-11.643a2.469 2.469 0 01-.713-.826 2.363 2.363 0 01-.273-1.042v-2.232l20.413 11.643z" fill="#16110D"/><path d="M285.89 215.876a5.071 5.071 0 00-.682-2.224 5.295 5.295 0 00-1.616-1.719l-25.757-14.606a1.862 1.862 0 00-1.887-.104 2.248 2.248 0 00-.792.912 2.153 2.153 0 00-.194 1.174v6.677c.011.831.226 1.648.627 2.384a5.356 5.356 0 001.682 1.852l25.757 14.605c.326.195.7.303 1.084.313a1.67 1.67 0 00.802-.208c.391-.242.677-.613.803-1.044l26.45-14.146 1.193-1.575.217-7.668-27.687 15.377zm-1.084 6.969a1.291 1.291 0 01-.445 1.137.882.882 0 01-.802-.104l-25.757-14.606a4.271 4.271 0 01-1.307-1.482 4.119 4.119 0 01-.482-1.887v-6.677a1.254 1.254 0 01.074-.627c.077-.2.205-.379.371-.521a.861.861 0 01.791.105l25.801 14.689a4.3 4.3 0 011.289 1.465c.308.577.475 1.214.489 1.863l-.022 6.645z" fill="#16110D"/><path d="M310.217 204.661a.933.933 0 01.122-.743.976.976 0 01.272-.279 1.05 1.05 0 01.365-.157l4.282-1.043a1.03 1.03 0 01.771.11.983.983 0 01.475.992.921.921 0 01-.135.36.98.98 0 01-.634.437l-4.337 1.043a1.05 1.05 0 01-.739-.134.98.98 0 01-.442-.586z" fill="#E4EBF2"/><path d="M310.747 204.526a.47.47 0 00.222.281c.11.062.24.081.364.052l4.271-1.043a.47.47 0 00.36-.378.437.437 0 00-.087-.343.481.481 0 00-.501-.176l-4.271 1.043a.498.498 0 00-.291.209c-.067.103-.09.226-.067.344v.011z" fill="#16110D"/><path d="M319.387 202.909c0 .412-.127.816-.365 1.159a2.151 2.151 0 01-.973.768c-.397.158-.833.2-1.253.119a2.187 2.187 0 01-1.11-.571 2.022 2.022 0 01-.47-2.274c.164-.381.442-.707.798-.936a2.234 2.234 0 012.738.259c.407.392.635.922.635 1.476z" fill="#E4EBF2"/><path d="M317.262 205.475a2.743 2.743 0 01-1.469-.453 2.595 2.595 0 01-.964-1.16 2.483 2.483 0 01-.134-1.479c.108-.495.365-.949.74-1.304.375-.354.85-.595 1.366-.69a2.756 2.756 0 011.535.153c.485.195.898.524 1.19.945a2.478 2.478 0 01.239 2.413 2.574 2.574 0 01-.589.838 2.66 2.66 0 01-.88.553c-.329.127-.68.189-1.034.184zm0-4.09a1.623 1.623 0 00-.867.277 1.528 1.528 0 00-.564.692 1.469 1.469 0 00-.072.876c.065.293.22.56.443.769.222.209.505.35.81.406.306.055.622.023.909-.094.286-.116.531-.311.703-.561a1.48 1.48 0 00.264-.842 1.481 1.481 0 00-.482-1.085 1.61 1.61 0 00-1.144-.427v-.011z" fill="#16110D"/><path d="M318.672 172.352h-2.819l-.369 28.825c0 .595.803 1.043 1.778 1.043.976 0 1.767-.48 1.767-1.043l-.357-28.825z" fill="#E4EBF2"/><path d="M317.263 202.773c-1.301 0-2.32-.699-2.32-1.596l.38-29.347h3.881l.368 29.336c0 .908-1.019 1.607-2.309 1.607zm-.878-29.9l-.358 28.314c0 .209.499.543 1.236.543s1.225-.334 1.225-.553l-.358-28.304h-1.745z" fill="#16110D"/><path d="M318.672 172.185c0 .449-.629.814-1.409.814-.781 0-1.409-.324-1.409-.814 0-.49.628-1.565 1.409-1.565.78 0 1.409 1.158 1.409 1.565z" fill="#FEC"/><path d="M317.262 173.562c-1.084 0-1.951-.574-1.951-1.335 0-.762.758-2.087 1.951-2.087 1.192 0 1.951 1.492 1.951 2.087 0 .594-.845 1.335-1.951 1.335zm0-2.42c-.38 0-.867.834-.867 1.043 0 .073.314.292.867.292.158.015.317-.003.467-.053.15-.051.287-.132.4-.239-.011-.219-.488-1.043-.867-1.043z" fill="#16110D"/></g><g clip-path="url(#clip4_290_5001)"><path d="M121.673 252.336l31.043-17.897a1.614 1.614 0 00.913-1.321v-8.14l-1.735 1.446-19.58-11.26a5.993 5.993 0 00-5.378-.217l-29.684 17.078-2.283-1.321v8.175a2.288 2.288 0 001.313 1.731l20.014 11.51a5.956 5.956 0 005.377.216z" fill="#0533FD"/><path d="M151.905 226.424l-19.591-11.26a5.993 5.993 0 00-5.378-.217l-7.729 4.463v33.461a4.693 4.693 0 002.466-.535l31.043-17.897a1.614 1.614 0 00.913-1.321v-8.14l-1.724 1.446z" fill="#272727"/><path d="M96.156 229.76h0l31.009-17.896a5.49 5.49 0 014.904.206l20.01 11.497h.001c.723.415 1.013.871 1.055 1.211.038.302-.102.679-.672 1.021l-31.016 17.894a5.494 5.494 0 01-4.904-.228l-.002-.001-19.997-11.473v-.001c-.73-.42-1.023-.883-1.065-1.224-.038-.301.103-.675.677-1.006z" fill="#E4EBF2" stroke="#000"/><path d="M121.606 244.97l31.031-17.909a1.488 1.488 0 00.879-1.662 1.84 1.84 0 01-.799.831l-31.043 17.909a6 6 0 01-5.377-.239l-20.002-11.476a2.449 2.449 0 01-1.267-1.435c-.332.74.068 1.617 1.141 2.277l20.014 11.499a6 6 0 005.423.205z" fill="#fff"/><path d="M128.616 224.408a1.272 1.272 0 01-.627-1.948c.155-.217.374-.379.627-.465a4.646 4.646 0 014.19 0 1.277 1.277 0 01.866 1.207 1.271 1.271 0 01-.866 1.206 4.649 4.649 0 01-4.19 0zM122.313 228.063a1.275 1.275 0 010-2.379 4.646 4.646 0 014.19 0 1.277 1.277 0 01.866 1.206 1.272 1.272 0 01-.866 1.207 4.684 4.684 0 01-4.19-.034zM115.93 231.718a1.268 1.268 0 01-.873-1.201 1.26 1.26 0 01.873-1.202 4.646 4.646 0 014.19 0 1.278 1.278 0 01.866 1.207 1.274 1.274 0 01-.866 1.207 4.573 4.573 0 01-4.19-.011z" fill="#272727"/></g><g clip-path="url(#clip5_290_5001)"><path d="M84.36 231.552l30.657-17.897c.252-.121.467-.307.626-.539.158-.232.253-.501.276-.782v-8.141l-1.714 1.446-19.337-11.26a5.875 5.875 0 00-2.63-.745 5.87 5.87 0 00-2.68.529L60.24 211.241l-2.255-1.321v8.175c.057.374.205.729.431 1.031.227.302.524.543.866.699l19.766 11.511a5.824 5.824 0 005.31.216z" fill="#0533FD"/><path d="M114.216 205.639l-19.348-11.26a5.875 5.875 0 00-2.63-.745 5.87 5.87 0 00-2.68.529l-7.634 4.463v33.461a4.59 4.59 0 002.435-.535l30.658-17.897c.252-.121.468-.307.626-.539.158-.232.253-.501.276-.782v-8.141l-1.703 1.446z" fill="#272727"/><path d="M59.162 208.974h0l30.625-17.896a5.367 5.367 0 014.832.206l19.762 11.497h0c.712.414 1 .87 1.042 1.212.038.306-.104.683-.663 1.023L84.129 222.91a5.356 5.356 0 01-4.833-.228l-.002-.001-19.748-11.473s0 0 0 0c-.72-.42-1.01-.882-1.052-1.225-.037-.305.104-.679.668-1.009z" fill="#E4EBF2" stroke="#000"/><path d="M84.29 224.186l30.647-17.909a1.498 1.498 0 00.868-1.662 1.837 1.837 0 01-.79.831l-30.657 17.909a5.858 5.858 0 01-5.31-.239l-19.755-11.477a2.43 2.43 0 01-1.252-1.434c-.326.74.068 1.617 1.128 2.277l19.766 11.499a5.861 5.861 0 005.356.205z" fill="#fff"/><path d="M91.214 203.624a1.261 1.261 0 01-.619-.465 1.283 1.283 0 01.62-1.949 4.543 4.543 0 014.137 0c.25.086.466.249.62.465a1.286 1.286 0 010 1.484 1.26 1.26 0 01-.62.465 4.543 4.543 0 01-4.138 0zM84.99 207.279a1.269 1.269 0 01-.808-1.19 1.283 1.283 0 01.808-1.19 4.543 4.543 0 014.138 0c.25.086.466.249.62.465a1.285 1.285 0 010 1.484 1.26 1.26 0 01-.62.465 4.576 4.576 0 01-4.138-.034zM78.687 210.934a1.27 1.27 0 010-2.403 4.543 4.543 0 014.138 0c.25.086.466.249.619.465a1.286 1.286 0 010 1.484c-.153.216-.37.379-.62.465a4.471 4.471 0 01-4.137-.011z" fill="#272727"/></g><g clip-path="url(#clip6_290_5001)"><path d="M161.903 274.565l30.128-17.471a1.56 1.56 0 00.887-1.289v-7.947l-1.684 1.411-19.004-10.991a5.793 5.793 0 00-5.219-.212l-28.81 16.672-2.217-1.29v7.98a2.227 2.227 0 001.275 1.69l19.424 11.236a5.772 5.772 0 002.585.732 5.767 5.767 0 002.635-.521z" fill="#0533FD"/><path d="M191.245 249.269l-19.014-10.991a5.796 5.796 0 00-5.219-.212l-7.502 4.357v32.665a4.546 4.546 0 002.393-.523l30.129-17.471a1.563 1.563 0 00.887-1.289v-7.947l-1.674 1.411z" fill="#272727"/><path d="M137.145 252.536h0l30.096-17.47a5.292 5.292 0 014.743.201l19.421 11.223.001.001c.699.403.977.846 1.018 1.173.036.291-.098.655-.646.986l-30.103 17.467a5.28 5.28 0 01-4.743-.222l-.002-.001-19.408-11.2h-.001c-.705-.41-.986-.858-1.027-1.186-.036-.29.098-.651.651-.972z" fill="#E4EBF2" stroke="#000"/><path d="M161.836 267.374l30.118-17.482a1.453 1.453 0 00.853-1.623 1.797 1.797 0 01-.776.811l-30.129 17.483a5.78 5.78 0 01-5.219-.234l-19.413-11.203a2.367 2.367 0 01-1.23-1.4c-.322.722.066 1.578 1.108 2.223l19.424 11.225a5.8 5.8 0 005.264.2z" fill="#fff"/><path d="M168.641 247.302a1.245 1.245 0 010-2.356 4.49 4.49 0 014.067 0 1.24 1.24 0 01.84 1.178 1.249 1.249 0 01-.84 1.178 4.48 4.48 0 01-4.067 0zM162.523 250.87a1.243 1.243 0 01-.794-1.162 1.245 1.245 0 01.794-1.161 4.478 4.478 0 014.067 0 1.243 1.243 0 010 2.356 4.513 4.513 0 01-2.038.466 4.506 4.506 0 01-2.029-.499zM156.33 254.437a1.234 1.234 0 010-2.345 4.49 4.49 0 014.067 0 1.24 1.24 0 01.84 1.178 1.249 1.249 0 01-.84 1.178 4.42 4.42 0 01-4.067-.011z" fill="#272727"/></g><path d="M141.595 124.124l-4.763-6.889 12.336-7.327a13.458 13.458 0 011.595-.945l.262-.154c4.037-1.855 9.134-1.418 14.659 1.867a37.195 37.195 0 018.93 7.717l8.169-4.892a15.871 15.871 0 011.608-.969c5.358-2.754 12.157-2.234 19.528 2.103 16.778 9.95 30.15 36.267 29.876 58.78a49.027 49.027 0 01-.381 5.601c9.157 8.485 15.849 23.635 15.682 36.917-.095 7.788-2.536 13.449-6.394 16.297-.544.402-1.126.75-1.739 1.039l-12.217 7.245-11.276-12.302.69-2.021-69.742-40.179c-12.194-7.173-21.91-26.329-21.708-42.696.155-12.81 6.359-20.102 14.885-19.192z" fill="#FBFBFB"/><path d="M228.63 241.647l-12.17-13.176.619-1.832-69.064-39.789c-12.467-7.421-22.398-26.92-22.196-43.547.096-7.563 2.287-13.625 6.192-17.064a12.055 12.055 0 017.836-3.072l-4.347-6.205 13.146-7.846a13.773 13.773 0 011.655-.981l.929-.485v.095c4.406-1.749 9.526-1.005 14.885 2.163a37.898 37.898 0 018.645 7.338l7.537-4.514a13.514 13.514 0 011.655-.981c5.847-3.002 13.075-2.245 20.422 2.092 16.992 10.08 30.59 36.799 30.317 59.559a51.11 51.11 0 01-.334 5.247c9.383 8.91 15.79 24.155 15.635 37.272-.095 7.811-2.489 13.85-6.752 16.993-.588.452-1.218.847-1.881 1.182l-12.729 7.551zm-10.098-13.649l10.443 11.38 11.586-6.877a10.89 10.89 0 001.655-.981h.072c3.762-2.824 5.87-8.343 5.953-15.552.155-12.81-6.18-27.711-15.396-36.255l-.334-.308v-.449a49.7 49.7 0 00.37-5.507c.273-22.193-12.932-48.214-29.448-58.011-6.787-4.03-13.408-4.727-18.635-2.08-.525.275-1.034.578-1.524.91l-8.86 5.318-.5-.567a36.411 36.411 0 00-8.68-7.54c-5.085-3.06-9.872-3.687-13.873-1.843l-.202.094c-.534.265-1.048.569-1.536.91l-11.563 6.878 5.395 7.693-1.953-.213a10.578 10.578 0 00-4.449.381 10.523 10.523 0 00-3.887 2.184c-3.572 3.096-5.513 8.697-5.596 15.764-.155 16.06 9.371 34.873 21.279 41.952l70.35 40.498-.667 2.221z" fill="#16110D"/><path d="M162.745 130.163l-22.625-6.618-4.62-6.582 13.146-7.847a13.906 13.906 0 011.655-.981l.929-.484c4.37-1.749 9.526-.898 14.92 2.257a38.517 38.517 0 019.145 7.906l.572.662-13.122 11.687zm-21.529-8.142l21.076 6.168 11.074-9.867a35.565 35.565 0 00-8.133-6.842c-5.084-3.061-9.871-3.687-13.872-1.844l-.203.095a11.93 11.93 0 00-1.536.91l-11.562 6.877 3.156 4.503zM228.631 241.648l-8.335-8.993v-.319l-1.894-45.414 15.111-9.005.488.461c9.526 8.851 16.123 24.308 15.968 37.579-.095 7.811-2.488 13.85-6.751 16.993-.579.423-1.197.791-1.846 1.099l-12.741 7.599zm-6.49-9.714l6.835 7.457 11.646-6.913c.56-.266 1.094-.582 1.596-.946h.071c3.763-2.824 5.87-8.343 5.954-15.551.155-12.586-5.954-27.18-14.909-35.807l-13.098 7.776 1.905 43.984z" fill="#16110D"/><path d="M127.866 132.527c1.762-14.512 11.788-20.562 23.732-13.472a39.611 39.611 0 0110.919 10.151c5.192-10.198 15.48-13.164 27.316-6.169 16.778 9.951 30.162 36.28 29.876 58.78a48.767 48.767 0 01-.381 5.613c9.157 8.473 15.849 23.635 15.682 36.918-.19 15.587-9.764 22.642-21.433 15.74l-79.233-45.662c-12.194-7.232-21.922-26.364-21.72-42.767.155-12.94 6.526-20.267 15.242-19.132z" fill="#FFBE2E"/><path d="M127.867 132.598c1.762-14.523 11.789-20.562 23.732-13.472a39.56 39.56 0 0110.919 10.069c5.192-10.187 15.48-13.153 27.316-6.157 16.778 9.95 30.15 36.267 29.876 58.779a48.817 48.817 0 01-.381 5.602c9.157 8.485 15.849 23.635 15.683 36.917-.191 15.599-9.765 22.654-21.434 15.753l-79.245-45.592c-12.193-7.244-21.946-26.305-21.708-42.731.155-12.987 6.526-20.314 15.242-19.168z" fill="#0533FD"/><path d="M247.451 203.655l-4.906-13.141-13.706 7.894a47.507 47.507 0 00-8.549-11.297v-.236l13.098-7.812.226-12.042-2.977-14.96-5.263-12.515-13.42 7.669c-5.489-10.753-13.098-19.924-21.6-24.958-5.632-3.344-11.146-4.561-16.052-3.545l.37-.26-5.954-5.838-13.099 8.131a31.536 31.536 0 00-3.453-2.364c-5.668-3.368-11.264-4.006-15.789-1.808-4.859 2.364-8.097 7.693-9.181 15.067a12.307 12.307 0 00-4.818.556 12.23 12.23 0 00-4.22 2.375c-3.977 3.427-6.228 9.537-6.323 17.206-.309 16.532 9.622 36.043 22.053 43.417l79.257 45.639a17.874 17.874 0 009.002 2.765 11.723 11.723 0 005.704-1.442 13.05 13.05 0 004.489-4.278l-.238.579 5.382-3.084 8.454-6.37 3.132-10.706-1.619-14.642zm-20.457 37.012c-3.573 1.985-8.157 1.525-12.92-1.3l-79.281-45.697c-11.908-7.091-21.434-25.904-21.279-41.952.083-7.161 2.12-12.798 5.716-15.883a10.328 10.328 0 016.894-2.529c.542.001 1.083.036 1.62.107l.893.106.107-.886c.881-7.197 3.834-12.361 8.335-14.547 4.013-1.95 8.883-1.359 14.087 1.725a39.183 39.183 0 0110.717 9.903l.857 1.182.643-1.265c2.382-4.632 5.823-7.716 10.014-8.922 4.763-1.371 10.312-.283 16.052 3.12 16.432 9.737 29.65 35.759 29.364 57.964a49.483 49.483 0 01-.369 5.495v.449l.333.307c9.229 8.544 15.552 23.458 15.397 36.268-.155 7.894-2.751 13.838-7.18 16.296v.059z" fill="#16110D"/><g clip-path="url(#clip7_290_5001)"><path d="M451.694 84.321l-5.593-3.271a3.457 3.457 0 00-2.947-.346l-2.626.935s.201 2.804.201 3.007l-1.083 3.17a4.772 4.772 0 00.238 3.06 4.692 4.692 0 002.047 2.263l5.072 2.967.722 1.666 2.826-1.057c.348-.147.661-.368.917-.649.256-.28.449-.613.567-.976l1.884-5.446a4.772 4.772 0 00-.213-3.047 4.685 4.685 0 00-2.012-2.276z" fill="#fff"/><path d="M447.725 98.097a.36.36 0 01-.301-.203l-.681-1.605-4.972-2.865a5.056 5.056 0 01-2.163-2.439 5.134 5.134 0 01-.242-3.27l1.162-3.11c0-.466-.2-2.945-.2-2.945a.303.303 0 01.2-.325l2.606-.955a3.745 3.745 0 013.148.406l5.573 3.312a5.056 5.056 0 012.163 2.439 5.134 5.134 0 01.242 3.27l-1.884 5.445a3.052 3.052 0 01-.611 1.06 3.005 3.005 0 01-.973.728l-2.846 1.057h-.221zm-6.816-16.254c0 .69.181 2.58.201 2.763.02.183 0 0 0 .122l-1.103 3.17a4.425 4.425 0 00.206 2.831 4.346 4.346 0 001.879 2.106l5.072 2.966a.36.36 0 01.14.163l.602 1.381 2.465-.914a2.334 2.334 0 001.323-1.443l1.885-5.445a4.424 4.424 0 00-.186-2.792 4.348 4.348 0 00-1.819-2.105l-5.633-3.311a3.155 3.155 0 00-2.666-.325l-2.366.833z" fill="#150035"/><path d="M452.115 94.948l1.865-5.446-2.667.996s-3.608-.549-3.748-.549a21.637 21.637 0 00-1.845 1.626 17.995 17.995 0 00.161 3.718l1.162.69.742 1.667 2.767-1.057c.364-.14.693-.36.963-.645.27-.285.475-.626.6-1z" fill="#150035"/><path d="M447.785 97.975a.28.28 0 01-.3-.203l-.702-1.483-1.062-.61a.407.407 0 01-.161-.244 19.548 19.548 0 01-.18-3.8.33.33 0 010-.223c1.804-1.727 2.004-1.727 2.004-1.727l3.889.508 2.607-.955a.296.296 0 01.34 0 .4.4 0 01.043.183.4.4 0 01-.043.183l-1.804 5.466a2.942 2.942 0 01-1.584 1.767.097.097 0 01-.1 0l-2.846 1.057-.101.081zm-1.603-2.885l1.022.61a.237.237 0 01.14.142l.602 1.381 2.465-.934c.303-.132.576-.327.8-.572.225-.245.396-.535.504-.85l1.643-4.775-2.004.731h-.081c-1.242-.183-3.187-.488-3.648-.528-.461-.04-.942.813-1.584 1.442-.047 1.12 0 2.241.141 3.353z" fill="#150035"/><path d="M444.838 97.386l-5.573-3.271a4.713 4.713 0 01-2.023-2.26 4.793 4.793 0 01-.242-3.043l1.885-5.446a3.01 3.01 0 01.77-1.13 2.933 2.933 0 013.78-.17l5.573 3.25a4.717 4.717 0 012.017 2.253c.409.955.497 2.02.248 3.03l-1.884 5.446a3.014 3.014 0 01-.761 1.142 2.932 2.932 0 01-3.79.199z" fill="#fff"/><path d="M446.743 98.32a4.149 4.149 0 01-2.005-.589l-5.653-3.332a5.039 5.039 0 01-2.157-2.44 5.126 5.126 0 01-.228-3.27l1.824-5.445c.14-.433.375-.828.687-1.155a2.97 2.97 0 011.117-.734 3.8 3.8 0 013.208.386l5.593 3.271a5.063 5.063 0 012.152 2.443 5.148 5.148 0 01.233 3.266l-1.884 5.446c-.137.434-.372.83-.685 1.158a2.919 2.919 0 01-1.119.731 3.096 3.096 0 01-1.083.264zm-1.744-1.158a3.255 3.255 0 002.666.346 2.428 2.428 0 001.403-1.504l1.885-5.445c.24-.93.173-1.912-.188-2.8a4.393 4.393 0 00-1.817-2.117l-5.673-3.312a3.116 3.116 0 00-2.746-.264c-.33.124-.627.322-.87.578a2.374 2.374 0 00-.534.905l-1.804 5.364a4.445 4.445 0 00.226 2.822 4.367 4.367 0 001.879 2.095l5.573 3.332z" fill="#150035"/><path d="M457.387 67.844l-5.573-3.19a3.398 3.398 0 00-2.947-.346l-2.606.935s.281 2.804.281 3.007l-1.163 3.17a4.778 4.778 0 00.228 3.04 4.696 4.696 0 002.017 2.263l5.072 2.966.742 1.666 2.846-1.036a2.682 2.682 0 001.504-1.626l1.884-5.445a4.793 4.793 0 00-.214-3.105 4.713 4.713 0 00-2.071-2.3z" fill="#fff"/><path d="M453.439 81.7a.319.319 0 01-.3-.203l-.702-1.463-4.972-3.007a5.016 5.016 0 01-2.161-2.439 5.105 5.105 0 01-.224-3.27l1.062-3.11c-.02-.365-.2-2.945-.2-2.945a.324.324 0 01.22-.325l2.586-.955h.101a3.699 3.699 0 013.127.406l5.573 3.251a5.056 5.056 0 012.163 2.439 5.14 5.14 0 01.243 3.27l-1.885 5.446a2.955 2.955 0 01-1.584 1.788h-.1l-2.846 1.056-.101.061zm-6.896-16.234c0 .69.181 2.6.181 2.763a.31.31 0 010 .142l-1.023 3.17a4.43 4.43 0 00.186 2.792 4.348 4.348 0 001.819 2.105l5.052 2.966a.36.36 0 01.14.163l.622 1.381 2.545-.914a2.383 2.383 0 001.304-1.443l1.884-5.445a4.423 4.423 0 00-.228-2.812 4.348 4.348 0 00-1.877-2.085l-5.493-3.311a3.158 3.158 0 00-2.666-.325h-.1l-2.346.853z" fill="#150035"/><path d="M457.809 78.551l1.885-5.445-2.686.996s-3.609-.549-3.749-.549a21.623 21.623 0 00-1.844 1.625 18.8 18.8 0 00.18 3.719l1.163.69.721 1.666 2.847-1.056a2.685 2.685 0 001.483-1.646z" fill="#150035"/><path d="M453.479 81.579a.359.359 0 01-.301-.204l-.622-1.564-1.062-.61a.285.285 0 01-.16-.244 16.454 16.454 0 01-.241-3.799.325.325 0 01.1-.223c1.805-1.727 2.005-1.727 2.005-1.727s2.005.304 3.729.548l2.586-.955a.296.296 0 01.34 0 .347.347 0 010 .366l-1.884 5.425a2.995 2.995 0 01-1.403 1.849l-2.847 1.056-.24.082zm-1.584-2.886l1.022.59c.057.044.105.1.141.162l.601 1.382 2.466-.915c.305-.128.579-.322.804-.567.225-.245.395-.537.499-.855l1.664-4.795-2.005.752h-.12c-1.243-.203-3.188-.508-3.629-.508-.561.45-1.097.93-1.603 1.443a18.616 18.616 0 00.16 3.311z" fill="#150035"/><path d="M450.552 80.99l-5.593-3.272a4.669 4.669 0 01-2.021-2.26 4.75 4.75 0 01-.224-3.043l1.825-5.445c.161-.442.422-.84.763-1.16.341-.321.751-.556 1.198-.686a2.926 2.926 0 012.629.505l5.593 3.27a4.69 4.69 0 012.017 2.263c.406.96.487 2.03.228 3.04l-1.884 5.446c-.164.432-.424.82-.76 1.134a2.955 2.955 0 01-1.178.674 2.927 2.927 0 01-2.593-.467z" fill="#fff"/><path d="M452.556 81.863a4.269 4.269 0 01-2.005-.59l-5.753-3.27a5.032 5.032 0 01-2.168-2.437 5.127 5.127 0 01-.238-3.273l1.885-5.445c.146-.43.383-.821.695-1.148.312-.326.69-.58 1.109-.742a3.837 3.837 0 013.227.386l5.573 3.272a5.053 5.053 0 012.164 2.438 5.148 5.148 0 01.242 3.27l-1.884 5.446a3.08 3.08 0 01-.693 1.15c-.312.328-.691.58-1.112.74a3.142 3.142 0 01-1.042.203zm-1.744-1.178a3.082 3.082 0 002.646.345 2.38 2.38 0 00.876-.58c.246-.256.433-.565.547-.903l1.885-5.446a4.467 4.467 0 00-.273-2.84 4.386 4.386 0 00-1.932-2.076l-5.593-3.251a3.043 3.043 0 00-2.646-.345c-.333.122-.633.319-.88.576a2.395 2.395 0 00-.544.906l-1.884 5.446a4.447 4.447 0 00.183 2.801 4.368 4.368 0 001.822 2.116l5.793 3.25z" fill="#150035"/><path d="M445.982 100.799l-5.573-3.271a3.465 3.465 0 00-2.767-.406l-2.646.975.762 1.077v.162a4.793 4.793 0 00.242 3.043 4.706 4.706 0 002.023 2.26l5.473 3.231.321 1.382 2.726-1.016a2.72 2.72 0 001.564-1.666l.16-.468a4.797 4.797 0 00-.25-3.046 4.715 4.715 0 00-2.035-2.257z" fill="#fff"/><path d="M443.816 109.577a.22.22 0 01-.16 0 .33.33 0 01-.16-.203l-.281-1.24-5.433-3.21a5.018 5.018 0 01-2.154-2.43 5.104 5.104 0 01-.231-3.259l-.682-.914a.294.294 0 010-.285.325.325 0 01.201-.223l2.646-.976a3.819 3.819 0 012.967.407l5.593 3.271a5.053 5.053 0 012.175 2.435 5.146 5.146 0 01.251 3.274l-.161.468a3.107 3.107 0 01-1.744 1.849l-2.726 1.016-.101.02zm-8.299-11.256l.501.71a.324.324 0 010 .305v.163c-.231.94-.149 1.931.231 2.82a4.383 4.383 0 001.874 2.097l5.533 3.231c.08.05.138.13.16.223l.221.996 2.386-.894a2.31 2.31 0 00.844-.606c.233-.264.403-.578.499-.918l.16-.467a4.46 4.46 0 00-.231-2.82 4.383 4.383 0 00-1.874-2.097l-5.573-3.251a3.242 3.242 0 00-2.506-.407l-2.225.915z" fill="#150035"/><path d="M448.266 106.102c.103-.328.157-.671.16-1.016l-2.646.955-5.653-1.381v1.219l3.428 2.032.321 1.381 2.666-1.056a2.72 2.72 0 001.564-1.666l.16-.468z" fill="#150035"/><path d="M443.836 109.577a.224.224 0 01-.161 0 .33.33 0 01-.16-.204l-.281-1.239-3.307-1.971a.301.301 0 01-.181-.284v-1.24a.382.382 0 01.181-.223.336.336 0 01.28 0l5.553 1.361 2.566-.934a.315.315 0 01.301 0 .428.428 0 01.14.284 3.73 3.73 0 01-.2 1.138l-.161.467a3.117 3.117 0 01-.675 1.115 3.06 3.06 0 01-1.069.734l-2.726 1.016-.1-.02zm-3.428-3.901l3.267 1.91c.081.05.138.13.161.223l.22.996 2.486-.894a2.346 2.346 0 001.243-1.463l.16-.468a3.364 3.364 0 000-.426l-2.065.894a.277.277 0 01-.18 0l-5.172-1.362c0 .163-.12.346-.12.59z" fill="#150035"/><path d="M440.85 108.886l-5.573-3.271a4.673 4.673 0 01-2.008-2.244 4.754 4.754 0 01-.238-3.019l.161-.467a3 3 0 01.766-1.136 2.952 2.952 0 011.185-.672 2.926 2.926 0 012.599.487l5.573 3.272a4.667 4.667 0 012.022 2.26c.407.961.485 2.031.224 3.043l-.161.467c-.169.43-.435.815-.775 1.124a2.95 2.95 0 01-2.539.715 2.948 2.948 0 01-1.236-.559z" fill="#0533FD"/><path d="M442.773 109.78a4.113 4.113 0 01-2.005-.61l-5.653-3.251a5.056 5.056 0 01-2.163-2.439 5.14 5.14 0 01-.243-3.27l.161-.467a3.12 3.12 0 01.692-1.16c.311-.33.691-.586 1.112-.75a3.78 3.78 0 013.228.406l5.572 3.251a5.053 5.053 0 012.164 2.439 5.146 5.146 0 01.242 3.27l-.16.468c-.144.433-.38.828-.692 1.159a3.06 3.06 0 01-1.113.75c-.367.13-.753.199-1.142.204zm-6.956-11.46a2.632 2.632 0 00-.902.163c-.33.133-.627.336-.873.595-.245.26-.433.57-.551.908l-.16.366a4.422 4.422 0 00.228 2.812 4.353 4.353 0 001.877 2.085l5.593 3.271a3.042 3.042 0 002.646.345c.331-.129.631-.331.877-.591.245-.26.432-.571.546-.912l.161-.468a4.429 4.429 0 00-.228-2.812 4.346 4.346 0 00-1.877-2.084l-5.593-3.19a3.512 3.512 0 00-1.744-.488z" fill="#150035"/><path d="M472.744 82.838l-5.573-3.271a3.497 3.497 0 00-2.787-.407l-2.646.976.762 1.077v.162a4.75 4.75 0 00.224 3.043 4.669 4.669 0 002.021 2.26l5.553 3.23.301 1.382 2.726-1.016c.36-.15.684-.376.95-.663.266-.288.469-.63.594-1.003l.16-.467a4.75 4.75 0 00-.24-3.051 4.668 4.668 0 00-2.045-2.252z" fill="#fff"/><path d="M470.599 91.616a.236.236 0 01-.16 0 .33.33 0 01-.161-.203l-.32-1.22-5.373-3.23a5.056 5.056 0 01-2.163-2.439 5.134 5.134 0 01-.242-3.27l-.662-.935a.284.284 0 010-.285.325.325 0 01.201-.223l2.646-.975a3.758 3.758 0 013.047.447l5.573 3.27a5.031 5.031 0 012.168 2.438 5.12 5.12 0 01.237 3.272l-.16.447c-.141.42-.37.805-.671 1.128a3.047 3.047 0 01-1.073.741l-2.726 1.016-.161.02zm-8.339-11.317l.521.71c.025.048.037.1.037.153a.323.323 0 01-.037.152v.163a4.46 4.46 0 00.231 2.82 4.386 4.386 0 001.874 2.097l5.553 3.23a.294.294 0 01.106.093.3.3 0 01.054.131l.221.996 2.365-.894a2.413 2.413 0 001.363-1.443l.161-.467a4.445 4.445 0 00-.226-2.822 4.372 4.372 0 00-1.879-2.095l-5.613-3.251a3.085 3.085 0 00-2.406-.406l-2.325.833z" fill="#150035"/><path d="M475.008 88.161c.11-.327.171-.67.18-1.016l-2.586 1.016-5.653-1.381v1.219l3.448 2.032.301 1.381 2.726-1.016c.36-.15.684-.376.95-.663.266-.288.469-.63.594-1.003l.04-.569z" fill="#150035"/><path d="M470.597 91.616a.236.236 0 01-.16 0 .328.328 0 01-.16-.204l-.301-1.219-3.388-2.031a.323.323 0 01-.16-.285v-1.24a.31.31 0 01.04-.139.31.31 0 01.1-.104.278.278 0 01.261 0l5.553 1.361 2.566-.934a.313.313 0 01.3 0 .331.331 0 01.141.285 4.52 4.52 0 01-.181 1.137l-.16.447c-.141.42-.37.805-.671 1.127a3.047 3.047 0 01-1.073.742l-2.727 1.016.02.04zm-3.407-3.901l3.267 1.91a.305.305 0 01.16.223l.221.996 2.366-.894c.315-.129.6-.324.835-.572a2.43 2.43 0 00.528-.871l.16-.467c.043-.14.076-.283.1-.427l-2.225.772h-.2l-5.273-1.28.061.61z" fill="#150035"/><path d="M467.612 90.925l-5.573-3.271a4.715 4.715 0 01-2.024-2.26 4.8 4.8 0 01-.241-3.043l.16-.468c.164-.447.43-.849.777-1.172a2.97 2.97 0 012.609-.74 2.97 2.97 0 011.265.592l5.573 3.27a4.709 4.709 0 012.023 2.261c.41.96.495 2.03.242 3.043l-.16.467c-.161.45-.425.856-.771 1.181a2.93 2.93 0 01-3.88.14z" fill="#fff"/><path d="M469.516 91.819a3.967 3.967 0 01-2.004-.61l-5.593-3.271a5.03 5.03 0 01-2.15-2.432 5.119 5.119 0 01-.236-3.257l.16-.467c.138-.437.371-.836.684-1.167a2.965 2.965 0 011.121-.743 3.717 3.717 0 013.207.406l5.593 3.251a5.063 5.063 0 012.106 2.46 5.142 5.142 0 01.199 3.25l-.16.467a3.01 3.01 0 01-.684 1.166 2.969 2.969 0 01-1.12.744c-.361.127-.74.196-1.123.203zm-1.744-1.179a3.176 3.176 0 002.666.346 2.442 2.442 0 001.404-1.503l.16-.468c.238-.94.16-1.934-.221-2.824a4.346 4.346 0 00-1.884-2.093l-5.573-3.251a3.123 3.123 0 00-2.666-.345 2.342 2.342 0 00-.872.589c-.243.26-.424.573-.531.914l-.161.467a4.423 4.423 0 00.228 2.813 4.348 4.348 0 001.877 2.084l5.573 3.271z" fill="#150035"/></g><g clip-path="url(#clip8_290_5001)"><path d="M350.249 104.515l-63.38-35.603.025-6.484 63.35 35.603.005 6.484z" fill="#0533FD"/><path d="M350.238 104.515l63.375-35.603-.02-6.484-63.35 35.603-.005 6.484z" fill="#E4EBF2"/><path d="M413.594 62.428l-63.4-35.623-63.299 35.623 63.349 35.603 63.35-35.603z" fill="#F7F6F6"/><path d="M350.239 104.515l63.374-35.603-.02-6.484-63.399-35.623-63.3 35.623-.025 6.484 63.37 35.603z" stroke="#272727" stroke-width=".5" stroke-miterlimit="10"/><path d="M413.594 62.428l-63.35 35.603v6.484M350.244 98.031l-63.349-35.603" stroke="#272727" stroke-width=".5" stroke-miterlimit="10"/></g><g clip-path="url(#clip9_290_5001)"><path d="M372.374 48.952c-6.672-12.222-11.419-9.102-14.372-7.393-2.954 1.709-9.013-2.667-10.763-16.91-1.156-9.256-5.771-17.701-12.885-23.576l-5.549 3.403 3.398 10.566 2.151 3.083v25.217l34.221 20.135 2.1 4.302 5.833 7.03 5.542-3.404a127.05 127.05 0 00-9.676-22.453z" fill="#0533FD"/><path d="M372.374 49.462c-6.672-12.23-11.419-9.132-14.372-7.364-2.954 1.769-9.013-2.697-10.763-16.94-1.156-9.256-5.771-17.7-12.885-23.575l-5.549 3.403 3.398 10.565 2.151 3.076V43.89l34.221 20.135 2.1 4.302 1.735 2.088 9.057-.238s-2.421-8.485-9.093-20.714z" fill="#E4EBF2"/><path d="M361.092 40.095l-6.176 3.611s-3.085 6.806-4.324 9.19l17.982 10.581 2.1 4.302 5.833 7.029 5.542-3.403a127.056 127.056 0 00-9.676-22.453c-4.718-8.627-8.452-9.622-11.281-8.857z" fill="#0533FD"/><path d="M362.044 40.103l-6.736 3.924s-3.364 7.443-4.716 10.032l19.612 11.53 2.29 4.684 3.006 3.366 3.977 1.756 4.08-2.427s-2.426-9.871-9.711-23.157c-5.129-9.425-8.716-10.517-11.802-9.708z" fill="#E4EBF2"/><path d="M382.523 71.256a129.052 129.052 0 00-9.72-22.55 61.284 61.284 0 00-.679-1.188l-.138-.238c-.219-.364-.43-.743-.642-1.048-2.377-3.715-4.718-5.944-7.11-6.583a5.915 5.915 0 00-3.259 0c-1.072.331-2.095.809-3.041 1.42l-.16.089a2.743 2.743 0 01-2.662-.12c-2.771-1.433-6.161-6.478-7.401-16.45-1.202-9.382-5.88-17.941-13.074-23.924l-.263-.193-6.06 3.715v.372l3.42 10.64 2.122 3.105v25.329l34.345 20.202 2.035 4.168 5.95 7.2.321.193 6.125-3.767-.109-.372zm-49.87-56.445l-3.259-10.105 4.922-3.024c6.819 5.823 11.244 14.044 12.396 23.033 1.619 13.055 6.468 16.457 7.919 17.193.48.248.998.412 1.531.483l-1.633.958-.066.142c0 .066-2.741 6.048-4.076 8.708l-15.546-9.147v-25.09l-2.188-3.151zm43.956 59.35l-5.52-6.686-2.137-4.384-17.704-10.387c1.217-2.437 3.646-7.698 4.047-8.641l5.943-3.47.167-.045c.132-.032.266-.057.401-.074H362.63a6.968 6.968 0 014.572 2.192c.439.42.855.864 1.247 1.33l.241.29.343.445.277.357.379.528.343.497c.145.216.284.439.43.662l.24.379c.132.215.27.438.401.668l.205.35c.204.349.408.742.612 1.077a130.702 130.702 0 019.545 21.926l-4.856 2.987z" fill="#16110D"/><path d="M328.805 46.752V4.476c7.111 5.88 11.723 14.326 12.877 23.583 1.765 14.243 7.824 18.641 10.778 16.903 2.953-1.739 7.7-4.83 14.372 7.43a127.075 127.075 0 019.676 22.446l-47.703-28.085z" fill="#0533FD"/><path d="M377.09 75.038l-.583.357-48.193-28.353V4.186l.518-.32.263.201c7.187 5.976 11.864 14.523 13.074 23.895 1.232 9.979 4.623 15.023 7.38 16.413a2.747 2.747 0 002.661.126l.161-.096c1.545-.914 3.645-2.163 6.3-1.42 2.917.81 5.687 3.79 8.59 9.102a129.533 129.533 0 019.72 22.58l.109.371zm-47.791-28.575l46.377 27.26a132.058 132.058 0 00-9.276-21.116c-2.727-5-5.418-7.898-8.021-8.626-2.239-.624-4.069.453-5.542 1.322l-.16.097a3.677 3.677 0 01-3.595-.096c-1.459-.743-6.308-4.139-7.919-17.186-1.13-8.748-5.347-16.777-11.864-22.587v40.932z" fill="#16110D"/><path d="M360.574 61.902c-5.44-9.978-9.312-7.43-11.725-6.033-2.414 1.397-7.351-2.177-8.787-13.79-.942-7.551-4.705-14.442-10.508-19.236l-4.521 2.779 2.771 8.61 1.75 2.512v20.581l27.892 16.42 1.713 3.507 4.755 5.736 4.521-2.779a103.01 103.01 0 00-7.861-18.307z" fill="#0533FD"/><path d="M360.431 62.083c-5.479-10.15-9.379-7.558-11.81-6.137-2.431 1.42-7.404-2.207-8.851-14.012-.944-7.686-4.736-14.7-10.583-19.581l-4.554 2.826 2.791 8.767 1.763 2.554v20.927l28.093 16.702 1.726 3.575 1.425 1.73 7.44-.196s-1.953-7.006-7.44-17.155z" fill="#E4EBF2"/><path d="M351.365 54.71l-5.031 2.972s-2.516 5.49-3.529 7.43l14.642 8.634 1.713 3.506 4.755 5.736 4.521-2.778a103.01 103.01 0 00-7.861-18.308c-3.857-7.044-6.898-7.853-9.21-7.192z" fill="#0533FD"/><path d="M351.514 54.703l-5.119 3.152s-2.559 5.896-3.59 7.953l14.896 9.126 1.743 3.72 2.292 2.68 3.027 1.394 3.108-1.946s-1.862-7.826-7.418-18.403c-3.858-7.463-6.588-8.338-8.939-7.676z" fill="#E4EBF2"/><path d="M368.851 80.098a104.333 104.333 0 00-7.926-18.396 30.375 30.375 0 00-.547-.974c-.044-.067-.08-.134-.117-.2-.175-.298-.35-.58-.525-.855-1.947-3.06-3.85-4.83-5.797-5.372a4.897 4.897 0 00-2.661 0c-.878.27-1.717.657-2.494 1.152l-.132.082a2.235 2.235 0 01-2.187-.104c-2.253-1.137-5.01-5.253-6.023-13.374-.967-7.663-4.777-14.658-10.647-19.548l-.218-.157-4.944 3.04v.297l2.793 8.67 1.728 2.52v20.677l28.015 16.472 1.663 3.395 4.856 5.87.256.163 5.002-3.076-.095-.282zm-40.682-46.066l-2.654-8.232 4.018-2.467c5.568 4.75 9.183 11.455 10.128 18.79 1.32 10.648 5.273 13.427 6.461 14.021.391.202.813.335 1.247.394l-1.349.787-.051.12c0 .051-2.239 4.933-3.325 7.102l-12.681-7.46V36.619l-1.794-2.586zm35.84 48.429L359.525 77l-1.743-3.574-14.445-8.47c.999-1.984 2.953-6.278 3.303-7.051l4.856-2.83h.132l.328-.068h.204c.138-.007.277-.007.415 0h.052a5.645 5.645 0 013.733 1.783c.359.343.698.708 1.014 1.093l.196.237c.095.112.19.238.285.357.095.119.153.193.226.297l.306.431c.095.126.19.268.277.401.088.134.241.357.358.543.116.185.131.2.189.304l.336.55.167.282c.161.283.328.573.496.877a106.505 106.505 0 017.766 17.929l-3.967 2.37z" fill="#16110D"/><path d="M325.033 60.104V25.622c5.814 4.785 9.589 11.674 10.537 19.228 1.407 11.62 6.351 15.21 8.75 13.798 2.399-1.412 6.286-3.938 11.733 6.033a103.603 103.603 0 017.89 18.307l-38.91-22.884z" fill="#0533FD"/><path d="M364.418 83.181l-.474.29-39.311-23.137v-34.92l.423-.26.211.155c5.866 4.872 9.682 11.844 10.668 19.49 1.007 8.172 3.77 12.251 6.016 13.373a2.26 2.26 0 002.188.104l.124-.074c1.261-.743 2.989-1.769 5.14-1.16 2.348.662 4.645 3.084 7.008 7.43a104.338 104.338 0 017.926 18.397l.081.312zm-38.983-23.315l37.845 22.238a108.104 108.104 0 00-7.576-17.223c-2.188-4.079-4.419-6.441-6.519-7.036-1.823-.513-3.318.372-4.521 1.078l-.132.074a2.983 2.983 0 01-2.916-.075c-1.182-.594-5.105-3.373-6.454-14.02-.931-7.144-4.39-13.697-9.727-18.426v33.39z" fill="#16110D"/></g><path d="M195.641 517.522l-56.904-29.832-56.813 29.832 56.858 29.815 56.859-29.815z" fill="#EEE"/><g clip-path="url(#clip10_290_5001)"><path d="M149.993 522.433l-63.38-35.603.025-6.483 63.35 35.603.005 6.483z" fill="#0533FD"/><path d="M149.982 522.433l63.375-35.603-.02-6.483-63.35 35.603-.005 6.483z" fill="#E4EBF2"/><path d="M213.338 480.347l-63.4-35.623-63.3 35.623 63.35 35.603 63.35-35.603z" fill="#F7F6F6"/><path d="M149.983 522.434l63.374-35.604-.02-6.483-63.399-35.623-63.3 35.623-.025 6.483 63.37 35.604z" stroke="#272727" stroke-width=".5" stroke-miterlimit="10"/><path d="M213.338 480.347l-63.35 35.603v6.484M149.988 515.95l-63.35-35.603" stroke="#272727" stroke-width=".5" stroke-miterlimit="10"/></g><g clip-path="url(#clip11_290_5001)"><path d="M165.268 478.437v-57.39a.623.623 0 00-.182-.435.612.612 0 00-.438-.175h-15.28a.436.436 0 00-.311.129.436.436 0 00-.129.311v57.63a.889.889 0 00.51.72l6.29 3.63a3.294 3.294 0 003-.12l5.86-3.39c.42-.26.68-.52.68-.91z" fill="#FFF4C2"/><path d="M155.488 425.172l-6.156-3.297v57.909l7.765 3.593v-57.886a3.358 3.358 0 01-1.609-.319z" fill="#FFDC1A"/><path d="M157.017 483.577a2.994 2.994 0 01-1.51-.35l-6.24-3.63a1.288 1.288 0 01-.71-1v-57.72a.869.869 0 01.87-.87h15.22a1 1 0 011.05 1v57.43a1.535 1.535 0 01-.93 1.28l-5.86 3.39a3.995 3.995 0 01-1.89.47zm-7.65-62.72v57.58c.08.29.09.3.3.42l6.29 3.63a2.86 2.86 0 002.54-.12l5.86-3.39c.47-.27.51-.42.51-.54v-57.39a.183.183 0 00-.015-.073.169.169 0 00-.041-.061.181.181 0 00-.062-.041.179.179 0 00-.072-.015h-15.31z" fill="#020202"/><path d="M155.717 424.857l-6.28-3.63c-.76-.44-.67-1.2.21-1.71l5.86-3.38a3.299 3.299 0 013-.13l6.28 3.63c.76.44.67 1.21-.21 1.71l-5.89 3.39a3.29 3.29 0 01-2.97.12z" fill="#FFBE2E"/><path d="M164.832 419.699l-.09-.06-6.28-3.58a3.294 3.294 0 00-3 .12l-5.83 3.33-.3.21v1.44a.678.678 0 00.09.07l6.28 3.63a3.334 3.334 0 003-.13l5.86-3.38.3-.21-.03-1.44z" fill="#FBFBFB"/><path d="M157.007 425.577a2.99 2.99 0 01-1.5-.35l-6.24-3.63a1.27 1.27 0 01-.72-1.11 1.615 1.615 0 01.94-1.34l5.78-3.38a3.724 3.724 0 011.694-.483 3.726 3.726 0 011.726.353l6.29 3.65a1.316 1.316 0 01.72 1.12 1.6 1.6 0 01-.29.793 1.602 1.602 0 01-.65.537l-5.86 3.37c-.58.315-1.23.476-1.89.47zm.18-9.44a3.055 3.055 0 00-1.47.37l-5.86 3.38c-.37.22-.51.45-.51.6 0 .15.19.31.3.37l6.29 3.63a2.857 2.857 0 002.54-.12l5.86-3.38c.38-.22.51-.46.51-.6 0-.14-.19-.31-.3-.38l-6.28-3.63a2.213 2.213 0 00-1.08-.24z" fill="#020202"/><path d="M151.037 486.617v-17a.595.595 0 00-.175-.438.617.617 0 00-.435-.182h-15.29a.44.44 0 00-.44.44v17.25a.888.888 0 00.51.72l6.29 3.63a3.273 3.273 0 003-.12l5.86-3.39c.42-.24.68-.52.68-.91z" fill="#FFF4C2"/><path d="M141.186 473.671l-6.489-4.315v17.571l8.17 4.64v-17.486a2.931 2.931 0 01-1.681-.41z" fill="#FFDC1A"/><path d="M142.787 491.757a3.002 3.002 0 01-1.52-.35l-6.27-3.63a1.297 1.297 0 01-.71-1v-17.39a.856.856 0 01.248-.614.867.867 0 01.612-.256h15.28a.994.994 0 01.726.31 1.015 1.015 0 01.274.74v17a1.526 1.526 0 01-.93 1.28l-5.82 3.44a3.992 3.992 0 01-1.89.47zm-7.65-22.38v17.24c.08.29.09.3.3.42l6.29 3.63a2.862 2.862 0 002.54-.12l5.86-3.38c.47-.27.51-.43.51-.55v-17a.19.19 0 00-.19-.19l-15.31-.05z" fill="#020202"/><path d="M141.497 473.367l-6.29-3.62c-.76-.44-.66-1.21.21-1.72l5.85-3.38a3.288 3.288 0 013-.12l6.29 3.63c.76.43.66 1.2-.22 1.71l-5.88 3.42a3.273 3.273 0 01-2.96.08z" fill="#FFBE2E"/><path d="M150.588 468.605l-.08-.06-6.27-3.63a3.317 3.317 0 00-3 .12l-5.85 3.42a1.649 1.649 0 00-.3.21v1.44l.09.06 6.29 3.63a3.294 3.294 0 003-.12l5.86-3.39c.111-.053.212-.124.3-.21l-.04-1.47z" fill="#fff"/><path d="M142.788 474.097a3.003 3.003 0 01-1.52-.36l-6.27-3.63a1.28 1.28 0 01-.519-.454 1.278 1.278 0 01-.211-.656 1.63 1.63 0 01.94-1.34l5.86-3.37a3.695 3.695 0 013.39-.12l6.29 3.63a1.291 1.291 0 01.73 1.11 1.657 1.657 0 01-.94 1.38l-5.86 3.38a3.855 3.855 0 01-1.89.43zm.18-9.44a3.013 3.013 0 00-1.47.36l-5.86 3.38c-.38.22-.52.45-.52.6 0 .15.19.31.3.38l6.29 3.63a2.892 2.892 0 002.56-.13l5.86-3.38c.38-.22.51-.45.51-.6 0-.15-.18-.31-.3-.37l-6.3-3.63a2.13 2.13 0 00-1.07-.24z" fill="#020202"/></g><defs><clipPath id="clip0_290_5001"><path fill="#fff" transform="translate(302.59 275.09)" d="M0 0h274v168H0z"/></clipPath><clipPath id="clip1_290_5001"><path fill="#fff" transform="translate(365.6 299.84)" d="M0 0h147.96v90.632H0z"/></clipPath><clipPath id="clip2_290_5001"><path fill="#fff" transform="translate(5.93 108.099)" d="M0 0h349v212H0z"/></clipPath><clipPath id="clip3_290_5001"><path fill="#fff" transform="translate(254.93 170.099)" d="M0 0h65v55H0z"/></clipPath><clipPath id="clip4_290_5001"><path fill="#fff" transform="translate(94.912 210.883)" d="M0 0h58.729v42H0z"/></clipPath><clipPath id="clip5_290_5001"><path fill="#fff" transform="translate(57.93 190.099)" d="M0 0h58v42H0z"/></clipPath><clipPath id="clip6_290_5001"><path fill="#fff" transform="translate(135.93 234.099)" d="M0 0h57v41H0z"/></clipPath><clipPath id="clip7_290_5001"><path fill="#fff" transform="translate(432.51 63.78)" d="M0 0h43v46H0z"/></clipPath><clipPath id="clip8_290_5001"><path fill="#fff" transform="translate(286.744 26.66)" d="M0 0h127v78H0z"/></clipPath><clipPath id="clip9_290_5001"><path fill="#fff" transform="translate(324.633 .471)" d="M0 0h58v83H0z"/></clipPath><clipPath id="clip10_290_5001"><path fill="#fff" transform="translate(86.488 444.579)" d="M0 0h127v78H0z"/></clipPath><clipPath id="clip11_290_5001"><path fill="#fff" transform="translate(134.268 415.287)" d="M0 0h31.43v76.47H0z"/></clipPath></defs></svg>