<svg xmlns="http://www.w3.org/2000/svg" width="100.724" height="84.824" viewBox="0 0 100.724 84.824">
  <g id="Layer_1" transform="translate(0.028 -3.4)">
    <g id="Group_3598" data-name="Group 3598" transform="translate(-0.028 17.459)">
      <path id="Path_1355" data-name="Path 1355" d="M23.18,45.105s0-9.138-11.247-17.105c0,0-.234,3.515,2.109,9.841-.469-.234-2.109-.937-9.841-1.406C4.2,36.67,8.886,46.043,23.18,45.105Z" transform="translate(5.706 15.583)" fill="#b1b1b1"/>
      <path id="Path_1356" data-name="Path 1356" d="M53.081,41.538C56.83,35.68,57.533,32.4,57.533,32.4,47.223,36.618,43.942,42.944,43,45.522a17.851,17.851,0,0,1-12.653.469c-.7-2.109-3.983-8.9-14.762-13.356,0,0,.7,3.515,4.452,9.138-.469-.234-2.109-.469-9.841.937,0,0,6.327,7.733,18.98,4.452a12.478,12.478,0,0,0,7.03,2.109,12.72,12.72,0,0,0,7.264-2.109c13.122,3.515,19.449-4.218,19.449-4.218C55.189,41.3,53.315,41.538,53.081,41.538Z" transform="translate(13.765 21.494)" fill="#b1b1b1"/>
      <path id="Path_1357" data-name="Path 1357" d="M9.536,23.5s-1.172,2.578-1.172,8.436C8.13,31.7,7.192,30.764,1.1,27.952c0,0,.937,8.9,12.185,12.185C13.285,40.371,16.1,33.107,9.536,23.5Z" transform="translate(1.542 9.539)" fill="#b1b1b1"/>
      <path id="Path_1358" data-name="Path 1358" d="M6.364,34.031S11.05,29.11,8.941,18.8a23.644,23.644,0,0,0-3.983,6.561c0-.234-.7-1.406-4.686-5.858C.271,19.5-2.072,27.236,6.364,34.031Z" transform="translate(0.028 3.226)" fill="#b1b1b1"/>
      <path id="Path_1359" data-name="Path 1359" d="M9.63,15.275s-2.109.937-5.155,4.452c.234-.234-.234-1.406-2.343-6.327,0,0-4.218,5.858.937,14.059C3.069,27.459,8.458,24.413,9.63,15.275Z" transform="translate(0.745 -4.027)" fill="#b1b1b1"/>
      <path id="Path_1360" data-name="Path 1360" d="M3.187,19.944C9.045,14.555,5.764,9.4,5.764,9.4-.8,17.133,3.187,19.944,3.187,19.944Z" transform="translate(2.736 -9.4)" fill="#b1b1b1"/>
      <path id="Path_1361" data-name="Path 1361" d="M41.947,28C30.7,35.967,30.7,45.105,30.7,45.105c14.293.937,18.98-8.436,18.98-8.436-7.733.469-9.373,1.172-9.841,1.406C42.182,31.515,41.947,28,41.947,28Z" transform="translate(41.301 15.583)" fill="#b1b1b1"/>
      <path id="Path_1362" data-name="Path 1362" d="M41.964,31.936c-.234-5.858-1.172-8.436-1.172-8.436-6.561,9.607-3.749,16.637-3.749,16.637,11.482-3.515,12.185-12.185,12.185-12.185C43.37,30.764,42.2,31.7,41.964,31.936Z" transform="translate(49.017 9.539)" fill="#b1b1b1"/>
      <path id="Path_1363" data-name="Path 1363" d="M39.513,18.8C37.4,29.11,42.09,34.031,42.09,34.031c8.436-6.8,5.858-14.528,5.858-14.528-3.983,4.452-4.686,5.624-4.686,5.858C41.153,20.44,39.513,18.8,39.513,18.8Z" transform="translate(52.405 3.226)" fill="#b1b1b1"/>
      <path id="Path_1364" data-name="Path 1364" d="M45.161,27.459c5.155-8.2.937-14.059.937-14.059-2.343,4.921-2.343,6.092-2.343,6.327-3.046-3.515-5.155-4.452-5.155-4.452C39.772,24.413,45.161,27.459,45.161,27.459Z" transform="translate(51.912 -4.027)" fill="#b1b1b1"/>
      <path id="Path_1365" data-name="Path 1365" d="M42.556,19.944S46.539,17.133,39.978,9.4C39.978,9.4,36.463,14.555,42.556,19.944Z" transform="translate(52.408 -9.4)" fill="#b1b1b1"/>
    </g>
    <path id="Path_1366" data-name="Path 1366" d="M67.211,35.5l-8.2-16.871c1.172.234,3.515,1.172,3.749,1.172a2.372,2.372,0,0,0,1.64-.937c.234-.937,0-1.875-.937-2.109a68.112,68.112,0,0,0-19.917-3.983A5.481,5.481,0,0,0,39.8,9.024V5.04a1.64,1.64,0,0,0-3.28,0V8.789A5.183,5.183,0,0,0,33,12.538a68.113,68.113,0,0,0-19.917,3.983c-.937.234-1.172,1.172-.937,2.109a1.569,1.569,0,0,0,1.64.937c.234,0,2.578-.937,3.749-1.172L9.334,35.5l-.234.7a11.273,11.273,0,0,0,22.495.469s0-1.172-.234-1.172l-8.67-18.043a75.016,75.016,0,0,1,10.779-1.406,5.8,5.8,0,0,0,3.515,3.515V51.9h-7.03a1.289,1.289,0,0,0-1.172.7l-5.624,7.03a1.443,1.443,0,0,0-.234,1.64,1.927,1.927,0,0,0,1.406.937H52.683a1.6,1.6,0,0,0,1.64-1.64,1.79,1.79,0,0,0-.469-1.172l-5.389-7.03a1.289,1.289,0,0,0-1.172-.7h-7.03V19.334a5.281,5.281,0,0,0,3.515-3.515,75.016,75.016,0,0,1,10.779,1.406L45.654,35.5l-.234.7a11.273,11.273,0,0,0,22.495.469C67.446,36.673,67.446,35.736,67.211,35.5Zm-39.6.469H12.38l7.5-15.7ZM45.888,55.185l3.046,3.749H27.143l3.046-3.749ZM38.156,16.522a2.348,2.348,0,0,1-2.343-2.343,2.343,2.343,0,0,1,4.686,0A2.348,2.348,0,0,1,38.156,16.522ZM56.2,20.505,63.7,35.97H48.466Z" transform="translate(12.26 0)" fill="#b1b1b1"/>
  </g>
</svg>
