<svg xmlns="http://www.w3.org/2000/svg" width="113" height="112.395" viewBox="0 0 113 112.395">
  <g id="gdpr" transform="translate(0 0.01)">
    <path id="Path_1367" data-name="Path 1367" d="M25.863,0l1.656,5.256h5.256L28.438,8.409l1.656,5.1-4.231-3.285-4.336,3.153,1.656-5.1L18.82,5.256h5.387L25.863,0" transform="translate(30.637 -0.01)" fill="#b1b1b1"/>
    <path id="Path_1368" data-name="Path 1368" d="M16.412,2.55l1.656,5.1h5.256L19.04,10.8,20.7,15.926l-4.283-3.153-4.336,3.153,1.708-5.1L9.29,7.674h5.387L16.412,2.55" transform="translate(15.123 4.141)" fill="#b1b1b1"/>
    <path id="Path_1369" data-name="Path 1369" d="M9.314,9.591l1.656,5.1h5.256l-4.283,3.153L13.6,22.967,9.314,19.814,4.978,22.967l1.708-5.1L2.35,14.716H7.606L9.261,9.46" transform="translate(3.826 15.39)" fill="#b1b1b1"/>
    <path id="Path_1370" data-name="Path 1370" d="M35.33,2.58l1.656,5.1h5.256l-4.283,3.18,1.656,5.1L35.33,12.8l-4.336,3.153,1.708-5.1L28.34,7.7H33.6l1.734-5.1" transform="translate(46.135 4.19)" fill="#b1b1b1"/>
    <path id="Path_1371" data-name="Path 1371" d="M49.112,14.566l-4.336,3.153,1.656,5.1L42.1,19.664l-4.336,3.153,1.656-5.1L35,14.566h5.256L41.938,9.31l1.629,5.256h5.256" transform="translate(56.977 15.146)" fill="#b1b1b1"/>
    <path id="Path_1372" data-name="Path 1372" d="M51.709,24.044l-4.362,3.127,1.734,5.1-4.31-3.153L40.3,32.27l1.682-5.1L37.65,24.018h5.256l1.682-5.1,1.866,5.072h5.256" transform="translate(61.291 30.79)" fill="#b1b1b1"/>
    <path id="Path_1373" data-name="Path 1373" d="M21.628,51.137l1.629-5.256-4.257-3h5.256l1.656-5.256,1.682,5.1h5.256l-4.31,3.18,1.656,5.1-4.336-3.153-4.231,3.285" transform="translate(30.93 61.248)" fill="#b1b1b1"/>
    <path id="Path_1374" data-name="Path 1374" d="M12.13,48.607l1.656-5.1L9.45,40.356h5.256L16.361,35.1l1.656,5.256h5.256l-4.336,3.153,1.682,5.1-4.152-3.259-4.336,3.18" transform="translate(15.384 57.13)" fill="#b1b1b1"/>
    <path id="Path_1375" data-name="Path 1375" d="M39.573,48.567l-4.336-3.153-4.362,3.153,1.682-5.124L28.22,40.158h5.387l1.656-5.1,1.656,5.1h5.256l-4.362,3.153,1.656,5.124" transform="translate(45.94 57.064)" fill="#b1b1b1"/>
    <path id="Path_1376" data-name="Path 1376" d="M0,24.019H5.256L7.017,19,8.7,24.1h5.256L9.723,27.173l1.682,5.1L7.043,29.117,2.628,32.3l1.656-5.124L0,24.019" transform="translate(0 30.92)" fill="#b1b1b1"/>
    <path id="Path_1377" data-name="Path 1377" d="M56.5,52.774A39.176,39.176,0,0,1,52.633,50.7a5.781,5.781,0,0,1-3.627-5.413,38.525,38.525,0,0,1,1.656-8.83c0-.263,0-.841.5-.71,1.1.315,1.5-1.261,1.708-2.181a22.153,22.153,0,0,0,.526-4.152c0-.526-.315-1.419-.71-1.577-1.261-.552-1.051,1.55-.815-2.418a24.02,24.02,0,0,0,0-5.992,8.961,8.961,0,0,0-3.889-6.07,14.506,14.506,0,0,0-15.321,0A9.066,9.066,0,0,0,28.8,19.478a25.359,25.359,0,0,0,0,5.992c.237,3.968.473,1.866-.815,2.418a2.023,2.023,0,0,0-.683,1.577,22.127,22.127,0,0,0,.5,4.152c.21.92.631,2.5,1.708,2.181.473-.131.447.447.526.71a37.132,37.132,0,0,1,1.629,8.83c0,2.864-1.209,4.047-3.574,5.519-1.367.841-2.628,1.393-3.889,2.076-.578.315-12.667,1.6-13.928,11.747A1.577,1.577,0,0,0,11.8,66.491H68.9a1.6,1.6,0,0,0,1.55-1.813C69.162,54.587,57.1,53.194,56.5,52.774Z" transform="translate(16.691 18.17)" fill="#b1b1b1"/>
    <path id="Path_1378" data-name="Path 1378" d="M4.265,51.786A1.472,1.472,0,0,0,5.71,53.52H17.457a7.6,7.6,0,0,1,.315-1.156c1.183-3.627,4.52-8.3,12.9-10.512a4.178,4.178,0,0,1-.71-2.286,24.281,24.281,0,0,1,1.077-5.86c0-.184,0-.578.342-.473.736.21,1-.841,1.13-1.472a13.639,13.639,0,0,0,.342-2.628c0-.368-.184-.946-.447-1.051-.841-.368-.71,1.025-.552-1.6a16.923,16.923,0,0,0,0-3.994,5.834,5.834,0,0,0-2.628-3.968,9.224,9.224,0,0,0-10.17,0,5.939,5.939,0,0,0-2.628,3.968,16.924,16.924,0,0,0,0,3.994c.158,2.628.315,1.235-.526,1.6-.263,0-.473.683-.473,1.051a13.639,13.639,0,0,0,.342,2.628c0,.631.42,1.682,1.13,1.472.315,0,.289.289.342.473a25.675,25.675,0,0,1,1.1,5.86c0,1.918-.841,2.628-2.391,3.653a28.051,28.051,0,0,1-2.628,1.393C13.042,44.717,5.473,45.61,4.265,51.786Z" transform="translate(6.904 27.646)" fill="#b1b1b1"/>
    <path id="Path_1379" data-name="Path 1379" d="M56.782,51.786a1.472,1.472,0,0,1-1.445,1.734H43.616a3.375,3.375,0,0,0-.342-1.156c-1.183-3.627-4.52-8.3-12.9-10.512a4.021,4.021,0,0,0,.736-2.286,25.675,25.675,0,0,0-1.1-5.86c0-.184,0-.578-.342-.473s-1-.841-1.13-1.472a13.639,13.639,0,0,1-.342-2.628c0-.368.21-.946.473-1.051.841-.368.683,1.025.526-1.6a16.924,16.924,0,0,1,0-3.994,5.939,5.939,0,0,1,2.628-3.968,9.224,9.224,0,0,1,10.17,0,5.834,5.834,0,0,1,2.628,3.968,16.923,16.923,0,0,1,0,3.994c-.158,2.628-.289,1.235.552,1.6.263,0,.473.683.447,1.051a13.638,13.638,0,0,1-.342,2.628c-.131.631-.394,1.682-1.13,1.472-.315,0-.289.289-.342.473a24.282,24.282,0,0,0-1.077,5.86,3.81,3.81,0,0,0,2.365,3.653c.92.578,1.734.92,2.628,1.393C48,44.717,55.573,45.61,56.782,51.786Z" transform="translate(45.891 27.646)" fill="#b1b1b1"/>
  </g>
</svg>
