<svg xmlns="http://www.w3.org/2000/svg" width="114.142" height="100.88" viewBox="0 0 114.142 100.88">
  <g id="Layer_1" transform="translate(0 -2.5)">
    <g id="Group_3599" data-name="Group 3599" transform="translate(0 2.5)">
      <path id="Path_1388" data-name="Path 1388" d="M33.977,15.772S19.643,22.143,9.025,22.143c-2.389,0-7.433-.531-9.025-3.982,5.84-.531,18.847-2.92,26.279-5.574.531,3.451,7.7,3.185,7.7,3.185m1.327,0C30,18.692,17.52,22.674,10.087,23.2c1.062,1.327,6.371,2.389,11.414,2.124,7.963-.531,16.723-5.574,18.847-7.433-2.124-.531-2.389-2.654-5.043-2.124m5.574,2.92C39.021,20.02,30.261,25.063,22.3,26.125c2.92,2.654,9.025,1.858,11.68,1.062,4.247-1.327,12.211-6.105,12.211-6.105S43,18.161,40.879,18.692m5.84,2.389a94.922,94.922,0,0,1-12.741,6.371,22.789,22.789,0,0,0,4.513.8c.8-2.124,3.451-3.716,5.043-4.513a14.593,14.593,0,0,1,8.76-1.327,3.285,3.285,0,0,0,.8-.531,40.255,40.255,0,0,1-6.371-.8m7.167,1.062c-.265.265-.531.265-.8.531a8.692,8.692,0,0,1,3.185,2.389,6.6,6.6,0,0,0,.531-3.451,8.174,8.174,0,0,0-2.92.531m1.062-4.513c-7.963,0-6.105-7.7-6.105-9.291s0-4.778-5.043-4.247-13.538,5.84-16.458,7.7c0,1.327,3.716,3.451,9.025,2.654.265,0,5.043-.8,5.309-.8.265.265-3.716,1.327-3.716,1.593,1.327.8,2.124,1.858,3.185,2.124.265,0,4.247-.8,4.778-.531.265,0-2.92,1.062-2.654,1.062a12.658,12.658,0,0,1,3.716,2.389c.265,0,3.185-.265,3.451-.265s-1.858.8-1.593.8a27.511,27.511,0,0,0,4.247.265c1.327,0,2.92-.265,3.451,0s-1.062-3.451-1.593-3.451m59.195.531c-5.84-.531-18.847-2.92-26.279-5.574-.531,3.451-7.7,3.185-7.7,3.185s14.334,6.105,24.952,6.371c2.654,0,6.636-.8,9.025-3.982M104.055,23.2c-7.167-.531-19.909-4.513-25.217-7.433-2.92-.531-2.92,1.858-4.778,2.124,2.124,1.593,10.618,6.636,18.847,7.433,1.593,0,6.636.265,11.149-2.124m-36.1-2.389s7.963,4.778,12.211,6.105c2.654.8,8.76,1.593,11.68-1.062-7.963-1.062-16.723-6.105-18.581-7.433-2.124-.265-5.309,2.389-5.309,2.389m-6.9,1.062.8.8a12.91,12.91,0,0,1,8.494,1.062,10.843,10.843,0,0,1,5.309,4.778,12.4,12.4,0,0,0,4.513-.8,113.963,113.963,0,0,1-12.741-6.371c-1.593.265-6.371.531-6.371.531m-3.716-.265a6.16,6.16,0,0,0,.8,3.716,8.381,8.381,0,0,1,3.185-2.654c-.265-.265-.8-.531-1.062-.8a14.293,14.293,0,0,0-2.92-.265M70.609,4.358c-5.043-.531-5.043,2.654-5.043,4.247S67.424,17.9,59.46,17.9c-.531,0-2.124,3.716-1.858,3.451a14.806,14.806,0,0,1,3.451,0,27.511,27.511,0,0,0,4.247-.265c.265,0-1.858-.8-1.593-.8s3.185.265,3.451.265a7.178,7.178,0,0,1,3.451-2.389c.265,0-2.92-1.062-2.654-1.062.531-.265,4.513.531,4.778.531,1.062-.265,1.858-1.327,3.185-2.124.265,0-3.982-1.327-3.716-1.593.265,0,5.043.8,5.309.8,5.309.531,9.025-1.327,9.025-2.654-2.654-1.858-11.149-7.167-15.927-7.7M60.522,70.72a3.826,3.826,0,0,1,2.389,2.92,2.9,2.9,0,0,1-1.062,3.185,6.055,6.055,0,0,1-3.185,1.593,17.535,17.535,0,0,1,3.982,1.327c.265,0,.265-.265.531-.265a6.406,6.406,0,0,0,2.92-5.84,7.1,7.1,0,0,0-3.451-5.574,10.558,10.558,0,0,0-6.105-1.593,13.883,13.883,0,0,1-4.778-.8,3.569,3.569,0,0,1-2.389-2.389A5.046,5.046,0,0,1,50.7,59.837c.531-.265.8-.8,1.593-.8-.265,0-.265,0-.531-.265a23.358,23.358,0,0,1-3.982-1.327,9.276,9.276,0,0,0-2.124,5.84A6.342,6.342,0,0,0,46.984,67a5.566,5.566,0,0,0,2.92,2.124,17.419,17.419,0,0,0,6.105,1.062,11.721,11.721,0,0,1,4.513.531m-.265,19.643A6.37,6.37,0,0,0,57.071,88.5a9.813,9.813,0,0,1-2.92-1.327,3.259,3.259,0,0,1,0-5.043c.265,0,.265-.265.531-.265-.8-.265-1.858-.8-2.654-1.062a4.84,4.84,0,0,0-1.327,2.92,6.028,6.028,0,0,0,1.593,4.247c2.389,2.124,5.043,1.593,6.105,2.92a3.974,3.974,0,0,1,1.327,3.982c-.531,2.92-2.92,2.654-2.654,2.654a1.551,1.551,0,0,0,1.062.265,3.377,3.377,0,0,0,2.654-2.124,7.751,7.751,0,0,0,.531-2.389,4.423,4.423,0,0,0-1.062-2.92m-5.84,4.778a3.974,3.974,0,0,1,1.327-3.982l.265-.265-1.593-.8-.265.265a4.423,4.423,0,0,0-1.062,2.92c0,1.062,0,1.858.531,2.389A2.93,2.93,0,0,0,56.275,97.8c.8,0,1.062,0,1.062-.265,0,.265-2.654.265-2.92-2.389m9.291-11.149a5.047,5.047,0,0,0-2.654-4.247,11.182,11.182,0,0,0-4.778-1.062,9.307,9.307,0,0,1-3.716-1.593A3.047,3.047,0,0,1,51.5,73.905a4.488,4.488,0,0,1,1.858-2.654.975.975,0,0,1-.8-.265A11.094,11.094,0,0,1,49.9,69.924a10.474,10.474,0,0,0-1.593,3.982,6.714,6.714,0,0,0,2.92,5.84A12.722,12.722,0,0,0,56.54,81.6a7.709,7.709,0,0,1,3.716.8,3.259,3.259,0,0,1,0,5.044A5.336,5.336,0,0,1,58.133,88.5a9.429,9.429,0,0,1,2.389,1.062A5.553,5.553,0,0,0,62.115,88.5a7.208,7.208,0,0,0,1.593-4.513m2.124-27.341a11.8,11.8,0,0,0-6.371-2.389c-2.389-.265-3.982,0-5.84-.265-3.451-.531-6.9-2.389-6.636-4.247,0-2.389,1.858-3.982,4.513-4.778a22.956,22.956,0,0,1-6.105-1.593h-.265a8.462,8.462,0,0,0-2.654,6.9,6.714,6.714,0,0,0,1.593,3.982,8.3,8.3,0,0,0,2.92,2.389,19.333,19.333,0,0,0,6.371,1.858c2.124.265,4.513,0,5.84.265,1.593.265,3.185.531,4.247,1.593a5.591,5.591,0,0,1,1.327,3.451q0,1.593-2.389,2.389c-.531.265-1.062.265-1.327.531A13.462,13.462,0,0,1,65.3,69.127a11.545,11.545,0,0,0,1.858-1.593,6.342,6.342,0,0,0,1.327-3.716c.265-2.92-.531-5.574-2.654-7.167m-8.76-31.588-1.593,3.716V38.07h3.185V28.779Zm0-5.309,1.593-3.185V14.711a1.486,1.486,0,0,0-1.593-1.327c-.8,0-1.593.265-1.593,1.327v1.858ZM55.744,44.972V53.2H58.4V44.972Zm0,14.069v7.433H58.4V59.04Zm2.389,18.847a72.07,72.07,0,0,1,.265-7.433H56.009v7.433Zm-.265,10.087a49.065,49.065,0,0,1,.265-6.105H56.275a44.992,44.992,0,0,0,.265,6.105Zm-1.593,3.185c.265,7.7.531,12.476.8,12.211.265,0,.531-4.778.531-12.211Zm.8-88.659a4.193,4.193,0,0,0-4.247,4.247,4.247,4.247,0,0,0,8.494,0A4.193,4.193,0,0,0,57.071,2.5m0,8.76c-1.327,0-2.654-.8-2.92-.265-.531.265.531,2.389,2.92,2.389,2.124,0,3.451-2.124,2.92-2.389-.265-.265-1.593.531-2.92.265M71.936,50.015A6.714,6.714,0,0,1,70.343,54a8.3,8.3,0,0,1-2.92,2.389h0a13.588,13.588,0,0,0-5.574-2.654c3.185-.531,5.84-2.389,5.574-3.982,0-2.654-2.389-4.247-5.84-5.043-6.105-1.062-15.927,1.062-21.767-6.636a16.237,16.237,0,0,1-1.327-3.185,12.742,12.742,0,0,1,0-3.185,8.061,8.061,0,0,1,3.185-5.574c3.451-2.654,6.636-2.654,9.556-2.92,1.327,0,3.716,1.593,4.778,3.185a.975.975,0,0,1-.265.8c-.8,1.062-2.92,1.593-4.247,1.593-2.389,0-3.716-2.389-6.636,1.062-.8.531-.8,2.124-1.062,3.185a4.819,4.819,0,0,0,.531,2.92c1.062,1.858,4.247,3.185,7.167,3.716,1.593.265,3.185.265,5.043.531a25.729,25.729,0,0,1,6.105.8,14.429,14.429,0,0,1,6.105,2.92c2.389.531,3.451,3.451,3.185,6.105M50.966,24.267a.531.531,0,1,0,.531-.531.571.571,0,0,0-.531.531M75.652,34.354a6.814,6.814,0,0,1-1.327,3.185,11.364,11.364,0,0,1-4.778,3.982A21.939,21.939,0,0,0,66.1,39.663a16.237,16.237,0,0,0-3.185-1.327h-.265c3.185-.531,6.105-1.858,7.167-3.716a4.819,4.819,0,0,0,.531-2.92c-.265-1.062-.265-2.654-1.062-3.185-2.92-3.185-4.247-.8-6.636-1.062-1.327,0-4.513-.8-4.513-2.124,1.062-1.593,3.185-3.185,4.778-3.185,2.654.265,6.105.265,9.556,2.92a9.169,9.169,0,0,1,3.185,5.574,8.552,8.552,0,0,1,0,3.716M63.442,24.267a.531.531,0,1,0-.531.531c.265-.265.531-.265.531-.531" transform="translate(0 -2.5)" fill="#b1b1b1"/>
    </g>
  </g>
</svg>
