<svg xmlns="http://www.w3.org/2000/svg" width="103.63" height="84.265" viewBox="0 0 103.63 84.265">
  <g id="iso_iec" transform="translate(-0.8 -4.33)">
    <path id="Path_1389" data-name="Path 1389" d="M65.008,23.646a14.426,14.426,0,0,0-5.475-6.476,26.4,26.4,0,0,0-25.3-.75,14.7,14.7,0,0,0-7.5,10.226c-1.475,6.826-1.1,15,4.15,20a25,25,0,0,0,23,4.35,10.251,10.251,0,0,0,2.5-.8h.225a16.226,16.226,0,0,0,6.576-5A24.827,24.827,0,0,0,65.008,23.646ZM52.081,38.972a4.2,4.2,0,0,1-2.5,3.125,8.6,8.6,0,0,1-7.176-.425,6.451,6.451,0,0,1-2.125-5,33.553,33.553,0,0,1,.6-11.026,5.35,5.35,0,0,1,5-2.8,6.451,6.451,0,0,1,5.525,2.05,9.5,9.5,0,0,1,.925,4.3A66.354,66.354,0,0,1,52.081,38.972Z" transform="translate(37.776 13.837)" fill="#b1b1b1"/>
    <path id="Path_1390" data-name="Path 1390" d="M24.977,42.062c-1.8,0-3.825,0-5.575-.175V22.861h5.425V13.71H.8v9.1c1.875,0,3.625,0,5.425.175v18.3l.075.65H.875v8.876H25.027Z" transform="translate(0 14.072)" fill="#b1b1b1"/>
    <path id="Path_1391" data-name="Path 1391" d="M77.281,30.3a42.029,42.029,0,0,1-8.376,8.926c0,.175-.45,0-.55,0-1.375-.85-2.85-1.55-4.175-2.5A44.678,44.678,0,0,0,68.955,30.2h-1.7a38.028,38.028,0,0,1-4.6,5.875,58.828,58.828,0,0,0-7.076-2.5l-.25-.15a27,27,0,0,0,1.3-3.175H55.154l-1.475,2.9a70.4,70.4,0,0,0-10-1.3c-.175-.475,0-1.175-.175-1.625H42.078c0,.65.15,1.125-.175,1.675a63.307,63.307,0,0,0-9.851,1.175l-1.475-2.85a4.65,4.65,0,0,0-1.525,0l1.275,3.25-.15.15a69.655,69.655,0,0,0-7.226,2.5h-.225A42.9,42.9,0,0,1,18.5,30.8c-.275-.925-1.375-.375-1.975-.5a46.529,46.529,0,0,0,4.825,6.626,41.855,41.855,0,0,1-4.5,2.5,39.454,39.454,0,0,1-8.651-9.1,6.375,6.375,0,0,0-1.75,0A42.929,42.929,0,0,0,22.926,45h0s.15,0,0,.15a45.279,45.279,0,0,0,13.8,4.25A43.129,43.129,0,0,0,78.881,30.353a8.9,8.9,0,0,0-1.6-.05Zm-22.827,4.85h.15a30.6,30.6,0,0,1,6.676,2.3,34.327,34.327,0,0,1-5.951,5.05c-1.25.75-2.5,1.575-3.825,2.2l-2.35-1.025.15-.375a64.579,64.579,0,0,0,5.15-8.176Zm-10.8-1.625A42.9,42.9,0,0,1,52.8,34.6l.025.15A55.006,55.006,0,0,1,47.3,43.1a15.4,15.4,0,0,1-2.725-.325h-.925c-.1-3.275-.15-6.076,0-9.251ZM33.077,34.5a47.505,47.505,0,0,1,8.876-.975v9.1c-1.15.25-2.5.25-3.5.55a48.129,48.129,0,0,1-5.625-8.426Zm-8.826,2.9a35.978,35.978,0,0,1,6.676-2.375h.225a83.732,83.732,0,0,0,5.526,8.551c-.775.425-1.7.7-2.5,1.125a36.9,36.9,0,0,1-10-7.2Zm7.076,9.2A38.853,38.853,0,0,1,18.5,40.579V40.4a31.327,31.327,0,0,1,4.05-2.25,55.781,55.781,0,0,0,9.851,7.5,4.325,4.325,0,0,1-1.05.95Zm20.3.7a41.7,41.7,0,0,1-18.077,0c0-.275.275-.325.45-.475a17.127,17.127,0,0,1,18.027.25c.175.175-.275.175-.375.175Zm5.25-1.5-2.5.8a6.076,6.076,0,0,1-1.2-.875v-.15a48.754,48.754,0,0,0,9.7-7.5,21.627,21.627,0,0,1,4.225,2.3A36.978,36.978,0,0,1,56.9,45.8Z" transform="translate(8.476 38.758)" fill="#b1b1b1"/>
    <path id="Path_1392" data-name="Path 1392" d="M8.17,23.507a50.129,50.129,0,0,1,4.425-5.25,29.127,29.127,0,0,1,4.275-3.6c1.425.925,3,1.675,4.375,2.5a47.5,47.5,0,0,0-4.7,6.451,3.25,3.25,0,0,0,1.65,0,41.6,41.6,0,0,1,4.675-5.726c2.35.875,4.65,1.775,7.076,2.5l.225.225L28.8,23.732a5,5,0,0,0,1.575,0c.5-.9.875-1.925,1.425-2.85a53.579,53.579,0,0,0,10,1.175c.45.375,0,1.175.275,1.675h1.475c.15-.525,0-1.125.15-1.6a52.5,52.5,0,0,0,9.6-1.25h.275l1.475,2.8a3.45,3.45,0,0,0,1.525,0L55.2,20.557h0a60.006,60.006,0,0,0,7.276-2.5,50.354,50.354,0,0,1,4.725,5.9,5,5,0,0,0,1.65,0,21.9,21.9,0,0,0-2.35-3.4,23.452,23.452,0,0,0-2.5-2.9v-.7l3.875-2.2.55-.225a40,40,0,0,1,8.626,8.976c.65,0,1.2.225,1.75,0A43.354,43.354,0,0,0,46.3,4.455h0a25,25,0,0,0-5,0,12.876,12.876,0,0,0-2.025,0A42.929,42.929,0,0,0,6.42,23.632a6.2,6.2,0,0,0,1.75-.125ZM30.9,18.781h-.225a43.854,43.854,0,0,1-6.526-2.2v-.325a43.029,43.029,0,0,1,9.7-7.051c.825.325,1.65.6,2.5.975l-.15.425a68.907,68.907,0,0,0-5.3,8.251Zm10.9,1.45a19.8,19.8,0,0,1-4.45-.175,29.353,29.353,0,0,1-4.825-.875,47.955,47.955,0,0,1,5.7-8.426l3.5.475c.175,2.875.075,6.126.075,9.076Zm1.7,0v-9l3.375-.225a46.4,46.4,0,0,1,5.65,8.376,38.853,38.853,0,0,1-9.051.975ZM61,16.456a35.778,35.778,0,0,1-6.676,2.275,91.082,91.082,0,0,0-5.7-8.326c.775-.425,1.7-.75,2.5-1.175a38.653,38.653,0,0,1,10,7.2Zm-7-9.2a39.053,39.053,0,0,1,12.8,6.251v.225l-3.925,2H62.6a47.729,47.729,0,0,0-9.751-7.5,4.092,4.092,0,0,1,1.1-.85Zm-2.2-.55h0a16.726,16.726,0,0,1-17.5.575c-.275-.225-.825-.325-.875-.7a41,41,0,0,1,18.327.275Zm-33.453,6.8a39.353,39.353,0,0,1,11.326-5.7c.175-.175.275-.325.5-.325h0c.45,0,.775-.375,1.15,0s.725.5.975.75a55.43,55.43,0,0,0-9.8,7.5,18,18,0,0,1-4.15-2.225Z" transform="translate(8.431)" fill="#b1b1b1"/>
    <path id="Path_1393" data-name="Path 1393" d="M34.6,42.807a14.526,14.526,0,0,1-14.451-3.55c-.425-.55-.7-1.175-1.15-1.725H11.5c0,4.35-.175,9.351,0,13.676h8.2v-2.5c.925.425,1.875.975,2.8,1.45a23,23,0,0,0,18.677,0,11.051,11.051,0,0,0,5.7-11.3,12.976,12.976,0,0,0-9.426-9.851L24.2,25.18l-.975-.475a1.5,1.5,0,0,1-.6-1.45c1.05-1.775,3.45-1.225,5.25-1.175a13.426,13.426,0,0,1,10.251,5.175H45.95V14.5H38.025a10,10,0,0,1-.175,2.2l-2.5-1.35c-6.026-2.5-14.451-2.8-20,1.125a10.851,10.851,0,0,0-3.725,11.3,12,12,0,0,0,8,8.076c4.875,1.725,10,2.975,15,4.625.5.225,1.15.7,1.05,1.3S34.974,42.607,34.6,42.807Z" transform="translate(15.68 13.753)" fill="#b1b1b1"/>
  </g>
</svg>
