<svg id="pci_dss" xmlns="http://www.w3.org/2000/svg" width="132.073" height="86.968" viewBox="0 0 132.073 86.968">
  <path id="Path_1509" data-name="Path 1509" d="M15.317,18.3H11.67v8.884h3.741a4.551,4.551,0,0,0,4.925-4.769C20.336,19.547,17.094,18.3,15.317,18.3Z" transform="translate(23.709 15.209)" fill="#b1b1b1"/>
  <path id="Path_1510" data-name="Path 1510" d="M108.173,7.55.32,12.631l28.9,81.887L132.393,62.224ZM44.053,57.112H35.419V67.336h-14V34.108H44.552A11,11,0,0,1,54.9,44.987,11.346,11.346,0,0,1,44.053,57.112ZM91.9,43.023s-22.1-6.8-22.1,7.7,22.1,8.1,22.1,8.1v8.479a32.7,32.7,0,0,1-12.967,1.652c-9.351-.5-20.292-6.234-20.292-18.266,0-10.411,9.2-17.705,19.108-18.422S91.9,34.077,91.9,34.077Zm19.233,24.314H99.071V34.108h12.063Zm-6.047-36.876a7.575,7.575,0,0,1-7.98-7.076,8.042,8.042,0,0,1,15.96,0,7.575,7.575,0,0,1-7.98,7.076Z" transform="translate(-0.32 -7.55)" fill="#b1b1b1"/>
</svg>
