<?xml version="1.0" encoding="utf-8"?>
<!-- Generator: Adobe Illustrator 24.1.0, SVG Export Plug-In . SVG Version: 6.00 Build 0)  -->
<svg version="1.1" id="Capa_1" xmlns="http://www.w3.org/2000/svg" xmlns:xlink="http://www.w3.org/1999/xlink" x="0px" y="0px"
	 viewBox="0 0 480 480" style="enable-background:new 0 0 480 480;" xml:space="preserve">
<style type="text/css">
	.st0{fill:#1B7ABB;}
</style>
<g>
	<g>
		<g>
			<path class="st0" d="M472,336.5c0.1-61.8-50-111.9-111.8-112c-0.1,0-0.1,0-0.2,0c-5.4,0-10.7,0.5-16,1.3V40.5c0-4.4-3.6-8-8-8
				h-96v-16c0-8.8-7.2-16-16-16h-96c-8.8,0-16,7.2-16,16v16H16c-4.4,0-8,3.6-8,8v432c0,4.4,3.6,8,8,8h320c4.4,0,8-3.6,8-8v-25.3
				c47.8,7.3,94.8-17.2,116.1-60.6C467.9,371,472,353.9,472,336.5L472,336.5z M448.2,298.5c0.3,0.6,0.5,1.2,0.8,1.8l-85,26.6
				L322,248.3C370.7,227.4,427.2,249.8,448.2,298.5z M128,16.5h96v48h-96V16.5z M328,464.5H24v-416h88v16c0,8.8,7.2,16,16,16h96
				c8.8,0,16-7.2,16-16v-16h88v180.9c-7.2,2.1-14.1,4.8-20.7,8.3c-54.6,29.1-75.2,96.9-46.1,151.5c14.1,26.4,38.2,46.1,66.8,54.6
				V464.5z M360,432.5L360,432.5c-53,0-96-43-96-96c0-32.6,16.5-62.9,43.9-80.6l45,84.4l0.1,0.1c0.1,0.2,0.3,0.4,0.5,0.6
				c0.3,0.4,0.6,0.8,0.9,1.2l0.1,0.1c0.2,0.1,0.4,0.3,0.6,0.4c0.4,0.3,0.8,0.6,1.2,0.8c0.1,0,0.1,0.1,0.2,0.2l85.5,42.7
				C424.6,415.1,393.5,432.6,360,432.5z M449.1,372.1l-67.8-33.9l10.9-3.4l61.5-19.2c1.5,6.9,2.3,13.9,2.3,20.9
				C456,348.7,453.6,360.8,449.1,372.1z"/>
		</g>
	</g>
	<g>
		<g>
			<path class="st0" d="M154.5,121.2c-21.6-27.9-61.7-32.9-89.6-11.3c-4.9,3.8-9.2,8.3-12.9,13.4l6.5,4.7l-6.5-4.7
				C31.4,152,38,192,66.7,212.5c10.9,7.8,23.9,12,37.3,12c35.3,0,64-28.7,64-64C168,146.3,163.2,132.4,154.5,121.2z M112,113.2
				c9.1,1.5,17.6,5.7,24.4,12l-12.9,10c-3.4-2.7-7.3-4.6-11.4-5.7C112,129.6,112,113.2,112,113.2z M103.8,144.5
				c5,0,9.7,2.3,12.7,6.2c2.2,2.8,3.4,6.2,3.4,9.8c0,8.8-7.2,16-16,16s-16-7.2-16-16C87.9,151.7,95,144.5,103.8,144.5z M96,113.3
				v16.3c-4.6,1.2-8.9,3.4-12.5,6.5l-13.3-9.5C77.2,119.6,86.2,115,96,113.3z M95.7,207.5c-22.9-4-39.6-23.8-39.7-47
				c0-7.3,1.7-14.4,4.9-21l13.3,9.5c-1.4,3.6-2.2,7.5-2.2,11.4c0,17.6,14.3,32,31.9,32c14.6,0,27.3-9.8,31-24h16.4
				C146.7,194.6,121.8,212.1,95.7,207.5z M134.8,152.5c-0.4-1.6-0.9-3.1-1.6-4.6l13-10.1c2.5,4.6,4.2,9.6,5.1,14.7H134.8z"/>
		</g>
	</g>
	<g>
		<g>
			<rect x="200" y="104.5" class="st0" width="104" height="16"/>
		</g>
	</g>
	<g>
		<g>
			<rect x="200" y="136.5" class="st0" width="104" height="16"/>
		</g>
	</g>
	<g>
		<g>
			<rect x="200" y="168.5" class="st0" width="104" height="16"/>
		</g>
	</g>
	<g>
		<g>
			<rect x="200" y="200.5" class="st0" width="56" height="16"/>
		</g>
	</g>
	<g>
		<g>
			<path class="st0" d="M72,392.5H48c-4.4,0-8,3.6-8,8v40c0,4.4,3.6,8,8,8h24c4.4,0,8-3.6,8-8v-40C80,396.1,76.4,392.5,72,392.5z
				 M64,432.5h-8v-24h8V432.5z"/>
		</g>
	</g>
	<g>
		<g>
			<path class="st0" d="M120,360.5H96c-4.4,0-8,3.6-8,8v72c0,4.4,3.6,8,8,8h24c4.4,0,8-3.6,8-8v-72C128,364.1,124.4,360.5,120,360.5
				z M112,432.5h-8v-56h8V432.5z"/>
		</g>
	</g>
	<g>
		<g>
			<path class="st0" d="M168,320.5h-24c-4.4,0-8,3.6-8,8v112c0,4.4,3.6,8,8,8h24c4.4,0,8-3.6,8-8v-112
				C176,324.1,172.4,320.5,168,320.5z M160,432.5h-8v-96h8V432.5z"/>
		</g>
	</g>
	<g>
		<g>
			<path class="st0" d="M216,280.5h-24c-4.4,0-8,3.6-8,8v152c0,4.4,3.6,8,8,8h24c4.4,0,8-3.6,8-8v-152
				C224,284.1,220.4,280.5,216,280.5z M208,432.5h-8v-136h8V432.5z"/>
		</g>
	</g>
	<g>
		<g>
			<rect x="40" y="240.5" class="st0" width="64" height="16"/>
		</g>
	</g>
	<g>
		<g>
			<rect x="40" y="264.5" class="st0" width="64" height="16"/>
		</g>
	</g>
	<g>
		<g>
			<rect x="40" y="288.5" class="st0" width="32" height="16"/>
		</g>
	</g>
</g>
</svg>
