<svg xmlns="http://www.w3.org/2000/svg" viewBox="0 0 464 480"><defs><style>.cls-1{fill:#0094a9;}</style></defs><g id="Layer_2" data-name="Layer 2"><g id="Capa_1" data-name="Capa 1"><path class="cls-1" d="M464,336A111.9,111.9,0,0,0,352.2,224H352a106.79,106.79,0,0,0-16,1.3V40a8,8,0,0,0-8-8H232V16A16,16,0,0,0,216,0H120a16,16,0,0,0-16,16V32H8a8,8,0,0,0-8,8V472a8,8,0,0,0,8,8H328a8,8,0,0,0,8-8V446.7a110.66,110.66,0,0,0,116.1-60.6A111.92,111.92,0,0,0,464,336Zm-23.8-38c.3.6.5,1.2.8,1.8l-85,26.6-42-78.6A96.13,96.13,0,0,1,440.2,298ZM120,16h96V64H120ZM320,464H16V48h88V64a16,16,0,0,0,16,16h96a16,16,0,0,0,16-16V48h88V228.9a109.16,109.16,0,0,0-20.7,8.3A112,112,0,0,0,320,443.3Zm32-32h0a96,96,0,0,1-52.1-176.6l45,84.4.1.1a2.65,2.65,0,0,0,.5.6l.9,1.2.1.1c.2.1.4.3.6.4a8.34,8.34,0,0,0,1.2.8c.1,0,.1.1.2.2L434,385.9A95.59,95.59,0,0,1,352,432Zm89.1-60.4-67.8-33.9,10.9-3.4,61.5-19.2A98.4,98.4,0,0,1,448,336,96.38,96.38,0,0,1,441.1,371.6Z"/><path class="cls-1" d="M146.5,120.7a63.84,63.84,0,0,0-89.6-11.3A65.63,65.63,0,0,0,44,122.8l6.5,4.7L44,122.8a64,64,0,1,0,102.5-2.1Zm-42.5-8a47.3,47.3,0,0,1,24.4,12l-12.9,10a31.37,31.37,0,0,0-11.4-5.7C104,129.1,104,112.7,104,112.7ZM95.8,144a16,16,0,0,1,12.7,6.2,15.76,15.76,0,0,1,3.4,9.8,16,16,0,1,1-16.1-16ZM88,112.8v16.3a31.22,31.22,0,0,0-12.5,6.5l-13.3-9.5A48,48,0,0,1,88,112.8ZM87.7,207a47.62,47.62,0,0,1-34.8-68l13.3,9.5A31.66,31.66,0,0,0,64,159.9a32,32,0,0,0,62.9,8h16.4A48,48,0,0,1,87.7,207Zm39.1-55a25.06,25.06,0,0,0-1.6-4.6l13-10.1a48.48,48.48,0,0,1,5.1,14.7Z"/><rect class="cls-1" x="192" y="104" width="104" height="16"/><rect class="cls-1" x="192" y="136" width="104" height="16"/><rect class="cls-1" x="192" y="168" width="104" height="16"/><rect class="cls-1" x="192" y="200" width="56" height="16"/><path class="cls-1" d="M64,392H40a8,8,0,0,0-8,8v40a8,8,0,0,0,8,8H64a8,8,0,0,0,8-8V400A8,8,0,0,0,64,392Zm-8,40H48V408h8Z"/><path class="cls-1" d="M112,360H88a8,8,0,0,0-8,8v72a8,8,0,0,0,8,8h24a8,8,0,0,0,8-8V368A8,8,0,0,0,112,360Zm-8,72H96V376h8Z"/><path class="cls-1" d="M160,320H136a8,8,0,0,0-8,8V440a8,8,0,0,0,8,8h24a8,8,0,0,0,8-8V328A8,8,0,0,0,160,320Zm-8,112h-8V336h8Z"/><path class="cls-1" d="M208,280H184a8,8,0,0,0-8,8V440a8,8,0,0,0,8,8h24a8,8,0,0,0,8-8V288A8,8,0,0,0,208,280Zm-8,152h-8V296h8Z"/><rect class="cls-1" x="32" y="240" width="64" height="16"/><rect class="cls-1" x="32" y="264" width="64" height="16"/><rect class="cls-1" x="32" y="288" width="32" height="16"/></g></g></svg>