<svg id="Layer_1" data-name="Layer 1" xmlns="http://www.w3.org/2000/svg" viewBox="0 0 75 75"><defs><style>.cls-1,.cls-2{fill:#0d72b9;}.cls-1{opacity:0.1;}.cls-3{fill:none;stroke:#0d72b9;stroke-linecap:round;stroke-linejoin:round;stroke-width:1.96px;}</style></defs><title>360°_Visibility</title><ellipse class="cls-1" cx="60.9" cy="46.85" rx="5.13" ry="5.03"/><path class="cls-2" d="M60.9,42.8a4.05,4.05,0,1,1-4.15,4,4.11,4.11,0,0,1,4.15-4m0-2a6,6,0,1,0,6.11,6,6.06,6.06,0,0,0-6.11-6Z"/><path class="cls-3" d="M47,30.62a12.26,12.26,0,0,0-16.91-2.82,11.8,11.8,0,0,0-2.86,16.63,12,12,0,0,0,2.1,2.23"/><path class="cls-3" d="M57.31,25.69A23.41,23.41,0,0,0,25.46,18a22.59,22.59,0,0,0-7.8,31.33,23.27,23.27,0,0,0,19.82,11"/><path class="cls-3" d="M66.22,21.43A33.36,33.36,0,0,0,21.13,9.27,32.23,32.23,0,0,0,8.77,53.62,33.31,33.31,0,0,0,49.11,68"/><line class="cls-3" x1="42.81" y1="33.67" x2="71.05" y2="19.41"/></svg>