<svg xmlns="http://www.w3.org/2000/svg" viewBox="0 0 74.55 85.3"><defs><style>.cls-1,.cls-4{fill:none;stroke:#0094a9;stroke-miterlimit:10;stroke-width:2px;}.cls-1{stroke-linecap:round;}.cls-2,.cls-3{fill:#0094a9;}.cls-2{opacity:0.35;isolation:isolate;}</style></defs><g id="Layer_2" data-name="Layer 2"><g id="Layer_1-2" data-name="Layer 1"><line class="cls-1" x1="31.45" y1="68.1" x2="61.05" y2="68.1"/><line class="cls-1" x1="31.45" y1="76.1" x2="61.05" y2="76.1"/><line class="cls-1" x1="31.45" y1="84.2" x2="61.05" y2="84.2"/><polygon class="cls-2" points="45.35 32.2 27.95 22.9 45.35 13.6 62.65 22.9 45.35 32.2"/><polygon class="cls-3" points="45.35 32.2 34.25 26.3 27.95 29.6 45.35 38.9 62.65 29.6 56.45 26.3 45.35 32.2"/><polygon class="cls-2" points="45.35 38.9 34.25 32.9 27.95 36.3 45.35 45.6 62.65 36.3 56.45 32.9 45.35 38.9"/><circle class="cls-3" cx="25.15" cy="68.1" r="1.1"/><circle class="cls-3" cx="25.15" cy="76.1" r="1.1"/><circle class="cls-3" cx="25.15" cy="84.2" r="1.1"/><path class="cls-3" d="M21.25,45.6,1.35,65.5A4.6,4.6,0,0,0,7.85,72l19.8-19.8"/><circle class="cls-4" cx="45.35" cy="29.2" r="28.2"/></g></g></svg>