<svg xmlns="http://www.w3.org/2000/svg" viewBox="0 0 222.28 223.09"><defs><style>.cls-1{fill:#006bb6;}.cls-2{fill:#d7000d;}</style></defs><title>Asset 1</title><g id="Layer_2" data-name="Layer 2"><g id="Layer_1-2" data-name="Layer 1"><path class="cls-1" d="M213.28,80.75a9,9,0,0,1-9-9V33.09c0-4.39-1.16-7.67-3.56-10-5-4.94-13.9-5.07-14-5.05H134a9,9,0,0,1,0-18h52.67c1.56,0,16.47.12,26.71,10.25,5.82,5.76,8.9,13.66,8.9,22.84V71.75A9,9,0,0,1,213.28,80.75Z"/><path class="cls-1" d="M9,142.34a9,9,0,0,1,9,9V190c0,4.39,1.16,7.68,3.56,10.05,5,4.93,13.9,5.06,14,5H88.28a9,9,0,0,1,0,18H35.61c-1.56,0-16.47-.12-26.71-10.25C3.08,207.08,0,199.18,0,190V151.34A9,9,0,0,1,9,142.34Z"/><path class="cls-1" d="M157.38,80.06H65.13a9,9,0,1,1,0-18h92.25a9,9,0,0,1,0,18Z"/><path class="cls-2" d="M157.63,120.55H65.38a9,9,0,1,1,0-18h92.25a9,9,0,0,1,0,18Z"/><path class="cls-1" d="M155.66,161H63.41a9,9,0,0,1,0-18h92.25a9,9,0,0,1,0,18Z"/></g></g></svg>