<svg xmlns="http://www.w3.org/2000/svg" viewBox="0 0 68.57 67.06"><defs><style>.cls-1{fill:#0094a9;}.cls-2,.cls-3{fill:none;stroke:#0094a9;}.cls-2{stroke-miterlimit:10;}.cls-3{stroke-linecap:round;stroke-linejoin:round;stroke-width:1.96px;}</style></defs><g id="Layer_2" data-name="Layer 2"><g id="Layer_1-2" data-name="Layer 1"><path class="cls-1" d="M57.44,38.79a4.05,4.05,0,1,1-4.15,4,4.11,4.11,0,0,1,4.15-4m0-2a6,6,0,1,0,6.11,6A6.07,6.07,0,0,0,57.44,36.79Z"/><path class="cls-2" d="M43.54,26.61a12.26,12.26,0,0,0-16.91-2.82,11.8,11.8,0,0,0-3,16.42l.16.21a11.68,11.68,0,0,0,2.1,2.23"/><path class="cls-2" d="M53.85,21.68A23.42,23.42,0,0,0,22,14a22.59,22.59,0,0,0-8,30.92l.25.41A23.24,23.24,0,0,0,34,56.32"/><path class="cls-3" d="M62.76,17.42A33.36,33.36,0,0,0,17.67,5.26,32.22,32.22,0,0,0,5,49c.1.19.21.38.32.57A33.3,33.3,0,0,0,45.65,64"/><line class="cls-3" x1="39.35" y1="29.66" x2="67.59" y2="15.4"/></g></g></svg>