<?xml version="1.0" encoding="UTF-8"?><svg id="Layer_2" xmlns="http://www.w3.org/2000/svg" viewBox="0 0 409.47 280.96"><defs><style>.cls-1{fill:#fff;}</style></defs><g id="Layer_1-2"><path class="cls-1" d="M409.47,229.87c-1.06-.53-2.17-.96-3.16-1.59-44.29-27.96-88.57-55.94-132.84-83.93-.77-.49-1.48-1.08-2.54-1.86,7.93-5.26,15.61-10.38,23.33-15.47,37.11-24.45,74.23-48.88,111.36-73.31,1.19-.78,2.23-1.95,3.85-1.84V229.87Z"/><path class="cls-1" d="M0,51.88c21.71,14.24,43.44,28.46,65.13,42.72,22.92,15.07,45.82,30.18,68.73,45.28,1.21,.8,2.4,1.64,3.97,2.72C91.71,171.81,45.86,200.84,0,229.87,0,170.54,0,111.21,0,51.88Z"/><path class="cls-1" d="M204.24,0c59.44,0,118.89-.01,178.33,.01,11.62,0,21.26,7.23,24.55,17.88,.89,2.89,.32,4.38-2.22,6.05-53.44,35.07-106.82,70.24-160.2,105.4-12.52,8.24-25.06,16.44-37.51,24.79-2.05,1.38-3.4,1.54-5.56,.11C135.56,110.61,69.44,67.06,3.28,23.57c-2.16-1.42-2.57-2.61-1.84-5.1C4.71,7.25,14.19,.02,26.3,.01,85.61,0,144.93,0,204.24,0Z"/><path class="cls-1" d="M204.42,280.95c-59.45,0-118.9,.01-178.35-.01-11.63,0-21.29-7.28-24.52-17.92-.85-2.81-.24-4.13,2.2-5.66,34.67-21.83,69.26-43.77,103.88-65.68,16.92-10.7,33.89-21.32,50.74-32.13,2.15-1.38,3.53-1.34,5.57,.04,10.22,6.9,20.67,13.48,30.8,20.5,6.68,4.63,12.75,4.48,19.38-.12,10.13-7.03,20.59-13.58,30.82-20.48,1.95-1.32,3.26-1.24,5.22,0,51.61,32.73,103.26,65.41,154.97,97.99,2.42,1.53,2.75,2.82,2.01,5.37-3.17,10.85-12.86,18.09-24.76,18.09-59.32,.02-118.63,0-177.95,0Z"/></g></svg>