<?xml version="1.0" encoding="UTF-8"?><svg id="Layer_2" xmlns="http://www.w3.org/2000/svg" viewBox="0 0 409.09 409.09"><defs><style>.cls-1{fill:#fff;}</style></defs><g id="Layer_1-2"><g><path class="cls-1" d="M409.09,106.59c-.83-.53-.95-1.06,0-1.6v1.6Z"/><path class="cls-1" d="M409.09,304.53c-.95-.53-.83-1.06,0-1.6v1.6Z"/><path class="cls-1" d="M104.99,409.09c.53-.95,1.06-.83,1.6,0h-1.6Z"/><path class="cls-1" d="M302.93,409.09c.53-.83,1.06-.95,1.6,0h-1.6Z"/><path class="cls-1" d="M409.09,101c-1.09-4.78-.61-9.72-1.8-14.53-7.03-28.49-22.62-51.15-46.75-67.67C342.84,6.67,323.23-.04,301.44,0,236.41,.12,171.38,.03,106.35,.07c-5.57,0-11.18,.23-16.64,1.43-22.37,4.93-41.89,15.11-57.89,31.73C11.21,54.66-.07,79.85,0,109.94c.15,64.1,.03,128.2,.06,192.3,0,8.26,.76,16.43,3.11,24.42,10.35,35.2,32.19,60.24,65.89,74.9,9.95,4.33,20.33,6.8,31.15,7.53h4.79c.53-.5,1.06-.5,1.6,0h196.35c.53-.5,1.06-.5,1.6,0h3.19c4.01-.9,8.18-.32,12.18-1.23,35.35-8,61.52-28.05,78.25-60.17,6.24-11.98,10.08-24.79,10.94-38.38v-4.79c-.5-.53-.5-1.06,0-1.6V106.59c-.5-.53-.5-1.06,0-1.6v-3.99Zm-204.92,215.61c-61.99-.59-111.75-50.84-111.26-112.35,.5-61.95,50.72-111.77,112.25-111.36,61.91,.41,111.77,50.58,111.46,112.15-.31,62.01-50.84,112.14-112.45,111.56Zm119.17-196.75c-18.59,0-33.79-15.27-33.68-33.75,.11-19.55,15.55-33.93,33.87-33.94,18.76-.01,33.89,15.15,33.83,33.9-.07,18.45-14.59,33.79-34.01,33.79Z"/><path class="cls-1" d="M204.76,292.69c-48.63,0-88.09-39.52-87.93-88.04,.16-48.74,39.71-88.14,88.14-87.83,48.7,.32,87.59,39.25,87.73,87.84,.14,48.53-39.32,88.03-87.94,88.03Z"/><path class="cls-1" d="M333.45,86.12c-.06,5.23-4.7,9.92-9.85,9.94-5.15,.03-10.22-5.08-10.14-10.21,.09-5.35,4.94-9.9,10.41-9.76,5.36,.14,9.64,4.62,9.58,10.03Z"/></g></g></svg>