<?xml version="1.0" encoding="UTF-8"?><svg id="Layer_2" xmlns="http://www.w3.org/2000/svg" viewBox="0 0 306.77 306.82"><defs><style>.cls-1{fill:#fff;}</style></defs><g id="Layer_1-2"><g><path class="cls-1" d="M169.64,129.18c8.16-12.82,19.22-21.65,33-27.19,13.16-5.3,26.92-5.72,40.78-4.38,12.38,1.2,24.17,4.43,34.49,11.74,13.54,9.58,20.38,23.38,24.29,38.98,3.08,12.26,4.29,24.8,4.36,37.37,.23,39.15,.09,78.31,.2,117.46,0,2.78-.95,3.19-3.4,3.17-19.08-.09-38.15-.11-57.23,.02-2.7,.02-3.24-.77-3.23-3.33,.09-31.55,.12-63.09,.02-94.64-.03-10.69-.05-21.39-2.55-31.94-4.43-18.64-17.6-25.13-35.06-23.55-23.18,2.1-29.23,17.34-31.76,32.62-1.27,7.63-1.46,15.37-1.45,23.1,.02,31.42-.03,62.85,.08,94.27,.01,2.94-.44,3.99-3.74,3.95-18.83-.19-37.65-.14-56.48-.03-2.59,.01-3.59-.34-3.58-3.34,.1-66.09,.1-132.17,0-198.26,0-2.92,.88-3.43,3.56-3.41,18.08,.12,36.16,.13,54.24,0,2.84-.02,3.58,.76,3.52,3.55-.19,7.95-.07,15.91-.07,23.86Z"/><path class="cls-1" d="M5.08,204.19c0-32.8,.06-65.59-.09-98.39-.01-3.33,.82-4.08,4.09-4.05,18.83,.17,37.66,.14,56.48,.02,2.66-.02,3.27,.75,3.27,3.33-.07,66.09-.08,132.19,.02,198.28,0,2.87-.79,3.44-3.51,3.43-18.95-.13-37.91-.13-56.86,0-2.82,.02-3.47-.69-3.46-3.48,.11-33.05,.07-66.09,.07-99.14Z"/><path class="cls-1" d="M36.92,74.04C16.66,74.06,.02,57.35,0,36.96-.02,16.62,16.68-.05,37.03,0c20.13,.05,36.8,16.74,36.82,36.87,.03,20.33-16.69,37.16-36.92,37.17Z"/></g></g></svg>