<?xml version="1.0" encoding="UTF-8"?><svg id="Layer_2" xmlns="http://www.w3.org/2000/svg" viewBox="0 0 383.17 382.77"><defs><style>.cls-1{fill:#fff;}.cls-2{fill:#38363c;}</style></defs><g id="Layer_1-2"><g><path class="cls-1" d="M197.54,382.77c0-24.43,.06-48.87-.07-73.3-.02-2.91,.78-3.33,3.5-3.27,22.96,.55,45.61,3.35,68.28,8.68-3.21,7.67-7.1,14.8-11.42,21.69-9.43,15.03-20.62,28.44-36.1,37.65-6.76,4.02-13.99,6.9-21.88,7.92-.29,.04-.54,.41-.81,.63h-1.5Z"/><path class="cls-1" d="M184.07,382.77c-3.28-.91-6.6-1.7-9.84-2.76-16.74-5.5-29.11-16.81-39.77-30.28-7.9-9.98-14.14-20.99-19.68-32.42-1.02-2.1-.37-2.6,1.54-3.02,21.92-4.93,44.1-7.61,66.56-8.08,3.08-.06,1.9,2.05,1.9,3.29,.07,24.43,.05,48.85,.05,73.28h-.75Z"/><path class="cls-2" d="M0,180c1.24,1.5,1.04,2.99,0,4.49v-4.49Z"/><path class="cls-1" d="M9.1,132.83c3.09-10.09,7.11-19.51,11.79-28.66,8.1-15.83,18.21-30.24,30.3-43.28,1.31-1.42,2.19-2.03,4.27-.96,12.27,6.3,25.12,11.22,38.32,15.16,2.59,.77,2.65,1.6,1.84,3.77-6.12,16.3-10.57,33.06-13.41,50.24-.44,2.64-1.19,3.86-4.36,3.83-21.7-.19-43.39-.1-65.09-.1h-3.66Z"/><path class="cls-1" d="M374.03,249.62c-4.94,15.57-11.71,29.86-20.19,43.36-6.44,10.26-13.79,19.82-22.05,28.69-1.22,1.31-2.09,1.93-3.97,.95-12.36-6.42-25.35-11.32-38.66-15.32-2.33-.7-2.55-1.47-1.79-3.5,6.23-16.53,10.69-33.53,13.68-50.94,.25-1.47,.03-3.33,2.84-3.32,23.19,.13,46.38,.07,70.14,.07Z"/><path class="cls-1" d="M373.76,132.83h-17.6c-17.08,0-34.16-.1-51.23,.09-2.84,.03-3.57-1.05-3.96-3.41-2.88-17.42-7.39-34.41-13.62-50.93-.81-2.14-.33-2.79,1.86-3.46,13.29-4.05,26.27-8.94,38.65-15.31,1.34-.69,2.23-.91,3.46,.42,19.24,20.7,33.46,44.36,42.22,71.25,.11,.34,.12,.71,.22,1.33Z"/><path class="cls-1" d="M9.29,249.62H55.75c7.36,0,14.72,.21,22.07-.1,3.15-.13,3.97,1.11,4.4,3.8,2.56,15.83,6.66,31.28,11.96,46.41,2.35,6.71,2.36,6.76-4.27,8.84-11.85,3.72-23.32,8.37-34.44,13.9-1.43,.71-2.35,1.19-3.76-.32-19.25-20.7-33.42-44.39-42.23-71.26-.11-.34-.11-.71-.2-1.26Z"/><path class="cls-1" d="M243.13,132.83c-14.2,0-28.4-.07-42.6,.06-2.5,.02-3.06-.71-3.04-3.1,.12-12.71,.11-25.41,0-38.12-.02-2.26,.54-2.92,2.88-2.96,23.94-.37,47.58-3.23,70.87-8.8,2.04-.49,3.26-.33,4.13,2.05,5.85,15.86,10.02,32.15,13.26,48.71,.52,2.65-1.11,2.15-2.52,2.15-14.33,0-28.65,0-42.98,0Z"/><path class="cls-1" d="M243.47,249.62c14.08,0,28.15,.05,42.23-.05,2.6-.02,3.24,.3,2.68,3.25-3.08,16.1-7.29,31.86-12.88,47.28-.98,2.71-2.19,2.92-4.58,2.35-22.93-5.45-46.2-8.3-69.76-8.69-2.88-.05-3.73-.72-3.69-3.69,.18-12.21,.18-24.42,0-36.62-.04-3,.53-3.96,3.77-3.91,14.07,.21,28.15,.09,42.23,.09Z"/><path class="cls-1" d="M139.16,132.83c-13.58,0-27.16-.08-40.74,.06-3.25,.03-4.32-.23-3.55-4.11,3.14-15.84,7.26-31.36,12.78-46.54,.91-2.51,2.06-2.91,4.31-2.36,23.04,5.64,46.45,8.33,70.13,8.84,1.98,.04,2.81,.4,2.79,2.64-.11,12.96-.14,25.92,.02,38.87,.03,2.69-1.2,2.63-3.12,2.62-14.2-.05-28.41-.03-42.61-.03Z"/><path class="cls-1" d="M139.57,249.62c14.08,0,28.16,.06,42.24-.06,2.45-.02,3.09,.63,3.06,3.07-.12,12.71-.11,25.42,0,38.13,.02,2.2-.44,2.94-2.83,2.99-23.68,.46-47.09,3.19-70.13,8.81-1.96,.48-3.28,.42-4.18-2.02-5.82-15.87-10.02-32.15-13.26-48.72-.51-2.6,1.02-2.19,2.49-2.19,14.2,0,28.41,0,42.61,0Z"/><path class="cls-1" d="M269.36,67.49c-16.22,3.97-32.41,6.4-48.78,7.68-6.82,.54-13.68,.68-20.52,1.05-1.44,.08-2.57,.29-2.56-1.9,.07-24.66,.04-49.32,.04-74.32,11.98,1.24,22.25,6.05,31.49,13.12,18.58,14.22,30.51,33.41,40.32,54.37Z"/><path class="cls-1" d="M113.68,67.5c10.89-22.79,23.81-43.52,45.13-57.68,7.1-4.72,14.86-7.91,23.29-9.4,1.82-.32,2.79-.33,2.78,2.15-.11,23.69-.07,47.38-.05,71.07,0,1.63,.06,2.66-2.28,2.61-23.09-.53-45.87-3.35-68.87-8.75Z"/><path class="cls-1" d="M320.08,49.64c-11.8,5.94-24.17,10.28-36.71,14.21-2.27,.71-2.38-1.13-2.96-2.37-5.5-11.86-11.87-23.2-19.69-33.7-5.67-7.62-12.06-14.56-19.24-20.92,14.92-.34,65.09,26.99,78.6,42.79Z"/><path class="cls-1" d="M241.11,375.9c14.92-12.98,25.88-28.56,34.78-45.67,1.71-3.29,3.24-6.69,4.81-10.05,.57-1.22,1.1-2.07,2.77-1.55,12.55,3.86,24.87,8.31,36.69,14.21-15.49,16.85-59.21,40.74-79.06,43.07Z"/><path class="cls-1" d="M141.43,6.58c-17.08,15.39-29.21,34.16-38.63,54.83-1.02,2.24-1.84,2.79-4.38,2-12.08-3.77-23.91-8.14-35.7-13.9C85.67,28.77,111.76,14.46,141.43,6.58Z"/><path class="cls-1" d="M142.01,375.98c-21.78-3.48-61.17-24.98-79.03-43.03,5.95-3.36,12.23-5.79,18.5-8.15,5.56-2.09,11.31-3.65,16.87-5.73,2.42-.9,3.35-.44,4.41,1.91,6.78,15.01,15.16,29.05,25.92,41.59,3.97,4.63,8.36,8.85,13.31,13.41Z"/><path class="cls-1" d="M378.7,149.73c-.75-3.43-1.99-4.35-5.5-4.35-121.08,.11-242.17,.09-363.25,.09-.5,0-1.01,.07-1.49-.01-2.22-.36-3.39,.47-3.76,2.76-.72,4.41-1.51,8.81-2.46,13.18C1.21,166.07,1.61,170.95,0,175.51v4.49c.61,1.5,.61,2.99,0,4.49v22.45c.78,.24,.7,.9,.74,1.5,.57,8.33,2.11,16.51,3.74,24.68,.55,2.79,1.44,3.96,4.71,3.95,121.58-.12,243.17-.11,364.75-.02,2.9,0,4.04-.75,4.65-3.6,5.98-27.91,6.18-55.78,.11-83.72Zm-261.59,18.6c-5.85,16.58-11.8,33.13-17.76,49.68-1.02,2.82-3.14,4.63-6.17,4.57-3-.06-5-1.84-6.03-4.74-3.83-10.73-7.72-21.43-11.88-32.96-2.3,6.29-4.35,11.84-6.36,17.41-1.81,5.01-3.6,10.02-5.34,15.05-1.08,3.11-3.06,5.27-6.45,5.23-3.22-.04-5.12-2.15-6.18-5.1-5.76-16.1-11.56-32.18-17.29-48.28-1.55-4.34-.06-7.72,3.79-9.01,3.38-1.14,6.52,.63,8.02,4.74,3.57,9.77,7.05,19.57,10.57,29.36,.32,.9,.71,1.77,1.27,3.17,3.73-10.41,7.3-20.3,10.82-30.22,1.28-3.6,2.51-7.42,7.2-7.34,4.65,.08,5.77,3.91,7.04,7.52,3.48,9.85,7.07,19.66,10.9,30.26,4.03-11.25,7.76-21.74,11.54-32.21,1.6-4.44,4.62-6.4,8.05-5.35,3.63,1.12,5.56,4.53,4.25,8.23Zm116.42-.73c-.49,2.28-1.43,4.47-2.23,6.68-5.19,14.45-10.43,28.87-15.56,43.34-1.09,3.06-3.06,4.96-6.23,4.94-3.17-.02-5.28-1.9-6.14-5.03-.16-.59-.43-1.16-.64-1.74-3.6-9.99-7.21-19.97-11.18-30.99-4.23,11.72-8.03,22.42-11.97,33.08-1.68,4.54-5.83,6.02-9.52,3.61-1.3-.85-2.05-2.08-2.57-3.54-5.87-16.31-11.82-32.6-17.64-48.93-1.5-4.21,.07-7.46,3.81-8.78,3.43-1.21,6.5,.45,8.02,4.58,3.88,10.57,7.67,21.18,11.52,31.83,1.57-.43,1.41-1.95,1.78-2.97,3.36-9.19,6.65-18.4,9.86-27.64,1.13-3.27,2.73-6.08,6.54-6.16,4.03-.09,5.7,2.8,6.89,6.2,3.19,9.11,6.48,18.19,9.75,27.28,.4,1.12,.85,2.22,1.58,4.11,3.88-10.71,7.48-20.64,11.07-30.57,.38-1.05,.65-2.14,1.13-3.14,1.45-3.03,4.48-4.5,7.33-3.64,3.46,1.04,5.21,3.8,4.4,7.5Zm116.15,.9c-5.91,16.43-11.77,32.88-17.66,49.31-1.01,2.82-3,4.71-6.04,4.76-3.22,.05-5.26-1.91-6.33-4.88-3.85-10.72-7.68-21.45-11.79-32.91-3.51,9.72-6.77,18.77-10.04,27.81-.63,1.75-1.3,3.48-1.89,5.24-.98,2.92-3.02,4.7-6.02,4.74-3.2,.05-5.24-1.94-6.31-4.91-3.25-9.1-6.51-18.2-9.76-27.29-2.54-7.12-5.11-14.22-7.6-21.36-1.47-4.22-.09-7.39,3.66-8.75,3.44-1.25,6.55,.38,8.08,4.53,3.68,9.99,7.24,20.03,10.85,30.05,.25,.69,.58,1.34,1.1,2.53,3.72-10.31,7.27-20.14,10.82-29.97,.21-.58,.49-1.14,.65-1.74,.86-3.34,2.8-5.73,6.38-5.78,3.59-.05,5.41,2.38,6.54,5.61,3.37,9.58,6.87,19.11,10.32,28.66,.33,.93,.7,1.84,1.29,3.38,4.03-11.25,7.86-21.94,11.68-32.64,1.06-2.95,3-5.02,6.23-5.03,2.83,0,4.89,1.57,5.95,4.3,.58,1.48,.41,2.86-.13,4.34Z"/></g></g></svg>