<?xml version="1.0" encoding="UTF-8"?><svg id="Layer_2" xmlns="http://www.w3.org/2000/svg" viewBox="0 0 429.71 429.38"><defs><style>.cls-1{fill:#fff;}</style></defs><g id="Layer_1-2"><path class="cls-1" d="M429.71,199.02c-.82-5.07-.39-10.24-1.09-15.31-3.1-22.31-9.76-43.58-19.7-63.73-13.38-27.11-31.76-50.41-54.89-69.95-28.33-23.93-60.77-39.28-97-46.76C237.46-.76,217.66-.21,197.86,.49c-28.6,1.02-55.17,9.64-80.44,22.31-22.62,11.35-42.4,26.65-59.75,45.21-14.82,15.85-26.86,33.52-36.51,52.84C2.71,157.75-2.52,197.12,1.05,237.72c3.14,35.73,15.56,68.39,35.95,97.92,2.38,3.45,2.85,6.52,1.5,10.51-7.62,22.47-15.11,44.98-22.56,67.51-.67,2.04-2.49,4.49-.79,6.28,1.86,1.97,4.5,.25,6.66-.45,23.35-7.61,46.81-14.87,70.14-22.57,3.83-1.26,6.81-.82,10.19,1.3,21,13.17,43.69,22.23,67.9,27.61,9.14,2.03,18.41,2.58,27.65,3.55h5.03c.84-.63,1.68-.63,2.51,0h14.24c1.68-.68,3.35-.68,5.03,0h5.86c5.21-.79,10.52-.33,15.72-1.02,23.03-3.08,44.89-10.14,65.59-20.5,26.49-13.27,49.28-31.39,68.4-54.08,23.76-28.2,39.21-60.37,46.66-96.49,1.75-8.48,2.08-17.05,2.99-25.59v-7.54c-.69-1.95-.69-3.91,0-5.86v-6.7c-.69-1.95-.69-3.91,0-5.86v-6.7Zm-85.59,87.43c-2.89,27.18-20.69,39.7-44.53,46.57-4.56,1.31-9.26,2.04-14.06,1.78-14.67-.28-28.33-5.02-42.08-9.5-42.17-13.74-76.24-39.1-104.51-72.74-15.34-18.25-30.07-36.98-39.85-58.97-8.9-20.04-11.3-40.57-3.63-61.63,3.75-10.29,10.04-18.88,18.08-26.2,6.51-5.92,14.65-6.57,22.96-7.19,10.72-.8,16.56,4.04,20.2,13.89,5.28,14.3,11.28,28.36,17.53,42.28,3.33,7.42,1.92,13.44-3.02,19.19-4.28,4.97-8.73,9.8-12.96,14.8-3.94,4.65-4.32,7.66-1.4,12.53,19.7,32.8,46.12,58.08,81.89,72.82,10.5,4.33,14.92,3.19,21.97-5.87,4.11-5.28,8.05-10.68,12.02-16.07,5.44-7.39,10.07-8.83,18.3-5.23,16.28,7.11,32.13,15.14,47.99,23.13,5.6,2.82,6.11,6.98,5.11,16.42Z"/></g></svg>