<?xml version="1.0" encoding="UTF-8"?><svg id="Layer_2" xmlns="http://www.w3.org/2000/svg" viewBox="0 0 225.97 267.65"><defs><style>.cls-1{fill:#444348;}.cls-2{fill:#fff;}.cls-3{fill:#0d0e12;}.cls-4{fill:#928f94;}.cls-5{fill:#29292e;}.cls-6{fill:#434147;}.cls-7{fill:#0c0e11;}.cls-8{fill:#a7a4a9;}.cls-9{fill:#918e93;}.cls-10{fill:#807d83;}.cls-11{fill:#a8a5a9;}.cls-12{fill:#7f7d82;}.cls-13{fill:#2a2a2f;}</style></defs><g id="Layer_1-2"><path class="cls-7" d="M88.44,267.14c5.11,0,10.23-.02,15.34,0,.83,0,1.76-.29,2.44,.51h-17.77c-.17-.11-.23-.22-.17-.34,.05-.12,.11-.18,.16-.18Z"/><path class="cls-3" d="M120.34,267.65c.77-.86,1.79-.5,2.7-.51,5.03-.03,10.05-.01,15.08-.01,.17,.12,.22,.23,.16,.35-.06,.11-.11,.17-.17,.17h-17.77Z"/><path class="cls-5" d="M88.44,267.14c0,.17,.01,.34,.01,.52h-6.27c-.16-.1-.22-.2-.18-.31,.05-.11,.1-.17,.15-.17l6.29-.03Z"/><path class="cls-13" d="M138.11,267.65c0-.17,0-.35,0-.52,2.1,0,4.19,.02,6.29,.02,.16,.12,.21,.23,.15,.34-.06,.1-.11,.16-.17,.16h-6.27Z"/><path class="cls-6" d="M82.16,267.17c.02,.16,.02,.32,.03,.48h-4.18c1.28-1.1,2.77-.27,4.15-.48Z"/><path class="cls-1" d="M144.38,267.65c0-.16,0-.33,.02-.49,1.04,.17,2.21-.51,3.11,.49h-3.14Z"/><path class="cls-11" d="M70.16,267.65c.31-.86,1-.42,1.55-.44,.18,.09,.24,.19,.19,.28-.06,.1-.11,.15-.17,.15h-1.57Z"/><path class="cls-4" d="M71.73,267.65c0-.15,0-.29-.02-.44h1.57c.18,.09,.24,.18,.19,.28-.06,.1-.11,.15-.17,.15h-1.57Z"/><path class="cls-10" d="M73.3,267.65c0-.15,0-.29-.01-.44,.58-.03,1.23-.33,1.58,.44h-1.57Z"/><path class="cls-12" d="M151.17,267.65c.36-.76,1.01-.47,1.58-.44,.16,.1,.21,.2,.15,.3-.06,.09-.11,.14-.17,.14h-1.57Z"/><path class="cls-9" d="M152.74,267.65c0-.15,0-.29,.01-.44,.52,0,1.05,0,1.57,0,.16,.1,.21,.2,.15,.3-.06,.09-.11,.14-.17,.14h-1.57Z"/><path class="cls-8" d="M154.31,267.65c0-.15,0-.29,.02-.44,.55,.01,1.24-.44,1.55,.44h-1.57Z"/><g><path class="cls-2" d="M161.28,94.22c-2.37,2.41-4.28,4.39-6.59,5.92-3.26,2.16-6.73,3.65-10.76,3.03-4.56-.7-7.02-3.1-7.8-7.79-.36-2.14-.58-4.32-.59-6.49-.05-20.21,0-40.42-.09-60.63,0-1.86,.5-2.35,2.31-2.26,3.13,.15,6.27,.15,9.4,0,1.87-.09,2.3,.56,2.29,2.35-.06,17.6-.04,35.19-.03,52.79,0,1.92-.02,3.84,.11,5.75,.21,3.25,2.12,4.47,5.17,3.39,3.75-1.32,6.57-5.3,6.57-9.28,0-17.51,.03-35.02-.05-52.53,0-1.94,.44-2.59,2.44-2.47,3.04,.18,6.1,.17,9.14,0,1.89-.1,2.47,.34,2.46,2.37-.1,14.55-.06,29.09-.06,43.64,0,9.41-.05,18.82,.04,28.22,.02,1.76-.5,2.21-2.19,2.14-3.22-.13-6.45-.14-9.67,0-1.81,.08-2.27-.59-2.15-2.26,.12-1.73,.03-3.48,.03-5.91Z"/><path class="cls-2" d="M30.44,.03c5.11,0,10.05,.04,14.98-.02,1.59-.02,1.48,1.13,1.73,2.07,3.38,12.42,6.74,24.84,10.25,37.78,2.43-9.36,4.73-18.23,7.05-27.09,.98-3.77,2.03-7.52,2.96-11.3,.24-.96,.47-1.48,1.62-1.46,4.69,.07,9.39,.03,14.33,.03-2.43,8.06-4.79,15.92-7.16,23.77-3.56,11.76-7.13,23.51-10.73,35.26-.41,1.35-.55,2.69-.55,4.09,.02,12.28-.04,24.55,.06,36.83,.02,2.01-.55,2.49-2.47,2.41-3.56-.16-7.14-.15-10.7,0-1.86,.07-2.33-.56-2.32-2.36,.07-11.84,0-23.68,.05-35.52,.03-7.61-2.66-14.62-4.77-21.74-4.17-14.01-9.33-27.7-13.96-41.56-.11-.32-.2-.63-.37-1.18Z"/><path class="cls-2" d="M222.77,138.33c-2.51-12.95-10.76-22.34-22.65-24.65-7.51-1.46-15.21-1.72-22.84-2.22-21.82-1.42-43.68-1.3-65.54-1.3-26.98,0-53.96,.17-80.87,2.73-12.88,1.23-23.28,9.22-26.58,21.68-2.14,8.1-3.04,16.39-3.59,24.71C-.36,175.47,.05,191.67,.21,207.87c.11,11.4,1.17,22.74,3.59,33.92,2.59,11.95,12.78,21.6,23.94,22.72,12.82,1.28,25.64,2.37,38.53,2.63,.47,0,1.08-.21,1.28,.52h2.61c.49-.47,1.1-.19,1.66-.27,.46,0,.93,0,1.39,0,.55,.08,1.16-.2,1.65,.27h3.14c1.46-.55,2.98-.14,4.47-.27,2.05,0,4.11,0,6.16,0,1.3,0,2.6-.03,3.89,0,4.57,.14,9.14-.33,13.7,.26h14.11c.8-.5,1.69-.25,2.54-.26,5.02-.03,10.05-.01,15.08-.01,2.03,0,4.06,0,6.08,0,1.16,.13,2.36-.28,3.48,.27h3.66c.49-.47,1.1-.19,1.66-.27,.46,0,.93,0,1.39,0,.55,.08,1.16-.2,1.65,.27h1.57c.13-.58,.6-.51,1.02-.51,11.93-.13,23.8-1.25,35.69-2.11,14.14-1.03,24.28-8.97,27.78-22.26,1.53-5.8,2.26-11.76,2.89-17.72,1.26-11.98,1.11-24,1.14-36.01,.03-16.97,.06-33.93-3.19-50.71Zm-159.98,10.36c-4.18-.06-8.36,.07-12.53-.07-1.79-.06-2.14,.55-2.13,2.21,.06,13.76,.04,27.51,.04,41.27,0,13.67-.05,27.34,.05,41.01,.01,2.05-.5,2.69-2.58,2.58-3.47-.18-6.96-.13-10.44-.01-1.67,.06-2.23-.37-2.19-2.14,.11-6.18,.04-12.36,.04-18.54,0-21.16-.05-42.31,.07-63.47,.01-2.5-.76-3.03-3.04-2.92-3.73,.18-7.49,0-11.23,.08-1.43,.03-2-.32-1.94-1.87,.11-3.48,.09-6.97,0-10.45-.04-1.39,.45-1.77,1.79-1.77,14.71,.04,29.42,.04,44.14,0,1.21,0,1.67,.26,1.64,1.57-.09,3.65-.1,7.31,0,10.97,.04,1.37-.51,1.56-1.68,1.54Zm42.95,85.24c0,1.39-.42,1.78-1.78,1.74-3.31-.09-6.62-.14-9.93,.01-1.74,.08-2.04-.6-1.95-2.11,.11-1.88,.03-3.77,.03-6.2-3.04,3.21-5.72,5.79-9.11,7.53-2.14,1.1-4.39,1.7-6.74,1.7-5.36,0-8.53-2.98-9.19-8.66-.34-2.93-.53-5.9-.54-8.85-.05-18.73,.01-37.45-.08-56.18,0-2.06,.52-2.65,2.55-2.53,2.95,.18,5.93,.17,8.88,0,1.87-.11,2.27,.47,2.26,2.29-.07,18.55-.05,37.1-.03,55.66,0,2.15-.42,4.71,2.07,5.71,2.43,.98,4.56-.4,6.38-2.01,2.33-2.07,3.71-4.31,3.66-7.81-.23-17.07-.05-34.14-.17-51.21-.01-2.27,.64-2.75,2.74-2.62,3.04,.19,6.09,.1,9.14,.02,1.26-.03,1.82,.16,1.82,1.65-.05,23.95-.05,47.91,0,71.86Zm51.2-10.15c-.14,1.46-.37,2.94-.79,4.34-2.21,7.41-8.9,10.46-16.09,7.38-3.41-1.46-6.04-3.95-8.49-6.74-.65,.8-.35,1.6-.36,2.33-.04,4.56-.03,4.56-4.72,4.56-2.44,0-4.88-.05-7.32,.02-1.11,.03-1.64-.31-1.51-1.47,.05-.43,0-.87,0-1.31,0-31.88,.03-63.77-.06-95.65,0-2.21,.55-2.82,2.71-2.66,2.86,.2,5.75,.16,8.62,.01,1.88-.1,2.31,.58,2.29,2.36-.08,10.01-.04,20.02-.04,30.6,2.03-2.06,3.58-3.8,5.51-5.13,9.43-6.53,19.13-1.96,20.27,9.41,.59,5.83,.56,11.66,.48,17.48-.16,11.49,.61,22.99-.53,34.47Zm25.08-6.62c.44,4.27,2.61,6.88,5.93,7.1,4.19,.28,6.8-1.94,7.08-6.17,.15-2.17,.18-4.35,.14-6.53-.03-1.36,.24-2.04,1.84-1.99,3.48,.12,6.97,.04,10.45,.04,.87,0,1.75-.19,1.7,1.24-.14,3.74,.1,7.53-.78,11.17-2.3,9.51-10.56,15.19-20.36,14.59-11.92-.74-19.03-8.4-19.57-21.63-.24-5.74-.04-11.49-.04-19.43,.24-4.85-.48-11.9,.48-18.93,1.37-10.04,8.93-16.92,19.09-17.17,10.66-.26,18.27,5.79,20.22,16.03,1.48,7.77,.72,15.62,.96,23.44,.05,1.79-1.11,1.4-2.08,1.4-7.58,.01-15.15,.07-22.73-.03-1.94-.03-2.78,.33-2.67,2.52,.24,4.78-.16,9.58,.33,14.36Z"/><path class="cls-2" d="M123.97,45.26c-.5-5.96-2.15-11.49-6.93-15.5-6.41-5.38-13.75-6.02-21.28-3.11-7.81,3.01-11.2,9.51-11.97,17.47-1.09,11.38-.3,22.79-.47,34.19-.04,3.05,.37,6.06,.96,9.06,1.9,9.72,9.67,16.08,19.61,16.01,10.13-.07,17.84-6.53,19.55-16.39,1.3-7.52,.7-15.11,.87-22.07-.07-6.95,.2-13.31-.34-19.66Zm-14.07,39.29c-.65,4.19-2.78,6.08-6.46,6.01-2.49-.05-4.09-1.33-5-3.49-.78-1.85-1.12-3.82-1.12-5.84,0-11.39,0-22.79,0-34.18,0-1.84,.31-3.63,.95-5.35,1.04-2.83,2.83-4.09,5.65-4.06,2.79,.03,4.55,1.48,5.44,4.02,.81,2.31,1.03,4.74,1.03,7.18,0,5.13,0,10.26,0,16.6-.3,5.57,.56,12.37-.49,19.11Z"/><path class="cls-2" d="M131.2,198.13c0-6.96,0-13.91,0-20.87,0-2.88,1.49-4.44,5.13-5.39,2.72-.71,4.94,.13,6.21,2.46,.83,1.53,1.29,3.2,1.32,4.97,.21,12.52,.22,25.04-.01,37.56-.01,.6-.06,1.22-.21,1.81-.61,2.4-1.38,4.84-4.15,5.48-2.94,.68-5.41-.55-7.6-2.5-.87-.77-.68-1.72-.69-2.65-.01-6.96,0-13.91,0-20.87Z"/><path class="cls-2" d="M188.6,189.21c-.26,0-.52,0-.78,0-6.19,0-6.22,0-6.06-6.29,.06-2.34,.09-4.7,.89-6.94,1.01-2.82,3.27-4.44,6.09-4.41,2.78,.03,4.79,1.52,5.84,4.34,1.5,4.04,.86,8.24,.98,12.39,.03,1.1-.82,.91-1.49,.91-1.83,.02-3.65,0-5.48,0Z"/></g></g></svg>