<svg xmlns="http://www.w3.org/2000/svg" xmlns:xlink="http://www.w3.org/1999/xlink" viewBox="0 0 1988.02 1366.16"><defs><style>.cls-1{fill:#dedede;}.cls-2{isolation:isolate;}.cls-3{clip-path:url(#clip-path);}.cls-4,.cls-59{mix-blend-mode:screen;}.cls-5{fill:url(#linear-gradient);}.cls-6{fill:url(#linear-gradient-2);}.cls-7{fill:url(#linear-gradient-3);}.cls-8{fill:url(#linear-gradient-4);}.cls-9{fill:url(#linear-gradient-5);}.cls-10{fill:url(#linear-gradient-6);}.cls-11{fill:url(#linear-gradient-7);}.cls-12{fill:url(#linear-gradient-8);}.cls-13{fill:url(#linear-gradient-9);}.cls-14{fill:url(#linear-gradient-10);}.cls-15{fill:url(#linear-gradient-11);}.cls-16{fill:url(#linear-gradient-12);}.cls-17{fill:url(#linear-gradient-13);}.cls-18{fill:url(#linear-gradient-14);}.cls-19{fill:url(#linear-gradient-15);}.cls-20{fill:url(#linear-gradient-16);}.cls-21{fill:url(#linear-gradient-17);}.cls-22{fill:url(#linear-gradient-18);}.cls-23{fill:url(#linear-gradient-19);}.cls-24{fill:url(#linear-gradient-20);}.cls-25{fill:url(#linear-gradient-21);}.cls-26{fill:url(#linear-gradient-22);}.cls-27{fill:url(#linear-gradient-23);}.cls-28{fill:url(#linear-gradient-24);}.cls-29{fill:url(#linear-gradient-25);}.cls-30{fill:url(#linear-gradient-26);}.cls-31{fill:url(#linear-gradient-27);}.cls-32{fill:url(#linear-gradient-28);}.cls-33{fill:url(#linear-gradient-29);}.cls-34{fill:url(#linear-gradient-30);}.cls-35{fill:url(#linear-gradient-31);}.cls-36{fill:url(#linear-gradient-32);}.cls-37{fill:url(#linear-gradient-33);}.cls-38{fill:url(#linear-gradient-34);}.cls-39{fill:url(#linear-gradient-35);}.cls-40{fill:url(#linear-gradient-36);}.cls-41{fill:url(#linear-gradient-37);}.cls-42{fill:url(#linear-gradient-38);}.cls-43{fill:url(#linear-gradient-39);}.cls-44{fill:url(#linear-gradient-40);}.cls-45{fill:url(#linear-gradient-41);}.cls-46{fill:url(#linear-gradient-42);}.cls-47{fill:url(#linear-gradient-43);}.cls-48{fill:url(#linear-gradient-44);}.cls-49{fill:url(#linear-gradient-45);}.cls-50{fill:url(#linear-gradient-46);}.cls-51{fill:url(#linear-gradient-47);}.cls-52{fill:url(#linear-gradient-48);}.cls-53{fill:url(#linear-gradient-49);}.cls-54{fill:url(#linear-gradient-50);}.cls-55{fill:url(#linear-gradient-51);}.cls-56{fill:url(#linear-gradient-52);}.cls-57{fill:url(#linear-gradient-53);}.cls-58{fill:url(#linear-gradient-54);}.cls-59{opacity:0.8;fill:url(#linear-gradient-55);}</style><clipPath id="clip-path" transform="translate(22.05 43.3)"><rect class="cls-1" width="1919.25" height="1279.5"/></clipPath><linearGradient id="linear-gradient" x1="2339.71" y1="363.63" x2="1081.66" y2="1621.68" gradientUnits="userSpaceOnUse"><stop offset="0"/><stop offset="0.2" stop-color="#2f2f2f"/><stop offset="0.66" stop-color="#a4a4a4"/><stop offset="1" stop-color="#fff"/></linearGradient><linearGradient id="linear-gradient-2" x1="2311.23" y1="335.14" x2="1053.18" y2="1593.19" xlink:href="#linear-gradient"/><linearGradient id="linear-gradient-3" x1="2282.74" y1="306.66" x2="1024.7" y2="1564.7" xlink:href="#linear-gradient"/><linearGradient id="linear-gradient-4" x1="2254.25" y1="278.17" x2="996.21" y2="1536.22" xlink:href="#linear-gradient"/><linearGradient id="linear-gradient-5" x1="2225.77" y1="249.68" x2="967.72" y2="1507.73" xlink:href="#linear-gradient"/><linearGradient id="linear-gradient-6" x1="2197.28" y1="221.2" x2="939.23" y2="1479.25" xlink:href="#linear-gradient"/><linearGradient id="linear-gradient-7" x1="2168.8" y1="192.71" x2="910.75" y2="1450.77" xlink:href="#linear-gradient"/><linearGradient id="linear-gradient-8" x1="2140.31" y1="164.23" x2="882.27" y2="1422.27" xlink:href="#linear-gradient"/><linearGradient id="linear-gradient-9" x1="2111.83" y1="135.74" x2="853.78" y2="1393.79" xlink:href="#linear-gradient"/><linearGradient id="linear-gradient-10" x1="2083.34" y1="107.26" x2="825.3" y2="1365.3" xlink:href="#linear-gradient"/><linearGradient id="linear-gradient-11" x1="2054.86" y1="78.77" x2="796.81" y2="1336.82" xlink:href="#linear-gradient"/><linearGradient id="linear-gradient-12" x1="2026.37" y1="50.29" x2="768.32" y2="1308.33" xlink:href="#linear-gradient"/><linearGradient id="linear-gradient-13" x1="1997.88" y1="21.8" x2="739.84" y2="1279.85" xlink:href="#linear-gradient"/><linearGradient id="linear-gradient-14" x1="1969.4" y1="-6.68" x2="711.35" y2="1251.36" xlink:href="#linear-gradient"/><linearGradient id="linear-gradient-15" x1="1940.91" y1="-35.17" x2="682.87" y2="1222.88" xlink:href="#linear-gradient"/><linearGradient id="linear-gradient-16" x1="1912.43" y1="-63.66" x2="654.38" y2="1194.39" xlink:href="#linear-gradient"/><linearGradient id="linear-gradient-17" x1="1883.94" y1="-92.14" x2="625.9" y2="1165.9" xlink:href="#linear-gradient"/><linearGradient id="linear-gradient-18" x1="1855.46" y1="-120.63" x2="597.41" y2="1137.42" xlink:href="#linear-gradient"/><linearGradient id="linear-gradient-19" x1="1625.93" y1="-1232.82" x2="938.93" y2="-1919.82" gradientTransform="translate(-608.83 -861.07) rotate(90)" xlink:href="#linear-gradient"/><linearGradient id="linear-gradient-20" x1="1597.45" y1="-1204.33" x2="910.45" y2="-1891.34" gradientTransform="translate(-608.83 -861.07) rotate(90)" xlink:href="#linear-gradient"/><linearGradient id="linear-gradient-21" x1="1568.96" y1="-1175.85" x2="881.96" y2="-1862.85" gradientTransform="translate(-608.83 -861.07) rotate(90)" xlink:href="#linear-gradient"/><linearGradient id="linear-gradient-22" x1="1540.48" y1="-1147.36" x2="853.47" y2="-1834.37" gradientTransform="translate(-608.83 -861.07) rotate(90)" xlink:href="#linear-gradient"/><linearGradient id="linear-gradient-23" x1="1511.99" y1="-1118.88" x2="824.99" y2="-1805.88" gradientTransform="translate(-608.83 -861.07) rotate(90)" xlink:href="#linear-gradient"/><linearGradient id="linear-gradient-24" x1="1483.51" y1="-1090.39" x2="796.5" y2="-1777.4" gradientTransform="translate(-608.83 -861.07) rotate(90)" xlink:href="#linear-gradient"/><linearGradient id="linear-gradient-25" x1="1455.02" y1="-1061.91" x2="768.01" y2="-1748.91" gradientTransform="translate(-608.83 -861.07) rotate(90)" xlink:href="#linear-gradient"/><linearGradient id="linear-gradient-26" x1="1426.53" y1="-1033.42" x2="739.53" y2="-1720.43" gradientTransform="translate(-608.83 -861.07) rotate(90)" xlink:href="#linear-gradient"/><linearGradient id="linear-gradient-27" x1="1398.05" y1="-1004.94" x2="711.04" y2="-1691.94" gradientTransform="translate(-608.83 -861.07) rotate(90)" xlink:href="#linear-gradient"/><linearGradient id="linear-gradient-28" x1="1369.56" y1="-976.45" x2="682.56" y2="-1663.45" gradientTransform="translate(-608.83 -861.07) rotate(90)" xlink:href="#linear-gradient"/><linearGradient id="linear-gradient-29" x1="1341.08" y1="-947.96" x2="654.07" y2="-1634.97" gradientTransform="translate(-608.83 -861.07) rotate(90)" xlink:href="#linear-gradient"/><linearGradient id="linear-gradient-30" x1="1312.59" y1="-919.48" x2="625.59" y2="-1606.48" gradientTransform="translate(-608.83 -861.07) rotate(90)" xlink:href="#linear-gradient"/><linearGradient id="linear-gradient-31" x1="1284.11" y1="-890.99" x2="597.1" y2="-1578" gradientTransform="translate(-608.83 -861.07) rotate(90)" xlink:href="#linear-gradient"/><linearGradient id="linear-gradient-32" x1="1255.62" y1="-862.51" x2="568.62" y2="-1549.51" gradientTransform="translate(-608.83 -861.07) rotate(90)" xlink:href="#linear-gradient"/><linearGradient id="linear-gradient-33" x1="1227.14" y1="-834.02" x2="540.13" y2="-1521.03" gradientTransform="translate(-608.83 -861.07) rotate(90)" xlink:href="#linear-gradient"/><linearGradient id="linear-gradient-34" x1="1198.65" y1="-805.54" x2="511.65" y2="-1492.54" gradientTransform="translate(-608.83 -861.07) rotate(90)" xlink:href="#linear-gradient"/><linearGradient id="linear-gradient-35" x1="1170.16" y1="-777.05" x2="483.16" y2="-1464.06" gradientTransform="translate(-608.83 -861.07) rotate(90)" xlink:href="#linear-gradient"/><linearGradient id="linear-gradient-36" x1="1141.68" y1="-748.56" x2="454.67" y2="-1435.57" gradientTransform="translate(-608.83 -861.07) rotate(90)" xlink:href="#linear-gradient"/><linearGradient id="linear-gradient-37" x1="980.34" y1="941.09" x2="293.33" y2="254.08" xlink:href="#linear-gradient"/><linearGradient id="linear-gradient-38" x1="951.85" y1="969.57" x2="264.85" y2="282.57" xlink:href="#linear-gradient"/><linearGradient id="linear-gradient-39" x1="923.36" y1="998.06" x2="236.36" y2="311.05" xlink:href="#linear-gradient"/><linearGradient id="linear-gradient-40" x1="894.88" y1="1026.54" x2="207.87" y2="339.54" xlink:href="#linear-gradient"/><linearGradient id="linear-gradient-41" x1="866.39" y1="1055.03" x2="179.39" y2="368.02" xlink:href="#linear-gradient"/><linearGradient id="linear-gradient-42" x1="837.91" y1="1083.51" x2="150.9" y2="396.51" xlink:href="#linear-gradient"/><linearGradient id="linear-gradient-43" x1="809.42" y1="1112" x2="122.42" y2="424.99" xlink:href="#linear-gradient"/><linearGradient id="linear-gradient-44" x1="780.94" y1="1140.49" x2="93.42" y2="452.97" xlink:href="#linear-gradient"/><linearGradient id="linear-gradient-45" x1="752.45" y1="1168.97" x2="65.44" y2="481.96" xlink:href="#linear-gradient"/><linearGradient id="linear-gradient-46" x1="723.97" y1="1197.46" x2="36.96" y2="510.45" xlink:href="#linear-gradient"/><linearGradient id="linear-gradient-47" x1="695.48" y1="1225.94" x2="8.48" y2="538.94" xlink:href="#linear-gradient"/><linearGradient id="linear-gradient-48" x1="666.99" y1="1254.43" x2="-20.01" y2="567.42" xlink:href="#linear-gradient"/><linearGradient id="linear-gradient-49" x1="638.51" y1="1282.91" x2="-48.49" y2="595.91" xlink:href="#linear-gradient"/><linearGradient id="linear-gradient-50" x1="610.02" y1="1311.4" x2="-76.98" y2="624.39" xlink:href="#linear-gradient"/><linearGradient id="linear-gradient-51" x1="581.54" y1="1339.89" x2="-105.47" y2="652.88" xlink:href="#linear-gradient"/><linearGradient id="linear-gradient-52" x1="553.05" y1="1368.37" x2="-133.95" y2="681.37" xlink:href="#linear-gradient"/><linearGradient id="linear-gradient-53" x1="524.57" y1="1396.86" x2="-162.44" y2="709.85" xlink:href="#linear-gradient"/><linearGradient id="linear-gradient-54" x1="496.08" y1="1425.34" x2="-190.93" y2="738.33" xlink:href="#linear-gradient"/><linearGradient id="linear-gradient-55" x1="1980.23" y1="-1065.04" x2="357.83" y2="-2687.44" gradientTransform="translate(-12.98 2706.2)" gradientUnits="userSpaceOnUse"><stop offset="0"/><stop offset="0.21" stop-color="#2f2f2f"/><stop offset="0.67" stop-color="#a4a4a4"/><stop offset="1" stop-color="#fbfbfb"/></linearGradient></defs><g class="cls-2"><g id="Layer_2" data-name="Layer 2"><g id="Layer_1-2" data-name="Layer 1"><rect class="cls-1" x="22.05" y="43.3" width="1919.25" height="1279.5"/><g class="cls-3"><g class="cls-4"><polygon class="cls-5" points="1967.03 733.17 1354.13 1346.07 1360.41 1346.07 1967.03 739.45 1967.03 733.17"/><polygon class="cls-6" points="1967.03 676.2 1297.15 1346.07 1303.44 1346.07 1967.03 682.48 1967.03 676.2"/><polygon class="cls-7" points="1967.03 619.22 1240.18 1346.07 1246.46 1346.07 1967.03 625.51 1967.03 619.22"/><polygon class="cls-8" points="1967.03 562.25 1183.21 1346.07 1189.49 1346.07 1967.03 568.54 1967.03 562.25"/><polygon class="cls-9" points="1967.03 505.28 1126.24 1346.07 1132.52 1346.07 1967.03 511.56 1967.03 505.28"/><polygon class="cls-10" points="1967.03 448.31 1069.27 1346.07 1075.55 1346.07 1967.03 454.59 1967.03 448.31"/><polygon class="cls-11" points="1967.03 391.34 1012.3 1346.07 1018.58 1346.07 1967.03 397.62 1967.03 391.34"/><polygon class="cls-12" points="1967.03 334.37 955.33 1346.07 961.61 1346.07 1967.03 340.65 1967.03 334.37"/><polygon class="cls-13" points="1967.03 277.4 898.36 1346.07 904.64 1346.07 1967.03 283.68 1967.03 277.4"/><polygon class="cls-14" points="1967.03 220.43 841.38 1346.07 847.67 1346.07 1967.03 226.71 1967.03 220.43"/><polygon class="cls-15" points="1967.03 163.46 784.41 1346.07 790.7 1346.07 1967.03 169.74 1967.03 163.46"/><polygon class="cls-16" points="1967.03 106.48 727.44 1346.07 733.72 1346.07 1967.03 112.77 1967.03 106.48"/><polygon class="cls-17" points="1967.03 49.51 670.47 1346.07 676.75 1346.07 1967.03 55.8 1967.03 49.51"/><polygon class="cls-18" points="619.78 1346.07 1965.85 0 1959.57 0 613.5 1346.07 619.78 1346.07"/><polygon class="cls-19" points="562.81 1346.07 1908.88 0 1902.6 0 556.53 1346.07 562.81 1346.07"/><polygon class="cls-20" points="505.84 1346.07 1851.91 0 1845.63 0 499.56 1346.07 505.84 1346.07"/><polygon class="cls-21" points="448.87 1346.07 1794.94 0 1788.66 0 442.59 1346.07 448.87 1346.07"/><polygon class="cls-22" points="391.9 1346.07 1737.97 0 1731.69 0 385.62 1346.07 391.9 1346.07"/></g><g class="cls-4"><polygon class="cls-23" points="1385.71 0 716.18 669.53 719.32 672.67 1391.99 0 1385.71 0"/><polygon class="cls-24" points="1328.74 0 687.7 641.04 690.84 644.18 1335.03 0 1328.74 0"/><polygon class="cls-25" points="1271.77 0 659.21 612.56 662.35 615.7 1278.05 0 1271.77 0"/><polygon class="cls-26" points="1214.8 0 630.73 584.07 633.87 587.21 1221.08 0 1214.8 0"/><polygon class="cls-27" points="1157.83 0 602.24 555.59 605.38 558.73 1164.11 0 1157.83 0"/><polygon class="cls-28" points="1100.86 0 573.76 527.1 576.9 530.24 1107.14 0 1100.86 0"/><polygon class="cls-29" points="1043.89 0 545.27 498.62 548.41 501.76 1050.17 0 1043.89 0"/><polygon class="cls-30" points="986.91 0 516.78 470.13 519.92 473.27 993.2 0 986.91 0"/><polygon class="cls-31" points="929.94 0 488.3 441.64 491.44 444.79 936.23 0 929.94 0"/><polygon class="cls-32" points="872.97 0 459.81 413.16 462.95 416.3 879.25 0 872.97 0"/><polygon class="cls-33" points="816 0 431.33 384.67 434.47 387.81 822.28 0 816 0"/><polygon class="cls-34" points="759.03 0 402.84 356.19 405.98 359.33 765.31 0 759.03 0"/><polygon class="cls-35" points="702.06 0 374.36 327.7 377.5 330.84 708.34 0 702.06 0"/><polygon class="cls-36" points="645.09 0 345.87 299.22 349.01 302.36 651.37 0 645.09 0"/><polygon class="cls-37" points="588.12 0 317.38 270.73 320.53 273.87 594.4 0 588.12 0"/><polygon class="cls-38" points="531.15 0 288.9 242.25 292.04 245.39 537.43 0 531.15 0"/><polygon class="cls-39" points="474.17 0 260.41 213.76 263.55 216.9 480.46 0 474.17 0"/><polygon class="cls-40" points="417.2 0 231.93 185.27 235.07 188.41 423.48 0 417.2 0"/></g><g class="cls-4"><polygon class="cls-41" points="36.11 0 885 848.9 888.15 845.76 42.39 0 36.11 0"/><polygon class="cls-42" points="1.23 15.81 1.23 22.09 856.52 877.38 859.66 874.24 1.23 15.81"/><polygon class="cls-43" points="1.23 72.78 1.23 79.06 828.03 905.87 831.18 902.73 1.23 72.78"/><polygon class="cls-44" points="1.23 129.75 1.23 136.04 799.55 934.35 802.69 931.21 1.23 129.75"/><polygon class="cls-45" points="1.23 186.72 1.23 193.01 771.06 962.84 774.2 959.7 1.23 186.72"/><polygon class="cls-46" points="1.23 243.69 1.23 249.98 742.58 991.33 745.72 988.18 1.23 243.69"/><polygon class="cls-47" points="1.23 300.67 1.23 306.95 714.09 1019.81 717.23 1016.67 1.23 300.67"/><polygon class="cls-48" points="1.23 357.64 1.23 363.92 685.61 1048.3 688.75 1045.16 1.23 357.64"/><polygon class="cls-49" points="1.23 414.61 1.23 420.89 657.12 1076.78 660.26 1073.64 1.23 414.61"/><polygon class="cls-50" points="1.23 471.58 1.23 477.86 628.64 1105.27 631.78 1102.13 1.23 471.58"/><polygon class="cls-51" points="1.23 528.55 1.23 534.84 600.15 1133.75 603.29 1130.61 1.23 528.55"/><polygon class="cls-52" points="1.23 585.52 1.23 591.8 571.66 1162.24 574.8 1159.1 1.23 585.52"/><polygon class="cls-53" points="1.23 642.49 1.23 648.77 543.18 1190.72 546.32 1187.58 1.23 642.49"/><polygon class="cls-54" points="1.23 699.47 1.23 705.75 514.69 1219.21 517.84 1216.07 1.23 699.47"/><polygon class="cls-55" points="1.23 756.44 1.23 762.72 486.21 1247.7 489.35 1244.56 1.23 756.44"/><polygon class="cls-56" points="1.23 813.41 1.23 819.69 457.72 1276.18 460.86 1273.04 1.23 813.41"/><polygon class="cls-57" points="1.23 870.38 1.23 876.66 429.24 1304.67 432.38 1301.53 1.23 870.38"/><polygon class="cls-58" points="1.23 927.35 1.23 933.63 400.75 1333.15 403.89 1330.01 1.23 927.35"/></g><rect class="cls-59" x="-22.05" y="-31.12" width="1988.02" height="1353.97" transform="translate(1965.97 1335.04) rotate(180)"/></g></g></g></g></svg>