<svg id="Layer_3" data-name="Layer 3" xmlns="http://www.w3.org/2000/svg" viewBox="0 0 75 75"><defs><style>.cls-1,.cls-4{fill:none;stroke:#0068da;stroke-miterlimit:10;stroke-width:2px;}.cls-1{stroke-linecap:round;}.cls-2,.cls-3{fill:#0068da;}.cls-3{opacity:0.1;isolation:isolate;}</style></defs><title>Alerts</title><g id="Layer_2" data-name="Layer 2"><path id="Ellipse_757_copy_2" data-name="Ellipse 757 copy 2" class="cls-1" d="M64.22,60.28A35.23,35.23,0,0,1,4.34,25.48"/><path id="Ellipse_757_copy_2-2" data-name="Ellipse 757 copy 2-2" class="cls-1" d="M10.78,14.38A35.25,35.25,0,0,1,70.66,49.27"/><circle class="cls-2" cx="7.11" cy="19.53" r="1.49"/><circle id="Ellipse_784_copy" data-name="Ellipse 784 copy" class="cls-2" cx="67.89" cy="55.02" r="1.49"/><path class="cls-3" d="M37.45,14.08a23.3,23.3,0,1,0,23.3,23.3A23.34,23.34,0,0,0,37.45,14.08ZM26.05,46.8l.59-1.89,2.19-5,.09-3,.4-5.05,1.49-3.57,4.06-2.68,1.69-3,2.18.49.2,2.48,3.27,1.19,2.77,3,.9,3.57v6.74l1.88,3.28.89,2.47-1.09.5-6.44.1-1.59,2.68-2.28,1.38L34.48,46.6Z"/><g id="bell"><path class="cls-4" d="M49,46.3v-.2l-2.48-5.35a2.36,2.36,0,0,1-.3-1.19V34.4a8.9,8.9,0,0,0-6.84-8.72,11.87,11.87,0,0,0-1.88-.2,7.62,7.62,0,0,0-1.49.2,8.73,8.73,0,0,0-6.84,8.72v4.76a6,6,0,0,1-.59,1.89l-2.48,5a.52.52,0,0,0,.3.7h22.1C48.45,46.8,49,46.8,49,46.3Z"/><path class="cls-4" d="M37.45,49.77a2.9,2.9,0,0,0,2.88-3H34.58a2.84,2.84,0,0,0,2.87,3Z"/><circle class="cls-4" cx="37.45" cy="23.99" r="1.39"/></g></g></svg>