<svg id="Layer_3" data-name="Layer 3" xmlns="http://www.w3.org/2000/svg" viewBox="0 0 75 75"><defs><style>.cls-1{fill:#0068da;opacity:0.2;isolation:isolate;}.cls-2,.cls-3{fill:none;stroke:#0068da;stroke-miterlimit:10;stroke-width:2px;}.cls-3{stroke-linecap:round;}</style></defs><title>Automatically reduce exposure_blue</title><g id="Layer_2" data-name="Layer 2"><polygon class="cls-1" points="28.7 43.09 29.26 36.98 30.7 34.97 40.73 35.18 46.11 36.24 47.06 43.41 45.81 48.99 31.13 49.13 29.05 47.63 28.7 43.09"/><path class="cls-2" d="M43.86,35.11v-3A6.18,6.18,0,0,0,38.6,25.9a6,6,0,0,0-6.69,5.21,6.13,6.13,0,0,0-.05.74v3.22a3,3,0,0,0-3,3V46a3,3,0,0,0,3,3H43.8a3.07,3.07,0,0,0,3.05-3.05V38.15a3,3,0,0,0-3-3Z"/><line class="cls-2" x1="31.86" y1="35.13" x2="43.86" y2="35.13"/><polyline class="cls-3" points="45.8 73.87 41.73 70.07 45.59 66.04"/><polyline class="cls-3" points="29.55 9.33 33.62 5.53 29.76 1.5"/><path class="cls-3" d="M43.37,5.37a33.09,33.09,0,0,1-.16,65.29"/><path class="cls-3" d="M32.85,70.71a33.09,33.09,0,0,1,0-65.42"/></g></svg>