<svg width="75" height="75" viewBox="0 0 75 75" fill="none" xmlns="http://www.w3.org/2000/svg">
<path d="M30.25 70.79C43.908 70.79 54.98 59.718 54.98 46.06C54.98 32.402 43.908 21.33 30.25 21.33C16.592 21.33 5.51999 32.402 5.51999 46.06C5.51999 59.718 16.592 70.79 30.25 70.79Z" stroke="#0068DA" stroke-width="2" stroke-miterlimit="10" stroke-linecap="round"/>
<path opacity="0.2" d="M30.25 56.52C36.0269 56.52 40.71 51.8369 40.71 46.06C40.71 40.2831 36.0269 35.6 30.25 35.6C24.4731 35.6 19.79 40.2831 19.79 46.06C19.79 51.8369 24.4731 56.52 30.25 56.52Z" fill="#0068DA"/>
<path d="M30.25 56.52C36.0269 56.52 40.71 51.8369 40.71 46.06C40.71 40.2831 36.0269 35.6 30.25 35.6C24.4731 35.6 19.79 40.2831 19.79 46.06C19.79 51.8369 24.4731 56.52 30.25 56.52Z" stroke="#0068DA" stroke-width="2" stroke-miterlimit="10" stroke-linecap="round"/>
<path d="M58.47 15.78L29.78 46.06" stroke="#0068DA" stroke-width="2" stroke-miterlimit="10" stroke-linecap="round"/>
<path d="M52.77 10.07V21.17" stroke="#0068DA" stroke-width="2" stroke-miterlimit="10" stroke-linecap="round"/>
<path d="M58.47 4.21001V15.31" stroke="#0068DA" stroke-width="2" stroke-miterlimit="10" stroke-linecap="round"/>
<path d="M58.95 15.78H70.05" stroke="#0068DA" stroke-width="2" stroke-miterlimit="10" stroke-linecap="round"/>
<path d="M53.08 21.49H64.18" stroke="#0068DA" stroke-width="2" stroke-miterlimit="10" stroke-linecap="round"/>
</svg>
