<?xml version="1.0" encoding="UTF-8"?>
<svg id="Layer_2" data-name="Layer 2" xmlns="http://www.w3.org/2000/svg" viewBox="0 0 1111.31 233.43">
  <defs>
    <style>
      .cls-1 {
        fill: #ed1c24;
      }
    </style>
  </defs>
  <g id="Layer_1-2" data-name="Layer 1">
    <path class="cls-1" d="m463.12,49.08h43.61c.65,7.12,1.73,13.79,1.8,20.47.24,24.45.14,48.9.2,73.35.01,4.78-.22,9.61.31,14.34,2.04,18.26,15.51,30.57,32.99,30.49,17.45-.09,32.31-12.28,34.41-29.43,1.22-9.97.88-20.16.91-30.25.07-22.32-.13-44.65-.09-66.97,0-3.57.71-7.14,1.2-11.69h42.01c.65,10.96,1.69,21.37,1.81,31.78.3,24.98-.32,49.98.4,74.94.49,17.11,11.31,28.67,26.79,30.95,16.22,2.38,32.31-5.62,37.93-20.19,2.4-6.23,2.91-13.47,2.99-20.26.32-26.57.13-53.15.12-79.73,0-5.2,0-10.39,0-17.07h42.35c.68,5.2,1.98,10.74,2.03,16.29.26,29.76.67,59.54.17,89.29-.81,48.05-41.78,81.39-85.14,77.33-13.05-1.22-25.6-9.11-38.07-14.62-4.67-2.07-8.49-6.07-13.15-9.53-6.66,4.82-12.4,9.41-18.56,13.35-46.35,29.65-108.64-2-113.35-50.39-3.89-39.89-2.6-80.28-3.66-122.45Z"/>
    <path class="cls-1" d="m349.92,118.91c-39.38,17.07-79.56,34.48-119.9,51.97,16.16,27.68,44.81,27.41,73.97.63h43.1c-.66,13.65-6.92,23.97-15.43,32.49-34.04,34.08-79.58,40.64-120.87,8.71-32.22-24.91-42.8-59.49-33.45-98.29,9.47-39.34,36.03-63.4,76.31-69.9,45.75-7.38,93.11,28.31,96.28,74.4Zm-131.42,15.65c27.69-11.87,53.06-22.75,79.08-33.9-11.96-15.44-29.33-20.2-47.03-14.63-19.42,6.11-31.65,22.87-32.05,48.53Z"/>
    <path class="cls-1" d="m928.73,225.53c21.87-31.84,41.87-60.96,62.65-91.2-19.67-28.38-38.91-56.14-59.64-86.04h55.06c9.43,13.84,20.01,29.37,32.23,47.3,11.95-17.28,22.39-32.37,33.03-47.76h53.42c-20.19,29.34-38.6,56.1-58.14,84.49,20.79,30.45,41.53,60.82,63.97,93.68h-55.77c-11.62-16.85-23.31-33.79-36.81-53.35-13.28,19.41-25.31,36.97-36.2,52.88h-53.81Z"/>
    <path class="cls-1" d="m155.9,225.85h-42.16c0-6.71,0-11.83,0-16.96,0-24.97.04-49.94-.02-74.92-.01-5.3-.05-10.66-.73-15.9-2.42-18.6-15.5-30.4-33.1-30.23-19.15.18-34.08,13.36-34.59,32.54-.77,29.2-.22,58.44-.36,87.66-.03,5.66-.63,11.31-1.03,17.96H.07c0-10.77,0-20.17,0-29.56,0-24.97.3-49.95-.07-74.92C-.54,84.91,25.52,46.9,74.66,43.55c43.88-2.99,79.13,24.63,82.47,68.66,2.73,35.91.83,72.18.87,108.29,0,1.45-1.11,2.9-2.11,5.35Z"/>
    <path class="cls-1" d="m444.85,225.42c-32.51,6.41-61.23-9.31-71.37-38.78-3.24-9.41-5.49-19.66-5.62-29.56-.62-48.36-.38-96.73-.36-145.09,0-2.56.76-5.11,1.36-8.9h41.91c.86,13.84,1.72,27.79,2.67,43.15,9.53,1.13,18.3,2.17,29.04,3.44v36.75c-9.18,1-18.41,2.01-30.08,3.28,0,8.61,0,16.37,0,24.13,0,10.63-.04,21.26-.01,31.89.06,28.9,3.4,33.47,32.48,42.66v37.04Z"/>
    <path class="cls-1" d="m846.82,46.4v38.62c-4.43.65-7.97,1.35-11.55,1.68-22.49,2.03-34.39,14.05-35.01,37.44-.7,26.54-.25,53.11-.29,79.66-.01,6.79,0,13.57,0,22h-41.57c-1.27-2.64-2.54-4.04-2.54-5.44-.08-35.57-1.79-71.25.42-106.69,2.98-47.75,44.66-78.57,90.54-67.26Z"/>
    <path class="cls-1" d="m911.52,225.82h-42.36V44.67h42.36v181.15Z"/>
    <path class="cls-1" d="m910.81,0c.73,10.61,1.39,20.3,2.18,31.83h-43.76V0h41.58Z"/>
  </g>
</svg>