<svg width="86" height="86" viewBox="0 0 86 86" fill="none" xmlns="http://www.w3.org/2000/svg">
<g clip-path="url(#clip0_32_78)">
<path d="M36.2 68.3H65.8" stroke="#0068DA" stroke-width="2" stroke-miterlimit="10" stroke-linecap="round"/>
<path d="M36.2 76.3H65.8" stroke="#0068DA" stroke-width="2" stroke-miterlimit="10" stroke-linecap="round"/>
<path d="M36.2 84.4H65.8" stroke="#0068DA" stroke-width="2" stroke-miterlimit="10" stroke-linecap="round"/>
<path opacity="0.35" d="M50.0999 32.4L32.7 23.1L50.0999 13.8L67.4 23.1L50.0999 32.4Z" fill="#0068DA"/>
<path d="M50.0999 32.4L39 26.5L32.7 29.8L50.0999 39.1L67.4 29.8L61.2 26.5L50.0999 32.4Z" fill="#0068DA"/>
<path opacity="0.35" d="M50.0999 39.1L39 33.1L32.7 36.5L50.0999 45.8L67.4 36.5L61.2 33.1L50.0999 39.1Z" fill="#0068DA"/>
<path d="M29.9 69.4C30.5076 69.4 31 68.9075 31 68.3C31 67.6925 30.5076 67.2 29.9 67.2C29.2925 67.2 28.8 67.6925 28.8 68.3C28.8 68.9075 29.2925 69.4 29.9 69.4Z" fill="#0068DA"/>
<path d="M29.9 77.4C30.5076 77.4 31 76.9075 31 76.3C31 75.6925 30.5076 75.2 29.9 75.2C29.2925 75.2 28.8 75.6925 28.8 76.3C28.8 76.9075 29.2925 77.4 29.9 77.4Z" fill="#0068DA"/>
<path d="M29.9 85.5C30.5076 85.5 31 85.0075 31 84.4C31 83.7925 30.5076 83.3 29.9 83.3C29.2925 83.3 28.8 83.7925 28.8 84.4C28.8 85.0075 29.2925 85.5 29.9 85.5Z" fill="#0068DA"/>
<path d="M26 45.8C24.3 47.5 6.1 65.7 6.1 65.7C4.3 67.5 4.3 70.4 6.1 72.2C7.9 74 10.8 74 12.6 72.2C12.6 72.2 30.2 54.6 32.4 52.4" fill="#0068DA"/>
<path d="M50.1 57.6C65.6745 57.6 78.3 44.9744 78.3 29.4C78.3 13.8256 65.6745 1.2 50.1 1.2C34.5256 1.2 21.9 13.8256 21.9 29.4C21.9 44.9744 34.5256 57.6 50.1 57.6Z" stroke="#0068DA" stroke-width="2" stroke-miterlimit="10"/>
</g>
<defs>
<clipPath id="clip0_32_78">
<rect width="85.5" height="85.5" fill="white"/>
</clipPath>
</defs>
</svg>
