<?xml version="1.0" encoding="utf-8"?>
<!-- Generator: Adobe Illustrator 24.0.1, SVG Export Plug-In . SVG Version: 6.00 Build 0)  -->
<svg version="1.1" id="Layer_3" xmlns="http://www.w3.org/2000/svg" xmlns:xlink="http://www.w3.org/1999/xlink" x="0px" y="0px"
	 viewBox="0 0 75 75" style="enable-background:new 0 0 75 75;" xml:space="preserve">
<style type="text/css">
	.st0{opacity:0.2;fill:#0068DA;enable-background:new    ;}
	.st1{fill:none;stroke:#0068DA;stroke-width:2;stroke-linecap:round;stroke-linejoin:round;}
	.st2{fill:none;stroke:#0068DA;stroke-width:2.02;stroke-miterlimit:10;}
</style>
<title>webinar_blue</title>
<circle class="st0" cx="37.5" cy="37.5" r="14.5"/>
<path class="st1" d="M44.8,33.7l-6.9,6.9L36.5,42c-0.2,0.2-0.4,0.3-0.6,0.3c-0.2,0-0.5-0.1-0.6-0.3L34,40.7l-3.4-3.4"/>
<path class="st2" d="M57.4,64.5l-6.9-0.9c-0.4,0-0.7,0.1-0.9,0.4l-3.5,6c-0.3,0.4-0.8,0.6-1.3,0.3l-5.9-3.6c-0.3-0.2-0.7-0.2-1,0
	l-5.7,4c-0.4,0.3-1,0.2-1.3-0.2L27,64.8c-0.2-0.3-0.6-0.4-0.9-0.4l-6.8,1.4c-0.5,0.1-1-0.2-1.1-0.7l-1.3-6.8
	c-0.1-0.4-0.3-0.6-0.7-0.7L9.4,56c-0.5-0.1-0.8-0.6-0.7-1.1l1.6-6.8c0.1-0.4,0-0.7-0.3-0.9L4.4,43c-0.4-0.3-0.5-0.9-0.2-1.3l4.2-5.5
	c0.2-0.3,0.2-0.7,0.1-1l-3.4-6.1c-0.2-0.4-0.1-1,0.4-1.2l6.1-3.3c0.3-0.2,0.5-0.5,0.5-0.9l-0.7-6.9c0-0.5,0.3-1,0.8-1l6.9-0.5
	c0.4,0,0.7-0.3,0.8-0.6L22.2,8c0.2-0.5,0.7-0.7,1.2-0.6l6.6,2.3c0.3,0.1,0.7,0,1-0.2l4.7-5.1c0.3-0.4,0.9-0.4,1.3,0l5,4.8
	c0.3,0.3,0.7,0.3,1,0.2l6.4-2.8c0.5-0.2,1,0,1.2,0.5l2.7,6.4c0.1,0.3,0.5,0.6,0.8,0.6l7,0.1c0.5,0,0.9,0.4,0.9,0.9l-0.2,7
	c0,0.4,0.2,0.7,0.5,0.9l6.3,2.9c0.5,0.2,0.7,0.8,0.4,1.2l-3,6.3c-0.2,0.3-0.1,0.7,0.1,1l4.6,5.2c0.3,0.4,0.3,1-0.1,1.3l-5.3,4.5
	c-0.3,0.2-0.4,0.6-0.3,1l2.1,6.6c0.2,0.5-0.1,1-0.6,1.1l-6.7,2c-0.3,0.1-0.6,0.4-0.6,0.8l-0.8,6.9C58.4,64.2,57.9,64.5,57.4,64.5z"
	/>
</svg>
