<svg id="Layer_3" data-name="Layer 3" xmlns="http://www.w3.org/2000/svg" viewBox="0 0 75 75"><defs><style>.cls-1,.cls-3{fill:none;}.cls-1,.cls-3,.cls-5{stroke:#0068da;}.cls-1,.cls-5{stroke-miterlimit:10;stroke-width:2px;}.cls-2,.cls-5{fill:#0068da;}.cls-2{opacity:0.15;}.cls-3{stroke-linecap:round;stroke-linejoin:round;stroke-width:2.03px;}.cls-4{fill:#fff;}.cls-5{fill-opacity:0.2;}</style></defs><title>prove compliance copy</title><g id="Layer_2" data-name="Layer 2"><path class="cls-1" d="M65,18.08v50a3.1,3.1,0,0,1-3.11,3.1H13.27A3.28,3.28,0,0,1,10,67.92V6.61a3.1,3.1,0,0,1,3.11-3.1h37Z"/><ellipse class="cls-2" cx="37.02" cy="39.66" rx="14.8" ry="14.71"/><path class="cls-3" d="M44.07,35.4l-7,7-1.31,1.31a1,1,0,0,1-.66.26.92.92,0,0,1-.65-.26l-1.32-1.31-3.49-3.47"/><path class="cls-4" d="M54.65,3.19l0,0-.09,0Z"/><path class="cls-5" d="M50.08,3.51V15.58a2.47,2.47,0,0,0,2.62,2.76H65m-3.68-4.88"/></g></svg>