<?xml version="1.0" encoding="utf-8"?>
<!-- Generator: Adobe Illustrator 24.0.1, SVG Export Plug-In . SVG Version: 6.00 Build 0)  -->
<svg version="1.1" id="Layer_3" xmlns="http://www.w3.org/2000/svg" xmlns:xlink="http://www.w3.org/1999/xlink" x="0px" y="0px"
	 viewBox="0 0 75 75" style="enable-background:new 0 0 75 75;" xml:space="preserve">
<style type="text/css">
	.st0{opacity:0.2;fill:#0068DA;enable-background:new    ;}
	.st1{fill:none;stroke:#0068DA;stroke-width:2;stroke-linecap:round;stroke-miterlimit:10;}
	.st2{fill:#0068DA;}
</style>
<path id="Rectangle-path_31_2_" class="st0" d="M21.8,24.8c0-2.9,2.3-5.2,5.2-5.2h21c2.9,0,5.2,2.3,5.2,5.2v14.7
	c0,2.9-2.3,5.2-5.2,5.2H27c-2.9,0-5.2-2.3-5.2-5.2V24.8z"/>
<title>webinar_blue</title>
<g id="Interface-Essential__x2F__Password__x2F__password-desktop">
	<g id="Group_103">
		<g id="password-desktop">
			<path id="Rectangle-path_32" class="st1" d="M13.9,54.4c0-1.1,1-2.2,2.2-2.2h43c1.1,0,2.2,1,2.2,2.2v12.2c0,1.1-1,2.2-2.2,2.2H16
				c-1.1,0-2.2-1-2.2-2.2C13.9,66.5,13.9,54.4,13.9,54.4z"/>
			<g>
				<path id="Shape_526" class="st1" d="M26.8,59.4c-0.6,0-1,0.5-1,1s0.5,1,1,1c0.6,0,1-0.5,1-1c0-0.3-0.1-0.5-0.3-0.8
					C27.3,59.4,27,59.4,26.8,59.4L26.8,59.4"/>
				<path id="Shape_527" class="st1" d="M37.4,59.4c-0.6,0-1,0.5-1,1s0.5,1,1,1c0.6,0,1-0.5,1-1c0-0.3-0.1-0.5-0.3-0.8
					C38.1,59.4,37.8,59.4,37.4,59.4L37.4,59.4"/>
				<path id="Shape_528" class="st1" d="M47.2,60.4h4.3"/>
			</g>
		</g>
	</g>
</g>
<path id="Rectangle-path_31_1_" class="st1" d="M21.8,24.8c0-2.9,2.3-5.2,5.2-5.2h21c2.9,0,5.2,2.3,5.2,5.2v14.7
	c0,2.9-2.3,5.2-5.2,5.2H27c-2.9,0-5.2-2.3-5.2-5.2V24.8z"/>
<path id="Shape_524_1_" class="st1" d="M27,19.4v-5c0-5.6,4.7-10.1,10.5-10.1l0,0C43.3,4.4,48,8.9,48,14.5v5"/>
<path id="Shape_525_1_" class="st2" d="M37.5,30.2c-1,0-1.9,0.9-1.9,1.9c0,1.1,0.9,1.9,1.9,1.9s1.9-0.9,1.9-1.9
	c0-0.6-0.2-0.9-0.5-1.3C38.5,30.4,38,30.2,37.5,30.2L37.5,30.2"/>
</svg>
