<?xml version="1.0" encoding="utf-8"?>
<!-- Generator: Adobe Illustrator 24.0.1, SVG Export Plug-In . SVG Version: 6.00 Build 0)  -->
<svg version="1.1" id="Layer_1" xmlns="http://www.w3.org/2000/svg" xmlns:xlink="http://www.w3.org/1999/xlink" x="0px" y="0px"
	 viewBox="0 0 75 75" style="enable-background:new 0 0 75 75;" xml:space="preserve">
<style type="text/css">
	.st0{fill:none;stroke:#0068DA;stroke-width:2;stroke-linecap:round;stroke-miterlimit:10;}
	.st1{opacity:0.2;fill:#006FB9;enable-background:new    ;}
	.st2{display:none;opacity:0.1;fill:#0D72B9;enable-background:new    ;}
</style>
<circle class="st0" cx="67" cy="4.6" r="3"/>
<path class="st0" d="M71.1,10C70,9.4,68.6,9.1,67,9l0,0l0,0l0,0l0,0c-1.6,0-3,0.4-4.1,1S61,11.5,61,12.6V15c0,0.1,0.1,0.3,0.3,0.3
	h2.1c0,0,1.8,0,3.5,0c0,0,0,0,0.1,0c1.8,0,3.5,0,3.5,0h2.1c0.2,0,0.3-0.1,0.3-0.3v-2.4C73,11.5,72.3,10.6,71.1,10z"/>
<g>
	<circle class="st1" cx="67" cy="35.6" r="3"/>
	<path class="st1" d="M71.1,41.1c-1.1-0.6-2.5-0.9-4.1-1l0,0l0,0l0,0l0,0c-1.6,0-3,0.4-4.1,1S61,42.6,61,43.7v2.4
		c0,0.1,0.1,0.3,0.3,0.3h2.1c0,0,1.8,0,3.5,0c0,0,0,0,0.1,0c1.8,0,3.5,0,3.5,0h2.1c0.2,0,0.3-0.1,0.3-0.3v-2.4
		C73,42.6,72.3,41.7,71.1,41.1z"/>
	<circle class="st0" cx="67" cy="35.6" r="3"/>
	<path class="st0" d="M71.1,41.1c-1.1-0.6-2.5-0.9-4.1-1l0,0l0,0l0,0l0,0c-1.6,0-3,0.4-4.1,1S61,42.6,61,43.7v2.4
		c0,0.1,0.1,0.3,0.3,0.3h2.1c0,0,1.8,0,3.5,0c0,0,0,0,0.1,0c1.8,0,3.5,0,3.5,0h2.1c0.2,0,0.3-0.1,0.3-0.3v-2.4
		C73,42.6,72.3,41.7,71.1,41.1z"/>
</g>
<circle class="st1" cx="67" cy="63.3" r="3"/>
<path class="st1" d="M71.1,68.7c-1.1-0.6-2.5-0.9-4.1-1l0,0l0,0l0,0l0,0c-1.6,0-3,0.4-4.1,1S61,70.2,61,71.3v2.4
	c0,0.1,0.1,0.3,0.3,0.3h2.1c0,0,1.8,0,3.5,0c0,0,0,0,0.1,0c1.8,0,3.5,0,3.5,0h2.1c0.2,0,0.3-0.1,0.3-0.3v-2.4
	C73,70.2,72.3,69.3,71.1,68.7z"/>
<circle class="st0" cx="67" cy="63.3" r="3"/>
<path class="st0" d="M71.1,68.7c-1.1-0.6-2.5-0.9-4.1-1l0,0l0,0l0,0l0,0c-1.6,0-3,0.4-4.1,1S61,70.2,61,71.3v2.4
	c0,0.1,0.1,0.3,0.3,0.3h2.1c0,0,1.8,0,3.5,0c0,0,0,0,0.1,0c1.8,0,3.5,0,3.5,0h2.1c0.2,0,0.3-0.1,0.3-0.3v-2.4
	C73,70.2,72.3,69.3,71.1,68.7z"/>
<path class="st2" d="M37.1,52.8H7.3c-1.7,0-3-1.4-3-3V28.1c0-1.7,1.3-3,3-3h29.9c1.7,0,3,1.3,3,3v21.7
	C40.1,51.4,38.8,52.8,37.1,52.8z"/>
<path class="st0" d="M56,69.5H26.3c-2.8,0-5-2.3-5-5V46.4"/>
<path class="st0" d="M21.3,33V14.9c0-2.8,2.3-5,5-5h21.6"/>
<line class="st0" x1="40.3" y1="39.5" x2="56" y2="39.5"/>
<g>
	<line class="st0" x1="55.9" y1="7.7" x2="51.2" y2="12.4"/>
	<line class="st0" x1="55.9" y1="12.4" x2="51.2" y2="7.7"/>
</g>
<g>
	<path id="Rectangle-path_32_1_" class="st0" d="M2.8,34.7c0-0.9,0.8-1.7,1.7-1.7h33.9c0.9,0,1.7,0.8,1.7,1.7v9.7
		c0,0.9-0.8,1.7-1.7,1.7H4.5c-0.9,0-1.7-0.8-1.7-1.7V34.7z"/>
	<path id="Shape_526_1_" class="st0" d="M12.1,38.7c-0.5,0-0.8,0.4-0.8,0.8c0,0.4,0.4,0.8,0.8,0.8c0.5,0,0.8-0.4,0.8-0.8
		c0-0.2-0.1-0.4-0.2-0.6C12.6,38.8,12.4,38.7,12.1,38.7L12.1,38.7"/>
	<path id="Shape_527_1_" class="st0" d="M20.6,38.7c-0.5,0-0.8,0.4-0.8,0.8c0,0.4,0.4,0.8,0.8,0.8c0.5,0,0.8-0.4,0.8-0.8
		c0-0.2-0.1-0.4-0.2-0.6C21.1,38.8,20.9,38.7,20.6,38.7L20.6,38.7"/>
	<path id="Shape_528_1_" class="st0" d="M28.3,39.6h3.4"/>
</g>
</svg>
