<?xml version="1.0" encoding="utf-8"?>
<!-- Generator: Adobe Illustrator 24.0.1, SVG Export Plug-In . SVG Version: 6.00 Build 0)  -->
<svg version="1.1" id="Layer_3" xmlns="http://www.w3.org/2000/svg" xmlns:xlink="http://www.w3.org/1999/xlink" x="0px" y="0px"
	 viewBox="0 0 75 75" style="enable-background:new 0 0 75 75;" xml:space="preserve">
<style type="text/css">
	.st0{fill:none;stroke:#0068DA;stroke-width:2;stroke-linecap:round;stroke-miterlimit:10;}
	.st1{fill:none;stroke:#0068DA;stroke-width:2;stroke-miterlimit:10;}
	.st2{opacity:0.3;fill:#0068DA;enable-background:new    ;}
</style>
<title>Categorize data_blue</title>
<g id="Layer_2_1_">
	<path class="st0" d="M6.9,63.5C3.7,58.1,2,51.9,2,45.6C2,26,17.8,10.2,37.4,10.2S72.8,26,72.8,45.6c0,0,0,0,0,0
		c0,6.4-1.7,12.6-5,18.1"/>
	<circle class="st1" cx="37.4" cy="56" r="5"/>
	<circle class="st2" cx="37.4" cy="56" r="5"/>
	<line class="st0" x1="17.1" y1="57.6" x2="7" y2="63.6"/>
	<line class="st0" x1="11.5" y1="46" x2="2.1" y2="46"/>
	<line class="st0" x1="15" y1="32.8" x2="6.8" y2="28.3"/>
	<line class="st0" x1="24.5" y1="22.9" x2="19.7" y2="14.9"/>
	<line class="st0" x1="37.4" y1="19.6" x2="37.4" y2="10.2"/>
	<line class="st0" x1="50.4" y1="23.6" x2="54.9" y2="15.5"/>
	<line class="st0" x1="39.8" y1="51.6" x2="49.6" y2="33.6"/>
	<line class="st0" x1="59.8" y1="32.9" x2="67.9" y2="28.2"/>
	<line class="st0" x1="63.2" y1="45.7" x2="72.5" y2="45.4"/>
	<line class="st0" x1="57.7" y1="57.6" x2="67.8" y2="63.6"/>
</g>
</svg>
