<svg width="64" height="64" viewBox="0 0 64 64" fill="none" xmlns="http://www.w3.org/2000/svg">
<g clip-path="url(#clip0_3_246)">
<path d="M16 7.88144H4.15585C2.40116 7.88144 0.923523 9.29176 0.923523 10.9665V48.3401C0.923523 50.0149 2.40116 51.4252 4.15585 51.4252H59.8442C61.6912 51.4252 63.0765 50.0149 63.0765 48.3401V10.9665C63.0765 9.29176 61.5989 7.88144 59.8442 7.88144H48" stroke="#0068DA" stroke-width="2" stroke-miterlimit="10" stroke-linecap="round"/>
<path d="M15 12.8176H8.31172C7.11114 12.8176 6.18762 13.699 6.18762 14.8449V41.7292C6.18762 42.8751 7.11114 43.7565 8.31172 43.7565H55.7807C56.8889 43.7565 57.9048 42.8751 57.9048 41.7292V14.8449C57.9048 13.699 56.9813 12.8176 55.7807 12.8176H49" stroke="#0068DA" stroke-width="2" stroke-miterlimit="10" stroke-linecap="round"/>
<path d="M18.1934 61.4738H45.899" stroke="#0068DA" stroke-width="2" stroke-miterlimit="10" stroke-linecap="round"/>
<path d="M26.0433 61.2975V51.6015" stroke="#0068DA" stroke-width="2" stroke-miterlimit="10" stroke-linecap="round"/>
<path d="M38.0491 61.2975V51.6015" stroke="#0068DA" stroke-width="2" stroke-miterlimit="10" stroke-linecap="round"/>
<path fill-rule="evenodd" clip-rule="evenodd" d="M32.0007 2C31.6109 2 31.224 2.01455 30.8414 2.04073C29.7316 2.12073 28.8851 2.9382 28.6422 3.93749L28.1302 6.04662C28.1011 6.16008 27.9992 6.29681 27.8029 6.36663C27.4433 6.49698 27.0899 6.64406 26.744 6.80737C26.5549 6.89464 26.3862 6.87137 26.2858 6.81028L24.4327 5.68153C23.5542 5.14624 22.3789 5.16661 21.5382 5.89535C20.952 6.40154 20.4036 6.95137 19.896 7.53611C19.1687 8.37831 19.1469 9.5536 19.6822 10.4307L20.8109 12.2853C20.872 12.3857 20.8967 12.5544 20.808 12.7435C20.6451 13.0882 20.4982 13.4417 20.3687 13.8024C20.296 13.9988 20.1607 14.102 20.0473 14.1297L17.9382 14.6417C16.9389 14.8846 16.1215 15.7312 16.0415 16.841C15.9862 17.6129 15.9862 18.3877 16.0415 19.1596C16.1215 20.2694 16.9389 21.116 17.9382 21.3589L20.0473 21.8709C20.1607 21.9 20.2975 22.0018 20.3673 22.1982C20.4982 22.5589 20.6451 22.9124 20.808 23.2586C20.8953 23.4462 20.872 23.615 20.8109 23.7153L19.6822 25.5684C19.1469 26.447 19.1673 27.6223 19.896 28.463C20.4022 29.0492 20.952 29.5976 21.5367 30.1053C22.3789 30.8325 23.5542 30.8544 24.4313 30.3191L26.2858 29.1903C26.3862 29.1292 26.5549 29.1045 26.744 29.1932C27.0887 29.3562 27.4422 29.5031 27.8029 29.6325C27.9992 29.7052 28.1025 29.8405 28.1302 29.954L28.6422 32.0631C28.8851 33.0624 29.7316 33.8799 30.8414 33.9584C31.6133 34.0139 32.3881 34.0139 33.1599 33.9584C34.2698 33.8799 35.1163 33.0624 35.3592 32.0631L35.8712 29.954C35.9003 29.8405 36.0021 29.7038 36.1985 29.634C36.5592 29.5031 36.9127 29.3562 37.2588 29.1932C37.4465 29.106 37.6152 29.1292 37.7156 29.1903L39.5686 30.3191C40.4472 30.8544 41.6225 30.834 42.4632 30.1053C43.0494 29.5991 43.5977 29.0492 44.1054 28.4645C44.8326 27.6223 44.8544 26.447 44.3192 25.5699L43.1904 23.7153C43.1294 23.615 43.1046 23.4462 43.1934 23.2571C43.3563 22.9124 43.5032 22.5589 43.6326 22.1982C43.7053 22.0018 43.8406 21.8986 43.9541 21.8709L46.0632 21.3589C47.0624 21.116 47.8799 20.2694 47.9584 19.1596C48.0139 18.3877 48.0139 17.6129 47.9584 16.841C47.8799 15.7312 47.0624 14.8846 46.0632 14.6417L43.9541 14.1297C43.8406 14.1006 43.7039 13.9988 43.6341 13.8024C43.5037 13.4428 43.3566 13.0894 43.1934 12.7435C43.1061 12.5544 43.1294 12.3857 43.1904 12.2853L44.3192 10.4322C44.8544 9.5536 44.8341 8.37831 44.1054 7.53756C43.5992 6.95137 43.0494 6.403 42.4646 5.89535C41.6225 5.16806 40.4472 5.14624 39.5701 5.68153L37.7156 6.81028C37.6152 6.87137 37.4465 6.8961 37.2574 6.80737C36.9114 6.64458 36.5581 6.49799 36.1985 6.36808C36.0021 6.29536 35.8988 6.16008 35.8712 6.04662L35.3592 3.93749C35.1163 2.9382 34.2698 2.12073 33.1599 2.04073C32.7741 2.01333 32.3875 1.99975 32.0007 2Z" stroke="#0068DA" stroke-width="2"/>
<circle cx="31.9999" cy="18" r="6.4" stroke="#0068DA" stroke-width="2"/>
</g>
<defs>
<clipPath id="clip0_3_246">
<rect width="64" height="64" fill="white"/>
</clipPath>
</defs>
</svg>
