<svg width="64" height="64" viewBox="0 0 64 64" fill="none" xmlns="http://www.w3.org/2000/svg">
<path d="M50.53 25.53H44.11V14.85C44.11 11.5746 42.8089 8.43331 40.4928 6.11723C38.1767 3.80116 35.0355 2.5 31.76 2.5C28.4846 2.5 25.3433 3.80116 23.0273 6.11723C20.7112 8.43331 19.41 11.5746 19.41 14.85V25.53H13.53C12.2039 25.53 10.9322 26.0568 9.9945 26.9945C9.05681 27.9321 8.53003 29.2039 8.53003 30.53V56.53C8.53003 57.8561 9.05681 59.1279 9.9945 60.0655C10.9322 61.0032 12.2039 61.53 13.53 61.53H50.53C51.8561 61.53 53.1279 61.0032 54.0656 60.0655C55.0032 59.1279 55.53 57.8561 55.53 56.53V30.53C55.53 29.2039 55.0032 27.9321 54.0656 26.9945C53.1279 26.0568 51.8561 25.53 50.53 25.53V25.53Z" stroke="#0068DA" stroke-width="2" stroke-miterlimit="10"/>
<path d="M19.41 25.55H44.49" stroke="#0068DA" stroke-width="2" stroke-miterlimit="10"/>
<circle cx="32" cy="41" r="4" stroke="#0068DA" stroke-width="2"/>
<path d="M30 45H34V49C34 49.5523 33.5523 50 33 50H31C30.4477 50 30 49.5523 30 49V45Z" stroke="#0068DA" stroke-width="2"/>
</svg>
