<svg width="64" height="64" viewBox="0 0 64 64" fill="none" xmlns="http://www.w3.org/2000/svg">
<path d="M19.2256 25.328V6.09501C19.2267 5.79912 19.2861 5.50633 19.4002 5.23338C19.5144 4.96044 19.6812 4.71268 19.8911 4.50424C20.1009 4.2958 20.3498 4.13075 20.6234 4.01854C20.897 3.90634 21.19 3.84918 21.4857 3.8503H48.3599L59.1503 14.4361V50.751C59.1492 51.0469 59.0899 51.3397 58.9757 51.6126C58.8615 51.8856 58.6947 52.1333 58.4849 52.3418C58.275 52.5502 58.0262 52.7153 57.7526 52.8275C57.479 52.9397 57.186 52.9968 56.8903 52.9957H38.6485" stroke="#0068DA" stroke-width="2" stroke-miterlimit="10" stroke-linecap="round"/>
<path d="M48.0152 3V12.7552C47.9791 13.047 48.0074 13.3433 48.0982 13.6228C48.189 13.9023 48.34 14.1582 48.5404 14.3722C48.7408 14.5862 48.9856 14.7531 49.2574 14.8609C49.5293 14.9687 49.8214 15.0148 50.1131 14.9959H60" stroke="#0068DA" stroke-width="2" stroke-miterlimit="10"/>
<path d="M32.3696 42.7755H41.6987" stroke="#0068DA" stroke-width="2" stroke-linecap="round" stroke-linejoin="round"/>
<path d="M27.5606 27.6407H36.7996" stroke="#0068DA" stroke-width="2" stroke-linecap="round" stroke-linejoin="round"/>
<path d="M30.6533 32.7338H50.7474" stroke="#0068DA" stroke-width="2" stroke-linecap="round" stroke-linejoin="round"/>
<path d="M39.4896 27.6407H50.7474" stroke="#0068DA" stroke-width="2" stroke-linecap="round" stroke-linejoin="round"/>
<path d="M44.8084 42.7755H50.7474" stroke="#0068DA" stroke-width="2" stroke-linecap="round" stroke-linejoin="round"/>
<path d="M32.3696 37.7249H38.9067" stroke="#0068DA" stroke-width="2" stroke-linecap="round" stroke-linejoin="round"/>
<path d="M41.7072 37.7419H50.7474" stroke="#0068DA" stroke-width="2" stroke-linecap="round" stroke-linejoin="round"/>
<path d="M27.5606 22.6327H31.2481" stroke="#0068DA" stroke-width="2" stroke-linecap="round" stroke-linejoin="round"/>
<path d="M34.0859 22.6327H50.7474" stroke="#0068DA" stroke-width="2" stroke-linecap="round" stroke-linejoin="round"/>
<path d="M19.2256 30.5402C20.5043 30.5424 21.77 30.7966 22.9505 31.2883C24.131 31.7801 25.2031 32.4997 26.1057 33.4061C27.0083 34.3125 27.7236 35.388 28.2109 36.571C28.6981 37.7541 28.9478 39.0216 28.9455 40.3012C28.9466 41.5815 28.6956 42.8495 28.2068 44.0327C27.718 45.2159 27.0009 46.2911 26.0967 47.1968C25.1924 48.1025 24.1186 48.821 22.9367 49.3112C21.7548 49.8014 20.488 50.0537 19.2086 50.0537C16.6277 50.0492 14.1542 49.0195 12.3316 47.1908C10.509 45.3621 9.48644 42.884 9.4887 40.3012C9.48646 39.0202 9.73667 37.7512 10.225 36.5671C10.7133 35.3829 11.4302 34.3067 12.3346 33.4001C13.2389 32.4935 14.3131 31.7742 15.4955 31.2835C16.678 30.7927 17.9455 30.5402 19.2256 30.5402V30.5402Z" stroke="#0068DA" stroke-width="2" stroke-miterlimit="10"/>
<path d="M32.9728 56.9154C29.056 62.5696 9.38674 62.5696 5.46139 56.9154C3.20134 53.6503 7.53452 49.9432 12.5304 47.9451C14.4864 49.3352 16.8265 50.0812 19.2256 50.0792C21.6208 50.0813 23.9574 49.3385 25.9123 47.9536C30.8997 49.9517 35.2329 53.6503 32.9728 56.9154Z" stroke="#0068DA" stroke-width="2" stroke-miterlimit="10"/>
</svg>
