<svg width="64" height="64" viewBox="0 0 64 64" fill="none" xmlns="http://www.w3.org/2000/svg">
<g clip-path="url(#clip0_2_199)">
<path d="M21.231 36.2207C20.3019 36.2207 19.3938 36.4969 18.6213 37.0143C17.8489 37.5317 17.2468 38.2672 16.8913 39.1276C16.5358 39.9881 16.4427 40.9349 16.624 41.8483C16.8052 42.7618 17.2526 43.6009 17.9095 44.2594C18.5664 44.918 19.4034 45.3665 20.3146 45.5482C21.2257 45.7299 22.1702 45.6366 23.0285 45.2802C23.8868 44.9238 24.6204 44.3202 25.1366 43.5458C25.6527 42.7715 25.9282 41.861 25.9282 40.9297C25.9282 40.3113 25.8067 39.6989 25.5706 39.1276C25.3346 38.5563 24.9886 38.0372 24.5524 37.5999C24.1162 37.1627 23.5984 36.8158 23.0285 36.5792C22.4586 36.3425 21.8478 36.2207 21.231 36.2207ZM21.231 43.5762C20.7088 43.5762 20.1984 43.421 19.7643 43.1302C19.3302 42.8394 18.9918 42.426 18.792 41.9425C18.5922 41.4589 18.5399 40.9267 18.6418 40.4134C18.7436 39.9 18.995 39.4284 19.3642 39.0583C19.7334 38.6882 20.2038 38.4361 20.7159 38.334C21.228 38.2319 21.7588 38.2843 22.2412 38.4846C22.7236 38.6849 23.1359 39.0241 23.426 39.4593C23.716 39.8946 23.8709 40.4062 23.8709 40.9297C23.8709 41.6316 23.5927 42.3047 23.0977 42.801C22.6026 43.2974 21.9311 43.5762 21.231 43.5762Z" fill="#0068DA"/>
<path d="M46.3375 14.7657C45.5773 14.7657 44.8342 14.9918 44.2023 15.4154C43.5704 15.839 43.078 16.441 42.7875 17.1452C42.497 17.8495 42.4215 18.6243 42.5704 19.3716C42.7194 20.1189 43.0862 20.805 43.6243 21.3433C44.1625 21.8815 44.8479 22.2476 45.5936 22.3951C46.3394 22.5427 47.1121 22.4651 47.8139 22.1722C48.5157 21.8794 49.115 21.3843 49.536 20.7498C49.9571 20.1153 50.1808 19.3698 50.179 18.6078C50.1766 17.588 49.7708 16.6107 49.0507 15.8905C48.3305 15.1702 47.3548 14.7657 46.3375 14.7657ZM46.3375 20.3964C45.9774 20.3964 45.6254 20.2894 45.326 20.0888C45.0266 19.8883 44.7932 19.6032 44.6554 19.2697C44.5176 18.9362 44.4816 18.5692 44.5518 18.2152C44.6221 17.8611 44.7955 17.5359 45.0501 17.2807C45.3047 17.0254 45.6291 16.8516 45.9823 16.7811C46.3355 16.7107 46.7015 16.7469 47.0342 16.885C47.3669 17.0231 47.6512 17.2571 47.8513 17.5572C48.0513 17.8574 48.1581 18.2103 48.1581 18.5713C48.1581 19.0553 47.9663 19.5196 47.6249 19.8619C47.2834 20.2041 46.8204 20.3964 46.3375 20.3964Z" fill="#0068DA"/>
<path d="M46.3375 11.1245C44.2431 11.127 42.182 11.6492 40.3379 12.6444C38.4938 13.6396 36.9241 15.0769 35.7687 16.8282L30.3978 13.8622C31.3944 11.4921 31.4454 8.82886 30.5403 6.4221C29.6353 4.01534 27.8432 2.04867 25.5339 0.927871C23.2246 -0.192928 20.5743 -0.382336 18.1298 0.398728C15.6852 1.17979 13.633 2.87173 12.3966 5.12545C11.1601 7.37916 10.8338 10.0227 11.4848 12.5106C12.1359 14.9985 13.7148 17.141 15.8956 18.4959C18.0764 19.8508 20.6929 20.3149 23.205 19.7923C25.7172 19.2697 27.9335 17.8004 29.3965 15.6874L34.7765 18.6533C33.813 20.7868 33.461 23.147 33.7601 25.4696C34.0591 27.7922 34.9974 29.9855 36.4697 31.8038L32.2458 35.8283C29.1574 32.9626 25.0781 31.4139 20.871 31.5097C16.6638 31.6056 12.6589 33.3385 9.70357 36.3419C6.74825 39.3452 5.07438 43.3834 5.03614 47.602C4.99789 51.8206 6.59826 55.8886 9.49863 58.9453C12.399 62.002 16.3718 63.8077 20.5766 63.9802C24.7813 64.1527 28.888 62.6785 32.0278 59.8696C35.1676 57.0607 37.0942 53.1373 37.3999 48.9297C37.7057 44.7221 36.3665 40.5604 33.6659 37.3249L37.9171 33.2822C39.4469 34.6533 41.2862 35.6311 43.2767 36.1315C45.2671 36.6319 47.3491 36.6398 49.3433 36.1546C51.3374 35.6693 53.1841 34.7055 54.7243 33.3461C56.2645 31.9866 57.452 30.2723 58.1846 28.3506C58.9172 26.429 59.173 24.3577 58.93 22.3149C58.6869 20.2722 57.9522 18.3193 56.7892 16.6244C55.6263 14.9295 54.0698 13.5433 52.2538 12.5852C50.4379 11.6271 48.4169 11.1258 46.3648 11.1245H46.3375ZM23.352 17.613C22.6732 17.8032 21.9721 17.9014 21.2674 17.905C20.5597 17.9007 19.8556 17.8025 19.1736 17.613V14.6106C19.2087 14.079 19.444 13.5806 19.8319 13.2166C20.2199 12.8525 20.7314 12.6499 21.2628 12.6499C21.7942 12.6499 22.3057 12.8525 22.6937 13.2166C23.0816 13.5806 23.317 14.079 23.352 14.6106V17.613ZM25.4184 16.7004V14.6014C25.4184 13.4978 24.9811 12.4393 24.2026 11.6589C23.4241 10.8784 22.3683 10.44 21.2674 10.44C20.1664 10.44 19.1106 10.8784 18.3321 11.6589C17.5537 12.4393 17.1163 13.4978 17.1163 14.6014V16.7004C15.6533 15.7948 14.5248 14.4356 13.9021 12.8288C13.2795 11.2221 13.1966 9.45559 13.6661 7.79736C14.1356 6.13912 15.1318 4.67967 16.5036 3.64045C17.8754 2.60123 19.5479 2.03896 21.2674 2.03896C22.9868 2.03896 24.6593 2.60123 26.0311 3.64045C27.4029 4.67967 28.3992 6.13912 28.8687 7.79736C29.3381 9.45559 29.2553 11.2221 28.6326 12.8288C28.0099 14.4356 26.8815 15.7948 25.4184 16.7004ZM21.2309 61.9375C19.4638 61.9391 17.7123 61.6047 16.0695 60.9519V54.7463C16.1253 53.4151 16.6921 52.1571 17.6514 51.235C18.6107 50.3129 19.8883 49.7981 21.2173 49.7981C22.5463 49.7981 23.8239 50.3129 24.7832 51.235C25.7425 52.1571 26.3093 53.4151 26.3651 54.7463V60.9154C24.7321 61.5733 22.9909 61.92 21.2309 61.9375ZM35.3955 47.7376C35.3926 50.2027 34.7489 52.6245 33.5277 54.7642C32.3065 56.9038 30.55 58.6874 28.4316 59.9389V54.7463C28.466 53.7761 28.3051 52.809 27.9585 51.9025C27.6119 50.9961 27.0867 50.1689 26.4142 49.4704C25.7417 48.7718 24.9358 48.2163 24.0445 47.8368C23.1532 47.4574 22.1948 47.2618 21.2264 47.2618C20.258 47.2618 19.2996 47.4574 18.4083 47.8368C17.517 48.2163 16.711 48.7718 16.0386 49.4704C15.3661 50.1689 14.8409 50.9961 14.4943 51.9025C14.1477 52.809 13.9868 53.7761 14.0212 54.7463V59.9389C11.8896 58.672 10.1271 56.8663 8.90986 54.7024C7.69267 52.5384 7.06347 50.092 7.08517 47.6078C7.10687 45.1236 7.77872 42.6887 9.03354 40.5464C10.2884 38.4042 12.0822 36.6297 14.2356 35.4004C16.3891 34.1711 18.8267 33.5301 21.3048 33.5415C23.7828 33.5528 26.2145 34.2162 28.3567 35.4651C30.4988 36.7141 32.2764 38.505 33.5116 40.6586C34.7468 42.8123 35.3964 45.2533 35.3955 47.7376ZM49.9605 33.8297C47.6417 34.6812 45.097 34.6812 42.7781 33.8297V29.2668C42.8245 28.3433 43.2231 27.473 43.8915 26.8358C44.5599 26.1987 45.447 25.8433 46.3694 25.8433C47.2917 25.8433 48.1788 26.1987 48.8472 26.8358C49.5156 27.473 49.9142 28.3433 49.9605 29.2668V33.8297ZM52.027 32.8167V29.3033C52.027 27.8002 51.4314 26.3588 50.3712 25.296C49.3111 24.2332 47.8732 23.6361 46.3739 23.6361C44.8746 23.6361 43.4367 24.2332 42.3766 25.296C41.3164 26.3588 40.7208 27.8002 40.7208 29.3033V32.8167C38.7725 31.5877 37.2755 29.7569 36.4556 27.6005C35.6358 25.444 35.5374 23.0789 36.1754 20.8615C36.8134 18.6442 38.1532 16.6949 39.9927 15.3075C41.8323 13.9201 44.0719 13.1698 46.3739 13.1698C48.6759 13.1698 50.9155 13.9201 52.7551 15.3075C54.5946 16.6949 55.9344 18.6442 56.5724 20.8615C57.2104 23.0789 57.112 25.444 56.2922 27.6005C55.4723 29.7569 53.9753 31.5877 52.027 32.8167Z" fill="#0068DA"/>
<path d="M21.231 2.79254C20.6012 2.79254 19.9855 2.97964 19.4618 3.33021C18.938 3.68078 18.5297 4.17909 18.2883 4.76219C18.0468 5.3453 17.9832 5.98705 18.1054 6.60639C18.2276 7.22573 18.5302 7.79487 18.9748 8.24193C19.4195 8.68899 19.9864 8.99392 20.6038 9.11819C21.2213 9.24246 21.8616 9.18051 22.4439 8.94016C23.0263 8.6998 23.5245 8.29183 23.8757 7.76777C24.2269 7.24371 24.4153 6.62707 24.4171 5.99574C24.4183 5.57552 24.3367 5.15919 24.1771 4.77062C24.0176 4.38204 23.7831 4.02885 23.4871 3.73129C23.1911 3.43372 22.8395 3.19763 22.4523 3.03655C22.0652 2.87546 21.6501 2.79254 21.231 2.79254ZM21.231 7.1091C21.0069 7.10907 20.788 7.04221 20.602 6.91704C20.416 6.79188 20.2713 6.61405 20.1865 6.40621C20.1016 6.19837 20.0803 5.96991 20.1254 5.74992C20.1704 5.52992 20.2797 5.32834 20.4394 5.17083C20.5991 5.01333 20.802 4.90702 21.0221 4.86544C21.2423 4.82386 21.4698 4.84889 21.6757 4.93734C21.8816 5.02579 22.0566 5.17367 22.1784 5.36215C22.3002 5.55063 22.3634 5.77118 22.3597 5.99574C22.355 6.29268 22.2339 6.57585 22.0228 6.78413C21.8116 6.99242 21.5272 7.10914 21.231 7.1091Z" fill="#0068DA"/>
</g>
<defs>
<clipPath id="clip0_2_199">
<rect width="64" height="64" fill="white"/>
</clipPath>
</defs>
</svg>
