<svg width="64" height="64" viewBox="0 0 64 64" fill="none" xmlns="http://www.w3.org/2000/svg">
<path d="M10 21.5328V9.77526C13.1796 8.56253 22.984 5.14794 27.9805 3.40195L31.2458 2.24946L31.94 2C34.4597 2.86009 45.0269 6.58432 50.9832 8.70015L53.9437 9.69946V21.5M54 26.3923V37.8917C53.9926 39.1024 53.8195 40.3062 53.4857 41.4696C53.3915 41.7706 53.2972 42.0889 53.1858 42.3986C52.9562 43.0369 52.6871 43.6602 52.3802 44.2649C50.2719 48.5052 46.381 52.2982 42.4301 55.3515L42.1558 55.5579C38.9109 57.9868 35.471 60.1415 31.8715 62C29.8146 60.9163 27.732 59.7036 25.7266 58.3877L24.8695 57.8286L24.381 57.5103L23.0011 56.5729H22.924C15.725 51.3177 10 44.738 10 38.0723V21.1887C14.5851 19.4685 23.8068 16.269 28.3062 14.6778L31.8543 13.4393L42.2587 17.1033L46.1924 18.488L53.5372 21.0683L53.94 21.1801L54 26.3923Z" stroke="#0068DA" stroke-width="2.02" stroke-miterlimit="10"/>
<path d="M46 18.1847V36.6534C45.9974 37.4269 45.8884 38.1964 45.6762 38.94C45.6149 39.1335 45.5536 39.3358 45.4836 39.5293C45.3362 39.9369 45.1667 40.3362 44.9759 40.7253V40.7253C43.628 43.4253 41.1247 45.8526 38.6302 47.761L38.4551 47.893C36.3938 49.4387 34.21 50.8122 31.9256 52C30.5824 51.301 29.2764 50.5319 28.0131 49.6958L27.4705 49.3441L27.1641 49.1417L26.2888 48.535H26.2363C21.6499 45.1842 18 40.9891 18 36.7325V18" stroke="#0068DA" stroke-width="2.02" stroke-miterlimit="10"/>
<path d="M32 13V51" stroke="#0068DA" stroke-width="2.02" stroke-miterlimit="10"/>
</svg>
