<svg width="64" height="64" viewBox="0 0 64 64" fill="none" xmlns="http://www.w3.org/2000/svg">
<path d="M15.4655 51H5C3.34315 51 2 49.6569 2 48V7C2 5.34315 3.34315 4 5 4H59C60.6569 4 62 5.34315 62 7V48C62 49.6569 60.6569 51 59 51H48.5345" stroke="#0068DA" stroke-width="2" stroke-linecap="round"/>
<path d="M2 15H62" stroke="#0068DA" stroke-width="2" stroke-linecap="round"/>
<path d="M8 22H15" stroke="#0068DA" stroke-width="2" stroke-linecap="round"/>
<path d="M8 27H11" stroke="#0068DA" stroke-width="2" stroke-linecap="round"/>
<circle cx="8.5" cy="9.5" r="1.5" fill="#0068DA"/>
<circle cx="14.5" cy="9.5" r="1.5" fill="#0068DA"/>
<circle cx="20.5" cy="9.5" r="1.5" fill="#0068DA"/>
<path d="M19 34.3707V26.9243C20.8788 26.1563 26.6724 23.9937 29.6248 22.8879L31.5544 22.158L31.9646 22C33.4535 22.5447 39.6977 24.9034 43.2174 26.2434L44.9667 26.8763V34.35M45 37.4485V44.7314C44.9956 45.4982 44.8933 46.2606 44.6961 46.9974C44.6404 47.1881 44.5847 47.3897 44.5189 47.5858C44.3832 47.99 44.2242 48.3848 44.0428 48.7678C42.797 51.4533 40.4979 53.8555 38.1632 55.7893L38.0012 55.92C36.0837 57.4583 34.0511 58.8229 31.924 60C30.7086 59.3136 29.478 58.5456 28.293 57.7122L27.7865 57.3581L27.4979 57.1566L26.6825 56.5628H26.6369C22.3829 53.2346 19 49.0674 19 44.8458V34.1528C21.7094 33.0634 27.1585 31.037 29.8173 30.0293L31.9139 29.2449L38.0619 31.5654L40.3864 32.4424L44.7265 34.0766L44.9645 34.1474L45 37.4485Z" stroke="#0068DA" stroke-width="2.02" stroke-miterlimit="10"/>
<path d="M27 42.9375L31.2105 48L37 39" stroke="#0068DA" stroke-width="2" stroke-linecap="round" stroke-linejoin="round"/>
</svg>
