<svg width="64" height="64" viewBox="0 0 64 64" fill="none" xmlns="http://www.w3.org/2000/svg">
<path d="M25 29H9C7.89543 29 7 28.1046 7 27V14.8075C7 13.821 7.71938 12.9818 8.69433 12.831L24.6943 10.3566C25.9063 10.1691 27 11.1067 27 12.3331V27C27 28.1046 26.1046 29 25 29Z" stroke="#0068DA" stroke-width="2" stroke-linejoin="round"/>
<path d="M55 29H35C33.8954 29 33 28.1046 33 27V10.6077C33 9.62719 33.7109 8.79126 34.6786 8.63371L54.6786 5.37789C55.8955 5.17981 57 6.11909 57 7.35191V27C57 28.1046 56.1046 29 55 29Z" stroke="#0068DA" stroke-width="2" stroke-linejoin="round"/>
<path d="M25 35H9C7.89543 35 7 35.8954 7 37V49.1925C7 50.179 7.71938 51.0182 8.69433 51.169L24.6943 53.6434C25.9063 53.8309 27 52.8933 27 51.6669V37C27 35.8954 26.1046 35 25 35Z" stroke="#0068DA" stroke-width="2" stroke-linejoin="round"/>
<path d="M55 35H35C33.8954 35 33 35.8954 33 37V53.3923C33 54.3728 33.7109 55.2087 34.6786 55.3663L54.6786 58.6221C55.8955 58.8202 57 57.8809 57 56.6481V37C57 35.8954 56.1046 35 55 35Z" stroke="#0068DA" stroke-width="2" stroke-linejoin="round"/>
</svg>
