<svg id="Layer_1" data-name="Layer 1" xmlns="http://www.w3.org/2000/svg" viewBox="0 0 65 65"><defs><style>.cls-1{fill:#2547fe;}.cls-2,.cls-3{fill:#deff5b;stroke:#deff5b;}.cls-2{stroke-width:0.38px;}.cls-3{stroke-width:0.29px;}</style></defs><circle class="cls-1" cx="32.17" cy="32.6" r="30.1"/><path class="cls-2" d="M51.8,19.17c-.23-.35-.44-.52-.63-.5h-.05a1.87,1.87,0,0,0-.76.2c-.32-.67-.67-1.23-1-1.18h0c-.36,0-1.27,0-1.62.78a18.29,18.29,0,0,0,0,8s.31-6.7.63-7.45c.2-.47.87-.38,1.19-.41a3.8,3.8,0,0,1,.41.74l-.12.23c-.37.94,1.67,8.35,1.57,12.61a2.7,2.7,0,0,0-.83-.94,1.94,1.94,0,0,0-1.58-.36c-1.47.3-2.88,2.24-3.77,4-.77,1.5-2.24,2.2-3.95,3-.62.32-1.27.64-1.91,1-3,.69-6.17,4-7.13,5.07-1-1.09-4.13-4.38-7.12-5.07-.65-.39-1.3-.71-1.92-1-1.71-.85-3.18-1.55-3.95-3-.89-1.71-2.3-3.65-3.77-4a1.94,1.94,0,0,0-1.58.36,2.7,2.7,0,0,0-.83.94c-.1-4.26,1.94-11.67,1.57-12.61l-.12-.23a3.8,3.8,0,0,1,.41-.74c.32,0,1-.06,1.19.41.32.75.63,7.45.63,7.45a18.14,18.14,0,0,0,0-8c-.35-.79-1.26-.73-1.62-.78H15c-.37-.05-.71.51-1,1.18a1.87,1.87,0,0,0-.76-.2h-.05c-.19,0-.4.15-.62.5-1.27,1.89-5,11.36-4.64,12.87a0,0,0,0,0,0,0c.57,1.41.94,4.51,1.48,6.89a20.6,20.6,0,0,0,.67,2.47l0,.08c4.56,5.71,11.76,9.54,18.61,11.86-6.57-2.65-13.41-6.53-17.81-12.18a23.23,23.23,0,0,1-.66-2.43c-.55-2.45-1-5.64-1.57-7.17-.32-1.42,3.44-10.93,4.3-12a.9.9,0,0,1,.93.58c.25.66-1.74,11.68-1.11,12.47-.43,1.4.35,3.22,1.39,5.25a6,6,0,0,0,2.61,2.67,10.86,10.86,0,0,1,3.05,2.7c2.65,3.28,3.88,3.65,3.88,3.65s-.47-.68-3.17-4.08a11.49,11.49,0,0,0-3.27-2.93A5.18,5.18,0,0,1,15,37.53c-1.46-2.87-2.07-4.67-.77-5.59a1.12,1.12,0,0,1,.9-.2c1.14.24,2.43,1.94,3.25,3.52.9,1.73,2.57,2.52,4.34,3.41.64.31,1.29.64,1.93,1l.07,0h.07c3.4.77,6.07,3.74,7.37,5.45,1.3-1.71,4-4.68,7.37-5.45h.07l.07,0c.64-.39,1.29-.72,1.93-1,1.77-.89,3.44-1.68,4.34-3.41.82-1.58,2.11-3.28,3.25-3.52a1.11,1.11,0,0,1,.9.2c1.3.92.69,2.72-.77,5.59A5.18,5.18,0,0,1,47,39.91a11.49,11.49,0,0,0-3.27,2.93c-2.7,3.4-3.15,4-3.17,4.08s1.23-.37,3.88-3.65a10.86,10.86,0,0,1,3.05-2.7,6,6,0,0,0,2.61-2.67c1-2,1.82-3.85,1.39-5.25.63-.79-1.36-11.81-1.11-12.47a.9.9,0,0,1,.93-.58c.86,1.06,4.62,10.57,4.31,12-.62,1.53-1,4.72-1.58,7.17a23.23,23.23,0,0,1-.66,2.43C49,46.84,42.18,50.72,35.61,53.37c6.85-2.32,14-6.15,18.62-11.86l0-.08A20.6,20.6,0,0,0,54.94,39c.54-2.38.91-5.48,1.48-6.89v0C56.82,30.53,53.06,21.06,51.8,19.17Z"/><path class="cls-3" d="M25.35,36.48l-.82-.54Z"/><path class="cls-3" d="M31.36,38.34l.71,0-.72,0Z"/><path class="cls-3" d="M30.25,38.23l-.5-.09Z"/><path class="cls-3" d="M26.07,36.88l-.72-.4Z"/><path class="cls-3" d="M26.77,37.22l.05,0h0l-.06,0Z"/><path class="cls-3" d="M26.76,37.21l-.69-.33C26.3,37,26.46,37.08,26.76,37.21Z"/><path class="cls-3" d="M24.53,35.94c-.26-.18-.5-.38-.94-.73C24,35.57,24.24,35.74,24.53,35.94Z"/><path class="cls-3" d="M29.75,38.14l-.52-.1C29.46,38.09,29.54,38.11,29.75,38.14Z"/><path class="cls-3" d="M30.6,38.27l-.35,0Z"/><path class="cls-3" d="M28.67,37.89l-.55-.16A5.35,5.35,0,0,0,28.67,37.89Z"/><path class="cls-3" d="M19,23.61l0-.24a.49.49,0,0,0,0-.12C19,23.36,19,23.48,19,23.61Z"/><path class="cls-3" d="M19,26.64c0-.31-.05-.65-.07-1C19,26,19,26.33,19,26.64Z"/><path class="cls-3" d="M32.64,38.36h0Z"/><path class="cls-3" d="M19,27a.36.36,0,0,1,0,.11c0-.14,0-.28-.05-.42Z"/><path class="cls-3" d="M19,23.61c0,.29-.06.61-.07.95C18.94,24.28,19,23.93,19,23.61Z"/><path class="cls-3" d="M18.93,25.66c0-.18,0-.36,0-.56C18.91,25.27,18.92,25.46,18.93,25.66Z"/><path class="cls-3" d="M21.5,33l.09.11-.48-.69C21.23,32.61,21.36,32.8,21.5,33Z"/><path class="cls-3" d="M19.14,27.59a9.59,9.59,0,0,0,.27,1.14c-.11-.4-.2-.76-.27-1.12Z"/><path class="cls-3" d="M22.67,34.35c-.35-.39-.77-.87-1.08-1.25C21.92,33.5,22.25,33.91,22.67,34.35Z"/><path class="cls-3" d="M22.8,34.49l.11.1-.24-.24Z"/><path class="cls-3" d="M19.73,29.73c-.15-.46-.25-.76-.32-1C19.5,29,19.61,29.37,19.73,29.73Z"/><path class="cls-3" d="M23.27,34.94l.32.27L23.35,35Z"/><path class="cls-3" d="M29.23,38l-.56-.15C28.89,38,29,38,29.23,38Z"/><path class="cls-3" d="M43.74,31.6c-.2.32-.35.56-.47.77C43.44,32.1,43.59,31.86,43.74,31.6Z"/><path class="cls-3" d="M43.76,31.57l0,0h0Z"/><path class="cls-3" d="M45.13,27.94l.06-.28h0c0,.13,0,.24-.07.36A.29.29,0,0,1,45.13,27.94Z"/><path class="cls-3" d="M41.06,35l-.22.18-.31.27Z"/><path class="cls-3" d="M42.52,33.4c-.23.27-.53.6-.79.89C42,34,42.25,33.73,42.52,33.4Z"/><path class="cls-3" d="M43.27,32.37c-.21.29-.44.62-.75,1A10.09,10.09,0,0,0,43.27,32.37Z"/><path class="cls-3" d="M44.06,31l.21-.47-.28.59Z"/><path class="cls-3" d="M19.14,22.61a.15.15,0,0,0,0,.07.51.51,0,0,1,0-.13S19.14,22.59,19.14,22.61Z"/><path class="cls-3" d="M33,38.34l-.38,0Z"/><path class="cls-3" d="M44.93,28.71c-.14.47-.3.94-.5,1.46A9,9,0,0,0,44.93,28.71Z"/><path class="cls-3" d="M44.43,30.17l-.16.36C44.32,30.41,44.38,30.3,44.43,30.17Z"/><path class="cls-3" d="M45.11,28c-.07.28-.13.5-.18.68Z"/><path class="cls-3" d="M36.09,37.77l-.56.16A4.84,4.84,0,0,0,36.09,37.77Z"/><path class="cls-3" d="M40.53,35.4l-.84.62C39.94,35.86,40.16,35.69,40.53,35.4Z"/><path class="cls-3" d="M34.29,38.19h0l-.34.05Z"/><path class="cls-3" d="M33.49,38.3l-.47,0Z"/><path class="cls-3" d="M34,38.24l-.49.06Z"/><path class="cls-3" d="M35.53,37.93l-.55.13A5.61,5.61,0,0,0,35.53,37.93Z"/><path class="cls-3" d="M39.59,36.09l.1-.07,0,0A.18.18,0,0,1,39.59,36.09Z"/><path class="cls-3" d="M36.69,37.57l-.37.12-.23.08Z"/><path class="cls-3" d="M38.67,36.66h0l0,0Z"/><path class="cls-3" d="M38.65,36.67c-.26.14-.59.31-.89.45A9.2,9.2,0,0,0,38.65,36.67Z"/><path class="cls-3" d="M37.56,37.22l.2-.1-.3.14Z"/><path class="cls-3" d="M29.86,12l.51-.08Z"/><path class="cls-3" d="M37.57,13h0Z"/><path class="cls-3" d="M38.27,13.32l.72.4C38.69,13.54,38.53,13.45,38.27,13.32Z"/><path class="cls-3" d="M39,13.74l0,0h0Z"/><path class="cls-3" d="M42.14,16.35l.61.74C42.58,16.86,42.36,16.6,42.14,16.35Z"/><path class="cls-3" d="M41.07,15.25,40.75,15c.16.13.3.26.44.39Z"/><path class="cls-3" d="M40,14.38a.41.41,0,0,0-.11-.07c.23.16.47.35.87.67C40.53,14.79,40.22,14.56,40,14.38Z"/><path class="cls-3" d="M37,12.73l.11,0Z"/><path class="cls-3" d="M35.07,12.15h0Z"/><path class="cls-3" d="M33.6,11.91l.49.06Z"/><path class="cls-3" d="M35.67,12.3l.56.16C36,12.39,35.88,12.35,35.67,12.3Z"/><path class="cls-3" d="M35.11,12.16l.56.14A4.16,4.16,0,0,0,35.11,12.16Z"/><path class="cls-3" d="M44.15,19.4s0,0,0,0c.13.29.27.62.44,1C44.49,20.14,44.31,19.75,44.15,19.4Z"/><path class="cls-3" d="M37,12.73c-.3-.13-.41-.16-.73-.27l.47.16Z"/><path class="cls-3" d="M20,30.4l-.29-.67c.15.39.38.89.56,1.27a.14.14,0,0,0,0,.06,1.47,1.47,0,0,0-.1-.22c0-.1-.08-.2-.13-.3Z"/><path class="cls-3" d="M22.66,15.86l.14-.15a3.63,3.63,0,0,0-.27.28Z"/><path class="cls-3" d="M45.44,25.09a17.74,17.74,0,0,0-.22-2.36h0A10.75,10.75,0,0,0,44.32,20a3,3,0,0,0-.15-.57c-.13-.28-.26-.53-.39-.78a2.75,2.75,0,0,1,.31.9,11.86,11.86,0,0,0-1.68-2.31,2.58,2.58,0,0,0-.65-1.31l.38.41-.38-.41-.21-.23.18.2c-.16-.18-.34-.35-.54-.54a2.73,2.73,0,0,1,.86,1.51,12.75,12.75,0,0,0-2.32-1.78,2.36,2.36,0,0,0-1.08-1.51,7.2,7.2,0,0,1,1.23.72c-.24-.18-.47-.33-.87-.58a6.85,6.85,0,0,0-.71-.37l-.35-.2.32.16c-.23-.12-.39-.2-.69-.33l.33.15L37.58,13l-.08,0-.43-.18a6.89,6.89,0,0,1,.86.43,7.26,7.26,0,0,0-2.3-.49,4.91,4.91,0,0,0-1.51-.57,2.24,2.24,0,0,1,.93,0c-.61-.13-.62-.13-1-.18l.43.07a1.51,1.51,0,0,0-.73,0,9.38,9.38,0,0,0-1.54-.14h-.52a.21.21,0,0,0-.16-.1h-.25l-.24,0a.48.48,0,0,1,.28.1,7.33,7.33,0,0,0-1.83.36,4.48,4.48,0,0,0-1.61.2,8.31,8.31,0,0,0-.91.35l-.38.17.15-.08-.31.15c-.36.17-.52.25-.93.48l.72-.37a4.31,4.31,0,0,0-1.21.94,9.71,9.71,0,0,0-2.18,1.5l.15-.16c-.12.11-.24.22-.36.35l-.13.13-.15.16.15-.16-.26.28-.1.11-.14.16-.08.1,0-.06-.17.21-.55.76a9.41,9.41,0,0,1,1-1.19,2.28,2.28,0,0,0-.36,1.1,2.19,2.19,0,0,0,.27,1.1,13.79,13.79,0,0,0-1.64,2.52,2.55,2.55,0,0,1-.31-1.28,2.76,2.76,0,0,1,.34-1.16c-.12.24-.25.49-.39.8a2.32,2.32,0,0,0-.18.82,2.5,2.5,0,0,0,.31,1.3,12.3,12.3,0,0,0-.88,2.84,2.71,2.71,0,0,1-.34-1.4,3.11,3.11,0,0,1,0-.32c0,.22-.08.44-.11.69,0,0,0,.09,0,.14a2.72,2.72,0,0,0,.34,1.41,10.8,10.8,0,0,0-.1,1.5,10.18,10.18,0,0,0,.1,1.47,3,3,0,0,1-.3-.83l.09.55a3,3,0,0,0,.29.79,10.26,10.26,0,0,0,.59,2l.06.14.13.3a10.62,10.62,0,0,0,.9,1.57c-.1-.16-.2-.32-.29-.49A7.16,7.16,0,0,0,23.74,34a6.86,6.86,0,0,0,1.19,1.84,7.06,7.06,0,0,1-2-1.25l.44.41a7.22,7.22,0,0,0,1.83,1.11,5.66,5.66,0,0,0,1.64,1.13h0a12.8,12.8,0,0,0,1.28.48l-.47-.16a12.35,12.35,0,0,0,2.93.63.56.56,0,0,0,.26.1l-.24,0c.3,0,.36,0,.62.06h.13a.33.33,0,0,1-.16-.09c.28,0,.57,0,.86,0a15.12,15.12,0,0,0,2.58-.19,1.12,1.12,0,0,1-.31.1c.32,0,.4-.07.66-.13l-.14,0a2.3,2.3,0,0,0,.35-.1,8.85,8.85,0,0,0,1.13-.3c.54-.18.62-.21,1-.37l.13-.06a10,10,0,0,1-2.08.63,2.94,2.94,0,0,0,1-.92A12.82,12.82,0,0,0,40,35.71a6.66,6.66,0,0,1-1.29.94l.12-.06c.39-.24.63-.39.86-.55a6.82,6.82,0,0,0,.79-.63c.14-.09.27-.19.39-.28l.47-.43a4.69,4.69,0,0,1-.55.42,8,8,0,0,0,1.4-2,4.92,4.92,0,0,0,1.58-1.57c.08-.15.17-.3.25-.47a5,5,0,0,1-1.63,1.64,9.83,9.83,0,0,0,.76-2.53,4.43,4.43,0,0,0,2.06-2.56,14.37,14.37,0,0,0,.25-2Zm-21-1.2A22.71,22.71,0,0,1,25.56,21a17.23,17.23,0,0,0,4.32,1c-.15,1-.28,2-.38,3.08A20.53,20.53,0,0,1,24.47,23.89Zm5,1.66c-.09,1.05-.16,2.1-.2,3.14a22.55,22.55,0,0,1-5.51-1.21,20.23,20.23,0,0,1,.58-3.05A20.8,20.8,0,0,0,29.45,25.55Zm-3.66-5.08a21.09,21.09,0,0,1,1.5-2.63,12.75,12.75,0,0,0,3.19.7c-.19.9-.37,1.86-.52,2.85A17,17,0,0,1,25.79,20.47ZM32,22a23.29,23.29,0,0,0,3.73-.27c.23,1,.43,2,.58,3a27.16,27.16,0,0,1-4.34.32c-.48,0-1,0-1.43-.05.06-1,.14-2.08.23-3.09C31.16,22,31.57,22,32,22Zm-1.18-.57c.09-1,.2-2,.32-2.87l.91,0a17.15,17.15,0,0,0,2.75-.21c.3.89.57,1.83.81,2.81a21.75,21.75,0,0,1-3.6.27ZM32,25.69a27,27,0,0,0,4.42-.33c.15,1,.26,2.09.32,3.12a28.87,28.87,0,0,1-4.76.35c-.53,0-1.06,0-1.57,0,0-1,.07-2.09.12-3.14C31,25.67,31.46,25.68,32,25.69Zm4.41-4.6c-.3-1-.63-1.9-1-2.78a9.68,9.68,0,0,0,2.76-1A18,18,0,0,1,40,19.83,12.82,12.82,0,0,1,36.37,21.09Zm2.14-4a2.57,2.57,0,0,0,1.2-1.49A14,14,0,0,1,42,17.58a3.36,3.36,0,0,1-1.57,2A17.35,17.35,0,0,0,38.51,17.12ZM36.43,14a14.07,14.07,0,0,1,2.82,1.35,2.49,2.49,0,0,1-1.13,1.4,15.37,15.37,0,0,0-2.37-1.91A1.45,1.45,0,0,0,36.43,14Zm1.35,3a9.44,9.44,0,0,1-2.59.9A20.42,20.42,0,0,0,34,15.51,5.56,5.56,0,0,0,35.54,15,16.71,16.71,0,0,1,37.78,17Zm-3.15,1a16.17,16.17,0,0,1-2.58.2l-.86,0c.12-.89.25-1.71.39-2.45h.52a8.57,8.57,0,0,0,1.55-.11A22.18,22.18,0,0,1,34.63,18Zm-4.05.12a11.89,11.89,0,0,1-3-.66,16.85,16.85,0,0,1,1.82-2.17,7.47,7.47,0,0,0,1.8.4C31,16.37,30.78,17.19,30.58,18.07Zm-3.43-.83A4.33,4.33,0,0,1,25.41,16a14.62,14.62,0,0,1,2.69-1.61,2.61,2.61,0,0,0,1,.75A16,16,0,0,0,27.15,17.24Zm3.21,12.09c.52,0,1,.05,1.58.05A29.24,29.24,0,0,0,36.73,29c0,.51,0,1,0,1.52s0,1,0,1.45a29.24,29.24,0,0,1-4.79.35c-.54,0-1.06,0-1.58-.05,0-.46,0-.94,0-1.44S30.35,29.84,30.36,29.33Zm6.16-7.72a13,13,0,0,0,3.74-1.31,19.44,19.44,0,0,1,1.32,2.81,15.14,15.14,0,0,1-4.35,1.52C37,23.61,36.8,22.59,36.52,21.61Zm5.25,2a16.45,16.45,0,0,1,.71,3,16.85,16.85,0,0,1-4.76,1.66c-.08-1-.21-2.07-.39-3.1A16.09,16.09,0,0,0,41.77,23.64Zm-1-3.64a3.54,3.54,0,0,0,1.62-2,12.49,12.49,0,0,1,1.67,2.43,4.09,4.09,0,0,1-1.89,2.35A17,17,0,0,0,40.76,20Zm-2.51-6.59a2.29,2.29,0,0,1,1,1.42,13.51,13.51,0,0,0-2.83-1.14,1.32,1.32,0,0,0-.61-.85A8.32,8.32,0,0,1,38.25,13.41Zm-8.63-1a7.64,7.64,0,0,1,2.55.72,6.75,6.75,0,0,0-2.31-.81,7.19,7.19,0,0,1,1.6-.32,3.18,3.18,0,0,1,.71,1.13A4.21,4.21,0,0,0,31.78,12h.46a8.24,8.24,0,0,1,1.35.13,3.84,3.84,0,0,0-1.42,1,4.63,4.63,0,0,1,1.7-1,4.56,4.56,0,0,1,1.33.5,9.8,9.8,0,0,0-3,.48,11,11,0,0,1,3.2-.37,1.13,1.13,0,0,1,.53.75,14.67,14.67,0,0,0-3.73-.38,14.72,14.72,0,0,1,3.72.65,1.26,1.26,0,0,1-.59.73,13.21,13.21,0,0,0-3.13-1.38,12.78,12.78,0,0,1,2.95,1.49,4.6,4.6,0,0,1-1.36.48,11,11,0,0,0-1.59-2,11,11,0,0,1,1.3,2,7.51,7.51,0,0,1-1.36.1h-.45a19.38,19.38,0,0,1,.51-2.11,14.41,14.41,0,0,0-.84,2.08,6.64,6.64,0,0,1-1.57-.34,11.13,11.13,0,0,1,2.41-1.74,11.59,11.59,0,0,0-2.64,1.65,2.35,2.35,0,0,1-.92-.66,14.92,14.92,0,0,1,3.56-1,14.65,14.65,0,0,0-3.64.86.74.74,0,0,1-.1-.4.73.73,0,0,1,.13-.4,13.15,13.15,0,0,1,3.61-.06,13.06,13.06,0,0,0-3.52-.08A2.64,2.64,0,0,1,29.62,12.45Zm-2.29.3a5.32,5.32,0,0,1,1.93-.32,2.82,2.82,0,0,0-1.11.73,11,11,0,0,0-2.66.8A4.6,4.6,0,0,1,27.33,12.75Zm-2,1.46A11.5,11.5,0,0,1,28,13.32a1,1,0,0,0-.15.45.83.83,0,0,0,.11.46,15.7,15.7,0,0,0-2.76,1.51,1.51,1.51,0,0,1-.18-.77A1.59,1.59,0,0,1,25.31,14.21Zm1.51,3.45a20.42,20.42,0,0,0-1.64,2.57,6,6,0,0,1-2.42-1.73A14.57,14.57,0,0,1,25,16.34,4.64,4.64,0,0,0,26.82,17.66ZM22.61,16a11.22,11.22,0,0,1,2.25-1.58,1.65,1.65,0,0,0-.26.81,1.66,1.66,0,0,0,.19.81,14.92,14.92,0,0,0-2.26,2.08,2,2,0,0,1-.25-1.06A2.23,2.23,0,0,1,22.61,16Zm-.19,2.91a6.15,6.15,0,0,0,2.51,1.79,19.61,19.61,0,0,0-1.19,2.88,7.25,7.25,0,0,1-2.92-2.08A13.91,13.91,0,0,1,22.42,18.93ZM20.59,22a7.29,7.29,0,0,0,3,2.13,19.93,19.93,0,0,0-.64,3,7.84,7.84,0,0,1-3.2-2.29A12.79,12.79,0,0,1,20.59,22Zm-1,4.9a12.59,12.59,0,0,1,.1-1.5,7.93,7.93,0,0,0,3.23,2.3c-.05.51-.08,1-.08,1.51a13.68,13.68,0,0,0,.08,1.46,8,8,0,0,1-3.23-2.3A11.83,11.83,0,0,1,19.55,26.9Zm1,4.6a9.9,9.9,0,0,1-.86-2.63,8,8,0,0,0,3.2,2.29,10.54,10.54,0,0,0,.65,2.46A7.35,7.35,0,0,1,20.59,31.5Zm3-2c0-.5,0-1,.06-1.52a22.52,22.52,0,0,0,5.55,1.22c0,.51,0,1,0,1.53s0,1,0,1.44A23,23,0,0,1,23.68,31C23.64,30.53,23.62,30,23.62,29.54Zm.12,1.94a22.55,22.55,0,0,0,5.51,1.21c0,.88.11,1.67.2,2.36a21.25,21.25,0,0,1-5.13-1.13A10.77,10.77,0,0,1,23.74,31.48Zm.73,2.82a20.55,20.55,0,0,0,5,1.1A9.77,9.77,0,0,0,29.88,37a17.7,17.7,0,0,1-4.32-.94A7.25,7.25,0,0,1,24.47,34.3Zm2.82,3.13a4.73,4.73,0,0,1-1.5-1.08,17,17,0,0,0,4.17.92,2.14,2.14,0,0,0,.52.85A13.22,13.22,0,0,1,27.29,37.43Zm7.5.57a17.15,17.15,0,0,1-2.75.21l-.91,0a2.47,2.47,0,0,1-.32-.85c.39,0,.78,0,1.19,0a21.78,21.78,0,0,0,3.6-.26A2.45,2.45,0,0,1,34.79,38Zm.93-1.12a22.19,22.19,0,0,1-3.73.27c-.42,0-.83,0-1.23,0a14.81,14.81,0,0,1-.23-1.63c.47,0,.95.05,1.43.05a26,26,0,0,0,4.34-.32A7.2,7.2,0,0,1,35.72,36.88ZM32,35.18c-.5,0-1,0-1.47,0,0-.69-.1-1.47-.12-2.35.51,0,1,0,1.57,0a28.87,28.87,0,0,0,4.76-.35,16.6,16.6,0,0,1-.32,2.37A27,27,0,0,1,32,35.18Zm8.3.25a13.28,13.28,0,0,1-3.74,1.3A7,7,0,0,0,37.23,35a15.14,15.14,0,0,0,4.35-1.52A8.2,8.2,0,0,1,40.26,35.43Zm1.51-2.3a15.77,15.77,0,0,1-4.44,1.55,15.1,15.1,0,0,0,.39-2.39,16.85,16.85,0,0,0,4.76-1.66A10.1,10.1,0,0,1,41.77,33.13Zm.78-3a17,17,0,0,1-4.8,1.68c0-.46,0-.94,0-1.45s0-1,0-1.52a16.71,16.71,0,0,0,4.8-1.68c.05.51.08,1,.08,1.52a13.64,13.64,0,0,1-.08,1.45Zm-.19-6.86a4.17,4.17,0,0,0,1.93-2.39,11.59,11.59,0,0,1,.9,2.78,4.52,4.52,0,0,1-2.07,2.58A15.42,15.42,0,0,0,42.36,23.27Zm2.91,3.88a4.52,4.52,0,0,1-2.08,2.59,13.83,13.83,0,0,0,.08-1.46c0-.5,0-1-.08-1.51a4.52,4.52,0,0,0,2.08-2.59,10.56,10.56,0,0,1,.1,1.49A10.41,10.41,0,0,1,45.27,27.15Z"/><path class="cls-3" d="M41.31,34.7l.23-.21.19-.2Z"/><path class="cls-3" d="M44.15,19.4l-.09-.21Z"/><path class="cls-3" d="M45.2,22.61a9.78,9.78,0,0,0-.27-1.15,11.41,11.41,0,0,1,.29,1.27A.5.5,0,0,0,45.2,22.61Z"/><path class="cls-3" d="M43.76,18.62l0,0,.05.07A.05.05,0,0,1,43.76,18.62Z"/><path class="cls-3" d="M42.75,17.09c.31.44.7,1,1,1.5A15.9,15.9,0,0,0,42.75,17.09Z"/><path class="cls-3" d="M33.12,11.86l.48.05C33.41,11.88,33.33,11.88,33.12,11.86Z"/><path class="cls-3" d="M44.61,20.47c.15.45.25.76.32,1C44.84,21.15,44.73,20.82,44.61,20.47Z"/><path class="cls-3" d="M20.81,18.23l0,.05a.41.41,0,0,1,.05-.09Z"/><path class="cls-3" d="M20.84,18.19l.18-.27Z"/><path class="cls-3" d="M21,17.92l.25-.37C21.18,17.67,21.1,17.79,21,17.92Z"/><path class="cls-3" d="M24.65,14.17c.23-.16.48-.31.89-.57C25.13,13.85,24.9,14,24.65,14.17Z"/><path class="cls-3" d="M19.15,22.55c.09-.38.15-.66.21-.88C19.28,22,19.21,22.24,19.15,22.55Z"/><path class="cls-3" d="M23.28,15.25l-.26.26c.28-.27.55-.5.79-.71Z"/><path class="cls-3" d="M23.81,14.8c.38-.3.62-.47.84-.63C24.4,14.34,24.18,14.51,23.81,14.8Z"/><path class="cls-3" d="M19.36,21.67c.15-.54.33-1.06.55-1.64A10.48,10.48,0,0,0,19.36,21.67Z"/><path class="cls-3" d="M19.91,20l.16-.37C20,19.77,20,19.89,19.91,20Z"/><path class="cls-3" d="M32.7,11.84l.42,0Z"/><path class="cls-3" d="M20.62,18.57l.17-.29A2.75,2.75,0,0,0,20.62,18.57Z"/><path class="cls-3" d="M20.59,18.62l0,0,.05-.07Z"/><path class="cls-3" d="M20.28,19.19l-.21.47.11-.22A1.86,1.86,0,0,1,20.28,19.19Z"/><path class="cls-3" d="M31.05,11.87l-.15,0,.18,0S31.06,11.87,31.05,11.87Z"/><path class="cls-3" d="M31.57,11.84Z"/><path class="cls-3" d="M31.76,11.84h0Z"/><path class="cls-3" d="M32,11.83h0Z"/><path class="cls-3" d="M27.84,12.56l.08,0,.34-.11Z"/><path class="cls-3" d="M32.27,11.83h0Z"/><path class="cls-3" d="M28.26,12.42l.55-.16Z"/><path class="cls-3" d="M30.37,12l.53-.06Z"/><path class="cls-3" d="M28.81,12.26l.55-.13A5.61,5.61,0,0,0,28.81,12.26Z"/><path class="cls-3" d="M29.36,12.13l.5-.1Z"/></svg>