<?xml version="1.0" encoding="utf-8"?>
<!-- Generator: Adobe Illustrator 27.0.0, SVG Export Plug-In . SVG Version: 6.00 Build 0)  -->
<svg version="1.1" id="Layer_1" xmlns="http://www.w3.org/2000/svg" xmlns:xlink="http://www.w3.org/1999/xlink" x="0px" y="0px"
	 viewBox="0 0 500 500" style="enable-background:new 0 0 500 500;" xml:space="preserve">
<style type="text/css">
	.st0{fill:#DEFF5B;}
	.st1{fill:none;stroke:#DEFF5B;stroke-width:13;stroke-miterlimit:10;}
	.st2{fill:url(#SVGID_1_);}
	.st3{fill:url(#SVGID_00000114779330053967251090000018061657735293059487_);}
	.st4{fill:url(#SVGID_00000060733389530067064930000017694388184003098555_);}
	.st5{fill:url(#SVGID_00000061432237134664811990000015551096006818639265_);}
	.st6{fill:url(#SVGID_00000171687494216676427430000000655729477989581756_);}
	.st7{fill:url(#SVGID_00000167389370376635812070000001150646506835751825_);}
	.st8{fill:url(#SVGID_00000127012535081682743170000016839394981032087966_);}
	.st9{fill:url(#SVGID_00000145041954163415700770000008836566363695766175_);}
	.st10{fill:url(#SVGID_00000041280123912191931780000017689111336976836241_);}
	.st11{fill:url(#SVGID_00000088853820374466106480000012483494687181407371_);}
	.st12{fill:url(#SVGID_00000136408324974508030770000013739265771596905637_);}
	.st13{fill:url(#SVGID_00000035529786945549342970000014389524476578487951_);}
</style>
<g>
	<path class="st0" d="M269.3,200.3l-0.1-1.6c-0.1-3.9-0.9-7.6-2.3-11.2c-1.5-3.6-3.7-6.9-6.4-9.8c-2.7-2.8-5.9-5-9.5-6.6
		c-3.7-1.6-7.6-2.5-11.6-2.5h-21.1v12.8h21.1c9.3,0,16.8,7.4,17.2,17.1l0.1,1.6c0.1,3.9,0.9,7.6,2.3,11.2c1.5,3.6,3.7,6.9,6.4,9.8
		c2.7,2.8,5.9,5,9.5,6.6c3.7,1.6,7.6,2.4,11.6,2.3h20.6v-12.7h-20.6C277.2,217.4,269.7,209.9,269.3,200.3"/>
	<path class="st0" d="M273,199.1l0.1,1.6c0,1.4,0.3,2.9,0.9,4.2h33.2v-12.1h-34.8C272.7,194.9,273,197.1,273,199.1"/>
	<path class="st0" d="M253.2,205.1c0-1.5-0.1-2.8-0.1-3.9l-0.1-1.6c-0.1-2.3-0.7-4.7-2-6.6h-32.5v12.1H253.2z"/>
	<path class="st0" d="M254.3,208.8c-1.6,2.6-3.7,4.7-6.3,6.2c-2.6,1.5-5.5,2.3-8.4,2.3h-21.2v12.5h21.2c4.2,0,8.1-0.7,11.6-2.3
		c3.5-1.5,6.7-3.6,9.3-6.4c-2-2.5-3.6-5.2-4.8-8.2C255.1,211.5,254.6,210.2,254.3,208.8"/>
	<path class="st0" d="M286.7,168.8c-4,0-7.9,0.9-11.6,2.5c-3.5,1.5-6.7,3.6-9.3,6.4c2,2.5,3.6,5.2,4.8,8.2c0.5,1.4,1,2.8,1.4,4.2
		c1.5-2.6,3.7-4.7,6.3-6.2s5.5-2.3,8.4-2.3h20.5v-12.8L286.7,168.8L286.7,168.8z"/>
</g>
<path class="st0" d="M276.7,199.3c0,1.8-0.5,3.5-1.2,5.3h81c0.5-1.7,0.8-3.4,0.8-5.1c0-2.2-0.5-4.5-1.4-6.7H275
	C276,195,276.7,197.1,276.7,199.3L276.7,199.3z"/>
<path class="st0" d="M189.8,181.5c8.2-33.6,38.5-58.5,74.6-58.5s66.4,25,74.6,58.5h16.5c-8.5-41.7-45.5-73.1-89.7-73.1
	s-81.1,31.3-89.7,73H189.8L189.8,181.5z"/>
<path class="st0" d="M190.5,204.2c-0.1-1.6-0.2-3.2-0.2-4.8c0-2.2,0.1-4.3,0.4-6.4h-16.2c-0.2,2.2-0.3,4.4-0.3,6.6
	c0,1.9,0.1,3.7,0.2,5.5h16.2C190.6,204.8,190.5,204.5,190.5,204.2z"/>
<path class="st0" d="M188.4,217.5c8.2,33.6,38.5,58.5,74.6,58.5s66.4-24.9,74.6-58.6h16.5c-8.5,41.7-45.5,73.1-89.7,73.1
	s-81.1-31.3-89.7-73L188.4,217.5L188.4,217.5z"/>
<polygon class="st0" points="302.9,181.6 339,181.6 338.1,168.6 302.9,168.8 "/>
<polygon class="st0" points="307.1,192.9 341.4,192.9 341.5,204.6 307.1,205 "/>
<polygon class="st0" points="302.9,217.4 337.6,217.4 337.6,229.8 302.9,230.1 "/>
<polygon class="st0" points="229.4,181.5 176.1,181.5 190.8,169.4 191.5,168.8 229.4,168.6 "/>
<polygon class="st0" points="174.5,193 247.7,193 247.7,205.1 174.2,205.1 "/>
<polygon class="st0" points="222.9,217.2 185.1,217.5 184.4,230.1 222.9,229.8 "/>
<circle class="st1" cx="264.4" cy="199.5" r="110.4"/>
<linearGradient id="SVGID_1_" gradientUnits="userSpaceOnUse" x1="346.73" y1="376.325" x2="495.97" y2="376.325" gradientTransform="matrix(1 0 0 -1 0 500)">
	<stop  offset="0" style="stop-color:#DEFF5B;stop-opacity:0.3"/>
	<stop  offset="0.33" style="stop-color:#DEFF5B;stop-opacity:0.52"/>
	<stop  offset="1" style="stop-color:#DEFF5B"/>
</linearGradient>
<path class="st2" d="M357.4,130.4H496v-13.3c-49.8,0-99.5-0.1-149.2-0.1C350.3,121.4,353.8,125.9,357.4,130.4L357.4,130.4z"/>
<linearGradient id="SVGID_00000172402185343084050570000016374603127427286150_" gradientUnits="userSpaceOnUse" x1="357.35" y1="350.705" x2="495.97" y2="350.705" gradientTransform="matrix(1 0 0 -1 0 500)">
	<stop  offset="0" style="stop-color:#DEFF5B;stop-opacity:0.3"/>
	<stop  offset="0.33" style="stop-color:#DEFF5B;stop-opacity:0.52"/>
	<stop  offset="1" style="stop-color:#DEFF5B"/>
</linearGradient>
<path style="fill:url(#SVGID_00000172402185343084050570000016374603127427286150_);" d="M367.2,156H496v-13.4
	c-46.2,0-92.4-0.1-138.6-0.1C360.6,147.1,363.9,151.5,367.2,156L367.2,156z"/>
<linearGradient id="SVGID_00000110465927839478266790000010322664602264191626_" gradientUnits="userSpaceOnUse" x1="367.31" y1="325.525" x2="495.96" y2="325.525" gradientTransform="matrix(1 0 0 -1 0 500)">
	<stop  offset="0" style="stop-color:#DEFF5B;stop-opacity:0.3"/>
	<stop  offset="0.33" style="stop-color:#DEFF5B;stop-opacity:0.52"/>
	<stop  offset="1" style="stop-color:#DEFF5B"/>
</linearGradient>
<path style="fill:url(#SVGID_00000110465927839478266790000010322664602264191626_);" d="M376.5,181.2H496v-13.4
	c-42.9,0-85.8-0.1-128.6-0.1C370.4,172.2,373.4,176.7,376.5,181.2L376.5,181.2z"/>
<linearGradient id="SVGID_00000000942088916549455200000011334965399732126858_" gradientUnits="userSpaceOnUse" x1="367.32" y1="274.755" x2="496.01" y2="274.755" gradientTransform="matrix(1 0 0 -1 0 500)">
	<stop  offset="0" style="stop-color:#DEFF5B;stop-opacity:0.3"/>
	<stop  offset="0.33" style="stop-color:#DEFF5B;stop-opacity:0.52"/>
	<stop  offset="1" style="stop-color:#DEFF5B"/>
</linearGradient>
<path style="fill:url(#SVGID_00000000942088916549455200000011334965399732126858_);" d="M376.5,232H496v-13.4
	c-42.9,0-85.8-0.1-128.7-0.1C370.4,223,373.4,227.5,376.5,232L376.5,232z"/>
<linearGradient id="SVGID_00000158030332270380330610000012182599488738029978_" gradientUnits="userSpaceOnUse" x1="358.72" y1="249.495" x2="496" y2="249.495" gradientTransform="matrix(1 0 0 -1 0 500)">
	<stop  offset="0" style="stop-color:#DEFF5B;stop-opacity:0.3"/>
	<stop  offset="0.33" style="stop-color:#DEFF5B;stop-opacity:0.52"/>
	<stop  offset="1" style="stop-color:#DEFF5B"/>
</linearGradient>
<path style="fill:url(#SVGID_00000158030332270380330610000012182599488738029978_);" d="M365.6,257.2H496v-13.4
	c-46.8,0-90.5-0.1-137.3-0.1C362,248.3,362.3,252.7,365.6,257.2z"/>
<linearGradient id="SVGID_00000072246471668601210970000011844971650397192082_" gradientUnits="userSpaceOnUse" x1="341.73" y1="223.525" x2="496.01" y2="223.525" gradientTransform="matrix(1 0 0 -1 0 500)">
	<stop  offset="0" style="stop-color:#DEFF5B;stop-opacity:0.3"/>
	<stop  offset="0.33" style="stop-color:#DEFF5B;stop-opacity:0.52"/>
	<stop  offset="1" style="stop-color:#DEFF5B"/>
</linearGradient>
<path style="fill:url(#SVGID_00000072246471668601210970000011844971650397192082_);" d="M345.6,283.2H496v-13.4
	c-54,0-100.3-0.1-154.3-0.1C345.6,274.2,341.8,278.7,345.6,283.2L345.6,283.2z"/>
<linearGradient id="SVGID_00000031195787401299908730000010786054935731315342_" gradientUnits="userSpaceOnUse" x1="4.04" y1="174.105" x2="161.27" y2="174.105">
	<stop  offset="0" style="stop-color:#DEFF5B;stop-opacity:0.1"/>
	<stop  offset="1" style="stop-color:#DEFF5B"/>
</linearGradient>
<path style="fill:url(#SVGID_00000031195787401299908730000010786054935731315342_);" d="M150.1,180.8H4v-13.4
	c52.4,0,104.8-0.1,157.2-0.1C157.5,171.9,153.8,176.3,150.1,180.8L150.1,180.8z"/>
<linearGradient id="SVGID_00000103943330701003644050000010026812533201520556_" gradientUnits="userSpaceOnUse" x1="4.04" y1="199.725" x2="161.27" y2="199.725">
	<stop  offset="0" style="stop-color:#DEFF5B;stop-opacity:0.1"/>
	<stop  offset="1" style="stop-color:#DEFF5B"/>
</linearGradient>
<path style="fill:url(#SVGID_00000103943330701003644050000010026812533201520556_);" d="M150.1,206.5H4v-13.4
	c52.4,0,104.8-0.1,157.2-0.1C157.5,197.5,153.8,202,150.1,206.5L150.1,206.5z"/>
<linearGradient id="SVGID_00000137116454452151741850000005002492693605266600_" gradientUnits="userSpaceOnUse" x1="4.04" y1="224.905" x2="162.79" y2="224.905">
	<stop  offset="0" style="stop-color:#DEFF5B;stop-opacity:0.1"/>
	<stop  offset="1" style="stop-color:#DEFF5B"/>
</linearGradient>
<path style="fill:url(#SVGID_00000137116454452151741850000005002492693605266600_);" d="M151.5,231.6H4v-13.4
	c52.9,0,105.8-0.1,158.8-0.1C159,222.7,155.3,227.1,151.5,231.6L151.5,231.6z"/>
<linearGradient id="SVGID_00000121963154083932758670000015707425055492922240_" gradientUnits="userSpaceOnUse" x1="3.99" y1="282.065" x2="192.8991" y2="282.065">
	<stop  offset="0" style="stop-color:#DEFF5B;stop-opacity:0.1"/>
	<stop  offset="1" style="stop-color:#DEFF5B"/>
</linearGradient>
<path style="fill:url(#SVGID_00000121963154083932758670000015707425055492922240_);" d="M191.5,288.8H4v-13.4
	c62.8,0,125.6-0.1,188.4-0.1C188,279.8,196,284.3,191.5,288.8z"/>
<linearGradient id="SVGID_00000035510857354132534350000008982726916012924288_" gradientUnits="userSpaceOnUse" x1="3.99" y1="307.315" x2="219.73" y2="307.315">
	<stop  offset="0" style="stop-color:#DEFF5B;stop-opacity:0.1"/>
	<stop  offset="1" style="stop-color:#DEFF5B"/>
</linearGradient>
<path style="fill:url(#SVGID_00000035510857354132534350000008982726916012924288_);" d="M208.8,314H4v-13.4
	c73.5,0,142.2-0.1,215.7-0.1C214.5,305.1,214.1,309.6,208.8,314L208.8,314z"/>
<linearGradient id="SVGID_00000156588664715591787050000015589270678211799954_" gradientUnits="userSpaceOnUse" x1="3.99" y1="333.285" x2="208.9" y2="333.285">
	<stop  offset="0" style="stop-color:#DEFF5B;stop-opacity:0.1"/>
	<stop  offset="1" style="stop-color:#DEFF5B"/>
</linearGradient>
<path style="fill:url(#SVGID_00000156588664715591787050000015589270678211799954_);" d="M203.7,340H4v-13.4
	c71.7,0,133.2-0.1,204.9-0.1C203.8,331,208.8,335.5,203.7,340L203.7,340z"/>
<polygon class="st0" points="293.4,437.9 303.1,421.2 270.5,316.1 257.5,316.1 225.9,420.5 234.3,438.6 264.1,340 "/>
<polygon class="st0" points="355.7,419.6 320.2,302.3 307.1,308 338.7,410.2 "/>
<polygon class="st0" points="172.4,419.6 207.9,302.3 220.9,308 189.4,410.2 "/>
<polygon class="st0" points="204.7,402.4 213.1,397.4 217.2,405.1 245.4,314.8 231.8,311.8 "/>
<polygon class="st0" points="323.5,402.4 315.1,397.4 311,405.1 282.8,314.8 296.4,311.8 "/>
</svg>
