<svg id="Layer_1" data-name="Layer 1" xmlns="http://www.w3.org/2000/svg" viewBox="0 0 65 65"><defs><style>.cls-1{fill:#2547fe;}.cls-2,.cls-3{fill:#deff5b;stroke:#deff5b;stroke-miterlimit:10;}.cls-2{stroke-width:0.08px;}.cls-3{stroke-width:0.32px;}</style></defs><circle class="cls-1" cx="32.29" cy="32.76" r="30.1"/><path class="cls-2" d="M51.84,50.39H12.74c-2.28,0-3.25-3.1-3.36-3.45a.8.8,0,0,1,.77-1H28.27a.81.81,0,0,1,.68.37.57.57,0,0,0,.33.27h6.59a.56.56,0,0,0,.34-.27.8.8,0,0,1,.67-.37H54.43a.8.8,0,0,1,.77,1C55.1,47.29,54.12,50.39,51.84,50.39ZM11.35,47.51c.34.64.84,1.28,1.39,1.28h39.1c.56,0,1-.64,1.4-1.28h-16a1.77,1.77,0,0,1-1.39.64H29.28a1.78,1.78,0,0,1-1.39-.64Z"/><path class="cls-2" d="M47,45H17.53a4,4,0,0,1-4-4.17V22.22a4,4,0,0,1,4-4.16h2.72a.8.8,0,0,1,0,1.6H17.53a2.43,2.43,0,0,0-2.39,2.56V40.78a2.42,2.42,0,0,0,2.39,2.57H47a2.72,2.72,0,0,0,2.72-2.57V22.22A2.69,2.69,0,0,0,47,19.66H44.25a.8.8,0,0,1,0-1.6H47a4.3,4.3,0,0,1,4.32,4.16V40.78A4.31,4.31,0,0,1,47,45Z"/><path class="cls-2" d="M47.29,41.75H17.53a.79.79,0,0,1-.79-.79V22.07a.8.8,0,0,1,.79-.81h2.72a.8.8,0,0,1,0,1.6H18.34V40.15H46.5V22.86H44.25a.8.8,0,1,1,0-1.6h3a.82.82,0,0,1,.81.81V41A.8.8,0,0,1,47.29,41.75Z"/><path class="cls-2" d="M32.25,35.2a.73.73,0,0,1-.33-.08c-.4-.19-9.74-4.64-9.74-11.68v-8.6a.81.81,0,0,1,.27-.61.8.8,0,0,1,.65-.18,10.24,10.24,0,0,0,4.7-.62,8.64,8.64,0,0,0,3.67-2.67.8.8,0,0,1,.64-.34.86.86,0,0,1,.65.32,9.62,9.62,0,0,0,3.79,2.69,10.83,10.83,0,0,0,4.87.61.83.83,0,0,1,.64.19.82.82,0,0,1,.28.61v8.6c0,7-9.35,11.49-9.75,11.68A.77.77,0,0,1,32.25,35.2ZM23.78,15.7v7.74c0,5.34,6.86,9.22,8.48,10.06,1.62-.84,8.48-4.72,8.48-10.06V15.7A12.42,12.42,0,0,1,36,14.93a11.51,11.51,0,0,1-3.84-2.5,10.59,10.59,0,0,1-3.76,2.5A12,12,0,0,1,23.78,15.7Z"/><path class="cls-3" d="M33.11,22.2l-1.46,1.58-.77-.71a.23.23,0,1,0-.31.34l.93.87a.25.25,0,0,0,.16.06h0a.21.21,0,0,0,.16-.08l1.61-1.74a.24.24,0,0,0,0-.33A.22.22,0,0,0,33.11,22.2Z"/><path class="cls-3" d="M38.23,23.07c-.11-.14-2.81-3.3-6.21-3.3s-6.1,3.16-6.21,3.3a.23.23,0,0,0,0,.29c.11.14,2.81,3.3,6.21,3.3s6.1-3.16,6.21-3.3A.23.23,0,0,0,38.23,23.07ZM32,26a2.76,2.76,0,1,1,2.76-2.76A2.76,2.76,0,0,1,32,26ZM26.3,23.22a10.29,10.29,0,0,1,4-2.7,3.21,3.21,0,0,0-.11,5.35A10.47,10.47,0,0,1,26.3,23.22Zm7.55,2.66a3.21,3.21,0,0,0-.11-5.36,10.21,10.21,0,0,1,4,2.7A10.38,10.38,0,0,1,33.85,25.88Z"/></svg>