<?xml version="1.0" encoding="UTF-8"?>
<svg id="Layer_2" data-name="Layer 2" xmlns="http://www.w3.org/2000/svg" viewBox="0 0 267.82 268.3">
  <defs>
    <style>
      .cls-1 {
        fill: #ccc;
      }
    </style>
  </defs>
  <g id="Layer_1-2" data-name="Layer 1">
    <g>
      <path class="cls-1" d="M223.87,268.3h-68.54c-.87-.55-1.83-.14-2.73-.27-.81,0-1.63,0-2.44,0-1.06,.14-2.17-.3-3.2,.27h-5.23c-3.77-.64-7.6-.43-11.4-.75-13.86-1.17-27.44-3.81-40.84-7.42-5.05-1.36-10.08-2.79-15.03-4.49-3.43-1.18-3.58-1.37-3.58-5.34,0-30.6,0-61.2,0-91.81,0-14.73,.06-29.47-.05-44.2-.02-2.91,.92-4.89,3.22-6.65,8.17-6.25,16.14-12.78,23.26-20.23,6.69-7,13.18-14.21,17.67-22.91,3.61-6.99,5.92-14.52,8.79-21.82,3.37-8.6,6.5-17.3,9.95-25.87,2.4-5.96,6.14-11,11.9-14.13,10.62-5.77,29.41-2.69,33.76,13.77,2.58,9.78,2.67,19.64,2.08,29.58-.91,15.35-3.73,30.43-6.81,45.46-.49,2.38,.79,2.37,2.45,2.37,16.74-.02,33.48-.07,50.22,.02,6.75,.03,13.29,.89,19.27,4.67,11.75,7.42,16.56,22.67,10.79,35.31-.33,.71-.64,1.44-1.04,2.11-.81,1.36-.57,2.32,.74,3.32,3.65,2.79,6.49,6.23,8.59,10.37,1.43,2.82,1.62,5.81,2.17,8.76v2.09c-.5,.58-.18,1.27-.27,1.9,.03,.42-.11,.89,.27,1.24v2.09c-.84,7.9-4.77,14.02-10.93,18.8-1.33,1.03-1.36,1.89-.6,3.29,6.85,12.48,3.52,28.73-9.8,37.36-1.53,.99-1.63,1.95-.91,3.46,6.67,13.97,.73,30.08-12.54,37.15-2.94,1.57-6.03,2-9.18,2.5Z"/>
      <path class="cls-1" d="M55.75,184.28c0,21.18-.03,42.35,.04,63.53,0,1.99-.41,2.65-2.55,2.64-14.55-.1-29.11-.05-43.66-.06-6.57,0-9.57-3.03-9.57-9.61,0-37.73,0-75.47,0-113.2,0-6.45,3-9.45,9.41-9.45,14.55,0,29.11,.04,43.66-.05,2.14-.01,2.74,.47,2.73,2.68-.09,21.18-.06,42.35-.06,63.53Z"/>
    </g>
  </g>
</svg>