<svg id="Layer_1" data-name="Layer 1" xmlns="http://www.w3.org/2000/svg" viewBox="0 0 65 65"><defs><style>.cls-1{fill:#2547fe;}.cls-2{fill:#deff5b;stroke:#deff5b;stroke-width:0.28px;}</style></defs><circle class="cls-1" cx="32.86" cy="32.61" r="30.1"/><path class="cls-2" d="M32.86,23.82A4.05,4.05,0,0,1,29,19.59a4.06,4.06,0,0,1,3.84-4.24,4.06,4.06,0,0,1,3.85,4.24A4.06,4.06,0,0,1,32.86,23.82Zm0-7.47A3.07,3.07,0,0,0,30,19.59a3.06,3.06,0,0,0,2.84,3.23,3.06,3.06,0,0,0,2.85-3.23A3.07,3.07,0,0,0,32.86,16.35Z"/><path class="cls-2" d="M39.1,32.3H26.62a1.77,1.77,0,0,1-1.77-1.77c0-2.19.49-4.82,4.24-5.87a.5.5,0,1,1,.27,1c-3.08.86-3.51,2.86-3.51,4.89a.78.78,0,0,0,.77.79H39.1a.77.77,0,0,0,.77-.77c0-2.05-.42-4.05-3.5-4.91a.5.5,0,1,1,.27-1c3.75,1.05,4.23,3.68,4.23,5.85A1.77,1.77,0,0,1,39.1,32.3Z"/><path class="cls-2" d="M16,38.81a3.72,3.72,0,0,1,0-7.4,3.72,3.72,0,0,1,0,7.4Zm0-6.4a2.72,2.72,0,0,0,0,5.4,2.72,2.72,0,0,0,0-5.4Z"/><path class="cls-2" d="M21.29,46H10.6A1.58,1.58,0,0,1,9,44.45c0-1.76.38-4.18,3.68-5.1a.5.5,0,0,1,.27,1c-2.59.73-3,2.41-3,4.12a.59.59,0,0,0,.58.6H21.29a.58.58,0,0,0,.58-.58c0-1.73-.35-3.41-2.95-4.14a.5.5,0,0,1,.27-1c3.3.92,3.68,3.34,3.68,5.08A1.59,1.59,0,0,1,21.29,46Z"/><path class="cls-2" d="M49.78,38.81a3.72,3.72,0,1,1,3.36-3.7A3.55,3.55,0,0,1,49.78,38.81Zm0-6.4a2.72,2.72,0,1,0,2.36,2.7A2.55,2.55,0,0,0,49.78,32.41Z"/><path class="cls-2" d="M55.12,46H44.44a1.59,1.59,0,0,1-1.59-1.58c0-1.76.38-4.18,3.68-5.1a.51.51,0,0,1,.62.35.5.5,0,0,1-.35.61c-2.59.73-2.95,2.41-2.95,4.12a.59.59,0,0,0,.59.6H55.12a.59.59,0,0,0,.59-.58c0-1.73-.36-3.41-3-4.14a.5.5,0,0,1-.35-.61.51.51,0,0,1,.62-.35c3.3.92,3.68,3.34,3.68,5.08A1.59,1.59,0,0,1,55.12,46Z"/><path class="cls-2" d="M24.2,40a.54.54,0,0,1-.36-.14l-3.15-3.16a.47.47,0,0,1-.15-.35.49.49,0,0,1,.15-.36l3.15-3.15a.51.51,0,0,1,.55-.11.51.51,0,0,1,.31.46V34.4H38.75a.5.5,0,0,1,.5.5.5.5,0,0,1-.5.5H24.2a.5.5,0,0,1-.5-.5v-.46l-1.95,2,1.95,1.94v-.46a.5.5,0,0,1,.5-.5h5.36a.5.5,0,0,1,.5.5.5.5,0,0,1-.5.5H24.7v1.17a.52.52,0,0,1-.31.47A.63.63,0,0,1,24.2,40Z"/><path class="cls-2" d="M38.37,45.24a.41.41,0,0,1-.19,0,.5.5,0,0,1-.31-.46V43.57h-11a.51.51,0,0,1-.5-.5.5.5,0,0,1,.5-.5h11.5a.5.5,0,0,1,.5.5v.46l2-2-2-1.94v.46a.5.5,0,0,1-.5.5H35.16a.5.5,0,0,1,0-1h2.71V38.43a.5.5,0,0,1,.85-.36l3.16,3.16a.5.5,0,0,1,.14.35.52.52,0,0,1-.14.36l-3.16,3.15A.47.47,0,0,1,38.37,45.24Z"/></svg>