<svg width="47" height="33" viewBox="0 0 47 33" fill="none" xmlns="http://www.w3.org/2000/svg">
<g clip-path="url(#clip0)">
<path d="M11 10.9134H10.9074C13.8193 8.11705 17.7325 6.55216 21.807 6.55453V0.495361C16.1743 0.501657 10.7622 2.64433 6.70231 6.4753C2.64246 10.3063 0.249259 15.5289 0.023157 21.0511C0.023157 21.267 0 21.4828 0 21.7025C0 21.7328 0 21.7668 0 21.7971C0 21.8274 0 21.8615 0 21.8918C0.0380258 24.0181 0.715438 26.0861 1.94719 27.836C3.17894 29.5858 4.91011 30.9397 6.92338 31.7275C8.93664 32.5153 11.1422 32.702 13.2633 32.2641C15.3843 31.8262 17.3262 30.7832 18.8452 29.2662C20.3641 27.7491 21.3925 25.8256 21.8011 23.737C22.2097 21.6485 21.9803 19.4881 21.1418 17.5271C20.3033 15.566 18.893 13.8916 17.0879 12.7143C15.2829 11.537 13.1636 10.9091 10.9961 10.9096L11 10.9134Z" fill="#2547FE"/>
</g>
<g clip-path="url(#clip1)">
<path d="M36 10.9134H35.9074C38.8193 8.11705 42.7325 6.55216 46.807 6.55453V0.495361C41.1743 0.501657 35.7622 2.64433 31.7023 6.4753C27.6425 10.3063 25.2493 15.5289 25.0232 21.0511C25.0232 21.267 25 21.4828 25 21.7025C25 21.7328 25 21.7668 25 21.7971C25 21.8274 25 21.8615 25 21.8918C25.038 24.0181 25.7154 26.0861 26.9472 27.836C28.1789 29.5858 29.9101 30.9397 31.9234 31.7275C33.9366 32.5153 36.1422 32.702 38.2633 32.2641C40.3843 31.8262 42.3262 30.7832 43.8452 29.2662C45.3641 27.7491 46.3925 25.8256 46.8011 23.737C47.2097 21.6485 46.9803 19.4881 46.1418 17.5271C45.3033 15.566 43.893 13.8916 42.0879 12.7143C40.2829 11.537 38.1636 10.9091 35.9961 10.9096L36 10.9134Z" fill="#2547FE"/>
</g>
<defs>
<clipPath id="clip0">
<rect width="22" height="32" fill="white" transform="translate(0 0.5)"/>
</clipPath>
<clipPath id="clip1">
<rect width="22" height="32" fill="white" transform="translate(25 0.5)"/>
</clipPath>
</defs>
</svg>
