<?xml version="1.0" encoding="UTF-8"?>
<svg id="Layer_2" data-name="Layer 2" xmlns="http://www.w3.org/2000/svg" viewBox="0 0 408.65 72">
  <defs>
    <style>
      .cls-1 {
        fill: #1138f6;
      }
    </style>
  </defs>
  <g id="Layer_1-2" data-name="Layer 1">
    <path class="cls-1" d="M0,26.39c1.94-2.13,4.25-3.31,7.23-3.41,2.37-.09,4.74-1.11,7.07-.99,7.92,.37,12.31-3.58,14.61-10.79,.8-2.5,2.38-4.73,3.47-7.15C33.45,1.67,34.97,.03,37.74,0c2.75-.03,4.31,1.51,5.44,3.89,2.27,4.79,4.76,9.48,7.01,14.28,.83,1.76,1.88,2.52,3.87,2.75,5.27,.59,10.5,1.54,15.77,2.24,2.55,.34,4.62,1.23,5.55,3.82,.98,2.71-.48,4.58-2.26,6.31-3.82,3.7-7.59,7.45-11.49,11.05-1.44,1.33-1.87,2.6-1.47,4.53,1.04,5.07,1.87,10.18,2.73,15.28,.43,2.54,.65,5.11-1.84,6.86-2.44,1.72-4.79,.88-7.09-.41-.12-.06-.23-.13-.35-.19-5.31-2.68-10.63-7.49-15.92-7.46-5.31,.03-10.61,4.85-15.88,7.65-2.34,1.24-4.61,2.13-7.08,.43-2.54-1.76-2.25-4.33-1.85-6.85,.76-4.85,1.35-9.75,2.54-14.5,.72-2.84-.28-4.37-2.15-6.15-4.51-4.28-8.84-8.75-13.25-13.15,0-1.33,0-2.66,0-3.99Z"/>
    <path class="cls-1" d="M345.6,65.46c.9-5.15,1.77-10.79,2.91-16.38,.42-2.09-.04-3.46-1.59-4.88-3.92-3.59-7.7-7.34-11.51-11.05-1.68-1.63-3.01-3.45-2.2-5.99,.84-2.61,2.87-3.61,5.44-3.96,5.26-.72,10.5-1.69,15.77-2.25,2.18-.23,3.24-1.15,4.11-3.03,2.24-4.81,4.71-9.51,7-14.3,1.08-2.26,2.68-3.61,5.23-3.62,2.55,0,4.14,1.34,5.22,3.61,2.29,4.79,4.77,9.49,7.02,14.29,.87,1.86,1.92,2.81,4.11,3.05,5.28,.56,10.51,1.54,15.78,2.24,2.58,.34,4.64,1.33,5.5,3.9,.82,2.47-.4,4.35-2.13,6.01-3.83,3.69-7.59,7.46-11.48,11.08-1.49,1.39-2.11,2.64-1.63,4.83,1.13,5.18,1.87,10.45,2.71,15.7,.39,2.45,.37,4.82-2.02,6.42-2.34,1.56-4.54,.8-6.74-.37-4.57-2.43-9.21-4.73-13.72-7.28-1.82-1.03-3.23-1.11-5.1-.05-4.85,2.74-9.77,5.38-14.8,7.77-4.58,2.17-8.13-.31-7.87-5.73Z"/>
    <path class="cls-1" d="M262.39,65.7c.85-5.19,1.65-10.98,2.82-16.7,.44-2.16-.12-3.43-1.62-4.83-3.89-3.62-7.63-7.41-11.47-11.09-1.76-1.68-2.88-3.58-2.11-6.02,.82-2.61,2.94-3.53,5.5-3.87,5.13-.69,10.23-1.72,15.38-2.19,2.55-.23,3.66-1.4,4.63-3.52,2.1-4.58,4.49-9.03,6.66-13.58C283.29,1.53,284.85-.03,287.62,0c2.78,.03,4.24,1.69,5.35,4.04,2.27,4.8,4.75,9.5,7.01,14.3,.76,1.62,1.72,2.35,3.56,2.56,5.4,.63,10.77,1.56,16.17,2.3,2.55,.35,4.58,1.28,5.43,3.94,.81,2.56-.49,4.35-2.16,5.99-3.81,3.71-7.58,7.47-11.5,11.06-1.56,1.43-2.03,2.86-1.62,4.9,1.01,5.08,1.83,10.19,2.76,15.28,.45,2.46,.5,4.81-1.73,6.53-2.38,1.83-4.7,1.09-7.06-.18-4.56-2.45-9.21-4.72-13.72-7.27-1.84-1.04-3.24-1.08-5.1-.03-4.86,2.73-9.78,5.36-14.81,7.75-4.42,2.1-7.92-.22-7.81-5.48Z"/>
    <path class="cls-1" d="M95.81,65.82c.92-5.28,1.82-10.92,2.94-16.52,.44-2.2,0-3.73-1.69-5.26-3.84-3.49-7.5-7.16-11.22-10.77-1.77-1.72-3.22-3.56-2.26-6.31,.93-2.65,3-3.46,5.54-3.81,5.26-.71,10.5-1.66,15.78-2.24,2.01-.22,3.01-1.05,3.83-2.79,2.25-4.81,4.72-9.51,7-14.3C116.86,1.44,118.46-.05,121.22,0c2.58,.06,4.06,1.52,5.13,3.75,2.23,4.67,4.66,9.24,6.84,13.94,.92,1.99,2.02,3.03,4.38,3.26,5.28,.52,10.51,1.5,15.78,2.23,2.41,.33,4.39,1.28,5.24,3.67,.86,2.42-.13,4.38-1.89,6.07-3.93,3.78-7.78,7.64-11.75,11.37-1.38,1.3-1.93,2.46-1.52,4.49,1.1,5.33,1.84,10.73,2.73,16.1,.38,2.34,.29,4.53-1.86,6.1-2.29,1.67-4.54,.97-6.74-.18-4.59-2.39-9.22-4.72-13.71-7.28-1.95-1.11-3.47-1.17-5.45-.04-4.84,2.75-9.78,5.37-14.8,7.78-4.23,2.03-7.94-.54-7.76-5.46Z"/>
    <path class="cls-1" d="M224.43,71.96c-1.55,.1-2.79-.72-4.09-1.39-5.3-2.74-10.59-7.58-15.9-7.6-5.3-.02-10.63,4.76-15.91,7.5-1.92,1-3.87,2.06-6.04,1.23-2.9-1.11-3.86-3.42-3.33-6.42,.9-5.1,1.73-10.2,2.71-15.29,.48-2.52,.16-4.46-1.97-6.31-3.7-3.22-7.05-6.85-10.63-10.22-1.98-1.86-3.3-3.9-2.37-6.67,.89-2.64,3.15-3.3,5.66-3.63,5.26-.7,10.49-1.64,15.76-2.26,1.85-.22,2.78-.97,3.54-2.58,2.2-4.68,4.61-9.26,6.83-13.93C199.85,1.97,201.22,.03,204.24,0c3-.03,4.46,1.82,5.62,4.26,2.1,4.43,4.39,8.78,6.45,13.23,.97,2.09,2.09,3.27,4.64,3.5,5.15,.46,10.24,1.48,15.37,2.19,2.52,.35,4.71,1.11,5.51,3.81,.78,2.63-.43,4.57-2.3,6.34-3.57,3.38-6.93,7-10.62,10.23-2.2,1.93-2.67,3.92-2.1,6.64,1.04,5.07,1.89,10.17,2.71,15.28,.6,3.76-1.63,6.51-5.1,6.48Z"/>
  </g>
</svg>