<svg xmlns="http://www.w3.org/2000/svg" width="206.821" height="238.816" viewBox="0 0 206.821 238.816">
  <g id="Group_3594" data-name="Group 3594" transform="translate(1.5 1.732)" opacity="0.89">
    <path id="Path_1352" data-name="Path 1352" d="M.5,59.273V176.667l101.665,58.7,101.666-58.7V59.273L102.165.577Z" transform="translate(-0.255 -0.294)" fill="#fff" stroke="#fff" stroke-width="3"/>
    <path id="Path_1353" data-name="Path 1353" d="M.49,176.231V59.121L101.91.566l101.42,58.555v117.11L101.91,234.786ZM101.91,0,0,58.838V176.514l101.91,58.838,101.91-58.838V58.838Z" stroke="#fff" stroke-width="3"/>
  </g>
  <g id="speedometer" transform="translate(40.5 -6.597)">
    <g id="Group_159" data-name="Group 159" transform="translate(0 85.329)">
      <g id="Group_158" data-name="Group 158" transform="translate(0 0)">
        <path id="Path_71" data-name="Path 71" d="M247.9,132.711a2.563,2.563,0,0,0,2.563-2.563V119.9a2.563,2.563,0,1,0-5.125,0v10.25A2.563,2.563,0,0,0,247.9,132.711Z" transform="translate(-184.896 -109.647)" fill="#3e0760"/>
        <path id="Path_72" data-name="Path 72" d="M248.755,258.877l-.072.042.01.01-20.23,11.913a10.552,10.552,0,1,0,2.819,4.279l20-11.787a2.562,2.562,0,1,0-2.53-4.457Zm-27.118,24.68a5.125,5.125,0,1,1,5.125-5.125A5.125,5.125,0,0,1,221.637,283.557Z" transform="translate(-158.266 -216.932)" fill="#3e0760"/>
        <path id="Path_73" data-name="Path 73" d="M416,333.233a2.563,2.563,0,0,0,2.562,2.563h10.25a2.563,2.563,0,1,0,0-5.125h-10.25A2.563,2.563,0,0,0,416,333.233Z" transform="translate(-313.062 -271.732)" fill="#3e0760"/>
        <path id="Path_74" data-name="Path 74" d="M44.812,330.67H34.563a2.563,2.563,0,1,0,0,5.125h10.25a2.563,2.563,0,1,0,0-5.125Z" transform="translate(-24.313 -271.732)" fill="#3e0760"/>
        <path id="Path_75" data-name="Path 75" d="M145.6,149.549a2.563,2.563,0,0,0-4.415,2.6l4.356,7.4a2.563,2.563,0,0,0,4.415-2.6Z" transform="translate(-106.107 -133.164)" fill="#3e0760"/>
        <path id="Path_76" data-name="Path 76" d="M395.177,231.216a2.562,2.562,0,0,0,3.49.974l7.562-4.269a2.563,2.563,0,1,0-2.519-4.464l-7.562,4.269A2.562,2.562,0,0,0,395.177,231.216Z" transform="translate(-296.99 -190.023)" fill="#3e0760"/>
        <path id="Path_77" data-name="Path 77" d="M75.728,227.716l-7.562-4.269a2.563,2.563,0,1,0-2.519,4.464l7.562,4.269a2.563,2.563,0,0,0,2.519-4.464Z" transform="translate(-48.887 -190.015)" fill="#3e0760"/>
        <path id="Path_78" data-name="Path 78" d="M332.905,160.445h0a2.562,2.562,0,0,0,3.509-.9v0l4.356-7.4a2.563,2.563,0,0,0-4.415-2.6l-4.356,7.4A2.562,2.562,0,0,0,332.905,160.445Z" transform="translate(-249.867 -133.155)" fill="#3e0760"/>
        <path id="Path_79" data-name="Path 79" d="M107.418,102.845A63.982,63.982,0,0,0,61.231,85.354C27.468,86.241,0,113.774,0,146.747V160.5a6.976,6.976,0,0,0,7.088,6.834H118.913A6.976,6.976,0,0,0,126,160.5V145.548A58.52,58.52,0,0,0,107.418,102.845ZM120.75,160.5a1.782,1.782,0,0,1-1.838,1.709H7.088A1.782,1.782,0,0,1,5.25,160.5V146.747c0-30.216,25.176-55.461,56.122-56.269a58.582,58.582,0,0,1,42.383,16.038,53.491,53.491,0,0,1,16.994,39.031V160.5Z" transform="translate(0 -85.329)" fill="#3e0760"/>
      </g>
    </g>
  </g>
</svg>
