<svg xmlns="http://www.w3.org/2000/svg" width="206.821" height="238.816" viewBox="0 0 206.821 238.816">
  <g id="Group_3593" data-name="Group 3593" transform="translate(1.5 1.732)" opacity="0.8">
    <path id="Path_1352" data-name="Path 1352" d="M.5,59.273V176.667l101.665,58.7,101.666-58.7V59.273L102.165.577Z" transform="translate(-0.255 -0.294)" fill="#fff" stroke="#fff" stroke-width="3"/>
    <path id="Path_1353" data-name="Path 1353" d="M.49,176.231V59.121L101.91.566l101.42,58.555v117.11L101.91,234.786ZM101.91,0,0,58.838V176.514l101.91,58.838,101.91-58.838V58.838Z" stroke="#fff" stroke-width="3"/>
  </g>
  <g id="budget" transform="translate(39.5 55.732)">
    <path id="Path_64" data-name="Path 64" d="M12.935,28.328v4.221h3.935V28.328a5.6,5.6,0,0,0,.83-10.354l-3.835-1.919a1.68,1.68,0,0,1,.75-3.184h.573a1.684,1.684,0,0,1,1.682,1.68v.287h3.935v-.287a5.606,5.606,0,0,0-3.935-5.331V5H12.935V9.221a5.6,5.6,0,0,0-.83,10.354l3.835,1.919a1.68,1.68,0,0,1-.75,3.184h-.573A1.684,1.684,0,0,1,12.935,23V20.742H9V23A5.606,5.606,0,0,0,12.935,28.328Z" transform="translate(7.742 3.871)" fill="#3e0760"/>
    <path id="Path_65" data-name="Path 65" d="M16.871,49.221V45H12.935v4.221a5.6,5.6,0,0,0-.83,10.354l3.835,1.919a1.68,1.68,0,0,1-.75,3.184h-.573A1.685,1.685,0,0,1,12.935,63V60.742H9V63a5.6,5.6,0,0,0,3.935,5.331v4.221h3.935V68.328a5.6,5.6,0,0,0,.83-10.354l-3.835-1.919a1.68,1.68,0,0,1,.75-3.184h.573a1.685,1.685,0,0,1,1.682,1.68v.287h3.935v-.287A5.606,5.606,0,0,0,16.871,49.221Z" transform="translate(7.742 46.581)" fill="#3e0760"/>
    <path id="Path_66" data-name="Path 66" d="M23.3,44.29A22.3,22.3,0,0,0,44.168,30.209L59.8,34.347c0,.035-.01.069-.01.1a8.1,8.1,0,0,0,16.146.695l8.894-1.438a8.163,8.163,0,0,0,12.432,2.93l22.4,16.3-7.491,1.212.665,3.882L127,55.745,124.64,42l-4,.647,1.2,6.964-22.114-16.1a7.6,7.6,0,0,0,.618-2.995,8.1,8.1,0,0,0-16.146-.695L75.3,31.26a8.173,8.173,0,0,0-14.4-.7L45.241,26.413a21.008,21.008,0,0,0,.361-3.768C45.6,10.711,35.6,1,23.3,1S1,10.711,1,22.645,11,44.29,23.3,44.29Zm68.93-17.71a3.937,3.937,0,1,1-4.055,3.935A4,4,0,0,1,92.231,26.581ZM67.9,30.516a3.937,3.937,0,1,1-4.055,3.935A4,4,0,0,1,67.9,30.516ZM23.3,4.935c10.062,0,18.246,7.946,18.246,17.71S33.363,40.355,23.3,40.355,5.055,32.409,5.055,22.645,13.239,4.935,23.3,4.935Z" transform="translate(0 0)" fill="#3e0760"/>
    <path id="Path_67" data-name="Path 67" d="M32.484,40.742H27.751a7.129,7.129,0,0,0-6.35-3.935H16.018a7.144,7.144,0,0,0-6.871,9.109l3.467,12.139L4.935,68.29A19.677,19.677,0,0,0,20.677,99.774h3.935a19.539,19.539,0,0,0,7.871-1.655v1.655H52.161V25H32.484Zm-16.466,0H21.4a3.215,3.215,0,0,1,3.211,3.211v4.66h3.935V44.677h4.274a3.6,3.6,0,0,1,2.544,6.141L29.7,56.484H16.26L12.93,44.833a3.166,3.166,0,0,1-.124-.88,3.215,3.215,0,0,1,3.211-3.211Zm4.66,55.1A15.743,15.743,0,0,1,8.084,70.65l7.674-10.23H29.532l7.674,10.23A15.743,15.743,0,0,1,24.613,95.839Zm27.548-66.9v66.9H36.419V95.8A19.633,19.633,0,0,0,40.355,68.29l-7.241-9.654L38.149,53.6a7.492,7.492,0,0,0-1.73-11.9V28.935Z" transform="translate(0 27.226)" fill="#3e0760"/>
    <path id="Path_68" data-name="Path 68" d="M29,93.968H48.677V31H29Zm3.935-59.032H44.742v55.1H32.935Z" transform="translate(29.086 33.032)" fill="#3e0760"/>
    <path id="Path_69" data-name="Path 69" d="M41,98.806H60.677V26H41Zm3.935-68.871H56.742V94.871H44.935Z" transform="translate(41.551 28.194)" fill="#3e0760"/>
    <path id="Path_70" data-name="Path 70" d="M53,90.1H72.677V35H53Zm3.935-51.161H68.742V86.161H56.935Z" transform="translate(54.027 36.903)" fill="#3e0760"/>
  </g>
</svg>
