<svg xmlns="http://www.w3.org/2000/svg" xmlns:xlink="http://www.w3.org/1999/xlink" viewBox="0 0 486.29 118"><defs><style>.cls-1{fill:none;}.cls-2{clip-path:url(#clip-path);}.cls-3{fill:#3fc0c3;}</style><clipPath id="clip-path" transform="translate(0 0)"><rect class="cls-1" width="484.85" height="117.54"/></clipPath></defs><g id="Layer_2" data-name="Layer 2"><g id="Layer_1-2" data-name="Layer 1"><g class="cls-2"><path class="cls-3" d="M79.72,82.59c.07-.41-.07-.77-.32-.82s-.5.26-.57.67.06.78.31.82.51-.25.58-.67m.35-3c.07-.36-.06-.69-.28-.72s-.45.22-.51.59.06.69.28.73.45-.23.51-.6m.25-2.4c0-.29-.08-.53-.25-.54s-.33.19-.35.47.08.52.25.54.32-.2.35-.47m-.24-4.13c.14,0,.24-.21.22-.44s-.14-.4-.28-.39-.23.2-.22.43.14.41.28.4m.08,1.25c-.17,0-.3.23-.3.51s.13.51.3.51.31-.23.31-.51-.14-.51-.31-.51M77.91,85.26c-.14.39-.07.78.17.87s.54-.17.68-.56.07-.78-.17-.86-.54.16-.68.55M43.38,69.7c-.15-.09-.32-.08-.37,0s0,.23.19.32.31.08.36,0,0-.24-.18-.32M42.51,69c-.22-.13-.45-.13-.52,0s0,.33.24.45.44.13.52,0,0-.33-.24-.45m-1.19-.66c-.22-.11-.45-.1-.52,0s.06.33.27.44.45.1.52,0-.05-.33-.27-.44M40,67.59c-.24-.08-.47,0-.51.11s.1.31.33.39.46,0,.51-.11-.1-.31-.33-.39m-1.61-.54c-.24,0-.46,0-.48.2s.15.29.4.33.45,0,.48-.2-.16-.29-.4-.33m-2-.28c-.32,0-.57.12-.58.31s.23.34.54.36.57-.12.58-.31-.23-.35-.54-.36m-2.27.1c-.37.09-.63.33-.57.55s.39.33.75.25.63-.33.57-.55-.38-.33-.75-.25m-2.36.66c-.39.13-.65.43-.56.67s.46.32.86.18.64-.44.57-.67-.47-.32-.87-.18m-2.2,1.19c-.36.22-.53.58-.4.79s.52.2.88,0,.53-.57.4-.78-.53-.2-.88,0M59.7,4.47c-1.28,1-2.08,2.27-1.81,2.85s1.55.24,2.83-.75,2.09-2.27,1.8-2.85S61,3.48,59.7,4.47M55.56,31c-.3-.65-.79-1.07-1.11-.93s-.36.78-.06,1.43.78,1.05,1.1.92.35-.78.07-1.42M54.34,11.42c-.65,1.17-.76,2.27-.23,2.44s1.47-.63,2.13-1.79.76-2.27.23-2.44-1.47.62-2.13,1.79M52.9,24.36c-.4.1-.57.85-.39,1.67s.64,1.4,1,1.29.58-.86.4-1.67-.65-1.4-1.05-1.29M52.77,21c.52,0,1.07-.91,1.23-2s-.13-2-.65-2-1.07.9-1.23,2,.13,2,.65,2m49.85,5c-.17-.82-.34-1.65-.53-2.43,1.77-6.75,4.87-17.18,3.36-18.66-2.07-2-12.87,3-16,3L84.08,8c-1.51-.31-3.11-.58-4.71-.84L77,6.65A17.83,17.83,0,0,0,63.09,0,18.14,18.14,0,0,0,45.16,16.5c-1,5.59,1,12,4.44,17.4a41.62,41.62,0,0,1,7.3,18.29,37.37,37.37,0,0,0-6.63-18.4c-3.33-5.17-5.19-11.3-4.26-16.66C46.88,8.25,54.41.18,63.35.3A18.56,18.56,0,0,1,76.88,6.63l-1.09-.21a49.14,49.14,0,0,0-9.92.35c-9.86,1.93-11,13-10.78,17.68.21,4.23,3,9.55,4,13.67a41.08,41.08,0,0,1,.91,8c0,2-.48,6.56-1.17,7.78l-.18.25a2.38,2.38,0,0,1-.8.81c-2.62,1.45-2.57-1.84-3.13-4.21a32.22,32.22,0,0,0-5.36-12.42c-2.78-4-6.72-8.89-8.46-13a24.85,24.85,0,0,1,.36-19.79c-1.62.15-2.55.27-2.55.27l-.06.07A135.6,135.6,0,0,0,21.83,8.44l-5.36,0c-1.29,0-3.9-.82-6.68-1.64C5.86,5.67,1.61,4.5.42,5.71c-.93,1,0,5.43,1.32,10.31.08.58.17,1.2.29,1.86C5.14,32.05-.56,35.78,0,60.55c0,.47,0,.91,0,1.37,0,1.72,0,3.47.06,5.2l.12.24c.8,20.29,2.62,30.86,2.62,30.86L3,98.16c-1.47,5.62-2.76,11.3-1.68,12.37s5.29,0,9.14-1.21A111.47,111.47,0,0,0,28,108.53c2.61-2.27,4.06-6.07.76-12.47-6.16-9.87-9.6-21-3.68-27.14a12.38,12.38,0,0,1,20.3,2.18l.08.25C41.39,65.5,35.33,64.7,31.36,66.1c-7.57,3-9,9.86-7.7,16.24-1-6.27.87-12.69,8.25-15.61,3.88-1.37,9.35-.72,13.37,4.77a2.89,2.89,0,0,1-.7-.3,17.22,17.22,0,0,0-7.35-3.33,10.12,10.12,0,0,0-6.81,1.92,10.56,10.56,0,0,0-1,.94c-6.32,7.14,9.95,18.49,13.17,21.86,2.3,2.42,8.28,10.52,5,17.69,6.05.17,12.18,0,17.65-.36a20.77,20.77,0,0,1-.2-16.06c1.44-3.49,4.74-7.68,7.06-11.09a27.29,27.29,0,0,0,4.44-10.54c.45-2,.38-4.76,2.62-3.59a2.15,2.15,0,0,1,.69.66v.12l.14.09a20.71,20.71,0,0,1,1,6.8,31.14,31.14,0,0,1-.68,6.46c-.78,3.48-3.13,8-3.27,11.57S78,106.6,84.2,108c3.41-.64,6.47-1,6.47-1h0c3.54.32,13.66,4.72,15.62,2.73.67-.67.37-3.14-.32-6.25l0-.16c-1.69-7.92-1.47-18.5-.83-28.77.09-.39.17-.77.23-1.1h0c.11-1.16.2-2.33.28-3.52l.07-.09s.1-1.54.18-4.1c0-.26,0-.51,0-.78l0,0c0-.57,0-1.23,0-1.89.85-10.72-1.81-28.28-2.86-34.65l0-.35c-.06-.32-.14-.62-.21-.94-.12-.72-.19-1.12-.19-1.12ZM27.86,70.34c-.3.29-.41.67-.23.85s.56.08.86-.2.4-.68.22-.86-.55-.09-.85.21m-.12,13.82c-.18-.67-.73-1.1-1.22-1a1.12,1.12,0,0,0-.58,1.45c.18.66.72,1.09,1.22,1a1.12,1.12,0,0,0,.58-1.45M26.37,72.4c-.25.47-.22,1,.06,1.12s.71-.11,1-.58.23-1-.05-1.12-.72.1-1,.58M26.19,78c-.52,0-1,.51-1,1.2a1.14,1.14,0,0,0,.88,1.3c.51,0,1-.51,1-1.2a1.13,1.13,0,0,0-.86-1.3m-.48-2.62c-.08.55.14,1,.47,1.07s.66-.37.73-.93-.15-1-.48-1.08-.66.38-.72.94m4.13,15a1.14,1.14,0,0,0,.31-1.54A1.13,1.13,0,0,0,28.78,88a1.31,1.31,0,0,0,1.06,2.28m2.41,4a1.12,1.12,0,0,0,.32-1.53A1.13,1.13,0,0,0,31.2,92a1.14,1.14,0,0,0-.32,1.54,1.12,1.12,0,0,0,1.37.73M24.6,116.64a11.42,11.42,0,0,1-3.38-1.21,10.8,10.8,0,0,0,5.13,1.81A9.58,9.58,0,0,0,35.08,106c-1.2-7.13-7.94-15.41-9.06-18.1.87,2.82,7.78,11.27,8.53,17.92s-4.22,11.6-9.95,10.85m5.56,1.23a.27.27,0,0,0,.36.1c.15-.07.24-.21.19-.32a.28.28,0,0,0-.36-.09c-.15,0-.24.2-.19.31m2.64-1.45a.35.35,0,1,0,.53-.17.41.41,0,0,0-.53.17m2.05-2.77a.56.56,0,1,0,.95.5.65.65,0,0,0-.13-.89.66.66,0,0,0-.82.39m1.5-3.07a.89.89,0,0,0,.35,1.18c.39.14.85-.17,1-.69a.88.88,0,0,0-.36-1.17c-.38-.15-.85.16-1,.68M35.28,97.06a1.17,1.17,0,0,0-1.42-.76,1.16,1.16,0,0,0-.32,1.58,1.15,1.15,0,0,0,1.41.76,1.17,1.17,0,0,0,.33-1.58m.13,5.72c.31.81,1,1.27,1.64,1a1.62,1.62,0,1,0-1.64-1m2.43,5.53a.9.9,0,0,0,.59-1.09c-.07-.54-.46-.94-.86-.87a.88.88,0,0,0-.6,1.08c.08.54.46.93.87.88m38.35-15c.14-.7,0-1.33-.36-1.41s-.73.42-.88,1.1,0,1.32.36,1.41.73-.41.88-1.1M74.69,99c.14.93.62,1.68,1.06,1.67s.69-.77.54-1.71-.62-1.67-1.06-1.67-.68.78-.54,1.71m1.88-9.35c.27.11.69-.25.93-.8s.21-1.08-.07-1.19-.69.24-.93.79-.21,1.09.07,1.2m-.15,13.61c-.44.16-.34,1.07.23,2s1.38,1.63,1.83,1.47.34-1.07-.23-2-1.38-1.63-1.83-1.47" transform="translate(0 0)"/></g><path d="M142.34,89.18h2.51q5.18,0,5.18-2.76V50.65l.35-.09,12.53,22.38a4,4,0,0,0,3.45,1.64h2.51a4.05,4.05,0,0,0,3.46-1.64l12.52-22.38.35.09V86.42q0,2.76,5.18,2.76h2.51q5.18,0,5.18-2.76V31.12q0-2.76-5.18-2.76H188.4c-2.77,0-4.58.78-5.45,2.33l-15.38,27-15.2-27q-1.31-2.32-5.44-2.33h-4.59q-5.18,0-5.18,2.76v55.3q0,2.76,5.18,2.76m72.32.09h3q5.19,0,5.19-2.85V31.12q0-2.85-5.19-2.85h-3q-5.19,0-5.19,2.85v55.3q0,2.85,5.19,2.85m24.88-.09H242q5.19,0,5.19-2.76v-35l23.15,35.42q1.56,2.33,5.7,2.33h3.29q5.17,0,5.18-2.76V31.12q0-2.76-5.18-2.76h-2.5q-5.19,0-5.19,2.76V65.68L249,30.69q-1.56-2.32-5.7-2.33h-3.72c-3.45,0-5.19.92-5.19,2.76v55.3c0,1.84,1.74,2.76,5.19,2.76M299.93,89h31.71q2.6,0,2.59-4.32V82q0-4.32-2.59-4.32H309.78v-14h19.44q2.59,0,2.59-4.32V56.7q0-4.32-2.59-4.32H309.78V39.85h21.77q2.59,0,2.6-4.32V32.85q0-4.32-2.6-4.32H299.93c-2.3,0-3.46,1.16-3.46,3.46V85.55c0,2.31,1.16,3.46,3.46,3.46m48.9.17h2.94q5.18,0,5.18-2.76V65.34h3.37c2.59,0,4.45.38,5.57,1.16a10.77,10.77,0,0,1,3.16,4l6.82,16.85c.46,1.21,2.14,1.81,5,1.81h3.54c3.46,0,5.19-.57,5.19-1.73a5.17,5.17,0,0,0-.43-1.64l-7.6-19a22.9,22.9,0,0,0-2.86-5,8,8,0,0,0-3.37-2.89v-.35a16,16,0,0,0,7.39-5.31,13.57,13.57,0,0,0,2.72-8.43q0-16.23-21.51-16.24H347.1c-2.3,0-3.45,1.16-3.45,3.46V86.42q0,2.76,5.18,2.76M357,39.85h7.61a7.6,7.6,0,0,1,5.31,1.77,6.2,6.2,0,0,1,1.94,4.84,7.44,7.44,0,0,1-2,5.23,6.12,6.12,0,0,1-4.66,2.16H357Zm32.49-8L408.1,87.37q.6,1.81,4.84,1.81h4.49q4.23,0,4.84-1.81l18.66-55.56a5.51,5.51,0,0,0,.26-1.55q0-1.91-5.18-1.9h-2.69q-4.23,0-5.09,2.5l-13,40.44h-.35L402.31,30.86q-.78-2.5-5.1-2.5h-2.85q-5.26,0-5.27,1.9a7.14,7.14,0,0,0,.35,1.55m49.15,57.37h3.46c2.25,0,3.57-.6,4-1.81l3.46-10.54h20.39l3.46,10.54q.6,1.81,4.83,1.81H482q4.3,0,4.31-1.9a5.47,5.47,0,0,0-.25-1.55L467,30.17q-.69-1.82-4.93-1.81H457.6q-4.23,0-4.92,1.81l-19,55.56a8,8,0,0,0-.35,1.55q0,1.91,5.27,1.9M458.29,50a44,44,0,0,0,1.3-5.52h.34l1.3,5.52,4.92,15.38h-13Z" transform="translate(0 0)"/></g></g></svg>