<?xml version="1.0" encoding="utf-8"?>
<!-- Generator: Adobe Illustrator 26.2.1, SVG Export Plug-In . SVG Version: 6.00 Build 0)  -->
<svg version="1.1" id="Layer_1" xmlns="http://www.w3.org/2000/svg" xmlns:xlink="http://www.w3.org/1999/xlink" x="0px" y="0px"
	 viewBox="0 0 408.6 336.5" style="enable-background:new 0 0 408.6 336.5;" xml:space="preserve">
<style type="text/css">
	.st0{fill:#FFFFFF;stroke:#000000;stroke-width:14;stroke-miterlimit:10;}
	.st1{fill:#151515;}
	.st2{fill:#787878;}
	.st3{fill:#959595;}
	.st4{fill:#797979;}
	.st5{fill:#FFFFFF;stroke:#000000;stroke-width:12;stroke-miterlimit:10;}
	.st6{fill:#CD3333;stroke:#000000;stroke-width:10;stroke-miterlimit:10;}
	.st7{fill:#CD3333;stroke:#000000;stroke-width:2;stroke-miterlimit:10;}
	.st8{fill:#CD3333;}
</style>
<path class="st0" d="M403.1,218.5c-1.9,4.3-1.5,9-2.1,13.5c-4.4,29.2-14.6,56.2-30.9,80.8c-4.8,7.3-12.2,10-20.5,7.9
	c-6.5-1.6-11.8-8-12.7-15.5c-0.6-4.4,0.7-8.4,3.1-12.1c8.6-13.1,15.3-27.1,19.9-42.1c2.7-8.8,4.5-17.7,5.9-26.7c0.3-2,0-2.7-2.2-2.7
	c-4.6,0.2-9.3,0.1-13.9,0c-10.4-0.2-18.2-7.6-18.5-17.4c-0.3-9.9,7-17.7,17.4-18.4c5-0.3,10.1-0.2,15.1-0.1c1.9,0,2.5-0.5,2.2-2.4
	c-3.9-29.3-14.7-55.8-32.7-79.4c-1.1-1.4-1.7-1.4-2.9-0.1c-3.2,3.4-6.5,6.6-9.8,9.9c-7.9,7.7-19,8-26.3,0.9
	c-7.2-7.2-7-18.3,0.7-26.3c3.8-3.9,7.7-7.6,11.6-11.5c-23.8-18.7-50.3-30.1-80-34.2c-2.8-0.4-2.9,0.4-2.9,2.6
	c0.1,5,0.2,10.1-0.1,15.1c-0.5,9.4-8.4,16.7-17.9,16.7c-9.4,0-17.2-7.2-17.7-16.4c-0.3-5.3-0.2-10.6-0.1-15.9c0-1.9-0.3-2.7-2.5-2.4
	c-30.3,4-57.5,15.2-81.8,34.5c4,4,8,7.8,11.8,11.8c10.1,10.7,6.1,26.7-7.5,30.5c-6.4,1.8-12.3,0.3-17.2-4.3
	c-3.7-3.4-7.2-7-10.7-10.6c-1.4-1.5-2.1-1.5-3.4,0.2c-17.1,22.5-27.8,47.6-31.8,75.6c-0.8,5.8-0.7,5.8,5.1,5.8
	c4.3,0,8.5-0.1,12.8,0.3c9.5,0.8,16.5,8.8,16.3,18.3c-0.3,9.3-7.6,16.9-16.9,17.3c-5.1,0.2-10.3,0.2-15.5,0
	c-2.2-0.1-2.5,0.7-2.2,2.7c3.3,23.8,11.1,45.9,24.1,66.2c3.2,5,5.8,10,4.5,16.3c-1.5,7.2-5.8,12-12.9,14c-7.1,2-13.4,0-18.2-5.5
	c-4.3-5-7.4-10.8-10.5-16.6C14.7,268,6.3,235.4,6.9,200.7c0.8-42.8,13.6-81.8,39.4-116.1c33.5-44.5,78.2-70.9,133.4-77.8
	c61.1-7.6,115,9.8,160.5,51.6c28,25.7,46.4,57.5,56.3,94.2c3.1,11.6,5.1,23.4,5.9,35.4c0,0.5,0.1,1,0.8,1.1v3.1
	c-0.5,0.4-0.4,1-0.4,1.6c0,0.5-0.1,1.1,0.4,1.6v3.1c-0.6,1.8-0.6,3.6,0,5.4v7.7c-0.6,1.6-0.6,3.1,0,4.6L403.1,218.5L403.1,218.5z"/>
<path class="st1" d="M402.4,203.8c-1.2-1.8-1.2-3.6,0-5.4V203.8z"/>
<path class="st2" d="M402.4,216.1c-1.3-1.6-1.2-3.1,0-4.6V216.1z"/>
<path class="st3" d="M401.8,193.7c-0.1-0.6-0.3-1.3,0.6-1.5v1.6C402.2,194.1,402,194.1,401.8,193.7L401.8,193.7z"/>
<path class="st4" d="M401.8,193.7c0.2,0,0.4,0,0.6,0v1.6C401.6,195,401.6,194.3,401.8,193.7z"/>
<path class="st5" d="M204.6,330.4c-26.3,0-52.6,0-78.9,0c-9.9,0-16.6-4.7-19.1-13.1c-2.9-9.9,3.3-20.4,13.4-22.4
	c1.9-0.4,3.8-0.6,5.8-0.6c52.9,0,105.8,0,158.6,0c11.7,0,19.9,7.5,19.9,18.1c0,10.5-8,18-19.5,18.1c-24.5,0.1-49,0-73.5,0
	C209,330.4,206.8,330.4,204.6,330.4L204.6,330.4z"/>
<path class="st6" d="M163.8,216c0.6-21,18.4-36.1,39.3-33.2c2.4,0.3,3.8-0.5,5.3-2.1c15.9-16,31.9-32,47.9-47.9
	c8.8-8.8,21-8.3,28,0.8c4.9,6.3,5,15.2,0.1,21.5c-1.3,1.7-2.9,3.3-4.4,4.8c-15.4,15.4-30.8,30.8-46.3,46.2c-1.5,1.5-2.2,2.8-1.9,5.3
	c1.6,13.8-3,25.3-14.5,33.2c-10.9,7.5-22.9,8.3-34.8,2.2C170.4,240.8,163.4,228.9,163.8,216L163.8,216z"/>
<rect x="314.8" y="57.2" transform="matrix(0.7071 -0.7071 0.7071 0.7071 43.86 256.7948)" class="st7" width="34.2" height="36.5"/>
<path class="st8" d="M294.1,89.2l20.3-20.3c6.7-6.7,17.5-6.7,24.1,0l0.3,0.3c6.7,6.7,6.7,17.5,0,24.1l-20.3,20.3
	c-6.7,6.7-17.5,6.7-24.1,0l-0.3-0.3C287.4,106.6,287.4,95.8,294.1,89.2z"/>
</svg>
