<?xml version="1.0" encoding="UTF-8"?><svg xmlns="http://www.w3.org/2000/svg" viewBox="0 0 428.09 485.98"><defs><style>.d{fill:#cd3333;}.e{fill:#fefefe;}</style></defs><g id="a"/><g id="b"><g id="c"><path d="M221.9,0c3.9,2.54,5.15,6.12,5.12,10.74-.16,23.4-.07,46.8-.09,70.2,0,1.58,.08,3.22-.31,4.72-.99,3.84-3.73,5.89-7.59,5.88-3.86,0-6.63-2.02-7.56-5.9-.4-1.66-.32-3.45-.33-5.19-.02-23.09,.09-46.17-.1-69.26-.04-4.78,1.07-8.56,5.16-11.21h5.69Z"/><path d="M82.9,348.12c10.65-5.14,21.45-8.88,32.95-10.44,20.92-2.84,41.2-.48,59.83,9.47,14.66,7.83,29.8,11.47,46.28,11.39,14.85-.07,29.71,.73,44.57,1.09,18.6,.44,33.11,8.34,43.17,23.97,1.69,2.62,2.82,2.36,5.1,1.27,20.06-9.56,40.12-19.14,60.29-28.45,18.35-8.47,39.74-2.26,50.53,14.36,3.95,6.09,3.23,10.06-2.77,13.95-46.37,30.02-92.5,60.42-139.28,89.79-16.88,10.6-36.52,12.71-56.28,10.87-17.24-1.6-33.37-8.01-49.95-12.45-19.95-5.34-39.81-11-59.67-16.64-8.03-2.28-15.6-1.46-22.87,2.54-2.35,1.29-4.63,2.76-7.09,3.78-5.33,2.22-9.32,4.79-8.87,11.82,.28,4.42-3.34,7.03-7.97,6.93-20.71-.45-41.41-.91-62.12-1.59-6.4-.21-8.94-3.49-8.74-10.4,1.08-38.25,2.2-76.5,3.28-114.74,.19-6.64,.25-13.28,.44-19.92,.2-6.72,3.07-9.6,9.63-9.46,19.76,.44,39.52,.93,59.27,1.49,8.06,.23,10.58,3.14,10.29,11.28-.11,3.15-.02,6.31-.02,10.08Z"/><path d="M218.73,337.14c-63.83-.22-115.46-51.99-115.33-115.64,.14-63.84,52.35-115.66,116.2-115.32,63.81,.33,115.45,52.35,115.08,115.92-.38,63.84-52.2,115.26-115.95,115.04Z"/><path d="M286.7,65.96c0,5.68,.09,11.35-.03,17.02-.11,5.29-3.36,8.7-7.97,8.64-4.44-.06-7.69-3.33-7.75-8.36-.13-11.66-.14-23.33,0-34.99,.06-5.07,3.26-8.3,7.73-8.38,4.66-.08,7.88,3.25,8,8.58,.13,5.83,.03,11.66,.03,17.5Z"/><path d="M167.16,65.65c0,5.67,.08,11.35-.02,17.02-.1,5.41-3.11,8.82-7.68,8.94-4.76,.13-8.04-3.36-8.08-9-.09-11.35-.1-22.7,.01-34.05,.05-5.38,3.24-8.7,7.89-8.69,4.65,.02,7.74,3.34,7.85,8.74,.12,5.67,.03,11.35,.03,17.02Z"/><path class="e" d="M80.82,448.12c0-12.51-.16-24.78,.04-37.03,.21-13.28,.85-26.55,1.1-39.82,.06-3.01,.92-4.79,3.66-6.34,26.92-15.25,54.54-16.75,82.56-3.78,11.78,5.45,23.24,11.55,36.43,12.47,10.24,.71,20.53,.8,30.8,1.13,11.38,.36,22.76,.51,34.13,1.05,15.06,.72,28.81,13,30.97,27.63-18.21-.5-36.36-1-54.52-1.49-9.96-.27-19.91-.56-29.87-.74-5.64-.1-9.27,3.06-9.28,7.83-.01,4.56,3.27,7.76,8.78,7.92,30.97,.93,61.94,1.78,92.92,2.56,6.11,.15,9.97-3.33,8.8-9.5-1.44-7.64,2.25-10.04,8.23-12.73,18.39-8.27,36.51-17.13,54.72-25.82,8.3-3.96,16.38-3.84,24.45,.69,3.54,1.99,3.54,3.16,.01,5.43-41.54,26.72-83.04,53.5-124.41,80.48-9.1,5.93-19.02,8.98-29.51,10.75-15.31,2.58-30.07,.14-44.83-4.19-27.83-8.16-55.84-15.69-83.74-23.57-12.31-3.48-24.02-2.28-35.24,3.89-2.16,1.19-4.38,2.25-6.19,3.18Z"/><path class="e" d="M65.15,404.33c-.56,19.11-1.18,38.21-1.6,57.32-.06,2.83-.63,3.73-3.66,3.61-13.57-.54-27.15-.87-40.74-1.1-2.58-.04-3.1-.87-3.03-3.3,1.19-38.68,2.31-77.37,3.35-116.06,.07-2.55,.6-3.51,3.41-3.41,13.57,.5,27.16,.86,40.74,1.05,2.88,.04,3.22,1.06,3.13,3.61-.64,19.42-1.12,38.84-1.65,58.27h.04Z"/><path class="e" d="M219,321.3c-55.09-.05-99.71-44.81-99.59-99.9,.12-54.83,44.77-99.3,99.69-99.29,55.14,.01,99.71,44.7,99.58,99.84-.13,54.84-44.83,99.4-99.68,99.35Z"/><path class="d" d="M200.98,195.05c.02,9.16,6.51,16.6,15.77,17.75,5.79,.72,11.6,.96,17.01,3.61,12.18,5.96,20.23,18.9,19.24,32.26-1.08,14.54-8.46,24.98-22.18,30.17-3.95,1.49-5.28,3.11-5.01,7.26,.37,5.63-2,8.7-6.31,9.63-4.84,1.04-9.65-2.58-9.19-8.07,.49-5.9-1.92-8.22-6.93-10.62-11.25-5.4-17-15.13-18.32-27.44-.63-5.82,2.34-9.94,7.15-10.4,4.84-.47,8.28,3.02,8.78,8.91,.88,10.18,8.42,17.05,18.59,16.94,9.16-.1,16.9-7.46,17.47-16.64,.61-9.73-5.86-17.96-15.81-19.11-7.11-.82-14.12-1.44-20.28-5.52-11.23-7.44-16.83-18.01-15.8-31.33,1.06-13.72,8.42-23.61,21.2-28.9,3.09-1.28,4.17-2.69,3.77-5.78-.18-1.39-.06-2.85,.13-4.25,.58-4.3,4.01-7.26,8.08-7.07,3.93,.18,7.72,3.22,7.33,7.2-.62,6.34,2.28,8.47,7.75,10.81,12,5.12,18.15,15.18,19.57,28.07,.64,5.74-2.36,9.92-7.18,10.43-4.72,.5-8.24-3.1-8.75-8.97-.87-10.05-8.96-17.5-18.59-17.1-9.89,.41-17.53,8.35-17.51,18.18Z"/></g></g></svg>