<?xml version="1.0" encoding="utf-8"?>
<!-- Generator: Adobe Illustrator 26.2.1, SVG Export Plug-In . SVG Version: 6.00 Build 0)  -->
<svg version="1.1" id="Layer_1" xmlns="http://www.w3.org/2000/svg" xmlns:xlink="http://www.w3.org/1999/xlink" x="0px" y="0px"
	 viewBox="0 0 384 384" style="enable-background:new 0 0 384 384;" xml:space="preserve">
<style type="text/css">
	.st0{fill:#FEFEFE;}
	.st1{fill:#010101;}
	.st2{fill:#CD3333;}
</style>
<g>
	<path d="M67.1,383.6c-2.6-1.9-3.4-4.6-4.2-7.5c-4.8-18.7-7-37.5-2.6-56.6c7-30.7,31.9-50.3,63.1-49.8c1.1,0,2.9,1.2,3-1.4
		c0-2,0.3-3.7-2.7-4.2c-10.3-1.9-20.3-5.1-29.5-10.1c-11-5.9-20.2-13.6-24.4-26c-2.6-7.5-2-15.3-1.5-23c0.2-3.6-0.7-4.5-4.3-4.7
		c-14-0.7-25-11.5-26.6-25.7c-1.4-13.2,7.2-26.1,20.4-29.8c3-0.9,3.9-1.9,2.8-5c-1.2-3.4-1.9-7-2.5-10.5c-1.5-7.9-4.3-14.8-9.9-21.1
		C39.9,99,35.9,87.5,33.4,75.5c-0.8-4.1,0.7-6.9,3.9-7.7c3.4-0.8,6.2,1.2,7.1,5.4c2.9,13.6,8.5,25.7,18.9,35.2
		c1.4,1.3,1.8,2.9,2.2,4.6c2.3,9.4,4.6,18.8,7.2,28.2c1.8-9.5,3.2-19,5.6-28.3c2.4-9.2,5.2-18.2,12.2-25.2
		c9.6-9.8,20.8-12.1,33.4-6.9c5.8,2.4,11.2,5.4,16.5,8.7c12.6,7.9,24.9,7.9,37.5,0.1c6.4-4,13-7.8,20.3-10.2
		c9.8-3.1,18.4-1,26.3,5.2c8.2,6.4,12.1,15.3,14.6,25c2.8,10.5,4.7,21.1,6.1,31.9c0.1,0.8,0,1.8,1.2,2.6c3.1-10.4,6.2-20.7,9.4-31
		c0.6-1.9-0.8-2.4-1.7-3.3c-12.7-12.3-19-27.2-18.6-44.8c0.6-28.6,23.9-53.8,52.4-56.5c30.2-2.8,57.7,17.1,63.5,46
		c5.9,29.2-9.4,57-37.2,67.4c-1.9,0.7-3,1.9-4.2,3.4c-8,10.6-18.6,16.7-31.9,17.9c-4.6,0.4-7.6-1.2-9.1-4.9c-1.6-3.8-0.6-7,2.2-9.9
		c5.1-5.2,4.9-5.1-1.5-8.3c-3-1.5-4.2-1.4-5.1,2.2c-1.5,6-3.3,12-5.4,17.9c-1,2.7-0.5,3.7,2.3,4.6c11.2,3.6,19.1,14.2,19.5,25.8
		c0.4,12.1-6.5,23-17.5,27.6c-3.4,1.4-6.9,2.2-10.5,2.1c-2.3-0.1-3,0.7-2.9,3c0.2,6,0.7,12-0.1,17.9c-1.6,12.1-8.4,20.8-18,27.6
		c-11,7.8-23.4,12-36.3,15c-1.3,0.3-3.5-0.4-3.7,2c-0.3,2.4-0.3,4,3.3,3.9c12.7-0.7,24.4,2.7,35.1,9.4c3.7,2.3,4.8,5.5,3.1,8.4
		c-1.8,3-5.2,3.5-9.1,1.1c-8.7-5.3-18.1-8-28.4-7.8c-3,0-4.1,0.6-4.2,4.1c-0.3,15-10.7,27.8-25,31.1c-14.4,3.4-29.1-3.1-36.3-16
		c-2.8-5-4.2-10.4-4.1-16.1c0-2.6-0.9-3-3.2-3.1c-25.6-1-47.2,16.4-52.4,42.5c-3.2,15.9-1.5,31.5,2.2,47c0.4,1.6,1.1,2.1,2.6,1.9
		c0.1,0,0.2,0,0.4,0c3.7-0.2,8.5,1.5,10.8-0.6c2.2-2,0.5-6.8,0.6-10.4c0.1-3.5-0.1-7,0-10.5c0.1-4,2.4-6.4,5.9-6.2
		c3.3,0.1,5.3,2.4,5.3,6.4c0.1,6.2,0.1,12.5,0,18.7c0,2.1,0.6,2.7,2.7,2.7c38.7-0.1,77.3-0.1,116,0c2,0,2.5-0.6,2.5-2.5
		c-0.1-6.2-0.1-12.5,0-18.7c0-4.1,2.1-6.5,5.5-6.5c3.4,0,5.6,2.4,5.7,6.4c0.1,6.2,0.1,12.5,0,18.7c-0.1,2.2,0.6,2.8,2.7,2.6
		c2.5-0.2,5-0.3,7.5,0c2.9,0.4,4.1-0.7,4.7-3.5c3.8-17.8,5.5-35.5-0.5-53.1c-1.3-3.8-3-7.3-5-10.8c-2-3.5-1.4-6.8,1.5-8.5
		c2.9-1.7,6.1-0.6,8.1,2.8c7.5,12.4,10.3,26,10.5,40.3c0.2,13.3-2.2,26.3-5.5,39.1c-0.6,2.2-2.1,3.5-3.6,4.9L67.1,383.6L67.1,383.6z
		"/>
	<path d="M52.2,5.6c2.7-0.1,5.3,0.7,7.3,2.4c11,8.8,23.7,9.5,36.9,7.8c12-1.5,22.9-6.6,34.4-9.7c33.5-9,66.3-7.6,98,7.2
		c1.9,0.9,3.8,1.9,5.6,3c3.2,1.9,4.3,5,2.9,7.8c-1.5,2.9-4.9,3.8-8.4,1.9c-5.4-2.9-10.9-5.5-16.6-7.5c-29.2-9.8-58.3-8.9-87.2,1.1
		c-14.4,5-29,9.1-44.5,7.9c-9.5-0.8-18.3-3.5-26-9.3c-2.7-2-4-1.5-5.3,1.4c-4,9.5-6.1,19.4-6.8,29.7c-0.4,4.8-2.5,7-6.2,6.7
		c-3.6-0.3-5.3-3-5-7.7c0.9-11.8,3.3-23.1,8.1-34C41.9,8.7,46.1,5.6,52.2,5.6L52.2,5.6z"/>
	<path class="st0" d="M239.1,202.6c0,4-0.1,8,0,12c0.4,9.3-3.3,16.7-10.2,22.6c-9.6,8.3-21.1,12.6-33.2,15.2
		c-28.8,6.3-57.4,5.8-85.5-3.6c-8.9-3-17.2-7.3-23.7-14.3c-4.6-4.9-7.4-10.7-7.3-17.5c0.5-32.3,2.2-64.5,8.8-96.3
		c1.2-5.8,2.8-11.6,5.2-17.1c1.9-4.3,4.8-7.9,8.6-10.7c4.8-3.6,10.1-4.4,15.9-2.4c6.2,2.3,11.8,5.9,17.5,9.1c5.7,3.1,11.5,5.8,18,7
		c8.1,1.5,15.6-0.2,22.9-3.4c6.5-2.8,12.4-6.8,18.7-10c13.9-7.1,25.4-2.8,31,11.9c4.5,11.8,6.4,24.3,8.2,36.7
		C236.7,162,238.1,182.3,239.1,202.6L239.1,202.6z"/>
	<path class="st0" d="M284.5,130.5c2.2-2.6,3.6-5.7,4.8-8.8c1.6-3.9-0.1-7.1-4.5-8.1c-3.5-0.8-7-1.8-10.3-3.3
		c-20.5-9.3-31.7-31.4-26.9-53.2c4.9-22.3,24.7-37.8,47.6-37.4c22.2,0.4,41.3,16.6,45.5,38.7c4.4,22.9-9.1,46-31.3,53.5
		c-3.4,1.1-5.8,2.8-7.7,5.8C297.7,124.1,291.9,128.5,284.5,130.5L284.5,130.5z"/>
	<path class="st0" d="M180.5,277.3c0,3.2,0.4,6.5-0.1,9.7c-1.7,11.6-11.2,19.3-22.7,18.7c-10.8-0.5-19.6-9.5-20.1-20.8
		c-0.3-5.3,0-10.7-0.1-16.1c0-1.9,0.6-2.3,2.4-2.2c12.9,1.3,25.9,1.3,38.8,0c1.7-0.2,2.2,0.4,2.1,2c-0.1,2.9,0,5.7,0,8.6
		L180.5,277.3L180.5,277.3z"/>
	<path class="st0" d="M248.9,180.2c-1.7-8.8,3.3-16.1,5.3-24.1c0.5-1.9,2-1,3.1-0.7c7.4,1.9,12.8,9.4,12.5,17.4
		c-0.3,7.9-6.5,14.9-14.1,16.2c-1.2,0.2-2.5,0.2-3.7,0.4c-2,0.3-2.6-0.5-2.6-2.4C249.4,184.7,249.1,182.4,248.9,180.2L248.9,180.2z"
		/>
	<path class="st0" d="M69.3,180.6c-0.1,1.2-0.1,2.5-0.2,3.7c-0.3,3.6-2.3,5.2-5.8,4.8c-8-1-14.4-8.1-14.8-16.3
		c-0.4-8.2,5.4-15.8,13.3-17.6c1.2-0.3,2.5-0.9,2.9,1C66,164.4,69.5,172.2,69.3,180.6L69.3,180.6z"/>
	<path d="M201,214.8c-0.1,2.1-1.2,3.9-3.3,4.7c-2.4,1-4.6,0.4-6.5-1.3c-4.5-4.1-9.7-5.4-15.6-3.7c-2.4,0.7-4.5,2.1-6.4,3.7
		c-2.9,2.4-6.2,2.3-8.3-0.1c-2.1-2.4-1.7-5.7,1-8.3c10-9.6,27.2-9.6,36.9,0.1C200.1,211.2,201,212.6,201,214.8L201,214.8z"/>
	<path d="M138.3,143.3c0,4.3-4.4,7-8.2,4.7c-7.6-4.5-15-4.5-22.6,0c-2.8,1.7-5.9,0.7-7.5-1.9c-1.6-2.6-0.9-5.5,1.7-7.6
		c8.7-6.8,25.5-6.7,34.1,0C137.4,139.7,138.3,141.2,138.3,143.3L138.3,143.3z"/>
	<path d="M199.4,148.7c-5.9,0.1-11.3-1.4-16.3-4.6c-3.2-2.1-4.1-5.1-2.4-7.9c1.7-2.9,4.9-3.6,8.1-1.7c7.1,4.1,14.1,4.2,21.2,0.1
		c3.3-1.9,6.5-1.3,8.2,1.5c1.7,2.8,0.9,5.9-2.2,8C211,147.4,205.5,148.9,199.4,148.7L199.4,148.7z"/>
	<path class="st1" d="M205.6,164.4c0,1.5,0.1,3,0,4.5c-0.2,3.2-2,5-5.2,5.2c-3.2,0.2-5.4-1.6-5.8-4.6c-0.4-3.4-0.4-7,0-10.4
		c0.3-3,2.5-4.9,5.7-4.7c3.2,0.1,5,2,5.3,5.1C205.6,161.2,205.5,162.8,205.6,164.4L205.6,164.4z"/>
	<path class="st1" d="M123.9,164.2c0,1.5,0.1,3,0,4.5c-0.3,3.4-2.6,5.6-5.8,5.5c-3-0.1-5.2-2.2-5.3-5.6c-0.1-2.9-0.1-5.7,0-8.6
		c0.1-3.5,2.4-5.7,5.6-5.7c3,0,5.3,2.1,5.6,5.4C124,161.2,123.9,162.7,123.9,164.2z"/>
	<path class="st2" d="M285.6,75c0-1.2,0-2.5,0-3.7c0.1-6.1,3.3-9.3,9.5-9.5c6-0.2,9.7-3.2,10.1-8.3c0.3-4.2-2.1-8-6-9.3
		c-3.8-1.3-8.2,0.2-10.5,3.7c-0.2,0.3-0.4,0.7-0.5,1c-2.4,4.4-5,5.7-8.1,4.1c-3.3-1.7-4-5-1.8-9.4c4.1-8.2,13.8-12.7,22.6-10.6
		c9.3,2.2,15.7,10.3,15.6,19.8c0,9.5-6.5,17.8-15.8,19.5c-3.1,0.6-4.2,1.7-4,4.9c0.3,6-1.7,8.7-5.6,8.6c-3.8-0.1-5.5-2.7-5.5-8.5
		C285.6,76.5,285.6,75.8,285.6,75L285.6,75z"/>
	<path class="st2" d="M291.3,101.5c-3.1,0.1-5.6-2.4-5.7-5.7c-0.1-3.4,2.3-6.2,5.5-6.3c3.1-0.1,5.6,2.4,5.7,5.7
		C296.9,98.8,294.6,101.4,291.3,101.5L291.3,101.5z"/>
</g>
</svg>
