<?xml version="1.0" encoding="UTF-8"?><svg xmlns="http://www.w3.org/2000/svg" viewBox="0 0 359.21 359.18"><defs><style>.d{fill:#cd3333;}.e{fill:#fefefe;}</style></defs><g id="a"/><g id="b"><g id="c"><path d="M261.2,305c5.27,3.96,10.26,7.67,15.18,11.46,1.37,1.06,2.84,.73,4.28,.73,23.07,.02,46.14,.07,69.21-.05,2.78-.02,3.51,.62,3.46,3.44-.17,8.6-.04,8.61-8.69,8.61-22.32,0-44.64-.04-66.96,.05-2.9,.01-5.28-.7-7.57-2.48-5.9-4.59-11.98-8.94-17.87-13.54-1.62-1.26-2.81-1.33-4.65-.44-46.8,22.68-93.31,22.08-139.46-1.93-1.73-.9-2.69-.84-4.06,.59-4.84,5.03-9.88,9.87-14.75,14.87-1.95,2-4.1,2.94-6.94,2.93-26.44-.07-52.87-.08-79.31,.02-2.46,0-3.07-.65-3.05-3.07,.05-8.96-.04-8.96,9.06-8.96,23.07,0,46.14-.03,69.21,.04,2.14,0,3.72-.47,5.22-2.09,3.04-3.3,6.2-6.5,9.53-9.5,2.08-1.88,2.19-2.73-.3-4.5-20.55-14.53-36.32-33.21-47.44-55.76-27.9-56.6-16.96-124.99,27.24-170.12,1.99-2.04,2.42-3.02-.23-4.8-4.95-3.33-9.2-8.36-14.58-10.18-5.27-1.78-11.59-.46-17.45-.46-12.34-.01-24.69-.09-37.03,.07-2.67,.03-3.26-.71-3.22-3.28,.12-8.76,.01-8.76,8.9-8.76,16.34,0,32.67,.05,49.01-.04,2.77-.02,5.05,.71,7.23,2.4,5.22,4.04,10.65,7.82,15.78,11.97,2.31,1.86,3.72,1.98,6.19,.03,26.48-20.92,56.7-31.56,90.43-32.26,6.12-.13,8.1,1.86,8.11,7.91,0,18.7,.01,37.41,0,56.11,0,5.68-1.93,7.64-7.55,7.8-44.15,1.29-77.84,37.32-76.19,81.48,1.4,37.4,31.53,69.65,68.68,73.5,42.23,4.38,78.7-23.19,85.93-65.06,.63-3.67,.72-7.43,.93-11.16,.27-4.87,2.31-6.95,7.26-6.95,19.08-.02,38.16-.02,57.24,0,5.3,0,7.51,2.17,7.34,7.55-1.62,50.94-23.06,91.39-64.35,121.3-1.11,.8-2.25,1.56-3.72,2.58Z"/><path d="M233.53,155.55c0,15.33,0,30.66,0,45.99,0,5.92-1.96,7.93-7.75,7.93-30.79,.01-61.57,.01-92.36,0-5.59,0-7.62-2.05-7.63-7.67-.02-10.97-.03-21.94,0-32.9,.01-5.14,2.14-7.26,7.24-7.3,4.74-.04,9.47-.09,14.21,.03,1.87,.05,2.67-.36,2.53-2.43-.19-2.73-.07-5.48-.04-8.22,.05-5.15,2.13-7.29,7.2-7.34,4.24-.04,8.49-.2,12.71,.06,3.08,.19,4.44-.39,4.12-3.91-.38-4.2-.11-8.47-.08-12.7,.04-5.33,2.11-7.36,7.53-7.39,4.61-.02,9.23-.13,13.83,.05,2.2,.08,2.73-.68,2.62-2.73-.16-2.98-.12-5.98-.02-8.97,.13-3.95,2.37-6.23,6.35-6.28,7.73-.09,15.46-.1,23.18,0,4.21,.05,6.34,2.48,6.35,7.05,.03,15.58,.01,31.16,.01,46.74Z"/><path class="d" d="M203.6,35.82c0-9.48-.02-18.95,0-28.43,.02-5.34,2.16-7.41,7.51-7.39,68.4,.27,129.33,49.3,144.32,116.15,2.32,10.36,3.63,20.85,3.77,31.47,.08,5.89-1.91,7.97-7.68,7.98-18.83,.01-37.66,.01-56.49,0-5.58,0-7.53-1.99-7.66-7.68-.95-41.55-34.56-75.19-76.02-76.09-5.87-.13-7.75-2.04-7.76-7.96-.01-9.35,0-18.7,0-28.05Z"/><path d="M47.96,359.12c-7.11,0-14.21-.08-21.32,.05-2.11,.04-2.66-.55-2.69-2.67-.11-9.36-.18-9.35,9.04-9.35,11.97,0,23.94,.07,35.9-.06,2.43-.03,3.08,.6,3.07,3.05-.06,8.98,.04,8.98-9.05,8.98-4.99,0-9.97,0-14.96,0Z"/><path d="M305.01,347.15c7.23,0,14.46,.08,21.69-.05,2.15-.04,2.63,.63,2.65,2.7,.1,9.33,.17,9.32-9.07,9.32-11.97,0-23.94-.08-35.9,.06-2.49,.03-3.05-.69-3.03-3.08,.05-8.95-.04-8.95,9.07-8.95,4.86,0,9.72,0,14.59,0Z"/><path d="M38.98,29.91c-4.24,0-8.48-.09-12.71,.04-1.8,.05-2.23-.5-2.3-2.29-.37-9.73-.42-9.73,9.41-9.73,5.98,0,11.97,.09,17.95-.05,2.12-.05,2.66,.56,2.68,2.67,.11,9.35,.18,9.35-9.04,9.35-1.99,0-3.99,0-5.98,0Z"/><path d="M6.37,29.91q-6.3,0-6.3-6.42,0-5.56,5.67-5.56,6.3,0,6.3,6.42,0,5.56-5.67,5.56Z"/><path d="M149.72,221.55q0,5.88-5.72,5.88-6.26,0-6.26-6.09,0-5.88,5.72-5.88,6.26,0,6.26,6.09Z"/><path d="M167.36,227.43q-5.67,0-5.67-5.56,0-6.42,6.3-6.42,5.67,0,5.67,5.56,0,6.42-6.3,6.42Z"/><path d="M191.73,215.46q5.88,0,5.88,5.71,0,6.26-6.09,6.26-5.88,0-5.88-5.71,0-6.26,6.09-6.26Z"/><path d="M221.56,221.64q0,5.79-5.81,5.79-6.16,0-6.16-6.18,0-5.79,5.81-5.79,6.16,0,6.16,6.18Z"/><path d="M.07,352.79q0-5.64,5.58-5.64,6.39,0,6.39,6.33,0,5.64-5.58,5.64-6.39,0-6.39-6.33Z"/><path d="M347.09,359.12q-5.81,0-5.81-5.79,0-6.18,6.17-6.18,5.81,0,5.81,5.79,0,6.18-6.17,6.18Z"/><path class="e" d="M185.64,292.89c0-6.73,.17-13.47-.08-20.19-.11-2.92,.88-3.73,3.61-4.01,21.79-2.27,40.28-11.47,55.39-27.26,13.96-14.59,22.12-32.02,24.21-52.15,.3-2.93,1.11-3.87,4.2-3.82,13.84,.2,27.68,.11,41.51,.05,1.92,0,2.86,.15,2.65,2.56-4.61,51.2-29.5,89.19-74.52,113.8-16.93,9.26-35.37,13.8-54.61,15.16-2.21,.16-2.41-.68-2.4-2.45,.06-7.23,.03-14.46,.03-21.69Z"/><path class="e" d="M65.83,173.56c-7.11,0-14.21-.06-21.32,.04-1.97,.03-2.46-.48-2.34-2.5,3.61-61.21,48.32-113.13,108.73-126.18,6.71-1.45,13.52-2.18,20.34-2.85,2.09-.21,2.47,.49,2.47,2.38-.06,14.34-.13,28.68,.04,43.01,.04,3.03-1.81,2.68-3.55,2.87-17.95,1.91-33.94,8.58-47.75,20.16-18.47,15.49-29.23,35.26-31.9,59.27-.32,2.86-.98,4.02-4.14,3.89-6.85-.27-13.71-.08-20.57-.08Z"/><path class="e" d="M173.67,293.33c0,7.11-.05,14.21,.03,21.32,.02,1.89-.39,2.49-2.47,2.37-63.35-3.76-116.21-51.19-127.22-114.19-.86-4.92-1.2-9.89-1.83-14.83-.26-2.04,.37-2.51,2.33-2.5,14.34,.07,28.68,.13,43.01-.04,2.99-.04,2.69,1.75,2.91,3.51,3.89,31.27,19.75,54.5,47.17,69.8,9.98,5.57,20.8,8.92,32.23,9.86,3.23,.26,4.04,1.37,3.92,4.51-.27,6.72-.08,13.46-.08,20.19Z"/><path class="e" d="M221.56,155.98c0,12.84-.07,25.68,.06,38.52,.02,2.44-.62,3.08-3.06,3.06-8.97-.06-8.97,.04-8.97-9.05,0-23.81,.05-47.63-.07-71.44-.01-2.8,.65-3.5,3.45-3.45,8.6,.17,8.6,.04,8.6,8.69v33.66Z"/><path class="e" d="M185.64,164.59c0-9.97,.08-19.95-.06-29.92-.03-2.43,.6-3.09,3.05-3.07,8.98,.06,8.98-.04,8.98,9.05,0,17.83-.07,35.66,.07,53.48,.02,2.78-.62,3.51-3.44,3.46-8.6-.17-8.61-.04-8.61-8.69v-24.31Z"/><path class="e" d="M173.67,176.21c0,6.23-.09,12.47,.05,18.7,.05,2.16-.63,2.63-2.7,2.65-9.33,.1-9.32,.17-9.32-9.06,0-9.97,.09-19.95-.06-29.92-.04-2.49,.69-3.05,3.09-3.03,8.95,.05,8.95-.04,8.95,9.07,0,3.86,0,7.73,0,11.59Z"/><path class="e" d="M137.75,185.46c0-2.99,.12-5.99-.04-8.97-.11-2.11,.23-3,2.74-3,9.27,0,9.27-.12,9.27,9.14,0,3.99-.11,7.98,.04,11.96,.08,2.11-.24,3-2.74,3-9.27,0-9.27,.12-9.27-9.14v-2.99Z"/><path class="e" d="M322.98,143.63c-6.73,0-13.47-.16-20.2,.08-2.85,.1-3.77-.77-4.05-3.56-1.75-17.84-8.42-33.73-19.86-47.47-15.51-18.62-35.36-29.5-59.53-32.16-2.9-.32-3.9-1.06-3.86-4.17,.19-13.84,.14-27.68,.03-41.51-.02-2.36,.58-2.87,2.92-2.65,53.66,5.11,92.43,31.85,116.21,80.15,7.56,15.36,11.16,31.86,12.44,48.9,.16,2.13-.56,2.46-2.4,2.44-7.23-.08-14.46-.03-21.69-.03Z"/></g></g></svg>