<svg xmlns="http://www.w3.org/2000/svg" xmlns:xlink="http://www.w3.org/1999/xlink" viewBox="0 0 424.4 405.15"><defs><style>.cls-1,.cls-11,.cls-9{fill:#fff;}.cls-1,.cls-14,.cls-15,.cls-16,.cls-2,.cls-33,.cls-4,.cls-5,.cls-8,.cls-9{stroke:#263238;}.cls-1,.cls-14,.cls-16{stroke-miterlimit:10;}.cls-18,.cls-2{fill:#757575;}.cls-15,.cls-17,.cls-2,.cls-33,.cls-4,.cls-5,.cls-8,.cls-9{stroke-linecap:round;stroke-linejoin:round;}.cls-14,.cls-17,.cls-3,.cls-33,.cls-8{fill:none;}.cls-25,.cls-4{fill:#bfbfbf;}.cls-13,.cls-5,.cls-6{fill:#92e3a9;}.cls-15,.cls-30,.cls-7{fill:teal;}.cls-7{opacity:0.7;}.cls-10,.cls-16{fill:#263238;}.cls-12{clip-path:url(#clip-path);}.cls-13{opacity:0.4;}.cls-17{stroke:#fff;}.cls-19{clip-path:url(#clip-path-2);}.cls-20,.cls-30{opacity:0.2;}.cls-21{opacity:0.7;}.cls-22{clip-path:url(#clip-path-3);}.cls-23{fill:#504f51;}.cls-24{fill:#0094a9;}.cls-26{clip-path:url(#clip-path-5);}.cls-27{clip-path:url(#clip-path-6);}.cls-28{clip-path:url(#clip-path-7);}.cls-29{clip-path:url(#clip-path-8);}.cls-31{clip-path:url(#clip-path-9);}.cls-32{opacity:0.96;}.cls-33{stroke-width:3px;}</style><clipPath id="clip-path"><path class="cls-1" d="M311.17,120a80.3,80.3,0,0,0-82.23-80.28c-43.42,1-78.47,37-78.37,80.47a80,80,0,0,0,22.11,55.12,66.7,66.7,0,0,1,16.85,30.64l.54,2.25h81.61l.31-1.32a70.36,70.36,0,0,1,17.45-32A80,80,0,0,0,311.17,120Z"/></clipPath><clipPath id="clip-path-2"><path class="cls-2" d="M305.7,229.85l-3.59,7.57A400.72,400.72,0,0,0,278.28,303c-.22.83-4.9,17.41-1.15,58.67L275,368.87l2.34,12s-3.52,5.09-3.39,6.75c0,0,8.68,1.62,11.58,3.18,2.25,1.21,9,7.89,9,7.89,1.92-.4,2.08-8.16,2.08-8.16s4-68.88,5.17-71.85S310,302.87,321,273.58c0,0,.25,40.92,3.19,51.26,2.61,9.21-.48,35-.48,35l1.76,28.68s-6.18,6.43-1.17,8.15c0,0,3.35-6.45,12.9-7.91,4.85-.75,10.9,7.87,10.9,7.87,2.12-.68-.9-11.5-.9-11.5,6.76-51.06,1.77-41.82,3.12-66.77.87-16,5.41-84.54.08-90.11Z"/></clipPath><clipPath id="clip-path-3"><rect class="cls-3" x="194.33" y="70.59" width="271.77" height="96.6"/></clipPath><clipPath id="clip-path-5"><path class="cls-4" d="M259.83,263.68s4.35-6.7,9-6.26l1.75,4s2.87.15,4.6,4.23,11.32,15.42,11.32,15.42l-13.89,14.42s-11.6-24.39-11-28.34Z"/></clipPath><clipPath id="clip-path-6"><path class="cls-5" d="M293.91,229.37s-17.57,2.59-14.44,22.88,1.17,23.13,1.35,31.49,5.68,11.75,5.68,11.75l4.29-14.5s-2.14,2.75-1.43-7.92.89-24.38.89-24.38"/></clipPath><clipPath id="clip-path-7"><path class="cls-4" d="M321.87,325.08s5,7.75,3.22,9.51c0,0-20.1-7.17-40.68,9.31-.38.3-.75.61-1.13.93l-1.49-5.28,3.63-3s-.66-2.62-1.18-5.92-.95-7.56-.35-10.32c.06-.29-.74-1.49-1.68-3.64h0a32.21,32.21,0,0,1-2.36-8.46,44.17,44.17,0,0,1,1.07-16.71,66.81,66.81,0,0,1,3-9.32c2.92-7.32,17.69-10.76,34.88-6.29a9.13,9.13,0,0,1,5.14,3.49C332.61,291,321.87,325.08,321.87,325.08Z"/></clipPath><clipPath id="clip-path-8"><path class="cls-5" d="M284.34,236.2c5-9.61,14-6.27,14-6.27,17.62-3.34,18.16,17.17,19.76,28s7.43,13.32,9.08,22.39a24.12,24.12,0,0,1-.12,6.57,4,4,0,0,0-1.6-2.37c.34,11.73-6.62,17.55-7.05,17.89,4.92-6.75,4.32-11.14,4.32-11.14-1.9,6.89-9.26,13.65-9.26,13.65s-6.28-1.42-9.23-10.57c-2.61-8.13-6.08-11-6.29-11.13A59.77,59.77,0,0,1,303.22,298a138.74,138.74,0,0,1-9.31-15.85c-12.28-23.4-10.78-33.1-10.78-33.1"/></clipPath><clipPath id="clip-path-9"><path class="cls-5" d="M58.28,225.25c-2.68,1.56-9.59,16.27-5.55,45.49s16.11,86.34,18.13,95.07S80,395.56,80,395.56s2.71-9.11,15.74-4.24a.67.67,0,0,0,.88-.75l-2.86-14.89s-.2-10.89-1.14-13.62c-3.53-10.29-5.3-50-6.46-55.56S87.27,285,87.27,285s16.32,39,16.85,42.87,10.47,19.77,10.47,19.77l1.72,14.65s13.23,22.69,15.56,29.46l15.77-3.42-.44-11.21L143,375.68l-7.42-25.49a225,225,0,0,0-8.63-26c-3.51-8.87-13.46-43.2-13.46-43.2-3.09-3.36-6-21.93-6-21.93l-4.78-23.44Z"/></clipPath></defs><g id="Layer_2" data-name="Layer 2"><g id="Background_Simple" data-name="Background Simple"><path class="cls-6" d="M372.28,404.07s89.4-122.39,34-216.46S240.87,158.1,219.92,70.31,122.5-31.87,50,77.91-5.19,340.36,33.21,404.07Z"/><path class="cls-7" d="M372.28,404.07s89.4-122.39,34-216.46S240.87,158.1,219.92,70.31,122.5-31.87,50,77.91-5.19,340.36,33.21,404.07Z"/></g><g id="Floor"><line class="cls-8" x1="19.78" y1="404.07" x2="418.34" y2="404.07"/></g><g id="Bricks"><rect class="cls-8" x="59.35" y="74.17" width="24.95" height="10.02" transform="translate(143.65 158.35) rotate(180)"/><rect class="cls-8" x="79.33" y="85.63" width="24.95" height="10.02" transform="translate(183.61 181.29) rotate(180)"/><rect class="cls-8" x="136.61" y="150.61" width="24.95" height="10.02" transform="translate(298.16 311.24) rotate(180)"/><rect class="cls-8" x="124.13" y="163.84" width="24.95" height="10.02" transform="translate(273.21 337.69) rotate(180)"/><rect class="cls-8" x="46.88" y="244.73" width="24.95" height="10.02" transform="translate(118.7 499.49) rotate(180)"/><rect class="cls-8" x="60.55" y="257.2" width="24.95" height="10.02" transform="translate(146.04 524.43) rotate(180)"/><rect class="cls-8" x="205.87" y="269.11" width="24.95" height="10.02" transform="translate(436.68 548.24) rotate(180)"/><rect class="cls-8" x="192.69" y="282.45" width="24.95" height="10.02" transform="translate(410.32 574.92) rotate(180)"/><rect class="cls-8" x="54.76" y="334.82" width="24.95" height="10.02" transform="translate(134.46 679.66) rotate(180)"/><rect class="cls-8" x="74.83" y="244.73" width="24.95" height="10.02" transform="translate(174.61 499.49) rotate(180)"/><path class="cls-8" d="M193.43,215.61c-24.26.27-49.26.27-72.76,0"/><path class="cls-8" d="M203.42,215.61h-6.1"/><path class="cls-8" d="M401.52,357.29c-24.26.26-49.26.26-72.76,0"/><path class="cls-8" d="M411.51,357.29h-6.1"/><path class="cls-8" d="M297.85,52.08c-24.25.26-49.25.26-72.76,0"/><path class="cls-8" d="M307.85,52.08h-6.1"/><path class="cls-8" d="M82.38,125.65q-16,.28-31.93.12"/><path class="cls-8" d="M287.89,337.18q-16,.27-31.93.12"/><path class="cls-8" d="M78.59,319.05H82"/><path class="cls-8" d="M42.34,319.05H74.68"/><path class="cls-8" d="M164.38,25.27h3.44"/><path class="cls-8" d="M128.13,25.27h32.34"/><rect class="cls-8" x="358.85" y="307.82" width="24.95" height="10.02"/><rect class="cls-8" x="338.87" y="296.35" width="24.95" height="10.02"/><rect class="cls-8" x="281.6" y="231.38" width="24.95" height="10.02"/><rect class="cls-8" x="294.07" y="218.15" width="24.95" height="10.02"/><rect class="cls-8" x="371.33" y="137.25" width="24.95" height="10.02"/><rect class="cls-8" x="357.66" y="124.78" width="24.95" height="10.02"/><rect class="cls-8" x="212.34" y="112.87" width="24.95" height="10.02"/><rect class="cls-8" x="225.52" y="99.53" width="24.95" height="10.02"/><rect class="cls-8" x="305.22" y="25.66" width="24.95" height="10.02"/><rect class="cls-8" x="343.37" y="137.25" width="24.95" height="10.02"/><path class="cls-8" d="M249.73,176.39c24.25-.26,49.25-.26,72.76,0"/><path class="cls-8" d="M239.74,176.39h6.09"/><path class="cls-8" d="M360.77,266.35q16-.27,31.93-.11"/><path class="cls-8" d="M364.56,73h-3.44"/><path class="cls-8" d="M400.82,73H368.47"/></g><g id="Character_3" data-name="Character 3"><path class="cls-9" d="M321.84,146.79l-16.7-12.72s-20.26-38.34-21.41-39.69l-6.06,7.82s11.42,33.35,13.11,38,8.64,9.9,12.05,13.47,16.69,13,16.69,13Z"/><path class="cls-10" d="M238.58,259.06H223.17A18.16,18.16,0,0,1,205,241.92l-.84-14.79h53.36l-.84,14.79A18.16,18.16,0,0,1,238.58,259.06Z"/><path class="cls-11" d="M311.17,120a80.3,80.3,0,0,0-82.23-80.28c-43.42,1-78.47,37-78.37,80.47a80,80,0,0,0,22.11,55.12,66.7,66.7,0,0,1,16.85,30.64l.54,2.25h81.61l.31-1.32a70.36,70.36,0,0,1,17.45-32A80,80,0,0,0,311.17,120Z"/><g class="cls-12"><path class="cls-13" d="M228.94,39.67c-43.42,1-78.47,37-78.37,80.47a80,80,0,0,0,22.11,55.12,66.7,66.7,0,0,1,16.85,30.64l.54,2.25h81.61l.31-1.32a70.36,70.36,0,0,1,17.45-32,80.29,80.29,0,0,0-60.5-135.19Zm1.67,145.13a71.7,71.7,0,1,1,71.7-71.7A71.7,71.7,0,0,1,230.61,184.8Z"/></g><path class="cls-14" d="M311.17,120a80.3,80.3,0,0,0-82.23-80.28c-43.42,1-78.47,37-78.37,80.47a80,80,0,0,0,22.11,55.12,66.7,66.7,0,0,1,16.85,30.64l.54,2.25h81.61l.31-1.32a70.36,70.36,0,0,1,17.45-32A80,80,0,0,0,311.17,120Z"/><path class="cls-15" d="M203.47,248.69h54.8A30.14,30.14,0,0,0,273.79,224l1.39-24.57H186.56L188,224A30.17,30.17,0,0,0,203.47,248.69Z"/><path class="cls-5" d="M274.77,208.35l-86.15,7a3.3,3.3,0,0,1-3.55-3h0a3.3,3.3,0,0,1,3-3.56l86.15-6.95a3.3,3.3,0,0,1,3.55,3h0A3.3,3.3,0,0,1,274.77,208.35Z"/><path class="cls-5" d="M274.75,221.39l-85.23,6.88a3.3,3.3,0,0,1-3.55-3h0a3.3,3.3,0,0,1,3-3.55l85.23-6.88a3.28,3.28,0,0,1,3.55,3h0A3.29,3.29,0,0,1,274.75,221.39Z"/><path class="cls-5" d="M272.14,234.71l-78.53,6.34a3.3,3.3,0,0,1-3.55-3h0a3.28,3.28,0,0,1,3-3.55l78.53-6.34a3.3,3.3,0,0,1,3.56,3h0A3.31,3.31,0,0,1,272.14,234.71Z"/><path class="cls-16" d="M293.31,387.76s1.82,11.12,0,16.31H256.53s-1.56-3.89,0-6.34,13.21-3.86,16.84-7.17a62.79,62.79,0,0,0,7.51-9Z"/><polygon class="cls-9" points="255.84 402.11 293.79 402.11 294.12 404.07 255.84 404.07 255.84 402.11"/><path class="cls-17" d="M284.47,386.41s-3.46.84-3.85,1-3.76,5.32-7.12,6.22-6.74.73-6.22,2.38"/><line class="cls-17" x1="276.81" y1="386.41" x2="280.75" y2="389.32"/><line class="cls-17" x1="274.98" y1="388.96" x2="278.78" y2="391.75"/><line class="cls-17" x1="272.55" y1="391.19" x2="275.85" y2="394.37"/><line class="cls-17" x1="269.22" y1="392.81" x2="270.65" y2="395.97"/><path class="cls-11" d="M293.91,392.81a30.94,30.94,0,0,0-12.64,1.58c-6.61,2.31-8.89,4.33-8.72,4.94s.95,2.41.95,2.41h3.31s-1.2-2.11-1-2.41,11.53-4.7,18.06-3.92Z"/><path class="cls-16" d="M347,404.07s1.41-5.41-.24-7.42c-3-3.6.36-6.62-2.63-7.87l-1.25,1.46c-.24-1.48.45-6-5.09-6.54-6.69-.71-6.82,4.16-7.18,5.77l.11-2.24c-2.86,0-1.38,2.85-5.71,7.51a12.38,12.38,0,0,0-3.13,9.33Z"/><polygon class="cls-9" points="321.9 402.11 347.6 402.11 347.04 404.07 321.93 404.07 321.9 402.11"/><path class="cls-17" d="M330.15,394.52s8.44-2.79,12.51.7"/><path class="cls-17" d="M330.15,392.67s7.42-2.35,12.51.79"/><path class="cls-17" d="M330.59,390.85s7-2.63,12.07,1"/><path class="cls-11" d="M325.05,394.74l.83.82a.68.68,0,0,1,.1.87,10.35,10.35,0,0,0-1.72,5.68H323a18,18,0,0,1,1.78-5.66l-.64-.64Z"/><path class="cls-8" d="M299.93,335.48s-5.46,9.28-14.69,7.31"/><path class="cls-18" d="M305.7,229.85l-3.59,7.57A400.72,400.72,0,0,0,278.28,303c-.22.83-4.9,17.41-1.15,58.67L275,368.87l2.34,12s-3.52,5.09-3.39,6.75c0,0,8.68,1.62,11.58,3.18,2.25,1.21,9,7.89,9,7.89,1.92-.4,2.08-8.16,2.08-8.16s4-68.88,5.17-71.85S310,302.87,321,273.58c0,0,.25,40.92,3.19,51.26,2.61,9.21-.48,35-.48,35l1.76,28.68s-6.18,6.43-1.17,8.15c0,0,3.35-6.45,12.9-7.91,4.85-.75,10.9,7.87,10.9,7.87,2.12-.68-.9-11.5-.9-11.5,6.76-51.06,1.77-41.82,3.12-66.77.87-16,5.41-84.54.08-90.11Z"/><g class="cls-19"><path class="cls-20" d="M352.93,253.44c-23.89,1.88-44.59-5.93-53.56-10,1.7-3.83,2.75-6,2.75-6l3.58-7.57,44.68-1.62C352.31,230.24,352.94,240.45,352.93,253.44Z"/><path class="cls-20" d="M320.78,274.11c-10.87,28.91-17.85,41.57-19,44.53-.66,1.7-2.26,25.1-3.51,44.73-1.43-17.86-2.9-36.71-3-40.41-.27-7.35,5.05-17.45,5.85-20.06s-1-5.43-1-5.43l9.57-12.07c-.32-4.09,4.74-22,4.74-22C317.42,266.29,320.07,272.36,320.78,274.11Z"/></g><path class="cls-8" d="M305.7,229.85l-3.59,7.57A400.72,400.72,0,0,0,278.28,303c-.22.83-4.9,17.41-1.15,58.67L275,368.87l2.34,12s-3.52,5.09-3.39,6.75c0,0,8.68,1.62,11.58,3.18,2.25,1.21,9,7.89,9,7.89,1.92-.4,2.08-8.16,2.08-8.16s4-68.88,5.17-71.85S310,302.87,321,273.58c0,0,.25,40.92,3.19,51.26,2.61,9.21-.48,35-.48,35l1.76,28.68s-6.18,6.43-1.17,8.15c0,0,3.35-6.45,12.9-7.91,4.85-.75,10.9,7.87,10.9,7.87,2.12-.68-.9-11.5-.9-11.5,6.76-51.06,1.77-41.82,3.12-66.77.87-16,5.41-84.54.08-90.11Z"/><path class="cls-8" d="M321,273.58S315.52,263,310.86,260.1"/><path class="cls-8" d="M308.82,256.69s16.59,5.05,22.34,6"/><path class="cls-8" d="M317.31,239.76c-.72,13.81-5.59,16.16-.88,19.18,0,0-.13,6.46,2.21,10.55"/><path class="cls-8" d="M346.38,234.48s-2,21.23,4.57,25.22"/><path class="cls-8" d="M351,241.32s.49,14.14,0,25.52c0,0-1.63,48.14-3.26,54.18s2.51,15.16,2.15,41.31"/><path class="cls-8" d="M335.27,382.79a6.85,6.85,0,0,1,4.58.62"/><path class="cls-8" d="M325.45,388.5a25.27,25.27,0,0,1,7-4.82"/><path class="cls-8" d="M328.18,276.92c3.67,4.1,9.47,11.85,15.42,12.51"/><path class="cls-8" d="M322.53,270.23q1.7,2.13,3.48,4.2"/><path class="cls-8" d="M327.76,318.34s8.33,11.34,12.9,12"/><path class="cls-8" d="M318,271.53s-14.83,41.32-20,45.41c0,0-.59,30.37-.75,41s-2.61,24.72-2.61,24.72"/><path class="cls-8" d="M278.77,382.34s5.71,2,8.49,3.24a7.66,7.66,0,0,1,3.75,4"/><path class="cls-8" d="M293.22,302c8-5,18.47-11.25,22.7-20.05"/><path class="cls-8" d="M286.28,306.16c1.5-.83,3-1.71,4.46-2.6"/><path class="cls-8" d="M311.37,245.34c4.29-.06,9-.62,12.63-3"/><path class="cls-8" d="M304.57,244.94c1.23.18,2.46.28,3.7.34"/><path class="cls-5" d="M326.75,155.36s25.17-7.14,39.66.6c3.6,1.93,11.83,8.17,11.54,15.67s-24.12,42.35-23.83,47,0,16.64-1.76,17.45-40,1.93-49.44-.5c-3.77-1,3.64-18.81,3.64-18.81S313.78,178.13,326.75,155.36Z"/><path class="cls-9" d="M362.6,154s-15.92,6.38-21.14-.29a5.26,5.26,0,0,0,4.58-2.19,8,8,0,0,0,1.29-4.24c.08-1.18-2.26-16.33-1.29-17.69,14.67-20.5,17.91,9.6,17.91,9.6S358.76,152.15,362.6,154Z"/><path class="cls-10" d="M351.45,145.83s-1,4.72-5.41,5.72a8,8,0,0,0,1.29-4.24A24.18,24.18,0,0,0,351.45,145.83Z"/><path class="cls-10" d="M365.44,148.69,349,153.06v8.55s-4.78,11.95-4.63,13.89S349,255.34,349,255.34s13.36-1,18.19-9.29c0,0-1.93-30.21,0-35.18a41.73,41.73,0,0,0,2.19-11.51s12.59-23.53,9.79-30.71-11.54-14.16-11.54-14.16Z"/><path class="cls-17" d="M350.88,154.28s2.72,8.87,3.06,8.69,9.75-4,12.29-7.78"/><path class="cls-10" d="M345.24,152.45c-.23-.34-10.47-6.62-10.47-6.62l-5.27,1.39-7.78-4.86s-7.88,24-7.65,29.56-8.17,36.28-9.4,48.4c0,0,10-19.72,11.42-23.16s6.08-26.59,9.92-32S338.83,153,338.83,153Z"/><path class="cls-9" d="M364.52,137.18a14.42,14.42,0,0,0,.88-6.28c-1.08-15.17-4.67-18.7-10.58-17.72-22.06,3.68-15.52,14.89-16.37,18.6s-4,4-3.54,5.69c.17.67,2.77.74,2.77.74l.15,3.5,1,.24s.8,8,2.83,8.89c2.57,1.17,10.24-3.46,10.23-6.34"/><path class="cls-8" d="M340.18,126.34s3.1-.63,4.65,1.84"/><path class="cls-10" d="M341.47,130.93c.11.73.51,1.28.9,1.22s.6-.71.49-1.44-.52-1.28-.9-1.22S341.36,130.19,341.47,130.93Z"/><path class="cls-8" d="M338.83,142a16.65,16.65,0,0,0,4.81-.7"/><path class="cls-8" d="M343,141.47s-1.28,1.79-2.44,1.79-1.21-.9-1.21-.9"/><path class="cls-10" d="M365.85,115.57s1.1-4.71-9.88-5.34c-8.57-.49-16.4.27-19.3,5.82s-2.58,10.53,1.55,11.17A15.57,15.57,0,0,1,344.83,117s-2.4,6.21,1.21,9.27a9.62,9.62,0,0,0,2.67,1.6,6.62,6.62,0,0,0,1,1.45c1.74,2,1.81,6.15,1.81,6.15l1.68-1s-2.44-6.46,4.65-4.94c3.64.79,3,5.18,3.53,7.92.56,2.89,2,3.49,2,3.49a20.26,20.26,0,0,0,3.82-6.32h0s3.62-2.57,3.62-6.37S369.8,118.3,365.85,115.57Z"/><path class="cls-9" d="M353.94,129.63s2.3-3.53,4.34-3.62,3.41,7,1.54,9.75-3.71,3.67-4.56,2.86a2.4,2.4,0,0,1-.6-2.05"/><path class="cls-17" d="M327.15,157.55a62.79,62.79,0,0,0,6.69-8.86"/><path class="cls-17" d="M327.15,148.69a6.53,6.53,0,0,1,3.34,2.86"/><path class="cls-10" d="M321.72,142.36l-8.24-3.46-2.79-4.25a39.87,39.87,0,0,0-6,24l4.59,2.91,6.26,14.25Z"/><path class="cls-9" d="M351.58,175.8s8.28,11.69,4.21,16.63c-1.91,2.32-18.78,7.92-18.78,7.92l-50.6-3-16.84,3-1.88.16a1.93,1.93,0,0,1,.46-2.83s-.91-2.21-.53-2.7c1.15-1.47,6.38-3.88,6.38-3.88s-6.05,1.51-3.55-1.74c1.7-2.2,8.16-2.66,11.14-4.61,2.45-1.61.31-10.55,5.63-8.95a17,17,0,0,0-1,7.6c.08.64.22,3.84.22,3.84,2.7,3.1,31.65-.91,34.14-1s14.62-1.91,14.62-1.91Z"/><path class="cls-8" d="M278.48,187.49a4.73,4.73,0,0,1,.46,2c-.14.66-1.91,1.91-1.91,1.91a5.86,5.86,0,0,0,0,1.9c.2.46-1.91,2.11-1.91,2.7a5.7,5.7,0,0,1-.92,1.91"/><path class="cls-8" d="M268.15,197.68c.79.59,4.16-2.74,6.05-2.9"/><path class="cls-8" d="M272.56,198.14a21.79,21.79,0,0,1-4.41,2.1"/><path class="cls-17" d="M350.16,175.61l1.29-2.19s3.39,1.45,4.32,0,11.21-6.2,13.18-6.07"/><path class="cls-17" d="M354.32,194.78s2.5,2.58,3.16,1.49,9.6-1.57,13.33-4.65"/><path class="cls-17" d="M351.94,205.2c0,.39,6.6,21.1,9.23,24"/><path class="cls-8" d="M338.49,207.31c-.79.53-16.13,13.32-22.57,13.45"/><path class="cls-8" d="M327.15,171.48c0,.75,4.54,7,6.69,8.66"/><g class="cls-21"><g class="cls-22"><g class="cls-22"><path class="cls-23" d="M209.63,100.75c-3.31,11.42,17.32,19.9,25.37,33.38,7.95,13.3-1.14,20.3-7.79,25.82,2.65-8.74-8-14.3-17.27-24.5-9.08-10-8.3-23.67-.31-34.7"/><path class="cls-24" d="M232.8,77.82c-4.07,14,24.12,19.77,24,40.46,0,6.44-3.15,12.22-7.64,19,3.82-7.8-9.28-17.34-18.56-27.55-9.08-10-14.25-21.35,2.24-31.95"/></g></g></g></g><g id="Character_2" data-name="Character 2"><path class="cls-9" d="M266.86,239.32c2.67,0-1.42,4.32-1.42,4.32a28.36,28.36,0,0,1-1.82,9.21l8.28,12.8-7.12,5.66-7.23-14.67s-6.31-2.26-4.8-6c.95-2.35,4-2.62,4-2.62A56.82,56.82,0,0,1,266.86,239.32Z"/><path class="cls-25" d="M259.83,263.68s4.35-6.7,9-6.26l1.75,4s2.87.15,4.6,4.23,11.32,15.42,11.32,15.42l-13.89,14.42s-11.6-24.39-11-28.34Z"/><g class="cls-26"><path class="cls-20" d="M259.83,263.68s4.35-6.7,9-6.26l1.75,4s2.87.15,4.6,4.23,11.32,15.42,11.32,15.42l-13.89,14.42s-11.6-24.39-11-28.34Z"/></g><path class="cls-8" d="M259.83,263.68s4.35-6.7,9-6.26l1.75,4s2.87.15,4.6,4.23,11.32,15.42,11.32,15.42l-13.89,14.42s-11.6-24.39-11-28.34Z"/><path class="cls-6" d="M293.91,229.37s-17.57,2.59-14.44,22.88,1.17,23.13,1.35,31.49,5.68,11.75,5.68,11.75l4.29-14.5s-2.14,2.75-1.43-7.92.89-24.38.89-24.38"/><g class="cls-27"><path class="cls-20" d="M293.91,229.37s-17.57,2.59-14.44,22.88,1.17,23.13,1.35,31.49,5.68,11.75,5.68,11.75l4.29-14.5s-2.14,2.75-1.43-7.92.89-24.38.89-24.38"/></g><path class="cls-8" d="M293.91,229.37s-17.57,2.59-14.44,22.88,1.17,23.13,1.35,31.49,5.68,11.75,5.68,11.75l4.29-14.5s-2.14,2.75-1.43-7.92.89-24.38.89-24.38"/><path class="cls-8" d="M283.07,260.55s2,11,.54,18.63"/><path class="cls-9" d="M244.37,275.17a23.33,23.33,0,0,1-3.09-7.83c1.11-1.45.48-8.19.52-8.87s-3.59-4.08-5-8.83a4.87,4.87,0,0,0-1.56,3.27c.09,2,1.06,3.51.7,3.85-1.91,1.81-6.93-.32-8.44-.85-3.36-1.19-5,.56-3.3,2.43.6.66,1.89.19,1.78,1.8s-.37.22.49,2.83.55,3.45,2.5,4.75,5.08,3.4,5.08,3.4l4.07,8.6Z"/><path class="cls-10" d="M285.69,339.92s7-10.35,24.43-10.93,16.57,9.83,16.57,9.83,9.06,13.29,8,23.68S320,382.15,320,382.15s27.82,6.51,31,5.16,9.64,12.48,7.15,15.58S277,400.68,277,400.68s-7.83-9.21-8.18-15.65,17.33-31.14,16.85-32.31S285.69,339.92,285.69,339.92Z"/><path class="cls-10" d="M315.16,351.66s2.34,19.29-7.58,22.64l-32.64,13.12s45.43,3.93,52.35,2.54,16.63,12.63,16.63,12.63H261c-14.13,0-22.2-11.18-19.35-20.2s41.53-35.55,41.53-35.55-2-9.73,19.21-16.89C321.55,323.5,315.16,351.66,315.16,351.66Z"/><path class="cls-25" d="M321.87,325.08s5,7.75,3.22,9.51c0,0-20.1-7.17-40.68,9.31-.38.3-.75.61-1.13.93l-1.49-5.28,3.63-3s-.66-2.62-1.18-5.92-.95-7.56-.35-10.32c.06-.29-.74-1.49-1.68-3.64h0a32.21,32.21,0,0,1-2.36-8.46,44.17,44.17,0,0,1,1.07-16.71,66.81,66.81,0,0,1,3-9.32c2.92-7.32,17.69-10.76,34.88-6.29a9.13,9.13,0,0,1,5.14,3.49C332.61,291,321.87,325.08,321.87,325.08Z"/><g class="cls-28"><path class="cls-20" d="M279.84,308.23a44.17,44.17,0,0,1,1.07-16.71l3.64-1.16S286.92,297.16,279.84,308.23Z"/><path class="cls-20" d="M284.24,330.65c-.55-3.42-.95-7.56-.35-10.32.06-.29-.74-1.49-1.68-3.64,0,0,8.39,6.58,11.7,6C295.91,322.33,289.58,326.94,284.24,330.65Z"/><path class="cls-20" d="M321.87,325.08s5,7.75,3.22,9.51c0,0-20.1-7.17-40.68,9.31,3.94-5,10-10.78,17.44-12.5,13.76-3.17,19.13-2.72,19.13-2.72l-4.46-5.78s-15,0-22.61-11.39a42.82,42.82,0,0,0,12.24,2.14c5.6.12,12.21-4.57,14.22-6.11-1.71,1.12-7,3.16-15.8-5.62-10.91-10.88-11.47-31.19,11.95-25.48a28.78,28.78,0,0,1,7.41,3C332.61,291,321.87,325.08,321.87,325.08Z"/></g><path class="cls-8" d="M321.87,325.08s5,7.75,3.22,9.51c0,0-20.1-7.17-40.68,9.31-.38.3-.75.61-1.13.93l-1.49-5.28,3.63-3s-.66-2.62-1.18-5.92-.95-7.56-.35-10.32c.06-.29-.74-1.49-1.68-3.64h0a32.21,32.21,0,0,1-2.36-8.46,44.17,44.17,0,0,1,1.07-16.71,66.81,66.81,0,0,1,3-9.32c2.92-7.32,17.69-10.76,34.88-6.29a9.13,9.13,0,0,1,5.14,3.49C332.61,291,321.87,325.08,321.87,325.08Z"/><path class="cls-17" d="M322.94,359.55c.17,6.94-9.89,14.06-15.62,13.53,0,0-9.57,7-20.64,9.62"/><path class="cls-17" d="M263,383.93s13.32-1.42,18.23.95,29.34,5.92,33.38,5.21"/><path class="cls-17" d="M305.62,344.84s6.52-1.38,11.38,0c0,0,.72,7.3,0,11.33L311.47,359a59.24,59.24,0,0,1-5.85-2.14c-.36-.35-.32-7.83-.81-9.25"/><path class="cls-17" d="M333.38,358.07,332,359l-3.46-3.09c.12-3.32-2.73-10.44-2.73-10.44a6.71,6.71,0,0,1,3.8.6"/><path class="cls-17" d="M320.46,371.13a10.8,10.8,0,0,0,8.29,1.29"/><path class="cls-17" d="M319,382.7s-5.41,3.72-14.21,1.71"/><path class="cls-17" d="M304.81,372.31s-8.21-2.71-10.11-6.52"/><path class="cls-17" d="M289.36,370.41c.59.47,5.34,1.9,10.39,1.9"/><path class="cls-17" d="M261,379.66s4.14,1,5.21,2.49"/><path class="cls-17" d="M312.38,392.12s-4,2.61-3.92,6.05"/><path class="cls-5" d="M344.18,392.26c.22-5.73,5.52-3.36,5.52-3.36s3.87-5.68,7.62-4.36,4.72,3.31,10.67,5.4,14.07.45,16.27,6.12-.61,8.85-14.06,7.82-17-1.48-17-1.48S343.74,403.72,344.18,392.26Z"/><path class="cls-8" d="M349.42,391a7.44,7.44,0,0,0,2.7,6.45"/><path class="cls-4" d="M354.9,384.54c-2.86,1.14-3.22,7.72,3.39,11.91s7.95.6,12.13,4.11,10.74,4,14.52,1.29.69-8.05-6.36-10.81-9.31,0-13.19-2.14S361,382.12,354.9,384.54Z"/><path class="cls-8" d="M357.19,385.8c-.22.73,0,7.34,0,7.34"/><line class="cls-8" x1="360.52" y1="386.12" x2="360.52" y2="396.06"/><line class="cls-8" x1="364.03" y1="388.9" x2="364.03" y2="397.33"/><line class="cls-8" x1="367.88" y1="391.04" x2="367.44" y2="397.49"/><line class="cls-8" x1="372.18" y1="391.09" x2="372.18" y2="400.08"/><line class="cls-8" x1="376.38" y1="392" x2="376.38" y2="401.85"/><line class="cls-8" x1="381.11" y1="393.73" x2="381.55" y2="401.19"/><path class="cls-5" d="M331.24,387.08a30.41,30.41,0,0,0-10.46,4.15s-2.11-3.1-4.09-.08-.54,13.67,4.09,11.55c0,0,6.61,2.17,20,.85s.66-8.67.66-8.67Z"/><path class="cls-4" d="M332.45,387.14c-5.18-1.06-8.1,7.79-5.65,12s4.52,4.23,13.76,4.23,18.46.33,17.89-8.52-13.2-6.62-16.21-5.5S335.23,387.71,332.45,387.14Z"/><line class="cls-8" x1="330.81" y1="389.11" x2="331.33" y2="401.01"/><line class="cls-8" x1="334.67" y1="390.21" x2="335.33" y2="401.01"/><line class="cls-8" x1="337.97" y1="390.76" x2="338.64" y2="401.56"/><line class="cls-8" x1="341.93" y1="391.42" x2="342.94" y2="401.56"/><line class="cls-8" x1="345.91" y1="390.21" x2="346.84" y2="401.56"/><line class="cls-8" x1="349.99" y1="390.21" x2="351.31" y2="401.01"/><line class="cls-8" x1="353.96" y1="390.76" x2="355.06" y2="399.25"/><path class="cls-8" d="M320,393s-1,4.71.55,7.39"/><path class="cls-4" d="M292.7,273c-1,.18-7.89.42-10.8,1.38-7.36,2.44-26.1,18.26-26.1,18.26l-12.88-22.73s-5.61-1-8.38,4l1.47,4.23a45.79,45.79,0,0,0-1.07,5.55c-.33,4.56,9.52,28.31,14.31,29.71,7.5,2.18,28.13-13.42,28.13-13.42s8.65-5.77,9.53-11.14"/><path class="cls-6" d="M284.34,236.2c5-9.61,14-6.27,14-6.27,17.62-3.34,18.16,17.17,19.76,28s7.43,13.32,9.08,22.39a24.12,24.12,0,0,1-.12,6.57,4,4,0,0,0-1.6-2.37c.34,11.73-6.62,17.55-7.05,17.89,4.92-6.75,4.32-11.14,4.32-11.14-1.9,6.89-9.26,13.65-9.26,13.65s-6.28-1.42-9.23-10.57c-2.61-8.13-6.08-11-6.29-11.13A59.77,59.77,0,0,1,303.22,298a138.74,138.74,0,0,1-9.31-15.85c-12.28-23.4-10.78-33.1-10.78-33.1"/><g class="cls-29"><path class="cls-30" d="M284.34,236.2c5-9.61,14-6.27,14-6.27,17.62-3.34,18.16,17.17,19.76,28s7.43,13.32,9.08,22.39a24.12,24.12,0,0,1-.12,6.57,4,4,0,0,0-1.6-2.37c.34,11.73-6.62,17.55-7.05,17.89,4.92-6.75,4.32-11.14,4.32-11.14-1.9,6.89-9.26,13.65-9.26,13.65s-6.28-1.42-9.23-10.57c-2.61-8.13-6.08-11-6.29-11.13A59.77,59.77,0,0,1,303.22,298a138.74,138.74,0,0,1-9.31-15.85c-12.28-23.4-10.78-33.1-10.78-33.1"/></g><path class="cls-8" d="M284.34,236.2c5-9.61,14-6.27,14-6.27,17.62-3.34,18.16,17.17,19.76,28s7.43,13.32,9.08,22.39a24.12,24.12,0,0,1-.12,6.57,4,4,0,0,0-1.6-2.37c.34,11.73-6.62,17.55-7.05,17.89,4.92-6.75,4.32-11.14,4.32-11.14-1.9,6.89-9.26,13.65-9.26,13.65s-6.28-1.42-9.23-10.57c-2.61-8.13-6.08-11-6.29-11.13A59.77,59.77,0,0,1,303.22,298a138.74,138.74,0,0,1-9.31-15.85c-12.28-23.4-10.78-33.1-10.78-33.1"/><path class="cls-8" d="M299.62,231.84s9-5.82,12.34,11.56,6.05,19.17,7.71,27.71-.12,15.42-2.61,18"/><path class="cls-8" d="M300.81,234.69c3.08,5.81,5.46,13.64,6.41,28.11s.62,29.41,6.4,33.82"/><path class="cls-8" d="M291.08,233s-7.83,3.91-2.13,15.66,11.86,21.11,11.86,27.88,1.84,10.3,5.34,11.5"/><path class="cls-8" d="M265.44,243.64s-2.24,3.56-2.38,4.62"/><path class="cls-8" d="M255.8,292.67s-5.94,2.4-5.21,7.51"/><path class="cls-8" d="M249.15,291.76s2.2-2.25,4-1.39"/><path class="cls-8" d="M238.67,275.28s3.69-2.76,5.7-2.5"/><path class="cls-8" d="M270.58,261.42a15.2,15.2,0,0,0-6.33,3.26"/><path class="cls-8" d="M288.51,294.21c-.19,0-4.77,3.53-7.92,3.35"/><path class="cls-8" d="M292.51,309.37c0,1.26,12,15.45,25.18,13.32"/></g><g id="Character_1" data-name="Character 1"><path class="cls-10" d="M121.59,178.75s10.41,5.56,12.71,10.51S145,219.67,145,219.67s6.36,10.46,7.83,12.57.85,11.06-6.48,10.94-15.81-7-16.12-10.21-4.1-5-4.38-7.72-9.1-20.76-9.1-20.76Z"/><path class="cls-9" d="M133.33,389.52s-1.57,9.63,0,14.13h31.88s1.34-3.37,0-5.5-11.45-3.34-14.59-6.21a53.6,53.6,0,0,1-6.51-7.81Z"/><polygon class="cls-9" points="165.81 401.95 132.91 401.95 132.63 403.65 165.81 403.65 165.81 401.95"/><path class="cls-8" d="M141,388.34s3,.73,3.34.84,3.26,4.6,6.17,5.39,5.84.63,5.39,2.05"/><line class="cls-8" x1="147.64" y1="388.34" x2="144.22" y2="390.86"/><line class="cls-8" x1="149.22" y1="390.55" x2="145.93" y2="392.97"/><line class="cls-8" x1="151.32" y1="392.48" x2="148.47" y2="395.24"/><line class="cls-8" x1="154.21" y1="393.89" x2="152.97" y2="396.62"/><path class="cls-9" d="M79.31,403.65s-1.23-4.69.21-6.43c2.58-3.12-.32-5.74,2.27-6.82l1.09,1.26c.21-1.28-.4-5.16,4.4-5.67,5.81-.61,5.92,3.61,6.23,5l-.09-1.94c2.47,0,1.19,2.47,4.94,6.51a10.71,10.71,0,0,1,2.71,8.09Z"/><path class="cls-6" d="M58.28,225.25c-2.68,1.56-9.59,16.27-5.55,45.49s16.11,86.34,18.13,95.07S80,395.56,80,395.56s2.71-9.11,15.74-4.24a.67.67,0,0,0,.88-.75l-2.86-14.89s-.2-10.89-1.14-13.62c-3.53-10.29-5.3-50-6.46-55.56S87.27,285,87.27,285s16.32,39,16.85,42.87,10.47,19.77,10.47,19.77l1.72,14.65s13.23,22.69,15.56,29.46l15.77-3.42-.44-11.21L143,375.68l-7.42-25.49a225,225,0,0,0-8.63-26c-3.51-8.87-13.46-43.2-13.46-43.2-3.09-3.36-6-21.93-6-21.93l-4.78-23.44Z"/><g class="cls-31"><path class="cls-20" d="M105,246.84c-8,4.27-25.46,12.48-33.38,7.36C64.92,249.9,57.4,243,52.81,238.53c1.54-8.11,4.08-12.48,5.47-13.29l44.38,10.36Z"/><path class="cls-20" d="M147.64,388.34l-15.77,3.41c-2.33-6.77-15.56-29.45-15.56-29.45l-1.72-14.65s-9.94-15.95-10.47-19.78S87.28,285,87.28,285s-.39,2.73-.78,6.34c.12-1.87,1-14.44.49-18.31l.4-2.34s10.74-7.76,12.18-4.8-5.63,6-5.63,6,6.53,2,9.7,2.1-.72,7.87-2.21,8.75-7.25,0-7.25,0S106.54,313.28,118,323.9a30.08,30.08,0,0,0,11.29,6.57c4.21,11.53,6.23,19.71,6.23,19.71L143,375.67l4.25,1.46Z"/></g><path class="cls-8" d="M58.28,225.25c-2.68,1.56-9.59,16.27-5.55,45.49s16.11,86.34,18.13,95.07S80,395.56,80,395.56s2.71-9.11,15.74-4.24a.67.67,0,0,0,.88-.75l-2.86-14.89s-.2-10.89-1.14-13.62c-3.53-10.29-5.3-50-6.46-55.56S87.27,285,87.27,285s16.32,39,16.85,42.87,10.47,19.77,10.47,19.77l1.72,14.65s13.23,22.69,15.56,29.46l15.77-3.42-.44-11.21L143,375.68l-7.42-25.49a225,225,0,0,0-8.63-26c-3.51-8.87-13.46-43.2-13.46-43.2-3.09-3.36-6-21.93-6-21.93l-4.78-23.44Z"/><path class="cls-10" d="M123.16,204.89c-5.45,10.8-14,24.3-14,24.3l-3.76,15.05S91.26,253,75,249.32c-19-4.3-22.12-14-22.12-14L58,218.34c2.47-11.32,7.84-32.93,19-39.05s30.29-6.63,38-4.15c6.87,2.2,10.67,3.87,12.54,5.91,0,0,2.79,9.54,2.18,12.71S123.16,204.89,123.16,204.89Z"/><polygon class="cls-9" points="101.09 401.95 78.82 401.95 79.31 403.65 101.07 403.65 101.09 401.95"/><path class="cls-8" d="M93.94,395.37s-7.31-2.42-10.83.6"/><path class="cls-8" d="M93.94,393.77s-6.42-2-10.83.68"/><path class="cls-8" d="M93.57,392.19s-6-2.28-10.46.85"/><g class="cls-32"><path class="cls-8" d="M92.61,268.69c-.87.2-17.68,6.33-21,12.47"/><path class="cls-8" d="M88.52,277.6c.85,1.18,8,23.53,11,29.67s13.35,33.62,15.72,35.2c0,0,3.16,16,5.14,18.6s12.21,23.06,12.21,23.06"/><line class="cls-8" x1="144.11" y1="384.13" x2="131.7" y2="386.78"/><path class="cls-8" d="M93.57,385.46s-9.94-.9-13.3,2.88"/><path class="cls-8" d="M82.09,280.17c-.83,4.74-13.29,31.05-16.26,28.08"/><path class="cls-8" d="M86.92,282.54s1.46-6.53.07-9.49c-.53-1.14,10.68,2.76,14.44,1.87"/><path class="cls-8" d="M88.52,250.22s-2,5.62-2.43,7.4,3.57,8.7,2.43,10.09"/><path class="cls-8" d="M61.28,245s-2.77,4.24-2.77,7.36-3.76,4.51-3.76,4.51"/><path class="cls-8" d="M55.37,240.32a72.52,72.52,0,0,0-.62,28.37c2.77,15.63,7.32,47.48,9.1,55.59s5.93,26.3,5.93,28.88S74,370.36,74,370.36"/><path class="cls-8" d="M73,348.21c.59,0,11.67,10.68,14.44,10.88"/><path class="cls-8" d="M121.41,341.68c.59.2,9.89,4.75,10.29,3.37"/></g><path class="cls-4" d="M110,173.33s-11.3,1.14-11.7,7.41,4.88,13.4,13.72,13.79,9.92-8.27,10.23-13S116.12,173,110,173.33Z"/><path class="cls-4" d="M106.36,177.15a27.7,27.7,0,0,1-.82-15.9c1.57-6.6,9.42-15.66,21.32-7.42,6.14,4.25,6.51,13.46,4.6,21.9-.46,2-.11,4-.78,5.83-2.35,6.5-6.66,11.5-9,11.61-3.93.2-11.78-4.56-11.46-8.7"/><path class="cls-8" d="M122.22,173a7.9,7.9,0,0,0-6.22.8"/><path class="cls-8" d="M128.21,172.75s2.4-1.2,4-.89"/><ellipse class="cls-10" cx="118.4" cy="177.69" rx="0.66" ry="1.06"/><ellipse class="cls-10" cx="128.21" cy="177.1" rx="0.66" ry="1.06"/><path class="cls-10" d="M114.59,164.89l-.32,4.85s-3.44,1.78-4.3,3.59a7.19,7.19,0,0,0-.55,3.77s-2.09-3.65-3.22-3.35c-.4.11-.4,1.64-.4,1.64s-4.68-10.5-.45-16.06S114.59,164.89,114.59,164.89Z"/><path class="cls-4" d="M108,176.05s-.94-3.53-4.11-4.47-1,7.51,1.7,8.64,3.38,1.88,3.54.88"/><path class="cls-8" d="M125.9,177.69a5.34,5.34,0,0,0,.72,3.39,1.73,1.73,0,0,1-2,2.64"/><path class="cls-8" d="M124.65,186.69a10.86,10.86,0,0,1-5.54,0"/><path class="cls-10" d="M114.59,164.89s8.08,1.94,13,1.29,8-2.9,7.25-8.08-6.59-7.55-16.18-9.19c-9.43-1.61-19.31,5.44-14.82,14.06S114.59,164.89,114.59,164.89Z"/><path class="cls-4" d="M125.29,241.68a3.91,3.91,0,0,1,.43,1.73c.1,1.23-4.35,2.72-5.14,2.22s-2.66-3-.49-4.45S125.29,241.68,125.29,241.68Z"/><path class="cls-4" d="M137,240.32a15.32,15.32,0,0,0,1.14,4c.69,1.13,5,0,6.18.61s1.28-1.49,0-2.54S141.4,239,137,240.32Z"/><rect class="cls-4" x="129.22" y="239.7" width="5.08" height="80.25"/><path class="cls-2" d="M127.55,297.8H136a1.84,1.84,0,0,1,1.84,1.84v104a0,0,0,0,1,0,0H125.72a0,0,0,0,1,0,0v-104A1.84,1.84,0,0,1,127.55,297.8Z"/><path class="cls-5" d="M146.47,234.17H117.05a2.3,2.3,0,0,0-2.3,2.3V238a2.3,2.3,0,0,0,2.3,2.3h10.86V245h7.71v-4.64h10.85a2.3,2.3,0,0,0,2.3-2.3v-1.55A2.3,2.3,0,0,0,146.47,234.17Z"/><path class="cls-4" d="M104.75,231.65s15.59-2.11,17.13-2.37,6.33,7.91,6.33,7.91l-3.56,5.48s-13.6,1.91-14.41,1.12a5.5,5.5,0,0,1-1.16-2.11s-7,2.63-7.65-2.12S100.32,234.11,104.75,231.65Z"/><path class="cls-4" d="M136.47,234.17s2.37-4.23,4.75-4.23,11.47,1.58,12.53,2.9,3.56,3.43,3.16,5.14-2.9,5.29-5.27,4.69-8.44.07-8.44.07-3.3-.6-3.56-2.42l2.76-.76s.4-3.82-.13-4.35S136.47,234.17,136.47,234.17Z"/><path class="cls-8" d="M145,242.58s2.9-3.15,2.68-4.33-.65-4.88-1.36-5.28"/><path class="cls-8" d="M149,242.42s2.14-.88,2.14-2.86a30.85,30.85,0,0,0-.54-4.74"/><path class="cls-8" d="M152.79,242.65a5.44,5.44,0,0,0,1-6"/><path class="cls-8" d="M122.16,242.74s2.48-3.32,2.08-5a30.49,30.49,0,0,0-2.08-4.81"/><path class="cls-8" d="M118.81,243.41s1.37-4,1.28-4.79-2-4.66-2.08-5.05"/><path class="cls-8" d="M114.75,243.81c.89-1.44,3-2,1.38-5.19s-2.37-3.8-2.37-3.8"/><path class="cls-8" d="M109.08,241.68c.72-.7,2.1-2.36,2.1-2.36s.3,1.37.89,1.76"/><path class="cls-10" d="M115.92,401.53h32.2a1.63,1.63,0,0,1,1.63,1.63v.91a0,0,0,0,1,0,0H114.68a0,0,0,0,1,0,0v-1.31A1.24,1.24,0,0,1,115.92,401.53Z"/><path class="cls-17" d="M67.27,195.45c-3.95,9.9-8.66,21.49-9.32,32.27-.25,4,3.6,5.41,6.85,6.89a91,91,0,0,0,19.94,6.3c2.41.47,5,.46,7.3,1,2.61.65,6.28,2.94,9,1.47"/><path class="cls-17" d="M86.05,200.73,80.82,212l-3.36,6.75a8.44,8.44,0,0,0,4.63,2.39,5.72,5.72,0,0,1,4,2.52s13.17,5.69,15,5.63,3.22-1.77,4.67.67"/><path class="cls-17" d="M77.46,218.73s-7.12-2.37-9.69,0"/><path class="cls-17" d="M78.65,183.79c.59-.47,7.83,7.45,8.27,13.38"/><path class="cls-17" d="M88.73,200.73s-1.94,4-5.12,5.26"/><path class="cls-17" d="M128.88,201.52s-4,6.86-8.14,8"/><path class="cls-17" d="M129.83,225.25s5.59-4.31,9.34-4.13"/><path class="cls-17" d="M128.21,207.73s-3.48,2.83-6.05,1.77"/><path class="cls-33" d="M134.38,396.64c28.09,0,23.55,7,52.18,7s46.05.42,46.05-149.58"/></g></g></svg>