<?xml version="1.0"?>
<svg xmlns="http://www.w3.org/2000/svg" xmlns:xlink="http://www.w3.org/1999/xlink" xmlns:svgjs="http://svgjs.com/svgjs" version="1.1" width="512" height="512" x="0" y="0" viewBox="0 0 60 57" style="enable-background:new 0 0 512 512" xml:space="preserve" class=""><g><g xmlns="http://www.w3.org/2000/svg" id="Page-1" fill="none" fill-rule="evenodd"><g id="017---Headset" fill="rgb(0,0,0)" fill-rule="nonzero"><path id="Shape" d="m4 38v-14h-1c-1.65685425 0-3 1.3431458-3 3v8c0 1.6568542 1.34314575 3 3 3z" fill="#afafaf" data-original="#000000" style=""/><rect id="Rectangle-path" height="20" rx="2" width="8" x="46" y="21" fill="#afafaf" data-original="#000000" style=""/><path id="Shape" d="m57 24h-1v14h1c1.6568542 0 3-1.3431458 3-3v-8c0-1.6568542-1.3431458-3-3-3z" fill="#afafaf" data-original="#000000" style=""/><path id="Shape" d="m12.25 19c1.459482-8.6654093 8.9625427-15.01043481 17.75-15.01043481s16.290518 6.34502551 17.75 15.01043481h4c-1.5755717-10.81046608-10.8453214-18.82713064-21.77-18.82713064s-20.19442827 8.01666456-21.77 18.82713064h4z" fill="#afafaf" data-original="#000000" style=""/><path id="Shape" d="m8 41h1v5c0 4.9705627 4.0294373 9 9 9h4.18c.4227483 1.1957287 1.5517451 1.9964356 2.82 2h10c1.6568542 0 3-1.3431458 3-3s-1.3431458-3-3-3h-10c-1.2682549.0035644-2.3972517.8042713-2.82 2h-4.18c-3.8659932 0-7-3.1340068-7-7v-5h1c1.1045695 0 2-.8954305 2-2v-16c0-1.1045695-.8954305-2-2-2h-4c-1.1045695 0-2 .8954305-2 2v16c0 1.1045695.8954305 2 2 2z" fill="#afafaf" data-original="#000000" style=""/></g></g></g></svg>
