<svg xmlns="http://www.w3.org/2000/svg" xmlns:xlink="http://www.w3.org/1999/xlink" viewBox="0 0 412.99 391"><defs><style>.cls-1,.cls-2{fill:#86aece;}.cls-1,.cls-13{stroke:#86aece;}.cls-1,.cls-10,.cls-13,.cls-15,.cls-18,.cls-4{stroke-miterlimit:10;}.cls-1,.cls-13,.cls-18,.cls-4{stroke-width:2px;}.cls-3{isolation:isolate;}.cls-10,.cls-13,.cls-18,.cls-4{fill:none;}.cls-18,.cls-4{stroke:#fff;}.cls-4{stroke-dasharray:5 5;}.cls-15,.cls-5{fill:#fff;}.cls-6{fill:#bacce2;}.cls-7{fill:#06374f;}.cls-8{fill:#4172a3;}.cls-9{fill:#3d6591;}.cls-10{stroke:#bacce2;}.cls-11{clip-path:url(#clip-path);}.cls-12{fill:#fffffa;}.cls-14{clip-path:url(#clip-path-2);}.cls-15{stroke:#06374f;stroke-width:5px;opacity:0.5;}.cls-16{fill:#fc4762;}.cls-17{fill:#9dc8ed;mix-blend-mode:multiply;}</style><clipPath id="clip-path"><circle class="cls-1" cx="93.12" cy="177.41" r="11.5"/></clipPath><clipPath id="clip-path-2"><rect class="cls-2" x="211.49" y="158.8" width="81.25" height="56.33" rx="10"/></clipPath></defs><g class="cls-3"><g id="Layer_2" data-name="Layer 2"><g id="OBJECTS"><path class="cls-4" d="M70.94,172.75c-16.21-3.84-31.07-14.64-38-29.79S28,108.46,39.33,96.22C52.49,82,73.76,79.85,92.94,77c43.45-6.49,88.6-23.59,112.79-60.27,3.32-5,5-13.72-.74-15.48a7.27,7.27,0,0,0-5.88,1.16c-6.15,3.94-7.23,13.13-3.74,19.54s10.38,10.31,17.39,12.37c15.6,4.57,32.35,1.49,48.52,3.13,24.08,2.43,46.05,17.71,60,37.19,6.45,9,10.33,20.47,7.88,31.28-1.9,8.35-7.38,15.74-8.16,24.27-1,10.62,5.64,20.59,13.71,27.55s17.72,11.87,26,18.6C374,187.17,383.58,204,381.62,221c-2.3,20-19.87,35.48-39,41.59s-39.78,4.68-59.82,3.2"/><circle class="cls-5" cx="284.42" cy="38.43" r="27.62" transform="translate(74.38 234.02) rotate(-50.65)"/><path class="cls-6" d="M292.87,36.52a8.55,8.55,0,0,1-17-1.23V29.22a8.56,8.56,0,0,1,17.11,0V30h2.72v-.8a11.27,11.27,0,1,0-22.54,0v6.07a11.27,11.27,0,0,0,22.47,1.23Z"/><rect class="cls-6" x="271.57" y="35.8" width="25.7" height="18.82"/><path class="cls-5" d="M287.08,42.49a2.66,2.66,0,1,1-2.66-2.66A2.66,2.66,0,0,1,287.08,42.49Z"/><rect class="cls-5" x="283.62" y="43.96" width="1.6" height="7.06"/><circle class="cls-5" cx="148.47" cy="57.3" r="27.62" transform="translate(58.59 188.63) rotate(-76.72)"/><path class="cls-6" d="M139.51,67.49a8.2,8.2,0,0,1,8.2-8.19h1.51a8.2,8.2,0,1,1,0,16.39h-1.51A8.2,8.2,0,0,1,139.51,67.49Zm14.69,0a5.12,5.12,0,0,0-5.11-5.11h-1.24a5.12,5.12,0,1,0,0,10.23h1.24A5.12,5.12,0,0,0,154.2,67.49Z"/><rect class="cls-6" x="146.98" y="38.43" width="2.97" height="22.02"/><rect class="cls-6" x="146.98" y="38.43" width="10.22" height="2.75"/><rect class="cls-6" x="146.98" y="44.68" width="7.22" height="2.75"/><rect class="cls-7" x="51.08" y="133.95" width="263.47" height="176.97" rx="13"/><path class="cls-7" d="M51.08,316.44H314.55a0,0,0,0,1,0,0v10a0,0,0,0,1,0,0H60.22a9.14,9.14,0,0,1-9.14-9.14v-.83A0,0,0,0,1,51.08,316.44Z"/><path class="cls-8" d="M85,316.44H348.5a0,0,0,0,1,0,0v.83a9.14,9.14,0,0,1-9.14,9.14H94.17A9.14,9.14,0,0,1,85,317.27v-.83A0,0,0,0,1,85,316.44Z"/><rect class="cls-9" x="59.83" y="142.6" width="245.97" height="143.99" rx="5"/><rect class="cls-5" x="63.23" y="146.1" width="239.17" height="136.99"/><rect class="cls-2" x="63.23" y="146.1" width="239.17" height="5.59"/><path class="cls-5" d="M289.75,148.9a1.54,1.54,0,1,1-1.54-1.54A1.54,1.54,0,0,1,289.75,148.9Z"/><path class="cls-5" d="M295.22,148.9a1.54,1.54,0,1,1-1.54-1.54A1.54,1.54,0,0,1,295.22,148.9Z"/><path class="cls-5" d="M300.69,148.9a1.54,1.54,0,1,1-1.54-1.54A1.54,1.54,0,0,1,300.69,148.9Z"/><rect class="cls-6" x="170.48" y="293.52" width="24.67" height="9.34"/><rect class="cls-8" x="51.08" y="310.92" width="297.42" height="5.52"/><rect class="cls-10" x="73.85" y="158.8" width="131.06" height="37.89" rx="10"/><circle class="cls-2" cx="93.12" cy="177.41" r="11.5"/><g class="cls-11"><path class="cls-12" d="M97.46,175.59a4.34,4.34,0,1,1-4.34-4.34A4.35,4.35,0,0,1,97.46,175.59Z"/><rect class="cls-12" x="85.77" y="178.97" width="14.69" height="14.69" rx="6.73"/></g><circle class="cls-13" cx="93.12" cy="177.41" r="11.5"/><rect class="cls-2" x="111.54" y="165.91" width="30.9" height="4.84" rx="2.22"/><rect class="cls-2" x="146.55" y="165.91" width="30.9" height="4.84" rx="2.22"/><rect class="cls-6" x="111.54" y="175.32" width="84.89" height="4.84" rx="2.22"/><rect class="cls-6" x="111.54" y="184.73" width="60.93" height="4.84" rx="2.22"/><rect class="cls-10" x="73.85" y="206.29" width="131.06" height="70.04" rx="10"/><rect class="cls-2" x="92.57" y="213.4" width="30.9" height="4.84" rx="2.22"/><rect class="cls-6" x="184.09" y="213.4" width="12.34" height="4.84" rx="2.22"/><rect class="cls-6" x="92.57" y="222.81" width="84.89" height="4.84" rx="2.22"/><circle class="cls-2" cx="85.15" cy="215.82" r="2.42"/><rect class="cls-2" x="92.57" y="234.89" width="30.9" height="4.84" rx="2.22"/><rect class="cls-6" x="184.09" y="234.89" width="12.34" height="4.84" rx="2.22"/><rect class="cls-6" x="92.57" y="244.3" width="84.89" height="4.84" rx="2.22"/><circle class="cls-2" cx="85.15" cy="237.31" r="2.42"/><rect class="cls-2" x="92.57" y="254.92" width="30.9" height="4.84" rx="2.22"/><rect class="cls-6" x="184.09" y="254.92" width="12.34" height="4.84" rx="2.22"/><rect class="cls-6" x="92.57" y="264.33" width="84.89" height="4.84" rx="2.22"/><circle class="cls-2" cx="85.15" cy="257.34" r="2.42"/><rect class="cls-2" x="211.49" y="158.8" width="81.25" height="56.33" rx="10"/><g class="cls-14"><polygon class="cls-5" points="208.08 215.13 244.95 188.5 255.53 197.47 274.65 178.26 297.52 199.43 292.75 215.13 208.08 215.13"/><circle class="cls-5" cx="261.85" cy="169.89" r="5.46"/></g><rect class="cls-6" x="212.22" y="220.08" width="80.53" height="55.83" rx="10"/><rect class="cls-5" x="218.98" y="249.48" width="21.57" height="6.07" rx="2.78"/><rect class="cls-5" x="243.43" y="249.48" width="21.57" height="6.07" rx="2.78"/><rect class="cls-2" x="218.98" y="225.83" width="16.11" height="6.07" rx="2.78"/><rect class="cls-2" x="218.98" y="260.85" width="37.81" height="6.07" rx="2.78"/><rect class="cls-5" x="270.75" y="225.83" width="15.23" height="12.86" rx="3"/><rect class="cls-15" x="142.01" y="103.33" width="245.97" height="143.99" rx="5"/><path class="cls-7" d="M265,170.92a26.44,26.44,0,0,1-26.41-26.41v-4.86a26.41,26.41,0,0,1,52.82,0v4.86A26.44,26.44,0,0,1,265,170.92Zm0-51.31a20.06,20.06,0,0,0-20,20v4.86a20,20,0,1,0,40.08,0v-4.86A20.06,20.06,0,0,0,265,119.61Z"/><rect class="cls-7" x="234.88" y="145.69" width="60.23" height="44.09"/><circle class="cls-6" cx="265" cy="161.37" r="6.23"/><rect class="cls-6" x="263.13" y="164.81" width="3.74" height="16.53"/><rect class="cls-16" x="184.09" y="202.96" width="161.82" height="28.86" rx="13.22"/><path class="cls-5" d="M211.86,225V209.79c0-2.58-4-2.58-4,0V225c0,2.57,4,2.58,4,0Z"/><path class="cls-5" d="M217.45,219.46l-11.51-6.65-1.64-.95a2,2,0,0,0-2.74.72,2,2,0,0,0,.72,2.73l11.5,6.65,1.65.95a2,2,0,1,0,2-3.45Z"/><path class="cls-5" d="M215.43,211.86l-11.51,6.64-1.64,1a2,2,0,1,0,2,3.45l11.5-6.65,1.65-.95a2,2,0,1,0-2-3.45Z"/><path class="cls-5" d="M239.81,225V209.79c0-2.58-4-2.58-4,0V225c0,2.57,4,2.58,4,0Z"/><path class="cls-5" d="M245.4,219.46l-11.51-6.65-1.65-.95a2,2,0,0,0-2,3.45L241.73,222l1.65.95a2,2,0,1,0,2-3.45Z"/><path class="cls-5" d="M243.38,211.86l-11.51,6.64-1.65,1a2,2,0,0,0,2,3.45l11.51-6.65,1.65-.95a2,2,0,1,0-2-3.45Z"/><path class="cls-5" d="M267.76,225V209.79c0-2.58-4-2.58-4,0V225c0,2.57,4,2.58,4,0Z"/><path class="cls-5" d="M273.35,219.46l-11.51-6.65-1.65-.95a2,2,0,1,0-2,3.45L269.68,222l1.65.95a2,2,0,0,0,2-3.45Z"/><path class="cls-5" d="M271.33,211.86l-11.51,6.64-1.65,1a2,2,0,1,0,2,3.45l11.51-6.65,1.65-.95a2,2,0,0,0-2-3.45Z"/><path class="cls-5" d="M295.71,225V209.79c0-2.58-4-2.58-4,0V225c0,2.57,4,2.58,4,0Z"/><path class="cls-5" d="M301.29,219.46l-11.5-6.65-1.65-.95a2,2,0,1,0-2,3.45L297.63,222l1.64.95a2,2,0,0,0,2.74-.72,2,2,0,0,0-.72-2.73Z"/><path class="cls-5" d="M299.27,211.86l-11.5,6.64-1.65,1a2,2,0,1,0,2,3.45l11.51-6.65,1.64-.95a2,2,0,1,0-2-3.45Z"/><path class="cls-5" d="M323.65,225V209.79c0-2.58-4-2.58-4,0V225c0,2.57,4,2.58,4,0Z"/><path class="cls-5" d="M329.24,219.46l-11.51-6.65-1.64-.95a2,2,0,0,0-2.74.72,2,2,0,0,0,.72,2.73l11.5,6.65,1.65.95a2,2,0,1,0,2-3.45Z"/><path class="cls-5" d="M327.22,211.86l-11.51,6.64-1.64,1a2,2,0,1,0,2,3.45l11.5-6.65,1.65-.95a2,2,0,1,0-2-3.45Z"/><path class="cls-7" d="M198.43,316.44H235.1a0,0,0,0,1,0,0v.27a2.92,2.92,0,0,1-2.92,2.92H201.35a2.92,2.92,0,0,1-2.92-2.92v-.27A0,0,0,0,1,198.43,316.44Z"/><ellipse class="cls-17" cx="206.49" cy="326.42" rx="206.49" ry="4"/><rect class="cls-18" x="6.99" y="365.57" width="22" height="22" rx="3" transform="translate(143.64 21.13) rotate(22.2)"/><rect class="cls-18" x="384.31" y="275.59" width="22" height="22" rx="3" transform="translate(-62.04 115.61) rotate(-15.44)"/><rect class="cls-18" x="355.92" y="58.42" width="14.34" height="14.34" rx="3" transform="translate(94.77 318.86) rotate(-53.59)"/><rect class="cls-18" x="207.03" y="353.9" width="14.34" height="14.34" rx="3" transform="translate(-139.33 134.64) rotate(-26.68)"/><rect class="cls-18" x="91.31" y="349.76" width="11.34" height="11.34" rx="3" transform="translate(-266.66 296.21) rotate(-65.49)"/><rect class="cls-18" x="367.91" y="149.46" width="11.34" height="11.34" rx="3" transform="translate(77.44 430.69) rotate(-65.49)"/><rect class="cls-18" x="340.24" y="30.97" width="11.34" height="11.34" rx="3" transform="translate(169.06 336.18) rotate(-65.49)"/></g></g></g></svg>