<svg xmlns="http://www.w3.org/2000/svg" xmlns:xlink="http://www.w3.org/1999/xlink" version="1.1" id="Layer_1" x="0px" y="0px" viewBox="0 0 100 100" style="enable-background:new 0 0 100 100;" xml:space="preserve" width="300"  height="300" >
<style type="text/css">
	.st0{fill:none;stroke:#F4F4F4;stroke-width:1.2;stroke-linecap:round;stroke-linejoin:round;stroke-miterlimit:10;}
	.st1{fill:none;stroke:#4C4C4C;stroke-width:1.2;stroke-linecap:round;stroke-linejoin:round;stroke-miterlimit:10;}
	.st2{fill:#F4F4F4;stroke:#0CD8D5;stroke-width:1.2;stroke-linecap:round;stroke-linejoin:round;stroke-miterlimit:10;}
	.st3{fill:#0CD8D5;stroke:#0CD8D5;stroke-width:1.2;stroke-miterlimit:10;}
	.st4{fill:#F4F4F4;}
	.st5{fill:none;stroke:#4C4C4C;stroke-width:1.2;stroke-linecap:round;stroke-linejoin:round;}
	.st6{fill:none;stroke:#4C4C4C;stroke-width:1.2;stroke-linecap:round;stroke-linejoin:round;stroke-dasharray:29.3301,5.866;}
	.st7{fill:#F0E462;}
	.st8{display:none;}
</style>
<g id="Layer_4">
</g>
<g id="Layer_1_00000140711997410480618860000017035193860799099326_">
	<path class="st0" d="M50,5c-12.8,0-24.4,5.4-32.6,14"/>
</g>
<g id="Layer_1_copy">
	<path class="st1" d="M8.7,67.9C6.3,62.5,5,56.4,5,50c0-9,2.7-17.5,7.3-24.5"/>
	<path class="st1" d="M50,5c24.8,0,45,20.1,45,45S74.8,95,50,95c-17.1,0-31.9-9.5-39.5-23.5"/>
	<path class="st2" d="M15.3,27.7c-3.5,0-6.4-2.9-6.4-6.4s2.9-6.4,6.4-6.4s6.4,2.9,6.4,6.4S18.9,27.7,15.3,27.7z"/>
	<circle class="st3" cx="15.3" cy="21.3" r="3.1"/>
</g>
<g id="Layer_6">
</g>
<g id="Layer_2_00000147187207597689286990000001811111909850957184_">
	<g>
		<path class="st4" d="M37.5,48.5c-4.5,2.1-7.7,6.7-7.7,12v0.2c-3.5,0.8-6,3.9-6,7.6c0,4.3,3.5,7.8,7.8,7.8h28.1    c4.3,0,7.8-3.5,7.8-7.8c0-2.1-0.8-4-2.2-5.4c-2,0.6-4.2,0.9-6.4,0.9C49.1,63.7,40.6,57.3,37.5,48.5"/>
	</g>
	<g>
		<g>
			<path class="st5" d="M65.2,61.8c1.9,1.4,3.1,3.7,3.1,6.3c0,2.7-1.4,5.2-3.5,6.6"/>
			<path class="st6" d="M59.2,75.9c-5.9,0-24.8,0-27.2,0c-1.8,0-3.4-0.6-4.7-1.5"/>
			<path class="st5" d="M25.3,72.2c-0.8-1.2-1.2-2.7-1.2-4.2c0-3.7,2.6-6.9,6.1-7.7c0-0.1,0-0.1,0-0.2c0-5.6,3.4-10.4,8.3-12.4"/>
		</g>
	</g>
	<g>
		<path class="st1" d="M74.4,39.3L74.2,38c-0.1-0.4-0.2-0.8-0.3-1.3c0.7-1.1,1.2-2.4,1.6-3.8c-0.5-1.2-1.2-2.2-2-3.2    c-0.7-0.1-1.4-0.2-2-0.2"/>
		<path class="st1" d="M68.7,28.9l-1-0.8l-1.1-0.7c-0.3-1.3-0.8-2.6-1.6-3.8c-1.2-0.4-2.5-0.7-3.7-0.9c-0.6,0.4-1.1,0.8-1.6,1.3"/>
		<path class="st1" d="M57.4,25.6l-1.3,0.2c-0.4,0.1-0.8,0.2-1.3,0.3c-1.1-0.7-2.4-1.2-3.8-1.6c-1.2,0.5-2.2,1.2-3.2,2    c-0.1,0.7-0.2,1.4-0.2,2"/>
		<path class="st1" d="M47,31.3l-0.8,1l-0.7,1.1c-1.3,0.3-2.6,0.8-3.8,1.6c-0.4,1.2-0.7,2.5-0.9,3.7c0.4,0.6,0.8,1.1,1.3,1.6"/>
		<path class="st1" d="M43.7,42.6l0.2,1.3c0.1,0.4,0.2,0.8,0.3,1.3c-0.7,1.1-1.2,2.4-1.6,3.8c0.5,1.2,1.2,2.2,2,3.2    c0.7,0.1,1.4,0.2,2,0.2"/>
		<path class="st1" d="M49.4,53l1,0.8l1.1,0.7c0.3,1.3,0.8,2.6,1.6,3.8c1.2,0.4,2.5,0.7,3.7,0.9c0.6-0.4,1.1-0.8,1.6-1.3"/>
		<path class="st1" d="M60.7,56.3l1.3-0.2c0.4-0.1,0.8-0.2,1.3-0.3c1.1,0.7,2.4,1.2,3.8,1.6c1.2-0.5,2.2-1.2,3.2-2    c0.1-0.7,0.2-1.4,0.2-2"/>
		<path class="st1" d="M71.1,50.6l0.8-1l0.7-1.1c1.3-0.3,2.6-0.8,3.8-1.6c0.4-1.2,0.7-2.5,0.9-3.7c-0.4-0.6-0.8-1.1-1.3-1.6"/>
	</g>
	<path class="st1" d="M67.3,37.2c0.9,2,1.1,4.3,0.4,6.5c-1.6,4.7-6.7,7.3-11.4,5.8c-0.3-0.1-0.6-0.2-0.9-0.3"/>
	<path class="st1" d="M50.8,44.7c-0.9-2-1.1-4.3-0.4-6.5c1.6-4.7,6.7-7.3,11.4-5.8c0.3,0.1,0.6,0.2,0.9,0.3"/>
	<circle class="st7" cx="59" cy="41" r="4.8"/>
</g>
<g id="Layer_8">
</g>
<g id="Layer_5">
</g>
<g id="Layer_7">
</g>
<g id="Layer_9" class="st8">
</g>
<g id="Layer_9_copy_4">
</g>
<g id="Layer_9_copy">
</g>
<g id="Layer_9_copy_2">
</g>
<g id="Layer_9_copy_3">
</g>
<g id="Layer_10">
</g>
</svg>