<svg xmlns="http://www.w3.org/2000/svg" xmlns:xlink="http://www.w3.org/1999/xlink" version="1.1" x="0px" y="0px" viewBox="0 0 100 100" style="enable-background:new 0 0 100 100;" xml:space="preserve" width="300"  height="300" >
<style type="text/css">
	.st0{opacity:0.2;fill:#D2D2D2;}
	.st1{fill:none;stroke:#F4F4F4;stroke-width:1.2;stroke-linecap:round;stroke-linejoin:round;stroke-miterlimit:10;}
	.st2{fill:none;stroke:#4C4C4C;stroke-width:1.2;stroke-linecap:round;stroke-linejoin:round;stroke-miterlimit:10;}
	.st3{fill:#F4F4F4;stroke:#0CD8D5;stroke-width:1.2;stroke-linecap:round;stroke-linejoin:round;stroke-miterlimit:10;}
	.st4{fill:#0CD8D5;stroke:#0CD8D5;stroke-width:1.2;stroke-miterlimit:10;}
	.st5{fill:none;stroke:#FFFFFF;stroke-width:1.2;stroke-linecap:round;stroke-linejoin:round;stroke-miterlimit:10;}
	.st6{fill:none;stroke:#0CD8D5;stroke-width:1.2;stroke-linecap:round;stroke-linejoin:round;stroke-miterlimit:10;}
	.st7{fill:none;stroke:#1E1E1E;stroke-width:1.2;stroke-linecap:round;stroke-linejoin:round;stroke-miterlimit:10;}
	.st8{fill:#F4F4F4;}
	.st9{fill:#D2D2D2;}
	.st10{fill:#FFFFFF;}
	.st11{fill:none;stroke:#4C4C4C;stroke-linecap:round;stroke-linejoin:round;stroke-miterlimit:10;}
	.st12{fill:none;stroke:#1E1E1E;stroke-width:1.2;stroke-linecap:round;stroke-linejoin:round;}
	.st13{fill:none;stroke:#1E1E1E;stroke-width:1.2;stroke-linecap:round;stroke-linejoin:round;stroke-dasharray:5.1954,1.5586;}
	
		.st14{fill:none;stroke:#1E1E1E;stroke-width:1.2;stroke-linecap:round;stroke-linejoin:round;stroke-dasharray:15.5863,1.0391,5.1954,1.5586;}
	.st15{fill:none;stroke:#4C4C4C;stroke-width:1.2;stroke-linecap:round;stroke-linejoin:round;}
	.st16{fill:none;stroke:#4C4C4C;stroke-width:1.2;stroke-linecap:round;stroke-linejoin:round;stroke-dasharray:18.9751,5.6925;}
	.st17{fill:none;stroke:#4C4C4C;stroke-width:1.2;stroke-linecap:round;stroke-linejoin:round;stroke-dasharray:3.1646,2.2152;}
	.st18{fill:none;stroke:#4C4C4C;stroke-width:1.2;stroke-linecap:round;stroke-linejoin:round;stroke-dasharray:14.9273,4.4782;}
	.st19{fill:#F4F4F4;stroke:#4C4C4C;stroke-width:1.2;stroke-linecap:round;stroke-linejoin:round;stroke-miterlimit:10;}
	.st20{fill:#FFFFFF;stroke:#4C4C4C;stroke-width:1.2;stroke-linecap:round;stroke-linejoin:round;stroke-miterlimit:10;}
	.st21{fill:none;stroke:#4C4C4C;stroke-width:1.2;stroke-linecap:round;stroke-linejoin:round;stroke-dasharray:29.3301,5.866;}
	
		.st22{fill:none;stroke:#2CB879;stroke-width:1.2;stroke-linecap:round;stroke-linejoin:round;stroke-miterlimit:10;stroke-dasharray:30,6,10,7;}
	.st23{fill:none;stroke:#FD5459;stroke-width:1.2;stroke-linecap:round;stroke-linejoin:round;stroke-miterlimit:10;}
	
		.st24{fill:none;stroke:#FD5459;stroke-width:1.2;stroke-linecap:round;stroke-linejoin:round;stroke-miterlimit:10;stroke-dasharray:30,6,10,7;}
	.st25{fill:none;stroke:#4C4C4C;stroke-width:1.0842;stroke-linecap:round;stroke-linejoin:round;stroke-miterlimit:10;}
	.st26{fill:#4C4C4C;stroke:#4C4C4C;stroke-width:1.0842;stroke-linecap:round;stroke-linejoin:round;stroke-miterlimit:10;}
	.st27{fill:none;stroke:#4C4C4C;stroke-width:1.0115;stroke-linecap:round;stroke-linejoin:round;stroke-miterlimit:10;}
	.st28{fill:#4C4C4C;stroke:#4C4C4C;stroke-width:1.2;stroke-linecap:round;stroke-linejoin:round;stroke-miterlimit:10;}
	.st29{fill:#FF2F63;stroke:#4C4C4C;stroke-width:1.2;stroke-linecap:round;stroke-linejoin:round;stroke-miterlimit:10;}
	.st30{fill:#F0E462;}
	
		.st31{fill:none;stroke:#4C4C4C;stroke-width:1.2;stroke-linecap:round;stroke-linejoin:round;stroke-miterlimit:10;stroke-dasharray:30,6,10,2;}
	
		.st32{fill:#F4F4F4;stroke:#FD5459;stroke-width:1.2;stroke-linecap:round;stroke-linejoin:round;stroke-miterlimit:10;stroke-dasharray:30,4;}
	
		.st33{fill:none;stroke:#4C4C4C;stroke-width:1.2;stroke-linecap:round;stroke-linejoin:round;stroke-miterlimit:10;stroke-dasharray:30,6;}
	.st34{fill:#D2D2D2;stroke:#4C4C4C;stroke-width:1.2;stroke-linecap:round;stroke-linejoin:round;stroke-miterlimit:10;}
	.st35{fill:#F4F4F4;stroke:#FD5459;stroke-width:1.2;stroke-linecap:round;stroke-linejoin:round;stroke-miterlimit:10;}
	.st36{fill:#4C4C4C;}
	.st37{fill:none;stroke:#4C4C4C;stroke-width:1.2;stroke-linecap:round;stroke-linejoin:round;stroke-dasharray:48.279,5.7935;}
	
		.st38{fill:none;stroke:#4C4C4C;stroke-width:1.2;stroke-linecap:round;stroke-linejoin:round;stroke-miterlimit:10;stroke-dasharray:50,6;}
	
		.st39{fill:#D2D2D2;stroke:#4C4C4C;stroke-width:1.2;stroke-linecap:round;stroke-linejoin:round;stroke-miterlimit:10;stroke-dasharray:50,6;}
	
		.st40{fill:#F4F4F4;stroke:#4C4C4C;stroke-width:1.2;stroke-linecap:round;stroke-linejoin:round;stroke-miterlimit:10;stroke-dasharray:50,6;}
	
		.st41{fill:#FFFFFF;stroke:#4C4C4C;stroke-width:1.2;stroke-linecap:round;stroke-linejoin:round;stroke-miterlimit:10;stroke-dasharray:30,6;}
	.st42{fill:#F4F4F4;stroke:#4C4C4C;stroke-width:1.2;stroke-miterlimit:10;}
	.st43{fill:#2CB879;stroke:#2CB879;stroke-width:1.2;stroke-miterlimit:10;}
	.st44{fill:#0CD8D5;stroke:#4C4C4C;stroke-width:1.2;stroke-linecap:round;stroke-linejoin:round;stroke-miterlimit:10;}
	
		.st45{fill:#0CD8D5;stroke:#4C4C4C;stroke-width:1.2;stroke-linecap:round;stroke-linejoin:round;stroke-miterlimit:10;stroke-dasharray:30,6;}
	.st46{fill:none;stroke:#0CD8D5;stroke-width:200;stroke-linecap:round;stroke-linejoin:round;stroke-miterlimit:10;}
	.st47{fill:none;stroke:#F0E462;stroke-width:214.4015;stroke-linecap:round;stroke-linejoin:round;stroke-miterlimit:10;}
	.st48{fill:none;stroke:#F4F4F4;stroke-width:171.5212;stroke-linecap:round;stroke-linejoin:round;stroke-miterlimit:10;}
	.st49{fill:none;stroke:#F0E462;stroke-width:85.7606;stroke-linecap:round;stroke-linejoin:round;stroke-miterlimit:10;}
	.st50{fill:none;stroke:#F4F4F4;stroke-width:42.8803;stroke-linecap:round;stroke-linejoin:round;stroke-miterlimit:10;}
	.st51{fill:none;stroke:#F0E462;stroke-width:500;stroke-linecap:round;stroke-linejoin:round;stroke-miterlimit:10;}
	.st52{fill:none;stroke:#F4F4F4;stroke-width:400;stroke-linecap:round;stroke-linejoin:round;stroke-miterlimit:10;}
	.st53{fill:none;stroke:#F0E462;stroke-width:200;stroke-linecap:round;stroke-linejoin:round;stroke-miterlimit:10;}
	.st54{fill:none;stroke:#F4F4F4;stroke-width:100;stroke-linecap:round;stroke-linejoin:round;stroke-miterlimit:10;}
	.st55{fill:none;stroke:#0CD8D5;stroke-width:220;stroke-linecap:round;stroke-linejoin:round;stroke-miterlimit:10;}
	.st56{fill:none;stroke:#FFFFFF;stroke-width:200;stroke-linecap:round;stroke-linejoin:round;stroke-miterlimit:10;}
	.st57{fill:none;stroke:#FF2F63;stroke-width:100;stroke-linecap:round;stroke-linejoin:round;stroke-miterlimit:10;}
	.st58{fill:none;stroke:#FF2F63;stroke-width:60;stroke-linecap:round;stroke-linejoin:round;stroke-miterlimit:10;}
	.st59{fill:none;stroke:#0CD8D5;stroke-width:50;stroke-linecap:round;stroke-linejoin:round;stroke-miterlimit:10;}
	.st60{fill:none;stroke:#F4F4F4;stroke-width:200;stroke-linecap:round;stroke-linejoin:round;stroke-miterlimit:10;}
	.st61{fill:none;stroke:#F4F4F4;stroke-width:180;stroke-linecap:round;stroke-linejoin:round;stroke-miterlimit:10;}
	.st62{fill:none;stroke:#FF2F63;stroke-width:200;stroke-linecap:round;stroke-linejoin:round;stroke-miterlimit:10;}
	.st63{fill:none;stroke:#FF2F63;stroke-width:50;stroke-linecap:round;stroke-linejoin:round;stroke-miterlimit:10;}
	.st64{fill:none;stroke:#F0E462;stroke-width:100;stroke-linecap:round;stroke-linejoin:round;stroke-miterlimit:10;}
	.st65{fill:none;stroke:#F0E462;stroke-width:50;stroke-linecap:round;stroke-linejoin:round;stroke-miterlimit:10;}
	.st66{fill:none;stroke:#0CD8D5;stroke-width:5;stroke-linecap:round;stroke-linejoin:round;stroke-miterlimit:10;}
	.st67{fill:#0CD8D5;}
	.st68{fill:none;stroke:#0CD8D5;stroke-width:180;stroke-linecap:round;stroke-linejoin:round;stroke-miterlimit:10;}
	.st69{fill:none;stroke:#0CD8D5;stroke-width:150;stroke-linecap:round;stroke-linejoin:round;stroke-miterlimit:10;}
	.st70{fill:none;stroke:#F4F4F4;stroke-width:122;stroke-linecap:round;stroke-linejoin:round;stroke-miterlimit:10;}
	.st71{fill:none;stroke:#0CD8D5;stroke-width:45;stroke-linecap:round;stroke-linejoin:round;stroke-miterlimit:10;}
	.st72{fill:none;stroke:#F4F4F4;stroke-width:360;stroke-linecap:round;stroke-linejoin:round;stroke-miterlimit:10;}
	.st73{fill:none;stroke:#FF2F63;stroke-width:90;stroke-linecap:round;stroke-linejoin:round;stroke-miterlimit:10;}
	.st74{fill:none;stroke:#FF2F63;stroke-width:180;stroke-linecap:round;stroke-linejoin:round;stroke-miterlimit:10;}
	.st75{fill:none;stroke:#FF2F63;stroke-width:45;stroke-linecap:round;stroke-linejoin:round;stroke-miterlimit:10;}
	.st76{fill:none;stroke:#F4F4F4;stroke-width:90;stroke-linecap:round;stroke-linejoin:round;stroke-miterlimit:10;}
	.st77{fill:none;stroke:#0CD8D5;stroke-width:99;stroke-linecap:round;stroke-linejoin:round;stroke-miterlimit:10;}
	.st78{fill:none;stroke:#0CD8D5;stroke-width:60;stroke-linecap:round;stroke-linejoin:round;stroke-miterlimit:10;}
	.st79{fill:none;stroke:#F0E462;stroke-width:180;stroke-linecap:round;stroke-linejoin:round;stroke-miterlimit:10;}
	.st80{fill:none;stroke:#F0E462;stroke-width:150;stroke-linecap:round;stroke-linejoin:round;stroke-miterlimit:10;}
	.st81{fill:none;stroke:#0CD8D5;stroke-width:90;stroke-linecap:round;stroke-linejoin:round;stroke-miterlimit:10;}
	.st82{fill:none;stroke:#F0E462;stroke-width:99;stroke-linecap:round;stroke-linejoin:round;stroke-miterlimit:10;}
	.st83{fill:#FD5459;}
	.st84{display:none;}
	.st85{display:inline;}
	.st86{clip-path:url(#SVGID_00000164507600622622446030000003947062874008864162_);}
	.st87{fill:none;stroke:#0CD8D5;stroke-width:3;stroke-linecap:round;stroke-linejoin:round;stroke-miterlimit:10;}
	.st88{opacity:0.1;fill:#FFFFFF;}
	.st89{fill:#FFFFFF;stroke:#4C4C4C;stroke-miterlimit:10;}
	.st90{fill:#FD5459;stroke:#4C4C4C;stroke-miterlimit:10;}
	.st91{fill:#F4F4F4;stroke:#4C4C4C;stroke-miterlimit:10;}
	.st92{enable-background:new    ;}
	.st93{fill:#1E1E1E;}
	.st94{opacity:0.25;}
	.st95{clip-path:url(#SVGID_00000109718636609250098300000004889988327035624328_);}
	.st96{fill:none;stroke:#0CD8D5;stroke-width:2;stroke-linecap:round;stroke-linejoin:round;stroke-miterlimit:10;}
	.st97{clip-path:url(#SVGID_00000138573938088031651120000017921570616091357857_);}
	.st98{fill:none;stroke:#0CD8D5;stroke-linecap:round;stroke-linejoin:round;stroke-miterlimit:10;}
	.st99{opacity:0.15;}
	.st100{clip-path:url(#SVGID_00000041980606165956867590000008368800274174965680_);}
	.st101{fill:none;stroke:#0CD8D5;stroke-width:0.5;stroke-linecap:round;stroke-linejoin:round;stroke-miterlimit:10;}
	.st102{fill:#F4F4F4;stroke:#4C4C4C;stroke-linecap:round;stroke-linejoin:round;stroke-miterlimit:10;}
	.st103{opacity:5.000000e-02;fill:#0CD8D5;}
	.st104{fill:#FFFFFF;stroke:#4C4C4C;stroke-linecap:round;stroke-linejoin:round;stroke-miterlimit:10;}
	.st105{fill:none;stroke:#0CD8D5;stroke-miterlimit:10;}
	.st106{fill:none;stroke:#4C4C4C;stroke-miterlimit:10;}
	.st107{fill:#F0E462;stroke:#4C4C4C;stroke-miterlimit:10;}
</style>
<g id="Layer_4">
</g>
<g id="Layer_1">
</g>
<g id="Layer_1_copy">
</g>
<g id="Layer_6">
</g>
<g id="Layer_2">
</g>
<g id="Layer_8">
	<g>
		<path class="st25" d="M76.5,32.5c0-2.7-5.9-1.9-6-6.1C69.9,26.7,69.4,27,69,27c-0.4,0-1-0.2-1.6-0.6c-0.1,4.2-6,3.4-6,6.1"/>
		<path class="st25" d="M72.9,21c-0.2-2.7-1.9-4.8-4-4.8s-3.7,2.1-4,4.8c-0.6,0-1,0.5-1,1.1v0.1c0,0.6,0.5,1.1,1.1,1.1h0.1    c0.7,2.2,2.6,3.7,3.7,3.7c1.1,0,3-1.6,3.7-3.7h0.1c0.6,0,1.1-0.5,1.1-1.1v-0.1C74,21.5,73.5,21,72.9,21z"/>
		<path class="st26" d="M72.9,21l-1.4-3.1c-0.3-0.7-1.2-0.9-1.8-0.4l0,0c-0.4,0.4-1.1,0.4-1.5,0l0,0c-0.6-0.5-1.5-0.3-1.8,0.4L65,21    v-3.3c0-2.2,1.8-4,4-4h0c2.2,0,4,1.8,4,4V21H72.9z"/>
		<path class="st25" d="M66.4,29.6c1.4,1.4,3.8,1.4,5.2,0"/>
	</g>
	<g>
		<path class="st2" d="M52.6,72.8c0-4.1-9-2.8-9.1-9.3c-0.9,0.6-1.7,1-2.4,1c-0.7,0-1.5-0.4-2.4-1c-0.1,6.5-9.1,5.2-9.1,9.3"/>
		<path class="st2" d="M47.1,54.3c0.1,0.3,0.1,0.6,0.1,1c0.9,0.1,1.6,0.8,1.6,1.7v0.1c0,0.9-0.8,1.7-1.7,1.7h-0.2    c-1.1,3.3-4,5.7-5.7,5.7c-1.8,0-4.7-2.4-5.7-5.7h-0.2c-0.9,0-1.7-0.8-1.7-1.7v-0.1c0-0.9,0.7-1.6,1.6-1.7c0.1-0.8,0.2-1.6,0.5-2.3    "/>
		<path class="st2" d="M42.7,46.7c-9.2-1.8-14.2,11.8-8.3,15.5"/>
		<path class="st2" d="M34.7,68.8c-4.5-1.5-1.9-6.6-0.3-6.6"/>
		<path class="st2" d="M39.6,46.7c9.2-1.8,14.2,11.8,8.3,15.5"/>
		<path class="st2" d="M47.9,62.2c1.6,0,4.2,5.1-0.3,6.6"/>
		<path class="st2" d="M41.8,48c0,2.7-2.8,5-6.2,5"/>
		<path class="st2" d="M48,54.4c-3.3,0-6-2.7-6-6"/>
		<path class="st2" d="M35.5,68.4c3.1,3.1,8.2,3.1,11.3,0"/>
	</g>
	<g id="XMLID_00000087410533352054147790000010512597360770747539_">
		<g>
			<path class="st30" d="M57.5,43.3c9,9,9,23.7,0,32.8c-9,9.1-23.7,9.1-32.8,0s-9-23.7,0-32.8S48.5,34.2,57.5,43.3z M59.3,59.7     c0-4.9-1.9-9.4-5.3-12.9c-3.4-3.4-8-5.3-12.9-5.3s-9.4,1.9-12.8,5.3c-3.4,3.4-5.3,8-5.3,12.8s1.9,9.4,5.3,12.8     c3.4,3.4,8,5.3,12.8,5.3s9.4-1.9,12.9-5.3S59.3,64.5,59.3,59.7z"/>
		</g>
		<g>
			<path class="st2" d="M57.5,76c9-9,9-23.7,0-32.8c-9-9-23.7-9-32.8,0s-9,23.7,0,32.8S48.5,85.1,57.5,76z"/>
			<path class="st31" d="M41.1,77.8c-4.8,0-9.4-1.9-12.8-5.3c-3.4-3.4-5.3-8-5.3-12.8s1.9-9.4,5.3-12.8c3.4-3.4,8-5.3,12.8-5.3     s9.4,1.9,12.9,5.3c3.4,3.4,5.3,8,5.3,12.9s-1.9,9.4-5.3,12.8S46,77.8,41.1,77.8z"/>
		</g>
	</g>
	<g>
		<line class="st2" x1="6.5" y1="89.9" x2="10.9" y2="94.3"/>
		<line class="st2" x1="8.9" y1="87.5" x2="13.3" y2="91.9"/>
		<line class="st2" x1="11.3" y1="85.1" x2="15.7" y2="89.5"/>
		<line class="st2" x1="13.7" y1="82.8" x2="18.1" y2="87.2"/>
		<line class="st2" x1="16" y1="80.4" x2="20.4" y2="84.8"/>
	</g>
	<line class="st2" x1="24.8" y1="76" x2="18.2" y2="82.6"/>
	<g id="XMLID_00000094613262671578611080000009865043886993327518_">
		<g>
			<path class="st30" d="M81.5,10.5c6.9,6.9,6.9,18.2,0,25.1c-6.9,6.9-18.1,6.9-25.1,0s-6.9-18.2,0-25.1     C63.3,3.6,74.6,3.6,81.5,10.5z M79.4,33.5c5.8-5.7,5.8-15.1,0-20.8C76.6,9.8,72.9,8.3,69,8.3c-3.9,0-7.6,1.5-10.4,4.3     c-5.8,5.7-5.8,15.1,0,20.8c2.8,2.8,6.5,4.3,10.4,4.3C72.9,37.8,76.6,36.2,79.4,33.5z"/>
		</g>
		<g>
			<path class="st2" d="M56.4,35.6c-6.9-6.9-6.9-18.2,0-25.1c6.9-6.9,18.2-6.9,25.1,0c6.9,6.9,6.9,18.2,0,25.1     C74.6,42.5,63.3,42.5,56.4,35.6z"/>
			<path class="st31" d="M69,37.8c-3.9,0-7.6-1.5-10.4-4.3c-5.8-5.7-5.8-15.1,0-20.8C61.3,9.8,65,8.3,69,8.3c3.9,0,7.6,1.5,10.4,4.3     c5.8,5.7,5.8,15.1,0,20.8C76.6,36.2,72.9,37.8,69,37.8z"/>
		</g>
	</g>
	<g>
		<line class="st2" x1="95.5" y1="46.2" x2="92.1" y2="49.5"/>
		<line class="st2" x1="93" y1="43.8" x2="89.7" y2="47.1"/>
		<line class="st2" x1="90.6" y1="41.3" x2="87.2" y2="44.7"/>
		<line class="st2" x1="88.2" y1="38.9" x2="84.8" y2="42.3"/>
	</g>
	<line class="st2" x1="81.5" y1="35.6" x2="86.5" y2="40.6"/>
</g>
<g id="Layer_5">
</g>
<g id="Layer_7">
</g>
<g id="Layer_9" class="st84">
</g>
<g id="Layer_9_copy_4">
</g>
<g id="Layer_9_copy">
</g>
<g id="Layer_9_copy_2">
</g>
<g id="Layer_9_copy_3">
</g>
<g id="Layer_10">
</g>
</svg>