<svg xmlns="http://www.w3.org/2000/svg" xmlns:xlink="http://www.w3.org/1999/xlink" version="1.1" x="0px" y="0px" viewBox="0 0 100 100" style="enable-background:new 0 0 100 100;" xml:space="preserve" width="300"  height="300" >
<style type="text/css">
	.st0{opacity:0.2;fill:#D2D2D2;}
	.st1{fill:none;stroke:#F4F4F4;stroke-width:1.2;stroke-linecap:round;stroke-linejoin:round;stroke-miterlimit:10;}
	.st2{fill:none;stroke:#4C4C4C;stroke-width:1.2;stroke-linecap:round;stroke-linejoin:round;stroke-miterlimit:10;}
	.st3{fill:#F4F4F4;stroke:#0CD8D5;stroke-width:1.2;stroke-linecap:round;stroke-linejoin:round;stroke-miterlimit:10;}
	.st4{fill:#0CD8D5;stroke:#0CD8D5;stroke-width:1.2;stroke-miterlimit:10;}
	.st5{fill:none;stroke:#FFFFFF;stroke-width:1.2;stroke-linecap:round;stroke-linejoin:round;stroke-miterlimit:10;}
	.st6{fill:none;stroke:#0CD8D5;stroke-width:1.2;stroke-linecap:round;stroke-linejoin:round;stroke-miterlimit:10;}
	.st7{fill:none;stroke:#1E1E1E;stroke-width:1.2;stroke-linecap:round;stroke-linejoin:round;stroke-miterlimit:10;}
	.st8{fill:#F4F4F4;}
	.st9{fill:#D2D2D2;}
	.st10{fill:#FFFFFF;}
	.st11{fill:none;stroke:#4C4C4C;stroke-linecap:round;stroke-linejoin:round;stroke-miterlimit:10;}
	.st12{fill:none;stroke:#1E1E1E;stroke-width:1.2;stroke-linecap:round;stroke-linejoin:round;}
	.st13{fill:none;stroke:#1E1E1E;stroke-width:1.2;stroke-linecap:round;stroke-linejoin:round;stroke-dasharray:5.1954,1.5586;}
	
		.st14{fill:none;stroke:#1E1E1E;stroke-width:1.2;stroke-linecap:round;stroke-linejoin:round;stroke-dasharray:15.5863,1.0391,5.1954,1.5586;}
	.st15{fill:none;stroke:#4C4C4C;stroke-width:1.2;stroke-linecap:round;stroke-linejoin:round;}
	.st16{fill:none;stroke:#4C4C4C;stroke-width:1.2;stroke-linecap:round;stroke-linejoin:round;stroke-dasharray:18.9751,5.6925;}
	.st17{fill:none;stroke:#4C4C4C;stroke-width:1.2;stroke-linecap:round;stroke-linejoin:round;stroke-dasharray:3.1646,2.2152;}
	.st18{fill:none;stroke:#4C4C4C;stroke-width:1.2;stroke-linecap:round;stroke-linejoin:round;stroke-dasharray:14.9273,4.4782;}
	.st19{fill:#F4F4F4;stroke:#4C4C4C;stroke-width:1.2;stroke-linecap:round;stroke-linejoin:round;stroke-miterlimit:10;}
	.st20{fill:#FFFFFF;stroke:#4C4C4C;stroke-width:1.2;stroke-linecap:round;stroke-linejoin:round;stroke-miterlimit:10;}
	.st21{fill:none;stroke:#4C4C4C;stroke-width:1.2;stroke-linecap:round;stroke-linejoin:round;stroke-dasharray:29.3301,5.866;}
	
		.st22{fill:none;stroke:#2CB879;stroke-width:1.2;stroke-linecap:round;stroke-linejoin:round;stroke-miterlimit:10;stroke-dasharray:30,6,10,7;}
	.st23{fill:none;stroke:#FD5459;stroke-width:1.2;stroke-linecap:round;stroke-linejoin:round;stroke-miterlimit:10;}
	
		.st24{fill:none;stroke:#FD5459;stroke-width:1.2;stroke-linecap:round;stroke-linejoin:round;stroke-miterlimit:10;stroke-dasharray:30,6,10,7;}
	.st25{fill:none;stroke:#4C4C4C;stroke-width:1.0842;stroke-linecap:round;stroke-linejoin:round;stroke-miterlimit:10;}
	.st26{fill:#4C4C4C;stroke:#4C4C4C;stroke-width:1.0842;stroke-linecap:round;stroke-linejoin:round;stroke-miterlimit:10;}
	.st27{fill:none;stroke:#4C4C4C;stroke-width:1.0115;stroke-linecap:round;stroke-linejoin:round;stroke-miterlimit:10;}
	.st28{fill:#4C4C4C;stroke:#4C4C4C;stroke-width:1.2;stroke-linecap:round;stroke-linejoin:round;stroke-miterlimit:10;}
	.st29{fill:#FF2F63;stroke:#4C4C4C;stroke-width:1.2;stroke-linecap:round;stroke-linejoin:round;stroke-miterlimit:10;}
	.st30{fill:#F0E462;}
	
		.st31{fill:none;stroke:#4C4C4C;stroke-width:1.2;stroke-linecap:round;stroke-linejoin:round;stroke-miterlimit:10;stroke-dasharray:30,6,10,2;}
	
		.st32{fill:#F4F4F4;stroke:#FD5459;stroke-width:1.2;stroke-linecap:round;stroke-linejoin:round;stroke-miterlimit:10;stroke-dasharray:30,4;}
	
		.st33{fill:none;stroke:#4C4C4C;stroke-width:1.2;stroke-linecap:round;stroke-linejoin:round;stroke-miterlimit:10;stroke-dasharray:30,6;}
	.st34{fill:#D2D2D2;stroke:#4C4C4C;stroke-width:1.2;stroke-linecap:round;stroke-linejoin:round;stroke-miterlimit:10;}
	.st35{fill:#F4F4F4;stroke:#FD5459;stroke-width:1.2;stroke-linecap:round;stroke-linejoin:round;stroke-miterlimit:10;}
	.st36{fill:#4C4C4C;}
	.st37{fill:none;stroke:#4C4C4C;stroke-width:1.2;stroke-linecap:round;stroke-linejoin:round;stroke-dasharray:48.279,5.7935;}
	
		.st38{fill:none;stroke:#4C4C4C;stroke-width:1.2;stroke-linecap:round;stroke-linejoin:round;stroke-miterlimit:10;stroke-dasharray:50,6;}
	
		.st39{fill:#D2D2D2;stroke:#4C4C4C;stroke-width:1.2;stroke-linecap:round;stroke-linejoin:round;stroke-miterlimit:10;stroke-dasharray:50,6;}
	
		.st40{fill:#F4F4F4;stroke:#4C4C4C;stroke-width:1.2;stroke-linecap:round;stroke-linejoin:round;stroke-miterlimit:10;stroke-dasharray:50,6;}
	
		.st41{fill:#FFFFFF;stroke:#4C4C4C;stroke-width:1.2;stroke-linecap:round;stroke-linejoin:round;stroke-miterlimit:10;stroke-dasharray:30,6;}
	.st42{fill:#F4F4F4;stroke:#4C4C4C;stroke-width:1.2;stroke-miterlimit:10;}
	.st43{fill:#2CB879;stroke:#2CB879;stroke-width:1.2;stroke-miterlimit:10;}
	.st44{fill:#0CD8D5;stroke:#4C4C4C;stroke-width:1.2;stroke-linecap:round;stroke-linejoin:round;stroke-miterlimit:10;}
	
		.st45{fill:#0CD8D5;stroke:#4C4C4C;stroke-width:1.2;stroke-linecap:round;stroke-linejoin:round;stroke-miterlimit:10;stroke-dasharray:30,6;}
	.st46{fill:none;stroke:#0CD8D5;stroke-width:200;stroke-linecap:round;stroke-linejoin:round;stroke-miterlimit:10;}
	.st47{fill:none;stroke:#F0E462;stroke-width:214.4015;stroke-linecap:round;stroke-linejoin:round;stroke-miterlimit:10;}
	.st48{fill:none;stroke:#F4F4F4;stroke-width:171.5212;stroke-linecap:round;stroke-linejoin:round;stroke-miterlimit:10;}
	.st49{fill:none;stroke:#F0E462;stroke-width:85.7606;stroke-linecap:round;stroke-linejoin:round;stroke-miterlimit:10;}
	.st50{fill:none;stroke:#F4F4F4;stroke-width:42.8803;stroke-linecap:round;stroke-linejoin:round;stroke-miterlimit:10;}
	.st51{fill:none;stroke:#F0E462;stroke-width:500;stroke-linecap:round;stroke-linejoin:round;stroke-miterlimit:10;}
	.st52{fill:none;stroke:#F4F4F4;stroke-width:400;stroke-linecap:round;stroke-linejoin:round;stroke-miterlimit:10;}
	.st53{fill:none;stroke:#F0E462;stroke-width:200;stroke-linecap:round;stroke-linejoin:round;stroke-miterlimit:10;}
	.st54{fill:none;stroke:#F4F4F4;stroke-width:100;stroke-linecap:round;stroke-linejoin:round;stroke-miterlimit:10;}
	.st55{fill:none;stroke:#0CD8D5;stroke-width:220;stroke-linecap:round;stroke-linejoin:round;stroke-miterlimit:10;}
	.st56{fill:none;stroke:#FFFFFF;stroke-width:200;stroke-linecap:round;stroke-linejoin:round;stroke-miterlimit:10;}
	.st57{fill:none;stroke:#FF2F63;stroke-width:100;stroke-linecap:round;stroke-linejoin:round;stroke-miterlimit:10;}
	.st58{fill:none;stroke:#FF2F63;stroke-width:60;stroke-linecap:round;stroke-linejoin:round;stroke-miterlimit:10;}
	.st59{fill:none;stroke:#0CD8D5;stroke-width:50;stroke-linecap:round;stroke-linejoin:round;stroke-miterlimit:10;}
	.st60{fill:none;stroke:#F4F4F4;stroke-width:200;stroke-linecap:round;stroke-linejoin:round;stroke-miterlimit:10;}
	.st61{fill:none;stroke:#F4F4F4;stroke-width:180;stroke-linecap:round;stroke-linejoin:round;stroke-miterlimit:10;}
	.st62{fill:none;stroke:#FF2F63;stroke-width:200;stroke-linecap:round;stroke-linejoin:round;stroke-miterlimit:10;}
	.st63{fill:none;stroke:#FF2F63;stroke-width:50;stroke-linecap:round;stroke-linejoin:round;stroke-miterlimit:10;}
	.st64{fill:none;stroke:#F0E462;stroke-width:100;stroke-linecap:round;stroke-linejoin:round;stroke-miterlimit:10;}
	.st65{fill:none;stroke:#F0E462;stroke-width:50;stroke-linecap:round;stroke-linejoin:round;stroke-miterlimit:10;}
	.st66{fill:none;stroke:#0CD8D5;stroke-width:5;stroke-linecap:round;stroke-linejoin:round;stroke-miterlimit:10;}
	.st67{fill:#0CD8D5;}
	.st68{fill:none;stroke:#0CD8D5;stroke-width:180;stroke-linecap:round;stroke-linejoin:round;stroke-miterlimit:10;}
	.st69{fill:none;stroke:#0CD8D5;stroke-width:150;stroke-linecap:round;stroke-linejoin:round;stroke-miterlimit:10;}
	.st70{fill:none;stroke:#F4F4F4;stroke-width:122;stroke-linecap:round;stroke-linejoin:round;stroke-miterlimit:10;}
	.st71{fill:none;stroke:#0CD8D5;stroke-width:45;stroke-linecap:round;stroke-linejoin:round;stroke-miterlimit:10;}
	.st72{fill:none;stroke:#F4F4F4;stroke-width:360;stroke-linecap:round;stroke-linejoin:round;stroke-miterlimit:10;}
	.st73{fill:none;stroke:#FF2F63;stroke-width:90;stroke-linecap:round;stroke-linejoin:round;stroke-miterlimit:10;}
	.st74{fill:none;stroke:#FF2F63;stroke-width:180;stroke-linecap:round;stroke-linejoin:round;stroke-miterlimit:10;}
	.st75{fill:none;stroke:#FF2F63;stroke-width:45;stroke-linecap:round;stroke-linejoin:round;stroke-miterlimit:10;}
	.st76{fill:none;stroke:#F4F4F4;stroke-width:90;stroke-linecap:round;stroke-linejoin:round;stroke-miterlimit:10;}
	.st77{fill:none;stroke:#0CD8D5;stroke-width:99;stroke-linecap:round;stroke-linejoin:round;stroke-miterlimit:10;}
	.st78{fill:none;stroke:#0CD8D5;stroke-width:60;stroke-linecap:round;stroke-linejoin:round;stroke-miterlimit:10;}
	.st79{fill:none;stroke:#F0E462;stroke-width:180;stroke-linecap:round;stroke-linejoin:round;stroke-miterlimit:10;}
	.st80{fill:none;stroke:#F0E462;stroke-width:150;stroke-linecap:round;stroke-linejoin:round;stroke-miterlimit:10;}
	.st81{fill:none;stroke:#0CD8D5;stroke-width:90;stroke-linecap:round;stroke-linejoin:round;stroke-miterlimit:10;}
	.st82{fill:none;stroke:#F0E462;stroke-width:99;stroke-linecap:round;stroke-linejoin:round;stroke-miterlimit:10;}
	.st83{fill:#FD5459;}
	.st84{display:none;}
	.st85{display:inline;}
	.st86{clip-path:url(#SVGID_00000042703926326720139040000016642212371884226477_);}
	.st87{fill:none;stroke:#0CD8D5;stroke-width:3;stroke-linecap:round;stroke-linejoin:round;stroke-miterlimit:10;}
	.st88{opacity:0.1;fill:#FFFFFF;}
	.st89{fill:#FFFFFF;stroke:#4C4C4C;stroke-miterlimit:10;}
	.st90{fill:#FD5459;stroke:#4C4C4C;stroke-miterlimit:10;}
	.st91{fill:#F4F4F4;stroke:#4C4C4C;stroke-miterlimit:10;}
	.st92{enable-background:new    ;}
	.st93{fill:#1E1E1E;}
	.st94{opacity:0.25;}
	.st95{clip-path:url(#SVGID_00000169521116709126752300000014305014125153637516_);}
	.st96{fill:none;stroke:#0CD8D5;stroke-width:2;stroke-linecap:round;stroke-linejoin:round;stroke-miterlimit:10;}
	.st97{clip-path:url(#SVGID_00000136398699113845479040000004150973243291641268_);}
	.st98{fill:none;stroke:#0CD8D5;stroke-linecap:round;stroke-linejoin:round;stroke-miterlimit:10;}
	.st99{opacity:0.15;}
	.st100{clip-path:url(#SVGID_00000008837422371037398560000007427202081311624622_);}
	.st101{fill:none;stroke:#0CD8D5;stroke-width:0.5;stroke-linecap:round;stroke-linejoin:round;stroke-miterlimit:10;}
	.st102{fill:#F4F4F4;stroke:#4C4C4C;stroke-linecap:round;stroke-linejoin:round;stroke-miterlimit:10;}
	.st103{opacity:5.000000e-02;fill:#0CD8D5;}
	.st104{fill:#FFFFFF;stroke:#4C4C4C;stroke-linecap:round;stroke-linejoin:round;stroke-miterlimit:10;}
	.st105{fill:none;stroke:#0CD8D5;stroke-miterlimit:10;}
	.st106{fill:none;stroke:#4C4C4C;stroke-miterlimit:10;}
	.st107{fill:#F0E462;stroke:#4C4C4C;stroke-miterlimit:10;}
</style>
<g id="Layer_4">
</g>
<g id="Layer_1">
</g>
<g id="Layer_1_copy">
</g>
<g id="Layer_6">
</g>
<g id="Layer_2">
</g>
<g id="Layer_8">
	<g>
		<g>
			<path class="st2" d="M85.8,76.8c0-2.9-6.3-2-6.3-6.5c-0.6,0.4-1.2,0.7-1.6,0.7c-0.5,0-1.1-0.2-1.6-0.7c-0.1,4.5-6.3,3.6-6.3,6.5"/>
			<path class="st2" d="M82,64.6c-0.3-2.8-2-5.1-4.2-5.1s-4,2.2-4.2,5.1c-0.6,0-1.1,0.5-1.1,1.2v0.1c0,0.7,0.5,1.2,1.2,1.2h0.1     c0.7,2.3,2.7,4,4,4c1.2,0,3.2-1.7,4-4h0.2c0.7,0,1.2-0.5,1.2-1.2v-0.1C83.1,65.2,82.6,64.7,82,64.6z"/>
			<path class="st28" d="M82,64.6l-1.5-3.3c-0.3-0.7-1.3-1-1.9-0.4l0,0c-0.5,0.4-1.2,0.4-1.6,0v0c-0.6-0.5-1.6-0.3-1.9,0.4l-1.5,3.3     v-3.5c0-2.4,1.9-4.3,4.3-4.3h0c2.4,0,4.3,1.9,4.3,4.3v3.5H82z"/>
			<path class="st2" d="M75.1,73.8c1.5,1.5,4,1.5,5.5,0"/>
		</g>
		<g>
			<path class="st2" d="M19.8,83.6c0-2,2-2.7,4.2-3.6"/>
			<path class="st2" d="M27.9,77.4c0.6-0.8,1-1.8,1-3.1c0.4,0.3,0.9,0.6,1.3,0.7c0.2,0.1,0.4,0.1,0.5,0.2c0.2,0,0.4,0.1,0.6,0.1     c0.2,0,0.3,0,0.5-0.1c0.1,0,0.2,0,0.3-0.1c0.3-0.1,0.6-0.2,0.9-0.4c0.1-0.1,0.2-0.1,0.3-0.2c0.1-0.1,0.2-0.2,0.3-0.2v0     c0.1,6.5,9.1,5.2,9.1,9.3"/>
			<path class="st2" d="M37.2,65.2c0.1,0.3,0.1,0.6,0.1,0.9c0.5,0,1,0.3,1.3,0.7c0.2,0.3,0.3,0.6,0.3,0.9v0.1c0,0.1,0,0.2,0,0.3     c-0.2,0.8-0.8,1.4-1.7,1.4H37c-1.1,3.3-4,5.7-5.7,5.7c-1,0-2.3-0.7-3.4-1.9c-1-1-1.8-2.3-2.3-3.8h-0.2c-0.9,0-1.7-0.8-1.7-1.7     v-0.1c0-0.9,0.7-1.6,1.6-1.7c0-0.5,0.1-1.1,0.3-1.6"/>
			<path class="st2" d="M31.9,61.3c-2,2.3-7.3,3.4-7.3,3.4"/>
			<path class="st2" d="M27.9,73.4c0,3.8,0,8.3,0,12.1c-1.2-0.2-4.3-0.6-4.3-10.2c0-2.3-3.4-3.2-3.4-8.8c0-1.6,1.1-3,2.6-5.2     c1.9-2.7,6.8-5.7,8.7-4.1c0.3,0.3,0,1.6,0,1.6"/>
			<path class="st2" d="M31.9,61.3c1.7,2.5,5.3,3.8,5.3,3.8"/>
			<path class="st2" d="M35.1,77.3c4-2.2,4.9-5,4.8-6.1c0-1-0.6-2-1-2.9v0"/>
			<path class="st2" d="M38.6,66.8L38.6,66.8c0-0.5,0.1-1,0.5-1.5c2.5-4-5.6-10.4-7.5-6.5"/>
			<path class="st2" d="M27.9,81.8h1.8c2.5,0,5-1,6.7-2.9h0"/>
		</g>
		<g>
			<g>
				<path class="st2" d="M53.3,40.8c0-3.3-7.3-2.3-7.3-7.5c-0.7,0.5-1.4,0.8-1.9,0.8c-0.5,0-1.2-0.3-1.9-0.8      c-0.1,5.2-7.3,4.2-7.3,7.5"/>
				<path class="st2" d="M48.9,26.5c0,0.1,0,0.1,0,0.2c0.7,0,1.3,0.6,1.3,1.3v0.1c0,0.8-0.6,1.4-1.4,1.4h-0.2      c-0.9,2.7-3.3,4.6-4.6,4.6c-1.4,0-3.7-1.9-4.6-4.6h-0.2c-0.7,0-1.4-0.6-1.4-1.4V28c0-0.7,0.6-1.3,1.3-1.3c0-0.2,0-0.3,0.1-0.5"/>
				<path class="st28" d="M50.3,23.7c0.4-0.3,0.7-0.7,0.7-1.3c0-0.9-0.7-1.6-1.6-1.6c-0.2,0-0.3,0-0.4,0.1c0-0.1,0.1-0.3,0.1-0.4      c0-0.6-0.5-1.1-1.1-1.1c-0.6,0-1.1,0.5-1.1,1.1c-0.1-0.1-0.2-0.2-0.3-0.2c0.2-0.2,0.3-0.5,0.3-0.9c0-0.8-0.6-1.4-1.4-1.4      c-0.8,0-1.4,0.6-1.4,1.4c0,0.1,0,0.1,0,0.2c0,0,0,0,0,0c-0.2,0-0.3,0-0.5,0.1c0,0,0,0,0,0c0-0.6-0.5-1.1-1.1-1.1      c-0.6,0-1.1,0.5-1.1,1.1c0,0.1,0,0.3,0.1,0.4c-0.2-0.2-0.5-0.4-0.8-0.4c-0.6,0-1,0.5-1,1c0,0.1,0,0.3,0.1,0.4      c-0.2-0.1-0.4-0.2-0.6-0.2c-0.7,0-1.3,0.6-1.3,1.3c0,0.6,0.5,1.1,1.1,1.2c-0.4,0.3-0.7,0.8-0.7,1.3c0,0.9,0.7,1.6,1.6,1.6      c0.9,0,1.6-0.7,1.6-1.6c0,0,0,0,0,0c0.8-0.1,1.4-0.7,1.4-1.5c0-0.1,0-0.2-0.1-0.4c0.4,0.4,0.9,0.7,1.4,0.7      c0.5,0,0.9-0.2,1.3-0.5c0.2,0.1,0.4,0.1,0.6,0.1c0.4,0,0.8-0.2,1-0.4c0,0,0,0.1,0,0.1c-0.6,0.2-1.1,0.8-1.1,1.4      c0,0.8,0.7,1.5,1.5,1.5c0.2,0,0.4-0.1,0.6-0.1c0.2,0.6,0.8,1,1.5,1c0.9,0,1.6-0.7,1.6-1.6C51,24.4,50.7,24,50.3,23.7z       M40.8,21.6C40.8,21.6,40.8,21.6,40.8,21.6c-0.3,0-0.5,0.1-0.7,0.3c0-0.1,0-0.2-0.1-0.3c0.1,0.1,0.3,0.1,0.4,0.1      C40.6,21.6,40.7,21.6,40.8,21.6z"/>
				<path class="st2" d="M41.6,36.7L41.6,36.7c1.4,1.4,3.6,1.4,5,0.1l0,0"/>
			</g>
			<g>
				<path class="st2" d="M34.8,10.2L34.8,10.2c-0.4-1.2-1.5-1.9-2.7-1.9h-6.5c-1.5,0-2.8,1.3-2.8,2.8v1.1v4.4v27.6      c0,1.1,0.9,2.1,2.1,2.1h38.2c1.1,0,2.1-0.9,2.1-2.1v-30c0-1.1-0.9-2.1-2.1-2.1H37.5C36.3,12.1,35.2,11.4,34.8,10.2z"/>
				<rect x="55.8" y="12.1" class="st29" width="3.2" height="7.9"/>
			</g>
		</g>
		<g>
			<path class="st2" d="M19.8,46.9L19.8,46.9c-0.5-1.4-1.8-2.4-3.3-2.4h-8C6.6,44.5,5,46.1,5,48v1.3v5.5v34.4c0,1.4,1.2,2.6,2.6,2.6     H55c1.4,0,2.6-1.2,2.6-2.6V51.9c0-1.4-1.2-2.6-2.6-2.6H23.1C21.6,49.3,20.3,48.3,19.8,46.9z"/>
			<rect x="45.9" y="49.3" class="st29" width="4" height="9.9"/>
		</g>
		<g>
			<path class="st2" d="M70.3,51.3L70.3,51.3c-0.3-0.9-1.2-1.6-2.2-1.6h-5.2c-1.3,0-2.3,1-2.3,2.3v0.9v3.6v22.4     c0,0.9,0.8,1.7,1.7,1.7h31c0.9,0,1.7-0.8,1.7-1.7V54.6c0-0.9-0.8-1.7-1.7-1.7H72.5C71.5,52.9,70.6,52.3,70.3,51.3z"/>
			<rect x="87.4" y="52.9" class="st29" width="2.6" height="6.4"/>
		</g>
		<g>
			<path class="st2" d="M76.1,24.4L76.1,24.4c-0.2-0.7-0.9-1.2-1.6-1.2h-3.9c-0.9,0-1.7,0.8-1.7,1.7v0.7v2.7v16.8     c0,0.7,0.6,1.3,1.3,1.3h23.2c0.7,0,1.3-0.6,1.3-1.3V26.8c0-0.7-0.6-1.3-1.3-1.3H77.8C77,25.6,76.4,25.1,76.1,24.4z"/>
			<rect x="88.9" y="25.6" class="st29" width="1.9" height="4.8"/>
		</g>
		<g>
			<path class="st2" d="M87.4,42.3c0-2-4.4-1.4-4.5-4.6c-0.4,0.3-0.8,0.5-1.2,0.5c-0.3,0-0.7-0.2-1.2-0.5c-0.1,3.2-4.5,2.5-4.5,4.6"/>
			<path class="st2" d="M84.7,33.7c0.4,0,0.8,0.4,0.8,0.8v0.1c0,0.5-0.4,0.8-0.8,0.8h-0.1c-0.5,1.6-2,2.8-2.8,2.8     c-0.9,0-2.3-1.2-2.8-2.8h-0.1c-0.5,0-0.8-0.4-0.8-0.8v-0.1c0-0.4,0.3-0.8,0.8-0.8"/>
			<path class="st2" d="M77.1,41v-8.5c0-2.1,1.7-3.7,3.7-3.7h0c0.7,0,1.2,0.5,1.2,1.2v0.1"/>
			<path class="st2" d="M82.1,29.8H83c1.6,0,3,1.3,3,3v8"/>
			<path class="st2" d="M78.8,33.7c0,0,3,0.3,3.8-2.3"/>
			<path class="st2" d="M82.6,31.4c0,1.4,2.1,2.3,2.1,2.3"/>
			<polyline class="st2" points="79.2,40 79.6,41.1 84,41.1 84.3,40    "/>
		</g>
	</g>
</g>
<g id="Layer_5">
</g>
<g id="Layer_7">
</g>
<g id="Layer_9" class="st84">
</g>
<g id="Layer_9_copy_4">
</g>
<g id="Layer_9_copy">
</g>
<g id="Layer_9_copy_2">
</g>
<g id="Layer_9_copy_3">
</g>
<g id="Layer_10">
</g>
</svg>