<svg xmlns="http://www.w3.org/2000/svg" xmlns:xlink="http://www.w3.org/1999/xlink" version="1.1" x="0px" y="0px" viewBox="0 0 100 100" style="enable-background:new 0 0 100 100;" xml:space="preserve" width="300"  height="300" >
<style type="text/css">
	.st0{opacity:0.2;fill:#D2D2D2;}
	.st1{fill:none;stroke:#F4F4F4;stroke-width:1.2;stroke-linecap:round;stroke-linejoin:round;stroke-miterlimit:10;}
	.st2{fill:none;stroke:#4C4C4C;stroke-width:1.2;stroke-linecap:round;stroke-linejoin:round;stroke-miterlimit:10;}
	.st3{fill:#F4F4F4;stroke:#0CD8D5;stroke-width:1.2;stroke-linecap:round;stroke-linejoin:round;stroke-miterlimit:10;}
	.st4{fill:#0CD8D5;stroke:#0CD8D5;stroke-width:1.2;stroke-miterlimit:10;}
	.st5{fill:none;stroke:#FFFFFF;stroke-width:1.2;stroke-linecap:round;stroke-linejoin:round;stroke-miterlimit:10;}
	.st6{fill:none;stroke:#0CD8D5;stroke-width:1.2;stroke-linecap:round;stroke-linejoin:round;stroke-miterlimit:10;}
	.st7{fill:none;stroke:#1E1E1E;stroke-width:1.2;stroke-linecap:round;stroke-linejoin:round;stroke-miterlimit:10;}
	.st8{fill:#F4F4F4;}
	.st9{fill:#D2D2D2;}
	.st10{fill:#FFFFFF;}
	.st11{fill:none;stroke:#4C4C4C;stroke-linecap:round;stroke-linejoin:round;stroke-miterlimit:10;}
	.st12{fill:none;stroke:#1E1E1E;stroke-width:1.2;stroke-linecap:round;stroke-linejoin:round;}
	.st13{fill:none;stroke:#1E1E1E;stroke-width:1.2;stroke-linecap:round;stroke-linejoin:round;stroke-dasharray:5.1954,1.5586;}
	
		.st14{fill:none;stroke:#1E1E1E;stroke-width:1.2;stroke-linecap:round;stroke-linejoin:round;stroke-dasharray:15.5863,1.0391,5.1954,1.5586;}
	.st15{fill:none;stroke:#4C4C4C;stroke-width:1.2;stroke-linecap:round;stroke-linejoin:round;}
	.st16{fill:none;stroke:#4C4C4C;stroke-width:1.2;stroke-linecap:round;stroke-linejoin:round;stroke-dasharray:18.9751,5.6925;}
	.st17{fill:none;stroke:#4C4C4C;stroke-width:1.2;stroke-linecap:round;stroke-linejoin:round;stroke-dasharray:3.1646,2.2152;}
	.st18{fill:none;stroke:#4C4C4C;stroke-width:1.2;stroke-linecap:round;stroke-linejoin:round;stroke-dasharray:14.9273,4.4782;}
	.st19{fill:#F4F4F4;stroke:#4C4C4C;stroke-width:1.2;stroke-linecap:round;stroke-linejoin:round;stroke-miterlimit:10;}
	.st20{fill:#FFFFFF;stroke:#4C4C4C;stroke-width:1.2;stroke-linecap:round;stroke-linejoin:round;stroke-miterlimit:10;}
	.st21{fill:none;stroke:#4C4C4C;stroke-width:1.2;stroke-linecap:round;stroke-linejoin:round;stroke-dasharray:29.3301,5.866;}
	
		.st22{fill:none;stroke:#2CB879;stroke-width:1.2;stroke-linecap:round;stroke-linejoin:round;stroke-miterlimit:10;stroke-dasharray:30,6,10,7;}
	.st23{fill:none;stroke:#FD5459;stroke-width:1.2;stroke-linecap:round;stroke-linejoin:round;stroke-miterlimit:10;}
	
		.st24{fill:none;stroke:#FD5459;stroke-width:1.2;stroke-linecap:round;stroke-linejoin:round;stroke-miterlimit:10;stroke-dasharray:30,6,10,7;}
	.st25{fill:none;stroke:#4C4C4C;stroke-width:1.0842;stroke-linecap:round;stroke-linejoin:round;stroke-miterlimit:10;}
	.st26{fill:#4C4C4C;stroke:#4C4C4C;stroke-width:1.0842;stroke-linecap:round;stroke-linejoin:round;stroke-miterlimit:10;}
	.st27{fill:none;stroke:#4C4C4C;stroke-width:1.0115;stroke-linecap:round;stroke-linejoin:round;stroke-miterlimit:10;}
	.st28{fill:#4C4C4C;stroke:#4C4C4C;stroke-width:1.2;stroke-linecap:round;stroke-linejoin:round;stroke-miterlimit:10;}
	.st29{fill:#FF2F63;stroke:#4C4C4C;stroke-width:1.2;stroke-linecap:round;stroke-linejoin:round;stroke-miterlimit:10;}
	.st30{fill:#F0E462;}
	
		.st31{fill:none;stroke:#4C4C4C;stroke-width:1.2;stroke-linecap:round;stroke-linejoin:round;stroke-miterlimit:10;stroke-dasharray:30,6,10,2;}
	
		.st32{fill:#F4F4F4;stroke:#FD5459;stroke-width:1.2;stroke-linecap:round;stroke-linejoin:round;stroke-miterlimit:10;stroke-dasharray:30,4;}
	
		.st33{fill:none;stroke:#4C4C4C;stroke-width:1.2;stroke-linecap:round;stroke-linejoin:round;stroke-miterlimit:10;stroke-dasharray:30,6;}
	.st34{fill:#D2D2D2;stroke:#4C4C4C;stroke-width:1.2;stroke-linecap:round;stroke-linejoin:round;stroke-miterlimit:10;}
	.st35{fill:#F4F4F4;stroke:#FD5459;stroke-width:1.2;stroke-linecap:round;stroke-linejoin:round;stroke-miterlimit:10;}
	.st36{fill:#4C4C4C;}
	.st37{fill:none;stroke:#4C4C4C;stroke-width:1.2;stroke-linecap:round;stroke-linejoin:round;stroke-dasharray:48.279,5.7935;}
	
		.st38{fill:none;stroke:#4C4C4C;stroke-width:1.2;stroke-linecap:round;stroke-linejoin:round;stroke-miterlimit:10;stroke-dasharray:50,6;}
	
		.st39{fill:#D2D2D2;stroke:#4C4C4C;stroke-width:1.2;stroke-linecap:round;stroke-linejoin:round;stroke-miterlimit:10;stroke-dasharray:50,6;}
	
		.st40{fill:#F4F4F4;stroke:#4C4C4C;stroke-width:1.2;stroke-linecap:round;stroke-linejoin:round;stroke-miterlimit:10;stroke-dasharray:50,6;}
	
		.st41{fill:#FFFFFF;stroke:#4C4C4C;stroke-width:1.2;stroke-linecap:round;stroke-linejoin:round;stroke-miterlimit:10;stroke-dasharray:30,6;}
	.st42{fill:#F4F4F4;stroke:#4C4C4C;stroke-width:1.2;stroke-miterlimit:10;}
	.st43{fill:#2CB879;stroke:#2CB879;stroke-width:1.2;stroke-miterlimit:10;}
	.st44{fill:#0CD8D5;stroke:#4C4C4C;stroke-width:1.2;stroke-linecap:round;stroke-linejoin:round;stroke-miterlimit:10;}
	
		.st45{fill:#0CD8D5;stroke:#4C4C4C;stroke-width:1.2;stroke-linecap:round;stroke-linejoin:round;stroke-miterlimit:10;stroke-dasharray:30,6;}
	.st46{fill:none;stroke:#0CD8D5;stroke-width:200;stroke-linecap:round;stroke-linejoin:round;stroke-miterlimit:10;}
	.st47{fill:none;stroke:#F0E462;stroke-width:214.4015;stroke-linecap:round;stroke-linejoin:round;stroke-miterlimit:10;}
	.st48{fill:none;stroke:#F4F4F4;stroke-width:171.5212;stroke-linecap:round;stroke-linejoin:round;stroke-miterlimit:10;}
	.st49{fill:none;stroke:#F0E462;stroke-width:85.7606;stroke-linecap:round;stroke-linejoin:round;stroke-miterlimit:10;}
	.st50{fill:none;stroke:#F4F4F4;stroke-width:42.8803;stroke-linecap:round;stroke-linejoin:round;stroke-miterlimit:10;}
	.st51{fill:none;stroke:#F0E462;stroke-width:500;stroke-linecap:round;stroke-linejoin:round;stroke-miterlimit:10;}
	.st52{fill:none;stroke:#F4F4F4;stroke-width:400;stroke-linecap:round;stroke-linejoin:round;stroke-miterlimit:10;}
	.st53{fill:none;stroke:#F0E462;stroke-width:200;stroke-linecap:round;stroke-linejoin:round;stroke-miterlimit:10;}
	.st54{fill:none;stroke:#F4F4F4;stroke-width:100;stroke-linecap:round;stroke-linejoin:round;stroke-miterlimit:10;}
	.st55{fill:none;stroke:#0CD8D5;stroke-width:220;stroke-linecap:round;stroke-linejoin:round;stroke-miterlimit:10;}
	.st56{fill:none;stroke:#FFFFFF;stroke-width:200;stroke-linecap:round;stroke-linejoin:round;stroke-miterlimit:10;}
	.st57{fill:none;stroke:#FF2F63;stroke-width:100;stroke-linecap:round;stroke-linejoin:round;stroke-miterlimit:10;}
	.st58{fill:none;stroke:#FF2F63;stroke-width:60;stroke-linecap:round;stroke-linejoin:round;stroke-miterlimit:10;}
	.st59{fill:none;stroke:#0CD8D5;stroke-width:50;stroke-linecap:round;stroke-linejoin:round;stroke-miterlimit:10;}
	.st60{fill:none;stroke:#F4F4F4;stroke-width:200;stroke-linecap:round;stroke-linejoin:round;stroke-miterlimit:10;}
	.st61{fill:none;stroke:#F4F4F4;stroke-width:180;stroke-linecap:round;stroke-linejoin:round;stroke-miterlimit:10;}
	.st62{fill:none;stroke:#FF2F63;stroke-width:200;stroke-linecap:round;stroke-linejoin:round;stroke-miterlimit:10;}
	.st63{fill:none;stroke:#FF2F63;stroke-width:50;stroke-linecap:round;stroke-linejoin:round;stroke-miterlimit:10;}
	.st64{fill:none;stroke:#F0E462;stroke-width:100;stroke-linecap:round;stroke-linejoin:round;stroke-miterlimit:10;}
	.st65{fill:none;stroke:#F0E462;stroke-width:50;stroke-linecap:round;stroke-linejoin:round;stroke-miterlimit:10;}
	.st66{fill:none;stroke:#0CD8D5;stroke-width:5;stroke-linecap:round;stroke-linejoin:round;stroke-miterlimit:10;}
	.st67{fill:#0CD8D5;}
	.st68{fill:none;stroke:#0CD8D5;stroke-width:180;stroke-linecap:round;stroke-linejoin:round;stroke-miterlimit:10;}
	.st69{fill:none;stroke:#0CD8D5;stroke-width:150;stroke-linecap:round;stroke-linejoin:round;stroke-miterlimit:10;}
	.st70{fill:none;stroke:#F4F4F4;stroke-width:122;stroke-linecap:round;stroke-linejoin:round;stroke-miterlimit:10;}
	.st71{fill:none;stroke:#0CD8D5;stroke-width:45;stroke-linecap:round;stroke-linejoin:round;stroke-miterlimit:10;}
	.st72{fill:none;stroke:#F4F4F4;stroke-width:360;stroke-linecap:round;stroke-linejoin:round;stroke-miterlimit:10;}
	.st73{fill:none;stroke:#FF2F63;stroke-width:90;stroke-linecap:round;stroke-linejoin:round;stroke-miterlimit:10;}
	.st74{fill:none;stroke:#FF2F63;stroke-width:180;stroke-linecap:round;stroke-linejoin:round;stroke-miterlimit:10;}
	.st75{fill:none;stroke:#FF2F63;stroke-width:45;stroke-linecap:round;stroke-linejoin:round;stroke-miterlimit:10;}
	.st76{fill:none;stroke:#F4F4F4;stroke-width:90;stroke-linecap:round;stroke-linejoin:round;stroke-miterlimit:10;}
	.st77{fill:none;stroke:#0CD8D5;stroke-width:99;stroke-linecap:round;stroke-linejoin:round;stroke-miterlimit:10;}
	.st78{fill:none;stroke:#0CD8D5;stroke-width:60;stroke-linecap:round;stroke-linejoin:round;stroke-miterlimit:10;}
	.st79{fill:none;stroke:#F0E462;stroke-width:180;stroke-linecap:round;stroke-linejoin:round;stroke-miterlimit:10;}
	.st80{fill:none;stroke:#F0E462;stroke-width:150;stroke-linecap:round;stroke-linejoin:round;stroke-miterlimit:10;}
	.st81{fill:none;stroke:#0CD8D5;stroke-width:90;stroke-linecap:round;stroke-linejoin:round;stroke-miterlimit:10;}
	.st82{fill:none;stroke:#F0E462;stroke-width:99;stroke-linecap:round;stroke-linejoin:round;stroke-miterlimit:10;}
	.st83{fill:#FD5459;}
	.st84{display:none;}
	.st85{display:inline;}
	.st86{clip-path:url(#SVGID_00000129922402667288069360000017018338652644064191_);}
	.st87{fill:none;stroke:#0CD8D5;stroke-width:3;stroke-linecap:round;stroke-linejoin:round;stroke-miterlimit:10;}
	.st88{opacity:0.1;fill:#FFFFFF;}
	.st89{fill:#FFFFFF;stroke:#4C4C4C;stroke-miterlimit:10;}
	.st90{fill:#FD5459;stroke:#4C4C4C;stroke-miterlimit:10;}
	.st91{fill:#F4F4F4;stroke:#4C4C4C;stroke-miterlimit:10;}
	.st92{enable-background:new    ;}
	.st93{fill:#1E1E1E;}
	.st94{opacity:0.25;}
	.st95{clip-path:url(#SVGID_00000056425893919702366400000008667746126190346380_);}
	.st96{fill:none;stroke:#0CD8D5;stroke-width:2;stroke-linecap:round;stroke-linejoin:round;stroke-miterlimit:10;}
	.st97{clip-path:url(#SVGID_00000159466836331367888630000001790171914004984966_);}
	.st98{fill:none;stroke:#0CD8D5;stroke-linecap:round;stroke-linejoin:round;stroke-miterlimit:10;}
	.st99{opacity:0.15;}
	.st100{clip-path:url(#SVGID_00000040534833541750596260000002856661330398560911_);}
	.st101{fill:none;stroke:#0CD8D5;stroke-width:0.5;stroke-linecap:round;stroke-linejoin:round;stroke-miterlimit:10;}
	.st102{fill:#F4F4F4;stroke:#4C4C4C;stroke-linecap:round;stroke-linejoin:round;stroke-miterlimit:10;}
	.st103{opacity:5.000000e-02;fill:#0CD8D5;}
	.st104{fill:#FFFFFF;stroke:#4C4C4C;stroke-linecap:round;stroke-linejoin:round;stroke-miterlimit:10;}
	.st105{fill:none;stroke:#0CD8D5;stroke-miterlimit:10;}
	.st106{fill:none;stroke:#4C4C4C;stroke-miterlimit:10;}
	.st107{fill:#F0E462;stroke:#4C4C4C;stroke-miterlimit:10;}
</style>
<g id="Layer_4">
</g>
<g id="Layer_1">
</g>
<g id="Layer_1_copy">
</g>
<g id="Layer_6">
</g>
<g id="Layer_2">
</g>
<g id="Layer_8">
</g>
<g id="Layer_5">
	<g>
		<path class="st32" d="M57.5,29c6.9-4,15.6-1.6,19.6,5.3c4,6.9,1.6,15.6-5.3,19.6c-6.9,4-15.6,1.6-19.6-5.3    C48.3,41.8,50.6,33,57.5,29z"/>
		<path class="st19" d="M13.1,75.9c-2.4-1.3-4.3-3.3-5.6-5.9C6,66.8,5.9,63.2,7,60c1.1-3.2,3.4-5.9,6.7-7.5l8.7-4.1"/>
		<path class="st19" d="M20,77.5c1.7-0.1,3.4-0.5,5-1.3l8.7-4.1"/>
		<path class="st33" d="M13.1,86.2V65.6c0-1.9,1.5-3.4,3.4-3.4c1,0,1.8,0.4,2.4,1c0.6,0.6,1,1.5,1,2.4v20.6"/>
		<circle class="st20" cx="16.4" cy="65.8" r="1.1"/>
		<path class="st34" d="M5.2,91.1L5.2,91.1c0-2.7,2.2-4.9,4.9-4.9H23c2.7,0,4.9,2.2,4.9,4.9v0"/>
		<line class="st2" x1="28.1" y1="49.4" x2="43.6" y2="18.5"/>
		<line class="st2" x1="36.2" y1="67.3" x2="69.9" y2="74.6"/>
		<g>
			<path class="st2" d="M25.2,45.5c-0.2,9,5.4,20.8,12.5,26.2"/>
		</g>
		<path class="st2" d="M40.1,65.8L40.1,65.8c-1-6.4-4.3-13.3-8.6-18.2"/>
		<g>
			<path class="st35" d="M59.6,48.3c0.5-1.6,0.7-3.2,0.7-4.8v-1.9c0-2.4,1.9-4.3,4.3-4.3h0c2.4,0,4.3,1.9,4.3,4.3v1.9     c0,1.6,0.2,3.3,0.7,4.8l0.1,0.5H59.4L59.6,48.3z"/>
			<path class="st23" d="M63.1,37.5v-1.8c0-0.9,0.7-1.6,1.6-1.6c0.9,0,1.6,0.7,1.6,1.6v1.8"/>
		</g>
		<line class="st2" x1="9.8" y1="91.1" x2="23.3" y2="91.1"/>
		<circle class="st36" cx="64.3" cy="9.7" r="1.2"/>
		<circle class="st36" cx="77.9" cy="17.6" r="1.2"/>
		<path class="st36" d="M87.4,28.5c0.6-0.3,1.3-0.1,1.7,0.5c0.3,0.6,0.1,1.3-0.5,1.7c-0.6,0.3-1.3,0.1-1.7-0.5    C86.6,29.6,86.8,28.8,87.4,28.5z"/>
		<path class="st36" d="M93.1,43.1c0.7-0.1,1.3,0.3,1.4,1c0.1,0.7-0.3,1.3-1,1.4c-0.7,0.1-1.3-0.3-1.4-1    C92,43.8,92.5,43.2,93.1,43.1z"/>
		<path class="st36" d="M93.6,58.8c0.7,0.1,1.1,0.8,1,1.4c-0.1,0.7-0.8,1.1-1.4,1c-0.7-0.1-1.1-0.8-1-1.4    C92.3,59.1,92.9,58.6,93.6,58.8z"/>
		<path class="st36" d="M88.6,73.6c0.6,0.3,0.8,1.1,0.5,1.7c-0.3,0.6-1.1,0.8-1.7,0.5c-0.6-0.3-0.8-1.1-0.5-1.7    C87.3,73.5,88,73.3,88.6,73.6z"/>
		<circle class="st36" cx="19.9" cy="17.6" r="1.2"/>
		<path class="st36" d="M78.9,85.9c0.4,0.5,0.4,1.3-0.2,1.7c-0.5,0.4-1.3,0.4-1.7-0.2c-0.4-0.5-0.4-1.3,0.2-1.7    C77.6,85.3,78.4,85.4,78.9,85.9z"/>
		<circle class="st36" cx="33.5" cy="9.7" r="1.2"/>
		<path class="st36" d="M65.5,94.1c0.2,0.6-0.1,1.3-0.7,1.6c-0.6,0.2-1.3-0.1-1.6-0.7c-0.2-0.6,0.1-1.3,0.7-1.6    C64.6,93.1,65.3,93.5,65.5,94.1z"/>
		<circle class="st36" cx="48.9" cy="7" r="1.2"/>
	</g>
</g>
<g id="Layer_7">
</g>
<g id="Layer_9" class="st84">
</g>
<g id="Layer_9_copy_4">
</g>
<g id="Layer_9_copy">
</g>
<g id="Layer_9_copy_2">
</g>
<g id="Layer_9_copy_3">
</g>
<g id="Layer_10">
</g>
</svg>