<svg xmlns="http://www.w3.org/2000/svg" xmlns:xlink="http://www.w3.org/1999/xlink" version="1.1" x="0px" y="0px" viewBox="0 0 100 100" style="enable-background:new 0 0 100 100;" xml:space="preserve" width="300"  height="300" >
<style type="text/css">
	.st0{opacity:0.2;fill:#D2D2D2;}
	.st1{fill:none;stroke:#F4F4F4;stroke-width:1.2;stroke-linecap:round;stroke-linejoin:round;stroke-miterlimit:10;}
	.st2{fill:none;stroke:#4C4C4C;stroke-width:1.2;stroke-linecap:round;stroke-linejoin:round;stroke-miterlimit:10;}
	.st3{fill:#F4F4F4;stroke:#0CD8D5;stroke-width:1.2;stroke-linecap:round;stroke-linejoin:round;stroke-miterlimit:10;}
	.st4{fill:#0CD8D5;stroke:#0CD8D5;stroke-width:1.2;stroke-miterlimit:10;}
	.st5{fill:none;stroke:#FFFFFF;stroke-width:1.2;stroke-linecap:round;stroke-linejoin:round;stroke-miterlimit:10;}
	.st6{fill:none;stroke:#0CD8D5;stroke-width:1.2;stroke-linecap:round;stroke-linejoin:round;stroke-miterlimit:10;}
	.st7{fill:none;stroke:#1E1E1E;stroke-width:1.2;stroke-linecap:round;stroke-linejoin:round;stroke-miterlimit:10;}
	.st8{fill:#F4F4F4;}
	.st9{fill:#D2D2D2;}
	.st10{fill:#FFFFFF;}
	.st11{fill:none;stroke:#4C4C4C;stroke-linecap:round;stroke-linejoin:round;stroke-miterlimit:10;}
	.st12{fill:none;stroke:#1E1E1E;stroke-width:1.2;stroke-linecap:round;stroke-linejoin:round;}
	.st13{fill:none;stroke:#1E1E1E;stroke-width:1.2;stroke-linecap:round;stroke-linejoin:round;stroke-dasharray:5.1954,1.5586;}
	
		.st14{fill:none;stroke:#1E1E1E;stroke-width:1.2;stroke-linecap:round;stroke-linejoin:round;stroke-dasharray:15.5863,1.0391,5.1954,1.5586;}
	.st15{fill:none;stroke:#4C4C4C;stroke-width:1.2;stroke-linecap:round;stroke-linejoin:round;}
	.st16{fill:none;stroke:#4C4C4C;stroke-width:1.2;stroke-linecap:round;stroke-linejoin:round;stroke-dasharray:18.9751,5.6925;}
	.st17{fill:none;stroke:#4C4C4C;stroke-width:1.2;stroke-linecap:round;stroke-linejoin:round;stroke-dasharray:3.1646,2.2152;}
	.st18{fill:none;stroke:#4C4C4C;stroke-width:1.2;stroke-linecap:round;stroke-linejoin:round;stroke-dasharray:14.9273,4.4782;}
	.st19{fill:#F4F4F4;stroke:#4C4C4C;stroke-width:1.2;stroke-linecap:round;stroke-linejoin:round;stroke-miterlimit:10;}
	.st20{fill:#FFFFFF;stroke:#4C4C4C;stroke-width:1.2;stroke-linecap:round;stroke-linejoin:round;stroke-miterlimit:10;}
	.st21{fill:none;stroke:#4C4C4C;stroke-width:1.2;stroke-linecap:round;stroke-linejoin:round;stroke-dasharray:29.3301,5.866;}
	
		.st22{fill:none;stroke:#2CB879;stroke-width:1.2;stroke-linecap:round;stroke-linejoin:round;stroke-miterlimit:10;stroke-dasharray:30,6,10,7;}
	.st23{fill:none;stroke:#FD5459;stroke-width:1.2;stroke-linecap:round;stroke-linejoin:round;stroke-miterlimit:10;}
	
		.st24{fill:none;stroke:#FD5459;stroke-width:1.2;stroke-linecap:round;stroke-linejoin:round;stroke-miterlimit:10;stroke-dasharray:30,6,10,7;}
	.st25{fill:none;stroke:#4C4C4C;stroke-width:1.0842;stroke-linecap:round;stroke-linejoin:round;stroke-miterlimit:10;}
	.st26{fill:#4C4C4C;stroke:#4C4C4C;stroke-width:1.0842;stroke-linecap:round;stroke-linejoin:round;stroke-miterlimit:10;}
	.st27{fill:none;stroke:#4C4C4C;stroke-width:1.0115;stroke-linecap:round;stroke-linejoin:round;stroke-miterlimit:10;}
	.st28{fill:#4C4C4C;stroke:#4C4C4C;stroke-width:1.2;stroke-linecap:round;stroke-linejoin:round;stroke-miterlimit:10;}
	.st29{fill:#FF2F63;stroke:#4C4C4C;stroke-width:1.2;stroke-linecap:round;stroke-linejoin:round;stroke-miterlimit:10;}
	.st30{fill:#F0E462;}
	
		.st31{fill:none;stroke:#4C4C4C;stroke-width:1.2;stroke-linecap:round;stroke-linejoin:round;stroke-miterlimit:10;stroke-dasharray:30,6,10,2;}
	
		.st32{fill:#F4F4F4;stroke:#FD5459;stroke-width:1.2;stroke-linecap:round;stroke-linejoin:round;stroke-miterlimit:10;stroke-dasharray:30,4;}
	
		.st33{fill:none;stroke:#4C4C4C;stroke-width:1.2;stroke-linecap:round;stroke-linejoin:round;stroke-miterlimit:10;stroke-dasharray:30,6;}
	.st34{fill:#D2D2D2;stroke:#4C4C4C;stroke-width:1.2;stroke-linecap:round;stroke-linejoin:round;stroke-miterlimit:10;}
	.st35{fill:#F4F4F4;stroke:#FD5459;stroke-width:1.2;stroke-linecap:round;stroke-linejoin:round;stroke-miterlimit:10;}
	.st36{fill:#4C4C4C;}
	.st37{fill:none;stroke:#4C4C4C;stroke-width:1.2;stroke-linecap:round;stroke-linejoin:round;stroke-dasharray:48.279,5.7935;}
	
		.st38{fill:none;stroke:#4C4C4C;stroke-width:1.2;stroke-linecap:round;stroke-linejoin:round;stroke-miterlimit:10;stroke-dasharray:50,6;}
	
		.st39{fill:#D2D2D2;stroke:#4C4C4C;stroke-width:1.2;stroke-linecap:round;stroke-linejoin:round;stroke-miterlimit:10;stroke-dasharray:50,6;}
	
		.st40{fill:#F4F4F4;stroke:#4C4C4C;stroke-width:1.2;stroke-linecap:round;stroke-linejoin:round;stroke-miterlimit:10;stroke-dasharray:50,6;}
	
		.st41{fill:#FFFFFF;stroke:#4C4C4C;stroke-width:1.2;stroke-linecap:round;stroke-linejoin:round;stroke-miterlimit:10;stroke-dasharray:30,6;}
	.st42{fill:#F4F4F4;stroke:#4C4C4C;stroke-width:1.2;stroke-miterlimit:10;}
	.st43{fill:#2CB879;stroke:#2CB879;stroke-width:1.2;stroke-miterlimit:10;}
	.st44{fill:#0CD8D5;stroke:#4C4C4C;stroke-width:1.2;stroke-linecap:round;stroke-linejoin:round;stroke-miterlimit:10;}
	
		.st45{fill:#0CD8D5;stroke:#4C4C4C;stroke-width:1.2;stroke-linecap:round;stroke-linejoin:round;stroke-miterlimit:10;stroke-dasharray:30,6;}
	.st46{fill:none;stroke:#0CD8D5;stroke-width:200;stroke-linecap:round;stroke-linejoin:round;stroke-miterlimit:10;}
	.st47{fill:none;stroke:#F0E462;stroke-width:214.4015;stroke-linecap:round;stroke-linejoin:round;stroke-miterlimit:10;}
	.st48{fill:none;stroke:#F4F4F4;stroke-width:171.5212;stroke-linecap:round;stroke-linejoin:round;stroke-miterlimit:10;}
	.st49{fill:none;stroke:#F0E462;stroke-width:85.7606;stroke-linecap:round;stroke-linejoin:round;stroke-miterlimit:10;}
	.st50{fill:none;stroke:#F4F4F4;stroke-width:42.8803;stroke-linecap:round;stroke-linejoin:round;stroke-miterlimit:10;}
	.st51{fill:none;stroke:#F0E462;stroke-width:500;stroke-linecap:round;stroke-linejoin:round;stroke-miterlimit:10;}
	.st52{fill:none;stroke:#F4F4F4;stroke-width:400;stroke-linecap:round;stroke-linejoin:round;stroke-miterlimit:10;}
	.st53{fill:none;stroke:#F0E462;stroke-width:200;stroke-linecap:round;stroke-linejoin:round;stroke-miterlimit:10;}
	.st54{fill:none;stroke:#F4F4F4;stroke-width:100;stroke-linecap:round;stroke-linejoin:round;stroke-miterlimit:10;}
	.st55{fill:none;stroke:#0CD8D5;stroke-width:220;stroke-linecap:round;stroke-linejoin:round;stroke-miterlimit:10;}
	.st56{fill:none;stroke:#FFFFFF;stroke-width:200;stroke-linecap:round;stroke-linejoin:round;stroke-miterlimit:10;}
	.st57{fill:none;stroke:#FF2F63;stroke-width:100;stroke-linecap:round;stroke-linejoin:round;stroke-miterlimit:10;}
	.st58{fill:none;stroke:#FF2F63;stroke-width:60;stroke-linecap:round;stroke-linejoin:round;stroke-miterlimit:10;}
	.st59{fill:none;stroke:#0CD8D5;stroke-width:50;stroke-linecap:round;stroke-linejoin:round;stroke-miterlimit:10;}
	.st60{fill:none;stroke:#F4F4F4;stroke-width:200;stroke-linecap:round;stroke-linejoin:round;stroke-miterlimit:10;}
	.st61{fill:none;stroke:#F4F4F4;stroke-width:180;stroke-linecap:round;stroke-linejoin:round;stroke-miterlimit:10;}
	.st62{fill:none;stroke:#FF2F63;stroke-width:200;stroke-linecap:round;stroke-linejoin:round;stroke-miterlimit:10;}
	.st63{fill:none;stroke:#FF2F63;stroke-width:50;stroke-linecap:round;stroke-linejoin:round;stroke-miterlimit:10;}
	.st64{fill:none;stroke:#F0E462;stroke-width:100;stroke-linecap:round;stroke-linejoin:round;stroke-miterlimit:10;}
	.st65{fill:none;stroke:#F0E462;stroke-width:50;stroke-linecap:round;stroke-linejoin:round;stroke-miterlimit:10;}
	.st66{fill:none;stroke:#0CD8D5;stroke-width:5;stroke-linecap:round;stroke-linejoin:round;stroke-miterlimit:10;}
	.st67{fill:#0CD8D5;}
	.st68{fill:none;stroke:#0CD8D5;stroke-width:180;stroke-linecap:round;stroke-linejoin:round;stroke-miterlimit:10;}
	.st69{fill:none;stroke:#0CD8D5;stroke-width:150;stroke-linecap:round;stroke-linejoin:round;stroke-miterlimit:10;}
	.st70{fill:none;stroke:#F4F4F4;stroke-width:122;stroke-linecap:round;stroke-linejoin:round;stroke-miterlimit:10;}
	.st71{fill:none;stroke:#0CD8D5;stroke-width:45;stroke-linecap:round;stroke-linejoin:round;stroke-miterlimit:10;}
	.st72{fill:none;stroke:#F4F4F4;stroke-width:360;stroke-linecap:round;stroke-linejoin:round;stroke-miterlimit:10;}
	.st73{fill:none;stroke:#FF2F63;stroke-width:90;stroke-linecap:round;stroke-linejoin:round;stroke-miterlimit:10;}
	.st74{fill:none;stroke:#FF2F63;stroke-width:180;stroke-linecap:round;stroke-linejoin:round;stroke-miterlimit:10;}
	.st75{fill:none;stroke:#FF2F63;stroke-width:45;stroke-linecap:round;stroke-linejoin:round;stroke-miterlimit:10;}
	.st76{fill:none;stroke:#F4F4F4;stroke-width:90;stroke-linecap:round;stroke-linejoin:round;stroke-miterlimit:10;}
	.st77{fill:none;stroke:#0CD8D5;stroke-width:99;stroke-linecap:round;stroke-linejoin:round;stroke-miterlimit:10;}
	.st78{fill:none;stroke:#0CD8D5;stroke-width:60;stroke-linecap:round;stroke-linejoin:round;stroke-miterlimit:10;}
	.st79{fill:none;stroke:#F0E462;stroke-width:180;stroke-linecap:round;stroke-linejoin:round;stroke-miterlimit:10;}
	.st80{fill:none;stroke:#F0E462;stroke-width:150;stroke-linecap:round;stroke-linejoin:round;stroke-miterlimit:10;}
	.st81{fill:none;stroke:#0CD8D5;stroke-width:90;stroke-linecap:round;stroke-linejoin:round;stroke-miterlimit:10;}
	.st82{fill:none;stroke:#F0E462;stroke-width:99;stroke-linecap:round;stroke-linejoin:round;stroke-miterlimit:10;}
	.st83{fill:#FD5459;}
	.st84{display:none;}
	.st85{display:inline;}
	.st86{clip-path:url(#SVGID_00000167357042946325230000000011063245902342794431_);}
	.st87{fill:none;stroke:#0CD8D5;stroke-width:3;stroke-linecap:round;stroke-linejoin:round;stroke-miterlimit:10;}
	.st88{opacity:0.1;fill:#FFFFFF;}
	.st89{fill:#FFFFFF;stroke:#4C4C4C;stroke-miterlimit:10;}
	.st90{fill:#FD5459;stroke:#4C4C4C;stroke-miterlimit:10;}
	.st91{fill:#F4F4F4;stroke:#4C4C4C;stroke-miterlimit:10;}
	.st92{enable-background:new    ;}
	.st93{fill:#1E1E1E;}
	.st94{opacity:0.25;}
	.st95{clip-path:url(#SVGID_00000129201156851938823780000017780670490539531948_);}
	.st96{fill:none;stroke:#0CD8D5;stroke-width:2;stroke-linecap:round;stroke-linejoin:round;stroke-miterlimit:10;}
	.st97{clip-path:url(#SVGID_00000047059576665392671490000002533877718548557443_);}
	.st98{fill:none;stroke:#0CD8D5;stroke-linecap:round;stroke-linejoin:round;stroke-miterlimit:10;}
	.st99{opacity:0.15;}
	.st100{clip-path:url(#SVGID_00000117667098551665290110000016873497228523450775_);}
	.st101{fill:none;stroke:#0CD8D5;stroke-width:0.5;stroke-linecap:round;stroke-linejoin:round;stroke-miterlimit:10;}
	.st102{fill:#F4F4F4;stroke:#4C4C4C;stroke-linecap:round;stroke-linejoin:round;stroke-miterlimit:10;}
	.st103{opacity:5.000000e-02;fill:#0CD8D5;}
	.st104{fill:#FFFFFF;stroke:#4C4C4C;stroke-linecap:round;stroke-linejoin:round;stroke-miterlimit:10;}
	.st105{fill:none;stroke:#0CD8D5;stroke-miterlimit:10;}
	.st106{fill:none;stroke:#4C4C4C;stroke-miterlimit:10;}
	.st107{fill:#F0E462;stroke:#4C4C4C;stroke-miterlimit:10;}
</style>
<g id="Layer_4">
</g>
<g id="Layer_1">
</g>
<g id="Layer_1_copy">
</g>
<g id="Layer_6">
</g>
<g id="Layer_2">
</g>
<g id="Layer_8">
</g>
<g id="Layer_5">
</g>
<g id="Layer_7">
	<g>
		<path class="st45" d="M58.4,55.2H41.6c-0.4,0-0.8-0.3-0.8-0.8V43.6c0-0.4,0.3-0.8,0.8-0.8h16.7c0.4,0,0.8,0.3,0.8,0.8v10.8    C59.1,54.8,58.8,55.2,58.4,55.2z"/>
		<path class="st2" d="M61.6,55.2L61.6,55.2c0,1.1-0.9,2-2,2H40.4c-1.1,0-2-0.9-2-2"/>
	</g>
	<g>
		<path class="st33" d="M26.9,23.7H10.2c-0.4,0-0.8-0.3-0.8-0.8V12.2c0-0.4,0.3-0.8,0.8-0.8h16.7c0.4,0,0.8,0.3,0.8,0.8V23    C27.7,23.4,27.4,23.7,26.9,23.7z"/>
		<path class="st2" d="M30.1,23.7L30.1,23.7c0,1.1-0.9,2-2,2H9c-1.1,0-2-0.9-2-2"/>
	</g>
	<g>
		<path class="st33" d="M26.9,55.2H10.2c-0.4,0-0.8-0.3-0.8-0.8V43.6c0-0.4,0.3-0.8,0.8-0.8h16.7c0.4,0,0.8,0.3,0.8,0.8v10.8    C27.7,54.8,27.4,55.2,26.9,55.2z"/>
		<path class="st2" d="M30.1,55.2L30.1,55.2c0,1.1-0.9,2-2,2H9c-1.1,0-2-0.9-2-2"/>
	</g>
	<g>
		<path class="st33" d="M89.8,86.6H73.1c-0.4,0-0.8-0.3-0.8-0.8V75c0-0.4,0.3-0.8,0.8-0.8h16.7c0.4,0,0.8,0.3,0.8,0.8v10.8    C90.6,86.3,90.2,86.6,89.8,86.6z"/>
		<path class="st2" d="M93,86.6L93,86.6c0,1.1-0.9,2-2,2H71.9c-1.1,0-2-0.9-2-2"/>
	</g>
	<g>
		<path class="st39" d="M54.7,27.2h-9.4c-0.9,0-1.7-0.8-1.7-1.7V11.7c0-0.9,0.8-1.7,1.7-1.7h9.4c0.9,0,1.7,0.8,1.7,1.7v13.8    C56.4,26.4,55.7,27.2,54.7,27.2z"/>
		<line class="st2" x1="48.6" y1="24.5" x2="51.4" y2="24.5"/>
	</g>
	<g>
		<path class="st2" d="M54.7,90h-9.4c-0.9,0-1.7-0.8-1.7-1.7V74.6c0-0.9,0.8-1.7,1.7-1.7h9.4c0.9,0,1.7,0.8,1.7,1.7v13.8    C56.4,89.3,55.7,90,54.7,90z"/>
		<line class="st2" x1="48.6" y1="87.4" x2="51.4" y2="87.4"/>
	</g>
	<g>
		<path class="st44" d="M23.3,90h-9.4c-0.9,0-1.7-0.8-1.7-1.7V74.6c0-0.9,0.8-1.7,1.7-1.7h9.4c0.9,0,1.7,0.8,1.7,1.7v13.8    C25,89.3,24.2,90,23.3,90z"/>
		<line class="st2" x1="17.2" y1="87.4" x2="20" y2="87.4"/>
	</g>
	<line class="st2" x1="34.3" y1="62.6" x2="34.3" y2="37.4"/>
	<line class="st2" x1="34.3" y1="94" x2="34.3" y2="68.9"/>
	<line class="st2" x1="34.3" y1="31.1" x2="34.3" y2="6"/>
	<line class="st2" x1="65.7" y1="31.1" x2="65.7" y2="6"/>
	<line class="st2" x1="65.7" y1="94" x2="65.7" y2="68.9"/>
	<line class="st2" x1="65.7" y1="62.6" x2="65.7" y2="37.4"/>
	<line class="st2" x1="62.6" y1="34.3" x2="37.4" y2="34.3"/>
	<line class="st2" x1="31.1" y1="34.3" x2="6" y2="34.3"/>
	<line class="st2" x1="94" y1="34.3" x2="68.9" y2="34.3"/>
	<line class="st2" x1="62.6" y1="65.7" x2="37.4" y2="65.7"/>
	<line class="st2" x1="31.1" y1="65.7" x2="6" y2="65.7"/>
	<line class="st2" x1="94" y1="65.7" x2="68.9" y2="65.7"/>
	<g>
		<path class="st39" d="M86.2,62.6h-9.6c-0.6,0-1-0.5-1-1V39.8c0-0.6,0.5-1,1-1h9.6c0.6,0,1,0.5,1,1v21.7    C87.3,62.1,86.8,62.6,86.2,62.6z"/>
		<line class="st2" x1="79" y1="59.1" x2="83.8" y2="59.1"/>
		<circle class="st2" cx="81.4" cy="43.5" r="1.3"/>
	</g>
	<g>
		<path class="st2" d="M86.2,30.5h-9.6c-0.6,0-1-0.5-1-1V7.7c0-0.6,0.5-1,1-1h9.6c0.6,0,1,0.5,1,1v21.7C87.3,30,86.8,30.5,86.2,30.5    z"/>
		<line class="st2" x1="79" y1="27" x2="83.8" y2="27"/>
		<circle class="st2" cx="81.4" cy="11.4" r="1.3"/>
	</g>
</g>
<g id="Layer_9" class="st84">
</g>
<g id="Layer_9_copy_4">
</g>
<g id="Layer_9_copy">
</g>
<g id="Layer_9_copy_2">
</g>
<g id="Layer_9_copy_3">
</g>
<g id="Layer_10">
</g>
</svg>