<?xml version="1.0" encoding="UTF-8"?><svg id="Layer_2" xmlns="http://www.w3.org/2000/svg" viewBox="0 0 59.62 114.72"><defs><style>.cls-1{fill:#4d4d4d;}</style></defs><g id="Layer_1-2"><path class="cls-1" d="M17.71,114.72c-.02-.41-.06-.82-.06-1.23,0-16.61-.01-33.23,.02-49.84,0-1.02-.25-1.3-1.28-1.29-5.11,.06-10.23,0-15.34,.04-.81,0-1.06-.15-1.06-1.02,.04-6.12,.04-12.25,0-18.37,0-.84,.2-1.06,1.04-1.05,5.19,.04,10.38,0,15.57,.04,.82,0,1.07-.18,1.07-1.04-.02-5.45-.13-10.91,.09-16.35,.26-6.46,2.16-12.39,6.73-17.2,3.45-3.64,7.76-5.7,12.61-6.73C41.17-.17,45.27-.04,49.37,.12c3.06,.12,6.1,.42,9.16,.57,.87,.04,1.09,.33,1.09,1.19-.04,5.41-.04,10.83,0,16.24,0,.81-.23,.95-.99,.96-4.07,.04-8.14-.19-12.2,.15-4.8,.4-7.48,3.01-7.63,7.81-.14,4.74-.04,9.48-.11,14.22-.01,.87,.48,.74,.99,.74,6.01,0,12.02,.02,18.03-.02,.96,0,1.16,.2,1.03,1.16-.82,6.06-1.59,12.13-2.33,18.2-.11,.9-.46,1.1-1.34,1.09-5.11-.05-10.23-.01-15.34-.04-.71,0-1.05,.08-1.04,.94,.03,16.95,.02,33.9,.02,50.85,0,.18,.04,.37,.06,.55H17.71Z"/></g></svg>