<?xml version="1.0" encoding="UTF-8"?><svg id="Layer_2" xmlns="http://www.w3.org/2000/svg" viewBox="0 0 409.13 409.05"><defs><style>.cls-1{fill:#4d4d4d;}</style></defs><g id="Layer_1-2"><path class="cls-1" d="M0,104.16c1.25,.8,1.01,1.6,0,2.39v-2.39Z"/><path class="cls-1" d="M0,303.7c1.02,.53,1.16,1.06,0,1.6v-1.6Z"/><path class="cls-1" d="M104.56,409.05c.24-.88,.91-.76,1.56-.67,.29,.13,.39,.28,.3,.43-.09,.16-.17,.24-.26,.24h-1.6Z"/><path class="cls-1" d="M106.16,409.05c0-.22-.02-.45-.04-.67,.69-.13,1.31-.08,1.64,.67h-1.6Z"/><path class="cls-1" d="M300.91,409.05c.33-.76,.95-.8,1.63-.68,.23,.16,.3,.32,.22,.46-.09,.14-.17,.21-.25,.21h-1.6Z"/><path class="cls-1" d="M302.5,409.05c0-.23,.01-.45,.04-.68,.66-.09,1.33-.22,1.56,.68h-1.6Z"/><path class="cls-1" d="M409,108.43c0-5.83-.14-11.71-1.3-17.45-3.61-17.75-10.65-34.02-22.1-48.12C363.22,15.27,334.61,.05,298.63,.02c-63.45-.04-126.9-.01-190.35-.01-3.99,0-7.97,.23-11.92,.64-12.04,1.26-23.31,5.04-34.14,10.4C35.86,24.09,17.63,44.52,6.57,71.6,2.82,80.78,1.01,90.37,0,100.17v3.99c.6,.8,.6,1.6,0,2.39v197.14c.5,.53,.5,1.06,0,1.6v3.99c1.23,3.81,.65,7.84,1.6,11.73,2.18,8.94,5.09,17.56,9.19,25.83,13.11,26.45,33.62,44.7,60.87,55.67,9.05,3.64,18.49,5.46,28.12,6.54h4.79c.44-.49,1.03-.39,1.6-.41,.56,.02,1.16-.08,1.6,.41h193.15c.44-.49,1.03-.39,1.6-.41,.56,.02,1.16-.08,1.6,.41h3.19c4.01-.97,8.18-.42,12.19-1.3,26.85-5.89,49.08-19.32,66.03-41.04,15.73-20.16,23.72-42.92,23.62-68.74-.27-63.18-.06-126.37-.13-189.55Zm-24.43,186.49c-.01,19.39-4.96,37.31-16.52,53.06-18,24.52-42.48,36.82-72.75,36.93-60.65,.22-121.31,.19-181.97,.03-43.1-.12-77.67-27.94-87.26-69.83-1.52-6.63-1.98-13.42-1.98-20.2-.03-60.12-.06-120.25,0-180.37,.03-39.61,22.51-71.77,59.51-85.22,9.72-3.53,19.87-4.81,30.15-4.81,60.39-.05,120.78-.1,181.17,0,43.32,.07,78.04,27.81,87.66,69.85,1.55,6.76,1.98,13.68,1.99,20.6,.04,30.06,.02,60.12,.02,90.19s.02,59.86,0,89.79Z"/><path class="cls-1" d="M204.3,92.71c-61.67,.05-111.41,49.68-111.99,111.74-.57,61.33,49.82,111.92,111.84,112.29,61.48,.36,112.03-50.08,112.19-111.94,.15-61.61-50.36-112.14-112.04-112.09Zm-.35,199.89c-48.64-.34-87.91-39.99-87.49-88.35,.42-48.51,39.74-87.54,88.05-87.39,48.56,.15,87.94,39.74,87.69,88.15-.25,48.59-39.88,87.93-88.25,87.59Z"/><path class="cls-1" d="M324.87,52.14c-18.61-1.4-34.79,13.04-35.69,32.82-.78,17.21,11.97,33.99,32.89,34.92,17.75,.79,33.71-13.05,34.87-32.11,1.12-18.39-12.86-34.18-32.08-35.62Zm-1.78,43.69c-5.19-.02-9.88-4.75-9.86-9.94,.02-5.28,4.6-9.79,9.93-9.77,5.39,.01,9.79,4.45,9.78,9.85-.02,5.32-4.57,9.89-9.84,9.86Z"/></g></svg>