<?xml version="1.0" encoding="UTF-8"?><svg id="Layer_2" xmlns="http://www.w3.org/2000/svg" viewBox="0 0 362.23 346.33"><defs><style>.cls-1{fill:#4d4d4d;}</style></defs><g id="Layer_1-2"><g><path class="cls-1" d="M202.84,146.39c10.25-12.77,21.6-22.45,34.86-29.99,34.69-19.72,96.68-9.71,116.32,45.44,5.89,16.55,8.1,33.63,8.13,51.05,.07,43.24,0,86.48,.09,129.71,0,2.99-.78,3.73-3.73,3.71-23.38-.13-46.75-.13-70.13,0-3.11,.02-3.92-.69-3.91-3.87,.12-39.72,.08-79.44,.08-119.16,0-8.82-.63-17.56-2.95-26.12-7.41-27.4-37.34-38.04-60.29-21.15-11.15,8.2-17.99,19.26-18.2,33.49-.28,18.22-.23,36.45-.25,54.67-.04,26.14-.06,52.29,.06,78.43,.01,3.03-.87,3.7-3.77,3.69-23.38-.12-46.75-.11-70.13-.01-2.75,.01-3.84-.39-3.83-3.58,.1-75.54,.1-151.08,.02-226.62,0-2.82,.67-3.55,3.52-3.54,23.5,.13,47,.13,70.51,0,3.08-.02,3.74,.91,3.69,3.79-.17,9.65-.07,19.3-.07,30.04Z"/><path class="cls-1" d="M4.68,229.45c0-37.58,.04-75.15-.07-112.73,0-3.08,.41-4.24,3.97-4.21,23.37,.2,46.75,.17,70.12,.02,3.08-.02,3.67,.91,3.67,3.78-.08,75.4-.08,150.81,0,226.21,0,2.83-.52,3.83-3.64,3.81-23.5-.15-47-.15-70.5,0-3.11,.02-3.61-.98-3.61-3.78,.09-37.7,.06-75.4,.06-113.11Z"/><path class="cls-1" d="M87.3,40.67c0,20.25-14.54,36.61-34.87,39.41-13.83,1.9-26.95,.3-38.02-8.82C1.51,60.62-2.34,46.46,1.31,30.58,4.91,14.92,15.62,5.7,30.87,1.69c9.02-2.37,18.16-2.23,27.16,.27,17.86,4.96,29.28,20.12,29.27,38.7Z"/></g></g></svg>