<?xml version="1.0" encoding="UTF-8"?><svg id="Layer_2" xmlns="http://www.w3.org/2000/svg" viewBox="0 0 263.23 359.35"><defs><style>.cls-1{fill:#4d4d4d;}</style></defs><g id="Layer_1-2"><path class="cls-1" d="M261.13,106.34C249.31,45.06,194.63-.04,128.67,0c-8.32,.08-19.58,1.3-30.54,4.42C55.17,16.65,25.09,43.49,8.76,85.02-.76,109.25-3.14,134.26,4.72,159.66c4.83,15.6,11.14,30.59,18.57,45.1,27.41,53.54,62.08,102.29,98.91,149.6,5.5,7.07,14.18,6.5,19.98-.91,23.59-30.12,45.93-61.14,66.41-93.46,17.86-28.18,34.41-57.05,46.3-88.4,8.06-21.24,10.57-42.77,6.24-65.24Zm-129.35,61.27c-26.54-.07-47.96-21.58-47.87-48.09,.09-26.46,21.63-47.76,48.25-47.69,26.34,.07,47.65,21.81,47.5,48.46-.14,25.98-21.8,47.39-47.88,47.32Z"/></g></svg>