<?xml version="1.0" encoding="UTF-8"?><svg id="Layer_2" xmlns="http://www.w3.org/2000/svg" viewBox="0 0 206.85 355.84"><defs><style>.cls-1{fill:#4d4d4d;}</style></defs><g id="Layer_1-2"><path class="cls-1" d="M206.83,25.7c0-4.3-.69-8.49-2.68-12.41-3.79-7.47-10.21-11.29-18.02-13.28H20.72C6.1,4.97,.03,12.36,.03,25.7c-.03,101.44-.03,202.88,0,304.32,0,15.68,10.26,25.8,25.93,25.81,51.65,.02,103.29,.02,154.94,0,15.68,0,25.93-10.13,25.93-25.81,.03-101.44,.02-202.88,0-304.32Zm-127.35-8.36c8.1,.05,16.2,.02,24.3,.02s15.74,.03,23.61-.02c2.17-.01,4.2,.3,4.21,2.91,0,2.65-2.1,2.86-4.22,2.86-15.97-.02-31.94-.02-47.91,0-2.12,0-4.23-.22-4.21-2.87,.02-2.61,2.06-2.91,4.22-2.89Zm23.73,326.51c-6.58-.18-11.75-5.56-11.7-12.18,.05-6.57,5.43-11.92,11.96-11.89,6.69,.03,11.99,5.54,11.87,12.32-.12,6.54-5.67,11.92-12.13,11.75Zm83.42-32.42c-55.47-.09-110.93-.09-166.4,0-2.9,0-3.57-.73-3.57-3.6,.08-88.7,.08-177.4,0-266.09,0-2.85,.64-3.64,3.56-3.63,55.47,.09,110.93,.09,166.4,0,2.91,0,3.57,.76,3.57,3.62-.1,44.35-.07,88.7-.07,133.05s-.03,88.7,.07,133.05c0,2.86-.65,3.62-3.56,3.61Z"/></g></svg>