<?xml version="1.0" encoding="UTF-8"?><svg id="Layer_2" xmlns="http://www.w3.org/2000/svg" viewBox="0 0 340.99 341.2"><defs><style>.cls-1{fill:#2bde7a;}.cls-2{fill:#2bde79;}.cls-3{fill:#4de38f;}.cls-4{fill:#00d85f;}.cls-5{fill:#fefefe;}</style></defs><g id="Layer_1-2"><g><path class="cls-4" d="M168.27,0h3.99c1.28,.7,2.66,.16,3.99,.33,1.33-.17,2.71,.37,3.99-.33h3.33c4.91,.69,9.87,.66,14.8,1.11,10.45,.95,20.42,3.96,30.2,7.53,18.36,6.7,35.28,16.06,50.32,28.58,15.25,12.69,28.39,27.33,38.52,44.5,11.04,18.7,19.2,38.57,22.1,60.2,1.75,13.06,1.69,26.28,1.11,39.48-.34,7.86-.33,15.73-1.93,23.48-5.54,26.88-16.75,51.12-33.81,72.6-17.48,22-38.99,38.86-64.61,50.37-11.76,5.28-23.93,9.36-36.65,11.61-5.77,1.02-11.65,1.03-17.49,1.43-.86,.06-1.77-.28-2.56,.33h-3.99c-1.08-.68-2.27-.18-3.4-.33-1.3,.17-2.66-.37-3.92,.33h-3.99c-1.28-.7-2.66-.16-3.99-.33-1.33,.17-2.71-.37-3.99,.33h-3.99c-4.68-.74-9.42-.66-14.12-1.11-10.78-1.01-21.04-4.14-31.11-7.87-19.7-7.3-37.67-17.69-53.43-31.63-13.5-11.94-25.28-25.42-34.48-41.03-10.26-17.43-17.87-35.9-21.46-55.88-1-5.55-.96-11.23-1.37-16.85-.05-.75,.24-1.56-.33-2.24v-4c.7-1.28,.16-2.67,.33-4-.17-1.33,.37-2.72-.33-4v-4c.7-1.28,.16-2.67,.33-4-.17-1.33,.37-2.72-.33-4v-4c.74-4.69,.67-9.44,1.1-14.15,.98-10.69,4.06-20.88,7.74-30.87,6.61-17.92,15.69-34.5,27.87-49.24,14.96-18.12,32.51-33.12,53.47-44,14.94-7.75,30.5-13.67,47.08-16.64,5.65-1.01,11.42-1,17.15-1.38,.86-.06,1.77,.29,2.56-.33h3.33c1.28,.7,2.66,.16,3.99,.33,1.33-.17,2.71,.37,3.99-.33Z"/><path class="cls-3" d="M0,160.61c1.2,1.16,.46,2.62,.59,3.94-.15,.5-.34,.51-.59,.06v-4Z"/><path class="cls-2" d="M0,164.6c.2-.02,.39-.04,.59-.06,.07,1.39,.32,2.81-.59,4.05v-4Z"/><path class="cls-2" d="M0,172.6c.9,1.25,.64,2.67,.58,4.05-.24,.44-.43,.42-.58-.06v-4Z"/><path class="cls-3" d="M0,176.6c.19,.02,.39,.04,.58,.06-.11,1.33,.61,2.78-.58,3.94v-4Z"/><path class="cls-3" d="M160.29,341.2c1.16-1.2,2.61-.47,3.93-.59,.49,.15,.51,.35,.06,.59h-3.99Z"/><path class="cls-1" d="M164.28,341.2c-.01-.2-.03-.39-.06-.59,1.39-.06,2.8-.32,4.05,.59h-3.99Z"/><path class="cls-1" d="M172.27,341.2c1.25-.91,2.66-.64,4.05-.58,.44,.24,.42,.43-.05,.58h-3.99Z"/><path class="cls-3" d="M176.26,341.2c.01-.2,.03-.39,.05-.58,1.11,.07,2.34-.48,3.27,.58h-3.33Z"/><path class="cls-5" d="M149.48,96.08c32.2-.08,67.07,4.24,100.72,16.4,12.83,4.64,25.18,10.3,36.98,17.15,6.59,3.83,9.77,9.63,8.78,17.24-.91,7.02-5.07,11.68-11.79,13.85-5.44,1.76-10.43,.28-15.23-2.47-15.66-8.95-32.3-15.47-49.76-19.88-33.89-8.56-68.23-10.07-102.9-6.65-14.9,1.47-29.62,3.88-44.19,7.3-10.03,2.35-19.1-3.03-21.3-12.45-2.16-9.26,3.53-18.04,13.37-20.5,3.97-.99,7.98-1.83,11.99-2.65,23.08-4.71,46.42-6.96,73.32-7.35Z"/><path class="cls-5" d="M145.23,155.95c36.34,.24,68.94,5.28,99.72,19.39,5.32,2.44,10.54,5.17,15.62,8.08,6.83,3.9,9.19,11.72,5.82,18.32-3.47,6.79-11.3,9.62-18.43,6.04-8.61-4.31-17.09-8.86-26.19-12.09-16.68-5.93-33.85-9.52-51.46-11.03-28.71-2.45-57.08-.12-85.13,6.36-8.02,1.85-15.35-2.31-17.25-9.64-2.02-7.76,2.36-15.11,10.64-17.17,16.48-4.11,33.25-6.48,50.19-7.52,6.41-.39,12.83-.9,16.48-.73Z"/><path class="cls-5" d="M140.6,208.39c32.27-.12,59.58,4.44,85.46,16.09,4.83,2.17,9.57,4.62,14.15,7.28,5.5,3.19,7.27,9.91,4.39,15.32-2.89,5.44-9.5,7.96-15.08,5.06-10.53-5.47-21.26-10.33-32.69-13.61-22.54-6.46-45.52-7.85-68.76-6.24-12.27,.85-24.39,2.77-36.4,5.52-7.1,1.62-13.14-2.09-14.58-8.54-1.47-6.61,2.2-12.37,9.33-14.09,19.13-4.61,38.55-6.89,54.18-6.8Z"/></g></g></svg>