<?xml version="1.0" encoding="UTF-8"?><svg id="Layer_2" xmlns="http://www.w3.org/2000/svg" viewBox="0 0 407.63 331.81"><defs><style>.cls-1{fill:#4d4d4d;}</style></defs><g id="Layer_1-2"><path class="cls-1" d="M0,294.36c45.86,4.18,86.39-6.85,123.03-34.43-38.36-3.37-63.82-22.77-78.09-58.48,12.85,1.68,24.81,1.87,37.21-1.56-46.62-11.35-67.58-52.42-65.83-82.98,9.44,5.01,19.33,8.22,29.8,9.53,2.05,.26,4.13,.29,7.41,.51-18.49-13.38-30.1-30.12-34.84-51.31-4.72-21.13-1.36-41.1,9.25-60.32,45.28,53.38,102.55,82.81,172.74,87.53-2.3-12.08-2.67-23.72-.35-35.3C209.36,22.46,251.45-6.41,296.84,1.22c16.72,2.81,31.21,10.14,43.33,21.94,2.5,2.44,4.64,2.98,7.99,2.18,16.74-4.03,32.65-10.1,48.47-19.34-6.6,19.93-18.41,34.5-35.77,45.73,5.84-.06,10.89-1.25,15.91-2.48,5.15-1.26,10.29-2.58,15.34-4.18,5.02-1.59,9.91-3.54,15.52-5.57-6.05,9.3-12.72,17.25-20.01,24.68-5.87,5.98-12.15,11.53-18.96,16.44-1.74,1.26-2.52,2.61-2.45,4.95,1.49,52.23-13.02,99.9-41.8,143.25-25.66,38.66-59.9,67.23-102.82,85.11-23.09,9.62-47.23,15.01-72.15,17.03-29.97,2.43-59.46-.29-88.35-8.69-21.35-6.21-41.46-15.24-61.09-27.9Z"/></g></svg>