<?xml version="1.0" encoding="UTF-8"?><svg id="Layer_2" xmlns="http://www.w3.org/2000/svg" viewBox="0 0 360.38 426.82"><defs><style>.cls-1{fill:#4d4d4d;}.cls-2{fill:#fefefe;}</style></defs><g id="Layer_1-2"><g><path class="cls-1" d="M107.68,426.82c-.91-1.64-2.47-.8-3.7-.85-19.85-.74-39.66-2.08-59.4-4.25-18.88-2.08-34.3-17.06-38.58-36.87-3.68-17.04-5.27-34.32-5.55-51.67-.48-28.88-1.13-57.78,1.36-86.62,.86-9.96,2.19-19.86,4.43-29.61,4.98-21.64,21.16-34.77,44.14-36.8,71.54-6.33,143.18-4.67,214.82-3.13,16.5,.35,33,1.73,49.41,3.74,20.2,2.48,35.39,16.53,39.73,36.55,3.69,17.03,5.3,34.32,5.58,51.67,.47,29.3,1.16,58.62-1.42,87.87-.93,10.51-2.31,20.97-4.99,31.19-4.95,18.83-20.5,31.88-39.79,33.92-20.03,2.12-40.11,3.37-60.24,4.06-.84,.03-2.01-.57-2.46,.81h-2.5c-.82-.75-1.82-.31-2.74-.43-.78,0-1.56,0-2.35,0-.8,0-1.59,0-2.39,0-.8,0-1.6,0-2.4,0-1.15,.17-2.39-.4-3.46,.43h-5c-1.7-.91-3.53-.21-5.29-.43-1.64,0-3.29,0-4.93,0-1.97,0-3.94,0-5.91,0-7.4,.26-14.82-.53-22.21,.43h-22.5c-7.62-.99-15.28-.15-22.92-.43-1.73,0-3.45,0-5.18,0-1.66,0-3.32,0-4.98,0-2.02,.21-4.11-.48-6.09,.43h-5c-.84-.76-1.87-.3-2.8-.43-.99,0-1.99,0-2.98,0-.8,0-1.6,0-2.39,0-.79,0-1.58,0-2.37,0-.93,.13-1.95-.33-2.79,.43h-4.17Z"/><path class="cls-1" d="M48.56,.1c7.89,0,15.25,.18,22.6-.09,2.84-.11,3.41,1.25,3.99,3.42,5,18.73,10.06,37.44,15.11,56.16,.29,1.07,.64,2.11,1.25,4.13,1.64-6.13,3.08-11.42,4.47-16.73,3.77-14.47,7.58-28.94,11.22-43.44,.63-2.52,1.47-3.62,4.33-3.51,6.93,.26,13.87,.08,21.26,.08-3.54,11.75-7,23.23-10.47,34.7-5.97,19.74-11.95,39.48-17.96,59.21-.61,2.01-.89,4.02-.89,6.12,.04,19.58-.04,39.16,.09,58.74,.02,3.04-.45,4.4-3.96,4.19-5.67-.34-11.39-.24-17.07-.03-2.74,.1-3.47-.73-3.45-3.45,.13-15.28-.42-30.57,.2-45.82,.57-13.99-2.18-27.24-6.17-40.44-7.05-23.33-15.47-46.19-23.2-69.29-.39-1.17-.8-2.33-1.37-3.94Z"/><path class="cls-1" d="M257.39,150.34c-3.51,3.08-6.37,5.86-9.51,8.3-5.42,4.21-11.47,6.66-18.54,5.79-5.95-.73-10.02-4.06-11.58-9.79-1.17-4.31-1.62-8.74-1.63-13.19-.06-32.22-.03-64.44-.15-96.66,0-2.65,.76-3.27,3.26-3.17,5.13,.19,10.28,.23,15.41-.01,2.85-.14,3.37,.88,3.36,3.49-.09,28.61-.07,57.22-.03,85.83,0,3.05,.13,6.11,.49,9.13,.43,3.58,2.72,4.89,6.2,4.46,6.06-.76,12.71-8.25,12.71-14.34,0-28.05,.09-56.11-.11-84.16-.03-3.83,1.08-4.65,4.59-4.41,4.56,.31,9.18,.31,13.74,0,3.2-.22,3.82,.83,3.81,3.88-.12,31.53-.07,63.05-.07,94.58,0,6.67-.1,13.33,.05,20,.05,2.35-.59,3.08-2.99,3-5.41-.18-10.83-.15-16.24-.01-2.2,.06-2.94-.63-2.82-2.82,.17-3.04,.04-6.09,.04-9.87Z"/><path class="cls-2" d="M146.84,362.91c-4,4.07-7.38,7.52-11.49,10.1-5.44,3.42-11.17,5.42-17.74,3.97-5.12-1.13-8.38-4.19-9.83-9.09-1.26-4.27-1.7-8.72-1.7-13.17-.04-31.93-.02-63.87-.12-95.8,0-2.53,.56-3.35,3.18-3.23,4.85,.23,9.73,.26,14.57,0,3.17-.17,4.13,.65,4.11,4-.15,28.32-.08,56.65-.08,84.97,0,1.8-.04,3.61,.04,5.41,.12,2.64,.14,5.47,2.85,6.94,2.95,1.61,5.77,.4,8.18-1.29,5.02-3.52,8.32-7.57,8.21-14.62-.43-27.07-.09-54.15-.27-81.22-.02-3.58,.97-4.43,4.35-4.2,4.56,.31,9.17,.31,13.73,0,3.2-.22,3.83,.82,3.82,3.88-.12,29.99-.07,59.98-.07,89.97,0,7.78-.08,15.55,.05,23.33,.04,2.27-.47,3.17-2.94,3.08-5.41-.19-10.83-.13-16.24-.02-1.93,.04-2.74-.45-2.64-2.52,.15-3.17,.04-6.35,.04-10.49Z"/><path class="cls-2" d="M76.8,306.96c0,21.66-.09,43.32,.09,64.97,.03,3.41-1.01,4.17-4.16,4.02-5.12-.25-10.28-.29-15.4,0-3.63,.21-4.84-.63-4.83-4.61,.17-42.9,.04-85.8,.21-128.7,.02-4.28-.96-5.7-5.36-5.39-5.8,.41-11.66,0-17.48,.15-2.4,.06-3.07-.74-3.01-3.08,.15-5.69,.15-11.39,0-17.07-.06-2.24,.71-2.8,2.86-2.79,23.46,.07,46.92,.06,70.38,0,1.87,0,2.75,.37,2.71,2.49-.12,5.97-.12,11.94,0,17.91,.04,2.11-.8,2.54-2.69,2.52-6.66-.09-13.33,.11-19.99-.1-2.78-.09-3.41,.78-3.39,3.45,.11,22.07,.06,44.15,.06,66.22Z"/><path class="cls-1" d="M197.67,74.11c-.05-2.34-.46-4.69-.83-7.01-2.61-16.41-14.5-26.8-30.8-26.96-16.69-.16-28.7,9.81-31.75,26.34-2.18,11.84-.99,23.8-1.4,35.71,.4,12.32-.83,24.71,1.51,36.95,2.6,13.56,12.69,23.5,25.39,25.11,15.62,1.98,28.24-4.15,34.06-16.62,2.49-5.35,3.66-11.07,3.81-16.92,.47-18.86,.43-37.73,0-56.6Zm-23.26,64.18c-1.48,4.09-4.36,6.3-8.77,6.34-4.38,.04-7.36-2-8.95-6.08-1.07-2.75-1.56-5.59-1.56-8.53,0-9.29,0-18.59,0-27.88,0-9.29,0-18.59,0-27.88,0-3.09,.55-6.1,1.84-8.89,1.66-3.61,4.54-5.39,8.6-5.37,4.07,.02,6.91,1.87,8.51,5.5,1.35,3.07,1.87,6.38,1.88,9.73,.02,18.03,.01,36.07,0,54.1,0,3.07-.51,6.08-1.56,8.97Z"/><path class="cls-2" d="M250.15,272.58c-2.18-16.57-16.81-23.43-30.96-14.51-3.54,2.23-6.48,5.14-9.93,9.01v-5.07c0-14.44-.12-28.88,.09-43.32,.05-3.55-1.02-4.5-4.41-4.25-4.14,.3-8.35,.35-12.48,0-3.93-.35-5.06,.74-5.05,4.88,.16,50.54,.11,101.09,.11,151.64,0,.83,.06,1.67-.01,2.5-.14,1.67,.33,2.52,2.27,2.48,5.69-.11,11.39-.13,17.08,0,2.19,.05,2.52-.94,2.44-2.76-.11-2.65-.03-5.31-.03-8.84,4.43,5.05,8.44,8.84,13.63,11.16,12.18,5.45,23.56-.2,26.52-13.12,1.25-5.44,1.69-10.96,1.7-16.52,.02-19.72,0-39.44,.02-59.15,0-4.73-.37-9.42-.98-14.11Zm-20.79,71.89c0,1.24-.14,2.5-.39,3.71-.85,4.04-2.08,8.03-6.65,9.2-4.57,1.17-8.32-.95-11.78-3.8-1.43-1.18-1.28-2.62-1.28-4.13,0-11.38,0-22.75,0-34.13s0-21.92,0-32.88c0-4.08,2.63-6.87,7.68-8.17,4.58-1.18,8,0,10.08,3.59,1.63,2.82,2.33,5.94,2.34,9.16,.04,19.14,.03,38.29,0,57.43Z"/><path class="cls-2" d="M331.08,334.24c-5.69,.01-11.39,.13-17.08-.05-2.54-.08-2.98,.94-2.93,3.15,.09,3.47,.09,6.96-.22,10.41-.57,6.42-4.32,9.98-10.07,9.91-6.16-.07-10.14-4.31-10.52-12.06-.39-7.76-.13-15.55-.33-23.32-.06-2.44,1.1-2.65,3.03-2.63,6.25,.08,12.5,.03,18.75,.03,6.39,0,12.78-.06,19.16,.03,1.91,.03,2.71-.42,2.65-2.52-.34-11.37,.55-22.77-.82-34.13-1.69-13.98-9.59-24.02-21.86-27.52-13.43-3.82-27.27,.2-35.36,10.44-5.62,7.12-6.9,15.64-7.03,24.33-.2,13.47-.13,26.94-.14,40.41,0,6.66-.11,13.32,1.05,19.93,2.8,16.08,14.23,26.12,30.72,26.82,15.8,.67,28.33-8.13,32.17-22.76,1.6-6.11,1.08-12.41,1.27-18.65,.06-1.96-1.13-1.83-2.42-1.83Zm-40.09-52.35c1.51-5.35,4.74-8.03,9.67-8.11,4.96-.08,8.2,2.48,9.83,7.85,1.8,5.95,1.1,12.08,1.26,18.14,.05,1.88-1.11,1.9-2.45,1.88-2.77-.02-5.54,0-8.31,0-2.91,0-5.82-.05-8.72,.02-1.48,.04-2.38-.3-2.31-2.02,.25-5.93-.63-11.92,1.03-17.76Z"/></g></g></svg>