<?xml version="1.0"?>
<svg xmlns="http://www.w3.org/2000/svg" xmlns:xlink="http://www.w3.org/1999/xlink" xmlns:svgjs="http://svgjs.com/svgjs" version="1.1" width="512" height="512" x="0" y="0" viewBox="0 0 24 24" style="enable-background:new 0 0 512 512" xml:space="preserve"><g><path xmlns="http://www.w3.org/2000/svg" d="m16 22h-2v-2h-4v2h-2c-.552 0-1 .448-1 1s.448 1 1 1h8c.553 0 1-.448 1-1s-.447-1-1-1z" fill="#ffffff" data-original="#000000" style=""/><path xmlns="http://www.w3.org/2000/svg" d="m22.25 4h-.81c-.21.68-.49 1.35-.82 2h1.38v12h-20v-12h1.88c.1-.47.33-.9.68-1.25.27-.27.57-.53.9-.75h-3.71c-.96 0-1.75.79-1.75 1.75v12.5c0 .96.79 1.75 1.75 1.75h20.5c.96 0 1.75-.79 1.75-1.75v-12.5c0-.96-.79-1.75-1.75-1.75z" fill="#ffffff" data-original="#000000" style=""/><path xmlns="http://www.w3.org/2000/svg" d="m19.89.272c-.096-.096-.239-.151-.363-.146-2.827.053-6.125 1.703-8.219 4.1-2.265.08-4.156.763-5.335 1.942-.128.128-.177.315-.128.489.049.175.189.309.365.351l2.129.51-.013.014c-.178.197-.17.5.018.688l3.597 3.597c.097.098.225.146.354.146.12 0 .239-.042.334-.128l.014-.013.51 2.129c.042.176.176.316.351.365.045.013.09.019.136.019.131 0 .258-.051.354-.146 1.18-1.18 1.862-3.07 1.943-5.336 2.4-2.101 4.047-5.395 4.1-8.219.002-.135-.051-.266-.147-.362z" fill="#ffffff" data-original="#000000" style=""/><path xmlns="http://www.w3.org/2000/svg" d="m6.752 10.472c-.671.671-1.53 3.458-1.695 4.01-.053.176-.004.367.125.497.095.095.223.146.354.146.048 0 .096-.007.144-.021.552-.165 3.338-1.023 4.01-1.695.81-.81.81-2.127 0-2.938-.812-.81-2.129-.809-2.938.001z" fill="#ffffff" data-original="#000000" style=""/></g></svg>
