<?xml version="1.0" encoding="utf-8"?>
<!--Generator: Adobe Illustrator 23.0.1, SVG Export Plug-In . SVG Version: 6.00 Build 0)-->
<svg xmlns="http://www.w3.org/2000/svg" xmlns:xlink="http://www.w3.org/1999/xlink" id="Layer_1" x="0px" y="0px" style="enable-background:new 0 0 506.8 164.1" version="1.1" viewBox="0 0 506.8 164.1" xml:space="preserve">
    <style type="text/css">
        .st0{fill:#ffffff;} .st1{fill:#ffffff;}
    </style>
    <path d="M496.7,47.9c-7-7-15.6-10.2-25.4-10.2s-18.4,3.3-25.4,10.2c-7.1,7.2-10.2,16.2-10.2,26.2v53.8h14.1V75
	c0-6.4,1.7-12.3,6.3-17c8.1-8.4,21.4-8.6,29.8-0.6c0.2,0.2,0.4,0.4,0.6,0.6c4.5,4.7,6.3,10.6,6.3,17v52.9h14.1V74.1
	C506.8,64.1,503.9,55,496.7,47.9z" class="st0"/>
    <path d="M380.9,35.5c-25.7,0-46.5,20.8-46.5,46.5c0,25.7,20.8,46.5,46.5,46.5c25.7,0,46.5-20.8,46.5-46.5c0,0,0,0,0,0
	C427.3,56.3,406.5,35.6,380.9,35.5z M380.9,113.5c-17.4,0-31.5-14.1-31.5-31.5c0-17.4,14.1-31.5,31.5-31.5
	c17.4,0,31.5,14.1,31.5,31.5C412.4,99.4,398.3,113.5,380.9,113.5z" class="st0"/>
    <path d="M283.6,37.7c-11.5-0.2-22.5,4.5-30.3,13c-8.4,8.9-12.1,19.9-12.1,32.1s3.7,23.3,12.3,32.2
	c7.8,8.4,18.7,13.1,30.2,12.9c4.3,0.1,8.6-0.6,12.7-2v-14.8c-0.4,0.2-0.7,0.4-1.1,0.6c-3.6,1.7-7.6,2.5-11.6,2.4
	c-7.8,0-14.1-3.4-19.3-9c-6-6.3-8.6-13.7-8.6-22.3s2.6-16.1,8.6-22.3c5.3-5.5,11.6-9,19.3-9c7.8-0.2,15.2,3.1,20.1,9.1
	c5.4,6.1,8.3,14.1,8.1,22.2V164h14.1V82.9c0-12.3-3.7-23.3-12.3-32.2C306,42.2,295.1,37.5,283.6,37.7z" class="st0"/>
    <rect width="14.1" height="90.2" x="216.3" y="37.7" class="st0"/>
    <path d="M191.4,127.9h14.1V82.8c0-12.2-3.7-23.3-12.3-32.2c-7.8-8.4-18.8-13.1-30.2-12.9c-11.5-0.2-22.5,4.5-30.3,13
	c-8.4,8.9-12.2,19.9-12.2,32.1s3.7,23.3,12.3,32.2c7.8,8.4,18.7,13.1,30.2,12.9c4.3,0.1,8.6-0.6,12.7-2v-14.8
	c-0.3,0.2-0.7,0.4-1,0.5c-3.6,1.7-7.6,2.5-11.6,2.4c-7.8,0-14.1-3.4-19.4-9c-5.9-6.3-8.6-13.7-8.6-22.3s2.6-16.1,8.6-22.3
	c5.3-5.5,11.6-9,19.4-9c7.8-0.2,15.2,3.1,20.1,9.1c5.4,6.1,8.3,14,8.1,22.2V127.9z" class="st0"/>
    <path d="M12.5,45.8c-6.6,22.8,34.6,39.8,50.7,66.7c15.9,26.6-2.3,40.6-15.6,51.6c5.3-17.5-16-28.6-34.5-49
	C-5,95.2-3.5,67.9,12.5,45.8z" class="st0"/>
    <path d="M58.8,0c-8.1,28,48.2,39.5,47.9,80.8c-0.1,12.9-6.3,24.4-15.3,38.1c7.6-15.6-18.5-34.7-37.1-55
	C36.2,43.9,25.8,21.2,58.8,0z" class="st1"/>
</svg>
