<?xml version="1.0" encoding="utf-8"?>
<!-- Generator: Adobe Illustrator 23.0.3, SVG Export Plug-In . SVG Version: 6.00 Build 0)  -->
<svg version="1.1" id="Layer_1" xmlns="http://www.w3.org/2000/svg" xmlns:xlink="http://www.w3.org/1999/xlink" x="0px" y="0px"
	 viewBox="0 0 332.8 511.9" style="enable-background:new 0 0 332.8 511.9;" xml:space="preserve">
<style type="text/css">
	.st0{opacity:0.2;}
	.st1{fill:#FFFFFF;}
</style>
<title>aiqon-outline</title>
<g class="st0">
	<g id="Layer_1-2">
		<path class="st1" d="M29,187.7c12.9,29.8,43.6,56.7,75.4,84.6c30.3,26.6,61.7,54.1,80.7,85.8c10.3,17.1,16,33.3,17.1,48
			c1,12.2-1.4,24.5-6.9,35.5c-7.1,14.6-19,27.5-31.8,39.1c-6.7-30.6-34.4-56.2-65.2-84.6c-15.5-14.4-31.6-29.2-47.2-46.4
			c-24.7-27.1-37.5-60.3-37.2-96C14.2,231.7,19.3,209.3,29,187.7 M39,142.8c-50,69-54.6,154.2,1.8,216.2
			c57.7,63.6,124.2,98.3,107.6,152.9c41.5-34.3,98.3-78,48.7-161C146.9,267,18.4,214,39,142.8L39,142.8z"/>
		<path class="st1" d="M167.7,28.8c5.6,33.6,35.6,60.1,66.9,87.7c20.7,18.3,42.2,37.3,58.3,59.5c17.6,24.3,26.1,49.1,25.9,76
			c-0.1,17.1-4,34-12.3,53c-2.7,6.2-5.8,12.5-9.5,19.4c-13.1-30.1-44.3-61-76.7-93c-13.7-13.5-27.8-27.5-40.6-41.4
			c-17.6-19.5-30.1-36.8-38.2-53c-9.1-18.3-12.6-34.8-10.5-50.4c1.7-12.5,6.8-24.3,15.7-36C152.8,42.5,159.9,35.2,167.7,28.8
			 M183.4,0c-102.9,66.1-70.5,136.9-14,199.3c58,63.3,139.4,122.9,115.7,171.6c28.1-42.7,47.4-78.6,47.7-118.9
			C333.8,123.2,158.1,87.3,183.4,0z"/>
	</g>
</g>
</svg>
