<?xml version="1.0"?>
<svg xmlns="http://www.w3.org/2000/svg" xmlns:xlink="http://www.w3.org/1999/xlink" xmlns:svgjs="http://svgjs.com/svgjs" version="1.1" width="512" height="512" x="0" y="0" viewBox="0 0 64 64" style="enable-background:new 0 0 512 512" xml:space="preserve" class=""><g><g xmlns="http://www.w3.org/2000/svg"><path d="m39 2h4v6h-4z" fill="#ffffff" data-original="#000000" style="" class=""/><path d="m51 2h4v6h-4z" fill="#ffffff" data-original="#000000" style="" class=""/><path d="m33 2h4v6h-4z" fill="#ffffff" data-original="#000000" style="" class=""/><path d="m45 2h4v6h-4z" fill="#ffffff" data-original="#000000" style="" class=""/><path d="m57 2h4v6h-4z" fill="#ffffff" data-original="#000000" style="" class=""/><path d="m19 46c2.187 0 4.233-.598 6-1.624v-9.991c0-2.643-1.477-4.993-3.796-6.175l-2.204 2.204-4.204-4.204c-2.319 1.182-3.796 3.532-3.796 6.175l-.001 10.533c1.155 1.038 2.509 1.852 4.001 2.382v-12.682l-1.447-.724.895-1.789 2.552 1.277v14.438c.652.109 1.317.18 2 .18z" fill="#ffffff" data-original="#000000" style="" class=""/><path d="m11.866 21.4 2.134 1.6v-3.172c0-.267-.104-.519-.293-.708l-.828-.828c-.567-.565-.879-1.319-.879-2.121v-.171c0-1.304.836-2.416 2-2.829v-1.171c0-1.654 1.346-3 3-3h5 2c1.654 0 3-1.346 3-3s-1.346-3-3-3c-.406 0-.804.082-1.17.237l.608.76-5.771.003c-5.33 0-9.667 4.336-9.667 9.667 0 3.026 1.445 5.917 3.866 7.733z" fill="#ffffff" data-original="#000000" style="" class=""/><path d="m23.473 11h-1.473-5c-.552 0-1 .449-1 1v3h-1c-.552 0-1 .449-1 1v.171c0 .267.104.519.293.708l.828.828c.566.567.879 1.32.879 2.122v4.757l3 3 1-1v-3.586h.586c.645 0 1.251-.251 1.707-.708.456-.455.707-1.061.707-1.706v-1.307l2.979-.993c-.208-3.426-1.847-6.27-2.506-7.286zm-1.473 4c-.552 0-1-.448-1-1s.448-1 1-1 1 .448 1 1-.448 1-1 1z" fill="#ffffff" data-original="#000000" style="" class=""/><path d="m29.216 48.802 12.182 12.182c2.44-.193 4.393-2.146 4.586-4.586l-12.182-12.182c-1.24 1.792-2.794 3.346-4.586 4.586z" fill="#ffffff" data-original="#000000" style="" class=""/><path d="m35 34c0-5.777-3.098-11.064-8.106-13.911l-1.896.632c-.006.203-.041.399-.074.596 4.933 2.296 8.076 7.178 8.076 12.683 0 7.72-6.28 14-14 14s-14-6.28-14-14c0-4.428 2.04-8.489 5.514-11.129-.538-.419-1.028-.886-1.48-1.386-3.793 3.026-6.034 7.638-6.034 12.515 0 8.822 7.178 16 16 16s16-7.178 16-16z" fill="#ffffff" data-original="#000000" style="" class=""/><path d="m47 53h14v-14h-14zm4.707-7.707 1.293 1.293 4.293-4.293 1.414 1.414-5.707 5.707-2.707-2.707z" fill="#ffffff" data-original="#000000" style="" class=""/><path d="m47 37h14v-14h-14zm4.707-7.707 1.293 1.293 4.293-4.293 1.414 1.414-5.707 5.707-2.707-2.707z" fill="#ffffff" data-original="#000000" style="" class=""/><path d="m37 11h18v2h-18z" fill="#ffffff" data-original="#000000" style="" class=""/><path d="m37 15h18v2h-18z" fill="#ffffff" data-original="#000000" style="" class=""/><path d="m45 19h2v2h-2z" fill="#ffffff" data-original="#000000" style="" class=""/><path d="m37 19h2v2h-2z" fill="#ffffff" data-original="#000000" style="" class=""/><path d="m41 19h2v2h-2z" fill="#ffffff" data-original="#000000" style="" class=""/><path d="m49 19h2v2h-2z" fill="#ffffff" data-original="#000000" style="" class=""/><path d="m53 19h2v2h-2z" fill="#ffffff" data-original="#000000" style="" class=""/></g></g></svg>
