<svg xmlns="http://www.w3.org/2000/svg" viewBox="0 0 480 479.97"><defs><style>.cls-1{fill:#0094a9;}</style></defs><title>Asset 1</title><g id="Layer_2" data-name="Layer 2"><g id="Layer_1-2" data-name="Layer 1"><path class="cls-1" d="M8,448H32v24a8,8,0,0,0,8,8H376a8,8,0,0,0,8-8V440H368v24H48V448H232V432H16V88H80a8,8,0,0,0,8-8V16H336V168h16V48h16V184h16V40a8,8,0,0,0-8-8H352V8a8,8,0,0,0-8-8H80a3.94,3.94,0,0,0-.47.1,7.39,7.39,0,0,0-2.13.42c-.24.07-.47.16-.7.25a7.76,7.76,0,0,0-2.36,1.6l-72,72A8,8,0,0,0,.78,76.71a7.51,7.51,0,0,0-.27.75,7.17,7.17,0,0,0-.4,2.05c0,.18-.11.33-.11.51V440a8,8,0,0,0,8,8ZM72,27.31V72H27.34Z"/><path class="cls-1" d="M248,176v-8h64V128a24,24,0,0,0-21.88-23.87A16.64,16.64,0,0,0,288,104H64a24,24,0,0,0-24,24V384a24,24,0,0,0,24,24H184V392H104V368h64V352H104V328h56V312H104V288h57.6V272H104V248h72V232H104V208H208V192H104V168H232v8Zm40.66-55.94A8,8,0,0,1,296,128v24H248V119.94h39.67A8.1,8.1,0,0,0,288.67,120.05ZM64,120H88v32H56V128A8,8,0,0,1,64,120ZM88,392H64a8,8,0,0,1-8-8V368H88Zm0-40H56V328H88Zm0-40H56V288H88Zm0-40H56V248H88Zm0-40H56V208H88Zm0-40H56V168H88Zm16-40V120l128,0v32Z"/><path class="cls-1" d="M120,72h64V88H120Z"/><path class="cls-1" d="M200,72h32V88H200Z"/><path class="cls-1" d="M120,40H232V56H120Z"/><path class="cls-1" d="M413.66,378.32l-1,1a128.54,128.54,0,1,0-33,35.62l57.7,57.69a25,25,0,0,0,35.31-35.3ZM192,312A112,112,0,1,1,304,424,112,112,0,0,1,192,312ZM455,464a8.92,8.92,0,0,1-6.34-2.62L392,404.67a128.89,128.89,0,0,0,12.16-13.22l57.21,57.21A9,9,0,0,1,455,464Z"/><path class="cls-1" d="M304,235.29c39.7,0,72,34.4,72,76.69s-32.29,76.69-72,76.69S232,354.26,232,312s32.29-76.69,72-76.69m0-16c-48.6,0-88,41.5-88,92.69s39.39,92.69,88,92.69,88-41.5,88-92.69-39.39-92.69-88-92.69Z"/></g></g></svg>