<?xml version="1.0"?>
<svg xmlns="http://www.w3.org/2000/svg" xmlns:xlink="http://www.w3.org/1999/xlink" xmlns:svgjs="http://svgjs.com/svgjs" version="1.1" width="512" height="512" x="0" y="0" viewBox="0 0 512 512" style="enable-background:new 0 0 512 512" xml:space="preserve" class=""><g><g xmlns="http://www.w3.org/2000/svg"><path d="m412.162 191.708c11.637-11.751 18.838-27.902 18.838-45.708 0-35.841-29.159-65-65-65s-65 29.159-65 65c0 17.806 7.201 33.957 18.838 45.708-34.816 17.115-58.838 52.948-58.838 94.292v50c0 8.284 6.716 15 15 15h180c8.284 0 15-6.716 15-15v-50c0-41.344-24.022-77.177-58.838-94.292zm-81.162-45.708c0-19.299 15.701-35 35-35s35 15.701 35 35-15.701 35-35 35-35-15.701-35-35zm110 175h-150v-35c0-41.355 33.645-75 75-75s75 33.645 75 75z" fill="#097080" data-original="#000000" style="" class=""/><path d="m191 387.144v-10.144c0-8.284-6.716-15-15-15h-120c-8.284 0-15 6.716-15 15v120c0 8.284 6.716 15 15 15h120c8.284 0 15-6.716 15-15v-67.503l20.459-20.459c5.858-5.858 5.858-15.355 0-21.213-5.615-5.616-14.567-5.833-20.459-.681zm-30 94.856h-90v-90h90v25.071l-16.716 16.716-17.678-17.677c-5.857-5.858-15.355-5.858-21.213 0s-5.858 15.355 0 21.213l28.284 28.284c2.929 2.929 6.768 4.394 10.606 4.394s7.678-1.464 10.606-4.394l6.109-6.109v22.502z" fill="#097080" data-original="#000000" style="" class=""/><path d="m191 206.144v-10.144c0-8.284-6.716-15-15-15h-120c-8.284 0-15 6.716-15 15v120c0 8.284 6.716 15 15 15h120c8.284 0 15-6.716 15-15v-67.503l20.459-20.459c5.858-5.858 5.858-15.355 0-21.213-5.615-5.616-14.567-5.833-20.459-.681zm-30 94.856h-90v-90h90v25.071l-16.716 16.716-17.678-17.677c-5.857-5.858-15.355-5.858-21.213 0s-5.858 15.355 0 21.213l28.284 28.284c2.929 2.929 6.768 4.394 10.606 4.394s7.678-1.464 10.606-4.394l6.109-6.109v22.502z" fill="#097080" data-original="#000000" style="" class=""/><path d="m191 25.144v-10.144c0-8.284-6.716-15-15-15h-120c-8.284 0-15 6.716-15 15v120c0 8.284 6.716 15 15 15h120c8.284 0 15-6.716 15-15v-67.503l20.459-20.459c5.858-5.858 5.858-15.355 0-21.213-5.615-5.616-14.567-5.833-20.459-.681zm-30 94.856h-90v-90h90v25.071l-16.716 16.716-17.678-17.677c-5.857-5.858-15.355-5.858-21.213 0s-5.858 15.355 0 21.213l28.284 28.284c2.929 2.929 6.768 4.394 10.606 4.394s7.678-1.464 10.606-4.394l6.111-6.11z" fill="#097080" data-original="#000000" style="" class=""/></g></g></svg>
