<?xml version="1.0"?>
<svg xmlns="http://www.w3.org/2000/svg" xmlns:xlink="http://www.w3.org/1999/xlink" xmlns:svgjs="http://svgjs.com/svgjs" version="1.1" width="512" height="512" x="0" y="0" viewBox="0 0 512 512" style="enable-background:new 0 0 512 512" xml:space="preserve" class=""><g><g xmlns="http://www.w3.org/2000/svg"><path d="m364.823 418.191c-30.557-15.293-67.061-15.293-97.646 0l-55.3 27.645c-.46 2.93-.877 5.87-.877 8.859 0 31.597 25.708 57.305 57.305 57.305h155.391c31.596 0 57.304-25.708 57.304-57.305 0-10.582-3.109-20.889-8.491-29.81-34.596 11.97-73.339 10.48-107.686-6.694z" fill="#ffffff" data-original="#000000" style="" class=""/><path d="m421 242v-30h-150v30h30v98.789l-53.89 53.89c1.907-.473 61.426-38.228 131.131-3.323 22.916 11.468 48.32 14.022 72.114 8.789l-59.355-59.356v-98.789z" fill="#ffffff" data-original="#000000" style="" class=""/><path d="m136 0h120v60h-120z" fill="#ffffff" data-original="#000000" style="" class=""/><path d="m31 512h171.971c-13.502-15.375-21.971-35.284-21.971-57.305 0-23.115 9.302-45.645 25.503-61.831l64.497-64.497v-56.367h-30v-90h120v-152h-75v60h-180v-60h-75zm85.605-355.605 19.395 19.394 49.395-49.395 21.211 21.211-70.606 70.606-40.605-40.605zm0 90 19.395 19.394 49.395-49.395 21.211 21.211-70.606 70.606-40.605-40.605zm-21.21 111.21 21.211-21.211 19.394 19.395 19.395-19.395 21.211 21.211-19.395 19.395 19.395 19.395-21.211 21.211-19.395-19.395-19.395 19.395-21.211-21.211 19.395-19.395z" fill="#ffffff" data-original="#000000" style="" class=""/></g></g></svg>
