<svg xmlns="http://www.w3.org/2000/svg" viewBox="0 0 448.51 511"><defs><style>.cls-1{fill:#0094a9;}</style></defs><title>Asset 5</title><g id="Layer_2" data-name="Layer 2"><g id="Layer_1-2" data-name="Layer 1"><path class="cls-1" d="M187,42.83a14.11,14.11,0,1,1-14.11-14.1A14.11,14.11,0,0,1,187,42.83Z"/><path class="cls-1" d="M318,70.55H218.71V45.86a45.86,45.86,0,0,0-91.72,0V70.55H27.72A27.75,27.75,0,0,0,0,98.27v385A27.75,27.75,0,0,0,27.72,511H318a27.76,27.76,0,0,0,27.72-27.72V329.58a7.56,7.56,0,1,0-15.12,0V483.29A12.61,12.61,0,0,1,318,495.88H27.72a12.61,12.61,0,0,1-12.6-12.59v-385a12.61,12.61,0,0,1,12.6-12.6H318a12.62,12.62,0,0,1,12.6,12.6V294.43a7.56,7.56,0,1,0,15.12,0V98.27A27.76,27.76,0,0,0,318,70.55ZM142.11,45.86a30.74,30.74,0,0,1,61.48,0V70.55H142.11Z"/><path class="cls-1" d="M241.39,145.14H104.32a7.56,7.56,0,1,0,0,15.11H241.39a7.56,7.56,0,1,0,0-15.11Z"/><path class="cls-1" d="M39.81,231.44A7.56,7.56,0,0,0,32.25,239V471.19a7.57,7.57,0,0,0,7.56,7.56H305.89a7.56,7.56,0,0,0,7.56-7.56V110.36a7.55,7.55,0,0,0-7.56-7.55H39.81a7.56,7.56,0,0,0-7.56,7.55v93.33a7.56,7.56,0,0,0,15.12,0V117.92h251V463.63h-251V239A7.56,7.56,0,0,0,39.81,231.44Z"/><path class="cls-1" d="M69.54,205.11v40.31A7.56,7.56,0,0,0,77.1,253h41.32a7.55,7.55,0,0,0,7.56-7.56V205.11a7.55,7.55,0,0,0-7.56-7.56H77.1A7.56,7.56,0,0,0,69.54,205.11Zm15.12,7.56h26.21v25.19H84.66Z"/><path class="cls-1" d="M268.6,198.55h-123a7.56,7.56,0,0,0,0,15.12h123a7.56,7.56,0,0,0,0-15.12Z"/><path class="cls-1" d="M145.64,253h72.57a7.56,7.56,0,1,0,0-15.12H145.64a7.56,7.56,0,1,0,0,15.12Z"/><path class="cls-1" d="M69.54,335.12a7.56,7.56,0,0,0,7.56,7.56h41.32a7.55,7.55,0,0,0,7.56-7.56V294.81a7.55,7.55,0,0,0-7.56-7.56H77.1a7.56,7.56,0,0,0-7.56,7.56Zm15.12-32.75h26.21v25.2H84.66Z"/><path class="cls-1" d="M268.6,288.26h-123a7.56,7.56,0,1,0,0,15.12h123a7.56,7.56,0,0,0,0-15.12Z"/><path class="cls-1" d="M145.64,342.68h72.57a7.56,7.56,0,1,0,0-15.12H145.64a7.56,7.56,0,1,0,0,15.12Z"/><path class="cls-1" d="M69.54,424.83a7.57,7.57,0,0,0,7.56,7.56h41.32a7.56,7.56,0,0,0,7.56-7.56V384.51a7.55,7.55,0,0,0-7.56-7.56H77.1a7.56,7.56,0,0,0-7.56,7.56Zm15.12-32.76h26.21v25.2H84.66Z"/><path class="cls-1" d="M276.16,385.52A7.55,7.55,0,0,0,268.6,378h-123a7.56,7.56,0,1,0,0,15.12h123A7.55,7.55,0,0,0,276.16,385.52Z"/><path class="cls-1" d="M145.64,417.27a7.56,7.56,0,1,0,0,15.12h72.57a7.56,7.56,0,0,0,0-15.12Z"/><path class="cls-1" d="M425.83,70.55H395.6a22.7,22.7,0,0,0-22.68,22.68V429.87a7.58,7.58,0,0,0,1.69,4.76l30.23,37.29a7.56,7.56,0,0,0,11.75,0l30.23-37.29a7.53,7.53,0,0,0,1.69-4.76V208.63a7.56,7.56,0,0,0-15.12,0V427.18l-22.68,28-22.67-28V143.12h15.12V429.87a7.56,7.56,0,1,0,15.11,0V143.12h15.12v30.32a7.56,7.56,0,0,0,15.12,0V93.23A22.7,22.7,0,0,0,425.83,70.55ZM388,128V93.23a7.57,7.57,0,0,1,7.56-7.56h30.24a7.56,7.56,0,0,1,7.55,7.56V128Z"/></g></g></svg>