<?xml version="1.0"?>
<svg xmlns="http://www.w3.org/2000/svg" xmlns:xlink="http://www.w3.org/1999/xlink" xmlns:svgjs="http://svgjs.com/svgjs" version="1.1" width="512" height="512" x="0" y="0" viewBox="0 0 512.002 512.002" style="enable-background:new 0 0 512 512" xml:space="preserve" class=""><g>
<g xmlns="http://www.w3.org/2000/svg">
	<g>
		<path d="M415.532,101.063c-6.223,0-12.396,0.592-18.449,1.765c-8.023-27.5-24.356-52.276-46.708-70.579    C324.979,11.453,292.883,0,260,0c-12.36,0-24.635,1.584-36.484,4.707c-5.341,1.408-8.529,6.879-7.121,12.219    c1.408,5.341,6.882,8.525,12.218,7.121C238.799,21.361,249.359,20,260,20c57.576,0,108.065,40.808,120.052,97.031    c0.586,2.749,2.302,5.124,4.728,6.545c2.425,1.42,5.337,1.753,8.021,0.92c7.329-2.278,14.977-3.434,22.73-3.434    c42.166,0,76.469,34.304,76.469,76.47c0,42.165-34.304,76.469-76.469,76.469h-7.998c1.628-9.032,2.469-18.273,2.469-27.645    c0-41.135-16.02-79.808-45.107-108.895C335.808,108.373,297.135,92.355,256,92.355c-41.135,0-79.807,16.019-108.894,45.106    C118.018,166.549,102,205.222,102,246.356c0,41.134,16.02,79.807,45.107,108.895c21.165,21.166,47.408,35.402,75.979,41.592    v105.159c0,5.522,4.477,10,10,10s10-4.478,10-10v-66.604h25.618v66.604c0,5.522,4.477,10,10,10s10-4.478,10-10V396.888    c28.653-6.165,54.974-20.419,76.192-41.637c17.472-17.472,30.221-38.405,37.624-61.25h13.013    c53.193,0,96.469-43.275,96.469-96.469C512.002,144.338,468.725,101.063,415.532,101.063z M268.705,415.397L268.705,415.397    h-25.619v-15.581c4.273,0.353,8.58,0.541,12.916,0.541c4.264,0,8.5-0.182,12.703-0.523V415.397z M350.753,341.108    c-25.31,25.311-58.96,39.249-94.752,39.249c-35.792,0-69.442-13.938-94.752-39.249c-25.311-25.31-39.25-58.96-39.25-94.752    c0-35.792,13.939-69.442,39.25-94.752c25.31-25.311,58.96-39.249,94.752-39.249s69.442,13.938,94.752,39.249    c25.31,25.31,39.249,58.96,39.249,94.752C390.002,282.148,376.063,315.799,350.753,341.108z" fill="#097080" data-original="#000000" style="" class=""/>
	</g>
</g>
<g xmlns="http://www.w3.org/2000/svg">
	<g>
		<path d="M197.473,25.223c-2.946-4.672-9.12-6.07-13.792-3.127l-0.601,0.384c-4.64,2.995-5.974,9.185-2.978,13.825    c1.913,2.964,5.128,4.578,8.411,4.578c1.858,0,3.737-0.517,5.414-1.6l0.419-0.267C199.018,36.071,200.418,29.896,197.473,25.223z" fill="#097080" data-original="#000000" style="" class=""/>
	</g>
</g>
<g xmlns="http://www.w3.org/2000/svg">
	<g>
		<path d="M165.244,49.25c-4.209-3.576-10.52-3.061-14.095,1.149c-8.26,9.728-15.13,20.421-20.495,31.889    c-6.918-2.172-14.122-3.269-21.522-3.269c-39.681,0-71.963,32.282-71.963,71.963c0,2.602,0.144,5.214,0.431,7.818    C14.52,171.297,0,195.323,0,222.037c0,39.681,32.283,71.964,71.963,71.964h0.328c5.523,0,10-4.478,10-10c0-5.522-4.477-10-10-10    h-0.328C43.31,274.001,20,250.69,20,222.037c0-21.259,12.737-40.163,32.448-48.16c4.532-1.839,7.069-6.686,5.998-11.457    c-0.849-3.78-1.279-7.628-1.279-11.437c0-28.652,23.311-51.963,51.963-51.963c7.909,0,15.5,1.729,22.562,5.139    c2.518,1.217,5.43,1.321,8.03,0.293c2.6-1.029,4.65-3.101,5.653-5.711c4.958-12.902,12.03-24.811,21.018-35.396    C169.969,59.135,169.453,52.824,165.244,49.25z" fill="#097080" data-original="#000000" style="" class=""/>
	</g>
</g>
<g xmlns="http://www.w3.org/2000/svg">
	<g>
		<path d="M359.68,198.796c-2.303-5.02-8.237-7.224-13.259-4.919c-5.02,2.303-7.222,8.239-4.919,13.259    c16.31,35.549,8.678,78.021-18.99,105.688c-36.65,36.651-96.286,36.651-132.936,0.001c-17.754-17.754-27.532-41.36-27.532-66.469    s9.778-48.714,27.532-66.468c26.816-26.816,66.84-34.902,101.963-20.603c1.79,0.729,3.579,1.523,5.318,2.361    c4.978,2.399,10.953,0.307,13.35-4.669c2.397-4.976,0.307-10.952-4.669-13.349c-2.11-1.017-4.281-1.98-6.455-2.866    c-42.596-17.342-91.131-7.537-123.649,24.982c-21.532,21.532-33.39,50.16-33.39,80.61c0,30.451,11.858,59.079,33.39,80.611    c22.224,22.224,51.417,33.336,80.609,33.336c29.192,0,58.386-11.112,80.61-33.337C370.206,293.416,379.459,241.908,359.68,198.796    z" fill="#097080" data-original="#000000" style="" class=""/>
	</g>
</g>
<g xmlns="http://www.w3.org/2000/svg">
	<g>
		<path d="M336.717,165.687c-3.905-3.904-10.237-3.904-14.143,0l-0.067,0.067c-3.905,3.905-3.871,10.203,0.034,14.108    c1.944,1.946,4.498,2.913,7.054,2.913c2.579,0,5.16-0.984,7.122-2.945C340.622,175.925,340.622,169.593,336.717,165.687z" fill="#097080" data-original="#000000" style="" class=""/>
	</g>
</g>
<g xmlns="http://www.w3.org/2000/svg">
	<g>
		<path d="M321.996,206.445c-4.976-2.389-10.952-0.293-13.343,4.685l-20.999,43.724l-22.772-43.991    c-1.743-3.367-5.237-5.505-9.031-5.402c-3.791,0.057-7.223,2.252-8.864,5.67l-20.999,43.724l-22.772-43.991    c-2.539-4.904-8.572-6.822-13.478-4.284c-4.905,2.539-6.822,8.573-4.284,13.479l31.989,61.794    c1.743,3.368,5.256,5.455,9.031,5.402c3.791-0.057,7.223-2.252,8.864-5.67l20.999-43.724l22.772,43.991    c1.72,3.323,5.147,5.403,8.88,5.403c0.05,0,0.1,0,0.15-0.001c3.791-0.057,7.223-2.252,8.864-5.67l29.678-61.795    C329.072,214.81,326.974,208.837,321.996,206.445z" fill="#097080" data-original="#000000" style="" class=""/>
	</g>
</g>
<g xmlns="http://www.w3.org/2000/svg">
</g>
<g xmlns="http://www.w3.org/2000/svg">
</g>
<g xmlns="http://www.w3.org/2000/svg">
</g>
<g xmlns="http://www.w3.org/2000/svg">
</g>
<g xmlns="http://www.w3.org/2000/svg">
</g>
<g xmlns="http://www.w3.org/2000/svg">
</g>
<g xmlns="http://www.w3.org/2000/svg">
</g>
<g xmlns="http://www.w3.org/2000/svg">
</g>
<g xmlns="http://www.w3.org/2000/svg">
</g>
<g xmlns="http://www.w3.org/2000/svg">
</g>
<g xmlns="http://www.w3.org/2000/svg">
</g>
<g xmlns="http://www.w3.org/2000/svg">
</g>
<g xmlns="http://www.w3.org/2000/svg">
</g>
<g xmlns="http://www.w3.org/2000/svg">
</g>
<g xmlns="http://www.w3.org/2000/svg">
</g>
</g></svg>
