<svg xmlns="http://www.w3.org/2000/svg" viewBox="0 0 293.33 284.5"><defs><style>.cls-1{fill:#0094a9;}</style></defs><title>Asset 6</title><g id="Layer_2" data-name="Layer 2"><g id="Layer_1-2" data-name="Layer 1"><g id="Capa_1" data-name="Capa 1"><path class="cls-1" d="M111.87,209.88,109.48,232a6.29,6.29,0,0,0,5.61,6.92h67.45a6.36,6.36,0,0,0,6.33-6.32v-.72l-2.39-22.09h83.34a23.48,23.48,0,0,0,23.51-23.52V23.52A23.49,23.49,0,0,0,269.82,0H23.52A23.49,23.49,0,0,0,0,23.52v163A23.49,23.49,0,0,0,23.52,210h88.35Zm63.75,16.48H122.85l1.79-16.48H174ZM23.52,12.66H269.93A10.9,10.9,0,0,1,280.8,23.52V166.9H12.66V23.52A10.74,10.74,0,0,1,23.52,12.66ZM12.66,186.36v-6.8h268v6.8a10.91,10.91,0,0,1-10.86,10.87H23.52A10.83,10.83,0,0,1,12.66,186.36Z"/><path class="cls-1" d="M269.7,281.52a6.39,6.39,0,0,0,.23-6.21L257.4,251.19a6.34,6.34,0,0,0-5.61-3.34H41.55a6.33,6.33,0,0,0-5.61,3.34l-12.54,24A6.33,6.33,0,0,0,26,283.78a6.43,6.43,0,0,0,3,.72H264.2A6.37,6.37,0,0,0,269.7,281.52ZM39.52,271.84l5.85-11.34H248l5.85,11.34Z"/><path class="cls-1" d="M225.28,106a39,39,0,0,0-18.5-32.24,37.17,37.17,0,0,0-13.73-5,5.1,5.1,0,0,0-.24-1.32,45.88,45.88,0,0,0-15.64-23.28A42.43,42.43,0,0,0,150.79,35c-16.36,0-31.16,9.31-38.92,24.47-24.24.12-43.82,20.66-43.82,45.85s19.7,45.84,43.94,45.84h71.27c23.16,0,42-19.58,42-43.81Zm-107.8-3.82a5.08,5.08,0,0,0,2.74-3.11,5.6,5.6,0,0,0-.12-4.18,35.21,35.21,0,0,1-2.86-14c0-19.22,15-34.86,33.43-34.86,14.08,0,26.5,9.08,31.4,22.81a39.62,39.62,0,0,0-12.18,4.18,5.79,5.79,0,0,0-2.63,3.22,5.61,5.61,0,0,0,.36,4.18,4.83,4.83,0,0,0,3.1,2.62,5.39,5.39,0,0,0,4.06-.35,26.26,26.26,0,0,1,26.63.59,27.36,27.36,0,0,1,13.25,23v1.08c0,18-14.09,32.83-31.4,32.83H112c-18.39,0-33.43-15.64-33.43-34.86,0-17.67,12.53-32.35,29.25-34.62a47.71,47.71,0,0,0-1.08,10.14,47.13,47.13,0,0,0,3.7,18.51,5.34,5.34,0,0,0,4.78,3.22A5,5,0,0,0,117.48,102.2Z"/></g></g></g></svg>