<?xml version="1.0"?>
<svg xmlns="http://www.w3.org/2000/svg" xmlns:xlink="http://www.w3.org/1999/xlink" xmlns:svgjs="http://svgjs.com/svgjs" version="1.1" width="512" height="512" x="0" y="0" viewBox="0 0 1236.8877 1236" style="enable-background:new 0 0 512 512" xml:space="preserve" class=""><g><g xmlns="http://www.w3.org/2000/svg" fill="#231f20"><path d="m226.761719 412.738281c34.15625 0 61.84375-27.6875 61.84375-61.84375-.097657-2.484375-.347657-4.964843-.742188-7.421875l60.957031-30.632812c24.464844 23.738281 63.542969 23.148437 87.277344-1.3125 11.203125-11.546875 17.457032-27.007813 17.425782-43.09375-.097657-2.484375-.347657-4.960938-.742188-7.421875l60.960938-30.628907c24.308593 23.679688 63.214843 23.171876 86.902343-1.136718 6.265625-6.4375 11.046875-14.167969 14.003907-22.65625h48.8125c11.132812 32.066406 46.152343 49.035156 78.210937 37.902344 8.542969-2.96875 16.332031-7.785157 22.804687-14.109376l60.957032 30.628907c-.429688 2.457031-.707032 4.933593-.84375 7.421875-.066406 34.089844 27.523437 61.773437 61.609375 61.832031 16.085937.027344 31.546875-6.222656 43.09375-17.429687l60.957031 30.636718c-.398438 2.457032-.640625 4.933594-.742188 7.421875-.171874 34.324219 27.515626 62.292969 61.835938 62.464844 34.332031.175781 62.292969-27.511719 62.46875-61.835937.171875-34.328126-27.515625-62.292969-61.835938-62.46875-16.214843-.082032-31.816406 6.171874-43.480468 17.4375l-60.960938-30.632813c.394532-2.460937.644532-4.933594.742188-7.425781.0625-34.082032-27.519532-61.769532-61.609375-61.828125-16.085938-.027344-31.546875 6.222656-43.09375 17.429687l-60.957031-30.636718c.394531-2.453126.640624-4.933594.742187-7.421876.0625-34.074218-27.507813-61.75-61.585937-61.816406-26.21875-.046875-49.597657 16.472656-58.3125 41.203125h-48.8125c-11.320313-32.144531-46.554688-49.019531-78.695313-37.699219-24.722656 8.714844-41.25 32.09375-41.199219 58.3125.101563 2.484376.347656 4.964844.742188 7.421876l-60.957032 30.628906c-24.464843-23.730469-63.539062-23.144532-87.277343 1.3125-11.203125 11.546875-17.457031 27.007812-17.425781 43.09375.097656 2.492187.347656 4.964844.742187 7.425781l-60.957031 30.632813c-24.527344-23.777344-63.679688-23.167969-87.453125 1.355468-23.773438 24.523438-23.164063 63.675782 1.359375 87.453125 11.585937 11.230469 27.101562 17.484375 43.234375 17.4375zm824.589843-82.460937c11.382813 0 20.613282 9.230468 20.613282 20.617187s-9.230469 20.613281-20.613282 20.613281c-11.386718 0-20.617187-9.226562-20.617187-20.613281s9.230469-20.617187 20.617187-20.617187zm-164.917968-82.457032c11.386718 0 20.613281 9.230469 20.613281 20.613282 0 11.386718-9.226563 20.617187-20.613281 20.617187-11.386719 0-20.617188-9.230469-20.617188-20.617187 0-11.382813 9.230469-20.613282 20.617188-20.613282zm-164.917969-82.457031c11.386719 0 20.613281 9.226563 20.613281 20.613281 0 11.386719-9.226562 20.613282-20.613281 20.613282s-20.617187-9.226563-20.617187-20.613282c0-11.386718 9.230468-20.613281 20.617187-20.613281zm-164.917969 0c11.386719 0 20.613282 9.226563 20.613282 20.613281 0 11.386719-9.226563 20.613282-20.613282 20.613282-11.386718 0-20.613281-9.226563-20.613281-20.613282 0-11.386718 9.226563-20.613281 20.613281-20.613281zm-164.917968 82.457031c11.386718 0 20.613281 9.230469 20.613281 20.613282 0 11.386718-9.226563 20.617187-20.613281 20.617187-11.386719 0-20.613282-9.230469-20.613282-20.617187 0-11.382813 9.226563-20.613282 20.613282-20.613282zm-164.917969 82.457032c11.386719 0 20.613281 9.230468 20.613281 20.617187s-9.226562 20.613281-20.613281 20.613281-20.613281-9.226562-20.613281-20.613281 9.226562-20.617187 20.613281-20.617187zm0 0" fill="#ffffff" data-original="#231f20" style="" class=""/><path d="m1175.039062.445312h-1113.195312c-34.15625 0-61.84375 27.691407-61.84375 61.84375v742.128907c0 34.15625 27.6875 61.84375 61.84375 61.84375h350.449219c56.902343.070312 103.007812 46.179687 103.074219 103.074219-.101563 56.886718-46.1875 102.96875-103.074219 103.074218-.265625 0-.515625.144532-.78125.164063-2.632813.414062-5.230469 1.019531-7.773438 1.816406-1.222656.664063-2.386719 1.445313-3.464843 2.328125-1.039063.667969-2.019532 1.429688-2.921876 2.269531-1.535156 2.179688-2.910156 4.46875-4.125 6.839844 0 .25-.289062.417969-.371093.683594l-41.230469 123.691406c-3.59375 10.796875 2.242188 22.472656 13.046875 26.070313 2.058594.6875 4.222656 1.042968 6.394531 1.054687h494.75c11.386719-.007813 20.613282-9.246094 20.601563-20.628906 0-2.207031-.355469-4.402344-1.054688-6.496094l-41.230469-123.691406c0-.265625-.285156-.433594-.371093-.683594-.589844-1.34375-1.320313-2.617187-2.183594-3.808594-1.035156-2.273437-2.789063-4.140625-4.988281-5.320312-1.0625-.882813-2.210938-1.65625-3.421875-2.308594-1.082031-.394531-2.191407-.703125-3.324219-.925781-1.449219-.46875-2.953125-.769532-4.46875-.890625-.289062 0-.519531-.164063-.78125-.164063-56.886719-.105468-102.976562-46.1875-103.074219-103.074218.070313-56.894532 46.171875-103.003907 103.074219-103.074219h350.445312c34.15625 0 61.847657-27.6875 61.847657-61.84375v-742.128907c-.003907-34.152343-27.691407-61.84375-61.847657-61.84375zm-494.753906 968.890626c.097656 73.800781 55.789063 135.664062 129.175782 143.503906l27.742187 83.257812h-437.523437l27.742187-83.257812c73.398437-7.820313 129.097656-69.699219 129.175781-143.503906.007813-38.824219-15.6875-76.003907-43.519531-103.074219h210.726563c-27.832032 27.070312-43.527344 64.25-43.519532 103.074219zm515.367188-164.917969c0 11.386719-9.226563 20.613281-20.613282 20.613281h-1113.195312c-11.386719 0-20.613281-9.226562-20.613281-20.613281v-61.84375h1154.421875zm-1154.421875-103.074219v-639.054688c0-11.382812 9.226562-20.617187 20.613281-20.617187h1113.195312c11.386719 0 20.613282 9.234375 20.613282 20.617187v639.054688zm0 0" fill="#ffffff" data-original="#231f20" style="" class=""/><path d="m1113.195312 474.582031c0-11.378906-9.230468-20.613281-20.617187-20.613281h-82.457031c-11.386719 0-20.613282 9.234375-20.613282 20.613281v144.304688h-41.230468v-226.761719c0-11.386719-9.230469-20.617188-20.617188-20.617188h-82.457031c-11.386719 0-20.613281 9.230469-20.613281 20.617188v226.761719h-41.230469v-309.222657c0-11.386718-9.230469-20.613281-20.613281-20.613281h-82.460938c-11.378906 0-20.613281 9.226563-20.613281 20.613281v309.222657h-41.226563v-309.222657c0-11.386718-9.234374-20.613281-20.613281-20.613281h-82.460937c-11.382813 0-20.613282 9.226563-20.613282 20.613281v309.222657h-41.234374v-226.761719c0-11.386719-9.230469-20.617188-20.613282-20.617188h-82.460937c-11.386719 0-20.613281 9.230469-20.613281 20.617188v226.761719h-41.230469v-144.304688c0-11.378906-9.226563-20.613281-20.613281-20.613281h-82.460938c-11.382812 0-20.613281 9.234375-20.613281 20.613281v144.304688h-41.230469v-535.984375h-41.230469v556.597656c0 11.386719 9.230469 20.613281 20.617188 20.613281h1051.351562v-41.226562h-41.230469zm-907.046874 144.304688v-123.691407h41.226562v123.691407zm164.917968 0v-206.148438h41.226563v206.148438zm164.917969 0v-288.609375h41.226563v288.609375zm164.914063 0v-288.609375h41.230468v288.609375zm164.917968 0v-206.148438h41.230469v206.148438zm164.917969 0v-123.691407h41.230469v123.691407zm0 0" fill="#ffffff" data-original="#231f20" style="" class=""/></g></g></svg>
