<svg xmlns="http://www.w3.org/2000/svg" viewBox="0 0 974.97 773.96"><defs><style>.cls-1{fill:#739fff;}.cls-2{fill:#f2f2f2;}.cls-3{fill:#3f3d56;}.cls-4{fill:#2f2e41;}.cls-5{opacity:0.1;isolation:isolate;}.cls-6{fill:#4cbfe6;}.cls-7{fill:#67a3b5;}.cls-8{fill:#a0616a;}</style></defs><title>Asset 2</title><g id="Layer_2" data-name="Layer 2"><g id="ee68b97f-fc10-400d-a2ff-be2b67d80654"><circle class="cls-1" cx="520.97" cy="99.96" r="64"/><path class="cls-2" d="M328.26,408c0,123.61-73.48,166.77-164.13,166.77S0,531.58,0,408,164.13,127.11,164.13,127.11,328.26,284.36,328.26,408Z"/><polygon class="cls-3" points="158.15 555.83 159.83 452.38 229.79 324.4 160.1 436.15 160.85 389.64 209.07 297.04 161.05 377.33 161.05 377.33 162.41 293.67 214.04 219.95 162.63 280.51 163.47 127.11 158.14 330.19 158.58 321.81 106.08 241.46 157.74 337.89 152.84 431.33 152.7 428.85 92.19 344.29 152.51 437.61 151.9 449.29 151.79 449.47 151.84 450.43 139.44 687.48 156.01 687.48 158 565.04 218.19 471.95 158.15 555.83"/><path class="cls-2" d="M814.65,343.12c0,151-89.78,203.74-200.52,203.74S413.62,494.13,413.62,343.12,614.13,0,614.13,0,814.65,192.11,814.65,343.12Z"/><polygon class="cls-3" points="606.83 523.76 608.88 397.38 694.35 241.02 609.2 377.55 610.13 320.73 669.03 207.6 610.37 305.69 610.37 305.69 612.03 203.48 675.1 113.42 612.29 187.41 613.33 0 606.81 248.1 607.35 237.86 543.22 139.7 606.32 257.51 600.34 371.65 600.16 368.63 526.24 265.33 599.94 379.33 599.19 393.6 599.06 393.82 599.12 394.99 583.96 684.59 604.21 684.59 606.64 535 680.17 421.29 606.83 523.76"/><ellipse class="cls-3" cx="399.97" cy="684.96" rx="308" ry="11"/><ellipse class="cls-3" cx="832.97" cy="760.46" rx="142" ry="13.5"/><rect class="cls-4" x="381.97" y="346.96" width="36" height="338"/><polygon class="cls-3" points="564.97 423.96 343.97 423.96 343.97 361.96 564.97 361.96 628.97 392.96 564.97 423.96"/><polygon class="cls-5" points="564.97 418.96 343.97 418.96 343.97 423.96 564.97 423.96 628.97 392.96 623.81 390.46 564.97 418.96"/><polygon class="cls-3" points="235.97 505.96 456.97 505.96 456.97 443.96 235.97 443.96 171.97 474.96 235.97 505.96"/><polygon class="cls-5" points="177.13 472.46 171.97 474.96 235.97 505.96 456.97 505.96 456.97 500.96 235.97 500.96 177.13 472.46"/><rect class="cls-6" x="467.97" y="373.96" width="38" height="38"/><circle class="cls-6" cx="314.97" cy="474.96" r="19"/><circle class="cls-4" cx="399.97" cy="390.96" r="11"/><circle class="cls-4" cx="399.97" cy="472.96" r="11"/><path class="cls-6" d="M326,647.29c0,22.47-13.36,30.32-29.84,30.32H295c-.76,0-1.52-.06-2.27-.11-14.87-1-26.42-9.3-26.42-30.2,0-21.62,27.63-48.91,29.71-50.93h0l.12-.12S326,624.83,326,647.29Z"/><path class="cls-3" d="M295.05,674.17,306,658.92,295,675.84l0,1.76c-.76,0-1.52-.06-2.27-.11L293.9,655v-.17l0,0,.11-2.12-11-17,11,15.37,0,.45.89-17L285.58,617l9.5,14.54.93-35.21v0l-.15,27.77,9.35-11-9.39,13.4-.25,15.2,8.73-14.59L295.54,644l-.14,8.46,12.67-20.32-12.72,23.27Z"/><path class="cls-7" d="M787,735.87s-14.16,11.93-21.61,11.18-21.62-.75-15.65,7.45,30.55,12.67,41,13.42,33.54,1.49,32-3-3-25.34-8.95-26.83S787,735.87,787,735.87Z"/><path class="cls-7" d="M868.27,724.17s-10.43,15.29-17.81,16.57-21,5.09-13.07,11.38,32.83,4,43.08,1.91,32.71-7.58,30.07-11.48-9.68-23.61-15.83-23.44S868.27,724.17,868.27,724.17Z"/><path class="cls-4" d="M778.71,505.5s-9.59,65.68-7.35,77.6,3.72,30.56,3.72,30.56-1.49,15.65,0,23.1S785.52,715,785.52,716.5s-1.49,6,0,9.68,4.47.75,0,6.71-1.49,7.45-.75,7.45,29.81,3,31.3,0-.74-3.72,0-7.45,1.49-4.47,3-5.22,4.47.75,2.24-3-7.46-8.19-6-10.43-.75-18.63-.75-18.63-1.49-36.52-2.24-58.87,6.71-45.46,6.71-45.46a85.25,85.25,0,0,0,19.38,49.93c19.37,23.1,29.06,66.32,29.06,66.32s4.47,6.71,2.24,12.67-9,2.24-2.24,6,29.81-1.49,32-3.72-3-5.22-1.49-11.18,7.46-4.47,2.24-7.45-6.71-2.24-6.71-5.22-13.41-67.81-34.28-86.44l-1.49-67.82s18.63-47.69-.74-52.16S778.71,505.5,778.71,505.5Z"/><path class="cls-8" d="M792.22,329s12.67,31.29,9.69,35.77,36.52-14.91,36.52-14.91-12.67-31.3-12.67-35S792.22,329,792.22,329Z"/><circle class="cls-8" cx="801.54" cy="309.24" r="27.57"/><path class="cls-6" d="M838.43,337.18s-19.38-2.23-29.07,9.69-11.17,14.9-11.17,14.9-23.11,37.27-18.64,55.9a54.83,54.83,0,0,1,3,5.21c1.49,3,1.49,44.72,0,51.42s-3,8.94-1.49,18.63-11.93,25.34,3.72,28.32,27.57.75,32.79-6,.75-11.18,17.14-11.18,26.83-11.18,26.83-11.18-8.2-8.94-5.22-10.43,0-5.22-1.49-8.94-1.49-6.71.75-6.71.74-1.49-.75-5.22,26.08-67.81,9.69-86.44-24.59-29.06-24.59-29.06S842.9,335,838.43,337.18Z"/><path class="cls-8" d="M796,408v32.79l-23.85,79s-15.65,41,0,41,14.81-39.12,14.81-39.12l33.63-59.25S834,415.43,832.47,411.7,796,408,796,408Z"/><path class="cls-6" d="M808.62,359.54s-22.36,8.94-16.4,32.79,0,23.1,0,23.1,30.56-3,40.25,3.73l2.23-9S843.64,358.79,808.62,359.54Z"/><path class="cls-4" d="M792.12,288.54a11,11,0,0,1-10.33-1.61c-2.81-2.31-4-6.59-2.35-9.83,1.43-2.8,4.48-4.33,7.41-5.48A68.8,68.8,0,0,1,807,267.06c3.29-.23,6.76-.19,9.7,1.31,1.45.75,2.72,1.82,4.16,2.6,2.65,1.42,5.74,1.73,8.6,2.64a21.56,21.56,0,0,1,13.16,12.1,26.49,26.49,0,0,1,1.62,6,33.6,33.6,0,0,1-1.74,16.74c-3.18,8.45-9.84,15.85-10.22,24.88-4.08-3-5.59-8.3-8.86-12.14a16.5,16.5,0,0,0-9.42-5.46,5.25,5.25,0,0,1-2.8-1,4.55,4.55,0,0,1-1-2.4l-2.79-13.17c-.57-2.68-1.28-5.6-3.49-7.23a10.59,10.59,0,0,0-4.55-1.61,72.1,72.1,0,0,0-11.65-1.06"/></g></g></svg>