<?xml version="1.0"?>
<svg xmlns="http://www.w3.org/2000/svg" xmlns:xlink="http://www.w3.org/1999/xlink" xmlns:svgjs="http://svgjs.com/svgjs" version="1.1" width="512" height="512" x="0" y="0" viewBox="0 0 24 24" style="enable-background:new 0 0 512 512" xml:space="preserve" class=""><g><path xmlns="http://www.w3.org/2000/svg" d="m18 24c-.066 0-.132-.013-.194-.039-.238-.101-5.806-2.507-5.806-7.425v-4.179c0-.215.137-.405.34-.474l5.5-1.857c.104-.035.216-.035.32 0l5.5 1.857c.203.068.34.259.34.474v4.179c0 4.918-5.568 7.324-5.806 7.425-.062.026-.128.039-.194.039zm-5-11.283v3.819c0 3.784 4.055 5.958 5 6.413.944-.456 5-2.639 5-6.413v-3.819l-5-1.689z" fill="#097080" data-original="#000000" style="" class=""/><path xmlns="http://www.w3.org/2000/svg" d="m18 24c-.276 0-.5-.224-.5-.5v-13c0-.276.224-.5.5-.5s.5.224.5.5v13c0 .276-.224.5-.5.5z" fill="#097080" data-original="#000000" style="" class=""/><path xmlns="http://www.w3.org/2000/svg" d="m10.5 21h-8c-1.378 0-2.5-1.121-2.5-2.5v-16c0-1.379 1.122-2.5 2.5-2.5h11c1.378 0 2.5 1.121 2.5 2.5v5c0 .276-.224.5-.5.5s-.5-.224-.5-.5v-5c0-.827-.673-1.5-1.5-1.5h-11c-.827 0-1.5.673-1.5 1.5v16c0 .827.673 1.5 1.5 1.5h8c.276 0 .5.224.5.5s-.224.5-.5.5z" fill="#097080" data-original="#000000" style="" class=""/><path xmlns="http://www.w3.org/2000/svg" d="m23.5 17.036h-11c-.276 0-.5-.224-.5-.5s.224-.5.5-.5h11c.276 0 .5.224.5.5s-.224.5-.5.5z" fill="#097080" data-original="#000000" style="" class=""/><path xmlns="http://www.w3.org/2000/svg" d="m8 15c-2.757 0-5-2.243-5-5s2.243-5 5-5c2.351 0 4.356 1.6 4.876 3.89.061.269-.108.537-.377.598-.273.062-.538-.108-.599-.378-.415-1.831-2.019-3.11-3.9-3.11-2.206 0-4 1.794-4 4s1.794 4 4 4c.624 0 1.223-.14 1.779-.416.248-.121.547-.022.67.227.123.247.022.547-.226.67-.695.344-1.443.519-2.223.519z" fill="#097080" data-original="#000000" style="" class=""/><path xmlns="http://www.w3.org/2000/svg" d="m4.818 13.682c-.128 0-.256-.049-.354-.146-.195-.195-.195-.512 0-.707l3.036-3.036v-4.293c0-.276.224-.5.5-.5s.5.224.5.5v4.5c0 .133-.053.26-.146.354l-3.182 3.182c-.098.097-.226.146-.354.146z" fill="#097080" data-original="#000000" style="" class=""/></g></svg>
