<svg height="512" viewBox="0 0 51 60" width="512" xmlns="http://www.w3.org/2000/svg"><g id="001---Down-Arrow" fill="none"><g id="Icons" transform="translate(1)"><path id="Shape" d="m47.71 42.74-8.71-3.76.01-29.3c.0017371-.20115955-.0613808-.39752643-.18-.56-.1038886-.16049445-.2537389-.28595047-.43-.36l-17.95-7.68c-.2804926-.122406-.6019228-.10762759-.87.04-1.49.83-6.46 3.59-8.07 4.48-.1524596.08243226-.2775677.20754041-.36.36-.1003889.15465571-.1525951.33563738-.15.52l-.01 19.9v.53l-1.12-.46c-.28288311-.1142872-.60207264-.0959429-.87.05l-7.6 4.23c-.27975086.1495829-.46979101.4253274-.51.74v.01c-.03016297.2476667.03410685.4976049.18.7l18.8 26.4c.2887803.4093709.8359167.5418805 1.28.31l19.42-10.34 7.23-4.01c.3320298-.1877437.529647-.5468224.5105992-.92778-.0190479-.3809575-.2514978-.7185329-.6005992-.87222z" fill="#e8edfc"/><g fill="#a4c2f7"><path id="Shape" d="m10.99 26.91v7.41c.0011786.3379353-.1683999.6536053-.450816.839193s-.63946019.215984-.949184.080807l-8.7-3.76v-.01c.04020899-.3146726.23024914-.5904171.51-.74l7.6-4.23c.26792736-.1459429.58711689-.1642872.87-.05z"/><path id="Shape" d="m38.83 9.12-8.82 4.9-.17-.07-18.69-7.99c.0824323-.15245959.2075404-.27756774.36-.36 1.06-.59 3.57-1.98 5.59-3.1 1.05-.58 1.97-1.09 2.48-1.38.2680772-.14762759.5895074-.162406.87-.04l17.95 7.68c.1762611.07404953.3261114.19950555.43.36z"/><path id="Shape" d="m39.01 9.68-.01 29.3-8.83 4.9c-.0291861-.0399172-.0527404-.0836608-.07-.13-.0682401-.1329095-.102591-.2806182-.1-.43l.01-29.3 5.9-3.27v-.01l2.92-1.62c.1186192.16247357.1817371.35884045.18.56z"/></g><path id="Shape" d="m38.83 9.12-2.82 1.565-.01 28.295-6 3.329v1.011c-.002591.1493818.0317599.2970905.1.43.0172596.0463392.0408139.0900828.07.13l8.83-4.9.01-29.3c.0017371-.20115955-.0613808-.39752643-.18-.56z" fill="#7facfa"/><path id="Shape" d="m47.8 44.54-2.53 1.41-4.7 2.6-9.97-4.31c-.0802835-.0347236-.154542-.081979-.22-.14-.0821975-.0606353-.1532513-.1350726-.21-.22l8.83-4.9 8.71 3.76c.3491014.1536871.5815513.4912625.6005992.87222.0190478.3809576-.1785694.7400363-.5105992.92778z" fill="#a4c2f7"/></g><path id="Shape" d="m19.94 58.577c.2885022.4077652.833651.5401036 1.277.31l1.409-.752c-19.701-27.735-18.652-26.067-18.615-26.603l-.121-.052c.03629652-.3186654.22699127-.5990989.51-.75l6.682-3.821c.153-.085-.082 8.091-.082 8.091.6961133.2319665 1.4612563.1158467 2.0572036-.3122059.5959474-.4280525.9503243-1.116053.9527964-1.8497941.088-28.17.02-26.519.217-26.845-.362-.155.214-.337 7.5-4.4-2.064-.885-1.3-.936-4.627.9-5.549 3.077-6.208 3.35-5.873 3.493-.184.3-.145-.92-.145 20.916-1.148-.473-1.244-.554-1.6-.522-.4 0 .213-.276-8.086 4.343-.28312781.1507685-.4738706.4312726-.51.75l.121.052c-.033.541-1.095-1.142 18.933 27.052z" fill="#fff" transform="translate(1)"/><g id="Layer_2" transform="translate(0 -1)"><path id="Rectangle-path" d="m17.55 52.321h2v8h-2z" fill="#fff" transform="matrix(.815 -.58 .58 .815 -29.231 21.205)"/><g fill="#428dff"><path id="Shape" d="m18.57 57.322c-.5522847 0-1-.4477153-1-1s.4477153-1 1-1 1 .4477153 1 1-.4477153 1-1 1z"/><path id="Shape" d="m1.256 33.761 14.159 19.882c.2050726.2965477.5539023.459742.912972.4271189s.6727767-.2560117.8210472-.5846622.1081446-.7116707-.1050192-1.0024567l-12.722-17.864 5.866 2.537c.6201398.2715355 1.3353809.2121388 1.9022359-.1579699.5668549-.3701087.9089264-1.0010484.9097641-1.6780301v-26.911l17.008 7.269v28.642c-.0048818.7979043.4675386 1.5214949 1.2 1.838l8.063 3.486-17.585 9.356c-.3505113-.4132575-.9594347-.4885031-1.4-.173-1.256.98.661 2.819 2.336 1.944 23.413-12.466 17.486-9.271 26.672-14.362.6614893-.3752948 1.0541837-1.0920986 1.0143775-1.8515917-.0398061-.7594931-.5052807-1.431319-1.2023775-1.7354083l-8.1-3.5v-28.642c.0039105-.80159246-.4739851-1.52711057-1.212-1.84l-17.95-7.679c-.5646992-.2459621-1.2117962-.21453168-1.75.085-5.1 2.832-7.075 3.925-8.072 4.481-.6296765.35948924-1.0193812 1.0279358-1.022 1.753l-.006 18.973c-.4957382-.1325388-1.02338449-.0706522-1.475.173l-7.6 4.228c-.49655215.276935-.85226398.7515727-.97868849 1.3058956-.12642452.5543229-.01168512 1.1362565.31568849 1.6011044zm37.749 5.631-7 3.882v-27.667l7-3.886zm9.31 5.274-6.8 3.771-8.255-3.573 6.8-3.77zm-27.258-41.666 16.679 7.137-6.789 3.769-16.691-7.133zm-10.567 25.375.5.2v6.742l-7.306-3.16z"/><path id="Shape" d="m17 13c0-.5522847-.4477153-1-1-1s-1 .4477153-1 1v14c0 .5522847.4477153 1 1 1s1-.4477153 1-1z"/><path id="Shape" d="m16 31c-.5522847 0-1 .4477153-1 1v3c0 .5522847.4477153 1 1 1s1-.4477153 1-1v-3c0-.5522847-.4477153-1-1-1z"/></g></g></g></svg>