<svg xmlns="http://www.w3.org/2000/svg" width="384.125" height="512.341" viewBox="0 0 384.125 512.341">
  <g id="fingerprint" transform="translate(-64.108 0)">
    <g id="Group_1" data-name="Group 1">
      <path id="Path_26" data-name="Path 26" d="M296.642,252.267a53.333,53.333,0,0,0-102.4,29.483c19.2,66.752,89.429,126.656,153.749,177.557a10.669,10.669,0,0,0,13.248-16.726c-61.739-48.853-129.045-106.048-146.5-166.72a32.019,32.019,0,0,1,61.547-17.685C287.938,298.709,345.858,348.8,400.962,392.4a10.669,10.669,0,0,0,13.248-16.726C385.112,352.7,308.056,291.733,296.642,252.267Z" fill="#097080"/>
      <path id="Path_27" data-name="Path 27" d="M377.5,224.768a138.667,138.667,0,0,0-265.367,80.483l.045.157c17.515,60.843-20.032,77.717-32,81.429a10.667,10.667,0,0,0,6.4,20.352c32.619-10.2,64.3-44.5,46.1-107.691a117.333,117.333,0,0,1,80.264-145.23l.1-.028a117.994,117.994,0,0,1,144.64,78.677,10.091,10.091,0,0,0,1.067,2.368c1.109,1.835,3.392,5.7,71.957,61.333a10.668,10.668,0,1,0,13.461-16.555C419.245,259.84,382.829,229.781,377.5,224.768Z" fill="#097080"/>
      <path id="Path_28" data-name="Path 28" d="M337.688,240.469a96.171,96.171,0,0,0-118.763-65.728,97.921,97.921,0,0,0-65.9,118.144c21.547,98.133,5.44,120.789-38.763,134.613a10.667,10.667,0,0,0,6.4,20.352c61.76-19.2,75.179-59.563,53.333-159.552a76.8,76.8,0,0,1,50.944-93.056,74.9,74.9,0,0,1,92.4,51.2c4.267,14.549,15.6,34.517,102.955,103.659a10.669,10.669,0,0,0,13.248-16.726C354.242,270.656,340.674,250.795,337.688,240.469Z" fill="#097080"/>
      <path id="Path_29" data-name="Path 29" d="M367.042,388.949c-36.1-27.392-96.512-73.216-111.381-124.885a10.667,10.667,0,0,0-20.5,5.888c16.811,58.5,80.768,107.008,118.976,136a283.046,283.046,0,0,1,22.4,17.92,10.667,10.667,0,0,0,15.083-15.082A279.915,279.915,0,0,0,367.042,388.949Z" fill="#097080"/>
      <path id="Path_30" data-name="Path 30" d="M309.314,463.147a69.675,69.675,0,0,0-53.2-36.139c-36.267,0-41.877,61.653-42.667,74.005a10.667,10.667,0,0,0,9.984,11.307h.683a10.667,10.667,0,0,0,10.667-10.005c1.344-21.973,9.749-53.973,21.333-53.973,15.808,0,27.029,15.232,36.032,27.456a114.981,114.981,0,0,0,9.749,12.075,10.667,10.667,0,0,0,15.083-15.083A94.8,94.8,0,0,1,309.314,463.147Z" fill="#097080"/>
      <path id="Path_31" data-name="Path 31" d="M212.952,370.432a10.666,10.666,0,0,0-20.33,6.4c9.131,28.523-8.811,84.5-35.8,93.269a10.667,10.667,0,1,0,6.372,20.36c.074-.023.147-.047.22-.072C204.461,477.163,224.258,405.867,212.952,370.432Z" fill="#097080"/>
      <path id="Path_32" data-name="Path 32" d="M440.728,224.853c-13.333-4.267-23.808-21.333-35.947-40.811C379.1,142.527,343.874,85.674,245.442,85.674A181.547,181.547,0,0,0,64.109,267.008a10.667,10.667,0,0,0,21.334,0,160.17,160.17,0,0,1,160-160c86.549,0,116.864,48.939,141.227,88.277,14.336,23.147,26.709,43.136,47.488,49.877a10.666,10.666,0,1,0,6.812-20.216c-.073-.025-.146-.048-.22-.072Z" fill="#097080"/>
      <path id="Path_33" data-name="Path 33" d="M85.442,352.341A10.667,10.667,0,0,0,94.978,336.9a94.532,94.532,0,0,1-9.536-27.221,10.667,10.667,0,0,0-21.334,0,109.046,109.046,0,0,0,11.8,36.779A10.671,10.671,0,0,0,85.442,352.341Z" fill="#097080"/>
      <path id="Path_34" data-name="Path 34" d="M79.9,126.784a10.667,10.667,0,0,0,14.66-3.555c.006-.01.012-.019.017-.029,9.259-15.275,54.869-58.859,140.2-58.859,82.005,0,140.352,41.536,150.869,58.859a10.669,10.669,0,0,0,18.24-11.072h0c-14.635-24.107-79.253-69.12-169.109-69.12-95.552,0-146.773,49.9-158.464,69.141A10.666,10.666,0,0,0,79.9,126.784Z" fill="#097080"/>
      <path id="Path_35" data-name="Path 35" d="M143.042,42.069c4.885-2.133,9.024-4.267,12.949-6.4,16.043-8.085,27.584-13.995,78.784-13.995a241.97,241.97,0,0,1,101.4,16.235c4.075,1.515,8.171,3.029,12.459,4.5a10.8,10.8,0,0,0,3.477.6,10.666,10.666,0,0,0,3.477-20.757c-4.139-1.429-8.064-2.88-11.989-4.267A263.036,263.036,0,0,0,234.776.341c-56.4,0-70.528,7.253-88.448,16.448-3.6,1.856-7.445,3.819-11.925,5.824a10.667,10.667,0,1,0,7.879,19.825q.42-.167.824-.369Z" fill="#097080"/>
      <path id="Path_36" data-name="Path 36" d="M427.266,184.917a10.666,10.666,0,0,0,20.33-6.4A269.094,269.094,0,0,0,425.175,133.5,10.669,10.669,0,1,0,407,144.682,252.549,252.549,0,0,1,427.266,184.917Z" fill="#097080"/>
    </g>
    <path id="Path_37" data-name="Path 37" d="M354.541,461.611a10.669,10.669,0,0,1-6.613-2.3c-64.32-50.923-134.485-110.8-153.685-177.557a53.333,53.333,0,0,1,102.4-29.483c11.349,39.445,88.4,100.437,117.333,123.392a10.666,10.666,0,0,1-12.713,17.131c-.175-.13-.347-.266-.514-.406-55.1-43.605-113.067-93.675-124.693-134.229a32.008,32.008,0,1,0-61.525,17.685c17.451,60.672,84.757,117.867,146.475,166.72a10.667,10.667,0,0,1-6.635,19.029Z" fill="#097080"/>
    <path id="Path_38" data-name="Path 38" d="M83.309,407.616a10.667,10.667,0,0,1-3.178-20.843c11.925-3.733,49.472-20.608,32-81.429a138.667,138.667,0,0,1,94.931-171.6l.109-.031a139.5,139.5,0,0,1,170.347,91.051c5.312,4.992,41.728,35.072,66.645,55.3a10.667,10.667,0,0,1-13.44,16.555c-68.587-55.659-70.869-59.52-71.979-61.355a10.745,10.745,0,0,1-1.045-2.347,117.328,117.328,0,0,0-225.03,66.495l.006.022c18.176,63.168-13.483,97.493-46.123,107.691A10.555,10.555,0,0,1,83.309,407.616Z" fill="#097080"/>
    <path id="Path_39" data-name="Path 39" d="M117.442,448.341a10.667,10.667,0,0,1-3.178-20.843c44.2-13.824,60.288-36.523,38.741-134.613a97.941,97.941,0,0,1,65.9-118.144,96.257,96.257,0,0,1,118.784,65.728c2.965,10.3,16.512,30.165,95.68,92.843a10.666,10.666,0,1,1-12.713,17.131c-.175-.13-.347-.266-.514-.406-87.467-69.163-98.795-89.152-102.955-103.659a74.815,74.815,0,0,0-92.416-51.2,76.8,76.8,0,0,0-50.923,93.163c21.952,100.011,8.533,140.267-53.333,159.552A10.478,10.478,0,0,1,117.442,448.341Z" fill="#097080"/>
    <path id="Path_40" data-name="Path 40" d="M384.109,427.008a10.663,10.663,0,0,1-7.552-3.115,284.966,284.966,0,0,0-22.4-17.941c-38.208-28.992-102.165-77.5-118.976-136a10.667,10.667,0,0,1,20.4-6.245c.036.118.07.237.1.356,14.933,51.669,75.264,97.493,111.36,124.885a282.14,282.14,0,0,1,24.6,19.861,10.669,10.669,0,0,1-7.53,18.2Z" fill="#097080"/>
    <path id="Path_41" data-name="Path 41" d="M224.109,512.341h-.683a10.667,10.667,0,0,1-9.984-11.307c.768-12.352,6.4-74.005,42.667-74.005a69.758,69.758,0,0,1,53.333,36.16,91.644,91.644,0,0,0,7.637,9.643A10.667,10.667,0,0,1,302,487.915a111.781,111.781,0,0,1-9.749-12.053c-9.088-12.288-20.309-27.52-36.139-27.52-11.563,0-19.989,32-21.333,53.995A10.665,10.665,0,0,1,224.109,512.341Z" fill="#097080"/>
    <path id="Path_42" data-name="Path 42" d="M160.109,491.008a10.666,10.666,0,0,1-3.285-20.821c26.965-8.768,44.8-64.747,35.8-93.269a10.666,10.666,0,1,1,20.309-6.4c11.328,35.435-8.533,106.667-49.536,120.064A10.668,10.668,0,0,1,160.109,491.008Z" fill="#097080"/>
    <path id="Path_43" data-name="Path 43" d="M74.776,277.675a10.667,10.667,0,0,1-10.667-10.667A181.546,181.546,0,0,1,245.442,85.675c98.432,0,133.653,56.853,159.36,98.368,12.139,19.563,22.613,36.48,35.947,40.811a10.667,10.667,0,0,1-6.372,20.36c-.074-.023-.147-.047-.22-.072C413.378,238.4,401,218.411,386.669,195.265c-24.363-39.317-54.677-88.256-141.227-88.256a160.17,160.17,0,0,0-160,160A10.666,10.666,0,0,1,74.776,277.675Z" fill="#097080"/>
    <path id="Path_44" data-name="Path 44" d="M85.442,352.341a10.666,10.666,0,0,1-9.557-5.888,108.8,108.8,0,0,1-11.776-36.779,10.667,10.667,0,0,1,21.334,0A94.823,94.823,0,0,0,94.979,336.9a10.668,10.668,0,0,1-9.537,15.446Z" fill="#097080"/>
    <path id="Path_45" data-name="Path 45" d="M394.776,128.341a10.669,10.669,0,0,1-9.131-5.141c-10.5-17.323-68.864-58.859-150.869-58.859-85.333,0-130.944,43.584-140.224,58.859a10.666,10.666,0,1,1-18.621-10.409c.126-.226.261-.447.4-.663C88,92.907,139.225,43.008,234.777,43.008c89.856,0,154.475,45.013,169.109,69.141a10.667,10.667,0,0,1-9.11,16.192Z" fill="#097080"/>
    <path id="Path_46" data-name="Path 46" d="M352.109,43.008a10.655,10.655,0,0,1-3.477-.576c-4.267-1.472-8.4-3.008-12.48-4.5A242.027,242.027,0,0,0,234.776,21.675c-51.2,0-62.741,5.909-78.677,14.08-3.925,2.027-8.085,4.139-12.949,6.4a10.683,10.683,0,1,1-8.64-19.542c4.5-2.027,8.32-3.989,11.947-5.845C164.249,7.595,178.393.341,234.777.341a262.939,262.939,0,0,1,108.8,17.579c3.925,1.451,7.851,2.923,11.989,4.267a10.666,10.666,0,0,1-3.457,20.821Z" fill="#097080"/>
    <path id="Path_47" data-name="Path 47" d="M437.442,192.341a10.667,10.667,0,0,1-10.155-7.424A253.146,253.146,0,0,0,407.02,144.6,10.669,10.669,0,0,1,425.2,133.419h0a269.337,269.337,0,0,1,22.4,45.013,10.667,10.667,0,0,1-10.154,13.909Z" fill="#097080"/>
  </g>
</svg>
