<?xml version="1.0"?>
<svg xmlns="http://www.w3.org/2000/svg" xmlns:xlink="http://www.w3.org/1999/xlink" xmlns:svgjs="http://svgjs.com/svgjs" version="1.1" width="512" height="512" x="0" y="0" viewBox="0 0 64 64" style="enable-background:new 0 0 512 512" xml:space="preserve" class=""><g><g xmlns="http://www.w3.org/2000/svg"><path d="m38.012 22.332-8.998 8.997-3-3-4.392 4.392 7.238 7.722 13.551-13.743zm-13.606 10.434 1.608-1.608 3 3 9.002-9.003 1.572 1.561-10.691 10.842z" fill="#097080" data-original="#000000" style="" class=""/><path d="m58.828 25c-1.503-13.532-13.106-24-26.828-24-13.721 0-25.326 10.47-26.828 24h-4.172v38h24.33 5.753 1.834 5.753 24.33v-38zm2.172 6h-4v-4h4zm-15.152 24c-.369-1.287-1.399-2.224-2.414-3.13-.325-.29-.643-.576-.939-.87h6.505v4zm-6.84-7.784c-.323-.447-.687-.864-1.048-1.267-.164-.183-.325-.365-.482-.548.306-.129.613-.262.92-.4h8.602v4h-5.84c-.097-.311-.16-.639-.16-1.001v-1h-1c-.013 0-.432.01-.992.216zm-7.008-4.352c-1.176-1.825-2.973-1.864-3-1.864h-1v1c0 .651-.131 1.206-.346 1.705-5.434-2.242-8.654-4.723-8.654-6.705 0-4.114 2.896-13.416 3.728-16.005 3.448-.088 6.695-1.361 9.272-3.625 2.577 2.264 5.824 3.537 9.272 3.625.832 2.589 3.728 11.89 3.728 16.005 0 1.981-3.22 4.462-8.653 6.705-.216-.498-.347-1.054-.347-1.705v-1h-1c-.027 0-1.824.039-3 1.864zm-5.96 3.085c-.362.403-.725.82-1.048 1.267-.56-.206-.979-.216-.992-.216h-1v1c0 .362-.063.69-.16 1h-5.84v-4h8.602c.307.138.614.271.92.4-.157.183-.318.366-.482.549zm-7.888 9.051h-3.152v-4h6.505c-.296.294-.615.58-.939.87-1.015.906-2.046 1.843-2.414 3.13zm-5.152-28v4h-4v-4zm-4 28v-4h4v4zm2-6v-4h4v4zm6.458-16c-.28 1.519-.458 2.911-.458 4h-6v-4zm-4.458 6v4h-4v-4zm2 4v-4h2.528c.778 1.489 2.353 2.831 4.242 4zm2.867-12h-2.867v-4h3.859c-.352 1.305-.696 2.67-.992 4zm-8.867 2v4h-6v-4zm-2 6v4h-4v-4zm2 6v4h-6v-4zm-2 6v4h-4v-4zm8 6v4h-4v-4zm40-6v4h-4v-4zm-6-2v-4h4v4zm-2.528-10h2.528v4h-6.771c1.889-1.169 3.465-2.511 4.243-4zm4.528 4v-4h4v4zm-4-6c0-1.089-.178-2.481-.458-4h6.458v4zm4-6v-4h4v4zm-2 0h-2.867c-.296-1.33-.64-2.695-.992-4h3.859zm4 26v4h-4v-4zm4-6h4v4h-4zm-2-2v-4h6v4zm2-6v-4h4v4zm-2-6v-4h6v4zm-3.035-24h-6.965c-.551 0-1-.448-1-1 0-1.654-1.346-3-3-3h-7c-.551 0-1-.448-1-1s.449-1 1-1h11.504c2.486 1.606 4.677 3.64 6.461 6zm-38.243-2h8.278c.551 0 1 .448 1 1s-.449 1-1 1h-7c-1.654 0-3 1.346-3 3s1.346 3 3 3c.551 0 1 .448 1 1s-.449 1-1 1h-6.995c1.111-3.784 3.097-7.192 5.717-10zm-6.213 12h7.491c1.654 0 3-1.346 3-3s-1.346-3-3-3c-.551 0-1-.448-1-1s.449-1 1-1h7c1.654 0 3-1.346 3-3s-1.346-3-3-3h-6.192c4.388-3.742 10.062-6 16.192-6 3.439 0 6.732.716 9.738 2h-7.738c-1.654 0-3 1.346-3 3s1.346 3 3 3h7c.551 0 1 .448 1 1 0 1.654 1.346 3 3 3h8.333c1.829 2.978 3.05 6.368 3.486 10h-12.235c-.827-2.881-1.565-5.106-1.635-5.316l-.228-.684h-1.064c-3.381 0-6.56-1.316-8.95-3.707l-.707-.707-.707.707c-2.39 2.391-5.568 3.707-8.95 3.707h-1.064l-.228.684c-.07.21-.808 2.436-1.635 5.316h-12.235c.081-.676.194-1.342.328-2zm-.509 4v4h-4v-4zm-4 30h6v4h-6zm14 4v-4h1.082c.106.714.317 1.409.648 2.072.367.733.877 1.374 1.474 1.928zm14.083 0c-1.148 0-2.083-.935-2.083-2.083 0-.429.13-.841.376-1.192l2.624-3.749 2.624 3.749c.246.35.376.762.376 1.192 0 1.148-.935 2.083-2.083 2.083zm5.326 0c.367-.612.591-1.319.591-2.083 0-.843-.255-1.652-.738-2.34l-4.262-6.09-4.262 6.09c-.483.689-.738 1.498-.738 2.34 0 .764.224 1.471.591 2.083h-2.26c-2.065 0-3.954-1.107-4.811-2.822-.345-.69-.52-1.422-.52-2.178 0-.944.879-1.729 1.897-2.639 1.121-1.001 2.465-2.201 2.933-4.002.555.444 1.17 1.433 1.17 3.641h2c0-2.346-.621-3.766-1.373-4.636.259-.356.571-.711.902-1.08.885-.987 1.943-2.169 2.325-3.906.548.453 1.146 1.445 1.146 3.622h2c0-2.182.6-3.174 1.146-3.625.381 1.739 1.44 2.921 2.325 3.908.331.369.643.725.902 1.081-.752.87-1.373 2.29-1.373 4.636h2c0-2.213.618-3.202 1.169-3.644.467 1.803 1.812 3.003 2.934 4.005 1.018.91 1.897 1.695 1.897 2.639 0 .756-.175 1.488-.52 2.178-.856 1.715-2.745 2.822-4.81 2.822zm8.861-1.928c.332-.663.543-1.358.648-2.072h1.082v4h-3.204c.596-.554 1.107-1.195 1.474-1.928zm9.73 1.928v-4h6v4z" fill="#097080" data-original="#000000" style="" class=""/></g></g></svg>
