<svg xmlns="http://www.w3.org/2000/svg" viewBox="0 0 299.84 463.54"><defs><style>.cls-1{fill:#0094a9;}</style></defs><title>Asset 7</title><g id="Layer_2" data-name="Layer 2"><g id="Capa_1" data-name="Capa 1"><path class="cls-1" d="M148.54,54a43.88,43.88,0,0,0-5.28-16.72,41.24,41.24,0,0,0-12-13.44c-10.48-7.52-25.64-11.44-45.72-9.24-24,2.64-49.12-11.56-52-13.2A7.08,7.08,0,0,0,22.3,7.82C26.5,49.06,36.3,77,48.58,94.66a59.48,59.48,0,0,0,29.24,23.6,45,45,0,0,0,31.48-1,54.11,54.11,0,0,0,8.52-4.24q-.79-1.4-1.68-2.76a46.45,46.45,0,0,0-7.12-8.4,38.57,38.57,0,0,1-4.8,2.32,31.07,31.07,0,0,1-21.72.76A45.63,45.63,0,0,1,60.42,86.62c-9.76-14-17.8-35.76-22.24-67.24,11.76,5.08,30.4,11.2,48.72,9.16,16.28-1.8,28,1,36,6.64a27.24,27.24,0,0,1,8,8.88,29.76,29.76,0,0,1,3.56,11.36,38.86,38.86,0,0,1-.52,11.44A84.42,84.42,0,0,1,145.58,78,55.48,55.48,0,0,0,148.54,54Z"/><path class="cls-1" d="M214.42,72.26a7.09,7.09,0,0,0-9.88,1.64l-.16.24c-5,7.36-12.6,11.52-20.36,15.76-12,6.64-24.6,13.48-32.64,30.68-9.56-35.16-29.56-46.2-48.92-56.76C91.7,57.94,81.22,52.18,74.1,41.74a7.08,7.08,0,0,0-11.68,8c9,13.24,21,19.8,33.24,26.52,20.32,11.08,41.68,22.8,46.16,73.56h8.28c2.08,0,7.36,0,8,.2,4.28-32,18.8-40,32.64-47.44,9.36-5.28,18.4-10.24,25.32-20.44A7.08,7.08,0,0,0,214.42,72.26Z"/><path class="cls-1" d="M150,163.7a149.92,149.92,0,1,0,149.82,150A149.91,149.91,0,0,0,150,163.7Zm73.36,35.88a136,136,0,0,1,54.92,70.2,201,201,0,0,0-28.92-20.4C229.82,237.38,215.34,228.42,223.38,199.58ZM42.1,396.26a136,136,0,0,1,11.64-178.6c6.52,17.92,19.32,28.92,31,39C95.46,265.78,105,274,105.22,285.5c0,8.28-5,14.56-10.64,21.52a72.26,72.26,0,0,0-16.76,30.24,90,90,0,0,0-.72,22c.44,11.8,1,25.52-2.72,34.12C71,401.38,62.38,404.58,42.1,396.26Zm107.72,53.12v0a136.94,136.94,0,0,1-16.56-1,21.57,21.57,0,0,1,7.44-26.52c6.24-4.56,23.44.56,41.56,6,9.36,2.8,18.92,5.64,28,7.4A135.14,135.14,0,0,1,149.82,449.38Zm81.2-27c-11.32,2-28.44-3.16-44.88-8-21.56-6.44-42-12.52-54-3.8a33.64,33.64,0,0,0-14.36,35A135.39,135.39,0,0,1,60.14,415.5,25.35,25.35,0,0,0,87.46,399c4.92-11.44,4.32-26.92,4-40.2a85.85,85.85,0,0,1,.32-18.2,60.79,60.79,0,0,1,14-24.52c7.4-9,14-17.2,13.8-30.64-.32-17.92-12-28-25.36-39.44-11.44-9.84-24-20.72-28.6-38.6a135.57,135.57,0,0,1,145.16-15c-13.56,41.56,5.4,53.24,31.08,69.16,13.8,8.52,29.92,18.4,42.64,36.24A136.14,136.14,0,0,1,231,422.38Z"/><path class="cls-1" d="M239.88,42.55a7.11,7.11,0,0,0-4.3,1S216,55.14,197.82,53.14c-15.32-1.68-27,1.32-35.12,7.16a32.61,32.61,0,0,0-9.48,10.52,34.63,34.63,0,0,0-4,13.08,41.39,41.39,0,0,0,.6,13.32,72.64,72.64,0,0,1,13.44-11.36v-.4a20.4,20.4,0,0,1,2.4-7.72,18.33,18.33,0,0,1,5.4-5.92c5.4-4,13.76-5.84,25.32-4.56a74,74,0,0,0,34-5.68c-3.32,21.28-9,36-15.72,45.8a32,32,0,0,1-15.44,12.88,20.82,20.82,0,0,1-11.6.52,65.43,65.43,0,0,0-9.8,11.4l1.52.64a35.15,35.15,0,0,0,24.6.8,45.79,45.79,0,0,0,22.52-18.2c9.24-13.32,16.6-34.28,19.76-65.12A7.08,7.08,0,0,0,239.88,42.55Z"/></g></g></svg>