<svg xmlns="http://www.w3.org/2000/svg" viewBox="0 0 100.67 100.14"><defs><style>.cls-1{fill:#b1b1b1;}.cls-2{fill:#097080;}.cls-3{isolation:isolate;font-size:18px;fill:#fbfbfb;font-family:OpenSans-Bold, Open Sans;font-weight:700;}</style></defs><g id="Layer_2" data-name="Layer 2"><g id="Layer_1-2" data-name="Layer 1"><g id="Layer_2-2" data-name="Layer 2"><g id="Layer_1-2-2" data-name="Layer 1-2"><g id="Group_3600" data-name="Group 3600"><path id="Path_1402" data-name="Path 1402" class="cls-1" d="M74.47,17h0v-.06h0Z"/><path id="Path_1404" data-name="Path 1404" class="cls-1" d="M72.81,17h0v-.12h0v-.06l-.08.06h0Z"/><path id="Path_1406" data-name="Path 1406" class="cls-1" d="M72.83,16.82h0v-.1h0V16.6h0v-.12h0v.18h0Z"/><rect id="Rectangle_1556" data-name="Rectangle 1556" class="cls-1" x="72.27" y="16.76" width="0.02" height="0.02"/><rect id="Rectangle_1557" data-name="Rectangle 1557" class="cls-1" x="72.81" y="16.76" width="0.02" height="0.02"/><path id="Path_1410" data-name="Path 1410" class="cls-1" d="M72.71,16.64h0v.08h.06v-.06h0V16.6Z"/><path id="Path_1412" data-name="Path 1412" class="cls-1" d="M72.41,16.5h0v.06h0Z"/><path id="Path_1416" data-name="Path 1416" class="cls-1" d="M73,16.72h.06v.06h0Z"/><path id="Path_1419" data-name="Path 1419" class="cls-1" d="M74.37,17.06v.09h0V17h0Z"/><path id="Path_1420" data-name="Path 1420" class="cls-1" d="M74.33,17.27h0v.06h0Z"/><path id="Path_1421" data-name="Path 1421" class="cls-1" d="M74.24,17.21h0v0Z"/><path id="Path_1422" data-name="Path 1422" class="cls-1" d="M74.24,17.33h0Z"/><path id="Path_1423" data-name="Path 1423" class="cls-1" d="M74.25,17.23h0v-.06h0v.07h0Z"/><path id="Path_1425" data-name="Path 1425" class="cls-1" d="M74.91,17.53H75l.08-.12H75Z"/><path id="Path_1427" data-name="Path 1427" class="cls-1" d="M75.41,18.17v0Z"/><path id="Path_1429" data-name="Path 1429" class="cls-1" d="M75,17.45h.06v-.12H75Z"/><rect id="Rectangle_1558" data-name="Rectangle 1558" class="cls-1" x="75.46" y="18.13" width="0.02" height="0.02"/><path id="Path_1434" data-name="Path 1434" class="cls-1" d="M75.13,17.53h0v.08l.06-.06h0Z"/><path id="Path_1438" data-name="Path 1438" class="cls-1" d="M75.92,18.76h0v.06h0Z"/><path id="Path_1439" data-name="Path 1439" class="cls-1" d="M75.92,18.84l-.12.08h.06Z"/><path id="Path_1440" data-name="Path 1440" class="cls-1" d="M75.56,18.21h0v.06h0v-.06Z"/><path id="Path_1443" data-name="Path 1443" class="cls-1" d="M74.24,17.13v-.06h0Z"/><path id="Path_1446" data-name="Path 1446" class="cls-1" d="M74.53,17v.06h0V17h0v.08l.06.06h0l.08-.06h0v.08h.06v-.06h-.14Z"/><rect id="Rectangle_1559" data-name="Rectangle 1559" class="cls-1" x="75.25" y="17.63" width="0.02" height="0.02"/><path id="Path_1448" data-name="Path 1448" class="cls-1" d="M75.51,18.21h.07l-.08.06h0v.07h0Z"/><rect id="Rectangle_1560" data-name="Rectangle 1560" class="cls-1" x="70.35" y="15.67" width="0.02" height="0.02"/><path id="Path_1455" data-name="Path 1455" class="cls-1" d="M70.84,16v.12l.08-.06h0Z"/><rect id="Rectangle_1561" data-name="Rectangle 1561" class="cls-1" x="70.78" y="16.12" width="0.02" height="0.02"/><path id="Path_1457" data-name="Path 1457" class="cls-1" d="M69.3,15.33Z"/><path id="Path_1462" data-name="Path 1462" class="cls-1" d="M71.68,16.28h0v-.06h0Z"/><rect id="Rectangle_1562" data-name="Rectangle 1562" class="cls-1" x="71.38" y="15.95" width="0.02" height="0.02"/><path id="Path_1463" data-name="Path 1463" class="cls-1" d="M73.86,75.19H73.8v-.27h-.2V75h0V75h0l-.08.09h0v.08h.16v.06h.06v0h0Z"/><rect id="Rectangle_1563" data-name="Rectangle 1563" class="cls-1" x="73.12" y="75.07" width="0.02" height="0.02"/><path id="Path_1466" data-name="Path 1466" class="cls-1" d="M74.13,74.92Z"/><rect id="Rectangle_1564" data-name="Rectangle 1564" class="cls-1" x="69.59" y="76.46" width="0.02" height="0.02"/><rect id="Rectangle_1565" data-name="Rectangle 1565" class="cls-1" x="72.61" y="74.95" width="0.02" height="0.02"/><rect id="Rectangle_1566" data-name="Rectangle 1566" class="cls-1" x="69.57" y="76.44" width="0.02" height="0.02"/><rect id="Rectangle_1567" data-name="Rectangle 1567" class="cls-1" x="74.85" y="73.92" width="0.02" height="0.02"/><path id="Path_1472" data-name="Path 1472" class="cls-1" d="M74.33,74.27Z"/><rect id="Rectangle_1568" data-name="Rectangle 1568" class="cls-1" x="74.71" y="73.98" width="0.02" height="0.02"/><rect id="Rectangle_1569" data-name="Rectangle 1569" class="cls-1" x="74.61" y="73.88" width="0.02" height="0.02"/><rect id="Rectangle_1570" data-name="Rectangle 1570" class="cls-1" x="75.54" y="73.4" width="0.02" height="0.02"/><rect id="Rectangle_1571" data-name="Rectangle 1571" class="cls-1" x="75.56" y="73.36" width="0.02" height="0.02"/><rect id="Rectangle_1572" data-name="Rectangle 1572" class="cls-1" x="75.42" y="73.04" width="0.02" height="0.02"/><rect id="Rectangle_1573" data-name="Rectangle 1573" class="cls-1" x="75.39" y="73.06" width="0.02" height="0.02"/><rect id="Rectangle_1574" data-name="Rectangle 1574" class="cls-1" x="75.47" y="73.04" width="0.02" height="0.02"/><path id="Path_1484" data-name="Path 1484" class="cls-1" d="M75.37,73.46h0v.06h0Z"/><rect id="Rectangle_1575" data-name="Rectangle 1575" class="cls-1" x="75.62" y="73.02" width="0.02" height="0.02"/><path id="Path_1485" data-name="Path 1485" class="cls-1" d="M79,72.55h0Z"/><rect id="Rectangle_1576" data-name="Rectangle 1576" class="cls-1" x="77.39" y="72.75" width="0.02" height="0.02"/><rect id="Rectangle_1577" data-name="Rectangle 1577" class="cls-1" x="75.6" y="73.04" width="0.02" height="0.02"/><rect id="Rectangle_1578" data-name="Rectangle 1578" class="cls-1" x="77.27" y="72.85" width="0.02" height="0.02"/><path id="Path_1487" data-name="Path 1487" class="cls-1" d="M78.08,73Z"/><rect id="Rectangle_1579" data-name="Rectangle 1579" class="cls-1" x="79.11" y="73.06" width="0.02" height="0.02"/><rect id="Rectangle_1580" data-name="Rectangle 1580" class="cls-1" x="78.88" y="72.96" width="0.02" height="0.02"/><rect id="Rectangle_1581" data-name="Rectangle 1581" class="cls-1" x="82.98" y="71.32" width="0.02" height="0.02"/><path id="Path_1492" data-name="Path 1492" class="cls-1" d="M76.75,73.28h0v-.06h-.33v-.06h-.06l.06-.06h.08Z"/><path id="Path_1493" data-name="Path 1493" class="cls-1" d="M76.93,72.92Z"/><rect id="Rectangle_1582" data-name="Rectangle 1582" class="cls-1" x="78.82" y="72.98" width="0.02" height="0.02"/><path id="Path_1497" data-name="Path 1497" class="cls-1" d="M79.07,72.41Z"/><rect id="Rectangle_1583" data-name="Rectangle 1583" class="cls-1" x="65.31" y="85" width="0.02" height="0.02"/><path id="Path_1502" data-name="Path 1502" class="cls-1" d="M65.82,84.35h-.07v-.06h0v-.06h-.24v.08h-.08v.06h0v.12h0v-.06h0v-.14h0v-.22h.06V84h0Z"/><path id="Path_1504" data-name="Path 1504" class="cls-2" d="M100.67,32h0v0h0v-.06h0v-.12h0v.06h0v-.06h0v-.08h0v-.07h0l-.06-.06h0v-.61h0v-.06h0v-.64h0v-.3h-.06V29.8h0v-.21H100v-.06h0v-.35h0v-.12h0V29h-.3v-.24h.08V28.7h0v-.12h0v-.12h0v-.54h0v-.07h0v-.06h0v-.08h0v-.06h0v-.2h0L99,26.92h0l-.06-.06h-.28l-.13-.06h0l-.14-.05H96.86v.06h-.81v-.06H95.9l-.1-.1-.06-.06-.06-.06h-.12l-.1-.06h-.7l-.06-.06h0l-.06-.08h0v-.2h0v-.06L94.57,26h0L94.43,26h-.18l-.12-.1h0l-.06-.06h0L94,25.73V25.6l-1-.68h-.07l-.06-.06h0l-.1-.06-.06-.06-.1-.1-.06-.06h-.06l-.06-.06h0l-.12-.14h-.06l-.06-.12h0l-.06-.1v-.07h0L92.07,24h0L92,24v-.06h0l-.07-.06-.06-.06-.08-.14-.08-.12h0l-.08-.16h-.06v.06h-.12l-.1-.1H91.3l-.06-.06h0l-.08-.1h-.92l-.06-.06h-.06V23h0V23L90,22.9H90l-.06-.06v-.06h-.14l-.06-.08-.1-.12h-.47L89,21.71h-.12l-.06-.07H88.7l-.07-.06h-.08l-.08-.06h-.06V21.4h-.47l-.06-.06h-.06l-.06-.06h0l-.16-.36-.06-.06h-.2l-.08-.07h-.47l-.08-.06h-.66l-.1-.06H85.4l-.06.06h-.06v-.06H84.13l-.12.06h-.44l-.1-.06-.47.08h-.06l-.1-.1h-.06l-.08-.06v-.06h0v-.06h-.38L82,20.33h-.33v.12h0l-.06.06h-.1l-.1.06h-.26v.06h0l-.06-.06H80.7l-.06-.06-.12-.08-.18-.18h-.06v.14h0v-.06h0v-.06h-.06v-.06h-.08L80,20.12,79.74,20h-.16l-.23-.12-.16-.06h-.06l-.3-.08h-.41v-.06l-.12-.26h-.18l-.09.08-.12.08h0l-.08.18h0l-.08.06-.08.06h0l-.06.08V20l-.06.12-.08.08-.06.08h-.06l.06-.08.06-.16h-.06L77,19.92h-.1V20H77V19.9H76.3l-.2,0h0l-.1-.13h0v-.06h.06L76,19.61h0v-.14h0v-.06h0l-.06-.06h-.06v-.23h.06v-.06h0V19h-.06v-.06h0v-.1h0v.08h-.06v-.06h.06l.06-.06h-.06v-.06h0v-.06h0l.06-.1h0l-.5-.66h-.06V18h0v-.06h0V18h0v0h.06v-.06h0V18h-.06v.06H75v.06h.06l.06-.06h0v-.14H75V18h0V18h0V18h.08V17.9h0v-.06h0v.06h0v-.06l.06-.06h0l-.06.06h0v.06h0v-.06h0v.06h0V18H75l.06-.06h0L75,17.67h0v.06h0l-.06-.06h0v.06l-.06.06h0v-.06h.06v-.06h0v.06h0v-.16h0l-.06.08h-.09v.06h0l-.06.06h0v-.06h-.06v.06h0v-.14H74.1v-.06h0v.06h0v.14h0v-.06h.06l-.06.06h0v.06h0v.06h0v-.06H74V18h0v.07h0v0h0V18h.16v-.06h0l.06-.1h0v-.06h0v-.06h0v-.06h0v.1h0v-.06H74.2v0h.12v-.15h0v-.08h0v-.06h0l-.06.06h0v.12H74.2V17.5h0v-.06h0v-.06h0v-.12h0v.06h0V17.2h-.12v.1h0l.06-.06h0v0h0v0h0v-.07h0v-.06h0l-.06.06h0L73,16.92h0v0h0v-.16h-.06v.08h0V17h-.12V17h0l.1-.07h0v0h0v-.06H73v-.12h-.12v.12h0V17h-.07l.07-.08h0V16.9h0v.16h0V17h0v.16h-.07l.09-.06h0v.06h-.07v-.06h0v.12h0l.07-.06h.06v-.08h-.06l-.07.06h0v.06l-.06.14h0v.08h0v-.06h0v-.06H72v.08h0v.06h0v.1h0V17.4h0v.1h-.06v-.18H72v-.06l.07-.07h0l-.08.07h0v.06h0v-.1h0v.08h0v.08h0v-.06h0l.06-.06v-.1h0v-1h0v.14l-.08.06v.13h0v-.07h0v-.06h0l.06-.08h0v-.12h0v-.07h0V16H72v-.08h0V16h0v-.06h0V16H71v-.1h0V16h0v.06h0v-.12h0V16h0v-.06h0v-.06h-.12v.06h0v-.06h0v.06h0V16h0v.06h-.07V16h-.06v.06h0V16h-.06v.14h0V16h0V16h0v.06h0L70.63,16h0V16h0V15.9h.1v-.06h.06v.06h-.06V16h0V16h0V15.9h-.12V16h0v-.23h0v.13h.12v-.07h-.12v.07h0V16h0V16h0V16h0v-.1h0v-.06h0v-.07h-.38v-.06H70.1v.06h0v.35h0V16h0l-.06-.1h0v-.06H70v.06l-.08.16h0V16h0V16h-.06v-.07h-.06v-.12h-.06v.06h0v.08h0v-.06h0v-.06h0v-.06H67v.08h0v-.12l-.61-.22-.6-.2.06-.06V15l.1-.08h0v-.22h-.79l-.06-.06L65,14.6v-.07l-.93-.4H64L63.83,14l-.1-.16-.06-.12v-.18H62l-.16.06h-.26v-.73l-.08-.06v-.36h0v-1.1h0v.06h.06l.06-.1h.16l.06-.08h0l.07-.06h0v-.22h0v-.16h0v-.13l.06-.08v-.06h0v-.18l.06-.08v-.16h0V9.34H62l-.2-.12-.2-.3h-.15l-.18-.06L61,8.92l-.08-.23-.06-.16h0V8.35H60.8V8.29h0l-.25-.37V7.86h-.16l-.14.06h-.44V7.86h0V7.8h0V7.6h0V7.48h0V7.42h0V7.16h0V7.1h0V6.94h0V6.72h0l-.06-.06h0V6.43h-.06V6.36h0l-.06-.06V6.24h0L59,5.92v-.1h0V5.76h0V5.59h0l-.06-.06V5.37h0V5.31l-.16-.43V4.52h0V3.84h0V3.77h0V3.41h0v.14h-.06l-.12-.06h0v-.4h0l-.17-.17V2.79l-.06-.06h0l-.24-.26-.2-.2-.06-.06-.08-.08h-.06l-.07.18v.28h0v.2l-.36.13h0V3h-.2L57,3.08h0V3.3h-.12v.07h0v.12h-.06v.08h0v.12h0l-.06.06-.08.18h-.06V4h0l-.1.2v.06l-.08.1h0l-.06.1h0v.09h0l.06.06v.12h0V4.9h0V5h0V5h0L55,6.42v.15h0v.12h0v.08h.06v.06h0V6.9H55V7h-.06L54.87,7h0l-.14.1v.8h-.2V7.73h-.06v.06h0v.06h0v.07h0V8h-.25V7.92h.16V7.73h0l.06-.06H52.2V7.59h-.3v.06h0v.06h0l-1.11.21-.63-.08-.44-.32h-.14l-.08-.1V7.2l-.16-.07-.12.07H49L48.91,7,48.85,7V6.82h-.14l-.14.1-.1.06-.08-.06h-.14l-.08.1-.06.06h-.2l-.1.1v.06l-.1.08-.1-.06h-.48v.06h-.06V7.26h-.18V6.92h-.2V7H47v.94h.1V8h0V8h.12V8.1h0v.1h.06v.06h-.06l-.84.66h-.41V9H45.4v-.1h-.26v.06H45V8.88h-.18V8.73h-.09V8.35h0v.06h-.12v.06h-.06v.06h-.06v.06h0v.07h0v.06h0v.2h-.06V9h0V9h0v.1h0V9.2h-.18v.06h0v.06h0L41,9.72h-.13v-.1h-.06l-.06.06V9.6h-.12V9.54h-.08V9.6h0v.06h0V9.6h-.2v.06h.16l-.06.1h0V9.7h0V9.64h0V9.58H37.92V9.52h0V9.45H37.8V9.39h0V9.33h-.12V9.22h-.19v-.3h0V8.8h.08V8.68h0V8.33h0v-.1h0v.14h0V8.25h0v-.2h0V7.92h0V7.86h-.16V7.8h.1V7.74h-.06L36.1,6.92H36v-.2h0V6.66h0v-.1h0V6.3h0l0-.38V5.86h0V5.78h0V5.72h0V5.57h.06V5.51h0V5.45h0V5.39h0v.2h0V5.51h0V4.66h.06v-.2H36V4.4h.06V3.47h0V3.39h0V3.31h0V3.23H37.2v.22h-.06L37,2.92h-.32v-.3h0l.06-.08h0V2.48h0l-.06-.06h0V2.36h0v.06h0V2.36h0V1.92H35.46V1.86h0V1.79h.06V1.57h0V1.51l.08-.08h0v-.2h0V1.07h0V.54h-.06V.42L35.6.06V0h-.24V.06H35v0h-.06V.14h0V.08h-.38V.14h.16V.2h0V.26h0V.32h0V.38h0V.46h-.06l-.08-.1h-.15l-.06.06H33.6v.1h-.12V.59h-.12V1.92H33V1.85h-.12v.07h-.33V2h0v0h-.26V2H31.1V3h0V3l-.3,0h-.1V3h-.12V2.92h0V2.84h0l-.07-.06h-.08v.14h-.12V3H28.92V3H29V3.1h-.06v.13h0v.18h-.06V3.35H28.7l-.06.06h-.12v.07h0l-.06.06H28.4V3.48h0v.74l-.1-.06h0V4h0V3.92H28l-.06-.07h0V3.61h0V3.47h-.18l-.1-.06h-.06l-.57,0h.08L27,3.65v.06h0v.06h0V3.63h-.3l-.06-.06V3.51h0V3.45h0v.16h0l-.06.06h-.64v.06h0V3.67h0v-.1h-.08l-.06-.14-.06-.06h0V3.09L25.68,3l-.51-.09h0V2.85h0L25,2.92H24l-.08-.06-.08-.18-.08-.08-.22-.1h0l-.06.06V2.8l.06.06.06.06h.06V3l.06.06v.06h.12v.07H24v.12l.06.06.06.06.06.08.06.06h.24l.12.06h0l.09.06v.38h.06v.07l.1.1.06.06V4.5h0v.06l.12.1h0v.06h.06v.16l.06.18v.33h0l.06.06.1.08v.06l.08.08v.12h.08v.14h0l.08.07h0v.06h-.06v.86h0V7h0V7h0v.08h.06l.18.06h.15l.12.06h.31l.16-.06.24-.06h.23l-.07.08h0l.07.16v.12h0l.08.09h-.06v.35h0V8h-.29V8.1h0v.06h.08v.06h-.06l-.06.06h-.5v.06h0V8.28h-.2v.23h0v.41h0V9h0v.06h0v.06h0v.06h0v.07h0v.06h0v.06h-.13v.06h0L25,9.85h-.06v.07h-.1V9.86h0V9.8h0l.06-.06V9.61h-.08l.18.06h-.18l-.06.08h0v.06H24v.06h0v.07h0V9.87h-.06l-.06-.06h0V9.75h0v.06l-.1.06h0v.06h-.06v.39h-.06v.06h0v.07l-.07.06v.06h-.06v-.06h.08V11h0v0h0v.14h-.12v.1h-.06v.06h0v.06h0v.06h0v.06h0V11.4H21.7v.06h0v-.08h0v-.12h.06V11.2h0v-.07h0v-.06H21.7V11h0V11h-.06V11L21.58,11h-.06l.06.08h-.1v.06h-.12v.06H20.7v.07h0v.06h-.21v0h-.14l-.26.06L19,10.92l-.66-.58-.59.16V8.85l-.06-.06h-.18l-.08-.06h0v-.1l-.06-.26V8.15h0V7.89L17,7.81h-.17v.06l-.23,0h0v.14h0l-.06.14h-.2l-.12-.06H16l-.08.16h0l-.06.06-.07.06h-.06v.06h-.08l-.1-.1-.06-.06-.06-.06h-.06V8.2h0V8.14h0V8.2h0v.14h0v.1h.07v.14h.06v.06H11.82l-.08-.06h-.06l-.28.34h-.31L11,9h-.12v1.63H11v-.06h0l.06-.06h0v.1h.07l.06.06h.32v.06h.06l.08-.08H12l.14.12h0v.06h0v0h0v.06H12v.06h.06l.08.14H12v.84h-.06l-.1-.1h-.2v.1h0v-.06h-.06l-.58.06h0V12h-.13v.07h-.18V14h0V14h0l.14.12h0l.06.06h0l.06.06H11l.07.1h.06v.06h.18v.51h.06V15h0v.12h0V15h0v.12h-.06l.06.06h0v.06l.06.06h0v.14h0l.06.06h0v.07h0l-.06-.07h0v.07h0l.06.08v.1h0V17h-.06v.24h0v.09l-.18.94L11,19.67l0,1.25L10.63,23l-.12.67-.12.71h0v.18l-.06.06h-.18v-.06H10v-.06h0v.06h0V24.5H9.92l-.06-.06h.06v-.15h0v.06h0v-.06h-1v.06h0v-.12H8.79v-.06h-.3v.1h0v.12H8.43l-.06-.06H8.15v.06H8.09v.06h0v.06H8v.06H8v.07H7.6v-.07H7.54l-.06-.05H7.24v.4H7.16v-.06h0L7,24.92H7v-.06H7v.06H7v-.06H6.78l-.06.06h0V25H6.65V25H6V25H6v.21H6v.06H5.1v.07H5l-.06.06h0l-.06.06H4.73v.06H4.2v.06h0v.12H3.94v.06h0v-.18h0v.06H3.63l-.06.06h.08v.06H3.53v.06H2.8v.06h0V26h0V26h0v.06h0v.07h0v.14h0v.08h0v.06h0v.1H2.74v.06h0v.06h0v.06H2.68v2.21H2.62V29h0v.15h.24v.1h0l-.06.06v.1l.08.08v.12h0v.06h0l.06.06v.08h0v.08h0V30h0V30h0v.07h0v.06H1.69v.07H1.25l-.08-.5v.06H1.05L1,30.92H1L.94,31h0l-.06.08h0v.06h0v.07h0l-.07.06v.06h0v.16h0l-.08.1-.23.35h0V32H.56v.14h0L.5,32.2l-.08.06H.59V32.2H.3l-.06-.06h0l.06.12h0v.08h0l-.06.09H0v.08H0l.1.1.06.06H.22v.06l.06.06H.42v.12H.54L.63,33h0v1h0v-.07h0v.07h0L.71,34h0V34H.77v.08H.83l.06.06v.06h0v.06h0v.06h0v.06h0v.06h0v.07h0v.06h0v.08l.06.06h.14v.12h.12v.28h0v.06h0v.71h.06V36h0v.16l.06.07v.12h0v.06h0v.06h0v0h.06l.06.16h.06v.06h0v.14H1.43l-.24-.12-.06.08H1v.06H.94v.09H4V37h.06v.16h.06v.12h0v.12h0v.07h.12l-.06.06h0v.06h0v.06h0v.08h2v-.06h0l.06.06h.84v-.32h0v-.06H7.7v-.07h0v-.08H8v-.06h.12v.8H9V38H9v.07H8.81v.08h0v.08h0v.06H8.75v.06h0v3.11L9,41.27H9v.07h.06v.06H9.8V42h.52v.06h2.52v.06l.28-.06h.49V42h0V42h0V41.9h0v-.06h0v-.07h.12l.06-.28h.06l.06-.06h0l.07-.06v-.06l.06-.08h.2v-.06h0v-.06h0v.1h0v-.06h0v-.06h.36v.06H14.5v.06h.12V38.92h5.51V39h.08V39h0l.06-.06h0v-.06h.1v-.06H21.5v.06h.06l.06-.06h0v.06h.06v-.06h0V38.8h.06v-.14h.13l.14.06.06.06h0V39l.06.06h0v.06l-.08.08v.17h0v.18h0v.06h0v.16h0v.06h-.34v.1l-.07.06-.06.06h0v.27h-.06v.06h0v.12l.48.44h.12v.37h0v.06h.07l.1.14v.14h-.07v.12l.07.06h-.07l-.08.06h0v.07H22L22,42h0v.1h0v.22h0v.34h.18v.06l-.06.06h0v.07h0v.06l-.06.06h0l.06.06.1.06h0v-.35h.2l.06.16v.16h0v.06H23v.19h.07v.06h0v-.06h0v.06h0l.08-.06h.12v.06h0v.06h0l.06-.06h.06v.08h.06v-.18h.06v.2h.07l.14.06h.1v.06h.06v.24h0v.06h.06V44L24,44h1v1.9h.06l.06-.06h0v.06h.06v-.06h0v.06h0V46h0l.07.06h.12v-.18h.12V45.8h.38l1.13.12h.12l.06.1.06.06h.16v.06h-.06v.06l.06.06h.66v.06h.18v.06h0v.1h0v.06h0v.06h.06v.07h0v.06h.06v.2h.07v-.06h0v-.34h.06v.06h.06l.14.06h0l.06.06h.06v.06h0v.06h0v0h0v-.06h0v-.06h0v.06h0v-.08h0v.06h0v.08h0v.06h0v1h0V48h0v.12h.06v.19h0v.06h0v.08h.06v.06h.12v.06h.53v-.06h.06v.06h.06v.06h.06v-.12h.13l.06.06h.14v.37h.06V49h0v-.14h5.79l-.06.06H36V49h0V49h.06L36,50h0v.06h0v.08h0v.76h0V51h.12v.08h.12l.37,1.84h-.83l.83,1,.08,1,.08,1h1.8l1.75.06.91.06h.06v-.1h.2v.18h-.06v.21h0v.06h-.06v.06h-.06l-.06.16h0v.1h0v.06h0v.06H39.86V57h0V57h0v.06h0v.08h0v.09h.06l-.06-.55v.14h.06v.06H40V57h.22V57h0v.09h.08v.06h.06l.25-.16.32.28h-.08v.06h0v.08h0v.06h0v.1l.1.08v.06H42l.32.59v.22l.18.16h-.26l-.54,1.69H42v.2h0v.07h-.2l-.27.56-.38.79-.26.54.71.55h0l-.07.08v.06L41.31,63h0v.06H41v.08h-.16v.06H40.6v.06h.12v.26l.06.06h.1l.06.1h0l-.06.09v.06l.06.16v.13L41,66.92h.06v.18h.08l.06-.1h0l.06.08h-.1v.09h.06l.08.06h0v.06l-.1.06v-.12h0v.06h0v.08h0l-.06.08h-.06v.06l.06.08-.06.08h0v.23h0l-.16.1H41v.06h0l-.1.12v.14h0v.06h0v.18h0v.12h0l.1.06h0l-.1.06h0v1.12l-.06.1h-.12l.14.06h-.06v.12h0v.08l-.09.06h0v.08h0v.06h.19v-.06h.18v.08h.25v-.32h.06v.06h.06v.68h3.75V71h0v.14h.69v.12h.12v.13h0l.06.14h.13l.06.06v.06h0v.06h0v.12h0v.1h0V72h0V72h0v.07h0v.06h0v.06h0v.06h0v.1h.06v.06l.06.06h0v.06h-.06v.06h.06v.06h0v.08l-.08.1h0v.07h0V73h0v.08h.06v.06h0v.06h0v.06h0v.13h0v.1h0v.06h.06v.06h0l.06-.08H50v2.4h.23v-.06h.12l.06.06h.08V76h0l.06.06h.06l.06.06-.06.06-.06.06v.07h0v.26l.08.08v.2h0v.08l-.06.06-.06.06v.31h0v.4h0v.06l-.06.16v.37l-.06.14V79h0V79h0v.41l-.06.08h-.06v.06h0l.73.33h0V80h.06v.3h.18l.06.06v.08h0v-.06l.08-.06h0v-.06h.06l.06-.08.09-.06h0v.06h0V80.1h0l.06.06h.14l.06-.06.08-.06h0v.06l-.06.08h0v.14h0v-.14H52v.06h-.17v.06h.06v.06h.06v.06h.12v.06h0v.07h0v.06h0v.06h0v1.08h0v.06h0v.06h0v.06H52V82h0l.06.06H52l-.08,1.87h0V84h0v-.08h0l-.06.06h0V83.9h-.06V84h0v.1h-.54v.12h-.06v.07H51v-.39h0V84h0v.21h-.06v.06h-.06v-.06h0v.12h0l-.06-.06h-.1v-.06l-.06-.07h0l-.06.09v.06h0v-.08h0v.06h-.16v-.1h0l-.06.1v.14H49v.22l-.06.06h-.06v.06h0l-.09-.06h-.06l.12.06h-.18v.06h0v-.06h0l-.1.08.06-.1H48.5v.06h-.06v.06h0l-.1.06-.06.06h-.06v-.06h0V85h-.06V85H48.1l-.1.08h-.1v.06H48l.06.06.08.06h0L47,86.92h0v-.06h-.34l-.06.1v0l.06.12h-.29v.21h-.06l-.2.16-.06.06v.06l-.06.08h-.26v.25h0l-.06.06h-.12V88l.06.06v.16h-.18l-.07.06h-.14v.1l-.06.08-.06.1v.12l-.12.23h-.1v.18l-.06.06h-.06l-.76.79-.12.06-.07.1-.08.06-.06.06-.16.2-.12.1-.06.06h-.39l-.12.1-.08.14h0V91l-.07.06-.16.08-.06.07-.06.06v.08l-.06.06-.18.1H42l.12.06h0v.1h.12v-.06h.38v.06h.06v-.06h.06v-.06H43l.06-.06h.16v.06h.12v.06h.06l.06.06h0v.06h.06v.06h0v.06h2.5v.06h0V92h0V92h0v.06h0l-.06.06v.07h0v.06h0v.06h0v.24h.18v-.06h.06v-.06h.22v1.46h.2V94h0V94h0v.06h-.58v.09h.26v-.06h.24l.07.06h.49l.07.1h0v.06h0l.76.56h.28v2h.06V97h0V97h.13v.06h.06v.06h.06v.06h.34v-.14h.38l.13-.08.06-.06v-.85H49.1V96h0V96h0v-.1l.06-.06h.14l-.08.12-.06.16V97l.12.19.08.18h0v.08h0v.2h0l-.18.32V98l-.12.19-.06.06-.08.06h-.26l-.07-.06h0l-.06-.06H54v-.06h0l-.12.12v.06h0v.24h0v.14h0l-.1.14-.08.09V99h-.1l-.6-.1-.06.06h0v0h0v.06h0l-.1.26.06.3v.06h0v.2h0V100h-.06v.06h0v.06H53l.24-.18h.08l.25-.18.28-.24.62-.5.14-.14.2-.22.09-.13.08-.12v-.1l.06-.12h0l.1-.18h0l.1-.26v-.16h0v-.27l.12-.3.06-.16.06-.12v-.08l.12-.16.08-.1.12-.1.08-.06.1-.06V96h-.1v-.07h0v-.1h-.12l.24,0h0v-.06h0v-.08h0l.06-.06.1-.06h.18v-.06h0v.06h-.06v-.1h.15v.1h0v-.2h0v-.51h.47v-.26h.34l-.06-.12v-.3h.24V92.68h.08v.07h0v.1h.06v-.63l.08-.18V92h0v-.06h.16v0h-.12v-.2h-.06V91.6h-.06v-.06h0v-.06h0v-.06h0v-.06h0v.06h.2v.06H58l.12.06h0v-.08h0v-.08h.37v.48H60v-.14h.12l.06.12h0v.06h0V92h-.06v.08h0v.12h0l-.12.09v-.06h0l-.06-.1h0v-.06l.06-.13h-.1L60,92v.83l-.08.14h0l-.16.06h-.06l-.06.06h-.23v.08h0v.13h-.24V94.5l-.06.13-.1.12-.06.06h-.34v-.06h0v.14h0v.19h-.06V95h-.06l-.1.16-.12.14-.19.16H56.72l-.14-.08h-.17l-.06-.06h0l.06.06h.06v.06h0v.16h0l-.06.06h0l.25-.26.14-.14.1-.08.1.72.26-.14.25-.1.24-.14.16-.09.18-.12.2-.14.18-.14h0l.06-.08h0l.14-.1.2-.18.24-.2h0l.12-.1.1-.1h0l.06-.09h0l.06-.08h0v-.06l.16-.24h0l.28-.38.23-.33L60.2,93l.16-.2h0l.08-.14.06-.12.06-.12.06-.2v-.12h0v-.16l.1-.29v-.16l.06-.16.1-.24V91l.06-.12.07-.12.06-.15.06-.14h0v-.06l.3-.43.14-.16.06-.06h0l.06-.06h-.1v.06h.1l.19-.24.32-.38h0l.2-.23.12-.12.12-.1h0l.06-.06.26-.2.29-.16.2-.14.22-.12.14-.06h0v-.12h0v-.12l.06-.07h0V87.6l.06-.12.08-.06h-.12v-.08h0v-.06h0V86h0v-.2h0V85.7H64v-.06h0v-.06h0v.16h0v-.82h-.12v-.08h0v-.07h.06v-.06h0v-.06h-.07v-.12h0v-.91h0v-.06h-.06V83.5H63.7l-.06-.06v-.06h0v-.06h0v-.06h0V83.2h0V83h.06V83h-.06v-.15h0v0h0v-.07l.06-.1v-.08l.06-.06h0v-.06l.06-.12v-.08l.06-.1.06-.12h0V82h-.1V80.82h0V80.6h0v-.18h0v-.1L64,80.1l.09-.16.06-.08.08-.06H66v-.07h0v-.48h.18v-.08l.06-.06.06-.1.06-.06.08-.06h0l.19-.18.14-.1.06-.06h.06v-.07h0v-.06h0v-.06H67v-.12l.08-.1.18-.16.33-.24.08-.06.22-.14.1-.07h.12l.08-.06h0l.36-.22h.07v-.27l.06-.06h0l.1-.06.12-.08H69v-.08l.16-.14.12-.06.18-.12h.06l.2-.1.27-.16.28-.13.1-.06h.16V76h.15V76h.12v-.08h-.14l.1-.06h.12l.18-.06h2v-.89h.18v-.06h-.06v-.27h0l.06-.06h1v.06h0v-.06h0l-.32.08h0v-.06H74v.06h1.19v.06h0l.06-.06h0v-.06h-.06l-.24.08h-.13v.06h0v-.08h-.12v-.06h0v.06h-.06v.06h.2v-.06h0v.06h0v-.06h.3l.09.06h0v.06h.24L79,72.92h.22v-.06h0V72.8h.27v.06l-.08.06H82v-.06h0V72.8h0v-.14H82V72.6h0v-.06H82v-.29h0v-.1h0v-.06h0v.06h0l.06-.06h.12l.12-.1.18-.08h.12l.1-.06.15-.06H83l.34-.08.12-.06h.1l.12-.06.06-.07.12-.08.08-.06.1-.06h0v-.21l-.06-.3-.06-.18v-.29h-.06l-.06-.1h0v-.07l.06-.06h0l.06-.06V70h0v-.08h0v-.34l.06-.12v-.06h.13l.06-.23h0V69.1h0V69h0l.06-.06h0v-.06h.06v-.06h0l.06-.06h.06v.06h0v-.12h0v-.06h.08l.06-.07v-2l.06-.1v-.06h0v-.08l.07-.14h0v-.06l.06-.08h0V66h0V66l.06-.06v-.06h0v-.27l-.06-.06h.06v-.06h.06v-.12h0v0l.06-.06.1-.1.12-.1h.06l.1-.06h.14v-.06l.09-.18.09-.24.08-.26v-.32h-.42v-.19L88,62.43v-.88h0v-.43h0l.08-.16V60.9h0v-.06h0l.06-.1h0l.12-.22.08-.12h.06l.06-.14.06-.13.06-.06.06-.06.13-.06h.06l.14-.06h0l.14-.14h.06v-.06l.12-.1h0l-.12-.16v-.1h0V58.24h0v-.06h0v-.1l.06-.08v-.1l.06-.1h0v-.33h0v-.3l.06-.1h0V57h0l.06-.08h0v-.08h0v-.08h0v-.06h0l.06-.06h0v-.06h0v-.07h0v-.16h0v-.1l.06-.12.07-.24.06-.08h0l-.06-.14h0v-.12h0V55h0l.4-1.76V53h0V52.1h0v-.36h0v-.06h0v-.51h0v-.61h0v-.08h0V50.1l.06-.16h0V49.8h0v-.3h0L90,49.42v-.5h0l.06-.06h.06l.06-.06h0v-.06H90v-.08h.06V48.6h0v-.08h0l-.06.06h0l0-.66v-.2h0v-.18h.24v-.06h0l.06-.06h0v-.06h0V47.3h0v-.13h.14v.06l-.06.13h.27l.06-.07.08-.06h.1l.06-.06.06-.08.06-.06h0v-.12l.06-.06.06-.06h.06l.12-.16.08-.09v-.06h0V46.4h0l.07-.08v-.18l.06-.08.06-.09h0l.1-.16.14-.18.06-.06.16-.27h0v-.12l.07-.08.06-.1v-.08l.14-.28.12-.28L94,43.42l.2-.38.06-.1.1-.1h.06l.06-.2.09-.16.14-.16.14-.16h0l.06-.15.2-.26.06-.08h0l.08-.12.07-.1.06-.08.22-.22h0l.08-.08.2-.15.12-.06.06-.06.08-.06.1-.06.2-.08h.24v-.08h0l.1-.22.22-.38h0v-.1h0l.06-.06.08-.06.06-.09h.06v-.06h0l.06-.08h0l.06-.12.06-.1v-.06l.06-.1.1-.08v-.14l.06-.08.1-.12h0l.07-.07h0l.06-.08H98v-.06h0v-.6h0V37.8h0v-.06l1-.22h0v-.1h0v-.14h0l.06-.07h.12v-.06h0l.06-.06V37h0V37h0v-.06h0v-.06h0v-.06l.06-.06h0v-.13h0v-.1h0v-.12l.06-.06h0V37l.06-.06h0V36.9h0l.07-.08v-.06h0V35.52h0v-.06h0V35.4l.06-.16h0v-.08h0v-.07l.06-.08h-.49v-.18l.06-.18.07-.12h0l.06-.06v-.55h0v-.08h0v-.4h0v-.16h0v-.06h0v-.06h0v-.71h0v-.06h0v-.06h0v-.14h0ZM62.36,87.3h0v-.06h0v.06ZM61.4,89h0v-.1h0V89Zm.68-1.9v.06h0v-.06Zm-.1,0h0V87h0v.06Zm-.16,1.26h0v-.11h0Zm0,.1ZM61.62,87Zm.63.14h0v-.07h0v.07Zm-.54.73h0v0Zm0,.08v0h0Zm0,.3h0Zm.1-1.21Zm-6.08-3.12h0Zm5.57,5h0Zm.46-.36h0Zm11.7-71h0v-.06h0Zm-1.13-.77Zm-.16-.08h0v.06h0Zm-19.51,67H52.6l-.06-.06H52.3v.08h0v-.08h.2l.06.06h.1Zm1.34.06h0v-.06h0Zm0-.16h0v.06h0v-.06Zm.14.08h0Zm.1-.06h0Zm.92.26h-.08v-.06h-.14v-.06h0v.14h0v-.06h0v.06h0v-.06h0v.06h.14V84h0Zm.14-.14-.08.06h0l.08-.06Zm.13.2h0l-.09,0v-.06h0v.06l.07.06h0Zm.24.06h0V84h0V84Zm.2,0V84h0Zm.13-.1h0V84h0v-.06Zm.16.06Zm.2.12Zm.06,0Zm.1.12h.1l.06.06h0l-.06-.06Zm.26.28h0v-.14h0v.14Zm.23,0h0L57,84.46h0Zm0-.1Zm.22,0h0v.06h0v-.06Zm.12.1h0Zm.14,0v.06h0Zm.3.14Zm0,.08Zm.36.14Zm.1.13Zm.3.2h0Zm.16,0Zm.33.34h0v.06h0v-.08h0v.08h0v-.06Zm.1.1h0Zm0,.18h0Zm.18.1-.06.06h0v-.06h.06Zm.06.06Zm.28.32h0l-.08-.06h0v-.1h0v.12h0l.08.07Zm.06.07h0l.06.06h0Zm.08.14h0Zm.29.2h0v-.06h0v.06Zm.46,0h0v.06h0Zm.26.06h0ZM61.28,89Zm.54-.24Zm.24.2h.06l.06.06h0Z"/><path id="Path_1508" data-name="Path 1508" class="cls-1" d="M58.67,92.24h0v-.08h0Z"/></g><g id="LGPD-2"><text class="cls-3" transform="translate(36.75 41.5)">LGPD</text></g></g></g></g></g></svg>