<?xml version="1.0" encoding="utf-8"?>
<!-- Generator: Adobe Illustrator 24.1.1, SVG Export Plug-In . SVG Version: 6.00 Build 0)  -->
<svg version="1.1" id="Layer_1" xmlns="http://www.w3.org/2000/svg" xmlns:xlink="http://www.w3.org/1999/xlink" x="0px" y="0px"
	 viewBox="0 0 512 512" style="enable-background:new 0 0 512 512;" xml:space="preserve">
<style type="text/css">
	.st0{fill:#F2F2F2;}
	.st1{fill:#6CC2BF;}
	.st2{fill:#FFFFFF;}
	.st3{fill:#D0D1D3;}
</style>
<circle class="st0" cx="256" cy="256" r="256"/>
<path class="st1" d="M292,509.5c100.4-14.1,182.1-86.5,209.8-181.9L361.9,187.6l-49.4,3.8l-60-60l-24.1,18.9l-3.2,4.3L183,194.7
	l75,75l-144.2,61.5L292,509.5z"/>
<path class="st2" d="M113.8,331.2c0-57.8,46.9-104.7,104.7-104.7s104.7,46.9,104.7,104.7H113.8z"/>
<path class="st2" d="M220.1,226.6v104.7h103.1C323.2,273.9,277.2,227.4,220.1,226.6z"/>
<circle class="st2" cx="220.2" cy="165.7" r="47.2"/>
<path class="st2" d="M220.2,118.5C220.1,118.5,220.1,118.5,220.2,118.5l-0.1,94.3c0,0,0.1,0,0.1,0c26,0,47.2-21.1,47.2-47.2
	C267.3,139.6,246.2,118.5,220.2,118.5z"/>
<path class="st2" d="M378.6,304.5h-15.5v-80.6c0-17.9-14.6-32.5-32.5-32.5c-17.9,0-32.5,14.6-32.5,32.5v80.6h-15.5v-80.6
	c0-26.5,21.5-48,48-48c26.5,0,48,21.5,48,48L378.6,304.5L378.6,304.5z"/>
<path class="st3" d="M330.6,175.9c-0.1,0-0.1,0-0.2,0v15.5c0.1,0,0.1,0,0.2,0c17.9,0,32.5,14.6,32.5,32.5v80.6h15.5v-80.6
	C378.6,197.5,357.1,175.9,330.6,175.9z"/>
<path class="st2" d="M387.3,372H273.8c-6.7,0-12.2-5.5-12.2-12.2v-90.5c0-6.7,5.5-12.2,12.2-12.2h113.5c6.7,0,12.2,5.5,12.2,12.2
	v90.5C399.5,366.6,394.1,372,387.3,372z"/>
<g>
	<path class="st3" d="M387.3,257.1h-56.9V372h56.9c6.7,0,12.2-5.5,12.2-12.2v-90.5C399.5,262.6,394.1,257.1,387.3,257.1z"/>
	<path class="st3" d="M347,304.2c0-9-7.3-16.4-16.4-16.4s-16.4,7.3-16.4,16.4c0,6.1,3.3,11.3,8.2,14.2v18.3c0,4.5,3.7,8.2,8.2,8.2
		s8.2-3.7,8.2-8.2v-18.3C343.7,315.5,347,310.2,347,304.2z"/>
</g>
<path class="st2" d="M330.6,287.8c-0.1,0-0.1,0-0.2,0v57c0.1,0,0.1,0,0.2,0c4.5,0,8.2-3.7,8.2-8.2v-18.3c4.9-2.8,8.2-8.1,8.2-14.2
	C347,295.1,339.6,287.8,330.6,287.8z"/>
</svg>
