<svg xmlns="http://www.w3.org/2000/svg" xmlns:xlink="http://www.w3.org/1999/xlink" viewBox="0 0 884.95 856.97"><defs><style>.cls-1{opacity:0.5;}.cls-2{fill:url(#linear-gradient);}.cls-3{fill:#fff;}.cls-4{fill:url(#linear-gradient-2);}.cls-5{fill:url(#linear-gradient-3);}.cls-6{fill:#41a8a1;}.cls-7{fill:url(#linear-gradient-4);}.cls-8{fill:url(#linear-gradient-5);}.cls-9{fill:#69f0ae;}.cls-10{fill:#e0e0e0;}.cls-11{fill:url(#linear-gradient-6);}.cls-12{fill:url(#linear-gradient-7);}.cls-13{fill:#be7c5e;}.cls-14{fill:#fda57d;}.cls-15{fill:#333;}.cls-16{fill:#39ccc2;}</style><linearGradient id="linear-gradient" x1="750.11" y1="96.41" x2="750.11" y2="804.54" gradientTransform="matrix(1, 0, 0, -1, -294.9, 878.96)" gradientUnits="userSpaceOnUse"><stop offset="0" stop-color="gray" stop-opacity="0.25"/><stop offset="0.54" stop-color="gray" stop-opacity="0.12"/><stop offset="1" stop-color="gray" stop-opacity="0.1"/></linearGradient><linearGradient id="linear-gradient-2" x1="750.78" y1="757.59" x2="750.78" y2="817.61" gradientTransform="matrix(1, 0, 0, -1, -434.88, 909.08)" xlink:href="#linear-gradient"/><linearGradient id="linear-gradient-3" x1="750.78" y1="805.35" x2="750.78" y2="876.28" gradientTransform="matrix(0.91, -0.42, -0.42, -0.91, -40.31, 1149.64)" xlink:href="#linear-gradient"/><linearGradient id="linear-gradient-4" x1="577.33" y1="580.23" x2="577.33" y2="687.17" gradientTransform="matrix(1, 0, 0, -1, -355.37, 967.2)" xlink:href="#linear-gradient"/><linearGradient id="linear-gradient-5" x1="577.69" y1="368.31" x2="577.69" y2="475.25" gradientTransform="matrix(1, 0, 0, -1, -267.45, 947.93)" xlink:href="#linear-gradient"/><linearGradient id="linear-gradient-6" x1="577.33" y1="608.11" x2="577.33" y2="660.61" gradientTransform="matrix(0.91, -0.42, -0.42, -0.91, -40.3, 1149.64)" xlink:href="#linear-gradient"/><linearGradient id="linear-gradient-7" x1="599.6" y1="248.88" x2="599.6" y2="755.21" gradientTransform="matrix(1, 0, 0, -1, -157.12, 835.06)" xlink:href="#linear-gradient"/></defs><title>Asset 1</title><g id="Layer_2" data-name="Layer 2"><g id="Layer_1-2" data-name="Layer 1"><g class="cls-1"><rect class="cls-2" x="198.96" y="74.42" width="512.51" height="708.13" transform="translate(-136.77 227.56) rotate(-24.52)"/></g><rect class="cls-3" x="204.39" y="79.87" width="499.47" height="692.48" transform="translate(-135.89 226.89) rotate(-24.52)"/><rect class="cls-4" x="192" y="91.47" width="247.78" height="60.02" transform="translate(-21.93 142.06) rotate(-24.52)"/><path class="cls-5" d="M279.09,40.81c-17.4,7.94-24.92,28.82-16.79,46.64s28.83,25.83,46.23,17.89,24.92-28.82,16.79-46.64S296.49,32.87,279.09,40.81ZM302.3,91.69a20.47,20.47,0,1,1,9.48-27.35l.21.44A20.23,20.23,0,0,1,302.3,91.7h0Z"/><rect class="cls-6" x="194.08" y="91.63" width="242.56" height="57.38" transform="translate(-21.49 141.73) rotate(-24.52)"/><path class="cls-6" d="M280.17,43.19A33.91,33.91,0,1,0,325.09,60h0A33.91,33.91,0,0,0,280.17,43.19Zm22.19,48.65A19.56,19.56,0,1,1,312,65.92a19.56,19.56,0,0,1-9.68,25.92Z"/><rect class="cls-7" x="168.49" y="280.02" width="106.94" height="106.94" transform="translate(-118.39 122.19) rotate(-24.52)"/><rect class="cls-8" x="256.77" y="472.68" width="106.94" height="106.94" transform="translate(-190.38 176.2) rotate(-24.52)"/><rect class="cls-9" x="172.4" y="283.94" width="99.11" height="99.11" transform="translate(-118.39 122.19) rotate(-24.52)"/><rect class="cls-6" x="259.54" y="474.95" width="99.11" height="99.11" transform="translate(-189.8 175.58) rotate(-24.52)"/><rect class="cls-10" x="314.34" y="240" width="135.85" height="9.48" transform="translate(-67.1 180.71) rotate(-24.52)"/><rect class="cls-10" x="316.26" y="234.58" width="224.31" height="9.48" transform="translate(-60.68 199.38) rotate(-24.52)"/><rect class="cls-10" x="322.86" y="250.79" width="208.51" height="9.48" transform="translate(-67.53 200.3) rotate(-24.52)"/><rect class="cls-10" x="401.48" y="431.03" width="135.85" height="9.48" transform="translate(-138.52 234.11) rotate(-24.52)"/><rect class="cls-10" x="403.39" y="425.6" width="224.31" height="9.48" transform="translate(-132.1 252.77) rotate(-24.52)"/><rect class="cls-10" x="410" y="441.82" width="208.51" height="9.48" transform="translate(-138.95 253.69) rotate(-24.52)"/><polygon class="cls-11" points="199.04 337.45 222.26 344.99 229.9 300.3 241.2 303.39 228.49 358.64 193.47 343.29 199.04 337.45"/><polygon class="cls-3" points="202 336.86 222.19 343.41 228.83 304.55 238.65 307.24 227.6 355.28 197.15 341.94 202 336.86"/><polygon class="cls-3" points="289.68 529.07 309.87 535.62 316.51 496.76 326.33 499.45 315.28 547.49 284.83 534.15 289.68 529.07"/><rect class="cls-10" x="396.62" y="594.57" width="316.9" height="105.63" transform="translate(-218.61 288.74) rotate(-24.52)"/><path class="cls-6" d="M635.51,610.17c-11.08-3.16-22.42-2.56-26,10.11-1.19,4.27-1.33,10.9-5.91,13.1-6.74,3.24-14.87-3.24-20.72-5.88-10.9-4.92-22.09-1.57-28.4,8.77-3.2,5.24-4.57,11.27-5.66,17.24-.47,2.59-.53,5.79-1.62,8.23-2.09,4.67-8.63,4.25-12.92,4.07a27.91,27.91,0,0,1-2.86-.21,25.32,25.32,0,0,0,4.8-16.13c-.28-9.47-6.43-19.83-17.18-18.67-9.63,1-16.41,10.3-15.33,19.71.92,8,6.13,14.2,12.81,18-3.28,1.45-6.78,2.58-9.88,4.08a40.33,40.33,0,0,0-4.21,2.35c-9.37-4.52-21.68-5.37-30.11-.76-4.08,2.23-1.1,8.86,3,6.61,6.42-3.51,13.5-2.63,20.21-.4l.56.2a17.91,17.91,0,0,0-1.75,2.71c-3.79,7.36,0,19,9.22,19.8,13,1.11,13.61-16.07,6.55-22.91-.3-.29-.6-.57-.92-.84,2.92-1.41,6.08-2.47,8.87-3.66a37.26,37.26,0,0,0,6.9-3.84l.5.13c9.93,2.25,25.43,2.95,29-9.08,3.06-10.44,3.35-32.61,19.85-30.56,6.73.83,12.25,6,18.65,7.87,5.73,1.71,12.36,1.78,17.06-2.44,3.88-3.48,4.75-8.62,5.94-13.42.61-2.48,1.21-5.44,3.23-7.21,3.65-3.19,9.68-1.31,13.75-.15C637.44,618.25,640,611.45,635.51,610.17Zm-129,84.59c-2.19,2.17-4.51.45-5.68-1.82-1.42-2.76-.81-5.48,1-7.91a13,13,0,0,1,.95-1.14c4.33,2.8,7.87,6.81,3.77,10.87Zm7.68-54c4.5-4.18,10.77-3.26,13.45,2.48s1.5,13.84-2.26,18.9a16.14,16.14,0,0,1-1.65,1.86,21.19,21.19,0,0,1-7.13-4.07c-5.32-4.8-8.33-13.67-2.37-19.2Z"/><path class="cls-12" d="M695.48,221.7l-80.72,31.47c-15.18-1.13-47.12-5.25-78.82-20.2-35.29-16.64-75.72-16.6-110,.83-79,1.89-122.48-8.23-145.68-17.81l6.12-12.56-81.82-31.9L0,79.85V455.61l71.59,31.9L110,395.39l84.33,39,16.19-41.14,55.37,41.09,3.77,3.17-5.19,5.39a27.06,27.06,0,0,0,0,37.21h0a24.64,24.64,0,0,0,34.83,1c.33-.32.66-.64,1-1l-2.84,3a27.06,27.06,0,0,0,0,37.21h0a24.64,24.64,0,0,0,34.83,1c.33-.32.66-.64,1-1l16.4-17.05h0L338.36,515a27.06,27.06,0,0,0,0,37.21h0a24.64,24.64,0,0,0,34.83,1c.33-.32.66-.64,1-1l16.19-16.83h0l-6.81,7.08a18.9,18.9,0,0,0,0,26,17.22,17.22,0,0,0,24.33.67l.67-.67,10.8-11.22c18.55,13.55,33.56,23.44,40.91,26,30.63,10.62,30.63-10.65,30.63-10.65,40.91,21.26,61.37-21.26,61.37-21.26,51.14,21.26,51.14-31.9,51.14-31.9,12.78,8.86,22,4.8,28.44-3,8.77-10.58,9.84-25.51,3.82-37.49l48.88-45.17L705.67,477,790,438l38.4,85.13L885,497.84V126Z"/><polygon class="cls-13" points="681.9 418.47 592.88 497.59 523.65 369.01 681.9 329.45 681.9 418.47"/><path class="cls-14" d="M256.6,210.76s28.57,39.56,197.81,29.67l98.91,148.36,66.28,74.57c10.41,11.72,11,29.49.78,41.37-6.21,7.21-15.14,11-27.5,2.75,0,0,0,49.45-49.45,29.67,0,0-19.78,39.56-59.34,19.78,0,0,0,19.78-29.67,9.89S266.49,428.36,266.49,428.36l-69.23-49.45Z"/><path class="cls-13" d="M612.66,260.22s-42.74,0-85-19.19C489.23,223.6,444.48,225.82,409,248.7c-28.9,18.65-53.94,49.53-53.47,100.53,0,0,38.46,39.56,79.12-39.56h29.67s28.57,98.91,108.8,89,98.91-19.78,98.91-19.78Z"/><rect class="cls-13" x="285.73" y="456.63" width="76.93" height="48.96" rx="22.21" transform="translate(-245.24 370.15) rotate(-45)"/><rect class="cls-13" x="253.85" y="419.27" width="76.93" height="48.96" rx="22.21" transform="translate(-228.16 336.67) rotate(-45)"/><rect class="cls-13" x="324.27" y="483.82" width="83.92" height="48.96" rx="22.21" transform="translate(-252.16 407.84) rotate(-45)"/><rect class="cls-13" x="372.05" y="516.21" width="55.95" height="34.19" rx="15.51" transform="translate(-259.94 439.06) rotate(-45)"/><polygon class="cls-3" points="780.8 438.25 691.79 477.81 602.77 260.22 681.9 230.55 780.8 438.25"/><polygon class="cls-3" points="108.25 388.8 197.26 428.36 286.28 210.77 207.15 181.09 108.25 388.8"/><polygon class="cls-15" points="9.34 92.08 207.15 181.09 78.58 477.81 9.34 448.14 9.34 92.08"/><polygon class="cls-16" points="879.71 141.53 681.9 230.55 810.48 527.26 879.71 497.59 879.71 141.53"/></g></g></svg>