<?xml version="1.0" encoding="iso-8859-1"?>
<!-- Generator: Adobe Illustrator 19.0.0, SVG Export Plug-In . SVG Version: 6.00 Build 0)  -->
<svg version="1.1" id="Capa_1" xmlns="http://www.w3.org/2000/svg" xmlns:xlink="http://www.w3.org/1999/xlink" x="0px" y="0px"
	 viewBox="0 0 511.899 511.899" style="enable-background:new 0 0 511.899 511.899;" xml:space="preserve">
<g>
	<g transform="translate(1 1)">
		<g>
			<path style="fill:#7FACFA;" d="M167.236,299.781c-1.787,0.001-3.501-0.708-4.765-1.972c-1.264-1.264-1.973-2.978-1.972-4.765
				v-61.605c0-3.721,3.016-6.737,6.737-6.737s6.737,3.016,6.737,6.737v61.605c0.001,1.787-0.708,3.501-1.972,4.765
				C170.737,299.072,169.023,299.782,167.236,299.781L167.236,299.781z"/>
			<path style="fill:#7FACFA;" d="M188.459,282.248c-0.951-0.003-1.899-0.086-2.836-0.25c-2.372-0.409-4.345-2.052-5.176-4.31
				c-0.832-2.258-0.395-4.789,1.145-6.638c1.54-1.849,3.95-2.737,6.321-2.328c0.338,0.099,0.699,0.082,1.026-0.046
				c0.698-1.033,1.001-2.282,0.856-3.52c-0.571-7.867-4.733-15.033-11.283-19.428l-4.539-2.625v21.934
				c0,3.721-3.016,6.737-6.737,6.737c-3.721,0-6.737-3.016-6.737-6.737v-33.599c0-2.407,1.283-4.631,3.368-5.835
				c2.084-1.204,4.653-1.204,6.737,0l14.645,8.454c10.686,6.838,17.401,18.427,18.02,31.099c0.264,5.219-1.804,10.285-5.645,13.829
				C195.054,281.127,191.805,282.284,188.459,282.248z"/>
			<path style="fill:#7FACFA;" d="M280.617,365.234c-1.787,0.001-3.501-0.708-4.765-1.972c-1.264-1.264-1.973-2.978-1.972-4.765
				v-61.599c0-2.407,1.283-4.632,3.368-5.835c2.084-1.204,4.653-1.204,6.737,0l29.836,17.224c3.223,1.86,4.327,5.981,2.467,9.204
				s-5.981,4.327-9.204,2.467l-19.73-11.388v49.928c0.001,1.787-0.708,3.501-1.972,4.765
				C284.118,364.526,282.404,365.236,280.617,365.234z"/>
			<path style="fill:#7FACFA;" d="M242.907,338.491c-3.497-0.004-6.41-2.683-6.704-6.168c-0.295-3.485,2.126-6.615,5.573-7.207
				c5.961-1.02,6.605-8.829,6.605-12.138c-1.025-15.264-8.568-29.35-20.704-38.664v49.737c0,3.721-3.016,6.737-6.737,6.737
				c-3.721,0-6.737-3.016-6.737-6.737v-61.605c0-2.407,1.283-4.632,3.368-5.835c2.084-1.204,4.653-1.204,6.737,0l7.322,4.23
				c17.923,11.459,29.187,30.89,30.224,52.138c0,13.803-6.822,23.539-17.803,25.414C243.673,338.457,243.29,338.49,242.907,338.491
				L242.907,338.491z"/>
			<path style="fill:#7FACFA;" d="M304.479,344.794c-1.18,0-2.34-0.311-3.362-0.901l-5.967-3.441
				c-2.086-1.203-3.372-3.427-3.372-5.835c-0.001-2.408,1.284-4.633,3.369-5.837c2.086-1.204,4.655-1.203,6.74,0.002l5.967,3.441
				c2.643,1.525,3.931,4.635,3.14,7.582C310.203,342.75,307.53,344.798,304.479,344.794z"/>
		</g>
		
			<linearGradient id="SVGID_1_" gradientUnits="userSpaceOnUse" x1="-49.1793" y1="651.4663" x2="-47.9374" y2="650.768" gradientTransform="matrix(280.32 0 0 -498.5263 13889.7158 324855.4375)">
			<stop  offset="0" style="stop-color:#D3DFF2"/>
			<stop  offset="0.1717" style="stop-color:#D3DFF2"/>
			<stop  offset="0.2" style="stop-color:#D3DFF2"/>
			<stop  offset="0.2002" style="stop-color:#DAE2F2"/>
			<stop  offset="0.2007" style="stop-color:#EBEAF2"/>
			<stop  offset="0.2014" style="stop-color:#F6EFF2"/>
			<stop  offset="0.2023" style="stop-color:#FDF2F2"/>
			<stop  offset="0.205" style="stop-color:#FFF3F2"/>
			<stop  offset="0.2522" style="stop-color:#FFF3F2"/>
			<stop  offset="0.26" style="stop-color:#FFF3F2"/>
			<stop  offset="0.26" style="stop-color:#D3DFF2"/>
			<stop  offset="0.3974" style="stop-color:#D3DFF2"/>
			<stop  offset="0.42" style="stop-color:#D3DFF2"/>
			<stop  offset="0.4202" style="stop-color:#DAE2F2"/>
			<stop  offset="0.4207" style="stop-color:#EBEAF2"/>
			<stop  offset="0.4214" style="stop-color:#F6EFF2"/>
			<stop  offset="0.4223" style="stop-color:#FDF2F2"/>
			<stop  offset="0.425" style="stop-color:#FFF3F2"/>
			<stop  offset="0.4894" style="stop-color:#FFF3F2"/>
			<stop  offset="0.5" style="stop-color:#FFF3F2"/>
			<stop  offset="0.5" style="stop-color:#F8F0F2"/>
			<stop  offset="0.5001" style="stop-color:#E7E8F2"/>
			<stop  offset="0.5003" style="stop-color:#DCE3F2"/>
			<stop  offset="0.5005" style="stop-color:#D5E0F2"/>
			<stop  offset="0.501" style="stop-color:#D3DFF2"/>
			<stop  offset="0.7062" style="stop-color:#D3DFF2"/>
			<stop  offset="0.74" style="stop-color:#D3DFF2"/>
			<stop  offset="0.741" style="stop-color:#FFF3F2"/>
			<stop  offset="0.8346" style="stop-color:#FFF3F2"/>
			<stop  offset="0.85" style="stop-color:#FFF3F2"/>
			<stop  offset="0.851" style="stop-color:#D3DFF2"/>
		</linearGradient>
		<polygon style="fill:url(#SVGID_1_);" points="218.208,5.636 188.97,22.545 114.798,71.32 114.798,359.253 365.812,504.162 
			395.118,487.253 395.118,107.766 		"/>
		<g>
			<polygon style="fill:#A4C2F7;" points="395.118,107.766 395.118,487.253 365.812,504.162 365.812,124.676 			"/>
			<polygon style="fill:#A4C2F7;" points="395.118,107.766 365.812,124.676 188.97,22.545 218.208,5.636 			"/>
			<path style="fill:#A4C2F7;" d="M188.968,22.545v78.552c0,7.208-5.12,10.105-11.453,6.467l-62.72-36.244L188.968,22.545z"/>
		</g>
		<polygon style="fill:#FFFFFF;" points="395.118,107.766 393.568,108.642 238.419,19.11 210.73,35.143 209.181,36.019 
			188.97,49.291 136.49,83.851 135.008,84.794 135.008,370.907 114.798,359.253 114.798,71.32 188.97,22.545 218.208,5.636 		"/>
	</g>
	<g>
		<path style="fill:#428DFF;" d="M188.913,269.721c-3.666-0.632-7.151,1.827-7.783,5.493c-0.632,3.666,1.827,7.151,5.493,7.783
			c0.936,0.164,1.885,0.247,2.836,0.25c3.346,0.036,6.595-1.121,9.164-3.263c3.84-3.544,5.908-8.61,5.645-13.829
			c-0.618-12.672-7.333-24.261-18.02-31.099l-14.645-8.454c-0.156-0.09-0.331-0.127-0.493-0.202
			c-0.187-0.09-0.372-0.161-0.568-0.234c-0.722-0.281-1.488-0.436-2.262-0.456l-0.046-0.009l-0.046,0.009
			c-0.775,0.021-1.54,0.176-2.263,0.456c-0.196,0.072-0.38,0.143-0.567,0.233c-0.162,0.076-0.337,0.113-0.493,0.203
			c-0.499,0.29-0.959,0.643-1.368,1.051l-0.032,0.026c-0.53,0.552-0.961,1.192-1.274,1.891c-0.085,0.179-0.156,0.354-0.225,0.541
			c-0.294,0.741-0.453,1.53-0.469,2.327v61.605c0,3.721,3.016,6.737,6.737,6.737s6.737-3.016,6.737-6.737v-49.941l4.539,2.625
			c6.55,4.395,10.712,11.561,11.283,19.428c0.146,1.238-0.158,2.487-0.856,3.52C189.612,269.804,189.251,269.82,188.913,269.721
			L188.913,269.721z"/>
		<path style="fill:#428DFF;" d="M317.289,318.491c0.894-1.548,1.136-3.387,0.673-5.113s-1.592-3.198-3.14-4.091l-29.836-17.224
			c-2.085-1.204-4.653-1.203-6.737,0c-2.084,1.204-3.368,3.428-3.368,5.835v61.599c0,3.721,3.016,6.737,6.737,6.737
			c3.721,0,6.737-3.016,6.737-6.737V309.57l19.73,11.388C311.309,322.806,315.42,321.704,317.289,318.491L317.289,318.491z"/>
		<path style="fill:#428DFF;" d="M242.775,326.116c-3.447,0.592-5.867,3.722-5.573,7.207c0.295,3.485,3.207,6.164,6.704,6.168
			c0.384-0.001,0.767-0.034,1.145-0.099c10.98-1.875,17.803-11.612,17.803-25.414c-1.037-21.248-12.3-40.679-30.224-52.138
			l-7.322-4.23c-2.085-1.204-4.653-1.203-6.737,0c-2.084,1.204-3.368,3.428-3.368,5.835v61.605c0,3.721,3.016,6.737,6.737,6.737
			c3.721,0,6.737-3.016,6.737-6.737v-49.737c12.136,9.314,19.679,23.4,20.704,38.664
			C249.381,317.287,248.736,325.096,242.775,326.116z"/>
		<path style="fill:#428DFF;" d="M302.887,329.781c-3.223-1.858-7.341-0.753-9.201,2.469c-1.86,3.222-0.757,7.341,2.464,9.202
			l5.967,3.441c2.085,1.205,4.654,1.206,6.74,0.002c2.086-1.204,3.37-3.429,3.369-5.837c-0.001-2.408-1.286-4.633-3.372-5.835
			L302.887,329.781z"/>
		<path style="fill:#428DFF;" d="M402.698,107.614c-0.117-0.781-0.37-1.536-0.749-2.229l-0.002-0.007l-0.001-0.001
			c-0.413-0.68-0.943-1.28-1.566-1.775c-0.152-0.125-0.298-0.241-0.459-0.352c-0.153-0.107-0.277-0.245-0.44-0.339L222.585,0.8
			c-0.249-0.102-0.504-0.188-0.764-0.257c-0.432-0.2-0.885-0.352-1.35-0.455c-0.406-0.067-0.817-0.095-1.228-0.085
			c-0.436-0.014-0.873,0.016-1.303,0.091c-0.451,0.102-0.89,0.251-1.31,0.444c-0.268,0.072-0.532,0.161-0.788,0.268l-29.194,16.881
			l-0.05,0.02c-0.072,0.042-0.125,0.106-0.196,0.15c-0.049,0.03-0.105,0.042-0.153,0.073l-73.775,48.533l-0.048,0.02l-0.107,0.082
			l-0.236,0.155c-0.109,0.072-0.188,0.173-0.291,0.25c-0.333,0.236-0.643,0.503-0.928,0.796c-0.144,0.155-0.253,0.332-0.382,0.499
			c-0.839,1.005-1.318,2.262-1.362,3.57c-0.012,0.164-0.064,0.318-0.064,0.484v0.158l-0.007,0.066l0.007,0.041v68.788
			c0,3.721,3.016,6.737,6.737,6.737s6.737-3.016,6.737-6.737V84.019l50.817,29.339l1.814,1.048l0.007,0.003l0.006,0.003l0.067,0.029
			c1.266,0.725,2.609,1.304,4.005,1.726c0.495,0.148,0.974,0.169,1.465,0.269c0.853,0.2,1.722,0.327,2.597,0.378
			c0.113,0.003,0.233,0.051,0.346,0.051c1.054-0.133,2.109-0.266,3.163-0.4c0.693-0.204,1.367-0.469,2.014-0.791
			c0.409-0.136,0.811-0.294,1.204-0.474c4.439-2.832,6.991-7.85,6.664-13.105V35.215l163.368,94.349v363.928L122.532,356.366
			V195.938c0-3.721-3.016-6.737-6.737-6.737c-3.721,0-6.737,3.016-6.737,6.737v164.316c-0.001,2.407,1.284,4.632,3.368,5.836
			l250.99,144.895c1.026,0.596,2.191,0.912,3.378,0.914l0.007-0.001l0.007,0.001c0.381-0.018,0.76-0.067,1.132-0.148
			c0.19-0.033,0.382-0.025,0.57-0.074c0.583-0.152,1.143-0.38,1.666-0.679l0.06-0.046l29.243-16.875
			c0.22-0.17,0.428-0.353,0.624-0.55c0.378-0.268,0.726-0.575,1.039-0.917c0.271-0.327,0.51-0.68,0.711-1.054
			c0.222-0.36,0.408-0.742,0.555-1.138c0.141-0.446,0.233-0.905,0.276-1.371c0.072-0.265,0.126-0.533,0.162-0.805V108.748
			c0-0.181-0.056-0.35-0.07-0.53C402.762,108.013,402.733,107.82,402.698,107.614z M373.545,129.537l15.829-9.127V484.35
			l-15.829,9.134L373.545,129.537z M183.216,102.077c0.004,0.404-0.033,0.806-0.111,1.202c-0.425-0.137-0.834-0.322-1.218-0.551
			l-53.25-30.77l54.579-35.908V102.077z M203.435,23.542l15.782-9.127l163.414,94.327l-15.846,9.138L203.435,23.542z"/>
		<path style="fill:#428DFF;" d="M113.236,174.517c0.81,0.345,1.679,0.529,2.559,0.539c0.902-0.004,1.794-0.187,2.625-0.539
			c2.522-1.014,4.158-3.479,4.112-6.197c0.021-0.883-0.163-1.76-0.539-2.559c-0.341-0.817-0.819-1.569-1.415-2.224
			c-1.626-1.522-3.87-2.197-6.066-1.822c-0.445,0.066-0.876,0.204-1.276,0.408c-0.415,0.131-0.803,0.336-1.145,0.605
			c-0.364,0.235-0.703,0.506-1.013,0.809c-0.651,0.624-1.156,1.383-1.48,2.224c-0.345,0.81-0.528,1.679-0.539,2.559
			c-0.024,1.806,0.708,3.541,2.02,4.783C111.698,173.711,112.431,174.192,113.236,174.517L113.236,174.517z"/>
	</g>
</g>
<g>
</g>
<g>
</g>
<g>
</g>
<g>
</g>
<g>
</g>
<g>
</g>
<g>
</g>
<g>
</g>
<g>
</g>
<g>
</g>
<g>
</g>
<g>
</g>
<g>
</g>
<g>
</g>
<g>
</g>
</svg>
