<svg xmlns="http://www.w3.org/2000/svg" viewBox="0 0 60 60"><defs><style>.cls-1{fill:#0094a9;}</style></defs><title>Asset 3</title><g id="Layer_2" data-name="Layer 2"><g id="Capa_1" data-name="Capa 1"><path class="cls-1" d="M59,56H4V1A1,1,0,0,0,2,1V56H1a1,1,0,0,0,0,2H2v1a1,1,0,0,0,2,0V58H59a1,1,0,0,0,0-2Z"/><path class="cls-1" d="M7,29H9a1,1,0,0,0,0-2H7a1,1,0,0,0,0,2Z"/><path class="cls-1" d="M7,25H9a1,1,0,0,0,0-2H7a1,1,0,0,0,0,2Z"/><path class="cls-1" d="M7,21H9a1,1,0,0,0,0-2H7a1,1,0,0,0,0,2Z"/><path class="cls-1" d="M7,17H9a1,1,0,0,0,0-2H7a1,1,0,0,0,0,2Z"/><path class="cls-1" d="M7,13H9a1,1,0,0,0,0-2H7a1,1,0,0,0,0,2Z"/><path class="cls-1" d="M7,9H9A1,1,0,0,0,9,7H7A1,1,0,0,0,7,9Z"/><path class="cls-1" d="M7,5H9A1,1,0,0,0,9,3H7A1,1,0,0,0,7,5Z"/><path class="cls-1" d="M11,49a6,6,0,0,0,4.44-10L19,35.44a6,6,0,0,0,8,0L31.56,40A5.93,5.93,0,0,0,30,44a6,6,0,0,0,12,0,5.9,5.9,0,0,0-.73-2.86L50,32.44A6,6,0,1,0,48,28a5.9,5.9,0,0,0,.73,2.86L40,39.56A6,6,0,0,0,36,38a5.9,5.9,0,0,0-2.86.73l-4.87-4.87A5.9,5.9,0,0,0,29,31a6,6,0,0,0-12,0,5.9,5.9,0,0,0,.73,2.86l-3.86,3.85A6,6,0,1,0,11,49ZM54,24a4,4,0,1,1-4,4A4,4,0,0,1,54,24ZM40,44a4,4,0,1,1-4-4A4,4,0,0,1,40,44ZM23,27a4,4,0,1,1-4,4A4,4,0,0,1,23,27ZM11,39a4,4,0,1,1-4,4A4,4,0,0,1,11,39Z"/></g></g></svg>