<?xml version="1.0" encoding="utf-8"?>
<!-- Generator: Adobe Illustrator 23.0.6, SVG Export Plug-In . SVG Version: 6.00 Build 0)  -->
<svg version="1.1" id="Layer_1" xmlns="http://www.w3.org/2000/svg" xmlns:xlink="http://www.w3.org/1999/xlink" x="0px" y="0px"
	 viewBox="0 0 272.5 272.5" style="enable-background:new 0 0 272.5 272.5;" xml:space="preserve">
<style type="text/css">
	.st0{fill:none;}
	.st1{fill:#0094A9;}
</style>
<title>Asset 8</title>
<g>
	<g id="Layer_1-2">
		<rect x="-5" y="-5" class="st0" width="294" height="294"/>
		<path class="st1" d="M236.5,63.5V3.1H3.7v245.7c0,11.9,9.7,21.5,21.6,21.6h224.1c11.9,0,21.5-9.7,21.6-21.6V63.5H236.5z
			 M25.3,261.7c-7.2,0-12.9-5.8-12.9-12.9v-237h215.5v237.1c0,4.7,1.6,9.2,4.4,12.9C232.2,261.8,25.3,261.7,25.3,261.7z
			 M262.2,248.9c0,7.2-5.8,12.9-12.9,12.9c-7.2,0-12.9-5.8-12.9-12.9V72.1h25.9V248.9z"/>
		<path class="st1" d="M81.3,72.1c-4.8,0-8.6-3.9-8.6-8.6c0-4.8,3.9-8.6,8.6-8.6c4.8,0,8.6,3.9,8.6,8.6h8.6
			c0-7.8-5.4-14.7-12.9-16.6v-9.3H77v9.3c-9.2,2.4-14.8,11.7-12.4,20.9c2,7.6,8.8,13,16.7,12.9c4.8,0,8.6,3.9,8.6,8.6
			c0,4.8-3.9,8.6-8.6,8.6c-4.8,0-8.6-3.9-8.6-8.6H64c0,7.8,5.4,14.7,12.9,16.6v9.3h8.6V106c9.2-2.4,14.8-11.7,12.4-20.9
			C96.1,77.4,89.2,72.1,81.3,72.1z"/>
		<path class="st1" d="M21,20.4v112h120.6v-112H21z M133,123.8H29.6V29H133V123.8z"/>
		<path class="st1" d="M210.7,244.5v-68.9h-25.9v68.9h-17.3v-51.8h-25.9v51.8h-17.3v-68.9H98.5v68.9h-8.6v8.6h129.3v-8.6
			L210.7,244.5z M115.7,244.5h-8.6v-60.4h8.6V244.5z M158.9,244.5h-8.6v-43.2h8.6V244.5z M202,244.5h-8.6v-60.4h8.6V244.5z"/>
		<rect x="150.3" y="20.4" class="st1" width="68.9" height="8.6"/>
		<rect x="150.3" y="37.6" class="st1" width="68.9" height="8.6"/>
		<rect x="150.3" y="54.9" class="st1" width="68.9" height="8.6"/>
		<rect x="150.3" y="72.1" class="st1" width="68.9" height="8.6"/>
		<rect x="150.3" y="89.4" class="st1" width="51.8" height="8.6"/>
		<rect x="210.7" y="89.4" class="st1" width="8.6" height="8.6"/>
		<rect x="21" y="141" class="st1" width="68.9" height="8.6"/>
		<rect x="21" y="158.2" class="st1" width="68.9" height="8.6"/>
		<rect x="21" y="175.5" class="st1" width="68.9" height="8.6"/>
		<rect x="21" y="192.8" class="st1" width="68.9" height="8.6"/>
		<rect x="81.3" y="210" class="st1" width="8.6" height="8.6"/>
		<rect x="21" y="210" class="st1" width="51.8" height="8.6"/>
		<path class="st1" d="M197.7,141c-7.2,0-12.9,5.8-12.9,12.9v0.5l-20.5,8.2c-2.5-2.8-6-4.4-9.7-4.4c-3.7,0-7.3,1.6-9.7,4.4
			l-20.5-8.2v-0.5c0-7.2-5.8-13-12.9-13.1c-7.2,0-13,5.8-13.1,12.9c0,7.2,5.8,13,12.9,13.1c3.8,0,7.4-1.6,9.8-4.4l20.5,8.2v0.5
			c0,7.2,5.8,12.9,12.9,12.9s12.9-5.8,12.9-12.9v-0.5l20.5-8.2c4.7,5.4,12.9,5.9,18.3,1.2s5.9-12.9,1.2-18.3
			C205,142.6,201.5,141,197.7,141z M111.4,158.2c-2.4,0-4.3-1.9-4.3-4.3c0-2.4,1.9-4.3,4.3-4.3c2.4,0,4.3,1.9,4.3,4.3
			c0.1,2.3-1.8,4.2-4.1,4.3C111.6,158.2,111.5,158.2,111.4,158.2z M154.6,175.5c-2.4,0-4.3-1.9-4.3-4.3s1.9-4.3,4.3-4.3
			s4.3,1.9,4.3,4.3S157,175.5,154.6,175.5z M197.7,158.2c-2.4,0-4.3-1.9-4.3-4.3c0-2.4,1.9-4.3,4.3-4.3s4.3,1.9,4.3,4.3
			C202,156.3,200.1,158.2,197.7,158.2z"/>
		<rect x="107.1" y="72.1" class="st1" width="8.6" height="8.6"/>
		<rect x="46.9" y="72.1" class="st1" width="8.6" height="8.6"/>
	</g>
</g>
</svg>
