<svg xmlns="http://www.w3.org/2000/svg" viewBox="0 0 512 512.01"><defs><style>.cls-1{fill:#0094a9;}</style></defs><title>Asset 2</title><g id="Layer_2" data-name="Layer 2"><g id="Layer_1-2" data-name="Layer 1"><g id="Page-1"><path id="Shape" class="cls-1" d="M506.88,59.69,370.35.71a8.54,8.54,0,0,0-6.76,0L282.73,35.62A144.91,144.91,0,0,0,42.67,145.07v42.67A42.72,42.72,0,0,0,0,230.41V469.34A42.72,42.72,0,0,0,42.67,512H332.8a42.73,42.73,0,0,0,42.67-42.67V355.85c.27-.18.59-.24.85-.43l94.35-67.18A98.13,98.13,0,0,0,512,208.55v-141A8.53,8.53,0,0,0,506.88,59.69ZM59.73,145.07A128,128,0,0,1,265.17,43.2L227,59.69a1.49,1.49,0,0,0-.3.18,93.72,93.72,0,0,0-132.82,85.2v42.67H59.73Zm162.14,42.67H110.93V145.07A76.52,76.52,0,0,1,221.87,76.46ZM332.8,494.94H42.67a25.6,25.6,0,0,1-25.6-25.6v-8.53h51.2a8.54,8.54,0,0,0,0-17.07H17.07V426.67h51.2a8.53,8.53,0,1,0,0-17.06H17.07V392.54h51.2a8.54,8.54,0,0,0,0-17.07H17.07V358.41h51.2a8.54,8.54,0,0,0,0-17.07H17.07V324.27h51.2a8.53,8.53,0,1,0,0-17.06H17.07V290.14h51.2a8.54,8.54,0,0,0,0-17.07H17.07V256h51.2a8.54,8.54,0,0,0,0-17.07H17.07v-8.53a25.6,25.6,0,0,1,25.6-25.6h179.2v3.74a98.08,98.08,0,0,0,41.31,79.68l74.6,53.11H307.2a8.54,8.54,0,0,0,0,17.07h51.2v17.06H307.2a8.54,8.54,0,0,0,0,17.07h51.2v17.07H307.2a8.53,8.53,0,1,0,0,17.06h51.2v17.07H307.2a8.54,8.54,0,0,0,0,17.07h51.2v8.53A25.6,25.6,0,0,1,332.8,494.94ZM494.93,208.55a81,81,0,0,1-34.13,65.78l-93.87,66.81-93.86-66.81a81,81,0,0,1-34.14-65.78V73.13l45.66-19.72.24-.11,82.1-35.47,128,55.3Z"/><path class="cls-1" d="M363.52,37.89,261.12,82.12A8.54,8.54,0,0,0,256,90V208.57a63.94,63.94,0,0,0,27,51.87l79,56.24a8.53,8.53,0,0,0,9.9,0l79-56.24a63.89,63.89,0,0,0,27-51.89V89.94a8.56,8.56,0,0,0-5.12-7.84L370.35,37.87A8.5,8.5,0,0,0,363.52,37.89ZM460.8,95.58v113a46.79,46.79,0,0,1-19.81,38l-74.06,52.71-74.06-52.71a46.86,46.86,0,0,1-19.8-38v-113L366.93,55Z"/><path class="cls-1" d="M313.53,187a8.53,8.53,0,0,0-10.24,13.65l39,29.25a8.52,8.52,0,0,0,11.78-1.49l78-97.52a8.54,8.54,0,0,0-13.34-10.66L345.92,211.3Z"/><path class="cls-1" d="M238.93,315.74a51.2,51.2,0,1,0-81.34,41.36l-12.38,68a8.54,8.54,0,0,0,8.39,10.07h68.27a8.54,8.54,0,0,0,8.38-10.07l-12.37-68A51.38,51.38,0,0,0,238.93,315.74Zm-34.65,29.87a8.53,8.53,0,0,0-4.21,9l11.56,63.57H163.84l11.57-63.58a8.53,8.53,0,0,0-4.21-9,34.14,34.14,0,1,1,33.1,0Z"/></g></g></g></svg>