<svg xmlns="http://www.w3.org/2000/svg" viewBox="0 0 512 512"><defs><style>.cls-1{fill:#0094a9;}</style></defs><title>Asset 4</title><g id="Layer_2" data-name="Layer 2"><g id="Layer_1-2" data-name="Layer 1"><g id="surface1"><path class="cls-1" d="M488.91,84H384a7.5,7.5,0,0,0,0,15H488.91a8.1,8.1,0,0,1,8.09,8.09V395.91a8.1,8.1,0,0,1-8.09,8.09H23.09A8.1,8.1,0,0,1,15,395.91V107.09A8.1,8.1,0,0,1,23.09,99H187.88v15H37.5a7.5,7.5,0,0,0-7.5,7.5V319.67a7.5,7.5,0,0,0,15,0V129H187.88v40.23l-32.11,15.34a7.55,7.55,0,0,0-4.27,6.77V313.66a7.51,7.51,0,0,0,4.27,6.77l97,46.34a7.57,7.57,0,0,0,6.46,0l54.54-26.06a7.5,7.5,0,1,0-6.47-13.53l-43.8,20.93V242.41l82-39.17V308.93l-11.14,5.32a7.5,7.5,0,1,0,6.46,13.54l15.41-7.36a7.51,7.51,0,0,0,4.27-6.77V191.34a7.54,7.54,0,0,0-4.27-6.77l-32.1-15.34V129H467V374H45V351.67a7.5,7.5,0,0,0-15,0V381.5a7.5,7.5,0,0,0,7.5,7.5h437a7.5,7.5,0,0,0,7.5-7.5v-260a7.5,7.5,0,0,0-7.5-7.5H324.13V99H352a7.5,7.5,0,0,0,0-15H324.13V69h67.25a7.5,7.5,0,0,0,7.5-7.5V43.71a22.5,22.5,0,1,0-15,0V54H316.63a7.5,7.5,0,0,0-7.5,7.5V84H263.5V43.71a22.5,22.5,0,1,0-15,0V84H202.88V61.5a7.5,7.5,0,0,0-7.5-7.5H128.13V43.71a22.5,22.5,0,1,0-15,0V61.5a7.5,7.5,0,0,0,7.5,7.5h67.25V84H23.09A23.12,23.12,0,0,0,0,107.09V395.91A23.12,23.12,0,0,0,23.09,419H185.7c-2.91,27.51-21.1,43.58-26.83,48H127a22.5,22.5,0,0,0,0,45H385a22.5,22.5,0,0,0,0-45H353.15c-5.66-4.41-23.91-20.62-26.84-48h162.6A23.12,23.12,0,0,0,512,395.91V107.09A23.12,23.12,0,0,0,488.91,84ZM391.38,15a7.5,7.5,0,1,1-7.5,7.5A7.51,7.51,0,0,1,391.38,15ZM256,15a7.5,7.5,0,1,1-7.5,7.5A7.5,7.5,0,0,1,256,15ZM120.63,15a7.5,7.5,0,1,1-7.5,7.5A7.51,7.51,0,0,1,120.63,15Zm82.25,114H248.5v11.27l-45.62,21.8ZM335.6,191.34l-79.6,38-79.6-38,79.6-38Zm-169.1,11.9,82,39.17v105.7l-82-39.18Zm142.63-41.17-45.63-21.8V129h45.63Zm0-63.07v15H263.5V99ZM248.5,99v15H202.88V99Zm144,390.5A7.5,7.5,0,0,1,385,497H127a7.5,7.5,0,0,1,0-15H385A7.5,7.5,0,0,1,392.5,489.5ZM331.64,467H180.36a84.59,84.59,0,0,0,20.42-48H311.22A84.59,84.59,0,0,0,331.64,467Z"/></g></g></g></svg>