<?xml version="1.0" encoding="utf-8"?>
<!-- Generator: Adobe Illustrator 23.0.6, SVG Export Plug-In . SVG Version: 6.00 Build 0)  -->
<svg version="1.1" id="Capa_1" xmlns="http://www.w3.org/2000/svg" xmlns:xlink="http://www.w3.org/1999/xlink" x="0px" y="0px"
	 viewBox="0 0 52 52" style="enable-background:new 0 0 52 52;" xml:space="preserve">
<style type="text/css">
	.st0{fill:#0094A9;}
</style>
<g>
	<g>
		<path class="st0" d="M26,0C11.7,0,0,11.7,0,26c0,4.9,1.4,9.6,3.9,13.8c-1,3.6-2.9,10.4-2.9,10.5c-0.1,0.4,0,0.7,0.3,1
			s0.6,0.3,1,0.2l10.3-3.2c4,2.4,8.7,3.7,13.4,3.7c14.3,0,26-11.7,26-26S40.3,0,26,0z M26,50c-4.5,0-8.9-1.3-12.7-3.7
			c-0.2-0.1-0.3-0.2-0.5-0.2c-0.1,0-0.2,0-0.3,0l-9,2.8c0.7-2.4,1.8-6.7,2.5-9.1c0.1-0.3,0-0.6-0.1-0.8C3.3,35.2,2,30.7,2,26
			C2,12.8,12.8,2,26,2s24,10.8,24,24S39.2,50,26,50z"/>
		<path class="st0" d="M43,32.1c-1.8-1-3.4-2.1-4.6-2.8c-0.9-0.6-1.5-1-2-1.2c-1.3-0.6-2.3-0.2-2.7,0.2c0,0-0.1,0.1-0.1,0.2
			c-1.3,2-3.1,4-3.6,4.1c-0.6-0.1-3.4-1.7-6.1-4c-2.8-2.4-4.6-4.6-4.9-6.1c1.8-1.9,2.5-3,2.5-4.4c0-1.4-3.2-7.1-3.8-7.7
			c-0.6-0.6-1.9-0.7-3.9-0.3c-0.2,0-0.4,0.1-0.5,0.3c-0.2,0.2-5.9,6-3.2,13.1c3,7.7,10.6,16.7,20.3,18.1c1.1,0.2,2.1,0.2,3.1,0.2
			c5.7,0,9.1-2.9,10-8.6C43.6,32.7,43.4,32.3,43,32.1z M30.6,39.5C20.4,38,13.9,27.8,11.9,22.6c-2-5.1,1.7-9.7,2.6-10.7
			c0.7-0.1,1.5-0.2,1.8-0.1c0.7,0.9,3,5.4,3.1,6.2c0,0.5-0.2,1.3-2.2,3.3C17.1,21.5,17,21.7,17,22c0,5.2,11,12.5,13,12.5
			c1.7,0,3.9-2.9,5.2-4.7c0.1,0,0.2,0,0.4,0.1c0.4,0.2,1,0.6,1.8,1.1c1,0.7,2.4,1.6,4.1,2.5C40.6,37.1,38.6,40.7,30.6,39.5z"/>
	</g>
</g>
</svg>
