<?xml version="1.0" encoding="utf-8"?>
<!-- Generator: Adobe Illustrator 23.0.6, SVG Export Plug-In . SVG Version: 6.00 Build 0)  -->
<svg version="1.1" id="Layer_1" xmlns="http://www.w3.org/2000/svg" xmlns:xlink="http://www.w3.org/1999/xlink" x="0px" y="0px"
	 viewBox="0 0 512 512" style="enable-background:new 0 0 512 512;" xml:space="preserve">
<style type="text/css">
	.st0{fill:#0094A9;}
</style>
<path class="st0" d="M412,136c0,5.5,4.5,10,10,10s10-4.5,10-10s-4.5-10-10-10S412,130.5,412,136z"/>
<path class="st0" d="M452,256c0,12.8-1.3,25.6-3.8,38c-1.1,5.4,2.4,10.7,7.8,11.8c0.7,0.1,1.3,0.2,2,0.2c4.7,0,8.8-3.3,9.8-8
	c2.8-13.7,4.2-27.9,4.2-42c0-31.5-6.8-61.8-20.3-90.1c-2.4-5-8.3-7.1-13.3-4.7s-7.1,8.3-4.7,13.3C445.8,200.1,452,227.5,452,256z"/>
<path class="st0" d="M306,346h-10V216c0-5.5-4.5-10-10-10h-80c-5.5,0-10,4.5-10,10v40c0,5.5,4.5,10,10,10h10v80h-10
	c-5.5,0-10,4.5-10,10v40c0,5.5,4.5,10,10,10h100c5.5,0,10-4.5,10-10v-40C316,350.5,311.5,346,306,346z M296,386h-80v-20h10
	c5.5,0,10-4.5,10-10V256c0-5.5-4.5-10-10-10h-10v-20h60v130c0,5.5,4.5,10,10,10h10V386z"/>
<path class="st0" d="M256,186c22.1,0,40-17.9,40-40s-17.9-40-40-40s-40,17.9-40,40S233.9,186,256,186z M256,126c11,0,20,9,20,20
	s-9,20-20,20s-20-9-20-20S245,126,256,126z"/>
<path class="st0" d="M256,0C118,0,0,117.8,0,256c0,47.2,13.5,97.4,36.3,135.4L0.5,498.8c-1.2,3.6-0.3,7.6,2.4,10.2
	c2.7,2.7,6.7,3.6,10.2,2.4l107.5-35.8c38,22.8,88.2,36.3,135.4,36.3c138,0,256-117.8,256-256C512,118,394.2,0,256,0z M256,492
	c-45.3,0-93.4-13.4-128.8-35.7c-2.5-1.6-5.6-2-8.5-1l-92.9,31l31-92.9c1-2.9,0.6-6-1-8.5C33.4,349.4,20,301.3,20,256
	C20,128.1,128.1,20,256,20s236,108.1,236,236S383.9,492,256,492z"/>
</svg>
