<svg id="Layer_1" data-name="Layer 1" xmlns="http://www.w3.org/2000/svg" viewBox="0 0 75 75"><defs><style>.cls-1{fill:none;}.cls-1,.cls-2{stroke:#0d72b9;stroke-miterlimit:10;stroke-width:2px;}.cls-2{fill:#0d72b9;fill-opacity:0.1;}</style></defs><title>Access</title><path class="cls-1" d="M67.52,2,58.16,3.38A1.89,1.89,0,0,0,57,4L30.54,33.18A21.54,21.54,0,0,0,7.43,38.94a20.86,20.86,0,0,0,1.66,29.7A21.49,21.49,0,0,0,39.16,67,20.82,20.82,0,0,0,42.42,43.7l4.53-5a1.89,1.89,0,0,0,.48-1.45L47,32.32l5-.11c.53,0,3.12-2.53,3.48-2.93A1.86,1.86,0,0,0,56,27.84l-.45-5,5-.09c.53,0,3.12-2.54,3.48-2.93a1.81,1.81,0,0,0,.48-1.44l-.45-5,5-.11a1.92,1.92,0,0,0,1.44-.68A1.89,1.89,0,0,0,71,11.36a2.07,2.07,0,0,0,0-.21L69.7,3.59A1.93,1.93,0,0,0,67.52,2Z"/><path class="cls-1" d="M57,10,36.63,32.47"/><circle class="cls-2" cx="18" cy="60" r="4"/></svg>