<?xml version="1.0" encoding="utf-8"?>
<!-- Generator: Adobe Illustrator 21.0.0, SVG Export Plug-In . SVG Version: 6.00 Build 0)  -->
<svg version="1.1" id="Layer_1" xmlns="http://www.w3.org/2000/svg" xmlns:xlink="http://www.w3.org/1999/xlink" x="0px" y="0px"
	 viewBox="0 10 75 55" style="enable-background:new 0 10 75 55;" xml:space="preserve">
<style type="text/css">
	.st0{fill:none;stroke:#0d72b9;stroke-miterlimit:10;stroke-width:1.5}	
	.st3{display:none;}	
	.st11{opacity:0.1;fill:#0d72b9;}
	
</style>
<g id="Layer_2" class="st3">
</g>
<path class="st11" d="M67.3,63L67.3,63c-1.3,1.3-3.3,1.3-4.6,0L48.5,48.8l4.6-4.6l14.2,14.2C68.5,59.7,68.5,61.7,67.3,63z"/>
<path class="st0" d="M67.3,63L67.3,63c-1.3,1.3-3.3,1.3-4.6,0L48.5,48.8l4.6-4.6l14.2,14.2C68.5,59.7,68.5,61.7,67.3,63z"/>
<circle class="st11" cx="36.4" cy="32.8" r="19.9"/>
<circle class="st0" cx="36.4" cy="32.8" r="19.9"/>
<polyline class="st0" points="16.4,33.5 24.3,33.5 28,25.3 33.6,42.4 41.3,22.2 47.5,33.5 56.7,33.5 "/>
<line class="st0" x1="5.5" y1="33.6" x2="16.2" y2="33.6"/>
<line class="st0" x1="56.5" y1="33.5" x2="70.7" y2="33.5"/>
<ellipse transform="matrix(0.7483 -0.6633 0.6633 0.7483 -21.1948 11.283)" class="st0" cx="4.3" cy="33.6" rx="1.3" ry="1.3"/>
<ellipse transform="matrix(0.7483 -0.6633 0.6633 0.7483 -4.2194 56.0265)" class="st0" cx="71.7" cy="33.6" rx="1.3" ry="1.3"/>
</svg>
