<?xml version="1.0" encoding="utf-8"?>
<!-- Generator: Adobe Illustrator 21.0.0, SVG Export Plug-In . SVG Version: 6.00 Build 0)  -->
<svg version="1.1" id="Layer_1" xmlns="http://www.w3.org/2000/svg" xmlns:xlink="http://www.w3.org/1999/xlink" x="0px" y="0px"
	 viewBox="0 0 75 75" style="enable-background:new 0 0 75 75;" xml:space="preserve">
<style type="text/css">
	.st0{fill:#FFFFFF;stroke:#0D72B9;stroke-width:2;stroke-miterlimit:10;}
	.st1{opacity:0.2;fill:#0D72B9;}
	.st2{fill:#0D72B9;}
	.st3{fill:#FFFFFF;}
	.st4{opacity:0.1;fill:#0D72B9;}
	.st5{fill:none;stroke:#0D72B9;stroke-width:2;stroke-miterlimit:10;}
	.st6{display:none;fill:#1978B7;}
	.st7{fill:#1978B7;}
	.st8{fill:none;stroke:#0D72B9;stroke-width:2;stroke-linecap:round;stroke-linejoin:round;stroke-miterlimit:10;}
	.st9{opacity:0.1;fill:#FFFFFF;}
	.st10{fill:none;}
	.st11{fill:#FFFFFF;fill-opacity:0.1;stroke:#FFFFFF;stroke-width:2;stroke-miterlimit:10;}
	.st12{fill:none;stroke:#FFFFFF;stroke-width:2;stroke-miterlimit:10;}
	.st13{fill:none;stroke:#FFFFFF;stroke-width:2;stroke-linecap:round;stroke-linejoin:round;stroke-miterlimit:10;}
	.st14{fill:#0D72B9;fill-opacity:0.1;stroke:#0D72B9;stroke-width:2;stroke-miterlimit:10;}
	.st15{fill:#0D72B9;fill-opacity:0.1;}
	.st16{fill:#FFFFFF;fill-opacity:0.1;}
	.st17{opacity:0.1;fill:none;stroke:#0D72B9;stroke-width:4;stroke-linecap:round;stroke-linejoin:round;stroke-miterlimit:10;}
	.st18{opacity:0.1;fill:#0D72B9;stroke:#0D72B9;stroke-width:2;stroke-linecap:round;stroke-linejoin:round;stroke-miterlimit:10;}
	.st19{opacity:0.1;fill:none;stroke:#FFFFFF;stroke-width:4;stroke-linecap:round;stroke-linejoin:round;stroke-miterlimit:10;}
	
		.st20{fill:#FFFFFF;fill-opacity:0.1;stroke:#0D72B9;stroke-width:2;stroke-linecap:round;stroke-linejoin:round;stroke-miterlimit:10;}
	
		.st21{fill:none;stroke:#0D72B9;stroke-width:5;stroke-linecap:round;stroke-linejoin:round;stroke-miterlimit:10;stroke-opacity:0.1;}
	.st22{opacity:0.1;fill:none;stroke:#0D72B9;stroke-width:2;stroke-linecap:round;stroke-linejoin:round;stroke-miterlimit:10;}
	
		.st23{fill:#FFFFFF;fill-opacity:0.1;stroke:#FFFFFF;stroke-width:2;stroke-linecap:round;stroke-linejoin:round;stroke-miterlimit:10;}
	
		.st24{fill:none;stroke:#FFFFFF;stroke-width:5;stroke-linecap:round;stroke-linejoin:round;stroke-miterlimit:10;stroke-opacity:0.1;}
	.st25{opacity:0.1;fill:none;stroke:#FFFFFF;stroke-width:2;stroke-linecap:round;stroke-linejoin:round;stroke-miterlimit:10;}
	.st26{clip-path:url(#SVGID_2_);fill:#0D72B9;fill-opacity:0.1;stroke:#0D72B9;stroke-width:2;stroke-miterlimit:10;}
	.st27{clip-path:url(#SVGID_4_);fill:#0D72B9;fill-opacity:0.1;stroke:#0D72B9;stroke-width:2;stroke-miterlimit:10;}
	.st28{fill:#0D72B9;stroke:#0D72B9;stroke-miterlimit:10;}
	.st29{fill:#FFFFFF;stroke:#FFFFFF;stroke-miterlimit:10;}
	.st30{opacity:0.1;}
	.st31{fill:#FFFFFF;fill-opacity:0.15;stroke:#FFFFFF;stroke-width:2;stroke-miterlimit:10;}
	.st32{fill:#0D72B9;fill-opacity:0.15;stroke:#0D72B9;stroke-width:2;stroke-miterlimit:10;}
	.st33{opacity:0.2;fill:none;stroke:#FFFFFF;stroke-width:4;stroke-linecap:round;stroke-linejoin:round;stroke-miterlimit:10;}
	.st34{opacity:0.2;fill:#FFFFFF;}
	
		.st35{fill:#FFFFFF;fill-opacity:0.1;stroke:#0D72B9;stroke-width:1.8339;stroke-linecap:round;stroke-linejoin:round;stroke-miterlimit:10;}
	.st36{fill:none;stroke:#0D72B9;stroke-width:1.8339;stroke-linecap:round;stroke-linejoin:round;stroke-miterlimit:10;}
	
		.st37{fill:none;stroke:#0D72B9;stroke-width:4.5848;stroke-linecap:round;stroke-linejoin:round;stroke-miterlimit:10;stroke-opacity:0.1;}
	
		.st38{opacity:0.1;fill:none;stroke:#0D72B9;stroke-width:1.8339;stroke-linecap:round;stroke-linejoin:round;stroke-miterlimit:10;}
	
		.st39{opacity:0.1;fill:#0D72B9;stroke:#0D72B9;stroke-width:1.8339;stroke-linecap:round;stroke-linejoin:round;stroke-miterlimit:10;}
	.st40{clip-path:url(#SVGID_6_);fill:#0D72B9;fill-opacity:0.1;stroke:#0D72B9;stroke-width:2;stroke-miterlimit:10;}
	.st41{clip-path:url(#SVGID_8_);fill:#0D72B9;fill-opacity:0.1;stroke:#0D72B9;stroke-width:2;stroke-miterlimit:10;}
	.st42{fill:#0D72B9;stroke:#0D72B9;stroke-width:1.6769;stroke-miterlimit:10;}
	.st43{fill:#0D72B9;stroke:#FFFFFF;stroke-width:1.6769;stroke-miterlimit:10;}
	.st44{fill:none;stroke:#0D72B9;stroke-width:2.0597;stroke-miterlimit:10;}
	.st45{fill:none;stroke:#1978B7;stroke-width:2;stroke-miterlimit:10;}
	.st46{opacity:0.2;}
	.st47{fill:#0D72B9;fill-opacity:0.1;stroke:#0D72B9;stroke-width:2.0305;stroke-miterlimit:10;}
	.st48{fill:#FFFFFF;fill-opacity:0.2;stroke:#FFFFFF;stroke-width:2;stroke-miterlimit:10;}
	.st49{fill:#0D72B9;stroke:#0D72B9;stroke-width:1.4778;stroke-miterlimit:10;}
	.st50{fill:none;stroke:#0D72B9;stroke-width:1.9552;stroke-linecap:round;stroke-linejoin:round;stroke-miterlimit:10;}
	.st51{fill:none;stroke:#0D72B9;stroke-width:2.0307;stroke-linecap:round;stroke-linejoin:round;stroke-miterlimit:10;}
	.st52{fill:#FFFFFF;fill-opacity:0.2;}
	.st53{fill:none;stroke:#0D72B9;stroke-width:0;stroke-linecap:round;stroke-linejoin:round;stroke-miterlimit:10;}
	
		.st54{fill:none;stroke:#FFFFFF;stroke-width:4;stroke-linecap:round;stroke-linejoin:round;stroke-miterlimit:10;stroke-opacity:0.2;}
	.st55{opacity:0.1;fill:#FFFFFF;stroke:#FFFFFF;stroke-width:2;stroke-linecap:round;stroke-linejoin:round;stroke-miterlimit:10;}
	.st56{fill:none;stroke:#FFFFFF;stroke-width:0;stroke-miterlimit:10;}
	
		.st57{fill:#0D72B9;fill-opacity:0.1;stroke:#0D72B9;stroke-width:2;stroke-linecap:round;stroke-linejoin:round;stroke-miterlimit:10;}
	.st58{fill:#0D72B9;fill-opacity:0.1;stroke:#FFFFFF;stroke-width:2;stroke-miterlimit:10;}
	.st59{clip-path:url(#SVGID_10_);fill:#FFFFFF;fill-opacity:0.2;stroke:#FFFFFF;stroke-width:2;stroke-miterlimit:10;}
	.st60{fill:none;stroke:#FFFFFF;stroke-width:2.0597;stroke-miterlimit:10;}
	.st61{fill:none;stroke:#0D72B9;stroke-width:2;stroke-linecap:round;stroke-miterlimit:10;}
	.st62{display:none;fill:none;stroke:#0D72B9;stroke-width:1.972;stroke-linecap:round;stroke-miterlimit:10;}
	.st63{display:none;fill:#0D72B9;fill-opacity:0.1;}
	.st64{fill:none;stroke:#FFFFFF;stroke-width:2;stroke-linecap:round;stroke-miterlimit:10;}
	.st65{fill:#FFFFFF;fill-opacity:0.3;}
	.st66{fill:#0D72B9;fill-opacity:8.000000e-02;}
	.st67{fill:#0D72B9;fill-opacity:0.15;}
	.st68{fill:none;stroke:#0D72B9;stroke-width:2.048;stroke-linecap:round;stroke-miterlimit:10;}
	.st69{fill:#FFFFFF;fill-opacity:8.000000e-02;}
	.st70{fill:#FFFFFF;fill-opacity:0.15;}
	.st71{fill:none;stroke:#FFFFFF;stroke-width:2.048;stroke-linecap:round;stroke-miterlimit:10;}
	.st72{fill:none;stroke:#1FBFF0;stroke-width:2;stroke-linecap:round;stroke-miterlimit:10;}
	.st73{fill:#1FBFF0;fill-opacity:0.1;}
	.st74{fill:#1FBFF0;}
	.st75{opacity:0.3;fill:#006FB9;enable-background:new    ;}
	.st76{fill:#FFFFFF;stroke:#006FB9;stroke-width:1.7889;}
	.st77{fill:#FFFFFF;stroke:#006FB9;stroke-width:2;}
	.st78{fill:none;stroke:#006FB9;stroke-width:2;}
	.st79{fill:none;stroke:#006FB9;stroke-width:2.3445;}
	.st80{opacity:0.1;fill:#0D72B9;enable-background:new    ;}
	.st81{opacity:0.1;fill:#FFFFFF;enable-background:new    ;}
	.st82{fill:none;stroke:#006FB9;stroke-width:2;stroke-linecap:round;stroke-miterlimit:10;}
	.st83{fill:none;stroke:#006FB9;stroke-width:2;stroke-miterlimit:10;}
	.st84{opacity:0.3;fill:#006FB9;}
	.st85{fill:none;stroke:#0D72B9;stroke-width:2;stroke-linecap:round;stroke-linejoin:round;}
	.st86{opacity:0.2;fill:#0D72B9;enable-background:new    ;}
	.st87{fill:#006FB9;}
	.st88{display:none;fill:none;stroke:#0D72B9;stroke-width:2;stroke-linecap:round;stroke-linejoin:round;stroke-miterlimit:10;}
	.st89{display:none;}
	.st90{display:inline;fill:#0D72B9;}
	.st91{opacity:0.2;fill:#006FB9;}
	.st92{display:none;opacity:0.1;fill:#0D72B9;}
	.st93{fill:#FFFFFF;stroke:#0D72B9;stroke-width:2;stroke-linecap:round;stroke-miterlimit:10;}
	.st94{opacity:0.1;fill:#006FB9;enable-background:new    ;}
	.st95{opacity:0.1;fill:#006FB9;}
	.st96{opacity:0.3;fill:#0D72B9;}
</style>
<g>
	<path class="st3" d="M55.4,0.7C55.4,0.7,55.4,0.7,55.4,0.7C55.4,0.7,55.4,0.7,55.4,0.7C55.4,0.6,55.4,0.6,55.4,0.7z"/>
	<path class="st4" d="M53.1,2.8 M50.6,2.3L65.5,17H50.6V2.3z"/>
	<path class="st5" d="M50.5,1v13c0,1.8,1,3,2.8,3h13.2 M62.5,11.7"/>
	<path class="st5" d="M66.5,16.7v53.9c0,1.8-1.5,3.3-3.3,3.3H11c-1.9,0-3.5-1.6-3.5-3.5V4.3C7.5,2.5,9,1,10.8,1h39.7L66.5,16.7z"/>
</g>
<g>
	<path class="st2" d="M21,29.9l-0.4-1.7L20.1,26h0l-0.9,3.9h-1.4l-1.4-4.9h1.3l0.6,2.2c0.1,0.4,0.2,0.9,0.3,1.6h0
		c0-0.2,0.1-0.6,0.2-1.1l0.1-0.4l0.6-2.4h1.5l0.6,2.4c0,0.1,0,0.2,0.1,0.3c0,0.1,0,0.3,0.1,0.4c0,0.1,0,0.3,0.1,0.4
		c0,0.1,0,0.2,0,0.3h0c0-0.2,0.1-0.5,0.1-0.9c0.1-0.4,0.1-0.6,0.1-0.7l0.6-2.2h1.3l-1.4,4.9H21z"/>
	<path class="st2" d="M29.5,29.9h-1.3V27c0-0.7-0.3-1.1-0.8-1.1c-0.4,0-0.6,0.1-0.8,0.4s-0.3,0.7-0.3,1.2v2.3H25V23h1.3v1.4
		c0,0.1,0,0.4,0,0.8l0,0.4h0.1c0.3-0.5,0.8-0.7,1.4-0.7c0.6,0,1,0.2,1.3,0.5s0.4,0.8,0.4,1.3V29.9z"/>
	<path class="st2" d="M35.6,27.4c0,0.8-0.2,1.4-0.6,1.9s-1,0.7-1.8,0.7c-0.5,0-0.9-0.1-1.2-0.3c-0.4-0.2-0.6-0.5-0.8-0.9
		s-0.3-0.8-0.3-1.4c0-0.8,0.2-1.4,0.6-1.9c0.4-0.4,1-0.7,1.8-0.7c0.5,0,0.9,0.1,1.2,0.3c0.4,0.2,0.6,0.5,0.8,0.9
		S35.6,26.9,35.6,27.4z M32.2,27.4c0,0.5,0.1,0.9,0.2,1.1c0.2,0.2,0.4,0.4,0.8,0.4c0.4,0,0.6-0.1,0.8-0.4c0.2-0.2,0.2-0.6,0.2-1.1
		c0-0.5-0.1-0.9-0.2-1.1s-0.4-0.4-0.8-0.4c-0.4,0-0.6,0.1-0.8,0.4C32.3,26.5,32.2,26.9,32.2,27.4z"/>
	<path class="st2" d="M21,40.7l-0.4-1.7l-0.5-2.2h0l-0.9,3.9h-1.4l-1.4-4.9h1.3l0.6,2.2c0.1,0.4,0.2,0.9,0.3,1.6h0
		c0-0.2,0.1-0.6,0.2-1.1l0.1-0.4l0.6-2.4h1.5l0.6,2.4c0,0.1,0,0.2,0.1,0.3c0,0.1,0,0.3,0.1,0.4c0,0.1,0,0.3,0.1,0.4
		c0,0.1,0,0.2,0,0.3h0c0-0.2,0.1-0.5,0.1-0.9c0.1-0.4,0.1-0.6,0.1-0.7l0.6-2.2h1.3l-1.4,4.9H21z"/>
	<path class="st2" d="M29.5,40.7h-1.3v-2.9c0-0.7-0.3-1.1-0.8-1.1c-0.4,0-0.6,0.1-0.8,0.4s-0.3,0.7-0.3,1.2v2.3H25v-6.8h1.3v1.4
		c0,0.1,0,0.4,0,0.8l0,0.4h0.1c0.3-0.5,0.8-0.7,1.4-0.7c0.6,0,1,0.2,1.3,0.5s0.4,0.8,0.4,1.3V40.7z"/>
	<path class="st2" d="M34.3,40.7L34,40h0c-0.2,0.3-0.5,0.5-0.7,0.6c-0.2,0.1-0.5,0.2-0.9,0.2c-0.5,0-0.8-0.1-1.1-0.4
		c-0.3-0.3-0.4-0.7-0.4-1.2c0-0.5,0.2-0.9,0.5-1.2c0.4-0.2,0.9-0.4,1.7-0.4l0.9,0v-0.2c0-0.5-0.3-0.7-0.8-0.7
		c-0.4,0-0.9,0.1-1.4,0.4l-0.4-0.9c0.6-0.3,1.2-0.4,1.9-0.4c0.7,0,1.2,0.1,1.5,0.4s0.5,0.7,0.5,1.3v3.3H34.3z M33.9,38.4l-0.5,0
		c-0.4,0-0.7,0.1-0.9,0.2s-0.3,0.3-0.3,0.6c0,0.4,0.2,0.6,0.7,0.6c0.3,0,0.6-0.1,0.7-0.3c0.2-0.2,0.3-0.4,0.3-0.7V38.4z"/>
	<path class="st2" d="M38.9,39.7c0.2,0,0.5-0.1,0.8-0.2v1c-0.3,0.1-0.7,0.2-1.2,0.2c-0.5,0-0.9-0.1-1.2-0.4
		c-0.2-0.3-0.4-0.7-0.4-1.2v-2.4h-0.6v-0.6l0.7-0.4l0.4-1h0.9v1h1.4v1h-1.4v2.4c0,0.2,0.1,0.3,0.2,0.4
		C38.6,39.6,38.8,39.7,38.9,39.7z"/>
	<path class="st2" d="M21,51.5l-0.4-1.7l-0.5-2.2h0l-0.9,3.9h-1.4l-1.4-4.9h1.3l0.6,2.2c0.1,0.4,0.2,0.9,0.3,1.6h0
		c0-0.2,0.1-0.6,0.2-1.1l0.1-0.4l0.6-2.4h1.5l0.6,2.4c0,0.1,0,0.2,0.1,0.3c0,0.1,0,0.3,0.1,0.4c0,0.1,0,0.3,0.1,0.4
		c0,0.1,0,0.2,0,0.3h0c0-0.2,0.1-0.5,0.1-0.9c0.1-0.4,0.1-0.6,0.1-0.7l0.6-2.2h1.3l-1.4,4.9H21z"/>
	<path class="st2" d="M29.5,51.5h-1.3v-2.9c0-0.7-0.3-1.1-0.8-1.1c-0.4,0-0.6,0.1-0.8,0.4s-0.3,0.7-0.3,1.2v2.3H25v-6.8h1.3V46
		c0,0.1,0,0.4,0,0.8l0,0.4h0.1c0.3-0.5,0.8-0.7,1.4-0.7c0.6,0,1,0.2,1.3,0.5s0.4,0.8,0.4,1.3V51.5z"/>
	<path class="st2" d="M33.4,51.5c-0.8,0-1.4-0.2-1.9-0.7s-0.7-1.1-0.7-1.9c0-0.8,0.2-1.5,0.6-1.9c0.4-0.4,1-0.7,1.7-0.7
		c0.7,0,1.2,0.2,1.6,0.6s0.6,0.9,0.6,1.6v0.7h-3.2c0,0.4,0.1,0.7,0.3,0.9s0.5,0.3,0.9,0.3c0.3,0,0.6,0,0.8-0.1s0.5-0.2,0.8-0.3v1
		c-0.2,0.1-0.5,0.2-0.8,0.3C34.1,51.5,33.8,51.5,33.4,51.5z M33.2,47.4c-0.3,0-0.5,0.1-0.7,0.3c-0.2,0.2-0.3,0.4-0.3,0.8h1.9
		c0-0.3-0.1-0.6-0.3-0.8C33.7,47.5,33.5,47.4,33.2,47.4z"/>
	<path class="st2" d="M41.3,51.5h-1.3v-2.9c0-0.4-0.1-0.6-0.2-0.8s-0.3-0.3-0.6-0.3c-0.4,0-0.6,0.1-0.8,0.4
		c-0.2,0.3-0.3,0.7-0.3,1.2v2.3h-1.3v-4.9h1l0.2,0.6H38c0.1-0.2,0.4-0.4,0.6-0.5c0.3-0.1,0.6-0.2,0.9-0.2c0.6,0,1,0.2,1.3,0.5
		c0.3,0.3,0.4,0.8,0.4,1.3V51.5z"/>
	<path class="st2" d="M21,62.3l-0.4-1.7l-0.5-2.2h0l-0.9,3.9h-1.4l-1.4-4.9h1.3l0.6,2.2c0.1,0.4,0.2,0.9,0.3,1.6h0
		c0-0.2,0.1-0.6,0.2-1.1l0.1-0.4l0.6-2.4h1.5l0.6,2.4c0,0.1,0,0.2,0.1,0.3c0,0.1,0,0.3,0.1,0.4c0,0.1,0,0.3,0.1,0.4
		c0,0.1,0,0.2,0,0.3h0c0-0.2,0.1-0.5,0.1-0.9c0.1-0.4,0.1-0.6,0.1-0.7l0.6-2.2h1.3l-1.4,4.9H21z"/>
	<path class="st2" d="M29.5,62.3h-1.3v-2.9c0-0.7-0.3-1.1-0.8-1.1c-0.4,0-0.6,0.1-0.8,0.4s-0.3,0.7-0.3,1.2v2.3H25v-6.8h1.3v1.4
		c0,0.1,0,0.4,0,0.8l0,0.4h0.1c0.3-0.5,0.8-0.7,1.4-0.7c0.6,0,1,0.2,1.3,0.5s0.4,0.8,0.4,1.3V62.3z"/>
	<path class="st2" d="M33.4,62.3c-0.8,0-1.4-0.2-1.9-0.7s-0.7-1.1-0.7-1.9c0-0.8,0.2-1.5,0.6-1.9c0.4-0.4,1-0.7,1.7-0.7
		c0.7,0,1.2,0.2,1.6,0.6s0.6,0.9,0.6,1.6v0.7h-3.2c0,0.4,0.1,0.7,0.3,0.9s0.5,0.3,0.9,0.3c0.3,0,0.6,0,0.8-0.1s0.5-0.2,0.8-0.3v1
		c-0.2,0.1-0.5,0.2-0.8,0.3C34.1,62.3,33.8,62.3,33.4,62.3z M33.2,58.2c-0.3,0-0.5,0.1-0.7,0.3c-0.2,0.2-0.3,0.4-0.3,0.8h1.9
		c0-0.3-0.1-0.6-0.3-0.8C33.7,58.3,33.5,58.2,33.2,58.2z"/>
	<path class="st2" d="M39.5,57.2c0.2,0,0.3,0,0.5,0l-0.1,1.3c-0.1,0-0.2,0-0.4,0c-0.4,0-0.8,0.1-1,0.3c-0.2,0.2-0.4,0.5-0.4,0.9v2.5
		h-1.3v-4.9h1l0.2,0.8H38c0.2-0.3,0.4-0.5,0.6-0.7C38.9,57.3,39.2,57.2,39.5,57.2z"/>
	<path class="st2" d="M43.3,62.3c-0.8,0-1.4-0.2-1.9-0.7s-0.7-1.1-0.7-1.9c0-0.8,0.2-1.5,0.6-1.9c0.4-0.4,1-0.7,1.7-0.7
		c0.7,0,1.2,0.2,1.6,0.6s0.6,0.9,0.6,1.6v0.7h-3.2c0,0.4,0.1,0.7,0.3,0.9s0.5,0.3,0.9,0.3c0.3,0,0.6,0,0.8-0.1s0.5-0.2,0.8-0.3v1
		c-0.2,0.1-0.5,0.2-0.8,0.3C44,62.3,43.7,62.3,43.3,62.3z M43.1,58.2c-0.3,0-0.5,0.1-0.7,0.3c-0.2,0.2-0.3,0.4-0.3,0.8h1.9
		c0-0.3-0.1-0.6-0.3-0.8C43.6,58.3,43.4,58.2,43.1,58.2z"/>
</g>
<line class="st61" x1="40.7" y1="27.1" x2="56.2" y2="27.1"/>
<line class="st61" x1="43.7" y1="38.3" x2="56.2" y2="38.3"/>
<line class="st61" x1="46.6" y1="49.1" x2="56.2" y2="49.1"/>
<line class="st61" x1="50.1" y1="60.1" x2="56.2" y2="60.1"/>
</svg>
