<svg id="Layer_1" data-name="Layer 1" xmlns="http://www.w3.org/2000/svg" viewBox="0 0 75 75"><defs><style>.cls-1{fill:#fff;}.cls-2{fill:none;stroke:#0d72b9;stroke-miterlimit:10;stroke-width:2px;}.cls-3,.cls-4{fill:#0d72b9;}.cls-4{opacity:0.1;}</style></defs><title>360°_Visibility copy 2</title><path class="cls-1" d="M56.32.67l0,0-.1,0Z"/><path class="cls-2" d="M23.41,5H12.31C11,5,10,5.51,10,6.71V71.29c0,1.2,1,2.71,2.31,2.71H64.44A3,3,0,0,0,67,71.29V6.71C67,5.51,65.7,5,64.44,5H53.59"/><ellipse class="cls-3" cx="19.73" cy="34" rx="1.71" ry="1.71"/><rect class="cls-3" x="26" y="24" width="31" height="2" rx="1" ry="1"/><rect class="cls-3" x="26" y="33" width="31" height="2" rx="1" ry="1"/><rect class="cls-4" x="23" y="1" width="30" height="8" rx="1.25" ry="1.25"/><path class="cls-3" d="M51.75,2a.25.25,0,0,1,.25.25V7.75a.25.25,0,0,1-.25.25H24.25A.25.25,0,0,1,24,7.75V2.25A.25.25,0,0,1,24.25,2H51.75m0-2H24.25A2.25,2.25,0,0,0,22,2.25V7.75A2.25,2.25,0,0,0,24.25,10H51.75A2.25,2.25,0,0,0,54,7.75V2.25A2.25,2.25,0,0,0,51.75,0Z"/><rect class="cls-3" x="18.02" y="23.19" width="3.43" height="3.41" rx="1.71" ry="1.71"/><ellipse class="cls-3" cx="19.73" cy="52.2" rx="1.71" ry="1.71"/><rect class="cls-3" x="26" y="42" width="31" height="2" rx="1" ry="1"/><rect class="cls-3" x="26" y="51" width="31" height="2" rx="1" ry="1"/><ellipse class="cls-3" cx="19.73" cy="61.31" rx="1.71" ry="1.71"/><rect class="cls-3" x="26" y="60" width="31" height="2" rx="1" ry="1"/><rect class="cls-3" x="18.02" y="41.4" width="3.43" height="3.41" rx="1.71" ry="1.71"/></svg>