<svg id="Layer_1" data-name="Layer 1" xmlns="http://www.w3.org/2000/svg" viewBox="0 0 75 75"><defs><style>.cls-1,.cls-4,.cls-5,.cls-6{fill:#0d72b9;}.cls-1{opacity:0.1;}.cls-2,.cls-3{fill:none;stroke:#0d72b9;stroke-width:2px;}.cls-2{stroke-linecap:round;stroke-linejoin:round;}.cls-3{stroke-miterlimit:10;}.cls-4{fill-opacity:0.1;}.cls-5{font-size:16.07px;font-family:OpenSans-Semibold, Open Sans;font-weight:700;}</style></defs><title>Сompliance _reports</title><rect class="cls-1" x="18.6" y="12.16" width="37.74" height="21.56" rx="1.01" ry="1.01"/><path class="cls-2" d="M10,34v-.84C10,31.44,10,29,12.62,29H14"/><path class="cls-3" d="M66.39,35c2.91,0,3.06,2.85,2.9,3.79L64.18,71c-.25,1.55-1.57,2-3,2H15c-1.49,0-2.39-.52-2.65-2L6.53,38.62a3.1,3.1,0,0,1,3-3.62Z"/><path class="cls-2" d="M60,29h1.24C64,29,64,31.45,64,33.26V34"/><line class="cls-3" x1="12" y1="35" x2="64" y2="35"/><path class="cls-2" d="M56.95,4.83C56.95,3,56.95,2,55.47,2H20c-1.48,0-1.48,1-1.48,2.83"/><path class="cls-4" d="M56.95,5.95c0-1.49,0-3.95-1.48-3.95H20c-1.48,0-1.48,2.45-1.48,3.95"/><text class="cls-5" transform="translate(25.43 59.74) scale(1.03 1)">PCI</text><rect class="cls-6" x="24" y="19" width="28" height="2" rx="0.97" ry="0.97"/><rect class="cls-6" x="24" y="24" width="19" height="2" rx="0.95" ry="0.95"/><path class="cls-3" d="M59,36V12.45c0-2,0-3.45-2.41-3.45H17.41C15,9,15,10.54,15,12.45V36"/></svg>