<svg id="Layer_1" data-name="Layer 1" xmlns="http://www.w3.org/2000/svg" xmlns:xlink="http://www.w3.org/1999/xlink" viewBox="0 0 75 75"><defs><style>.cls-1,.cls-3,.cls-7{fill:none;}.cls-2,.cls-5,.cls-8,.cls-9{fill:#0d72b9;}.cls-2{opacity:0.1;}.cls-3,.cls-5,.cls-7{stroke:#0d72b9;stroke-width:2px;}.cls-3,.cls-5{stroke-miterlimit:10;}.cls-4{clip-path:url(#clip-path);}.cls-5,.cls-8{fill-opacity:0.1;}.cls-6{clip-path:url(#clip-path-2);}.cls-7{stroke-linecap:round;stroke-linejoin:round;}</style><clipPath id="clip-path"><path class="cls-1" d="M62,57V13.18A2.18,2.18,0,0,0,59.82,11H21.71L13,19.7V70.82A2.18,2.18,0,0,0,15.18,73H52"/></clipPath><clipPath id="clip-path-2"><path class="cls-2" d="M2,60.23V11l8.74-9H49v9H20.89L12,20.77V62H3.77A1.77,1.77,0,0,1,2,60.23Z"/></clipPath></defs><title>Сonfigurations</title><path class="cls-3" d="M62,57V13.18A2.18,2.18,0,0,0,59.82,11H21.71L13,19.7V70.82A2.18,2.18,0,0,0,15.18,73H52"/><g class="cls-4"><path class="cls-5" d="M6,19.38a.63.63,0,0,0,.62.62H22.38a.63.63,0,0,0,.62-.62V3.62A.63.63,0,0,0,22.38,3H6.62A.63.63,0,0,0,6,3.62Z"/></g><path class="cls-2" d="M2,60.23V11l8.74-9H49v9H20.89L12,20.77V62H3.77A1.77,1.77,0,0,1,2,60.23Z"/><g class="cls-6"><path class="cls-5" d="M-5,11.38a.63.63,0,0,0,.62.62H11.38a.63.63,0,0,0,.62-.62V-4.38A.63.63,0,0,0,11.38-5H-4.38A.63.63,0,0,0-5-4.38Z"/></g><path class="cls-7" d="M49,11V4.14A2.14,2.14,0,0,0,46.86,2H10.74L2,10.73v49.5A1.77,1.77,0,0,0,3.77,62H13"/><rect class="cls-3" x="50" y="58" width="23" height="15" rx="2.17" ry="2.17"/><path class="cls-2" d="M55.51,73H52.23a2.19,2.19,0,0,1-2.18-2.18V59.87a2.19,2.19,0,0,1,2.18-2.18h3.27Z"/><circle class="cls-5" cx="60.96" cy="65.33" r="3.27"/><path class="cls-3" d="M38,33.4a5.7,5.7,0,0,0-1.57-5.49,6,6,0,0,0-6.18-1.37l3.61,3.53a1.23,1.23,0,0,1,0,1.76l-.78.76-.13.12-.12.13L32,33.6a1.3,1.3,0,0,1-1.81,0l-3.61-3.53a5.7,5.7,0,0,0,1.4,6,6,6,0,0,0,5.62,1.53l12.5,12.2a3.12,3.12,0,0,0,4.34,0,3,3,0,0,0,0-4.24Z"/><path class="cls-8" d="M32.94,32.71l-.12.13L32,33.6a1.3,1.3,0,0,1-1.81,0l-3.61-3.53a5.7,5.7,0,0,0,1.4,6,6,6,0,0,0,5.62,1.53l12.5,12.2a3.12,3.12,0,0,0,4.34,0"/><path class="cls-3" d="M43.93,38l6.6-6.44a3,3,0,0,0,0-4.24,3.12,3.12,0,0,0-4.34,0l-6.6,6.44"/><path class="cls-3" d="M43.93,38l6.6-6.44a3,3,0,0,0,0-4.24,3.12,3.12,0,0,0-4.34,0l-6.6,6.44"/><polygon class="cls-9" points="27.79 51.25 29.82 48.2 31.71 47.7 35.22 44.15 35.39 44.32 31.78 47.72 31.28 49.57 28.11 51.56 27.79 51.25"/><polygon class="cls-9" points="35.2 42.74 31.19 46.81 29.19 47.33 26.5 51.39 27.98 52.83 32.14 50.2 32.67 48.25 36.84 44.34 35.2 42.74 35.2 42.74"/><line class="cls-7" x1="66" y1="54" x2="72" y2="54"/><polygon class="cls-2" points="40.23 33.68 41.32 36.95 51.14 27.13 48.96 26.04 40.23 33.68"/></svg>