<svg id="Layer_1" data-name="Layer 1" xmlns="http://www.w3.org/2000/svg" xmlns:xlink="http://www.w3.org/1999/xlink" viewBox="0 0 75 75"><defs><style>.cls-1,.cls-5{fill:none;}.cls-2,.cls-4,.cls-6{fill:#0d72b9;}.cls-3{clip-path:url(#clip-path);}.cls-4{fill-opacity:0.1;stroke-width:2px;}.cls-4,.cls-5{stroke:#0d72b9;stroke-miterlimit:10;}.cls-5{stroke-width:2.06px;}.cls-6{opacity:0.1;}</style><clipPath id="clip-path"><polyline class="cls-1" points="43.35 0.7 19.92 0.7 10.15 10.43 10.15 26.57"/></clipPath></defs><title>360°_Visibility copy 18</title><path class="cls-2" d="M66.82,64.08c0-2.73-.09-6.38-.11-8.75l.05,0V28.15a4.66,4.66,0,0,1-1.3.17,4,4,0,0,1-.73-.07V52.7h.11s-.12,4.13,0,11.42c0,2.81.09,5.34.09,6.49,0,2-1.09,2.2-1.41,2.36H13A2.54,2.54,0,0,1,11,71V66.28a1.35,1.35,0,0,1-.56.07A12.09,12.09,0,0,1,9,66.17V71a4,4,0,0,0,4,4H63.33c1,0,3.59-.79,3.59-4.39C66.91,69.46,66.87,66.9,66.82,64.08ZM11,56.15V11.07l9.49-9H63.37A1.38,1.38,0,0,1,64.74,3.4V17.21a4.34,4.34,0,0,1,.73-.06,5,5,0,0,1,1.3.16V3.56A3.56,3.56,0,0,0,63.21,0H19.61L9,10.17V56.26a6.36,6.36,0,0,1,1.47-.17A1.35,1.35,0,0,1,11,56.15Z"/><g class="cls-3"><path class="cls-4" d="M1.52,10.79a.7.7,0,0,0,.69.69h18a.7.7,0,0,0,.69-.69v-19a.7.7,0,0,0-.69-.69h-18a.7.7,0,0,0-.69.69Z"/></g><line class="cls-5" x1="50.43" y1="42.81" x2="62.38" y2="26.87"/><line class="cls-5" x1="32.39" y1="42.62" x2="42.69" y2="45.15"/><line class="cls-5" x1="13.61" y1="57.59" x2="24.69" y2="44.7"/><circle class="cls-6" cx="27.39" cy="41.58" r="4.36"/><path class="cls-2" d="M27.39,38.25a3.33,3.33,0,1,1-3.33,3.33,3.33,3.33,0,0,1,3.33-3.33m0-2.06a5.39,5.39,0,1,0,5.39,5.39,5.39,5.39,0,0,0-5.39-5.39Z"/><circle class="cls-6" cx="46.8" cy="45.9" r="4.36"/><path class="cls-2" d="M46.8,42.57a3.33,3.33,0,1,1-3.33,3.33,3.33,3.33,0,0,1,3.33-3.33m0-2.06a5.39,5.39,0,1,0,5.39,5.39,5.39,5.39,0,0,0-5.39-5.39Z"/><ellipse class="cls-6" cx="65.42" cy="23.47" rx="4.66" ry="4.57"/><path class="cls-2" d="M65.42,19.93a3.54,3.54,0,1,1-3.63,3.54,3.59,3.59,0,0,1,3.63-3.54m0-2.06a5.6,5.6,0,1,0,5.69,5.6,5.64,5.64,0,0,0-5.69-5.6Z"/><ellipse class="cls-6" cx="10.45" cy="61.19" rx="4.66" ry="4.57"/><path class="cls-2" d="M10.45,57.66a3.54,3.54,0,1,1-3.63,3.54,3.59,3.59,0,0,1,3.63-3.54m0-2.06a5.6,5.6,0,1,0,5.69,5.6,5.64,5.64,0,0,0-5.69-5.6Z"/></svg>