<?xml version="1.0" encoding="utf-8"?>
<!-- Generator: Adobe Illustrator 21.0.0, SVG Export Plug-In . SVG Version: 6.00 Build 0)  -->
<svg version="1.1" id="Layer_1" xmlns="http://www.w3.org/2000/svg" xmlns:xlink="http://www.w3.org/1999/xlink" x="0px" y="0px"
	 viewBox="0 0 75 75" style="enable-background:new 0 0 75 75;" xml:space="preserve">
<style type="text/css">
	.st0{fill:#FFFFFF;stroke:#0D72B9;stroke-width:2;stroke-miterlimit:10;}
	.st1{opacity:0.2;fill:#0D72B9;}
	.st2{fill:#0D72B9;}
	.st3{fill:#FFFFFF;}
	.st4{opacity:0.1;fill:#0D72B9;}
	.st5{fill:none;stroke:#0D72B9;stroke-width:2;stroke-miterlimit:10;}
	.st6{display:none;fill:#1978B7;}
	.st7{fill:#1978B7;}
	.st8{fill:none;stroke:#0D72B9;stroke-width:2;stroke-linecap:round;stroke-linejoin:round;stroke-miterlimit:10;}
	.st9{opacity:0.1;fill:#FFFFFF;}
	.st10{fill:none;}
	.st11{fill:#FFFFFF;fill-opacity:0.1;stroke:#FFFFFF;stroke-width:2;stroke-miterlimit:10;}
	.st12{fill:none;stroke:#FFFFFF;stroke-width:2;stroke-miterlimit:10;}
	.st13{fill:none;stroke:#FFFFFF;stroke-width:2;stroke-linecap:round;stroke-linejoin:round;stroke-miterlimit:10;}
	.st14{fill:#0D72B9;fill-opacity:0.1;stroke:#0D72B9;stroke-width:2;stroke-miterlimit:10;}
	.st15{fill:#0D72B9;fill-opacity:0.1;}
	.st16{fill:#FFFFFF;fill-opacity:0.1;}
	.st17{opacity:0.1;fill:none;stroke:#0D72B9;stroke-width:4;stroke-linecap:round;stroke-linejoin:round;stroke-miterlimit:10;}
	.st18{opacity:0.1;fill:#0D72B9;stroke:#0D72B9;stroke-width:2;stroke-linecap:round;stroke-linejoin:round;stroke-miterlimit:10;}
	.st19{opacity:0.1;fill:none;stroke:#FFFFFF;stroke-width:4;stroke-linecap:round;stroke-linejoin:round;stroke-miterlimit:10;}
	
		.st20{fill:#FFFFFF;fill-opacity:0.1;stroke:#0D72B9;stroke-width:2;stroke-linecap:round;stroke-linejoin:round;stroke-miterlimit:10;}
	
		.st21{fill:none;stroke:#0D72B9;stroke-width:5;stroke-linecap:round;stroke-linejoin:round;stroke-miterlimit:10;stroke-opacity:0.1;}
	.st22{opacity:0.1;fill:none;stroke:#0D72B9;stroke-width:2;stroke-linecap:round;stroke-linejoin:round;stroke-miterlimit:10;}
	
		.st23{fill:#FFFFFF;fill-opacity:0.1;stroke:#FFFFFF;stroke-width:2;stroke-linecap:round;stroke-linejoin:round;stroke-miterlimit:10;}
	
		.st24{fill:none;stroke:#FFFFFF;stroke-width:5;stroke-linecap:round;stroke-linejoin:round;stroke-miterlimit:10;stroke-opacity:0.1;}
	.st25{opacity:0.1;fill:none;stroke:#FFFFFF;stroke-width:2;stroke-linecap:round;stroke-linejoin:round;stroke-miterlimit:10;}
	.st26{clip-path:url(#SVGID_2_);fill:#0D72B9;fill-opacity:0.1;stroke:#0D72B9;stroke-width:2;stroke-miterlimit:10;}
	.st27{clip-path:url(#SVGID_4_);fill:#0D72B9;fill-opacity:0.1;stroke:#0D72B9;stroke-width:2;stroke-miterlimit:10;}
	.st28{fill:#0D72B9;stroke:#0D72B9;stroke-miterlimit:10;}
	.st29{fill:#FFFFFF;stroke:#FFFFFF;stroke-miterlimit:10;}
	.st30{opacity:0.1;}
	.st31{fill:#FFFFFF;fill-opacity:0.15;stroke:#FFFFFF;stroke-width:2;stroke-miterlimit:10;}
	.st32{fill:#0D72B9;fill-opacity:0.15;stroke:#0D72B9;stroke-width:2;stroke-miterlimit:10;}
	.st33{opacity:0.2;fill:none;stroke:#FFFFFF;stroke-width:4;stroke-linecap:round;stroke-linejoin:round;stroke-miterlimit:10;}
	.st34{opacity:0.2;fill:#FFFFFF;}
	
		.st35{fill:#FFFFFF;fill-opacity:0.1;stroke:#0D72B9;stroke-width:1.8339;stroke-linecap:round;stroke-linejoin:round;stroke-miterlimit:10;}
	.st36{fill:none;stroke:#0D72B9;stroke-width:1.8339;stroke-linecap:round;stroke-linejoin:round;stroke-miterlimit:10;}
	
		.st37{fill:none;stroke:#0D72B9;stroke-width:4.5848;stroke-linecap:round;stroke-linejoin:round;stroke-miterlimit:10;stroke-opacity:0.1;}
	
		.st38{opacity:0.1;fill:none;stroke:#0D72B9;stroke-width:1.8339;stroke-linecap:round;stroke-linejoin:round;stroke-miterlimit:10;}
	
		.st39{opacity:0.1;fill:#0D72B9;stroke:#0D72B9;stroke-width:1.8339;stroke-linecap:round;stroke-linejoin:round;stroke-miterlimit:10;}
	.st40{clip-path:url(#SVGID_6_);fill:#0D72B9;fill-opacity:0.1;stroke:#0D72B9;stroke-width:2;stroke-miterlimit:10;}
	.st41{clip-path:url(#SVGID_8_);fill:#0D72B9;fill-opacity:0.1;stroke:#0D72B9;stroke-width:2;stroke-miterlimit:10;}
	.st42{fill:#0D72B9;stroke:#0D72B9;stroke-width:1.6769;stroke-miterlimit:10;}
	.st43{fill:#0D72B9;stroke:#FFFFFF;stroke-width:1.6769;stroke-miterlimit:10;}
	.st44{fill:none;stroke:#0D72B9;stroke-width:2.0597;stroke-miterlimit:10;}
	.st45{fill:none;stroke:#1978B7;stroke-width:2;stroke-miterlimit:10;}
	.st46{opacity:0.2;}
	.st47{fill:#0D72B9;fill-opacity:0.1;stroke:#0D72B9;stroke-width:2.0305;stroke-miterlimit:10;}
	.st48{fill:#FFFFFF;fill-opacity:0.2;stroke:#FFFFFF;stroke-width:2;stroke-miterlimit:10;}
	.st49{fill:#0D72B9;stroke:#0D72B9;stroke-width:1.4778;stroke-miterlimit:10;}
	.st50{fill:none;stroke:#0D72B9;stroke-width:1.9552;stroke-linecap:round;stroke-linejoin:round;stroke-miterlimit:10;}
	.st51{fill:none;stroke:#0D72B9;stroke-width:2.0307;stroke-linecap:round;stroke-linejoin:round;stroke-miterlimit:10;}
	.st52{fill:#FFFFFF;fill-opacity:0.2;}
	.st53{fill:none;stroke:#0D72B9;stroke-width:0;stroke-linecap:round;stroke-linejoin:round;stroke-miterlimit:10;}
	
		.st54{fill:none;stroke:#FFFFFF;stroke-width:4;stroke-linecap:round;stroke-linejoin:round;stroke-miterlimit:10;stroke-opacity:0.2;}
	.st55{opacity:0.1;fill:#FFFFFF;stroke:#FFFFFF;stroke-width:2;stroke-linecap:round;stroke-linejoin:round;stroke-miterlimit:10;}
	.st56{fill:none;stroke:#FFFFFF;stroke-width:0;stroke-miterlimit:10;}
	
		.st57{fill:#0D72B9;fill-opacity:0.1;stroke:#0D72B9;stroke-width:2;stroke-linecap:round;stroke-linejoin:round;stroke-miterlimit:10;}
	.st58{fill:#0D72B9;fill-opacity:0.1;stroke:#FFFFFF;stroke-width:2;stroke-miterlimit:10;}
	.st59{clip-path:url(#SVGID_10_);fill:#FFFFFF;fill-opacity:0.2;stroke:#FFFFFF;stroke-width:2;stroke-miterlimit:10;}
	.st60{fill:none;stroke:#FFFFFF;stroke-width:2.0597;stroke-miterlimit:10;}
	.st61{fill:none;stroke:#0D72B9;stroke-width:2;stroke-linecap:round;stroke-miterlimit:10;}
	.st62{display:none;fill:none;stroke:#0D72B9;stroke-width:1.972;stroke-linecap:round;stroke-miterlimit:10;}
	.st63{display:none;fill:#0D72B9;fill-opacity:0.1;}
	.st64{fill:none;stroke:#FFFFFF;stroke-width:2;stroke-linecap:round;stroke-miterlimit:10;}
	.st65{fill:#FFFFFF;fill-opacity:0.3;}
	.st66{fill:#0D72B9;fill-opacity:8.000000e-02;}
	.st67{fill:#0D72B9;fill-opacity:0.15;}
	.st68{fill:none;stroke:#0D72B9;stroke-width:2.048;stroke-linecap:round;stroke-miterlimit:10;}
	.st69{fill:#FFFFFF;fill-opacity:8.000000e-02;}
	.st70{fill:#FFFFFF;fill-opacity:0.15;}
	.st71{fill:none;stroke:#FFFFFF;stroke-width:2.048;stroke-linecap:round;stroke-miterlimit:10;}
	.st72{fill:none;stroke:#1FBFF0;stroke-width:2;stroke-linecap:round;stroke-miterlimit:10;}
	.st73{fill:#1FBFF0;fill-opacity:0.1;}
	.st74{fill:#1FBFF0;}
	.st75{opacity:0.3;fill:#006FB9;enable-background:new    ;}
	.st76{fill:#FFFFFF;stroke:#006FB9;stroke-width:1.7889;}
	.st77{fill:#FFFFFF;stroke:#006FB9;stroke-width:2;}
	.st78{fill:none;stroke:#006FB9;stroke-width:2;}
	.st79{fill:none;stroke:#006FB9;stroke-width:2.3445;}
	.st80{opacity:0.1;fill:#0D72B9;enable-background:new    ;}
	.st81{opacity:0.1;fill:#FFFFFF;enable-background:new    ;}
	.st82{fill:none;stroke:#006FB9;stroke-width:2;stroke-linecap:round;stroke-miterlimit:10;}
	.st83{fill:none;stroke:#006FB9;stroke-width:2;stroke-miterlimit:10;}
	.st84{opacity:0.3;fill:#006FB9;}
	.st85{fill:none;stroke:#0D72B9;stroke-width:2;stroke-linecap:round;stroke-linejoin:round;}
	.st86{opacity:0.2;fill:#0D72B9;enable-background:new    ;}
	.st87{fill:#006FB9;}
	.st88{display:none;fill:none;stroke:#0D72B9;stroke-width:2;stroke-linecap:round;stroke-linejoin:round;stroke-miterlimit:10;}
	.st89{display:none;}
	.st90{display:inline;fill:#0D72B9;}
	.st91{opacity:0.2;fill:#006FB9;}
	.st92{display:none;opacity:0.1;fill:#0D72B9;}
	.st93{fill:#FFFFFF;stroke:#0D72B9;stroke-width:2;stroke-linecap:round;stroke-miterlimit:10;}
	.st94{opacity:0.1;fill:#006FB9;enable-background:new    ;}
	.st95{opacity:0.1;fill:#006FB9;}
	.st96{opacity:0.3;fill:#0D72B9;}
</style>
<g class="st89">
	<circle class="st90" cx="21.6" cy="38" r="1"/>
	<circle class="st90" cx="21.6" cy="42" r="1"/>
	<circle class="st90" cx="21.6" cy="46.1" r="1"/>
	<circle class="st90" cx="29.8" cy="50.1" r="1"/>
	<circle class="st90" cx="25.7" cy="50.1" r="1"/>
	<circle class="st90" cx="21.7" cy="50.1" r="1"/>
</g>
<circle class="st2" cx="33.3" cy="64" r="1"/>
<circle class="st2" cx="37.4" cy="64" r="1"/>
<circle class="st2" cx="41.5" cy="64" r="1"/>
<g>
	<ellipse transform="matrix(0.4811 -0.8767 0.8767 0.4811 -18.9911 36.0299)" class="st2" cx="20.9" cy="34.1" rx="1" ry="1"/>
	<ellipse transform="matrix(0.4811 -0.8767 0.8767 0.4811 -14.8625 35.8957)" class="st2" cx="22.9" cy="30.5" rx="1" ry="1"/>
	<ellipse transform="matrix(0.4811 -0.8767 0.8767 0.4811 -10.7265 35.7535)" class="st2" cx="24.8" cy="26.9" rx="1" ry="1"/>
	<ellipse transform="matrix(0.4811 -0.8767 0.8767 0.4811 -27.2715 36.2993)" class="st2" cx="17" cy="41.2" rx="1" ry="1"/>
	<ellipse transform="matrix(0.4811 -0.8767 0.8767 0.4811 -23.1355 36.1571)" class="st2" cx="19" cy="37.6" rx="1" ry="1"/>
</g>
<ellipse transform="matrix(0.4811 -0.8767 0.8767 0.4811 -31.4112 36.4879)" class="st2" cx="15.1" cy="44.8" rx="1" ry="1"/>
<ellipse transform="matrix(0.4811 -0.8767 0.8767 0.4811 -27.2752 36.3457)" class="st2" cx="17.1" cy="41.2" rx="1" ry="1"/>
<g>
	<ellipse transform="matrix(0.8767 -0.4811 0.4811 0.8767 -9.7958 29.905)" class="st2" cx="53.4" cy="34.1" rx="1" ry="1"/>
	<ellipse transform="matrix(0.8767 -0.4811 0.4811 0.8767 -8.3262 28.528)" class="st2" cx="51.5" cy="30.5" rx="1" ry="1"/>
	<ellipse transform="matrix(0.8767 -0.4811 0.4811 0.8767 -6.8513 27.1511)" class="st2" cx="49.5" cy="26.9" rx="1" ry="1"/>
	<ellipse transform="matrix(0.8767 -0.4811 0.4811 0.8767 -12.7434 32.6668)" class="st2" cx="57.3" cy="41.2" rx="1" ry="1"/>
	<ellipse transform="matrix(0.8767 -0.4811 0.4811 0.8767 -11.2684 31.29)" class="st2" cx="55.4" cy="37.6" rx="1" ry="1"/>
</g>
<path class="st94" d="M62.9,69.5H48.4c-1.1,0-2-0.9-2-2v-9c0-1.1,0.9-2,2-2h14.6c1.1,0,2,0.9,2,2v9C64.9,68.6,64,69.5,62.9,69.5z"/>
<path class="st5" d="M62.9,69.5H48.4c-1.1,0-2-0.9-2-2v-9c0-1.1,0.9-2,2-2h14.6c1.1,0,2,0.9,2,2v9C64.9,68.6,64,69.5,62.9,69.5z"/>
<path class="st61" d="M53,51.9c1.2,0,14.5,0,14.5,0c1.1,0,2,0.9,2,2v9c0,0,0,0,0,0"/>
<path class="st61" d="M57.6,47.4c1.2,0,14.5,0,14.5,0c1.1,0,2,0.9,2,2v9c0,0,0,0,0,0"/>
<line class="st61" x1="48.2" y1="74" x2="63.1" y2="74"/>
<g>
	<circle class="st95" cx="8.7" cy="60.6" r="3.8"/>
	<path class="st95" d="M13.9,67.4c-1.3-0.7-3.1-1.2-5.1-1.2v0c0,0,0,0,0,0c0,0,0,0,0,0v0c-2,0-3.8,0.5-5.1,1.2
		c-1.4,0.8-2.4,1.9-2.4,3.2v3.1c0,0.2,0.2,0.3,0.4,0.3h2.7c0,0,2.2,0,4.4,0c0,0,0,0,0.1,0c2.2,0,4.4,0,4.4,0h2.7
		c0.2,0,0.4-0.2,0.4-0.3v-3.1C16.2,69.3,15.3,68.2,13.9,67.4z"/>
	<circle class="st8" cx="8.7" cy="60.6" r="3.8"/>
	<path class="st8" d="M13.9,67.4c-1.3-0.7-3.1-1.2-5.1-1.2v0c0,0,0,0,0,0c0,0,0,0,0,0v0c-2,0-3.8,0.5-5.1,1.2
		c-1.4,0.8-2.4,1.9-2.4,3.2v3.1c0,0.2,0.2,0.3,0.4,0.3h2.7c0,0,2.2,0,4.4,0c0,0,0,0,0.1,0c2.2,0,4.4,0,4.4,0h2.7
		c0.2,0,0.4-0.2,0.4-0.3v-3.1C16.2,69.3,15.3,68.2,13.9,67.4z"/>
</g>
<g>
	<path class="st8" d="M21.8,70.5c0-0.5,0-3,0-3c0-1.3-0.9-2.5-2.4-3.2c-0.8-0.4-1.8-0.8-2.9-1"/>
	<path class="st8" d="M16.4,63.2c0,0,0-2.7,0-2.7c1.1-0.1,1.6-1.9,1.6-3.1c0-2-1.6-3.7-3.6-3.8"/>
</g>
<g>
	<path class="st8" d="M27.8,67c0-0.5,0-3,0-3c0-1.3-0.9-2.5-2.4-3.2c-0.8-0.4-1.8-0.8-2.9-1"/>
	<path class="st8" d="M22.4,59.8c0,0,0-2.7,0-2.7C23.6,57,24,55.2,24,54c0-2-1.6-3.7-3.6-3.8"/>
</g>
<polygon class="st95" points="46.9,20.3 27.8,20.3 37.4,2.6 "/>
<polygon class="st5" points="46.9,20.3 27.8,20.3 37.4,2.6 "/>
</svg>
