<svg id="Layer_1" data-name="Layer 1" xmlns="http://www.w3.org/2000/svg" viewBox="0 0 75 75"><defs><style>.cls-1,.cls-3{fill:none;stroke:#0d72b9;stroke-width:2px;}.cls-1{stroke-linecap:round;stroke-linejoin:round;}.cls-2,.cls-4{fill:#0d72b9;}.cls-2{opacity:0.2;}.cls-3{stroke-miterlimit:10;}.cls-4{opacity:0.1;}</style></defs><title>360°_Visibility copy 19</title><path class="cls-1" d="M32.47,3.21A15.31,15.31,0,1,0,47.78,18.53,15.33,15.33,0,0,0,32.47,3.21Zm20,44.65c-5.17-3.68-14-6.88-21-6.88-8,0-15.2,1.79-20.54,4.92S2,53.65,2,59.08V71.61A1.37,1.37,0,0,0,3.35,73H47"/><path class="cls-2" d="M43.47,48.58c7.52.2,9.53.31,9.53.31-5.14-3.67-13.79-7.79-20.91-7.79-8.16,0-15.53,1.78-21,4.9S2,53.72,2,59.13V71.61A1.38,1.38,0,0,0,3.38,73h5V62.72c0-4.72,4.38-9.85,9.38-12.53C27,45.22,43.47,48.58,43.47,48.58Z"/><path class="cls-2" d="M34.64,3.15c-8.68-1-18.92,7-17.48,15.33,3.37,19.5,14.23,15,19.66,14.07-5.43-2.17-10.65-7.6-10.65-14.12C26.16,9.73,30.89,5.69,34.64,3.15Z"/><rect class="cls-3" x="37" y="52" width="37" height="21" rx="0.42" ry="0.42"/><path class="cls-3" d="M36.9,52.09,54.92,66a.84.84,0,0,0,1,0L74,52.09"/><line class="cls-3" x1="50.26" y1="62.42" x2="36.9" y2="72.76"/><line class="cls-3" x1="73.98" y1="72.76" x2="60.62" y2="62.42"/><polygon class="cls-4" points="36.96 71.93 73.97 71.93 60.6 62.67 56 65.76 50.32 62.67 36.96 71.93"/></svg>