<svg id="Layer_3" data-name="Layer 3" xmlns="http://www.w3.org/2000/svg" viewBox="0 0 75 75"><defs><style>.cls-1,.cls-4{fill:#0d72b9;}.cls-1{opacity:0.2;}.cls-2,.cls-3,.cls-5{fill:none;stroke:#0d72b9;stroke-width:2px;}.cls-2,.cls-5{stroke-miterlimit:10;}.cls-3,.cls-5{stroke-linecap:round;}.cls-3{stroke-linejoin:round;}.cls-4{fill-opacity:0.2;}</style></defs><title>permissions_blue0</title><circle class="cls-1" cx="60.35" cy="15.4" r="12.16"/><path class="cls-2" d="M67.08,25.26A33.51,33.51,0,1,1,50.23,7.54"/><circle class="cls-2" cx="60" cy="15" r="12"/><path class="cls-3" d="M64,14.46a3.22,3.22,0,1,1,.13-4.55A3.22,3.22,0,0,1,64,14.46Z"/><line class="cls-3" x1="59.55" y1="14.4" x2="54.96" y2="18.99"/><line class="cls-3" x1="55.03" y1="19.05" x2="57.06" y2="21.09"/><line class="cls-3" x1="57" y1="17.08" x2="59.04" y2="19.12"/><rect class="cls-2" x="22" y="30" width="32" height="26" rx="1.3" ry="1.3"/><path class="cls-4" d="M18,51h4V32l1-1H48V27a1,1,0,0,0-1-1H18a1,1,0,0,0-1,1V50A1,1,0,0,0,18,51Z"/><path class="cls-2" d="M48,30V26.3A1.3,1.3,0,0,0,46.7,25H18.31A1.31,1.31,0,0,0,17,26.3V48.7A1.31,1.31,0,0,0,18.31,50H22"/><line class="cls-5" x1="27" y1="43" x2="49" y2="43"/><line class="cls-5" x1="27" y1="38" x2="49" y2="38"/><line class="cls-5" x1="27" y1="48" x2="44" y2="48"/></svg>