<svg id="Layer_1" data-name="Layer 1" xmlns="http://www.w3.org/2000/svg" viewBox="0 0 75 75"><defs><style>.cls-1{fill:#fff;}.cls-2,.cls-5{fill:#0d72b9;}.cls-2{opacity:0.1;}.cls-3,.cls-4{fill:none;stroke:#0d72b9;stroke-width:2px;}.cls-3{stroke-miterlimit:10;}.cls-4{stroke-linecap:round;stroke-linejoin:round;}</style></defs><title>360°_Visibility copy 20</title><path class="cls-1" d="M57.89.65l0,0-.09,0Z"/><path class="cls-2" d="M55.57,2.78m-2.52-.49L68,17H53.06Z"/><path class="cls-3" d="M53,1V14a2.65,2.65,0,0,0,2.81,3H69m-4-5.27"/><path class="cls-3" d="M69,16.72V70.66A3.34,3.34,0,0,1,65.66,74H13.51A3.52,3.52,0,0,1,10,70.49V4.34A3.34,3.34,0,0,1,13.34,1H53.05Z"/><line class="cls-4" x1="19" y1="37" x2="60" y2="37"/><line class="cls-4" x1="19" y1="46" x2="60" y2="46"/><line class="cls-4" x1="19" y1="52" x2="60" y2="52"/><line class="cls-4" x1="19" y1="58" x2="40" y2="58"/><line class="cls-4" x1="19" y1="32" x2="40" y2="32"/><circle class="cls-5" cx="23" cy="14.13" r="2.5"/><rect class="cls-5" x="18" y="18" width="10" height="8" rx="2.58" ry="2.58"/></svg>