<svg id="Layer_1" data-name="Layer 1" xmlns="http://www.w3.org/2000/svg" viewBox="0 0 75 75"><defs><style>.cls-1,.cls-2,.cls-5{fill:#0d72b9;}.cls-1{fill-opacity:0.08;}.cls-2{fill-opacity:0.15;}.cls-3,.cls-4{fill:none;stroke:#0d72b9;stroke-linecap:round;stroke-miterlimit:10;}.cls-3{stroke-width:2px;}.cls-4{stroke-width:2.05px;}</style></defs><title>Role-based access</title><polygon class="cls-1" points="65.34 58.91 65.34 26.62 37.38 10.47 37.38 23.32 54.22 33.04 54.22 52.49 65.34 58.91"/><polygon class="cls-2" points="54.22 52.49 37.38 62.21 20.54 52.49 20.54 33.04 37.38 23.32 37.38 10.47 9.41 26.62 9.41 58.91 37.38 75.06 65.34 58.91 54.22 52.49"/><polygon class="cls-3" points="54.22 52.49 54.22 33.04 37.38 23.32 20.54 33.04 20.54 52.49 37.38 62.21 54.22 52.49"/><circle id="Ellipse_578_copy" data-name="Ellipse 578 copy" class="cls-3" cx="69.72" cy="61.89" r="4" transform="translate(-0.92 1.05) rotate(-0.86)"/><circle id="Ellipse_578_copy_2" data-name="Ellipse 578 copy 2" class="cls-3" cx="37.38" cy="5.97" r="4.1" transform="translate(-0.08 0.56) rotate(-0.86)"/><path id="Shape_525_copy_2" data-name="Shape 525 copy 2" class="cls-4" d="M65.68,59.19,54.49,52.3"/><circle id="Ellipse_578_copy-2" data-name="Ellipse 578 copy" class="cls-3" cx="5.34" cy="61.89" r="4" transform="translate(-56.62 66.3) rotate(-89.14)"/><path id="Shape_525_copy_2-2" data-name="Shape 525 copy 2" class="cls-3" d="M20.57,52.3,9.41,59.17"/><path class="cls-4" d="M37.38,10.48V23.32"/><circle class="cls-5" cx="37.5" cy="37.65" r="2.56"/><path class="cls-5" d="M35,41H40a2.58,2.58,0,0,1,2.58,2.58v4.22a1.39,1.39,0,0,1-1.39,1.39H33.77a1.39,1.39,0,0,1-1.39-1.39V43.56A2.58,2.58,0,0,1,35,41Z"/></svg>