<svg fill="currentColor" width="108" height="74" viewBox="0 0 108 74" class="icon inline-block align-middle" focusable="false"><path fill="currentColor" d="M44.4768 35.7511l.1732 1.9185c.1506 4.5919 1.1008 9.1233 2.8086 13.3936 1.9192 4.3149 4.5894 8.2604 7.8879 11.656 3.3942 3.3069 7.3765 5.9611 11.7452 7.828 4.5389 1.9426 9.4284 2.9494 14.3714 2.9593h26.1259V58.1943H81.4631c-5.5289.025-10.8511-2.0845-14.8415-5.8825-3.9904-3.798-6.3365-8.987-6.5423-14.4702l-.1733-1.9186c-.1506-4.5918-1.1008-9.1232-2.8086-13.3935-1.9249-4.3117-4.5944-8.2564-7.8879-11.656-3.3912-3.31055-7.3743-5.96513-11.7452-7.82796C32.9045 1.18953 28.0212.242402 23.0929.258217L-1363.38.258097V15.3982l1386.4729.0001c5.5289-.0249 10.8511 2.0846 14.8415 5.8826 3.9904 3.798 6.3366 8.987 6.5424 14.4702z"></path><path fill="currentColor" d="M39.9171 37.1447l-.1733-1.9095c.0089-1.7374-.3483-3.4574-1.0487-5.0497l-1402.0751-.0001v14.4795l1403.9991.0001c-.4051-2.4759-.6396-4.9765-.702-7.4841M64.4654 30.0136c0 1.7375.1733 3.3031.1733 4.6968l.1732 1.9095c.0892 2.7814.9371 5.4868 2.4531 7.828h40.324V30.0136H64.4654zM63.0609 25.6608c1.9239-3.0828 4.6085-5.6274 7.7999-7.3932 3.1914-1.7657 6.7841-2.6941 10.4379-2.6973h26.2993V.611107L81.2439.611105c-4.9345-.082349-9.8312.867315-14.3714 2.787275-4.3397 1.74338-8.2745 4.34875-11.5627 7.65612 2.4133 2.9712 4.4158 6.2491 5.9546 9.7466.7914 1.5385 1.3799 3.1719 1.7508 4.8597M22.8829 73.3344c4.9442-.0262 9.8334-1.0323 14.3805-2.9592 4.3379-1.7468 8.272-4.3517 11.5628-7.6561-2.4166-2.969-4.4193-6.2472-5.9546-9.7464-.6902-1.6429-1.278-3.3263-1.76-5.0407-1.9239 3.0827-4.6085 5.6274-7.8 7.3931-3.1914 1.7657-6.784 2.6941-10.4379 2.6973l-1386.2537-.0001v15.312l1386.2629.0001z"></path></svg>