<svg xmlns="http://www.w3.org/2000/svg" viewBox="0 0 1833.91 373.96"><defs><style>.cls-1{fill:#0400ee;}.cls-2{fill:#fcfcfc;}.cls-3{fill:#fefefe;}</style></defs><g id="Layer_2" data-name="Layer 2"><g id="Layer_1-2" data-name="Layer 1"><path d="M1025.09,130.25l-.27-.1-.21.19c-.64.66-1.66.09-2.31.71h0c-.44.49-1.1.45-1.65.65l.07,0c-.31.69-1,.56-1.57.79l.06,0A4.8,4.8,0,0,1,1017,134l0,0a1,1,0,0,1-.87.75l.06-.06a.82.82,0,0,1-.81.81l.06-.06a1,1,0,0,1-.76.87l0-.05c-6.29,9.2-3.3,17.62,2.18,25.83l0-.06c2.85,3.26,6.63,4.85,10.68,6l-.06,0c1.67.9,3.68-.38,5.31.8l-.07,0c15.93,2.3,31.89,2.05,47.93,1.24a129,129,0,0,1,21.11,1.06l-.07,0c1.94.88,4.17-.44,6.07.79l-.08,0c4.91.74,9.79,1.6,14.31,3.79l-.07,0a23.37,23.37,0,0,1,7.52,3.83l-.07,0a4,4,0,0,1,2.29,1.58l-.08-.06a1.11,1.11,0,0,1,.92.69l0,0a22.83,22.83,0,0,1,6.06,6l0,0a1.5,1.5,0,0,1,.7.9l-.06-.08a5.85,5.85,0,0,1,1.59,2.27l0-.06a5,5,0,0,1,1.45,2.38l-.05-.07c.73.27.58,1,.84,1.54l0-.07c.67.32.56,1,.78,1.58l-.05-.08c1,.44.22,1.63.93,2.19v0c.46.45.42,1.1.66,1.64l0-.08c.64.31.49,1.05.85,1.52l0,0a1.8,1.8,0,0,1,.8.79l0-.05a1.26,1.26,0,0,1,.72.88l-.07-.08c.68.29.54,1,.83,1.53l0-.07c1.33,3.93-.2,8.07.82,12l0-.06c.56.41.49,1.08.69,1.63l0-.07c.7.29.56,1,.82,1.55l0-.07c1,.46.21,1.63.9,2.2v0c.65.74.25,1.77.68,2.57,0,1.3,0,2.6,0,3.91-.7.94.27,2.34-.87,3.16l.05-.08c-.22.55-.11,1.25-.77,1.59l0-.07a5.59,5.59,0,0,1-1.52,2.33l0-.06c-.29.52-.2,1.19-.68,1.63l0,3a2.87,2.87,0,0,1,0,3,.31.31,0,0,0-.06.53c-.65,1,.12,2.27-.72,3.2v0c-.78.87.14,2.19-.79,3l0-.05c-.58.67,0,1.69-.73,2.32v0c-.65.62,0,1.69-.8,2.27l0-.05c-.63.61.1,1.76-.89,2.23l.05-.08c-.21.56-.13,1.24-.71,1.63l0-.06c-.32.49-.21,1.19-.76,1.57l0-.06c-.34.48-.22,1.19-.78,1.55l0-.06c-.35.47-.19,1.22-.85,1.51l0-.07a14.06,14.06,0,0,1-3,4.59l0-.05a8.73,8.73,0,0,1-2.38,3l.05-.05a9.64,9.64,0,0,1-4.5,4.55l.06-.05c-1.25,1-2.18,2.49-3.83,3l.06-.05c-8.21,6.11-17.33,9.74-27.64,9.93-43.69.81-87.39.19-131.09.39-1.63,0-3.28.16-4.49-1.29l.09.09c-.16-.19-.46-.38-.46-.57-.15-12-.06-23.92-.08-35.76,1.61-1.09,3.15-.64,4.59-.64q52.46,0,104.9,0a12.36,12.36,0,0,0,4.45-.29l1.88-.12c1-.66,2.26-.06,3.29-.62l.25.1.2-.17c.77-.64,1.79-.26,2.61-.67q.25.18.39-.09c.63-.68,1.66-.08,2.3-.73h0c.46-.48,1.1-.46,1.67-.61l-.07,0c.42-1,1.62-.25,2.19-.93h0c.39-.49,1.09-.37,1.54-.76h0c4.67-3.25,7-7.59,6.4-13.39-.21-2.1,0-4.23,0-6.35-.23-9.19-6.25-15.14-15.41-15.15-16.84,0-33.68.15-50.51-.1-5.61-.09-11.4,1.32-16.85-1.2l.08,0a15.15,15.15,0,0,0-10.62-1.9c-3.89.79-7.81-.09-11.66-1.32-6.6-2.1-13.26-4-19-8.08l.07,0a8.27,8.27,0,0,1-3.08-2.28l.08.06a1.29,1.29,0,0,1-.87-.74l0,0a4.41,4.41,0,0,1-2.29-2.27l0,0a1.57,1.57,0,0,1-.75-.85l.06.06a1,1,0,0,1-.73-.88l.07.07a4.27,4.27,0,0,1-1.62-2.25l0,.06a17.44,17.44,0,0,1-3.09-6l0,.06c-.81-.56-.17-1.64-.81-2.27l0,0c-.73-.63-.19-1.65-.72-2.34l0,.07c-1-.9-.13-2.24-.78-3.21l.11-.27-.18-.22c-.88-1.19.07-2.71-.71-3.92a.34.34,0,0,0-.05-.57c-.88-1.52.07-3.28-.67-4.82l-.07-1.18a55.55,55.55,0,0,1,0-14.23v-1.51a39.51,39.51,0,0,1,0-12l.18-.24-.13-.28c.77-1.21-.26-2.77.77-3.93l0,.06c.75-.88-.25-2.24.85-3l0,.08c.5-.69-.15-1.78.81-2.32l-.05.08c.22-.55.17-1.2.65-1.64v0c.69-.58-.07-1.75.92-2.2l-.05.07c.22-.55.12-1.24.74-1.6l0,.06c.29-.51.18-1.21.77-1.57l0,.06c.31-.49.19-1.21.79-1.55l0,.06c.31-.49.17-1.23.83-1.53l0,.07c.26-.52.1-1.28.84-1.54l-.05.07a10.89,10.89,0,0,1,2.24-3.85l0,.07a5.44,5.44,0,0,1,1.52-2.33l0,.06a21.08,21.08,0,0,1,6.84-6.71l-.06,0c5-4.4,11.3-6.26,17.5-8.1,10.85-3.21,22-4.07,33.27-3.78,9,.23,18,.06,27,.06h101.58a12,12,0,0,0,4.81-.49c.41-12.72-.1-25.74.29-39.21h50.37c.19,13.11,0,25.81.12,39.3,17.47.07,34.71,0,52.43,0,0,13.06,0,25.49,0,38.53-17.5,0-34.77,0-51.83,0-1,1.48-.63,2.76-.64,4,0,31.09,0,62.19-.05,93.28,0,3.74,1.36,7,2.58,10.39l0-.06a5.09,5.09,0,0,1,1.48,2.37l-.05-.07c1.71,1.84,3.55,3.56,5.3,5.36l-.07-.06c.48,0,.71.32.92.69l0,0a9.48,9.48,0,0,1,2.31,1.51l0,0c.45.38,1.2.22,1.5.85l-.06,0c.51.28,1.23.15,1.56.8l-.07,0c.53.25,1.22.16,1.6.74l-.06,0c.5.31,1.16.24,1.6.68h0c.59.69,1.67,0,2.24.8l0,0c.66.61,1.67,0,2.32.71l.2.19.26-.1c.79.43,1.76.07,2.53.61l1.24.13c1.77.76,3.74-.18,5.51.61l8.7.13c3,.87,6.24-.27,9.29.64a.45.45,0,0,0,.63.08,2,2,0,0,1,1.23,2.08c0,10.47,0,20.94,0,31.18-1.37,1.3-2.78,1.14-4.13,1.15-10.36.07-20.71.59-31.08.38a64.27,64.27,0,0,0-10.83.42,14.74,14.74,0,0,1-7-.5c-5.55-2-11.44-2.49-17-4.27-10.72-3.42-18.45-10.7-23.88-20.3-6-10.59-8.07-22.25-8.87-34.3-.56-8.48.13-16.92,0-25.35q-.72-36.28-.62-72.59a2.18,2.18,0,0,0-.44-1.6c-1.06-.78-2.47-.34-3.79-.34q-50.4,0-100.79,0c-1.35,0-2.75.32-4.06-.31h-13.5c-1.73.86-3.7-.18-5.43.66l-.3-.12-.27.18c-1,.75-2.25.06-3.26.67l-.26-.12-.22.19c-.77.63-1.8.26-2.63.66l-.2-.07-.17.14C1026.89,130.24,1025.86,129.77,1025.09,130.25Z"/><path d="M1540.48,215.51a3.79,3.79,0,0,0,.18-.66c0-.09-.11-.2-.17-.3a22.68,22.68,0,0,0,0-8.05l.12-.26-.18-.22c-.82-.89,0-2.17-.73-3.07V203c-.7-.73-.28-1.77-.7-2.58a.23.23,0,0,0-.08-.39c-.67-.7-.18-1.73-.69-2.48a.32.32,0,0,0-.1-.53c-.74-.92,0-2.19-.69-3.12a.41.41,0,0,0-.06-.62,11.08,11.08,0,0,1,0-6l.12-1.2c.66-1.28-.13-2.79.64-4.05l.11-1.16a8.35,8.35,0,0,0,.26-3.3,1.34,1.34,0,0,1,.49-1.48l0,.05c.75-1.19-.15-2.67.66-3.85a.38.38,0,0,0,.07-.6c.79-1.2-.16-2.71.7-3.9a.33.33,0,0,0,.07-.54c.64-1,0-2.23.65-3.2a.4.4,0,0,0,.08-.61c.71-.94-.07-2.21.69-3.14q.35-.21.09-.51c.48-.76.07-1.74.63-2.48a.38.38,0,0,0,.1-.58c.54-.72.06-1.72.66-2.42a.3.3,0,0,0,.11-.51c.5-.75,0-1.78.72-2.47l0,0c.63-.65,0-1.68.73-2.31a.24.24,0,0,0,.1-.38,4.25,4.25,0,0,1,.66-1.85v0c.67-.61,0-1.68.8-2.25l0,0c.64-.61-.1-1.76.89-2.23l0,.07c.21-.55.14-1.22.7-1.63l0,.06c.34-.49.25-1.16.71-1.58v0a26.73,26.73,0,0,1,3-6l0,0c.4-.44.24-1.18.84-1.5l0,.06a3.17,3.17,0,0,0,.31-1.17,2.47,2.47,0,0,1,.26-.78,4,4,0,0,1,.46-.7c.09-.11.19-.21.29-.32a2.69,2.69,0,0,1,1-.77l0,0c.12-.75.7-1.27,1-1.95a3.94,3.94,0,0,1,.31-.83,3.52,3.52,0,0,1,.52-.74l.34-.3c.71-.32,1-1.08,1.63-1.5l0,.06c.39-1.45,1.85-2.11,2.47-3.39a4.93,4.93,0,0,1,.35-.9,3.29,3.29,0,0,1,.57-.81l.4-.31c2.36-1.78,4.18-4.11,6.36-6.07a4,4,0,0,0,.63-.73,4.23,4.23,0,0,1,.55-.78l.35-.34a3.55,3.55,0,0,1,.8-.52l.92-.34c1.13-.66,1.76-2,3.19-2.26l0,0a11,11,0,0,1,2.24-2.27c2.14-.57,3.4-2.58,5.45-3.3,5.88-2.75,11.63-5.73,17.87-7.64a82.33,82.33,0,0,1,23.89-3.81c32.58-.12,65.16,0,97.74-.06a12.59,12.59,0,0,0,4-.22c.83-1.26.47-2.54.47-3.75,0-10.6,0-21.21,0-31.81,0-1.16-.6-2.49.59-3.48h46.77c1.08,1,.53,2.36.54,3.53,0,10.35,0,20.69,0,31a8.23,8.23,0,0,0,.61,4.28c19.23.14,38.7-.06,58.59.11,0,14.06,0,27.47,0,40.74-1.36,1.23-2.8.74-4.1.74-15,0-29.93,0-44.9,0-1.35,0-2.74-.29-4.06.3l-.28-.13-.25.19c-.62.69-1.66.07-2.28.74h0c-3.17,2.11-3.28,5.57-3.3,8.69q-.21,33.48,0,67a76.77,76.77,0,0,0,5.47,27.93l0-.07c.66.32.53,1.05.8,1.57l0-.07c1.75,3,4.38,5.2,6.76,7.63l-.06-.06c.46,0,.69.33.93.65l0,0c.43.4,1.21.22,1.47.9l-.07,0c.53.24,1.28.08,1.53.84l-.06-.05c.57.17,1.27.07,1.6.75l-.07,0c.55.21,1.21.16,1.64.66h0c.64.63,1.7,0,2.29.78l0,0c.67.59,1.67.05,2.32.68a.3.3,0,0,0,.52.09c1,.65,2.28-.1,3.24.7l.2.17.25-.11c1.27.67,2.79-.14,4,.66l1.12.09c2.07.76,4.3-.18,6.37.61h5.26c3.2-.68,6.4-.09,9.31-.3,1.26,1.08,1.16,2.24,1.17,3.35q0,13.2,0,26.4c0,1.22.14,2.51-.94,3.46l.1-.09c-5.32,1.89-10.94,1.8-16.42,2a199.82,199.82,0,0,1-41.92-3.2c-4.63-.83-9.44-.65-13.91-2.37-12.49-4.82-20.91-13.51-25-26.3l0,.07c-1.42-2.33-1.56-5-2.27-7.58l0,.08a70,70,0,0,1-2.73-18.94c-.11-31.06,0-62.13-.07-93.2,0-1.35.33-2.74-.32-4.05a17.91,17.91,0,0,0-3.12-.55c-24.35,0-48.7-.09-73,.05a34,34,0,0,0-9.11,1.78,34.13,34.13,0,0,1-11.75,1.44,29.75,29.75,0,0,0-11.34,1.6c-12.9,4.57-21.75,13.45-25.83,26.59a51.59,51.59,0,0,0-2.22,13.16c-.38,8.85-.27,17.72-.22,26.58s3.13,16.93,7.9,24.15c2,3.06,5.47,5.51,8.77,7.34a71.54,71.54,0,0,0,37.23,9.34c20.34-.53,40.7-.21,61-.23,1,0,1.94.11,3.35.2v4.18q0,17.4,0,34.82c0,1.23.12,2.47.19,3.71-.41,1.74-1.81,1.41-3,1.41q-38.7,0-77.4,0c-2.48,0-4.56-1.18-6.81-1.82-7.84-2.21-16.09-1.53-23.92-3.5-9-2.28-17-6.83-24.3-12.54l0,0c-1.66-.4-2.52-2.14-4.19-2.52-1.84-2.15-3.94-4-5.87-6.07a5.1,5.1,0,0,0-.7-.62c-.26-.16-.52-.34-.76-.52s-.21-.21-.33-.31a3.71,3.71,0,0,1-.53-.72l-.18-.4a2.49,2.49,0,0,1-.18-.85l-.12.15.16-.12a6.44,6.44,0,0,1-2.36-3l0,.06a5.32,5.32,0,0,1-1.61-2.25l0,0a6.54,6.54,0,0,1-1.52-2.32l0,.06a4.23,4.23,0,0,1-1.44-2.38l.05,0c-.78-.2-.59-1-.89-1.48l0,.07c-.63-.32-.49-1.06-.82-1.54l0,.06c-.57-.34-.43-1.07-.81-1.52l0,0c-.52-.38-.39-1.08-.78-1.53l0,0c-.5-.4-.4-1.09-.75-1.56l0,0c-.53-.39-.43-1.08-.75-1.57l0,.06c-.58-.39-.5-1.07-.73-1.61l0,.07c-1-.44-.19-1.63-.92-2.17h0c-.44-.45-.36-1.11-.68-1.61l0,.07c-.84-.53-.14-1.65-.85-2.23v0c-.44-.46-.4-1.11-.65-1.64l0,.08c-.9-.53-.23-1.64-.83-2.28l0,.06c-.81-.57-.17-1.65-.8-2.28l0,0c-.51-.44-.48-1.08-.63-1.66l0,.06a8.41,8.41,0,0,1-1.53-3.08l0,0c-.77-.3-.75-1.13-1.15-1.68a3.37,3.37,0,0,1-.19-.82A4.44,4.44,0,0,0,1540.48,215.51Z"/><path d="M826.42,131l-.28-.09-.21.21c-.39.42-1.1.23-1.45.74l0,0c-.3.2-.52.52-.88.64l.06-.05a1.21,1.21,0,0,1-.88.75l.07-.06a1.11,1.11,0,0,1-.77.85l.05,0c-.08.36-.39.58-.58.87a.36.36,0,0,0-.15.57c-.61,1.31-.3,2.71-.3,4.06q0,70.69,0,141.39a12.65,12.65,0,0,1-.44,4.95H773.3c-1-.56-.91-1.45-1.27-2.07-.07-1.43-.14-2.86-.2-4.29-.68-2.57.24-5.25-.54-7.8-.07-3.4-.14-6.79-.2-10.19-.75-5.59.3-11.25-.56-16.84,0-6.29,0-12.59,0-18.88,0-4.08-.11-8.15-.17-12.23a5.3,5.3,0,0,1-.23-2.2q0-34.87,0-69.75a5.19,5.19,0,0,1,.24-2.21l.18-25.84c.88-5.1-.18-10.27.56-15.37.08-2.63.15-5.26.23-7.89.87-1.4,2.26-.68,3.37-.69,36.73,0,73.47-.13,110.2,0,10.2,0,19.94,2.89,29.34,6.78a97.56,97.56,0,0,1,14.8,7.17c7.18,4.53,10.94,11.77,14.69,19,6.19,11.88,8.4,24.75,8.47,37.91.2,40.33.07,80.66.05,121,0,1.46.37,3-.39,4.26-1,1.11-2.14.89-3.25.89h-42c-1.49,0-3.05.19-4.05-1.31l.07.08c-1.54-1.76-1.34-3.9-1.34-6,0-38.75,0-77.5.05-116.26,0-5.89-.32-11.64-2.54-17.15l.05.07c-.81-.87-1-2.06-1.57-3.06l.05.07a4.34,4.34,0,0,1-1.51-2.35l0,.06c-1.53-1.51-3-3.13-4.64-4.51l.06.05c-.49-.31-1.26-.14-1.51-.87l.07,0c-.57-.17-1.25-.1-1.63-.7l.07,0c-.71-.52-1.74,0-2.38-.7l-.18-.13-.2.09a82.06,82.06,0,0,0-15.75,0h-12a141.27,141.27,0,0,0-21,0h-1.51a10.11,10.11,0,0,1-7.06-3l.06,0A1.87,1.87,0,0,0,826.42,131Z"/><path d="M1460.93,134.07l-.2-.17-.24.1a3.42,3.42,0,0,0-1.45-.29h-59.68a2.51,2.51,0,0,0-1.42.38h0c-.73,1.42-.35,2.94-.36,4.41q0,68.66,0,137.31c0,1.47.38,3-.37,4.41l-.17.19.09.24c-.23.6-.19,1.31-.72,1.78l0,0a7.13,7.13,0,0,1-6.38,3.84,340.48,340.48,0,0,1-35.72-.07c-.94-.05-2,0-2.69-.94l.06.05a7.4,7.4,0,0,1-4.46-6.38,39.37,39.37,0,0,1-.23-4.47q0-89.71,0-179.42c0-1.71-.33-3.49.55-5,1.46-.76,2.85-.43,4.19-.43,30.24,0,60.47.19,90.7-.14,10.1-.12,20.18-.63,30.06,1.68,9.18,2.15,18.68,3.47,26.78,8.92a54.64,54.64,0,0,1,18.63,20.93c4.9,9.69,6.1,20.16,7.09,30.7,1.2,12.69,1,25.43.68,38.14-.27,10.35-.42,20.7-.18,31,.49,20.22.08,40.43.26,60.65,0,1.46.38,3-.45,4.3a2.69,2.69,0,0,1-2.12.8c-13.73-.2-27.47.48-41.2-.41-2.35-.16-4.79-.48-5.9-3.13l.05.08c-1.18-.74-.12-2.14-.88-3l0,.07c-.89-1.25-.44-2.67-.44-4q0-62.7,0-125.38c0-1.35.29-2.75-.3-4.06l0,.06c-.79-.62-.25-1.65-.73-2.36l0,.08c-.64-.35-.54-1.06-.76-1.6l0,.06a5.49,5.49,0,0,1-1.61-2.25l0,.05a1.35,1.35,0,0,1-.78-.84l.06.07a1.35,1.35,0,0,1-.83-.79l.06.06a1.86,1.86,0,0,1-.84-.75l0,0c-.73-.55-1.72-.77-2.17-1.69l.07.06c-.46,0-.7-.32-.94-.64l0,0c-.44-.4-1.18-.25-1.5-.85l.06,0c-.51-.29-1.19-.21-1.6-.72l0,0C1462.6,134.18,1461.57,134.76,1460.93,134.07Z"/><path class="cls-1" d="M409.1,241.24a.32.32,0,0,0,.52.07c1.24.71,2.74-.14,4,.66l1.92.1a47.39,47.39,0,0,0,11.9,0l10.18-.12a132.64,132.64,0,0,1,20.23,0l25.31.12c1.21.37,1.31,1.33,1.3,2.38,0,12.23.08,24.45-.06,36.67a2.32,2.32,0,0,1-.44.92c-2.29,1.65-5.17,1.67-8,1.52-14.09-.77-28.19-.12-42.29-.36-8.6-.15-17.2.26-25.81-.28-8.84-.56-17.05-3.29-25.06-6.76-14.11-6.11-25.54-15.8-35.79-27a2.91,2.91,0,0,1-.69-1.31l.05.07c-3.46-3.54-5.91-7.77-8.33-12l.06.07c-5.74-9-9-19-11-29.42-1.6-8.06-1.83-16.25-2.39-24.43A55.11,55.11,0,0,0,314,153.41l.05.06c-3.16-3.38-6.51-6.59-9.79-9.86l.08.08a1.07,1.07,0,0,1-.89-.75l.06.05a11.34,11.34,0,0,1-3.06-2.3l.06.05a6.46,6.46,0,0,1-2.31-1.54l.06,0a27.25,27.25,0,0,1-3.86-2.2l0,0c-1.18-.69-2.66-.69-3.72-1.65l.07.05c-.53-.24-1.19-.19-1.63-.66h0c-.63-.66-1.66-.05-2.29-.73l-.2-.18-.25.09c-.79-.44-1.8,0-2.54-.66l-.25-.17-.28.1c-1-.63-2.24.06-3.22-.64l-1.22-.12c-1.27-.67-2.77.13-4-.64l-1.29-.09c-2-.85-4.2.23-6.2-.65l-3.47-.11c-1.32-.56-2.71-.29-4.07-.29q-25.63,0-51.27,0a21.69,21.69,0,0,1-4.53-.24c0-13.58,0-27.08,0-40.75,6.22-.49,12.07-.28,17.89-.48,18.8-.66,37.61-1,56.36,1.06,18.19,2,34.83,8,49,20l-.06,0c2.22,1,3.51,3.07,5.32,4.54l-.08-.07a1.09,1.09,0,0,1,.84.79l-.07-.06a1.24,1.24,0,0,1,.83.79l-.05,0a10.28,10.28,0,0,1,4.48,4.58l-.06-.06c1.33,1.46,3,2.66,3.86,4.51l0-.06a27.11,27.11,0,0,1,4.51,6.08l-.05-.06a4.49,4.49,0,0,1,1.54,2.32l-.06-.07c1.23,1,1.6,2.51,2.33,3.8l-.05-.07a48.58,48.58,0,0,1,5.34,10.51l0-.06c.58.38.49,1.07.74,1.6l-.05-.07c.94,1.1,1.06,2.53,1.57,3.8l-.05-.07c.91.52.23,1.64.85,2.27l0-.05c1.07,1.9,1.43,4.07,2.26,6.07l0-.06a8.53,8.53,0,0,1,2,6.12c-.08,6-.42,12,1,17.91l-.05-.06c1.1,1.09,0,2.65.81,3.79l0-.06A91,91,0,0,1,367,200.13l0-.07c.73,2.23.73,4.62,1.53,6.83l-.06-.07c.79,1.43.87,3.1,1.56,4.56l0-.07c1.26,2.53,2.42,5.1,3.78,7.58l-.05-.06a5.63,5.63,0,0,1,1.54,2.31l-.05-.06a12.73,12.73,0,0,1,2.35,3l0-.05a1.53,1.53,0,0,1,.76.86l-.07-.07a1.14,1.14,0,0,1,.79.85l-.07-.08a1,1,0,0,1,.82.84l-.08-.08a1,1,0,0,1,.84.81l-.08-.07a1.15,1.15,0,0,1,.85.79l-.07-.06a1.57,1.57,0,0,1,.86.76l-.05,0a13.44,13.44,0,0,1,3,2.34l-.06,0a6.17,6.17,0,0,1,2.32,1.54l-.06,0a11.24,11.24,0,0,1,2.37,1.43h0c.41.43,1.14.28,1.5.81l-.05,0c.46.37,1.17.24,1.54.8l-.06,0c.48.35,1.19.23,1.56.79l-.06,0c.48.35,1.17.24,1.57.76l0,0c.46.37,1.13.28,1.56.71h0c.56.72,1.7,0,2.21.87l-.07,0c.5.31,1.16.22,1.61.65a.27.27,0,0,0,.45.12,5.85,5.85,0,0,1,1.8.63.29.29,0,0,0,.48.11c.76.47,1.8,0,2.5.71l0,0C406.94,241.28,408.21,240.44,409.1,241.24Z"/><path d="M1335.09,277.94l-.18,2c-.56.69.1,1.82-.85,2.37l0-.06c-1.6,3.61-5.08,4.11-8.22,4.15q-21.35.29-42.72,0c-.27,0-.48-.12-1-.91v-196h52.4c1.18,1.14.79,2.33.79,3.4q0,91.21,0,182.43A6,6,0,0,1,1335.09,277.94Z"/><path class="cls-1" d="M204.48,204.34q0-19.69,0-39.39c1.22-1,2.65-.48,4-.48q41.87,0,83.73,0a20.62,20.62,0,0,1,9,2l-.05,0c1.58.63,3.28,1,4.51,2.34l-.07-.05a12.56,12.56,0,0,1,4.6,4.44l0,0c.31.25.64.48.66.93l-.08-.09c.73.26.58,1,.86,1.53l-.06-.07c1,.49.22,1.63.89,2.23l0,0c.7.73.27,1.77.71,2.56l.11,1.17a14,14,0,0,1,0,6.74l-.08,16.22c-.85,1.17-2.08.6-3.11.6q-51.15.06-102.29,0C206.6,204.86,205.41,205.31,204.48,204.34Z"/><path class="cls-1" d="M361.25,131.67q3,6,6,12.09Q364.28,137.71,361.25,131.67Z"/><path class="cls-1" d="M378.15,151.2l5.34-5.33Z"/><path d="M1223.13,243l-5.3-5.36Z"/><path d="M1264.51,251.69l-9.29-.64Z"/><path d="M1540.49,206.5v0Z"/><path class="cls-1" d="M361,161.17q-1.14-3-2.26-6.07Q359.91,158.13,361,161.17Z"/><path d="M1814.79,251.67l-6.37-.61Z"/><path d="M1107.78,171.69l-6.07-.79Z"/><path d="M1246.52,250.92l-5.51-.61Z"/><path d="M1034.92,128l5.43-.66Z"/><path d="M1032.81,168.68l-5.31-.8Z"/><path class="cls-1" d="M358.16,126.52l2.32,3.77Z"/><path class="cls-1" d="M385,144.53l3-2.37Z"/><path class="cls-1" d="M354.46,121.22l2.24,3.1Z"/><path class="cls-1" d="M367.93,145.23l1.59,3.78Z"/><path class="cls-1" d="M397.79,136.3l3.76-1.6Z"/><path class="cls-1" d="M358,153c-.52-1.27-1.05-2.53-1.57-3.8C357,150.42,357.49,151.68,358,153Z"/><path class="cls-1" d="M369.47,148.94l1.56,3.82Z"/><path class="cls-1" d="M385,230.89l-3-2.34Z"/><path d="M961,163.74c.22,1.61.45,3.21.67,4.82C961.42,167,961.19,165.35,961,163.74Z"/><path class="cls-1" d="M411.88,131.77l4-.68Z"/><path d="M1542.1,220l1.53,3.08Z"/><path d="M961.73,130.38c-.26,1.31-.52,2.62-.77,3.93C961.21,133,961.47,131.69,961.73,130.38Z"/><path d="M1807.3,251l-4-.66Z"/><path d="M1540.41,167.8l-.7,3.9Z"/><path d="M961.69,169.13c.24,1.31.47,2.61.71,3.92C962.16,171.74,961.93,170.44,961.69,169.13Z"/><path d="M1538.14,182c-.22,1.35-.43,2.7-.64,4.05Z"/><path d="M1539.64,172.3l-.66,3.85Z"/><path d="M1471.51,140.72l1.61,2.26Z"/><path class="cls-1" d="M145.91,2.32,143.6.8Z"/><path class="cls-1" d="M388,142.22l2.27-1.61Z"/><path class="cls-1" d="M148.17,3.8l-2.31-1.52Z"/><path class="cls-2" d="M1475.26,280.09c.29,1,.59,2,.88,3C1475.85,282.09,1475.55,281.09,1475.26,280.09Z"/><path class="cls-1" d="M356.67,124.27l1.52,2.3Z"/><path class="cls-1" d="M156.37,9.12,154,7.6Z"/><path class="cls-1" d="M158.65,10.57l-2.34-1.5Z"/><path d="M962.55,127.42c-.28,1-.56,2-.85,3C962,129.43,962.27,128.43,962.55,127.42Z"/><path d="M1031.09,128.76l3.26-.67Z"/><path d="M1557,251.61l1.61,2.25Z"/><path d="M1802.81,250.25l-3.24-.7Z"/><path d="M1555.5,249.34l1.52,2.32Z"/><path d="M1554.1,247l1.44,2.38Z"/><path d="M1083.38,247.32l-3.29.62Z"/><path class="cls-1" d="M392.45,139.21c.79-.48,1.59-1,2.39-1.42C394,138.26,393.24,138.73,392.45,139.21Z"/><path class="cls-1" d="M332.48,249.65l-1.34-2.43Z"/><path class="cls-1" d="M164.65,14.3l-2.36-1.47Z"/><path d="M1226.24,245.06l-2.31-1.51Z"/><path d="M1147.51,245.71l.72-3.2Z"/><path d="M1467.08,136.85l2.17,1.69Z"/><path class="cls-1" d="M168.4,16.55,166,15.1Z"/><path d="M972.27,107.94c-.51.77-1,1.55-1.52,2.33C971.26,109.49,971.76,108.71,972.27,107.94Z"/><path class="cls-1" d="M172.17,18.75l-2.39-1.41Z"/><path class="cls-1" d="M177.44,21.71,175,20.34Z"/><path d="M1217.88,237.67l-1.48-2.37Z"/><path d="M1541.9,160.31l-.69,3.14Z"/><path class="cls-1" d="M299.72,234.54l-2.27,1.58Z"/><path d="M1148.92,234.42c.51-.78,1-1.56,1.52-2.33C1149.93,232.86,1149.43,233.64,1148.92,234.42Z"/><path d="M1541.13,164.06c-.22,1.07-.44,2.13-.65,3.2C1540.69,166.19,1540.91,165.13,1541.13,164.06Z"/><path class="cls-1" d="M348.23,133.51l-1.54-2.32Z"/><path d="M1151.11,230.65l.87-3.16Z"/><path class="cls-1" d="M375.25,221.14l-1.54-2.31Z"/><path class="cls-1" d="M501.39,372.93l2.9.26C503.23,374.15,502.23,374.38,501.39,372.93Z"/><path class="cls-1" d="M408.29,132.55l3.06-.71Z"/><path d="M1539.7,203l.73,3.07C1540.18,205,1539.94,204,1539.7,203Z"/><path d="M1537.45,193.9l.69,3.12Z"/><path d="M1142.14,192.72c-.48-.79-1-1.59-1.45-2.38C1141.18,191.13,1141.66,191.93,1142.14,192.72Z"/><path d="M1140.73,190.4l-1.59-2.27Z"/><path d="M1017,134l2.28-1.58Z"/><path d="M967.74,187.14l1.62,2.25Z"/><path d="M962.47,173.54l.78,3.21Z"/><path d="M1131.68,180.76l-2.29-1.58Z"/><path d="M963.22,176.68l.72,2.34Z"/><path class="cls-1" d="M549.37,343.12c.21-.79.41-1.59.62-2.38C549.78,341.53,549.58,342.33,549.37,343.12Z"/><path class="cls-1" d="M401.48,134.75l2.29-.85Z"/><path d="M963.92,179l.81,2.27Z"/><path d="M1547.35,142.43l-.89,2.23Z"/><path class="cls-2" d="M1334.06,282.35l.85-2.37Z"/><path d="M964.83,121.45c-.31.73-.61,1.46-.92,2.2C964.22,122.91,964.52,122.18,964.83,121.45Z"/><path d="M963.32,125.18l-.81,2.32Z"/><path d="M1473.8,144.43c.24.79.49,1.57.73,2.36C1474.29,146,1474,145.22,1473.8,144.43Z"/><path d="M1546.48,144.61l-.8,2.25Z"/><path d="M1028,129.49l2.63-.66Z"/><path d="M1025.09,130.25l2.52-.69Z"/><path d="M1239.77,250.18l-2.53-.61Z"/><path d="M1799.05,249.46l-2.32-.68Z"/><path class="cls-1" d="M405.81,133.24l2.52-.71Z"/><path d="M1460.93,134.07l2.33.72Z"/><path d="M1236.78,249.48l-2.32-.71Z"/><path d="M1796.78,248.8l-2.29-.78Z"/><path d="M1234.5,248.79l-2.24-.8Z"/><path d="M1544.92,149.07c-.24.77-.48,1.54-.73,2.31C1544.44,150.61,1544.68,149.84,1544.92,149.07Z"/><path d="M1144.54,197.81l-.93-2.19Z"/><path d="M1086.44,246.58l-2.61.67Z"/><path d="M1538.24,197.55l.69,2.48Z"/><path d="M1089.13,245.76l-2.3.73Z"/><path d="M1544.21,151.34l-.72,2.47Z"/><path d="M1092.89,244.27l-2.19.93Z"/><path d="M1539,200.42c.23.86.47,1.72.7,2.58C1539.48,202.14,1539.24,201.28,1539,200.42Z"/><path class="cls-1" d="M358.81,155.15c-.28-.76-.57-1.51-.85-2.27C358.24,153.64,358.53,154.39,358.81,155.15Z"/><path d="M1543.38,154.32l-.66,2.42Z"/><path d="M1022.3,131.05l2.31-.71Z"/><path d="M1542.62,157.32l-.63,2.48Z"/><path d="M1547.91,234.48c.31.72.62,1.44.92,2.17C1548.53,235.92,1548.22,235.2,1547.91,234.48Z"/><path d="M1778,131.82l2.28-.74Z"/><path d="M1546.41,230.72c.29.74.57,1.49.85,2.23C1547,232.21,1546.7,231.46,1546.41,230.72Z"/><path d="M1545,226.9c.28.76.56,1.52.83,2.28C1545.53,228.42,1545.25,227.66,1545,226.9Z"/><path d="M1544.2,224.68l.8,2.28Z"/><path d="M1152,223.58l-.68-2.57Z"/><path d="M1151.28,221l-.9-2.2Z"/><path d="M1463.21,134.77l1.6.72Z"/><path d="M1020.69,131.69l1.65-.65Z"/><path d="M1150.43,218.91c-.28-.51-.55-1-.82-1.55C1149.88,217.88,1150.15,218.4,1150.43,218.91Z"/><path d="M824.48,131.86c.49-.24,1-.49,1.45-.74C825.45,131.37,825,131.62,824.48,131.86Z"/><path class="cls-1" d="M178.91,22.51l-1.48-.81Z"/><path d="M1543.59,223.06l.63,1.66Z"/><path class="cls-1" d="M180.4,23.29l-1.52-.8Z"/><path class="cls-1" d="M499.86,370.72l.84,1.58Z"/><path class="cls-1" d="M507.42,370.9l1.31-.95Z"/><path class="cls-1" d="M510.4,368.65l1.35-.92Z"/><path class="cls-1" d="M521.52,361.1l1.46-.89Z"/><path class="cls-1" d="M321.28,228.06l-.68-1.8Z"/><path class="cls-1" d="M523.83,359.63l1.44-.83Z"/><path class="cls-1" d="M525.23,358.82l1.5-.87Z"/><path d="M1149.65,217.43l-.69-1.63Z"/><path class="cls-1" d="M527.6,357.39l1.44-.81Z"/><path class="cls-1" d="M529,356.6l1.5-.83Z"/><path d="M1545.77,229.1c.21.55.43,1.09.65,1.64C1546.2,230.19,1546,229.65,1545.77,229.1Z"/><path class="cls-1" d="M322.79,231.61l-.73-1.59Z"/><path d="M1464.75,135.45l1.5.85Z"/><path d="M1150.39,232.16c.25-.53.51-1.06.77-1.59C1150.9,231.1,1150.64,231.63,1150.39,232.16Z"/><path d="M966.25,118.41c-.26.52-.51,1-.77,1.57C965.74,119.46,966,118.93,966.25,118.41Z"/><path class="cls-1" d="M323.52,233.13l-.77-1.59Z"/><path class="cls-1" d="M396.28,137l1.55-.77Z"/><path class="cls-1" d="M534.31,353.63l1.48-.77Z"/><path class="cls-1" d="M324.27,234.63c-.27-.52-.54-1-.8-1.57C323.73,233.59,324,234.11,324.27,234.63Z"/><path d="M1547.23,232.88c.23.54.46,1.07.68,1.61C1547.69,234,1547.46,233.42,1547.23,232.88Z"/><path class="cls-1" d="M535.79,352.87l1.49-.78Z"/><path class="cls-1" d="M537.26,352.1l1.51-.78Z"/><path class="cls-1" d="M325,236.11l-.82-1.55Z"/><path d="M1148.28,236c.23-.54.46-1.09.68-1.63C1148.74,234.91,1148.51,235.45,1148.28,236Z"/><path class="cls-1" d="M181.89,24.07l-1.54-.81Z"/><path d="M968.6,114l-.84,1.54Z"/><path d="M1780.94,236.89c-.26-.53-.53-1-.8-1.57C1780.41,235.84,1780.68,236.36,1780.94,236.89Z"/><path class="cls-1" d="M538.74,351.34l1.53-.78Z"/><path class="cls-1" d="M540.23,350.58l1.54-.77Z"/><path d="M1548.79,236.58c.24.53.48,1.07.73,1.61C1549.27,237.65,1549,237.11,1548.79,236.58Z"/><path class="cls-1" d="M175.09,20.4l-1.52-.86Z"/><path class="cls-1" d="M183.38,24.83l-1.55-.8Z"/><path class="cls-1" d="M184.85,25.62l-1.54-.83Z"/><path d="M1549.48,238.13l.75,1.57Z"/><path class="cls-1" d="M291.53,239.1l-1.64.64Z"/><path class="cls-1" d="M394.81,137.8l1.52-.79Z"/><path d="M1019.19,132.44l1.57-.79Z"/><path d="M1550.21,239.65l.75,1.56Z"/><path d="M1148.2,203.9c-.27-.51-.55-1-.83-1.53C1147.65,202.88,1147.93,203.39,1148.2,203.9Z"/><path class="cls-1" d="M541.73,349.83l1.54-.77Z"/><path class="cls-1" d="M543.23,349.08l1.53-.79Z"/><path d="M826.42,131h0Z"/><path class="cls-1" d="M328.77,242.87l-.86-1.52Z"/><path class="cls-1" d="M544.72,348.32l1.48-.88Z"/><path class="cls-1" d="M173.63,19.59l-1.49-.86Z"/><path d="M1550.94,241.17l.78,1.53Z"/><path class="cls-1" d="M548.34,345.28l.88-1.6Z"/><path class="cls-1" d="M360.44,130.24l.87,1.51Z"/><path class="cls-1" d="M169.85,17.4l-1.5-.88Z"/><path d="M1548,140.87l-.7,1.63Z"/><path class="cls-1" d="M166.09,15.16l-1.48-.9Z"/><path class="cls-1" d="M329.56,244.32l-.84-1.52Z"/><path class="cls-1" d="M149.56,4.71l-1.44-.94Z"/><path class="cls-1" d="M325.81,237.58,325,236Z"/><path d="M1551.7,242.66l.81,1.52Z"/><path d="M1094.39,243.52l-1.54.76Z"/><path class="cls-2" d="M1396.39,282.41l.72-1.78Z"/><path d="M967.81,115.45,967,117Z"/><path d="M1552.48,244.12c.27.51.55,1,.82,1.54C1553,245.14,1552.75,244.63,1552.48,244.12Z"/><path class="cls-1" d="M151.82,6.19l-1.44-.93Z"/><path d="M1552.53,131.9l-.84,1.5Z"/><path d="M1090.77,245.16l-1.67.61Z"/><path d="M1227.7,245.88l-1.5-.85Z"/><path d="M1790,245.92l-1.47-.9Z"/><path d="M1146,200.87l-.85-1.52Z"/><path d="M1473.08,142.91c.25.53.51,1.06.76,1.6C1473.59,144,1473.33,143.44,1473.08,142.91Z"/><path d="M1229.2,246.64l-1.56-.8Z"/><path d="M1553.26,245.59l.89,1.48Z"/><path d="M1791.42,246.71l-1.53-.84Z"/><path d="M1145.19,199.43l-.66-1.64Z"/><path d="M1230.73,247.34l-1.6-.74Z"/><path d="M1793,247.41l-1.6-.75Z"/><path d="M963.92,123.62c-.21.54-.43,1.09-.65,1.64Z"/><path d="M1232.27,248l-1.6-.68Z"/><path class="cls-1" d="M356.49,149.22l-.74-1.6Z"/><path d="M965.52,119.92c-.25.53-.49,1.07-.74,1.6C965,121,965.27,120.45,965.52,119.92Z"/><path d="M1794.53,248l-1.64-.66Z"/><path class="cls-1" d="M162.36,12.88l-1.45-.9Z"/><path d="M1143.66,195.7l-.78-1.58Z"/><path d="M967,116.92l-.79,1.55Z"/><path class="cls-1" d="M367.24,143.68c.24.54.48,1.07.73,1.61C367.72,144.75,367.48,144.22,367.24,143.68Z"/><path class="cls-1" d="M403.7,134l1.65-.61Z"/><path d="M1142.93,194.19l-.84-1.54Z"/><path class="cls-1" d="M154.1,7.65l-1.45-.91Z"/><path class="cls-1" d="M333.24,251.13l-.82-1.56Z"/><path d="M1545.68,146.84l-.66,1.85Z"/><path class="cls-1" d="M391.05,140.05l1.47-.9Z"/><path class="cls-1" d="M334,252.83l-.83-1.78C333.47,251.65,333.74,252.24,334,252.83Z"/><path d="M1548.68,139.35c-.24.52-.47,1.05-.71,1.58Z"/><path class="cls-1" d="M160.07,11.44l-1.47-.91Z"/><path d="M1470,139.21l.83.79Z"/><path class="cls-1" d="M383.41,146l.87-.77Z"/><path class="cls-1" d="M160.93,12l-.94-.63Z"/><path d="M1139.2,188.21l-.7-.9Z"/><path d="M1016.15,134.68l.87-.75Z"/><path d="M822.75,133.22l.88-.75Z"/><path class="cls-1" d="M332.48,259.13l.77-.86Z"/><path d="M969.29,189.32c.25.29.49.59.73.88C969.78,189.91,969.54,189.61,969.29,189.32Z"/><path class="cls-1" d="M331.74,259.89c.27-.28.54-.55.8-.83C332.28,259.34,332,259.61,331.74,259.89Z"/><path class="cls-1" d="M384.21,145.25l.86-.76Z"/><path class="cls-1" d="M331,260.64l.81-.81Z"/><path d="M970,190.14l.75.85Z"/><path class="cls-1" d="M330.23,261.38l.82-.81Z"/><path class="cls-1" d="M329.47,262.12l.83-.8Z"/><path class="cls-1" d="M328.68,262.83l.86-.78Z"/><path class="cls-1" d="M333.29,115.51l-.84-.79Z"/><path d="M972.93,193.18l.87.74Z"/><path class="cls-1" d="M390.15,140.69l.93-.66Z"/><path class="cls-1" d="M152.68,6.76l-.94-.65Z"/><path d="M1469.22,138.52l.84.75Z"/><path class="cls-1" d="M377.42,152l.81-.84Z"/><path d="M822.05,134l.77-.85Z"/><path d="M1788.53,245l-.93-.65Z"/><path d="M1146.76,201.62l-.8-.79Z"/><path d="M1470.77,139.93l.78.84Z"/><path class="cls-1" d="M334.05,116.24l-.83-.79Z"/><path class="cls-1" d="M376.68,152.72l.82-.84Z"/><path class="cls-1" d="M150.42,5.28l-.94-.65Z"/><path d="M1147.44,202.45l-.72-.88Z"/><path class="cls-1" d="M303.46,142.94l.89.75Z"/><path d="M1132.52,181.39l-.92-.69Z"/><path class="cls-1" d="M375.93,153.47l.83-.83Z"/><path class="cls-3" d="M1525.41,286.94l.75-.75Z"/><path d="M821.52,134.83c.2-.29.39-.58.58-.87C821.91,134.25,821.72,134.54,821.52,134.83Z"/><path class="cls-1" d="M375.18,154.21l.83-.82Z"/><path class="cls-1" d="M547.7,346.09l.72-.9Z"/><path class="cls-1" d="M547,346.83l.8-.79Z"/><path class="cls-1" d="M546.12,347.51l.88-.72Z"/><path class="cls-1" d="M374.42,155l.84-.81Z"/><path class="cls-1" d="M328,241.43l-.6-.94Z"/><path class="cls-1" d="M373.66,155.69l.84-.81Z"/><path d="M823.57,132.52l.88-.64Z"/><path class="cls-1" d="M300.57,233.85l-.89.72Z"/><path d="M1466.21,136.27l.94.64Z"/><path class="cls-1" d="M533.22,354.27l1.08-.64Z"/><path class="cls-1" d="M531.81,355l1-.59Z"/><path class="cls-1" d="M530.45,355.81l.83-.55Z"/><path d="M1014.7,136.24l.76-.87Z"/><path class="cls-1" d="M382.07,228.59l-.86-.76Z"/><path class="cls-1" d="M526.65,358c.3-.21.61-.41.92-.61C527.26,357.61,527,357.81,526.65,358Z"/><path class="cls-1" d="M381.28,227.89l-.85-.79Z"/><path class="cls-1" d="M380.51,227.17l-.84-.81Z"/><path class="cls-1" d="M522.9,360.27l.91-.63Z"/><path class="cls-1" d="M520.49,361.76l1-.68Z"/><path class="cls-1" d="M519.22,362.57,520,362Z"/><path class="cls-1" d="M518.19,363.25l1.08-.72Z"/><path class="cls-1" d="M517,364.07l.82-.61Z"/><path class="cls-1" d="M516,364.75,517,364Z"/><path class="cls-1" d="M514.74,365.58l.8-.6Z"/><path class="cls-1" d="M513.75,366.26l1-.71Z"/><path class="cls-1" d="M512.55,367.11l.73-.58Z"/><path class="cls-1" d="M511.68,367.78l.88-.67Z"/><path d="M1015.4,135.43l.81-.81Z"/><path class="cls-1" d="M509.51,369.33l.83-.64Z"/><path class="cls-1" d="M508.66,370l.88-.7Z"/><path class="cls-1" d="M379,225.68c-.26-.29-.52-.57-.79-.85C378.48,225.11,378.74,225.39,379,225.68Z"/><path class="cls-1" d="M378.28,224.9l-.76-.86Z"/><path class="cls-1" d="M506.55,371.6l.79-.65Z"/><path class="cls-1" d="M505.71,372.3l.85-.7Z"/><path class="cls-1" d="M500.63,372.23l.84.77Z"/><path class="cls-1" d="M504.78,373l1-.76Z"/><path d="M1224,243.59l-.92-.69Z"/><path class="cls-1" d="M689.45,177.9c-1.61-3-2.8-5.91-2.4-9.56a25.06,25.06,0,0,0-.32-7.05c-3.27-17.84-11.58-33.13-23.63-46.51a4.63,4.63,0,0,0-3-3c-6.84-6.78-15.17-11.16-24-14.78-14.32-5.91-29.47-7.36-44.69-7.39-27.6,0-55.2-.8-82.8-.38-23,.35-46,.1-68.94.28-6.12,0-12.25,0-18.37,0a68,68,0,0,0-10.77,1,127.22,127.22,0,0,0-29.71,8.55c-10.72,4.54-20.06,11-27.38,20.24a3.66,3.66,0,0,0,1,1.91,14.75,14.75,0,0,0,2.21,3.05,12.32,12.32,0,0,0,1.5,2.26c.86,1.19,1.22,2.67,2.28,3.72.31.47.19,1.18.82,1.46,2,4,4,8,6,12l-.05-.08c.25.53.17,1.2.71,1.59.55,1.21.67,2.6,1.52,3.67.49,1.26.65,2.66,1.52,3.76s-.18,3.87,2.77,2.89l-.1.1a1,1,0,0,0,.82-.76,1,1,0,0,0,.76-.74,1.06,1.06,0,0,0,.75-.74,1.09,1.09,0,0,0,.75-.75,1,1,0,0,0,.74-.76.94.94,0,0,0,.75-.82l-.08.08c1.75-1.8,3.52-3.59,5.34-5.33l-.08.08a1.06,1.06,0,0,0,.85-.73,1.58,1.58,0,0,0,.8-.71,13,13,0,0,0,2.92-2.3,4.48,4.48,0,0,0,2.19-1.53c.44,0,.67-.35.91-.65l0,0c.41-.4,1.17-.25,1.45-.87a8.06,8.06,0,0,0,2.34-1.39h0c.43-.4,1.14-.27,1.52-.79l-.05,0c.46-.37,1.15-.26,1.54-.76,1.2-.62,2.61-.71,3.7-1.56.65-.5,1.71.1,2.23-.78.53-.21,1.15-.17,1.6-.6l.2-.18.26.08c.77-.45,1.81,0,2.52-.71l0,0c.9-.76,2.17.08,3.06-.71l.25-.18.28.11c1.24-.74,2.75.16,4-.68l1.21-.08a5.25,5.25,0,0,1,2.57-.3q38.75,0,77.47,0a3.79,3.79,0,0,1,2.53.39c.07,1.48.2,3,.2,4.46q0,117.58,0,235.16c.36.46.23,1.19.79,1.55a1.25,1.25,0,0,0,.82.73c.87.85,1.85.45,2.82.19l.2-.21.29,0a1.4,1.4,0,0,0,1-.74,3.44,3.44,0,0,0,.8-.67h0a4.08,4.08,0,0,1,.79-.65l.08-.05c.25-.54,1-.35,1.28-.91a1.75,1.75,0,0,0,.84-.68l0,0a6.54,6.54,0,0,1,.83-.64l.06,0c.28-.54,1.05-.35,1.32-.89a2.64,2.64,0,0,0,.84-.65h0a2.56,2.56,0,0,1,.73-.58.34.34,0,0,1,.47-.27,1.5,1.5,0,0,0,1-.71l0,0c.26-.21.53-.41.8-.6l.15-.23H516A1.35,1.35,0,0,0,517,364l0,0,.82-.61.14-.22h.26a1.34,1.34,0,0,0,1.08-.72l0,0L520,362l.16-.23h.29a1.59,1.59,0,0,0,1-.68l0,0c.39-.42,1.13-.28,1.43-.85.37-.09.58-.4.86-.61h0c.36-.49,1.1-.32,1.44-.83l0,0c.43-.38,1.16-.24,1.47-.82.36-.08.57-.4.87-.59l0,0c.34-.51,1.08-.33,1.44-.81l0,0c.42-.42,1.16-.27,1.5-.83l-.06,0,.83-.55.22-.23h.31a2.65,2.65,0,0,0,1-.59l.17-.21.26,0a1.86,1.86,0,0,0,1.08-.64h0c.38-.47,1.09-.32,1.48-.77h0c.4-.45,1.11-.31,1.49-.78h0c.42-.42,1.13-.28,1.51-.78l0,0c.44-.39,1.15-.27,1.53-.78l0,0c.45-.38,1.16-.26,1.54-.77l0,0c.45-.38,1.15-.26,1.54-.77l0,0c.45-.38,1.16-.25,1.53-.79l0,0c.43-.36,1.16-.22,1.45-.82a1.37,1.37,0,0,0,.82-.69,2,2,0,0,0,.73-.73,1.28,1.28,0,0,0,.68-.83c.65-.32.5-1.07.82-1.57a.4.4,0,0,1,.15-.56c.52-.71.07-1.68.62-2.38q-.07-27.3-.15-54.58a20.85,20.85,0,0,1,.22-2.22c1.41-1.17,3.11-.73,4.69-.73,15.61,0,31.23-.28,46.83.07a93.46,93.46,0,0,0,29.8-4.14c7.62-2.34,15.19-4.72,21.19-10.35a58.58,58.58,0,0,0,14.23-13.47,24.57,24.57,0,0,0,5.31-6.76l-.06.06c6.82-8.53,10.69-18.41,13.31-28.87C688.29,208,689,196,690.57,184.07A9.93,9.93,0,0,0,689.45,177.9ZM635.7,206.44c-4.07,20.9-19.33,34.39-40.63,35.44-14.56.72-29.19.25-43.78.31a5,5,0,0,1-1.07-.33V130.8a10.78,10.78,0,0,1,2.1-.44c11.61,0,23.22-.14,34.82,0a68.73,68.73,0,0,1,34,9,15.49,15.49,0,0,1,5.58,5.29c4.61,7.89,8.86,16.14,9.73,25.33C637.6,182.07,638.05,194.38,635.7,206.44Z"/><path d="M1570.48,110.25l.87-.75Z"/><path d="M1561.52,119.28l.74-.87Z"/><path d="M1569.68,110.94l.86-.75Z"/><path class="cls-1" d="M333.25,258.28c1.58-1.45,1.53-3.2.87-5.06a.24.24,0,0,1-.1-.39c-.22-.61-.13-1.35-.8-1.75-.22-.52-.12-1.19-.76-1.49a9.51,9.51,0,0,0-1.32-2.37h0c-.48-.37-.32-1.09-.8-1.47v0c-.41-.42-.27-1.15-.82-1.5-.3-.46-.2-1.14-.79-1.45-.24-.49-.14-1.17-.77-1.44,0-.4-.35-.63-.59-.89h0c-.46-.39-.3-1.12-.82-1.48l0,0c-.39-.44-.25-1.17-.81-1.52-.3-.47-.21-1.14-.77-1.47-.27-.49-.18-1.16-.77-1.48-.24-.51-.15-1.17-.75-1.5-.23-.51-.16-1.17-.72-1.53-.27-.49-.21-1.14-.71-1.53l0,0c-.37-.45-.25-1.12-.67-1.56l-.2-.18.07-.26c-.22-.6-.21-1.29-.68-1.8v0c-.66-.63-.05-1.68-.75-2.29l-.16-.19.09-.24c-.45-.8,0-1.83-.69-2.57l-.16-.21.1-.24c-.67-1,.27-2.51-1.19-3.64-6,5.43-11.44,11.48-17.36,17l.08-.07a1.37,1.37,0,0,0-.88.71,8.48,8.48,0,0,0-2.21,1.53c-1.93,1.16-4.05,2-6,3l.07,0c-.52.27-1.18.19-1.64.64l-.18.17-.23-.07c-.8.44-1.85,0-2.55.73l.05,0c-.92.71-2.17-.07-3.08.68l-1.17.1c-3.57.83-7.25-.24-10.82.61l-16.18.13c-6.35.7-12.71.27-19.06.27-6.61,0-13.22.42-19.81-.27L189.43,242c-1.22-1.68-.73-3.62-.73-5.45q0-101.45,0-202.88c0-3.44-.36-6.46-3.88-8.08-.31-.6-1-.5-1.48-.78-.33-.56-1-.47-1.48-.76-.34-.54-1-.45-1.48-.76-.36-.55-1.08-.41-1.52-.8l0,0c-.36-.51-1.08-.36-1.48-.81h0a8.86,8.86,0,0,0-2.37-1.35c-.28-.62-1-.52-1.46-.79-.31-.58-1.05-.43-1.47-.84l0,0a7.35,7.35,0,0,0-2.35-1.39c-.27-.62-1-.5-1.44-.82a5.77,5.77,0,0,0-2.31-1.42c-.26-.63-1-.5-1.42-.83a6.86,6.86,0,0,0-2.31-1.44c-.28-.61-1-.45-1.43-.87l0,0c-.25-.29-.48-.59-.89-.62-.24-.64-1-.51-1.41-.83a6.65,6.65,0,0,0-2.3-1.47,5,5,0,0,0-2.25-1.46c-.26-.63-1-.47-1.43-.88l0,0a1.35,1.35,0,0,0-.88-.63c-.25-.64-1-.48-1.42-.87l0,0c-.23-.31-.46-.62-.88-.64-.23-.64-1-.51-1.38-.85a10.22,10.22,0,0,0-2.28-1.5A8.57,8.57,0,0,0,143.61.8c-.67-.5-1.28-1.19-2.52-.53,0,29.54,0,59.21,0,88.66a3,3,0,0,1-1.41.58c-10.5,0-21,.16-31.49-.07-4.48-.1-8.94-.31-13.44-.06-7.22.4-14.29,2.12-21.51,2.42A58.81,58.81,0,0,0,47.3,99.05a88.87,88.87,0,0,0-34.24,33.61c-9.43,16.05-11.94,33.83-12.95,52-.78,14,2.59,27.18,7.44,40.11,3.06,8.14,5.71,16.5,10.85,23.67,3.29,4.59,7.64,8.23,11.66,12.13,15.16,14.7,33.37,22.48,54.51,22.55,48.72.17,97.45.06,146.17.06,1.38,0,2.75,0,4.13,0,16.59.34,33.22,1.4,49.74-.51a78.3,78.3,0,0,0,44.15-20l-.08.08a1,1,0,0,0,.83-.73,1.18,1.18,0,0,0,.77-.75,1.27,1.27,0,0,0,.75-.74,1.33,1.33,0,0,0,.75-.74,1.28,1.28,0,0,0,.73-.75A1,1,0,0,0,333.25,258.28ZM140.78,242c-.92.09-1.76.24-2.59.24q-25.09,0-50.19-.13a24,24,0,0,1-11.75-3.36A45.58,45.58,0,0,1,57,218.37a27.87,27.87,0,0,1-2.8-12.29c0-4.77-.61-9.4-3-13.75a9.21,9.21,0,0,1,0-9.35,19.52,19.52,0,0,0,2.8-10.7C53.86,155,67.87,135,91.32,131.72c11.06-1.54,22.15-1.59,33.26-1.49,5.34.05,10.67,0,16.2,0Z"/><path d="M706.27,90.37h48.35v195H706.27Z"/><path class="cls-1" d="M376.92,191l-.66-3.07-.75-3.74c-.26-1.74-.53-3.47-.8-5.21q0-4,0-8.09l.76-4.48c1.56-2.15,3.88-1.9,6.11-1.9,14.7,0,29.39.09,44.08.1,14.2,0,28.39,0,42.58,0,2.23,0,4.46.25,6.69.39l7.5,3c.6,1.44,1.7,2.87,1.72,4.32.14,10.34.06,20.68,0,31a4.24,4.24,0,0,1-.36,1.1H378.91c-.42-3.11-.81-6-1.2-8.94C377.45,194,377.18,192.48,376.92,191Z"/></g></g></svg>