<svg xmlns:xlink="http://www.w3.org/1999/xlink" xmlns="http://www.w3.org/2000/svg" fill="#2547FE" width="13" height="9" viewBox="0 0 14 9" class="icon inline-block align-middle Kicker_icon__x1xDS" preserveAspectRatio="xMaxYMax meet" focusable="false"><path d="M7.45251 4.63887L7.43199 4.40383C7.41396 3.83962 7.30194 3.28283 7.10086 2.7579C6.87377 2.22789 6.55849 1.74309 6.16934 1.32549C5.76847 0.919132 5.2982 0.592964 4.78231 0.363482C4.2463 0.124551 3.66879 0.000875882 3.08498 0H0V1.88228H3.08498C4.45086 1.88228 5.54716 2.9724 5.61029 4.38362L5.63081 4.61866C5.64884 5.18287 5.76086 5.73966 5.96194 6.2646C6.18919 6.79452 6.50445 7.27929 6.89347 7.69701C7.29422 8.1035 7.76452 8.42969 8.2805 8.65901C8.81902 8.88705 9.39578 9.00325 9.97782 9.00098H13.0003V7.14282H9.97782C8.61194 7.14282 7.51564 6.0527 7.45251 4.64148" fill="#2547FE"></path><path d="M7.99073 4.46748L8.01125 4.70284C8.01044 4.91597 8.05269 5.12693 8.13531 5.32223H13.0003V3.54785H7.90771C7.94907 3.84744 7.99073 4.16724 7.99073 4.46715" fill="#2547FE"></path><path d="M5.09261 5.34453C5.09261 5.13035 5.07209 4.93801 5.07209 4.76719L5.05157 4.53183C5.03106 4.18954 4.94804 3.84724 4.7618 3.56982H0V5.34453H5.09261Z" fill="#2547FE"></path><path d="M5.25834 5.87874C5.03108 6.25722 4.71412 6.56959 4.33742 6.78635C3.96073 7.00311 3.53673 7.11709 3.10551 7.11752H0V8.95611H3.10519C3.7261 8.95611 4.28483 8.84919 4.8022 8.61415C5.315 8.40012 5.77994 8.07994 6.1684 7.67333C5.88324 7.30849 5.6466 6.90591 5.46478 6.47629C5.37138 6.28699 5.302 6.08604 5.25834 5.87842" fill="#2547FE"></path><path d="M9.99997 0.0209961C9.41648 0.0239926 8.83947 0.147582 8.30296 0.384479C7.79022 0.59863 7.32531 0.918792 6.93677 1.32529C7.222 1.6902 7.45864 2.0929 7.64038 2.52266C7.72168 2.72456 7.79094 2.93141 7.84777 3.14205C8.07499 2.76353 8.39193 2.45113 8.76864 2.23436C9.14535 2.0176 9.56937 1.90365 10.0006 1.90328H13.0016V0.021971L9.99997 0.0209961Z" fill="#2547FE"></path></svg>