<svg xmlns="http://www.w3.org/2000/svg" viewBox="0 0 462.9 94.37"><defs><style>.cls-1{fill:#fff;}.cls-2{fill:#0400ee;}.cls-3{fill:#0401ee;}</style></defs><g id="Layer_2" data-name="Layer 2"><g id="Layer_1-2" data-name="Layer 1"><path class="cls-1" d="M272.16,62.64a8.61,8.61,0,0,0,4.06-1.17,3.24,3.24,0,0,0,1.62-3.17c0-.6,0-1.2,0-1.8a3.68,3.68,0,0,0-3.9-3.81H258.84a4.79,4.79,0,0,1-1.92-.31,3.6,3.6,0,0,0-2.74-.45,3.88,3.88,0,0,1-2-.13,18.33,18.33,0,0,1-5.95-2.48A8.33,8.33,0,0,1,243,44a23.91,23.91,0,0,1-.55-5.58,19.62,19.62,0,0,0,0-2.17,13.1,13.1,0,0,1,2-7.33,10.41,10.41,0,0,1,2.69-3.31A17.58,17.58,0,0,1,253.92,23a27.53,27.53,0,0,1,6-.38h32.25c1.42,0,1.46.31,1.45-1.5,0-2.52,0-5,0-7.56,0-.72.19-1,1-1q5.49.06,11,0c.76,0,.87.27.87.93,0,2.64,0,5.29,0,7.94,0,1.07,0,1.07,1.12,1.07h11.06c1.06,0,1.07,0,1.07,1v7.65c0,1,0,1-1,1-3.78,0-7.56,0-11.35,0-.68,0-.91.15-.9.88q0,11.91,0,23.82a8.12,8.12,0,0,0,.64,2.53,7.71,7.71,0,0,0,5.73,3.71,37.9,37.9,0,0,0,6.57.39c.34.13.31.43.31.71,0,2.4,0,4.79,0,7.19,0,.77-.43.78-1,.78-2.55,0-5.1.15-7.66.1a19.17,19.17,0,0,0-2.83.09,5.57,5.57,0,0,1-2.85-.38c-1.06-.42-2.23-.41-3.31-.76a10.77,10.77,0,0,1-6.11-5.17,20,20,0,0,1-2.24-8.66c-.16-2.23.05-4.46,0-6.68-.15-5.92-.17-11.83-.14-17.75,0-.74-.31-.79-.9-.79q-12.81,0-25.63,0a2.26,2.26,0,0,1-1-.08,20.08,20.08,0,0,0-8.3,1c-1.74.64-3.13,3.49-2.39,5.22a9.68,9.68,0,0,0,1.43,2.63,4.64,4.64,0,0,0,3.86,1.52,59.89,59.89,0,0,0,12.12.32c1.75-.1,3.51.2,5.28.17,0,0,.06.1.09.16,1.3.24,2.62.34,3.9.7a10.21,10.21,0,0,1,4.25,2.22,8.38,8.38,0,0,1,2.48,3.65,2.57,2.57,0,0,0,.69,1.2,1.54,1.54,0,0,1,.42,1.3,5.94,5.94,0,0,0,.57,3.36,3.15,3.15,0,0,1-.4,3.41,1.26,1.26,0,0,0-.22.79,11.08,11.08,0,0,1-1.1,4.77,11.9,11.9,0,0,1-2.31,3.73,14.66,14.66,0,0,1-1.66,1.36,11.49,11.49,0,0,1-6.94,2.53c-11.08.21-22.15,0-33.23.1a1.19,1.19,0,0,1-1-.33l0,0c-.26-.27-.13-.6-.13-.9,0-2.49,0-5,0-7.47,0-.78.21-1,1-1,8.89,0,17.79,0,26.68,0A3,3,0,0,0,272.16,62.64Z"/><path class="cls-1" d="M397.14,67.91c-3.76-2.75-5.85-6.63-7.35-10.91a4.57,4.57,0,0,0-.77-1.64c-.37-.42-.15-.91-.12-1.35a17,17,0,0,0-.87-5.08,6.91,6.91,0,0,1,.15-2.81c.12-1,.28-2,.45-3a27.19,27.19,0,0,1,3.83-10.85,21.21,21.21,0,0,1,5.08-5.4,11,11,0,0,0,1.51-1.13,24.82,24.82,0,0,1,12.63-3.18c7.71.09,15.43,0,23.14,0,1,0,1,0,1-1,0-2.67,0-5.35,0-8,0-.3-.15-.63.15-.88h11.81c.27.26.13.59.13.89,0,2.64,0,5.28,0,7.92,0,.81.25,1,1,1,4.25,0,8.5,0,12.75,0,1.2,0,1.2,0,1.2,1.19V32c0,1,0,1-1,1h-11.8a1.08,1.08,0,0,0-.56.07c-.25,0-.52-.11-.71.16a2.74,2.74,0,0,0-.83,2.31c0,5.57,0,11.13,0,16.69a20.42,20.42,0,0,0,1.39,7.24,6.7,6.7,0,0,0,5,3.66,15.39,15.39,0,0,0,5,.39c.13,0,0,0,.09,0,3.18-.07,2.49-.43,2.55,2.3,0,1.66,0,3.32,0,5,0,.36.08.76-.24,1.06l0,0a13.33,13.33,0,0,1-4.16.5,50.26,50.26,0,0,1-10.6-.81,19.07,19.07,0,0,1-3.52-.61,10.34,10.34,0,0,1-6.3-6.57,9.79,9.79,0,0,1-.54-1.9,22.51,22.51,0,0,1-.69-5.36q0-11.49,0-23a2.21,2.21,0,0,0-.08-1c-.29-.3-.66-.14-1-.14H417.19a7.47,7.47,0,0,0-2.77.46,5.45,5.45,0,0,1-3,.35,4.23,4.23,0,0,0-2.06.15,10.44,10.44,0,0,0-7.87,9.66c-.22,2.53,0,5.09,0,7.64A11.27,11.27,0,0,0,403.37,57a5.49,5.49,0,0,0,2.28,1.93,18.88,18.88,0,0,0,9.41,2.34c5.1-.14,10.21,0,15.32-.08.73,0,1,.17,1,.93,0,3,0,6,0,9,0,.31,0,.63.05.94s-.46.36-.76.36q-9.76,0-19.53,0a6.23,6.23,0,0,1-1.72-.45c-1.77-.48-3.61-.44-5.4-.74A17.65,17.65,0,0,1,397.14,67.91Z"/><path class="cls-1" d="M226.83,36.9a4.52,4.52,0,0,0-3.16-3,1.76,1.76,0,0,0-.51-.09c-3.58,0-7.17,0-10.75,0-1.14,0-2.33.23-3.37-.67-.52-.45-1.32.1-1.72,1a2.35,2.35,0,0,0-.07,1q0,17.94,0,35.88c0,1.06,0,1.06-1.07,1.06H195.78c-.41,0-.86.09-.91-.53-.19-3-.45-5.9-.38-8.85.07-2.74.11-5.48-.05-8.2-.3-5.12,0-10.24-.16-15.36-.07-3,.32-6.07.24-9.11,0-.88,0-1.76-.06-2.63-.13-1.57.3-3.11.23-4.68.22-.35.57-.17.85-.17,9.27,0,18.54,0,27.81,0a19.42,19.42,0,0,1,7.41,1.71,23.86,23.86,0,0,1,3.74,1.81c1.81,1.14,2.76,3,3.7,4.78a20.44,20.44,0,0,1,2.14,9.48c0,10.24,0,20.48,0,30.72,0,1.21,0,1.21-1.21,1.21H228.93c-.4,0-.83.08-1.11-.34l0,0a2.11,2.11,0,0,1-.34-1.52q0-15.08,0-30.16A8.4,8.4,0,0,0,226.83,36.9Z"/><path class="cls-1" d="M352.67,70.75a2.53,2.53,0,0,1-2.59,1.62,72.73,72.73,0,0,1-8.61-.13,1.07,1.07,0,0,1-.32-.16A2.3,2.3,0,0,1,340,70c0-.32,0-.63,0-1V23.24c0-.42.19-.65.64-.61.22,0,.44,0,.66,0,7.6,0,15.2.05,22.8,0a33.11,33.11,0,0,1,7.51.41c2.38.54,4.86.9,6.93,2.34a14,14,0,0,1,6,9.76,78.39,78.39,0,0,1,.5,14.12c-.08,2.7,0,5.41.05,8.11.09,4.63,0,9.27,0,13.9,0,1.09,0,1.13-1.11,1.11-3.27,0-6.55.12-9.83-.09a1.87,1.87,0,0,1-1.64-.76c-.26-.2-.1-.5-.17-.74s-.1-.68-.1-1q0-15.81,0-31.61a1.84,1.84,0,0,0-.1-1,4.61,4.61,0,0,0-4.47-3.28l-13.89,0c-.31,0-.62,0-.94.05a1.94,1.94,0,0,0-.09,1q0,17.35,0,34.71A2.2,2.2,0,0,1,352.67,70.75Z"/><path class="cls-2" d="M87.37,62.6a33.9,33.9,0,0,1-2.06-3,24.26,24.26,0,0,1-3-8.46C82,49.1,82.1,47,81.8,45a13.44,13.44,0,0,0-2.57-6.18C77,36.17,74.48,34.19,71,33.63c-1.44-.24-2.9-.35-4.34-.53a2.57,2.57,0,0,0-1-.07h-13c-1,0-1,0-1-1.08,0-2.83,0-5.67,0-8.5,0-.58.09-.83.76-.83,4.07,0,8.12-.3,12.18-.15,3.58.13,7.17.23,10.63,1.34a20.43,20.43,0,0,1,7.54,4.11A19.16,19.16,0,0,1,86,31.18a23.41,23.41,0,0,1,3.26,5.12c.55,1.19.9,2.47,1.5,3.61a7.64,7.64,0,0,1,.7,4.06,25.27,25.27,0,0,0,.87,5.46,19.94,19.94,0,0,0,1.17,4.41c1.47,3.35,4.16,5.28,7.44,6.51a17.45,17.45,0,0,0,7.19.88c3.43-.19,6.88-.07,10.31-.08l3.5,0c.41.13.32.48.32.79,0,2.86,0,5.72,0,8.59,0,.57-.18.86-.75,1a5.36,5.36,0,0,1-1.32.11c-5.13-.2-10.26-.08-15.39-.08a21.44,21.44,0,0,1-13.56-5.1A29.33,29.33,0,0,1,87.37,62.6Z"/><path class="cls-1" d="M337,70.18c0,.37-.28.69-.23,1.08-.45,1-1.39,1.07-2.25,1.08-3.41,0-6.81,0-10.22,0-.56,0-.72-.22-.66-.72,0-.16,0-.32,0-.48V23.74c0-1.23-.12-1.11,1.12-1.11,3.81,0,7.62,0,11.44,0,.61,0,.88.08.88.8q0,23.14,0,46.3A1,1,0,0,1,337,70.18Z"/><path class="cls-3" d="M95.31,49.42a45.65,45.65,0,0,1-.88-4.78A7,7,0,0,1,94.75,42c.33-.56.91-.55,1.42-.53,3.34.17,6.68,0,10,.07,4.25,0,8.51,0,12.76,0,.31,0,.69-.21.94.18l1.84.68c.59.17.62.68.63,1.14,0,2.49,0,5,0,7.46,0,.58-.25.75-.81.74q-12.7,0-25.42,0c-.59,0-.77-.18-.74-.76A3.84,3.84,0,0,0,95.31,49.42Z"/><path class="cls-3" d="M51.61,51.61V41.67c.21-.22.48-.13.72-.13H74a3.27,3.27,0,0,1,2,.55,4.34,4.34,0,0,1,3,4.34c0,1.72,0,3.44,0,5.15-.21.3-.52.16-.78.16H52.42C52.15,51.74,51.85,51.85,51.61,51.61Z"/><path class="cls-2" d="M173.92,44.72a3.43,3.43,0,0,1-.5-2,8.16,8.16,0,0,0-.09-2,19.92,19.92,0,0,0-2.64-7.11,17.88,17.88,0,0,0-3.37-4.6l-.69-.69a17,17,0,0,0-6-3.77,30.08,30.08,0,0,0-11.27-1.88c-5.38-.08-10.77,0-16.16-.11-2.93-.08-5.85.08-8.78.09-5.42,0-10.85.05-16.27,0A29.9,29.9,0,0,0,98,24.33a18.79,18.79,0,0,0-8.28,5.23c-.3.34-.67.62-.25,1.1.12.15.25.28.36.44a35.21,35.21,0,0,1,3.67,7.21c.59,1.54.62,1.11,1.45.31a28.32,28.32,0,0,1,2.16-2.09,14.37,14.37,0,0,1,4.85-2.73,10.82,10.82,0,0,1,3.33-.7,1.42,1.42,0,0,1,.65-.07h19.55c.22,0,.45-.06.64.09,0,.32,0,.63,0,.94q0,27.77,0,55.54v3.68c0,.42,0,.83.48,1s.66-.14.91-.34a45.1,45.1,0,0,1,9.21-5.65,3.29,3.29,0,0,0,2-3.4c0-2.74,0-5.48,0-8.22,0-1.67-.08-3.34.05-5,.36-.3.79-.19,1.19-.19,4.19,0,8.38,0,12.58,0a17.45,17.45,0,0,0,4.67-.48c2.64-.71,5.33-1.3,7.49-3.15l.21-.18a21.17,21.17,0,0,0,4.61-4.93,1.57,1.57,0,0,0,.55-.62,22.17,22.17,0,0,0,3.24-8.45c.43-2.35.57-4.72.92-7.08A2.92,2.92,0,0,0,173.92,44.72ZM160.79,49a14.61,14.61,0,0,1-.29,3.1,10.81,10.81,0,0,1-10.41,9.07c-3.53.22-7.06.08-10.59.07-.68,0-.66-.36-.66-.83q0-6.68,0-13.33c0-4.39,0-8.77,0-13.15,0-.71.14-1,.93-1,3.5.07,7-.18,10.49.17A17.66,17.66,0,0,1,157,35.3a3.43,3.43,0,0,1,1.32,1.45c1.66,3,2.82,6.19,2.43,9.75A20,20,0,0,0,160.79,49Z"/><path class="cls-2" d="M84.06,63.51c-.14-.31-.29-.62-.46-.92-1.4-2.42-2.89-4.8-3.32-7.63-.42,0-.59.32-.81.54-1,1-2,2.08-3.08,3.06a9,9,0,0,1-5.82,2.55c-2.32.11-4.65.1-7,.17-5.07.17-10.14-.13-15.21-.1a5,5,0,0,1-.56-.07,2.1,2.1,0,0,1-.19-1.37q0-25.62,0-51.23c0-.88-.11-1.64-1-2a12.94,12.94,0,0,1-3-1.55c-2.49-1.49-5-3-7.34-4.65-.38-.38-.65-.44-.64.24,0,.19,0,.38,0,.56,0,6.87,0,13.74,0,20.61,0,.71-.14,1-.92,1-2.27-.06-4.54,0-6.81,0-1.32,0-2.64-.13-4,0-1.82.13-3.61.56-5.43.62A14.78,14.78,0,0,0,12,25a22.36,22.36,0,0,0-8.6,8.39C.94,37.47.29,42,0,46.61A25.06,25.06,0,0,0,2,56.91c.72,1.91,1.25,3.94,2.52,5.56a23.46,23.46,0,0,0,6.94,6.29,19.08,19.08,0,0,0,9.22,2.74c16,0,32,0,48,.11a20.42,20.42,0,0,0,7.74-1.32,18.32,18.32,0,0,0,6.66-4l.71-.75A1.43,1.43,0,0,0,84.06,63.51ZM34.71,61.19c-4.09,0-8.19.13-12.29,0a6.34,6.34,0,0,1-2.65-.6,11.25,11.25,0,0,1-5.65-6.08,6.65,6.65,0,0,1-.43-2.5A7,7,0,0,0,13,48.59a2.4,2.4,0,0,1,0-2.44,4.55,4.55,0,0,0,.67-2.52c-.12-4.47,3.51-9.59,9.56-10.38A84,84,0,0,1,34,32.93c1.61,0,1.61,0,1.61,1.58V47.08c0,4.41,0,8.82,0,13.23C35.61,61,35.4,61.2,34.71,61.19Z"/><path class="cls-1" d="M190.52,47.59V71.13c0,1.11.19,1-1,1-3.47,0-6.94,0-10.41,0-.68,0-.9-.11-.9-.86q0-23.78,0-47.55c0-.78.24-.93,1-.92q5.25.06,10.5,0c.71,0,.88.17.88.88C190.51,31.65,190.52,39.62,190.52,47.59Z"/></g></g></svg>