<svg xmlns="http://www.w3.org/2000/svg" viewBox="0 0 437.37 251.65"><defs><style>.cls-1{fill:#ededed;}.cls-2{fill:#8bc08a;}.cls-3{fill:#73aa72;}.cls-4{fill:#747574;}.cls-5{fill:#e8edfc;}.cls-6{fill:#a4c2f7;}.cls-7{fill:#7facfa;}.cls-8{fill:#fff;}.cls-9{fill:#428dff;}</style></defs><title>Asset 1</title><g id="Layer_2" data-name="Layer 2"><g id="Layer_1-2" data-name="Layer 1"><rect class="cls-1" x="17.01" y="14.4" width="145" height="161" rx="12" transform="matrix(0.96, 0.28, -0.28, 0.96, 30.75, -21.57)"/><g id="Capa_1" data-name="Capa 1"><path class="cls-2" d="M176.43,44.44a2.4,2.4,0,0,0-1.49-1L140.48,35.5l.06-5.12A2.38,2.38,0,0,0,138.21,28l-32.93-.48a1.71,1.71,0,0,0-.38-.13L61,17.29a2.4,2.4,0,0,0-2.85,1.79l-1.76,7.67-35-.52a2.41,2.41,0,0,0-2.42,2.35L16.77,170.91a6.41,6.41,0,0,0-.06,1.91,2.38,2.38,0,0,0,2,1.74l115.78,16.31a2.4,2.4,0,0,0,2.7-2h0l.43-3.08,4.51,1A2.41,2.41,0,0,0,145,185L176.73,46.24A2.43,2.43,0,0,0,176.43,44.44ZM22.09,133.22,23.62,31l12.85.19ZM62.22,22.47l20.41,4.67-21.4-.32Zm73.53,10.24-.15,9.76L58.12,31.56Zm5.09,148.91-2.59-.59,9.71-69a2.38,2.38,0,0,0-4.72-.67L132.76,185.8,21.7,170.17,40.89,33.93,152,49.57l-7.15,50.81a2.38,2.38,0,0,0,4.72.67h0L157,47.87a2.38,2.38,0,0,0-2-2.69h0l-14.61-2,0-2.74,31.15,7.13Z"/><path class="cls-2" d="M140.62,56,128,54.22a2.37,2.37,0,0,0-2.11.78l-6.46,7.26A35.24,35.24,0,0,0,100,52.84a2.39,2.39,0,0,0-2.7,2h0L92.7,87.59a2.37,2.37,0,0,0,2,2.69h0l32.72,4.61a2.38,2.38,0,0,0,2.69-2,35.29,35.29,0,0,0-7.44-27.07l5.94-6.67L140,60.71a2.38,2.38,0,1,0,.84-4.69l-.17,0Zm-15,33.83L97.74,85.9,101.68,58a30.57,30.57,0,0,1,14.6,7.84l-2.55,2.86a2.38,2.38,0,1,0,3.49,3.25l.07-.08,2.18-2.45A30.64,30.64,0,0,1,125.66,89.83Z"/><path class="cls-2" d="M129.63,134l-21.34-3-2.91-6.55a35.27,35.27,0,0,0,13.27-23,2.37,2.37,0,0,0-2-2.69h0L86.26,94.55l4.28-30.37a2.39,2.39,0,0,0-2-2.69h0a35.43,35.43,0,1,0,12.87,65.7l3.1,7a2.4,2.4,0,0,0,1.85,1.39L129,138.75a2.39,2.39,0,0,0,.66-4.73Zm-30.56-23.7a2.38,2.38,0,0,0-4.35,1.94l4.69,10.55A30.66,30.66,0,1,1,85.47,66L81.2,96.25a2.39,2.39,0,0,0,2,2.69l30.27,4.26A30.52,30.52,0,0,1,103.37,120Z"/><path class="cls-2" d="M57.38,136.69l-20.15-2.84a2.38,2.38,0,0,0-.66,4.72l20.14,2.83a2.38,2.38,0,0,0,.66-4.72Z"/><path class="cls-2" d="M87.59,140.94,67.45,138.1a2.38,2.38,0,0,0-.67,4.72h0l20.13,2.84a2.38,2.38,0,1,0,.67-4.72Z"/><path class="cls-2" d="M68.2,151l-32.74-4.6a2.38,2.38,0,0,0-.66,4.72l32.73,4.6A2.38,2.38,0,0,0,68.2,151Z"/><path class="cls-2" d="M85.82,153.53l-7.56-1.07a2.38,2.38,0,0,0-.66,4.72l7.55,1.07a2.38,2.38,0,1,0,.67-4.72Z"/><path class="cls-2" d="M43.77,160.44,33.69,159a2.38,2.38,0,1,0-.67,4.72h0l10.07,1.42a2.38,2.38,0,0,0,.68-4.72Z"/><path class="cls-2" d="M84,166.11l-30.2-4.25a2.38,2.38,0,1,0-.67,4.71h0l30.21,4.25a2.38,2.38,0,0,0,.66-4.72Z"/></g><path class="cls-3" d="M199.45,86.44a31.68,31.68,0,0,0,13,3c11.29,0,21.32-5.13,22.46-18.24-3.08,4.56-9.46,7.19-16.07,7.19-14.25,0-25.54-10-25.54-24.86,0-15,11.63-26.1,29-26.1,16.87,0,30,12,30,35.57,0,26.22-14,41.83-39.44,41.83-6.62,0-13.34-1.59-17.22-3.87Zm22-44c-6.27,0-11.06,4.33-11.06,10.49s4.79,10.48,11.06,10.48S232.51,59,232.51,52.93,227.72,42.44,221.45,42.44Z"/><path class="cls-3" d="M260,83a19.58,19.58,0,0,1,12.54-18c-7.64-2.74-11.17-10.37-11.17-16.19,0-12.42,11.17-21.43,27.13-21.43s27.25,9,27.25,21.43c0,5.82-3.65,13.45-11.29,16.19a19.69,19.69,0,0,1,12.65,18c0,13-11.74,21.77-28.61,21.77S260,96,260,83Zm39.56-2c0-4.56-3.42-9.46-11.06-9.46s-10.94,4.9-10.94,9.46,3.76,9.23,10.94,9.23S299.54,85.41,299.54,81Zm-1.6-30.78c0-3.88-3.3-8-9.46-8s-9.46,4.1-9.46,8c0,4.45,3.08,8.55,9.46,8.66C295,58.74,297.94,54.64,297.94,50.19Z"/><path class="cls-3" d="M338.18,26.49a12,12,0,1,1-12.17,12A12.06,12.06,0,0,1,338.18,26.49Zm-4.47,47.59L366.4,27.35h9.29L342.93,74.08Zm4.47-30.89c2.52,0,4.32-1.94,4.32-4.75a4.28,4.28,0,0,0-4.32-4.61,4.33,4.33,0,0,0-4.39,4.61C333.79,41.32,335.66,43.19,338.18,43.19Zm32.9,7.92a12.06,12.06,0,0,1,12.17,12,12.17,12.17,0,0,1-24.34,0A12.07,12.07,0,0,1,371.08,51.11Zm0,16.71c2.52,0,4.32-1.94,4.32-4.75a4.28,4.28,0,0,0-4.32-4.61,4.33,4.33,0,0,0-4.39,4.61C366.69,66,368.56,67.82,371.08,67.82Z"/><path class="cls-4" d="M193.58,167.17V117.7h10.59v3.67c1.51-2.3,5.4-4.54,10.51-4.54,10.37,0,16.63,7.92,16.63,18.65,0,11-7.05,18.8-17.06,18.8-4.61,0-8.07-1.59-9.72-3.6v16.49Zm18.87-40.47c-4.25,0-8.07,2.88-8.07,8.85s3.82,8.93,8.07,8.93,8.13-2.95,8.13-8.93S216.77,126.7,212.45,126.7Z"/><path class="cls-4" d="M261.12,128.5a14.76,14.76,0,0,0-3.46-.36c-4.39,0-8.35,2.59-8.35,9.72v15.62H238.37V117.7H249v4.82c1.87-4,6.41-5.18,9.29-5.18a10.65,10.65,0,0,1,2.88.36Z"/><path class="cls-4" d="M299.86,143.19c-1.73,6.19-7.42,11.37-16.49,11.37-9.87,0-18.65-7.05-18.65-19.08,0-11.52,8.57-18.86,17.86-18.86,11.08,0,17.93,6.84,17.93,18.36a22.79,22.79,0,0,1-.22,3.38H275.37c.22,4,3.89,6.92,8.14,6.92,4,0,6.19-1.88,7.2-4.68Zm-9.94-11.88c-.14-2.74-2-6-7.2-6a6.82,6.82,0,0,0-7.13,6Z"/><path class="cls-4" d="M315.84,135.63c0,5.69,3.82,8.85,8.35,8.85a7.38,7.38,0,0,0,7.42-5.32l9.65,3c-1.59,6.26-7.49,12.45-17.07,12.45-10.66,0-19.22-7.84-19.22-18.93s8.35-19,18.86-19c9.87,0,15.63,6,17.21,12.45l-9.79,3a7,7,0,0,0-7.2-5.33C319.51,126.7,315.84,129.87,315.84,135.63Z"/><path class="cls-4" d="M353.35,100.34a6.41,6.41,0,1,1-6.34,6.41A6.44,6.44,0,0,1,353.35,100.34ZM348,153.48V117.7h10.94v35.78Z"/><path class="cls-4" d="M374.8,141.68c.15,2.44,1.88,4.82,5.62,4.82,2.81,0,4.18-1.51,4.18-3.1,0-1.29-.87-2.37-3.53-3l-4.11-.93c-7.63-1.66-10.65-6-10.65-11,0-6.55,5.76-11.88,13.75-11.88,10.37,0,14,6.48,14.33,10.65l-9.07,1.66a4.7,4.7,0,0,0-5.12-4.39c-2.08,0-3.88,1.22-3.88,3.09,0,1.52,1.22,2.38,2.8,2.67l4.76.93c7.41,1.52,11,6,11,11.24,0,6.12-4.68,12.09-14.25,12.09-11.24,0-14.84-7.27-15.12-11.23Z"/><path class="cls-4" d="M437.37,135.55c0,11.09-8.28,19-19,19a18.55,18.55,0,0,1-19-19c0-11.08,8.35-18.93,19-18.93S437.37,124.47,437.37,135.55Zm-10.94,0c0-6-3.89-8.85-8.06-8.85s-8.07,2.81-8.07,8.85,4,8.93,8.07,8.93S426.43,141.6,426.43,135.55Z"/><g id="Icons"><path id="Shape" class="cls-5" d="M181.42,215.33,163,207.42l0-61.65a1.93,1.93,0,0,0-.38-1.18,2,2,0,0,0-.91-.75l-38.07-16.16a2.11,2.11,0,0,0-1.85.08l-17.11,9.43a1.86,1.86,0,0,0-.77.75,2,2,0,0,0-.31,1.1l0,41.87V182l-2.37-1a2.18,2.18,0,0,0-1.85.1l-16.11,8.9a2.08,2.08,0,0,0-1.09,1.56v0a2.08,2.08,0,0,0,.39,1.47l39.87,55.55a2.12,2.12,0,0,0,2.71.65l41.19-21.75,15.33-8.44a2.11,2.11,0,0,0-.19-3.79Z"/><path class="cls-6" d="M103.55,182v15.59a2.1,2.1,0,0,1-1,1.77,2.14,2.14,0,0,1-2,.17l-18.46-7.91v0a2.08,2.08,0,0,1,1.09-1.56l16.11-8.9a2.18,2.18,0,0,1,1.85-.1Z"/><path class="cls-6" d="M162.59,144.59,143.88,154.9l-.36-.14-39.64-16.82a1.86,1.86,0,0,1,.77-.75l11.85-6.53c2.23-1.22,4.18-2.29,5.26-2.9a2.11,2.11,0,0,1,1.85-.08l38.07,16.16A2,2,0,0,1,162.59,144.59Z"/><path class="cls-6" d="M163,145.77l0,61.65-18.73,10.31a1.43,1.43,0,0,1-.15-.27,2,2,0,0,1-.21-.91l0-61.65L156.4,148v0l6.19-3.41a1.93,1.93,0,0,1,.38,1.18Z"/><path class="cls-7" d="M162.59,144.59l-6,3.3,0,59.53-12.73,7v2.13a2,2,0,0,0,.21.91,1.43,1.43,0,0,0,.15.27L163,207.42l0-61.65A1.93,1.93,0,0,0,162.59,144.59Z"/><path class="cls-6" d="M181.61,219.12l-5.36,3-10,5.48-21.14-9.07a2.09,2.09,0,0,1-.47-.3,1.79,1.79,0,0,1-.45-.46L163,207.42l18.47,7.91a2.11,2.11,0,0,1,.19,3.79Z"/></g><path class="cls-8" d="M122.53,248.65a2.12,2.12,0,0,0,2.71.65l3-1.58c-41.78-58.35-39.56-54.84-39.48-56l-.25-.11a2,2,0,0,1,1.08-1.58l14.17-8c.32-.18-.17,17-.17,17a4.91,4.91,0,0,0,4.36-.66,4.82,4.82,0,0,0,2-3.89c.19-59.27,0-55.8.46-56.49-.77-.32.45-.71,15.91-9.25-4.38-1.87-2.76-2-9.82,1.89-11.77,6.47-13.16,7-12.45,7.35-.39.63-.31-1.94-.31,44-2.43-1-2.64-1.17-3.39-1.1s.45-.58-17.15,9.14a2,2,0,0,0-1.08,1.57l.25.11c-.07,1.14-2.32-2.4,40.16,56.92Z"/><path id="Rectangle-path" class="cls-8" d="M110.82,236.22l3.45-2.44,9.84,13.72-3.45,2.44Z"/><path class="cls-9" d="M117.5,243.91a2.11,2.11,0,1,1,2.12-2.11A2.11,2.11,0,0,1,117.5,243.91Z"/><path class="cls-9" d="M80.78,194.33l30,41.84a2.13,2.13,0,0,0,3.68-.33,2.08,2.08,0,0,0-.23-2.11l-27-37.59,12.44,5.34a4.32,4.32,0,0,0,4-.33,4.23,4.23,0,0,0,1.93-3.54V141l36.07,15.3v60.26a4.19,4.19,0,0,0,2.54,3.87l17.1,7.33-37.29,19.69a2.23,2.23,0,0,0-3-.37c-2.66,2.07,1.4,5.94,5,4.09,49.66-26.22,37.09-19.5,56.57-30.21a4.21,4.21,0,0,0-.4-7.55L165.08,206V145.77a4.17,4.17,0,0,0-2.57-3.87l-38.07-16.16a4.24,4.24,0,0,0-3.71.18l-17.12,9.43a4.25,4.25,0,0,0-2.16,3.69l0,39.92a4.31,4.31,0,0,0-3.13.36l-16.11,8.9a4.19,4.19,0,0,0-1.41,6.11Zm80.06,11.85L146,214.35V156.14L160.84,148Zm19.75,11.1-14.43,7.93-17.5-7.51,14.42-7.94Zm-57.82-87.67,35.38,15-14.4,7.93-35.4-15ZM100.36,183l1.06.42v14.19L85.93,191Z"/><path class="cls-9" d="M114.17,150.65a2.12,2.12,0,0,0-4.24,0v29.46a2.12,2.12,0,0,0,4.24,0Z"/><path class="cls-9" d="M112.05,188.53a2.11,2.11,0,0,0-2.12,2.1v6.31a2.12,2.12,0,0,0,4.24,0v-6.31A2.11,2.11,0,0,0,112.05,188.53Z"/></g></g></svg>