<svg id="account" xmlns="http://www.w3.org/2000/svg" width="133.43" height="133.43" viewBox="0 0 133.43 133.43">
  <g id="Group_29" data-name="Group 29">
    <g id="Group_22" data-name="Group 22">
      <g id="Group_2" data-name="Group 2" transform="translate(19.597 40.656)">
        <path id="Path_39" data-name="Path 39" d="M0,0H7.793V43.786H0Z" transform="translate(0 5.541) rotate(-45.324)" fill="#17799c"/>
      </g>
      <g id="Group_3" data-name="Group 3" transform="translate(77.727 40.525)">
        <path id="Path_40" data-name="Path 40" d="M0,0H41.8V7.793H0Z" transform="translate(0 28.632) rotate(-43.218)" fill="#0b495d"/>
      </g>
      <g id="Group_9" data-name="Group 9" transform="translate(0 80.189)">
        <path id="Path_41" data-name="Path 41" d="M25.361,422.454H0v-6.168a25.366,25.366,0,0,1,25.361-25.393c3.6,0,6.509,5.227,6.509,19.251Z" transform="translate(0 -369.213)" fill="#65d9fd"/>
        <g id="Group_4" data-name="Group 4" transform="translate(25.361 21.68)">
          <path id="Path_42" data-name="Path 42" d="M122.71,416.286a25.393,25.393,0,0,0-25.393-25.393v31.561h6.738Z" transform="translate(-97.317 -390.893)" fill="#3bade4"/>
        </g>
        <g id="Group_7" data-name="Group 7" transform="translate(12.344 0)">
          <g id="Group_6" data-name="Group 6">
            <g id="Group_5" data-name="Group 5">
              <path id="Path_43" data-name="Path 43" d="M60.384,333.736a13.018,13.018,0,0,1,0-26.035C67.561,307.7,67.561,333.736,60.384,333.736Z" transform="translate(-47.366 -307.701)" fill="#ffdfcf"/>
            </g>
          </g>
        </g>
        <g id="Group_8" data-name="Group 8" transform="translate(25.361)">
          <path id="Path_44" data-name="Path 44" d="M97.317,307.7v26.035a13.018,13.018,0,1,0,0-26.035Z" transform="translate(-97.317 -307.701)" fill="#ffcebf"/>
        </g>
      </g>
      <g id="Group_15" data-name="Group 15" transform="translate(82.676 80.189)">
        <path id="Path_45" data-name="Path 45" d="M342.605,422.454H335.9l-18.655-6.168a25.366,25.366,0,0,1,25.361-25.393c3.6,0,6.509,5.227,6.509,19.251Z" transform="translate(-317.244 -369.213)" fill="#43c9fe"/>
        <g id="Group_10" data-name="Group 10" transform="translate(25.361 21.68)">
          <path id="Path_46" data-name="Path 46" d="M439.954,416.286a25.393,25.393,0,0,0-25.393-25.393v31.561h25.393Z" transform="translate(-414.561 -390.893)" fill="#2cb8fc"/>
        </g>
        <g id="Group_13" data-name="Group 13" transform="translate(12.344 0)">
          <g id="Group_12" data-name="Group 12">
            <g id="Group_11" data-name="Group 11">
              <path id="Path_47" data-name="Path 47" d="M377.628,333.736a13.018,13.018,0,0,1,0-26.035C384.805,307.7,384.805,333.736,377.628,333.736Z" transform="translate(-364.61 -307.701)" fill="#ffdfcf"/>
            </g>
          </g>
        </g>
        <g id="Group_14" data-name="Group 14" transform="translate(25.361)">
          <path id="Path_48" data-name="Path 48" d="M414.561,307.7v26.035a13.018,13.018,0,1,0,0-26.035Z" transform="translate(-414.561 -307.701)" fill="#ffcebf"/>
        </g>
      </g>
      <g id="Group_21" data-name="Group 21" transform="translate(43.354)">
        <g id="Group_19" data-name="Group 19">
          <g id="Group_18" data-name="Group 18">
            <g id="Group_16" data-name="Group 16" transform="translate(11.118 14.923)">
              <path id="Path_49" data-name="Path 49" d="M222.615,61.97c-.3-.016-1.031-4.709-1.33-4.709a16.427,16.427,0,0,0-12.265,5.52l5.828,5.179a8.624,8.624,0,0,1,6.437-2.9C221.584,65.058,222.615,61.97,222.615,61.97Z" transform="translate(-209.019 -57.261)" fill="#17799c"/>
            </g>
            <g id="Group_17" data-name="Group 17">
              <path id="Path_50" data-name="Path 50" d="M190.635,4.256c-.3-.009-.6-4.256-.894-4.256a31.318,31.318,0,0,0-23.383,10.524l5.828,5.179A23.512,23.512,0,0,1,189.74,7.8C190.039,7.8,190.635,4.256,190.635,4.256Z" transform="translate(-166.357)" fill="#17799c"/>
            </g>
          </g>
        </g>
        <g id="Group_20" data-name="Group 20" transform="translate(23.361)">
          <path id="Path_51" data-name="Path 51" d="M262.459,67.961l5.828-5.179a16.427,16.427,0,0,0-12.265-5.52H256v7.8h.022A8.623,8.623,0,0,1,262.459,67.961Z" transform="translate(-256 -42.338)" fill="#0b495d"/>
          <path id="Path_52" data-name="Path 52" d="M273.577,15.7l5.828-5.179A31.318,31.318,0,0,0,256.022,0H256V7.8h.022A23.513,23.513,0,0,1,273.577,15.7Z" transform="translate(-256)" fill="#0b495d"/>
        </g>
      </g>
    </g>
    <ellipse id="Ellipse_5" data-name="Ellipse 5" cx="14.73" cy="14.75" rx="14.73" ry="14.75" transform="translate(0 20.543)" fill="#7be2f6"/>
    <ellipse id="Ellipse_6" data-name="Ellipse 6" cx="14.73" cy="14.75" rx="14.73" ry="14.75" transform="translate(103.969 20.543)" fill="#55d0f9"/>
    <g id="Group_28" data-name="Group 28" transform="translate(32.1 60.808)">
      <path id="Path_53" data-name="Path 53" d="M157.768,389.858H123.174v-8.413a34.6,34.6,0,0,1,34.593-34.637c4.916,0,8.878,7.13,8.878,26.259Z" transform="translate(-123.174 -317.236)" fill="#4749db"/>
      <g id="Group_23" data-name="Group 23" transform="translate(34.594 29.573)">
        <path id="Path_54" data-name="Path 54" d="M290.554,381.445a34.637,34.637,0,0,0-34.637-34.637v43.05h34.637Z" transform="translate(-255.917 -346.808)" fill="#4c32ca"/>
      </g>
      <g id="Group_26" data-name="Group 26" transform="translate(16.837)">
        <g id="Group_25" data-name="Group 25">
          <g id="Group_24" data-name="Group 24">
            <path id="Path_55" data-name="Path 55" d="M205.539,268.845a17.756,17.756,0,0,1,0-35.513C215.33,233.332,215.33,268.845,205.539,268.845Z" transform="translate(-187.783 -233.332)" fill="#ffdfcf"/>
          </g>
        </g>
      </g>
      <g id="Group_27" data-name="Group 27" transform="translate(34.594)">
        <path id="Path_56" data-name="Path 56" d="M255.917,233.332v35.513a17.756,17.756,0,0,0,0-35.513Z" transform="translate(-255.917 -233.332)" fill="#ffcebf"/>
      </g>
    </g>
  </g>
</svg>
