<svg xmlns="http://www.w3.org/2000/svg" width="154.613" height="154.613" viewBox="0 0 154.613 154.613">
  <g id="fraud" transform="translate(-0.001)">
    <path id="Path_15" data-name="Path 15" d="M367.1,374.642l7.54-7.54,13.085,13.085-7.54,7.54Zm0,0" transform="translate(-256.239 -256.239)" fill="#bdc3c7"/>
    <path id="Path_16" data-name="Path 16" d="M447.6,447.6a8,8,0,0,1-11.3,0l-13.2-13.2,2.353-8.993,8.95-2.311,13.2,13.2a8,8,0,0,1,0,11.3Zm0,0" transform="translate(-295.329 -295.33)" fill="#80b7e7"/>
    <path id="Path_17" data-name="Path 17" d="M341.84,353.032l5.688,5.725a2.666,2.666,0,0,0,3.77,0l7.54-7.54a2.667,2.667,0,0,0,0-3.77l-5.7-5.724Zm0,0" transform="translate(-238.606 -238.525)" fill="#5ca3e1"/>
    <path id="Path_18" data-name="Path 18" d="M419.544,408.24l-11.3,11.3-5.652-5.652a2.654,2.654,0,0,1,0-3.758l7.545-7.545a2.654,2.654,0,0,1,3.758,0Zm0,0" transform="translate(-280.464 -280.465)" fill="#5ca3e1"/>
    <path id="Path_19" data-name="Path 19" d="M127.962,63.981A63.981,63.981,0,1,1,63.982,0a63.98,63.98,0,0,1,63.98,63.981Zm0,0" fill="#80b7e7"/>
    <path id="Path_20" data-name="Path 20" d="M39.575,109.526A53.322,53.322,0,0,1,88.628,35.308a52.534,52.534,0,0,1,26.258,6.959Zm0,0" transform="translate(-24.646 -24.645)" fill="#ecf4fb"/>
    <path id="Path_21" data-name="Path 21" d="M151.8,104.71A53.291,53.291,0,0,1,61,142.592a52.2,52.2,0,0,1-11.57-16.981c12.4-43.48,49.372-60.569,75.311-67.26A51.211,51.211,0,0,1,137.3,68.188a53.121,53.121,0,0,1,14.5,36.522Zm0,0" transform="translate(-34.504 -40.729)" fill="#e1f0ff"/>
    <path id="Path_22" data-name="Path 22" d="M128,190.6c-.067,2.97-.008,5.337.123,7.288-.514-.539-2.084-2-3.481-1.34-1.677.783-.846,7.932-.846,7.932a11.25,11.25,0,0,0,5.832,7.888l.012-.007c-.221,4.6-.61,8.777,4.809,13.538,6.319,5.554,6.319,11.109,12.639,11.109H153.4c6.321,0,6.321-5.555,12.64-11.109,5.418-4.761,5.03-8.942,4.808-13.538l.012.007a11.255,11.255,0,0,0,5.833-7.888s.83-7.149-.847-7.932c-1.4-.657-2.967.8-3.481,1.34.132-1.951.19-4.319.123-7.288Zm0,0" transform="translate(-86.263 -133.044)" fill="#fdd7ad"/>
    <path id="Path_23" data-name="Path 23" d="M149.711,205.022c8,0,10.664-2.666,10.664-2.666v-8a61.271,61.271,0,0,1-22.248-3.754c-.067,2.97-.008,5.337.123,7.288a13.366,13.366,0,0,0,11.462,7.129Zm0,0" transform="translate(-96.393 -133.044)" fill="#2c2f38"/>
    <path id="Path_24" data-name="Path 24" d="M222.526,205.022c-8,0-10.663-2.666-10.663-2.666v-8a61.265,61.265,0,0,0,22.247-3.754c.067,2.97.009,5.337-.123,7.288a13.365,13.365,0,0,1-11.462,7.129Zm0,0" transform="translate(-147.881 -133.044)" fill="#2c2f38"/>
    <path id="Path_25" data-name="Path 25" d="M182.493,197.89a13.369,13.369,0,0,1-11.464,7.118c-8,0-10.663-2.666-10.663-2.666s-2.666,2.666-10.664,2.666a13.366,13.366,0,0,1-11.463-7.118c-.133-1.972-.186-4.319-.133-7.3a61.414,61.414,0,0,0,22.26,3.76,61.423,61.423,0,0,0,22.26-3.76C182.679,193.571,182.626,195.918,182.493,197.89Zm0,0" transform="translate(-96.384 -133.03)" fill="#7f5b53"/>
    <path id="Path_26" data-name="Path 26" d="M120.005,122.313c-8.5,2.4-14.076,6.449-14.076,11.049,0,7.361,14.323,13.329,31.991,13.329s31.99-5.968,31.99-13.329c0-4.6-5.574-8.653-14.075-11.049Zm0,0" transform="translate(-73.939 -85.375)" fill="#7f6e5d"/>
    <path id="Path_27" data-name="Path 27" d="M168.731,106.11a36.875,36.875,0,0,0,18.661-5.331,51.806,51.806,0,0,0-4.063-19.745,2.68,2.68,0,0,0-3.935-1.128c-2.3,1.539-5.845,4.877-10.663,4.877s-8.364-3.337-10.664-4.877a2.679,2.679,0,0,0-3.934,1.128,51.806,51.806,0,0,0-4.063,19.745,36.875,36.875,0,0,0,18.661,5.331Zm0,0" transform="translate(-104.749 -55.458)" fill="#cbb292"/>
  </g>
</svg>
