<svg xmlns="http://www.w3.org/2000/svg" width="81.304" height="74.952" viewBox="0 0 81.304 74.952">
  <g id="folder" transform="translate(0 -20)">
    <path id="Path_124" data-name="Path 124" d="M0,73.1V21.651A1.682,1.682,0,0,1,1.651,20h78A1.682,1.682,0,0,1,81.3,21.651V73.1Z"/>
    <g id="Group_56" data-name="Group 56" transform="translate(0 73.101)">
      <path id="Path_125" data-name="Path 125" d="M81.3,354.4v6.606a1.682,1.682,0,0,1-1.651,1.651h-78A1.682,1.682,0,0,1,0,361.006V354.4Z" transform="translate(0 -354.4)" fill="#ccc"/>
      <rect id="Rectangle_50" data-name="Rectangle 50" width="34.808" height="1.906" transform="translate(23.248 19.945)" fill="#ccc"/>
    </g>
    <path id="Path_126" data-name="Path 126" d="M206.321,418.087H183.2l1.651-11.687h19.818Z" transform="translate(-154.109 -325.041)" fill="#999"/>
    <rect id="Rectangle_51" data-name="Rectangle 51" width="74.698" height="46.496" transform="translate(3.303 23.303)" fill="#fff"/>
    <path id="Path_127" data-name="Path 127" d="M208.532,406.4H188.714l-.922,6.523,21.037-4.423Z" transform="translate(-157.971 -325.041)" fill="#5d5b5b"/>
    <circle id="Ellipse_7" data-name="Ellipse 7" cx="27.783" cy="27.783" r="27.783" transform="translate(12.869 26.875)" fill="#fff"/>
    <path id="Path_128" data-name="Path 128" d="M106.025,116.127l-.027-1.27c.414-.009.824-.025,1.236-.052l.081,1.268C106.887,116.1,106.457,116.12,106.025,116.127Zm-1.292,0q-.652-.017-1.292-.062l.089-1.268c.409.029.821.048,1.235.06Zm3.872-.163-.138-1.263c.41-.044.819-.1,1.223-.164l.2,1.255C109.462,115.857,109.034,115.913,108.6,115.961Zm-6.455-.019q-.644-.074-1.279-.179l.2-1.253q.608.1,1.225.172Zm9.007-.38-.253-1.245q.606-.122,1.2-.273l.31,1.231Q111.794,115.433,111.157,115.562ZM99.6,115.529c-.424-.089-.845-.185-1.26-.293L98.659,114q.6.154,1.2.282Zm14.064-.6-.365-1.216q.595-.179,1.178-.385l.422,1.2C114.492,114.671,114.081,114.8,113.666,114.929Zm-16.572-.047c-.413-.128-.821-.263-1.225-.408l.427-1.2q.581.206,1.175.391Zm19.017-.814-.476-1.178c.382-.155.762-.318,1.136-.49l.531,1.154Q116.715,113.824,116.112,114.068Zm-21.449-.058c-.4-.164-.791-.337-1.181-.517l.536-1.151q.558.261,1.129.5Zm23.8-1.021-.581-1.129q.551-.284,1.085-.592l.633,1.1Q119.043,112.69,118.464,112.988Zm-26.142-.067q-.572-.3-1.129-.622l.638-1.1c.356.207.715.405,1.082.6ZM120.71,111.7l-.682-1.072q.52-.332,1.028-.687l.732,1.037Q121.258,111.35,120.71,111.7Zm-30.621-.074c-.362-.235-.718-.475-1.068-.724l.734-1.034q.5.356,1.024.692Zm32.737-1.415-.776-1q.49-.377.96-.777l.821.968Q123.338,109.812,122.827,110.209Zm-34.844-.081c-.339-.264-.671-.537-1-.818l.826-.965c.313.268.633.528.957.783Zm36.814-1.591-.864-.93c.3-.281.6-.567.884-.861l.908.888Q125.272,108.1,124.8,108.537Zm-38.777-.091c-.313-.293-.621-.6-.922-.9l.911-.885q.433.44.882.868Zm40.591-1.752-.945-.849q.414-.459.8-.938l.982.8Q127.044,106.211,126.611,106.694Zm-42.391-.1q-.433-.484-.84-.987l.987-.8c.259.319.525.633.8.94Zm44.027-1.9-1.018-.76c.245-.33.485-.666.716-1.007l1.049.714Q128.635,104.177,128.247,104.693Zm-45.66-.107q-.383-.52-.746-1.059l1.054-.708c.231.343.467.68.714,1.01Zm47.11-2.031-1.085-.662q.324-.526.622-1.068l1.112.617Q130.035,102.006,129.7,102.555Zm-48.551-.116q-.339-.555-.649-1.124l1.117-.609q.3.543.616,1.072Zm49.8-2.142-1.138-.563c.183-.367.354-.739.521-1.118l1.164.511Q131.231,99.72,130.946,100.3Zm-51.04-.131q-.284-.583-.542-1.179l1.166-.5c.164.38.335.753.517,1.124Zm52.078-2.233-1.187-.456q.223-.575.418-1.162l1.206.4Q132.215,97.332,131.984,97.933Zm-53.105-.145c-.155-.4-.3-.813-.434-1.225l1.208-.4c.128.393.264.78.412,1.165ZM132.8,95.48l-1.223-.344c.112-.4.215-.794.31-1.2l1.236.291C133.026,94.649,132.919,95.067,132.8,95.48ZM78.07,95.328c-.116-.417-.221-.833-.318-1.255l1.239-.283c.091.4.192.8.3,1.2Zm55.322-2.364-1.247-.234q.112-.6.2-1.22l1.258.177C133.541,92.115,133.472,92.54,133.392,92.963Zm-55.9-.156c-.077-.423-.144-.85-.2-1.279l1.26-.169c.053.409.118.817.192,1.22Zm56.256-2.4-1.265-.119q.059-.614.089-1.234l1.268.065Q133.812,89.762,133.751,90.4Zm-56.6-.16q-.057-.64-.085-1.291l1.27-.055c.018.413.044.823.08,1.234Zm55.454-2.424v-.1c0-.413-.01-.826-.027-1.236l1.268-.057c.02.429.029.86.029,1.293Zm-54.3-.155-1.27-.005c0-.432.011-.864.032-1.292l1.268.06C78.322,86.838,78.312,87.249,78.31,87.663Zm54.184-2.416q-.055-.617-.138-1.226l1.258-.174c.058.424.107.854.146,1.286ZM78.425,85.2l-1.265-.119c.041-.431.09-.857.149-1.283l1.258.174C78.51,84.373,78.463,84.783,78.425,85.2Zm53.737-2.4c-.074-.405-.158-.811-.249-1.209l1.239-.286q.145.629.262,1.267Zm-53.4-.052-1.247-.231c.079-.424.166-.847.263-1.265l1.239.288C78.921,81.939,78.839,82.343,78.763,82.747Zm52.845-2.354q-.168-.595-.36-1.183l1.206-.4q.2.612.377,1.237Zm-52.285-.051L78.1,80q.175-.625.38-1.239l1.206.4C79.554,79.552,79.435,79.946,79.323,80.342Zm51.512-2.3c-.149-.387-.3-.769-.469-1.148l1.166-.5q.257.593.489,1.2ZM80.1,78l-1.187-.456c.155-.4.319-.8.49-1.192l1.164.506Q80.321,77.423,80.1,78Zm49.748-2.226q-.273-.556-.569-1.1l1.114-.61q.311.568.6,1.15Zm-48.762-.033-1.138-.563c.189-.385.39-.767.6-1.142l1.114.61C81.457,75.008,81.268,75.373,81.085,75.742Zm47.573-2.135q-.324-.53-.667-1.042l1.054-.708c.239.357.474.72.7,1.089Zm-46.382-.025-1.085-.662c.225-.368.456-.73.7-1.087l1.052.713C82.712,72.883,82.49,73.231,82.275,73.581Zm45-2.024c-.246-.333-.5-.658-.761-.979l.987-.8c.271.334.536.673.793,1.019Zm-43.621-.022-1.023-.757c.257-.346.522-.687.8-1.021l.982.8Q84.024,71.04,83.657,71.536Zm42.057-1.9q-.412-.459-.844-.9l.908-.888c.3.307.6.622.883.944Zm-40.5-.017-.945-.849q.433-.48.883-.943l.908.888Q85.628,69.163,85.215,69.624Zm38.773-1.752q-.45-.423-.92-.821l.821-.968q.5.419.967.861Zm-37.041-.017-.869-.927c.315-.293.638-.582.968-.861l.821.968Q87.4,67.435,86.946,67.856Zm35.163-1.587c-.325-.252-.658-.5-.993-.737l.737-1.034q.526.373,1.035.769Zm-33.282-.011-.781-1c.343-.267.689-.523,1.042-.771l.732,1.037C89.483,65.758,89.152,66,88.826,66.258Zm31.268-1.411c-.344-.222-.7-.437-1.052-.643l.635-1.1q.56.324,1.1.672Zm-29.246-.014-.687-1.07c.363-.234.733-.457,1.108-.675l.635,1.1C91.546,64.394,91.193,64.609,90.848,64.832Zm27.112-1.223c-.363-.188-.73-.37-1.105-.542l.531-1.153q.589.271,1.16.569Zm-24.972-.014-.583-1.129c.384-.2.77-.389,1.162-.569L94.1,63.05C93.726,63.224,93.354,63.4,92.988,63.595Zm22.736-1.02c-.381-.155-.767-.3-1.156-.442l.429-1.2q.61.217,1.206.461Zm-20.49-.018-.479-1.176c.4-.163.8-.316,1.212-.461l.424,1.2Q95.807,62.323,95.234,62.557Zm18.162-.811q-.589-.181-1.19-.335l.318-1.231q.627.162,1.244.349Zm-15.83-.017L97.2,60.514q.617-.187,1.245-.346l.313,1.231Q98.159,61.55,97.567,61.73Zm13.439-.6c-.4-.083-.807-.158-1.214-.222l.2-1.255c.428.07.852.147,1.272.235Zm-11.043-.009L99.7,59.88q.633-.131,1.274-.234l.2,1.255Q100.565,61,99.963,61.124Zm8.6-.381c-.407-.046-.818-.084-1.232-.113l.089-1.268c.432.03.86.07,1.287.118Zm-6.164-.006-.141-1.263c.427-.048.856-.085,1.287-.116l.086,1.268C103.221,60.653,102.812,60.691,102.4,60.737Zm3.7-.161-.648-.009-.591.006-.023-1.27.617-.006.673.009Z" transform="translate(-64.806 -33.056)" fill="#999"/>
    <circle id="Ellipse_8" data-name="Ellipse 8" cx="21.52" cy="21.52" r="21.52" transform="translate(19.132 33.138)" fill="#ccc"/>
    <rect id="Rectangle_52" data-name="Rectangle 52" width="30.029" height="22.281" transform="translate(25.636 45.185)" fill="#1e84f9"/>
    <path id="Path_129" data-name="Path 129" d="M171.676,156.3H161.448v3.542h14.327Z" transform="translate(-135.811 -114.653)"/>
  </g>
</svg>
