<svg xmlns="http://www.w3.org/2000/svg" width="135.761" height="133.744" viewBox="0 0 135.761 133.744">
  <g id="fingerprint" transform="translate(0 -3.75)">
    <path id="Path_28" data-name="Path 28" d="M21.179,62.454A62.856,62.856,0,0,0,75.5,171.051s26.269-12.465,38.961-26.976c-13.53,12.08-103.108-70.532-93.281-81.621Z" transform="translate(0 -42.907)" fill="#81a9c8"/>
    <path id="Path_29" data-name="Path 29" d="M140.288,66.585A62.831,62.831,0,0,0,35.8,19.547,62.86,62.86,0,0,0,95.5,122.762s20.049-9.514,33.579-21.594a33.151,33.151,0,0,0,4.94-7.189,62.583,62.583,0,0,0,6.27-27.394Z" transform="translate(-14.618)" fill="#bcd1e1"/>
    <path id="Path_30" data-name="Path 30" d="M314.549,318.365a28.258,28.258,0,0,0-44.087,34.2A62.936,62.936,0,0,0,314.549,318.365Z" transform="translate(-195.15 -224.386)" fill="#81a9c8"/>
    <path id="Path_31" data-name="Path 31" d="M180.086,89.3c-4.867-6.7-11.9-10.546-20.01-10.546a23.976,23.976,0,0,0-18.305,8.418q-.891,1.01-1.705,2.128c-4.031,5.552-7.023,13.745-7.023,25.2v20.467c0,9.322,2.992,15.992,7.023,20.511a27.612,27.612,0,0,0,40.021,0q.387-.434.76-.894c3.641-4.49,6.263-10.892,6.263-19.617V114.492C187.109,103.041,184.117,94.848,180.086,89.3Z" transform="translate(-97.24 -54.817)" fill="#81a9c8"/>
    <path id="Path_32" data-name="Path 32" d="M154.594,160.592a28.32,28.32,0,0,1-21.517-9.261,2.018,2.018,0,0,1,3.012-2.687,24.336,24.336,0,0,0,18.5,7.911,2.018,2.018,0,0,1,0,4.037Zm6.093-6.675c-12.736,0-17.8-6.314-20.228-9.349-.181-.225-.385-.481-.559-.687-.128.052-.265.11-.39.163a21.03,21.03,0,0,1-8.993,1.79,2.018,2.018,0,1,1,0-4.037,17.131,17.131,0,0,0,7.427-1.474,4.437,4.437,0,0,1,3.138-.5,5.7,5.7,0,0,1,2.528,2.225c2.195,2.739,6.28,7.837,17.078,7.837a38.317,38.317,0,0,0,8.515-.9,2.018,2.018,0,0,1,.9,3.935,42.35,42.35,0,0,1-9.416,1Zm2.574-7.564a2.018,2.018,0,1,1,0-4.037,17.692,17.692,0,0,0,12.766-5.325,2.018,2.018,0,0,1,3.053,2.64,21.793,21.793,0,0,1-15.819,6.721Zm-6.888-1.016a2.012,2.012,0,0,1-.618-.1,19.686,19.686,0,0,1-11.128-9.03,25.107,25.107,0,0,1-2.395-5.723,16.137,16.137,0,0,1-14.029,8.131,2.018,2.018,0,1,1,0-4.037c4.749,0,12.786-3.283,12.786-15.587V109.01c0-16.451,7.027-22.312,13.6-22.312,5.438,0,9.8,3.828,11.975,10.5a2.018,2.018,0,0,1-3.838,1.249c-.938-2.881-3.242-7.714-8.137-7.714-5.9,0-9.567,7-9.567,18.276v12.07c0,10.466,4.361,17.872,11.964,20.317a2.019,2.019,0,0,1-.617,3.941Zm7.3-6.72a13.579,13.579,0,0,1-11.5-5.779,20.3,20.3,0,0,1-3.456-11.758V109.01c0-6.655,1.02-14.589,5.88-14.589a3.918,3.918,0,0,1,2.925,1.381c2.744,2.974,3.459,10.691,2.949,17.018a2.018,2.018,0,0,1-4.024-.324,38.329,38.329,0,0,0-.379-9.839c-.494-2.608-1.18-3.769-1.515-4.126-.658.631-1.8,3.713-1.8,10.478,0,7.057,2.1,11.617,5.362,11.617,1.5,0,6.049,0,6.049-11.617,0-1.249-.046-2.466-.137-3.617a2.018,2.018,0,0,1,4.024-.317c.1,1.256.149,2.58.149,3.935,0,12.938-5.484,15.654-10.085,15.654a7.51,7.51,0,0,1-5.316-2.23c.427,6.247,3.838,12.148,10.876,12.148,4.045,0,7.874-2.252,10.782-6.341,2.351-3.307,5.154-9.328,5.154-19.231a2.018,2.018,0,1,1,4.037,0c0,19.437-10.047,29.608-19.972,29.608Zm-1.808-7.123a2.018,2.018,0,1,1,0-4.037c6.885,0,10.021-9.563,10.021-18.448,0-7.95-1.817-15.192-4.86-19.373a14.973,14.973,0,0,0-24.862,0A24.816,24.816,0,0,0,138.5,98.3a2.018,2.018,0,1,1-3.924-.945,28.806,28.806,0,0,1,4.324-10.09,19,19,0,0,1,31.389,0c3.58,4.918,5.633,12.845,5.633,21.749,0,5.916-1.188,11.357-3.345,15.322-2.514,4.619-6.319,7.163-10.712,7.163Zm-34.3-.1a2.018,2.018,0,1,1,0-4.037c3.573,0,5.705-3.128,5.705-8.367V109.01c0-1.323.047-2.646.139-3.933a2.018,2.018,0,0,1,4.026.288c-.085,1.191-.128,2.418-.128,3.646v9.984C137.3,128.149,132.055,131.4,127.56,131.4Zm0-8.5a2.018,2.018,0,0,1-2.018-2.018V109.01c0-10.584,2.562-19.707,7.408-26.381,5.328-7.338,13.015-11.379,21.644-11.379a26.008,26.008,0,0,1,8.859,1.526,2.018,2.018,0,0,1-1.371,3.8,21.982,21.982,0,0,0-7.488-1.287A22.377,22.377,0,0,0,136.216,85c-4.342,5.981-6.638,14.283-6.638,24.01v11.865a2.018,2.018,0,0,1-2.018,2.018Z" transform="translate(-91.758 -49.336)" fill="#4980ac"/>
    <circle id="Ellipse_2" data-name="Ellipse 2" cx="28.5" cy="28.5" r="28.5" transform="translate(77 80.494)" fill="#9cd169"/>
    <path id="Path_33" data-name="Path 33" d="M363.39,335.949l-26.766,26.766-12.1-12.1a2.018,2.018,0,0,0-2.854,2.854L335.2,367a2.018,2.018,0,0,0,2.854,0l27.457-27.457a28.241,28.241,0,0,0-2.118-3.59Z" transform="translate(-234.676 -242.804)" fill="#7dc03a"/>
    <path id="Path_34" data-name="Path 34" d="M341.623,344.851a2.012,2.012,0,0,1-1.427-.591l-13.527-13.527a2.018,2.018,0,0,1,2.854-2.854l12.1,12.1,29.023-29.023a2.018,2.018,0,0,1,2.854,2.854l-30.45,30.45a2.012,2.012,0,0,1-1.427.591Z" transform="translate(-238.33 -224.104)" fill="#ebf7e0"/>
  </g>
</svg>
