<svg xmlns="http://www.w3.org/2000/svg" width="98.943" height="74.508" viewBox="0 0 98.943 74.508">
  <g id="email" transform="translate(0 -63.222)">
    <path id="Path_111" data-name="Path 111" d="M75.445,177.459a2.324,2.324,0,0,0-2.344-2.265H2.344A2.324,2.324,0,0,0,0,177.459c0,.009,0,.018,0,.027v47.743a2.834,2.834,0,0,0,2.834,2.834H72.611a2.834,2.834,0,0,0,2.834-2.834V177.486C75.445,177.477,75.445,177.468,75.445,177.459Z" transform="translate(0 -90.333)" fill="#00aaf0"/>
    <path id="Path_112" data-name="Path 112" d="M4.554,225.229V177.486c0-.009,0-.018,0-.027A2.324,2.324,0,0,1,6.9,175.194H2.344A2.324,2.324,0,0,0,0,177.459c0,.009,0,.018,0,.027v47.744a2.834,2.834,0,0,0,2.834,2.834H7.388A2.834,2.834,0,0,1,4.554,225.229Z" transform="translate(0 -90.333)" fill="#009aef"/>
    <path id="Path_113" data-name="Path 113" d="M50.9,318.665a2.261,2.261,0,0,1-2.7,0l-2.7-2L14.665,342.191H84.442L53.6,316.66Z" transform="translate(-11.831 -204.461)" fill="#5bddfc"/>
    <g id="Group_53" data-name="Group 53" transform="translate(0 87.153)">
      <path id="Path_114" data-name="Path 114" d="M16.65,440.273l-1.985,1.643h4.554A2.831,2.831,0,0,1,16.65,440.273Z" transform="translate(-11.831 -391.339)" fill="#00c3ff"/>
      <path id="Path_115" data-name="Path 115" d="M0,187.054H0V234.8a2.834,2.834,0,0,0,2.834,2.834L33.678,212.1Z" transform="translate(0 -187.054)" fill="#00c3ff"/>
    </g>
    <path id="Path_116" data-name="Path 116" d="M4.554,234.8V190.441L0,187.054H0V234.8a2.837,2.837,0,0,0,2.834,2.834l1.985-1.643A2.818,2.818,0,0,1,4.554,234.8Z" transform="translate(0 -99.901)" fill="#00aaf0"/>
    <path id="Path_117" data-name="Path 117" d="M216.133,212.1l30.844,25.531a2.834,2.834,0,0,0,2.834-2.834V187.054h0Z" transform="translate(-174.366 -99.901)" fill="#00c3ff"/>
    <path id="Path_118" data-name="Path 118" d="M315.71,100.627l-22.861-37.1a.636.636,0,0,0-1.083,0h0l-22.861,37.1a.636.636,0,0,0,.541.969h45.722A.636.636,0,0,0,315.71,100.627Z" transform="translate(-216.863)" fill="#ffc850"/>
    <path id="Path_119" data-name="Path 119" d="M273.551,100.627l21.08-34.211-1.781-2.891a.636.636,0,0,0-1.083,0l-22.861,37.1a.636.636,0,0,0,.541.969h4.645A.636.636,0,0,1,273.551,100.627Z" transform="translate(-216.863 0)" fill="#f9b428"/>
    <g id="Group_54" data-name="Group 54" transform="translate(72.86 74.964)">
      <path id="Path_120" data-name="Path 120" d="M382.2,213.04a2.641,2.641,0,0,1-2.568,2.6,2.6,2.6,0,1,1,2.568-2.6Z" transform="translate(-377.03 -193.731)" fill="#707487"/>
      <path id="Path_121" data-name="Path 121" d="M379.812,123.98c-1.267,0-2.567.6-2.511,1.857.147,3.315.4,6.98.4,9.784,0,1.038.968,1.473,2.115,1.473.861,0,2.08-.435,2.08-1.473,0-2.8.248-6.468.4-9.782C382.342,124.6,381.054,123.98,379.812,123.98Z" transform="translate(-377.247 -123.98)" fill="#707487"/>
    </g>
    <g id="Group_55" data-name="Group 55" transform="translate(72.86 74.964)">
      <path id="Path_122" data-name="Path 122" d="M379.918,213.041a2.6,2.6,0,0,1,1.131-2.156,2.5,2.5,0,0,0-1.416-.446,2.6,2.6,0,1,0,0,5.2,2.482,2.482,0,0,0,1.416-.454A2.619,2.619,0,0,1,379.918,213.041Z" transform="translate(-377.031 -193.732)" fill="#5e6377"/>
      <path id="Path_123" data-name="Path 123" d="M380.582,135.621c0-2.8-.248-6.469-.4-9.784a1.509,1.509,0,0,1,.471-1.173,2.231,2.231,0,0,1,.577-.384,3.308,3.308,0,0,0-1.423-.3c-1.267,0-2.567.6-2.511,1.857.147,3.315.4,6.98.4,9.784,0,1.038.968,1.473,2.115,1.473a2.829,2.829,0,0,0,1.381-.359A1.255,1.255,0,0,1,380.582,135.621Z" transform="translate(-377.246 -123.98)" fill="#5e6377"/>
    </g>
  </g>
</svg>
