<svg id="audit" xmlns="http://www.w3.org/2000/svg" width="75.955" height="75.955" viewBox="0 0 75.955 75.955">
  <path id="Path_92" data-name="Path 92" d="M32,102.716H87V32H43.786L32,43.786Zm0,0" transform="translate(-26.762 -26.762)" fill="#348fd9"/>
  <path id="Path_93" data-name="Path 93" d="M0,70.716H55V0H11.786L0,11.786Zm0,0" fill="#60d1e0"/>
  <path id="Path_94" data-name="Path 94" d="M0,111v6.548H55V56Zm0,0" transform="translate(0 -46.833)" fill="#5ac6d4"/>
  <path id="Path_95" data-name="Path 95" d="M11.786,11.786V0L0,11.786Zm0,0" fill="#9fe4ed"/>
  <g id="Group_52" data-name="Group 52" transform="translate(5.238 5.238)">
    <path id="Path_96" data-name="Path 96" d="M72.6,96H35.929A3.929,3.929,0,0,0,32,99.929v41.906a3.929,3.929,0,0,0,3.929,3.929H72.6a3.929,3.929,0,0,0,3.929-3.929V99.929A3.929,3.929,0,0,0,72.6,96Zm1.31,3.929v3.929H66.048V98.619H72.6A1.31,1.31,0,0,1,73.906,99.929ZM42.476,136.6v-3.929H63.429V136.6Zm20.953,2.619v3.929H42.476v-3.929Zm0-32.739v3.929H42.476v-3.929Zm-20.953-2.619V98.619H63.429v5.238Zm0,19.643v-3.929H63.429V123.5Zm20.953,2.619v3.929H42.476V126.12Zm-20.953-9.167v-3.929H63.429v3.929Zm-2.619-6.548H34.619v-3.929h5.238Zm0,2.619v3.929H34.619v-3.929Zm0,6.548V123.5H34.619v-3.929Zm0,6.548v3.929H34.619V126.12Zm0,6.548V136.6H34.619v-3.929Zm26.191,0h7.857V136.6H66.048Zm0-2.619V126.12h7.857v3.929Zm0-6.548v-3.929h7.857V123.5Zm0-6.548v-3.929h7.857v3.929Zm0-6.548v-3.929h7.857v3.929ZM35.929,98.619h3.929v5.238H34.619V99.929A1.31,1.31,0,0,1,35.929,98.619Zm-1.31,43.215v-2.619h5.238v3.929H35.929A1.31,1.31,0,0,1,34.619,141.834Zm37.977,1.31H66.048v-3.929h7.857v2.619A1.31,1.31,0,0,1,72.6,143.144Zm0,0" transform="translate(-32 -85.524)" fill="#3a9cc9"/>
    <path id="Path_97" data-name="Path 97" d="M112,64h10.476v2.619H112Zm0,0" transform="translate(-98.904 -58.762)" fill="#3a9cc9"/>
    <path id="Path_98" data-name="Path 98" d="M192,64h5.238v2.619H192Zm0,0" transform="translate(-165.809 -58.762)" fill="#3a9cc9"/>
    <path id="Path_99" data-name="Path 99" d="M112,32h18.334v2.619H112Zm0,0" transform="translate(-98.904 -32)" fill="#3a9cc9"/>
  </g>
  <path id="Path_100" data-name="Path 100" d="M369.52,365.591,355.928,352,352,355.928l13.592,13.592a2.778,2.778,0,0,0,3.929-3.929Zm0,0" transform="translate(-294.379 -294.379)" fill="#e94f4f"/>
  <path id="Path_101" data-name="Path 101" d="M361.151,357.222,355.928,352,352,355.928l5.222,5.222A19.715,19.715,0,0,0,361.151,357.222Zm0,0" transform="translate(-294.379 -294.379)" fill="#cf3a3a"/>
  <path id="Path_102" data-name="Path 102" d="M215.287,203.643A19.643,19.643,0,1,1,195.643,184,19.644,19.644,0,0,1,215.287,203.643Zm0,0" transform="translate(-147.19 -153.88)" fill="#e94f4f"/>
  <path id="Path_103" data-name="Path 103" d="M236.81,230.405A14.405,14.405,0,1,1,222.405,216,14.4,14.4,0,0,1,236.81,230.405Zm0,0" transform="translate(-173.952 -180.642)" fill="#48add9"/>
  <path id="Path_104" data-name="Path 104" d="M247.572,243.786A11.786,11.786,0,1,1,235.786,232,11.786,11.786,0,0,1,247.572,243.786Zm0,0" transform="translate(-187.332 -194.023)" fill="#4db7e5"/>
  <path id="Path_105" data-name="Path 105" d="M208,270.546c6.967-8.731,21.844-8.731,28.81,0C229.844,279.277,214.967,279.277,208,270.546Zm0,0" transform="translate(-173.952 -220.783)" fill="#e0e0de"/>
  <path id="Path_106" data-name="Path 106" d="M208,270.546c6.967-8.731,21.844-8.731,28.81,0C229.844,279.277,214.967,279.277,208,270.546Zm0,0" transform="translate(-173.952 -220.783)" fill="#e0e0de"/>
  <path id="Path_107" data-name="Path 107" d="M254.056,269.6c-3.973,5.864-10.37,8.563-15.424,9.8,7.6,4.191,18.222,2.81,23.8-4.174a17.254,17.254,0,0,0-8.372-5.631Zm0,0" transform="translate(-199.57 -225.47)" fill="#d6d6d4"/>
  <path id="Path_108" data-name="Path 108" d="M269.1,270.548A6.548,6.548,0,1,1,262.548,264,6.548,6.548,0,0,1,269.1,270.548Zm0,0" transform="translate(-214.094 -220.785)" fill="#348fd9"/>
  <path id="Path_109" data-name="Path 109" d="M260.5,285.942a6.524,6.524,0,1,0,10.869-7.071,20.857,20.857,0,0,1-10.869,7.071Zm0,0" transform="translate(-217.861 -233.221)" fill="#3086cd"/>
  <path id="Path_110" data-name="Path 110" d="M285.238,290.619A2.619,2.619,0,1,1,282.619,288,2.619,2.619,0,0,1,285.238,290.619Zm0,0" transform="translate(-234.166 -240.856)" fill="#3d4d63"/>
</svg>
