<svg xmlns="http://www.w3.org/2000/svg" width="75.067" height="87.952" viewBox="0 0 75.067 87.952">
  <g id="file" transform="translate(-37.503)">
    <path id="Path_142" data-name="Path 142" d="M209.477,0H178.119a2.25,2.25,0,0,0-2.25,2.25v7.959h23.607l17.69,17.69V77.722h7.707a2.294,2.294,0,0,0,2.294-2.294V17.69Z" transform="translate(-114.597)" fill="#008cff"/>
    <g id="Group_58" data-name="Group 58" transform="translate(61.272)">
      <path id="Path_143" data-name="Path 143" d="M419.026,163.924l-2.753-2.771v50.039h3.493V165.72A2.55,2.55,0,0,0,419.026,163.924Z" transform="translate(-374.976 -133.47)" fill="#0385dd"/>
      <path id="Path_144" data-name="Path 144" d="M181.658,0h-3.54a2.25,2.25,0,0,0-2.25,2.25v7.959h3.54V2.25A2.25,2.25,0,0,1,181.658,0Z" transform="translate(-175.869)" fill="#0385dd"/>
      <path id="Path_145" data-name="Path 145" d="M373.765,17.69h15.44L371.515,0V15.44A2.25,2.25,0,0,0,373.765,17.69Z" transform="translate(-337.907)" fill="#0385dd"/>
    </g>
    <path id="Path_146" data-name="Path 146" d="M375.055,15.44V3.54L371.515,0V15.44a2.25,2.25,0,0,0,2.25,2.25h3.54A2.25,2.25,0,0,1,375.055,15.44Z" transform="translate(-276.635)" fill="#0276c4"/>
    <path id="Path_147" data-name="Path 147" d="M119.862,58.542H151.29l17.73,17.729v57.867a2.3,2.3,0,0,1-2.3,2.3H119.969a2.362,2.362,0,0,1-2.362-2.362V60.8A2.255,2.255,0,0,1,119.862,58.542Z" transform="translate(-66.344 -48.486)" fill="#e4eaf8"/>
    <g id="Group_59" data-name="Group 59" transform="translate(51.263 10.056)">
      <path id="Path_148" data-name="Path 148" d="M121.153,134.075V60.8a2.255,2.255,0,0,1,2.255-2.255h-3.546a2.255,2.255,0,0,0-2.255,2.255v73.278a2.362,2.362,0,0,0,2.362,2.362h3.546A2.362,2.362,0,0,1,121.153,134.075Z" transform="translate(-117.607 -58.542)" fill="#d8dce5"/>
      <path id="Path_149" data-name="Path 149" d="M315.944,76.271h15.475l-17.73-17.729V74.017A2.255,2.255,0,0,0,315.944,76.271Z" transform="translate(-280.006 -58.542)" fill="#d8dce5"/>
    </g>
    <path id="Path_150" data-name="Path 150" d="M317.236,74.017V62.088l-3.547-3.546V74.017a2.255,2.255,0,0,0,2.255,2.255h3.546A2.255,2.255,0,0,1,317.236,74.017Z" transform="translate(-228.742 -48.486)" fill="#c3c8d1"/>
    <path id="Path_151" data-name="Path 151" d="M72.932,298.811a1.327,1.327,0,0,1-1.327-1.327v-6.654a8.7,8.7,0,0,0-17.4,0v6.654a1.327,1.327,0,0,1-2.655,0v-6.654a11.353,11.353,0,1,1,22.707,0v6.654A1.327,1.327,0,0,1,72.932,298.811Z" transform="translate(-11.636 -231.467)" fill="#707487"/>
    <path id="Path_152" data-name="Path 152" d="M63.683,403.661H38.857a1.354,1.354,0,0,1-1.354-1.354V382.569a1.354,1.354,0,0,1,1.354-1.354H63.683a1.354,1.354,0,0,1,1.354,1.354v19.738A1.354,1.354,0,0,1,63.683,403.661Z" transform="translate(0 -315.729)" fill="#ffc850"/>
    <path id="Path_153" data-name="Path 153" d="M41.132,402.266V382.61a1.4,1.4,0,0,1,1.395-1.395H38.9A1.4,1.4,0,0,0,37.5,382.61v19.656a1.4,1.4,0,0,0,1.395,1.395h3.629A1.4,1.4,0,0,1,41.132,402.266Z" transform="translate(0 -315.729)" fill="#f9b428"/>
    <circle id="Ellipse_9" data-name="Ellipse 9" cx="3.137" cy="3.137" r="3.137" transform="translate(48.134 70.436)" fill="#e4eaf8"/>
    <path id="Path_154" data-name="Path 154" d="M102.926,413.168a3.133,3.133,0,0,1,1.367-2.589,3.137,3.137,0,1,0,0,5.178A3.133,3.133,0,0,1,102.926,413.168Z" transform="translate(-51.253 -339.595)" fill="#d8dce5"/>
  </g>
</svg>
