<svg xmlns="http://www.w3.org/2000/svg" width="137.91" height="154.276" viewBox="0 0 137.91 154.276">
  <g id="updated" transform="translate(0 0)">
    <path id="Path_1" data-name="Path 1" d="M9.735,98.149a58.487,58.487,0,0,0,24.915,47.934,4.829,4.829,0,0,1,.246,7.754l-.072.057a4.812,4.812,0,0,1-5.736.18A68.214,68.214,0,0,1,0,98.149C0,60.636,31.051,30.183,68.489,29.863V39.6C36.424,39.918,9.735,66.01,9.735,98.149Zm0,0" transform="translate(0 -20.864)" fill="#80b7e7"/>
    <path id="Path_2" data-name="Path 2" d="M227.242.291l17.891,12.238a1.651,1.651,0,0,1,0,2.725L227.242,27.491a1.65,1.65,0,0,1-2.582-1.362V1.654A1.651,1.651,0,0,1,227.242.291Zm0,0" transform="translate(-156.965 0)" fill="#539bd9"/>
    <path id="Path_3" data-name="Path 3" d="M289.266,123.839A58.488,58.488,0,0,0,264.349,75.9a4.829,4.829,0,0,1-.246-7.754l.072-.056a4.812,4.812,0,0,1,5.736-.18A68.211,68.211,0,0,1,299,123.839c0,37.513-31,67.966-68.437,68.286v-9.738c32.065-.318,58.7-26.409,58.7-58.549Zm0,0" transform="translate(-161.09 -46.848)" fill="#80b7e7"/>
    <path id="Path_4" data-name="Path 4" d="M181.311,447.29,163.42,435.053a1.651,1.651,0,0,1,0-2.725l17.891-12.238a1.651,1.651,0,0,1,2.582,1.362v24.475A1.651,1.651,0,0,1,181.311,447.29Zm0,0" transform="translate(-113.676 -293.305)" fill="#539bd9"/>
    <path id="Path_5" data-name="Path 5" d="M182.274,198.931l-29.306,24.3-7.388,6.128a9.666,9.666,0,0,1-13.907-1.642l-11.4-15.191a7.771,7.771,0,1,1,12.434-9.324l7.693,10.258.062-.051,31.888-26.445a7.771,7.771,0,1,1,9.919,11.965Zm0,0" transform="translate(-82.951 -129.381)" fill="#80b7e7"/>
    <path id="Path_6" data-name="Path 6" d="M232.69,198.931l-29.306,24.3a39.368,39.368,0,0,1-12.5-9.822l31.888-26.445a7.771,7.771,0,1,1,9.919,11.964Zm0,0" transform="translate(-133.366 -129.381)" fill="#80b7e7"/>
  </g>
</svg>
