<svg id="shield" xmlns="http://www.w3.org/2000/svg" width="133.912" height="133.913" viewBox="0 0 133.912 133.913">
  <path id="Path_57" data-name="Path 57" d="M216.244,384h11.645a2.911,2.911,0,0,1,2.911,2.911v11.645a2.911,2.911,0,0,1-2.911,2.911H216.244a2.911,2.911,0,0,1-2.911-2.911V386.911A2.911,2.911,0,0,1,216.244,384Z" transform="translate(-155.11 -279.199)" fill="#607d8b"/>
  <g id="Group_30" data-name="Group 30">
    <path id="Path_58" data-name="Path 58" d="M158.112,426.667H99.89a14.556,14.556,0,0,0-14.556,14.556,2.911,2.911,0,0,0,2.911,2.911h81.512a2.911,2.911,0,0,0,2.911-2.911A14.556,14.556,0,0,0,158.112,426.667Z" transform="translate(-62.045 -310.221)" fill="#455a64"/>
    <path id="Path_59" data-name="Path 59" d="M14.556,0h104.8a14.556,14.556,0,0,1,14.556,14.556V96.068a14.556,14.556,0,0,1-14.556,14.556H14.556A14.556,14.556,0,0,1,0,96.068V14.556A14.556,14.556,0,0,1,14.556,0Z" fill="#455a64"/>
  </g>
  <path id="Path_60" data-name="Path 60" d="M30.066,21.333h104.8a8.733,8.733,0,0,1,8.733,8.733v72.779H21.333V30.066A8.733,8.733,0,0,1,30.066,21.333Z" transform="translate(-15.511 -15.511)" fill="#fafafa"/>
  <path id="Path_61" data-name="Path 61" d="M408.516,341.333h-.058a2.911,2.911,0,1,0,2.911,2.911,2.911,2.911,0,0,0-2.911-2.911Z" transform="translate(-294.865 -248.177)" fill="#4caf50"/>
  <path id="Path_62" data-name="Path 62" d="M199.528,69.915l-23.289-5.822a2.957,2.957,0,0,0-1.409,0l-23.289,5.822a2.911,2.911,0,0,0-2.207,2.824v34.934c0,9,19.214,17.7,25.082,20.157a2.912,2.912,0,0,0,2.241,0c5.863-2.457,25.077-11.156,25.077-20.157V72.739A2.912,2.912,0,0,0,199.528,69.915Z" transform="translate(-108.578 -46.539)" fill="#2196f3"/>
  <g id="Group_31" data-name="Group 31" transform="translate(52.401 29.467)">
    <path id="Path_63" data-name="Path 63" d="M206.556,107.968,192,110.879v17.112h14.556Z" transform="translate(-192 -107.968)" fill="#fafafa"/>
    <path id="Path_64" data-name="Path 64" d="M245.333,181.333V200.57l14.556-7.1V181.333Z" transform="translate(-230.777 -161.31)" fill="#fafafa"/>
  </g>
</svg>
