<?xml version="1.0" encoding="utf-8"?>
<!-- Generator: Adobe Illustrator 23.0.6, SVG Export Plug-In . SVG Version: 6.00 Build 0)  -->
<svg version="1.1" id="a281da36-03ff-4df9-8bcc-0ac71230b2d7"
	 xmlns="http://www.w3.org/2000/svg" xmlns:xlink="http://www.w3.org/1999/xlink" x="0px" y="0px" viewBox="0 0 1177.8 725.2"
	 style="enable-background:new 0 0 1177.8 725.2;" xml:space="preserve">
<style type="text/css">
	.st0{opacity:0.1;fill:#13899E;enable-background:new    ;}
	.st1{fill:#444053;}
	.st2{fill:none;stroke:#444053;stroke-miterlimit:10;}
	.st3{fill:#33323D;}
	.st4{fill:#FFFFFF;}
	.st5{fill:#504F60;}
	.st6{opacity:0.1;fill:#33323D;enable-background:new    ;}
	.st7{opacity:0.8;fill:#8CCF4D;enable-background:new    ;}
	.st8{opacity:0.8;fill:#FA5959;enable-background:new    ;}
	.st9{fill:#FBBEBE;}
	.st10{opacity:5.000000e-02;enable-background:new    ;}
	.st11{fill:#3F3D56;}
	.st12{fill:#464353;}
	.st13{fill:#13899E;}
	.st14{fill:url(#SVGID_1_);}
	.st15{fill:#65617D;}
	.st16{opacity:0.1;enable-background:new    ;}
	.st17{fill:#EE8E9E;}
	.st18{fill:#E3E8F4;}
	.st19{fill:#E6E8EC;}
	.st20{fill:#565387;}
	.st21{opacity:0.1;}
	.st22{fill:#A1616A;}
	.st23{fill:#514E7F;}
	.st24{opacity:0.3;fill:#457A8D;}
	.st25{fill:#E6E6E6;}
	.st26{fill:#B3B3B3;}
	.st27{fill:#999999;}
	.st28{fill:#29ABE2;}
	.st29{fill:#FC7A51;}
	.st30{fill:#F9DE58;}
	.st31{fill:#EEEEEE;}
	.st32{fill:#CBCBCB;}
	.st33{fill:#6EC6EB;}
	.st34{fill:#FDA589;}
	.st35{fill:#FBE98E;}
	.st36{fill:#BABABA;}
	.st37{fill:#CECECE;}
	.st38{fill:#DBDBDB;}
	.st39{fill:#A4A4A4;}
	.st40{fill:#9F9F9F;}
	.st41{fill:#B2B2B2;}
	.st42{fill:#2BE0C6;}
	.st43{fill:#F2F2F2;}
	.st44{fill:#F6F6F6;}
	.st45{fill:#CCCCCC;}
	.st46{fill:#808080;}
</style>
<title>printing invoices</title>
<path class="st0" d="M1177.8,465.3c0,19.6-2.4,39.2-7.1,58.2c-1.6,6.4-3.4,12.7-5.5,18.9c-2.6,7.6-5.6,15-8.9,22.3
	c-1.7,3.7-3.5,7.3-5.4,10.8c0,20.1-4.1,40-12.2,58.5c-14.6,33.1-40.5,59.8-73.2,75.4c-20.4,9.7-42.8,14.9-65.4,15H223.6
	c-34.6,0.1-68.5-9-98.4-26.3c-4.4-2.6-8.7-5.3-12.9-8.2c-9.1-6.3-17.7-13.3-25.6-21.1C76,658.4,66.5,646.7,58.6,634
	c-18.7-29.7-28.6-64.1-28.6-99.2C11,501.5,0,461.7,0,418.9c0-54,17.6-103.3,46.4-140.5c6-7.8,12.6-15.1,19.7-21.9
	c7-6.7,14.5-12.9,22.5-18.5c6.4-4.4,13.1-8.5,20-12c2.9-1.5,5.8-2.9,8.7-4.1c2.6-1.1,5.2-2.2,7.9-3.2c3.2-1.2,6.4-2.3,9.7-3.3
	c3.3-1,6.5-1.9,9.6-2.7c4.7-1.1,9.4-2.1,14.2-2.8c4-0.6,8-1,12-1.3c3.2-0.2,6.4-0.4,9.6-0.4h1.8c3.6,0,7.1,0.1,10.6,0.4
	c0.4-0.7,0.8-1.5,1.1-2.2c1.4-2.7,2.9-5.3,4.3-7.9v-0.1c0.3-0.5,0.5-0.9,0.8-1.3c1.2-2.1,2.4-4.2,3.7-6.3c0.6-1,1.1-1.9,1.7-2.9
	c0.1-0.2,0.3-0.5,0.4-0.7c0.6-1,1.2-2,1.8-3c3.1-4.9,6.3-9.8,9.6-14.5c0.3-0.4,0.6-0.8,0.9-1.2c0.5-0.7,1-1.5,1.6-2.2
	c1.4-1.9,2.8-3.9,4.2-5.8c1-1.4,2-2.7,3.1-4c2.6-3.4,5.3-6.7,8-10s5.6-6.6,8.5-9.9c0.4-0.4,0.8-0.9,1.2-1.3l4.3-4.6l0,0
	c0.2-0.2,0.4-0.4,0.6-0.6l0,0c0.5-0.6,1-1.1,1.5-1.6c2.3-2.4,4.6-4.8,7-7.2c12.1-12,24.9-23.1,38.4-33.4c0.5-0.4,1.1-0.8,1.6-1.2
	c2.5-1.9,5.1-3.8,7.7-5.7c14.2-10.2,29-19.4,44.4-27.7c1.1-0.6,2.1-1.2,3.2-1.7c13.8-7.3,28-13.8,42.5-19.6c7.9-3.1,16-6,24.1-8.8
	c5.4-1.8,10.9-3.5,16.4-5c8.5-2.4,17.1-4.7,25.9-6.6c25.7-5.8,51.9-9.3,78.2-10.7c8-0.4,16.1-0.6,24.3-0.6
	c39.5-0.1,78.8,4.9,117,14.8c0.8,1.2,2.2,1.9,3.6,1.9h3.4c1.5,0.4,2.9,0.8,4.4,1.2c8.2,2.4,16.2,4.9,24.1,7.7l2,0.7
	c19.5,7,38.6,15.3,56.9,25c16.5,8.7,32.5,18.6,47.7,29.4c2.3,1.7,4.6,3.4,6.9,5.1c2.8-1.8,5.6-3.5,8.4-5.1
	c11-6.3,22.7-11.3,34.9-14.9c25.4-7.5,52.3-8.6,78.2-3.1c33.3,7.1,63.4,24.6,87.7,49.4c9.9,10.2,18.7,21.3,26.3,33.3
	c0.6,0.9,1.1,1.7,1.6,2.6c6.5,10.6,12.1,21.8,16.7,33.4c0.2,0.4,0.3,0.8,0.5,1.3c4.3,10.8,7.7,22,10.3,33.4c0.1,0.6,0.3,1.1,0.4,1.7
	c2.4,11,4.1,22.1,4.9,33.4c0,0.4,0,0.8,0.1,1.2c0.4,5.8,0.6,11.7,0.6,17.6c0,5.3-0.2,10.6-0.5,15.8c0,0.6-0.1,1.2-0.1,1.8
	c-0.1,1.5-0.2,3-0.3,4.5c7.6,6.2,14.8,12.9,21.4,20.2c2.9,3.2,5.7,6.5,8.5,9.9c8.3,10.4,15.6,21.6,21.8,33.4
	C1168.1,387.6,1177.8,425.1,1177.8,465.3z"/>
<path class="st0" d="M1064.8,662.1c0,22.7-23.6,44-64.7,62.3H223.6c-35.9,0-69.6-13-98.4-35.7c-7.3-8.6-11.1-17.5-11.1-26.7
	c0-24.2,26.6-46.7,72.7-65.8l0,0l1.3-0.5c13-5.3,27.5-10.4,43.4-15.1c0.4-0.1,0.8-0.2,1.2-0.4l0,0c12.6-3.7,26-7.2,40.2-10.5
	c0.5-0.1,0.9-0.2,1.3-0.3c5.5-1.3,11.1-2.5,16.8-3.7l0,0l2.2-0.5c41.5-8.6,88.8-15.5,140-20.1h0.1c7.2-0.7,14.4-1.3,21.8-1.8
	c8.1-0.7,16.4-1.2,24.7-1.7c6.4-0.4,12.8-0.8,19.3-1.1c0,0,0.1,0,0.1,0c29.2-1.5,59.3-2.2,90.2-2.2c76.3,0,148.3,4.7,212.2,13
	c0.1,0,0.1,0,0.2,0c9.8,1.3,19.5,2.6,28.9,4.1c2.7,0.4,5.4,0.8,8,1.3c10.6,1.7,20.9,3.5,31,5.4l0,0
	C988,584.7,1064.8,621.1,1064.8,662.1z"/>
<path class="st1" d="M754.6,189.5l0.2,0.4c-20.4,25.5-21.7,65-21.8,65.3l-4.3-5C728.8,249.8,734.1,215.1,754.6,189.5z"/>
<path class="st2" d="M764.3,251.7c0,0-11-23.1-1.2-38.1"/>
<path class="st2" d="M742.3,179.2c0,0,0,21.3-5.8,22.8"/>
<path class="st2" d="M695,206.7c0,0,23,2,33.6-9.9"/>
<rect x="395.2" y="225.6" class="st3" width="384.2" height="193.9"/>
<rect x="275.5" y="478.4" class="st3" width="624.8" height="127.7"/>
<polygon class="st4" points="424.7,510.4 745,510.4 808.9,725.2 357.2,725.2 "/>
<polygon class="st5" points="257.7,402.3 257.7,468.6 257.7,482.6 257.7,606.1 377.4,606.1 377.4,488.3 798.4,488.3 798.4,606.1 
	918.1,606.1 918.1,482.6 918.1,468.6 918.1,402.3 "/>
<rect x="257.7" y="402.3" class="st6" width="660.4" height="66.3"/>
<circle class="st7" cx="882.5" cy="435.5" r="9.8"/>
<circle class="st8" cx="838.3" cy="435.5" r="9.8"/>
<rect x="409.3" y="178.9" class="st4" width="356" height="211.1"/>
<path class="st9" d="M819.4,487.1c0.8,8.2-5.4,16.1-3.6,24.1c0.4,1.7,1.1,3.3,1.4,5c0.7,4.8-2.1,9.3-4.8,13.2l-23.2,34.2
	c-0.9,1.5-2,2.9-3.3,4.1c-4.5,4-11.1,3.5-16.9,4.7c-4.1,0.8-8,2.5-11.3,5c-0.3,0.2-0.4,0.7-0.2,1c2,2.7,5.1,4.2,8.4,4
	c0.6,0.8,0,2-0.8,2.6c-1.3,0.9-3,1.1-3.2,3.2c-0.1,0.7,0.1,1.5,0.4,2.1c0.9,1.4,2.4,2.4,4.1,2.8c8,2.5,16.7-1.9,22.8-7.7
	s10.3-13.3,16.3-19.3c3.3-3.3,7-6.2,10.4-9.4c6.7-6.4,12-14.2,17-22c1.7-2.3,2.9-4.8,3.7-7.5c0.6-2.7,0.3-5.5,1.1-8.1
	c0.9-3.5,3.5-6.2,5.6-9.1c4.1-5.7,6.9-12.6,6.3-19.6s-4.9-13.9-11.5-16.3c-2-0.8-4.3-1-6.4-0.4c-2.7,0.8-4.7,3.1-6.5,5.2l-4.4,5.1
	c-1.1,1.1-2,2.5-2.6,3.9c-0.6,1.5-0.2,3.2,0.9,4.3"/>
<path class="st10" d="M819.4,487.1c0.8,8.2-5.4,16.1-3.6,24.1c0.4,1.7,1.1,3.3,1.4,5c0.7,4.8-2.1,9.3-4.8,13.2l-23.2,34.2
	c-0.9,1.5-2,2.9-3.3,4.1c-4.5,4-11.1,3.5-16.9,4.7c-4.1,0.8-8,2.5-11.3,5c-0.3,0.2-0.4,0.7-0.2,1c2,2.7,5.1,4.2,8.4,4
	c0.6,0.8,0,2-0.8,2.6c-1.3,0.9-3,1.1-3.2,3.2c-0.1,0.7,0.1,1.5,0.4,2.1c0.9,1.4,2.4,2.4,4.1,2.8c8,2.5,16.7-1.9,22.8-7.7
	s10.3-13.3,16.3-19.3c3.3-3.3,7-6.2,10.4-9.4c6.7-6.4,12-14.2,17-22c1.7-2.3,2.9-4.8,3.7-7.5c0.6-2.7,0.3-5.5,1.1-8.1
	c0.9-3.5,3.5-6.2,5.6-9.1c4.1-5.7,6.9-12.6,6.3-19.6s-4.9-13.9-11.5-16.3c-2-0.8-4.3-1-6.4-0.4c-2.7,0.8-4.7,3.1-6.5,5.2l-4.4,5.1
	c-1.1,1.1-2,2.5-2.6,3.9c-0.6,1.5-0.2,3.2,0.9,4.3"/>
<path class="st11" d="M837,697.4c-5.1,3.1-11.4,3.3-17.3,2.6c-1-0.1-2.1-0.2-2.7,0.5c-0.9,1.1,0.2,2.6,1.2,3.5
	c3.5,2.6,7.6,4.3,11.9,4.9c3.8,0.5,7.7,0.8,11.6,0.8c10.6,0.2,21.3,0.4,31.8-1.2c0.6,0,1.2-0.2,1.7-0.5c0.7-0.5,1.1-1.2,1.3-2
	c0.7-2.7-0.7-5.7-2.8-7.5s-4.8-3-7.4-4l-9.2-3.6c-2.2-0.8-5.6-3.1-8-2.9C844.9,688.2,840.7,695.2,837,697.4z"/>
<path class="st10" d="M837,697.4c-5.1,3.1-11.4,3.3-17.3,2.6c-1-0.1-2.1-0.2-2.7,0.5c-0.9,1.1,0.2,2.6,1.2,3.5
	c3.5,2.6,7.6,4.3,11.9,4.9c3.8,0.5,7.7,0.8,11.6,0.8c10.6,0.2,21.3,0.4,31.8-1.2c0.6,0,1.2-0.2,1.7-0.5c0.7-0.5,1.1-1.2,1.3-2
	c0.7-2.7-0.7-5.7-2.8-7.5s-4.8-3-7.4-4l-9.2-3.6c-2.2-0.8-5.6-3.1-8-2.9C844.9,688.2,840.7,695.2,837,697.4z"/>
<path class="st12" d="M843.5,574.9c-3.8,5.1-7.8,11-6.9,17.3c0.5,3.4,2.4,6.4,3.8,9.6c1.8,4.3,3,8.8,3.9,13.4
	c1.4,6.7,2.9,13.4,3.8,20.2c1,7.7-3.7,29.9-4.1,37.6c-0.1,1.9-0.3,3.9-1.6,5.2c-0.5,0.5-1.2,1-1.4,1.7c-0.1,0.7,0,1.4,0.3,1.9
	c2.2,4.9,6.6,8.5,11.5,10.6s16.9,5.7,22.2,5.8c0.7,0.1,1.4,0,2.1-0.3c0.7-0.4,1.3-1.1,1.6-1.8c3.9-7.4,0.2-33.6,0.2-41.9
	c0-7,1.7-13.8,1.4-20.8c-0.3-5.6-1.7-11-2.3-16.6c-0.9-9.1,0.8-18.3,2.5-27.3c1.3-6.9,2.6-13.8,4.2-20.6c1-4.2,2.2-8.3,4.5-12
	c1.8-2.9,4.3-5.3,6.3-8c5.7-7.5,8.3-17,7.1-26.4c-0.1-0.9-13.3,3.3-14.5,3.8c-4.7,2-9.1,4.8-12.9,8.3c-3,2.9-5.5,6.8-8.1,10
	c-3.8,4.6-7.5,9.2-11.2,13.9C851.7,564.1,847.5,569.5,843.5,574.9z"/>
<path class="st10" d="M843.5,574.6c-3.8,5.1-7.8,11-6.9,17.3c0.5,3.4,2.4,6.4,3.8,9.6c1.8,4.3,3,8.8,3.9,13.4
	c1.4,6.7,2.9,13.4,3.8,20.2c1,7.7-3.7,29.9-4.1,37.6c-0.1,1.8-0.3,3.9-1.6,5.2c-0.5,0.5-1.2,1-1.4,1.7c-0.2,0.7,0,1.4,0.3,2
	c2.2,4.9,6.6,8.5,11.5,10.6s16.9,4,22.2,4.2c0.7,0.1,1.4,0,2.1-0.3c0.7-0.4,1.3-1.1,1.6-1.8c3.9-7.4,0.2-31.9,0.2-40.3
	c0-7,1.7-13.8,1.4-20.8c-0.3-5.6-1.7-11-2.3-16.6c-0.9-9.1,0.8-18.3,2.5-27.2c1.3-6.9,2.6-13.8,4.2-20.6c1-4.2,2.2-8.3,4.5-12
	c1.8-2.9,4.3-5.3,6.3-7.9c5.7-7.5,8.3-17,7.1-26.4c-0.1-0.9-13.3,3.3-14.5,3.8c-4.7,2-9.1,4.8-12.9,8.3c-3,2.9-5.5,6.8-8.1,10
	c-3.8,4.6-7.5,9.2-11.2,13.9C851.6,563.8,847.5,569.2,843.5,574.6z"/>
<circle class="st9" cx="800.8" cy="440.9" r="21.5"/>
<path class="st9" d="M820.2,440c4,6.4,10.5,10.9,17.9,12.5l-1.6,5.9c-2.8,10.1-6,20.8-13.8,27.9c0.8-3.4-0.3-7.1-2.2-10.1
	c-2.1-2.9-4.5-5.4-7.3-7.6l-12.4-10.8c-0.4-0.3-0.7-0.6-0.9-1c-0.3-0.8-0.3-1.6,0-2.4c1.6-4.9,6.1-8,9.7-11.3
	c1.8-1.7,3.5-3.6,4.9-5.7C817,433.8,818.5,437.3,820.2,440z"/>
<path class="st12" d="M772.4,419.2l-0.5-4c3.4,0.9,6.6-2,8.8-5s4.2-6.5,7.5-7.8c4-1.5,8.3,0.9,12.1,2.9c4.3,2.4,9,3.9,13.9,4.5
	c0.8,0,1.6,0.2,2.3,0.4c2.5,0.9,3.7,4,4,6.9s0.3,5.9,1.5,8.4c0.9,1.9,2.5,3.3,3.5,5.2c2.6,5.1,0.1,12.1,2.9,17.1l-6.9-6.3
	c-0.6-0.6-1.5-1.2-2.2-0.7s-0.6,1.2-0.8,1.9c-0.7,2-3.1,2.6-4.9,1.8s-3.1-2.5-4.4-4c-3-3.6-6.7-6.8-11-8.3c-3.8-1.5-8-1.2-11.6,0.7
	c-3.2,1.8-5.6,6.1-9.5,6.2c-5.4,0.2-7.7-9.9-10.2-13.8c1.9-1.4,2.5-4,1.4-6.1C768.8,419,772.3,418.6,772.4,419.2z"/>
<path class="st11" d="M862.1,697.2c-4.3,3.8-9.8,5.9-15.5,5.8c-1.5,0-3.5,0.3-3.5,1.7c0,0.4,0.2,0.8,0.4,1.2c1.8,3,4.7,5.2,8,6.3
	c3.1,0.9,6.4,0.8,9.7,0.6l9.5-0.5c1.8-0.1,3.6-0.2,5.3-0.4s3.7-0.6,5.6-0.9c4.6-0.7,9.2-0.9,13.8-0.7c1.2,0,2.6,0,3.4-0.9
	s0.3-2.6,0.1-3.9c-0.6-2.7,0-5.6-0.5-8.4c-0.9-4.8-5.1-8.5-9.6-10.3c-4.3-1.6-11.8-3.5-15.8-0.8C868.6,689,866,693.7,862.1,697.2z"
	/>
<path class="st12" d="M871.5,535.6c0.8,4,4.7,7,4.8,11c0.1,3.2-2.2,6-3.9,8.8c-1.6,2.9-2.9,5.9-4,9c-3.2,8.1-7.1,15.8-11.7,23.2
	c-2.2,3.5-4.7,7.3-4.2,11.5c0.3,1.9,1,3.8,2,5.5l6.7,13.2c1.5,2.6,2.6,5.4,3.4,8.3c0.6,2.5,0.6,5.1,1,7.7c1,8.1,4.8,16.3,2.6,24.1
	c-0.2,0.7-0.9,1.5-1.4,1c2.2,4.1,4,8.2,3.8,12.9c-0.1,2.4-0.8,5,0.1,7.3c0.5,0.9,0.9,1.9,1,2.9c0,0.7-0.3,1.3-0.4,2
	c-0.2,1.9,1.5,3.4,3.3,4s3.7,0.5,5.5,1.1c3.5,1,5.9,4,8.9,6.1c3,2.1,6.6,3.2,10.2,3.3c0.5,0.1,1,0,1.5-0.3c0.5-0.5,0.8-1.1,0.8-1.8
	c0.3-3.4-1-6.7-3.7-8.8c-0.6-0.4-1-0.8-1.3-1.4c-0.2-0.5-0.2-1.1-0.1-1.6c0.5-7.3,0.4-14.6-0.4-21.8c-0.4-2.3-0.5-4.6-0.3-6.9
	c0.2-1.9,0.8-3.8,0.6-5.8s-1.2-3.7-1.8-5.5c-1-3.3-0.7-6.8-0.8-10.3c-0.2-6-1.5-11.9-2.9-17.7c-0.5-2.3-1.1-4.7-2.8-6.4
	c-1.4-1.4-3.6-2.8-3.1-4.8c0.3-0.7,0.7-1.4,1.3-1.9c1.3-1.6,1.9-3.7,1.6-5.8c1.2,0.3,2.5-0.3,3-1.4c10.8-5.1,19.5-15.3,23.4-26.6
	c0.2-0.8,0.6-1.6,1-2.4c1-1.4,2.7-2,4.3-2.8c4.8-2.4,8.2-7,11.3-11.5c1.8-2.6,3.6-5.3,4.3-8.3c0.4-2,0.6-4,0.6-6l0.3-10.4
	c0.1-0.7,0-1.4-0.2-2c-0.3-0.6-0.6-1.2-1.1-1.7c-2.9-3.1-6.8-5.2-11-6c-2.8-0.5-5.7-0.4-8.6-0.7c-5.6-0.5-11.1-2.2-16.6-1.8
	c-8.8,0.6-16.5,6.7-20.7,14.5C876.1,533.2,874.6,535.6,871.5,535.6z"/>
<path class="st13" d="M822.9,467.8c0.1,1.6-0.1,3.2-0.6,4.7c-0.7,1.5-2.4,2.6-3.9,2c0.5-1-0.8-2.2-1.9-2.1c-1.1,0.2-2,1-2.5,2.1
	c-0.7,1.5-1,3.2-0.7,4.8c0.3,2,1.5,4,1.2,6c-0.3,1.7-1.5,3.4-0.8,5c0.4,0.7,1,1.4,1.6,1.9c1.8,2.2,1.6,5.5-0.6,7.5l16.8,0.3
	c-0.6,2.8,0.6,5.7,2.1,8.2c8.2,13.9,22.4,23.1,38.3,25c-1.6,0.9-2.1,3-1.2,4.6c0.1,0.2,0.2,0.4,0.4,0.5c1.4,1.3,3.7,1.2,5.4,0.3
	s3.1-2.3,4.6-3.5c2.8-2,6.1-2.9,9.5-2.6c2.1,0.2,4.1,0.9,6.3,1c6.2,0.3,11.6-4.1,17.5-6c4.4-1.3,9.3-1.3,13-4.1
	c1.6-1.2,2.9-3.1,2.4-5c-0.4-1.1-1-2.1-1.8-2.9c-2.1-2.7-3.3-6-4.8-9.1c-3-6.1-7.1-11.6-12.1-16.2c-3.8-3.3-7.8-6.4-12-9.1
	c-1-0.8-2.1-1.4-3.3-2c-1.5-0.5-3-1.1-4.5-1.8c-2-1.2-3.1-3.4-4.6-5.2c-3.3-3.9-8.4-5.7-12.5-8.7c-2.8-2-5.2-4.7-8.5-5.7
	c-1.6-0.5-3.3-0.5-4.9-1c-3.6-1.1-6.3-4.3-9.8-5.6c-2.8-1-5.9-0.8-8.9-1.1c-3.3-0.4-6.4-1.6-9.1-3.5c-0.9-0.7-1.9-1.3-3-1.7
	c-4.5-1.4-4.9,7-5.3,9.9C824,459.2,822.9,463.5,822.9,467.8z"/>
<path class="st9" d="M827.3,495.9c0.8,8.2-5.4,16.1-3.6,24.1c0.4,1.7,1.1,3.3,1.4,5c0.8,4.8-2.1,9.3-4.8,13.2L797,572.3
	c-0.9,1.5-2,2.9-3.3,4.1c-4.5,4-11.1,3.5-16.9,4.7c-4.1,0.8-8,2.5-11.3,5c-0.3,0.2-0.4,0.7-0.2,1c1.9,2.7,5.1,4.2,8.4,4
	c0.6,0.8,0,2-0.8,2.6c-1.3,0.9-3,1.1-3.2,3.2c-0.1,0.7,0.1,1.5,0.4,2.1c0.9,1.4,2.4,2.4,4.1,2.8c8,2.5,16.7-1.9,22.8-7.7
	s10.3-13.3,16.3-19.3c3.3-3.3,7-6.2,10.3-9.4c6.7-6.4,12-14.2,17-22c1.6-2.3,2.9-4.8,3.7-7.5c0.6-2.7,0.3-5.5,1.1-8.1
	c0.9-3.5,3.5-6.2,5.6-9.1c4.1-5.7,6.9-12.6,6.3-19.6s-4.9-13.9-11.5-16.3c-2-0.8-4.3-1-6.4-0.4c-2.7,0.8-4.7,3.1-6.5,5.2l-4.4,5.1
	c-1.1,1.1-2,2.5-2.6,3.9c-0.6,1.5-0.2,3.2,0.9,4.3"/>
<path class="st13" d="M839,462.4c-3.1,0.2-6.4,0.5-8.6,2.7c-0.9,1-1.6,2.1-2.2,3.4c-2.1,4.3-4.1,8.7-4.3,13.5
	c-0.1,3.8,1,7.5,1.5,11.3c0.5,3.1-0.7,6.3-1,9.5c3.8-1.2,8.8-2.7,12.2-4.7c2.3-1.5,4.6-2.7,7.2-3.7c3.7-1.2,9.8,0.9,13.2,2.6
	c0.2-2.4-1.6-6.7-1.4-9.1c0-1,0.2-2,0.5-3c0.5-1,1.1-2,1.8-2.9c2.7-4.4,2.3-10.1-1.1-14c-3.1-3.5-7.9-4.8-12.5-5.3
	c-2.9-0.3-5.8-0.4-8.7-0.3"/>
<linearGradient id="SVGID_1_" gradientUnits="userSpaceOnUse" x1="316.8719" y1="213.5795" x2="316.8719" y2="404.4192" gradientTransform="matrix(1 0 0 -1 -11.09 638.58)">
	<stop  offset="0" style="stop-color:#808080;stop-opacity:0.25"/>
	<stop  offset="0.54" style="stop-color:#808080;stop-opacity:0.12"/>
	<stop  offset="1" style="stop-color:#808080;stop-opacity:0.1"/>
</linearGradient>
<path class="st14" d="M386,392.4l-19.7-28.6c0,0-0.4-7.1-1.7-8.7s-0.3-5.3-0.3-5.3s1.4-2,0.2-2.2c-1.2-0.2-0.2-4.7-0.2-4.7l-0.1-7.2
	c0,0,1.1-6.9,0.2-8.5c-0.6-0.9-0.5-2.1,0.1-3c0,0,1.1-4,0-5s-0.8-7.2-0.6-12c0.3-4.9-1.9-7.6-1.9-8.4s-7.3-7.9-7.3-8.6
	c0-0.6-4.6-3.3-7.4-4s-4.1-1.3-4-1.7s-4.3-1.8-4.3-1.8s-3.9-0.3-5.4-2.2s-6-2.5-6.1-2.5l-0.1-0.4c0-0.1,0-0.3-0.1-0.4
	c0.4-0.6,0.7-1.2,1-1.8l0.3-0.6c1.6,0,3.2-0.5,4.5-1.4c1.3-1.1,2.1-2.7,2.2-4.4c0.1-1.7-0.3-3.4-1.1-4.9c-0.8-1.7-2-3.4-1.6-5.2
	c0.2-0.8,0.6-1.5,0.9-2.2c0.4-1.5,0.1-3-0.7-4.4c-0.7-1.3-1.7-2.5-2.5-3.8c-1-1.7-1.7-3.5-2-5.4c-0.1-1-0.3-2-0.7-2.9
	c-0.4-0.7-1-1.2-1.6-1.6c-2.9-2.1-6.4-3.1-9.9-3c-2.5,0.1-5,0.8-7.5,0.5c-1.5-0.3-3-0.6-4.4-1.1c-3.1-0.9-6.7-1.3-9.4,0.5
	s-3.8,5.3-5.6,8c-1.6,2.4-4,4.4-5.2,7c0,0,0-0.1,0-0.1c-0.3,0.6-0.5,1.2-0.7,1.9c-0.3,2-0.2,4.1,0.4,6.1c0.1,1.1,0.7,2,1.5,2.7
	c0.9,0.6,2.2,0.5,3.2,0.6l-0.1,0.5c-2.2,10.7,4.1,21.4,14.6,24.5c0,0.2,0,0.4,0,0.6c0,0.5,0,1.1-0.1,1.6l0,0c0,0-9.3-1.9-11.8-0.6
	c-2.5,1.3-7.4,2.3-8.1,3s-2.6,0.2-4.2,4.5s-1.8,8.7-4,10.8c-2.2,2-3.2,3.4-3.3,4.9c-0.1,1.5,0.3,1.8-0.5,2.3c-0.8,0.5-2,2.4-1.7,3.1
	c0.3,1-0.1,2.1-1,2.8c-0.9,0.6-1.4,1.7-1.3,2.8c0,0-0.6,2-1.9,2.5s-2.1,3.5-2.1,3.5L259,333l-8.3-9.2c-1.3-1.4-3.5-1.5-4.9-0.3
	l-4.1,3.7c-1.6,0.4-3,1.2-4.1,2.4c-0.9,0.9-1.6,2-2.1,3.1l-2.2,2c-1.4,1.8-1.7,4.2-0.6,6.3l5.3,5.9v0c-1.9,0.2-3.7,0.9-5.1,2.1
	c-7.9,7-8,13.4-6.8,16.4s11.2,14.3,11.2,14.3s5.8,7.6,14.3,11.6l0,0l-0.1,0.1c-0.2,0.2-0.3,0.4-0.5,0.6l-0.1,0.2l-0.1,0.2l-0.1,0.2
	c0,0.1-0.1,0.1-0.1,0.2l-0.2,0.3c0,0.1-0.1,0.1-0.1,0.2c-0.1,0.1-0.1,0.2-0.2,0.4c0,0,0,0.1-0.1,0.1c-0.1,0.2-0.2,0.3-0.2,0.5
	l-0.1,0.2c0,0.1-0.1,0.2-0.1,0.4c0,0.1-0.1,0.2-0.1,0.2l-0.1,0.4c0,0.1-0.1,0.2-0.1,0.3c0,0.1-0.1,0.3-0.1,0.4c0,0.1,0,0.2-0.1,0.3
	c0,0.1-0.1,0.4-0.1,0.7c0,0.1,0,0.2,0,0.3c0,0.1,0,0.3-0.1,0.5c0,0.2,0,0.2,0,0.3l-0.1,0.5v0.4c0,0.2,0,0.3,0,0.5s0,0.2,0,0.3
	c0,0.3,0,0.6,0,0.9c-0.2,10.8,0.5,12.3,0.5,12.3c0.8,2,2.7,3.4,4.9,3.7c0.5,0,1.1,0,1.6-0.1c4.8-0.8,16-2.8,20-2
	c2.4,0.4,6.8-0.2,9.9-0.8l0.8-0.2l0.6,1.8l1.8-0.5l1.5,0.9l1,0.6c1.8,6.2,9.2,4.1,9.2,4.1l1.8,1l17.8,0.5c2,1.2,4.1,2.2,6.3,3
	c0.3,0.1,0.6,0.2,0.9,0.2c1.7,0.1,3.3,0.2,5,0.1c1.4,0,2.4-0.1,2.4-0.1s-0.2-4.8-0.4-10.2c5.5-0.1,11-0.6,16.5-1.4
	c9.5-1.7,13.5-10.3,14.9-14.9c0.4,1.9,0.7,3.8,0.9,5.7c0.4,1.7,0.9,3.4,1.5,5c0.5,1.3,1.2,2.5,2,3.7c7-2.4,2.8-6,1.3-7.5
	c-1.5-1.5,1-2.9,1-2.9s1.9-1.3,1.8-2.5s-0.3-2.5,6-2.4C386.4,397.6,386,392.4,386,392.4z M288.7,333.7c0.1,0.5,1,6.2,1.7,7.7
	c0.2,1,0.3,2,0.2,3c-3.7-0.3-7.6-0.5-7.6-0.5c0.1,0.1,0.2,0.3,0.2,0.5l-0.6-0.1l-0.8-0.2L288.7,333.7L288.7,333.7z M275.1,355.2
	l6.4,1l0.5,0.1c-0.2,1-0.3,2-0.3,3c0,0.1,0.1,0.2,0.4,0.3c-0.1,0.5-0.1,1-0.1,1.5c0.1,0.5,3.1,1.6,6.5,2.5c0,0.2-0.1,0.4-0.1,0.5
	l0,0c-3-1.6-7.8-2.3-8.4-3.5s-16.9-6.9-16.9-6.9l-1.6-0.8l4.3,0.8l1.2-0.1C269.7,354.4,272.4,354.9,275.1,355.2z"/>
<path class="st15" d="M365,396.4c0,0-2.5,15.4-15.5,17.7c-13,2.3-56.3,1.8-56.3,1.8s-24.8-3.6-33.7-24.5c-8.9-20.9-14.7-29.2-7-29.6
	c7.7-0.4,49.1,14,51.4,14.2C306.3,376.2,367.3,344.2,365,396.4z"/>
<path class="st10" d="M365,396.4c0,0-2.5,15.4-15.5,17.7c-13,2.3-56.3,1.8-56.3,1.8s-24.8-3.6-33.7-24.5c-8.9-20.9-14.7-29.2-7-29.6
	c7.7-0.4,49.1,14,51.4,14.2C306.3,376.2,367.3,344.2,365,396.4z"/>
<path class="st11" d="M248.9,413.6c0.8,2,2.7,3.4,4.8,3.6c0.5,0,1.1,0,1.6-0.1c4.8-0.8,15.9-2.7,19.8-2c2.4,0.4,6.7-0.2,9.8-0.8
	c2.1-0.4,3.6-0.8,3.6-0.8s-3.7-12.2-4.1-12.5c-0.4-0.4-16.5-10-16.5-10l-12.7-0.9l0,0c-1.7,0.3-3.2,1.2-4.3,2.5
	c-1.3,1.6-2.5,4.3-2.6,8.6C248.3,412,248.9,413.6,248.9,413.6z"/>
<path class="st10" d="M248.9,413.6c0.8,2,2.7,3.4,4.8,3.6c-1.2-1.6-2.4-3.3-3.4-5l0.1-8.9c-0.5-4.9,1.3-9.8,5-13.1l0,0
	c0,0-6.7,0.5-6.9,11.1S248.9,413.6,248.9,413.6z"/>
<path class="st16" d="M303.8,394.2l11.8-9.2l18.5-18.3l-5-0.2c-0.8,0.5-2.9,2-2.9,3.8c-0.1,2.2-5,0.2-7.6,1.4
	c-2.6,1.3-15.1,17.3-17.3,17.2s-3.9-1.1-4.9,0.5l-0.1,0.1L303.8,394.2z"/>
<path class="st16" d="M251,392.7c0.4,0.2,0.9,0.4,1.3,0.6c9,3.8,20,11.9,20.8,13.3c0.5,0.9,6.9,4.8,11.9,7.7
	c2.1-0.4,3.6-0.8,3.6-0.8s-3.7-12.2-4.1-12.5c-0.4-0.4-16.5-10-16.5-10l-12.7-0.9l0,0C253.6,390.4,252.1,391.3,251,392.7z"/>
<path class="st15" d="M226.2,366.5c1.2,2.9,11.1,14.2,11.1,14.2s6.3,8.2,15.3,12c9,3.8,20,11.9,20.8,13.3c0.5,0.9,7.7,5.2,12.7,8.2
	l1.1,0.7l2.5,1.5l1.3,0.8c0,0,3.1-2.5,6.1-4.9c3-2.5,6-4.9,6-5s1.3-3.4,1-3.6s-0.8-1.4-1.9-2.8c-1.2-1.6-2.8-2.9-4.6-3.8
	c-2.7-1.4-4.8-3.6-6-6.3c0,0-0.4-0.3-1-0.7c-1.2-0.9-2.6-1.5-4.1-1.8c-2-0.3-5.8-4.4-5.8-4.4c-1.5-1-2.7-2.2-3.6-3.7
	c-1-2-15.1-11.7-16.4-12.6l34.3,22.1l8.2,5.3l11.8-9.2l18.5-18.3l-6.1-0.3c-9-0.4-25-1-27-0.5c-1.6,0.4-3.3,0.5-5,0.3
	c0,0-4.6,0.2-7.6-1.4s-7.8-2.3-8.3-3.5s-16.7-6.8-16.7-6.8s-22-11.7-29.9-4.8S225,363.6,226.2,366.5z"/>
<path class="st17" d="M297.1,299.5l2.8,9.4l3.7,21.2l13.4,0.9l3.8-6.4l3.9-6.4c0,0,2.4-8.6,4.2-16.8c1.5-7.3,2.5-14.5,0.9-15.2
	c-1.5-0.7-2.5-3.2-3.1-5.8c-0.1-0.3-0.1-0.7-0.2-1c-0.4-2.2-0.7-4.5-0.9-6.8c0,0-28.1-1.5-24.2,10.1c0.7,2,1.1,4.1,1.1,6.2
	c0,0.5,0,1.1-0.1,1.6C302,294,300.1,297.3,297.1,299.5z"/>
<path class="st18" d="M291.3,297.9l1,16l2.3,13.6l2.6,6.3l2.3,34.5c0,0,22,2.5,27.4,0c0.4-0.2,0.7-0.4,1-0.8
	c6.5-9.8,4.4-38.1,4.4-38.1l2.5-18.3l-1.6-9.5l-4-0.4l-3.1-0.3c0,0-0.7,0.8-1.7,2.2c-2.7,3.6-7.7,10.6-7.4,13.5
	c0.5,4-0.5,8.1-2.1,8.8c-1.6,0.6-2.8,1.7-3.1,0.6c-0.4-0.9-0.5-1.9-0.3-2.9c0.3-1.6-1.2-6.3-1.2-6.3s-2.5-5.6-2.3-7.9
	s-0.3-5.1-1-5.8s-1.7-1.3-0.9-4.2c0.8-2.9-3.6-8.6-3.6-8.6L291.3,297.9z"/>
<path class="st16" d="M320.4,337.8l0.9,27.3l5.3,2.9c0.4-0.2,0.7-0.4,1-0.8c6.5-9.8,4.4-38.1,4.4-38.1l2.5-18.3l-1.6-9.5l-4-0.4
	c1.5-7.3,2.5-14.4,0.9-15.2c-1.5-0.7-2.5-3.2-3.1-5.8l0,0l-2.9,19.3c0,0,0.2,1.7,0.3,3.5c0.1,1.1,0,2.3-0.2,3.4
	c-0.4,1.5-0.4,3.1-0.2,4.6c-1.6,2.9-2.5,8.3-2.9,13.5C320.2,331.3,320.4,337.8,320.4,337.8z"/>
<path class="st11" d="M326.6,279.6c0,0,4.6,0.6,6.1,2.5s5.3,2.2,5.3,2.2s4.4,1.5,4.3,1.8c-0.1,0.4,1.3,0.9,4,1.6s7.3,3.4,7.3,4
	s7.2,7.8,7.2,8.5s2.2,3.5,1.9,8.3c-0.3,4.8-0.5,11,0.5,12s0,4.9,0,4.9c-0.6,0.9-0.6,2-0.1,2.9c0.9,1.6-0.2,8.5-0.2,8.5l0.1,7.1
	c0,0-1,4.5,0.2,4.7s-0.2,2.2-0.2,2.2s-1,3.6,0.3,5.3c1.3,1.6,1.6,8.7,1.6,8.7l19.5,28.4c0,0,0.3,5.2-5.9,5.1
	c-6.2-0.1-6.1,1.2-5.9,2.4s-1.7,2.5-1.7,2.5s-2.5,1.3-1,2.8s5.7,5.1-1.3,7.5c-0.8-1.1-1.5-2.4-2-3.7c-0.6-1.6-1.1-3.3-1.5-4.9
	c0,0-0.6-7-1.9-7.9s-1.1-5.3-1.1-5.3s1.8-3.6-0.7-5s-39.6-22-39.6-22l-0.9-27.3c0,0-0.6-20.2,3.2-27c-0.3-1.5-0.2-3.1,0.2-4.6
	c0.6-1.6-0.1-6.9-0.1-6.9L326.6,279.6z"/>
<path class="st16" d="M302.7,290.6c0,0-9.2-1.9-11.6-0.6s-7.3,2.3-8,3c-0.7,0.7-2.5,0.2-4.2,4.5c-1.7,4.3-1.8,8.7-3.9,10.7
	s-3.2,3.4-3.3,4.8c-0.1,1.5,0.3,1.8-0.5,2.3s-2,2.4-1.6,3.1s19,16.8,19,16.8s0.9,6.1,1.7,7.7c0.8,1.5-0.9,22.9-2.7,24.4
	s12.3,1.3,12.3,1.3s0.6-14,1.2-14.8s-0.4-15.7-0.4-15.7s-0.1-12.8,1.1-16.2s1-14.6,1-14.6s1-6.7,2.3-8.3S302.7,290.6,302.7,290.6z"
	/>
<path class="st11" d="M302.4,290.3c0,0-9.2-1.9-11.6-0.6s-7.3,2.3-8,3c-0.7,0.7-2.6,0.2-4.2,4.5c-1.6,4.3-1.8,8.7-3.9,10.7
	c-2.1,2-3.2,3.4-3.3,4.8c-0.1,1.5,0.3,1.8-0.5,2.3s-2,2.4-1.6,3.1c0.4,0.7,19,16.8,19,16.8s0.9,6.1,1.7,7.7
	c0.8,1.5-0.9,22.9-2.8,24.4s12.3,1.3,12.3,1.3s0.6-14,1.2-14.8s-0.4-15.7-0.4-15.7s-0.1-12.8,1.1-16.2s1-14.6,1-14.6s1-6.7,2.3-8.3
	S302.4,290.3,302.4,290.3z"/>
<path class="st16" d="M301.5,282.6c0.7,2,1.1,4.1,1.1,6.2c9.2,2.7,19.1-1.2,24-9.5c-0.4-2.2-0.7-4.5-0.9-6.8
	C325.6,272.4,297.5,271,301.5,282.6z"/>
<path class="st17" d="M287.6,268.1c0,11.6,9.4,20.9,20.9,20.9s20.9-9.4,20.9-20.9s-9.4-20.9-20.9-20.9c-9.9,0-18.4,6.9-20.5,16.6
	C287.7,265.2,287.6,266.7,287.6,268.1z"/>
<path class="st11" d="M274.1,316.6l-5,1.5c0.3,1-0.1,2.1-1,2.7c-0.9,0.6-1.4,1.7-1.3,2.7c0,0-0.5,2-1.8,2.5
	c-1.3,0.5-2.1,3.5-2.1,3.5l-4.2,4.8c0,0-1.6,1.3-1.3,1.9s-1.6,0.8-1.6,0.8l1,16.3l8.7,1.6l5.4-0.5l4.4-1.6l3.8-2.3l1.7-4.5l7.7-11.7
	L274.1,316.6z"/>
<path class="st17" d="M257.1,338.4c0,0-11.1-16.1-19.5-7.4c-8.3,8.7,3.4,22.8,6.1,22.3c2.7-0.5,15.8-1.2,15.8-1.2L257.1,338.4z"/>
<path class="st11" d="M234.1,306.3l49.2,25.1c0.8,0.4,1.1,1.3,0.7,2.1l-19.2,37.6c-0.4,0.8-1.3,1.1-2.1,0.7l-49.2-25.1
	c-0.8-0.4-1.1-1.3-0.7-2.1L232,307C232.4,306.2,233.3,305.9,234.1,306.3z"/>
<rect x="230" y="314.5" transform="matrix(0.4546 -0.8907 0.8907 0.4546 -166.4021 406.194)" class="st13" width="37" height="49"/>
<circle class="st19" cx="225" cy="327" r="0.8"/>
<circle class="st19" cx="272.2" cy="351.2" r="1.3"/>
<path class="st17" d="M249.8,341.8c-0.1,12.1,24.8,14.6,24.8,14.6l6.4,1l2.9,0.5l1.2-11.8c0,0-1.3-0.2-2.9-0.6
	c-2.4-0.6-5.5-1.5-6.2-2.9C274.9,340.3,249.9,329.7,249.8,341.8z"/>
<path class="st16" d="M288,263.8c0.6,0,1.1,0.3,1.5,0.7c0.7,0.8,0.7,2.1,1.7,2.5c0.3,0.1,0.7,0.2,1.1,0.1c2.4-0.3,3.8-3.1,6.2-3.8
	c1.4-0.3,2.8-0.2,4.1,0.4c0.5,0.2,1,0.5,1.4,0.9c0.8,1,0.2,2.5,0.6,3.7c0.5,1.7,2.5,2.4,4.3,2.6c1.8,0.2,3.7,0.3,4.9,1.7
	c0.8,1,1.1,2.3,0.9,3.5c-0.1,0.4-0.1,0.9,0,1.3c0.5,1.4,2.9,1.2,3.5,0.1c0.5-0.8,0.3-1.4,1.4-1.7c0.8-0.1,1.5,0.1,2.2,0.4
	c1.9,0.6,3.8,0.9,5.8,0.9c4.9-10.5,0.4-22.9-10.1-27.8s-22.9-0.4-27.8,10.1C288.9,260.7,288.4,262.2,288,263.8L288,263.8z"/>
<path class="st11" d="M314.5,276.8c-0.1-0.4-0.1-0.9,0-1.3c0.2-1.2-0.1-2.5-0.9-3.5c-1.2-1.3-3.1-1.5-4.9-1.7s-3.8-0.9-4.3-2.6
	c-0.4-1.2,0.2-2.7-0.6-3.7c-0.4-0.4-0.8-0.7-1.4-0.9c-1.3-0.6-2.7-0.7-4.1-0.4c-2.3,0.8-3.7,3.5-6.2,3.8c-0.4,0.1-0.7,0-1.1-0.1
	c-0.9-0.5-1-1.8-1.7-2.5c-1.1-1.2-3.2-0.4-4.6-1.3c-0.8-0.7-1.3-1.7-1.5-2.7c-0.6-2-0.7-4-0.4-6.1c0.8-3.4,3.8-5.7,5.8-8.6
	c1.8-2.7,2.8-6.1,5.5-7.9s6.2-1.4,9.3-0.5c1.4,0.5,2.9,0.9,4.3,1.1c2.5,0.3,5-0.4,7.4-0.5c3.5-0.1,7,0.9,9.8,3
	c0.6,0.4,1.2,1,1.6,1.6c0.4,0.9,0.7,1.9,0.7,2.9c0.3,1.9,0.9,3.7,1.9,5.3c0.8,1.3,1.7,2.5,2.4,3.8c0.8,1.3,1,2.9,0.7,4.3
	c-0.2,0.8-0.7,1.4-0.9,2.2c-0.4,1.8,0.8,3.5,1.6,5.1c0.8,1.5,1.1,3.2,1.1,4.9c-0.1,1.7-0.9,3.3-2.2,4.4c-1.4,0.9-3,1.4-4.6,1.4
	c-2,0.1-4-0.2-5.9-0.9c-0.7-0.3-1.5-0.4-2.2-0.4c-1.1,0.2-0.9,0.9-1.4,1.7C317.4,278,315,278.2,314.5,276.8z"/>
<path class="st16" d="M303.3,394.7l11.8-9.2l18.5-18.3l-6.1-0.3c-0.7,0.6-1.2,1.5-1.3,2.5c-0.1,2.2-5,0.1-7.6,1.4
	c-2.6,1.3-15.1,17.3-17.3,17.2s-3.9-1.1-4.9,0.4l-0.1,0.1c-0.4,0.4-0.9,0.7-1.4,0.8L303.3,394.7z"/>
<path class="st15" d="M279.5,394.1l5.9,18.9l0.9,3l2.8-0.8l6.2-1.7l27.7-7.6c3.5-0.2,6.9-1.1,10-2.7c5.2-2.9,11.2-4.2,17.2-3.8
	c3.7,0.3,7.7-1.2,11.1-7.5c0,0,7.7-22.6-11.7-29.1s-20.3,3.5-20.3,3.5l-0.3,0.2c-0.8,0.5-2.9,2-2.9,3.8c-0.1,2.2-5,0.2-7.6,1.4
	c-2.6,1.3-15.1,17.3-17.3,17.2s-3.9-1.1-4.9,0.5l-0.1,0.1c-0.7,0.9-2.7,1.1-4.1,1.2c-0.4,0-0.8,0-1.3,0l-0.2,0l-1.4,0.4L279.5,394.1
	z"/>
<path class="st16" d="M281.1,357.4l2.9,0.5l1.2-11.8c0,0-1.3-0.2-2.9-0.6C282.6,347.1,281.6,353.5,281.1,357.4z"/>
<path class="st16" d="M355.8,302.3c0,0,8.5-2.5,6.4,21.6c-1.5,14.7-7.7,28.6-17.8,39.4c0,0-18.1,7.9-26.2,6.7
	c-8.1-1.3-14.1-1.5-14.1-1.5c-2.6-1.3-5.4-2-8.2-2.2c-4.6-0.2-14.1-3-14.3-3.9s2.4-14.3,1.3-15.3c0,0,12.8,0.5,14.1,1.4
	c1.3,0.9,3.1,0.3,4.5,0c1.4-0.3,5.6-3.9,13.9-0.7c0,0,2.8,0.3,3.9-0.5c0.9-0.4,1.9-0.5,2.9-0.2c0.7-0.2,1.4-0.6,2-1
	c0.3-0.4,2.5,0,2.5,0c0.5,0.2,1.1,0,1.3-0.5c0,0,0-0.1,0-0.1c0.3-0.7,0.7-1.4,1.3-2c0,0,2.5-13.9,7.1-19.1c0.8-0.7,1.1-1.7,1-2.7
	C336.8,320.2,344.8,299.4,355.8,302.3z"/>
<path class="st11" d="M355.5,300.5c0,0,8.5-2.5,6.4,21.6c-1.5,14.7-7.7,28.6-17.8,39.4c0,0-18.1,8-26.2,6.7
	c-8.1-1.3-14.1-1.6-14.1-1.6c-2.6-1.3-5.4-2-8.2-2.2c-4.6-0.2-14.2-3-14.3-3.9s2.4-14.3,1.3-15.4c0,0,12.8,0.5,14.1,1.5
	c1.3,0.9,3.1,0.3,4.5,0s5.6-3.9,13.9-0.7c0,0,2.8,0.3,3.9-0.5c0.9-0.4,1.9-0.5,2.9-0.2c0.7-0.2,1.4-0.6,2-1c0.3-0.4,2.5,0,2.5,0
	c0.5,0.2,1.1,0,1.3-0.5c0,0,0-0.1,0-0.1c0.3-0.7,0.7-1.4,1.3-2c0,0,2.5-13.9,7.1-19.1c0.8-0.7,1.1-1.7,1-2.6
	C336.6,318.4,344.6,297.6,355.5,300.5z"/>
<path class="st16" d="M289.6,391.1l12.1,14.6l0.1-0.1c0.1-0.3,1.3-3.4,1-3.6s-2.4-4.8-6.6-6.7c-2.1-1-3.9-2.7-5.2-4.7L289.6,391.1z"
	/>
<path class="st16" d="M289.7,416.4l1.3,0.8c0,0,3.1-2.5,6.1-4.9c3-2.5,6-4.9,6-5s1.3-3.4,1-3.6s-0.8-1.4-1.9-2.8
	c-8.2-2.3-3,3.4-2.3,3.7c0,0-10-2.3-10.5,8.6C289.4,414.1,289.5,415.3,289.7,416.4z"/>
<path class="st11" d="M299.8,421l1.7,1l17.6,0.5c2,1.2,4.1,2.2,6.2,3c0.3,0.1,0.6,0.1,0.9,0.2c1.6,0.1,3.3,0.2,4.9,0.1
	c1.4,0,2.4-0.1,2.4-0.1s-0.8-22.2-1.5-24.6c-0.3-1.1-1.8-0.9-3.2-0.3c-1.1,0.4-2.2,1-3.2,1.6c0,0-7.5,0.7-8.7,1.4
	c-1.2,0.6-4.6-0.4-6.7,0s-5.9-2.5-5.9-2.5c-10.2-3.4-4.5,2.9-3.7,3.2c0,0-10-2.3-10.5,8.6C289.8,423.8,299.8,421,299.8,421z"/>
<path class="st20" d="M325.3,412.4c0.2,4.6,3.8,10.3,5.9,13.3c1.4,0,2.4-0.1,2.4-0.1s-0.8-22.2-1.5-24.6c-0.3-1.1-1.8-0.9-3.2-0.3
	C327.1,404,325.1,408.7,325.3,412.4z"/>
<path class="st16" d="M325.3,412.4c0.2,4.6,3.8,10.3,5.9,13.3c1.4,0,2.4-0.1,2.4-0.1s-0.8-22.2-1.5-24.6c-0.3-1.1-1.8-0.9-3.2-0.3
	C327.1,404,325.1,408.7,325.3,412.4z"/>
<path class="st10" d="M322.3,413c1.2,4.4,1.2,9.4,3.1,12.4c0.3,0.1,0.6,0.1,0.9,0.2c1.6,0.1,3.3,0.2,4.9,0.1c1.4,0,2.4-0.1,2.4-0.1
	s-0.8-22.2-1.5-24.6c-0.3-1.1-1.8-0.9-3.2-0.3c-1.1,0.4-2.2,1-3.2,1.6C325.7,402.3,320.7,407.3,322.3,413z"/>
<path class="st16" d="M261.5,367.9c0,0,8.8,2.8,16.2,12.9L261.5,367.9z"/>
<g class="st21">
	<path d="M332.6,258.3c0,0.1,0,0.1,0,0.2c-0.1,0.3-0.2,0.5-0.3,0.8C332.3,258.9,332.5,258.6,332.6,258.3z"/>
	<path d="M283.1,253.9c0.1-0.6,0.4-1.3,0.7-1.8c0,0.1-0.1,0.3-0.1,0.5c-0.3,2-0.2,4.1,0.4,6.1c0.1,1.1,0.7,2,1.5,2.7
		c1.4,0.9,3.5,0.1,4.6,1.3c0.7,0.8,0.7,2.1,1.7,2.5c0.3,0.1,0.7,0.2,1.1,0.1c2.4-0.3,3.8-3.1,6.2-3.8c1.4-0.4,2.8-0.2,4.1,0.4
		c0.5,0.2,1,0.5,1.4,0.9c0.8,1,0.2,2.5,0.6,3.7c0.5,1.7,2.5,2.4,4.3,2.6c1.8,0.2,3.7,0.4,4.9,1.7c0.8,1,1.1,2.3,0.9,3.5
		c-0.1,0.4-0.1,0.9,0,1.3c0.5,1.4,2.9,1.2,3.5,0.1c0.5-0.8,0.3-1.4,1.4-1.7c0.8-0.1,1.5,0.1,2.2,0.4c1.9,0.6,3.9,1,5.9,0.9
		c1.7,0,3.3-0.5,4.6-1.4c0.6-0.5,1.1-1.1,1.4-1.7c-0.3,1.2-1,2.3-2,3.1c-1.4,0.9-3,1.4-4.6,1.4c-2,0.1-4-0.2-5.9-0.9
		c-0.7-0.3-1.5-0.4-2.2-0.4c-1.1,0.2-0.9,0.9-1.4,1.7c-0.6,1.1-3,1.3-3.5-0.1c-0.1-0.4-0.1-0.9,0-1.3c0.2-1.2-0.1-2.5-0.9-3.5
		c-1.2-1.3-3.1-1.5-4.9-1.7s-3.8-0.9-4.3-2.6c-0.4-1.2,0.2-2.7-0.6-3.7c-0.4-0.4-0.8-0.7-1.4-0.9c-1.3-0.6-2.7-0.7-4.1-0.4
		c-2.3,0.8-3.7,3.5-6.2,3.8c-0.4,0.1-0.7,0-1.1-0.1c-0.9-0.5-1-1.8-1.7-2.5c-1.1-1.2-3.2-0.4-4.6-1.3c-0.8-0.7-1.3-1.7-1.5-2.7
		C282.8,258,282.7,255.9,283.1,253.9z"/>
</g>
<path class="st16" d="M334,327c-1.7,2.3-3.6,4.4-5.1,6.7c-1.6,2.3-2.4,5.2-2.2,8c1.5-1.6,2.2-3.8,3.2-5.7c1.6-3.3,4.1-6.2,6.1-9.2
	c0.4-0.6,2.9-4,1.6-4.1C336.7,322.5,334.6,326.2,334,327z"/>
<path class="st22" d="M343,541c1.2,3.9,2.4,7.8,3.9,11.5c2.7,6.6,6.1,12.8,10.2,18.6c2.6,3.8,5.4,7.5,8.4,11.1
	c3.8,4.4,8,8.9,9.3,14.5c0.8,3.3,0.5,6.7,0.8,10s1.4,6.9,4.1,8.9c1.9,1.4,4.4,1.9,6.8,2.2c1.7,0.3,3.8,0.4,4.7-1.1
	c0.3-0.6,0.5-1.3,0.5-1.9l0.4-4.9c0.1-1.1,0.5-2.4,1.5-2.5s1.6,1.4,2.5,2c1.2,0.8,3,0,3.7-1.3c0.5-1.4,0.6-2.9,0.1-4.3
	c-1.5-5.6-5.3-10.4-10.5-13c-1.8-0.7-3.5-1.6-5.1-2.7c-1.6-1.4-3-3.1-4-5.1c-9.3-15.3-18.6-30.6-25.2-47.3c-1.3-3-2.2-6.1-2.6-9.3
	c-0.3-3.3,0.2-6.6,0.4-9.8c0.4-5.9-0.2-11.8-1.6-17.5c-0.3-1.5-0.9-2.9-1.7-4.3c-2.7-4.1-9-4.7-13-1.9c-3,2.3-4.9,5.7-5.2,9.5
	c-0.3,3.3,1.6,6.8,2.6,9.8C337.1,521.9,340.1,531.4,343,541z"/>
<path class="st10" d="M343,541c1.2,3.9,2.4,7.8,3.9,11.5c2.7,6.6,6.1,12.8,10.2,18.6c2.6,3.8,5.4,7.5,8.4,11.1
	c3.8,4.4,8,8.9,9.3,14.5c0.8,3.3,0.5,6.7,0.8,10s1.4,6.9,4.1,8.9c1.9,1.4,4.4,1.9,6.8,2.2c1.7,0.3,3.8,0.4,4.7-1.1
	c0.3-0.6,0.5-1.3,0.5-1.9l0.4-4.9c0.1-1.1,0.5-2.4,1.5-2.5s1.6,1.4,2.5,2c1.2,0.8,3,0,3.7-1.3c0.5-1.4,0.6-2.9,0.1-4.3
	c-1.5-5.6-5.3-10.4-10.5-13c-1.8-0.7-3.5-1.6-5.1-2.7c-1.6-1.4-3-3.1-4-5.1c-9.3-15.3-18.6-30.6-25.2-47.3c-1.3-3-2.2-6.1-2.6-9.3
	c-0.3-3.3,0.2-6.6,0.4-9.8c0.4-5.9-0.2-11.8-1.6-17.5c-0.3-1.5-0.9-2.9-1.7-4.3c-2.7-4.1-9-4.7-13-1.9c-3,2.3-4.9,5.7-5.2,9.5
	c-0.3,3.3,1.6,6.8,2.6,9.8C337.1,521.9,340.1,531.4,343,541z"/>
<path class="st23" d="M284.7,704.3c1.8,0.6,3.7,0.9,5.6,0.7c0.1-1.6,2.2-1.9,3.8-1.8c0.8,0,1.5,0.1,2.2,0.5c0.4,0.3,0.7,0.6,1.1,0.9
	c0.7,0.4,1.4,0.6,2.2,0.6l8.1,0.7c3.6,0.3,7.4,0.6,10.8-0.7c0.7-0.2,1.3-0.6,1.7-1.2c0.9-1.3,0-3.2-1.3-4.2s-2.9-1.4-4.2-2.4
	c-2.8-2.2-3.2-6.2-4.7-9.4c-1.1-2-2.4-3.9-3.9-5.6c-1.1-1.5-2.4-2.8-3.8-3.9c-3.3-2.3-7-2.3-10.8-2.6c-2.7-0.2-5.2-0.4-7.2,2
	c-2.4,3-1.4,9-1.3,12.5C283.3,695,283.8,699.7,284.7,704.3z"/>
<path class="st10" d="M284.7,704.3c1.8,0.6,3.7,0.9,5.6,0.7c0.1-1.6,2.2-1.9,3.8-1.8c0.8,0,1.5,0.1,2.2,0.5c0.4,0.3,0.7,0.6,1.1,0.9
	c0.7,0.4,1.4,0.6,2.2,0.6l8.1,0.7c3.6,0.3,7.4,0.6,10.8-0.7c0.7-0.2,1.3-0.6,1.7-1.2c0.9-1.3,0-3.2-1.3-4.2s-2.9-1.4-4.2-2.4
	c-2.8-2.2-3.2-6.2-4.7-9.4c-1.1-2-2.4-3.9-3.9-5.6c-1.1-1.5-2.4-2.8-3.8-3.9c-3.3-2.3-7-2.3-10.8-2.6c-2.7-0.2-5.2-0.4-7.2,2
	c-2.4,3-1.4,9-1.3,12.5C283.3,695,283.8,699.7,284.7,704.3z"/>
<path class="st12" d="M288,546.4c-2.5,0.8-3.6,3.9-3.1,6.5s2,4.8,3.3,7.1c3.6,6.5,5.2,13.9,8.2,20.6c2.3,5,5.3,9.7,7.6,14.8
	s3.6,10.8,2.3,16.1c-0.7,2.6-1.9,5-2.8,7.6c-0.8,2.8-1.4,5.7-1.6,8.5c-1.1,9.8-1.3,19.8-0.6,29.7c0,1.2,0.3,2.4,0.7,3.5
	c0.5,1,1.4,2,1,3c-0.2,0.4-0.5,0.7-0.7,1.1c-0.5,1.1,0.5,2.3,1.5,3.1c-0.3,0.6-0.9,1.1-1.6,1.2c1.4,0.9,2,2.6,1.6,4.2
	c-0.8,0.1-0.9,1.4-0.4,2.1s1.4,1.1,1.8,1.9c0.5,1.3-0.2,2.7-1.4,3.3c-1.2,0.5-2.6,0.6-3.9,0.3c-2.2-0.3-4.4-0.8-6.5-1.4
	c-2.3-0.5-3.9-2.5-3.8-4.9c-0.5-4.1-0.6-8.2-0.5-12.3c0.4-19.8,0-39.7-0.9-59.5c-0.4-8-2.8-15.8-5.8-23.1c-1.7-3.8-3.6-7.4-5.7-11
	c-4.5-8.2-8.4-17.2-7.4-26.5c0.1-1,0.5-2.2,1.5-2.3c0.4,0,0.8,0,1.1,0.2c2.1,1,4,2.1,6,3.3C280.8,545.2,284.4,546.2,288,546.4z"/>
<path class="st10" d="M288,546.4c-2.5,0.8-3.6,3.9-3.1,6.5s2,4.8,3.3,7.1c3.6,6.5,5.2,13.9,8.2,20.6c2.3,5,5.3,9.7,7.6,14.8
	s3.6,10.8,2.3,16.1c-0.7,2.6-1.9,5-2.8,7.6c-0.8,2.8-1.4,5.7-1.6,8.5c-1.1,9.8-1.3,19.8-0.6,29.7c0,1.2,0.3,2.4,0.7,3.5
	c0.5,1,1.4,2,1,3c-0.2,0.4-0.5,0.7-0.7,1.1c-0.5,1.1,0.5,2.3,1.5,3.1c-0.3,0.6-0.9,1.1-1.6,1.2c1.4,0.9,2,2.6,1.6,4.2
	c-0.8,0.1-0.9,1.4-0.4,2.1s1.4,1.1,1.8,1.9c0.5,1.3-0.2,2.7-1.4,3.3c-1.2,0.5-2.6,0.6-3.9,0.3c-2.2-0.3-4.4-0.8-6.5-1.4
	c-2.3-0.5-3.9-2.5-3.8-4.9c-0.5-4.1-0.6-8.2-0.5-12.3c0.4-19.8,0-39.7-0.9-59.5c-0.4-8-2.8-15.8-5.8-23.1c-1.7-3.8-3.6-7.4-5.7-11
	c-4.5-8.2-8.4-17.2-7.4-26.5c0.1-1,0.5-2.2,1.5-2.3c0.4,0,0.8,0,1.1,0.2c2.1,1,4,2.1,6,3.3C280.8,545.2,284.4,546.2,288,546.4z"/>
<path class="st12" d="M254.5,522.3c-1.3-0.8-2.8-1.3-4.3-1.4c-1.8,0.1-3.3,1.3-4.7,2.4c-1.6,1.3-3.2,2.6-4.7,4.1
	c-6.2,6.6-8.3,16.1-5.6,24.7c1.5,4.4,4.2,8.3,6.8,12.1l5.4,7.8c8.2,11.8,16.5,23.7,25.1,35.2c0,0.6,0.4,1.1,0.9,1.3
	c0.3,0.1,0.7,0.1,0.9,0.3c0.1,0.2,0.1,0.3,0.1,0.5c0,0.9-0.2,1.7-0.5,2.5c-0.1,0.3-0.2,0.6-0.1,0.9c0.3,0.7,1.5,0.3,1.8,0.9
	c0.3,0.4-0.1,0.9-0.4,1.3s-0.7,0.7-0.7,1.2s0.9,1,0.9,1.6c0,0.3-0.3,0.6-0.5,0.9c-0.6,0.9-0.5,2.1,0.3,2.8c0.6,5.6-2.5,11-3.1,16.6
	c-1,8.9,3,17.5,3.5,26.5c0,1,0.2,2,0.6,2.9c0.8,1.5,3,2.5,2.9,4.2c-0.2,0.7-0.4,1.4-0.6,2.1c-0.2,1,0.3,2,0.3,3s-0.9,2.2-1.8,1.8
	c0.7,2.4,1.3,4.7,1.9,7.1l18.9,1.6c0.2-1.7,0.1-3.4-0.2-5.1c-0.4-1.8-1.2-3.5-1.6-5.3c-0.6-1.8-0.3-3.8,0.7-5.3
	c-1,0-1.9-0.7-2.1-1.7c-0.2-1-0.1-2,0-2.9c0.5-4.9-1.6-9.8-1.5-14.7c0.1-3.9,1.4-7.7,2.1-11.5c1.5-8.2-0.1-17.1,3.6-24.6
	c2.2-4.5,5.3-9.5,2.8-13.9c-1.2-2.2-3.4-3.6-4.8-5.7c-1.1-1.9-2-4-2.6-6.2c-2.9-9-7.6-17.4-11.8-25.9c-1.1-2.1-2-4.4-2.5-6.8
	c-0.3-2.1-0.4-4.2-0.3-6.3c0-3.8-0.2-7.5-0.7-11.3c-0.1-1.6-0.6-3.2-1.4-4.7c-0.8-1.1-1.8-2-3-2.7
	C268.6,528.2,261.2,525.8,254.5,522.3z"/>
<path class="st23" d="M277.1,711.3c1.8,0.6,3.7,0.8,5.6,0.7c0.1-1.6,2.2-1.9,3.8-1.8c0.8,0,1.5,0.1,2.2,0.5c0.4,0.3,0.7,0.6,1.1,0.9
	c0.7,0.4,1.4,0.6,2.2,0.6l8.1,0.7c3.6,0.3,7.4,0.6,10.8-0.7c0.7-0.2,1.3-0.6,1.7-1.2c0.9-1.3,0-3.2-1.3-4.2s-2.9-1.4-4.2-2.4
	c-2.8-2.2-3.2-6.2-4.7-9.4c-1-2-2.4-3.9-3.9-5.6c-1.1-1.5-2.4-2.8-3.8-3.9c-3.3-2.4-7-2.3-10.8-2.7c-2.7-0.2-5.3-0.4-7.2,2
	c-2.4,3-1.4,9-1.3,12.5C275.7,702,276.2,706.6,277.1,711.3z"/>
<circle class="st22" cx="360.9" cy="470.8" r="18.7"/>
<path class="st22" d="M343.2,476.4c-2.7,2.3-6.5,2.5-10,2.8c-7.5,0.8-14.9,2.9-21.6,6.3c-0.9,0.4-1.8,1-2.5,1.7
	c-0.6,0.8-1,1.7-1.3,2.7c-0.6,2.1-0.9,4.3-0.7,6.5c0.2,2.1,0.9,4.2,1.8,6.1c2.6,5.4,6.6,10,11.6,13.2c0.9,0.7,1.9,1.1,2.9,1.4
	c2.5,0.5,4.8-0.9,7.3-1.5c2.2-0.6,4.5-0.5,6.7,0.2c2,0.7,4.2,1.9,6.2,1.1c1.3-0.7,2.3-1.8,2.8-3.2c1.9-3.6,3.6-7.3,5.1-11.1
	c0.5-1.5,1.2-2.9,1.9-4.4c2.2-4.1,5.9-7.3,7.8-11.6c0.4-0.7,0.5-1.5,0.2-2.2c-0.3-0.5-0.8-0.8-1.4-1c-2.8-1.6-5.3-3.6-7.5-5.9
	c-1.2-1.2-3.5-4.4-5.3-4.7C345.2,472.5,344.6,475.2,343.2,476.4z"/>
<path class="st13" d="M343.7,514.4c-2.2,1-4.7,0.6-7.1,0.1c-6.1-1.3-12.2-2.5-17.8-5.2c-1.8-0.7-3.3-1.8-4.4-3.4
	c-0.7-1.3-1.1-2.7-1.2-4.2l-1-7c-0.4-2.4,0.3-4.7,0.3-7.1c0.1-0.6-0.1-1.1-0.4-1.5c-0.3-0.3-0.8-0.4-1.2-0.4c-2.8,0-4.5,3-6.5,5
	c-1.1,1.2-2.5,2.1-4,2.7c-1.8,0.7-4,1.3-4.8,3.1c-0.3,0.8-0.3,1.6-0.6,2.3c-1.3,3-6.6,2-8,5c-0.4,0.8-0.4,1.9-1,2.5
	s-1.8,0.7-2.8,0.8c-3.9,0.6-5.8,5.2-9.1,7.3c-2.8,1.8-6.4,1.8-9.5,3.2c-1.7,0.8-3.2,2-5,2.5s-3.8,0.2-5.7,0.3
	c-0.4,0-0.8,0.1-1.1,0.4c-0.2,0.4-0.3,0.8-0.2,1.2c1.9,12,10,22.2,21.3,26.7c0.6,0.2,1.3,0.5,1.8,0.9c1.7,1.3,2,4,3.9,4.9
	c1.4,0.5,3,0.2,4.1-0.9c1.1-1,2.1-2.1,3-3.3c1.8-1.8,4.1-3.1,6.6-3.5c2.3-0.4,4.9-0.1,6.8-1.5c0.8-0.7,1.5-1.5,2.1-2.3
	c1.4-1.3,3-2.3,4.9-2.9c4.9-1.9,10.1-3.1,15.4-3.4c4.9-0.3,10,0.2,14.7-1.4c1.2-0.4,2.3-1,3.3-1.8c1-1.1,1.7-2.4,2.2-3.8
	C344.4,524.8,344.7,519.5,343.7,514.4z"/>
<path class="st13" d="M319.6,486.8c1.4-0.1,2.8,0,4.2,0c1.6,0,3.2-0.4,4.9-0.4c5.3,0.1,9.9,3.6,11.4,8.7c0.1,0.4,0.2,0.8,0.1,1.2
	c-0.1,0.4-0.5,0.7-0.9,0.6c-0.5-1.5-1.2-2.9-2.1-4.2c-1.5-2.1-3.8-3.7-6.3-4.4c-2.5-0.7-5.2-0.8-7.7-0.3c-1.1,0.2-2.1,0.5-3.1,0.8
	l-5,1.4c-0.9,0.3-1.9,0.5-2.7,0.8c-0.7,0.3-1.9,1.2-2.5,1.3c-0.9,0-0.2-0.8,0.2-1.3c0.8-1.1,2-1.9,3.3-2.4
	C315.2,487.8,317.3,487.2,319.6,486.8z"/>
<path class="st22" d="M332.2,543.1c1.2,3.9,2.4,7.8,3.9,11.5c2.7,6.6,6.1,12.8,10.2,18.6c2.6,3.8,5.4,7.5,8.4,11.1
	c3.8,4.4,7.9,8.9,9.3,14.5c0.8,3.3,0.5,6.7,0.8,10s1.4,6.9,4.1,8.9c1.9,1.4,4.4,1.8,6.8,2.2c1.7,0.3,3.8,0.4,4.7-1.1
	c0.3-0.6,0.5-1.3,0.5-1.9l0.4-4.9c0.1-1.1,0.5-2.4,1.5-2.5s1.6,1.4,2.5,2c1.2,0.8,3,0,3.7-1.3c0.5-1.4,0.6-2.9,0.1-4.3
	c-1.5-5.6-5.3-10.4-10.5-13c-1.8-0.7-3.5-1.6-5.1-2.7c-1.6-1.4-3-3.1-4-5.1c-9.3-15.3-18.6-30.6-25.2-47.3c-1.3-3-2.2-6.1-2.6-9.3
	c-0.3-3.3,0.2-6.6,0.4-9.8c0.4-5.9-0.2-11.8-1.6-17.5c-0.3-1.5-0.9-2.9-1.7-4.3c-2.7-4.1-9-4.7-13-1.9c-3,2.3-4.9,5.7-5.2,9.5
	c-0.3,3.3,1.6,6.8,2.6,9.8C326.2,524,329.2,533.5,332.2,543.1z"/>
<path class="st12" d="M388.1,457.6c0.1-1.6-1.3-3-2.8-4c-1.7-0.9-3.3-1.8-4.8-2.9c-1.4-1.2-2.2-2.8-3.6-4.1
	c-1.6-1.2-3.4-2.1-5.4-2.7c-4.2-1.5-8.5-2.2-12.9-2.3c-4.5,0-9,1-12.4,3.3c-0.8,0.5-1.5,1.2-2.1,2c-0.5,1-0.9,2-1,3.1
	c-0.8,3.4-1.9,6.6-3.2,9.8c-1.4,3.5-2.9,7.2-6.1,9.9c-3.5,2.9-8.9,4.6-11.2,8.1c-0.5,0.6-0.7,1.5-0.5,2.3c0.3,0.9,1.4,1.5,2.4,2.1
	c5.7,3.3,10.6,7.5,13.1,12.5s2.5,11-1.1,15.7c-1.3,1.7-3.1,3.8-1.9,5.5c2,2.6,8.7,1.1,10.3,3.9c0.5,0.9,0.2,1.9,0.2,2.9
	c0,2.9,2.8,5.5,6.2,6.9s7.4,1.7,11.2,1.8c1-2.3,1.1-4.9,0.3-7.3c-0.3-0.5-0.4-1.1-0.3-1.7c0.3-0.6,0.7-1.2,1.3-1.6
	c4.1-3.9,3.2-9.6,0.8-14.2s-6.3-8.8-7.7-13.7c-0.7-2.4-0.7-5.1,1.2-7.1c1.1-1,2.3-1.8,3.5-2.6c2.2-1.5,4-3.7,4.9-6.2
	c1.1-3.2,1-7,4.3-9.2c3.2-2,7.7-1.4,11.3-2.8C384.7,464,387.9,459.9,388.1,457.6z"/>
<circle class="st24" cx="591.3" cy="403.5" r="161.1"/>
<g>
	<path class="st25" d="M742.3,314.7v164c0,7.3-4.9,13.4-11.6,15.1c-1.3,0.3-2.6,0.5-4,0.5H462.4c-8.7,0-15.7-7-15.7-15.7v-164
		c0-8.7,7-15.7,15.7-15.7h264.2c1.4,0,2.7,0.2,4,0.5C737.4,301.3,742.3,307.4,742.3,314.7"/>
	<path class="st26" d="M742.3,314.7v15.6H446.7v-15.6c0-8.7,7-15.7,15.7-15.7h264.2C735.3,299,742.3,306,742.3,314.7"/>
	<rect x="464.7" y="339.7" class="st27" width="77.4" height="10.8"/>
	<polyline class="st4" points="725.3,392.9 604.4,392.9 604.4,478.7 725.3,478.7 725.3,392.9 	"/>
	<polyline class="st28" points="720.2,462.5 610.2,462.5 610.2,473.3 720.2,473.3 720.2,462.5 	"/>
	<polyline class="st29" points="623.8,441.7 610.2,441.7 610.2,452.5 623.8,452.5 623.8,441.7 	"/>
	<polyline class="st30" points="665.5,420.9 610.2,420.9 610.2,431.7 665.5,431.7 665.5,420.9 	"/>
	<polyline class="st27" points="705.2,400.1 610.2,400.1 610.2,410.8 705.2,410.8 705.2,400.1 	"/>
	<circle class="st29" cx="468.2" cy="314.6" r="9.8"/>
	<circle class="st30" cx="494.2" cy="314.6" r="9.8"/>
	<path class="st31" d="M739.1,305.3c2,2.6,3.1,5.9,3.1,9.4v15.6h-15.2c0,23.4-12.6,46-34.8,57.5c-1.4,0.6-2.7,1.2-4.1,1.7l1.8,3.5
		h35.3v85.8h-93.6l4.8,15.6h90.2c1.4,0,2.7-0.2,4-0.5c6.7-1.8,11.6-7.9,11.6-15.1v-164C742.3,311.1,741.1,307.9,739.1,305.3
		 M739.1,305.2C739.1,305.2,739.1,305.2,739.1,305.2C739.1,305.2,739.1,305.2,739.1,305.2 M739.1,305.2
		C739.1,305.2,739.1,305.2,739.1,305.2C739.1,305.2,739.1,305.2,739.1,305.2 M739.1,305.2C739.1,305.2,739.1,305.2,739.1,305.2
		C739.1,305.2,739.1,305.2,739.1,305.2"/>
	<path class="st32" d="M726.6,299H719c0.3,0.5,0.5,0.9,0.8,1.4c5,9.5,7.4,19.8,7.4,29.8h15.2v-15.6c0-3.5-1.2-6.8-3.1-9.4l0,0
		c0,0,0,0,0,0l0,0c0,0,0,0,0,0l0,0c0,0,0,0,0,0l0,0c0,0,0,0,0,0l0,0c0,0,0,0,0,0l0,0c0,0,0,0,0,0l0,0c-2.1-2.7-5-4.7-8.4-5.6
		C729.4,299.2,728,299,726.6,299"/>
	<path class="st4" d="M725.3,392.9H690l3.5,6.6c-0.3,0.2-0.7,0.3-1,0.5h12.8v10.8H611l3.1,10.1h51.5v10.8h-48.2l3.1,10.1h3.4v10.8
		h-0.2l3.1,10.1h93.4v10.8H630l1.6,5.4h93.6V392.9"/>
	<polyline class="st33" points="720.2,462.5 626.7,462.5 630,473.3 720.2,473.3 720.2,462.5 	"/>
	<polyline class="st34" points="623.8,441.7 620.4,441.7 623.7,452.5 623.8,452.5 623.8,441.7 	"/>
	<polyline class="st35" points="665.5,420.9 614,420.9 617.3,431.7 665.5,431.7 665.5,420.9 	"/>
	<path class="st31" d="M597.6,330.3h-11.2l19.1,62.7h41c-1-0.2-1.9-0.4-2.9-0.6l-0.7-0.2c-15.8-5-29.7-16-38-31.8
		C599.9,350.7,597.6,340.4,597.6,330.3"/>
	<path class="st32" d="M605.7,299h-28.8l9.5,31.2h11.2c0-6.6,1-13.1,3-19.3C601.9,306.8,603.6,302.8,605.7,299"/>
	<path class="st4" d="M646.5,392.9h-41l4.6,15.2v-8.1h35.1l2.2-7C647.1,393,646.8,393,646.5,392.9"/>
	<path class="st36" d="M705.2,400.1h-12.8c-9.3,4.6-19.2,6.8-28.9,6.8c-6.6,0-13.2-1-19.4-3l1.2-3.9h-35.1v8.1l0.8,2.7h94.2V400.1"
		/>
	<path class="st37" d="M688.2,389.4c-4,1.5-8.2,2.7-12.4,3.5H690L688.2,389.4"/>
	<path class="st38" d="M690,392.9h-14.2c-4.8,0.9-9.7,1.4-14.7,1.4c-4.6,0-9.1-0.4-13.6-1.2l-2.2,7h47.1c0.3-0.2,0.7-0.3,1-0.5
		L690,392.9"/>
	<path class="st39" d="M692.4,400.1h-47.1l-1.2,3.9c6.3,2,12.8,3,19.4,3C673.3,406.9,683.1,404.7,692.4,400.1"/>
	<path class="st38" d="M662.3,265.6c-10.1,0-20.3,2.4-29.9,7.4c-11.7,6.1-20.7,15.3-26.7,26H719c-8.4-15.1-21.9-25.6-37.2-30.4
		C675.5,266.6,668.9,265.6,662.3,265.6"/>
	<polyline class="st40" points="719,299 605.7,299 605.7,299 719,299 719,299 	"/>
	<path class="st37" d="M727.1,330.3H597.6c0,10.2,2.3,20.5,7.4,30.1c8.3,15.8,22.2,26.8,38,31.8l0.7,0.2c0.9,0.2,1.9,0.4,2.9,0.6
		h29.3c4.2-0.8,8.3-2,12.4-3.5c1.4-0.5,2.8-1.1,4.1-1.7C714.5,376.2,727.1,353.6,727.1,330.3"/>
	<path class="st41" d="M719,299H605.7c-2.1,3.8-3.8,7.8-5.1,12c-1.9,6.2-3,12.7-3,19.3h129.5c0-10.1-2.4-20.3-7.4-29.8
		C719.5,299.9,719.2,299.5,719,299"/>
	<path class="st38" d="M675.8,392.9h-29.3c0.3,0.1,0.7,0.1,1,0.2c4.5,0.8,9.1,1.2,13.6,1.2C666.1,394.3,671,393.8,675.8,392.9"/>
	<path class="st30" d="M662.3,321.6l-3.4,10.9l-16,50.9c-15.8-5-29.7-16-38-31.8c-8.3-15.9-9.3-33.5-4.4-49.4l54.3,17.1L662.3,321.6
		z"/>
	<path class="st28" d="M693.4,390.8c-4.9,2.5-9.9,4.4-15,5.6c-11.5,2.7-23.4,2.2-34.3-1.2l17.2-54.9l2.2-6.9L693.4,390.8z"/>
	<path class="st29" d="M692.3,379l-30-57.4l-7.4-2.3l-54.3-17.1c5-15.8,16-29.7,31.8-38c1.7-0.9,3.3-1.7,5-2.4
		c14.5-6.1,30.2-6.5,44.3-2c15.8,5,29.7,16,38,31.8C736.3,323.3,724,362.4,692.3,379z"/>
	<polyline class="st4" points="584.7,357.7 463.7,357.7 463.7,478.7 584.7,478.7 584.7,357.7 	"/>
	<polyline class="st42" points="498.2,413.2 474.8,413.2 474.8,471.8 498.2,471.8 498.2,413.2 	"/>
	<polyline class="st30" points="535.9,393.7 512.5,393.7 512.5,471.8 535.9,471.8 535.9,393.7 	"/>
	<polyline class="st29" points="573.6,372.2 550.2,372.2 550.2,471.8 573.6,471.8 573.6,372.2 	"/>
	<polyline class="st28" points="595.4,460 595.4,543.9 437.3,543.9 437.3,460 595.4,460 	"/>
	<polyline class="st43" points="447,534.2 447,469.7 585.6,469.7 585.6,534.2 447,534.2 	"/>
	<polyline class="st29" points="507.6,528.5 494.2,513.9 488.5,521.6 484.1,518.4 493.7,505.3 506.5,519.2 526.6,482.9 541.9,507.5 
		559.9,475.4 564.7,478.1 542.2,518.3 526.9,493.7 507.6,528.5 	"/>
	<rect x="454.2" y="480.8" class="st27" width="17.6" height="7.2"/>
	<rect x="454.2" y="498.4" class="st27" width="17.6" height="7.2"/>
	<rect x="454.2" y="515.9" class="st27" width="17.6" height="7.2"/>
	<polyline class="st33" points="595.4,460 573.6,460 550.2,460 535.9,460 512.5,460 498.2,460 497.7,460 500.7,469.7 585.6,469.7 
		585.6,534.2 520.4,534.2 523.3,543.9 595.4,543.9 595.4,460 	"/>
	<polyline class="st44" points="585.6,469.7 500.7,469.7 512.5,508.4 526.6,482.9 541.9,507.5 559.9,475.4 564.7,478.1 542.2,518.3 
		526.9,493.7 514.7,515.7 520.4,534.2 585.6,534.2 585.6,469.7 	"/>
	<polyline class="st34" points="559.9,475.4 541.9,507.5 526.6,482.9 512.5,508.4 514.7,515.7 526.9,493.7 542.2,518.3 564.7,478.1 
		559.9,475.4 	"/>
	<path class="st45" d="M693.6,519.9l5.5-13.5l16.4,16.4c1,1,2.2,1.4,3.5,1.4c1.3,0,2.5-0.5,3.5-1.4c1.9-1.9,1.9-5,0-6.9L706,499.6
		l13.5-5.5l-51.1-25.3L693.6,519.9z"/>
	<path class="st46" d="M693.6,519.9l5.5-13.5l16.4,16.4c1,1,2.2,1.4,3.5,1.4c1.3,0,2.5-0.5,3.5-1.4l-54.1-54.1L693.6,519.9z"/>
</g>
</svg>
