<svg xmlns="http://www.w3.org/2000/svg" viewBox="0 0 284.47 284.24"><defs><style>.cls-1{fill:#e01e5a;}.cls-2{fill:#36c5f0;}.cls-3{fill:#2eb67d;}.cls-4{fill:#ecb22e;}</style></defs><g id="Layer_2" data-name="Layer 2"><g id="Layer_1-2" data-name="Layer 1"><path class="cls-1" d="M60,179.69A29.87,29.87,0,1,1,30.1,149.81H60Zm14.94,0a29.87,29.87,0,1,1,59.74,0v74.68a29.87,29.87,0,0,1-59.74,0Z"/><path class="cls-2" d="M104.78,59.74a29.87,29.87,0,1,1,29.87-29.87V59.74Zm0,15.17a29.87,29.87,0,0,1,0,59.74H29.87a29.87,29.87,0,0,1,0-59.74Z"/><path class="cls-3" d="M224.49,104.78a29.88,29.88,0,1,1,29.88,29.87H224.49Zm-14.93,0a29.88,29.88,0,0,1-59.75,0V29.87a29.88,29.88,0,0,1,59.75,0Z"/><path class="cls-4" d="M179.69,224.49a29.88,29.88,0,1,1-29.88,29.88V224.49Zm0-14.93a29.88,29.88,0,1,1,0-59.75h74.9a29.88,29.88,0,1,1,0,59.75Z"/></g></g></svg>