<svg xmlns="http://www.w3.org/2000/svg" viewBox="0 0 265.34 300"><defs><style>.cls-1{fill:#06a;}.cls-2{fill:#f59e1a;}</style></defs><g id="Layer_2" data-name="Layer 2"><g id="Layer_1-2" data-name="Layer 1"><path class="cls-1" d="M4.24,134.38a8.82,8.82,0,0,0,0-1.36c-.31-2.07.82-3.25,2.46-4.18a9.51,9.51,0,0,1,3.5-1.12,6.9,6.9,0,0,1,1.7-.06H29.75a4,4,0,0,1,1.24.06,19.24,19.24,0,0,1,4.26.47c3.43,1.06,5.19,3.41,5.85,6.87.53,2.83,1.33,5.61,2,8.41q2.25,9.09,4.49,18.18c.51.28.52.82.63,1.28q7.42,30.67,14.92,61.33c2,8.15,4.1,16.26,5.85,24.46a179.6,179.6,0,0,1,3,20c.43,4.41.87,8.83,1.47,13.18.86-6.48,2-13,3.23-19.43,2-10.12,4.65-20,7.34-30s5.31-19.8,8-29.7q5.73-21.32,11.43-42.63c2.23-8.28,4.49-16.55,6.64-24.85,1.32-5.11,4.82-7.86,10.09-7.86,3.31,0,6.64-.16,9.94,0,5.9.35,11.8,0,17.69.25a10.6,10.6,0,0,1,7.69,5.19,22.9,22.9,0,0,1,1.84,5.53c1.79,6.41,3.53,12.84,5.3,19.27.07.24-.07.54.22.72a3.47,3.47,0,0,1,.75,1.64c5.09,18.56,10,37.17,15.21,55.7,2.42,8.63,5,17.21,7.13,25.91,2.27,9.22,4.33,18.49,6,27.84.75,4.27,1.26,8.58,2,12.76,1-7.72,2.23-15.51,3.54-23.28q4.09-24.31,9.78-48.3c.4-1.67.79-3.34,1.21-5a2.14,2.14,0,0,1,.61-1.32c.64-2.84,1.26-5.68,1.91-8.52.91-4,1.85-8.06,2.76-12.09,1.29-5.72,2.59-11.44,3.85-17.16.95-4.33,1.8-8.67,2.76-13,1.08-4.85,2.25-9.67,3.35-14.51a33.56,33.56,0,0,1,1.61-6.31,8.55,8.55,0,0,1,7.15-5.09c1.55-.13,3.1,0,4.66,0,5,0,10.08,0,15.12,0a4,4,0,0,1,1.25.06,10.26,10.26,0,0,1,3.88.62,6,6,0,0,1,3.42,7.49q-4,14.61-8,29.2-3.33,12.21-6.63,24.44-3.44,12.71-6.86,25.41-4.12,15.21-8.24,30.42-3.67,13.63-7.34,27.28c-1.85,6.88-3.67,13.77-5.57,20.64a9.17,9.17,0,0,1-8.73,6.56c-10.4.32-20.8.1-31.21.11a17,17,0,0,1-3.64-.05,7.58,7.58,0,0,1-6.14-5.64q-9-33.07-17.88-66.18c-3.69-13.7-7.42-27.38-11-41.1a219.6,219.6,0,0,1-5.7-31c-.24-2.1-.47-4.21-.77-6.31-.61,4.37-1.21,8.74-1.87,13.1a286.35,286.35,0,0,1-7,31.87q-12.52,46.24-24.91,92.53l-1.74,6.5c-.93,3.5-3.54,5.06-6.78,5.88a23.9,23.9,0,0,1-6.59.43c-7.51-.2-15,.09-22.52,0-2.7,0-5.4-.13-8.1-.25-3.17-.14-5.81-3-6.41-6-.49-2.42-1.27-4.77-1.91-7.15-1.13-4.16-2.24-8.33-3.37-12.49-1.22-4.44-2.47-8.87-3.69-13.31-1.15-4.19-2.27-8.39-3.42-12.57-1.22-4.44-2.48-8.87-3.7-13.31-1.37-5-2.69-10-4.07-15-1.34-4.86-2.73-9.7-4.07-14.56-1.46-5.32-2.87-10.66-4.33-16-1.13-4.09-2.32-8.17-3.44-12.27s-2.13-8.17-3.24-12.25-2.2-7.88-3.29-11.82c-.89-3.27-1.73-6.55-2.64-9.82-.51-1.81-1.09-3.61-1.46-5.47-.12-.62-.14-1.26-.21-1.89C4.25,135.31,4.5,134.82,4.24,134.38Z"/><path class="cls-2" d="M204.17,55.19a95,95,0,0,0-13-9.28A107.69,107.69,0,0,0,158.1,32.53,118.28,118.28,0,0,0,126,30a112.12,112.12,0,0,0-29.22,5.32A108.92,108.92,0,0,0,55,60.42a117.34,117.34,0,0,0-18.06,22,92.5,92.5,0,0,0-7.84,15,15,15,0,0,1-12.74,9.72,10.37,10.37,0,0,1-2.49,0,14.21,14.21,0,0,1-9.31-4.07,13.86,13.86,0,0,1-4.4-8.7c0-.19-.06-.38-.09-.57a22.7,22.7,0,0,1,0-3.4c.12-2.32,1.17-4.34,2.05-6.43,1.13-2.67,2.44-5.24,3.78-7.79,1.82-3.44,3.76-6.82,5.89-10.08,2.14-3,4.19-6.16,6.45-9.12Q48,18.06,95.35,5A138.51,138.51,0,0,1,129.84,0a143.11,143.11,0,0,1,97.34,35.55c.23.19.48.36.73.54,3,2.86,6,5.68,8.88,8.7a141.85,141.85,0,0,1,18.64,24.54A151,151,0,0,1,264,86a18,18,0,0,1,1.23,4.45,19.42,19.42,0,0,1,0,3.41,15.1,15.1,0,0,1-13.79,13.34,13,13,0,0,1-2.49,0,14.65,14.65,0,0,1-9.78-4.68,15.66,15.66,0,0,1-3-4.73c-1.35-3.18-2.88-6.25-4.53-9.29A107.54,107.54,0,0,0,225,77.75c-2.21-3.17-4.62-6.17-7.11-9.13s-5-5.46-7.65-8.08C208.35,58.64,206.21,57,204.17,55.19Z"/></g></g></svg>