<svg xmlns="http://www.w3.org/2000/svg" viewBox="0 0 471.23 477.62"><defs><style>.cls-1{fill:#eb4d1a;}.cls-2{fill:#f39577;}.cls-3{fill:#ed6033;}.cls-4{fill:#bfeafa;}.cls-5{fill:#c1ebfa;}.cls-6{fill:#c0ebfa;}.cls-7{fill:#88d8f7;}.cls-8{fill:#00adef;}</style></defs><title>Asset 15box</title><g id="Layer_2" data-name="Layer 2"><g id="Layer_1-2" data-name="Layer 1"><path class="cls-1" d="M247.66.45H237c-.31-.17-.3-.32,0-.45h10.57C248,.13,248,.28,247.66.45Z"/><path class="cls-1" d="M.45,237v10.64q-.25.47-.45,0V237Q.2,236.55.45,237Z"/><path class="cls-2" d="M233.2,0a2.82,2.82,0,0,1-3.37,0Z"/><path class="cls-2" d="M254.84,0a2.82,2.82,0,0,1-3.37,0Z"/><path class="cls-3" d="M237.05,0c0,.15,0,.3,0,.45-1,0-2,.27-2.85-.45Z"/><path class="cls-3" d="M247.66.45c0-.15,0-.3,0-.45h2.89C249.65.72,248.63.42,247.66.45Z"/><path class="cls-2" d="M0,229.83a2.16,2.16,0,0,1,0,2.88Z"/><path class="cls-3" d="M.45,237,0,237v-2.88C.71,235,.43,236,.45,237Z"/><path class="cls-3" d="M0,247.62l.45,0c0,1,.26,2-.45,2.85Z"/><path class="cls-2" d="M0,252a2.16,2.16,0,0,1,0,2.88Z"/><path class="cls-4" d="M1.13,235.32a2.83,2.83,0,0,1,.87,0,15.74,15.74,0,0,1,0,15.62,6.55,6.55,0,0,1-.89,0Z"/><path class="cls-5" d="M224.59,8.59a3.46,3.46,0,0,0,0-.91h9.31a1.14,1.14,0,0,1-.43,1.6C230.43,10.43,227.4,10.92,224.59,8.59Z"/><path class="cls-6" d="M248.43,7.68a5.26,5.26,0,0,0,0,.89c-2.81,2.37-5.84,1.86-8.93.72a1.14,1.14,0,0,1-.43-1.61Z"/><path class="cls-7" d="M239.12,7.68a3.94,3.94,0,0,0,0,.91c-1.77,1.63-3.53,1.65-5.29,0a6.4,6.4,0,0,0,.06-.88Z"/><path class="cls-8" d="M467.35,201C447.78,92.88,357.68,14.42,248.48,8.57l-9.31,0-5.29,0-9.29,0c-37.26,1.95-72.49,11.5-104.47,30.7C46.27,83.63,6.87,149.15,2,235.27l0,15.62a228.3,228.3,0,0,0,8,53.5C43.78,425.91,163.83,498.91,287,472.08A233.78,233.78,0,0,0,467.35,201Zm-205,115.76c-22.39,6.84-55.71,2.27-74.52-33-6.07,12.15-14.57,21.8-26.43,28.19a61.24,61.24,0,0,1-90.7-53.35c-.44-33.78-.14-67.57,0-101.36,0-9.69,6.39-16.22,15.16-16.05,8.47.16,14.46,6.77,14.48,16.14,0,15.84,0,31.67,0,48.08,34.13-18.21,71.73-5,87.67,27.18,16.77-32.5,49.08-40.22,73.17-33.17a61.56,61.56,0,0,1,44.19,58.46C305.56,284.52,287.67,309,262.35,316.73ZM374.77,261c10.61,11.78,20.94,23.8,31.42,35.7,2.8,3.18,4.95,6.59,5.08,11a14.66,14.66,0,0,1-8.74,14,14.26,14.26,0,0,1-16.94-3.7Q370.41,301,355.64,283.74c-2.44-2.88-3.65-3.49-6.41-.19-9.3,11.09-19,21.85-28.5,32.77-6.64,7.62-15.58,8.85-22.25,3s-6.72-14.78-.05-22.44c10.4-12,20.74-24,31.37-35.73,2.59-2.86,2.35-4.44-.08-7.14q-16.38-18.27-32.37-36.89c-4.87-5.64-5.22-13-1.23-18.59a14.81,14.81,0,0,1,17-5.36,17.64,17.64,0,0,1,7.37,5.48c9.74,11.18,19.61,22.24,29.16,33.57,2.47,2.93,3.49,2.22,5.57-.22,9.86-11.52,19.87-22.92,29.9-34.29A14.76,14.76,0,0,1,411.3,207c0,4.6-2.09,8.18-5.05,11.53-10.51,11.87-20.81,23.91-31.4,35.71C372.54,256.81,372.35,258.29,374.77,261Z"/><path class="cls-8" d="M244,226.61a31.7,31.7,0,1,1,.12,63.39,31.7,31.7,0,1,1-.12-63.39Z"/><path class="cls-8" d="M163.72,258.42a31.71,31.71,0,1,1-63.41-.36,31.71,31.71,0,0,1,63.41.36Z"/></g></g></svg>