<?xml version="1.0" encoding="UTF-8"?>
<svg id="Layer_2" data-name="Layer 2" xmlns="http://www.w3.org/2000/svg" viewBox="0 0 56.59 56.59">
  <defs>
    <style>
      .cls-1 {
        fill: #0047bb;
      }

      .cls-2 {
        fill: #0068da;
      }

      .cls-3 {
        fill: #d22730;
      }
    </style>
  </defs>
  <g id="Layer_1-2" data-name="Layer 1">
    <path class="cls-1" d="M6.54,19.8h30.24V0h-14.24c-.85,0-1.65,.34-2.25,.93L5.04,16.18c-1.34,1.34-.38,3.63,1.5,3.63Z"/>
    <path class="cls-2" d="M36.78,49.94V0h17.7c1.17,0,2.1,.85,2.1,2.02v31.91c0,.85-.34,1.65-.93,2.25l-15.25,15.25c-1.34,1.35-3.63,.4-3.63-1.5Z"/>
    <path class="cls-3" d="M17.69,36.77c1.17,0,2.13,.95,2.13,2.13v15.56c0,1.17-.95,2.13-2.13,2.13H2.13c-1.17,0-2.13-.95-2.13-2.13v-15.56c0-1.17,.95-2.13,2.13-2.13h15.56Z"/>
  </g>
</svg>