<?xml version="1.0" encoding="utf-8"?>
<!-- Generator: Adobe Illustrator 26.4.1, SVG Export Plug-In . SVG Version: 6.00 Build 0)  -->
<svg version="1.1" id="Layer_1" xmlns="http://www.w3.org/2000/svg" xmlns:xlink="http://www.w3.org/1999/xlink" x="0px" y="0px"
	 viewBox="0 0 8192 8192" style="enable-background:new 0 0 8192 8192;" xml:space="preserve">
<style type="text/css">
	.st0{fill:#0047BB;}
	.st1{fill:#0068DA;}
	.st2{fill:#D22730;}
</style>
<path class="st0" d="M998.8,2887h4305.7V67.3H3277.4c-120.8,0-235,48-321,132.4l-2171,2171C595.1,2561,730.7,2887,998.8,2887z"/>
<path class="st1" d="M5304.5,7177.7V67.3h2520.2c167.1,0,299.5,120.8,299.5,287.9v4543.9c0,120.8-48,235-132.4,321l-2171,2171
	C5630.5,7583.1,5304.5,7447.5,5304.5,7177.7z"/>
<path class="st2" d="M2585.7,5302.9c167.1,0,302.8,135.7,302.8,302.8v2215.7c0,167.1-135.7,302.8-302.8,302.8H370
	c-167.1,0-302.8-135.7-302.8-302.8V5605.7c0-167.1,135.7-302.8,302.8-302.8H2585.7z"/>
</svg>
