<?xml version="1.0" encoding="UTF-8"?>
<svg id="Layer_2" data-name="Layer 2" xmlns="http://www.w3.org/2000/svg" viewBox="0 0 500 500">
  <defs>
    <style>
      .cls-1 {
        fill: #f2f2f2;
      }
    </style>
  </defs>
  <g id="Layer_1-2" data-name="Layer 1">
    <g>
      <circle cx="250" cy="250" r="250"/>
      <g>
        <path class="cls-1" d="M218.68,180.98c-14.1,0-28.21-.04-42.31,.05-1.86,.01-2.37-.48-2.29-2.31,.15-3.6,.16-7.21,0-10.81-.08-1.87,.48-2.3,2.31-2.29,22.25,.07,44.51,.04,66.76,.04,6.11,0,12.22,.05,18.34-.04,1.47-.02,1.85,.38,1.81,1.83-.1,3.84-.12,7.68,0,11.52,.06,1.66-.42,2.07-2.06,2.06-14.18-.07-28.37-.04-42.55-.04Z"/>
        <path class="cls-1" d="M301.6,135.37c-55.25,0-110.51,0-165.76,0-1.1,0-2.19,0-3.29,.05-1.74,.09-2.99,.81-3.46,2.6v222.95c.46,1.79,1.73,2.5,3.47,2.6,1.1,.06,2.19,.05,3.29,.05,55.25,0,110.51,0,165.76,0,6.73,0,7.45-.71,7.45-7.38,0-71.17,0-142.33,0-213.5,0-6.66-.72-7.37-7.46-7.37Zm-133.07,28.48c0-3.01,.77-3.81,3.7-3.81,30.96,0,61.92,0,92.87,0,2.96,0,3.73,.79,3.74,3.78,.01,6.19,0,12.38,0,18.58,0,3.56-.62,4.15-4.3,4.15-15.28,0-30.57,0-45.85,0-15.36,0-30.72,0-46.08,0-3.44,0-4.08-.65-4.09-4.12,0-6.19-.01-12.38,0-18.58Zm66.19,167.64c-4.92,2.46-9.96,4.55-15.58,4.67-4.16,.09-7.46-1.4-9.45-5.41-4.63,3.92-9.77,6.39-15.72,6.95-4.42,.42-8.75-.02-12.92-1.64-2.17-.84-4.09-2.06-5.04-4.3-.45-1.06-.96-.83-1.79-.52-3.58,1.34-7.21,2.57-10.8,3.88-1.88,.69-3.29,.27-3.95-1.65-.69-2,.44-3.01,2.23-3.65,4.11-1.48,8.18-3.08,12.29-4.58,1.19-.43,1.86-1.08,2.22-2.39,.78-2.83,2.16-5.38,4.52-7.25,2.38-1.88,5.04-2.51,7.91-1.37,3.43,1.36,4.28,4.8,1.9,7.61-2.12,2.5-4.98,4-7.76,5.59-.69,.4-1.87,.36-1.85,1.49,.02,1.3,1.23,1.52,2.15,1.84,8.79,3.09,16.62,1.42,23.49-4.83,.98-.89,1.86-1.91,2.76-2.89,.87-.94,1.87-1.44,3.14-.95,1.32,.51,1.97,1.49,1.85,2.93-.03,.31-.05,.63-.05,.94,0,2.87,1.33,4.34,4.22,4.55,3.46,.25,6.62-.95,9.76-2.18,1.38-.54,2.71-1.2,4.07-1.8,1.62-.72,2.79-.06,3.51,1.34,.75,1.46,.4,2.84-1.1,3.59Zm37.08-89.19c-.74,.18-1.56,.1-2.34,.1-33.85,0-67.71,0-101.56,0-.78,0-1.6,.08-2.34-.1-1.48-.36-2.23-1.41-2.11-2.95,.11-1.42,.92-2.31,2.35-2.51,.69-.1,1.41-.04,2.11-.04,16.93,0,33.85,0,50.78,0s33.85,0,50.78,0c.71,0,1.42-.06,2.11,.04,1.43,.2,2.24,1.11,2.34,2.52,.12,1.53-.64,2.58-2.12,2.94Zm2.12,27.41c0,1.65-.94,2.6-2.58,2.79-.62,.07-1.25,.03-1.88,.03-33.85,0-67.71,0-101.56,0-.63,0-1.26,.04-1.88-.03-1.64-.19-2.58-1.12-2.57-2.79,0-1.66,.92-2.61,2.58-2.77,.62-.06,1.25-.02,1.88-.02,16.93,0,33.85,0,50.78,0s33.85,0,50.78,0c.63,0,1.26-.04,1.88,.02,1.66,.16,2.57,1.14,2.58,2.78Zm-2.35,32.88c-.69,.11-1.41,.05-2.11,.05-17.01,0-34.01,0-51.02,0s-33.7,0-50.54,0c-.7,0-1.42,.06-2.11-.06-1.52-.26-2.34-1.21-2.35-2.76,0-1.55,.84-2.49,2.35-2.76,.69-.12,1.41-.06,2.11-.06,33.85,0,67.71,0,101.56,0,.7,0,1.42-.06,2.11,.06,1.51,.26,2.36,1.22,2.35,2.76,0,1.53-.83,2.5-2.35,2.75Zm.37-90.41c-.74,.19-1.56,.12-2.34,.12-17,0-34.01,0-51.01,0s-34.16,0-51.24,0c-1.71,0-3.39-.04-3.92-2.12-.47-1.82,.58-3.28,2.46-3.49,.62-.07,1.25-.03,1.88-.03,33.93,0,67.85,0,101.78,0,.7,0,1.42-.05,2.11,.04,1.42,.19,2.23,1.03,2.35,2.48,.13,1.55-.59,2.6-2.07,2.98Z"/>
        <path class="cls-1" d="M320.44,247.43c0-23.2,.02-46.39-.05-69.59,0-1.87,.51-2.28,2.31-2.27,13.63,.08,27.27,.04,40.9,.05,4.48,0,6.29,1.8,6.29,6.25,0,15.99,.01,31.97,0,47.96,0,4.07-2.49,6.27-6.22,5.61-2.58-.45-4.03-2.34-4.04-5.49-.03-8.31-.01-16.61-.01-24.92,0-5.72-.03-11.44,.02-17.16,.01-1.37-.12-2.05-1.83-2.04-5.79,.03-5.79-.05-5.79,5.8-.02,41.69-.07,83.38,0,125.07,0,2.47-.72,2.91-2.99,2.88-8.77-.14-17.55-.11-26.33,0-1.86,.02-2.31-.48-2.3-2.31,.06-23.27,.04-46.55,.04-69.83Z"/>
        <path class="cls-1" d="M336.2,170.01c-4.7,0-9.41-.05-14.11,.03-1.34,.02-1.71-.36-1.68-1.69,.09-4-.01-7.99,.05-11.99,.09-6.46,4.24-11.4,10.61-12.38,3.48-.54,7.04-.55,10.53,.05,5.88,1.01,10.12,5.76,10.35,11.68,.17,4.3-.01,8.62,.1,12.93,.04,1.49-.75,1.39-1.74,1.38-4.7-.02-9.4,0-14.11,0Z"/>
        <path class="cls-1" d="M321.49,325.14h25.05q4.44,0,2.72,3.98c-3.33,7.75-6.66,15.49-9.98,23.24-.61,1.42-1.27,2.82-3.04,2.84-1.76,.02-2.48-1.31-3.09-2.76-3.62-8.47-7.28-16.92-10.92-25.39-.24-.56-.44-1.14-.74-1.92Z"/>
      </g>
    </g>
  </g>
</svg>