<?xml version="1.0" encoding="UTF-8"?>
<svg id="Layer_2" data-name="Layer 2" xmlns="http://www.w3.org/2000/svg" viewBox="0 0 500 500">
  <defs>
    <style>
      .cls-1 {
        fill: #f2f2f2;
      }
    </style>
  </defs>
  <g id="Layer_1-2" data-name="Layer 1">
    <g>
      <circle cx="250" cy="250" r="250"/>
      <g>
        <path class="cls-1" d="M254.63,118.77c2.31,.5,4.63,.93,6.92,1.5,24.61,6.18,40.71,27.88,39.46,53.16-1.55,31.63-32.73,54.73-63.47,47.03-35-8.77-50.7-48.28-31-78.45,8.39-12.85,20.51-20.29,35.69-22.7,.74-.12,1.45-.36,2.18-.55,3.4,0,6.81,0,10.21,0Z"/>
        <path class="cls-1" d="M249.41,380.22c-26.72,0-53.44,.02-80.16,0-9.8,0-17.1-5.37-19.52-14.41-.52-1.95-.72-4.03-.72-6.05-.05-22.97-.2-45.95,.03-68.92,.16-16.51,6.5-30.05,20.63-39.35,6.44-4.24,13.89-5.32,21.27-6.54,5.2-.86,10.42-1.58,15.62-2.4,4.41-.7,5.78,.07,7.31,4.29,9.84,26.97,19.67,53.94,29.51,80.91,.38,1.04,.74,2.09,1.24,3.07,1.02,1.98,2.69,3,4.95,2.99,2.27-.01,3.89-1.1,4.91-3.07,.43-.83,.74-1.71,1.06-2.59,9.72-26.65,19.43-53.3,29.14-79.96,2.18-5.99,2.66-6.33,8.93-5.38,6.97,1.06,13.99,1.94,20.89,3.36,15.96,3.27,26.49,13.1,32.55,27.96,2.18,5.34,3,10.97,3.01,16.72,0,22.97,.03,45.95,0,68.92-.02,12.35-8.18,20.46-20.5,20.47-26.72,.02-53.44,0-80.16,0Z"/>
        <path class="cls-1" d="M249.62,238.77c1.96,0,3.91,.04,5.87,0,2.85-.07,5.23,.79,6.61,3.44,1.32,2.54,.76,4.91-.8,7.18-1.87,2.73-3.75,5.47-5.46,8.31-.56,.92-.9,2.21-.79,3.26,.92,8.53,1.99,17.05,2.94,25.58,.11,.96-.06,2.04-.39,2.96-1.82,5.03-3.67,10.05-5.67,15.01-.42,1.03-1.56,1.77-2.37,2.65-.82-.86-2-1.57-2.41-2.59-2.01-4.95-4.04-9.92-5.6-15.03-.63-2.06-.29-4.5-.06-6.73,.77-7.27,1.73-14.51,2.5-21.78,.11-1.06-.2-2.35-.75-3.27-1.75-2.91-3.67-5.72-5.58-8.53-1.5-2.21-1.99-4.52-.74-6.96,1.3-2.55,3.55-3.51,6.32-3.48,2.13,.02,4.25,0,6.38,0Z"/>
      </g>
    </g>
  </g>
</svg>