<?xml version="1.0" encoding="UTF-8"?>
<svg id="Layer_2" data-name="Layer 2" xmlns="http://www.w3.org/2000/svg" viewBox="0 0 500 500">
  <defs>
    <style>
      .cls-1 {
        fill: #f2f2f2;
      }
    </style>
  </defs>
  <g id="Layer_1-2" data-name="Layer 1">
    <g>
      <circle cx="250" cy="250" r="250"/>
      <g>
        <path class="cls-1" d="M113.16,294.31c1.15-3.89,1.83-8.01,3.54-11.65,6.59-14.01,17.7-22.08,33.23-23.18,7.77-.55,15.61-.1,23.64-.1-.18,.75-.39,1.41-.49,2.08-.9,5.96-2.48,11.91-2.54,17.88-.28,25.72-.15,51.44-.08,77.16,0,3.07,.6,6.15,.95,9.46-3.03,0-6.12,0-9.22,0-7.83,0-15.67-.21-23.49,.05-12.92,.42-23.52-8.23-25.25-20.5-.02-.15-.19-.29-.29-.43,0-16.92,0-33.84,0-50.76Z"/>
        <path class="cls-1" d="M249.89,365.96c-17.89,0-35.78,0-53.68,0-7.16,0-9.9-2.69-9.9-9.75,0-25.81-.06-51.63,.02-77.44,.06-19.4,12.28-34.79,31.05-39.15,2.66-.62,5.46-.87,8.19-.89,16.2-.08,32.4-.17,48.6-.01,18.91,.18,34.15,12.49,38.42,30.92,.69,3,.94,6.16,.94,9.25,.07,25.99,.05,51.99,.04,77.98,0,6.17-2.97,9.09-9.21,9.09-18.16,.01-36.32,0-54.48,0Z"/>
        <path class="cls-1" d="M250.02,133.98c26.01,.05,47.38,21.31,47.43,47.18,.04,26.18-21.26,47.62-47.44,47.77-26.05,.15-47.77-21.74-47.56-47.92,.21-25.96,21.57-47.08,47.57-47.03Z"/>
        <path class="cls-1" d="M328.91,365.82c.19-6.19,.52-12.21,.53-18.23,.06-21.81,0-43.63,.04-65.44,.01-7.34-.55-14.58-2.97-21.57-.11-.32-.09-.68-.12-.97,.23-.17,.37-.35,.5-.35,9.33,.24,18.8-.47,27.95,.94,18.07,2.8,31.47,18.97,31.81,37.3,.27,14.86,.22,29.74,.04,44.6-.15,12.76-9.2,22.98-21.57,23.59-12.16,.6-24.37,.13-36.2,.13Z"/>
        <path class="cls-1" d="M202.01,213.82c-.23,19.63-16.29,35.61-35.59,35.42-19.64-.2-35.53-16.21-35.38-35.65,.15-19.75,16.23-35.57,35.9-35.32,19.54,.25,35.3,16.22,35.08,35.56Z"/>
        <path class="cls-1" d="M368.86,213.64c.08,19.48-15.83,35.47-35.43,35.6-19.35,.13-35.36-15.85-35.54-35.47-.18-19.47,15.78-35.47,35.39-35.51,19.58-.04,35.5,15.78,35.58,35.38Z"/>
      </g>
    </g>
  </g>
</svg>