<?xml version="1.0" encoding="UTF-8"?>
<svg id="Layer_2" data-name="Layer 2" xmlns="http://www.w3.org/2000/svg" viewBox="0 0 500 500">
  <defs>
    <style>
      .cls-1 {
        fill: #f2f2f2;
      }
    </style>
  </defs>
  <g id="Layer_1-2" data-name="Layer 1">
    <g>
      <circle cx="250" cy="250" r="250"/>
      <g>
        <path class="cls-1" d="M114.23,214.92c7.85,.07,15.71,.15,23.56,.22,1.25,.01,2.49,0,3.98,0,0,1.41,0,2.49,0,3.58,0,35.09,.01,70.18-.02,105.27,0,4.03,.86,7.73,4.41,9.94,1.89,1.18,4.36,2.04,6.57,2.04,60.37,.16,120.74,.18,181.11,.23,1.08,0,2.17,0,3.42,0v27.38H114.23V214.92Z"/>
        <path class="cls-1" d="M114.23,173.82h27.39v32.47h-27.39v-32.47Z"/>
        <path class="cls-1" d="M150.96,327.08V179.04h222.94v148.03H150.96Zm133.57-124.83c-2.56,0-4.6,.18-6.6-.05-2.28-.26-3.18,.65-3.92,2.74-10.83,30.81-21.75,61.59-32.65,92.37-.3,.85-.58,1.71-.94,2.75h9.67c11.44-32.51,22.87-64.96,34.44-97.82Zm5.61,71.46c1.15-.44,2.01-.74,2.86-1.09,11.99-5.02,23.97-10.06,35.96-15.08,5.49-2.3,5.43-2.3,5.46-8.24,0-1.6-.51-2.37-1.99-2.98-7.97-3.25-15.89-6.62-23.84-9.95-6.05-2.53-12.11-5.06-18.42-7.7-.91,2.67-1.75,5.1-2.66,7.76,12.03,4.91,23.88,9.74,36.28,14.8-12.45,5.08-24.29,9.9-36.26,14.78,.91,2.67,1.71,5.05,2.61,7.7Zm-55.42-44.91c-1,.36-1.79,.61-2.56,.93-12.14,5.08-24.28,10.16-36.42,15.25-5.34,2.24-5.26,2.25-5.32,8.1-.02,1.79,.71,2.46,2.21,3.09,13.25,5.49,26.46,11.06,39.69,16.59,.75,.31,1.53,.56,2.42,.89,.89-2.64,1.72-5.08,2.59-7.67-12.12-4.94-23.96-9.76-36.22-14.75,12.32-5.02,24.17-9.85,36.23-14.76-.91-2.65-1.74-5.08-2.63-7.66Z"/>
        <path class="cls-1" d="M150.95,169.66v-32.24h222.89v32.24H150.95Zm29.42-12.5s0-.03,0-.05c3.03,0,6.07,.11,9.1-.04,2.28-.11,3.86-1.95,3.95-4.17,.09-2.28-1.24-4.48-3.16-4.51-6.32-.11-12.64-.12-18.96,.05-2.16,.06-3.72,2.32-3.62,4.47,.12,2.56,1.76,4.2,4.34,4.24,2.78,.04,5.56,0,8.35,0Zm38.01,0s0-.01,0-.02c2.95,0,5.9,.08,8.85-.02,2.71-.1,4.42-1.98,4.35-4.55-.07-2.7-1.66-4.23-4.49-4.28-1.18-.02-2.36,0-3.54,0-4.47,0-8.93-.07-13.4,.06-2.68,.07-4.35,2.07-4.22,4.66,.13,2.58,1.71,4.12,4.36,4.16,2.7,.04,5.39,0,8.09,0Z"/>
        <path d="M284.53,202.25c-11.57,32.86-22.99,65.31-34.44,97.82h-9.67c.35-1.04,.64-1.9,.94-2.75,10.9-30.79,21.82-61.56,32.65-92.37,.73-2.09,1.64-3.01,3.92-2.74,2,.23,4.04,.05,6.6,.05Z"/>
        <path d="M290.14,273.02c-.9-2.66-1.71-5.03-2.61-7.7,11.97-4.88,23.81-9.71,36.26-14.78-12.4-5.06-24.25-9.89-36.28-14.8,.91-2.66,1.74-5.09,2.66-7.76,6.31,2.64,12.37,5.16,18.42,7.7,7.94,3.32,15.87,6.69,23.84,9.95,1.48,.61,2,1.38,1.99,2.98-.03,5.94,.03,5.94-5.46,8.24-11.99,5.03-23.97,10.06-35.96,15.08-.84,.35-1.71,.66-2.86,1.09Z"/>
        <path d="M234.73,228.81c.89,2.58,1.72,5.02,2.63,7.66-12.06,4.91-23.91,9.74-36.23,14.76,12.26,4.99,24.1,9.82,36.22,14.75-.88,2.6-1.7,5.04-2.59,7.67-.89-.32-1.67-.57-2.42-.89-13.23-5.54-26.45-11.1-39.69-16.59-1.5-.62-2.23-1.3-2.21-3.09,.07-5.85-.02-5.86,5.32-8.1,12.14-5.09,24.28-10.17,36.42-15.25,.76-.32,1.56-.57,2.56-.93Z"/>
        <path d="M180.37,157.16c-2.78,0-5.57,.03-8.35,0-2.58-.04-4.22-1.69-4.34-4.24-.1-2.16,1.46-4.41,3.62-4.47,6.32-.17,12.64-.16,18.96-.05,1.92,.03,3.25,2.23,3.16,4.51-.09,2.23-1.67,4.06-3.95,4.17-3.03,.15-6.07,.04-9.1,.04,0,.02,0,.03,0,.05Z"/>
        <path d="M218.38,157.16c-2.7,0-5.39,.03-8.09,0-2.65-.04-4.23-1.58-4.36-4.16-.13-2.58,1.54-4.58,4.22-4.66,4.46-.12,8.93-.05,13.4-.06,1.18,0,2.36-.02,3.54,0,2.83,.05,4.43,1.58,4.49,4.28,.06,2.58-1.64,4.46-4.35,4.55-2.95,.11-5.9,.02-8.85,.02,0,0,0,.01,0,.02Z"/>
      </g>
    </g>
  </g>
</svg>