<?xml version="1.0" encoding="UTF-8"?>
<svg id="Layer_2" data-name="Layer 2" xmlns="http://www.w3.org/2000/svg" viewBox="0 0 498.69 498.64">
  <defs>
    <style>
      .cls-1 {
        fill: #fefefe;
      }
    </style>
  </defs>
  <g id="Layer_1-2" data-name="Layer 1">
    <g>
      <path d="M265.45,0h2.92c11.24,1.03,22.47,1.86,33.56,4.28,39.7,8.68,75.2,25.91,106.44,51.86,22.5,18.69,41.36,40.57,56.24,65.76,18.4,31.15,30.04,64.75,32.97,100.79,3.43,42.13-.67,83.43-17.67,122.82-12.07,27.97-28.32,53-49.28,75.16-20.95,22.16-44.94,40.09-72.26,53.43-26.29,12.84-54.07,21.3-83.27,23.51-42.14,3.19-83.43-.7-122.81-17.76-27.94-12.11-53.03-28.27-75.17-49.26-20.31-19.26-37.16-41.05-50.1-65.78-13.41-25.62-22.2-52.83-25.89-81.57-.59-4.6-.23-9.31-1.13-13.9v-3.89c.64-.58,.46-1.36,.5-2.08,0-.56,0-1.12,0-1.68-.04-.72,.14-1.5-.5-2.08v-21.39c.64-.58,.46-1.36,.5-2.08,0-.56,0-1.12,0-1.68-.04-.72,.14-1.5-.5-2.08v-3.89c1.25-9.56,1.52-19.21,3.49-28.74,8.68-41.9,26.43-79.33,54.16-111.98,22.38-26.36,48.81-47.68,79.82-63C161.55,12.88,186.89,4.65,213.66,1.26c4.93-.62,9.95-.25,14.84-1.26h3.89c.87,.85,1.97,.37,2.97,.5,.83,0,1.66,0,2.49,0,.8-.06,1.66,.21,2.32-.5h17.5c.6,.66,1.41,.46,2.16,.5,.58,0,1.16,0,1.74,0,.58,0,1.16,0,1.73,0,.75-.04,1.55,.15,2.15-.5Z"/>
      <path class="cls-1" d="M261.21,142.96c0,.9,.11,1.81-.02,2.69-.66,4.46,1.32,6.56,5.58,7.99,21.85,7.35,36.86,27.73,37.44,50.31,.21,8.06-4.73,13.98-11.85,14.2-7.28,.23-12.4-5.12-12.74-13.3-.71-17.51-15.43-30.77-32.95-29.68-16.66,1.04-29.6,16.04-28.45,32.98,1.09,15.99,14.34,28.11,31.11,28.46,23.07,.49,42.93,14.21,51.12,35.32,11.35,29.25-3.74,61.8-33.51,72.3q-5.75,2.03-5.75,8.16c0,2.31,.06,4.61-.02,6.92-.23,7.13-5.64,12.63-12.35,12.59-6.86-.04-12.08-5.42-12.22-12.63-.05-2.56-.23-5.15,.04-7.68,.44-4.04-1.34-5.96-5.07-7.25-18.33-6.32-30.28-18.89-35.9-37.45-1.42-4.68-2.11-9.48-2.11-14.37,0-7.08,5.35-12.74,12.06-12.85,6.86-.12,12.17,5.12,12.52,12.35,.84,17.6,13.7,30.54,30.48,30.67,16.63,.13,30.65-13.33,30.98-29.76,.35-17.15-12.82-31.27-29.82-31.65-21.75-.49-38.51-9.75-49.23-28.67-17.04-30.07-2.01-68.19,30.87-79.08,3.66-1.21,5.7-2.98,5.22-7.14-.3-2.65-.13-5.38-.03-8.06,.26-7.09,5.78-12.52,12.52-12.4,6.69,.13,11.85,5.43,12.04,12.43,.04,1.54,0,3.07,0,4.61Z"/>
    </g>
  </g>
</svg>