<?xml version="1.0" encoding="UTF-8"?>
<svg id="Layer_2" data-name="Layer 2" xmlns="http://www.w3.org/2000/svg" viewBox="0 0 500 500">
  <defs>
    <style>
      .cls-1 {
        fill: #f2f2f2;
      }
    </style>
  </defs>
  <g id="Layer_1-2" data-name="Layer 1">
    <g>
      <circle cx="250" cy="250" r="250"/>
      <g>
        <path class="cls-1" d="M387.93,211.75c-1.04,5.09-1.51,10.4-3.26,15.23-2.65,7.32-6.22,14.3-9.36,21.44-.65,1.48-1.73,1.74-3.22,1.74-21.17-.04-42.35-.05-63.52,.01-1.77,0-2.69-.51-3.54-2.1-8.72-16.36-17.53-32.67-26.34-48.98-2.51-4.64-6.94-6.58-10.94-4.32-1.88,1.06-3.58,3.07-4.53,5.05-10.28,21.41-20.39,42.9-30.56,64.36-.45,.95-.97,1.86-1.63,3.1-1.55-2.42-2.91-4.51-4.25-6.62-5.8-9.11-11.59-18.24-17.41-27.34-4.19-6.54-11.04-6.47-15.06,.15-2.99,4.92-5.98,9.85-8.88,14.83-.76,1.3-1.58,1.87-3.16,1.87-18.47-.06-36.94-.07-55.41,0-1.83,0-2.69-.71-3.56-2.16-27.03-44.49-6.65-96.25,35.44-115.65,30.44-14.03,58.91-8.68,85.3,10.9,1.8,1.33,3.51,2.79,5.03,4.01,5.89-3.97,11.39-8.22,17.37-11.63,52.03-29.66,109.85,5.03,119.89,54.66,.6,2.99,1.06,6,1.59,9.01v12.44Z"/>
        <path class="cls-1" d="M137.59,266.35c16.76,0,32.88-.12,48.99,.07,4.91,.06,8.26-1.63,10.5-5.98,1.43-2.78,3.2-5.38,4.99-8.34,1.88,2.92,3.57,5.54,5.24,8.17,5.75,9.03,11.54,18.05,17.23,27.12,1.91,3.05,4.33,5.09,8.08,4.86,3.75-.23,5.91-2.53,7.45-5.79,9.97-21.15,20-42.28,30.01-63.41,.41-.86,.86-1.7,1.44-2.85,.65,1.1,1.17,1.92,1.62,2.77,6.61,12.28,13.34,24.49,19.76,36.87,2.4,4.64,5.62,6.65,10.91,6.58,18.01-.21,36.03-.08,54.05-.08h3.38c-.97,1.08-1.52,1.75-2.13,2.35-34.28,34.12-68.57,68.25-102.86,102.36-4.63,4.6-8.98,4.58-13.58,0-34.36-34.18-68.71-68.36-103.06-102.54-.55-.55-1.06-1.15-2.01-2.18Z"/>
      </g>
    </g>
  </g>
</svg>