<?xml version="1.0" encoding="UTF-8"?>
<svg id="Layer_2" data-name="Layer 2" xmlns="http://www.w3.org/2000/svg" viewBox="0 0 500 500">
  <defs>
    <style>
      .cls-1 {
        fill: #f2f2f2;
      }
    </style>
  </defs>
  <g id="Layer_1-2" data-name="Layer 1">
    <g>
      <circle cx="250" cy="250" r="250"/>
      <g>
        <path class="cls-1" d="M151.73,222.5c-.7-30.01,9.17-54.54,38.66-65.22,24.91-9.02,46.45,.24,64.13,19.57,9.41-12.55,21.65-20.93,37.64-22.43,12.55-1.18,24.54,1.51,35.5,7.84,19.43,11.21,32.75,36.92,28.44,54.38-35.28-.22-61.86,14.62-75.96,47.28-12.7,29.4-6.82,56.99,13.64,81.99-1.01,.08-1.88,.22-2.74,.22-49.25,.01-98.51,.24-147.76-.19-10.12-.09-19.77-4.06-28.6-9.29-15.28-9.05-26-21.62-29.53-39.41-2.87-14.45,.07-28.16,6.65-41.07,8.55-16.78,21.4-28.68,40.22-32.78,5.4-1.17,11.14-.78,16.73-1.06,1.04-.05,2.09,.11,2.99,.16Z"/>
        <path class="cls-1" d="M405.8,290.51c-4.61-2.04-4.87-6.64-1.07-9.92,1.06-.92,2.14-1.81,3.2-2.73,3.24-2.81,3.87-10.39,1.1-13.66-3.35-3.96-6.72-7.89-10.09-11.83-2.95-3.44-10.37-4.02-13.89-1.12-5.38,4.45-5.4,4.49-11.39,1.88-.77-.33-1.75-1.53-1.68-2.23,.54-5.26-2.1-8.83-5.94-11.77-.93-.71-2.25-1.39-3.35-1.34-6.03,.32-12.06,.84-18.08,1.37-.78,.07-1.65,.48-2.26,1-3.85,3.24-7.46,6.63-5.51,12.47,.16,.49,.07,1.07,.1,1.61,.22,4.11-4.64,7.59-8.16,5.47-4.59-2.76-9.09-2.93-13.79-.89-1.14,.49-2.38,1.47-2.91,2.54-2.62,5.32-5.06,10.73-7.46,16.15-.45,1.02-.84,2.35-.59,3.37,1.11,4.43,2.55,8.68,7.9,9.81,1.24,.26,2.41,.96,3.52,1.61,.59,.34,1.21,.92,1.46,1.53,1.55,3.94,1.04,5.79-2.21,8.57-.74,.63-1.49,1.25-2.23,1.88-2.76,2.33-3.54,10.41-1.19,13.24,3.73,4.48,7.51,8.92,11.32,13.33,.59,.68,1.45,1.37,2.29,1.56,4.59,1.03,8.99,1.14,12.32-3.09,.72-.91,1.76-1.59,2.71-2.3,2.2-1.66,8.02,.67,7.94,3.36-.15,4.98,1.85,8.73,5.76,11.52,1.19,.85,2.8,1.65,4.18,1.58,5.71-.28,11.41-.84,17.1-1.43,.99-.1,2.04-.64,2.84-1.27,4.1-3.17,7.22-6.8,5.2-12.54-.14-.39,.03-.88-.1-1.28-.89-2.88,1.19-3.88,3.03-5.28,1.96-1.49,3.17-.06,4.61,.68,.96,.49,1.87,1.08,2.81,1.61,3.73,2.13,11.3,.07,13.5-3.61,3.02-5.06,6.1-10.08,9.16-15.11v-1.94c-1-6.15-4.33-10.22-10.15-12.79Zm-47,21.63c-11.65,.15-21.41-9.53-21.5-21.34-.09-11.75,9.47-21.44,21.28-21.56,11.62-.12,21.46,9.61,21.59,21.34,.12,11.61-9.59,21.41-21.36,21.56Z"/>
      </g>
    </g>
  </g>
</svg>