<?xml version="1.0" encoding="UTF-8"?>
<svg id="Layer_2" data-name="Layer 2" xmlns="http://www.w3.org/2000/svg" viewBox="0 0 500 500">
  <defs>
    <style>
      .cls-1 {
        fill: #fff;
      }
    </style>
  </defs>
  <g id="Layer_1-2" data-name="Layer 1">
    <g>
      <circle cx="250" cy="250" r="250"/>
      <path class="cls-1" d="M364.66,174.04c-.63-5.61-2.65-8-8.07-9.51-33.98-9.44-67.96-18.86-101.93-28.35-2.82-.79-5.45-.79-8.27,0-33.97,9.49-67.95,18.91-101.93,28.35-5.35,1.49-7.42,3.81-8.04,9.25-2.83,24.98-3.79,50.02-2.06,75.11,1.33,19.36,4.43,38.4,10.6,56.89,5.74,17.19,15.73,31.67,27.98,44.74,18.15,19.37,39.69,33.71,64.49,43.14,3.64,1.39,7.36,2.57,11.05,3.85h4.1c5.66-2.07,11.42-3.91,16.96-6.26,31.53-13.4,57.06-34.16,75.87-62.88,7.65-11.68,11.95-24.8,15.19-38.3,4.45-18.58,6.32-37.46,6.8-56.52,.5-19.9-.52-39.74-2.73-59.51Zm-46.56,58.95c-23.69,23.74-47.4,47.45-71.14,71.14-4,3.99-8.88,3.95-12.91-.07-14.51-14.45-28.99-28.93-43.45-43.44-4.13-4.15-4.13-8.9-.1-13.09,2.48-2.58,5.03-5.1,7.59-7.61,4.49-4.4,9.19-4.42,13.67,.04,8.9,8.84,17.75,17.72,26.61,26.61,.66,.66,1.14,1.49,2.08,2.74,1.12-1.37,1.65-2.16,2.31-2.82,17.07-17.08,34.31-34,51.16-51.29,7.57-7.76,12.17-7.96,19.19-.03,1.58,1.79,3.4,3.36,5.04,5.09,3.78,3.98,3.81,8.84-.07,12.74Z"/>
    </g>
  </g>
</svg>