<?xml version="1.0" encoding="UTF-8"?>
<svg id="Layer_2" data-name="Layer 2" xmlns="http://www.w3.org/2000/svg" viewBox="0 0 500 500">
  <defs>
    <style>
      .cls-1 {
        fill: #f2f2f2;
      }
    </style>
  </defs>
  <g id="Layer_1-2" data-name="Layer 1">
    <circle class="cls-1" cx="250" cy="250" r="250"/>
    <path d="M418.95,252.78c-1.57,5.73-5.39,9.86-9.48,13.94-38.94,38.84-77.8,77.75-116.69,116.62-7.18,7.18-16.25,9.31-23.5,3.91-6.6-4.93-12.57-11.05-17.65-17.56-4.76-6.11-3.4-14.78,1.61-20.77,.99-1.18,2.07-2.28,3.16-3.37,22.27-22.21,44.56-44.42,66.83-66.63,.82-.81,1.57-1.69,2.82-3.03h-4.49c-73.03,0-146.06,0-219.09,0-14,0-21.41-7.38-21.43-21.3,0-3.74,0-7.48,0-11.22,.02-13,7.24-20.29,20.17-20.29,37.4-.01,74.79,0,112.19,0,35.86,0,71.71,0,107.57,0h4.4c-1.25-1.31-2.01-2.15-2.81-2.95-22.37-22.42-44.76-44.83-67.12-67.27-7.04-7.07-9.15-16.41-3.76-23.57,4.95-6.58,11.08-12.55,17.61-17.6,6.23-4.82,14.99-3.44,21.08,1.69,1.18,.99,2.27,2.08,3.36,3.17,38.5,38.49,76.98,77.01,115.52,115.46,4.16,4.15,8.13,8.31,9.7,14.18v6.6Z"/>
  </g>
</svg>