<svg xmlns="http://www.w3.org/2000/svg" xmlns:xlink="http://www.w3.org/1999/xlink" viewBox="0 0 492.34 129.91"><defs><style>.cls-1{fill:url(#linear-gradient);}.cls-2{fill:url(#linear-gradient-2);}.cls-3{fill:url(#linear-gradient-3);}.cls-4{fill:url(#linear-gradient-4);}.cls-5{fill:url(#linear-gradient-5);}.cls-6{fill:url(#linear-gradient-6);}.cls-7{fill:none;clip-rule:evenodd;}.cls-8{mask:url(#mask);}.cls-9{fill:#b2b2b2;fill-rule:evenodd;}.cls-10{mask:url(#mask-2);}.cls-11{mask:url(#mask-3);}.cls-12{clip-path:url(#clip-path);}.cls-13{mask:url(#mask-4);}.cls-14{fill:url(#linear-gradient-7);}.cls-15{clip-path:url(#clip-path-2);}.cls-16{mask:url(#mask-5);}.cls-17{fill:url(#linear-gradient-8);}.cls-18{clip-path:url(#clip-path-3);}.cls-19{mask:url(#mask-6);}.cls-20{fill:url(#linear-gradient-9);}</style><linearGradient id="linear-gradient" x1="-260.56" y1="374.39" x2="195" y2="387.83" gradientTransform="translate(240.21 -295.44)" gradientUnits="userSpaceOnUse"><stop offset="0" stop-color="#fff"/><stop offset="1"/></linearGradient><linearGradient id="linear-gradient-2" x1="-249.83" y1="393.38" x2="125.04" y2="387.01" gradientTransform="translate(239.81 -301.23)" xlink:href="#linear-gradient"/><linearGradient id="linear-gradient-3" x1="-251.02" y1="349.51" x2="193.42" y2="384.59" gradientTransform="translate(239.79 -313.02)" xlink:href="#linear-gradient"/><linearGradient id="linear-gradient-4" x1="-250.95" y1="393.83" x2="163.02" y2="386.05" gradientTransform="translate(239.81 -306.07)" xlink:href="#linear-gradient"/><linearGradient id="linear-gradient-5" x1="-250.47" y1="351.16" x2="208.52" y2="395.42" gradientTransform="translate(239.79 -315.09)" xlink:href="#linear-gradient"/><linearGradient id="linear-gradient-6" x1="-260.98" y1="373.92" x2="205.25" y2="388.01" gradientTransform="translate(240.21 -298.06)" xlink:href="#linear-gradient"/><mask id="mask" x="0.54" y="42.85" width="462.1" height="87.06" maskUnits="userSpaceOnUse"><rect class="cls-1" x="0.54" y="42.85" width="462.1" height="87.06"/></mask><mask id="mask-2" x="0.02" y="54.08" width="445.89" height="68.22" maskUnits="userSpaceOnUse"><rect class="cls-2" x="0.02" y="54.08" width="445.89" height="68.22"/></mask><mask id="mask-3" x="0" y="0" width="405.79" height="106.78" maskUnits="userSpaceOnUse"><rect class="cls-3" width="405.79" height="106.78"/></mask><clipPath id="clip-path"><path class="cls-7" d="M3.57,81.59a41.5,41.5,0,0,0,17.67,6.34c13.64,1.71,28.52-2.46,41.42-6.36,14.88-4.5,33.79-11.31,49.52-9.19,9.61,1.29,18.74,7.38,26.43,12.35,9.09,5.87,18.23,11.78,29.08,14.79s21.4,3,31.94-1.41c11.91-5,21.85-14.75,30.94-23.12,8.1-7.45,16.7-15.12,27-20,11.64-5.47,23.61-6.32,36.16-3.53,16.1,3.59,30,12.57,42.48,21.94C345.33,80.21,354,87.51,363.3,94c7.81,5.47,16.81,10.88,26.55,13.07,29.76,6.7,71.87,10.14,99.06-6l1.5-.9,1.93,2.68-1.5.89c-28.15,16.72-71,13.4-101.91,6.45-10.26-2.31-19.62-7.88-27.85-13.64C351.74,90,343.05,82.72,334,75.9c-12.07-9-25.56-17.84-41.08-21.3-11.72-2.61-22.79-1.85-33.65,3.26-10,4.67-18.33,12.19-26.12,19.36-9.48,8.73-19.57,18.57-32,23.8-11.34,4.77-22.77,4.83-34.51,1.58C155.31,99.47,146,93.45,136.5,87.35c-7.1-4.59-16-10.6-24.9-11.79-7.48-1-15.4.17-22.71,1.84-8.5,1.95-16.83,4.7-25.14,7.22C50.22,88.71,35,92.9,20.69,91.12A45.35,45.35,0,0,1,1.46,84.21L0,83.28l2.11-2.62Z"/></clipPath><mask id="mask-4" x="0.02" y="48.69" width="492.31" height="71.81" maskUnits="userSpaceOnUse"><rect class="cls-4" x="0.02" y="49.93" width="492.31" height="65.99"/></mask><linearGradient id="linear-gradient-7" x1="0.02" y1="84.59" x2="492.34" y2="84.59" gradientUnits="userSpaceOnUse"><stop offset="0" stop-color="#c50c81"/><stop offset="1" stop-color="#fae588"/></linearGradient><clipPath id="clip-path-2"><path class="cls-7" d="M2.7,85.21c86.62,23.65,95.19,28.31,153-35.47,10.48-11.58,24.09-24.86,39.17-32.6,9.67-5,20.27-7.76,31.5-5.7,10.87,2,20,8.13,27.47,14.53,8.8,7.52,16.44,16.21,24.12,24.51,10.76,11.63,24.58,26.46,41.3,32.46,8.79,3.15,17.08,4.58,26.57,2.23A99.37,99.37,0,0,0,358,81a144.58,144.58,0,0,1,14.51-5.07c15.47-4.3,31.16-4.15,47-2.08l1.64.21-.61,2.69-1.64-.21c-15.25-2-30.43-2.18-45.35,2a142,142,0,0,0-14.13,4.94,103.33,103.33,0,0,1-12.7,4.37c-10.29,2.55-19.34,1.09-28.87-2.33-17.38-6.24-31.4-21.21-42.58-33.28-7.6-8.22-15.17-16.84-23.88-24.28-7-6-15.65-11.91-25.83-13.78-10.34-1.9-20.08.77-29,5.34-14.67,7.53-28,20.63-38.23,31.89-6.34,7-12.77,14-19.51,20.69a204.65,204.65,0,0,1-16.58,15.11c-8.66,6.93-18.36,13-30.21,15.54-12.15,2.61-24.79,1.12-36.68-1.18-8.06-1.56-16-3.55-23.93-5.61-10-2.61-19.92-5.37-29.86-8.08L0,87.37l1.12-2.59Z"/></clipPath><mask id="mask-5" x="0" y="9.38" width="421.14" height="104.14" maskUnits="userSpaceOnUse"><rect class="cls-5" y="10.76" width="421.14" height="93.29"/></mask><linearGradient id="linear-gradient-8" y1="61.45" x2="421.14" y2="61.45" gradientUnits="userSpaceOnUse"><stop offset="0" stop-color="#0f5fa4"/><stop offset="1" stop-color="#bdf59e"/></linearGradient><clipPath id="clip-path-3"><path class="cls-7" d="M473.32,77.16c-2.78,11.56-8.8,21.41-19.51,27.51-21,12-52.55,5.09-73.43-3.39C371,97.48,364,91.94,357.32,84.59c-5-5.58-10.27-11.07-15.81-16.17A103,103,0,0,0,328.1,57.76c-6.45-4.18-13.82-7.44-21.8-6.58-8.81,1-16.71,6.81-23.11,12.48-4.68,4.14-9.07,8.68-13.32,13.24-5.27,5.64-10.4,11.43-15.54,17.19-11.45,12.84-27.57,29.67-45.67,32.08-22.57,3-39.8-17.36-50.66-33.68-4.87-7.32-9.95-14.58-15.45-21.47a126.57,126.57,0,0,0-13.61-14.84c-6.79-6.15-14.77-11.39-24.3-12.06s-19.07,3.43-27.26,8A195.57,195.57,0,0,0,60.67,62.82C54,67.5,47.46,72.38,41,77.26c-9.08,6.82-28,9.13-38.82,6.33L.54,83.18l.89-3.11L3,80.48c9.81,2.54,27.72.43,36-5.75,6.54-4.91,13.11-9.82,19.81-14.51,5.49-3.84,11.13-7.6,17-10.88,8.83-4.93,18.83-9.14,29.15-8.42s18.92,6.22,26.27,12.89a128.86,128.86,0,0,1,14,15.21c5.55,7,10.69,14.29,15.61,21.69,10,15.1,26.46,35.07,47.5,32.27,17.06-2.26,32.81-18.89,43.59-31,5.16-5.78,10.3-11.58,15.59-17.25,4.33-4.64,8.79-9.24,13.55-13.46C288,55.1,296.38,49,306,48c8.79-1,16.83,2.47,23.95,7.08a105.92,105.92,0,0,1,13.84,11c5.62,5.16,10.92,10.72,16,16.37,6.31,7,13,12.26,21.88,15.87a136.06,136.06,0,0,0,28.48,8.16c26.66,4.46,52.9-.62,59.95-30l.38-1.57,3.2.69Z"/></clipPath><mask id="mask-6" x="0.54" y="40.2" width="473.15" height="88.97" maskUnits="userSpaceOnUse"><rect class="cls-6" x="0.54" y="40.84" width="473.15" height="85.63"/></mask><linearGradient id="linear-gradient-9" x1="0.54" y1="84.68" x2="473.69" y2="84.68" gradientUnits="userSpaceOnUse"><stop offset="0" stop-color="#6415ae"/><stop offset="1" stop-color="#fe98ec"/></linearGradient></defs><g id="Layer_2" data-name="Layer 2"><g id="Layer_1-2" data-name="Layer 1"><g class="cls-8"><path class="cls-9" d="M462.28,84.39c-2.71,11.52-8.59,21.29-19.06,27.23-20.53,11.66-51.31,4.35-71.71-4.42-9.14-3.93-16-9.57-22.52-17C344.07,84.54,339,79,333.55,73.8A102.24,102.24,0,0,0,320.45,63c-6.3-4.27-13.49-7.64-21.29-6.88-8.6.83-16.32,6.57-22.57,12.15-4.56,4.08-8.85,8.55-13,13-5.15,5.57-10.16,11.28-15.18,17-11.18,12.67-26.92,29.28-44.6,31.43-22,2.68-38.87-17.92-49.47-34.39-4.76-7.39-9.72-14.72-15.09-21.69a127.4,127.4,0,0,0-13.3-15c-6.62-6.24-14.42-11.6-23.73-12.4s-18.62,3.16-26.63,7.62A188.1,188.1,0,0,0,59.27,64.25C52.75,68.83,46.37,73.62,40,78.42c-8.87,6.68-27.36,8.73-37.92,5.77L.54,83.76l.87-3.09L3,81.1c9.58,2.68,27.07.82,35.12-5.25,6.39-4.81,12.8-9.63,19.35-14.23A190.72,190.72,0,0,1,74,51c8.62-4.81,18.38-8.89,28.46-8S121,49.46,128.14,56.23a129.57,129.57,0,0,1,13.64,15.41c5.43,7,10.44,14.44,15.25,21.91,9.81,15.24,25.84,35.44,46.39,32.94,16.66-2,32-18.43,42.57-30.37,5-5.71,10.06-11.44,15.23-17,4.23-4.58,8.59-9.12,13.23-13.27,6.82-6.09,15-12,24.41-12.95,8.59-.83,16.44,2.7,23.39,7.42a105.69,105.69,0,0,1,13.52,11.19c5.49,5.24,10.66,10.87,15.64,16.6,6.16,7.07,12.68,12.43,21.37,16.17a131.5,131.5,0,0,0,27.82,8.56c26,4.83,51.66.12,58.55-29.15l.37-1.57,3.13.74Z"/></g><g class="cls-10"><path class="cls-9" d="M3.24,81.87a35.82,35.82,0,0,0,16,6.59c12.35,1.9,25.83-2.06,37.51-5.78,13.48-4.29,30.6-10.84,44.85-8.5,8.71,1.43,17,7.64,23.94,12.72,8.23,6,16.51,12,26.34,15.21s19.38,3.32,28.93-1c10.79-4.84,19.79-14.44,28-22.69,7.34-7.33,15.12-14.88,24.49-19.59,10.55-5.31,21.38-6,32.75-3,14.58,3.81,27.14,13,38.48,22.54,8.21,6.91,16.06,14.34,24.49,21,7.07,5.58,15.22,11.12,24,13.45,27,7.12,65.09,11.15,89.72-4.62l1.36-.87,1.74,2.71-1.35.87c-25.5,16.32-64.36,12.4-92.3,5-9.29-2.46-17.77-8.16-25.23-14-8.46-6.67-16.32-14.12-24.57-21.06-10.93-9.2-23.15-18.2-37.21-21.88-10.61-2.77-20.63-2.17-30.47,2.78-9,4.53-16.6,11.94-23.66,19-8.59,8.59-17.72,18.3-29,23.35-10.28,4.61-20.63,4.52-31.26,1.09-10.21-3.28-18.69-9.43-27.25-15.66-6.43-4.7-14.52-10.83-22.55-12.15-6.78-1.11-14,0-20.57,1.53-7.7,1.83-15.24,4.46-22.77,6.86-12.25,3.9-26,7.89-39,5.9A39.12,39.12,0,0,1,1.33,84.46L0,83.51l1.91-2.59Z"/></g><g class="cls-11"><path class="cls-9" d="M2.6,82.79C86.06,112.7,94.32,118.39,150,44.52,160.11,31.11,173.22,15.76,187.74,7c9.33-5.63,19.54-8.68,30.36-6,10.48,2.61,19.25,10.06,26.47,17.77,8.48,9.08,15.84,19.5,23.24,29.47,10.36,14,23.69,31.78,39.8,39.24,8.46,3.93,16.45,5.8,25.59,3.25A82.93,82.93,0,0,0,345,86a121.53,121.53,0,0,1,14-5.64c14.91-4.71,30-4.17,45.26-1.37l1.58.29-.59,3.16-1.58-.29c-14.69-2.7-29.32-3.27-43.7,1.27A118.76,118.76,0,0,0,346.31,89a84.72,84.72,0,0,1-12.24,4.86c-9.91,2.77-18.63.84-27.82-3.42-16.74-7.76-30.25-25.74-41-40.24-7.33-9.87-14.62-20.21-23-29.19-6.75-7.22-15.08-14.4-24.89-16.85-10-2.48-19.35.45-27.92,5.62-14.14,8.54-27,23.68-36.84,36.72-6.11,8.1-12.31,16.16-18.8,24a210.62,210.62,0,0,1-16,17.42c-8.35,8-17.69,14.9-29.11,17.62-11.71,2.8-23.89.75-35.34-2.24-7.78-2-15.47-4.56-23.07-7.17-9.62-3.31-19.19-6.79-28.77-10.22L0,85.27l1.08-3Z"/></g><g class="cls-12"><g class="cls-13"><rect class="cls-14" x="0.02" y="48.69" width="492.31" height="71.81"/></g></g><g class="cls-15"><g class="cls-16"><rect class="cls-17" y="9.38" width="421.14" height="104.14"/></g></g><g class="cls-18"><g class="cls-19"><rect class="cls-20" x="0.54" y="40.2" width="473.15" height="88.97"/></g></g></g></g></svg>