<svg xmlns="http://www.w3.org/2000/svg" xmlns:xlink="http://www.w3.org/1999/xlink" viewBox="0 0 506.38 250.58"><defs><style>.cls-1{fill:url(#linear-gradient);}.cls-2{fill:url(#linear-gradient-2);}.cls-3{fill:url(#linear-gradient-3);}.cls-4{fill:url(#linear-gradient-4);}.cls-5{fill:url(#linear-gradient-5);}.cls-6{fill:url(#linear-gradient-6);}.cls-7{fill:none;clip-rule:evenodd;}.cls-8{fill:#999;}.cls-10,.cls-8{fill-rule:evenodd;}.cls-9{mask:url(#mask);}.cls-10{fill:#b2b2b2;}.cls-11{mask:url(#mask-2);}.cls-12{mask:url(#mask-3);}.cls-13{clip-path:url(#clip-path);}.cls-14{mask:url(#mask-4);}.cls-15{fill:url(#linear-gradient-7);}.cls-16{clip-path:url(#clip-path-2);}.cls-17{mask:url(#mask-5);}.cls-18{fill:url(#linear-gradient-8);}.cls-19{clip-path:url(#clip-path-3);}.cls-20{mask:url(#mask-6);}.cls-21{fill:url(#linear-gradient-9);}</style><linearGradient id="linear-gradient" x1="-246.52" y1="374.39" x2="209.04" y2="387.83" gradientTransform="translate(240.21 -295.44)" gradientUnits="userSpaceOnUse"><stop offset="0" stop-color="#fff"/><stop offset="1"/></linearGradient><linearGradient id="linear-gradient-2" x1="-235.79" y1="393.38" x2="139.09" y2="387.01" gradientTransform="translate(239.81 -301.23)" xlink:href="#linear-gradient"/><linearGradient id="linear-gradient-3" x1="-236.98" y1="349.51" x2="207.47" y2="384.59" gradientTransform="translate(239.79 -313.02)" xlink:href="#linear-gradient"/><linearGradient id="linear-gradient-4" x1="-236.91" y1="393.83" x2="177.06" y2="386.05" gradientTransform="translate(239.81 -306.07)" xlink:href="#linear-gradient"/><linearGradient id="linear-gradient-5" x1="-236.43" y1="351.16" x2="222.56" y2="395.42" gradientTransform="translate(239.79 -315.09)" xlink:href="#linear-gradient"/><linearGradient id="linear-gradient-6" x1="-246.93" y1="373.92" x2="219.3" y2="388.01" gradientTransform="translate(240.21 -298.06)" xlink:href="#linear-gradient"/><mask id="mask" x="14.58" y="42.85" width="462.1" height="87.06" maskUnits="userSpaceOnUse"><rect class="cls-1" x="14.58" y="42.85" width="462.1" height="87.06"/></mask><mask id="mask-2" x="14.07" y="54.08" width="445.89" height="68.22" maskUnits="userSpaceOnUse"><rect class="cls-2" x="14.07" y="54.08" width="445.89" height="68.22"/></mask><mask id="mask-3" x="14.04" y="0" width="405.79" height="106.78" maskUnits="userSpaceOnUse"><rect class="cls-3" x="14.04" width="405.79" height="106.78"/></mask><clipPath id="clip-path"><path class="cls-7" d="M17.61,81.59a41.5,41.5,0,0,0,17.67,6.34c13.64,1.71,28.52-2.46,41.42-6.36,14.89-4.5,33.79-11.31,49.52-9.19,9.61,1.29,18.74,7.38,26.43,12.35,9.09,5.87,18.23,11.78,29.08,14.79s21.4,3,32-1.41c11.91-5,21.84-14.75,30.94-23.12,8.09-7.45,16.69-15.12,27-20,11.65-5.47,23.61-6.32,36.17-3.53,16.09,3.59,30,12.57,42.47,21.94,9.08,6.79,17.74,14.09,27,20.62,7.81,5.47,16.81,10.88,26.55,13.07,29.76,6.7,71.87,10.14,99.06-6l1.5-.9,1.93,2.68-1.5.89c-28.15,16.72-71.05,13.4-101.9,6.45-10.27-2.31-19.63-7.88-27.86-13.64C365.78,90,357.1,82.72,348,75.9c-12.06-9-25.56-17.84-41.08-21.3-11.71-2.61-22.79-1.85-33.65,3.26-9.95,4.67-18.33,12.19-26.12,19.36-9.48,8.73-19.57,18.57-32,23.8-11.34,4.77-22.77,4.83-34.51,1.58-11.28-3.13-20.64-9.15-30.08-15.25-7.11-4.59-16-10.6-24.91-11.79-7.48-1-15.4.17-22.71,1.84-8.5,1.95-16.83,4.7-25.14,7.22C64.26,88.71,49,92.9,34.74,91.12A45.34,45.34,0,0,1,15.5,84.21l-1.43-.93,2.1-2.62Z"/></clipPath><mask id="mask-4" x="14.07" y="48.69" width="492.31" height="71.81" maskUnits="userSpaceOnUse"><rect class="cls-4" x="14.07" y="49.93" width="492.31" height="65.99"/></mask><linearGradient id="linear-gradient-7" x1="14.07" y1="84.59" x2="506.38" y2="84.59" gradientUnits="userSpaceOnUse"><stop offset="0" stop-color="#c50c81"/><stop offset="1" stop-color="#fae588"/></linearGradient><clipPath id="clip-path-2"><path class="cls-7" d="M16.74,85.21c86.62,23.65,95.19,28.31,153-35.47,10.49-11.58,24.09-24.86,39.17-32.6,9.67-5,20.28-7.76,31.5-5.7,10.87,2,20,8.13,27.47,14.53,8.8,7.52,16.44,16.21,24.12,24.51,10.76,11.63,24.58,26.46,41.3,32.46,8.79,3.15,17.08,4.58,26.57,2.23A99.37,99.37,0,0,0,372.06,81a144.58,144.58,0,0,1,14.51-5.07c15.47-4.3,31.16-4.15,47-2.08l1.64.21-.61,2.69-1.64-.21c-15.25-2-30.42-2.18-45.35,2a142,142,0,0,0-14.13,4.94,103.33,103.33,0,0,1-12.7,4.37c-10.29,2.55-19.34,1.09-28.87-2.33-17.38-6.24-31.4-21.21-42.58-33.28-7.6-8.22-15.17-16.84-23.88-24.28-7-6-15.65-11.91-25.83-13.78-10.34-1.9-20.08.77-29,5.34-14.67,7.53-28,20.63-38.23,31.89-6.33,7-12.77,14-19.51,20.69a204.65,204.65,0,0,1-16.58,15.11c-8.66,6.93-18.36,13-30.2,15.54-12.16,2.61-24.79,1.12-36.68-1.18-8.07-1.56-16-3.55-23.94-5.61-10-2.61-19.92-5.37-29.86-8.08L14,87.37l1.13-2.59Z"/></clipPath><mask id="mask-5" x="14.04" y="9.38" width="421.14" height="104.14" maskUnits="userSpaceOnUse"><rect class="cls-5" x="14.04" y="10.76" width="421.14" height="93.29"/></mask><linearGradient id="linear-gradient-8" x1="14.04" y1="61.45" x2="435.18" y2="61.45" gradientUnits="userSpaceOnUse"><stop offset="0" stop-color="#0f5fa4"/><stop offset="1" stop-color="#bdf59e"/></linearGradient><clipPath id="clip-path-3"><path class="cls-7" d="M487.36,77.16c-2.78,11.56-8.8,21.41-19.51,27.51-21,12-52.55,5.09-73.43-3.39-9.36-3.8-16.43-9.34-23.06-16.69-5-5.58-10.26-11.07-15.81-16.17a103,103,0,0,0-13.41-10.66c-6.45-4.18-13.82-7.44-21.8-6.58-8.81,1-16.71,6.81-23.11,12.48-4.67,4.14-9.07,8.68-13.32,13.24-5.27,5.64-10.4,11.43-15.54,17.19-11.45,12.84-27.57,29.67-45.66,32.08-22.58,3-39.81-17.36-50.66-33.68-4.87-7.32-10-14.58-15.45-21.47A126.66,126.66,0,0,0,143,56.18c-6.78-6.15-14.77-11.39-24.3-12.06s-19.06,3.43-27.26,8A195.57,195.57,0,0,0,74.71,62.82C68,67.5,61.5,72.38,55,77.26c-9.08,6.82-28,9.13-38.82,6.33l-1.59-.41.89-3.11,1.58.41c9.81,2.54,27.72.43,36-5.75,6.54-4.91,13.11-9.82,19.81-14.51,5.49-3.84,11.13-7.6,17-10.88,8.83-4.93,18.83-9.14,29.15-8.42s18.92,6.22,26.27,12.89A128.86,128.86,0,0,1,159.2,69c5.56,7,10.69,14.29,15.61,21.69,10,15.1,26.46,35.07,47.5,32.27,17.06-2.26,32.81-18.89,43.59-31,5.16-5.78,10.3-11.58,15.59-17.25,4.33-4.64,8.8-9.24,13.55-13.46C302,55.1,310.42,49,320,48c8.79-1,16.83,2.47,24,7.08a107.27,107.27,0,0,1,13.84,11c5.61,5.16,10.91,10.72,16,16.37,6.31,7,13,12.26,21.88,15.87a136.06,136.06,0,0,0,28.48,8.16c26.66,4.46,52.9-.62,59.95-30l.38-1.57,3.2.69Z"/></clipPath><mask id="mask-6" x="14.58" y="40.2" width="473.15" height="88.97" maskUnits="userSpaceOnUse"><rect class="cls-6" x="14.58" y="40.84" width="473.15" height="85.63"/></mask><linearGradient id="linear-gradient-9" x1="14.58" y1="84.68" x2="487.73" y2="84.68" gradientUnits="userSpaceOnUse"><stop offset="0" stop-color="#6415ae"/><stop offset="1" stop-color="#fe98ec"/></linearGradient></defs><g id="Layer_2" data-name="Layer 2"><g id="Layer_1-2" data-name="Layer 1"><path class="cls-8" d="M478.35,188.24a27.67,27.67,0,0,0-4.82-10.63,23.11,23.11,0,0,0-8.42-6.41,25.83,25.83,0,0,0-11-2.45,23.56,23.56,0,0,0-16.29,6.13c-3.32,3-5.81,7.43-7.5,13.36Zm0,17.36,6.95,3.72a36.15,36.15,0,0,1-7.9,10.89,31.58,31.58,0,0,1-10.18,6.27,35.72,35.72,0,0,1-12.76,2.15q-15.79,0-24.68-10.33a35.36,35.36,0,0,1-1.35-45.25Q438,160.81,454,160.81q16.44,0,26.33,12.54,7,8.84,7.05,22h-58q.24,11.31,7.19,18.51a22.88,22.88,0,0,0,17.14,7.22,27.13,27.13,0,0,0,9.59-1.75,25.67,25.67,0,0,0,7.92-4.56A38.66,38.66,0,0,0,478.35,205.6Zm-69-36.07-5.28,5.53q-6.74-6.48-13-6.47a10,10,0,0,0-6.95,2.63,8.34,8.34,0,0,0-2.87,6.31,9,9,0,0,0,2.41,5.89q2.36,3,9.95,6.89,9.31,4.75,12.6,9.24a17.14,17.14,0,0,1,3.23,10.19,18.08,18.08,0,0,1-5.57,13.38,18.91,18.91,0,0,1-13.92,5.51,24.85,24.85,0,0,1-10.67-2.39,22.53,22.53,0,0,1-8.4-6.67l5.24-5.95q6.36,7.17,13.49,7.17A12.07,12.07,0,0,0,398,217.6a9.93,9.93,0,0,0,3.51-7.52,9.54,9.54,0,0,0-2.31-6.35c-1.52-1.85-5-4.16-10.41-6.95q-8.76-4.42-11.89-8.88a16.67,16.67,0,0,1-3.18-10,16.22,16.22,0,0,1,5-12.2,17.42,17.42,0,0,1,12.64-4.86C397.32,160.81,403.29,163.7,409.34,169.53ZM302.89,204.07l-.12-6.89a42.18,42.18,0,0,1,.43-8.58q1.29-11.11,5.64-16.32a36.74,36.74,0,0,1,8.66-7,39.86,39.86,0,0,1,16.66-2.95A26,26,0,0,1,347.67,166a20.9,20.9,0,0,1,8.86,9.89q2.66,6.21,2.65,19.47v33.2h-8.24V197.78q0-11.17-.94-14.95-1.49-6.42-5.83-9.1c-2.91-1.79-7.21-2.67-12.9-2.67a22,22,0,0,0-13.42,4.34,13,13,0,0,0-5.47,11.89c-.74,3.22-1.13,9.09-1.13,17.61v23.67h-8.36ZM278.4,188.24a27.52,27.52,0,0,0-4.83-10.63,23,23,0,0,0-8.42-6.41,25.75,25.75,0,0,0-11-2.45,23.61,23.61,0,0,0-16.3,6.13c-3.31,3-5.8,7.43-7.49,13.36Zm0,17.36,7,3.72a36.15,36.15,0,0,1-7.9,10.89,31.52,31.52,0,0,1-10.19,6.27,35.64,35.64,0,0,1-12.76,2.15q-15.8,0-24.67-10.33a35.33,35.33,0,0,1-1.35-45.25q9.53-12.24,25.6-12.24,16.42,0,26.33,12.54,7,8.84,7,22h-58q.24,11.31,7.19,18.51a22.88,22.88,0,0,0,17.14,7.22,27.13,27.13,0,0,0,9.59-1.75,25.62,25.62,0,0,0,7.91-4.56A38.65,38.65,0,0,0,278.4,205.6Zm-69-36.07-5.29,5.53q-6.72-6.48-13-6.47a10,10,0,0,0-7,2.63,8.34,8.34,0,0,0-2.87,6.31,9,9,0,0,0,2.41,5.89q2.34,3,9.94,6.89,9.31,4.75,12.6,9.24a17.15,17.15,0,0,1,3.24,10.19,18.08,18.08,0,0,1-5.57,13.38A18.91,18.91,0,0,1,190,228.63a24.85,24.85,0,0,1-10.67-2.39,22.53,22.53,0,0,1-8.4-6.67l5.24-5.95q6.36,7.17,13.49,7.17a12.09,12.09,0,0,0,8.44-3.19,9.93,9.93,0,0,0,3.51-7.52,9.54,9.54,0,0,0-2.31-6.35q-2.3-2.78-10.41-6.95c-5.85-2.95-9.8-5.91-11.89-8.88a16.67,16.67,0,0,1-3.18-10,16.25,16.25,0,0,1,5-12.2,17.45,17.45,0,0,1,12.64-4.86C197.37,160.81,203.34,163.7,209.39,169.53Z"/><g class="cls-9"><path class="cls-10" d="M476.32,84.39c-2.71,11.52-8.59,21.29-19.05,27.23C436.73,123.28,406,116,385.55,107.2c-9.14-3.93-16-9.57-22.52-17C358.11,84.54,353,79,347.59,73.8A102.24,102.24,0,0,0,334.49,63c-6.3-4.27-13.49-7.64-21.28-6.88-8.61.83-16.33,6.57-22.57,12.15-4.57,4.08-8.86,8.55-13,13-5.15,5.57-10.16,11.28-15.18,17-11.18,12.67-26.92,29.28-44.59,31.43-22,2.68-38.88-17.92-49.48-34.39-4.76-7.39-9.72-14.72-15.09-21.69a127.4,127.4,0,0,0-13.3-15c-6.62-6.24-14.42-11.6-23.73-12.4s-18.62,3.16-26.63,7.62A189.64,189.64,0,0,0,73.31,64.25c-6.52,4.58-12.9,9.37-19.26,14.17-8.87,6.68-27.36,8.73-37.92,5.77l-1.55-.43.87-3.09L17,81.1c9.58,2.68,27.06.82,35.11-5.25C58.5,71,64.91,66.22,71.46,61.62A190.72,190.72,0,0,1,88.06,51c8.62-4.81,18.39-8.89,28.47-8S135,49.46,142.18,56.23a130.55,130.55,0,0,1,13.65,15.41c5.42,7,10.44,14.44,15.24,21.91,9.81,15.24,25.84,35.44,46.39,32.94,16.66-2,32-18.43,42.57-30.37,5-5.71,10.07-11.44,15.23-17,4.23-4.58,8.59-9.12,13.24-13.27,6.81-6.09,15-12,24.4-12.95,8.59-.83,16.44,2.7,23.4,7.42a105.6,105.6,0,0,1,13.51,11.19c5.49,5.24,10.66,10.87,15.64,16.6,6.16,7.07,12.68,12.43,21.37,16.17a131.68,131.68,0,0,0,27.82,8.56c26,4.83,51.66.12,58.55-29.15l.37-1.57,3.13.74Z"/></g><g class="cls-11"><path class="cls-10" d="M17.28,81.87a35.82,35.82,0,0,0,16,6.59c12.36,1.9,25.83-2.06,37.52-5.78,13.48-4.29,30.6-10.84,44.85-8.5,8.7,1.43,17,7.64,23.93,12.72,8.24,6,16.51,12,26.34,15.21s19.39,3.32,28.93-1c10.79-4.84,19.79-14.44,28-22.69,7.34-7.33,15.13-14.88,24.49-19.59,10.55-5.31,21.38-6,32.76-3,14.57,3.81,27.13,13,38.47,22.54,8.22,6.91,16.06,14.34,24.49,21,7.08,5.58,15.23,11.12,24.05,13.45,27,7.12,65.09,11.15,89.72-4.62l1.36-.87L460,110l-1.36.87c-25.5,16.32-64.36,12.4-92.3,5-9.29-2.46-17.77-8.16-25.22-14-8.47-6.67-16.33-14.12-24.58-21.06-10.93-9.2-23.15-18.2-37.2-21.88-10.61-2.77-20.64-2.17-30.48,2.78-9,4.53-16.6,11.94-23.66,19-8.59,8.59-17.72,18.3-29,23.35-10.27,4.61-20.62,4.52-31.26,1.09-10.21-3.28-18.69-9.43-27.24-15.66-6.44-4.7-14.53-10.83-22.56-12.15-6.78-1.11-14,0-20.57,1.53-7.69,1.83-15.24,4.46-22.77,6.86-12.25,3.9-26,7.89-39,5.9a39.17,39.17,0,0,1-17.42-7.18l-1.3-.95L16,80.92Z"/></g><g class="cls-12"><path class="cls-10" d="M16.64,82.79c83.46,29.91,91.72,35.6,147.4-38.27C174.15,31.11,187.26,15.76,201.79,7c9.32-5.63,19.53-8.68,30.35-6,10.48,2.61,19.26,10.06,26.47,17.77,8.48,9.08,15.84,19.5,23.24,29.47,10.37,14,23.69,31.78,39.8,39.24,8.46,3.93,16.45,5.8,25.6,3.25A83.28,83.28,0,0,0,359,86a121.53,121.53,0,0,1,14-5.64c14.91-4.71,30-4.17,45.26-1.37l1.58.29-.58,3.16-1.58-.29c-14.7-2.7-29.32-3.27-43.71,1.27A118.76,118.76,0,0,0,360.35,89a84.72,84.72,0,0,1-12.24,4.86c-9.91,2.77-18.63.84-27.81-3.42-16.75-7.76-30.26-25.74-41-40.24-7.32-9.87-14.62-20.21-23-29.19-6.75-7.22-15.08-14.4-24.89-16.85-10-2.48-19.35.45-27.92,5.62-14.14,8.54-27,23.68-36.84,36.72-6.1,8.1-12.31,16.16-18.8,24a210.62,210.62,0,0,1-16,17.42c-8.35,8-17.69,14.9-29.11,17.62-11.71,2.8-23.89.75-35.34-2.24-7.78-2-15.47-4.56-23.06-7.17-9.63-3.31-19.2-6.79-28.78-10.22L14,85.27l1.09-3Z"/></g><g class="cls-13"><g class="cls-14"><rect class="cls-15" x="14.07" y="48.69" width="492.31" height="71.81"/></g></g><g class="cls-16"><g class="cls-17"><rect class="cls-18" x="14.04" y="9.38" width="421.14" height="104.14"/></g></g><g class="cls-19"><g class="cls-20"><rect class="cls-21" x="14.58" y="40.2" width="473.15" height="88.97"/></g></g><path class="cls-10" d="M111,164h10l17.06,24,17.14-24h10L143,194.65l24.9,33.9H157.79L138,201.4l-19.48,27.15h-9.9l24.43-33.9Zm-64.77-1.52H55l22.19,49.75,21.56-49.75h8.88L69.07,250.58H60.31l12.42-28.44Zm-7.72,7.07L33.22,175q-6.72-6.48-13-6.47a10,10,0,0,0-7,2.63,8.34,8.34,0,0,0-2.87,6.31,9,9,0,0,0,2.41,5.89q2.36,3,10,6.89Q32,195,35.33,199.53a17.14,17.14,0,0,1,3.23,10.19A18.11,18.11,0,0,1,33,223.1a18.93,18.93,0,0,1-13.93,5.51A24.88,24.88,0,0,1,8.4,226.22,22.53,22.53,0,0,1,0,219.55l5.25-6q6.36,7.17,13.48,7.17a12.07,12.07,0,0,0,8.44-3.19,9.94,9.94,0,0,0,3.52-7.52,9.6,9.6,0,0,0-2.31-6.35c-1.53-1.85-5-4.16-10.41-7q-8.77-4.42-11.9-8.88a16.67,16.67,0,0,1-3.18-10,16.22,16.22,0,0,1,5-12.2,17.42,17.42,0,0,1,12.64-4.86C26.49,160.79,32.45,163.68,38.5,169.51Z"/></g></g></svg>