<svg width="24" height="24" viewBox="0 0 24 24" fill="none" xmlns="http://www.w3.org/2000/svg">
<path d="M12.9417 20.1816C12.6382 19.6578 13.0135 19 13.6158 19H18.5L20.9611 23H15.3906C14.9743 23 14.5893 22.7774 14.3795 22.4153L12.9417 20.1816Z" fill="#0068DA"/>
<path d="M22.4709 14.6714C22.1783 14.1475 21.4336 14.135 21.1238 14.6488L18.5 19L20.9611 23L23.8379 18.0847C24.0497 17.7227 24.0542 17.2746 23.8497 16.9085L22.4709 14.6714Z" fill="#0047BB"/>
<path d="M17.2027 9.28387C16.8979 9.81938 16.1271 9.80833 15.8377 9.26431L13.5763 5.01409L15.8377 1L18.5 5.92174C18.6944 6.28111 18.6897 6.71627 18.4877 7.07134L17.2027 9.28387Z" fill="#0068DA"/>
<path d="M7.82293 3.83248C7.51946 4.35628 7.89471 5.01409 8.49698 5.01409L13.5763 5.01409L15.8377 1L10.1696 1C9.75327 1 9.36828 1.22265 9.15851 1.58472L7.82293 3.83248Z" fill="#0047BB"/>
<path d="M6.68664 23C7.29045 23 7.6655 22.3392 7.35895 21.8154L4.8333 17.5H0L2.87939 22.4198C3.08981 22.7793 3.47338 23 3.88785 23H6.68664Z" fill="#0047BB"/>
<path d="M6.68669 12C7.29051 12 7.66555 12.6608 7.359 13.1846L4.8333 17.5H0L2.87944 12.5802C3.08986 12.2207 3.47343 12 3.8879 12H6.68669Z" fill="#0068DA"/>
<path d="M10 11.7857C10 11.3518 10.3494 11 10.7804 11H13.2196C13.6506 11 14 11.3518 14 11.7857V14.2143C14 14.6482 13.6506 15 13.2196 15H10.7804C10.3494 15 10 14.6482 10 14.2143V11.7857Z" fill="#D22730"/>
</svg>
