<svg xmlns="http://www.w3.org/2000/svg" viewBox="0 0 1028 1028"><defs><style>.cls-1{fill:#ececec;}</style></defs><title>city_4Asset 1</title><g id="Layer_2" data-name="Layer 2"><g id="Layer_1-2" data-name="Layer 1"><path class="cls-1" d="M0,164.5V439H134.3C164.6,284.9,286.6,163.4,441,133.9V0H164.5C73.7,0,0,73.7,0,164.5Z"/><path class="cls-1" d="M893.7,439H1028V164.5C1028,73.7,954.3,0,863.5,0H591V134.7C743.5,165.5,863.7,286.2,893.7,439Z"/><path class="cls-1" d="M893.7,589C863.7,741.8,743.5,862.5,591,893.3V1028H863.5c90.8,0,164.5-73.7,164.5-164.5V589Z"/><path class="cls-1" d="M518,261.2c-137.4,0-248.8,111.4-248.8,248.8a247.51,247.51,0,0,0,23.2,105L130.8,747.5c-1.1.8-2.1,1.6-3.2,2.4A68.34,68.34,0,0,0,207,860.8h0a70.72,70.72,0,0,0,15.1-12.7l156.5-132A248,248,0,0,0,518,758.8c137.4,0,248.8-111.4,248.8-248.8S655.4,261.2,518,261.2Zm-1,361.9A110.1,110.1,0,1,1,627.1,513,110.11,110.11,0,0,1,517,623.1Z"/></g></g></svg>