<?xml version="1.0" encoding="utf-8"?>
<!-- Generator: Adobe Illustrator 23.0.6, SVG Export Plug-In . SVG Version: 6.00 Build 0)  -->
<svg version="1.1" id="Layer_1" xmlns="http://www.w3.org/2000/svg" xmlns:xlink="http://www.w3.org/1999/xlink" x="0px" y="0px"
	 viewBox="0 0 1275 951" style="enable-background:new 0 0 1275 951;" xml:space="preserve">
<style type="text/css">
	.st0{opacity:0.36;fill:#398AB2;}
	.st1{opacity:0.55;fill:#56ADE2;}
</style>
<title>Asset 3</title>
<path class="st0" d="M0,90.2v150.5h73.7C90.5,156,157,89.8,241.8,73.4V0H90.2C40.4,0,0,40.4,0,90.2z"/>
<path class="st0" d="M490.1,240.8h73.6V90.2c0-49.8-40.4-90.2-90.2-90.2H324.1v73.9C408,91,473.4,156.8,490.1,240.8z"/>
<path class="st0" d="M490.1,323c-16.7,84-82.1,149.8-166,166.9v73.9h149.4c49.8,0,90.2-40.4,90.2-90.2V323H490.1z"/>
<path class="st0" d="M284.1,143.2c-75.4,0-136.5,61.2-136.4,136.5c0,19.9,4.3,39.5,12.7,57.5l-88.6,72.7c-0.6,0.4-1.2,0.9-1.8,1.3
	C54,424.4,51.6,448,64.8,464c11.9,14.5,32.8,18,48.7,8.1l0,0c3.1-1.9,5.9-4.3,8.3-7l85.8-72.4c62.4,42.2,147.2,25.9,189.5-36.6
	s25.9-147.2-36.6-189.5C338,151.4,311.3,143.2,284.1,143.2L284.1,143.2z M283.5,341.7c-33.3,0-60.4-27-60.4-60.4s27-60.4,60.4-60.4
	s60.4,27,60.4,60.4c0,0,0,0,0,0C343.9,314.7,316.9,341.7,283.5,341.7L283.5,341.7z"/>
<path class="st1" d="M862.8,604.7v110.1h53.9c12.3-62,60.9-110.4,123-122.3v-53.7H928.7C892.3,538.8,862.8,568.3,862.8,604.7z"/>
<path class="st1" d="M1221.1,714.8h53.9V604.7c0-36.5-29.5-66-66-66h-109.3v54C1161.1,605.2,1209,653.4,1221.1,714.8z"/>
<path class="st1" d="M1221.1,775c-12.2,61.4-60.1,109.5-121.4,122v54H1209c36.5,0,66-29.5,66-66V775H1221.1z"/>
<path class="st1" d="M1070.5,643.5c-55.1,0-99.8,44.7-99.8,99.8c0,14.5,3.2,28.9,9.3,42.1l-64.8,53.1c-0.4,0.3-0.8,0.7-1.3,1
	c-11.8,9.5-13.6,26.7-4.1,38.5c8.7,10.8,24.2,13.4,36,6l0,0c2.2-1.4,4.3-3.1,6.1-5.1l62.8-52.9c45.6,30.9,107.7,18.9,138.5-26.8
	c30.9-45.6,18.9-107.7-26.8-138.5C1109.9,649.5,1090.4,643.6,1070.5,643.5L1070.5,643.5z M1070.1,788.6c-24.4,0-44.2-19.8-44.2-44.2
	c0-24.4,19.8-44.2,44.2-44.2c24.4,0,44.2,19.8,44.2,44.2c0,0,0,0,0,0C1114.2,768.9,1094.5,788.6,1070.1,788.6z"/>
</svg>
