<svg width="490" height="171" viewBox="0 0 490 171" fill="none" xmlns="http://www.w3.org/2000/svg">
<path d="M245.002 162.482C243.972 162.483 242.95 162.329 241.979 162.026L5.60409 88.2925C2.20124 87.2309 0 84.5905 0 81.5607C0 78.531 2.20123 75.8906 5.60066 74.8289L241.979 1.09544C243.936 0.487066 246.067 0.487066 248.025 1.09544L484.399 74.8289C487.802 75.8906 490 78.534 490 81.5607C490 84.5875 487.802 87.2309 484.399 88.2925L248.025 162.026C247.053 162.328 246.031 162.483 245.002 162.482Z" fill="url(#paint0_linear_646_372)"/>
<g opacity="0.5" filter="url(#filter0_f_646_372)">
<path d="M243.001 140.244C242.299 140.245 241.603 140.141 240.941 139.936L79.8199 90.166C77.5004 89.4494 76 87.6671 76 85.6221C76 83.577 77.5004 81.7947 79.8176 81.0781L240.941 31.308C242.275 30.8973 243.728 30.8973 245.062 31.308L406.182 81.0781C408.502 81.7947 410 83.579 410 85.6221C410 87.6651 408.502 89.4494 406.182 90.166L245.062 139.936C244.399 140.14 243.703 140.244 243.001 140.244Z" fill="url(#paint1_radial_646_372)" fill-opacity="0.5" style="mix-blend-mode:multiply"/>
</g>
<path d="M339.988 114.5L338.098 115.069L337.754 113.853L339.632 113.288C340.179 113.123 340.601 112.865 340.9 112.515C341.202 112.163 341.381 111.736 341.436 111.233C341.495 110.729 341.433 110.169 341.252 109.552L341.11 109.071C340.969 108.592 340.79 108.184 340.572 107.847C340.358 107.51 340.108 107.247 339.823 107.058C339.543 106.869 339.231 106.755 338.889 106.717C338.551 106.677 338.185 106.716 337.792 106.835L335.811 107.431L335.453 106.213L337.434 105.617C338.022 105.44 338.588 105.378 339.133 105.43C339.676 105.479 340.179 105.635 340.64 105.898C341.105 106.16 341.509 106.52 341.851 106.978C342.193 107.437 342.458 107.984 342.646 108.622L342.784 109.091C342.971 109.728 343.046 110.333 343.007 110.906C342.968 111.479 342.825 112.004 342.577 112.481C342.328 112.953 341.985 113.364 341.55 113.711C341.117 114.054 340.596 114.317 339.988 114.5ZM336.334 105.948L338.943 114.814L337.417 115.274L334.808 106.407L336.334 105.948ZM347.597 103.843L347.214 112.324L345.616 112.805L346.338 102.936L347.359 102.629L347.597 103.843ZM352.071 110.862L347.159 103.975L346.696 102.828L347.723 102.519L353.675 110.379L352.071 110.862ZM350.975 107.612L351.332 108.824L346.518 110.273L346.162 109.061L350.975 107.612ZM355.928 100.049L358.537 108.915L357.023 109.371L354.414 100.504L355.928 100.049ZM358.706 99.2122L359.064 100.43L352.019 102.551L351.661 101.333L358.706 99.2122ZM364.079 98.8804L363.696 107.361L362.098 107.843L362.819 97.9736L363.841 97.6661L364.079 98.8804ZM368.553 105.899L363.641 99.0122L363.178 97.8656L364.205 97.5563L370.157 105.416L368.553 105.899ZM367.457 102.649L367.814 103.861L363 105.311L362.644 104.099L367.457 102.649Z" fill="white"/>
<defs>
<filter id="filter0_f_646_372" x="46" y="1" width="394" height="169.244" filterUnits="userSpaceOnUse" color-interpolation-filters="sRGB">
<feFlood flood-opacity="0" result="BackgroundImageFix"/>
<feBlend mode="normal" in="SourceGraphic" in2="BackgroundImageFix" result="shape"/>
<feGaussianBlur stdDeviation="15" result="effect1_foregroundBlur_646_372"/>
</filter>
<linearGradient id="paint0_linear_646_372" x1="245.002" y1="-8.07599" x2="245.002" y2="162.218" gradientUnits="userSpaceOnUse">
<stop stop-color="#0571FB"/>
<stop offset="1" stop-color="#051BDB"/>
</linearGradient>
<radialGradient id="paint1_radial_646_372" cx="0" cy="0" r="1" gradientUnits="userSpaceOnUse" gradientTransform="translate(243 93) rotate(-0.412194) scale(139.004 162.151)">
<stop offset="0.0001" stop-color="#002299"/>
<stop offset="1" stop-color="#066BF9"/>
</radialGradient>
</defs>
</svg>
