<svg id="Group_106" data-name="Group 106" xmlns="http://www.w3.org/2000/svg" width="61.81" height="73.048" viewBox="0 0 61.81 73.048">
  <path id="Path_114" data-name="Path 114" d="M47.065,179.141a4.361,4.361,0,0,0-3.2,1.317,4.31,4.31,0,0,0-1.317,3.161v18.877a4.5,4.5,0,0,0,4.521,4.522,4.294,4.294,0,0,0,3.183-1.317,4.4,4.4,0,0,0,1.295-3.205V183.618a4.5,4.5,0,0,0-4.478-4.477Z" transform="translate(-42.544 -155.48)" fill="#fff"/>
  <path id="Path_115" data-name="Path 115" d="M152.94,6.716l3.117-5.75a.578.578,0,0,0-.219-.878.608.608,0,0,0-.878.263l-3.16,5.8a22.019,22.019,0,0,0-17.648,0l-3.161-5.8a.609.609,0,0,0-.878-.263.577.577,0,0,0-.219.878l3.117,5.75a19.248,19.248,0,0,0-7.551,6.739,17.021,17.021,0,0,0-2.81,9.461h40.606a17.025,17.025,0,0,0-2.81-9.461A19.329,19.329,0,0,0,152.94,6.716ZM134.92,15.079a1.646,1.646,0,0,1-1.208.506,1.571,1.571,0,0,1-1.185-.506,1.75,1.75,0,0,1,0-2.414,1.577,1.577,0,0,1,1.185-.5,1.706,1.706,0,0,1,1.208,2.918Zm18.5,0a1.574,1.574,0,0,1-1.185.506,1.712,1.712,0,0,1,0-3.424,1.578,1.578,0,0,1,1.185.5,1.75,1.75,0,0,1,0,2.414Z" transform="translate(-112.07 0)" fill="#fff"/>
  <path id="Path_116" data-name="Path 116" d="M123.971,214.687a4.794,4.794,0,0,0,4.828,4.828h3.249l.045,9.966a4.363,4.363,0,0,0,1.317,3.205A4.311,4.311,0,0,0,136.57,234a4.5,4.5,0,0,0,4.521-4.522v-9.965h6.058v9.965a4.521,4.521,0,1,0,9.042,0v-9.965h3.293a4.794,4.794,0,0,0,4.785-4.828V185.45h-40.3Z" transform="translate(-113.216 -160.955)" fill="#fff"/>
  <path id="Path_117" data-name="Path 117" d="M446.853,179.141a4.35,4.35,0,0,0-3.161,1.295,4.293,4.293,0,0,0-1.317,3.182v18.877a4.36,4.36,0,0,0,1.317,3.205,4.311,4.311,0,0,0,3.161,1.317,4.5,4.5,0,0,0,4.521-4.522V183.618a4.292,4.292,0,0,0-1.317-3.182A4.4,4.4,0,0,0,446.853,179.141Z" transform="translate(-389.565 -155.48)" fill="#fff"/>
</svg>
