<svg xmlns="http://www.w3.org/2000/svg" width="59.657" height="73" viewBox="0 0 59.657 73">
  <path id="XMLID_230_" d="M164.263,0a16.667,16.667,0,0,0-11,5.644c-2.3,2.663-4.545,7.1-3.953,11.579a.6.6,0,0,0,.547.518c.255.02.515.03.774.03a14.1,14.1,0,0,0,10.386-5.327A16.464,16.464,0,0,0,164.882.533.6.6,0,0,0,164.263,0Z" transform="translate(-120.169 0)" fill="#fff"/>
  <path id="XMLID_229_" d="M30.954,81.846c-6.171,10.709-2.248,26.962,4.576,36.816,3.407,4.927,6.856,9.349,11.579,9.349.089,0,.178,0,.27-.005a14.3,14.3,0,0,0,5.374-1.432,14.716,14.716,0,0,1,6.366-1.509,13.84,13.84,0,0,1,6.06,1.46,12.838,12.838,0,0,0,5.8,1.392c5.321-.1,8.588-4.871,11.471-9.081A40.252,40.252,0,0,0,87.48,108.54l.021-.065a.6.6,0,0,0-.318-.734l-.044-.019A15.252,15.252,0,0,1,77.9,93.755c-.08-8.075,6.166-12.35,7.419-13.125l.058-.036a.6.6,0,0,0,.17-.84,17.266,17.266,0,0,0-13.58-7.375c-.386-.039-.785-.058-1.185-.058-3.125,0-6.118,1.18-8.523,2.128a13.7,13.7,0,0,1-4.083,1.22,13.358,13.358,0,0,1-4.223-1.235,20.464,20.464,0,0,0-7.444-1.891l-.189,0A18.253,18.253,0,0,0,30.954,81.846Z" transform="translate(-27.875 -55.011)" fill="#fff"/>
</svg>
