<svg id="Group_127" data-name="Group 127" xmlns="http://www.w3.org/2000/svg" width="72.958" height="89.276" viewBox="0 0 72.958 89.276">
  <path id="XMLID_230_" d="M167.619,0C163,.189,157.47,3.029,154.162,6.9c-2.811,3.257-5.558,8.687-4.834,14.161A.731.731,0,0,0,150,21.7c.311.024.629.037.946.037,4.512,0,9.378-2.5,12.7-6.515A20.135,20.135,0,0,0,168.376.652.736.736,0,0,0,167.619,0Z" transform="translate(-113.694 0)" fill="#fff"/>
  <path id="XMLID_229_" d="M31.64,83.97c-7.548,13.1-2.749,32.973,5.6,45.025,4.166,6.025,8.384,11.433,14.161,11.433.109,0,.218,0,.33-.006A17.489,17.489,0,0,0,58.3,138.67a18,18,0,0,1,7.785-1.846,16.926,16.926,0,0,1,7.411,1.785,15.7,15.7,0,0,0,7.1,1.7c6.507-.121,10.5-5.957,14.028-11.106a49.227,49.227,0,0,0,6.146-12.589l.025-.079a.732.732,0,0,0-.389-.9l-.054-.023a18.653,18.653,0,0,1-11.3-17.082c-.1-9.875,7.541-15.1,9.073-16.052l.071-.044A.732.732,0,0,0,98.4,81.41a21.116,21.116,0,0,0-16.608-9.019c-.472-.047-.959-.071-1.449-.071-3.822,0-7.483,1.443-10.424,2.6a16.755,16.755,0,0,1-4.993,1.492,16.336,16.336,0,0,1-5.165-1.51c-2.731-1.084-5.826-2.312-9.1-2.312l-.231,0A22.322,22.322,0,0,0,31.64,83.97Z" transform="translate(-27.875 -51.151)" fill="#fff"/>
</svg>
