<svg xmlns="http://www.w3.org/2000/svg" width="118.374" height="126.829" viewBox="0 0 118.374 126.829">
  <g id="Solid" transform="translate(-32 -16)">
    <path id="Path_130" data-name="Path 130" d="M150.347,275.014a6.557,6.557,0,0,1,.9-3.325l-1.032-.366a2.114,2.114,0,0,1-1.245-1.184c-.994-2.4-1.547-3.736-2.452-5.919l-.324-.782a2.114,2.114,0,0,1,.044-1.717l3.119-6.561-4.4-4.406-6.561,3.118a2.114,2.114,0,0,1-1.715.044c-2.677-1.107-4.03-1.668-6.708-2.778a2.112,2.112,0,0,1-1.048-.951l-6.666-3.169-4.969,2.058-2.619,7.365a2.114,2.114,0,0,1-1.993,1.406h-9.213a2.114,2.114,0,0,1-1.991-1.405L100,252.287l-2.872,2.871,3.119,6.561a2.114,2.114,0,0,1,.044,1.717l-.324.782c-.906,2.184-1.459,3.518-2.452,5.919a2.114,2.114,0,0,1-1.245,1.184l-6.843,2.436v6.228l6.843,2.436A2.114,2.114,0,0,1,97.51,283.6c.994,2.4,1.547,3.736,2.452,5.919l.324.782a2.114,2.114,0,0,1-.044,1.717l-3.119,6.561,4.406,4.4,6.559-3.118a2.115,2.115,0,0,1,1.716-.044c2.677,1.107,4.031,1.668,6.708,2.778a2.114,2.114,0,0,1,1.182,1.245l2.433,6.843h6.229l2.433-6.843a2.114,2.114,0,0,1,1.182-1.245c2.677-1.11,4.031-1.671,6.708-2.778a2.116,2.116,0,0,1,1.715.044l6.561,3.118,4.4-4.4-3.119-6.561a2.114,2.114,0,0,1-.044-1.717l.324-.782c.906-2.184,1.459-3.518,2.452-5.919a2.114,2.114,0,0,1,1.245-1.184l3.543-1.26-1.482-1.481A6.556,6.556,0,0,1,150.347,275.014ZM123.241,295.9a19.024,19.024,0,1,1,19.024-19.024A19.024,19.024,0,0,1,123.241,295.9Z" transform="translate(-42.25 -169.977)" fill="#fff"/>
    <path id="Path_131" data-name="Path 131" d="M52.385,72.776l6.705,2.778A2.112,2.112,0,0,1,60.272,76.8l2.434,6.843h6.229L71.37,76.8a2.112,2.112,0,0,1,1.183-1.245l6.7-2.778a2.112,2.112,0,0,1,1.717.044l6.56,3.118,4.4-4.4-3.118-6.56a2.114,2.114,0,0,1-.044-1.717l2.778-6.705A2.112,2.112,0,0,1,92.8,55.37l6.843-2.434V46.707L92.8,44.272a2.112,2.112,0,0,1-1.245-1.183l-2.778-6.7a2.114,2.114,0,0,1,.044-1.717l3.118-6.56-4.4-4.4-6.56,3.118a2.112,2.112,0,0,1-1.717.044l-6.7-2.777a2.112,2.112,0,0,1-1.182-1.245L68.935,16H62.707l-2.434,6.843a2.112,2.112,0,0,1-1.183,1.245l-6.7,2.778a2.112,2.112,0,0,1-1.717-.044L44.107,23.7l-4.4,4.4,3.118,6.56a2.114,2.114,0,0,1,.044,1.717l-2.777,6.7a2.112,2.112,0,0,1-1.245,1.182L32,46.707v6.229l6.843,2.434a2.112,2.112,0,0,1,1.245,1.183l2.778,6.7a2.114,2.114,0,0,1-.044,1.717L39.7,71.535l4.4,4.4,6.56-3.118A2.112,2.112,0,0,1,52.385,72.776ZM65.821,30.8A19.024,19.024,0,1,1,46.8,49.821,19.024,19.024,0,0,1,65.821,30.8Z" fill="#fff"/>
    <path id="Path_132" data-name="Path 132" d="M325.241,306.533a6.6,6.6,0,0,1,6.341,1.717L333,309.669v-7.58h-8.833a2.114,2.114,0,0,1-1.991-1.405l-.766-2.154-.978,2.056c.771,1.86,1.289,3.109,2.058,4.967Z" transform="translate(-212.221 -207.878)" fill="#fff"/>
    <ellipse id="Ellipse_1" data-name="Ellipse 1" cx="15.5" cy="14.5" rx="15.5" ry="14.5" transform="translate(50.186 35.414)" fill="#fff"/>
    <circle id="Ellipse_2" data-name="Ellipse 2" cx="14.797" cy="14.797" r="14.797" transform="translate(66.195 92.097)" fill="#fff"/>
    <path id="Path_133" data-name="Path 133" d="M308.824,68.272a2.114,2.114,0,0,1-1.244-1.182l-.325-.782c-.906-2.185-1.459-3.519-2.454-5.923a2.113,2.113,0,0,1,.044-1.715l3.118-6.561-4.4-4.4L297,50.822a2.114,2.114,0,0,1-1.715.044c-2.4-.995-3.738-1.548-5.923-2.454l-.782-.324a2.114,2.114,0,0,1-1.183-1.245L284.96,40h-6.228L276.3,46.843a2.114,2.114,0,0,1-1.182,1.244l-.782.324c-2.185.906-3.519,1.459-5.923,2.454a2.114,2.114,0,0,1-1.715-.044l-5.861-2.785-2.5,5.257,2.058,4.969,7.365,2.619c.035.013.067.031.1.045A19.024,19.024,0,1,1,262.925,75.8l-2.531.9-2.058,4.969,3.356,7.059a2.114,2.114,0,0,1-.415,2.4l-4.624,4.624,3.819,1.581,7.06-3.356a2.114,2.114,0,0,1,2.4.415l6.513,6.513a2.109,2.109,0,0,1,.57,1.918l1.715,4.821h6.228l1.114-3.129V101.3a6.337,6.337,0,0,1,10.75-4.552c.059.022.117.044.174.072l6.561,3.118,4.4-4.4-3.118-6.561a2.114,2.114,0,0,1-.044-1.715c.995-2.4,1.548-3.738,2.454-5.923l.324-.782a2.114,2.114,0,0,1,1.245-1.183l6.843-2.436V70.706Z" transform="translate(-165.294 -17.659)" fill="#fff"/>
    <path id="Path_134" data-name="Path 134" d="M364.205,278.8h-9.181a2.114,2.114,0,0,1-2.114-2.114V266.114a2.114,2.114,0,1,0-4.228,0v23.252a2.114,2.114,0,0,1-3.609,1.495l-5.028-5.028a2.37,2.37,0,1,0-3.352,3.352l11.37,11.37a2.114,2.114,0,0,1,.619,1.495v4.228h16.91v-4.228a2.114,2.114,0,0,1,.619-1.495l4.953-4.952a9.844,9.844,0,0,0-6.961-16.8Z" transform="translate(-223.676 -182.472)" fill="#fff"/>
    <path id="Path_135" data-name="Path 135" d="M310.832,141.588a14.8,14.8,0,1,0-12.683-22.423v5.891a2.114,2.114,0,0,1-1.405,1.991l-.7.247A14.812,14.812,0,0,0,310.832,141.588Z" transform="translate(-194.28 -70.629)" fill="#fff"/>
    <path id="Path_136" data-name="Path 136" d="M368,454.8h25.366V440H368Zm16.91-10.569h4.228v4.228H384.91Z" transform="translate(-247.22 -311.968)" fill="#fff"/>
  </g>
</svg>
