<svg xmlns="http://www.w3.org/2000/svg" width="141.777" height="144.222" viewBox="0 0 141.777 144.222">
  <g id="machine-learning" transform="translate(-3 -3)">
    <path id="Path_194" data-name="Path 194" d="M48.337,31.287l6.51,4.884V66.726h4.889v-33L50.2,26.574a43.267,43.267,0,0,1-1.86,4.713Z" transform="translate(65.487 34.051)" fill="#fff"/>
    <path id="Path_195" data-name="Path 195" d="M15.889,36.171l6.51-4.884a43.27,43.27,0,0,1-1.86-4.713L11,33.726v33h4.889Z" transform="translate(11.556 34.051)" fill="#fff"/>
    <ellipse id="Ellipse_3" data-name="Ellipse 3" cx="9.5" cy="10.5" rx="9.5" ry="10.5" transform="translate(64 36.222)" fill="#fff"/>
    <path id="Path_196" data-name="Path 196" d="M46.444,11A24.444,24.444,0,1,0,70.889,35.444,24.472,24.472,0,0,0,46.444,11Zm0,39.111A14.667,14.667,0,1,1,61.111,35.444,14.681,14.681,0,0,1,46.444,50.111Z" transform="translate(27.444 11.556)" fill="#fff"/>
    <path id="Path_197" data-name="Path 197" d="M93.053,74.172l-2.65-5.3.728-1.166a38.8,38.8,0,0,0,4.952-11.931l.308-1.34L102,52.571V41.427l-5.608-1.87-.308-1.34a38.8,38.8,0,0,0-4.952-11.931L90.4,25.12l2.65-5.3-7.881-7.876-5.3,2.65-1.166-.728A38.8,38.8,0,0,0,66.778,8.916l-1.34-.308L63.571,3H52.427l-1.87,5.608-1.337.308a38.8,38.8,0,0,0-11.931,4.952l-1.166.728-5.295-2.65-7.881,7.881,2.65,5.3-.728,1.166a38.8,38.8,0,0,0-4.952,11.931l-.308,1.34L14,41.429V52.573l5.608,1.87.308,1.34a38.794,38.794,0,0,0,4.952,11.931L25.6,68.88l-2.65,5.3,7.881,7.881,5.3-2.65,1.166.728a38.794,38.794,0,0,0,11.931,4.952l1.34.308L52.429,91H63.573l1.87-5.608,1.34-.308a38.8,38.8,0,0,0,11.931-4.952L79.88,79.4l5.3,2.65Zm-.831-29.617h4.889v4.889H92.222ZM23.778,49.444H18.889V44.555h4.889ZM83.926,17.615l3.456,3.456-3.456,3.456-3.456-3.456ZM55.555,7.889h4.889v4.889H55.555ZM32.074,17.615l3.456,3.456-3.456,3.456-3.456-3.456Zm0,58.769-3.456-3.456,3.456-3.456,3.456,3.456Zm28.37,9.726H55.555V81.222h4.889ZM58,76.333A29.333,29.333,0,1,1,87.333,47,29.366,29.366,0,0,1,58,76.333Zm22.469-3.408,3.456-3.456,3.456,3.456-3.456,3.456Z" transform="translate(15.889)" fill="#fff"/>
    <path id="Path_198" data-name="Path 198" d="M82.111,47V71.444H47.889V47H43V76.333H57.984l.706,1.215a7.254,7.254,0,0,0,12.618,0l.706-1.215H87V47Z" transform="translate(57.778 63.555)" fill="#fff"/>
    <path id="Path_199" data-name="Path 199" d="M47,69.444H71.444V45H47Zm4.889-19.556H66.556v4.889H51.889Zm0,9.778H66.556v4.889H51.889Z" transform="translate(63.555 60.666)" fill="#fff"/>
    <path id="Path_200" data-name="Path 200" d="M42.111,71.444H7.889V47H3V76.333H17.984l.706,1.215a7.254,7.254,0,0,0,12.618,0l.706-1.215H47V47H42.111Z" transform="translate(0 63.555)" fill="#fff"/>
    <path id="Path_201" data-name="Path 201" d="M31.444,45H7V69.444H31.444ZM26.556,64.556H11.889V59.667H26.556Zm0-9.778H11.889V49.889H26.556Z" transform="translate(5.778 60.666)" fill="#fff"/>
    <path id="Path_202" data-name="Path 202" d="M26,58.667h4.889V88H50.444V58.667h4.889L40.667,44Z" transform="translate(33.222 59.222)" fill="#fff"/>
  </g>
</svg>
