<svg xmlns="http://www.w3.org/2000/svg" width="119.329" height="71.358" viewBox="0 0 119.329 71.358">
  <path id="Path_124" data-name="Path 124" d="M42.794,27.016a12.008,12.008,0,0,0,.437,3.532,21.244,21.244,0,0,0,1.27,2.858,1.726,1.726,0,0,1,.278.913,1.571,1.571,0,0,1-.754,1.191l-2.5,1.667a1.9,1.9,0,0,1-1.032.357,1.826,1.826,0,0,1-1.191-.556,12.278,12.278,0,0,1-1.429-1.865c-.4-.675-.794-1.429-1.23-2.342a14.661,14.661,0,0,1-11.668,5.477,10.874,10.874,0,0,1-7.938-2.858A10.2,10.2,0,0,1,14.1,27.77a10.217,10.217,0,0,1,3.612-8.176c2.421-2.064,5.636-3.1,9.723-3.1a31.423,31.423,0,0,1,4.207.318c1.468.2,2.977.516,4.564.873v-2.9c0-3.016-.635-5.12-1.865-6.35-1.27-1.23-3.413-1.826-6.469-1.826a18.057,18.057,0,0,0-4.286.516A31.623,31.623,0,0,0,19.3,8.482,11.388,11.388,0,0,1,17.91,9a2.434,2.434,0,0,1-.635.119c-.556,0-.833-.4-.833-1.23V5.942a2.511,2.511,0,0,1,.278-1.389,2.972,2.972,0,0,1,1.111-.833,22.849,22.849,0,0,1,5-1.786,24.062,24.062,0,0,1,6.191-.754c4.723,0,8.176,1.072,10.4,3.215,2.183,2.143,3.294,5.4,3.294,9.763V27.016ZM26.681,33.048a12.862,12.862,0,0,0,4.088-.714,8.844,8.844,0,0,0,3.77-2.54,6.3,6.3,0,0,0,1.349-2.54,14.248,14.248,0,0,0,.4-3.453V22.134a33.143,33.143,0,0,0-3.651-.675,29.905,29.905,0,0,0-3.731-.238c-2.659,0-4.6.516-5.913,1.588a5.532,5.532,0,0,0-1.945,4.564,5.54,5.54,0,0,0,1.468,4.207A5.5,5.5,0,0,0,26.681,33.048ZM58.55,37.335a2.216,2.216,0,0,1-1.508-.4,3.235,3.235,0,0,1-.833-1.548L46.882,4.712a6.952,6.952,0,0,1-.357-1.588.871.871,0,0,1,.953-.992h3.889a2.2,2.2,0,0,1,1.548.4,3.247,3.247,0,0,1,.794,1.548L60.376,30.35,66.567,4.077a2.784,2.784,0,0,1,.754-1.548,2.73,2.73,0,0,1,1.588-.4h3.175a2.388,2.388,0,0,1,1.588.4,2.674,2.674,0,0,1,.754,1.548L80.7,30.667,87.562,4.077a3.4,3.4,0,0,1,.794-1.548,2.589,2.589,0,0,1,1.548-.4h3.691a.882.882,0,0,1,.992.992,3.957,3.957,0,0,1-.079.635,5.647,5.647,0,0,1-.278.992L84.664,35.43a3.043,3.043,0,0,1-.833,1.548,2.539,2.539,0,0,1-1.508.4H78.91a2.388,2.388,0,0,1-1.588-.4,2.814,2.814,0,0,1-.754-1.588l-6.152-25.6L64.3,35.35a3.1,3.1,0,0,1-.754,1.588,2.46,2.46,0,0,1-1.588.4Zm51,1.072a26.263,26.263,0,0,1-6.112-.714A18.055,18.055,0,0,1,98.873,36.1a2.86,2.86,0,0,1-1.23-1.111,2.8,2.8,0,0,1-.238-1.111V31.858c0-.833.318-1.23.913-1.23a2.247,2.247,0,0,1,.714.119c.238.079.6.238.992.4a21.587,21.587,0,0,0,4.366,1.389,23.834,23.834,0,0,0,4.723.476,10.708,10.708,0,0,0,5.794-1.31,4.274,4.274,0,0,0,2.064-3.77,3.865,3.865,0,0,0-1.072-2.778,9.958,9.958,0,0,0-4.008-2.064L106.135,21.3a12.105,12.105,0,0,1-6.35-4.048A9.456,9.456,0,0,1,97.8,11.5a8.833,8.833,0,0,1,1.072-4.405,10.2,10.2,0,0,1,2.858-3.254,12.6,12.6,0,0,1,4.128-2.064,17.3,17.3,0,0,1,5-.675,19.924,19.924,0,0,1,2.659.159c.913.119,1.746.278,2.58.437.794.2,1.548.4,2.262.635a8.662,8.662,0,0,1,1.667.714,3.432,3.432,0,0,1,1.191.992,2.139,2.139,0,0,1,.357,1.31V7.212c0,.833-.317,1.27-.913,1.27a4.128,4.128,0,0,1-1.508-.476,18.156,18.156,0,0,0-7.62-1.548,10.244,10.244,0,0,0-5.278,1.111,3.832,3.832,0,0,0-1.865,3.532,3.748,3.748,0,0,0,1.191,2.818,11.855,11.855,0,0,0,4.366,2.183l5.636,1.786a12.071,12.071,0,0,1,6.152,3.81,8.981,8.981,0,0,1,1.826,5.556,10.2,10.2,0,0,1-1.032,4.6,10.674,10.674,0,0,1-2.9,3.493,12.793,12.793,0,0,1-4.405,2.222A18.872,18.872,0,0,1,109.549,38.406Z" transform="translate(-9.166 -1.1)" fill="#fff"/>
  <g id="Group_108" data-name="Group 108" transform="translate(0 44.487)">
    <path id="Path_125" data-name="Path 125" d="M109.551,128.889c-13.057,9.644-32.028,14.764-48.339,14.764A87.451,87.451,0,0,1,2.2,121.15c-1.23-1.111-.119-2.619,1.349-1.746A119.018,119.018,0,0,0,62.6,135.08a117.847,117.847,0,0,0,45.045-9.208C109.829,124.881,111.695,127.3,109.551,128.889Z" transform="translate(-1.668 -116.781)" fill="#fff" fill-rule="evenodd"/>
    <path id="Path_126" data-name="Path 126" d="M262.343,119.109c-1.667-2.143-11.033-1.032-15.28-.516-1.27.159-1.468-.953-.318-1.786,7.461-5.239,19.725-3.731,21.153-1.984,1.429,1.786-.4,14.049-7.382,19.923-1.072.913-2.1.437-1.627-.754C260.478,130.063,264.01,121.212,262.343,119.109Z" transform="translate(-149.023 -113.192)" fill="#fff" fill-rule="evenodd"/>
  </g>
</svg>
