<?xml version="1.0"?>
<svg xmlns="http://www.w3.org/2000/svg" xmlns:xlink="http://www.w3.org/1999/xlink" xmlns:svgjs="http://svgjs.com/svgjs" version="1.1" width="512" height="512" x="0" y="0" viewBox="0 0 64 64" style="enable-background:new 0 0 512 512" xml:space="preserve" class=""><g><path xmlns="http://www.w3.org/2000/svg" d="m18 42v-5.117l4.496-.563c1.998-.249 3.504-1.956 3.504-3.968v-2.733l3.447-1.724c.468-.234.677-.79.478-1.274l-1.96-4.779c.02-.279.035-.559.035-.842 0-7.168-5.832-13-13-13s-13 5.832-13 13c0 .366.124 1.707.124 1.707.073.557.186 1.118.319 1.606l1.562 7.787 1 10c.051.51.481.9.995.9h11c.552 0 1-.447 1-1zm-8-17h-2v-2h2zm0-5h-2v-2h2zm1-7h2v2h-2zm3 10h-2v-2h2zm1-4h-2v-2h2zm7 4h2v2h-2zm-2-5h-2v-2h2zm-4-5h2v2h-2z" fill="#ffffff" data-original="#000000" style="" class=""/><path xmlns="http://www.w3.org/2000/svg" d="m59.965 21.841c.02-.278.035-.558.035-.841 0-7.168-5.832-13-13-13s-13 5.832-13 13c0 .366.124 1.707.124 1.707.073.557.186 1.118.319 1.606l1.562 7.786 1 10c.051.511.481.901.995.901h11c.552 0 1-.447 1-1v-5.117l4.496-.563c1.998-.249 3.504-1.956 3.504-3.968v-2.733l3.447-1.724c.468-.234.677-.79.478-1.274zm-18.965 9.159h-2v-15h2zm4-9h-2v-10h2zm4 4h-2v-11h2zm4-4h-2v-9h2zm3 3h-2v-2h2z" fill="#ffffff" data-original="#000000" style="" class=""/><path xmlns="http://www.w3.org/2000/svg" d="m41.64 45.231c-.298-.249-.714-.302-1.064-.137-.351.165-.576.518-.576.906v4h-27v-5h-2v6c0 .553.448 1 1 1h28v4c0 .388.225.741.576.905.135.064.28.095.424.095.229 0 .457-.079.64-.231l6-5c.228-.191.36-.472.36-.769s-.132-.578-.36-.769z" fill="#ffffff" data-original="#000000" style="" class=""/></g></svg>
