<svg xmlns="http://www.w3.org/2000/svg" width="102" height="101.602" viewBox="0 0 102 101.602">
  <g id="web-development" transform="translate(0 -1)">
    <path id="Path_162" data-name="Path 162" d="M102,24.906V9.965A8.975,8.975,0,0,0,93.035,1H8.965A8.975,8.975,0,0,0,0,9.965V24.906ZM68.93,12.953h17.93a2.988,2.988,0,1,1,0,5.977H68.93a2.988,2.988,0,1,1,0-5.977Zm-29.883,0a2.988,2.988,0,1,1-2.988,2.988A2.988,2.988,0,0,1,39.047,12.953Zm-11.953,0a2.988,2.988,0,1,1-2.988,2.988A2.988,2.988,0,0,1,27.094,12.953Zm-11.953,0a2.988,2.988,0,1,1-2.988,2.988A2.988,2.988,0,0,1,15.141,12.953Z" fill="#fff"/>
    <path id="Path_163" data-name="Path 163" d="M0,151v62.754a8.975,8.975,0,0,0,8.965,8.965h84.07A8.975,8.975,0,0,0,102,213.754V151Zm34.937,42.491a2.988,2.988,0,1,1-3.733,4.667L16.262,186.2a2.989,2.989,0,0,1,0-4.667L31.2,169.584a2.988,2.988,0,1,1,3.733,4.667l-12.024,9.62Zm27.774-29.36-17.93,41.836a2.988,2.988,0,0,1-5.493-2.354l17.93-41.836a2.988,2.988,0,1,1,5.493,2.354ZM85.738,186.2,70.8,198.158a2.988,2.988,0,1,1-3.733-4.667l12.024-9.62-12.024-9.62a2.988,2.988,0,1,1,3.733-4.667l14.941,11.953A2.989,2.989,0,0,1,85.738,186.2Z" transform="translate(0 -120.117)" fill="#fff"/>
  </g>
</svg>
