<svg xmlns="http://www.w3.org/2000/svg" width="140.568" height="117.25" viewBox="0 0 140.568 117.25">
  <path id="alert" d="M137.985,117.736,84.147,33.377a16.445,16.445,0,0,0-27.725,0L2.583,117.735a16.446,16.446,0,0,0,13.863,25.293H124.122a16.445,16.445,0,0,0,13.863-25.293Zm-67.7,11.093a8.964,8.964,0,1,1,8.964-8.964A8.964,8.964,0,0,1,70.284,128.829ZM82.709,66.537,78.294,96.264a8.009,8.009,0,0,1-15.829.1L57.67,66.7a12.669,12.669,0,1,1,25.014-4.042A13.047,13.047,0,0,1,82.709,66.537Z" transform="translate(0 -25.778)" fill="#fff"/>
</svg>
