<?xml version="1.0"?>
<svg xmlns="http://www.w3.org/2000/svg" xmlns:xlink="http://www.w3.org/1999/xlink" xmlns:svgjs="http://svgjs.com/svgjs" version="1.1" width="512" height="512" x="0" y="0" viewBox="0 0 24 24" style="enable-background:new 0 0 512 512" xml:space="preserve" class=""><g><path xmlns="http://www.w3.org/2000/svg" d="m17.5 0h-15.75c-.965 0-1.75.785-1.75 1.75v1.926c0 .735.286 1.426.806 1.945l5.828 5.824c.232.232.366.555.366.884v7.921c0 .293.17.559.437.681.1.047.207.069.313.069.176 0 .35-.062.488-.181l2.801-2.401c.611-.522.961-1.284.961-2.088v-3.98c0-.337.139-.666.382-.9l6.027-5.815c.534-.515.84-1.237.84-1.979v-1.906c.001-.965-.784-1.75-1.749-1.75z" fill="#ffffff" data-original="#000000" style="" class=""/><path xmlns="http://www.w3.org/2000/svg" d="m22.25 12h-6.5c-.965 0-1.75.785-1.75 1.75v8.5c0 .965.785 1.75 1.75 1.75h6.5c.965 0 1.75-.785 1.75-1.75v-8.5c0-.965-.785-1.75-1.75-1.75zm-2 8.5h-2.5c-.414 0-.75-.336-.75-.75s.336-.75.75-.75h2.5c.414 0 .75.336.75.75s-.336.75-.75.75zm0-3h-2.5c-.414 0-.75-.336-.75-.75s.336-.75.75-.75h2.5c.414 0 .75.336.75.75s-.336.75-.75.75z" fill="#ffffff" data-original="#000000" style="" class=""/></g></svg>
