<svg xmlns="http://www.w3.org/2000/svg" width="99.73" height="132.25" viewBox="0 0 99.73 132.25">
  <g id="duplicate" transform="translate(0 0)">
    <path id="Path_203" data-name="Path 203" d="M160.215,31.517a4.021,4.021,0,0,1-4.021-4.021V0H122.642a4.022,4.022,0,0,0-4.022,4.022V22.6H129.57a4.038,4.038,0,0,1,2.847,1.18L163.934,55.3a4.046,4.046,0,0,1,1.179,2.841v49.812h18.575a4.022,4.022,0,0,0,4.022-4.022V31.517Zm0,0" transform="translate(-87.981 0)" fill="#fff"/>
    <path id="Path_204" data-name="Path 204" d="M295.223,22.016V39.8H313.01Zm0,0" transform="translate(-218.967 -16.329)" fill="#fff"/>
    <path id="Path_205" data-name="Path 205" d="M37.57,146.117v-27.5H4.022A4.022,4.022,0,0,0,0,122.643v93.566a4.021,4.021,0,0,0,4.022,4.022H65.068a4.022,4.022,0,0,0,4.022-4.022v-66.07h-27.5a4.021,4.021,0,0,1-4.021-4.022Zm0,0" transform="translate(0 -87.981)" fill="#fff"/>
    <path id="Path_206" data-name="Path 206" d="M176.59,158.433h17.787L176.59,140.648Zm0,0" transform="translate(-130.977 -104.318)" fill="#fff"/>
  </g>
</svg>
