<svg id="google_1_" data-name="google (1)" xmlns="http://www.w3.org/2000/svg" width="76.037" height="76.037" viewBox="0 0 76.037 76.037">
  <g id="Group_119" data-name="Group 119" transform="translate(0 21.195)">
    <g id="Group_118" data-name="Group 118">
      <path id="Path_153" data-name="Path 153" d="M16.87,150.194,3.92,142.717a37.769,37.769,0,0,0,.054,33.617l12.9-7.446a22.917,22.917,0,0,1,0-18.695Z" transform="translate(0 -142.717)" fill="#f7f7f7"/>
    </g>
  </g>
  <g id="Group_121" data-name="Group 121" transform="translate(6.405 0)">
    <g id="Group_120" data-name="Group 120" transform="translate(0 0)">
      <path id="Path_154" data-name="Path 154" d="M99.679,9.322A38.017,38.017,0,0,0,43.127,16.9l12.961,7.483a23.035,23.035,0,0,1,33.349-4.209,2.458,2.458,0,0,0,3.306-.163L99.8,12.957A2.49,2.49,0,0,0,99.679,9.322Z" transform="translate(-43.127 0)" fill="#f7f7f7"/>
    </g>
  </g>
  <g id="Group_123" data-name="Group 123" transform="translate(39.672 31.407)">
    <g id="Group_122" data-name="Group 122">
      <path id="Path_155" data-name="Path 155" d="M303.236,213.692a2.494,2.494,0,0,0-2.473-2.211l-31.152,0a2.48,2.48,0,0,0-2.48,2.48v9.91a2.48,2.48,0,0,0,2.48,2.48h17.457a23.318,23.318,0,0,1-7.956,10.4l7.415,12.843a38.828,38.828,0,0,0,15.638-21.732A36.59,36.59,0,0,0,303.236,213.692Z" transform="translate(-267.131 -211.479)" fill="#f7f7f7"/>
    </g>
  </g>
  <g id="Group_125" data-name="Group 125" transform="translate(6.458 51.652)">
    <g id="Group_124" data-name="Group 124">
      <path id="Path_156" data-name="Path 156" d="M84.393,355.313a23,23,0,0,1-28-7.512l-12.906,7.451a37.98,37.98,0,0,0,31.56,16.934,37.24,37.24,0,0,0,16.765-4.022Z" transform="translate(-43.487 -347.801)" fill="#f7f7f7"/>
    </g>
  </g>
</svg>
