<svg xmlns="http://www.w3.org/2000/svg" width="90.71" height="90.71" viewBox="0 0 90.71 90.71">
  <path id="Path_122" data-name="Path 122" d="M223.668,28.317l1.879,1.879L240.58,15.163,238.7,13.284A45.058,45.058,0,0,0,206.63,0L196,10.63l10.63,10.63A23.938,23.938,0,0,1,223.668,28.317Z" transform="translate(-161.275)" fill="#fff"/>
  <path id="Path_118" data-name="Path 118" d="M21.26,127.815a23.947,23.947,0,0,1,3.389-12.309V100.215H9.359a45.378,45.378,0,0,0,0,55.2H24.649V140.124A23.947,23.947,0,0,1,21.26,127.815Z" transform="translate(0 -82.46)" fill="#fff"/>
  <path id="Path_119" data-name="Path 119" d="M206.63,376.334,196,386.964l10.63,10.63a45.011,45.011,0,0,0,27.6-9.359V372.961H218.955A24.091,24.091,0,0,1,206.63,376.334Z" transform="translate(-161.275 -306.885)" fill="#fff"/>
  <path id="Path_120" data-name="Path 120" d="M68.114,325.477,52.823,340.768a46.08,46.08,0,0,0,3.926,4.471,45.058,45.058,0,0,0,32.071,13.284v-21.26A24.1,24.1,0,0,1,68.114,325.477Z" transform="translate(-43.464 -267.813)" fill="#fff"/>
  <path id="Path_121" data-name="Path 121" d="M301.355,207.72a45.754,45.754,0,0,0-.743-8.217l-.4-2.179H256v21.26h21.517a23.985,23.985,0,0,1-9.192,9.857L283.6,243.716a46.083,46.083,0,0,0,4.471-3.926A45.059,45.059,0,0,0,301.355,207.72Z" transform="translate(-210.645 -162.365)" fill="#fff"/>
  <path id="Path_123" data-name="Path 123" d="M88.819,21.26V0A45.059,45.059,0,0,0,56.748,13.284a46.037,46.037,0,0,0-3.926,4.471L68.113,33.046A24.105,24.105,0,0,1,88.819,21.26Z" transform="translate(-43.464)" fill="#fff"/>
</svg>
