<svg xmlns="http://www.w3.org/2000/svg" width="137.631" height="152.648" viewBox="0 0 137.631 152.648">
  <g id="hacker" transform="translate(-25.185)">
    <path id="Path_166" data-name="Path 166" d="M206.1,22.479l-2.147-8.586-11.806,2.951L185.171,0,169.25,5.277,153.329,0l-6.976,16.845-11.806-2.951L132.4,22.479l36.85,9.3Z" transform="translate(-75.25)" fill="#fff"/>
    <path id="Path_167" data-name="Path 167" d="M141.945,384.963,162.816,331H25.185l20.871,53.963ZM89.528,348.888h8.944v8.944H89.528Z" transform="translate(0 -232.316)" fill="#fff"/>
    <path id="Path_168" data-name="Path 168" d="M189.386,215.454l-27.177-13.241a26.74,26.74,0,0,1-44.032,0L91,215.454v16.211h98.386Z" transform="translate(-46.193 -141.925)" fill="#fff"/>
    <path id="Path_169" data-name="Path 169" d="M196,122.392v8.529a17.888,17.888,0,0,0,35.777,0v-8.529l-17.888,4.516Z" transform="translate(-119.888 -85.902)" fill="#fff"/>
  </g>
</svg>
