<svg xmlns="http://www.w3.org/2000/svg" width="70" height="70" viewBox="0 0 70 70">
  <g id="Capa_1" data-name="Capa 1" transform="translate(0 0)">
    <path id="Subtraction_1" data-name="Subtraction 1" d="M35,70A35.009,35.009,0,0,1,21.376,2.75a35.009,35.009,0,0,1,27.247,64.5A34.78,34.78,0,0,1,35,70Zm8.831-25.262v1.843a20.346,20.346,0,0,0,7.426,1.066,10.121,10.121,0,0,0,6.458-1.933,6.366,6.366,0,0,0,2.43-5.239,6.241,6.241,0,0,0-.714-3.081,6.674,6.674,0,0,0-2.267-2.276,22.528,22.528,0,0,0-4.643-2.069,23.907,23.907,0,0,1-4.155-1.8,4.908,4.908,0,0,1-1.743-1.689,4.85,4.85,0,0,1-.533-2.4,4.445,4.445,0,0,1,1.734-3.686,7.406,7.406,0,0,1,4.661-1.354,16.378,16.378,0,0,1,6.287,1.372L59.44,21.9a17.555,17.555,0,0,0-6.992-1.409,9.261,9.261,0,0,0-5.971,1.87A5.946,5.946,0,0,0,44.157,27.2,6,6,0,0,0,45.7,31.5a14.4,14.4,0,0,0,5.592,3.008,25.472,25.472,0,0,1,4.191,1.753,5.791,5.791,0,0,1,2.059,1.8,4.529,4.529,0,0,1,.633,2.484,4.748,4.748,0,0,1-1.906,3.911,8.2,8.2,0,0,1-5.158,1.49A18.874,18.874,0,0,1,43.831,44.738ZM27.715,20.457a10.965,10.965,0,0,0-8.663,3.622c-2.1,2.4-3.171,5.743-3.171,9.927s1.058,7.555,3.144,9.982a10.853,10.853,0,0,0,8.653,3.659,10.875,10.875,0,0,0,8.672-3.659c2.086-2.428,3.144-5.774,3.144-9.945s-1.052-7.53-3.126-9.946A10.844,10.844,0,0,0,27.715,20.457Zm-19.24,7.19V47.286h1.788V27.647Zm.886-7.19c-.755,0-1.139.583-1.139,1.734s.383,1.752,1.139,1.752a1,1,0,0,0,.876-.47,2.282,2.282,0,0,0,.316-1.282,2.227,2.227,0,0,0-.316-1.282A1.014,1.014,0,0,0,9.361,20.457ZM27.679,45.913a8.872,8.872,0,0,1-7.262-3.1c-1.679-2.056-2.53-5.007-2.53-8.771s.86-6.688,2.557-8.726a8.966,8.966,0,0,1,7.271-3.072,8.919,8.919,0,0,1,7.254,3.045c1.672,2.02,2.52,4.965,2.52,8.753s-.848,6.76-2.52,8.8A8.923,8.923,0,0,1,27.679,45.913Z" transform="translate(0 0)" fill="#fff"/>
  </g>
</svg>
