<svg xmlns="http://www.w3.org/2000/svg" width="79" height="79" viewBox="0 0 79 79">
  <g id="java" transform="translate(-0.479 -0.026)">
    <path id="Subtraction_2" data-name="Subtraction 2" d="M39.5,79a39.266,39.266,0,0,1-15.05-2.969,7.527,7.527,0,0,0,1.694-5.068c-.045-1.7-.045-3.914-.045-5.53,0-2.2.036-4.487.114-7.188H23.144l.022.839c.058,2.191.113,4.257.113,6.348,0,.855-.015,1.773-.032,2.745V68.2c-.018,1.051-.036,2.137-.036,3.228a6.716,6.716,0,0,1-.96,3.612,39.512,39.512,0,1,1,37.209-1.451V65.97c0-2.286-1.371-3.494-3.964-3.494A9.146,9.146,0,0,0,50.907,63.8l.491,1.746.179.111a5.811,5.811,0,0,1,3.18-1.32,1.877,1.877,0,0,1,1.993,1.972v.984c-4.228.638-6.113,1.881-6.113,4.031a2.712,2.712,0,0,0,2.8,2.865,5.373,5.373,0,0,0,3.271-1.544l.2.045a1.661,1.661,0,0,0,1.6,1.448A39.3,39.3,0,0,1,39.5,79ZM32.437,64.335a2.033,2.033,0,0,1,1.424.532,1.937,1.937,0,0,1,.568,1.439v.985c-4.227.638-6.112,1.881-6.112,4.031a2.712,2.712,0,0,0,2.8,2.865,5.36,5.36,0,0,0,3.267-1.544l.2.046a1.691,1.691,0,0,0,1.825,1.457h.078a3.152,3.152,0,0,0,.649-.073v-8.1c0-2.285-1.37-3.492-3.962-3.492a9.159,9.159,0,0,0-4.59,1.32l.493,1.746.179.113A5.8,5.8,0,0,1,32.437,64.335Zm9.036-1.857h0l-3.09.38,4.3,11.149,2.216-.225L47.518,67c.479-1.228,1.14-2.787,1.814-4.277l-2.462-.134L45.01,68.1c-.363,1.09-.611,2.094-.805,2.933H44a15.429,15.429,0,0,0-.761-2.933l-.6-1.769c-.393-1.095-.762-2.318-1.164-3.85ZM26.568,54.149h0A7.1,7.1,0,0,0,28.891,55a41.722,41.722,0,0,0,9.548.853h.018c3.029,0,6.5-.171,10.3-.508,6.538-.53,10.393-2.118,10.855-4.47l-.007.005a28.277,28.277,0,0,1-7.576,2.708,64.754,64.754,0,0,1-13.247,1.248,120.857,120.857,0,0,1-12.215-.689ZM26.5,47.195a13.943,13.943,0,0,0-4.682.916c-1.691.664-2.623,1.519-2.623,2.407,0,1.005,2.384,1.739,7.084,2.182,4.189.395,8.956.425,10.317.425a105.235,105.235,0,0,0,11.307-.665,37.022,37.022,0,0,0,5.978-1.13c1.8-.541,2.9-1.19,3.254-1.929.264-.546.024-1.086-.711-1.606h0a1.177,1.177,0,0,1,.114.993c-.2.534-.844.937-1.906,1.2a105.893,105.893,0,0,1-18.464,1.559,61.458,61.458,0,0,1-10.8-.815c-1.594-.291-2.413-.662-2.434-1.1C22.906,49,24.5,48.215,27.68,47.305A5.367,5.367,0,0,0,26.5,47.195Zm5.467-3.914c-1.563.541-2.409,1.173-2.446,1.828-.031.543.488,1.074,1.542,1.577a17.421,17.421,0,0,0,6.94,1.143,27.157,27.157,0,0,0,3.649-.238,35.644,35.644,0,0,0,6.384-1.543h0l-.012,0a9.731,9.731,0,0,1-2.754-1.593A44.961,44.961,0,0,1,37.4,45.3c-1.981,0-5.364-.146-5.771-1.128-.107-.258.009-.559.343-.894Zm-1.277-6.013c-1.8.644-2.7,1.264-2.777,1.9-.045.391.245.792.862,1.189,1.5.97,4.3,1.383,9.365,1.383a55.982,55.982,0,0,0,10.7-1.543l-2.022-1.6a26.109,26.109,0,0,1-8.035,1.011H37.249c-3.669,0-6.738-.079-7.139-1.046-.141-.339.05-.763.583-1.3Zm23.281-6.051a3.163,3.163,0,0,1,3.485,3.39,3.977,3.977,0,0,1-.972,2.588,10.933,10.933,0,0,1-2.294,2.114,21.212,21.212,0,0,1-3.386,1.949,19.161,19.161,0,0,0,6.7-2.98,4.891,4.891,0,0,0,2.263-4.384A3.7,3.7,0,0,0,57.3,30.935a6.187,6.187,0,0,0-2.332-.521,2.942,2.942,0,0,0-2.35.947A6.887,6.887,0,0,1,53.973,31.217Zm-21.312-.175a18,18,0,0,0-6.492,1.124c-1.519.606-2.5,1.377-2.5,1.962,0,.451,1.078.91,2.959,1.258a41.064,41.064,0,0,0,7.151.562c1.177,0,2.359-.04,3.513-.118,6.75-.457,10.711-1.01,13.62-2.766l-.019,0a46.88,46.88,0,0,1-8.812,1.165c-.759,0-1.779.026-2.96.057h0c-1.537.04-3.28.084-4.954.084-3.922,0-6.054-.262-6.517-.8a.359.359,0,0,1-.093-.3c.131-.848,1.918-1.411,3.395-1.733a30.672,30.672,0,0,1,3.2-.5ZM51.5,11.992c-5.55,1.831-11.921,4.611-11.921,9.9,0,3.1,1.114,4.059,2.1,4.9a2.785,2.785,0,0,1,1.31,2.336,4.528,4.528,0,0,1-.932,2.94,2.933,2.933,0,0,1-.932.785,10.731,10.731,0,0,0,2.422-1.4,5.1,5.1,0,0,0,2.262-4.191,4.655,4.655,0,0,0-1.658-3.434,3.991,3.991,0,0,1-1.482-3.218,5.191,5.191,0,0,1,1.38-3.194,16.348,16.348,0,0,1,3.037-2.758A32.516,32.516,0,0,1,51.5,11.992ZM44.688.711h0c.593,2.26.8,3.912.094,5.666s-2.321,3.586-5.415,6.146c-1.072.887-1.963,1.6-2.75,2.238-3.711,2.988-4.38,3.527-4.38,6.169,0,3.282,4.879,8.338,7.024,9.685a18.239,18.239,0,0,0-1.224-2.288c-.173-.282-.415-.6-.694-.961a13.98,13.98,0,0,1-1.694-2.631,6.531,6.531,0,0,1-.592-3.7c.277-2.06,2.909-4.45,5.454-6.761a23.909,23.909,0,0,0,4.5-4.786C46.782,6.353,46.675,3.4,44.688.711ZM32.346,72.329a1.334,1.334,0,0,1-1.388-1.456c0-1.2,1.006-1.836,3.472-2.194v2.6A3.431,3.431,0,0,1,32.346,72.329Zm22.322,0a1.333,1.333,0,0,1-1.388-1.456c0-1.2,1.005-1.836,3.47-2.194v2.6A3.417,3.417,0,0,1,54.668,72.328Z" transform="translate(0.479 0.026)" fill="#f2f2f2"/>
  </g>
</svg>
