<svg xmlns="http://www.w3.org/2000/svg" width="63.428" height="74.267" viewBox="0 0 63.428 74.267">
  <path id="XMLID_92_" d="M83.717,59.63c-2.178-.892-3.109-2.076-3.019-3.842a5.889,5.889,0,0,0-1.632-4.168c.336-1.282,1.316-5.716,0-9.567-1.413-4.122-5.728-10.419-10.18-16.608-1.823-2.542-1.909-5.3-2.008-8.5a25.853,25.853,0,0,0-1.9-10.355A10.709,10.709,0,0,0,54.787,0a13.942,13.942,0,0,0-7.746,2.358c-4.449,3.07-3.861,9.764-3.472,14.194.053.607.1,1.18.133,1.669.259,4.338.023,6.625-.285,7.32a30.049,30.049,0,0,1-2.22,3.115c-1.075,1.415-2.293,3.019-3.291,4.514a35.361,35.361,0,0,0-3.083,7.207,34.554,34.554,0,0,1-1.949,4.881,6.646,6.646,0,0,0-.645,4.993,5.13,5.13,0,0,0-1.645,2.084c-.662,1.412-2,2.171-4.8,2.708a3.7,3.7,0,0,0-2.631,1.6,4.548,4.548,0,0,0,.028,3.634c.494,1.473.186,2.4-.374,4.1-.129.391-.275.833-.424,1.32a2.38,2.38,0,0,0,.25,2.08c1.055,1.612,4.132,2.181,7.3,2.555A28.136,28.136,0,0,1,35.9,72.046a28,28,0,0,0,5.834,1.683,6.63,6.63,0,0,0,.825.053A4.855,4.855,0,0,0,47,71.176a49.358,49.358,0,0,1,8-.945,34.763,34.763,0,0,1,7.956.817,6.4,6.4,0,0,0,2.4,2.611,5.816,5.816,0,0,0,2.7.608h0a6.5,6.5,0,0,0,4.74-1.957c1.615-1.711,5.65-3.9,8.6-5.491.657-.356,1.273-.689,1.812-.99,1.655-.918,2.558-2.229,2.478-3.6A3.041,3.041,0,0,0,83.717,59.63ZM47.077,59.3c-.206-1.451-2.073-2.891-4.235-4.557-1.768-1.363-3.772-2.907-4.324-4.215-1.141-2.7-.242-7.443,1.326-9.887a25.105,25.105,0,0,0,2.02-4.873,17.513,17.513,0,0,1,2.109-4.817A12.291,12.291,0,0,0,46.5,24.82c1.133,1.082,2.892,2.455,4.516,2.455a2.662,2.662,0,0,0,.725-.1A24.4,24.4,0,0,0,56.069,25a18.481,18.481,0,0,1,3.676-1.847c1.084,1.557,7.385,15.5,8.029,19.978a21.172,21.172,0,0,1-.3,7.619,5.6,5.6,0,0,0-.75-.054c-1.755,0-2.219.958-2.341,1.53a61.942,61.942,0,0,0-.347,7.306c-.635.806-3.844,4.6-8.451,5.285a36.589,36.589,0,0,1-5.208.411,17.6,17.6,0,0,1-2.569-.159l-2.315-2.649A2.813,2.813,0,0,0,47.077,59.3Zm2.938-43.68q-.108.047-.213.1a4.313,4.313,0,0,0-.048-.475,2.7,2.7,0,0,0-2.294-2.511,1.62,1.62,0,0,0-.248.019,1.919,1.919,0,0,0-1.417,1.269c.241-1.5,1.089-2.6,2.095-2.6,1.181,0,2.179,1.592,2.179,3.475A5.141,5.141,0,0,1,50.015,15.62Zm9.177,1.122a3.687,3.687,0,0,0,.167-1.1c0-1.708-1.084-3.046-2.467-3.046a2.8,2.8,0,0,0-2.452,3.046q0,.172.016.344l-.21-.08a4.657,4.657,0,0,1-.234-1.465c0-2.042,1.305-3.7,2.91-3.7s2.91,1.662,2.91,3.7A4.36,4.36,0,0,1,59.192,16.742Zm-1.183,3.975c-.023.1-.072.149-.616.432-.275.143-.617.321-1.044.581l-.286.173a26.476,26.476,0,0,1-4.569,2.423c-.5.067-.8-.126-1.493-.594-.156-.106-.321-.218-.5-.332a5.85,5.85,0,0,1-2.134-2.066c.405-.313,1.41-1.1,1.925-1.562a5.56,5.56,0,0,1,2.615-1.624.411.411,0,0,1,.078.007,26.024,26.024,0,0,1,3.22,1.149c.509.2.948.378,1.258.489A3.014,3.014,0,0,1,58.008,20.717ZM66.761,66.1a36.058,36.058,0,0,0,1.08-7.84c-.024-.452-.064-.943-.1-1.419a13.045,13.045,0,0,1-.069-2.6.475.475,0,0,1,.073-.027c0,1.137.252,3.4,2.065,4.195a4.567,4.567,0,0,0,1.835.355A7.493,7.493,0,0,0,76.3,57.045a8.472,8.472,0,0,0,1.181-1.552,1.873,1.873,0,0,1,.081.732c-.108,1.676.707,3.9,2.257,4.72l.226.119c.552.29,2.019,1.06,2.043,1.425a.325.325,0,0,1-.094.119,21.173,21.173,0,0,1-2.911,1.635c-2.219,1.133-4.733,2.417-5.862,3.6-1.59,1.673-3.389,2.8-4.475,2.8a1.176,1.176,0,0,1-.356-.05C67.211,70.227,66.24,68.525,66.761,66.1Zm-40.2-6.324a3.3,3.3,0,0,1-.113-1.438c.074-.319,1.649-.661,2.321-.807a9.047,9.047,0,0,0,2.563-.805,5.2,5.2,0,0,0,1.746-2.342,3.638,3.638,0,0,1,.975-1.463.207.207,0,0,1,.113-.026c.688,0,2.133,1.447,2.965,2.742.211.327.6.981,1.055,1.738a55.567,55.567,0,0,0,4.174,6.4c.872.934,2.284,2.731,1.936,4.271a4.678,4.678,0,0,1-1.927,2.382,1.974,1.974,0,0,1-.428.04c-1.852,0-5.518-1.541-7.488-2.369l-.291-.122a23.736,23.736,0,0,0-4.632-1.033,15.129,15.129,0,0,1-3.587-.806c-.254-.285.041-1.212.3-2.03a13.168,13.168,0,0,0,.487-1.832A6.668,6.668,0,0,0,26.557,59.773Z" transform="translate(-22.257)" fill="#fff"/>
</svg>
