<svg xmlns="http://www.w3.org/2000/svg" width="114.135" height="131.325" viewBox="0 0 114.135 131.325">
  <g id="network" transform="translate(-27.101 0)">
    <g id="Group_142" data-name="Group 142" transform="translate(27.101 0)">
      <path id="Path_207" data-name="Path 207" d="M104.771,70.963,117.9,73.57a11.667,11.667,0,1,0,1-4.975L105.43,65.92a19.114,19.114,0,0,0-5.356-13.214l17.44-24.636a14.748,14.748,0,1,0-4.14-2.935L96.1,49.533A19.143,19.143,0,0,0,71.84,53.339L49.166,35.73A11.689,11.689,0,1,0,45.9,39.62L69.013,57.569A19.145,19.145,0,0,0,73.77,80.539L59.725,100.4a15.75,15.75,0,1,0,3.872,3.315l14.424-20.4a19.162,19.162,0,0,0,15.672.352l17.115,25.283a13.264,13.264,0,1,0,4.129-2.952L98.07,81.076A19.229,19.229,0,0,0,104.771,70.963Z" transform="translate(-27.101 0)" fill="#fff"/>
    </g>
  </g>
</svg>
