<svg id="automation_1_" data-name="automation (1)" xmlns="http://www.w3.org/2000/svg" width="110" height="110" viewBox="0 0 110 110">
  <path id="Path_164" data-name="Path 164" d="M105,40H97.437a44.616,44.616,0,0,0-1.825-4.4l5.35-5.35a5,5,0,0,0,0-7.071L86.82,9.038a5,5,0,0,0-7.071,0l-5.35,5.35A44.825,44.825,0,0,0,70,12.563V5a5,5,0,0,0-5-5H45a5,5,0,0,0-5,5v7.563a44.736,44.736,0,0,0-4.4,1.825l-5.35-5.35a5,5,0,0,0-7.071,0L9.038,23.18a5,5,0,0,0,0,7.071l5.35,5.35A44.811,44.811,0,0,0,12.563,40H5a5,5,0,0,0-5,5V65a5,5,0,0,0,5,5h7.563a44.776,44.776,0,0,0,1.825,4.4l-5.35,5.35a5,5,0,0,0,0,7.071l14.143,14.142a5,5,0,0,0,7.071,0l5.35-5.35A44.732,44.732,0,0,0,40,97.436V105a5,5,0,0,0,5,5H65a5,5,0,0,0,5-5V97.437a44.789,44.789,0,0,0,4.4-1.825l5.35,5.35a5,5,0,0,0,7.071,0L100.962,86.82a5,5,0,0,0,0-7.071l-5.35-5.35A44.648,44.648,0,0,0,97.437,70H105a5,5,0,0,0,5-5V45A5,5,0,0,0,105,40Zm-5,20H93.74A5,5,0,0,0,88.9,63.754a34.728,34.728,0,0,1-3.742,9.02,5,5,0,0,0,.769,6.079l4.431,4.431-7.071,7.071-4.431-4.431a5,5,0,0,0-6.079-.769A34.761,34.761,0,0,1,63.754,88.9,5,5,0,0,0,60,93.74V100H50V93.74A5,5,0,0,0,46.246,88.9a34.776,34.776,0,0,1-9.02-3.743,5,5,0,0,0-6.079.769l-4.431,4.431-7.072-7.071,4.431-4.431a5,5,0,0,0,.769-6.079A34.771,34.771,0,0,1,21.1,63.754,5,5,0,0,0,16.26,60H10V50h6.26A5,5,0,0,0,21.1,46.246a34.775,34.775,0,0,1,3.743-9.021,5,5,0,0,0-.769-6.079l-4.431-4.431,7.071-7.071,4.431,4.431a5,5,0,0,0,6.079.769,34.763,34.763,0,0,1,9.02-3.743A5,5,0,0,0,50,16.26V10H60v6.26A5,5,0,0,0,63.754,21.1a34.761,34.761,0,0,1,9.021,3.743,5,5,0,0,0,6.079-.769l4.431-4.431,7.071,7.071-4.432,4.431a5,5,0,0,0-.769,6.079,34.734,34.734,0,0,1,3.742,9.02A5,5,0,0,0,93.739,50H100Z" fill="#fff"/>
  <path id="Path_165" data-name="Path 165" d="M156.649,130.76l-16-10A5,5,0,0,0,133,125v20a5,5,0,0,0,7.65,4.24l16-10a5,5,0,0,0,0-8.48Z" transform="translate(-88.666 -80)" fill="#fff"/>
</svg>
