<svg xmlns="http://www.w3.org/2000/svg" width="158.389" height="169.484" viewBox="0 0 158.389 169.484">
  <g id="video-camera" transform="translate(-16.758)">
    <g id="Video_Camera" transform="translate(16.758)">
      <path id="Path_170" data-name="Path 170" d="M125.494,39.723V29.792h19.36C142.655,14.629,130.726,2.2,115.563,0V19.861h-9.931V0C95.053,1.543,86.062,8.289,80.806,17.14,75.549,8.288,66.558,1.543,55.979,0V19.861H46.048V0C30.885,2.2,18.956,14.629,16.758,29.792h19.36v9.931H16.758a34.632,34.632,0,0,0,29.29,29.29V49.653h9.931V69.138A34.8,34.8,0,0,0,80.806,52.374a34.8,34.8,0,0,0,24.827,16.764V49.653h9.931v19.36a34.632,34.632,0,0,0,29.29-29.29Zm-69.515,0H46.048V29.792h9.931Zm39.723,0H65.91V29.792H95.7Zm19.861,0h-9.931V29.792h9.931Z" transform="translate(-16.758)" fill="#fff"/>
      <g id="Group_132" data-name="Group 132" transform="translate(9.429 67.823)">
        <path id="Path_171" data-name="Path 171" d="M129.653,216.511a44.347,44.347,0,0,1-29.792-11.623,45.147,45.147,0,0,1-17.6,9.685l43.6,21.8L80,259.3v-44.06a43.139,43.139,0,0,1-9.931,1.268,44.416,44.416,0,0,1-24.827-7.565v67.149H154.479V208.946A44.416,44.416,0,0,1,129.653,216.511Z" transform="translate(-45.242 -204.888)" fill="#fff"/>
        <path id="Path_172" data-name="Path 172" d="M180.242,292.995l13.723-6.861-13.723-6.861Z" transform="translate(-135.554 -254.649)" fill="#fff"/>
      </g>
    </g>
    <path id="Path_173" data-name="Path 173" d="M405.242,199.522V251.1l29.792,11.172V188.35Z" transform="translate(-259.887 -126.002)" fill="#fff"/>
    <g id="Group_133" data-name="Group 133" transform="translate(51.94 148.96)">
      <path id="Path_174" data-name="Path 174" d="M135.166,450,123.04,464.753l8.078,5.77L147.366,450Z" transform="translate(-123.04 -450)" fill="#fff"/>
      <path id="Path_175" data-name="Path 175" d="M223.957,450,240.2,470.523l8.078-5.77L236.157,450Z" transform="translate(-190.551 -450)" fill="#fff"/>
    </g>
  </g>
</svg>
