<svg xmlns="http://www.w3.org/2000/svg" width="102.912" height="123.495" viewBox="0 0 102.912 123.495">
  <path id="pie-chart" d="M90.762,0H16.15A14.162,14.162,0,0,0,2,14.15v95.194a14.162,14.162,0,0,0,14.15,14.15H90.762a14.162,14.162,0,0,0,14.15-14.15V14.15A14.162,14.162,0,0,0,90.762,0ZM47.024,66.893V41.556A25.669,25.669,0,1,1,27.97,87.542L45.892,69.62a3.843,3.843,0,0,0,1.132-2.727ZM39.306,41.556V65.3l-16.79,16.79a25.517,25.517,0,0,1,16.79-40.532Zm46.311,67.788H21.3a3.859,3.859,0,1,1,0-7.718h64.32a3.859,3.859,0,0,1,0,7.718Zm0-16.723H77.9a3.859,3.859,0,1,1,0-7.718h7.718a3.859,3.859,0,0,1,0,7.718Zm0-14.15H77.9a3.859,3.859,0,1,1,0-7.718h7.718a3.859,3.859,0,0,1,0,7.718Zm0-15.437H77.9a3.859,3.859,0,1,1,0-7.718h7.718a3.859,3.859,0,0,1,0,7.718Zm0-14.15H77.9a3.859,3.859,0,1,1,0-7.718h7.718a3.859,3.859,0,0,1,0,7.718Z" transform="translate(-2)" fill="#fff"/>
</svg>
