<svg xmlns="http://www.w3.org/2000/svg" width="99.999" height="99.999" viewBox="0 0 99.999 99.999">
  <g id="magnifying-glass" transform="translate(-2 13)">
    <path id="Path_157" data-name="Path 157" d="M63.587,0A36.41,36.41,0,0,0,35.853,60l-5.746,5.748-2.072-2.074a2.932,2.932,0,0,0-4.143,0L.857,86.712a2.93,2.93,0,0,0,0,4.143l8.287,8.287a2.93,2.93,0,0,0,4.143,0L36.32,76.106a2.928,2.928,0,0,0,0-4.143l-2.07-2.07L40,64.146A36.411,36.411,0,1,0,63.587,0Zm0,17.578A18.855,18.855,0,0,0,44.753,36.412a2.93,2.93,0,1,1-5.859,0A24.722,24.722,0,0,1,63.587,11.719a2.93,2.93,0,0,1,0,5.859Z" transform="translate(2 -13)" fill="#fff"/>
  </g>
</svg>
