<svg id="newspaper" xmlns="http://www.w3.org/2000/svg" width="73.628" height="73.628" viewBox="0 0 73.628 73.628">
  <g id="Group_128" data-name="Group 128">
    <path id="Path_160" data-name="Path 160" d="M71,18.407H57.851V2.63A2.63,2.63,0,0,0,55.221,0H2.63A2.63,2.63,0,0,0,0,2.63V63.11A10.518,10.518,0,0,0,10.518,73.628H63.11A10.518,10.518,0,0,0,73.628,63.11V21.037A2.63,2.63,0,0,0,71,18.407ZM21.037,13.148H36.814a2.63,2.63,0,0,1,0,5.259H21.037a2.63,2.63,0,1,1,0-5.259ZM44.7,63.11H13.148a2.63,2.63,0,1,1,0-5.259H44.7a2.63,2.63,0,1,1,0,5.259Zm0-10.518H13.148a2.63,2.63,0,1,1,0-5.259H44.7a2.63,2.63,0,1,1,0,5.259Zm0-10.518H13.148a2.63,2.63,0,1,1,0-5.259H44.7a2.63,2.63,0,0,1,0,5.259Zm0-10.518H13.148a2.63,2.63,0,0,1,0-5.259H44.7a2.63,2.63,0,0,1,0,5.259ZM68.369,63.11a5.259,5.259,0,1,1-10.518,0V23.666H68.369V63.11Z" fill="#fff"/>
  </g>
</svg>
