<svg id="stop" xmlns="http://www.w3.org/2000/svg" width="150.444" height="150.444" viewBox="0 0 150.444 150.444">
  <g id="Group_137" data-name="Group 137">
    <g id="Group_135" data-name="Group 135">
      <path id="Path_176" data-name="Path 176" d="M279.625,0H248.467l-3.134,75.222,3.134,75.222h31.158l44.064-44.064V44.064Z" transform="translate(-173.245)" fill="#fff"/>
      <path id="Path_177" data-name="Path 177" d="M44.064,0,0,44.064V106.38l44.064,44.064H75.222V0Z" fill="#fff"/>
    </g>
    <g id="Group_136" data-name="Group 136" transform="translate(8.815 8.815)">
      <path id="Path_178" data-name="Path 178" d="M275.974,30H248.467l-3.134,66.407,3.134,66.407h27.506l38.9-38.9V68.9Z" transform="translate(-182.06 -30)" fill="#fff"/>
      <path id="Path_179" data-name="Path 179" d="M68.9,30,30,68.9v55.013l38.9,38.9H96.407V30Z" transform="translate(-30 -30)" fill="#fff"/>
    </g>
  </g>
  <g id="Group_140" data-name="Group 140" transform="translate(15.539 56.897)">
    <g id="Group_138" data-name="Group 138">
      <path id="Path_180" data-name="Path 180" d="M65.641,230.275a17.17,17.17,0,0,1-12.756-5.485l6.532-5.919a8.464,8.464,0,0,0,6.224,2.589c2.3,0,3.611-1.358,3.77-2.275.07-.406.257-1.482-2.112-2.373a30,30,0,0,0-3.765-1.123,15.945,15.945,0,0,1-5.407-2.131,10.6,10.6,0,0,1-4.666-9.067,11.179,11.179,0,0,1,7.429-9.985c7.355-2.745,13.27,1.648,16.8,4.273l-5.256,7.077c-5.2-3.862-6.788-3.717-8.466-3.091a2.413,2.413,0,0,0-1.7,1.914,1.848,1.848,0,0,0,.656,1.488,7.714,7.714,0,0,0,2.7.96,38.453,38.453,0,0,1,4.77,1.433c5.589,2.1,8.611,6.861,7.7,12.129-.962,5.554-6.2,9.586-12.456,9.586Z" transform="translate(-52.885 -193.635)" fill="#0094a9"/>
    </g>
    <path id="Path_181" data-name="Path 181" d="M174.183,194.661H150.329v8.815h7.489v27.232h8.815V203.476h7.55Z" transform="translate(-121.696 -194.36)" fill="#0094a9"/>
    <path id="Path_182" data-name="Path 182" d="M390.22,194.661H378.23v36.047h8.815V218.856c1.22-.006,2.419-.01,3.175-.01a12.093,12.093,0,1,0,0-24.185Zm0,15.37c-.763,0-1.943,0-3.146.01-.006-1.265-.013-5.238-.016-6.565h3.163a3.281,3.281,0,1,1,0,6.555Z" transform="translate(-282.632 -194.36)" fill="#0094a9"/>
    <g id="Group_139" data-name="Group 139" transform="translate(54.161 0.301)">
      <path id="Path_183" data-name="Path 183" d="M255.232,230.708a18.024,18.024,0,1,1,18.024-18.024A18.044,18.044,0,0,1,255.232,230.708Zm0-27.232a9.209,9.209,0,1,0,9.209,9.209A9.219,9.219,0,0,0,255.232,203.476Z" transform="translate(-237.208 -194.661)" fill="#0094a9"/>
    </g>
  </g>
</svg>
