<svg xmlns="http://www.w3.org/2000/svg" width="156" height="146.25" viewBox="0 0 156 146.25">
  <g id="database" transform="translate(0 -16)">
    <path id="Path_208" data-name="Path 208" d="M60,76h9.141v9.141H60Z" transform="translate(-41.719 -41.719)" fill="#fff"/>
    <path id="Path_209" data-name="Path 209" d="M120,76h9.141v9.141H120Z" transform="translate(-83.438 -41.719)" fill="#fff"/>
    <path id="Path_210" data-name="Path 210" d="M180,76h9.141v9.141H180Z" transform="translate(-125.156 -41.719)" fill="#fff"/>
    <path id="Path_211" data-name="Path 211" d="M60,196h9.141v9.141H60Z" transform="translate(-41.719 -125.156)" fill="#fff"/>
    <path id="Path_212" data-name="Path 212" d="M120,196h9.141v9.141H120Z" transform="translate(-83.438 -125.156)" fill="#fff"/>
    <path id="Path_213" data-name="Path 213" d="M180,196h9.141v9.141H180Z" transform="translate(-125.156 -125.156)" fill="#fff"/>
    <path id="Path_214" data-name="Path 214" d="M60,316h9.141v9.141H60Z" transform="translate(-41.719 -208.594)" fill="#fff"/>
    <path id="Path_215" data-name="Path 215" d="M120,316h9.141v9.141H120Z" transform="translate(-83.438 -208.594)" fill="#fff"/>
    <path id="Path_216" data-name="Path 216" d="M36.563,143.969A18.3,18.3,0,0,0,54.844,162.25h73.43a27.424,27.424,0,1,0,0-54.844h-1.566a27.387,27.387,0,0,0-7.575-11.27V16H0V134.825H39.022a18.173,18.173,0,0,0-2.459,9.144Zm91.711-27.422a18.284,18.284,0,1,1,0,36.562H54.844a9.141,9.141,0,0,1,0-18.281h9.141v-4.57A13.726,13.726,0,0,1,77.7,116.547h4.2l.743-3.661a18.516,18.516,0,0,1,18.217-14.62,18.325,18.325,0,0,1,17.912,14.62l.743,3.661ZM9.141,25.141H109.992V52.563H9.141Zm0,36.562H109.992V89.125H9.141Zm0,36.559H80.188a27.132,27.132,0,0,0-5.565,9.35A22.912,22.912,0,0,0,55.3,125.688H9.141Z" fill="#fff"/>
  </g>
</svg>
