<svg xmlns="http://www.w3.org/2000/svg" width="157.065" height="147.375" viewBox="0 0 157.065 147.375">
  <g id="quarantine" transform="translate(-21.033 -35.528)">
    <path id="Path_184" data-name="Path 184" d="M155.868,298.933A30.636,30.636,0,0,0,126.7,259.561c-.229,0-.457,0-.685,0A43.516,43.516,0,0,0,155.868,298.933Z" transform="translate(-69.892 -149.155)" fill="#fff"/>
    <path id="Path_185" data-name="Path 185" d="M369.177,118.236c-3.643-11.485-12.944-20.627-27.641-27.173a3,3,0,0,1-1.745-3.17c2.315-15.777-.425-28.315-8.146-37.266-6.007-6.964-14.128-10.651-21-12.6A34.172,34.172,0,0,1,323.9,75.634a46.617,46.617,0,0,1,15.319,34.561v.095a34.217,34.217,0,0,1,30.264,31.083C371.081,134.736,371.793,126.478,369.177,118.236Z" transform="translate(-192.816 -1.662)" fill="#fff"/>
    <path id="Path_186" data-name="Path 186" d="M236.661,287.7a11.009,11.009,0,0,1-16.685.2l-5.686,3.309a33.982,33.982,0,0,1,3.573,27.382,43.629,43.629,0,0,0,20.564.043,33.974,33.974,0,0,1,4.8-27.388Z" transform="translate(-128.665 -167.889)" fill="#fff"/>
    <path id="Path_187" data-name="Path 187" d="M137.655,165.352a43.219,43.219,0,0,0-11.691,28.15c.16,0,.32-.006.48-.006h.245a33.8,33.8,0,0,1,24.153,10.3,34.485,34.485,0,0,1,2.75,3.194l5.768-3.358a10.993,10.993,0,0,1,8.4-15.341v-3.566a33.978,33.978,0,0,1-30.1-19.37Z" transform="translate(-69.86 -86.433)" fill="#fff"/>
    <path id="Path_188" data-name="Path 188" d="M324.265,263.65a30.611,30.611,0,0,0-29.955,38.061A43.531,43.531,0,0,0,324.265,263.65Z" transform="translate(-181.327 -151.877)" fill="#fff"/>
    <path id="Path_189" data-name="Path 189" d="M233.036,251.261a7.678,7.678,0,1,0,7.678-7.661,7.678,7.678,0,0,0-7.678,7.661Z" transform="translate(-141.146 -138.529)" fill="#fff"/>
    <path id="Path_190" data-name="Path 190" d="M66.406,75.545q-.536-1.537-.932-3.142A33.847,33.847,0,0,1,80.41,35.528a34.721,34.721,0,0,0-16.224,8.81c-8.9,8.775-12.744,22.713-11.425,41.425a1.959,1.959,0,0,1-1.215,1.954c-15.128,6.162-24.751,15.077-28.6,26.5-2.921,8.656-2.051,17.421-.295,24.3a34.212,34.212,0,0,1,30.1-31.232A46.58,46.58,0,0,1,66.406,75.545Z" fill="#fff"/>
    <path id="Path_191" data-name="Path 191" d="M289.631,160.848a33.921,33.921,0,0,1-23.623,19.971,34.527,34.527,0,0,1-5,.791v3.68a11,11,0,0,1,8.5,15.1l6.855,3.7q1.082-1.291,2.3-2.488a33.813,33.813,0,0,1,24.16-9.737,43.256,43.256,0,0,0-13.195-31.019Z" transform="translate(-159.768 -83.435)" fill="#fff"/>
    <path id="Path_192" data-name="Path 192" d="M180.5,412.078a34.2,34.2,0,0,1-30.685-22.4,47,47,0,0,1-22.672-.076,34.031,34.031,0,0,1-47.43,17.18,34.208,34.208,0,0,0,16.067,9.907c11.968,3.175,25.827-.674,41.191-11.443a2,2,0,0,1,2.333.027c15.131,11.135,28.973,15.346,41.144,12.505a34.647,34.647,0,0,0,16.127-9.044A34.087,34.087,0,0,1,180.5,412.078Z" transform="translate(-39.07 -235.73)" fill="#fff"/>
    <path id="Path_193" data-name="Path 193" d="M168.54,135.349a30.65,30.65,0,0,0,56.875-1.378,43.468,43.468,0,0,0-56.875,1.378Z" transform="translate(-98.206 -58.936)" fill="#fff"/>
  </g>
</svg>
