<?xml version="1.0" encoding="UTF-8"?>
<svg id="Layer_2" data-name="Layer 2" xmlns="http://www.w3.org/2000/svg" xmlns:xlink="http://www.w3.org/1999/xlink" viewBox="0 0 383.65 383.08">
  <defs>
    <style>
      .cls-1 {
        fill: url(#linear-gradient-2);
      }

      .cls-2 {
        fill: url(#linear-gradient);
      }
    </style>
    <linearGradient id="linear-gradient" x1="119.96" y1="246.75" x2="383.65" y2="246.75" gradientUnits="userSpaceOnUse">
      <stop offset="0" stop-color="#0f26ab"/>
      <stop offset="1" stop-color="#00b0cf"/>
    </linearGradient>
    <linearGradient id="linear-gradient-2" x1="0" y1="143.67" x2="283.12" y2="143.67" xlink:href="#linear-gradient"/>
  </defs>
  <g id="Layer_1-2" data-name="Layer 1">
    <g>
      <path class="cls-2" d="m352.95,383.08c-5.12-1.43-10.56-2.19-15.28-4.44-6.23-2.97-12.37-6.55-17.68-10.92-5.95-4.89-11.41-5.93-18.48-2.71-64.75,29.45-140.83,6.59-178.81-53.57-.85-1.35-1.63-2.76-2.75-4.65,55.95,5.39,104.38-10.17,143.08-50.9,38.68-40.71,51.7-89.82,43.45-145.46,1.25.54,2.22.88,3.11,1.37,40.78,22.64,65.26,56.79,72.66,103,.47,2.93.92,5.87,1.38,8.8v20.22c-.2.71-.54,1.41-.59,2.14-1.25,16.5-5.57,32.3-10.74,47.93-9.39,28.39-8.02,56.32,3.9,83.74.37.86.59,1.78.95,2.89-3.81.91-7.27,1.74-10.74,2.57h-13.48Z"/>
      <path class="cls-1" d="m7.14,284.48c4.84-10.63,8.24-21.39,9.91-32.69,2.95-20.07.61-39.48-6.54-58.43C-6.75,147.64-3.15,103.54,24.32,63.1,55.16,17.68,99.15-3.69,154.1.52c63.89,4.9,116.63,54.29,127.06,117.4,12.34,74.63-34.82,144.74-108.55,160.83-30.62,6.68-60.54,3.85-89.15-9.32-7.49-3.45-13.31-2.47-19.36,3.04-15.1,13.77-38.13,18.49-56.97,12.01Zm230.5-142.78c.08-11.23-9.08-20.53-20.31-20.62-11.22-.09-20.54,9.07-20.67,20.29-.13,11.12,9.14,20.52,20.34,20.65,11.17.12,20.56-9.12,20.64-20.32Zm-75.5-.15c0-11.31-9.11-20.46-20.38-20.47-11.29,0-20.41,9.12-20.43,20.44-.02,11.27,9.16,20.49,20.4,20.49,11.25,0,20.41-9.18,20.41-20.47Zm-75.41.14c.1-11.29-8.97-20.52-20.26-20.61-11.27-.09-20.48,9.01-20.55,20.3-.06,11.31,8.96,20.51,20.23,20.64,11.22.12,20.47-9.02,20.57-20.32Z"/>
    </g>
  </g>
</svg>