<?xml version="1.0" encoding="UTF-8"?>
<svg id="Layer_2" data-name="Layer 2" xmlns="http://www.w3.org/2000/svg" xmlns:xlink="http://www.w3.org/1999/xlink" viewBox="0 0 213.25 216.37">
  <defs>
    <style>
      .cls-1 {
        fill: url(#linear-gradient-2);
      }

      .cls-2 {
        fill: url(#linear-gradient-14);
      }

      .cls-3 {
        fill: url(#linear-gradient-6);
      }

      .cls-4 {
        fill: url(#linear-gradient-11);
      }

      .cls-5 {
        fill: url(#linear-gradient-10);
      }

      .cls-6 {
        fill: url(#linear-gradient-5);
      }

      .cls-7 {
        fill: url(#linear-gradient-7);
      }

      .cls-8 {
        fill: url(#linear-gradient-9);
      }

      .cls-9 {
        fill: url(#linear-gradient-3);
      }

      .cls-10 {
        fill: url(#linear-gradient);
      }

      .cls-11 {
        fill: url(#linear-gradient-4);
      }

      .cls-12 {
        fill: url(#linear-gradient-8);
      }

      .cls-13 {
        fill: url(#linear-gradient-12);
      }

      .cls-14 {
        fill: url(#linear-gradient-13);
      }
    </style>
    <linearGradient id="linear-gradient" x1="0" y1="121.15" x2="213.25" y2="121.15" gradientUnits="userSpaceOnUse">
      <stop offset="0" stop-color="#0f26ab"/>
      <stop offset="1" stop-color="#00b0cf"/>
    </linearGradient>
    <linearGradient id="linear-gradient-2" x1="144.67" y1="22.81" x2="174.71" y2="22.81" xlink:href="#linear-gradient"/>
    <linearGradient id="linear-gradient-3" x1="38.03" y1="22.81" x2="68.49" y2="22.81" xlink:href="#linear-gradient"/>
    <linearGradient id="linear-gradient-4" x1="76.32" y1="106.21" x2="100.12" y2="106.21" xlink:href="#linear-gradient"/>
    <linearGradient id="linear-gradient-5" x1="151.15" y1="106.21" x2="175.01" y2="106.21" xlink:href="#linear-gradient"/>
    <linearGradient id="linear-gradient-6" x1="76.32" y1="141.45" x2="100.12" y2="141.45" xlink:href="#linear-gradient"/>
    <linearGradient id="linear-gradient-7" x1="115.23" y1="141.49" x2="138.93" y2="141.49" xlink:href="#linear-gradient"/>
    <linearGradient id="linear-gradient-8" x1="151.17" y1="141.45" x2="174.94" y2="141.45" xlink:href="#linear-gradient"/>
    <linearGradient id="linear-gradient-9" x1="76.35" y1="177.33" x2="100.1" y2="177.33" xlink:href="#linear-gradient"/>
    <linearGradient id="linear-gradient-10" x1="151.13" y1="177.32" x2="174.96" y2="177.32" xlink:href="#linear-gradient"/>
    <linearGradient id="linear-gradient-11" x1="115.23" y1="106.2" x2="138.99" y2="106.2" xlink:href="#linear-gradient"/>
    <linearGradient id="linear-gradient-12" x1="38.24" y1="141.45" x2="61.98" y2="141.45" xlink:href="#linear-gradient"/>
    <linearGradient id="linear-gradient-13" x1="38.21" y1="177.31" x2="62" y2="177.31" xlink:href="#linear-gradient"/>
    <linearGradient id="linear-gradient-14" x1="115.16" y1="177.33" x2="138.94" y2="177.33" xlink:href="#linear-gradient"/>
  </defs>
  <g id="Layer_1-2" data-name="Layer 1">
    <path class="cls-10" d="m213.15,216.37H.11c-.04-.63-.1-1.26-.1-1.89,0-62.19,0-124.38,0-186.57,0-.74.07-1.47.09-1.98h30.4c0,2.9-.06,5.5.01,8.09.21,8.34,4.06,14.73,11.02,19.07,14.54,9.08,33.91-1.34,34.61-18.52.11-2.79.02-5.6.02-8.5h60.98c0,2.73-.08,5.33.01,7.92.52,14.89,14.25,25.33,28.52,21.72,9.64-2.44,16.76-11.2,17.1-21.13.1-2.79.01-5.59.01-8.49h30.33c0,1.06,0,1.97,0,2.87.05,61.63.1,123.26.15,184.88,0,.84-.06,1.69-.1,2.53ZM15.41,79.42v121.62h182.49v-121.62H15.41Z"/>
    <path class="cls-1" d="m174.42,22.85c0,3.58.47,7.24-.1,10.73-1.18,7.21-7.74,12.24-14.93,12.03-7.47-.21-13.78-5.58-14.36-13.13-.5-6.5-.48-13.1.04-19.59.6-7.54,7.54-13.14,15.01-12.88,7.72.26,14.04,6.17,14.54,13.76.2,3.01.03,6.05.03,9.08-.08,0-.15,0-.23,0Z"/>
    <path class="cls-9" d="m68.49,22.95c-.4,4.11-.32,8.34-1.3,12.31-1.67,6.69-8.67,11.01-15.57,10.28-7.22-.77-13.05-6.44-13.37-13.52-.28-6.11-.29-12.25,0-18.36C38.6,6.09,45.18.16,52.86,0c7.42-.15,14.12,5.44,14.91,12.8.36,3.33.06,6.74.06,10.11.22.01.44.02.66.04Z"/>
    <path class="cls-11" d="m76.32,116.62v-20.83h23.81v20.83h-23.81Z"/>
    <path class="cls-6" d="m175.01,95.79v20.83h-23.86v-20.83h23.86Z"/>
    <path class="cls-3" d="m100.12,151.94h-23.79v-20.97h23.79v20.97Z"/>
    <path class="cls-7" d="m138.93,151.97h-23.7v-20.96h23.7v20.96Z"/>
    <path class="cls-12" d="m174.94,151.92h-23.77v-20.94h23.77v20.94Z"/>
    <path class="cls-8" d="m76.35,166.87h23.75v20.93h-23.75v-20.93Z"/>
    <path class="cls-5" d="m151.13,166.87h23.83v20.89h-23.83v-20.89Z"/>
    <path class="cls-4" d="m115.23,95.76h23.77v20.89h-23.77v-20.89Z"/>
    <path class="cls-13" d="m38.24,131h23.74v20.89h-23.74v-20.89Z"/>
    <path class="cls-14" d="m62,166.91v20.81h-23.79v-20.81h23.79Z"/>
    <path class="cls-2" d="m115.16,187.79v-20.91h23.77v20.91h-23.77Z"/>
  </g>
</svg>