<?xml version="1.0" encoding="UTF-8"?>
<svg id="Layer_2" data-name="Layer 2" xmlns="http://www.w3.org/2000/svg" xmlns:xlink="http://www.w3.org/1999/xlink" viewBox="0 0 292.15 383.32">
  <defs>
    <style>
      .cls-1 {
        fill: url(#linear-gradient-2);
      }

      .cls-2 {
        fill: url(#linear-gradient);
      }
    </style>
    <linearGradient id="linear-gradient" x1="0" y1="191.66" x2="292.15" y2="191.66" gradientUnits="userSpaceOnUse">
      <stop offset="0" stop-color="#0f26ab"/>
      <stop offset="1" stop-color="#00b0cf"/>
    </linearGradient>
    <linearGradient id="linear-gradient-2" x1="197.79" y1="47.04" x2="287.09" y2="47.04" xlink:href="#linear-gradient"/>
  </defs>
  <g id="Layer_1-2" data-name="Layer 1">
    <g>
      <path class="cls-2" d="m256.19,383.32H36.05c-.32-.18-.62-.49-.95-.53C17.49,380.6-.06,364.36,0,339.98.26,241.17.1,142.37.11,43.57.11,17.5,17.66,0,43.81,0c42.3,0,84.6,0,126.9,0,1.45,0,2.9,0,4.61,0,0,1.81,0,3.16,0,4.5,0,26.57-.01,53.14,0,79.72,0,17.07,11.01,28.07,28.09,28.07,28.07.01,56.15,0,84.22,0,1.44,0,2.88,0,4.5,0,0,2.02,0,3.51,0,4.99,0,71.73,0,143.47,0,215.2,0,3.87.07,7.74-.08,11.6-.67,17.5-13.26,33.2-30.16,37.7-1.9.51-3.8,1.02-5.7,1.52Zm-111.94-233.58c-27.43,0-54.87-.03-82.3.02-6.2,0-10.96,4.21-11.62,9.98-.65,5.58,3.14,10.89,8.83,12.15,1.56.34,3.22.29,4.83.29,43.4.01,86.79.01,130.19.01,10.47,0,20.95,0,31.42,0,4.95,0,8.7-2.11,10.8-6.62,3.58-7.67-2.05-15.8-10.97-15.82-27.06-.05-54.12-.02-81.18-.02Zm-.37,82.35c2.12,0,4.24,0,6.36,0,24.94,0,49.88-.02,74.82.02,5.25,0,9.27-1.99,11.44-6.83,3.46-7.69-2.28-15.64-11.27-15.64-43.02-.03-86.04-.01-129.06-.01-11.35,0-22.7,0-34.04,0-4.96,0-8.69,2.14-10.8,6.63-3.58,7.64,2.08,15.79,11,15.81,27.18.05,54.37.02,81.55.02Zm-55.04,59.89c8.74,0,17.47.04,26.21-.01,6.97-.04,12.04-4.69,12.18-11.05.13-6.44-5.09-11.37-12.21-11.39-17.47-.04-34.94-.03-52.41,0-7.24.01-12.32,4.7-12.31,11.23.01,6.54,5.08,11.18,12.34,11.21,8.74.03,17.47,0,26.21,0Z"/>
      <path class="cls-1" d="m286.41,89.84h-3.28c-26.32,0-52.64,0-78.95,0-5.63,0-6.38-.77-6.38-6.54,0-24.69,0-49.38,0-74.08v-4.98c3.68,2.81,6.86,4.87,9.6,7.4,8.89,8.2,17.62,16.58,26.41,24.89,14.68,13.88,29.41,27.71,43.99,41.7,3.37,3.23,6.22,7.01,9.31,10.54l-.69,1.07Z"/>
    </g>
  </g>
</svg>