<?xml version="1.0" encoding="UTF-8"?>
<svg id="Layer_2" data-name="Layer 2" xmlns="http://www.w3.org/2000/svg" xmlns:xlink="http://www.w3.org/1999/xlink" viewBox="0 0 510.99 361.3">
  <defs>
    <style>
      .cls-1 {
        fill: url(#linear-gradient);
      }
    </style>
    <linearGradient id="linear-gradient" x1="0" y1="180.65" x2="510.99" y2="180.65" gradientUnits="userSpaceOnUse">
      <stop offset="0" stop-color="#0f26ab"/>
      <stop offset="1" stop-color="#00b0cf"/>
    </linearGradient>
  </defs>
  <g id="Layer_1-2" data-name="Layer 1">
    <path class="cls-1" d="m10.97,361.3c-.95-.59-1.87-1.22-2.84-1.76-6.12-3.43-9.24-9.97-7.76-16.33,1.58-6.8,7.12-11.5,14.27-11.77,5.27-.2,10.55-.04,16.3-.04v-6.37c0-52.22,0-104.44,0-156.67,0-13.34,5.34-18.64,18.79-18.64,17.96,0,35.92-.03,53.89,0,11.32.02,17.13,5.87,17.14,17.28.02,52.55,0,105.11,0,157.66,0,1.98,0,3.97,0,6.32h29.95c0-1.74,0-3.51,0-5.27,0-32.6,0-65.19,0-97.79,0-12.78,5.47-18.31,18.1-18.32,17.63-.01,35.26,0,52.89,0,13.47,0,18.82,5.29,18.82,18.61,0,32.43,0,64.86,0,97.29,0,1.79,0,3.58,0,5.61h29.95v-5.71c0-72.18,0-144.36,0-216.54,0-13.77,5.22-19.02,18.91-19.02,17.63,0,35.26-.01,52.89,0,12.4.01,18.01,5.58,18.02,17.91,0,72.35,0,144.69,0,217.04v6.24h29.95v-5.92c0-101.95,0-203.9,0-305.85,0-14.1,5.13-19.25,19.18-19.25,17.46,0,34.93,0,52.39,0,12.73,0,18.25,5.5,18.25,18.18,0,102.28,0,204.56,0,306.85,0,1.95,0,3.9,0,6.2,11.65.77,24.79-3.33,30.94,11.1v7.98c-3.66,3.66-7.32,7.32-10.98,10.98H10.97Z"/>
  </g>
</svg>