<?xml version="1.0" encoding="UTF-8"?>
<svg id="Layer_2" data-name="Layer 2" xmlns="http://www.w3.org/2000/svg" xmlns:xlink="http://www.w3.org/1999/xlink" viewBox="0 0 309.98 305.92">
  <defs>
    <style>
      .cls-1 {
        fill: url(#linear-gradient);
      }
    </style>
    <linearGradient id="linear-gradient" x1="0" y1="152.96" x2="309.98" y2="152.96" gradientUnits="userSpaceOnUse">
      <stop offset="0" stop-color="#0f26ab"/>
      <stop offset="1" stop-color="#00b0cf"/>
    </linearGradient>
  </defs>
  <g id="Layer_1-2" data-name="Layer 1">
    <path class="cls-1" d="m302.03,262.39c-22.22-22.18-44.41-44.39-66.61-66.58-4.06-4.06-4.11-4.09-1.39-9,10.37-18.68,16.15-38.59,16.21-60.06.38-1.46.39-2.92,0-4.38.3-5.81-.39-11.6-1.37-17.25-2.65-15.27-7.7-29.73-15.61-43.16-7.58-12.86-17-24.18-28.5-33.61-10.32-8.46-21.89-15.02-34.33-19.92C157.65,3.39,144.34.67,130.64.13c-5.69-.23-11.4-.2-17.13.44-5.2.58-10.38,1.2-15.47,2.32-13.68,3-26.51,8.19-38.48,15.5-12.21,7.46-22.98,16.7-31.91,27.81-7.71,9.6-14.13,20.12-18.66,31.69-3.2,8.19-5.93,16.47-7.2,25.2-.5,3.43-1.19,6.84-1.8,10.25v2.42c.42.39.28.9.31,1.37,0,.37,0,.74,0,1.11-.07.59.2,1.25-.31,1.76v9.69c.52.53.24,1.2.31,1.8,0,.38,0,.76,0,1.14,0,.38,0,.75,0,1.13-.03.48.11,1-.31,1.39v1.82c.48.09.58.44.6.87.36,8.18,2.16,16.12,4.54,23.89,5.96,19.42,16.29,36.34,30.35,50.92,4.4,4.57,9.18,8.8,14.31,12.62,10,7.45,20.76,13.47,32.5,17.72,13.14,4.76,26.63,7.57,40.66,7.36,1.62.32,3.25.32,4.87,0,8.29.36,16.47-.94,24.46-2.72,14.81-3.31,28.68-9.21,41.33-17.64,2.69-1.79,3.91-1.27,5.87.71,22.43,22.54,44.95,44.99,67.41,67.49,4.79,4.8,10.58,7.57,17.25,7.72,8.26.19,15.1-3.35,20.31-9.74,3.7-4.53,5.63-10.04,5.5-15.71-.15-6.88-2.92-13.06-7.94-18.08Zm-92.51-130.17c-.7,8.96-2.97,17.66-6.56,25.98-4.66,10.82-11.21,20.33-19.74,28.43-11.22,10.66-24.4,17.77-39.52,21.21-5.62,1.28-11.3,2.04-17.07,1.94-1.02.27-2.03.3-3.04-.02-14.05.06-27.12-3.66-39.35-10.41-9-4.97-16.67-11.53-23.45-19.33-7.38-8.5-12.62-18.09-16.27-28.6-1.63-4.69-2.58-9.61-3.35-14.55-1-6.4-.94-12.86-.46-19.21.96-12.6,4.95-24.39,11.24-35.39,4.65-8.13,10.67-15.16,17.7-21.2,10.18-8.75,21.86-14.88,35.02-18.01,8.36-1.98,16.85-3.02,25.4-2.36,9.97.77,19.62,2.96,28.92,6.97,11.77,5.09,21.78,12.45,30.14,21.98,6.87,7.83,12.08,16.8,15.61,26.66,4.16,11.62,5.74,23.66,4.77,35.89Z"/>
  </g>
</svg>