<?xml version="1.0" encoding="UTF-8"?>
<svg id="Layer_2" data-name="Layer 2" xmlns="http://www.w3.org/2000/svg" xmlns:xlink="http://www.w3.org/1999/xlink" viewBox="0 0 333.99 312.87">
  <defs>
    <style>
      .cls-1 {
        fill: url(#linear-gradient-2);
      }

      .cls-2 {
        fill: url(#linear-gradient-3);
      }

      .cls-3 {
        fill: url(#linear-gradient);
      }
    </style>
    <linearGradient id="linear-gradient" x1="0" y1="104.32" x2="212.06" y2="104.32" gradientUnits="userSpaceOnUse">
      <stop offset="0" stop-color="#0f26ab"/>
      <stop offset="1" stop-color="#00b0cf"/>
    </linearGradient>
    <linearGradient id="linear-gradient-2" x1="158.26" y1="237.05" x2="307.91" y2="237.05" xlink:href="#linear-gradient"/>
    <linearGradient id="linear-gradient-3" x1="215.91" y1="104.24" x2="333.99" y2="104.24" xlink:href="#linear-gradient"/>
  </defs>
  <g id="Layer_1-2" data-name="Layer 1">
    <path class="cls-3" d="m0,101.48c1.52-7.98,3.05-15.96,4.56-23.94.5-2.65.97-5.31,1.53-8.38,6.37,1.1,12.56,2.07,18.7,3.29,2.17.43,3.13,0,4.2-2.09,2.78-5.4,5.88-10.64,9.14-15.76,1.16-1.83,1.12-2.87-.26-4.44-4.14-4.73-8.12-9.61-12.38-14.69,8.9-7.47,17.62-14.79,26.64-22.37,4.1,4.88,8.21,9.62,12.13,14.52,1.47,1.84,2.58,2.09,4.85,1.1,5.36-2.33,10.87-4.4,16.48-6.03,2.57-.74,3.2-1.77,3.14-4.21-.15-6.08-.05-12.16-.05-18.48h34.78c0,6.22.12,12.39-.06,18.55-.07,2.5.65,3.41,3.16,4.15,5.6,1.66,11.12,3.72,16.47,6.06,2.32,1.01,3.39.6,4.83-1.2,3.87-4.83,7.92-9.5,12.1-14.47,8.87,7.44,17.6,14.76,26.63,22.34-4.75,5.69-9.4,11.24-13.66,16.34,3.71,6.81,7.17,13.31,10.85,19.69.41.71,2.17,1.1,3.2.94,6.21-.96,12.39-2.11,19.03-3.28,2.03,11.48,4.01,22.66,6.05,34.22-6.48,1.15-12.77,2.2-19.03,3.46-1.03.21-2.57,1.17-2.71,1.99-1.25,7.24-2.25,14.53-3.38,22.21,5.68,3.3,11.87,6.89,18.36,10.66-5.81,10.06-11.54,19.99-17.39,30.11-6.47-3.72-12.67-7.29-18.45-10.61-6.07,4.84-11.95,9.45-17.71,14.21-.52.43-.58,1.95-.3,2.77,2.11,6.14,4.37,12.24,6.67,18.62-10.86,3.96-21.56,7.86-32.66,11.9-2.02-5.54-4.2-10.95-5.94-16.51-1.01-3.22-2.43-4.2-5.95-3.89-5.6.49-11.3.22-16.93-.07-2.08-.11-2.82.46-3.46,2.31-2.05,5.95-4.29,11.83-6.6,18.13-10.86-3.95-21.61-7.85-32.67-11.87,2.52-6.98,4.94-13.68,7.3-20.22-6.12-5.15-12.16-10.24-18.42-15.51-5.9,3.39-12.1,6.95-18.66,10.72-5.82-10.07-11.55-19.99-17.4-30.11,5.75-3.32,11.16-6.53,16.66-9.59,1.81-1.01,2.21-1.95,1.72-4.11-1.35-6.03-2.27-12.15-3.24-18.26-.24-1.52-.42-2.62-2.29-2.92C13.06,105.74,6.53,104.56,0,103.44c0-.65,0-1.31,0-1.96Zm106.04-41.52c-24.4-.01-44.51,20.07-44.5,44.45.01,24.41,20.07,44.44,44.5,44.43,24.51,0,44.38-19.89,44.39-44.43.01-24.5-19.89-44.43-44.39-44.45Z"/>
    <path class="cls-1" d="m181.46,292.92c-5.23-6.7-10.16-13.03-15.31-19.62,3.61-2.82,6.97-5.54,10.44-8.11,1.41-1.04,1.92-1.89,1.19-3.74-1.5-3.83-2.78-7.77-3.84-11.74-.49-1.85-1.27-2.5-3.1-2.47-4.32.08-8.65.03-12.6.03v-25.07h15.65c2.06-4.75,4.22-9.57,6.15-14.48.24-.61-.58-1.93-1.25-2.57-3.14-2.99-6.4-5.85-9.86-8.97,5.57-6.19,11-12.21,16.64-18.47,3.93,3.5,7.71,6.87,11.46,10.21,4.83-2.45,9.58-4.77,14.2-7.31.58-.32.84-1.81.74-2.69-.48-4.3-1.14-8.58-1.79-13.27,8.28-1.15,16.29-2.26,24.64-3.41.61,4.41,1.27,8.46,1.7,12.53.24,2.31,1.13,3.34,3.58,3.58,3.11.3,6.3.84,9.21,1.91,3.42,1.27,5.27.42,6.86-2.77,1.59-3.18,3.75-6.08,5.87-9.44,7.04,4.41,13.9,8.7,21.05,13.18-2.37,3.81-4.53,7.56-6.98,11.1-1.27,1.83-.88,2.89.47,4.42,2.51,2.84,4.85,5.86,7.01,8.98,1.17,1.7,2.15,2.28,4.23,1.5,3.95-1.49,8.04-2.62,12.38-4,2.55,7.86,5.06,15.56,7.67,23.59-4.41,1.46-8.63,2.74-12.75,4.3-.91.34-1.99,1.62-2.07,2.54-.34,4.21-.23,8.46-.54,12.68-.13,1.84.35,2.72,2.1,3.37,4.05,1.5,8,3.24,12.25,4.98-3.16,7.79-6.2,15.3-9.34,23.03-4.23-1.7-8.29-3.21-12.24-4.97-1.83-.81-2.8-.48-4.05,1.07-2.99,3.71-6.24,7.2-9.52,10.92,2.29,4.37,4.65,8.88,7.15,13.64-7.3,3.88-14.47,7.69-21.96,11.67-2.16-4.08-4.13-8.05-6.38-11.86-.5-.84-2-1.7-2.93-1.59-4.94.59-9.85,1.48-15,2.3-1.04,4.73-2.13,9.67-3.3,14.96-8.19-1.74-16.12-3.43-24.27-5.17.97-4.69,1.98-9.12,2.74-13.59.14-.83-.5-2.21-1.22-2.7-3.59-2.44-7.26-4.77-11.04-6.9-.84-.47-2.52-.45-3.28.1-3.63,2.56-7.07,5.39-10.81,8.3Zm51.71-24.11c17.37-.09,31.53-14.52,31.45-32.05-.08-17.34-14.55-31.53-32.07-31.45-17.36.08-31.51,14.53-31.43,32.07.08,17.38,14.5,31.52,32.05,31.43Z"/>
    <path class="cls-2" d="m277.47,44.37c6.53,1.34,12.67,2.6,19.19,3.94-.68,3.33-1.27,6.49-1.99,9.62-.42,1.81-.12,2.9,1.76,3.85,3.18,1.6,6.14,3.63,9.39,5.61,3.03-2.38,6.18-4.84,9.58-7.5,4.07,5.16,8.02,10.16,12.15,15.38-2.71,2.16-5.2,4.24-7.81,6.16-1.45,1.07-2,2.09-1.05,3.8.68,1.22,1.11,2.6,1.58,3.93.75,2.12.83,5.14,2.3,6.16,1.69,1.16,4.6.59,6.99.71,1.5.07,3.01.01,4.43.01v19.47c-3.46,0-6.5.22-9.48-.07-2.46-.24-3.6.57-4.04,2.93-.26,1.37-.81,2.71-1.35,4.01q-2.43,5.75,2.26,9.91c1.37,1.22,2.74,2.44,4.38,3.9-4.38,4.93-8.61,9.69-13.03,14.66-3.17-2.78-6.17-5.41-9.13-8-3.63,1.89-7.22,3.64-10.68,5.64-.63.36-1.03,1.74-.95,2.59.3,3.33.84,6.64,1.32,10.22-6.51.95-12.81,1.87-19.35,2.82-.53-3.43-1.18-6.62-1.45-9.84-.16-1.93-.95-2.54-2.74-2.82-3.53-.55-7.02-1.36-10.9-2.14-2.03,3.24-4.2,6.71-6.47,10.35-5.62-3.47-11.05-6.82-16.67-10.29,1.87-3.07,3.75-5.86,5.28-8.83.44-.84.24-2.41-.28-3.26-1.01-1.65-2.56-2.95-3.71-4.53-3.25-4.47-3.21-4.49-8.65-2.69-1.95.65-3.91,1.25-6.28,2.01-2.03-6.11-4.04-12.15-6.16-18.54,3.33-1.14,6.44-2.31,9.62-3.24,1.67-.49,2.17-1.28,2.1-3.01-.1-2.81-.03-5.66.31-8.45.26-2.14-.47-3.14-2.43-3.81-2.96-1.01-5.83-2.28-8.96-3.52,2.47-6.21,4.83-12.12,7.26-18.23,3.39,1.34,6.47,2.69,9.65,3.72.86.28,2.37-.05,2.98-.68,2.63-2.73,5.04-5.68,7.68-8.73-1.78-3.37-3.64-6.9-5.67-10.74,5.72-3.09,11.32-6.1,17.22-9.29,1.7,3.11,3.38,5.98,4.86,8.96.76,1.52,1.54,1.98,3.29,1.54,2.51-.64,5.13-1.09,7.71-1.16,2.65-.07,3.83-1.08,4.16-3.71.34-2.78,1.09-5.52,1.77-8.79Zm22.59,60.13c.1-13.75-10.76-25.14-24.1-25.27-14.45-.14-25.73,10.58-25.82,24.52-.09,14.32,10.72,25.36,24.91,25.44,13.81.07,24.91-10.89,25.02-24.69Z"/>
  </g>
</svg>