<svg version="1.1" id="Layer_1" xmlns="http://www.w3.org/2000/svg" xmlns:xlink="http://www.w3.org/1999/xlink" x="0px" y="0px" viewBox="0 0 125.6 24.9" enable-background="new 0 0 125.6 24.9" xml:space="preserve">
				<path fill-rule="evenodd" clip-rule="evenodd" fill="#FFFFFF" d="M45.9,12.2c-1.1-0.4-2.2-1-3.1-1.8c-0.8-0.8-1.2-1.8-1.2-3
					s0.5-2.2,1.3-3c0.9-0.9,1.9-1.3,3.2-1.3c1.2,0,2.3,0.4,3.2,1.3c0.5,0.5,0.9,1.2,1.1,1.9l0.1,0.4l-2.7,1l-0.1-0.4
					c-0.1-0.3-0.3-0.9-0.5-1.1c-0.3-0.3-0.6-0.5-1-0.5s-0.7,0.2-1,0.5s-0.5,0.7-0.5,1.2s0.1,0.9,0.5,1.2c0.4,0.4,1,0.7,1.5,1
					c1.3,0.4,2.5,1.1,3.5,2.1c1.1,1.1,1.7,2.4,1.7,4s-0.6,2.9-1.7,4s-2.5,1.7-4.1,1.7s-3-0.6-4.1-1.7c-0.9-0.9-1.4-2.1-1.6-3.4V16l2.9-1
					l0.1,0.5c0.1,0.8,0.3,1.9,0.9,2.5c0.5,0.5,1.2,0.8,2,0.8s1.4-0.3,2-0.9s0.9-1.3,0.9-2.1c0-0.8-0.2-1.5-0.8-2.1
					C47.4,13,46.7,12.5,45.9,12.2z"></path>
				<rect x="56.6" y="3.3" fill-rule="evenodd" clip-rule="evenodd" fill="#FFFFFF" width="3" height="18"></rect>
				<rect x="83.5" y="3.3" fill-rule="evenodd" clip-rule="evenodd" fill="#FFFFFF" width="3" height="18"></rect>
				<path fill-rule="evenodd" clip-rule="evenodd" fill="#FFFFFF" d="M98.1,8.5c-1.7,4.8-2.4,6.6-4.6,12.7h-3.1l6.5-18h2.4l6.5,18h-3.1
					C100.7,15.6,99.8,13.2,98.1,8.5L98.1,8.5z"></path>
				<polygon fill-rule="evenodd" clip-rule="evenodd" fill="#FFFFFF" points="121.5,16.1 121.5,3.3 124.5,3.3 124.5,21.3 121.5,21.3
					112.6,8.8 112.6,21.3 109.6,21.3 109.6,3.3 112.3,3.3 "></polygon>
				<path fill-rule="evenodd" clip-rule="evenodd" fill="#FFFFFF" d="M16.9,5.7c-1.8-1.8-4-2.7-6.6-2.7C7.7,3,5.5,3.9,3.7,5.7
					C1.9,7.5,1,9.7,1,12.2s0.9,4.7,2.7,6.5c1.8,1.8,4,2.7,6.6,2.7c2.6,0,4.8-0.9,6.6-2.7s2.7-4,2.7-6.5C19.6,9.6,18.7,7.5,16.9,5.7z
					M14.7,16.8c-1.2,1.3-2.7,1.9-4.4,1.9S7.1,18,5.9,16.8C4.6,15.5,4,14,4,12.2s0.6-3.3,1.9-4.6c1.2-1.2,2.7-1.9,4.4-1.9
					s3.2,0.7,4.4,1.9c1.3,1.3,1.9,2.8,1.9,4.6S16,15.5,14.7,16.8z"></path>
				<path fill-rule="evenodd" clip-rule="evenodd" fill="#FFFFFF" d="M34.5,10.8c-0.3-0.2-0.6-0.6-0.9-0.8c0.6-0.7,0.8-1.6,1-2.4
					c0-1.2-0.4-2.2-1.2-3c-0.9-0.9-1.9-1.3-3.1-1.3h-5.8v18h6.3c1.4-0.2,2.7-0.8,3.7-1.8c1.2-1.2,1.8-2.7,1.8-4.4
					C36.3,13.4,35.7,12,34.5,10.8z M27.3,6h2.9c0.3,0,0.6,0.1,0.9,0.4c0.3,0.3,0.4,0.7,0.4,1.1s-0.1,0.8-0.4,1.1
					c-0.2,0.2-0.5,0.3-0.8,0.3h-3V6z M32.3,17.6c-0.6,0.6-1.4,1-2.3,1h-2.7v-7H30c0.9,0,1.7,0.4,2.3,1c0.7,0.7,1,1.5,1,2.5
					S33,16.9,32.3,17.6z"></path>
				<path fill-rule="evenodd" clip-rule="evenodd" fill="#FFFFFF" d="M75.9,5.8C74.1,4,71.6,3.2,69,3.2l0,0h-4.1v18h4
					c2.6,0,5.1-0.6,6.9-2.5c1.8-1.8,2.7-4,2.7-6.5S77.7,7.6,75.9,5.8z M73.7,16.9c-1.3,1.2-3,1.6-4.7,1.6h-1V6.1h1
					c1.7,0,3.4,0.4,4.7,1.6c1.3,1.3,1.9,2.8,1.9,4.6S75,15.6,73.7,16.9z"></path>
				</svg>