<svg xmlns="http://www.w3.org/2000/svg" width="127.72" height="127.72" viewBox="0 0 127.72 127.72">
  <g id="space-colonization" transform="translate(-2 -1.6)">
    <path id="Path_21" data-name="Path 21" d="M7,53.518h3.8a43.713,43.713,0,0,1,69.16-35.53l2.28-3.04A47.5,47.5,0,0,0,7,53.518Z" transform="translate(4.5 3.942)" fill="#0094a9"/>
    <path id="Path_22" data-name="Path 22" d="M123.334,70.419H102.047V31.36H85.018V14H42.445V34.4l-17.029,8.68V70.419H8.386a6.511,6.511,0,0,0,0,13.02h7.876c10.643,27.993,41.3,41.881,68.756,31.031a52.881,52.881,0,0,0,30.44-31.031h7.876a6.511,6.511,0,0,0,0-13.02ZM97.79,35.7v34.72H85.018V35.7Zm-29.8-2.17V44.38H59.474V33.53Zm-8.515-4.34V18.34h8.515V29.19ZM46.7,48.72h8.515V59.57H46.7Zm12.772,0h8.515V59.57H59.474Zm12.772,0h8.515V59.57H72.246Zm8.515-4.34H72.246V33.53h8.515Zm-25.544,0H46.7V33.53h8.515ZM46.7,63.91h8.515v6.51H46.7Zm12.772,0h8.515v6.51H59.474Zm12.772,0h8.515v6.51H72.246Zm8.515-34.72H72.246V18.34h8.515ZM55.217,18.34V29.19H46.7V18.34ZM42.445,39.172V70.419H38.187V55.23H29.673V45.682ZM29.673,59.57H33.93v10.85H29.673Zm-2.554,34.72H47.766a5.426,5.426,0,0,1,0,10.85H38.4A45.328,45.328,0,0,1,27.118,94.289Zm51.514,17.794a57.4,57.4,0,0,1-10.643,1.736v-2.17a4.312,4.312,0,0,1,4.257-4.34h2.129a4.312,4.312,0,0,1,4.257,4.34ZM95.661,96.459a2.17,2.17,0,0,1,0-4.34H106.3c-1.064,1.519-2.129,3.038-3.193,4.34Zm13.2-8.68h-13.2a6.511,6.511,0,0,0,0,13.02h3.193a51.089,51.089,0,0,1-15.965,9.982,8.615,8.615,0,0,0-8.515-7.812H72.246a8.624,8.624,0,0,0-8.515,8.68v2.17a45.124,45.124,0,0,1-17.668-4.34h1.7a9.767,9.767,0,0,0,0-19.53H24.138c-1.277-2.17-2.342-4.34-3.406-6.51H57.345v1.085a13.839,13.839,0,1,0,27.673,0V83.439h25.97A27.216,27.216,0,0,1,108.859,87.779ZM61.6,83.439H80.761v1.085a9.581,9.581,0,1,1-19.158,0Zm61.731-4.34H8.386a2.17,2.17,0,0,1,0-4.34H123.334a2.17,2.17,0,0,1,0,4.34Z" transform="translate(0 11.16)" fill="#0094a9"/>
    <path id="Path_23" data-name="Path 23" d="M73.17,26.3,68.8,24.02V13.19a8.912,8.912,0,0,0-2.85-6.65L61.2,1.6,56.45,6.35a9.329,9.329,0,0,0-2.85,6.84V24.02L49.23,26.3A5.722,5.722,0,0,0,46,31.43v5.13H76.4V31.24a5.336,5.336,0,0,0-3.23-4.94Zm-15.77.76H65v5.7H57.4ZM59.11,9.01,61.2,6.92l2.09,2.09A5.894,5.894,0,0,1,65,13.19V23.26H57.4V13.19A5.894,5.894,0,0,1,59.11,9.01ZM49.8,31.24a1.826,1.826,0,0,1,1.14-1.71L53.6,28.2v4.56H49.8Zm22.8,1.52H68.8V28.2l2.66,1.33a2.184,2.184,0,0,1,1.14,1.71Z" transform="translate(53.32)" fill="#0094a9"/>
    <path id="Path_24" data-name="Path 24" d="M56.7,37.96l1.71-1.71a13.526,13.526,0,0,0,3.99-9.5V22H51v4.75a13.076,13.076,0,0,0,3.99,9.5ZM54.8,25.8h3.8v.95a8.966,8.966,0,0,1-1.9,5.7,8.966,8.966,0,0,1-1.9-5.7Z" transform="translate(57.82 23.444)" fill="#0094a9"/>
    <path id="Path_25" data-name="Path 25" d="M43,26h3.8v9.5H43Z" transform="translate(46.599 27.668)" fill="#0094a9"/>
    <path id="Path_26" data-name="Path 26" d="M43,33h3.8v9.5H43Z" transform="translate(46.599 35.605)" fill="#0094a9"/>
    <path id="Path_27" data-name="Path 27" d="M11.5,26.7v1.9h3.8V26.7a9.408,9.408,0,0,1,9.5-9.5V13.4a9.408,9.408,0,0,1-9.5-9.5V2H11.5V3.9A9.408,9.408,0,0,1,2,13.4v3.8A9.408,9.408,0,0,1,11.5,26.7Zm1.9-15.96a13.1,13.1,0,0,0,4.56,4.56,13.1,13.1,0,0,0-4.56,4.56A13.1,13.1,0,0,0,8.84,15.3a13.1,13.1,0,0,0,4.56-4.56Z" transform="translate(0 0.36)" fill="#0094a9"/>
    <path id="Path_28" data-name="Path 28" d="M63.6,32H59.8v3.8H56v3.8h3.8v3.8h3.8V39.6h3.8V35.8H63.6Z" transform="translate(62.32 34.602)" fill="#0094a9"/>
    <path id="Path_29" data-name="Path 29" d="M7,34h3.8v5.7H7Z" transform="translate(4.5 36.475)" fill="#0094a9"/>
    <path id="Path_30" data-name="Path 30" d="M2,20H5.8v3.8H2Z" transform="translate(0 20.643)" fill="#0094a9"/>
    <path id="Path_31" data-name="Path 31" d="M15,4h3.8V7.8H15Z" transform="translate(14.775 2.16)" fill="#0094a9"/>
    <path id="Path_32" data-name="Path 32" d="M24,3h3.8V6.8H24Z" transform="translate(25.004 1.26)" fill="#0094a9"/>
    <path id="Path_33" data-name="Path 33" d="M51,36h3.8v3.8H51Z" transform="translate(57.82 38.593)" fill="#0094a9"/>
    <path id="Path_34" data-name="Path 34" d="M60,27h3.8v3.8H60Z" transform="translate(65.92 28.496)" fill="#0094a9"/>
    <path id="Path_35" data-name="Path 35" d="M45,5h3.8V8.8H45Z" transform="translate(48.872 3.06)" fill="#0094a9"/>
    <path id="Path_36" data-name="Path 36" d="M31,10h3.8v3.8H31Z" transform="translate(32.96 7.56)" fill="#0094a9"/>
    <path id="Path_37" data-name="Path 37" d="M15,19h3.8v3.8H15Z" transform="translate(14.775 19.521)" fill="#0094a9"/>
    <path id="Path_38" data-name="Path 38" d="M36,2h3.8V5.8H36Z" transform="translate(38.643 0.36)" fill="#0094a9"/>
  </g>
</svg>
