<svg xmlns="http://www.w3.org/2000/svg" width="138.603" height="137" viewBox="0 0 138.603 137">
  <g id="recession" transform="translate(-1.29 -1.29)">
    <path id="Path_1" data-name="Path 1" d="M126.466,48.815a24.8,24.8,0,1,0-37.821-21.1,24.455,24.455,0,0,0,3.024,11.847l-12.05,12.05L47.37,19.343a2.275,2.275,0,0,0-3.2,0L33.357,30.175,4.494,1.29l-3.2,3.2L31.755,34.959a2.275,2.275,0,0,0,3.2,0L45.768,24.127,78.016,56.4a2.288,2.288,0,0,0,3.2,0l13-13.021a24.823,24.823,0,0,0,19.249,9.162,24.5,24.5,0,0,0,8.733-1.625l14.488,14.51,3.2-3.2Zm-13-.79a20.31,20.31,0,1,1,20.31-20.31,20.31,20.31,0,0,1-20.31,20.31Z" transform="translate(0 0)" fill="#0094a9"/>
    <path id="Path_2" data-name="Path 2" d="M52.513,37.593h4.513V33.08a4.513,4.513,0,0,0,4.513-4.513V24.053a4.513,4.513,0,0,0-4.513-4.513H52.513V15.027H61.54V10.513H57.027V6H52.513v4.513A4.513,4.513,0,0,0,48,15.027V19.54a4.513,4.513,0,0,0,4.513,4.513h4.513v4.513H48V33.08h4.513Z" transform="translate(58.697 5.919)" fill="#0094a9"/>
    <path id="Path_3" data-name="Path 3" d="M25.8,57.566H21.283a6.77,6.77,0,1,1,0-13.54h13.54V39.513H25.8V35H21.283v4.513a11.283,11.283,0,0,0,0,22.566H25.8a6.77,6.77,0,1,1,0,13.54H12.257v4.513h9.027v4.513H25.8V80.133a11.283,11.283,0,1,0,0-22.566Z" transform="translate(10.945 42.361)" fill="#0094a9"/>
    <path id="Path_4" data-name="Path 4" d="M137.4,89.955a6.79,6.79,0,0,0-6.77-6.77h-27.08a6.79,6.79,0,0,0-6.77,6.77,6.711,6.711,0,0,0-1.76-4.513,6.711,6.711,0,0,0,1.76-4.513V76.416a6.711,6.711,0,0,0-1.76-4.513,6.711,6.711,0,0,0,1.76-4.513V62.876a6.79,6.79,0,0,0-6.77-6.77H62.929a6.725,6.725,0,0,0-5.3,2.618,51.582,51.582,0,0,0-8.485-10.945A6.7,6.7,0,0,0,47.9,36.541l3.678-13.7a2.3,2.3,0,0,0-.5-2.076,2.257,2.257,0,0,0-2.008-.745L33.593,22.234,18.112,20.022a2.257,2.257,0,0,0-2.008.745,2.3,2.3,0,0,0-.5,2.076l3.678,13.7a6.7,6.7,0,0,0-1.241,11.238C8.973,56.444,2,71.474,2,83.185v9.027c0,12.231,9.3,22.566,20.31,22.566H44.876a18.638,18.638,0,0,0,11.757-4.333,6.781,6.781,0,0,0,6.3,4.333h27.08a6.79,6.79,0,0,0,6.77-6.77,6.79,6.79,0,0,0,6.77,6.77h27.08a6.79,6.79,0,0,0,6.77-6.77V103.5a6.711,6.711,0,0,0-1.76-4.513,6.711,6.711,0,0,0,1.76-4.513ZM33.277,26.747a2.956,2.956,0,0,0,.632,0L46.32,24.964,43.409,35.8H23.777L20.865,24.964ZM22.31,40.309H44.876a2.257,2.257,0,1,1,0,4.513H22.31a2.257,2.257,0,1,1,0-4.513Zm22.566,69.956H22.31c-8.417,0-15.8-8.44-15.8-18.053V83.185c0-11.283,7.56-26.561,16.609-33.85H44.064c9.049,7.289,16.609,22.566,16.609,33.85v9.027C60.673,101.825,53.293,110.265,44.876,110.265Zm47.389-2.257a2.257,2.257,0,0,1-2.257,2.257H62.929a2.257,2.257,0,0,1-2.257-2.257v-1.828a23.855,23.855,0,0,0,2.731-4.942H90.009a2.257,2.257,0,0,1,2.257,2.257Zm0-13.54a2.257,2.257,0,0,1-2.257,2.257H64.757a24.876,24.876,0,0,0,.429-4.513V87.7H90.009a2.257,2.257,0,0,1,2.257,2.257Zm0-13.54a2.257,2.257,0,0,1-2.257,2.257H65.186a38.067,38.067,0,0,0-1.2-9.027H90.009a2.257,2.257,0,0,1,2.257,2.257Zm0-13.54a2.257,2.257,0,0,1-2.257,2.257H62.929a1.188,1.188,0,0,1-.271-.068c-.587-1.67-1.241-3.34-1.986-5.01V62.876a2.257,2.257,0,0,1,2.257-2.257h27.08a2.257,2.257,0,0,1,2.257,2.257ZM96.779,103.5a6.711,6.711,0,0,0-1.76-4.513,6.711,6.711,0,0,0,1.76-4.513,6.711,6.711,0,0,0,1.76,4.513,6.711,6.711,0,0,0-1.76,4.513Zm36.106,4.513a2.257,2.257,0,0,1-2.257,2.257h-27.08a2.257,2.257,0,0,1-2.257-2.257V103.5a2.257,2.257,0,0,1,2.257-2.257h27.08a2.257,2.257,0,0,1,2.257,2.257Zm0-13.54a2.257,2.257,0,0,1-2.257,2.257h-27.08a2.257,2.257,0,0,1-2.257-2.257V89.955a2.257,2.257,0,0,1,2.257-2.257h27.08a2.257,2.257,0,0,1,2.257,2.257Z" transform="translate(0.892 23.512)" fill="#0094a9"/>
  </g>
</svg>
