<svg xmlns="http://www.w3.org/2000/svg" width="127.715" height="127.712" viewBox="0 0 127.715 127.712">
  <g id="time-management" transform="translate(-2 -2.002)">
    <path id="Path_9" data-name="Path 9" d="M31,56h4.257v4.257H31Z" transform="translate(32.729 60.942)" fill="#0094a9"/>
    <path id="Path_10" data-name="Path 10" d="M0,0H4.257V4.257H0Z" transform="translate(100.455 103.485) rotate(-45)" fill="#0094a9"/>
    <path id="Path_11" data-name="Path 11" d="M56,31h4.257v4.257H56Z" transform="translate(60.944 32.727)" fill="#0094a9"/>
    <path id="Path_12" data-name="Path 12" d="M127.587,50.956H112.495a47.994,47.994,0,0,0-3.118-7.539l10.666-10.668a2.129,2.129,0,0,0,0-3.01l-9.032-9.029a63.856,63.856,0,1,0-90.309,90.3l9.031,9.03a2.129,2.129,0,0,0,3.01,0l10.668-10.666a48.018,48.018,0,0,0,7.546,3.116v15.094a2.129,2.129,0,0,0,2.129,2.129H78.629a2.129,2.129,0,0,0,2.129-2.129V112.493a48.017,48.017,0,0,0,7.539-3.116l10.668,10.666a2.129,2.129,0,0,0,3.01,0l18.061-18.061a2.129,2.129,0,0,0,0-3.01L109.37,88.3a48.019,48.019,0,0,0,3.123-7.548h15.094a2.129,2.129,0,0,0,2.129-2.129V53.084a2.129,2.129,0,0,0-2.129-2.129ZM23.712,23.71a59.577,59.577,0,0,1,82.747-1.469l-3.006,3.006a55.343,55.343,0,0,0-78.2,78.2l-3.006,3.006A59.577,59.577,0,0,1,23.712,23.71ZM83.919,47.795A25.543,25.543,0,1,1,47.8,83.917a2.129,2.129,0,0,0-3.009,0L28.26,100.443a51.086,51.086,0,0,1,72.185-72.185L83.919,44.783a2.129,2.129,0,0,0,0,3.012Zm41.539,28.7H110.907a2.129,2.129,0,0,0-2.052,1.558,43.614,43.614,0,0,1-3.961,9.579,2.129,2.129,0,0,0,.353,2.554l10.279,10.281L100.477,115.52,90.2,105.241a2.129,2.129,0,0,0-2.554-.353,43.614,43.614,0,0,1-9.579,3.961A2.129,2.129,0,0,0,76.5,110.9v14.555H55.215V110.905a2.129,2.129,0,0,0-1.558-2.052,43.615,43.615,0,0,1-9.579-3.961,2.129,2.129,0,0,0-2.554.353L31.243,115.524l-6.02-6.02L46.349,88.381A29.8,29.8,0,0,0,88.382,46.343l21.124-21.126,6.02,6.02L105.247,41.518a2.129,2.129,0,0,0-.353,2.554,43.578,43.578,0,0,1,3.961,9.579,2.129,2.129,0,0,0,2.052,1.558h14.551Z" transform="translate(0 0)" fill="#0094a9"/>
    <path id="Path_13" data-name="Path 13" d="M47.672,41.845V18.129a2.129,2.129,0,1,0-4.257,0V41.845a8.514,8.514,0,0,0-6.083,6.084h-15.2a2.129,2.129,0,1,0,0,4.257h15.2A8.5,8.5,0,1,0,47.672,41.845ZM45.543,54.315A4.257,4.257,0,1,1,49.8,50.057,4.257,4.257,0,0,1,45.543,54.315Z" transform="translate(20.315 15.798)" fill="#0094a9"/>
    <path id="Path_14" data-name="Path 14" d="M33.129,17.514A2.129,2.129,0,0,1,31,15.386V11.129a2.129,2.129,0,1,1,4.257,0v4.257A2.129,2.129,0,0,1,33.129,17.514Z" transform="translate(32.729 7.898)" fill="#0094a9"/>
    <path id="Path_15" data-name="Path 15" d="M43.127,19.893A2.129,2.129,0,0,1,41.286,16.7l2.129-3.689A2.129,2.129,0,1,1,47.1,15.14l-2.129,3.689a2.129,2.129,0,0,1-1.845,1.064Z" transform="translate(44.016 11.224)" fill="#0094a9"/>
    <path id="Path_16" data-name="Path 16" d="M24.258,19.893a2.129,2.129,0,0,1-1.845-1.064L20.284,15.14a2.129,2.129,0,1,1,3.687-2.129L26.1,16.7a2.129,2.129,0,0,1-1.841,3.193Z" transform="translate(20.313 11.224)" fill="#0094a9"/>
    <path id="Path_17" data-name="Path 17" d="M17.764,26.386A2.112,2.112,0,0,1,16.7,26.1L13.01,23.972a2.129,2.129,0,1,1,2.129-3.687l3.689,2.129a2.129,2.129,0,0,1-1.064,3.972Z" transform="translate(11.225 20.313)" fill="#0094a9"/>
    <path id="Path_18" data-name="Path 18" d="M15.386,35.257H11.129a2.129,2.129,0,1,1,0-4.257h4.257a2.129,2.129,0,1,1,0,4.257Z" transform="translate(7.9 32.727)" fill="#0094a9"/>
    <path id="Path_19" data-name="Path 19" d="M14.077,47.386a2.129,2.129,0,0,1-1.064-3.972L16.7,41.285a2.129,2.129,0,1,1,2.129,3.687L15.141,47.1a2.112,2.112,0,0,1-1.064.285Z" transform="translate(11.227 44.013)" fill="#0094a9"/>
    <path id="Path_20" data-name="Path 20" d="M40.306,61.615A21.1,21.1,0,0,1,25.262,55.37a2.128,2.128,0,1,1,3.014-3.006A17.017,17.017,0,1,0,52.342,28.3a2.129,2.129,0,1,1,3-3.013A21.286,21.286,0,0,1,40.306,61.615Z" transform="translate(25.551 25.526)" fill="#0094a9"/>
  </g>
</svg>
