<svg xmlns="http://www.w3.org/2000/svg" width="137.625" height="136.796" viewBox="0 0 137.625 136.796">
  <g id="efficiency" transform="translate(0.001 0)">
    <path id="Path_5" data-name="Path 5" d="M128.211,304.112l-46.6,11.731a8.748,8.748,0,0,0-2.215-3.744L64.547,297.251a9.686,9.686,0,0,0-6.893-2.854H28.038a10.224,10.224,0,0,0-10.149-9.092H10.21A10.221,10.221,0,0,0,0,295.515v20.548a2.022,2.022,0,0,0,4.044,0V295.515a6.173,6.173,0,0,1,6.167-6.167h7.68a6.178,6.178,0,0,1,6.065,5.048c.15.807.1-1.611.1,36.985a6.175,6.175,0,0,1-6.168,6.168H10.21a6.174,6.174,0,0,1-6.167-6.168V324.15a2.022,2.022,0,0,0-4.044,0v7.232a10.222,10.222,0,0,0,10.21,10.211h7.68A10.222,10.222,0,0,0,28.1,331.382V327.8c14.889,2.571,11.685,1.635,33.876,12.492,3.606,1.765,7.083,5.116,14.441,5.116a20.74,20.74,0,0,0,11.066-3.193l38.453-19.5a2.022,2.022,0,1,0-1.828-3.607c-.139.07-38.58,19.555-38.71,19.638a16.7,16.7,0,0,1-8.981,2.616c-6.133,0-8.8-2.811-12.664-4.7C41.19,325.625,44.4,326.515,28.1,323.7V298.44H57.654a5.666,5.666,0,0,1,4.035,1.672l14.844,14.844a4.526,4.526,0,1,1-6.294,6.5L56.867,308.082a2.022,2.022,0,1,0-2.86,2.86L67.382,324.32A8.54,8.54,0,0,0,81.8,319.963c49.96-12.577,47.2-11.924,47.7-11.924a3.934,3.934,0,0,1,1.815,7.417,2.022,2.022,0,0,0,1.828,3.607,7.889,7.889,0,0,0,4.336-7.075c0-5.484-5.367-8.861-9.275-7.877Zm0,0" transform="translate(0 -208.615)" fill="#0094a9"/>
    <path id="Path_6" data-name="Path 6" d="M26.73,421.586a6.865,6.865,0,1,0,9.576-6.308,2.022,2.022,0,0,0-1.6,3.715,2.822,2.822,0,1,1-3.8,1.739c.871-2.746-4.175-4.573-4.175.855Zm0,0" transform="translate(-19.546 -303.531)" fill="#0094a9"/>
    <path id="Path_7" data-name="Path 7" d="M270.987,49.7l-9.748-3.548a30.989,30.989,0,0,0,0-3.478l9.747-3.548a4.113,4.113,0,0,0,2.461-5.276l-3.311-9.1a4.122,4.122,0,0,0-5.276-2.461l-9.747,3.548a31.226,31.226,0,0,0-2.236-2.663l5.187-8.984a4.122,4.122,0,0,0-1.507-5.624l-8.383-4.839a4.115,4.115,0,0,0-5.623,1.507l-5.185,8.978a30.81,30.81,0,0,0-3.427-.6L232.138,3.4A4.122,4.122,0,0,0,227.369.063l-9.533,1.68A4.121,4.121,0,0,0,214.5,6.512l1.8,10.211a31.155,31.155,0,0,0-3.012,1.743L205.34,11.8a4.112,4.112,0,0,0-5.8.508l-6.222,7.415a4.114,4.114,0,0,0,.507,5.8l7.942,6.664a30.986,30.986,0,0,0-1.191,3.272H190.21a4.121,4.121,0,0,0-4.116,4.117v9.679a4.121,4.121,0,0,0,4.116,4.117h10.368a30.9,30.9,0,0,0,1.191,3.272l-7.942,6.663a4.123,4.123,0,0,0-.507,5.8l6.222,7.415a4.122,4.122,0,0,0,5.8.507l7.945-6.667A31.154,31.154,0,0,0,216.3,72.1l-1.8,10.211a4.115,4.115,0,0,0,3.339,4.769l9.533,1.68a4.121,4.121,0,0,0,4.769-3.339l1.8-10.215a30.872,30.872,0,0,0,3.428-.6l5.184,8.979a4.121,4.121,0,0,0,5.624,1.508l8.383-4.84a4.12,4.12,0,0,0,1.506-5.623l-5.187-8.985a31.058,31.058,0,0,0,2.236-2.663l9.747,3.548a4.114,4.114,0,0,0,5.276-2.461l3.311-9.1a4.114,4.114,0,0,0-2.46-5.277Zm-1.339,3.893-3.311,9.1a.068.068,0,0,1-.039.041.065.065,0,0,1-.056,0l-11.194-4.075a2.023,2.023,0,0,0-2.37.773,27.126,27.126,0,0,1-3.724,4.434,2.021,2.021,0,0,0-.351,2.469l5.958,10.319a.073.073,0,0,1-.026.1l-8.383,4.839a.074.074,0,0,1-.1-.026L240.1,71.255a2.021,2.021,0,0,0-2.312-.931,26.968,26.968,0,0,1-5.7,1,2.021,2.021,0,0,0-1.857,1.666l-2.069,11.735a.075.075,0,0,1-.086.06c-.111-.02-9.612-1.654-9.592-1.766l2.068-11.728a2.023,2.023,0,0,0-1.173-2.2,27.059,27.059,0,0,1-5.012-2.9,2.021,2.021,0,0,0-2.494.082l-9.128,7.659a.073.073,0,0,1-.1-.008l-6.222-7.415a.074.074,0,0,1,.008-.1l9.123-7.656a2.02,2.02,0,0,0,.514-2.441,26.811,26.811,0,0,1-1.979-5.44,2.021,2.021,0,0,0-1.964-1.539H190.21a.073.073,0,0,1-.074-.073v-9.68a.074.074,0,0,1,.074-.074h11.91a2.022,2.022,0,0,0,1.964-1.539,26.825,26.825,0,0,1,1.979-5.439,2.021,2.021,0,0,0-.514-2.442l-9.123-7.656a.065.065,0,0,1-.026-.049.065.065,0,0,1,.018-.054l6.221-7.415a.073.073,0,0,1,.05-.026.069.069,0,0,1,.054.017l9.128,7.659a2.02,2.02,0,0,0,2.494.083,26.943,26.943,0,0,1,5.012-2.9,2.023,2.023,0,0,0,1.173-2.2L218.479,5.811a.073.073,0,0,1,.06-.085l9.533-1.681a.069.069,0,0,1,.055.013.067.067,0,0,1,.03.047l2.068,11.735a2.022,2.022,0,0,0,1.857,1.666,26.944,26.944,0,0,1,5.7,1,2.023,2.023,0,0,0,2.313-.93L246.052,7.26a.068.068,0,0,1,.045-.034.064.064,0,0,1,.056.007l8.383,4.839a.075.075,0,0,1,.027.1L248.6,22.493a2.021,2.021,0,0,0,.351,2.469,27.161,27.161,0,0,1,3.724,4.434,2.023,2.023,0,0,0,2.37.772l11.194-4.074a.076.076,0,0,1,.095.044l3.311,9.1a.065.065,0,0,1,0,.056.068.068,0,0,1-.041.039l-11.2,4.074a2.022,2.022,0,0,0-1.318,2.115,27.181,27.181,0,0,1,0,5.794,2.022,2.022,0,0,0,1.318,2.115L269.6,53.5a.068.068,0,0,1,.041.039.065.065,0,0,1,0,.056Zm0,0" transform="translate(-136.073 0)" fill="#0094a9"/>
    <path id="Path_8" data-name="Path 8" d="M311.866,114.674,289.136,137.4l-9.579-9.579a2.022,2.022,0,1,0-2.859,2.859l9.8,9.8a3.723,3.723,0,0,0,5.267,0l22.955-22.955a2.022,2.022,0,0,0-2.859-2.859Zm0,0" transform="translate(-201.889 -83.417)" fill="#0094a9"/>
  </g>
</svg>
