<svg xmlns="http://www.w3.org/2000/svg" viewBox="0 0 43 43"><defs><style>.cls-1,.cls-2{fill:none;stroke:#2196F3;stroke-width:1.5px;}.cls-1{stroke-miterlimit:10;}.cls-3,.cls-4{fill:#2196F3;}.cls-4{fill-opacity:0;}</style></defs><title>CCPA_blue_2</title><g id="_23_NYCRR_500" data-name="23 NYCRR 500"><path id="azom3zOb" class="cls-1" d="M21.5,12.8c8,0,14.19,5.44,14.19,13.4S29.51,39.6,21.5,39.6,7.31,34.16,7.31,26.2,13.49,12.8,21.5,12.8Z"/><path id="azom3zOb-2" data-name="azom3zOb" class="cls-2" d="M21.5,12.8c8,0,14.19,5.44,14.19,13.4S29.51,39.6,21.5,39.6,7.31,34.16,7.31,26.2,13.49,12.8,21.5,12.8Z"/><path id="eo1I9AAQ" class="cls-3" d="M21.18,19.69S21,24,21.06,24.07s6.13,5.85,6.15,5.91,0,.24.07.31.23.26.23.34a.43.43,0,0,0,.15.28c.06,0,.25.13.2.17s-.35.22-.39.39,0,.29,0,.44a2.53,2.53,0,0,1-.28.51s.07.15.07.21,0,.19,0,.25.21.08.21.15.08.17-.06.25a.3.3,0,0,1-.24,0c-.06,0-1.28.22-1.38.18a1.23,1.23,0,0,0-.54,0,3.35,3.35,0,0,1-.89.12c-.05-.06-.05-.15-.09-.19a.2.2,0,0,1-.11-.22,1.35,1.35,0,0,0-.09-.56c-.05,0-.42-.42-.49-.47s-.37-.35-.45-.36-.34,0-.37-.12,0-.35-.08-.36-.42.09-.46.07-.42-.18-.43-.24a.7.7,0,0,0-.23-.28c-.08,0-.11-.1-.21-.09s-.22.06-.27,0a.24.24,0,0,0-.24-.08,2.24,2.24,0,0,1-.52-.06c-.06,0-.24-.14-.19-.25s.09-.09.08-.17-.09-.21-.07-.28.06-.16.05-.19-.33-.17-.32-.26.1-.15.1-.19-.61-.42-.63-.66-.4-.59-.46-.68a.62.62,0,0,1-.08-.48c.05-.13.17-.3.15-.39a.44.44,0,0,0-.28-.21s-.37-.16-.37-.39a1.1,1.1,0,0,0,0-.36.86.86,0,0,1,0-.39s.18.32.24.35.11.1.13.05a.5.5,0,0,0,0-.32.73.73,0,0,0-.1-.09s0-.15-.07-.17-.12-.05-.09-.11.09-.05.17-.09,0-.16-.08-.19-.17-.09-.18,0,.07.44,0,.44-.19-.17-.28-.22-.28-.07-.31-.11.1-.21.07-.26a.7.7,0,0,0-.13-.17s0-.13,0-.16a5.92,5.92,0,0,1-.68-.82c0-.09.09-.28.07-.32s-.18-.18-.15-.32.13-.35.1-.47a3.45,3.45,0,0,0-.36-.75c-.08-.08-.26-.3-.21-.43s.28-.46.34-.64a.87.87,0,0,0,0-.4,3.75,3.75,0,0,0,.17-.47.66.66,0,0,0-.12-.33s-.17-.26,0-.37A42.71,42.71,0,0,0,21.18,19.69Z"/><path id="eo1I9AAQ-2" data-name="eo1I9AAQ" class="cls-4" d="M21.18,19.69S21,24,21.06,24.07s6.13,5.85,6.15,5.91,0,.24.07.31.23.26.23.34a.43.43,0,0,0,.15.28c.06,0,.25.13.2.17s-.35.22-.39.39,0,.29,0,.44a2.53,2.53,0,0,1-.28.51s.07.15.07.21,0,.19,0,.25.21.08.21.15.08.17-.06.25a.3.3,0,0,1-.24,0c-.06,0-1.28.22-1.38.18a1.23,1.23,0,0,0-.54,0,3.35,3.35,0,0,1-.89.12c-.05-.06-.05-.15-.09-.19a.2.2,0,0,1-.11-.22,1.35,1.35,0,0,0-.09-.56c-.05,0-.42-.42-.49-.47s-.37-.35-.45-.36-.34,0-.37-.12,0-.35-.08-.36-.42.09-.46.07-.42-.18-.43-.24a.7.7,0,0,0-.23-.28c-.08,0-.11-.1-.21-.09s-.22.06-.27,0a.24.24,0,0,0-.24-.08,2.24,2.24,0,0,1-.52-.06c-.06,0-.24-.14-.19-.25s.09-.09.08-.17-.09-.21-.07-.28.06-.16.05-.19-.33-.17-.32-.26.1-.15.1-.19-.61-.42-.63-.66-.4-.59-.46-.68a.62.62,0,0,1-.08-.48c.05-.13.17-.3.15-.39a.44.44,0,0,0-.28-.21s-.37-.16-.37-.39a1.1,1.1,0,0,0,0-.36.86.86,0,0,1,0-.39s.18.32.24.35.11.1.13.05a.5.5,0,0,0,0-.32.73.73,0,0,0-.1-.09s0-.15-.07-.17-.12-.05-.09-.11.09-.05.17-.09,0-.16-.08-.19-.17-.09-.18,0,.07.44,0,.44-.19-.17-.28-.22-.28-.07-.31-.11.1-.21.07-.26a.7.7,0,0,0-.13-.17s0-.13,0-.16a5.92,5.92,0,0,1-.68-.82c0-.09.09-.28.07-.32s-.18-.18-.15-.32.13-.35.1-.47a3.45,3.45,0,0,0-.36-.75c-.08-.08-.26-.3-.21-.43s.28-.46.34-.64a.87.87,0,0,0,0-.4,3.75,3.75,0,0,0,.17-.47.66.66,0,0,0-.12-.33s-.17-.26,0-.37A42.71,42.71,0,0,0,21.18,19.69Z"/><path class="cls-2" d="M14.93,13.65V9.81A6.41,6.41,0,0,1,21.34,3.4h0a6.41,6.41,0,0,1,6.41,6.41v3.84"/></g></svg>