<?xml version="1.0" encoding="utf-8"?>
<!-- Generator: Adobe Illustrator 21.0.0, SVG Export Plug-In . SVG Version: 6.00 Build 0)  -->
<svg version="1.1" xmlns="http://www.w3.org/2000/svg" xmlns:xlink="http://www.w3.org/1999/xlink" x="0px" y="0px"
	 viewBox="0 0 43 43" style="enable-background:new 0 0 43 43;" xml:space="preserve">
<style type="text/css">
	.st0{display:none;fill:#205EAB;}
	.st1{fill:#0F71B9;}
	.st2{fill:#148DCC;}
	.st3{fill:#FFFFFF;}
	.st4{fill:#2196F3;}
	.st5{fill:#208ECA;}
	.st6{display:none;fill:#0F71B9;}
	.st7{display:none;fill:#208ECA;}
	.st8{display:none;fill:#FFFFFF;}
	.st9{fill:#0D72B9;}
	.st10{fill:#0F71B8;}
	.st11{fill:#1978B7;}
	.st12{fill:#0071BC;}
	.st13{fill:none;stroke:#148DCC;stroke-width:2;stroke-miterlimit:10;}
	.st14{fill:none;stroke:#148DCC;stroke-width:2;stroke-linecap:round;stroke-linejoin:round;stroke-miterlimit:10;}
	.st15{fill:none;stroke:#148DCC;stroke-miterlimit:10;}
	.st16{fill:none;stroke:#148DCC;stroke-linecap:round;stroke-linejoin:round;stroke-miterlimit:10;}
	.st17{fill:#148DCC;stroke:#148DCC;stroke-width:0.5;stroke-miterlimit:10;}
	.st18{display:none;}
	.st19{display:inline;}
	.st20{fill:#231F20;}
	
		.st21{display:inline;fill:none;stroke:#231F20;stroke-width:0.8;stroke-linecap:round;stroke-linejoin:round;stroke-miterlimit:10;}
	.st22{display:inline;fill:#208ECA;}
	.st23{display:none;fill:#0F71B8;}
	.st24{fill:none;stroke:#FFFFFF;stroke-width:1.4;stroke-linecap:round;stroke-linejoin:round;stroke-miterlimit:10;}
	.st25{fill:none;stroke:#0F71B8;stroke-width:1.4;stroke-linecap:round;stroke-linejoin:round;stroke-miterlimit:10;}
	.st26{fill:none;stroke:#208ECA;stroke-width:2;stroke-miterlimit:10;}
	.st27{fill:none;stroke:#208ECA;stroke-width:2;}
	.st28{fill:#208ECA;fill-opacity:0;}
</style>
<g id="Layer_1">
	<g>
		<path class="st4" d="M12.3,35.3c0,0,0-3.9-4.8-7.3c0,0-0.1,1.5,0.9,4.2c-0.2-0.1-0.9-0.4-4.2-0.6C4.2,31.7,6.2,35.7,12.3,35.3z"/>
		<path class="st4" d="M28.5,36.3c1.6-2.5,1.9-3.9,1.9-3.9c-4.4,1.8-5.8,4.5-6.2,5.6c-0.6,0.3-1.8,0.6-3,0.6c-1,0-1.8-0.2-2.4-0.4
			c-0.3-0.9-1.7-3.8-6.3-5.7c0,0,0.3,1.5,1.9,3.9c-0.2-0.1-0.9-0.2-4.2,0.4c0,0,2.7,3.3,8.1,1.9c0.6,0.4,1.6,0.9,3,0.9
			c1.5,0,2.5-0.5,3.1-0.9c5.6,1.5,8.3-1.8,8.3-1.8C29.4,36.2,28.6,36.3,28.5,36.3z"/>
		<path class="st4" d="M4.7,23.5c0,0-0.5,1.1-0.5,3.6c-0.1-0.1-0.5-0.5-3.1-1.7c0,0,0.4,3.8,5.2,5.2C6.3,30.7,7.5,27.6,4.7,23.5z"/>
		<path class="st4" d="M2.7,25.3c0,0,2-2.1,1.1-6.5c0,0-0.8,0.8-1.7,2.8c0-0.1-0.3-0.6-2-2.5C0.1,19.1-0.9,22.4,2.7,25.3z"/>
		<path class="st4" d="M4.4,14.2c0,0-0.9,0.4-2.2,1.9c0.1-0.1-0.1-0.6-1-2.7c0,0-1.8,2.5,0.4,6C1.6,19.4,3.9,18.1,4.4,14.2z"/>
		<path class="st4" d="M2.5,13.9C5,11.6,3.6,9.4,3.6,9.4C0.8,12.7,2.5,13.9,2.5,13.9z"/>
		<path class="st4" d="M35.5,28c-4.8,3.4-4.8,7.3-4.8,7.3c6.1,0.4,8.1-3.6,8.1-3.6c-3.3,0.2-4,0.5-4.2,0.6
			C35.6,29.5,35.5,28,35.5,28z"/>
		<path class="st4" d="M38.8,27.1c-0.1-2.5-0.5-3.6-0.5-3.6c-2.8,4.1-1.6,7.1-1.6,7.1c4.9-1.5,5.2-5.2,5.2-5.2
			C39.4,26.6,38.9,27,38.8,27.1z"/>
		<path class="st4" d="M39.2,18.8c-0.9,4.4,1.1,6.5,1.1,6.5c3.6-2.9,2.5-6.2,2.5-6.2c-1.7,1.9-2,2.4-2,2.5
			C39.9,19.5,39.2,18.8,39.2,18.8z"/>
		<path class="st4" d="M41.4,19.4c2.2-3.5,0.4-6,0.4-6c-1,2.1-1,2.6-1,2.7c-1.3-1.5-2.2-1.9-2.2-1.9C39.1,18.1,41.4,19.4,41.4,19.4z
			"/>
		<path class="st4" d="M40.5,13.9c0,0,1.7-1.2-1.1-4.5C39.4,9.4,37.9,11.6,40.5,13.9z"/>
	</g>
	<path class="st4" d="M33.9,17.1l-3.5-7.2c0.5,0.1,1.5,0.5,1.6,0.5c0.3,0,0.5-0.2,0.7-0.4c0.1-0.4,0-0.8-0.4-0.9
		c-2.3-0.9-5.3-1.5-8.5-1.7C23.5,6.6,23,6,22.2,5.8V4.1c0-0.4-0.3-0.7-0.7-0.7c-0.4,0-0.7,0.3-0.7,0.7v1.6c-0.7,0.2-1.3,0.8-1.5,1.6
		c-3.2,0.2-6.2,0.8-8.5,1.7c-0.4,0.1-0.5,0.5-0.4,0.9c0.1,0.3,0.4,0.4,0.7,0.4c0.1,0,1.1-0.4,1.6-0.5l-3.5,7.3c0,0-0.1,0.3-0.1,0.3
		c0.1,2.6,2.2,4.6,4.8,4.6c2.5,0,4.6-1.9,4.8-4.4c0,0,0-0.5-0.1-0.5l-3.7-7.7c1.4-0.3,3-0.5,4.6-0.6c0.2,0.7,0.8,1.2,1.5,1.5v13.8
		h-3c-0.2,0-0.4,0.1-0.5,0.3l-2.4,3c-0.2,0.2-0.2,0.5-0.1,0.7c0.1,0.2,0.4,0.4,0.6,0.4h12.1c0,0,0,0,0,0c0.4,0,0.7-0.3,0.7-0.7
		c0-0.2-0.1-0.4-0.2-0.5l-2.3-3c-0.1-0.2-0.3-0.3-0.5-0.3h-3V10.2c0.7-0.2,1.3-0.8,1.5-1.5c1.6,0.1,3.2,0.3,4.6,0.6l-3.8,7.8
		c0,0-0.1,0.3-0.1,0.3c0.1,2.6,2.2,4.6,4.8,4.6c2.5,0,4.6-1.9,4.8-4.4C34,17.6,34,17.2,33.9,17.1z M17,17.3l-6.5,0l3.2-6.7L17,17.3z
		 M24.8,25.5l1.3,1.6h-9.3l1.3-1.6H24.8z M21.5,9c-0.5,0-1-0.4-1-1s0.4-1,1-1s1,0.4,1,1S22,9,21.5,9z M29.2,10.7l3.2,6.6l-6.5,0
		L29.2,10.7z"/>
</g>
<g id="_x32_3_NYCRR_500">
</g>
</svg>
