<?xml version="1.0" encoding="utf-8"?>
<!-- Generator: Adobe Illustrator 23.0.1, SVG Export Plug-In . SVG Version: 6.00 Build 0)  -->
<svg version="1.1" id="Layer_1" xmlns="http://www.w3.org/2000/svg" xmlns:xlink="http://www.w3.org/1999/xlink" x="0px" y="0px"
	 viewBox="0 0 85.5 85.5" style="enable-background:new 0 0 85.5 85.5;" xml:space="preserve">
<style type="text/css">
	.st0{fill:none;stroke:#1E65C5;stroke-width:2;stroke-miterlimit:10;}
	.st1{opacity:0.2;fill:#1E65C5;}
	.st2{fill:none;stroke:#1E65C5;stroke-width:2.0307;stroke-linecap:round;stroke-linejoin:round;stroke-miterlimit:10;}
	.st3{fill:#FFFFFF;}
	.st4{opacity:0.1;fill:#1E65C5;}
</style>
<path class="st0" d="M73.9,20.49v58.5c0,1.93-1.57,3.5-3.52,3.5H15.45c-2.03,0-3.7-1.65-3.7-3.68V7.52c0-1.93,1.57-3.5,3.52-3.5
	H57.1L73.9,20.49z"/>
<ellipse class="st1" cx="42.83" cy="46.25" rx="16.72" ry="16.63"/>
<g>
	<path class="st2" d="M50.81,41.76l-7.9,7.85l-1.48,1.48c-0.2,0.19-0.47,0.3-0.74,0.3c-0.27,0-0.55-0.11-0.74-0.3l-1.48-1.48
		l-3.95-3.93"/>
</g>
<path class="st3" d="M62.2,4.04c0.02,0.01,0.03,0.03,0.05,0.04c-0.03-0.02-0.07-0.03-0.1-0.05C62.17,4.03,62.19,4.03,62.2,4.04z"/>
<path class="st4" d="M59.76,5.89 M57.05,5.4l15.74,15.38H57.05V5.4z"/>
<path class="st0" d="M57.05,4.03v13.64c0,1.92,1.05,3.12,2.95,3.12h13.9 M69.74,15.27"/>
</svg>
