<?xml version="1.0" encoding="utf-8"?>
<!-- Generator: Adobe Illustrator 21.0.0, SVG Export Plug-In . SVG Version: 6.00 Build 0)  -->
<svg version="1.1" xmlns="http://www.w3.org/2000/svg" xmlns:xlink="http://www.w3.org/1999/xlink" x="0px" y="0px"
	 viewBox="0 0 43 43" style="enable-background:new 0 0 43 43;" xml:space="preserve">
<style type="text/css">
	.st0{display:none;fill:#205EAB;}
	.st1{fill:#0F71B9;}
	.st2{fill:#148DCC;}
	.st3{fill:#FFFFFF;}
	.st4{fill:#2196F3;}
	.st5{fill:#208ECA;}
	.st6{display:none;fill:#2196F3;}
	.st7{display:none;fill:#208ECA;}
	.st8{display:none;fill:#FFFFFF;}
	.st9{fill:#0D72B9;}
	.st10{fill:#0F71B8;}
	.st11{fill:#1978B7;}
	.st12{display:none;fill:#0F71B9;}
	.st13{fill:#0071BC;}
	.st14{fill:none;stroke:#148DCC;stroke-width:2;stroke-miterlimit:10;}
	.st15{fill:none;stroke:#148DCC;stroke-width:2;stroke-linecap:round;stroke-linejoin:round;stroke-miterlimit:10;}
	.st16{fill:none;stroke:#148DCC;stroke-miterlimit:10;}
	.st17{fill:none;stroke:#148DCC;stroke-linecap:round;stroke-linejoin:round;stroke-miterlimit:10;}
	.st18{fill:#148DCC;stroke:#148DCC;stroke-width:0.5;stroke-miterlimit:10;}
	.st19{display:none;}
	.st20{display:inline;}
	.st21{fill:#231F20;}
	
		.st22{display:inline;fill:none;stroke:#231F20;stroke-width:0.8;stroke-linecap:round;stroke-linejoin:round;stroke-miterlimit:10;}
	.st23{display:inline;fill:#208ECA;}
	.st24{display:none;fill:#0F71B8;}
	.st25{fill:none;stroke:#FFFFFF;stroke-width:1.4;stroke-linecap:round;stroke-linejoin:round;stroke-miterlimit:10;}
	.st26{fill:none;stroke:#0F71B8;stroke-width:1.4;stroke-linecap:round;stroke-linejoin:round;stroke-miterlimit:10;}
	.st27{fill:none;stroke:#208ECA;stroke-width:2;stroke-miterlimit:10;}
	.st28{fill:none;stroke:#208ECA;stroke-width:2;}
	.st29{fill:#208ECA;fill-opacity:0;}
</style>
<g id="Layer_1">
	<g>
		<g>
			<path class="st4" d="M21.6,40.2L21.6,40.2C21.6,40.3,21.6,40.3,21.6,40.2z"/>
			<path class="st4" d="M27.5,19.8c0.6-0.2,0.4,0.6,0.9,0.2l0,0c0.6-0.5,1.2-1,1.9-1.4c-1.2-0.3-2.2-0.7-3.1-0.7
				c-0.4,0.8-0.7,1.6-1,2.5c0.2,0,0.3,0.1,0.4,0.1C27.1,20.5,27.2,19.9,27.5,19.8z"/>
			<path class="st4" d="M20.5,20.7C20.5,20.7,20.5,20.7,20.5,20.7C20.5,20.7,20.5,20.7,20.5,20.7C20.5,20.7,20.5,20.7,20.5,20.7z"/>
			<path class="st4" d="M31.3,10.1c1.7-1,1.9-2.2,1.6-3.9c1.7,3.1-2.3,4.8-3.1,6.3c1-0.3,2.8,0.1,3.8,0c0.7-0.1,1.3-0.9,1.7-0.3
				c-2.7,1.2-5-0.4-6.8,3.2c-0.2,0.3-0.4,0.7-0.5,1.1c1.5,0.2,3.4,0.2,5.3-1.3c1.7-1.3,2.4-3,2.6-3.8c0.2-0.6,0.3-1.3,0.8-1.8
				c0,0,0.1-0.1,0.2-0.1c0.1,0.1,0.2,0.2,0.3,0.3c-1.1,0.7-1.2,2.7-1.9,3.7c1,0.4,2.5-0.6,3.5,0.2c-1.7,0.1-3.3,0.2-4.5,1.5
				c-1.4,1.6-3.3,2.4-5.5,2.2c0.7,0.3,1.4,0.7,2.2,0.9c0.2-0.1,2.1-0.3,1.5,0c1.9-0.4,3.2-2.1,5.2-2.5c-1.8,0.6-3.1,2-4.8,2.8
				c-1.3,0.6-2.4-0.3-3.3,1.4c-0.6,1.1-2.3,1.2-3.5,1.3c-0.1,0.5-0.4,1.3-0.5,1.8c-0.7,0.1-1.2,0.2-1.8,1.1
				c-0.2,0.2-0.4,1.8-0.4,2.8c-0.1-0.2-0.1-0.4-0.2-0.6c-0.3-0.6-0.7-1.1-0.8-1.7c-0.2-0.9,0.4-1.9,0.5-2.7c0.6-0.5,1.1-0.8,1.4-1.3
				c0.9-1.1,0.9-2.1,1.1-3.3c0.1-0.2,0.1-0.7,0.2-1c0.1,0,0.3-0.2,0.5-0.4c0.8-1,1.7-1.8,2.5-2.8C29.2,12,30.2,10.8,31.3,10.1z"/>
			<path class="st4" d="M26,16.6c-0.1,0.3-0.2,0.7-0.3,0.9c-0.3,1.2-0.2,2.3-1.1,3.4c-0.4,0.5-0.7,1-1.3,1.4
				c-0.1,0.9-1.3,1.5-1.1,2.4c0.1,0.6,0.6,1.1,0.8,1.7c0.1,0.2,0.2,0.4,0.2,0.6c0-1,0.2-2.6,0.4-2.8c0.6-0.9,1.1-1,1.8-1.1
				c0.1-0.5,0.3-1.3,0.5-1.8c1.2-0.1,2.9-0.3,3.5-1.3c0.9-1.6,1.9-0.7,3.3-1.4c1.7-0.8,3-2.2,4.8-2.8c-2,0.4-3.3,2.1-5.2,2.5
				c0.6-0.3-1.3-0.1-1.5,0c-0.7-0.2-1.5-0.5-2.2-0.9c2.2,0.2,4.1-0.6,5.5-2.2c1.2-1.4,2.8-1.5,4.5-1.5c-1-0.7-2.5,0.3-3.5-0.2
				c0.7-1,0.8-3,1.9-3.7c-0.1-0.1-0.2-0.2-0.3-0.3c-0.1,0-0.1,0.1-0.2,0.1c-0.5,0.5-0.6,1.1-0.8,1.8c-0.2,0.8-0.9,2.5-2.6,3.8
				c-1.9,1.5-3.9,1.4-5.3,1.3c0.2-0.4,0.3-0.7,0.5-1.1c1.8-3.6,4.2-2,6.8-3.2c-0.4-0.6-1,0.2-1.7,0.3c-1,0.1-2.8-0.4-3.8,0
				c0.8-1.5,4.8-3.2,3.1-6.3c0.3,1.7,0.2,3-1.6,3.9c-1.2,0.6-2.1,1.9-2.8,3c-0.7,1-1.7,1.9-2.5,2.8C25.9,16.2,26.1,16.5,26,16.6z"/>
			<path class="st4" d="M15.6,37.4c2.8,1.1,5.1,2.2,5.8,2.6c-0.9-1.1-2.1-2-5.2-3.6c-4.4-2.3-8.3-1.6-14.6,1.5l1.2,0.8
				C8,36.7,11.4,35.7,15.6,37.4z"/>
			<path class="st4" d="M13.5,38.1C9.3,37.5,3,39.9,2,40.4c-0.1,0-0.1,0.1-0.2,0.1l0,0c-0.1,0.1-0.2,0.1-0.2,0.1c0,0-0.1,0-0.1,0.1
				h20.2c-0.1-0.1-0.3-0.2-0.5-0.3C19.9,39.7,16.9,38.5,13.5,38.1z"/>
			<path class="st4" d="M28.4,35.4c-3.7,1.2-6.3,4.5-6.3,4.5c0.9-0.8,5.6-3.4,9.6-3.7c4.2-0.3,7.4,1.1,9.1,2
				c0.2,0.1,0.4,0.2,0.6,0.3l1.5-0.5C42.5,37.8,35.9,32.9,28.4,35.4z"/>
			<path class="st4" d="M30.5,37.4c-3.5,0.5-6.9,2.2-8.2,2.9c-0.2,0.1-0.3,0.2-0.4,0.3c0,0,0,0,0,0l20.4,0
				C42.2,40.6,35.6,36.7,30.5,37.4z"/>
			<path class="st6" d="M47.9,18.7c0.5-1.6-0.5-5.6-1.9-5.4c2.3-5,1.5-8.3-3.7-11.6c-1.5-1-7.2-3.4-8.5-1.4c-0.7-0.8-2-0.8-2.8,0.2
				c2.3-7.8-21.6-8-22.3,0.7C8.8-0.3,2,1.9,1.6,2.1c-3.1,1.4-5.7,3.9-6.7,7c-0.6,1.9,0,4.3,1.8,5.5c-1-0.1-2.2,1.5-2.5,2.3
				c-0.4,1.4,1.5,2.8,1.4,2.8c-0.4,0.7,0.1,2.5,0.5,3.2c0.6,1,3.5,2.5,4.5,1.7c-2,2.5,2.8,4.4,4.5,2.6c-0.5,1.9,3.5,2,4.4,1.4
				c0,0.8,4.4,0.6,6.5,0.6c0,0,0,0,0,0.1c0,0.9,0,1.8-0.1,2.7c0,0.1,0,1.2-0.4,1.6c-0.1,0.1-0.7,0.4-0.8,0.5
				c0.3,0.1,1.7,0.9,2.4,1.4c0.1-0.5,0.3-1.1,0.4-1.6c0.1-0.8,0.2-1.3-0.1-1.8c-0.1-0.2-0.2-0.4-0.3-0.6c0,0,0,0,0,0
				c0,0,0-0.1-0.1-0.1c0,0,0,0,0-0.1c0,0,0-0.1,0-0.1c0,0,0-0.1,0-0.1c0,0,0,0,0-0.1c0,0,0-0.1,0-0.1c0,0,0,0,0-0.1
				c0-0.1,0-0.1-0.1-0.2c-0.3-1.2,0.3-1.8-0.1-3.2c-0.1-0.4-0.4-0.5-0.7-0.6c0,0.3,0,0.2,0,0.3c0,0.8,0,0.8,0,1.7
				c-1-0.3-2-0.8-3.1-1.1c-1.4-0.4-8.7,1.7-6.7-1.2c-1.7,0.1-7.8-2.5-3.8-3.2c-2.3-0.3-5.3-1.2-6.1-3.7C-4,18-1.2,14.4,0.1,14.6
				C-2.1,9.9-2.9,7.3,1.6,4c1.3-1,4.8-2,6-0.2c0.6-0.8,3-1.3,3.8-0.4c-1.5-10.4,15.9-9,18-0.8c2.4-3.1,16.7,0.8,12.2,3.9
				c2.6,0.2,6,5.8,2.3,6.8c0.8,1.9,1.5,2.4-0.9,3.4c-1.7,0.7-0.6,1.3-0.4,2.8c0.4,2.5-5.6,2-6,1.2c1.2,5.1-1.7,7.1-6.5,6.2
				c-1.9-0.3-2.9,0.5-4.1,0.7c0-0.3,0-0.6,0-0.8c0-0.7,0.3-1.3,0.6-1.6c-0.6,0.4-1.8,1.9-1.9,3.1c-0.2,1.4-0.3,2.2,0.2,3.2l0,0v0
				c0,0,0.2,0.4,0.2,0.4c0.2,0.3,0.4,0.6,0.6,1c0.1,0.1,0.2,0.2,0.2,0.3c0.1,0.1,0.1,0.1,0.2,0.2c-0.1-0.2-0.1-1.7-0.1-1.8
				c0-0.9,0-1.6,0-2.5c1.4-0.3,2.4-0.7,3.8-1.1c1.6-0.5,9.9,1.1,7.5-1.8c1.9,0,8.6-2.9,4.1-3.5C43.9,22.4,47.1,21.4,47.9,18.7z"/>
			<path class="st4" d="M25.1,33.8c-0.4-0.5-0.8-1.2-1.1-1.8l0-0.1c0-0.1,0,0-0.1-0.1c0,0-0.1-0.1-0.1-0.1c0-0.1,0,0,0-0.1
				c0,0,0,0,0,0c0-0.1,0-0.1-0.1-0.2c0,0,0,0,0-0.1c0-0.1,0-0.1-0.1-0.2c0,0,0-0.1,0-0.1c0,0,0-0.1,0-0.1c0,0,0-0.1,0-0.1
				c0,0,0-0.1,0-0.1c0,0,0-0.1,0-0.1c0,0,0-0.1,0-0.1c0-0.1,0-0.2,0-0.2c0-1.2,0.2-2.6,0.9-3.6c0.3-0.5,1.7-1.9,2.5-2
				c0.4-0.4,0.8-0.4,1.5-1c1.3-1.2,1.4-2.4,2.8-3.6c1.3-1,2.8-0.1,4.1-0.7c-1.4-0.1-3.1-0.5-4.5,0.2c-1.8,1-3.3,4.2-5.2,3.5
				c0,0-0.1,0-0.1,0c-0.7,0-1,0.1-1.6,0.6c-0.6,0.5-0.7,2.5-0.7,3.4c0.1,0.5,0.3,1.2,0.3,1.7c0,1-0.2,1.8,0.2,2.7
				c0,0.1,0.2,0.5,0.2,0.6c0.3,0.6,0.4,1,0.6,1.6c0,0.1,0.2,0.4,0.4,1.4c0.5-0.4,0.5-0.5,0.7-0.6c-0.1-0.1-0.1-0.1-0.2-0.2L25.3,34
				C25.3,34,25.1,33.8,25.1,33.8z"/>
			<path class="st4" d="M24.5,33.1c0,0-0.1-0.3-0.1-0.3c-0.2-0.4-0.3-0.5-0.3-0.5c0,0-0.1-0.3-0.1-0.3c-0.1-0.1-0.1-0.3-0.2-0.5
				c0,0,0,0,0,0c0-0.1,0-0.1-0.1-0.1c0,0,0-0.1,0-0.1c0-0.1,0-0.1-0.1-0.2c0,0,0,0,0,0c0-0.1,0-0.1-0.1-0.2c0,0,0,0,0,0
				c0-0.1,0-0.1,0-0.2c0,0,0,0,0-0.1c0-0.1,0-0.1,0-0.2c0,0,0-0.2,0-0.3c0-0.9,0.2-1.8,0.1-2.6c-0.2-1.2-1.4-2.2-1-3.4
				c0.1-0.5,1.5-1.7,1.6-2.4c-0.1,0.1-0.7,0.7-0.7,0.7c-0.3,0.5-1.3,1.1-1.3,1.7c0,0.5,0,2.2,0,3.4c0,0.1,0,0.2,0,0.3c0,0,0,0,0,0.1
				c0,0.1,0,0.2,0,0.2c0,0,0,0,0,0c-0.2,1.3-0.5,2.6-0.2,4.1c0,0,0,0.1,0,0.1c0.1,0.6,0.3,1.3,0.4,1.9c0,0.2,0.1,0.4,0.1,0.5
				c0.3,1.2,0.4,1.5,0.7,2.5c0.4-0.5,1.4-1.7,2-2.2c-0.1-0.5,0-0.3-0.2-1.1C24.8,33.5,24.7,33.6,24.5,33.1z"/>
			<path class="st4" d="M20.7,32.6c0-0.1,0-0.1,0-0.2c0-0.1-0.1-0.3-0.1-0.4h0c0-0.1,0-0.2,0-0.3c0-0.1,0-0.1,0-0.2
				c0-0.1,0-0.2,0-0.2c0-0.1,0-0.2,0-0.3c0-0.1,0-0.1,0-0.2c0-0.2,0-0.3,0-0.5c0-0.7,0.1-1.5,0.4-2.1c0.2-0.4,0.5-0.9,0.6-1.3
				c0.2-1.2-0.8-2.3-0.3-3.4c0,0,0-0.1,0-0.1c0.3-0.6,0.9-1.1,1.5-1.5c0.5-0.4,0.9-0.7,1-0.8c1.1-1.2,1.2-2.2,1.7-4.8
				c-0.1-0.3-0.1-0.9-0.1-1.3c-0.1,0.3-0.2,0.6-0.3,1c-0.4,1-0.7,0.5-1.5,0.9c0.9-2.5,3.2-4.1,4.7-6.3c-2.2,1.5-4,4-6,5.7
				c-0.6-0.6-0.4-1.8-0.7-2.6c-0.3-1-0.5-0.4,0.1-1.4c0.1-0.3,0.6-0.9,0.5-1.3c0.5-1.3,0.7-2.6,0.6-4c0-0.4-0.7-3.1-1.3-3
				c0.1,0,0.9,3.2,0.8,3.6C22,9,21.5,11,20.7,12.2c-1-1.7-0.6-3.9-2.7-4.9c0.4,1.3,1.4,1.7,1.6,3.2c0.1,0.9,0.9,2.2-0.2,2.5
				c-0.9,0.3-2.2,1.3-3,0.7c-0.8-0.5-0.4-1.4-0.5-2.1c0-0.4-0.4-0.2-0.4,0.1c-0.2,2.1,0.1,3.7,0.4,5.7c1.3,2.3,3.9,3,4.6,3.5
				c-0.3-0.3-0.9-1.1-1-1.6c-0.2-0.6-0.3-0.2-0.5-0.5c-0.6-1.1-2.2-2.6-1.5-4c0.5-1.2,2.1-1.3,3.1-1.8c1,2.7,0.9,5.7-0.1,7.7l0,0
				c0,0,0,0,0,0c0,0,0,0,0,0c0,0,0,0,0,0c-0.4-0.1-3.1-1.3-4.4-3.3c-1.5-0.6-1.1-3.6-2.7-4.4c0.6-0.4,1.4-0.7,1.4-1.5
				c-0.7,0.5-1.5,1.5-2.3,1.1c0.1,0.1,0.3,0.2,0.4,0.3c-1.5,0.9-1.5,1.2-1.6,2.9c-0.2,2.2-1.7,0.1-2.3-0.7c-0.1-0.8-0.6-1.3-0.7-2.1
				c0-0.7,0-1.3-0.4-1.9c-0.3-0.5-3.5-2.2-3.8-1.8C4,9.6,6.8,10.7,7.1,11c1.1,0.8,0.5,2.6,1,3.7c-1,0.2-2-0.6-3.2-0.1
				c1.6,0.4,3.2,0.9,4,2.5c1,1.9,2.7,3.1,4.9,3.4c-0.8,0.2-1.5,0.3-2.3,0.3c-0.2-0.1-0.5,0.1-1.4-0.3c-1.7-0.8-2.6-2.8-4.5-3.7
				c1.6,1,2.5,2.7,4,3.8c1.2,0.9,2.3,0.3,2.9,2.1c0.4,1.2,2.7,2.1,3.3,3c0.3,0.1,1,0.2,1.4,0.6c0.5,0.6,0.3,1.9,0.3,2.6
				c0,0.1,0,0.2,0,0.3c0,0,0,0,0,0.1c0,0.1,0,0.2,0,0.2c0,0,0,0,0,0c0,0.1,0,0.2,0,0.2c0,0,0,0,0,0.1c0,0.1,0,0.1,0.1,0.2
				c0,0,0,0,0,0c0,0.1,0,0.2,0.1,0.2c0,0,0,0,0,0c0,0.1,0.1,0.1,0.1,0.2c0,0,0,0.1,0,0.1c0.1,0.3,0.2,0.5,0.3,0.7c0,0,0,0.1,0,0.1
				c0,0,0,0.1,0,0.1c0,0.1,0.1,0.2,0.1,0.2c0,0,0,0.1,0,0.1c0.1,0.4,0.2,1.1,0.2,1.6c0,0.4-0.3,1.4-0.5,2.4c1.1,0.8,1.7,1.1,2.4,1.8
				c-0.4-1.4-0.7-1.8-1.1-2.9c0,0,0-0.1,0-0.1c-0.4-1-0.6-1.9-0.6-2c-0.1-0.3-0.1-0.5-0.2-0.8c0,0,0,0,0,0c0-0.2-0.1-0.4-0.1-0.5
				c0,0,0-0.1,0-0.1c0,0,0-0.1,0-0.1c0,0,0-0.1,0-0.1c0,0,0-0.1,0-0.1c0,0,0-0.1,0-0.1c0,0,0-0.1,0-0.1c0-0.1,0.1-0.3,0-0.4
				c0,0,0-0.1,0-0.1c0,0,0-0.1,0-0.1c0,0,0-0.1,0-0.1c0,0,0-0.1,0-0.1c0,0,0-0.1,0-0.1c0-0.1,0-0.1,0-0.2c0,0,0,0,0,0
				c0-0.1,0-0.2,0-0.2c0,0,0,0,0-0.1c0-0.1,0-0.1,0-0.2c0,0,0-0.1,0-0.1c0-0.1,0-0.1,0-0.2c0,0,0,0,0-0.1c0-0.1,0-0.2,0.1-0.2
				c0.3-1.3,0.3-2.8-0.1-4c-0.2-0.6-1.2-0.7-1.9-0.8c-0.3,0.2-0.7,0.2-1.2,0.2c-0.4,0-0.3-0.7-0.6-0.8c-0.5-0.3-0.6,0.5-1-0.1l0,0
				c-0.5-0.6-1-1.2-1.6-1.8c2.7-0.1,4.5-0.6,4.6,1.7c-0.1,0.4-0.2,0.6-0.3,0.7c0.5,0.1,1,0.3,1.3,0.4c1,0.4,0.8,2.7,0.6,3.7
				c0,0.1,0,0.2,0,0.3c0,0,0,0.1,0,0.1c0,0.1,0,0.2,0,0.3c0,0,0,0,0,0.1c0,0.1,0,0.2,0,0.3c0,0,0,0.1,0,0.1c0,0.1,0,0.2,0,0.3
				c0,0,0,0,0,0.1c0,0.1,0,0.2,0,0.3c0,0,0,0.1,0,0.1c0,0.1,0,0.2,0,0.3c0,0,0,0.1,0,0.1c0,0.1,0,0.2,0,0.3c0,0,0,0,0,0.1
				c0,0.1,0,0.2,0,0.3c0,0,0,0.1,0,0.1c0,0.1,0.3,0.7,0.3,0.8c0,0,0,0.1,0,0.1c0,0.1,0.1,0.2,0.1,0.3c0,0,0,0.1,0,0.1
				c0,0.1,0,0.2,0,0.3c0.1,0.6,0.3,0.8,0.3,1.6c0,0.5,1.2,2.3,1.7,3.8c0.3,0.4,0.7,0.8,0.9,1c0-0.2,0.2,0.1,0.2-0.1
				c0.2-1.9-2-5.9-2.2-6.6c0-0.1,0-0.1-0.1-0.2h0c0,0,0,0,0,0c0,0,0,0,0-0.1c0,0,0-0.1,0-0.1c0,0,0,0,0-0.1c0,0,0-0.1,0-0.1
				c0,0,0,0,0-0.1c0-0.1,0-0.1,0-0.2c0,0,0,0,0,0c0,0,0-0.1,0-0.1c0,0,0,0,0,0c0,0,0-0.1,0-0.1c0,0,0,0,0,0c0,0,0-0.1,0-0.1
				c0,0,0,0,0,0c0,0,0-0.1,0-0.1c0,0,0,0,0,0c0,0,0-0.1,0-0.1c0,0,0,0,0,0c0,0,0-0.1,0-0.1c0,0,0,0,0,0c0,0,0-0.2,0-0.2c0,0,0,0,0,0
				c0,0,0-0.1,0-0.1c0,0,0,0,0,0c0,0,0-0.1,0-0.1c0,0,0,0,0,0c0,0,0-0.1,0-0.1c0,0,0,0,0,0c0,0,0-0.1,0-0.1c0,0,0,0,0,0
				c0,0,0-0.1,0-0.1c0,0,0,0,0,0c0,0,0-0.1,0-0.1c0.1-0.2,0-0.2,0-0.3c0,0,0,0,0,0c0,0,0-0.1,0-0.1c0,0,0,0,0,0c0,0,0-0.1,0-0.1
				c0,0,0,0,0,0c0,0,0-0.1,0-0.1c0,0,0,0,0-0.1c0,0,0-0.1,0-0.1c0,0,0,0,0-0.1c0,0,0-0.1,0-0.1c0,0,0,0,0-0.1c0,0,0-0.1,0-0.1
				c0,0,0,0,0-0.1c0,0,0-0.1,0-0.1c0,0,0,0,0-0.1c0,0,0-0.1,0-0.1c0,0,0,0,0-0.1c0,0,0-0.1,0-0.1c0,0,0,0,0-0.1c0,0,0-0.1,0-0.1
				c0,0,0,0,0,0c0-0.1,0-0.1,0-0.2c0-1.7-0.1-3.7-0.8-5.3c-0.4-0.9-1.5-1.7-2.2-2.2c-1.2-0.6-2.5-1-3.8-1.4c0,0,0,0,0,0c0,0,0,0,0,0
				l0,0c-1.9-0.7-1.4-2-1.3-3.7c0.3,0.2,0.6,0.5,1,0.7c0.1,0.1,0.3,0.1,0.4,0.1c0.3,0.1,0.9,0,1.1,0.3c0.2,0.2,1.2,1.6,1.2,1.6l0,0
				c0.7,0.7,1.2,1.4,1.4,2.4c0.8,0.6,1.8,1.8,2,2.2c0.6,1.1,0.8,2.4,0.8,3.7c0,1.3,0.2,2.1-0.3,3.3c-0.3,0.8-0.5,1.6-0.3,2.4
				c0,0,0,0,0,0.1c0,0,0,0,0,0c0,0,0,0,0,0.1c0,0,0,0,0,0c0,0,0,0.1,0,0.1c0,0,0,0,0,0c0,0,0,0,0,0h0c0.2,0.6,0.7,1.6,1.2,2.7
				c0.7,1.7,1.1,3,1.1,4.2c0,0.1,0.1,0.1,0.1,0.1c0,0,0,0,0,0c0.1,0.1,0.1,0.1,0.1,0.2c0,0,0,0.1,0,0.1c0,0,0,0,0-0.1
				c0-0.1,0.1-0.1,0.1-0.2c0.1-0.2,0.1-0.3,0.3-0.6c0-0.2,0-0.3-0.1-0.5C21.6,36.2,21,33.6,20.7,32.6z M22.1,20
				C22.1,20,22.1,20,22.1,20C22.1,20,22.1,20,22.1,20c0.4-1.3,0.4-3,2.4-3c-0.2,1.5-0.4,3.6-2.4,3.9C22,20.6,22,20.3,22.1,20z
				 M13.9,15.7c-2-0.3-2.9-1.3-0.9-2.5c0,0,0,0,0,0l0,0l0,0C13.7,12.8,15.1,15.9,13.9,15.7z"/>
		</g>
		<path class="st4" d="M41.8,9.4c0,0,0.1-0.1,0.1-0.1c0.1-0.2,0-0.4-0.3-0.4c-0.1,0-0.1,0-0.2,0c-0.1,0-0.2,0-0.3,0.1
			c-0.1,0-0.2-0.1-0.2-0.2c0-0.1,0.1-0.1,0.1-0.1c0.1,0,0.1-0.1,0.2-0.1c0.1,0,0.1-0.1,0.1-0.2c0-0.1,0-0.3-0.1-0.4
			c0-0.1-0.1-0.1-0.2-0.1c0,0-0.1,0-0.1,0c-0.1,0-0.1,0-0.1-0.1c0-0.1,0-0.1-0.1-0.2c-0.1,0-0.1-0.1-0.2-0.1c-0.1,0-0.2,0-0.4,0.1
			c-0.1,0.1-0.2,0.2-0.2,0.3c0,0.1,0,0.2,0,0.4c0,0.1,0,0.2,0,0.2c0,0.1-0.1,0.1-0.1,0.1c-0.1,0-0.1,0-0.1-0.1
			c-0.1-0.1-0.1-0.2-0.2-0.4c0-0.1-0.1-0.2-0.2-0.2c-0.1,0-0.2,0-0.3,0.1c-0.1,0.1-0.1,0.2-0.2,0.2c0,0,0,0,0,0
			c0,0.1-0.1,0.2-0.1,0.2c0,0.2,0,0.4,0.2,0.5c0,0,0.1,0.1,0.1,0.1c0.1,0.2,0.1,0.3,0.1,0.5c0,0.1-0.1,0.1-0.2,0.1c0,0-0.1,0-0.1,0
			c-0.1-0.1-0.2-0.2-0.3-0.3c-0.1-0.1-0.2-0.1-0.3,0c-0.1,0.1-0.1,0.2-0.1,0.3c0,0,0,0.1-0.1,0.1C38,9.9,37.9,10,37.9,10
			c0,0.3,0.1,0.5,0.3,0.6c0.1,0,0.1,0.1,0.2,0.1c0.1,0,0.1,0.1,0.1,0.2c0,0.1-0.1,0.1-0.2,0.1c0,0-0.1,0-0.1,0c0,0-0.1,0-0.1,0
			c0,0-0.1,0-0.1,0c-0.1,0.1-0.1,0.1-0.1,0.2c0,0.1,0,0.1,0.1,0.2c0,0,0,0.1,0,0.1c0,0.1,0,0.2,0.1,0.2c0.1,0.1,0.2,0.2,0.2,0.4
			c0,0.1,0,0.1,0,0.2c0,0,0,0.1,0,0.1c-0.1,0.1-0.1,0.2-0.2,0.4c-0.1,0.2-0.2,0.4-0.4,0.5c-0.1,0-0.1,0.1-0.2,0.2c0,0,0.1,0,0.1,0
			c0,0,0.1,0,0.1,0c0.1,0,0.1,0,0.2,0c0.1,0,0.2-0.1,0.2-0.2c0,0,0-0.1,0-0.1c0.1-0.1,0.1-0.2,0.2-0.4c0-0.1,0-0.1,0.1-0.1
			c0.1-0.1,0.2-0.1,0.2-0.2c0,0,0.1,0,0.1,0c0.2,0.1,0.4,0,0.5-0.2c0-0.1,0-0.1,0.1,0c0,0,0.1,0,0.1,0c0,0,0,0,0.1,0
			c0.1,0,0.2-0.1,0.3-0.2c0.1-0.1,0.1-0.2-0.1-0.3c0,0-0.1,0-0.1,0c0,0-0.1,0-0.1-0.1c0,0,0-0.1,0-0.1c0-0.1,0.1-0.1,0.2-0.1
			c0.2,0,0.4,0,0.5,0.1c0,0,0,0,0,0c0.1,0,0.3,0,0.4,0c0.1,0,0.2-0.1,0.2-0.3c0,0,0,0,0,0c0,0,0-0.1,0.1-0.1c0.1,0,0.2-0.1,0.2-0.1
			c0.1-0.1,0.1-0.2,0.1-0.2c-0.1-0.2-0.2-0.2-0.3-0.2c0,0,0,0-0.1,0c-0.1,0-0.2,0-0.3-0.1c-0.1-0.1-0.1-0.2,0-0.3
			c0.1-0.1,0.2-0.1,0.3-0.1c0.1,0,0.3,0,0.4,0c0.1,0,0.2,0,0.3,0c0.1,0,0.1-0.1,0.2-0.1c0,0,0-0.1,0.1-0.1c0.1-0.1,0.1-0.2,0.1-0.3
			c0,0,0,0,0,0C41.7,9.5,41.8,9.4,41.8,9.4z"/>
		<path class="st4" d="M39.4,20.6c0,0,0.1,0.1,0.1,0.1c0.2,0.1,0.4-0.1,0.4-0.4c0-0.1,0-0.1-0.1-0.2c0-0.1-0.1-0.2-0.1-0.2
			c0-0.1,0.1-0.2,0.2-0.2c0.1,0,0.1,0,0.2,0.1c0.1,0.1,0.1,0.1,0.2,0.2c0.1,0.1,0.1,0.1,0.2,0.1c0.1,0,0.3-0.1,0.4-0.2
			c0.1-0.1,0.1-0.2,0.1-0.2c0,0,0-0.1,0-0.1c0-0.1,0-0.1,0-0.1c0.1,0,0.1-0.1,0.2-0.1c0-0.1,0-0.1,0.1-0.2c0-0.1-0.1-0.2-0.2-0.3
			c-0.1-0.1-0.2-0.1-0.4-0.1c-0.1,0-0.2,0-0.3,0.1c-0.1,0-0.2,0-0.2,0c-0.1,0-0.1-0.1-0.1-0.1c0-0.1,0-0.1,0-0.1
			c0.1-0.1,0.2-0.2,0.3-0.3c0.1-0.1,0.1-0.2,0.1-0.3c0-0.1-0.1-0.2-0.2-0.2c-0.1,0-0.2-0.1-0.3-0.2c0,0,0,0,0,0
			c-0.1,0-0.2-0.1-0.3-0.1c-0.2,0-0.4,0.1-0.5,0.3c0,0.1-0.1,0.1-0.1,0.1c-0.1,0.2-0.3,0.2-0.5,0.2c-0.1,0-0.1-0.1-0.1-0.2
			c0,0,0-0.1,0-0.1c0-0.1,0.1-0.3,0.2-0.4c0.1-0.1,0-0.2-0.1-0.3c-0.1-0.1-0.2-0.1-0.3,0c0,0-0.1,0-0.1,0C38,17,37.9,17,37.9,17
			c-0.3,0.1-0.5,0.2-0.5,0.5c0,0.1,0,0.1-0.1,0.2c0,0.1-0.1,0.1-0.1,0.1c-0.1,0-0.1,0-0.2-0.1c0,0,0-0.1,0-0.1c0,0,0-0.1,0-0.1
			c0,0,0-0.1,0-0.1c-0.1-0.1-0.2-0.1-0.3-0.1c-0.1,0-0.1,0.1-0.1,0.1c0,0,0,0.1-0.1,0.1c-0.1,0-0.2,0.1-0.2,0.1
			c0,0.2-0.2,0.2-0.3,0.2c-0.1,0-0.1,0-0.2,0c0,0-0.1,0-0.1,0c-0.1,0-0.3-0.1-0.4-0.1c-0.2,0-0.4-0.1-0.6-0.3
			c-0.1-0.1-0.1-0.1-0.2-0.1c0,0,0,0.1,0,0.1c0,0,0,0.1,0,0.1c0,0.1,0,0.1,0.1,0.2c0.1,0.1,0.1,0.2,0.3,0.1c0,0,0.1,0,0.1,0
			c0.1,0.1,0.3,0.1,0.4,0.1c0.1,0,0.1,0,0.2,0.1c0.1,0.1,0.2,0.1,0.2,0.2c0,0,0.1,0.1,0,0.1c0,0.2,0.1,0.4,0.3,0.4
			c0.1,0,0.1,0,0.1,0.1c0,0,0,0.1,0,0.1c0,0,0,0,0,0.1c0.1,0.1,0.1,0.2,0.2,0.2c0.1,0.1,0.2,0,0.3-0.1c0,0,0-0.1,0-0.1
			c0,0,0-0.1,0.1-0.1c0,0,0.1-0.1,0.1,0c0.1,0,0.1,0.1,0.1,0.1c0.1,0.2,0.1,0.3,0,0.5c0,0,0,0,0,0c0,0.1,0,0.3,0.1,0.4
			c0.1,0.1,0.2,0.2,0.3,0.2c0,0,0,0,0,0c0,0,0.1,0,0.1,0c0,0.1,0.1,0.1,0.2,0.2c0.1,0,0.2,0.1,0.2,0c0.1-0.1,0.2-0.2,0.1-0.4
			c0,0,0,0,0,0c0-0.1,0-0.2,0-0.3c0-0.1,0.2-0.2,0.3-0.1c0.1,0.1,0.1,0.1,0.1,0.2c0,0.1,0,0.3,0.1,0.4c0,0.1,0.1,0.2,0.1,0.3
			c0,0.1,0.1,0.1,0.2,0.1c0,0,0.1,0,0.1,0c0.1,0,0.2,0.1,0.3,0c0,0,0,0,0,0C39.3,20.6,39.3,20.6,39.4,20.6z"/>
		<path class="st4" d="M27.6,6.2c0,0,0.1,0,0.1-0.1c0.1-0.1,0.1-0.4-0.1-0.5c-0.1,0-0.1,0-0.2,0c-0.1,0-0.2,0-0.3,0
			c-0.1,0-0.2-0.2-0.1-0.3c0-0.1,0.1-0.1,0.2-0.1c0.1,0,0.2,0,0.2,0c0.1,0,0.1-0.1,0.2-0.2c0.1-0.1,0.1-0.3,0-0.4
			c0-0.1-0.1-0.2-0.2-0.2c0,0-0.1,0-0.1,0c-0.1,0-0.1,0-0.1-0.1c0-0.1,0-0.1,0-0.2c0-0.1-0.1-0.1-0.1-0.2c-0.1-0.1-0.2-0.1-0.4,0
			c-0.1,0-0.2,0.1-0.3,0.2c-0.1,0.1-0.1,0.2-0.1,0.3c0,0.1-0.1,0.1-0.1,0.2c0,0.1-0.1,0-0.2,0c-0.1,0-0.1,0-0.1-0.1
			c0-0.1,0-0.3,0-0.4C26,4.1,25.9,4,25.8,4c-0.1-0.1-0.2,0-0.3,0c-0.1,0.1-0.2,0.2-0.3,0.2c0,0,0,0-0.1,0c-0.1,0.1-0.1,0.1-0.2,0.2
			c-0.1,0.2-0.1,0.4,0,0.6c0,0.1,0,0.1,0.1,0.2c0.1,0.2,0,0.4-0.1,0.5c-0.1,0.1-0.1,0.1-0.2,0c0,0-0.1,0-0.1-0.1
			c-0.1-0.1-0.2-0.2-0.2-0.4c0-0.1-0.1-0.2-0.3-0.1C24.1,5.2,24,5.2,24,5.3c0,0,0,0.1-0.1,0.1c-0.1,0-0.2,0.1-0.2,0.2
			c-0.1,0.3-0.1,0.5,0.1,0.7c0,0.1,0.1,0.1,0.2,0.2C24,6.6,24,6.6,24,6.7c0,0.1-0.1,0.1-0.2,0.1c0,0-0.1,0-0.1,0c0,0-0.1,0-0.1,0
			c0,0-0.1,0-0.1,0c-0.1,0-0.2,0.1-0.2,0.2c0,0.1,0,0.1,0,0.2c0,0,0,0.1,0,0.1c-0.1,0.1,0,0.2,0,0.2c0.1,0.1,0.1,0.3,0,0.4
			c0,0.1-0.1,0.1-0.1,0.2c0,0,0,0.1,0,0.1c-0.1,0.1-0.2,0.2-0.3,0.3c-0.1,0.2-0.3,0.3-0.5,0.4c-0.1,0-0.2,0.1-0.2,0.1
			c0,0,0,0,0.1,0.1c0,0,0.1,0,0.1,0c0.1,0,0.1,0,0.2,0c0.1,0,0.2,0,0.3-0.2c0,0,0-0.1,0.1-0.1c0.1-0.1,0.2-0.2,0.3-0.3
			c0,0,0.1-0.1,0.1-0.1c0.1,0,0.2-0.1,0.3-0.1c0,0,0.1,0,0.1,0c0.2,0.1,0.4,0.1,0.5-0.1c0,0,0.1,0,0.1,0c0,0,0,0,0.1,0.1
			c0,0,0,0,0.1,0c0.1,0,0.2,0,0.3-0.1C25,8,25,7.9,24.9,7.8c0,0,0,0-0.1-0.1c0,0-0.1-0.1-0.1-0.1c0-0.1,0-0.1,0-0.1
			c0.1,0,0.1-0.1,0.2,0c0.2,0,0.3,0.1,0.4,0.3c0,0,0,0,0,0c0.1,0,0.2,0.1,0.4,0.1c0.1,0,0.3,0,0.3-0.2c0,0,0,0,0,0
			c0,0,0-0.1,0.1-0.1c0.1,0,0.2,0,0.2-0.1c0.1,0,0.1-0.1,0.1-0.2c0-0.2-0.1-0.3-0.3-0.3c0,0,0,0,0,0c-0.1,0-0.2-0.1-0.3-0.2
			c-0.1-0.1,0-0.2,0.1-0.3c0.1,0,0.2,0,0.3,0c0.1,0,0.2,0.1,0.4,0.2c0.1,0,0.2,0.1,0.3,0.1c0.1,0,0.1,0,0.2-0.1c0,0,0.1,0,0.1-0.1
			c0.1-0.1,0.2-0.1,0.1-0.3c0,0,0,0,0-0.1C27.5,6.3,27.5,6.2,27.6,6.2z"/>
		<path class="st4" d="M11.2,7.8c0,0,0-0.1,0-0.1c-0.1-0.2-0.4-0.2-0.5,0c0,0.1-0.1,0.1-0.1,0.2c0,0.1-0.1,0.2-0.1,0.2
			c-0.1,0.1-0.2,0.1-0.3,0c0-0.1,0-0.1,0-0.2c0-0.1,0-0.2,0-0.2c0-0.1,0-0.2-0.1-0.2C9.9,7.3,9.8,7.3,9.6,7.3c-0.1,0-0.2,0-0.2,0.1
			c0,0,0,0.1-0.1,0.1c0,0.1,0,0.1-0.1,0.1c-0.1,0-0.1,0-0.2,0C9,7.5,8.9,7.6,8.9,7.6C8.8,7.7,8.7,7.8,8.7,7.9c0,0.1,0.1,0.3,0.2,0.4
			C9,8.4,9.1,8.4,9.2,8.5c0.1,0,0.1,0.1,0.2,0.2c0,0.1,0,0.1,0,0.2c0,0-0.1,0.1-0.1,0.1c-0.1,0-0.3,0-0.4-0.1c-0.1,0-0.2,0-0.3,0.1
			C8.5,9,8.5,9.1,8.5,9.2c0.1,0.1,0.1,0.2,0.1,0.3c0,0,0,0,0,0.1c0,0.1,0.1,0.2,0.1,0.2C8.9,10,9,10,9.3,10c0.1,0,0.1,0,0.2,0
			c0.2,0,0.4,0.1,0.5,0.2c0.1,0.1,0.1,0.1,0,0.2c0,0,0,0-0.1,0.1c-0.1,0.1-0.3,0.1-0.4,0.1c-0.1,0-0.2,0.1-0.2,0.2
			c0,0.1,0.1,0.2,0.2,0.2c0,0,0.1,0.1,0.1,0.1c0,0.1,0,0.2,0.1,0.2c0.2,0.1,0.5,0.2,0.7,0.1c0.1,0,0.1-0.1,0.2-0.1
			c0.1,0,0.1,0,0.2,0c0.1,0.1,0.1,0.1,0,0.2c0,0,0,0.1-0.1,0.1c0,0-0.1,0.1-0.1,0.1c0,0,0,0.1,0,0.1c0,0.1,0,0.2,0.1,0.3
			c0.1,0.1,0.1,0,0.2,0c0,0,0.1,0,0.1,0c0.1,0.1,0.1,0.1,0.2,0c0.2-0.1,0.3,0,0.4,0.1c0.1,0,0.1,0.1,0.1,0.1c0,0,0,0,0.1,0.1
			c0.1,0.1,0.1,0.2,0.2,0.3c0.1,0.2,0.2,0.4,0.2,0.6c0,0.1,0,0.2,0.1,0.2c0,0,0.1,0,0.1,0c0,0,0-0.1,0.1-0.1
			c0.1-0.1,0.1-0.1,0.1-0.2c0-0.1,0-0.2-0.1-0.3c0,0-0.1-0.1-0.1-0.1c0-0.1-0.1-0.3-0.2-0.4c0,0-0.1-0.1-0.1-0.2c0-0.1,0-0.2,0-0.3
			c0,0,0-0.1,0-0.1c0.2-0.1,0.2-0.3,0.1-0.5c0,0,0-0.1,0-0.1c0,0,0,0,0.1-0.1c0,0,0,0,0-0.1c0-0.1,0-0.2,0-0.3
			c0-0.1-0.2-0.2-0.3-0.1c0,0,0,0-0.1,0c0,0-0.1,0.1-0.1,0.1c-0.1,0-0.1,0-0.1-0.1c0-0.1,0-0.1,0-0.2c0.1-0.2,0.2-0.3,0.4-0.3
			c0,0,0,0,0,0c0.1-0.1,0.2-0.2,0.2-0.3c0-0.1,0-0.3-0.1-0.4c0,0,0,0,0,0c0,0,0,0,0-0.1c0-0.1,0-0.2,0-0.2c0-0.1-0.1-0.2-0.2-0.2
			c-0.2,0-0.3,0-0.4,0.2c0,0,0,0,0,0c-0.1,0.1-0.1,0.2-0.2,0.2c-0.1,0.1-0.2,0-0.2-0.1c0-0.1,0-0.2,0.1-0.2c0.1-0.1,0.2-0.2,0.2-0.3
			c0.1-0.1,0.1-0.2,0.2-0.3c0-0.1,0-0.1,0-0.2c0,0,0-0.1,0-0.1c0-0.1-0.1-0.2-0.2-0.2c0,0,0,0,0,0C11.2,7.9,11.2,7.9,11.2,7.8z"/>
		<path class="st4" d="M34.2,24.2c0,0,0.1,0,0.1,0c0.2,0,0.4-0.2,0.3-0.4c0-0.1-0.1-0.1-0.1-0.2c-0.1-0.1-0.1-0.1-0.2-0.2
			c-0.1-0.1,0-0.2,0.1-0.2c0.1,0,0.1,0,0.2,0.1c0.1,0,0.1,0.1,0.2,0.1c0.1,0,0.2,0.1,0.2,0c0.1,0,0.2-0.1,0.3-0.3
			c0-0.1,0.1-0.2,0-0.3c0,0,0-0.1-0.1-0.1c0-0.1,0-0.1,0-0.1c0,0,0.1-0.1,0.1-0.1c0-0.1,0-0.1,0-0.2c0-0.1-0.1-0.2-0.2-0.3
			c-0.1-0.1-0.3-0.1-0.4,0c-0.1,0-0.2,0.1-0.3,0.1c-0.1,0-0.1,0.1-0.2,0.1c-0.1,0-0.1,0-0.1-0.1c0,0,0-0.1,0-0.1
			c0.1-0.1,0.2-0.2,0.3-0.3c0.1-0.1,0.1-0.2,0.1-0.3c0-0.1-0.1-0.2-0.2-0.2c-0.1,0-0.2,0-0.3-0.1c0,0,0,0-0.1,0c-0.1,0-0.2,0-0.3,0
			c-0.2,0.1-0.3,0.2-0.4,0.4c0,0.1,0,0.1-0.1,0.2c-0.1,0.2-0.2,0.3-0.4,0.3c-0.1,0-0.2,0-0.2-0.1c0,0,0-0.1,0-0.1
			c0-0.1,0-0.3,0.1-0.4c0.1-0.1,0-0.2-0.1-0.2c-0.1,0-0.2,0-0.3,0c0,0-0.1,0-0.1,0c-0.1,0-0.2-0.1-0.3,0c-0.2,0.1-0.4,0.3-0.4,0.6
			c0,0.1,0,0.2,0,0.2c0,0.1,0,0.1-0.1,0.2c-0.1,0-0.2,0-0.2-0.1c0,0,0-0.1,0-0.1c0,0,0-0.1,0-0.1c0,0,0-0.1-0.1-0.1
			c-0.1-0.1-0.2-0.1-0.3,0c-0.1,0-0.1,0.1-0.1,0.1c0,0,0,0.1-0.1,0.1c-0.1,0-0.1,0.1-0.1,0.2c0,0.2-0.1,0.3-0.3,0.3
			c-0.1,0-0.1,0-0.2,0.1c0,0-0.1,0-0.1,0c-0.1,0-0.3,0-0.4,0c-0.2,0-0.4,0-0.6-0.1c-0.1,0-0.2-0.1-0.2-0.1c0,0,0,0.1,0,0.1
			c0,0,0.1,0.1,0.1,0.1c0,0.1,0.1,0.1,0.1,0.2c0.1,0.1,0.2,0.1,0.3,0.1c0,0,0.1,0,0.1,0c0.1,0,0.3,0,0.4,0c0.1,0,0.1,0,0.2,0
			c0.1,0.1,0.2,0.1,0.3,0.1c0,0,0.1,0,0.1,0.1c0,0.2,0.2,0.3,0.4,0.3c0.1,0,0.1,0,0.1,0.1c0,0,0,0.1,0,0.1c0,0,0,0,0,0.1
			c0.1,0.1,0.2,0.1,0.3,0.2c0.1,0,0.2,0,0.3-0.2c0,0,0-0.1,0-0.1c0-0.1,0-0.1,0-0.2c0-0.1,0-0.1,0.1-0.1c0.1,0,0.1,0,0.2,0.1
			c0.1,0.2,0.2,0.3,0.1,0.5c0,0,0,0,0,0c0.1,0.1,0.1,0.2,0.2,0.3c0.1,0.1,0.2,0.2,0.4,0.1c0,0,0,0,0,0c0,0,0.1,0,0.1,0
			c0.1,0.1,0.1,0.1,0.2,0.1c0.1,0,0.2,0,0.2-0.1c0.1-0.2,0.1-0.3,0-0.4c0,0,0,0,0,0c0-0.1-0.1-0.2-0.1-0.3c0-0.1,0.1-0.2,0.2-0.1
			c0.1,0,0.1,0.1,0.2,0.2c0.1,0.1,0.1,0.2,0.2,0.4c0,0.1,0.1,0.2,0.2,0.3c0,0.1,0.1,0.1,0.2,0.1c0,0,0.1,0,0.1,0
			c0.1,0,0.2,0,0.3-0.1c0,0,0,0,0,0C34,24.1,34.1,24.1,34.2,24.2z"/>
		<path class="st4" d="M37.1,4.9c0,0,0-0.1,0-0.2c0-0.2-0.3-0.4-0.5-0.2c-0.1,0-0.1,0.1-0.1,0.1c-0.1,0.1-0.1,0.1-0.2,0.2
			C36.2,5,36,5,36,4.8c0-0.1,0-0.1,0-0.2c0-0.1,0.1-0.1,0.1-0.2c0-0.1,0-0.2,0-0.2c-0.1-0.1-0.2-0.2-0.3-0.3c-0.1,0-0.2,0-0.2,0
			c0,0-0.1,0.1-0.1,0.1c-0.1,0.1-0.1,0.1-0.1,0c-0.1,0-0.1-0.1-0.2-0.1c-0.1,0-0.1,0-0.2,0c-0.1,0.1-0.2,0.2-0.2,0.3
			c-0.1,0.1,0,0.3,0,0.4c0.1,0.1,0.1,0.2,0.2,0.3C35,5,35,5.1,35.1,5.1c0,0.1,0,0.1-0.1,0.2c0,0-0.1,0.1-0.1,0
			c-0.1,0-0.3-0.1-0.4-0.2c-0.1-0.1-0.2-0.1-0.3,0c-0.1,0.1-0.1,0.2-0.1,0.3c0,0.1,0,0.2,0,0.3c0,0,0,0,0,0.1c0,0.1,0,0.2,0,0.3
			c0.1,0.2,0.3,0.3,0.5,0.3c0.1,0,0.1,0,0.2,0c0.2,0,0.3,0.2,0.4,0.4c0,0.1,0,0.2-0.1,0.2c0,0-0.1,0-0.1,0c-0.1,0-0.3,0-0.4,0
			c-0.1,0-0.2,0-0.2,0.2c0,0.1,0,0.2,0.1,0.3c0,0,0,0.1,0,0.1c0,0.1,0,0.2,0,0.3C34.5,8,34.7,8.1,35,8.1c0.1,0,0.2,0,0.2,0
			c0.1,0,0.1,0,0.2,0.1c0,0.1,0,0.2,0,0.2c0,0-0.1,0-0.1,0.1c0,0-0.1,0-0.1,0.1c0,0-0.1,0-0.1,0.1c0,0.1,0,0.2,0,0.3
			c0,0.1,0.1,0.1,0.2,0.1c0,0,0.1,0,0.1,0c0,0.1,0.1,0.1,0.2,0.1c0.2,0,0.3,0.1,0.3,0.2C36,9.3,36,9.4,36,9.5c0,0,0,0.1,0,0.1
			c0,0.1,0,0.3,0.1,0.4c0.1,0.2,0.1,0.4,0,0.6c0,0.1,0,0.2,0,0.2c0,0,0.1,0,0.1,0c0,0,0.1-0.1,0.1-0.1c0.1,0,0.1-0.1,0.2-0.1
			c0.1-0.1,0.1-0.2,0-0.3c0,0-0.1-0.1,0-0.1c0-0.1,0-0.3-0.1-0.4c0-0.1,0-0.1,0-0.2c0-0.1,0.1-0.2,0.1-0.3c0,0,0-0.1,0.1-0.1
			c0.2-0.1,0.3-0.2,0.2-0.5c0-0.1,0-0.1,0-0.1c0,0,0.1,0,0.1,0c0,0,0,0,0.1,0C37,8.4,37,8.3,37.1,8.2C37.1,8.1,37,8,36.8,8
			c0,0-0.1,0-0.1,0c-0.1,0-0.1,0-0.2,0c-0.1,0-0.1,0-0.1-0.1c0-0.1,0-0.1,0.1-0.2c0.1-0.1,0.3-0.2,0.5-0.2c0,0,0,0,0,0
			c0.1-0.1,0.2-0.1,0.3-0.2c0.1-0.1,0.1-0.2,0-0.4c0,0,0,0,0,0c0,0,0-0.1,0-0.1c0-0.1,0.1-0.1,0.1-0.2c0-0.1,0-0.2-0.1-0.2
			c-0.2-0.1-0.3-0.1-0.4,0c0,0,0,0,0,0c-0.1,0.1-0.2,0.1-0.3,0.1c-0.1,0-0.2-0.1-0.2-0.2c0-0.1,0.1-0.2,0.2-0.2
			C36.8,6.1,36.9,6,37,5.9c0.1-0.1,0.2-0.1,0.2-0.2c0-0.1,0.1-0.1,0.1-0.2c0,0,0-0.1,0-0.1c0-0.1,0-0.2-0.1-0.3c0,0,0,0,0,0
			C37.1,5.1,37,5,37.1,4.9z"/>
		<path class="st4" d="M4.5,19.8c0,0-0.1,0.1-0.1,0.1c-0.1,0.1-0.1,0.4,0.1,0.5c0.1,0,0.1,0,0.2,0c0.1,0,0.2,0,0.3,0
			c0.1,0,0.2,0.2,0.1,0.3c0,0.1-0.1,0.1-0.2,0.1c-0.1,0-0.2,0-0.2,0.1c-0.1,0-0.1,0.1-0.2,0.2c-0.1,0.1-0.1,0.3,0,0.4
			c0,0.1,0.1,0.1,0.2,0.2c0,0,0.1,0,0.1,0c0.1,0,0.1,0,0.1,0.1c0,0.1,0,0.1,0,0.2C5,22,5,22,5.1,22.1c0.1,0,0.2,0,0.4,0
			c0.1,0,0.2-0.1,0.3-0.3c0-0.1,0.1-0.2,0.1-0.3c0-0.1,0.1-0.2,0.1-0.2c0-0.1,0.1-0.1,0.2-0.1c0.1,0,0.1,0,0.1,0.1
			c0,0.1,0.1,0.3,0.1,0.4c0,0.1,0.1,0.2,0.2,0.2c0.1,0,0.2,0,0.3-0.1c0.1-0.1,0.2-0.2,0.3-0.2c0,0,0,0,0.1,0
			c0.1-0.1,0.1-0.1,0.2-0.2c0.1-0.2,0.1-0.4-0.1-0.6c0-0.1-0.1-0.1-0.1-0.2c-0.1-0.2-0.1-0.4,0.1-0.5c0.1-0.1,0.1-0.1,0.2,0
			c0,0,0.1,0,0.1,0.1c0.1,0.1,0.2,0.2,0.3,0.3c0.1,0.1,0.2,0.1,0.3,0.1c0.1-0.1,0.1-0.1,0.2-0.2c0,0,0-0.1,0.1-0.1
			c0.1,0,0.2-0.1,0.2-0.2c0.1-0.3,0-0.5-0.2-0.7c-0.1-0.1-0.1-0.1-0.2-0.2c-0.1-0.1-0.1-0.1,0-0.2C8.1,19,8.2,19,8.3,19
			c0,0,0.1,0,0.1,0c0,0,0.1,0,0.1,0c0,0,0.1,0,0.1,0c0.1,0,0.2-0.1,0.2-0.2c0-0.1,0-0.1,0-0.2c0,0,0-0.1,0-0.1c0-0.1,0-0.2,0-0.2
			c-0.1-0.1-0.1-0.3-0.1-0.4c0-0.1,0.1-0.1,0.1-0.2c0,0,0-0.1,0-0.1c0.1-0.1,0.2-0.2,0.3-0.3c0.1-0.2,0.3-0.3,0.5-0.4
			c0.1,0,0.2-0.1,0.2-0.1c0,0,0,0-0.1-0.1c0,0-0.1,0-0.1,0c-0.1,0-0.1,0-0.2,0c-0.1,0-0.2,0.1-0.3,0.2c0,0,0,0.1-0.1,0.1
			c-0.1,0.1-0.2,0.2-0.3,0.3c0,0-0.1,0.1-0.1,0.1c-0.1,0-0.2,0.1-0.3,0.1c0,0-0.1,0-0.1,0c-0.2-0.1-0.4-0.1-0.5,0.1c0,0-0.1,0-0.1,0
			c0,0-0.1,0-0.1,0c0,0,0,0-0.1,0c-0.1,0-0.2,0-0.3,0.1C7,17.8,7,18,7.1,18.1c0,0,0,0,0.1,0.1c0,0,0.1,0.1,0.1,0.1
			c0,0.1,0,0.1,0,0.1c-0.1,0-0.1,0.1-0.2,0.1c-0.2,0-0.3-0.1-0.5-0.2c0,0,0,0,0,0c-0.1,0-0.2-0.1-0.4-0.1c-0.1,0-0.3,0.1-0.3,0.2
			c0,0,0,0,0,0c0,0,0,0.1-0.1,0.1c-0.1,0-0.2,0-0.2,0.1c-0.1,0.1-0.1,0.1-0.1,0.2c0,0.2,0.1,0.3,0.3,0.3c0,0,0,0,0,0
			C5.9,19,6,19,6,19.1c0.1,0.1,0.1,0.2-0.1,0.3c-0.1,0-0.2,0-0.3,0c-0.1,0-0.3-0.1-0.4-0.1c-0.1,0-0.2-0.1-0.3,0
			c-0.1,0-0.1,0-0.2,0.1c0,0-0.1,0-0.1,0.1c-0.1,0.1-0.1,0.2-0.1,0.3c0,0,0,0,0,0.1C4.6,19.7,4.6,19.8,4.5,19.8z"/>
		<path class="st4" d="M0.5,11.6c0,0-0.1,0-0.1,0c-0.2,0.1-0.2,0.4,0,0.5c0.1,0,0.1,0.1,0.2,0.1c0.1,0,0.2,0.1,0.2,0.1
			c0.1,0.1,0.1,0.2,0,0.3c-0.1,0-0.1,0-0.2,0c-0.1,0-0.2,0-0.2,0c-0.1,0-0.2,0-0.2,0.1C0.1,12.8,0,13,0,13.1c0,0.1,0,0.2,0.1,0.2
			c0,0,0.1,0,0.1,0.1c0.1,0,0.1,0,0.1,0.1c0,0.1,0,0.1,0,0.2c0,0.1,0.1,0.1,0.1,0.2C0.5,14,0.6,14,0.7,14c0.1,0,0.3-0.1,0.4-0.2
			c0.1-0.1,0.1-0.2,0.2-0.3c0-0.1,0.1-0.1,0.2-0.2c0.1,0,0.1,0,0.2,0c0.1,0,0.1,0.1,0.1,0.1c0,0.1,0,0.3-0.1,0.4
			c0,0.1,0,0.2,0.1,0.3c0.1,0.1,0.2,0.1,0.3,0c0.1-0.1,0.2-0.1,0.3-0.1c0,0,0,0,0.1,0c0.1,0,0.2-0.1,0.2-0.1
			c0.2-0.2,0.2-0.3,0.1-0.6c0-0.1,0-0.1,0-0.2c0-0.2,0.1-0.4,0.2-0.5c0.1-0.1,0.1-0.1,0.2,0c0,0,0,0,0.1,0.1
			c0.1,0.1,0.1,0.3,0.1,0.4c0,0.1,0.1,0.2,0.2,0.2c0.1,0,0.2-0.1,0.2-0.2c0,0,0.1-0.1,0.1-0.1c0.1,0,0.2,0,0.2-0.1
			c0.1-0.2,0.2-0.5,0.1-0.7c0-0.1-0.1-0.1-0.1-0.2c0-0.1,0-0.1,0-0.2c0.1-0.1,0.1-0.1,0.2,0c0,0,0.1,0,0.1,0.1c0,0,0.1,0.1,0.1,0.1
			c0,0,0.1,0,0.1,0c0.1,0,0.2,0,0.3-0.1c0.1-0.1,0-0.1,0-0.2c0,0,0-0.1,0-0.1C5,11.7,5,11.6,5,11.5c-0.1-0.1,0-0.3,0.1-0.4
			c0-0.1,0.1-0.1,0.1-0.2c0,0,0,0,0.1-0.1c0.1-0.1,0.2-0.1,0.3-0.2c0.2-0.1,0.4-0.2,0.6-0.2c0.1,0,0.2,0,0.2-0.1c0,0,0-0.1,0-0.1
			c0,0-0.1,0-0.1-0.1c-0.1-0.1-0.1-0.1-0.2-0.1c-0.1,0-0.2,0-0.3,0.1c0,0-0.1,0.1-0.1,0.1c-0.1,0-0.3,0.1-0.4,0.2
			c0,0-0.1,0.1-0.2,0.1c-0.1,0-0.2,0-0.3,0c0,0-0.1,0-0.1,0c-0.1-0.2-0.3-0.2-0.5-0.1c0,0-0.1,0-0.1,0c0,0,0,0-0.1-0.1
			c0,0,0,0-0.1,0c-0.1,0-0.2,0-0.3,0c-0.1,0-0.2,0.2-0.1,0.3c0,0,0,0,0,0.1c0,0,0.1,0.1,0.1,0.1c0,0.1,0,0.1-0.1,0.1
			c-0.1,0-0.1,0-0.2,0C3.2,11,3.1,10.8,3,10.7c0,0,0,0,0,0c-0.1-0.1-0.2-0.2-0.3-0.2c-0.1,0-0.3,0-0.3,0.1c0,0,0,0,0,0
			c0,0,0,0-0.1,0c-0.1,0-0.2,0-0.2,0c-0.1,0-0.2,0.1-0.2,0.2c0,0.2,0,0.3,0.2,0.4c0,0,0,0,0,0c0.1,0.1,0.2,0.1,0.2,0.2
			c0.1,0.1,0,0.2-0.1,0.2c-0.1,0-0.2,0-0.2-0.1c-0.1-0.1-0.2-0.2-0.3-0.2c-0.1-0.1-0.2-0.1-0.3-0.1c-0.1,0-0.1,0-0.2,0
			c0,0-0.1,0-0.1,0c-0.1,0-0.2,0.1-0.2,0.2c0,0,0,0,0,0C0.7,11.5,0.6,11.6,0.5,11.6z"/>
		<path class="st4" d="M17.6,3c0,0-0.1-0.1-0.1-0.1C17.3,2.8,17,3,17.1,3.2c0,0.1,0,0.1,0.1,0.2c0,0.1,0.1,0.2,0.1,0.3
			c0,0.1-0.1,0.2-0.2,0.2c-0.1,0-0.1-0.1-0.2-0.1c0-0.1-0.1-0.1-0.1-0.2c-0.1-0.1-0.1-0.1-0.2-0.1c-0.1,0-0.3,0-0.4,0.1
			C16,3.6,16,3.7,16,3.8c0,0,0,0.1,0,0.1C16.1,4,16.1,4,16,4c-0.1,0-0.1,0-0.2,0.1c0,0.1-0.1,0.1-0.1,0.2c0,0.1,0,0.2,0.1,0.3
			c0.1,0.1,0.2,0.2,0.4,0.2c0.1,0,0.2,0,0.4,0c0.1,0,0.2,0,0.2,0c0.1,0,0.1,0.1,0.1,0.1c0,0.1,0,0.1,0,0.1c-0.1,0.1-0.2,0.2-0.4,0.2
			c-0.1,0-0.2,0.1-0.2,0.2c0,0.1,0.1,0.2,0.2,0.2c0.1,0,0.2,0.1,0.3,0.2c0,0,0,0,0,0c0.1,0,0.2,0.1,0.2,0.1c0.2,0,0.4-0.1,0.5-0.3
			c0,0,0.1-0.1,0.1-0.1c0.1-0.2,0.3-0.2,0.5-0.1c0.1,0,0.1,0.1,0.1,0.2c0,0,0,0.1,0,0.1c-0.1,0.1-0.1,0.3-0.2,0.4
			c-0.1,0.1-0.1,0.2,0,0.3c0.1,0.1,0.2,0.1,0.3,0.1c0,0,0.1,0,0.1,0c0.1,0.1,0.1,0.1,0.2,0.1c0.3,0,0.5-0.2,0.6-0.4
			c0-0.1,0.1-0.1,0.1-0.2C19.5,6,19.5,6,19.6,6c0.1,0,0.1,0.1,0.2,0.1c0,0,0,0.1,0,0.1c0,0,0,0.1,0,0.1c0,0,0,0.1,0,0.1
			c0.1,0.1,0.2,0.1,0.2,0.1c0.1,0,0.1-0.1,0.2-0.1c0,0,0-0.1,0.1-0.1c0.1,0,0.2,0,0.2-0.1c0.1-0.2,0.2-0.2,0.3-0.2
			c0.1,0,0.1,0,0.2,0c0,0,0.1,0,0.1,0c0.1,0.1,0.2,0.1,0.4,0.1c0.2,0.1,0.4,0.1,0.5,0.3c0.1,0.1,0.1,0.1,0.2,0.1c0,0,0-0.1,0-0.1
			c0,0,0-0.1,0-0.1c0-0.1,0-0.1,0-0.2c0-0.1-0.1-0.2-0.3-0.2c0,0-0.1,0-0.1,0C21.7,6,21.5,6,21.4,5.9c-0.1,0-0.1,0-0.2-0.1
			c-0.1-0.1-0.1-0.1-0.2-0.2c0,0,0-0.1,0-0.1c0-0.2-0.1-0.4-0.3-0.4c-0.1,0-0.1,0-0.1-0.1c0,0,0-0.1,0-0.1c0,0,0,0,0-0.1
			c0-0.1-0.1-0.2-0.2-0.2c-0.1-0.1-0.2,0-0.3,0.1c0,0,0,0.1,0,0.1c0,0,0,0.1-0.1,0.1c0,0-0.1,0-0.1,0c-0.1,0-0.1-0.1-0.1-0.1
			c0-0.2-0.1-0.4,0.1-0.5c0,0,0,0,0,0c0-0.1,0-0.3-0.1-0.4c0-0.1-0.2-0.2-0.3-0.2c0,0,0,0,0,0c0,0-0.1,0-0.1,0
			c0-0.1-0.1-0.1-0.2-0.2c-0.1,0-0.2-0.1-0.2,0c-0.2,0.1-0.2,0.2-0.2,0.4c0,0,0,0,0,0.1c0,0.1,0,0.2,0,0.3c-0.1,0.1-0.2,0.1-0.3,0
			c-0.1-0.1-0.1-0.2-0.1-0.2c0-0.1,0-0.3,0-0.4c0-0.1,0-0.2-0.1-0.3c0-0.1-0.1-0.1-0.1-0.1c0,0-0.1,0-0.1-0.1C18,2.9,18,2.9,17.8,3
			c0,0,0,0,0,0C17.7,3.1,17.7,3,17.6,3z"/>
		<path class="st4" d="M7.9,24.1c0,0-0.1,0-0.1,0c-0.2,0.1-0.3,0.3-0.1,0.5c0,0,0.1,0.1,0.2,0.1c0.1,0,0.2,0.1,0.2,0.1
			C8.1,25,8.1,25.1,8,25.2c-0.1,0-0.1,0-0.2,0c-0.1,0-0.2,0-0.2-0.1c-0.1,0-0.2,0-0.2,0.1c-0.1,0.1-0.2,0.2-0.2,0.3
			c0,0.1,0,0.2,0.1,0.2c0,0,0.1,0.1,0.1,0.1c0.1,0.1,0.1,0.1,0,0.1c0,0.1-0.1,0.1-0.1,0.2c0,0.1,0,0.1,0.1,0.2
			c0.1,0.1,0.2,0.2,0.3,0.2c0.1,0,0.3,0,0.4-0.1c0.1-0.1,0.2-0.2,0.3-0.2c0.1-0.1,0.1-0.1,0.2-0.1c0.1,0,0.1,0,0.2,0
			c0,0,0.1,0.1,0.1,0.1c0,0.1-0.1,0.3-0.1,0.4c-0.1,0.1,0,0.2,0,0.3C8.6,27,8.8,27,8.9,27c0.1,0,0.2-0.1,0.3,0c0,0,0,0,0.1,0
			c0.1,0,0.2,0,0.3-0.1c0.2-0.1,0.2-0.3,0.2-0.5c0-0.1,0-0.1,0-0.2c0-0.2,0.1-0.3,0.3-0.4c0.1,0,0.2,0,0.2,0.1c0,0,0,0.1,0,0.1
			c0,0.1,0.1,0.3,0.1,0.4c0,0.1,0.1,0.2,0.2,0.2c0.1,0,0.2-0.1,0.3-0.1c0,0,0.1,0,0.1,0c0.1,0,0.2,0,0.2-0.1
			c0.2-0.2,0.3-0.4,0.2-0.7c0-0.1,0-0.1-0.1-0.2c0-0.1,0-0.1,0.1-0.2c0.1,0,0.1,0,0.2,0c0,0,0.1,0.1,0.1,0.1c0,0,0.1,0.1,0.1,0.1
			c0,0,0.1,0,0.1,0.1c0.1,0,0.2,0,0.3-0.1c0.1,0,0.1-0.1,0.1-0.2c0,0,0-0.1,0-0.1c0.1-0.1,0.1-0.1,0.1-0.2c0-0.2,0-0.3,0.1-0.4
			c0,0,0.1-0.1,0.2-0.1c0,0,0,0,0.1,0c0.1,0,0.2-0.1,0.4-0.1c0.2-0.1,0.4-0.1,0.6-0.1c0.1,0,0.2,0,0.2,0c0,0,0-0.1,0-0.1
			c0,0-0.1,0-0.1-0.1c0-0.1-0.1-0.1-0.2-0.1c-0.1-0.1-0.2-0.1-0.3,0c0,0-0.1,0.1-0.1,0.1c-0.1,0-0.3,0.1-0.4,0.1
			c-0.1,0-0.1,0.1-0.2,0c-0.1,0-0.2,0-0.3,0c0,0-0.1,0-0.1-0.1c-0.1-0.2-0.3-0.3-0.5-0.2c-0.1,0-0.1,0-0.1,0c0,0,0-0.1,0-0.1
			c0,0,0,0,0-0.1c-0.1,0-0.2-0.1-0.3-0.1c-0.1,0-0.2,0.1-0.2,0.3c0,0,0,0.1,0,0.1c0,0,0,0.1,0,0.1c0,0.1,0,0.1-0.1,0.1
			c-0.1,0-0.1,0-0.2,0c-0.1-0.1-0.3-0.2-0.3-0.4c0,0,0,0,0,0c-0.1-0.1-0.2-0.2-0.3-0.3c-0.1-0.1-0.3-0.1-0.4,0c0,0,0,0,0,0
			c0,0-0.1,0-0.1,0c-0.1,0-0.2-0.1-0.2,0c-0.1,0-0.2,0-0.2,0.1c0,0.2,0,0.3,0.1,0.4c0,0,0,0,0,0c0.1,0.1,0.1,0.2,0.2,0.3
			c0,0.1,0,0.2-0.2,0.2c-0.1,0-0.2-0.1-0.2-0.1C9.1,24.2,9,24.1,8.9,24c-0.1-0.1-0.2-0.2-0.3-0.2c-0.1,0-0.1,0-0.2,0
			c0,0-0.1,0-0.1,0c-0.1,0-0.2,0.1-0.2,0.2c0,0,0,0,0,0C8.1,24.1,8,24.2,7.9,24.1z"/>
	</g>
</g>
<g id="_x32_3_NYCRR_500">
</g>
</svg>
