<svg id="Layer_1" data-name="Layer 1" xmlns="http://www.w3.org/2000/svg" viewBox="0 0 43 43"><defs><style>.cls-1{fill:#2196f3;}</style></defs><title>government_ico</title><polygon class="cls-1" points="40.23 43 2.77 43 4.63 39.72 37.91 39.72 40.23 43"/><path class="cls-1" d="M36.41,37.6l.95,1.34H32.81L21.08,34.08h0L10.59,38.39h0l-1.33.55H5.06l.79-1.39,3.22-.16V30.29c2.39-2,8.79-2.84,12-2.8h.38c2.92,0,9,.77,11.61,2.55l.06,7.43Zm-5.28-2.37V31.18a.44.44,0,0,0-.18-.35.68.68,0,0,0-.43-.14.56.56,0,0,0-.61.49v4.05a.46.46,0,0,0,.18.35.7.7,0,0,0,.43.14A.56.56,0,0,0,31.13,35.23ZM28,34.32V29.94a.5.5,0,0,0-.18-.38.64.64,0,0,0-.43-.16.58.58,0,0,0-.61.53v4.39a.49.49,0,0,0,.18.38.64.64,0,0,0,.43.16A.58.58,0,0,0,28,34.32Zm-3.15-.69V29.25a.5.5,0,0,0-.18-.38.64.64,0,0,0-.43-.16.58.58,0,0,0-.61.54v4.38a.5.5,0,0,0,.18.38.65.65,0,0,0,.43.16A.58.58,0,0,0,24.83,33.64Zm-3.15-.35V29.1a.48.48,0,0,0-.18-.36.67.67,0,0,0-.43-.15.57.57,0,0,0-.61.51v4.19a.47.47,0,0,0,.18.36.67.67,0,0,0,.43.15A.57.57,0,0,0,21.67,33.29Zm-3.15.41V29.31a.49.49,0,0,0-.18-.38.64.64,0,0,0-.43-.16.58.58,0,0,0-.61.53V33.7a.5.5,0,0,0,.18.38.65.65,0,0,0,.43.16A.58.58,0,0,0,18.52,33.7Zm-3.15.62V29.94a.5.5,0,0,0-.18-.38.64.64,0,0,0-.43-.16.58.58,0,0,0-.61.53v4.39a.49.49,0,0,0,.18.38.64.64,0,0,0,.43.16A.58.58,0,0,0,15.37,34.32Zm-3.15.91V31.18a.45.45,0,0,0-.18-.35.67.67,0,0,0-.43-.14.56.56,0,0,0-.61.49v4.05a.46.46,0,0,0,.18.35.69.69,0,0,0,.43.14A.56.56,0,0,0,12.22,35.23Z"/><path class="cls-1" d="M34,28.49a2.31,2.31,0,0,1,0,1.43,4.71,4.71,0,0,0-.48-.4c-2.84-2.09-9.56-2.87-12.4-2.8h0c-3.07-.07-10.16.79-12.76,3.09a1.74,1.74,0,0,1-.07-1.32,8,8,0,0,1,2.12-1.24,31.12,31.12,0,0,1,10.6-1.95h.23a32.21,32.21,0,0,1,9.62,1.57A9.61,9.61,0,0,1,34,28.49Z"/><path class="cls-1" d="M31.91,22.9c-2.16-2.41-8.11-3.47-11-3.38h0c-2.61-.07-8.7.86-10.94,3.37h0a2.51,2.51,0,0,1,.3-1.78,8.41,8.41,0,0,1,2.48-1.55,22.09,22.09,0,0,1,8.09-1.67H21a22.14,22.14,0,0,1,8,1.65,7.84,7.84,0,0,1,2.76,1.81A2.93,2.93,0,0,1,31.91,22.9Z"/><path class="cls-1" d="M31.39,23.48v2.73l-.19-.07c-.74-.26-1.52-.48-2.31-.67a.11.11,0,0,0,0,0V23.27c0-.15-.22-.26-.48-.26s-.48.12-.48.26v2c-.52-.11-1-.2-1.54-.28a.14.14,0,0,0,0-.06V22.56c0-.16-.22-.29-.48-.29s-.48.13-.48.29v2.28c-.53-.07-1-.13-1.53-.18a.14.14,0,0,0,0,0V22.1c0-.17-.22-.31-.48-.31s-.48.14-.48.31v2.48c-.58,0-1.1-.05-1.53,0a.11.11,0,0,0,0,0v-2.6c0-.18-.22-.32-.48-.32s-.48.14-.48.32v2.6a.11.11,0,0,0,0,0c-.46,0-1,0-1.53.08V22.14c0-.17-.22-.31-.48-.31S18,22,18,22.14v2.51a.16.16,0,0,0,0,.06c-.49.05-1,.12-1.53.2V22.56c0-.16-.22-.29-.48-.29s-.48.13-.48.29v2.35a.19.19,0,0,0,.07.14c-.53.09-1.06.2-1.59.32v-2.1c0-.15-.22-.26-.48-.26s-.48.12-.48.26v2.16a.19.19,0,0,0,.09.15,22.1,22.1,0,0,0-2.41.76v-3c2-2.11,7.47-3.06,10.12-3h.32C23.84,20.24,29.52,21.27,31.39,23.48Z"/><polygon class="cls-1" points="30.78 38.95 11.29 38.95 21.05 34.93 30.78 38.95"/><path class="cls-1" d="M22.77,10.35c2.74,1,4.89,4,6,8.22A23,23,0,0,0,21,17.13h0a23.06,23.06,0,0,0-7.83,1.46c1-4.37,3.21-7.47,6.12-8.34A5.56,5.56,0,0,1,22.77,10.35Z"/><path class="cls-1" d="M22.58,5.89V9.48a6.28,6.28,0,0,0-3.09-.09V6a2.39,2.39,0,0,1,.67-.44,2.26,2.26,0,0,1,1.69,0A3.25,3.25,0,0,1,22.58,5.89Z"/><path class="cls-1" d="M21,0a16.2,16.2,0,0,1,.58,4.91,2.69,2.69,0,0,0-1.13,0A14.61,14.61,0,0,1,21,0Z"/></svg>