<svg id="Layer_1" data-name="Layer 1" xmlns="http://www.w3.org/2000/svg" viewBox="0 0 43 42.76"><defs><style>.cls-1{fill:#2196F3;}</style></defs><title>gdpr</title><path class="cls-1" d="M21.5,0,22.13,2h2l-1.65,1.2.63,1.94L21.5,3.89l-1.65,1.2.63-1.94L18.82,2h2.05L21.5,0" transform="translate(0 -0.01)"/><path class="cls-1" d="M12,2.55l.63,1.94h2L13,5.69l.63,1.95L12,6.44l-1.65,1.2L11,5.7,9.29,4.5h2.05L12,2.55" transform="translate(0 -0.01)"/><path class="cls-1" d="M5,9.51l.63,1.94h2L6,12.65l.63,1.95L5,13.4,3.35,14.6,4,12.66l-1.65-1.2h2l.63-2" transform="translate(0 -0.01)"/><path class="cls-1" d="M31,2.58l.63,1.94h2L32,5.73l.63,1.94L31,6.47l-1.65,1.2L30,5.73l-1.66-1.2h2L31,2.59" transform="translate(0 -0.01)"/><path class="cls-1" d="M40.37,11.31l-1.65,1.2.63,1.94-1.65-1.2-1.65,1.2.63-1.94L35,11.31h2l.64-2,.62,2h2" transform="translate(0 -0.01)"/><path class="cls-1" d="M43,20.87l-1.66,1.19L42,24l-1.64-1.2L38.66,24l.64-1.94-1.65-1.2h2l.64-1.94L41,20.85h2" transform="translate(0 -0.01)"/><path class="cls-1" d="M20,42.77l.62-2L19,39.63h2l.63-2,.64,1.94h2l-1.64,1.21.63,1.94-1.65-1.2L20,42.77" transform="translate(0 -0.01)"/><path class="cls-1" d="M10.47,40.24l.63-1.94L9.45,37.1h2l.63-2,.63,2h2l-1.65,1.2.64,1.94L12.12,39l-1.65,1.21" transform="translate(0 -0.01)"/><path class="cls-1" d="M32.54,40.2,30.89,39l-1.66,1.2.64-1.95L28.22,37h2.05l.63-1.94L31.53,37h2l-1.66,1.2.63,1.95" transform="translate(0 -0.01)"/><path class="cls-1" d="M0,20.91H2L2.67,19l.64,1.94h2L3.7,22.11l.64,1.94-1.66-1.2L1,24.06l.63-1.95L0,20.91" transform="translate(0 -0.01)"/><path class="cls-1" d="M27.85,27c-.49-.26-1-.47-1.47-.79A2.2,2.2,0,0,1,25,24.15a14.66,14.66,0,0,1,.63-3.36c0-.1,0-.32.19-.27.42.12.57-.48.65-.83a8.43,8.43,0,0,0,.2-1.58c0-.2-.12-.54-.27-.6-.48-.21-.4.59-.31-.92a9.14,9.14,0,0,0,0-2.28A3.41,3.41,0,0,0,24.61,12a5.52,5.52,0,0,0-5.83,0,3.45,3.45,0,0,0-1.47,2.33,9.65,9.65,0,0,0,0,2.28c.09,1.51.18.71-.31.92a.77.77,0,0,0-.26.6,8.42,8.42,0,0,0,.19,1.58c.08.35.24.95.65.83.18-.05.17.17.2.27a14.13,14.13,0,0,1,.62,3.36c0,1.09-.46,1.54-1.36,2.1-.52.32-1,.53-1.48.79-.22.12-4.82.61-5.3,4.47a.6.6,0,0,0,.58.69H32.57a.61.61,0,0,0,.59-.69C32.67,27.69,28.08,27.16,27.85,27Z" transform="translate(0 -0.01)"/><path class="cls-1" d="M4.25,30.23a.56.56,0,0,0,.55.66H9.27a2.89,2.89,0,0,1,.12-.44c.45-1.38,1.72-3.16,4.91-4a1.59,1.59,0,0,1-.27-.87,9.24,9.24,0,0,1,.41-2.23c0-.07,0-.22.13-.18.28.08.38-.32.43-.56a5.19,5.19,0,0,0,.13-1c0-.14-.07-.36-.17-.4-.32-.14-.27.39-.21-.61a6.44,6.44,0,0,0,0-1.52,2.22,2.22,0,0,0-1-1.51,3.51,3.51,0,0,0-3.87,0,2.26,2.26,0,0,0-1,1.51,6.44,6.44,0,0,0,0,1.52c.06,1,.12.47-.2.61-.1,0-.18.26-.18.4a5.19,5.19,0,0,0,.13,1c0,.24.16.64.43.56.12,0,.11.11.13.18a9.77,9.77,0,0,1,.42,2.23c0,.73-.32,1-.91,1.39-.34.22-.65.35-1,.53C7.59,27.54,4.71,27.88,4.25,30.23Z" transform="translate(0 -0.01)"/><path class="cls-1" d="M39.07,30.23a.56.56,0,0,1-.55.66H34.06s0-.14-.13-.44c-.45-1.38-1.72-3.16-4.91-4a1.53,1.53,0,0,0,.28-.87,9.77,9.77,0,0,0-.42-2.23c0-.07,0-.22-.13-.18s-.38-.32-.43-.56a5.19,5.19,0,0,1-.13-1c0-.14.08-.36.18-.4.32-.14.26.39.2-.61a6.44,6.44,0,0,1,0-1.52,2.26,2.26,0,0,1,1-1.51,3.51,3.51,0,0,1,3.87,0,2.22,2.22,0,0,1,1,1.51,6.44,6.44,0,0,1,0,1.52c-.06,1-.11.47.21.61.1,0,.18.26.17.4a5.19,5.19,0,0,1-.13,1c-.05.24-.15.64-.43.56-.12,0-.11.11-.13.18a9.24,9.24,0,0,0-.41,2.23,1.45,1.45,0,0,0,.9,1.39c.35.22.66.35,1,.53C35.73,27.54,38.61,27.88,39.07,30.23Z" transform="translate(0 -0.01)"/></svg>