<?xml version="1.0" encoding="utf-8"?>
<!-- Generator: Adobe Illustrator 21.0.0, SVG Export Plug-In . SVG Version: 6.00 Build 0)  -->
<svg version="1.1" id="GLBA_x5F_logo" xmlns="http://www.w3.org/2000/svg" xmlns:xlink="http://www.w3.org/1999/xlink" x="0px"
	 y="0px" viewBox="0 0 777 680" style="enable-background:new 0 0 777 680;" xml:space="preserve">
<style type="text/css">
	.st0{fill:#2196F3;}
	.st1{fill:#2196F3;}
</style>
<path id="ellipse" class="st0" d="M388.5,679.7c-46.1,0-90.9-9-133-26.7c-40.7-17.1-77.3-41.6-108.7-72.8
	c-31.4-31.2-56.1-67.6-73.3-108.1c-17.9-42-26.9-86.5-26.9-132.5s9.1-90.5,26.9-132.5c17.2-40.5,41.9-76.9,73.3-108.1
	c31.4-31.2,68-55.7,108.7-72.8c42.2-17.7,86.9-26.7,133-26.7s90.9,9,133,26.7c40.7,17.1,77.3,41.6,108.7,72.8
	c31.4,31.2,56.1,67.6,73.3,108.1c17.9,42,26.9,86.5,26.9,132.5s-9.1,90.5-26.9,132.5c-17.2,40.5-41.9,76.9-73.3,108.1
	c-31.4,31.2-68,55.7-108.7,72.8C479.4,670.7,434.6,679.7,388.5,679.7z M388.5,81.6c-143.4,0-260,115.8-260,258.1
	c0,142.3,116.6,258.1,260,258.1s260-115.8,260-258.1C648.5,197.3,531.9,81.6,388.5,81.6z"/>
<g id="eagle">
	<g id="tail">
		<g id="tail_1_">
			<path class="st1" d="M426,398c0,0,1,36,11,62c14,39,38,56,38,56s-15,2-24-2s-20-14-20-14s4,16,4,28s-2,21-2,21s-11-5-18-17
				s-11-25-11-25s-1,18-2,26c-5,35-15,47-15,47l-1-1.6l1-209.4L426,398z"/>
		</g>
		<path class="st1" d="M348,398c0,0-1,36-11,62c-14,39-38,56-38,56s15,2,24-2s20-14,20-14s-4,16-4,28s2,21,2,21s11-5,18-17
			s11-25,11-25s1,18,2,26c5,35,15,47,15,47V369L348,398z"/>
	</g>
	<g id="legs">
		<path class="st1" d="M335,383c0,0-6,16-10,23s-9,13-13,15s-7,3-7,3s3,3,6,3s8-1,8-1s-2,3-3,6s-1,5-1,5l3-1l-10,15c0,0-7-6-10-7
			c-4-2-9-3-11-2s-4,2-6,5s-3,9-3,9s7-7,8-8c4-4,14,3,14,3s-11,4-11,12c0,3,0,14,0,14s2-12,5-15s10.5-6,11.2-6c1.7,0,2.8,1,2.8,1
			s8,7,7,13c-1,5-1,7-1,7l4-9c0,0,1-3-1-7s-5-7-5-7l11-17c0,0,3-5,4-6s2-1,2-1s-1,7,1,9s5,4,5,4s-1-5,1-9s3-6,5-9s7-7,7-7h8L335,383
			z"/>
		<path class="st1" d="M439,383c0,0,6,16,10,23s9,13,13,15s7,3,7,3s-3,3-6,3s-8-1-8-1s2,3,3,6s1,5,1,5l-3-1l10,15c0,0,7-6,10-7
			c4-2,9-3,11-2s4,2,6,5s3,9,3,9s-7-7-8-8c-4-4-14,3-14,3s11,4,11,12c0,3,0,14,0,14s-2-12-5-15s-10.5-6-11.2-6c-1.7,0-2.8,1-2.8,1
			s-8,7-7,13c1,5,1,7,1,7l-4-9c0,0-1-3,1-7s5-7,5-7l-11-17c0,0-3-5-4-6s-2-1-2-1s1,7-1,9s-5,4-5,4s1-5-1-9s-3-6-5-9s-7-7-7-7h-8
			L439,383z"/>
	</g>
	<path id="wing_1_" class="st0" d="M204,174l65,13c0,0,5.5,34,26.8,55.4S342,270,342,270v114c0,0-9,9-13,11s-11,3-14,3s-10-1-10-1
		s7-7,9-16c2-8,5-28,5-28s-8,25-12,31s-5,8-11,9s-21,2-33,0s-12-2-12-2s11-9,20-21s18-29,18-29s-12,14-24,23s-13,10-24,10
		s-20,0-36-6s-29-13-29-13s23-10,34-19s38-36,38-36s-22,15-45,23s-38,13-47,11s-16-5-16-5s1-20,3-29s5-21,5-21s15-2,34-7s28-9,28-9
		s-12,3-28,4s-32,1-32,1s9-28,20-46c1-1.7,4.5-7.9,4.5-7.9l12.5-1.8l-9.7-2c0,0,14.9-22.7,18.7-27.3C201,177,204,174,204,174z"/>
	<path id="wing_2_" class="st0" d="M572,174l-65,13c0,0-5.5,34-26.8,55.4S434,270,434,270v114c0,0,9,9,13,11s11,3,14,3s10-1,10-1
		s-7-7-9-16c-2-8-5-28-5-28s8,25,12,31s5,8,11,9s21,2,33,0s12-2,12-2s-11-9-20-21s-18-29-18-29s12,14,24,23s13,10,24,10s20,0,36-6
		s29-13,29-13s-23-10-34-19s-38-36-38-36s22,15,45,23s38,13,47,11s16-5,16-5s-1-20-3-29s-5-21-5-21s-15-2-34-7s-28-9-28-9s12,3,28,4
		s32,1,32,1s-9-28-20-46c-1-1.7-4.5-7.9-4.5-7.9l-12.5-1.8l9.7-2c0,0-14.9-22.7-18.7-27.3C575,177,572,174,572,174z"/>
	<path id="body" class="st1" d="M440,284l-3-12c0,0-11-18-13-32s-3-17-3-27s0-10,0-10s4-3,8-2s9,3,9,3s0-14-7-19c-2-1-6-4-14-3
		s-8,1-8,1s-9-6-18-6c-20,0-25,12-25,12l-32,101l-2,76l5,34l29.7,28.6l19.5,150l0.9,0.8l0.8-1.2L406,428l28-25l8-34l1-74L440,284z
		 M392.5,188.4c-4.3-0.7-6.5-4.6-6.5-4.6s3.1-2.6,7.4-1.9c4.3,0.7,6.5,4.3,6.5,4.3S396.8,189.1,392.5,188.4z"/>
	<g id="peace_of_wing">
		<polygon class="st0" points="35,203 59,207 50,233 		"/>
		<path class="st0" d="M0,94c0,0,16,12,46,26s49,22,49,22s-9,11-17,26s-11,22-11,22s-39-5-59-63C4,114,0,94,0,94z"/>
		<polygon class="st0" points="742,203 718,207 727,233 		"/>
		<path class="st0" d="M777,94c0,0-16,12-46,26s-49,22-49,22s9,11,17,26s11,22,11,22s39-5,59-63C773,114,777,94,777,94z"/>
	</g>
</g>
</svg>
