<?xml version="1.0" encoding="utf-8"?>
<!-- Generator: Adobe Illustrator 21.0.0, SVG Export Plug-In . SVG Version: 6.00 Build 0)  -->
<svg version="1.1" xmlns="http://www.w3.org/2000/svg" xmlns:xlink="http://www.w3.org/1999/xlink" x="0px" y="0px"
	 viewBox="0 0 43 43" style="enable-background:new 0 0 43 43;" xml:space="preserve">
<style type="text/css">
	.st0{display:none;fill:#205EAB;}
	.st1{fill:#0F71B9;}
	.st2{fill:#148DCC;}
	.st3{fill:#FFFFFF;}
	.st4{fill:#2196F3;}
	.st5{fill:#208ECA;}
	.st6{display:none;fill:#0F71B9;}
	.st7{display:none;fill:#208ECA;}
	.st8{display:none;fill:#FFFFFF;}
	.st9{fill:#0D72B9;}
	.st10{fill:#0F71B8;}
	.st11{fill:#1978B7;}
	.st12{fill:#0071BC;}
	.st13{fill:none;stroke:#148DCC;stroke-width:2;stroke-miterlimit:10;}
	.st14{fill:none;stroke:#148DCC;stroke-width:2;stroke-linecap:round;stroke-linejoin:round;stroke-miterlimit:10;}
	.st15{fill:none;stroke:#148DCC;stroke-miterlimit:10;}
	.st16{fill:none;stroke:#148DCC;stroke-linecap:round;stroke-linejoin:round;stroke-miterlimit:10;}
	.st17{fill:#148DCC;stroke:#148DCC;stroke-width:0.5;stroke-miterlimit:10;}
	.st18{display:none;}
	.st19{display:inline;}
	.st20{fill:#231F20;}
	
		.st21{display:inline;fill:none;stroke:#231F20;stroke-width:0.8;stroke-linecap:round;stroke-linejoin:round;stroke-miterlimit:10;}
	.st22{display:inline;fill:#208ECA;}
	.st23{display:none;fill:#0F71B8;}
	.st24{fill:none;stroke:#FFFFFF;stroke-width:1.4;stroke-linecap:round;stroke-linejoin:round;stroke-miterlimit:10;}
	.st25{fill:none;stroke:#0F71B8;stroke-width:1.4;stroke-linecap:round;stroke-linejoin:round;stroke-miterlimit:10;}
	.st26{fill:none;stroke:#208ECA;stroke-width:2;stroke-miterlimit:10;}
	.st27{fill:none;stroke:#208ECA;stroke-width:2;}
	.st28{fill:#208ECA;fill-opacity:0;}
</style>
<g id="Layer_1">
	<g>
		<path class="st4" d="M12.8,7.5c0,0-5.4,2.4-9.4,2.4C2.5,9.9,0.6,9.7,0,8.4c2.2-0.2,7.1-1.1,9.9-2.1C10.1,7.6,12.8,7.5,12.8,7.5
			 M13.3,7.5c-2,1.1-6.7,2.6-9.5,2.8c0.4,0.5,2.4,0.9,4.3,0.8c3-0.2,6.3-2.1,7.1-2.8C14.4,8.1,14.3,7.3,13.3,7.5 M15.4,8.6
			c-0.7,0.5-4,2.4-7,2.8c1.1,1,3.4,0.7,4.4,0.4c1.6-0.5,4.6-2.3,4.6-2.3S16.2,8.4,15.4,8.6 M17.6,9.5c-0.5,0.4-3.9,2.1-4.8,2.4
			c0.5,0.2,1.1,0.2,1.7,0.3c0.3-0.8,1.3-1.4,1.9-1.7c0.8-0.4,1.9-0.7,3.3-0.5c0.2-0.1,0.3-0.2,0.3-0.2S18.2,9.7,17.6,9.5 M20.3,9.9
			c-0.1,0.1-0.2,0.1-0.3,0.2c0.6,0.2,1.1,0.8,1.2,0.9c0.3-0.6,0.2-1.3,0.2-1.3S20.7,9.7,20.3,9.9 M20.7,8.2c-3,0-2.3-2.9-2.3-3.5
			c0-0.6,0-1.8-1.9-1.6c-1.9,0.2-5.1,2.2-6.2,2.9c0,0.5,1.4,1.3,3.4,1c0.1,0,1.9-0.3,2-0.3c0.1,0.1-1.4,0.5-1.4,0.6
			c0.5,0.3,0.8,0.7,1.2,0.8c0.1,0,1.6-0.3,1.8-0.2c0.1,0-1.1,0.4-1,0.4C17,8.6,17.5,9,17.7,9.2c0.1,0,1.2-0.1,1.3-0.1
			c0.1,0-0.7,0.3-0.6,0.3c0.7,0.1,1.2,0.1,1.6,0.1c0.5,0,1.1-0.1,1.3,0C21.5,9.6,20.9,8.2,20.7,8.2 M43,8.4
			c-2.2-0.2-7.1-1.1-9.9-2.1c-0.2,1.3-2.9,1.2-2.9,1.2s5.4,2.3,9.4,2.4C40.6,9.9,42.1,9.6,43,8.4 M39.2,10.3
			c-2.7-0.2-7.5-1.7-9.5-2.8c-1.1-0.2-1.1,0.7-1.8,0.8c0.8,0.6,4,2.5,7.1,2.8C35.6,11.1,37.5,11.2,39.2,10.3 M25.6,9.4
			c0,0,3,1.8,4.6,2.3c1,0.3,3.3,0.6,4.4-0.4c-3-0.4-6.3-2.3-7-2.8C26.8,8.4,25.6,9.4,25.6,9.4 M23,9.8c0,0,0.1,0.1,0.3,0.3
			c1-0.3,2.5,0,3.2,0.4c0.6,0.3,1.4,0.7,2,1.8c0.6,0,1.2-0.1,1.7-0.3c-0.9-0.3-4.2-2-4.8-2.4C24.8,9.7,23,9.8,23,9.8 M21.6,9.7
			c0,0-0.1,0.8,0.3,1.4c0.2-0.3,0.6-0.7,1.2-1c-0.1-0.1-0.3-0.2-0.4-0.3C22.4,9.7,21.6,9.7,21.6,9.7 M26.6,3.2
			c-1.9-0.2-1.9,1-1.9,1.6c0,0.6,0.7,3.5-2.3,3.5c-0.2,0-0.8,1.4-0.7,1.3c0.3-0.1,0.8,0,1.3,0c0.4,0,0.9,0,1.6-0.1
			c0.1,0-0.7-0.3-0.6-0.3c0.1,0,1.2,0.1,1.3,0.1C25.5,9,26,8.6,26.6,8.4c0.1,0-1.1-0.4-1-0.4c0.2-0.1,1.7,0.2,1.8,0.2
			c0.4-0.1,0.7-0.5,1.2-0.8c0.1,0-1.5-0.5-1.4-0.6c0.1,0,1.9,0.3,2,0.3c2,0.2,3.4-0.5,3.4-1C31.6,5.4,28.4,3.4,26.6,3.2 M22.8,28.2
			c0.5,0.2,0.8,0.6,0.9,1.1c0.1,0.5,0,0.9-0.4,1.2c-0.3,0.3-0.7,0.5-1.2,0.6c0.6,0.1,1,0.3,1.5,0.5c0.1,0,0.1-0.1,0.2-0.1
			c0.6-0.4,1.2-1.2,1.1-2.2c-0.1-0.8-0.5-1.7-1.3-2.1c-0.7-0.5-1.6-0.6-2.3-0.6c-0.6,0-1.3-0.1-1.8-0.3c-0.5-0.2-0.8-0.5-0.9-0.9
			c0-0.5,0.2-1,0.5-1.3c0.2-0.1,0.3-0.3,0.6-0.3c-0.1,0-0.1,0-0.2-0.1c-0.5-0.1-1-0.3-1.5-0.5c-0.5,0.6-0.8,1.4-0.8,2.2
			c0,0.5,0.2,1,0.5,1.4c0.3,0.4,0.7,0.7,1.1,0.8c0.8,0.3,1.6,0.4,2.3,0.4C21.8,28,22.3,28,22.8,28.2 M22.7,35.6
			c-0.3-0.3-0.7-0.6-1.2-0.7c-0.4-0.1-0.8-0.3-1.1-0.5c-0.6-0.4-0.6-1.5,0-1.9c0.1,0,0.1-0.1,0.2-0.1c-0.3-0.1-0.7-0.3-1-0.4
			c-0.3,0.3-0.5,0.8-0.5,1.1c0,0.6,0.2,1.2,0.6,1.6c0.9,0.8,1.9,0.6,2.3,1.1c0.5,0.4,0.6,1,0.5,1.5c-0.2,1.1-1.1,1-1,1
			c0,0,0.1,0.1,0.4,0.1c0.3,0,0.8-0.3,1-0.8c0.1-0.3,0.2-0.6,0.2-0.9C23.1,36.4,23,35.9,22.7,35.6 M20.5,37.4
			c-0.1-0.5,0-1.1,0.5-1.5c0,0,0.1-0.1,0.1-0.1c-0.2-0.1-0.4-0.2-0.6-0.3c0,0-0.1,0.1-0.1,0.1c-0.3,0.3-0.4,0.8-0.4,1.1
			c0,0.4,0,0.7,0.2,0.9c0.2,0.6,0.7,0.8,1,0.8c0.3,0,0.4,0,0.4-0.1C21.6,38.4,20.6,38.4,20.5,37.4 M24,33.2c0-0.6-0.4-1.3-1-1.6
			c-0.6-0.3-1.3-0.4-1.8-0.4c-0.5-0.1-1-0.3-1.4-0.6c-0.4-0.4-0.5-0.7-0.4-1.2c0.1-0.4,0.3-0.7,0.7-1c-0.1,0-0.2,0-0.3-0.1
			c-0.3-0.1-0.7-0.2-1-0.4c-0.3,0.4-0.5,1-0.6,1.5c-0.1,0.9,0.5,1.8,1.1,2.2c0.6,0.4,1.3,0.6,2,0.7c0.6,0,1,0.1,1.4,0.3
			c0.6,0.4,0.6,1.5,0,1.9c-0.2,0.2-0.5,0.3-0.8,0.4c0.3,0.1,0.6,0.2,0.9,0.4c0.2-0.1,0.4-0.2,0.6-0.4C23.8,34.4,24,33.8,24,33.2
			 M24.8,22.9c-0.7-0.6-1.6-0.8-2.4-0.9c-0.9-0.1-1.5,0-2.2-0.1c-1.3-0.2-2.6-0.9-2.5-1.6c0-0.9,0.7-1.5,1.7-1.8
			c-0.8-0.1-1.6-0.3-2.3-0.6c0,0-0.1,0-0.1,0c-0.7,0.6-1.1,1.7-1,2.6c0,0.6,0.3,1.1,0.6,1.5c0.3,0.4,0.7,0.7,1.1,0.9
			c0.8,0.4,1.6,0.6,2.4,0.7c0.8,0.1,1.7,0,2.2,0.1c0.6,0.1,1.2,0.2,1.6,0.6c0.3,0.3,0.5,0.9,0.5,1.3c0,0.4-0.3,0.7-0.9,0.9
			c-0.2,0.1-0.4,0.1-0.5,0.2c0.6,0.2,1.1,0.5,1.6,0.9c0.3-0.2,0.5-0.4,0.7-0.6c0.3-0.4,0.5-0.9,0.5-1.4
			C25.9,24.5,25.6,23.5,24.8,22.9 M21.5,11l-0.6,1.4c0,1.1,0,2.3,0,3.5h1.2c0-1.2,0-2.4,0-3.5L21.5,11z M21.5,9l0.6-1.2
			c0-0.2,0-0.5,0-0.7c0-0.3-0.3-0.5-0.6-0.5c-0.3,0-0.6,0.1-0.6,0.5c0,0.2,0,0.5,0,0.7L21.5,9z M21,18.5c0,1,0,2.1,0,3.1h1
			c0-1,0-2.1,0-3.1H21z M21,23.8c0,0.9,0,1.9,0,2.8H22c0-0.9,0-1.8,0-2.8H21z M21.9,30.9c0-0.9,0-1.8,0.1-2.8h-0.9c0,1,0,1.9,0,2.8
			H21.9z M21.8,34.7c0-0.7,0-1.5,0.1-2.3h-0.7c0,0.8,0,1.6,0.1,2.3H21.8z M21.2,35.9c0.1,2.9,0.2,4.7,0.3,4.6c0.1,0,0.2-1.8,0.2-4.6
			H21.2z M21.5,2.5c-0.9,0-1.6,0.7-1.6,1.6c0,0.9,0.7,1.6,1.6,1.6c0.9,0,1.6-0.7,1.6-1.6C23.1,3.2,22.4,2.5,21.5,2.5 M21.5,5.8
			c-0.5,0-1-0.3-1.1-0.1c-0.2,0.1,0.2,0.9,1.1,0.9c0.8,0,1.3-0.8,1.1-0.9C22.5,5.6,22,5.9,21.5,5.8 M27.1,20.4
			c0,0.6-0.3,1.1-0.6,1.5c-0.3,0.4-0.7,0.7-1.1,0.9c0,0,0,0,0,0c-0.6-0.5-1.3-0.8-2.1-1c1.2-0.2,2.2-0.9,2.1-1.5
			c0-1-0.9-1.6-2.2-1.9c-2.3-0.4-6,0.4-8.2-2.5c-0.2-0.4-0.4-0.8-0.5-1.2c-0.1-0.5,0-0.8,0-1.2c0.1-0.8,0.5-1.6,1.2-2.1
			c1.3-1,2.5-1,3.6-1.1c0.5,0,1.4,0.6,1.8,1.2c0,0.1,0,0.2-0.1,0.3c-0.3,0.4-1.1,0.6-1.6,0.6c-0.9,0-1.4-0.9-2.5,0.4
			c-0.3,0.2-0.3,0.8-0.4,1.2c0,0.5,0,0.8,0.2,1.1c0.4,0.7,1.6,1.2,2.7,1.4c0.6,0.1,1.2,0.1,1.9,0.2c0.7,0,1.5,0.1,2.3,0.3
			c0.8,0.2,1.6,0.5,2.3,1.1C26.8,18.3,27.2,19.4,27.1,20.4 M19.2,10.7c0,0.1,0.1,0.2,0.2,0.2c0.1,0,0.2-0.1,0.2-0.2
			c0-0.1-0.1-0.2-0.2-0.2C19.3,10.5,19.2,10.6,19.2,10.7 M28.5,14.5c-0.1,0.4-0.2,0.9-0.5,1.2c-0.5,0.7-1.1,1.2-1.8,1.5
			c-0.4-0.3-0.9-0.5-1.3-0.7c-0.4-0.2-0.8-0.4-1.2-0.5c-0.1,0-0.1,0-0.2,0c0,0,0.1,0,0.1,0c1.2-0.2,2.3-0.7,2.7-1.4
			c0.2-0.3,0.2-0.6,0.2-1.1c-0.1-0.4-0.1-1-0.4-1.2c-1.1-1.2-1.6-0.3-2.5-0.4c-0.5,0-1.7-0.3-1.7-0.8c0.4-0.6,1.2-1.2,1.8-1.2
			c1,0.1,2.3,0.1,3.6,1.1c0.6,0.5,1.1,1.3,1.2,2.1C28.6,13.8,28.6,14.1,28.5,14.5 M23.9,10.7c0-0.1-0.1-0.2-0.2-0.2
			c-0.1,0-0.2,0.1-0.2,0.2c0,0.1,0.1,0.2,0.2,0.2C23.8,10.8,23.9,10.8,23.9,10.7"/>
	</g>
</g>
<g id="_x32_3_NYCRR_500">
</g>
</svg>
