<svg id="Layer_1" data-name="Layer 1" xmlns="http://www.w3.org/2000/svg" viewBox="0 0 43 43"><defs><style>.cls-1{fill:#2196f3;}</style></defs><title>iso_ico</title><path class="cls-1" d="M41.59,17.59A5.77,5.77,0,0,0,39.4,15a10.56,10.56,0,0,0-10.12-.3,5.88,5.88,0,0,0-3,4.09c-.59,2.73-.44,6,1.66,8a10,10,0,0,0,9.2,1.74,4.1,4.1,0,0,0,1-.32l.09,0a6.49,6.49,0,0,0,2.63-2A9.93,9.93,0,0,0,41.59,17.59Zm-5.17,6.13a1.68,1.68,0,0,1-1,1.25,3.44,3.44,0,0,1-2.87-.17,2.58,2.58,0,0,1-.85-2,13.42,13.42,0,0,1,.24-4.41,2.14,2.14,0,0,1,2-1.12,2.58,2.58,0,0,1,2.21.82,3.8,3.8,0,0,1,.37,1.72A26.54,26.54,0,0,1,36.42,23.72Z"/><path class="cls-1" d="M10.47,25.05c-.72,0-1.53,0-2.23-.07l0-7.55,0-.06,2.17,0c0-1.23,0-2.54,0-3.66l-8.25,0-1.36,0c0,1.14,0,2.47,0,3.64.75,0,1.45,0,2.17.07v7.32L3,25l-2.17,0c0,1.2,0,2.37,0,3.55h9.66Z"/><path class="cls-1" d="M34.78,30.22a16.81,16.81,0,0,1-3.35,3.57c0,.07-.18,0-.22,0-.55-.34-1.14-.62-1.67-1a17.87,17.87,0,0,0,1.91-2.61h-.68a15.21,15.21,0,0,1-1.84,2.35,23.53,23.53,0,0,0-2.83-1L26,31.47a10.8,10.8,0,0,0,.52-1.27h-.59l-.59,1.16a28.16,28.16,0,0,0-4-.52c-.07-.19,0-.47-.07-.65h-.57c0,.26.06.45-.07.67a25.32,25.32,0,0,0-3.94.47l-.59-1.14a1.86,1.86,0,0,0-.61,0L16,31.49l-.06.06a27.86,27.86,0,0,0-2.89,1l-.09,0a17.16,17.16,0,0,1-1.69-2.13c-.11-.37-.55-.15-.79-.2a18.61,18.61,0,0,0,1.93,2.65c-.59.35-1.18.73-1.8,1a15.78,15.78,0,0,1-3.46-3.64,2.55,2.55,0,0,0-.7,0,17.17,17.17,0,0,0,6.59,5.87,0,0,0,0,1,0,0s.06,0,0,.06a18.11,18.11,0,0,0,5.52,1.7,17.25,17.25,0,0,0,16.86-7.62A3.56,3.56,0,0,0,34.78,30.22Zm-9.13,1.94.06,0a12.24,12.24,0,0,1,2.67.92A13.73,13.73,0,0,1,26,35.1c-.5.3-1,.63-1.53.88l-.94-.41.06-.15A25.83,25.83,0,0,0,25.65,32.15Zm-4.32-.65a17.16,17.16,0,0,1,3.66.43L25,32a22,22,0,0,1-2.21,3.34,6.16,6.16,0,0,1-1.09-.13l-.37,0C21.29,33.9,21.27,32.78,21.33,31.51Zm-4.23.39a19,19,0,0,1,3.55-.39l0,3.64c-.46.1-1,.1-1.4.22A19.25,19.25,0,0,1,17,32Zm-3.53,1.16a14.39,14.39,0,0,1,2.67-.95l.09,0a33.49,33.49,0,0,0,2.21,3.42c-.31.17-.68.28-1,.45a14.76,14.76,0,0,1-4-2.88Zm2.83,3.68a15.54,15.54,0,0,1-5.13-2.41v-.07a12.53,12.53,0,0,1,1.62-.9,22.31,22.31,0,0,0,3.94,3A1.73,1.73,0,0,1,16.41,36.74Zm8.12.28a16.68,16.68,0,0,1-7.23,0c0-.11.11-.13.18-.19a6.85,6.85,0,0,1,7.21.1C24.75,37,24.57,37,24.53,37Zm2.1-.6-1,.32a2.43,2.43,0,0,1-.48-.35l0-.06a19.5,19.5,0,0,0,3.88-3,8.65,8.65,0,0,1,1.69.92A14.79,14.79,0,0,1,26.63,36.42Z"/><path class="cls-1" d="M7.12,12A20.05,20.05,0,0,1,8.89,9.9,11.65,11.65,0,0,1,10.6,8.46c.57.37,1.2.67,1.75,1a19,19,0,0,0-1.88,2.58,1.3,1.3,0,0,0,.66,0A16.64,16.64,0,0,1,13,9.75c.94.35,1.86.71,2.83,1l.09.09-.55,1.25a2,2,0,0,0,.63,0c.2-.36.35-.77.57-1.14a21.43,21.43,0,0,0,4,.47c.18.15,0,.47.11.67h.59c.06-.21,0-.45.06-.64a21,21,0,0,0,3.84-.5l.11,0,.59,1.12a1.38,1.38,0,0,0,.61,0l-.55-1.25,0,0a24,24,0,0,0,2.91-1,20.14,20.14,0,0,1,1.89,2.36,2,2,0,0,0,.66,0,8.76,8.76,0,0,0-.94-1.36,9.38,9.38,0,0,0-1-1.16V9.38L31,8.5l.22-.09A16,16,0,0,1,34.67,12c.26,0,.48.09.7,0a17.34,17.34,0,0,0-13-7.62l0,0,0,0a10,10,0,0,0-2,0,5.15,5.15,0,0,0-.81,0A17.17,17.17,0,0,0,6.42,12.05,2.48,2.48,0,0,0,7.12,12Zm9.09-1.89-.09,0a17.54,17.54,0,0,1-2.61-.88l0-.13a17.21,17.21,0,0,1,3.88-2.82c.33.13.66.24,1,.39l-.06.17A27.56,27.56,0,0,0,16.21,10.14Zm4.36.58a7.92,7.92,0,0,1-1.78-.07,11.74,11.74,0,0,1-1.93-.35,19.18,19.18,0,0,1,2.28-3.37l1.4.19C20.61,8.24,20.57,9.54,20.57,10.72Zm.68,0c0-1.14,0-2.41,0-3.6L22.6,7a18.56,18.56,0,0,1,2.26,3.35A15.54,15.54,0,0,1,21.24,10.74Zm7-1.51a14.31,14.31,0,0,1-2.67.91A36.43,36.43,0,0,0,23.3,6.76c.31-.17.68-.3,1-.47a15.46,15.46,0,0,1,4,2.88Zm-2.8-3.68A15.62,15.62,0,0,1,30.57,8l0,.09L29,8.89h-.11a19.09,19.09,0,0,0-3.9-3C25.06,5.77,25.27,5.66,25.43,5.55Zm-.88-.22v0a6.69,6.69,0,0,1-7,.23c-.11-.09-.33-.13-.35-.28A16.4,16.4,0,0,1,24.55,5.34ZM11.19,8a15.74,15.74,0,0,1,4.53-2.28c.07-.07.11-.13.2-.13v0c.18,0,.31-.15.46,0s.29.2.39.3a22.17,22.17,0,0,0-3.92,3A7.2,7.2,0,0,1,11.19,8Z"/><path class="cls-1" d="M20.59,25.22a5.81,5.81,0,0,1-5.78-1.42c-.17-.22-.28-.47-.46-.69l-3,0c0,1.74-.07,3.74,0,5.47l3.28,0,0-1c.37.17.75.39,1.12.58a9.2,9.2,0,0,0,7.47,0,4.42,4.42,0,0,0,2.28-4.52,5.19,5.19,0,0,0-3.77-3.94l-5.3-1.53-.39-.19a.6.6,0,0,1-.24-.58c.42-.71,1.38-.49,2.1-.47A5.37,5.37,0,0,1,22,19c1,0,2.08,0,3.13,0,0-1.76,0-3.31,0-5.1-1,0-2.19,0-3.17,0a4,4,0,0,1-.07.88l-1-.54c-2.41-1-5.78-1.12-8,.45a4.34,4.34,0,0,0-1.49,4.52,4.8,4.8,0,0,0,3.2,3.23c1.95.69,4,1.19,6,1.85.2.09.46.28.42.52S20.74,25.14,20.59,25.22Z"/></svg>