<svg xmlns="http://www.w3.org/2000/svg" viewBox="0 0 100.84 100.62"><defs><style>.cls-1{fill:#b1b1b1;}.cls-2{fill:#2196f3;}.cls-3,.cls-4{isolation:isolate;}.cls-4{font-size:18px;fill:#fbfbfb;font-family:OpenSans-Bold, Open Sans;font-weight:700;}</style></defs><g id="Layer_2" data-name="Layer 2"><g id="Layer_1-2" data-name="Layer 1"><g id="Group_3600" data-name="Group 3600"><path id="Path_1394" data-name="Path 1394" class="cls-1" d="M13.11,42.05l0,0h0l0,0v0Z"/><path id="Path_1395" data-name="Path 1395" class="cls-1" d="M8.71,38.28v0h0l0,0Z"/><path id="Path_1397" data-name="Path 1397" class="cls-1" d="M34.81,49.6l0,0v0Z"/><path id="Path_1398" data-name="Path 1398" class="cls-1" d="M51.76,80.44l0,0h0Z"/><path id="Path_1399" data-name="Path 1399" class="cls-1" d="M89.84,51.74l0,0h0Z"/><path id="Path_1400" data-name="Path 1400" class="cls-1" d="M91.23,23.17l0,0h0Z"/><path id="Path_1401" data-name="Path 1401" class="cls-1" d="M74.43,17.22l0,0h0l0,0Z"/><path id="Path_1402" data-name="Path 1402" class="cls-1" d="M74.47,17.08h0l0,0,0-.06h0l0,0,0,0,0,0,0,0,0,0Z"/><path id="Path_1403" data-name="Path 1403" class="cls-1" d="M72.83,17h0v0Z"/><path id="Path_1404" data-name="Path 1404" class="cls-1" d="M72.81,17.12v0h0v0l0,0v0l0,0,0,0v0h0V17h0v0l0,0,0,0h0v0h0l0,0,0,0h0l0-.06-.08.06V17h0l0,0,0,0,0,0v0h0l0,0,0,0,0,0v0Z"/><path id="Path_1405" data-name="Path 1405" class="cls-1" d="M73.07,17.06l0,0,0,0h0v0l0,0,0,0h0Z"/><path id="Path_1406" data-name="Path 1406" class="cls-1" d="M72.83,16.9l0,0V16.8h0v0l0-.06,0-.06v0l0,0h0v-.12h0l0,0,0,0h0v0l0,0,0,0v0l0,0v.18l0,0,0,0v0Z"/><path id="Path_1407" data-name="Path 1407" class="cls-1" d="M72.45,16.8l0,0h0v0Z"/><rect id="Rectangle_1556" data-name="Rectangle 1556" class="cls-1" x="72.27" y="16.84" width="0.02" height="0.02"/><path id="Path_1408" data-name="Path 1408" class="cls-1" d="M72.69,17v0l0,0v0l0,0v0Z"/><path id="Path_1409" data-name="Path 1409" class="cls-1" d="M73.05,17v0h0Z"/><rect id="Rectangle_1557" data-name="Rectangle 1557" class="cls-1" x="72.81" y="16.84" width="0.02" height="0.02"/><path id="Path_1410" data-name="Path 1410" class="cls-1" d="M72.71,16.72v0l0,0h0l0,0v0h0v.08h0l0,0,.06,0h0l0,0,0-.06,0,0,0-.06Z"/><path id="Path_1411" data-name="Path 1411" class="cls-1" d="M73,16.9v0h0l0,0Z"/><path id="Path_1412" data-name="Path 1412" class="cls-1" d="M72.41,16.58v0l0,0,0,0h0l0,0,0,0h0v.06l0,0Z"/><path id="Path_1413" data-name="Path 1413" class="cls-1" d="M72.45,16.68l0,0v0l0,0,0,0v0Z"/><path id="Path_1414" data-name="Path 1414" class="cls-1" d="M74.37,17.06v0l0,0v0Z"/><path id="Path_1415" data-name="Path 1415" class="cls-1" d="M73.42,17.26l0,0,0,0v0h0Z"/><path id="Path_1416" data-name="Path 1416" class="cls-1" d="M73,16.8l.06,0h0l0,0h0v0h0l0,0,0,0v0l0,0,0,0v0h0l0,0,0,.06h0Z"/><path id="Path_1417" data-name="Path 1417" class="cls-1" d="M74.31,17.37h0v0Z"/><path id="Path_1418" data-name="Path 1418" class="cls-1" d="M74.3,17.37h0v0Z"/><path id="Path_1419" data-name="Path 1419" class="cls-1" d="M74.37,17.14v.09l0,0,0-.13,0,0h0Z"/><path id="Path_1420" data-name="Path 1420" class="cls-1" d="M74.33,17.35l0,0,0,0,0,.06,0,0,0,0h0l0,0Z"/><path id="Path_1421" data-name="Path 1421" class="cls-1" d="M74.24,17.29v0l0,0v-.06Z"/><path id="Path_1422" data-name="Path 1422" class="cls-1" d="M74.24,17.41l.05,0v0l-.05,0Z"/><path id="Path_1423" data-name="Path 1423" class="cls-1" d="M74.25,17.31v0l0-.06v0l0,0h0v0h0l0,.07,0,0Z"/><path id="Path_1424" data-name="Path 1424" class="cls-1" d="M75,18.29v0l0,0Z"/><path id="Path_1425" data-name="Path 1425" class="cls-1" d="M74.91,17.61l0,0,.06,0,0,0v0h0l0,0h0v0l0,0,0,0,.08-.12h0l0,0v0l0,0-.06,0Z"/><path id="Path_1426" data-name="Path 1426" class="cls-1" d="M75.05,17.67v0l0,0Z"/><path id="Path_1427" data-name="Path 1427" class="cls-1" d="M75.41,18.25l0,.07v-.07Z"/><path id="Path_1428" data-name="Path 1428" class="cls-1" d="M75.15,18l0,0,0,0h0v0h0l0,0Z"/><path id="Path_1429" data-name="Path 1429" class="cls-1" d="M75,17.53l0,0h0l0,0h.06l0,0v-.12l0,0h-.06v0l0,0v0Z"/><path id="Path_1430" data-name="Path 1430" class="cls-1" d="M76.81,19.85v0h0Z"/><path id="Path_1431" data-name="Path 1431" class="cls-1" d="M75.49,18.19v0h0Z"/><path id="Path_1432" data-name="Path 1432" class="cls-1" d="M75.19,17.93v0l0,0h0l0,0Z"/><rect id="Rectangle_1558" data-name="Rectangle 1558" class="cls-1" x="75.46" y="18.21" width="0.02" height="0.02"/><path id="Path_1433" data-name="Path 1433" class="cls-1" d="M74.93,17.67l0,0v0l0,0h0Z"/><path id="Path_1434" data-name="Path 1434" class="cls-1" d="M75.13,17.61l0,0v.08l.06-.06,0,0v0l0,0h0Z"/><path id="Path_1435" data-name="Path 1435" class="cls-1" d="M77,19.81v0l0,0Z"/><path id="Path_1436" data-name="Path 1436" class="cls-1" d="M73.2,17.2h0v0Z"/><path id="Path_1437" data-name="Path 1437" class="cls-1" d="M77.05,19.79l0,0,0,0Z"/><path id="Path_1438" data-name="Path 1438" class="cls-1" d="M75.92,18.84l0,0,0,.06h0Z"/><path id="Path_1439" data-name="Path 1439" class="cls-1" d="M75.92,18.92,75.8,19h0l.06,0Z"/><path id="Path_1440" data-name="Path 1440" class="cls-1" d="M75.56,18.29h0l0,.06,0,0v0h0l0,0,0,0,0,0,0,0,0-.06,0,0,0,0h0Z"/><path id="Path_1441" data-name="Path 1441" class="cls-1" d="M75.86,19h0l0,0v0l0,0,0,0h0l0,0v0Z"/><path id="Path_1442" data-name="Path 1442" class="cls-1" d="M75.84,19.12v0l0,0Z"/><path id="Path_1443" data-name="Path 1443" class="cls-1" d="M74.24,17.21v-.06h0v0l0,0v0h0v0l0,0Z"/><path id="Path_1444" data-name="Path 1444" class="cls-1" d="M73.22,17.1v0l0,0,0,0,0,0Z"/><path id="Path_1445" data-name="Path 1445" class="cls-1" d="M75,17.69l0,0v0Z"/><path id="Path_1446" data-name="Path 1446" class="cls-1" d="M74.53,17.12l0,.06,0,0h0l0-.08,0,0,0,0,0,.08.06.06h0l0,0v0h0l0,0v0h0v0l.08-.06,0,0h0l-.06,0,.08,0h-.06v0l0,0,0,0v0h0l0,0h0v0l0,0,0,0h0v0h0v0l0,0,0,.08,0,0,.06,0h0v0l0-.06-.08,0,0,0h-.06v0l0,0h0v0l0,0h0l0,0h0l0,0,0,0,0,0,0,0,0,0h0l0,0,.06,0v0l-.06,0,0,0h0v0Z"/><rect id="Rectangle_1559" data-name="Rectangle 1559" class="cls-1" x="75.25" y="17.71" width="0.02" height="0.02"/><path id="Path_1447" data-name="Path 1447" class="cls-1" d="M74.2,17.25h0Z"/><path id="Path_1448" data-name="Path 1448" class="cls-1" d="M75.51,18.29l0,0,.07,0v0l0,0-.08.06h0v.07h0Z"/><path id="Path_1449" data-name="Path 1449" class="cls-1" d="M77,19.81l0,0v0l0,0Z"/><path id="Path_1450" data-name="Path 1450" class="cls-1" d="M82.64,20.63h0l0,0Z"/><path id="Path_1451" data-name="Path 1451" class="cls-1" d="M75.11,17.73v0l0,0Z"/><path id="Path_1452" data-name="Path 1452" class="cls-1" d="M73.52,17.2h0l0,0Z"/><path id="Path_1453" data-name="Path 1453" class="cls-1" d="M73.22,17.18Z"/><rect id="Rectangle_1560" data-name="Rectangle 1560" class="cls-1" x="70.35" y="15.75" width="0.02" height="0.02"/><path id="Path_1454" data-name="Path 1454" class="cls-1" d="M70.94,16.2l0,0h0l0,0v0h0Z"/><path id="Path_1455" data-name="Path 1455" class="cls-1" d="M70.84,16.06l0,.06,0,.06.08-.06v0h0l0,0v0l0,0,0,0,0,0Z"/><path id="Path_1456" data-name="Path 1456" class="cls-1" d="M67.17,15.35h0v0h0l0,0,0,0Z"/><rect id="Rectangle_1561" data-name="Rectangle 1561" class="cls-1" x="70.78" y="16.2" width="0.02" height="0.02"/><path id="Path_1457" data-name="Path 1457" class="cls-1" d="M69.3,15.41l0,0v0h0v0l.08,0Z"/><path id="Path_1459" data-name="Path 1459" class="cls-1" d="M70.35,15.85l0,0,0,0v0Z"/><path id="Path_1460" data-name="Path 1460" class="cls-1" d="M71.1,16.1l0,0h0l0,0,0,0,0,0Z"/><path id="Path_1462" data-name="Path 1462" class="cls-1" d="M71.68,16.36h0v0l0,0,0,0,0,0v0l0-.06h0l0,0Z"/><rect id="Rectangle_1562" data-name="Rectangle 1562" class="cls-1" x="71.38" y="16.03" width="0.02" height="0.02"/><path id="Path_1463" data-name="Path 1463" class="cls-1" d="M73.86,75.27v0l0,0,0,0h0l0,0-.06,0v0h0v0h0v0h0l0,0h0l0,0,0,0h0v0h0l0,0,0,0v0h0V75l0,0h0v0h0v0l0,0h0l0,0h0v0h0l0,0H73.6v0l0,.06h0v0l0,0v0h0v.06l0,0-.08.09h0l0,0h0l0,0v0h0l0,0h0v.08l0,0,0,0,.06,0h0l.1,0,0,0,0,0v0h0l0,0,0,0h0l0,0v0l0,0,0,0,0,0,0,.06.06,0,0,0v0l0,0h0v0h0V75.3l0,0,0,0,0,0Z"/><path id="Path_1465" data-name="Path 1465" class="cls-1" d="M73.88,75.07h0l0,0Z"/><rect id="Rectangle_1563" data-name="Rectangle 1563" class="cls-1" x="73.12" y="75.15" width="0.02" height="0.02"/><path id="Path_1466" data-name="Path 1466" class="cls-1" d="M74.13,75l0,0h0v0l0,0,0,0,0,0,0,0-.06,0Z"/><path id="Path_1467" data-name="Path 1467" class="cls-1" d="M72.45,75.17v0h0v0l0,0Z"/><path id="Path_1468" data-name="Path 1468" class="cls-1" d="M74.1,74.43l0,0,0,0v0l0,0,0,0Z"/><rect id="Rectangle_1564" data-name="Rectangle 1564" class="cls-1" x="69.59" y="76.54" width="0.02" height="0.02"/><rect id="Rectangle_1565" data-name="Rectangle 1565" class="cls-1" x="72.61" y="75.03" width="0.02" height="0.02"/><rect id="Rectangle_1566" data-name="Rectangle 1566" class="cls-1" x="69.57" y="76.52" width="0.02" height="0.02"/><path id="Path_1469" data-name="Path 1469" class="cls-1" d="M71.16,75.68l0,0v0l0,0Z"/><path id="Path_1470" data-name="Path 1470" class="cls-1" d="M74.85,74v0l0,0Z"/><rect id="Rectangle_1567" data-name="Rectangle 1567" class="cls-1" x="74.85" y="74" width="0.02" height="0.02"/><path id="Path_1471" data-name="Path 1471" class="cls-1" d="M74.73,74v0h0Z"/><path id="Path_1472" data-name="Path 1472" class="cls-1" d="M74.33,74.35l0,0h0l0,0,0,0,0,0h0v0l.06,0,0,0v0l0,0Z"/><path id="Path_1474" data-name="Path 1474" class="cls-1" d="M74.43,74.89h0v0l0,0h0v0h0l0,0Z"/><rect id="Rectangle_1568" data-name="Rectangle 1568" class="cls-1" x="74.71" y="74.06" width="0.02" height="0.02"/><rect id="Rectangle_1569" data-name="Rectangle 1569" class="cls-1" x="74.61" y="73.96" width="0.02" height="0.02"/><path id="Path_1476" data-name="Path 1476" class="cls-1" d="M75.5,73.1h0Z"/><rect id="Rectangle_1570" data-name="Rectangle 1570" class="cls-1" x="75.54" y="73.48" width="0.02" height="0.02"/><path id="Path_1477" data-name="Path 1477" class="cls-1" d="M75.31,73.58h0v0Z"/><path id="Path_1478" data-name="Path 1478" class="cls-1" d="M75.49,73.54h0l0,0v0h0l0,0Z"/><rect id="Rectangle_1571" data-name="Rectangle 1571" class="cls-1" x="75.56" y="73.44" width="0.02" height="0.02"/><path id="Path_1479" data-name="Path 1479" class="cls-1" d="M75.42,73.56l0,0v0Z"/><path id="Path_1480" data-name="Path 1480" class="cls-1" d="M75.27,73.38v0l0,0,0,0Z"/><rect id="Rectangle_1572" data-name="Rectangle 1572" class="cls-1" x="75.42" y="73.12" width="0.02" height="0.02"/><rect id="Rectangle_1573" data-name="Rectangle 1573" class="cls-1" x="75.39" y="73.14" width="0.02" height="0.02"/><rect id="Rectangle_1574" data-name="Rectangle 1574" class="cls-1" x="75.47" y="73.12" width="0.02" height="0.02"/><path id="Path_1481" data-name="Path 1481" class="cls-1" d="M79.35,72.35h0v0Z"/><path id="Path_1482" data-name="Path 1482" class="cls-1" d="M77.13,72.83l0,0h0Z"/><path id="Path_1483" data-name="Path 1483" class="cls-1" d="M79.33,72.33v0l0,0Z"/><path id="Path_1484" data-name="Path 1484" class="cls-1" d="M75.37,73.54l0,0v0h0v0l0,0h0v0h0v0h0l0,.06h0v0Z"/><rect id="Rectangle_1575" data-name="Rectangle 1575" class="cls-1" x="75.62" y="73.1" width="0.02" height="0.02"/><path id="Path_1485" data-name="Path 1485" class="cls-1" d="M79,72.63h.06l0,0,0,0H79l0,0h0v0h0Z"/><path id="Path_1486" data-name="Path 1486" class="cls-1" d="M77.23,73l0,0v0h0l0,0v0h0Z"/><rect id="Rectangle_1576" data-name="Rectangle 1576" class="cls-1" x="77.39" y="72.83" width="0.02" height="0.02"/><rect id="Rectangle_1577" data-name="Rectangle 1577" class="cls-1" x="75.6" y="73.12" width="0.02" height="0.02"/><rect id="Rectangle_1578" data-name="Rectangle 1578" class="cls-1" x="77.27" y="72.93" width="0.02" height="0.02"/><path id="Path_1487" data-name="Path 1487" class="cls-1" d="M78.08,73.07l0,0h0l-.14,0-.1,0-.23,0h-.1l-.08,0,0,0v0l0,0h0l-.06,0h-.06l0,0-.06,0h0v0l0,0h0l0,0h0v0h.06l.08,0,.24,0,.2,0,.29,0h.2l0,0,0,0v0Z"/><path id="Path_1488" data-name="Path 1488" class="cls-1" d="M83,71.42l0,0v0h0l0,0h0Z"/><rect id="Rectangle_1579" data-name="Rectangle 1579" class="cls-1" x="79.11" y="73.14" width="0.02" height="0.02"/><rect id="Rectangle_1580" data-name="Rectangle 1580" class="cls-1" x="78.88" y="73.04" width="0.02" height="0.02"/><rect id="Rectangle_1581" data-name="Rectangle 1581" class="cls-1" x="82.98" y="71.4" width="0.02" height="0.02"/><path id="Path_1489" data-name="Path 1489" class="cls-1" d="M79.49,72.91l0,0h0Z"/><path id="Path_1490" data-name="Path 1490" class="cls-1" d="M82.19,72.87h0l0,0Z"/><path id="Path_1491" data-name="Path 1491" class="cls-1" d="M76.71,73.05v0h0Z"/><path id="Path_1492" data-name="Path 1492" class="cls-1" d="M76.75,73.36v0l0,0h0v-.06h0l0,0,0,0,0,0v0H76.6v0h-.08v0l0,0h0v0h.06v0h-.1v0h0v0h0v0h0v0h-.06l0,0h0l0,0h0l0-.06-.06,0v0h0l0,0,0,0h0l0,0h0l0,0h0l0,0h0l0,0,0,0v0l0,0,0,0v0l0,0,0,0v0h0v0l.06-.06,0,0,0,0h.08l0,0,0,0,0,0,0,0,0,0h0l0,0h0l.06,0,0,0v0l0,0v0h0v0h0l0,0,0,0,0,0,0,0h0l0,0h0l0,0h0l0,0h-.06Z"/><path id="Path_1493" data-name="Path 1493" class="cls-1" d="M76.93,73l0,0H77l0,0Z"/><rect id="Rectangle_1582" data-name="Rectangle 1582" class="cls-1" x="78.82" y="73.06" width="0.02" height="0.02"/><path id="Path_1494" data-name="Path 1494" class="cls-1" d="M77.33,72.77v0l0,0,0,0v0l0,0,0,0,0,0h0l0,0h0v0l0,0Z"/><path id="Path_1495" data-name="Path 1495" class="cls-1" d="M76.65,73.07v0l0,0Z"/><path id="Path_1497" data-name="Path 1497" class="cls-1" d="M79.07,72.49l0,0h0l0,0v0l0,0,0,0h0l0,0v0l0,0,0,0v0h0l0,0v0l0,0h0l0,0,0,0h-.06l0,0h0l0,0,0,0v0h0l0,0,0,0,0,0h0v0l0,0,0,0Z"/><path id="Path_1498" data-name="Path 1498" class="cls-1" d="M77.33,73.05l0,0h0Z"/><path id="Path_1499" data-name="Path 1499" class="cls-1" d="M79,72.55v0h0Z"/><rect id="Rectangle_1583" data-name="Rectangle 1583" class="cls-1" x="65.31" y="85.08" width="0.02" height="0.02"/><path id="Path_1501" data-name="Path 1501" class="cls-1" d="M65.65,84.31l0,0v0Z"/><path id="Path_1502" data-name="Path 1502" class="cls-1" d="M65.82,84.43l-.07,0,0,0v-.06h0v-.06l0,0,0,0,0,0v0l0,0h0v0l-.06,0-.06,0h-.12l0,0,0,0h.06v0h0v0h0l0,0v0h0l0,0,0,0,0,0v0h0l0,0,0,0,0,0,0,0,0,0h0l0,0v0l-.06,0,0,0,0,0,0,0v0l0,0h0l0,0,0,0,0,0,0,.08h-.08l0,.06v0h0l0,0h0l0,.06,0,.06,0,0,0,0h0l0,0v0l0,0,0,0,0,0,0,0,0,0,0,0h0v0l0,0v0l0-.06,0,0,0,0h0v0l0,0,0,0,0,0h0v0h0v0h0v0h0v0h0v0l0,0v0l0-.08,0-.06,0,0,0,0v0l0,0h0v0l0,0,0,0v0l0,0h0l0,0v-.08l0-.06,0-.08.06,0v-.09l0,0v0h0Z"/><path id="Path_1503" data-name="Path 1503" class="cls-1" d="M51.82,83.54h0l0,0,0,0Z"/><path id="Path_1504" data-name="Path 1504" class="cls-2" d="M100.67,32.05l0,0V32l0,0,0-.06,0,0,0,0v0l0,0v-.12h0l0,0v.06l0,0,0,0h0l0-.06v0l0,0v0h0v0h0v-.08h0v0h0v0h0l0,0,0,0,0,0,0-.07v0l0,0,0,0,0,0,0,0-.06-.06v0l0-.08V31h0v0h0l0-.06,0,0,0,0,0,0v0l0,0,0,0,0,0,0-.08V30.3l0,0v-.14l0-.1,0-.06,0,0h-.06l0,0,0-.06,0-.06,0,0v-.07l0-.14v0H100l0,0h0l0,0,0-.06v0l0,0v0l0-.12v-.23h0v0l0-.06,0-.06,0,0v0h0l0-.06H99.7l0-.06v-.18h.08l0,0,0,0,0,0v0h0l0,0v-.06l0,0v0l0-.12v0h0l0,0v-.12h0l0-.06V28h0l0-.07,0,0v-.06l0,0v0l0,0v0l0,0,0,0,0,0v-.08h0l0-.06v0l0,0,0,0,0,0,0,0,0-.14,0-.06,0,0,0,0L99,27,99,27l0,0,0,0-.06-.06H98.8l-.06,0-.08,0-.13-.06v0h0l0,0,0,0-.14-.05h0l0,0-.1,0,0,0,0,0h0l0,0-.06,0-.06,0h-.06l-.07,0-.1,0h-.14l0,0h-.06l-.06,0h-.06l-.06,0-.06,0-.06,0H97l-.08,0h0l-.06,0v.06l-.06,0,0,0,0,0h-.06l-.09,0-.08,0-.12,0h-.06l-.06,0h-.06l0,0-.06,0h0l0,0,0,0,0,0-.1,0-.06,0,0,0v-.06h0l0,0,0,0,0,0,0,0,0,0-.07,0-.08,0-.1-.1-.06-.06-.06-.06h-.06l-.06,0-.1-.06,0,0,0,0H95l-.06,0,0,0,0,0-.06,0,0,0h0l0,0,0,0-.06,0h0l-.06,0-.06-.06,0,0-.06-.08,0,0,0-.08,0-.12,0,0,0-.06-.07-.06,0,0h.08l0,0,0,0-.08,0-.14-.06h0v0l0,0,0,0-.06,0,0,0-.06,0-.06,0-.12-.1,0,0,0,0-.06-.06,0,0,0,0-.06-.06,0-.06,0-.07L93,25h0L93,25l0,0,0,0h-.07l-.06-.06h0l-.1-.06-.06-.06-.1-.1-.06-.06,0,0-.06,0-.06-.06,0,0-.12-.14-.06,0-.06-.12,0,0-.06-.1,0-.07,0,0-.06-.06,0,0-.06-.08,0-.06,0,0h0v0h0l0,0,0,0,0,0,0,0-.07-.06-.06-.06-.08-.14-.08-.12v0l-.08-.16,0,0v0h0l0,0,0,0h-.06l0,0h0l0,0,0,0,0,0h0v.06h-.06l-.06,0,0,0-.1-.1-.06,0h0l-.06-.06,0,0-.08-.1,0,0H90.3l-.06,0,0,0-.06-.06h-.06l0,0,0-.06h0v0l0,0,0-.06-.08-.07h0l0,0h0l0,0h0l0,0v0l-.06,0-.06-.06,0-.06h-.08l-.06,0v0h0l-.06-.08-.1-.12,0,0,0,0H89l0,0,0,0h.15l0,0L89,21.79l-.06,0-.06,0,0,0-.06-.07-.06,0-.06,0-.07-.06-.08,0-.08-.06-.06,0h0l0,0,0-.06,0-.06,0,0,0,0h0l0,0,0,0,0,0H88l-.06,0h0l-.06-.06-.06,0-.06-.06,0,0L87.6,21l-.06-.06h0l0,0h0l-.06,0,0,0-.06,0,0,0-.08,0,0,0h0l-.08-.07,0,0h0l0,0-.06,0H87v0l-.07,0h-.08v0l-.06,0,0,0-.08-.06,0,0-.08,0-.1,0v0h-.06l-.1,0-.12,0h-.14l-.06,0-.1-.06-.06,0v0l0,0-.09,0,0,0-.06,0-.14,0-.06,0,0,0h-.14l-.06.06-.06,0h0l0,0,0-.06h0l0,0,0,0,0,0v0H85l0,0,0,0h-.1l0,0-.06,0,0,0-.14,0H84.5l0,0,0,0-.06,0-.15,0,0,0h-.1l-.06,0,0,0,0,0-.12.06h0l0,0-.06,0h0l-.06,0-.06,0,0,0,0,0,0,0-.08,0h0l0,0h-.06l-.06,0h0l-.06,0h0l-.1-.06L83,20.83v0l-.06,0-.1-.1h0l-.06,0-.08-.06,0-.06,0,0,0-.06h-.32l-.06,0,0,0,0,0,0,0,0,0,0,0L82,20.41v0h0v0H82l-.06,0h-.13l-.14,0,0,0h0v.12h0l-.06.06h-.1l0,0h0l0,0-.1.06-.16,0-.1,0h0l0,.06,0,0-.06-.06-.1,0v0H80.7l-.06-.06-.12-.08-.18-.18-.06,0h0l0,0,0,0,0,0,0,0h0v0h0v0l0,0,0,0,0,0,0,.08,0,.06,0,0,0,0,0-.06,0,0,0-.06h-.06l0,0v0l0-.06,0,0v0l0,0,0,0,0,0h0l0,0h-.08L80,20.2l-.26-.14-.1,0-.06,0-.23-.12-.16-.06-.06,0-.3-.08h-.1l-.06,0h0v0h0l-.06,0H78.5l0,0-.08,0,0,0,0,0,0-.06-.12-.26-.06,0-.06,0-.06,0-.09.08-.12.08,0,0-.08.18,0,0,0,0,0,0,0,0h0v0h0l-.08.06-.08.06,0,0-.06.08,0,.07-.06.12-.08.08-.06.08-.06,0,.06-.08.06-.16-.06,0L77,20H76.9l0,.06,0,0,0,0h0l0,0v0l0,0h0l0,0,0,0,.07,0,0,0h0l0,0,0,0v0h0v0l0,0h0v0l0,0h0v0l0-.08-.1,0H76.8v0h0l0,0,0,0v0l0,0,0,0,0,0,0,0-.06,0v0h0l0,0,0,0,0,0,0,0,0,0-.06,0,0,0-.08,0H76.3l0,0,0,0,0,0L76.1,20h0l-.1-.13h0v0l0,0,0-.06,0,0v0l0,0H76l.06,0,0,0,0,0,0,0,0,0,0,0,0,0-.06-.12h0l0,0,0,0,0,0,0-.08v-.06l0,0v0l0,0v0h0v0l0,0,0,0,0-.06h0l0,0,0,0h0l0,0-.06-.06,0,0-.06,0,0,0v-.23l0,0,.06,0,0-.06v0l0,0h0l0,0,0,0v-.06h0l0,0,0,0-.06,0,0,0,0,0v0l0,0,0,0,0,0v0l0,0v-.06l0,0,0,0,0-.1,0,0h0v.08l0,0v0l0,0v0l-.06,0,0,0v0l0,0v-.06h0l0,0,0,0h0l0,0h0l.06,0,.06-.06v0l0,0,0,0,0,0,0,0,0,0,0,0,0,0,0,0-.06,0h0l0,0,0,0,0,0v0h0l0,0h0l0,0,0-.06,0,0,0,0,0,0,0-.06,0,0,.06-.1,0,0,0,0L75.44,18h-.06l0,0v.08l0,0h0v0h0v0l0,0v0l0,0,0-.06,0,0,0,.06,0,0,0,0,0,.06v-.06h0v0h.06l0-.06,0,0v0l0,0,0,.06-.06,0h0l0,.06,0,0v0l0,0v0l0,0,0,0,0,0v0l-.12,0H75l0,.06h0l0,0-.06,0,0,0h0v0h0l0,0H75l0,0h0l.06,0,0,0,.06-.06,0,0h0l0,0h0V18h0l0,0h-.06l0,0,0,0H75v0l0,0h0v.1l0,0,0,0,0,0v0h.06l0,0-.06,0,0,0,0,0h0v0h0l0,0h0v0h0v0l0,0,0,0h0l0-.06,0,0,0,.06h.08l0,0v0h0v0l0,0,0,0,0,0,0,0,0-.06v-.06l0,0,0-.06,0,0v0l0,0,0,0,0,0,0,.06,0,0,0,0,0,0v-.06l.06-.06v0l0,0h0l0,0-.06.06v0l0,.06,0,0,0,0h0l0,0,0,0,0,0v0h0v0h0l0,0v-.06l0,0,0,0h0v0l0,.06,0,0v0l0,.06-.06,0,.06-.06,0,0L75,17.75h0l0,.06,0,0h0l0,0,0,0v0l-.06-.06h0v.06l-.06.06v0l0,0,0,0,0,0h0v0l0,0v-.06l0,0,0,0,0,0h0l0,0v0l0,0h0l0,0,0,0,0,0,0,0h.06l-.06,0h0l.06,0v-.06l0,0v.06l0,0,0-.1,0-.06v0l0,0-.06.08h-.09l0,0,0,0,0,0h0v0l0,0,0,0,0,.06,0,0,0,0-.06.06,0,0v0h.06l-.1,0,0,0,0,0,0,0v-.06h0l0,0,0,0,0,0v0l0,0h0l0,0h0l0,0,0,0h0l0,0h-.06l0,0,0,0,0,0,0,.06,0,0,0-.06v-.08l0,0v0l0,0,0,0v0l0,0H74.1v0l0,0,0,0,0-.06v0h0l0,.06,0,0v0l0,0v.08l0,.06,0,0v-.06l0,0h0l.06,0,0,0,0,0,0,0,0,0h0v0h0l0,0v0h0v0l0,0v0h0l0,0,0,0h0l0,0,0,0h0l0,0-.06.06v0l0,.06v0l0,0,0,.06v0l0,0,0,0,0,0v0l0-.06-.06,0,0,0v.08l0,.1,0,0v.07h0v0l0-.05,0,0,0-.08h.16l0,0v0l0,0,0-.06,0,0,0,0,0,0,0,0v0h0l0,0h0v0l.06-.1v0l0-.06,0,0v0l0-.06,0,0v0l0,0v0l0-.06,0,0,0,0v.1l0,0h0l0,0,0,0,0,0,0,0,0,0v0l0,0,0,0v0l0,0v-.06h-.06l0,0h0l0,.08,0-.06v0l0,0v0l.06,0,.06,0h0v0l0,0v0l0,0,0,0,0,0v0h0l0-.15h0v-.08l0,0v0l0,0-.06,0,0,0v0l.06,0v0l0,0,0,0,0,0,0,0h0v0l0,0v0h0l0,0,0,0,0,0v0h0l0,0,0,0h0l0,0v0l0,0,0,0,0,0,0,0,0,0,0,0,0,0,0,0,0,0h0v0l0,0,0,0v0l0,0,0,0v0l0,0,0,0v0l0,0,0,0v-.06l0,0,0,0v0h0l-.06.06v0l0,0v0l0,.06v.06l0,0h0v0l-.06,0,0,0,0,0,0,0,0,0v-.06h0l0,0,0,0,0,0h0l0-.06v0l0-.06,0,0h0v0l0,0,0-.06v-.06l0,0h0l0,0v0h0l0,0,0,.06,0,0,0,0,0-.06,0-.06-.06,0,0,0h0v0h0v0h-.06v.1l0,0v0l0,0,0,0,0,0,0,0,0,0,0,0h0l0,0v0l0,0,.06-.06,0,0v0l0,0h-.06l.06,0v0l0,0v-.05h0l0,0,0,0v0l0,0,0,0,0,0v0l0,0h0l0,0h0v0l0,.05,0,0,0,0,0-.07,0,0,0,0v0l0,0v0l0,0v0l0,0h0l0,0,0,0,0-.06h0l-.06.06,0,0v0l0,0L73,17l0,0,0,0,0,0,0,.05,0,0h0l0,0h0l0,0v-.1l0-.06,0,0,0,0,0,0,0,0-.06,0,0,0,0,.08,0,0v.09l0,.06,0,0h-.06l0,0,0,0h-.06l0,0v0l0,0h0l0,0,0,0,0,0,0,0,0-.08,0,0,0,0v0h0l0,0,.1-.07,0,0V17l0,0,0,0h0v0l0,0v0l0,0,0-.06,0,0h.06l0,0,0,0v0l0-.06,0-.06h0l0,0,0,0h0l0,0,0,0h0v0l0,0,0,0,0,0v0h0l0,0h0v0l0,0,0,0h-.06l-.06,0,0,0,0,0,0,0v0h0v0l0,.06v.06h0v0l0,.06,0,.06v.06h0v0h0l0,0v0l0,0h0l0,0,0,0v0h0l0,0,0,0v0h-.07v0l0,0v0h0l.07-.08,0,0v0l0-.06,0,0,0,0,0,0v0l0,0,0,0,0,0,0,.1,0,.06,0,0,0-.08,0,0,0,0v0l0,.08,0,.08h-.07v0l.09-.06v0l0,.06,0,0v0l.06,0v0l-.06,0h-.07l0,0,0,0h0l0,0,0,0,0,0,0,0,0,0,0-.06v0l0,0,0,0,0,0v0h0v0h0l0,0h0l0,0v0l0,0h0l0,0,0,.06v.06l0,0v0h0l0,0h0l0,0v0l.07-.06v0l.06,0v0l0,0,0,0,0-.08,0,0-.06,0,0,0,0,0,0,0h0l-.07.06v0h0l0,0v0h0l0,.06-.06.14v0l0,.08,0,0,0,0,0-.06,0,0,0,0v-.06l0,0h0v0l0,0h0l0,0v0h0l0,0,0,0,0,0v0l0,0,0,0,0,0,0,0,0,0H72v0h0l0,0,0,0,0,0h0v0l0,0v0h0v0l0,0,0,0v0h0v0h0v0l0,0v.08h0v0l0,0h0v0l0,.06h0l0,0v.1l0,0v0l0-.06v-.06h0l0,0v0l0,0v0l0,0v.1l-.06,0v0h0l0-.06,0-.06v-.06l.06,0,0,0h0v0l0,0v-.06l.07-.07v0l0,0v0l0,0v0l0,0h0l-.08.07,0,0,0,0,0,0v.06l0,0h0v0h0l0,0,0-.1,0,0h0l0,.08,0,0,0,.08h0v0l0-.06,0,0h0l.06-.06,0-.1,0,0V16.2l0,0,0,0h0l0,0,0,0v.08l0,.06-.08.06,0,.06v.07l0,0,0,0,0,0,0,0v-.07l0,0v-.06l0,0,.06-.08,0,0h0v-.06l0-.06h0l0,0,0-.07,0,0v0h0v0l0,0v0l0,0,0,0,0,0,0,0,0,0,0-.06-.06,0,0,0,0,0h0l0,0v-.08l0,0,0,0h0v0l0,0h-.06v0l0,0,0,0v0h.08l-.06,0v0h0l0,.06v0l0,0,0,0,0,0v0l0,0,0,0,0,0,0,0,0,0,0,0,0,0,0,0h0v0h0l0,0,0-.06v0l0,0,0,0v.1l0,0v0h.06l0,0,0,0,0,0H71v0l0,0v-.1l0,0,0,0h0l0,0,0,0v.08l0,0v0l0,.06h0l0,0v0l0-.06v-.06h0l0,0h0v0h0l0,0,0,.06,0,0v0l0,0v0h0v0l0,0h0l0,0v-.06l0,0-.06,0,0,0v0l0,0v0l.06,0,0,0v0l0,0,0,0h0l0,0v0l0,0v0l0,0,0,0,0,0h0v-.06l0,0-.06,0,0,0h0l0,0,0,0,0,0,0,0h0v0l0,0,0,0,0,0h0v0l0,0,0,0,0,0h0l0,0,0,0v0l0,0-.06,0h0v0h0l0,0,0,.06,0,0v0l0,0h0l0,0v0h0v0h0l0,0V16l0,0,0,0,0,0,0,0v-.06h0v0l0,.06,0-.06V16l0,0,0,0,0,0v.08l0,0h0l0,.06h0l0,0v0l0,0h0l-.06,0h-.13l0,0h0l0,0,0,0h0l0,0,0,0h.06l0,0v0l0,0h0l0,0,.06,0,0-.06h0l0,0,0,0v0h0l0,0v0l0,0,0,0v0l0,0,0,0,0,0,0,0-.06,0,0,0v0h0l0,0h0v0l0,0,0,0,0,0,0,0h0v0l0,.06h0l0,0,0,0v0h0v0h0l0,0,0,0,0-.06,0,0-.06,0,0,.08,0,.06v0l0,0,0,0,0,0v0l0-.08,0-.08,0,0,0,0,0,0,0,.06,0,0h0l0,0,0,.06v0h0v0l0,0v0l0,0v0l0,0-.06-.06,0,0,0,0v0l0,0v-.08l0,0v0h0l0,0,0-.06h0v0l0,0v0l0,0v0h0v0l0,0,0,0,0,0,0,0h.1l0,0v0h0l0,0,0,0-.06,0h.06v-.06l0,0v0l0,0v0l0,0h0v0h.06l0,0v.06h0v0l0,0,0,0v0l0,0,0,0v0l0,0v0h-.06l0,0v.12h0l0,0v0h0v0h0l-.06,0v0h.06v0l0,0,0-.06,0,0,0,0v0l0,0v0h0v0l0,0,0,0,0,0v0l0,0,0,0h0l0,0v0l0,0v0h0l0-.06v0h-.06l0,0,0,0-.06,0v0l0,0h0v0h0v.1l0,0v0h0l0,0h0l0,0,0,0h0v0l0-.07v-.1l0-.06,0,0,0,.06,0,.07v0h0v0l0,0h0v0l0,0,0,0,0,0,0,0,.06,0,0,0h0l0,0,0,0,0,0,.06,0,0-.07,0,0v0l-.06,0v0l0,0h-.06v0l0,0h0v.07l0,0,0,.08v0h0v.06l0,0,0,0,0,0,0,0v0l0-.06,0,0h0l0-.1,0,0,0,0,0,0h.08l0,0,0,0v0h0l0,0,0,0h0v0l0,0h0l0,0-.06,0,0-.06,0,0,0,0h0v0l0,0,0-.07-.06,0h0v0l0,0,0,0,0,0,0,0,0,0,0,0,0,0,0,0h0v0h0l0,0v0l0,0v0l0,0-.06,0-.06,0,0,0-.06,0h-.08v0l0,0v0h-.06v0l0,0h0l0,0v0l0,0,0,0v0l0,0v0l0-.06,0,0-.07,0-.08,0h0l0,.06v0l0,0,0,.07,0,.12v.16l0,0,0,0,0-.06v0l-.06-.1,0,0,0,0v0l0,0,0,0,0,0h0l0,0h0l0,0,0-.06,0,0v0l-.06,0v0l0,0,0,0,0,0,0,.06-.08.16,0,0,0,0,0,0h0l0-.06v0l0,0,0,0v0l0,0v0l0,0,0,0,0-.06,0,0-.06,0h0v0l0,0,0,0,0,0,0-.07,0,0,0,0h0v0l0,0v0l0,0-.06,0v0l0,0,0,0v0l0,0v0l0,0,0,0,0-.06,0-.06,0,0,0,0-.06,0h0v0l0,0v0l0,0,0,0,0,0,0,0,0,0,0,0v0l0,.06,0,0v.08l0,0h0l0,0,0,0,0,0h0l0,0v0l0,0,0-.06,0,0,0-.06h0l0,0,0,0h0v0l0-.06H67l0,0v0l0,0v0l0,0,0,0,0,0v0h0v0l0,0,0,0,0,0,0,0,0,0v.08l0,0,0,0v0h0v0h0v-.12l-.61-.22-.6-.2.06-.06,0-.14,0-.07.1-.08v0l0-.16,0-.06,0,0,0,0,0,0h0l0,0-.08,0-.08,0,0,0h-.1l0,0,0,0-.06,0,0,0,0,0h-.08l-.08,0,0,0,0,0h0l0,0h-.06l-.07,0h0l0,0,0,0h0l0,0,0,0,0,0,0,0h-.06l-.06,0v0h-.06l0,0-.06-.06-.1-.06,0-.07-.93-.4,0,0h-.06v0h0l0,0v0l0,0v0l-.06,0v0h0l0,0,0,0,0,0,0,0,0,0-.12-.16-.1-.16-.06-.12,0-.06,0-.12-.06,0v0l0,0h0l0,0,0,0h0l0,0h0l0,0-.08,0,0,0h0l0,0h0v0l0,0v0l0,0v0l0,0,0,0-.06,0H62l0,0,0,0,0,0-.16.06,0,0-.06,0v0l0,0,0,0,0,0h0l-.08,0h-.12l0-.1v-.06l0-.22,0-.06,0-.16,0-.13-.08-.06,0-.16,0-.2h0v0h0v0l0,0,0,0V11.4h0l0,0v.06l0,0h0v0l.06,0,.06-.1.16,0,.06-.08h0l.07-.06,0,0V11l0,0,0-.16h0l0,0h0l0-.06,0-.07.06-.08v-.06l0,0,0-.12,0-.06.06-.08,0-.16,0,0,0-.12v-.1l0-.16,0-.25,0-.1h-.06v0l0,0v0l0,0-.2-.12L61.57,9,61.5,9l-.08,0h0l-.18-.06L61,9l-.08-.23-.06-.16,0,0,0,0V8.43l-.06,0v0l0-.06v0l0,0,0,0,0,0,0,0h0l0,0,0,0v0L60.55,8l0-.06,0,0h0v0l0,0h-.16l-.14.06-.06,0L59.89,8l-.08,0V8h0l0,0V8l0-.06,0,0,0-.06,0,0h0V7.75l0-.07,0,0V7.56l0,0,0,0,0-.06,0,0,0,0,0-.06V7.24l0,0,0-.06v0l0,0,0,0h0l-.06,0h0v0h.06l0,0,0,0,0-.06,0-.1,0,0V6.8l0,0v0l-.06-.06,0,0V6.51l0,0,0,0v0l0,0,0,0h0l0,0-.06,0,0,0,0-.07v0l-.06-.06,0-.06,0,0L59,6v-.1l0,0,0-.06,0,0V5.67l0,0v0l-.06-.06,0-.06v-.1l0,0,0-.06-.16-.43,0-.06V4.6l0,0v0l0-.08,0-.38,0-.12v-.1l0,0,0-.07,0,0v-.2l0-.06v-.1h0v.14l0,0h-.06l-.12-.06,0,0V3.33l0-.06v-.1l0,0v0L58.43,3l0-.06,0-.07-.06-.06v0l-.24-.26-.2-.2-.06-.06-.08-.08h0l0,0-.06,0,0,0,0,0-.07.18,0,.22,0,.06,0,0v.08l0,.06,0,.06L57.3,3l0,0v.1l-.06,0-.06,0,0,0,0,0-.08,0,0,0-.07.06,0,0v.1l0,.06,0,.06-.06,0v0l0,0-.06,0,0,0,0,0v0l0,.07,0,0h0l0,0,0,0,0,0,0,.06,0,.06-.06,0,0,0,0,.08,0,0,0,0,0,.12,0,0-.06.06-.08.18-.06,0,0,0,0,0,0,0,0,.06,0,0-.1.2,0,.06-.08.1v0l0,0-.06.1,0,0,0,0,0,0,0,0,0,0v0l0,0,0,0v0l0,0,0,.09,0,0,0,0,0,0,0,0,0,0,0,0,0,0,0,0,0,0,0,0,0,0,0,0,0,0,.06.06,0,.06,0,.06,0,0,0,.06v.06l0,.06,0,0h0v.06l0,0h0v0l0,.06h0l0,0,0,0L55,6.5l0,.06L55,6.65l0,0,0,0,0,0v0l0,.06,0,.06,0,0,0,.08,0,0,0,0,0,0,0,0,0,0,.06,0,0,.06h0l0,0v0h0l0,0,0,.07v0h0l-.07,0v.06h-.06l0,0,0,0,0,0h0l0,0,0,0v0l-.06.06,0,0,0,0-.14.1V8l0,0h0l0,0-.06,0,0,0,0,0v0l0,0,0,0-.08,0h0v0h-.06l0,0V7.81h-.06v.06l0,0v0l0,0,0,.06,0,0,0,0h0V8l0,0h0l0,0,0,.06-.1,0-.07,0h-.08l0,0,0,0V8l0,0h.3l-.08,0,0,0h-.06l0,0,0,0V8l0,0,0,0h0l0,0h0l0,0,0,0,0,0h0l0,0h0l0,0V8l0,0,0,0,0,0h0l0,0V7.81l0,0,.06-.06,0,0,0,0,0,0v0l-.06,0v0h0l0,0,0,0v0l0,0,0,0,0,0h0l0,0v0l0,0,0,0,0,0h0l0,0H52.8l0,0h0l0,0-.06,0h0l0,0,0,0v0l0,0,0,0,0,0,0,0h0l0,0H52.5l0,0H52.4l0,0h0v0h0l0,0H52.2V7.67l0,0v0h-.06v0h0l0,0h0l-.06,0,0,0h0v0l0,0h0l0,0,0,0,0,0,0,0,0,0,0,0,0,0,0,0h0l0,0h-.06l0,0,0,0h0l0,0h0l0,0-.06,0,0,0h0l0,0h0l-.06,0h0l0,0,0,0,0,0h0l0,0,0,0,0,0v0l0,0,0,.06,0,0v0h0v0l0,0v0l0,.06,0,0v0l0,0,0,0h0l0,0,0,0,0,0L50.79,8l-.63-.08-.44-.32-.14,0-.08-.1,0-.22-.16-.07-.12.07-.19,0-.12-.16-.06-.06,0-.16-.14,0-.14.1-.1.06L48.39,7l-.14,0-.08.1-.06.06-.1,0h-.1l-.1.1,0,.06-.1.08-.1-.06H47.5l-.06,0-.06,0v0h-.06l-.06,0,0,0,0,0,0,0,0,0h0l0,0,0,0h0l0,0-.07,0-.06,0,0,.06h0l-.06,0,0-.06,0,0,0,0,0,0,0,0,0,0-.12,0-.06,0v0h0l0,0h0l0,0,0,0,0,0,0,0h0V7l0,0-.08,0h0l0,0,0,0v0l0,0,0,0,0,0v0l-.06,0v0l0,0,0,0h0v0l0,0,0,0,0,0h0l0,0v0l0,0v0h0l0,0v0l0,0v0l-.06,0,0,0,0,0,0,0h0v0h0l0,0v.06l0,0,0,0v0l0,0,0,0v0l0,0v0l0,0v0h.28l0,0h0l0,0,0,0,0,0,0,0h0l0,0v0h0v0l0,0,0,0V8h0l0,0h.1l0,.06,0,0,0,0h0l0,0v0h0l0,0,0,.06.06,0,0,0h0v0l0,0,.06,0,0,0v0l0,0v.06l0,0,0,0h0v0l0,.1,0,0,0,0v0l.06,0v.06l0,0-.06,0L46.35,9l0,0,0,0,0,0h0V9l-.06,0h0l0,0H46V9h0V9h0l0,0,0,0,0,0V9h0v0l0,0,0,0h0l0,0,0,0h0l0,0-.06,0,0,.06-.06,0,0,0,0,0H45.4l0,0h0l0,0h0l0-.1,0,0H45.2v0h0l0,0h0l0,0v0h0l0,0-.06,0,0,0,0,.06h-.06l0,0,0,0h0l0,0h-.06l0-.06,0,0h0l0,0,0,0,0,0h0v0h-.06l0,0v0l-.06,0-.06,0,0,0h0v0l0,0,0,0,0,0,0,0,0,0,0,0v0l0,0V8.81l0,0h0l0,0h0l0,0h.12v0h0l0,0,0,0v0h-.09l0,0,0,0v0l0,0-.06,0h0l0,0,0,0,0,0h-.06l0,0h0l0,0,0,0,0,0,0,0h0l0,0V8.43l0,0,0,0v0l0,0,0,0,0,0h0v.06l-.06,0,0,0-.06,0,0,0,0,0h0l0,.06-.06,0v.06l0,0,0,0h0l0,0,0,0,0,0h0l-.06,0,0,.06,0,0,0,0,0,0,0,0v0l0,0,0,0v0l0,.07h.06l0,0,0,0v0l-.06,0h0V8.8l0,0,0,0,0,0,0,0,0,0,0,0,0,0V9l-.06,0h0l0,0h0l0,0,0,.06,0,0h0l0,0v.06l0,0,0,0,0,0,0,0v0h0v0l0,0,0,0h0V9.22h0l0,0,0,0,0,0h0v0l-.06,0v0h0l0,0,0,0v0h0l0,0v0l0,0h0l0,0h0l0,0,0,0,0,0,0,0v0h.1l0,0,0,0,0,0v.06h0l0,0,0,0,0,0,0,0h-.06v0l0,0v0l-.06,0v0h-.06l0,0v0l0,0h-.06l0,0,0,0,0,0,0,0h0v0h0l0,0,.06,0v0h0l0,.06,0,0,0,0,0,0h0l0,0,0,0,0,0,0,.06v0l0,0v0L41,9.8v0l0,0-.07,0,0,0v0h0v0h0l0,0h0l-.06,0v0l0,0V9.7l0,0-.06,0,0,0v0h0l-.06.06,0-.08,0,0v0l0,0,0,0-.06,0v0h-.06l0-.06,0,0,0,0,0,0,0,0v0l0,0h0v0l0,0-.06,0v0l0,0,0,0v0l0,0h0l0,0,0,0h-.14l0,0,0,0,0,0h0l0,0,0,0v0l0,0,0,0,0,0v0l0,0v0l.06,0,0,0,.06,0v0l0,0,0,.06h0l0,0,0,0v.06h0l0,0,0,0v0l0,0,0,0v0l0-.06h-.06v0l0,0h0v0l0,0h0v0l-.06,0,0,0,0,0,0,0,0,0,0,0,0,0v0h-.08l0,0v0l0,.06v0l.16,0-.06.1,0,0,0,0,0,0,0,0h0l0,0,0,0,0,0h0v0l0,0,0,0h0l0-.06h0l0-.06,0,0h0l0,0,0,0v0l0,0,0-.06,0,0,0,0v0l0,0v0l-.12,0h0l0,0,0,0,0,0,0,0v0h0l0,0-.06,0,0,0h0l0,0h0l0,0,0,0,0,0,0,0,0,0,0,0H38l0,0h0l0,0,0,0h-.06v0l-.06,0,0,0h-.06l.1,0,0,0,0,0h0l0,0,0-.06,0,0,0,0,0,0,0,0h0l0,0h0l0,0,0-.07v0l0,0h-.06v0l0,0v0h-.06l0,0h0v0l0,0v0l0,0h0l0,0,0-.06,0,0,0-.06h-.06l-.06,0,0,0V9.3l0,0,0,0v0h0v0l0,0v0l0,0v0l0,0h0v0l0,0,0,0,0,0,0,0h-.07l0,0,0,0,0,0-.06,0,0,0v0l0,0h-.06V9l0,0,0,0,0,0h0l0,0,0,0,0,0v0l0,0v0l0-.06,0-.06v0l0,0,0,0,0,0,0,0,0,0h-.06l0,0h.14l0,0,0-.06,0-.06,0,0,0,0,0,0V8.47l0-.06,0,0,0,0h0v-.1h0v.14h0l0,0h0l0,0,0,0v0h0l0-.06,0-.06,0,0V8.13l0,0,0,0,0,0V8h0l0,0,0,0,0,0h0l0-.06,0,0v0l0,0,0,0,0,0v0h-.1l0,0h0l0,0,0,0-.06,0h0l0,0,0,0,0,0h0v0l0,0,0,0,0,0,0,0,0-.06v0l.1,0v0h0l0,0,0-.06v0l0,0,0,0-.06,0v0l0,0v0l0,0L36.1,7l0,0,0,0-.06,0h0v0h0l0,0v0l0,0V6.8l0,0,0,0,0-.06v0l0-.1,0,0,0-.1,0-.06v-.1l0,0,0,0,0,0,0,0,0,0v0l0,0L36,6,36,5.94v0l0-.08,0,0,0,0v0l0,0,0,0,0-.06v0l0,0v0l0,0,0,0,0,0h0v0h0v0l0,0h0v0l0,0,0-.08,0-.07v0h.06l0,0,0,0,0,0v0l0-.06h0l0-.06,0,0,0,0,0,0,0,0,0-.06,0,0,0,.2,0,0v0l0,0,0-.08,0,0h0l0,0h0V4.74l0,0,0,0h0v0h0v0l.06,0V4.54l0,0-.06,0,0,0v0h-.06l0,0,0,0v0h0l0,0,0,0v0h0l0,0,0,0v0l0,0,0,0,0,0,0,0h0l0,0h0l0-.06,0,0h.06v0l0,0,0,0,0,0h0l0,0,0,0,0,0,0,0,0,0,0,0,0,0,0,0v0h0v0l0,0,0,0,0,0h0l0,0h0v0l0,0h0l0,0,0,0,0,0,0,0v0l0,0,0,0,0,0,0,0V3.55l0,0V3.47h0V3.39l0,0h0l0,0,0,0V3.31h.06l0,0,0,0h0l0,0h0v0l0,0,0,0v0l0,0H37.2v.22h0l0,0,0,0h0v0l0,0,0,0,0,0h0l0,0,0,0,0,0v0l0,0h0l0,0,0,0v0l0,0h0v0l-.06,0v0h0l0,0h0L37,3l0,0L37,3l-.06,0h-.1l-.06,0,0,0,0,0v0l-.1,0V2.7l0,0,.06-.08,0,0h0v0h0l0,0,0,0h0v0l0,0,0,0v0l0-.06,0,0,0,0,0,0-.06-.06,0,0,0,0h0l0-.06h0v.06h0l0-.06h0v0l0,0,0,0,0,0,0,0h0l0,0,0,0,0,0V2l0,0h0l0,0,0,0,0,0-.06,0,0,0,0,0V2l0,0L36,2V2h0L36,2l0,0h0V2l0,0,0,0,0,0h0l0,0,0,0,0,0,0,0h-.08V2l0,0,0,0h0L35.6,2l0,0h-.14l0,0,0-.06,0,0v0l0,0h0v0h0l0,0h0l0-.07,0,0h0l0,0,0,0,.06,0V1.65l0,0,0,0,0-.06.08-.08h0l0,0,0-.06V1.31l0,0,0,0,0,0,0,0,0,0,0,0,0,0,0-.16,0,0,0,0h0l0,0,0,0,0,0,0,0,0-.06V.62l0,0v0l0,0,0,0,0,0,0,0,0,0h0l0,0,0,0h0v0h0l0,0v0l0,0,0,0h-.06l0-.12L35.6.14l0-.06-.06,0,0,0-.06,0v0l0,0,0,0,0,0,0,0,0,0h-.06v0l0,0h0v0h-.06l0,.06H35l0,0V.16l0,0-.06,0,0,0V.22l0,0h0l0-.06h-.14l-.06,0,0,0,0,0h-.06l-.06,0v0h0l0,0,0,0,0,0,0,0,0,0h0l-.06,0,0,0,0,0h0l0,.06,0,0h.1l0,0v0l.06,0,0,0,0,0,0,.06v0l0,0,0,0v0l0,0,0,0,0,.06,0,0,0,.06,0,0v0l0,0,0,.06,0,0,0,.08h0l0,0,0,0v0l-.06,0v0l0,0,0,0,0,0-.08-.1v0l0,0v0l0,0h0l0,0,0,0,0,0,0,0h0l0,0h0l0,0,0,0,0,0-.08,0v0h-.07l0,0,0,0,0,0h0l-.06.06-.06,0,0,0H33.6v.1l0,0,0,0v0h-.06v0l0,0v0l0,0,0,0,0,0,0,0,0,0h-.06l0,.07,0,0,0,0h-.12V2H33.2l0,0h0l0,0,0,0L33,2V2h0l0,0V2h0V2h0l0,0,0,0h0l0,0,0-.07v0l-.06,0,0,0,0,0,0,0v0h0l0,0h0l0,0v0h-.06l0,.07,0,0V2h0l0,0h0v0l.06,0v0l0,0,0,0h-.06v0l0,0,0,0h-.06v0h0l-.06,0h-.09v0h-.06v0h0l0,0,0,0h0l0,0h0l0,0-.06,0v0l0,0v0l0,.06,0,0h0l0,0v0l0,0,0,0,0,.06v-.1h0l0,0,0,0v0l0,0h0l-.06,0h0l0,0,0,0,0,0h0v0h0v0h0l0,0h-.08l-.06,0,0,0,0,0v0h0l0,0-.06,0h.06v0l0,0v0h-.06v0l0,0v0l0,0v0h0l0,0,0,.06v0h0l0,0v0H31.1l0,0,0,0,0,0h0l0,0,0,0h0V3l0,.06V3.1l0,0,0-.06L30.8,3l0,0v0l0,0h0l0,0,0,0,0,0,0,0h0l0,0v0l0,0,0,0-.06,0,0,0V3l0,0,0,0h.08l0,0h0v0l0,0h0v0h0v0h-.06l0,0,0,0v0l0,0h0l-.06,0V3.09l-.06,0,0,0,0,0,0,0,0,0h-.06l0,0,0,0h0V3h0l0,0,0,0h0V2.92h0v0h0l-.07-.06v0h0l0,0h0l0,0v0h-.08v0h0l0,0,0,0,0,0h0l0,0h0V3h0l0,0,0,0,0,0h0l0,0V3l-.06,0,0,0V3l-.06,0h0l0,0,0,0h0l0,0,0,0v.06l0,0,0,0h0l0,0v0l0,0h-.08v0l0,0h0l0,0h-.06l-.06,0,0,0v0H29l0,0-.08,0,0,0v0l0,0h0l0,.06.06,0,0,.06,0,0-.06,0v.07l0,.06,0,0v0l0,0,0,0v0h0l-.06,0v0l.06,0,0,0h0v0l0,0,0,0v.06l0,.06,0,.06,0,0,0,0v0h0v0h0l-.06,0,0,0h0l0-.06h.06l0,0H28.7l0,0-.06.06-.06,0,0,0-.06,0h0v.07l0,0-.06.06,0,0h-.06l0,0,0,0,0-.06h0V4.3l-.1-.06,0,0h0l0,0V4.11l0,0v0l0,0h0l0,0V4l-.06,0-.06,0h-.13l0,0h-.08l-.06-.07v0l0,0V3.69l0,0,0-.14h0l-.06,0,0,0-.06,0,0,0h0l0,0,0,0,0,0v0h0l0,0h-.06l-.1-.06-.06,0h0L27,3.51v0h0l0,0h.08v0l0,0,0,0,0,0L27,3.73v.06l0,0,0,0h0l0,0h0v0l0,0H27l0,.06v0l0,0,0,0,0,0h0l0,0h0V3.71l-.06,0H26.7v0l0,0,0,0,0,0,0,0-.06-.06,0-.06,0,0,0-.06,0,0,0,0h0v.1l0,.06v0l0,0v0l0,0h0v0l0,0h0l-.06.06,0,0h0v0h0l0,0,0,0,0,0,0,0-.06,0h0l-.06,0-.06,0H26v0l0,0h0v0l0,0,0,0-.06,0,0,0,0,0,0,0h0l0,0,0,0,0,0,0,0,0,0v.06h0l0-.06h0l0,0V3.65l-.08,0v0l0,0-.06-.14-.06-.06,0,0,0,0V3.17l-.06-.08L25.17,3h0l0-.07h0L25,3H25l0,0-.06,0h-.06v0h-.06l0,0-.06,0-.15,0h-.1l-.06,0L24.2,3V3l-.06,0h-.06l0,0L24,3l-.08-.06-.08-.18-.08-.08-.22-.1h0l-.06.06,0,.06v.08l0,.1.06.06.06.06.06,0,0,0,0,.1.06.06,0,.06,0,0v0l.06,0,.06,0,0,.07.06,0,.07,0,0,.12.06.06.06.06.06.08.06.06,0,0,.06,0,.06,0,.06,0,.06,0,.12.06,0,0,.09.06,0,.08V4.17l.06,0,0,.07.1.1.06.06v.18l0,0,0,.06L25,4.74l0,0,0,.06,0,0,.06,0,0,.16.06.18v.2l0,.07,0,.06,0,0,.06.06.1.08,0,.06.08.08,0,.06,0,.06,0,0,.08,0v.08l0,.06,0,0,.08.07,0,0,0,0h0l0,0v0h0v0l0,0v.06l0,0,0,0h0l0,0v0l0,0v0h0l0,0v0l0,0,0,0v0l-.06,0V7h0l0,0v.06l0,0v0l0,.06,0,0,0,0h0V7.2l0,0,0,0,0,0h0l0,0h0l0,0,0,0,.06,0,.18.06.06,0,.09,0,.12.06h.23l.08,0,.16-.06.24-.06.14,0,.09,0,0,0v0l-.07.08v0l.07.16,0,.06,0,.06v0l.08.09-.06,0V8h0l0,.06v.06h0l-.07,0h0l0,0h0l-.06,0h0l0,0,0,0h-.06v0l-.06,0H26.7l0,0-.06,0h0l0,0h0v.06h0l0,.06h.08l0,0,0,.06v0l0,0,0,0h-.06l0,0,0,0,0,0-.06.06v0l0,0,0,0v0l0,0,0,0h0l0,0,0,0,0,0H26.1l0,.06,0,0,0-.06h-.08l0,0,0,0h0l-.06,0,0,0h0l0,0,0,0,0,0,0,0h0l0,0,0,0h0v0l-.06,0,0,0,0,0v.14l0,.09v0h0V9h0l0,0,0,0v0l0,.08v0h0v.06l0,0,0,.06h0l0,.06v0l0,.07,0,0,0,.06,0,0v.06l0,0h-.06l0,0h-.07v0l0,.06,0,0L25,9.93h0l0,0,0,0,0,0,0,0h0v0l-.06,0,0,0,0,0v0l0,0,0,0V10l0,0v0l0,0,0,0,0,0,0,0,0,0h-.1l0,0,0-.06v0l0-.06,0,0,0,0,.06-.06,0-.07,0-.06h-.08l0,0,0,0v0l0,0v0l.18.06h0l0,0-.06,0,0,0,0,0-.06,0,0,0v0l-.06,0-.06.08,0,0,0,0,0,0h0l0,.06H24l0,0h0l0,.06,0,0h0l0,0h0l0,0,0,0v0l0,.07h0v-.07l-.06,0h0l0,0-.06-.06,0,0v0l0,0,0-.06,0,0,0,.06-.1.06,0,0,0,.06v0h-.06V10.4h-.06l0,0,0,0,0,0,0,0,0,0v0l0,0h0l0,0,0,.06,0,0,0,.07-.07.06,0,.06,0,0v0l-.06,0,0,0,0,0,0-.06,0,0,0,0h0l0,0-.06,0v0l-.06,0h.2l0,.06,0,.06V11l0,.06,0,0v0l0-.06,0,.06,0,0,0,.08,0,.06,0,0h0l0,0,0,0h0l-.06,0,0,0,0,0,0,0,0,0,0,0h0l-.06,0,0,0,0,.1,0,0,0,0-.06,0,0,0h0l0,0,0,.06,0,0,0,.06v0l0,0,0,0,0,0,0,0,0,0v.06l0,0,0,.06,0,0v-.06l0,0h-.08l0,0h0l0,0H21.7l0,.06,0,0h0v0l0,0,0-.08,0,0,0,0,0-.06v-.06l.06,0h0l0-.06v0h0l0-.07,0,0,0,0,0,0,0,0h0l0-.06,0,0v0h-.06v0l0-.06,0,0v0l0,0,0,0,0,0,0,0h0l0,0,0,0h0l0,0,0-.06,0,0-.06,0v0l0,0h0l0,.06-.06-.06-.06,0,0,0,0,0,0,0,.06.08,0,0h-.1l0,.06h0l0,0,0,0,0,0,0,0,0,0,0,0,0,0-.06,0h0l-.06,0,0,0,0,.06,0,0,0,0,0,0H20.7l0,0v.07l0,0v.06l0,0v0h-.09l0,0h0l-.06,0-.06,0h0v0l0,.06v-.06l0,0,0,0h0l0,0-.08,0h0l0,0,0,0,0,0-.06,0-.26.06L19,11l-.66-.58-.59.16,0-.1,0-.06v-.24l0-.2,0-.1,0-.09V9.76l0-.36,0-.06,0-.06,0-.06,0-.06,0-.1,0-.06,0-.07-.06-.06-.06,0-.12,0,0,0-.08-.06,0,0,0-.1-.06-.26V8.23l0,0,0-.26L17,7.89l-.07,0h-.1l0,0,0,.06L16.6,8l0,0,0,.06,0,.08,0,0-.06.14,0,0h-.2l-.12-.06H16l0,0-.08.16,0,0,0,0-.06.06-.07.06-.06,0,0,.06,0,0,0,0,0,0,0,0h-.08l-.1-.1-.06-.06-.06-.06-.06,0,0,0h0l0,0,0-.06h0l0-.06,0,0h0l0,0,0,0,0,0,0,.06h0l0,0,0,0,0,0,0,.14h0v.1h.07l0,.08,0,.06h0l0,0,0,0h0l.06,0,0,.06H15l0,0v0H11.82v0l-.08-.06-.06,0,0,0h0v0l0,0,0,0v0l0,0L11.4,9l0,0-.08,0-.06,0h0l0,0,0,0,0,0h-.08v0h0l0,0,0,0h-.09l-.06.06h0l0,0-.06,0,0,0,0,0h-.06v1.63l0,0,.06,0,0,0,0-.06,0,0,.06-.06H11l.06,0v.1l0,0,0,0,0,0,0,0,.07,0h0l0,0h0l.06.06.06,0h.12l.06,0,.08,0,0,0,0,0v.06l.06,0,.08-.08,0,0,0,0,0,0H12v0h0l0,0,0,0h0l.14.12,0,0,0,0-.06,0,0,0,.08,0,0,0-.06,0,0,0,0,0v.06h0l.06,0h0l0,0,0,0v0h-.06l0-.06v.07l0,0,0,0,0,.06,0,0h-.06l0,0v.06l0,0,0,0,.06,0,.08.14,0,0h0l0,0h0l0,0h0l0,0,0,0v0l0,0h0l-.06,0v0l0,0H12l0,0L12,12l0,0,0,0V12l0,0-.06,0v0l0,0h0l0,0-.1-.1v0l0,0,0,0v0l0,0h0l0,0v0h0l-.06,0,0,0,0,0h0l0,0v0h-.08v0l-.06,0V12h0v0h0V12h0l0-.06,0,0-.06,0,0,0v0h0l0,0L11,12l0,0,0,0,0,.06,0,0,0,0-.07,0v0h0l0,0,0,0h0l-.06,0,0,0,0,0,0,0,0,.07,0,0-.06,0,0,0h-.06l0,0,0,0,0,0h-.06v0l0,0h0V13l0,.49v.2l0,.28,0,.06,0,0v.06l0,0,.14.12,0,0,0,0,.06.06,0,0,0,0h0l0,0,0,0,.06.06,0,0,.06,0,0,0,.07.1h0l.06,0h0l0,0,0,.06h0l0,0,0,0,0,0,.06,0v0l.06,0,.06,0V15h.06l0,0,0,.06,0,0,0,.06,0,.06,0,0,0,0,0,0h0l0,0v-.06h0l0,0,0,0,0,.06,0,.06,0,0,0,0h0l0,0v0l-.06,0h0l0,0,0,0,0,0,.06.06,0,0h0l0,0v0l0,.06.06.06h0l0,0v.14l0,0h0l0,0,0,0,.06.06v0l0,.07,0,0,0,0,0,0h0l-.06-.07h0v0l0,0,0,0,0,.07,0,0,.06.08v.1l0,0v0l0,.06,0,.06,0,.06,0,.06V17l0,.06v0l-.06,0,0,0v.24l0,0,0,0,0,.09-.18.94-.24,1.42L11,21l-.37,2.1-.12.67-.12.71h0l0,0v.1l0,.08-.06.06-.06,0-.06,0h0v0l0,0-.06,0h0l0-.06,0,0H10l0,0,0-.06v0l0,0,0,0,0,0,0,0,0,0,0,.06.06,0v0l-.06,0,0,0v0l0,0h0l0,0,0-.08,0,0,0,0,0,0h0l0,0,0,0,0,0,0,0v0l-.08,0h0l0,0-.06-.06v0l.06,0,0,0,0-.09v-.06l0,0,0,0,0,0,0,.06,0,0,0,0,0,0,0,0,0,0,0-.06,0,0,0,0H9.16l0,0,0,0,0,0,0,0H9v0H9l-.06,0,0,0,0,.06h0l0,0,0-.06,0-.06-.09,0,0,0,0,0,0,0,0,0,0,0-.06,0,0,0,0,0,0,0v0l0-.06v0H8.49v.1l0,0,0,0,0,0v.12l0,0h0l0,0h0l-.06,0-.06-.06H8.15l0,0,0,.06-.06,0,0,0,0,0,0,.06,0,0,0,0v0l0,0,0,0h0l0,0,0,.06-.06,0,0,0,0,.06-.06,0,0,0,0,.07,0,0h0l0,0v0l0,0,0,0-.07,0,0,0,0,0,0,0v0l0,0,0,0,0,0H7.4l0,0h.2l0,0,0-.07h0v0l-.06,0,0,0,0,0,0,0,0,0,0,0v0l0,0-.06-.05H7.24l0,0,0,0V25H7.16l0,0v0l0,0,0-.06,0,0,0,0h0L7,25H7v-.06H7l0,0-.06,0H7l0,0L7,25l0,0,0,0,0,0,0-.06h0l0,0,0,0v0l0,0v0l0,0H6.78v0l0,0,0,0,0,0,0,0,0,0-.06.06h0v0l0,0h0l0,0h0l0,0v0l0,0,0,0,0,0v.06l0,0v0h0l-.07,0,0,0,0,0v0l0,0,0,.06,0,0-.06,0H6l0,0,0,0v0l0,0,0-.06v0H6l0,0,0,0,0,0L6,25.27l0,0,0,0-.06,0,0,0h0l0,0h0v0l.08,0,0,0v.06l0,0h0v0l0,0,0,0h0l0,0-.06,0,0,0,0,0,0,0,0,0v0l0,0,0,0v0l0,0v0l-.06,0,0,0v0h0v0l0,0h0l0,0,0,0,0,0,0,0-.06,0,0,0,0,0,.06,0H5.1v.07l0,0,0,0-.06,0v0l0,0-.06,0-.06.06,0,0,0,0,0,0-.06.06,0,0,0,0,0,0v0h0l-.06,0,0,0,0,0,0,0,0,0v0l-.07,0,0,0v0l0,.06,0,0v0l0,0-.06,0,0,0H4.2l0,0v0h0l0,0h0l0,.06,0,0v.12h0l0,0,0,0H4l0,0v0H4v0H4l0,0,0,0v0l0,0v0l0,0v0l-.06,0v.06h0v0l0,0,0,0h0v-.18h0l0,.06H3.63l-.06.06,0,0h0l0,0,0,0,0,0v0l.08,0v.06l-.06,0,0,0v0h0l0,0,0,0h0l0,0-.06,0v0h0v0h0v0l0,0,0,0v0l0,0,0,0,0,0,0,0,0,0,0,0,0,0,0,0,0,.06,0,0-.06,0v0H2.8l0,0h0l0,0,0,0v0h0v0l0,.06,0,0h0v.1l0,0,0,0v.06l0,0v0l0,0,0,0v0l0,0v0l0,.06v0l0,0v0l0,0v0l0,0,0,.07,0,0,0,0,0,0,0,.06v.08l0,0v.08l0,0,0,0,0,0,0,.06v0l0,0v0l0,0,0,0,0,0,0,0v.1h0v0l0,0v0l-.06,0v0l0,0h0l0,.06h0v.06h0l0,.06-.06,0v0h0l0,0V29l-.06,0h0l0,0v0l0,0v.1l0,0,0,0v.08l0,.07v0l0,0h0l0,0v0l0,0h.24l0,.1,0,0,0,0-.06.06v.1l.08.08v.12l0,0,0,0,0,.06h0l.06.06v.08l0,0v0l0,0,0,.08,0,0,0,.06,0,0,0,0v0h0l0,0,0,.06,0,0v0l0,0,0,.07,0,0,0,0,0,0,0,.06h0l0,0,0,0v0l0,0H2v0l0,0,0,0,0,0,0,0v0l0,0v0l0,0H1.81l-.06,0H1.69l0,0,0,0h0l0,0,0,0,0,0v.07l-.06,0h0l0,0h0l-.06,0H1.31l0,0h0l-.06,0-.08-.5,0,.06H1.05L1,31l0,0-.06.06,0,0-.06.08h0l0,.06,0,0h0l0,.07v0l0,0-.07.06,0,.06v0l0,.06v.1l0,0v0l0,0-.08.1L.5,32l0,0,0,0v0l0,0,0,0,0,0,0,.08,0,0,.06,0,0,0v.08l0,.06v0l-.06.06-.08.06H.59v-.06h0l-.07,0-.06,0h0l-.06,0h0l0,0-.1,0-.06-.06h0l0,0,0,0,0,0,0,0v0l.06.12,0,0v.08l0,0,0,0v0l-.06.09-.06,0H0l0,.08h0l.1.1.06.06.06,0,0,.06.06.06H.42l0,.06,0,.06,0,0h0l.12,0,0,0,.09.06,0,0,0,.06,0,.08V34l0,0,0,0H.65l0-.07h0l0,0,0,.07h0l0,0,.06.06,0,0v.06l0,0,0,0h0l0,0H.77l0,0,0,.08h0l.06,0,.06.06v.06H.93l0,0,0,.06,0,0,0,.06,0,0,0,.06v0l0,.06,0,0,0,.07,0,0v0l0,0,0,.06,0,0,0,0,0,.08.06.06,0,0h0v0h0l.06,0,0,0h.08l0,0,0,.06,0,.06,0,0v0l0,0,.06,0h0l0,0h.06l0,.08,0,.14v.06l0,0,0,.06,0,0,0,0v0l0,0,0,0V36l0,0h0l0,0h0l0,0h0l0,0,.06,0h0l0,.06,0,0,0,.06,0,.1.06.07v.06l0,.06h0v.06l0,0v0l0,.06,0,0,0,0,0-.06v.06h0l.06,0,.06.16.06,0,0,0,0,0v0l0,0v.06l0,0,0,0v.06l0,.08,0,0-.06,0-.06,0,0,0,.06,0v0l0,0,0,0,0,0v0l-.06,0h0l0,0-.24-.12-.06.08-.06,0,0,0,0,0v0l-.07,0,0,.06,0,0,0,0-.06,0,0,0v.09l0,0H3.17v0l0,0,0,0,0,0h0v0l0,0h0v0l0,0v0l0,0h0l0,0,0,0,0,0v0h0v0l0,0,0,0h0l0,0v0l0,0h0v0l0,0v0h0l0,0h0v0l0,0h0l.06,0h0l0,0v0l.06,0,0,0H4l0,0,0,0h0l0,0h0l0,0,0,0h0l0,0h0v.06h0v0l0,0h0l0,0,0,0,.06,0,0,0v.16l.06,0h0l0,.06,0,.06,0,0v.06l0,.06v0l0,.07v0h0l0,0,0,0,0,0,0,0h0l.06,0,.06,0,0,0-.06.06v0l0,0v.06l0,0,0,0,0,0,0,.06,0,0,0,0,0,0,0,0v.08l0,0-.06,0v0h2.1l0-.06,0,0h0v0l0,0,.06.06h0l.1,0H7v0h0l.06,0h.06v-.32l0,0,0,0,0-.06,0,0,0,0,.06,0,.08,0,.06,0,0,0h0l0,0h0l0,0,0,0H7.7v-.07l0,0,0-.08,0,0v0l0,0,0,0h.06l0,0h0l0,0H8l0-.06H8v0l0,0,.06,0v0l0,0v0l0,0v0l0,0,0,0h0l0,0,0,0,0,0h0v0l.06,0v0h0v0l0,0h0v0l0,0h0l0,0,0,0,0,0,0,0v0l0,0,0,0h0l0,0,0,0v0h0l0,0,0,0v0l0,0v0h0l0,0,0,0V38l0,0,0,0,0,0V38h0l0,0h0l0,0v0H8.81v0h0l0,0,0,0v0l0,0v0h0v0l0,0,0,0,0,0L9,38H9L9,38H9l0,0,0,0,0,0,0,.06v0l0,0,0,0h0v0l0,0v.07h0v0H8.81l0,0h0l0,0,0,0v0h0l0,0,0,0h0l0,0,0,0v0l0,0h0l0,0,0,0,0,.08,0,0,0,0,0,0h0v0h0l0,.08h0l0,0,0,0,0,0v0h0v.06l0,0,0,0-.06,0,0,0,0,.06,0,0h0l0,.06v.38l0,.29v1.65l0,.73.22-.17,0,0v0h0l0,0H9l0,0,0,.07.06,0,0,.06,0,0h0l0,0,0,0,0,0v0l0,0,0,0h0v0l0,0,.06,0,0,0,0,0,0,0,0,0,.06,0,0,0h0l0,0,0,0h0l.06,0,0,0h.06l0,0,0,0v0H9.8V42.1l0,0h0v0l0,0v0l0,0,0,0h0l0,0h0v0h0v0l0,0,0,0h0l0,0v0l0,0v0h.06v0h0l0,0h0v0l0,0v0h0l0,0,0,0v0l0,0,0,0,0,0,0,0,0,0h0v0h.08l0,0,0,0,0,0,.06,0,0,0,0,0,0,0,0,0,0,0h.08v0h0v0h0l0,0,0,0v0l0,0v0h0l0,0,0,0h0l0,0,0,0,0,0,0,0,0,0,0,0,0,0,0,0,0,0,0,0,.07,0,0,0,0,0v0h0l0,0v0l.08,0v0h-.1v0h.07l0,0,0,0v0h0l0,0v0l0,0,0,0h0v0l0,0v0h.06l0,0h0l0,0,0,0,0,0h0l0,0,0,0,0,0h0v0l0,0,0,0v0h0l0,0h0l0,0v0h0l0,0v0l.06,0,0,0,0,0v0h0l0,0,0,0h0l0,0,.06,0v0h0l0,0,0,0,0,0,0,0,0,0h0l0,0,0,0-.06,0v0h0l0,0h0l0,0v0h0l0,0,0,0,0,0,0,0,0,0,0,0,0,.06,0,0,0,0,0,0,0,0h0v0h0v0l0,0h0l0,0,0,0v0h0l0,0h0l0,0H13l0,0h0v0l0,0,0,0,0,0,0,0h0v0l0,0h0l0,0h0v0l0,0,0,0,0,0h0l0,0,0,0,0,0h0l0,0h0v0h0l0,0,0,0,0,0v0l0,0,0,0v0h-.16l0,0,0,0h0l0,0v0h0l0,0,0,0,0,0,0,0v0l0,0,0,0h0l0,0,0,0,0,0,0,.06.28-.06.19,0v0l.06,0,0,0v0l.06,0,.1,0,0,0,0,0h0l0,0,0,0v0l0,0,0,0,0,0,0,0,.08,0h0l0,0,0,0,0,0,0,0h0l0,0,0,0,0,0,0,0,0,0v-.06l0,0,0,0,0-.06h0l0-.06h0l0-.06h0l0-.07,0,0v0l0,0,0,0,0,0,0,0,0,0,0,0v0l0,0,0,0h0v0l0,0h0l0,0,0,0,0,0,0,0v0l0,0h.06v0h0l0,0,0,0v0l0,0v0l0,0,0,0,.06,0,0,0h0l0,0,0,0,0,0h-.08v0l0,0h.08l0,0h0l0,0,0,0,0,0,0,0v0l0,0v0h0v0l0,0v0h0v0h0l0,0h0l0,0v0l0,0v0h0v0l0,0,0,0,0,0,.06-.28.06,0,.06-.06,0,0,.07-.06,0-.06.06-.08,0,0,.06,0,0,0h.08v0l0,0,0,0,0,0,0,0,.06,0,0,0v0l0,0h0v-.06l0,0,0-.06h0l0,0,0,0,0,0,0,0v0h0l0,0,0,0h0v0l0,0,0,0,0,0,0,0,0,0,0,0v0l0,0,0,0,0,0,0,0,.06,0,0,0h0l0,0h.06l0,0h0l0,0,0,0h0l0,0h0l0,0v0l0,0h-.22l0,0h0v0h0l0,0,.06,0h0l0,0h0v0l0,0,0,0h0v.1l0,0v0l0,0v0l0,0v0l0,0,0,0h0l0,0v0l0,0,0,0v0h0l0,0v0l0,0,0-.06,0,0h0v0l0,0,0,0v0l0,0,0,0h0v0l0,0,0,0v0l-.06,0,0,0v0l0,0h.08v0l0,0v-.06h0l0,0h0v0l0,0h0l0,0,0,0v0h0v0h0l0,0h0l0,0v0h0l0,0,.06,0h.06v0l0,0,0,0,0,0,0,0,0,0,0,0,0,0h0v0h0v0h0l0,0h0v0l0,0,.08,0,0,0v0l0,0,0,0,0,0,0,0h0l0,0v0l.06,0h0l0,0h0v0h0v0h.1l0,0h0l0,0h0l0,0,0,0,0,.06,0,0v0l0,0h-.08v0l0,0v.06l.06,0,.06,0V39l0,0h.06l0,0,0,0h0l0,0h0v0l0,0v0l0,0h0l0,0v0l0,0v0L20,39l0,0h0l0,0h0l0,0,0,0,0,0v0h.06v0l.07,0,0,0,0,0,0,0,0,0v0h0v0h0v.06l0,0,0,0h0l0,0,0,0h.08l0,.06h0l.06-.06v0h0l0,0v0l0,0h0l0,0,0-.06,0,0,0,0,0,0v0l0,0h0l0,0,0,0h0v0h0v0l0,0h0l0,0,0,0,0,0v0l0,0h.1v0l0,0v0h0v0h0l0,0h0v0l0,0,0,0,0,0v0l0,0,0,0,0,0,0,0,0-.06v0l0,0v0l0,0,0,0,0,0h0v0l0,0h.08l0,0,0,0v0h0l0,0H21.5v0l0,0,0,.06.06,0v0l.06-.06,0,0h0l0,0,0,0v0l0,0h0l0,.06,0,0,0,0,0,0h0V39l.06,0,0,0h0v0l0-.06v0l0,0h0l0-.06.06,0,0,0v-.14l.07,0,0,0h0l0,0h0l.06,0,0,0v0l0,0v0l.14.06.06.06,0,0,0,.06,0,.06,0,.08.06.06,0,0,0,.06-.08.08,0,.07v.1l0,0,0,.06,0,.12,0,0,0,.06,0,0,0,.1,0,.06v0l0,.06v0l0,0-.34,0,0,0,0,.1-.07.06-.06.06,0,0,0,.06,0,.07v.08l0,.06,0,0h-.06l0,.06,0,0,0,0,0,.06,0,.06L22,41v0l0,0v0l0,0,0,0,0,0v0l0,0h.06l.06,0,0,.06,0,.06v.06l0,.07,0,.06,0,.06h0v.06l0,0h0l.07,0,.1.14,0,.14-.07,0v0l0,.06,0,.06.07.06v0l-.07,0-.08.06,0,0,0,.07,0,0,0,0-.12,0-.06.06,0,0v0l0,.1h.08l0,0,0,0-.06,0,0,0v.08l0,.14,0,0h.1l0,0,0,0-.08,0,0,0,0,.08v.08l0,.18,0,0h0l.1,0h.08l0,0,0,0,0,.06-.06.06v0l0,0,0,0v0l0,.07v0l0,.06-.06.06,0,0,0,0,.06.06.1.06h0v-.35l0,0,0,0h.14l.06,0h0l0,0v0l.06.16v.08l0,.08v0l0,.06H23l0,0,0,0,0,.13,0,.06v0l0,0,0,0,0,0v0h0l.07,0h0l0,.06h0l0-.06,0,0,0,0,0,.06,0,0,.08-.06h.12l0,0,0,.06,0,0,0,0,0,0,0,.06v0l0,0h0l.06-.06,0,0h0l.06,0,0,0,0,0,0,.08,0,0h.06l0-.06v-.06l0-.06.06,0,0,0,0,0v0l0,.06,0,.06,0,.08,0,0,.07,0,.14.06h.1l0,0,0,.06h0l.06,0,0,0,0,0,0,.08v.08l0,.08,0,0v0l0,.06.06,0,0,0,0,.07.06.06,0,0,0,0,.14,0H25v0L25,46l0,0,0,0,0,0,0,0,.06,0,.06-.06,0,0h0l0,0h0l0,0h0V46l0,0,0,0h.06v0l0-.06h0l0,0v.06h0l0,0,0,0h0v0h0l0,0h0l0,0,0,.06h0l0,0,0,0,0,0v0h0l.07.06,0,0,.06,0,.06,0h0l0,0V46l0-.06v0l0,0h0l.06,0,.06,0,0-.06,0,0,0,0,0,0,0,0,.06,0h.06l.12,0,0,0,.06,0,.08,0,0,0L27,46l.06,0,.06,0,.06.1.06.06h.16v.06l0,0h-.06l0,0,0,0,0,0,0,0,0,.06.06.06,0,0,.06,0,.06,0,.08,0h.1l0,0h0v0l0,0v0h0v0H28l0,0h.06l0,0v0l0,0,0,0,0,0,0,0,0,0,0,0,0,0h0v.06h0v0l0,0v0h.1v0l0,0v0h.08l0,0v0l0,0,0,.06,0,0h0l0,0,0,.1,0,0v.06h0l0,.06,0,0,.06,0v0l0,0h0l0,0h0v0l0,0v0l0,0h0l0,0,0,0v.07l0,0,0,.06h0l0,0,0,0,0,0h0l0,0,0,0,.06,0v.08l0,.06,0,.06.07,0,0-.06h0v0l0,0v0l0,0,0,0,0,0,0,0v-.34h.06l0,0v0l0,0h0v0l0,.06h.06v0l0,0,0,0h0l0,0,0,0,0,0v0l.14.06,0,0h0l0,0,.06.06.06,0,0,0,0,0h0v.06h0l0,0h0v0l0,0,0,0,0,0h0l0,0v.06l0,0,0,0,0-.06v.06l0,0,0,0,0,0,0,0,0,0,0,0,0,0h0v0l0,0,0,0,0,0h0l0,0,0,0,0,0h0l0,0,0,0v-.06h0l0-.06h0l0,0,0,0h0l0,0v.06l0,0,0,0v-.08h0v.06l0,0,0,0,0,0h0l0,0h0l0,0,0,0,0,0,0,.08,0,0v.06l0,0v0l0,0,0,0h0v0l0,0,0,0V48h0l0,.06,0,0h0v.06l0,.06,0,0h0v0l.06,0,0,0,0,0h0l0,0,0,0h0l0,0,0,0,0,0v0l0,0h0l0,0v0l0,.07v.12l0,0v.06l0,0,0,0h0v.08l0,0,0,0v0h0v0l0,0,.06,0,0,0,0,0h0v.06h0l0,0,0,0,0,0,0,0h0v0l0,0,.06,0,0,0,0,0,0,0,0,0v0l.06,0h0v0l0,0h0v0h0v0h0l0,0h0v0l0,0,0,0,0,.06,0,0h0l.07,0v0l0,0,0,0h.06l.06,0,.1,0,0,0h0l0,0,.06,0h.12v0h.06l0,0v-.06h0l0,0v0l0,0,0,0h.06v0l0,0,0,0,0,0,0,0,0,0,0,0,0,0,0,0v0h0l0,0v0l0,0,0,0,0,0,0,0h0l0,.06,0,0,.06,0,0,0v0l0,0v0h0l0,0h0l0,0h0l0,0,0,0-.06,0v0h0l0,0,0,0,.06,0,0,0,0,0,0,0v0l0,0v0l0,0h0l0,.06.06,0v-.12h.06l0,0h0l.07,0h0l0,0,0,0,0,0,0,0,.06.06,0,0,.08,0h0l0,0,0,0,.06,0,0,0h0V49l0,0,0,0,.06,0,0,0v0l0,0v0l0,0,0,.06,0,0,0,0h0l0,0h0l0,0,0,0v0l0,0v0h0l0,0,0,0h0l0,0h0l0,0h0l0,0h0v-.14h.06l0,0,0,0h.06l0,0,0,0,0,0H36l0,0h0v0l0,0,0,0h-.06v0l0,0,0,0v0l-.06.06H36l0,0v0l0,0,0,0,0,0v0l0,0h0v0l0,0,0,0v.06h0l0,0h0v0l0,0h0l0,0,0,0,0,.06h.06l0,0v0h0l0,0v0l0,0v0l0,0,0,0v0L36,50.1l0,0h0l0,0v0l0,0,0,0,0,0,0,0,0,0v0l0,0,0,0v.06H36v.08l0,0v0l0,0v0l0,0v0l0,0,0,0,0,0v0l0,0v0l0,0,0,0,0,0,0,0,0,0,0,0v0l0,0v0l0,0v0l0,0V51l0,0v.08l0,0h0v0h0v0l0,0h0l0,0v0h0l0,0,.06,0v0l0,0v0l.06,0v0l0,0v0l0,0h0l0,0v0l0,0h0l0,0,0,.08.06,0,.06,0L36.61,53h-.67l-.16,0,.83,1,.08,1,.08,1,1.8,0,1.75.06.91.06.06,0,0,0,0-.1.06,0h.08l.06,0V56l0,.06v.06l0,.08,0,0-.06,0,0,0,0,0,0,0v0l0,.08,0,.06,0,.07v0l0,.06,0,0-.06,0,0,.06-.06,0,0,0,0,0-.06.16v0l0,.1v0l0,.06,0,0,0,.06v0H39.86v.09l0,.06,0,0h0l0,0,0,0,0,0h0l0,.06h0l0,0,0,0,0,0,0,0,0,0,0,0,0,0,0,0v0h0v0l0,0h0l0,0,0,0v.06h0v0h0v0h0l0,0v.08h0v.09h0l.06,0h0l0,0-.06-.55,0,.14.06,0h0v0h0l0,.06h0v0l.06,0,0,0,0,0,0,0v0l0,0,0,0v0l0,0,0,0v.06l0,0v0h0v0l0,0v0h0v0h.08l0,0,0,0,.06,0,.08,0,0,.06,0,0,0,0,0,0,0,0v.09l.08,0,0,0h0l0,0v.06l0,0h0l0,0h0l0,0,0,0v0l.06,0,.25-.16.32.28-.08,0h0v0l0,0v0l0,0v0l0,0,0,0h0l0,0v0l0,0v.06l0,0,0,0,0,0,0,.08h0l0,.06h0l0,0,0,.1.1.08v.06H42l.32.59,0,.16,0,.06.18.16v0l0,0,0,0,0,0v0l0,0,0,0v0l-.26,0-.54,1.69H42v.2h0l0,0,0,0,0,0h0l0,.07h-.2l-.27.56-.38.79-.26.54.71.55,0,0-.07.08,0,.06-.22-.22,0,0h0l0,0,0,.06,0,0H41l0,0,0,.08v0l-.1,0-.06,0,0,.06-.06,0H40.6l0,0,0,0v0l0,0h.06l0,0,0,0,0,0-.06,0,0,0,0,0,0,.06.06,0v0l0,0,0,0h.06l0,0,0,0v0l0,.08,0,.06,0,.12.06.06.1,0,.06.1v0l-.06.09,0,.06.06.16,0,.06v.07L41,67h.06v0l0,.06,0,.06v.06h.08l.06-.1h0l0,0,0,0,.06.08,0,0,0,0v0h0l-.1,0,0,0,0,0,0,.09v0l0,0h0l.06,0h0l.08.06,0,0,0,.06-.1.06v-.12l0,0,0,0,0,0,0,0,0,0,0,.06,0,0h0l0,0h0v.08l0,0,0,0-.06.08-.06,0,0,.06.06.08-.06.08v0l0,.14v.09l0,0-.16.1,0,0,0,0,0,0,.1,0,0,0,0,.06,0,0-.1.12,0,.06,0,.08v0l0,0,0,.06,0,0,0,.06v.06l0,.06.08,0,0,0v0l-.06,0,0,.06,0,.06,0,0,.1.06v0l0,0-.1.06,0,0v0l0,0,0,0h0V70l-.06.1-.06,0-.06,0v0l.14.06,0,0,0,0h0l-.06,0,0,0h0v0l0,.12,0,0v.08l-.09.06,0,0v0h0l0,0,0,.08,0,0,0,0h0l0,0,0,0h0l0,.06,0,0,0,0h.1l0,0h0l0,0,0,0,.09,0,0,0,0,0h0l0,0h0l0-.06,0,0,.06,0h0l0,0v0h0v0h0l0,0,0,0v0l0,0v0h0l0,0,0,0,0,0h.06l.06,0v0l0,0,0,0h0v0h0v0h0v0l0,0v.08l0,0h0l.06,0,0,0,0,0h0l0,0h0v0h0l0,0,0,0,0,0v0l0,0,0,0h0l0,0,0,0,.06,0v0l0,0v0h0l0,0h0v0h0l0,0,0,0h0v0l0,0v0l0,0h0l0,0,0,0v0l0,0v0h0l0,0v0l0,0v0h.07l0,0,.06,0v0h0l0,0v-.32h0l0,0,0,0v0l0,0v0l0,0h0l0,0,0,0,0,0,.06,0,0,0,0,.06,0,0h0l0,0,0,0,0,0h.06l0,0h0v0l0,0,0,0h0l0,0,0,0,0,0,0,0,0,0,0,0h0l0,0,0,0,0,0h0l0,0,0,0,0,0,0,0,0,0v0l0,0h0l0,0,0,0,0,0,0,0h0l0,0h0l0,0,0,0,0,0V71l0,0h0l0,0h0v0h0l0,0v0h0l0,0,0,0,0,0,0,0,0,0,0,0,0,0v0h0v0l0,0v0h0v0l0,0v0l0,0,0,0,0,0,0,0h0L45,71h0l.06,0v0l0,0h0l0,0,0,0h0v0h0l0,0,0,0h0l0,0,0,0v0l.06,0h0v0l0,0v0h0l0,0v0l0,0v0h0v0l0,0h.06l0,0,0,0v0h0v0h0v0l0,0,0,0,0,0,0,0,0,0v0h.06l0,0v.06l0,0,0,0v0l0,0h0l0,0v.08l0,.06,0,0,0,0v0h0v0l0,0h0v0l0,0,0,0,0,0,0,0,0,0,0,0,0,0h.06l0,0v0l.06,0v0h0l0,0,0,0v0h0v0l0,0,0,0h.08l0,0v0h0l.07,0h.08l0,0h0l0,0,.06,0,0,0h0v0l.06,0,0,0h.06l0,0,0,0,0,0,0,0,.06,0h.1l0,0,0,.06,0,.06.06,0v0l0,0,0,0,0,0,0,0,0,0,0,0,.06,0,0,0,0,0,0,0,0,.07,0,.06v0h0l0,0,0,0v0l.06.14.06,0,0,0,0,0h0l0,0,.07,0,.06.06v.06l0,0v.06l0,0,0,0,0,.06,0,.06v0l0,0v0l0,0v0l0,0,0,0v0l0,0v0l0,0v.1l0,0,0,.06,0,0,0,0v0l0,.06,0,0,0,0,0,0h0v0l0,.07,0,0,0,0,0,.06,0,0,0,0,0,0,0,0,0,0v.06h0l0,.06,0,0v.1l.06,0h0l0,0,0,0v.06l.06.06,0,0,0,0h0l0,.06,0,0,0,0h0l0,0,0,0-.06,0v0l0,.06,0,0,.06,0,0,.06v0h0l0,0,0,.08-.08.1,0,0,0,.07h0v0h0l0,0,0,.06v0l0,0v0l0,0,0,0v0l0,0v.08l0,0,.06,0v0l0,0,0,0,0,0,0,0v.06h0l0,0,0,.06,0,0,0,0,0,0h0l0,0,0,0,0,.06,0,0h0l0,0v.07l0,.06,0,0v.1l0,0,0,.06,0,0,.06,0,0,0h0v.06l0,0h0l0,0h0l0,0h0v0h0l0,0,0,0h0l.06-.08h0l.06,0,0,0h0v0h0v0l.06,0h.1v0l0,0h0v0l.06,0,0,0,0,0h0l0,0v0h0l0,0,0,0,0,0,0,0,0,0v0l0,0,0,0h0l0,0,0,0,0,0,0,0,0,0,0,0,0,0H50l0,0v0h0L50,76l0,0v0h0v0h0l0,0h0l0,0,.07,0,0,0v0l0,0,.06,0,0,0,0,0v0h0l0,0h0l0,0h0v0l.1,0,0,0v0l0,0,0-.06,0,0h0l0,0h0l0,0h0l0,0h0l0,0,0,0v0l.06,0,0,0v0l.06,0,0,0h0l0,0h0v0l.06.06.08,0,0,0,0,0v0l0,.08,0,0,.06.06,0,0,0,0,0,0,.06,0v0l0,0v0l.06.06-.06.06-.06.06,0,.07,0,0v0l0,.08v.12l0,.06.08.08,0,.06,0,.14,0,0,0,.08-.06.06-.06.06,0,.13,0,.06,0,.12v0l0,.18,0,.08,0,.06,0,.08,0,0,0,0,0,.06-.06.16,0,.15,0,.06,0,.06v.1l-.06.14V79l0,.06,0,0,0,0,0,0,0,0,0,.06,0,0h0l0,.06,0,.06,0,.06,0,.1,0,.07,0,.06-.06.08-.06,0,0,.06,0,0L51,80v0l0,0,0,0v.06l.06,0v.1l0,.06v.14l.06,0h0l0,0,0,0,0,0,0,0h0l.06,0,.06,0,0,0,.06.06,0,.08h0l0,0,0-.06.08-.06,0,0v-.06l0,0,.06,0h0l.06-.08.09-.06h0l0,.06,0,0h0v-.06l0,0h0l.06.06h.08l0,0v0l0,0h0l0,0,0,0,.06,0h0l.06-.06.08-.06h0l0,0v.06l-.06.08v0l0,.08,0,.06v0h0v-.08l0-.06h0l0,0,0,0,0,0,0,0,0,0,0,0,0,0,0,0,.06,0,0,0v0h0l0,0v0l0,0,0,0,0,0h0v0h0v0h0l0,0,0,0,0,0v0l0,0v0l.06,0,0,0,0,0,0,0,0,0v0h0l0,0,0,0,0,0,0,0v0l0,0,0,0v0l0,0v0l0,0,0,0h0l0,0,0,0h0v0l0,.06,0,0,.07,0H51.76l0,0h0l0,0,0,0,0,0v0l0,0h.06v0l0,0h0v0l0,0,0,0v0h0l0,0v0l0,0,0,0v0h0l0,0h0l0,0h0v.06h.06l0,0h0l0,0,0,0h0l0,0,0,0h0l0,0v0h0l0,.06,0,0h0v0l.06,0v0h0l0,0v0l0,0,0,0v0l0,0,0,0h0l0,0h0v0l0,0,0,0v0l0,0v0h0l0,0v0h0l0,.06,0,0,0,0v0l.06,0h0l0,0,0,0,.06,0,0,0,0,.06h0v0l0,0,0,.07,0,0,0,0h0l0,0v.06l0,0,0,0,0,.06v0h0l0,0h0l0,0v0h0l0,0,0,0v0l0,0,0,0h0v0l0,0,0,0h0l0,0h0v0h0v0h0V81.83l0,0v0l0,0v0l0,0,0,0h0v0l0,0,0,0h0l0,0h0l0,0,0,0,0,0,0,0v0h0v.06h0l0,0v0l0,0,0,0,0,0,0,0,0,0h0l0,0h0v0h0v.06h0v.06h0l0,0,0,0h0v0l0,0,0,0,0,0h0v0h0l0,0h0v0l0,0,0,0,0,0h0v0l0,0,0,0,0,0,0,0v0l0,0,0,0h0l0,0,0,0,0,0v0h0l0,0,0,0,0,0h0v0h0v0l0,0v0l0,0h0l0,0h0l0,0v0l0,0,0,0,0,0h0v0h.06l0,0,0,0v0l-.08,0v0h0l0,0,0,0,.06,0,0,0,0,0,0,0,0,0,0,0,0,0h0l-.06,0v0l0,0v0l0,0,0,0v0h0l.06,0v0H52.1l0,0,0,0,0,0H52l0,0,0,0v0l0,0,0,0,0,0,0,0,0,.06,0,0,0,0,0,0,0,0,0,0h0l0,0,0,0h0l0,0h0l0,0,0,0v0l.06.06-.06,0h0v0l0,0h0l0,0,.06,0v0l-.08,0,0,0,0,0v0l0,0h0l0,0L51.9,84l0,0,0,.08h0l0,0h0l0,0,0,0,0,0h.06l0,0h0l0,0h-.06l0,0,0,0,0,0h0l0,0h0l0-.08,0,0-.06.06,0,0h0l0,0h0l0,0,0-.08h-.06l0,0,0,.06,0,.06h0l0,0,0,0h0l0,0v.1H51.3l-.06,0,0,0v.06l0,.06-.06,0,0,.07,0,0h-.19L51,84V84l0,0h0l0,0,0,.06v0l0,.06,0,.06v.09l0,0,0,0h-.06l0,0,0,0v.06l-.06,0h0l0-.06,0,0,0,0h0v.06l0,.06v0l0,0,0,0,0,0-.06-.06v0l-.06,0h0l0,0,0,0h0v0l.06,0,0,0v0l0,0h-.1l0,0,0,0,0,0h0l0-.06-.06-.07,0,0h0l0,0v0l-.06.09,0,.06,0,0h0l0-.08,0,0h0l0,0v0l0,.06v0l0,0-.1,0h-.06l0,0,0,0h0l0,0,0-.1,0,0h0l-.06.1,0,.08,0,.06,0,0H49l0,0v.22l-.06.06v0l0,0,0,0h0l-.06,0h0l0,.06,0,0,0,0-.09-.06-.06,0,0,0,0,0,0,0,.12.06,0,0v0l0,0h-.06l-.06,0-.06,0,0,0,0,0,0,.06,0,0,0,0,0,0,0,0,0-.06,0,0h0l-.1.08.06-.1,0,0h0l-.06,0h-.07l0,0,0,.06,0,0h-.06l0,0v0h0l0,.06v0l0,0-.1.06-.06.06,0,0h-.06l0-.06h0l0,0,0,.06-.06,0,0,0v.07l0,0h0l-.06,0v0l0,0v0l0,0h0l0,0,0,0,0,0,0,0,0,0,0,0h0l0,0,0,0-.1.08,0,0-.1,0,0,0,0,.06.1,0,.06.06.08.06v0L47,87V87l0,0h0l0,0,0,0,0-.06,0,0-.06,0h-.16l-.06,0-.06,0-.06.1V87l.06.12v0l0,0-.06,0-.09,0-.08,0-.06,0,0,.06v.09l0,.06,0,0,0,0,0,0-.06,0-.2.16-.06.06,0,.06-.06.08h-.2l-.06,0,0,0,0,.07,0,.12v.06l0,0-.06.06,0,0-.12,0,0,0,0,0,0,.06.06.06,0,.06,0,.1h0l-.18,0,0,0-.07.06h-.08l-.06,0,0,.1-.06.08-.06.1,0,.06,0,.06-.12.23,0,0h-.1l0,0,0,.08v.1l-.06.06-.06,0,0,0L44,90l-.12.06-.07.1-.08.06-.06.06-.16.2-.12.1-.06.06,0,0-.1,0H43l-.06,0-.12.1-.08.14v0l0,.1,0,.1-.07.06-.16.08-.06.07-.06.06,0,.08-.06.06-.18.1-.08,0h-.12l0,0,0,0,.06,0,.12.06,0,0,0,.1,0,0,0,0,.06,0,.06,0,0-.06h.08l0,0h.06l0,0,0,0v0h.1v0l.06,0,0,0,0,0,.08,0,0,0,0,0,0,.06,0,0h0l0,0v0l0,0,0,0v0l0,0h.06l0,0,0-.06.06,0h0l0,0,0,0,0,0v0l0,0v0h0v0l0,0,0-.06h0l0,0v0h0v0l.07,0h0l0,0h0l0,0,0,0h0v0h0v0h0l0,0h0v0l0,0h.1l0,0h.06l.06,0,0,0,0,0v0l0,0v0l.06-.06h0v0h.1l0,0,0,0h0l0,0,.06,0v0l0,.06,0,0h.06l.06,0,0,0h0v0l0,0,0,0,0,0,0,0v0l0,0,0,0v0l-.06,0v0h.06l0,0,0,0v0h0l0,0,0,0,0,.06,0,0,0,0,0,0h0l.06,0v0l.06.06,0,0,0,0v.06l0,0,0,0v0h.06l0,0v0l0,0,0,0h0l0,0,0,0,0,.06,0,0,0,0,0,0h0l0,0,0,.06h0v0h0v0l0,0v0h0v0h0l0,0h.07v0h0l0,0v0l0,0v0h0l.06,0,0,0v0l0,0v0l0,0v0h0l0,0,0,0,0,0,0,0v0h0l0,0h0l0,0v0h0v0l0,0,0,0H46l.06,0,0,0,0,0,0,0,0,0,0,0,0,0h0v0l0,0v0l0,0,0,0h0l0,0v0h0l0,0h0l0,.06h0l0,0h0l0,0v.06l0,0h0v0h0v.06l0,0h0v0l0,0,0,.06,0,0,0,0v0l-.06.06v.07l0,0,0,.06h0v.06l0,0,0,0,0,.06v.12l0,.06v0l.06,0v0l0,0,.06,0,.06,0,0,0,0,0h0l0,0,0,0h0v0h0l0-.06,0,0,.06,0v0l0-.06v0h.08l0,0,0,0,.06,0,0,0v0h.08l0,0,0,0V94h0l0,0h0l0,0h0l0,0,0,0v0h.08v0l0,0,0,0,0,0h0l0,0,0,0v0h0l0,0,0,0,0,0,0,0,0,0h0l0,0h0v0h0l0,0,0,0h0v0h0l0,0v0l0,0,0,0,0,0v0l0,0,.06,0v0l0,0,0,0V94l0,0,.06,0,0,0h0v0h0l0,0v0l0,0,0,0,0,0h0l0,0v0h0l0,0h0v0l0,0h0v.06l0,0,0,0v0l0,.06h0l0,0v.06h-.64v0h0l0,0h0v0h0l0,0,0,0v0l0,0h0v0l0,0,0,0,0,0v0h.06l0,0,0,0,0,0v.09h0v0h0l.14,0v0h0l0,0,0,0h0v0l.06,0h0v0h0l0,0,.06,0,0,0h0v0h0l0,0,0-.06v0h0l0,0,0,0,0,0,0,0v0h0l0,0,0,0,0,0,0,0,0,0,.06,0,0,0v0l0,0v0l.06,0v0l0,0h0v0h0l0,0,.06,0h0v0h0l0,0h0l0,0,.06,0,0,0h0l.07.06,0,0h.06l0,0,0,0,.07,0,.08,0,0,0h0l0,0,0,0h0l0,0h.22v0l0,0v0l.06,0v0h0v0h0v0h0l0,0h0l0,0,.07.1v0l0,0h0l0,.06,0,0,0,0v0h0v0h0v0h0v0h0v0h0l.76.56,0,0v0l.08,0,0,0v0l0,0v0h0v0l0,0,0,0,0,0h0v0h0l0,0h0v0h0v0h0l0,0,.08,0v0h0v0h0v0h0l0,0h0l0,0h.06v0l0,0,0,0,.06,0,0,0h0l0,0V97h0l0,0,0,0,0,0v0l0,0h0l0,0h0v0h.06l0,0h0v0l0,0,0,0,0,0v0h0l0,0,0,0,0,0h0l0,0v0l0,0h0v0h0v0h0v0h0l0,0,0,0h0v0l0,0,0,0v.06l0,0,0,0v0l0,0v0h0l0,0h0v0l0,0,0,0h0l0,.06.06,0,0,0v0l0,0h0l0,0,0,0,0,0h0v0l0,0,0,0,0,0,0,0,.07,0,0,0,0,0v0l0,0v0l0,0v0l0,0,0,.06h0v0h0v0l0,0,.06,0,0,0h0l0,.06h0l0,0h0l0,0,0,0,0,0,0,0h0l0,0h.06l0,.06.06,0,.08,0,0,0h0l0,0,.06,0h0l0,0,.06,0v0l0,0,0,0,0,0h.08l0,0,0,0,0,0,0-.14v0l0,0,0,0,0,0,0,0,.06,0,.1,0h.1l.12,0,.13-.08.06-.06v-.85l-.08,0v0h-.29v0l0,0,0,0h0v0h0v0l0,0,0,0v0l0-.06,0,0v0l0,0h0l0,0v0l0,0,0,0,0,0h0v0l0-.06,0,0h0v0h0l0-.1.06-.06h0l0,0,0,0v0l0,0,0,0h0l0,0v0h0l0,0,0,0h0v0l0,0h0v0l0,0h0v0h0v0h0v0l0,0,0,0,0,0h0l0,0,.06,0,0,0,0,0,.08,0h0l0,0v0l-.08.12-.06.16,0,.08V97l0,.06.12.19.08.18v0l0,.08,0,0,0,.1,0,.1,0,0-.18.32,0,.08-.12.19-.06.06-.08.06-.08,0-.08,0-.1,0-.07-.06,0,0-.06-.06L54,98.29l0-.06v0l0,0,0,0v0l0,0-.12.12,0,.06,0,0h0l0,0,0,0v0h0l0,0v0l0,0h0l0,0,0,.08,0,.1,0,.06v0l0,0,0,.14v0l0,0-.1.14-.08.09,0,.08,0,0h0l-.1,0,0,0v0h0v0h0l0,0L53,99l-.06.06,0,0,0,0,0,0h0l0,0h0V99.1l0,0,0,0,0,0,0,0h0l0,0,0,.06v0h0l-.1.26.06.3,0,.06,0,0v.06l0,.14h0l0,0,0,0h0v0l0,0v.06l0,.06,0,0,0,0v0l0,0h0l0,0v0l0,0v0h0l-.06,0,0,0,0,.06v0l0,0v0l0,0,0,0h0l0,0v0h0v.06l0,0,0,0v0h0l.22,0h0l0,0v0l0,0v0l0,0,0,0H53l.24-.18.08,0,.25-.18.28-.24.62-.5.14-.14.2-.22.09-.13.08-.12,0-.1.06-.12v0l0,0,.1-.18h0l.1-.26,0-.16v0l0-.18,0-.09.12-.3.06-.16.06-.12,0-.08.12-.16.08-.1.12-.1.08-.06.1-.06,0-.14,0-.06,0,0v0h0l0,0v0h0v0l0,0h-.1v0l0,0,0,0,0,0v-.07l0,0v-.1l0,0,0,0,0,0-.06,0-.06,0L56,95.87h0l0,0h0v0h0l0,0,0-.06,0,0,0,0h0l0,0v-.08l0,0,0,0h0l0,0h0v0l0,0v0l0,0v0l.06-.06.1-.06,0,0,.12,0h.06l0,0v0l0,0v0l0,0h0l0,0,0,0v0h0v-.06h0l0,.06,0,0-.06,0,0,0v0l0,0v-.1h0l0,0v0h0l.06,0h0l.09,0h0v0h0l0,0v0l0,.1,0,0,0,0,0,0,0,0v0l0,0h0v0l0,0h0v0l0,0h0l0-.06,0-.14v0h0v0l0-.12,0-.1,0-.22,0-.07,0,0h0l0,0v0l0,0,.06,0v0h0v0l0,0,.06,0,0,0,0,0,0,0v0l0,0h0l0,0v0l0,0v0l0,0,0,0,0,0,0,0,.06,0,.06,0v0l0,0,0,0h0l0,0,0,0,0,0h0l.1,0,.13,0h0l0,0,0-.08v-.12l0-.06,0,0,0,0h.08l0,0h0l.2,0,.06,0h0l0,0-.06-.12,0-.14v-.16l0,0,0,0,.08,0h0l0,0,.1,0,.06,0,0,0,0-.07,0-.14V93l0-.12,0-.12,0,0v0l0,0,0,0h.08l0,0v.07h0l0,0v0l0,0,0,0,0,.1,0,0-.06,0,.12,0v0l0,0h0l0,0v0l0-.12v-.12l0-.18v-.13l0-.08.08-.18,0-.06,0,0,0,0,0-.06.08,0h0l.08,0,0,0v0l0,0,0,.08,0-.08,0,0v0l0,0v0l0,0h0l0,0V92h0l0,0h0l-.06,0-.06,0,0,0,0-.1v-.1l-.06,0,0,0h0v0l0,0h0l0,0,0-.06v-.06l0,0v0l0,0h0l0,0v0l0,0-.06,0h0l0,0v-.06h0v-.06l0,0h0v0h0l0,0v-.06l0,0h0l0,0v0l0,0v0h0l0,0,0,0h0v0l0,0,0,0h0v-.06l0,0h0v0l0,0,0,0,0,0v0l0,0h0v0h0l0,0-.06,0h0v0l.06,0,0,0,0,0h0v0h0v0l0,.06h0v0h0l0,0,0,0v0h0l0,0v0l0,0,0,0v0l0,0,0,0v0l0,0h0l0,0,0,0h0l.06,0,0,0v0h0l0,0h0l0,0,0,0h0v0l0,0,.08,0,0,0,0,0h0l0,0,.06,0v0l0,0h0l0,0v0h0l0,0h0l0,0,0,0,0,0,0,0,0,0h0v0h0l0,0,0,0h0l0,0,0,.06,0,0h0l0,0,0,0h0v0l0,0h0l0,0v0h0v0l0,0,0,0h.12l.1,0,.12.06.08,0-.06,0,0,0,0-.08v0l0-.08,0,0,0,0h.19l.12,0,.06,0h0v0h0l0,0V92l0-.06,0,0v0h0v0l0,0,0,0h0l0,0H60l0,0v0l0,0,0,0,0-.14,0,0,.06,0,.06,0h0l.06.12h0l0,0h0l0,.06,0,0v0l0,0,0,0,0,0v.08h-.06l0,.08,0,0,0,.12,0,0v0l0,0h0l0,0L60,92.35l0-.06v0l0,0,0,0,0,0,0,0h0l0,0h0v0l-.06-.1,0,0v0l0-.06L60,92v0l0,0,0,0,0,0,0,0h0l0,0h0v0h0v0L59.9,92l0,0,0,0v0h0v0h0l0,0,0,0,0,0,.06.1,0,.2,0,.28v.11l0,.14,0,.1-.08.14,0,0,0,0-.16.06v0l-.06,0,0,0-.06.06-.08,0h-.09l-.06,0v0l0,.08,0,0v.13l0,0,0,0,0,0,0,0h0l-.1,0-.06,0,0,0,0,0h0l-.08,0,0,0,0,0h0v0l0,.06V94l0,.2,0,.12v.06l0,.14,0,.06-.06.13-.1.12-.06.06-.08,0-.06,0-.1,0h0l-.1,0,0,0v-.06l0,0,0,0,0,.08,0,.06v0l0,0,0,0v0l0,.06,0,.06,0,.07h0l0,0-.06,0h0l0,0,0,0h0l0-.06,0,0-.06,0-.1.16-.12.14-.19.16-.08,0h-.06l-.06,0H57l-.1,0h-.06l0,0H57l0,0h0v0l0,0h0v0h0l0,0h0v0h0l0,0v0l-.06,0-.06,0,0,0h-.1l-.06,0,0,0-.14-.08-.09,0h-.08l0,0-.06-.06,0,0h0v0h0l.06.06,0,0v0h0l0,0v0l0,0,0,0,0,0,0,0v0l.06,0,0,0,0,0v0l0,0h0l0,0,0,0,0,.06v0l0,.06,0,.1,0,0,0,0-.06.06v0l0,0v0l.25-.26.14-.14.1-.08L57,96l.26-.14.25-.1.24-.14.16-.09.18-.12.2-.14.18-.14,0,0,0,0,.06-.08,0,0,0,0v0h0l0,0,.14-.1.2-.18.24-.2,0,0,.12-.1.1-.1,0,0,.06-.09,0,0,.06-.08,0,0,0-.06.16-.24,0,0,.28-.38.23-.33.08-.12.16-.2,0,0,.08-.14.06-.12.06-.12.06-.2,0-.06,0-.06v0l0-.08,0-.08.1-.29,0-.08,0-.08.06-.16.1-.24,0-.06.06-.12.07-.12.06-.15.06-.14,0,0,0,0,0,0,0-.06.3-.43.14-.16.06-.06v0l.06-.06h-.1v.06h.1l.19-.24.32-.38,0,0,.2-.23.12-.12.12-.1,0,0,.06-.06.26-.2.29-.16.2-.14.22-.12.14-.06,0,0h0l0,0,0,0,0,0,0,0v0l.06,0h0l0,0,0,0,0,0,0,0,0,0h0v0l0,0h0l0,0v0h-.06v0l0-.06,0-.06,0,0h0v0l0-.06,0-.06.06-.07,0,0h0l0,0,0-.06.06-.12.08-.06,0,0v0l-.12,0v-.08l0,0v0h0v0l0-.06v0l0,0,0,0h0v0l0,0h0v0h0V86.1l0,0v0l0,0,0,0h0V85.9l0,0v0l0,0,0,0,0,0,0,0v-.06l0-.06,0,0,0,0v0l0,0v0l.06,0,0,0h0l0,0v0h0v0l0,0,0,0,0,0,0,0h0v0l0,0,0-.06,0,0,0-.06,0,0,0,0v.16l0,0,0,0,0,0,0,0v0l0,0V85l-.06,0,0,0,0,0v0l0,0,0,0v0l0,0h0l0,0h.06v0h0l0,0,0,0h0l0,0,0,0v0l-.06,0,0,0,0,0-.06,0v0l0-.08,0,0v-.07l0,0,0,0,.06,0h0l0,0h0l0,0h0l0,0h0v0h0l0,0v0l0-.06h0v0l0,0v0l0,0,0,0v0h0v0l0,0h0l0,0v-.06l0,0h0v0h0v0h0l0,0h-.07v0l0,0,0,0,0-.06v-.06l0,0V83.7h0l0,0v0l0,0,0,0,0,0,.06,0,0,0,0,0v0l0,0v0l0,0h0l0,0h0l0,0h-.06l0-.06,0,0,0,0,0,0h0l0,0,0,0,0,0v0h-.06l0-.06,0,0,0,0,0,0,0,0,0,0v0l0,0v0l0,0h-.06l0,0-.06-.06,0-.06v0h0v0l0,0v0h0l0,0,0,0,0-.06,0,0v0h0l0,0,0,0h0l0,0v0h0v0l0,0,0,0v0h0l0,0,0-.06,0,0h0l0,0,0,0h0v-.06l0,0,0,0,0,0,0,0,0,0,0-.06,0-.1,0,0h.06l0-.06,0,0,0,0h0v0l0,0h-.06l0,0,0,0,0,0v0l0,0,0,0,0,0,0-.08,0-.07,0,0v.29l0-.14,0-.1,0,0,0-.07.06-.1,0-.08.06-.06v0l0-.06.06-.12,0-.08.06-.1.06-.12,0,0,0,0v0l0,0v0l0,0,0-.06,0-.08,0,0,0,0h-.1l0-.12V80.9l0,0,0,0,0-.16v-.06h0l0,0,0,0,0-.12,0-.06,0,0,0,0v0l0,0,0,0,0,0v0l0-.1.14-.22.09-.16.06-.08.08-.06.06,0H66l0,0,0,0h0v-.07h0l0-.08L66,79.33l.06,0,.06,0,.06,0h0l0,0,0-.08.06-.06.06-.1.06-.06.08-.06,0,0,.19-.18.14-.1.06-.06.06,0h0v0h0v0l0-.07,0,0v-.06l0,0,0-.06v0h.06l0-.06,0-.06.08-.1.18-.16.33-.24.08-.06.22-.14.1-.07.12,0,0,0,.08-.06v0h0l.36-.22.07,0V77l.06-.06,0,0v0l0,0,.1-.06.12-.08,0,0,.06,0,.06,0h0v0l0,0,0,0v0h0l0,0,0,0h0v0l0,0,0,0,0,0,0,0v-.08l.16-.14.12-.06.18-.12.06,0,0,0,.2-.1.27-.16.28-.13.1-.06.1,0,.06,0,0,0h0l0,0v.08h0l0,0v0h0l0,0h0l0,0h0l0,0v0h.09l.06,0,0,0,0,0,0,0v.06h0v0l0,0,0,0,0,0,0,0v0l0,0h0l0,0,0,0,0,0h.12l0,0,0,0v0l0,0h0v-.08l0,0,0,0,0,0h0v0l0,0,0,0v0l.06,0h0l0,0h-.14v0l0,0v0l0,0,0,0-.06,0,0,0h0v0l0,0,.1-.06.06,0,0,0,0,0,0,0h0l0,0v0l0,0,.06,0,0,0,0,0,0,0,.18-.06.14,0h.08l0,0v0l.09,0h0v0h.16l0,0,0,0h.06v0l0,0h0v0H73l0,0,0,0h0L73,75l0,0h.06l0,0v0h0l0,0v0h.06v0h0v0h0l0,0h0l0,0,.06,0v0l0,0,0,0,0,0,0,0v0l0,0v0l0-.06,0,0v0h-.06l0-.06,0-.07v-.08l0-.06,0,0h0v0h0l0,0,0,0,0,0v0l.06-.06.06,0,.06,0h0l0,0,0,0H74v0l0,0,0,0h0l0,0h.08v0l0,0v0l0,0h0l0,0,.06,0,0,0v0h.08v0h0l0,0,0,0v0h0l0,0,0,0v0h0l0,0,0,0,0,0v0h0v0l0,0v0h0l0,0-.06,0,0,0,0,0h0l0,0,0,0h0v.06l0,0v0l0,0h0v0l0-.06h0l0,0h0v0h0l-.32.08,0,0,0,0v-.06l0,0,0,0,0,0v0l0,0h.06l0,0,0,0h0l0,0,0,0h0l0,0h0l0,0v0l0,0h.06l0,0,0,0h.06l0,0,0,0v.06l.06,0h0l.06,0,0,0,0,0H75l0,0h0l0,0v0h0l0,0,.09,0h.06l0,0,0,0h0v0l.06,0,0,0h0v0l0,0,0,0,0,0h0l0,0,0,0,0,0v0l0,0h0v0h0v.06l0,0h0l0,0,.06-.06v0l0-.06,0,0,0,0,0,0h.06l0,0,0,0v0h0l0,0-.06,0,0,0v0l0,0-.06,0,0,0,0,0v0l0,0,0,0-.24.08-.07,0v0l-.06,0,0,.06,0,0h0v0l0,0-.06,0v0l.06,0,0-.08,0,0-.06,0h0l0,0h0v0l0,0h0l0,0h0l0,0,0,0,0,0,0,0h0l0,0,0,0v0h0l0,0h0l0,0h0v0h-.06l0,0h0l0,0,0,0,0,0v0h0l0,0h0v0l0,0,0,0v0h0l0,0h0v0h0l0,0,0,0v-.06l0,0h0l0,0,0,0v.06h0v0l0,0,0,0v0l0,0,0,0h0v0l.06,0h0v0l0,0h0v0l0,0,0,0,0,0v0h0l0,0h0l.06,0h.06l0,0,0,0,0,0h0l0,0v0h0v0l0,0,0,0,0,0h0l0,0,0,0h0v0h0l0,0v0h0l0,0v0h0v0l0,0v0h0v0l0,0,0,0,0,0,0,0,0,0v0h0v0h0l0,0,0,0-.06,0v0l0,0h0l0,0h0l0,0h0l0,0,0,0h0l0,0,0,0v0h0l0,0,0,0v0h0l0,0,0,0,0,0,0,0v0h0l0,0v0l0,0,0,0v0h-.18l0,0,0,0v0h0v0l0,0,0,0v0h0v0l0,0h0v0l0,0,0,0,0,0h0v0l0,0,0,0v0l0,0,0,0,0,0,0,0v0h0l0,0h0v0l0,0,0,.06v0l0,0,0,0,.08,0h0l0,0h0v0l0,0,0,0v0h0l0,0h0l0,0v0h0l.06,0,.06,0v0h0l0-.06,0,0v0l0,0,0,0,0,0,0,0,0,0,0,0,0,.06,0,0,0,0,0-.06h0v0l0,0,0,0h0l0,0h.06l0,0h.12l.06,0h0l0,0,0,0,0,0h.06l0,0,0,0,0,0,0,0h0l0,0,0,0,0,0v0l0,0h0l0,0h0v0l0,0,0,0v0l.09.06,0,0v0l0,0,0,.06h0l0,0v0l0,0,0,0,0,0h0v0h0l0,0,.06,0,0,0h0l0,0,0,0,0,0v0h0v0l0,0v0h0v0l0,0,.06,0,0,0,0,0h.06l0,0,.06,0L79,73h.16l0,0,0,0h-.3v0h-.12l0,0,0,0v0h0l0,0H78.6l0,0,0,0v0l-.06,0v0h0l0,0,0,0,0,0,0,0h.06l.06,0,0,0h0v0l0,0,0,0,0,0h0v0l0,0H79l.06,0h.1l0,0v0l.06,0h0v0h0l0,0,0,0h0l0,0,0,0v0h0l0,0,0,0,0,0h0v0h0l0,0v0h0l0,0,0,0,0,0,0,0,0,0h0l0,0,0,0v0l0-.06,0,0,0,0,0,0v0l0,0,0,0v0l0-.06h0l0,0v0l.07,0,0,0,0,0h0l0,0h0l0,0v0l.08,0h0v0l0,0,0,0,0,0,0,0,0,0v0l0,0,0,0,0,0h.06l0,0,.06,0h0l0,0,0,0v0h0l0,0,0,0,0,0v0l0,0v.06l-.08.06,0,0v0l0,0,0,0,0,0-.06,0,0,0v0l0,0,0,0,0,0,0,0,0,0h0l0,0,0,0v0l0,0,0,0,0,0h0l0,0h0v0l0,0h0l0,0h0l0,0v0l0,0h.06v0l0,0h.06l.06,0,0,0h0l0,0,0,0h0l0,0h.1l.08,0,.12,0,.16,0,.24,0,.06,0h0v0l0,0,.1,0h.33l.06,0,0,0h.3l.2,0,.55,0,.08,0,0,0,0,0,.06,0,0,0v-.06h0v0l0,0h0l0,0,0,0v0l0,0,0,0,0,0v0h0l0,0v0l0-.06,0,0,0,0h0v0l0,0h0l0,0v-.08l0-.06.06,0v0l0,0v-.06l0,0,0,0,0,0h0l0,0,0,0,0,0h0v0l0,0h0l0,0,0,0,0,0,0,0v0l0,0v0l0,0,0,0v0h0l0,0,0,0h0l0,0,0-.06v0h-.06l0,0,0-.15v-.14l0,0,0-.1,0,0,0,0,0,0,0,0h0l0,0,0,0,0-.06,0,0h0l0,0h0l0-.06v.12l0,0,.06-.06.06,0h0l.06,0,0,0,0,0h0v0l0,0,0,0h0l.12-.1.18-.08.06,0,.06,0,.1-.06.15-.06.14,0,.34-.08.12-.06.1,0,.12-.06.06-.07.12-.08.08-.06.1-.06,0,0,0,0,0-.06v-.07l0-.08-.06-.3-.06-.18v-.1l0-.19h-.06l0,0,0,0-.06-.1v0l0-.07.06-.06,0,0,0,0,.06-.06,0-.06,0,0h0l0-.08h0l0-.06,0-.06v-.16l0-.06.06-.12,0-.06.07,0,0,0,.06,0,.06-.23,0,0,0-.06v0h0l0,0h0l0-.06v0l0,0,.06-.06v0l0,0v-.06l0,0,0,0,0,0h0l0,0h0v0h0l0,0h0l0,0h0v0h0v0h0l0,0,0,0,0,0v0h0l0,0,.06,0,0,0,0,0v0h0v0h0l0-.06,0,0,0,0,0,0h0l0,0v0l0,0,.06-.06h.06v0h0v.06h0l0,0,0-.06,0-.06h0v0l0,0,0,0,0,0,0,0,0,0h0l0,0,0,0,0,0,0-.06v0h.08l0,0,0,0,0,0v0h0l0,0,0,0h0v0h0l0,0,0,0v0l0,0h0l0,0h0v0l0,0,0,0,.06-.07V66.7l.06-.1,0-.06h0v0l0-.08.07-.14v0l0-.06.06-.08,0,0,0-.07h0v0l0,0v0h0v0h0l0,0,0,0,0,0,0,0h0l0,0v0l0,0v0l0-.06.06-.06,0-.06,0,0v0l0,0v-.06l0-.12v-.09l-.06-.06,0,0,.06,0,0-.06v0l0,0v0l0,0,0,0,0,0v0l0,0,0,0,.06,0v0l0,0v0l0,0,0,0,0-.06,0-.06v0l0-.05.06-.06.1-.1.12-.1.06,0,.1-.06.08,0h.06l0,0v-.06l.09-.18.09-.24.08-.26,0-.16,0-.16-.42,0,0-.19L88,62.51l0-.28v-.14l0-.2,0-.16,0-.1,0,0v-.23l0-.08,0-.12v0l.08-.16,0-.06,0,0,0-.06v0l.06-.1v0l.12-.22.08-.12,0,0,0,0,0,0,0,0,0,0h0v0h.06l0,0,.06-.14.06-.13.06-.06.06-.06.13-.06.06,0h0l0,0,0,0,0,0h0l.14-.06,0,0,0,0v0l0,0,.14-.14,0,0,.06,0,0-.06.12-.1,0,0h0l-.12-.16,0-.1v0l0,0,0-.12v-.16l0-.13,0-.12v-.06l0-.14,0-.08v-.22l0-.06,0,0,0,0,0,0v-.06l0,0,0,0,0,0v-.1l.06-.08v-.1l.06-.1,0,0,0,0,0-.07,0-.16,0-.1v0h0l0,0v0l0,0,0,0h0v0l0,0,0,0,0-.06v-.1l0-.08v-.06l.06-.1v0l0,0v-.06l0,0v0l0,0h0l.06-.08,0,0,0,0v-.08l0,0v0h0l0,0,0-.06,0-.08,0,.06v0l0-.06h0v0l.06-.06,0,0,0-.06,0,0,0-.07,0,0,0-.06v-.1l0,0,0-.1.06-.12.07-.24.06-.08,0,0,0,0v0l0,0v0l0,0v0l0,0-.06-.14,0,0v0l0-.12h0l0-.14,0-.16v-.16l0-.15,0,0v0L90,53.27l0-.22,0,0,0,0,0-.1v-.67l0-.1v0l0-.06,0-.1v-.2h0v0h0l0,0v-.06h0l0,0,0-.06v-.29l0-.16,0,0,0-.06v-.08l0-.06,0-.14,0-.14v-.06l0-.07v0l0,0v-.08l0,0v0l0-.06,0-.1v-.08l0-.06,0-.08.06-.16v0l0-.06,0-.08v0l0-.16v-.08l0-.06,0,0v0l-.06-.08,0-.07,0-.1V49L90,49l.06-.06,0,0v0l0,0h.06l0,0h0l0,0v0l.06-.06,0,0v0l0,0h0v-.06l0,0,0,0v0h-.14l0,0v0l0-.08v0l.06,0v0l0,0h0v0l0,0,0-.06,0,0,0,0,0,0,0,0v-.08h0l0,0,0,0,0,0-.06.06,0,0L90,48l0-.06,0-.14v0l0-.12,0-.06,0,0h0v0l.06,0,.06,0,0,0,0,0,.06,0,0,0,0,0h0l0,0,.06,0v0l0-.06,0,0h0l0,0,0,0,0,0h0l.06-.06h0l0,0,0-.06,0,0,0-.06h0v0l0-.07,0-.06.14,0,0,0,0,.06-.06.13.12,0,.08,0v0l0,0h0l.07,0,.06-.07.08-.06,0,0h.1l.06-.06.06-.08.06-.06h0l0-.06,0-.06.06-.06.06-.06.06,0,.12-.16.08-.09,0-.06,0,0,0,0h0v-.08l0,0,0,0,0,0,.07-.08,0-.06,0-.06,0-.06.06-.08.06-.09h0l0,0h0l0,0,.1-.16.14-.18.06-.06.16-.27,0,0,0-.06,0-.06.07-.08.06-.1,0-.08.14-.28.12-.28L94,43.5l.2-.38.06-.1.1-.1,0,0,0,0h.06v0l0,0,.06-.2.09-.16.14-.16.14-.16,0,0,.06-.15.2-.26.06-.08v0l.08-.12.07-.1.06-.08.22-.22,0,0,.08-.08.2-.15.12-.06.06-.06.08-.06.1-.06.2-.08.16,0,.08,0,0,0v-.08l0,0,0,0,0,0,.1-.22L97,40h0l0,0v0l0,0v-.1l0,0,.06-.06.08-.06.06-.09.06,0,0-.06,0,0,0,0,0,0v0l0,0,0,0,.06-.08,0,0,0,0,0,0v0l0,0,.06-.12.06-.1,0-.06.06-.1.1-.08,0-.08,0-.06.06-.08.1-.12,0,0,0,0,.07-.07h0l.06-.08.06,0h0v0h0l0,0,0-.06h0V38l0-.06,0,0,0,0,0-.06h0l0,0,0,0v0l0,0h0v-.06L99,37.6l0,0L99,37.5h0v0h0l0-.06,0-.08,0,0,.06-.07,0,0,.06,0v0l0,0,.06,0h0l0,0,0,0,0-.06,0,0,.06-.06,0-.06v0l0,0,0,0v0l0,0,0,0,0,0v-.08h0l0,0v-.06l0,0v0l0,0v0l0,0,0,0h0l0,0v0l0-.06,0,0,0-.06.06-.06,0,0,0-.06,0-.07,0,0v0l0-.1,0,0v0l0-.06v-.06l.06-.06h0l0,0h0v.72l.06-.06,0,0,0,0,0,0v0l0,0,0,0,0,0,0-.06,0,0,.07-.08v-.06l0,0,0,0,0,0,0,0,0,0h0V35.6l0,0,0,0v0l0,0v-.06l0,0,0,0,0-.06.06-.16,0,0,0,0h0l0,0,0,0h0v0l0-.08,0,0v0l0,0,0-.07.06-.08h-.49l0-.06v-.06l0-.06.06-.18.07-.12v0l.06-.06v.12l0-.06,0-.12V34l0,0v-.08h0v0h0l0,0v0h0V33.7l0-.12,0-.06,0,0,0,0h0l0,0,0,0h0l0-.1,0-.06v0l0,0v0l0,0,0,0,0,0h0l0,0h0l0-.06,0,0,0-.06,0,0,0,0,0,0V32.6l0-.07,0,0,0,0,0-.06,0,0,0,0,0,0v.06l0-.06,0-.06,0,0v-.14h0ZM73.52,17.61l0,0Zm0-.32h0l0,0,0,0ZM62.36,87.38h0l0-.06,0,0h0v0h0l0,0,0,.06,0,0,0,0Zm-.34.34v0h0v0Zm-.62,1.33h0l0,0,0,0h0v0h0v-.1h0v0h0v.14Zm-1.77-2.72h0l0,0h0ZM55.51,84h0l0,0v0h0v0Zm-1.78-.4h0l0,0Zm-.56.06h0l0,0h0Zm8.91,3.49,0,.06,0,0h0l0,0,0-.06h0l0,0Zm-.1,0h0v-.06l0,0h0l0,0v.06h0l.06,0,0,0Zm-.16,1.26h0l0,0,0,0V88.3h0v0l0,0,0,0Zm0,.1h0l-.06,0,0,0Zm-.2-1.43,0,0,0,0h-.08l0,0,0,0,0,0h0v0h0l0,0,0,0,0,0h.08l0,0,0,0,0,0,0,0,0,0v0l0,0h0l0,0h0l0,0,0,0,0,0h0l0,0,0,0,0,0h0l0,0h0l0,0v0l0,0Zm-.18,1.84h0l0,0h0v0Zm.93-1.7h0Zm-.12,0h0l0,0h0l0-.07h0l0,.07h0l0,0Zm0,0ZM61.36,87h0v0Zm.85.1h0l0,0Zm-1,0,0,0,0,0v0l0,0v0l0,0v0l0,0Zm.56,1.09h0l0,0v0Zm-.06,0h0l0,0v0Zm0-.24h0v0h0v0h0v-.06Zm0,.08V88h0v0h0Zm0,.1,0,0v0Zm0,.2h.06v0Zm.1-1.21h0l0,0h0l0,0h0l.06,0h0l0,0h0v0h0l0,0h0Zm.08,0h0l0,0,0,0h0l0,0,0,0Zm.35.16ZM55.73,84h.1l0,0,.06,0h0l-.06,0,0,0ZM61,87h0l0,0v0Zm.28.14,0,0v0ZM61.3,89h-.06l0,0,0,0Zm.06.06h0l0,0h0Zm.24-.24h0l0,0v0h0Zm.16-.18H61.7l-.06,0h-.06l0,0h0l.06,0h0l0,0v0h0l0,0Zm.18-.89h0l0,0h0Zm0,0v0h0v0Zm.12-.08h0v0h0v0h0v0l0,0Zm.19-.18h0v0h0Zm12-70v0h0Zm-.79.16h0l0-.06,0,0,0,0h0l0,.06Zm-.91-.51h0l0,0Zm-.1-.12,0,0,0,0,0,0Zm-.12-.14,0,0h0l-.06,0,0,0,0,0,0,0h0l0,0Zm-.16-.08h0v.06l0,0Zm-19.51,67H52.6l0,0-.06-.06h-.06l-.06,0H52.3l0,.08h0l0,0h0l0,0h0l0-.08h.08l.06,0h.06l.06.06,0,0Zm1.34.06,0,0,0,0h0v-.06h0v0h0l0,0,0,0Zm0-.16h0l0,.06h0l0-.06h0l.06,0h0Zm.14.08-.06,0h0l0,0h0l0,0h0l.06,0,0,0h0Zm.1-.06-.07,0h0l.07,0h0l0,0h0Zm.92.26-.08,0,0-.06,0,0H55l0,0-.06,0,0,0h0l0,0,0-.06h0l0,0V84l0,0h0l0,0v0l0-.06,0,0h0l0,0,0,0,0,0v0l0,0h0l0,0v0l0,0,0,0,0,0h0l0,0,0,.06v0l0,0h0l0,0v-.06l0,0h0l0,.06,0,0h0l0,0L55,84l0,0h.08l0,0,0,.06,0,0Zm.14-.14-.08.06h0l.08-.06h0v0h0v0Zm.13.2h0l0,0,0,0L55.34,84v-.06h0V84l.07.06,0,0Zm.24.06,0,0,0,0,0,0h0l0,0,0,0,0-.06h0l0,.06,0,0,0,0h0l0,0,0,0Zm.2,0,0-.06h0l-.06,0h0l.06,0h0ZM56,84l0,0,0,.06,0,0,0,0h0l0,0,0,0,0-.06,0,0h0l0,0,0,0h0l0,0Zm.16.06h0l-.06,0,0,0h0l0,0,.06,0h0l0,0h0Zm.2.12h0l-.06,0,0,0h0l0,0h0l0,0h0l0,0,.06,0h0l.06,0h0Zm.06,0h0l0,0,0,0,0,0h.06l0,0v0h0v0l0,0h-.06l0,0,0,0Zm.1.12h0l0,0h0l0,0h.1l.06.06h0l-.06-.06Zm.26.28h0l0-.06v-.08l0,0h0l0,0,0,0h0l0,0h0l0,0h0l0,0,0,0h0l0,0v.08l0,.06Zm0-.1h0l0,0h0Zm.23.12h0l-.06-.06,0,0,0,0,0,0h0l0,0,0,0,0,0,.06.06Zm0-.1h0v0h0v0h0l.08,0h0Zm.22,0h0l0,.06,0,0h0l0,0,0,0h0l0,0,0,0h0l0,0,0-.06h0l0,0h0l0,0Zm.12.1h-.06l0,0h0l0,0h.06l0,0Zm.14,0,0,.06h0l0,0h0l0,0h0l0-.06Zm.1.14h0l0,0,0,0h0l0,0,0,0h0l0,0h0Zm.2,0,0,0h-.06l-.06,0,0,0h0l0,0,.06,0h.06Zm0,.08h0l0,0,0,0h0l0,0h0Zm0,0h0l.06,0h0Zm.18,0,0,0,0,0,0,0,0,0h0l0,0,0,0,0,0,0,0,0,0v0h0v0Zm.18.14,0,0-.06,0,0,0,0,0h0l0,0,0,0,.06,0Zm.1.13,0,0-.06,0h0l.06,0,0,0,0,0h0Zm.3.2-.06,0,0,0h-.06l0,0,0,0,0,0,0,0,0,0-.06,0h0l.06,0,0,0,0,0,0,0,0,0,0,0h.06l0,0,0,0Zm.06,0h0l0,0h0Zm.1,0h0l-.06,0h0l.06,0h0l0,0,0,0h0l0,0Zm.07.12h0l0,0,0,0Zm.26.22,0,0v0l0,0,0,.06h0v0l0,0v-.08l-.06,0,0,0h0l0,0,.06,0v.08l0,0v0h0l0-.06,0,0,0,0,0,0,.06,0h0l0,0h0l0,0h0Zm.1.1h0l0,0h0Zm0,0h.08l0,0h0l0,0Zm0,.18h.06l0,0,0,0h0l0,0,0,0Zm.18.1-.06.06h0l0,0h0l0,0h0l0-.06h0l.06,0h0l-.06,0Zm.06.06h0l.06,0v0h0v0Zm.28.32h0l-.08-.06h0v-.1l0,0v0l0,0,0,0,0,0v0h0l0,0,0,0,0,0v0l0,0v.12h0l.08.07Zm.06.07,0,0h0l0,0h0l.06.06h0Zm.08.14-.06,0h0l.06,0,.07,0h0Zm.29.2h0l0,0,0,0,0-.06,0,0h0l0,0h0l0,0h0l0,0h0l0,0h0l0,0,0,.06,0,0Zm.46,0h0l0,.06h0l0,0h-.1l0,0,0,0h-.08l-.06,0h0v0h0l.06,0h.1l0,0,0,0h.1l0,0h0l0,0h0v0l0,0Zm.12,0h0l0,0h0v0h0l0,0,0,0h0l0,0v0l0,0Zm.14.06-.06,0,0,0h0v0h0l0,0Zm.24,2,0,0h0v0h0v0h0v0Zm.23.19h0l0,0h0l0,0h0l0,0v0h0v0l0,0v0h0v0l0,0v0h0l0,0v0l0,0v0h0v0l0,0v0h0v0l0,0h0l0,0h0l0,0v0h.06v0h0l-.06,0Zm.06.06h0l0,0Zm.48-.3h0l-.06,0,0,0h0l0,0h0v0h0l0,0,0,0,0,0,0,0,0,0-.06,0,0,0h-.06v0h0l-.06,0h-.08v0h.08l.06,0h0v0h.06l0,0,.06,0,0,0,0,0,0,0,0,0,0,0h0v0h0l0,0h0l0,0,.06,0,0,0h0l0,0h0l0,0h0v0Zm0,.06h0l0,0,0,0Zm.24.14h0l-.06,0h-.06v0l0,0v0l0,0H62v0h.06l0,0v0l0,0v0h.06l.06.06h0l0,0,0,0v0l0,0h0l0,0,0,0v0l0,0Zm.19-1.8,0,0h0v0h0Z"/><path id="Path_1508" data-name="Path 1508" class="cls-1" d="M58.67,92.32h0l0,0,0-.08h0Z"/></g><g id="LGPD-2" class="cls-3"><text class="cls-4" transform="translate(36.75 41.58)">LGPD</text></g></g></g></svg>