<svg id="Layer_1" data-name="Layer 1" xmlns="http://www.w3.org/2000/svg" viewBox="0 0 43 43"><defs><style>.cls-1{fill:#2196F3;}</style></defs><title>nerc_logo</title><path class="cls-1" d="M30.21,21.39v-2H41.48L30.21,11.2V7.43L21.5.15,12.79,7.43V11.2L1.52,19.37H12.79v2L1.52,29.56h10.8L7.14,42.79l14.36-8.5,14.36,8.5L30.67,29.56h10.8Zm-12.43-4L28.21,9.92v7.45Zm7.78,12.19L21.5,32l-4.06-2.4Zm-8-2,10.67-7.62v7.62ZM35.32,17.37H30.21V13.67Zm-8.24-10H15.93L21.5,2.75Zm-12.28,2H25.48L14.79,17V9.42Zm-7.11,8,5.11-3.71v3.71Zm7.11,2H25.57l-10.77,7.7v-7.7ZM7.68,27.56l5.11-3.71v3.71H7.68Zm3.44,10.54L14.29,30l5.24,3.1Zm12.34-5L28.71,30l3.17,8.09Zm6.75-5.56V23.86l5.11,3.71H30.21Z"/></svg>