<svg id="Layer_1" data-name="Layer 1" xmlns="http://www.w3.org/2000/svg" viewBox="0 0 42.37 27.9"><defs><style>.cls-1{fill:#2196F3;}</style></defs><title>pci</title><path class="cls-1" d="M12.84,18.3H11.67v2.85h1.2a1.46,1.46,0,0,0,1.58-1.53C14.45,18.7,13.41,18.3,12.84,18.3Z" transform="translate(-0.32 -7.55)"/><path class="cls-1" d="M34.92,7.55.32,9.18,9.59,35.45l33.1-10.36ZM14.35,23.45H11.58v3.28H7.09V16.07h7.42a3.53,3.53,0,0,1,3.32,3.49A3.64,3.64,0,0,1,14.35,23.45ZM29.7,18.93s-7.09-2.18-7.09,2.47S29.7,24,29.7,24v2.72a10.49,10.49,0,0,1-4.16.53c-3-.16-6.51-2-6.51-5.86,0-3.34,2.95-5.68,6.13-5.91s4.54.58,4.54.58Zm6.17,7.8H32V16.07h3.87ZM33.93,14.9a2.43,2.43,0,0,1-2.56-2.27,2.58,2.58,0,0,1,5.12,0A2.43,2.43,0,0,1,33.93,14.9Z" transform="translate(-0.32 -7.55)"/></svg>