<svg id="Layer_1" data-name="Layer 1" xmlns="http://www.w3.org/2000/svg" viewBox="0 0 75 75"><defs><style>.cls-1{fill:#fff;}.cls-2,.cls-4{fill:none;stroke:#1e65c5;}.cls-2{stroke-linecap:round;stroke-linejoin:round;stroke-width:2.03px;}.cls-3,.cls-5{fill:#1e65c5;}.cls-3{opacity:0.1;}.cls-4{stroke-miterlimit:10;stroke-width:2px;}</style></defs><title>compliance_ico</title><polygon class="cls-1" points="9.61 4.04 10.61 2.21 13.11 1.46 52.14 1.5 68.08 17.5 68.02 36.38 68.11 72.13 65.69 74.21 12.02 74.38 8.69 71.63 9.27 4.04 9.61 4.04"/><path class="cls-2" d="M23.64,30.38l-2.54,2.54-.48.48a.34.34,0,0,1-.48,0l-.48-.48-1.27-1.27"/><path class="cls-2" d="M23.64,39.63l-2.54,2.54-.48.48a.34.34,0,0,1-.48,0l-.48-.48L18.39,40.9"/><path class="cls-2" d="M23.64,49.13l-2.54,2.54-.48.48a.34.34,0,0,1-.48,0l-.48-.48L18.39,50.4"/><path class="cls-1" d="M57,1.15l0,0-.09,0Z"/><path class="cls-3" d="M54.65,3.28m-2.57-.47L67,17.5H52.08Z"/><path class="cls-4" d="M52.08,1.5v13a2.65,2.65,0,0,0,2.81,3H68.08m-4-5.27"/><path class="cls-4" d="M68.08,17.22V71.16a3.34,3.34,0,0,1-3.34,3.34H12.59A3.52,3.52,0,0,1,9.08,71V4.84A3.34,3.34,0,0,1,12.42,1.5H52.14Z"/><rect class="cls-5" x="28.5" y="30.33" width="31" height="2" rx="1" ry="1"/><rect class="cls-5" x="28.5" y="39.33" width="31" height="2" rx="1" ry="1"/><rect class="cls-5" x="28.5" y="48.33" width="31" height="2" rx="1" ry="1"/><path class="cls-2" d="M23.64,57.76,21.09,60.3l-.48.48a.34.34,0,0,1-.48,0l-.48-.48L18.39,59"/><rect class="cls-5" x="28.5" y="57.46" width="31" height="2" rx="1" ry="1"/></svg>