<svg id="Layer_3" data-name="Layer 3" xmlns="http://www.w3.org/2000/svg" viewBox="0 0 75 75"><defs><style>.cls-1,.cls-3,.cls-6{fill:#1E65C5;}.cls-1{fill-opacity:0.2;}.cls-2,.cls-4{fill:none;stroke:#1E65C5;stroke-width:2px;}.cls-2{stroke-linecap:round;stroke-linejoin:round;}.cls-4{stroke-miterlimit:10;}.cls-5{fill:#fff;}.cls-6{opacity:0.5;}</style></defs><title>detect threats to sensitive data_blue</title><g id="Layer_2" data-name="Layer 2"><path class="cls-1" d="M51.79,28.39H66.33a3.12,3.12,0,0,1,3,3.2v12a3.12,3.12,0,0,1-3,3.2H51.64"/><path class="cls-2" d="M50.64,46.74H66.16a3.2,3.2,0,0,0,3.2-3.2V31.59a3.2,3.2,0,0,0-3.2-3.2H50.8"/><path class="cls-1" d="M14.51,46.74H8.84a3.2,3.2,0,0,1-3.2-3.2V31.59a3.2,3.2,0,0,1,3.2-3.2h5.7l-2.25,7.74.27,5.68Z"/><path class="cls-2" d="M14.51,46.74H8.84a3.2,3.2,0,0,1-3.2-3.2V31.59a3.2,3.2,0,0,1,3.2-3.2h5.7"/><path class="cls-3" d="M48.64,49.27,62.87,63.49a3.3,3.3,0,0,1-4.67,4.67L44,54"/><path class="cls-4" d="M51.48,54.4H66.12a3.24,3.24,0,0,1,3.24,3.24V69.5a3.24,3.24,0,0,1-3.24,3.24H8.88A3.24,3.24,0,0,1,5.64,69.5V57.64A3.24,3.24,0,0,1,8.88,54.4H21.39"/><path class="cls-5" d="M55.17,1.85l0,0-.1,0Z"/><ellipse class="cls-6" cx="20.14" cy="63.27" rx="1.56" ry="1.58"/><ellipse class="cls-6" cx="14.87" cy="63.27" rx="1.56" ry="1.58"/><ellipse class="cls-6" cx="25.41" cy="63.27" rx="1.56" ry="1.58"/><path class="cls-4" d="M21.59,20.6H8.88a3.24,3.24,0,0,1-3.24-3.24V5.5A3.24,3.24,0,0,1,8.88,2.26H66.12A3.24,3.24,0,0,1,69.36,5.5V17.36a3.24,3.24,0,0,1-3.24,3.24H43.62"/><ellipse class="cls-6" cx="20.14" cy="11.78" rx="1.56" ry="1.58"/><ellipse class="cls-6" cx="14.87" cy="11.78" rx="1.56" ry="1.58"/><ellipse class="cls-6" cx="25.41" cy="11.78" rx="1.56" ry="1.58"/><circle class="cls-4" cx="32.43" cy="37.57" r="20.14"/><polyline class="cls-4" points="12.09 38.94 24.36 38.94 27.01 33.15 30.95 45.2 36.43 30.92 40.76 38.88 53.05 38.89"/></g></svg>