<?xml version="1.0" encoding="UTF-8"?>
<svg id="Layer_2" data-name="Layer 2" xmlns="http://www.w3.org/2000/svg" viewBox="0 0 498.96 499">
  <defs>
    <style>
      .cls-1 {
        fill: #0094a4;
      }

      .cls-2 {
        fill: #fff;
      }
    </style>
  </defs>
  <g id="Layer_1-2" data-name="Layer 1">
    <circle class="cls-1" cx="249.48" cy="249.5" r="230.12"/>
    <g id="Layer_2-2" data-name="Layer 2">
      <g id="Layer_1-2" data-name="Layer 1-2">
        <path class="cls-2" d="m254.82.46h-10.97c-.32-.17-.31-.33,0-.46h10.88c.44.13.44.29.09.46Z"/>
        <path class="cls-2" d="m.46,243.85v10.95c-.17.32-.33.32-.46,0v-10.95c.14-.31.29-.31.46,0Z"/>
        <path class="cls-2" d="m239.94,0c-1.03.77-2.44.77-3.47,0h3.47Z"/>
        <path class="cls-2" d="m262.2,0c-1.03.77-2.44.77-3.47,0h3.47Z"/>
        <path class="cls-2" d="m243.9,0v.46c-1.03,0-2.06.28-2.93-.46h2.93Z"/>
        <path class="cls-2" d="m254.82.46v-.46h2.97c-.93.74-1.98.43-2.97.46Z"/>
        <path class="cls-2" d="m0,236.47c.75.84.75,2.12,0,2.96v-2.96Z"/>
        <path class="cls-2" d="m.46,243.85h-.46v-2.96c.73.91.44,1.93.46,2.96Z"/>
        <path class="cls-2" d="m0,254.78h.46c0,1.03.27,2.06-.46,2.93v-2.93Z"/>
        <path class="cls-2" d="m0,259.28c.75.84.75,2.12,0,2.96v-2.96Z"/>
        <path class="cls-2" d="m498.93,243.96c-.08-8.07-.19-16.14-.86-24.17-.99-9.84-2.71-19.59-5.14-29.17-5.71-23.67-14.84-46.38-27.1-67.41-8.84-15.36-19.38-29.68-31.41-42.69-19.03-20.86-41.44-38.37-66.28-51.79-20.29-11.02-42.04-19.12-64.6-24.04-9.12-1.94-18.22-3.76-27.58-4.01-3.77.02-7.53-.21-11.27-.68h-2.47c-1.12.39-2.34.39-3.47,0h-1.03c-1.09.49-2.24.13-3.35.25h-10.09c-1.11-.11-2.25.25-3.33-.25h-1.03c-1.12.39-2.34.39-3.47,0h-2.47c-2.01.37-4.05.52-6.09.44-8.8.23-17.57,1.19-26.21,2.87-35.16,6.77-68.46,21.04-97.61,41.83-8.71,6.1-16.96,12.82-24.69,20.1-8.29,7.77-16.11,16.01-23.44,24.69-10.39,12.58-19.52,26.16-27.27,40.52-11.01,20.33-19.08,42.11-23.95,64.71-1.62,7.73-3.26,15.45-3.77,23.38-.33,4.98-.24,9.99-.94,14.95v2.97c.39.95.39,2.01,0,2.96v1.49c.49,1.08.13,2.23.25,3.35v10.12c-.11,1.11.25,2.25-.25,3.33v1.54c.39.95.39,2.01,0,2.96v2.97c.31,2.18.47,4.38.49,6.58.12,6.07.64,12.13,1.56,18.13,5.7,34.76,18.67,67.92,38.07,97.32,6.68,10.2,14.16,19.85,22.36,28.87,8.97,10.01,18.69,19.31,29.09,27.83,26.47,21.42,57.01,37.26,89.77,46.56,12.2,3.49,24.67,5.95,37.28,7.37,5.81.62,11.66.61,17.49.82,14.23.55,28.49.33,42.7-.65,9.94-.69,19.71-2.82,29.42-5.14,23.59-5.68,46.22-14.79,67.18-27.03,15.49-8.91,29.92-19.54,43.03-31.69,8.61-7.92,16.69-16.41,24.18-25.4,10.45-12.64,19.63-26.28,27.41-40.72,10.95-20.26,19.02-41.95,23.95-64.44,1.97-8.33,3.34-16.79,4.12-25.32.82-11.44.93-22.89.84-34.34Zm-139.3,2.87c0,35.2.02,70.4.05,105.61,0,2.17-.66,2.94-2.73,3.45-23.83,5.86-47.64,11.8-71.43,17.82-1.58.43-3.26.34-4.79-.25-44.94-16.35-89.89-32.68-134.85-48.99-2.06-.74-3.09-1.69-3.09-4.12.07-49.39.07-98.77,0-148.16,0-2,1.09-2.26,2.41-2.75,31.02-11.28,62.04-22.56,93.05-33.86,13.46-4.9,26.93-9.78,40.35-14.76,2.85-1.11,5.98-1.29,8.93-.5,22.9,5.79,45.83,11.52,68.78,17.18,2.53.63,3.36,1.53,3.35,4.24-.09,35.02-.05,70.06-.05,105.09Z"/>
        <path class="cls-2" d="m279.75,158.45c-27.53,5.89-55.07,11.77-82.62,17.65-2.38.5-3.18,1.39-3.17,3.87.08,40.64.11,81.29.1,121.93.18,1.57-.85,3.02-2.4,3.36-7.12,2.57-14.2,5.28-21.29,7.94l-25.58,9.6.09.51c14.19,1.93,28.38,3.85,42.57,5.76,30.87,4.22,61.72,8.45,92.55,12.7,2.19.3,2.98,0,2.98-2.53-.07-59.44-.09-118.88-.05-178.32.01-3.15.01-3.14-3.19-2.48Z"/>
      </g>
    </g>
  </g>
</svg>