<?xml version="1.0" encoding="UTF-8"?>
<svg id="Layer_2" data-name="Layer 2" xmlns="http://www.w3.org/2000/svg" viewBox="0 0 361.38 216.1">
  <defs>
    <style>
      .cls-1, .cls-2 {
        fill: #0094a4;
      }

      .cls-2 {
        fill-rule: evenodd;
      }
    </style>
  </defs>
  <g id="Layer_1-2" data-name="Layer 1">
    <g>
      <path class="cls-1" d="m101.84,78.48c0,4.45.48,8.05,1.32,10.7.96,2.64,2.16,5.53,3.85,8.65.6.96.84,1.92.84,2.76,0,1.2-.72,2.4-2.28,3.61l-7.57,5.05c-1.08.72-2.16,1.08-3.12,1.08-1.2,0-2.4-.6-3.61-1.68-1.68-1.8-3.12-3.73-4.33-5.65-1.2-2.04-2.4-4.33-3.73-7.09-9.37,11.06-21.15,16.59-35.34,16.59-10.1,0-18.15-2.88-24.04-8.65-5.89-5.77-8.89-13.46-8.89-23.08,0-10.22,3.61-18.51,10.94-24.76,7.33-6.25,17.07-9.37,29.45-9.37,4.09,0,8.29.36,12.74.96s9.01,1.56,13.82,2.64v-8.77c0-9.13-1.92-15.5-5.65-19.23-3.85-3.73-10.34-5.53-19.59-5.53-4.21,0-8.53.48-12.98,1.56s-8.77,2.4-12.98,4.09c-1.92.84-3.37,1.32-4.21,1.56-.84.24-1.44.36-1.92.36-1.68,0-2.52-1.2-2.52-3.73v-5.89c0-1.92.24-3.37.84-4.21s1.68-1.68,3.37-2.52c4.21-2.16,9.25-3.97,15.14-5.41C47.27.96,53.52.24,60.13.24c14.3,0,24.76,3.25,31.49,9.74,6.61,6.49,9.98,16.35,9.98,29.57v38.94h.24Zm-48.8,18.27c3.97,0,8.05-.72,12.38-2.16,4.33-1.44,8.17-4.09,11.42-7.69,1.92-2.28,3.37-4.81,4.09-7.69s1.2-6.37,1.2-10.46v-5.05c-3.49-.84-7.21-1.56-11.06-2.04s-7.57-.72-11.3-.72c-8.05,0-13.94,1.56-17.91,4.81-3.97,3.25-5.89,7.81-5.89,13.82,0,5.65,1.44,9.86,4.45,12.74,2.88,3,7.09,4.45,12.62,4.45Zm96.51,12.98c-2.16,0-3.61-.36-4.57-1.2-.96-.72-1.8-2.4-2.52-4.69L114.22,10.94c-.72-2.4-1.08-3.97-1.08-4.81,0-1.92.96-3,2.88-3h11.78c2.28,0,3.85.36,4.69,1.2.96.72,1.68,2.4,2.4,4.69l20.19,79.57,18.75-79.57c.6-2.4,1.32-3.97,2.28-4.69.96-.72,2.64-1.2,4.81-1.2h9.62c2.28,0,3.85.36,4.81,1.2.96.72,1.8,2.4,2.28,4.69l18.99,80.53,20.79-80.53c.72-2.4,1.56-3.97,2.4-4.69.96-.72,2.52-1.2,4.69-1.2h11.18c1.92,0,3,.96,3,3,0,.6-.12,1.2-.24,1.92-.12.72-.36,1.68-.84,3l-28.97,92.91c-.72,2.4-1.56,3.97-2.52,4.69s-2.52,1.2-4.57,1.2h-10.34c-2.28,0-3.85-.36-4.81-1.2s-1.8-2.4-2.28-4.81l-18.63-77.52-18.51,77.4c-.6,2.4-1.32,3.97-2.28,4.81-.96.84-2.64,1.2-4.81,1.2h-10.34Zm154.44,3.25c-6.25,0-12.5-.72-18.51-2.16-6.01-1.44-10.7-3-13.82-4.81-1.92-1.08-3.25-2.28-3.73-3.37-.48-1.08-.72-2.28-.72-3.37v-6.13c0-2.52.96-3.73,2.76-3.73.72,0,1.44.12,2.16.36.72.24,1.8.72,3,1.2,4.09,1.8,8.53,3.25,13.22,4.21,4.81.96,9.49,1.44,14.3,1.44,7.57,0,13.46-1.32,17.55-3.97,4.09-2.64,6.25-6.49,6.25-11.42,0-3.37-1.08-6.13-3.25-8.41-2.16-2.28-6.25-4.33-12.14-6.25l-17.43-5.41c-8.77-2.76-15.26-6.85-19.23-12.26-3.97-5.29-6.01-11.18-6.01-17.43,0-5.05,1.08-9.49,3.25-13.34,2.16-3.85,5.05-7.21,8.65-9.86,3.61-2.76,7.69-4.81,12.5-6.25,4.81-1.44,9.86-2.04,15.14-2.04,2.64,0,5.41.12,8.05.48,2.76.36,5.29.84,7.81,1.32,2.4.6,4.69,1.2,6.85,1.92,2.16.72,3.85,1.44,5.05,2.16,1.68.96,2.88,1.92,3.61,3,.72.96,1.08,2.28,1.08,3.97v5.65c0,2.52-.96,3.85-2.76,3.85-.96,0-2.52-.48-4.57-1.44-6.85-3.12-14.54-4.69-23.08-4.69-6.85,0-12.26,1.08-15.99,3.37s-5.65,5.77-5.65,10.7c0,3.37,1.2,6.25,3.61,8.53,2.4,2.28,6.85,4.57,13.22,6.61l17.07,5.41c8.65,2.76,14.9,6.61,18.63,11.54,3.73,4.93,5.53,10.58,5.53,16.83,0,5.17-1.08,9.86-3.12,13.94-2.16,4.09-5.05,7.69-8.77,10.58-3.73,3-8.17,5.17-13.34,6.73-5.41,1.68-11.06,2.52-17.19,2.52Z"/>
      <g>
        <path class="cls-2" d="m326.71,171.39c-39.54,29.21-96.99,44.71-146.39,44.71-69.23,0-131.61-25.6-178.72-68.15-3.73-3.37-.36-7.93,4.09-5.29,50.96,29.57,113.82,47.47,178.84,47.47,43.87,0,92.07-9.13,136.42-27.88,6.61-3,12.26,4.33,5.77,9.13Z"/>
        <path class="cls-2" d="m343.18,152.64c-5.05-6.49-33.41-3.12-46.27-1.56-3.85.48-4.45-2.88-.96-5.41,22.6-15.87,59.73-11.3,64.06-6.01,4.33,5.41-1.2,42.55-22.36,60.34-3.25,2.76-6.37,1.32-4.93-2.28,4.81-11.9,15.5-38.7,10.46-45.07Z"/>
      </g>
    </g>
  </g>
</svg>