<?xml version="1.0" encoding="UTF-8"?>
<svg id="Layer_2" data-name="Layer 2" xmlns="http://www.w3.org/2000/svg" viewBox="0 0 471.56 203.31">
  <defs>
    <style>
      .cls-1 {
        fill: #0072c6;
      }

      .cls-2 {
        fill: #fbbc04;
      }

      .cls-3 {
        fill: #ea4335;
      }

      .cls-4 {
        fill: #c5221f;
      }

      .cls-5 {
        fill: #4285f4;
      }

      .cls-6 {
        fill: #34a853;
      }
    </style>
  </defs>
  <g id="Layer_1-2" data-name="Layer 1">
    <g>
      <path id="path3" class="cls-1" d="m125.84,43.11v39.77l13.9,8.75c.37.11,1.16.11,1.53,0l59.81-40.33c0-4.77-4.45-8.19-6.96-8.19h-68.27Z"/>
      <path id="path5" class="cls-1" d="m125.84,97.71l12.68,8.71c1.79,1.31,3.94,0,3.94,0-2.15,1.31,58.62-39.05,58.62-39.05v73.09c0,7.96-5.09,11.29-10.82,11.29h-64.43v-54.05h0Z"/>
      <g id="g23">
        <path id="path25" class="cls-1" d="m60.17,79.38c-4.32,0-7.77,2.03-10.31,6.09-2.54,4.05-3.82,9.42-3.82,16.1s1.28,12.14,3.82,16.08c2.54,3.95,5.88,5.91,10,5.91s7.63-1.92,10.12-5.75c2.49-3.83,3.74-9.16,3.74-15.96s-1.21-12.61-3.63-16.56c-2.42-3.94-5.73-5.91-9.93-5.91Z"/>
        <path id="path27" class="cls-1" d="m0,22.91v155.58l118.36,24.82V0L0,22.91Zm79.2,104.09c-5,6.58-11.52,9.88-19.57,9.88s-14.23-3.19-19.17-9.57c-4.93-6.38-7.41-14.69-7.41-24.94,0-10.82,2.5-19.57,7.52-26.25,5.02-6.68,11.66-10.03,19.93-10.03,7.81,0,14.13,3.19,18.95,9.59,4.83,6.4,7.24,14.83,7.24,25.3,0,10.76-2.5,19.43-7.5,26.02Z"/>
      </g>
    </g>
    <g>
      <path class="cls-5" d="m286.89,175.99h31.53v-76.57l-45.04-33.78v96.84c0,7.47,6.05,13.51,13.51,13.51Z"/>
      <path class="cls-6" d="m426.52,175.99h31.53c7.47,0,13.51-6.05,13.51-13.51v-96.84l-45.04,33.78v76.57Z"/>
      <path class="cls-2" d="m426.52,40.87v58.55l45.04-33.78v-18.02c0-16.7-19.06-26.24-32.43-16.21l-12.61,9.46Z"/>
      <path class="cls-3" d="m318.42,99.42v-58.55l54.05,40.54,54.05-40.54v58.55l-54.05,40.54-54.05-40.54Z"/>
      <path class="cls-4" d="m273.38,47.62v18.02l45.04,33.78v-58.55l-12.61-9.46c-13.37-10.02-32.43-.48-32.43,16.21Z"/>
    </g>
  </g>
</svg>