<?xml version="1.0" encoding="utf-8"?>
<!-- Generator: Adobe Illustrator 27.3.1, SVG Export Plug-In . SVG Version: 6.00 Build 0)  -->
<svg version="1.1" id="Layer_2_00000152263057339515039030000010984504157566441117_"
	 xmlns="http://www.w3.org/2000/svg" xmlns:xlink="http://www.w3.org/1999/xlink" x="0px" y="0px" viewBox="0 0 500.5 500.5"
	 style="enable-background:new 0 0 500.5 500.5;" xml:space="preserve">
<style type="text/css">
	.st0{fill:#0094A4;}
	.st1{fill:#FFFFFF;}
</style>
<circle class="st0" cx="250.4" cy="250.5" r="229.5"/>
<g id="Layer_2-2">
	<g id="Layer_1-2">
		<path class="st1" d="M499.4,256.6v-10c0.2-0.3,0.3-0.3,0.4,0v9.9C499.8,256.9,499.6,256.9,499.4,256.6z"/>
		<path class="st1" d="M247.6,499.5h6c0.3,0.2,0.3,0.3,0,0.5h-5.9C247.3,499.8,247.3,499.7,247.6,499.5L247.6,499.5z"/>
		<path class="st1" d="M499.9,246.7h-0.4c0.2-1.6-0.6-3.4,0.4-4.9V246.7z"/>
		<path class="st1" d="M499.9,240.8c-0.8-1-0.8-2.4,0-3.5V240.8z"/>
		<path class="st1" d="M499.5,262.6v-3.5c0.1-0.4,0.2-0.4,0.4,0v3.5C499.8,262.9,499.6,262.9,499.5,262.6z"/>
		<path class="st1" d="M240.7,499.5h3.5c0.4,0.1,0.4,0.3,0,0.4h-3.5C240.3,499.9,240.3,499.7,240.7,499.5z"/>
		<path class="st1" d="M244.1,500c0-0.1,0-0.3,0-0.4h3.5c0,0.1,0,0.3,0,0.5L244.1,500L244.1,500z"/>
		<path class="st1" d="M499.5,262.6c0.1,0,0.3,0,0.4,0v3C498.9,264.6,499.6,263.5,499.5,262.6z"/>
		<path class="st1" d="M253.6,500v-0.5h3c0.3,0.1,0.3,0.3,0,0.4L253.6,500L253.6,500z"/>
		<path class="st1" d="M259,499.5c1,0.1,2.1-0.6,2.9,0.4h-3C258.6,499.8,258.7,499.7,259,499.5z"/>
		<path class="st1" d="M499.9,259.1c-0.1,0-0.3,0-0.4,0l-0.1-2.5c0.2,0,0.3,0,0.5,0L499.9,259.1L499.9,259.1z"/>
		<path class="st1" d="M240.7,499.5c0,0.1,0,0.3,0,0.4h-2.4v-0.4L240.7,499.5L240.7,499.5z"/>
		<path class="st1" d="M259,499.5v0.4h-2.5v-0.4L259,499.5L259,499.5z"/>
		<path class="st1" d="M244.3,484h11.8c0.3,0.2,0.3,0.3,0,0.5h-11.8C244.1,484.3,244.1,484.2,244.3,484L244.3,484z"/>
		<path class="st1" d="M487.1,252.6v-9c0.2-0.2,0.3-0.2,0.4,0.1v9C487.4,252.9,487.2,252.9,487.1,252.6L487.1,252.6z"/>
		<path class="st1" d="M487.5,243.6l-0.4-0.1v-3.7c0.2-0.3,0.3-0.3,0.4,0L487.5,243.6L487.5,243.6z"/>
		<path class="st1" d="M487.1,232.8c0.1,0,0.3,0,0.4,0v3.3C486.7,235.1,487.1,233.9,487.1,232.8z"/>
		<path class="st1" d="M487.1,252.6c0.1,0,0.3,0,0.5,0v3.3c-0.1,0.3-0.2,0.3-0.4,0C487.1,254.8,487.1,253.7,487.1,252.6L487.1,252.6
			z"/>
		<path class="st1" d="M265.6,484v0.4h-3.3C263.3,483.6,264.5,484,265.6,484z"/>
		<path class="st1" d="M487.5,239.9h-0.4c0.1-0.9-0.5-2,0.4-2.8V239.9z"/>
		<path class="st1" d="M487.1,255.9h0.4v2.8C486.6,257.9,487.2,256.9,487.1,255.9L487.1,255.9z"/>
		<path class="st1" d="M487.5,263h-0.4c0-1-0.5-2,0.4-2.9V263z"/>
		<path class="st1" d="M234.5,484.4V484c1,0,2-0.4,2.9,0.4H234.5z"/>
		<path class="st1" d="M238.7,484.4c0.8-0.9,1.8-0.3,2.8-0.4c0.4,0.1,0.4,0.2,0.1,0.4H238.7L238.7,484.4z"/>
		<path class="st1" d="M241.6,484.4c0-0.1,0-0.3-0.1-0.4h2.8v0.4L241.6,484.4L241.6,484.4z"/>
		<path class="st1" d="M256.2,484.4c0-0.2,0-0.3,0-0.5c0.9,0.1,2-0.3,2.8,0.5H256.2z"/>
		<path class="st1" d="M499.4,242.2v-3l0.2-0.3l0.2,0.4v3C499.7,242.6,499.5,242.5,499.4,242.2L499.4,242.2z"/>
		<path class="st1" d="M499.4,261.1v-3c0.1-0.4,0.2-0.4,0.4,0v3l-0.2,0.4L499.4,261.1L499.4,261.1z"/>
		<path class="st1" d="M239.1,499.5h3c0.4,0.1,0.4,0.2,0,0.4h-3l-0.4-0.2L239.1,499.5L239.1,499.5z"/>
		<path class="st1" d="M258,499.5h3l0.3,0.2l-0.4,0.2h-3C257.6,499.7,257.7,499.6,258,499.5L258,499.5z"/>
		<path class="st1" d="M499.4,234.2c0.1,0,0.3,0,0.4,0v2.5c-0.2,0.3-0.3,0.3-0.4,0C499.4,235.9,499.4,235.1,499.4,234.2z"/>
		<path class="st1" d="M499.4,236.7c0.1,0,0.3,0,0.4,0v2.5c-0.1,0-0.3,0-0.4,0V236.7z"/>
		<path class="st1" d="M499.4,242.2c0.1,0,0.3,0,0.4,0v2.5C499.4,243.9,499.3,243,499.4,242.2z"/>
		<path class="st1" d="M499.9,258.1h-0.4c-0.2-0.9,0-1.8,0.4-2.5V258.1z"/>
		<path class="st1" d="M499.4,261.1c0.1,0,0.3,0,0.4,0v2.5l-0.2,0.4l-0.2-0.3L499.4,261.1L499.4,261.1z"/>
		<path class="st1" d="M499.4,263.5c0.1,0,0.3,0,0.4,0v2.5h-0.4C499.4,265.2,499.4,264.4,499.4,263.5z"/>
		<path class="st1" d="M234.2,499.9v-0.4h2.5c0.4,0.1,0.4,0.2,0,0.4L234.2,499.9L234.2,499.9z"/>
		<path class="st1" d="M236.7,499.9v-0.4h2.5v0.4L236.7,499.9L236.7,499.9z"/>
		<path class="st1" d="M242.1,499.9v-0.4c0.9-0.2,1.8,0,2.5,0.4H242.1z"/>
		<path class="st1" d="M258,499.5v0.4h-2.5C256.3,499.5,257.2,499.3,258,499.5z"/>
		<path class="st1" d="M261,499.9v-0.4h2.5l0.3,0.2l-0.4,0.2L261,499.9L261,499.9z"/>
		<path class="st1" d="M263.4,499.9v-0.4h2.5v0.4L263.4,499.9L263.4,499.9z"/>
		<path class="st1" d="M499.9,244.7c-0.5-0.9-0.1-1.8-0.2-2.7v-7.6c0-2.3-0.1-4.6-0.3-6.9c-0.1-5.9-0.5-11.9-1.4-17.8
			c-5-30.4-15.5-59.6-31.1-86.2c-8.9-15.3-19.4-29.6-31.4-42.6c-7.1-7.7-14.6-15-22.6-21.9c-14.1-12-29.5-22.4-45.8-31.1
			c-16.6-8.8-34.3-15.7-52.5-20.5c-11-3-22.2-5.2-33.5-6.4c-5.9-0.5-11.9-0.6-17.8-0.8c-14.5-0.6-29-0.3-43.5,0.8
			c-15.9,1.3-31.3,5.1-46.4,9.9C149,18.8,126,30.3,105.1,45.1C86.2,58.5,69.2,74.5,54.6,92.6c-14.6,18-26.7,38.1-35.7,59.5
			C6.6,180.9-0.3,210.9,0,242.4c0.1,8-0.1,16,0.2,24c0.1,8.1,0.8,16.1,1.9,24.1c5,30.3,15.5,59.5,31,86
			c8.9,15.4,19.5,29.7,31.5,42.8c7.1,7.7,14.6,15,22.6,21.9c26.9,23,58.4,40,92.3,50c17.9,5.2,36.1,8.6,54.8,8.5h7.6
			c0.9,0.1,1.8-0.3,2.7,0.2h10.9c0.9-0.5,1.8-0.1,2.7-0.2h7.6c2.5,0,5.1,0,7.6-0.3c5.7-0.1,11.4-0.6,17.1-1.4
			c30.5-5,59.8-15.6,86.4-31.2c15.2-8.9,29.4-19.3,42.3-31.3c7.7-7.1,15-14.6,21.9-22.6c11.6-13.6,21.8-28.5,30.3-44.3
			c8.1-15.1,14.7-31.1,19.6-47.6c5.3-18.1,8.7-36.4,8.6-55.3v-7.6c0.1-0.9-0.3-1.8,0.2-2.7L499.9,244.7L499.9,244.7z M418.1,391.9
			c-55.7-0.1-111.4-0.1-167-0.1c-55.5,0-111,0-166.5,0.1c-2.5,0-3.1-0.6-3.1-3.1c0.1-52.6,0.1-105.2,0-157.8c0-1.5,0.3-2.9,0.9-4.3
			c20.8-44.4,41.5-88.9,62.2-133.4c0.6-1.8,2.4-2.9,4.2-2.7c68.3,0.1,136.6,0.1,205,0c1.9-0.2,3.6,0.9,4.2,2.7
			c20.6,44.3,41.2,88.5,61.9,132.7c0.8,1.7,1.2,3.6,1.2,5.4c0,52.4,0,104.9,0,157.3C421.1,391.2,420.6,391.9,418.1,391.9
			L418.1,391.9L418.1,391.9z"/>
		<path class="st1" d="M394.7,222.3H111c-0.4,0-0.8,0-1.2,0c-1.4,0.1-2-0.2-1.2-1.8c5.5-11.9,11-23.8,16.4-35.8c0.5-1,1-1.6,2.2-1.5
			c0.6,0,1.2,0,1.7,0h243.8c2.4,0,3.6,0.7,4.6,2.9c5.2,11.2,10.6,22.3,16,33.5C393.8,220.3,394.1,221.1,394.7,222.3L394.7,222.3z"/>
		<path class="st1" d="M249.3,146.9h-112c-2,0-2.6-0.9-1.8-2.6c4-8.9,8.1-17.7,12.1-26.6c0.4-1.4,1.7-2.2,3.2-2.1
			c65.5,0,131,0,196.5,0c1.5-0.2,2.9,0.8,3.3,2.2c4.2,8.9,8.5,17.7,12.7,26.5c1.2,2.5,1.2,2.5-1.7,2.5L249.3,146.9L249.3,146.9z"/>
		<path class="st1" d="M250.5,317.4h-50.3c-2,0-2.7-0.3-1.6-2.4c1.7-3.3,3.2-6.7,4.6-10.1c0.6-1.6,1.6-2,3.2-2c29.4,0,58.8,0,88.2,0
			c1.6-0.2,3,0.8,3.5,2.3c1.5,3.3,3,6.6,4.7,9.8c1,2,0.7,2.4-1.5,2.4C284.4,317.4,267.5,317.4,250.5,317.4L250.5,317.4z"/>
	</g>
</g>
</svg>
