<?xml version="1.0" encoding="UTF-8"?>
<svg id="Layer_2" data-name="Layer 2" xmlns="http://www.w3.org/2000/svg" viewBox="0 0 492.12 425.84">
  <defs>
    <style>
      .cls-1 {
        fill: #0094a4;
      }

      .cls-2 {
        fill: #0087a4;
      }

      .cls-3 {
        fill: #10985b;
      }

      .cls-4 {
        fill: #286ee6;
      }
    </style>
  </defs>
  <g id="Layer_1-2" data-name="Layer 1">
    <g>
      <g>
        <path class="cls-1" d="m160.05.11h.42s.04.46.04.46l-.54.02.08-.48Z"/>
        <path class="cls-1" d="m158.4,3.26c.38-.54,1.11-1.62,1.48-2.16l.67-.11c.5,6.1,2.29,11.99,3.64,17.93,5.8,25.81,11.65,51.61,17.74,77.34,4,17.65,8.45,35.21,12.11,52.93,3.18,10.97,4.88,22.28,7.95,33.27,1.98,10.24,5.09,20.24,6.76,30.54-.67,1.13-1.35,2.26-2.03,3.39-.16.26-.51.8-.67,1.07l-.25.43c-.04.08-.13.24-.17.32-.38.69-1.13,2.07-1.5,2.75-.07.13-.21.38-.29.5l-.68,1.21c-.09.14-.25.42-.33.57l-.8,1.4c-.04.08-.13.23-.17.31l-.99,1.73c-.09.14-.26.45-.35.61-.1.16-.29.48-.39.65l-.97,1.68c-.08.13-.23.39-.31.52l-.6,1.01c-.1.17-.31.53-.4.7-.39.66-1.15,1.99-1.53,2.67-.07.12-.21.36-.28.48l-.61,1.01c-.1.18-.31.53-.41.71-.36.63-1.09,1.87-1.44,2.49-.09.14-.25.44-.34.59l-.72,1.3c-.07.12-.2.36-.27.47l-.74,1.3c-.08.13-.23.4-.31.54-.39.64-1.14,1.92-1.51,2.56-.09.14-.26.44-.35.6l-.68,1.23c-.07.12-.19.34-.25.45l-.79,1.37c-.07.13-.21.37-.28.48-.4.69-1.2,2.07-1.61,2.76-.07.13-.22.38-.3.5l-.58.95c-.1.17-.3.51-.39.68-.37.64-1.09,1.9-1.45,2.53-.06.11-.19.34-.25.44l-.79,1.41c-.06.11-.17.31-.23.41l-.81,1.42c-.07.11-.2.34-.27.44-.38.64-1.14,1.89-1.51,2.52-.11.16-.3.51-.4.68l-.57,1.06c-.08.13-.22.4-.29.53l-.99,1.71c-.08.14-.25.43-.33.58-.09.13-.24.41-.32.55-1.63,2.74-3.1,5.57-4.9,8.21-10.25,16.72-19.69,33.97-29.62,50.89-16.12,27.89-32.22,55.79-48.33,83.68-2.42,4.34-5.17,8.5-7.25,13.04l-.42.62c-3.86-5.57-6.85-11.71-10.38-17.48-16.12-27.91-32.25-55.82-48.35-83.74-8.95-15.7-18.28-31.21-27-47.06,34.51-59.55,68.86-119.21,103.3-178.8.03-.06.1-.16.13-.22l.94-1.62c.04-.07.12-.2.16-.27l.95-1.63c.09-.14.26-.45.36-.6.1-.17.29-.51.39-.68l.95-1.69c.07-.12.2-.35.27-.46l.71-1.14c.13-.18.38-.56.5-.75.35-.52,1.05-1.57,1.41-2.09.04-.17.11-.51.14-.67l.84-1.61c.04-.07.12-.2.15-.27l.96-1.62c.1-.15.29-.48.39-.65.11-.18.32-.56.43-.75l.81-1.42c.09-.15.26-.45.35-.6l.67-1.18c.08-.13.23-.39.31-.53.38-.65,1.13-1.94,1.51-2.58.08-.13.23-.4.31-.54l.7-1.28c.06-.1.17-.31.23-.4l.92-1.62c.12-.19.36-.59.48-.78l.63-.94c.13-.19.39-.57.53-.75.12-.19.36-.58.48-.77l.52-1c.17-.38.53-1.13.7-1.5l.53-.74c.1-.13.28-.39.38-.53.36-.3,1.08-.91,1.43-1.22l-.07-1.13c.06-.13.19-.4.26-.54l.82-1.63c.07-.12.2-.36.27-.47l.72-1.17c.13-.19.39-.58.53-.77.33-.54.99-1.6,1.32-2.13.1-.19.27-.57.37-.76l.51-1.11c.15-.29.48-.88.65-1.17l.64-.91c.13-.18.4-.55.54-.73.12-.19.36-.58.47-.77l.47-.99c.11-.22.33-.67.43-.9l.83-1.6c.13-.19.37-.6.48-.8l.64-.94c.13-.19.4-.56.54-.75.13-.19.37-.59.48-.78l.49-1c.14-.28.42-.83.56-1.11l.65-1.08c.12-.18.35-.55.47-.73.35-.54,1.05-1.62,1.41-2.15.04-.16.13-.49.16-.65l.84-1.6c.03-.07.11-.19.14-.26l.96-1.65c.1-.16.28-.48.38-.65.1-.15.28-.48.38-.64l.96-1.68c.04-.07.12-.2.15-.28l.91-1.57c.05-.07.13-.21.17-.29l.97-1.64c.09-.15.26-.44.35-.6.1-.16.29-.5.39-.67l.92-1.63c.06-.11.17-.31.23-.4l.78-1.26c.13-.18.38-.56.49-.74.36-.53,1.05-1.59,1.41-2.12.03-.16.11-.49.14-.65l.82-1.57c.07-.12.21-.36.28-.48l.73-1.15c.13-.18.39-.56.52-.75.34-.54,1.01-1.61,1.35-2.15.05-.15.13-.46.18-.62l.85-1.59c.04-.08.12-.21.15-.29l.98-1.66c.08-.14.25-.43.34-.58.09-.16.26-.47.35-.63l.96-1.71c.05-.07.13-.21.16-.28l.91-1.55s.1-.15.13-.2Z"/>
      </g>
      <path class="cls-1" d="m160.47.1c31.27-.14,62.55-.02,93.84-.07,25.88.1,51.78-.2,77.65.14.51.98,1.03,1.95,1.58,2.93.08.13.22.39.3.53,2.5,4.36,5.05,8.7,7.52,13.08.05.08.13.22.17.29,4.79,8.23,9.57,16.47,14.28,24.75.04.07.13.2.16.28.86,1.47,1.74,2.95,2.62,4.43.08.13.22.39.3.52,1.2,2.12,2.42,4.23,3.64,6.34.05.07.13.2.16.28,1.22,2.1,2.43,4.22,3.64,6.34.08.13.22.38.3.5,1.22,2.06,2.41,4.14,3.58,6.22.08.13.22.39.3.51,11.5,19.85,22.96,39.72,34.42,59.6-1.31,5.77,1.86,11.51.1,17.3-1.07,15.84-7.05,31.25-16.91,43.69-3.21,3.48-.1,8.3-.44,12.42-3.46,4.19-7.9,7.32-12.1,10.7,0,3.16.02,6.32-.13,9.48-3.75,2.47-8.04,3.91-11.84,6.3-.4,1.28-.82,2.57-1.21,3.87-3.05,1.44-6.32,2.38-9.37,3.84-12.08-3.47-24.04-7.33-36.1-10.9-11.22-3.71-22.7-6.61-33.8-10.7l-.64-1.14c-.06-.09-.15-.26-.2-.35l-.91-1.55c-.1-.16-.29-.49-.39-.65-.09-.14-.24-.42-.33-.57-.68-1.21-1.31-2.46-1.87-3.73l-.06-.13-.07-.1c-.42-.67-1.28-2.03-1.71-2.71-.05-.08-.14-.23-.19-.32l-.28-.44c-.16-.28-.5-.83-.66-1.11-.41-.7-1.25-2.11-1.67-2.81-.11-.17-.31-.53-.41-.7l-.59-1c-.08-.13-.23-.39-.31-.53l-.93-1.61c-.04-.07-.13-.2-.16-.28l-.98-1.68c-.09-.15-.26-.46-.35-.61-.1-.17-.3-.53-.39-.7l-.8-1.41c-.1-.16-.29-.51-.39-.67l-.62-1.09c-.09-.14-.25-.43-.34-.58-.38-.69-1.14-2.07-1.52-2.76-.04-.08-.13-.24-.17-.32l-.26-.45c-.18-.27-.54-.81-.72-1.08-.95-1.6-1.85-3.24-2.71-4.88-.05-.08-.13-.24-.17-.32l-.25-.44c-.18-.26-.55-.78-.73-1.03-.42-.76-1.27-2.28-1.69-3.04-.05-.08-.14-.24-.18-.33l-.26-.46c-.19-.32-.57-.94-.76-1.26l-.83-1.4c-.08-.13-.24-.4-.33-.55-.37-.64-1.11-1.92-1.48-2.55-.09-.14-.25-.44-.34-.6-.65-1.09-1.28-2.19-1.9-3.28-.05-.09-.15-.26-.2-.35l-.91-1.57c-.1-.15-.28-.46-.37-.63-.09-.14-.25-.43-.34-.58l-.97-1.69c-.05-.08-.13-.24-.18-.32l-.79-1.42c-.07-.12-.19-.34-.26-.45-.37-.65-1.11-1.93-1.47-2.57-.08-.13-.23-.39-.31-.52-.6-.99-1.19-1.99-1.77-2.98-26.7-46.33-53.44-92.63-80.19-138.94-1.68-2.89-3.2-5.89-5.25-8.55l-.05-.43-.04-.47Z"/>
      <g>
        <path class="cls-2" d="m159.97.59l.54-.02.05.43-.67.11.09-.52Z"/>
        <path class="cls-2" d="m160.56,1c2.05,2.66,3.57,5.66,5.25,8.55,26.76,46.3,53.49,92.6,80.19,138.94-12.36,21.53-24.82,43.01-37.23,64.52-1.67-10.3-4.78-20.3-6.76-30.54-3.07-10.99-4.78-22.3-7.95-33.27-3.66-17.72-8.12-35.28-12.11-52.93-6.09-25.74-11.95-51.53-17.74-77.34-1.35-5.94-3.14-11.82-3.64-17.93Z"/>
        <path class="cls-2" d="m158.28,3.47s.1-.15.13-.2c-.03.05-.1.15-.13.2Z"/>
        <path class="cls-2" d="m157.2,5.3c.05-.07.13-.21.16-.28-.04.07-.12.21-.16.28Z"/>
        <path class="cls-2" d="m155.89,7.63c.09-.16.26-.47.35-.63-.09.15-.26.46-.35.63Z"/>
        <path class="cls-2" d="m155.55,8.21c.08-.14.25-.43.34-.58-.09.14-.26.43-.34.58Z"/>
        <path class="cls-2" d="m154.42,10.16c.04-.08.12-.21.15-.29-.04.08-.12.21-.15.29Z"/>
        <path class="cls-2" d="m153.39,12.36c.05-.15.13-.46.18-.62-.05.15-.13.46-.18.62Z"/>
        <path class="cls-2" d="m152.04,14.51c.34-.54,1.01-1.61,1.35-2.15-.34.54-1.01,1.61-1.35,2.15Z"/>
        <path class="cls-2" d="m151.52,15.26c.13-.18.39-.56.52-.75-.13.19-.39.57-.52.75Z"/>
        <path class="cls-2" d="m150.51,16.89c.07-.12.21-.36.28-.48-.07.13-.21.37-.28.48Z"/>
        <path class="cls-2" d="m149.55,19.11c.03-.16.11-.49.14-.65-.04.16-.12.49-.14.65Z"/>
        <path class="cls-2" d="m148.14,21.23c.36-.53,1.05-1.59,1.41-2.12-.36.53-1.05,1.59-1.41,2.12Z"/>
        <path class="cls-2" d="m147.65,21.97c.13-.18.38-.56.49-.74-.12.18-.37.56-.49.74Z"/>
        <path class="cls-2" d="m146.64,23.64c.06-.11.17-.31.23-.4-.06.1-.17.3-.23.4Z"/>
        <path class="cls-2" d="m145.33,25.94c.1-.16.29-.5.39-.67-.1.17-.29.51-.39.67Z"/>
        <path class="cls-2" d="m144.98,26.54c.09-.15.26-.44.35-.6-.09.15-.26.44-.35.6Z"/>
        <path class="cls-2" d="m143.84,28.46c.05-.07.13-.21.17-.29-.04.08-.13.22-.17.29Z"/>
        <path class="cls-2" d="m142.78,30.31c.04-.07.12-.2.15-.28-.04.08-.12.21-.15.28Z"/>
        <path class="cls-2" d="m141.44,32.63c.1-.15.28-.48.38-.64-.1.15-.28.48-.38.64Z"/>
        <path class="cls-2" d="m141.06,33.27c.1-.16.28-.48.38-.65-.1.16-.28.48-.38.65Z"/>
        <path class="cls-2" d="m139.96,35.18c.03-.07.11-.19.14-.26-.04.07-.12.19-.14.26Z"/>
        <path class="cls-2" d="m138.96,37.43c.04-.16.13-.49.16-.65-.04.16-.13.49-.16.65Z"/>
        <path class="cls-2" d="m137.55,39.58c.35-.54,1.05-1.62,1.41-2.15-.36.53-1.06,1.61-1.41,2.15Z"/>
        <path class="cls-2" d="m137.08,40.31c.12-.18.35-.55.47-.73-.13.18-.36.55-.47.73Z"/>
        <path class="cls-2" d="m135.86,42.5c.14-.28.42-.83.56-1.11-.13.28-.41.83-.56,1.11Z"/>
        <path class="cls-2" d="m134.89,44.28c.13-.19.37-.59.48-.78-.12.19-.36.59-.48.78Z"/>
        <path class="cls-2" d="m134.35,45.03c.13-.19.4-.56.54-.75-.13.19-.4.56-.54.75Z"/>
        <path class="cls-2" d="m133.24,46.77c.13-.19.37-.6.48-.8-.12.2-.36.61-.48.8Z"/>
        <path class="cls-2" d="m131.97,49.27c.11-.22.33-.67.43-.9-.11.22-.33.67-.43.9Z"/>
        <path class="cls-2" d="m131.03,51.03c.12-.19.36-.58.47-.77-.12.19-.36.58-.47.77Z"/>
        <path class="cls-2" d="m130.49,51.76c.13-.18.4-.55.54-.73-.13.18-.4.55-.54.73Z"/>
        <path class="cls-2" d="m129.21,53.84c.15-.29.48-.88.65-1.17-.16.3-.49.89-.65,1.17Z"/>
        <path class="cls-2" d="m128.34,55.71c.1-.19.27-.57.37-.76-.1.19-.27.57-.37.76Z"/>
        <path class="cls-2" d="m127.02,57.84c.33-.54.99-1.6,1.32-2.13-.33.53-.99,1.59-1.32,2.13Z"/>
        <path class="cls-2" d="m126.49,58.61c.13-.19.39-.58.53-.77-.13.19-.39.58-.53.77Z"/>
        <path class="cls-2" d="m125.49,60.25c.07-.12.2-.36.27-.47-.07.12-.2.36-.27.47Z"/>
        <path class="cls-2" d="m124.42,62.42c.06-.13.19-.4.26-.54-.07.13-.2.4-.26.54Z"/>
        <path class="cls-2" d="m123.05,64.77c.34-.59,1.02-1.76,1.37-2.35l.07,1.13c-.36.31-1.08.92-1.43,1.22Z"/>
        <path class="cls-2" d="m122.67,65.3c.1-.13.28-.39.38-.53-.1.13-.28.39-.38.53Z"/>
        <path class="cls-2" d="m121.44,67.54c.17-.38.53-1.13.7-1.5-.17.38-.53,1.13-.7,1.5Z"/>
        <path class="cls-2" d="m120.44,69.31c.12-.19.36-.58.48-.77-.13.19-.37.58-.48.77Z"/>
        <path class="cls-2" d="m119.91,70.06c.13-.19.39-.57.53-.75-.13.18-.39.56-.53.75Z"/>
        <path class="cls-2" d="m118.8,71.79c.12-.19.36-.59.48-.78-.13.19-.37.59-.48.78Z"/>
        <path class="cls-2" d="m117.65,73.81c.06-.1.17-.31.23-.4-.06.1-.17.31-.23.4Z"/>
        <path class="cls-2" d="m116.64,75.63c.08-.13.23-.4.31-.54-.08.13-.23.4-.31.54Z"/>
        <path class="cls-2" d="m114.82,78.74c.08-.13.23-.39.31-.53-.08.13-.23.4-.31.53Z"/>
        <path class="cls-2" d="m113.8,80.52c.09-.15.26-.45.35-.6-.09.14-.26.44-.35.6Z"/>
        <path class="cls-2" d="m112.55,82.69c.11-.18.32-.56.43-.75-.12.19-.33.57-.43.75Z"/>
        <path class="cls-2" d="m112.17,83.33c.1-.15.29-.48.39-.65-.1.16-.29.49-.39.65Z"/>
        <path class="cls-2" d="m111.05,85.22c.04-.07.12-.2.15-.27-.04.07-.12.2-.15.27Z"/>
        <path class="cls-2" d="m110.07,87.5c.04-.17.11-.51.14-.67-.04.16-.11.5-.14.67Z"/>
        <path class="cls-2" d="m108.66,89.59c.35-.52,1.05-1.57,1.41-2.09-.36.52-1.06,1.57-1.41,2.09Z"/>
        <path class="cls-2" d="m108.16,90.34c.13-.18.38-.56.5-.75-.13.19-.38.57-.5.75Z"/>
        <path class="cls-2" d="m107.18,91.94c.07-.12.2-.35.27-.46-.07.12-.2.35-.27.46Z"/>
        <path class="cls-2" d="m105.84,94.32c.1-.17.29-.51.39-.68-.1.17-.29.51-.39.68Z"/>
        <path class="cls-2" d="m105.49,94.91c.09-.14.26-.45.36-.6-.1.14-.27.45-.36.6Z"/>
        <path class="cls-2" d="m104.37,96.81c.04-.07.12-.2.16-.27-.05.07-.13.2-.16.27Z"/>
        <path class="cls-2" d="m103.3,98.65c.03-.06.1-.16.13-.22-.03.06-.1.16-.13.22Z"/>
        <path class="cls-2" d="m206.06,217.46c.16-.27.51-.81.67-1.07-.16.26-.51.8-.67,1.07Z"/>
        <path class="cls-2" d="m205.64,218.21c.05-.08.13-.24.17-.32-.04.08-.13.24-.17.32Z"/>
        <path class="cls-2" d="m203.85,221.47c.08-.13.22-.38.29-.5-.07.13-.21.38-.29.5Z"/>
        <path class="cls-2" d="m202.84,223.25c.08-.14.24-.42.33-.57-.09.14-.25.42-.33.57Z"/>
        <path class="cls-2" d="m201.87,224.95c.05-.08.13-.23.17-.31-.04.08-.13.23-.17.31Z"/>
        <path class="cls-2" d="m200.53,227.29c.09-.15.26-.46.35-.61-.09.14-.26.45-.35.61Z"/>
        <path class="cls-2" d="m200.14,227.94c.1-.16.29-.48.39-.65-.1.16-.29.48-.39.65Z"/>
        <path class="cls-2" d="m198.86,230.13c.08-.13.23-.39.31-.52-.08.13-.23.39-.31.52Z"/>
        <path class="cls-2" d="m197.86,231.85c.1-.17.31-.53.4-.7-.1.17-.31.53-.4.7Z"/>
        <path class="cls-2" d="m196.05,235c.07-.13.21-.37.28-.48-.07.12-.21.36-.28.48Z"/>
        <path class="cls-2" d="m195.03,236.72c.11-.18.32-.53.41-.71-.1.18-.31.53-.41.71Z"/>
        <path class="cls-2" d="m193.25,239.8c.09-.14.25-.44.34-.59-.09.14-.25.44-.34.59Z"/>
        <path class="cls-2" d="m192.26,241.57c.07-.12.2-.36.27-.47-.07.12-.2.36-.27.47Z"/>
        <path class="cls-2" d="m191.21,243.41c.08-.13.23-.4.31-.54-.08.13-.23.4-.31.54Z"/>
        <path class="cls-2" d="m189.35,246.57c.09-.15.26-.45.35-.6-.09.14-.26.44-.35.6Z"/>
        <path class="cls-2" d="m188.42,248.25c.06-.12.18-.34.25-.45-.07.12-.19.34-.25.45Z"/>
        <path class="cls-2" d="m187.35,250.1c.07-.12.21-.36.28-.48-.07.13-.21.37-.28.48Z"/>
        <path class="cls-2" d="m185.44,253.37c.08-.13.23-.38.3-.5-.07.13-.22.38-.3.5Z"/>
        <path class="cls-2" d="m184.47,255c.1-.17.3-.51.39-.68-.1.17-.3.51-.39.68Z"/>
        <path class="cls-2" d="m182.76,257.98c.06-.11.19-.34.25-.44-.06.11-.19.34-.25.44Z"/>
        <path class="cls-2" d="m181.74,259.8c.06-.11.17-.31.23-.41-.06.11-.17.31-.23.41Z"/>
        <path class="cls-2" d="m180.66,261.66c.07-.11.2-.34.27-.44-.07.11-.2.34-.27.44Z"/>
        <path class="cls-2" d="m178.75,264.86c.11-.17.3-.52.4-.68-.11.16-.3.51-.4.68Z"/>
        <path class="cls-2" d="m177.89,266.45c.07-.13.21-.39.29-.53-.08.13-.22.4-.29.53Z"/>
        <path class="cls-2" d="m176.57,268.74c.08-.14.25-.43.33-.58-.08.14-.25.43-.33.58Z"/>
        <path class="cls-2" d="m176.25,269.29c.08-.13.23-.41.32-.55-.09.13-.24.41-.32.55Z"/>
      </g>
      <g>
        <path class="cls-3" d="m333.54,3.1c.08.13.22.39.3.53-.08-.13-.22-.4-.3-.53Z"/>
        <path class="cls-3" d="m341.36,16.7c.05.08.13.22.17.29-.05-.07-.13-.21-.17-.29Z"/>
        <path class="cls-3" d="m355.81,41.75c.04.07.13.2.16.28-.04-.08-.13-.21-.16-.28Z"/>
        <path class="cls-3" d="m358.59,46.46c.08.13.22.39.3.52-.08-.13-.22-.39-.3-.52Z"/>
        <path class="cls-3" d="m362.53,53.31c.05.07.13.2.16.28-.04-.08-.12-.21-.16-.28Z"/>
        <path class="cls-3" d="m366.34,59.93c.08.13.22.38.3.5-.08-.13-.22-.38-.3-.5Z"/>
        <path class="cls-3" d="m370.22,66.65c.08.13.22.39.3.51-.08-.13-.22-.39-.3-.51Z"/>
      </g>
      <g>
        <path class="cls-1" d="m404.94,126.76c16.74,29.01,33.59,57.97,50.2,87.07.08.13.23.39.31.52.39.64,1.16,1.9,1.53,2.52.08.13.23.39.31.51l.77,1.32c.05.09.14.27.2.36l.96,1.68c.1.16.28.5.38.66.09.14.26.44.35.6l.94,1.64c.04.07.12.2.15.27l.94,1.62c.04.07.12.19.15.26l.94,1.64c.1.16.28.48.38.65.09.16.27.48.36.64l.97,1.71c.13.34.4.99.54,1.32l.27.53.13.28.21.28.57.86c.2.32.6.95.8,1.27.12.19.37.58.48.77l.64,1.01c.19.43.58,1.31.77,1.74l.29.52.11.2.09.13c.42.63,1.26,1.89,1.68,2.51.11.17.32.52.43.69l.58.96c.09.15.26.45.35.6l.97,1.7c.09.15.26.46.35.62s.26.45.35.61l.96,1.65c.04.08.13.22.17.29l.88,1.54c.06.1.17.3.23.39l.89,1.55c.11.17.31.53.41.7.09.15.27.46.36.62.71,1.18,1.4,2.39,2.03,3.62.1.2.29.61.38.81l.44,1c.12.19.35.59.45.78.14.19.42.56.57.74l.66.94c.12.18.35.55.47.74l.97,1.68c.09.15.26.46.35.62.09.15.26.45.36.61l.96,1.66c.04.08.12.21.15.28l.91,1.6c.04.07.12.19.15.26l.93,1.63c.1.16.29.49.39.66.1.16.29.49.38.65l.96,1.66c.04.07.11.2.14.27l1.02,1.91v.87c-24.1-6.92-47.8-15.14-71.96-21.81-21.92-7.08-44.05-13.52-65.97-20.56,3.05-1.46,6.32-2.4,9.37-3.84.39-1.3.81-2.59,1.21-3.87,3.8-2.39,8.1-3.82,11.84-6.3.14-3.17.13-6.33.13-9.48,4.2-3.38,8.65-6.51,12.1-10.7.35-4.12-2.76-8.94.44-12.42,9.86-12.44,15.84-27.85,16.91-43.69,1.76-5.8-1.41-11.53-.1-17.3Z"/>
        <path class="cls-1" d="m490.95,276.73l.5.02.28.73-.57.04-.21-.79Z"/>
      </g>
      <g>
        <path class="cls-2" d="m247.77,151.47c.08.13.23.39.31.52-.08-.13-.23-.39-.31-.52Z"/>
        <path class="cls-2" d="m249.55,154.56c.07.12.19.34.26.45-.07-.12-.19-.34-.26-.45Z"/>
        <path class="cls-2" d="m250.6,156.43c.05.08.13.24.18.32-.05-.08-.13-.24-.18-.32Z"/>
        <path class="cls-2" d="m251.76,158.44c.09.14.25.43.34.58-.09-.14-.25-.43-.34-.58Z"/>
        <path class="cls-2" d="m252.1,159.02c.09.16.27.47.37.63-.1-.15-.28-.46-.37-.63Z"/>
        <path class="cls-2" d="m253.38,161.22c.05.09.15.26.2.35-.05-.09-.15-.26-.2-.35Z"/>
        <path class="cls-2" d="m255.48,164.85c.09.15.25.45.34.6-.09-.14-.25-.44-.34-.6Z"/>
        <path class="cls-2" d="m257.3,167.99c.09.14.25.41.33.55-.08-.13-.24-.4-.33-.55Z"/>
        <path class="cls-2" d="m258.45,169.94c.19.32.57.94.76,1.26-.19-.32-.57-.94-.76-1.26Z"/>
        <path class="cls-2" d="m259.47,171.66c.04.09.13.25.18.33-.05-.08-.14-.24-.18-.33Z"/>
        <path class="cls-2" d="m261.35,175.03c.18.25.55.77.73,1.03-.18-.26-.55-.78-.73-1.03Z"/>
        <path class="cls-2" d="m262.33,176.5c.04.08.13.24.17.32-.05-.08-.13-.24-.17-.32Z"/>
        <path class="cls-2" d="m265.21,181.7c.18.27.54.81.72,1.08-.18-.27-.54-.81-.72-1.08Z"/>
        <path class="cls-2" d="m266.19,183.23c.04.08.13.24.17.32-.04-.08-.13-.24-.17-.32Z"/>
        <path class="cls-2" d="m267.89,186.32c.09.14.25.43.34.58-.09-.14-.25-.43-.34-.58Z"/>
        <path class="cls-2" d="m268.84,187.98c.1.16.29.51.39.67-.1-.16-.29-.51-.39-.67Z"/>
        <path class="cls-2" d="m270.02,190.06c.1.17.3.53.39.7-.1-.17-.3-.53-.39-.7Z"/>
        <path class="cls-2" d="m270.42,190.76c.09.14.26.45.35.61-.09-.15-.26-.46-.35-.61Z"/>
        <path class="cls-2" d="m271.75,193.06c.04.08.13.21.16.28-.04-.07-.13-.2-.16-.28Z"/>
        <path class="cls-2" d="m272.85,194.94c.08.13.23.39.31.53-.08-.13-.23-.39-.31-.53Z"/>
        <path class="cls-2" d="m273.74,196.47c.11.17.31.53.41.7-.11-.17-.31-.53-.41-.7Z"/>
        <path class="cls-2" d="m275.82,199.99c.16.28.5.83.66,1.11-.16-.28-.5-.83-.66-1.11Z"/>
        <path class="cls-2" d="m276.76,201.54c.05.09.14.24.19.32-.05-.08-.14-.23-.19-.32Z"/>
        <path class="cls-2" d="m278.67,204.56l.07.1.06.13c-.03-.06-.1-.16-.13-.22Z"/>
        <path class="cls-2" d="m280.66,208.51c.09.14.24.42.33.57-.09-.14-.24-.42-.33-.57Z"/>
        <path class="cls-2" d="m280.99,209.08c.1.16.29.49.39.65-.1-.16-.29-.49-.39-.65Z"/>
        <path class="cls-2" d="m282.29,211.28c.05.09.14.26.2.35-.06-.09-.15-.26-.2-.35Z"/>
        <path class="cls-2" d="m283.13,212.76c11.1,4.08,22.59,6.99,33.8,10.7,12.05,3.57,24.01,7.43,36.1,10.9,21.92,7.04,44.05,13.48,65.97,20.56-.33,4.69.6,9.49-.57,14.1-.9,4.48-6.25,5.18-8.45,8.75-29.63,0-59.24.1-88.86-.03l-.64-.05c-12.24-21.76-24.97-43.25-37.36-64.92Z"/>
      </g>
      <g>
        <path class="cls-2" d="m455.14,213.82c.08.13.23.39.31.52-.08-.13-.23-.39-.31-.52Z"/>
        <path class="cls-2" d="m456.98,216.87c.08.13.23.39.31.51-.08-.13-.23-.39-.31-.51Z"/>
        <path class="cls-2" d="m458.05,218.7c.05.09.14.27.2.36-.06-.09-.15-.27-.2-.36Z"/>
        <path class="cls-2" d="m459.22,220.73c.1.16.28.5.38.66-.1-.16-.28-.5-.38-.66Z"/>
        <path class="cls-2" d="m459.6,221.39c.09.14.26.44.35.6-.09-.15-.26-.45-.35-.6Z"/>
        <path class="cls-2" d="m460.89,223.63c.04.07.12.2.15.27-.04-.07-.12-.2-.15-.27Z"/>
        <path class="cls-2" d="m461.98,225.51c.04.07.12.19.15.26-.04-.07-.12-.19-.15-.26Z"/>
        <path class="cls-2" d="m463.08,227.41c.1.16.28.48.38.65-.1-.16-.28-.48-.38-.65Z"/>
        <path class="cls-2" d="m463.46,228.05c.09.16.27.48.36.64-.09-.15-.27-.47-.36-.64Z"/>
        <path class="cls-2" d="m464.78,230.4c.13.34.4.99.54,1.32-.13-.33-.4-.98-.54-1.32Z"/>
        <path class="cls-2" d="m465.59,232.25c.09.14.25.42.34.56l-.21-.28-.13-.28Z"/>
        <path class="cls-2" d="m466.5,233.67c.2.32.6.95.8,1.27-.2-.32-.6-.95-.8-1.27Z"/>
        <path class="cls-2" d="m467.3,234.94c.12.19.37.58.48.77-.12-.19-.37-.58-.48-.77Z"/>
        <path class="cls-2" d="m468.41,236.72c.19.43.58,1.31.77,1.74-.19-.43-.58-1.31-.77-1.74Z"/>
        <path class="cls-2" d="m469.47,238.98c.05.09.14.25.19.33l-.09-.13-.11-.2Z"/>
        <path class="cls-2" d="m471.35,241.82c.11.17.32.52.43.69-.12-.17-.33-.52-.43-.69Z"/>
        <path class="cls-2" d="m472.36,243.48c.09.15.26.45.35.6-.09-.14-.26-.44-.35-.6Z"/>
        <path class="cls-2" d="m473.68,245.78c.09.15.26.46.35.62-.09-.15-.26-.46-.35-.62Z"/>
        <path class="cls-2" d="m474.03,246.4c.09.15.26.45.35.61-.09-.15-.26-.45-.35-.61Z"/>
        <path class="cls-2" d="m475.34,248.65c.04.08.13.22.17.29-.05-.07-.13-.21-.17-.29Z"/>
        <path class="cls-2" d="m476.39,250.48c.06.1.17.3.23.39-.06-.1-.17-.3-.23-.39Z"/>
        <path class="cls-2" d="m477.5,252.42c.11.17.31.53.41.7-.11-.17-.31-.53-.41-.7Z"/>
        <path class="cls-2" d="m477.92,253.13c.09.15.27.46.36.62-.09-.15-.27-.46-.36-.62Z"/>
        <path class="cls-2" d="m419,254.92c24.16,6.67,47.86,14.89,71.95,21.81l.21.79c-27.05.62-54.13.11-81.19.25,2.2-3.57,7.56-4.27,8.45-8.75,1.17-4.6.24-9.41.57-14.1Z"/>
        <path class="cls-2" d="m480.31,257.36c.1.2.29.61.38.81-.09-.2-.28-.61-.38-.81Z"/>
        <path class="cls-2" d="m481.12,259.17c.12.19.35.59.45.78-.11-.19-.34-.59-.45-.78Z"/>
        <path class="cls-2" d="m481.58,259.95c.14.19.42.56.57.74-.14-.18-.42-.55-.57-.74Z"/>
        <path class="cls-2" d="m482.81,261.64c.12.18.35.55.47.74-.13-.19-.36-.56-.47-.74Z"/>
        <path class="cls-2" d="m484.25,264.06c.09.15.26.46.35.62-.09-.15-.26-.46-.35-.62Z"/>
        <path class="cls-2" d="m484.6,264.68c.09.15.26.45.36.61-.1-.15-.27-.45-.36-.61Z"/>
        <path class="cls-2" d="m485.92,266.94c.04.08.12.21.15.28-.04-.07-.12-.2-.15-.28Z"/>
        <path class="cls-2" d="m486.99,268.82c.04.07.12.19.15.26-.04-.07-.12-.19-.15-.26Z"/>
        <path class="cls-2" d="m488.08,270.71c.1.16.29.49.39.66-.1-.17-.29-.5-.39-.66Z"/>
        <path class="cls-2" d="m488.46,271.37c.1.16.29.49.38.65-.09-.16-.28-.49-.38-.65Z"/>
        <path class="cls-2" d="m489.8,273.68c.04.07.11.2.14.27-.04-.07-.11-.2-.14-.27Z"/>
        <path class="cls-2" d="m490.96,275.86c.13.22.37.66.49.89l-.5-.02v-.87Z"/>
      </g>
      <g>
        <path class="cls-2" d="m141.74,328.4c9.93-16.93,19.36-34.17,29.62-50.89,49.71.18,99.43-.28,149.13.18l.64.05c-25.14.81-50.35-.21-75.49.42-4.79,3.09-7.99,8.1-12.58,11.47-4.27,3.11-7.4,7.44-11.48,10.76-5.71,4.21-9.96,10.04-15.75,14.16-6.7,7.1-14.43,13.08-21.19,20.13-5.06,3.89-9.3,8.69-14.02,12.98-5.19,3.76-9.17,8.87-14.02,13.03-.13.11-.37.32-.49.43-.26.2-.77.63-1.03.83-.13.11-.36.3-.48.4-3.82,2.96-6.75,6.86-10.5,9.89-.13.11-.37.31-.48.4-.13.11-.37.31-.49.4-5.48,4.5-9.87,10.19-15.62,14.37-5.79,5.74-12.31,10.67-17.81,16.71-8.13,6.68-15.15,14.57-23.53,20.97,2.08-4.53,4.83-8.69,7.25-13.04,16.12-27.89,32.22-55.79,48.33-83.68Z"/>
        <path class="cls-2" d="m85.73,425.73l.42-.62-.03.63h-.39Z"/>
      </g>
      <path class="cls-1" d="m321.12,277.74c29.62.13,59.23.04,88.86.03,27.06-.14,54.14.37,81.19-.25l.57-.04.39.11v.08c-28.56,49.36-57.03,98.79-85.59,148.16-106.81-.03-213.61.1-320.41-.08l.03-.63c8.38-6.4,15.41-14.29,23.53-20.97,5.5-6.05,12.03-10.98,17.81-16.71,5.75-4.19,10.14-9.88,15.62-14.37.13-.1.37-.3.49-.4.12-.1.36-.3.48-.4,3.76-3.03,6.68-6.93,10.5-9.89.13-.11.36-.3.48-.4.26-.2.77-.63,1.03-.83.13-.12.37-.33.49-.43,4.85-4.16,8.83-9.26,14.02-13.03,4.72-4.28,8.95-9.09,14.02-12.98,6.76-7.06,14.49-13.04,21.19-20.13,5.8-4.12,10.04-9.96,15.75-14.16,4.07-3.32,7.21-7.65,11.48-10.76,4.59-3.37,7.79-8.38,12.58-11.47,25.14-.64,50.35.39,75.49-.42Z"/>
      <g>
        <path class="cls-4" d="m156.1,361.13c.13-.12.37-.33.49-.43-.13.11-.37.32-.49.43Z"/>
        <path class="cls-4" d="m155.07,361.95c.26-.2.77-.63,1.03-.83-.26.2-.77.63-1.03.83Z"/>
        <path class="cls-4" d="m154.59,362.36c.13-.11.36-.3.48-.4-.13.11-.36.3-.48.4Z"/>
        <path class="cls-4" d="m143.61,372.65c.12-.1.36-.3.48-.4-.13.11-.37.31-.48.4Z"/>
        <path class="cls-4" d="m143.11,373.06c.13-.1.37-.3.49-.4-.13.11-.37.31-.49.4Z"/>
      </g>
    </g>
  </g>
</svg>