<?xml version="1.0" encoding="UTF-8"?>
<svg id="Layer_2" data-name="Layer 2" xmlns="http://www.w3.org/2000/svg" viewBox="0 0 451.07 151.9">
  <defs>
    <style>
      .cls-1 {
        fill: #0094a4;
      }
    </style>
  </defs>
  <g id="Layer_1-2" data-name="Layer 1">
    <g>
      <g>
        <path class="cls-1" d="m56.72,38.11C25.37,38.11,0,63.49,0,94.84s25.37,56.72,56.72,56.72,56.72-25.37,56.72-56.72-25.37-56.72-56.72-56.72Zm0,85.14c-15.67,0-28.42-12.74-28.42-28.42s12.74-28.42,28.42-28.42,28.42,12.74,28.42,28.42-12.74,28.42-28.42,28.42Z"/>
        <path class="cls-1" d="m156.41,113.89c0-4.51,5.41-6.65,8.57-3.5,14.21,14.43,37.66,39.24,37.78,39.36.34.34.68.9,2.03,1.35.56.23,1.47.23,2.48.23h25.6c4.62,0,5.98-5.3,3.83-8.01l-42.4-43.42-2.26-2.26c-4.85-5.75-4.29-8.01,1.24-13.87l33.6-37.55c2.14-2.71.79-7.89-3.95-7.89h-23.23c-.9,0-1.58,0-2.26.23-1.35.45-1.92.9-2.26,1.35-.11.11-18.72,20.19-30.22,32.48-3.16,3.38-8.8,1.13-8.8-3.5V4.51c0-3.27-2.71-4.51-4.85-4.51h-18.94c-3.27,0-4.85,2.14-4.85,4.06v142.76c0,3.27,2.71,4.17,4.96,4.17h18.94c2.93,0,4.85-2.14,4.85-4.29v-32.81h.11Z"/>
        <path class="cls-1" d="m311.12,146.15l-2.03-18.94c-.23-2.59-2.71-4.4-5.3-3.95-1.47.23-2.93.34-4.4.34-15.11,0-27.4-11.84-28.3-26.84v-24.81c0-3.04,2.26-5.53,5.3-5.53h25.37c1.8,0,4.51-1.58,4.51-4.85v-17.93c0-3.5-2.26-5.3-4.29-5.3h-25.6c-2.93,0-5.3-2.14-5.41-5.07V4.51c0-1.8-1.35-4.51-4.85-4.51h-18.83c-2.37,0-4.62,1.47-4.62,4.4v92.36c.79,30.67,25.94,55.14,56.72,55.14,2.59,0,5.07-.23,7.56-.56,2.71-.34,4.51-2.59,4.17-5.19Z"/>
      </g>
      <path class="cls-1" d="m447.79,122.35c-16.01,0-18.49-5.75-18.49-27.29v-51.99c0-1.8-1.35-4.85-4.96-4.85h-18.94c-2.37,0-4.96,1.92-4.96,4.85v2.37c-8.23-4.74-17.82-7.44-27.97-7.44-31.35,0-56.72,25.37-56.72,56.72s25.37,56.72,56.72,56.72c14.1,0,26.95-5.19,36.87-13.64,5.3,8.12,13.87,13.53,27.29,13.64,2.26,0,14.43.45,14.43-5.3v-20.19c0-1.69-1.35-3.61-3.27-3.61Zm-75.22.9c-15.67,0-28.42-12.74-28.42-28.42s12.74-28.42,28.42-28.42,28.42,12.74,28.42,28.42c-.11,15.67-12.86,28.42-28.42,28.42Z"/>
    </g>
  </g>
</svg>