<?xml version="1.0" encoding="UTF-8"?>
<svg id="Layer_2" data-name="Layer 2" xmlns="http://www.w3.org/2000/svg" viewBox="0 0 509.26 512.55">
  <defs>
    <style>
      .cls-1 {
        fill: #0094a4;
      }

      .cls-2 {
        fill: #fff;
      }
    </style>
  </defs>
  <g id="Layer_1-2" data-name="Layer 1">
    <g>
      <circle class="cls-1" cx="246.66" cy="250.06" r="210.32"/>
      <g id="Layer_2-2" data-name="Layer 2">
        <g id="Layer_1-2" data-name="Layer 1-2">
          <path class="cls-2" d="m508.76,258.29v-10.4c.18-.35.35-.32.47,0v10.34c-.12.4-.28.4-.47.06Z"/>
          <path class="cls-2" d="m245.67,512.05h6.24c.36.16.35.32,0,.47h-6.21c-.37-.14-.38-.29-.03-.47Z"/>
          <path class="cls-2" d="m509.26,247.93h-.47c.23-1.7-.66-3.5.47-5.13v5.13Z"/>
          <path class="cls-2" d="m509.26,241.74c-.83-1.06-.83-2.56,0-3.62v3.62Z"/>
          <path class="cls-2" d="m508.81,264.5v-3.6c.1-.39.25-.4.43,0v3.61c-.11.34-.26.35-.43-.01Z"/>
          <path class="cls-2" d="m238.42,512.08h3.62c.37.13.37.28,0,.45h-3.62c-.35-.14-.36-.28,0-.45Z"/>
          <path class="cls-2" d="m242.08,512.52c.01-.15.01-.3,0-.45h3.62c.01.16.01.32,0,.48l-3.62-.02Z"/>
          <path class="cls-2" d="m508.81,264.5c.15.02.3.02.44,0v3.1c-1.05-.93-.32-2.08-.44-3.1Z"/>
          <path class="cls-2" d="m251.9,512.52c-.01-.15-.01-.31,0-.47h3.11c.36.16.36.3,0,.42l-3.11.04Z"/>
          <path class="cls-2" d="m257.61,512.09c1.08.12,2.16-.62,3.07.43h-3.1c-.36-.17-.35-.31.03-.43Z"/>
          <path class="cls-2" d="m509.26,260.86c-.14.01-.29.01-.43,0l-.06-2.62h.5v2.62Z"/>
          <path class="cls-2" d="m238.42,512.08c.01.15.01.3,0,.44h-2.55v-.43h2.55Z"/>
          <path class="cls-2" d="m257.61,512.09v.43h-2.58v-.42h2.58Z"/>
          <path class="cls-2" d="m242.25,495.82h12.36c.32.17.32.34,0,.49h-12.27c-.34-.14-.36-.3-.09-.49Z"/>
          <path class="cls-2" d="m495.85,254.14c0-3.14.02-6.29.05-9.44.18-.22.32-.18.43.08v9.37c-.16.28-.32.29-.49,0Z"/>
          <path class="cls-2" d="m496.33,244.74l-.44-.08v-3.89c.17-.32.32-.32.45,0v3.97Z"/>
          <path class="cls-2" d="m495.91,233.4c.14-.04.28-.04.42,0v3.44c-.89-1.08-.4-2.27-.42-3.44Z"/>
          <path class="cls-2" d="m495.85,254.14c.16-.02.32-.02.49,0v3.44c-.12.35-.27.36-.44,0-.01-1.16-.03-2.36-.04-3.44Z"/>
          <path class="cls-2" d="m264.51,495.85v.42h-3.45c1.04-.89,2.28-.39,3.45-.42Z"/>
          <path class="cls-2" d="m496.33,240.81h-.45c.12-.98-.47-2.07.45-2.92v2.92Z"/>
          <path class="cls-2" d="m495.89,257.58h.44v2.96c-.93-.91-.34-1.99-.44-2.96Z"/>
          <path class="cls-2" d="m496.33,264.95h-.43c0-1.01-.5-2.1.43-2.97v2.97Z"/>
          <path class="cls-2" d="m232,496.27v-.44c1.01,0,2.09-.43,2.97.44h-2.97Z"/>
          <path class="cls-2" d="m236.42,496.27c.85-.91,1.93-.35,2.9-.41.38.1.4.23.05.41h-2.95Z"/>
          <path class="cls-2" d="m239.38,496.27c0-.13,0-.27-.05-.41h2.96c0,.15,0,.3.05.45l-2.96-.04Z"/>
          <path class="cls-2" d="m254.64,496.27c-.01-.16-.01-.32,0-.49.99.13,2.08-.32,2.94.49h-2.94Z"/>
          <path class="cls-2" d="m496.33,236.84c-.53-1.08-.13-2.29-.25-3.43-.32-7.76-.43-15.53-1.63-23.24-4.86-31.69-15.84-62.12-32.34-89.61-9.65-16.11-21.04-31.11-33.97-44.73-7.3-7.65-15.1-14.81-23.34-21.43-12.77-10.42-26.56-19.52-41.17-27.14-18.77-9.8-38.72-17.14-59.36-21.85C289.53,1.91,274.43.12,259.28.08c-6.63,0-13.26-.18-19.89,0-10.4.07-20.77.85-31.06,2.36-24.14,3.94-47.57,11.4-69.54,22.15-8.03,3.93-15.83,8.3-23.37,13.1-12.8,7.97-24.79,17.16-35.81,27.46-8.42,7.8-16.33,16.13-23.68,24.95-10.58,12.85-19.86,26.72-27.71,41.4-8.62,16.13-15.4,33.18-20.2,50.83C3.25,199.87.12,217.64.16,235.87c0,7.12-.3,14.23-.06,21.36.31,9.33.48,18.63,1.86,27.9,2.74,18.49,7.57,36.61,14.39,54.02,11.96,30.36,29.73,58.1,52.3,81.67,6.35,6.63,13.07,12.89,20.14,18.75,29.58,24.8,64.56,42.34,102.13,51.2,13.45,3.32,27.24,5.08,41.1,5.26.99.12,2.02-.28,2.98.24h1.47c1.08-.5,2.16-.13,3.24-.24h14.59c1.08.11,2.27-.25,3.35.24h3.45c1.08-.52,2.27-.12,3.4-.24,7.57-.37,15.21-.42,22.71-1.64,29.79-4.66,58.46-14.75,84.6-29.77,16.53-9.41,31.92-20.7,45.85-33.66,21.71-20.09,39.7-43.85,53.15-70.19,7.26-14.25,13.1-29.18,17.43-44.58,4.76-16.76,7.85-33.77,7.86-51.27.12-.97-.27-2,.25-2.95v-1.47c-.5-1.08-.13-2.16-.25-3.24v-16.22c.12-1.08-.25-2.16.25-3.24l-.03-.95Zm-85.37,48.67c-9.53,33.31-31.74,54.67-64.35,65.55-14.37,4.8-29.2,6.66-44.34,6.74-18.04.09-36.09,0-55.89,0-16.7.09-35.15.28-53.61,0-29.11-.42-55.21-9-77-28.75-19.97-18.11-31.36-40.84-33.91-67.63-3.3-34.1,6.82-63.87,30.53-88.68,18.64-19.47,41.77-30.28,68.58-32.88,14.86-1.43,29.81-1.42,44.73-1.67,25.66-.43,51.33.22,76.99.8,19.14.44,37.7,3.47,55.06,11.96,25.04,12.23,42.18,31.62,51.14,57.94,8.66,24.7,9.39,51.48,2.08,76.61Z"/>
          <path class="cls-2" d="m249.92,313.3c-20.92-.35-41.83.28-62.73-.27-8.55-.23-17.01-1.08-25.12-4.07-14.72-5.41-24.65-15.66-29.93-30.28-6.27-16.81-7.09-35.16-2.36-52.46,6.29-23.14,22-36.29,45.48-39.95,13.95-2.16,28.12-2.16,42.18-2.58,21.81-.68,43.62-.3,65.43.27,12.37.31,24.78.09,37.11,1.27,21.8,2.09,38.08,12.36,46.75,33.08,4.47,10.68,5.83,21.95,5.7,33.46.06,8.96-1.41,17.86-4.33,26.32-6.92,19.09-20.81,29.84-40.49,33.53-10.54,2-21.24,1.52-31.89,1.61-15.27.17-30.53.08-45.79.08Z"/>
        </g>
      </g>
    </g>
  </g>
</svg>