<?xml version="1.0" encoding="UTF-8"?>
<svg id="Layer_2" data-name="Layer 2" xmlns="http://www.w3.org/2000/svg" viewBox="0 0 500.13 148.51">
  <defs>
    <style>
      .cls-1 {
        fill: #0094a4;
      }
    </style>
  </defs>
  <g id="Layer_1-2" data-name="Layer 1">
    <path class="cls-1" d="m53.34,89.95c0,3.31-.7,6.38-2.1,9.22-1.4,2.8-3.38,5.21-5.87,7.16-2.53,1.98-5.52,3.5-8.98,4.59-3.46,1.09-7.27,1.63-11.39,1.63-4.94,0-9.37-.66-13.26-2.02-3.89-1.32-7.81-3.58-11.74-6.7l6.49-10.55c3.11,2.61,5.91,4.51,8.44,5.72,2.49,1.21,5.05,1.79,7.7,1.79,3.23,0,5.79-.82,7.78-2.49,1.98-1.67,2.92-3.89,2.92-6.73,0-1.21-.19-2.34-.54-3.39-.35-1.05-1.01-2.14-1.94-3.27-.93-1.09-2.25-2.34-3.93-3.62-1.63-1.28-3.77-2.92-6.42-4.83-1.98-1.4-3.97-2.88-5.87-4.36-1.9-1.52-3.62-3.11-5.21-4.83-1.55-1.71-2.8-3.62-3.77-5.76-.93-2.1-1.44-4.55-1.44-7.24,0-3.11.66-5.99,1.94-8.56s3.07-4.75,5.33-6.58c2.25-1.83,4.94-3.23,8.12-4.24,3.15-1.01,6.57-1.52,10.3-1.52,3.93,0,7.7.51,11.35,1.56,3.65,1.05,7.04,2.57,10.19,4.59l-5.87,9.5c-4-2.8-8.24-4.24-12.67-4.24-2.68,0-4.94.7-6.69,2.1s-2.64,3.15-2.64,5.29c0,2.02.78,3.85,2.33,5.45,1.55,1.63,4.24,3.85,8.05,6.81,3.85,2.8,7.04,5.29,9.53,7.39,2.53,2.1,4.51,4.13,5.99,5.99,1.48,1.87,2.45,3.74,3.03,5.68.58,1.98.86,4.09.86,6.42h0Zm66.67-17.79c0,2.92-.31,6.07-.93,9.46-.58,3.39-1.63,6.5-3.11,9.38-1.48,2.88-3.38,5.26-5.76,7.08-2.37,1.87-5.4,2.8-9.02,2.8-6.06,0-10.85-2.41-14.34-7.28-3.5-4.83-5.25-11.48-5.25-19.93s1.75-15.53,5.33-20.63c3.54-5.1,8.36-7.63,14.42-7.63s10.3,2.41,13.64,7.16c3.34,4.79,5.02,11.32,5.02,19.58h0Zm21.07-.74c0-5.64-.82-10.78-2.41-15.37-1.63-4.63-3.89-8.6-6.88-11.95-2.99-3.35-6.49-5.92-10.57-7.78s-8.59-2.8-13.53-2.8c-5.44,0-10.22,1.05-14.34,3.07-4.12,2.06-7.97,5.29-11.47,9.73l-.12-11.02h-19.4v113.2h19.36v-47.81c1.9,2.22,3.73,4.09,5.52,5.6,1.75,1.52,3.54,2.76,5.36,3.7,1.83.93,3.73,1.63,5.75,2.02,2.02.39,4.2.58,6.49.58,5.13,0,9.95-1.05,14.38-3.07,4.43-2.06,8.28-4.94,11.51-8.68,3.23-3.74,5.76-8.09,7.58-13.04,1.87-4.98,2.76-10.47,2.76-16.39h0Zm8.63,39.35h19.9V0h-19.9v110.77Zm104.79.04V35.23h-19.9v40.67c0,3.62-.16,6.42-.47,8.41-.31,1.98-.82,3.74-1.52,5.37-2.8,6.23-7.97,9.38-15.47,9.38-5.87,0-9.95-2.1-12.29-6.35-.93-1.6-1.55-3.43-1.9-5.45-.35-2.02-.54-4.94-.54-8.8v-43.24h-19.9v42.95c0,2.92.04,5.41.08,7.39.04,1.98.19,3.81.39,5.37.19,1.56.43,2.96.7,4.17.23,1.21.62,2.37,1.13,3.46,1.83,4.63,4.74,8.14,8.82,10.51,4.08,2.37,9.1,3.54,15,3.54,5.33,0,10.03-.93,14.07-2.8s7.97-4.91,11.78-9.15l.04,10.12,19.98.04v-.03Zm85.77-.04v-42.86c0-2.92-.04-5.41-.08-7.47-.04-2.06-.16-3.85-.39-5.37-.19-1.52-.47-2.84-.74-3.97-.31-1.17-.66-2.3-1.05-3.39-1.83-4.51-4.74-8.02-8.82-10.47-4.08-2.45-9.1-3.7-15.05-3.7-5.33,0-10.03.93-14.07,2.8-4.04,1.87-7.97,4.94-11.78,9.15l-.04-10.12h-20.02v75.41h20.06v-40.71c0-3.5.12-6.27.39-8.21.23-1.95.74-3.78,1.44-5.53,1.28-3.04,3.3-5.29,5.99-6.85s5.87-2.34,9.6-2.34c5.87,0,9.95,2.1,12.29,6.35.89,1.6,1.52,3.43,1.87,5.41.35,1.99.54,4.94.54,8.76v43.03l19.86.04v.04Zm82.35-4.98l-30.32-37.72,25.62-27.48-15.08-6.5-26.67,30.94h-2.1V.02h-20.06v110.77h20.06v-40.12l30.01,41.63,18.54-6.5h0Zm77.52-27.09v-12.34l-60.32-30.28v13.58l46.74,22.77-46.74,23.08v13.27l60.32-30.08h0Zm-54.46-62.21c-3.69,0-6.69,3.04-6.69,6.77s3,6.81,6.69,6.81,6.69-3,6.69-6.81-2.95-6.77-6.69-6.77Zm.04,1.05c2.99,0,5.4,2.57,5.4,5.76s-2.41,5.76-5.4,5.72c-3.03,0-5.45-2.53-5.45-5.76s2.41-5.72,5.45-5.72Zm-1.28,6.42h.81c.97,0,1.44.35,1.63,1.32.16,1.01.35,1.67.51,1.91h1.28c-.12-.23-.31-.7-.47-1.87-.16-1.13-.59-1.71-1.28-1.83v-.08c.82-.23,1.48-.86,1.48-1.83,0-.7-.24-1.25-.7-1.56-.47-.35-1.2-.58-2.33-.58-.9,0-1.52.08-2.14.19v7.55h1.2v-3.23h0Zm0-3.5c.19-.04.47-.08.85-.08,1.36,0,1.83.66,1.83,1.32,0,.93-.86,1.28-1.83,1.28h-.85v-2.53h0Z"/>
  </g>
</svg>