<?xml version="1.0" encoding="UTF-8"?>
<svg id="Layer_2" data-name="Layer 2" xmlns="http://www.w3.org/2000/svg" viewBox="0 0 497.72 497.86">
  <defs>
    <style>
      .cls-1 {
        fill: #0094a4;
      }

      .cls-2 {
        fill: #fff;
      }
    </style>
  </defs>
  <g id="Layer_1-2" data-name="Layer 1">
    <g>
      <circle class="cls-1" cx="248.83" cy="248.91" r="244.56"/>
      <g id="Layer_2-2" data-name="Layer 2">
        <g id="Layer_1-2" data-name="Layer 1-2">
          <path class="cls-2" d="m493.74,239.31v9.69c-.26.15-.6.06-.75-.2,0,0,0-.02-.01-.02-.7-3.04-.7-6.21,0-9.25.14-.27.46-.37.73-.24.01,0,.03.01.04.02Z"/>
          <path class="cls-2" d="m245.71,0h7.75c.15.25.08.58-.17.73,0,0-.02,0-.02.01-2.4.69-4.95.69-7.35,0-.26-.15-.35-.47-.21-.74,0,0,0,0,0,0Z"/>
          <path class="cls-2" d="m245.71,0v.41c-1.61,1.22-3.34.9-5.1.35-.26-.14-.36-.47-.22-.73,0,0,0-.01.01-.02h5.3Z"/>
          <path class="cls-2" d="m266.05,0v.56c-1.42.8-3.15.87-4.63.18-.26-.15-.35-.48-.2-.74,0,0,0,0,0,0h4.82Z"/>
          <path class="cls-2" d="m253.48.46c-.01-.15-.01-.31,0-.46h4.84c.16.25.08.59-.18.74,0,0-.01,0-.02.01-1.6.53-3.15.81-4.65-.3Z"/>
          <path class="cls-2" d="m493.29,249.01h.45v4.36c-.25.16-.59.08-.74-.18,0,0,0-.01-.01-.02-.53-1.44-.75-2.85.31-4.16Z"/>
          <path class="cls-2" d="m233.12.53v-.53h4.36c.15.25.08.58-.17.73,0,0-.02,0-.02.01-1.33.67-2.91.59-4.16-.21Z"/>
          <path class="cls-2" d="m493.74,239.31h-.46c-1.02-1.32-.84-2.72-.3-4.15.15-.26.48-.35.74-.2,0,0,.01,0,.02.01v4.34Z"/>
          <path class="cls-2" d="m493.31,253.37c.14.02.29.02.43,0v2.91h-.45c-.8-.74-.85-1.98-.11-2.78.04-.04.08-.09.13-.13Z"/>
          <path class="cls-2" d="m258.33.43v-.43h2.91c.01.14.01.27,0,.41-.7.81-1.93.89-2.73.19-.06-.05-.12-.11-.17-.17Z"/>
          <path class="cls-2" d="m237.46.43v-.43h2.91c.02.15.02.3,0,.45-.74.8-1.98.85-2.78.11-.04-.04-.09-.08-.13-.13Z"/>
          <path class="cls-2" d="m493.74,234.95h-.44c-.8-.74-.84-2-.1-2.8.03-.03.07-.07.1-.1h.46l-.02,2.9Z"/>
          <path class="cls-2" d="m492.8,263.05c-.16-1.49-.02-3.01.41-4.45-.01,1.48.43,3.03-.41,4.45Z"/>
          <path class="cls-2" d="m493.21,229.7c-.43-1.44-.56-2.95-.41-4.45.84,1.42.4,2.96.41,4.45Z"/>
          <path class="cls-2" d="m160.87,274.1c.18.45.59.51,1.02.55-.62.94-1.68,1.02-2.86,1.72.34-.94.99-1.74,1.84-2.27Z"/>
          <path class="cls-2" d="m174,274.15c.18.46.62.46,1.02.54-.71.82-1.83,1.15-2.87.85.43-.67,1.08-1.17,1.85-1.39Z"/>
          <path class="cls-2" d="m187.54,239.28c.16.45.54.44.93.44-.36.54-.87,1.26-1.46.82s.1-.93.53-1.25Z"/>
          <path class="cls-2" d="m180.72,85.36c.43-.17.97-.14,1.18-.68.4.18.71.63.45.88-.51.48-1.12.22-1.63-.19Z"/>
          <path class="cls-2" d="m189.61,123.95l.47-1.02c.47.56.76,1.22.14,1.74-.27.24-.52-.36-.61-.72Z"/>
          <path class="cls-2" d="m192.45,437.96l.96.88c-.69.06-1.41.05-1.72-.67-.08-.19.46-.27.76-.2Z"/>
          <path class="cls-2" d="m248.86.17C111.41.17,0,111.57,0,249s111.41,248.86,248.86,248.86,248.86-111.39,248.86-248.86S386.25.17,248.86.17Zm76.49,129.56c21.34,5.47,42.19,12.68,62.35,21.56.36.16.68.4,1.65.97-27.59,6.37-54.06,14.16-79.62,24.73-.61-1.08.08-1.72.4-2.41,6.32-13.63,10.92-27.76,12.43-42.84.23-1.78.85-2.54,2.79-2.02Zm-8.16,1.45c-.95,6.48-3.2,12.6-5.58,18.67-3.66,8.95-7.97,17.62-12.87,25.96-1.68,2.96-2.22,3.13-5.1,1.42-8.67-4.93-17.67-9.28-26.92-13.02-.45-.19-.9-.38-1.33-.6-2.48-1.24-2.59-1.99-.34-3.71,5.04-3.89,10.31-7.49,15.77-10.77,11.28-6.72,22.74-13.14,34.3-19.38,1.92-1.08,2.42-.58,2.06,1.44Zm-60.48,132.23c.11-2.11.81-2.57,2.79-1.71,1.18.53,2.32,1.14,3.41,1.83,12.42,7.69,25.09,14.94,38.18,21.42.69.35,1.5.57,1.83,1.31-.35,1.02-1.13,1.32-1.77,1.76-8.36,5.78-17.11,10.99-26.17,15.59-7.6,3.93-15.36,7.5-23.14,11.05-.64.3-1.31.85-2.04.34s-.37-1.25-.16-1.96c4.63-15.31,7.01-31.22,7.07-47.21.04-.8.01-1.6.05-2.41h-.03Zm9.37-5.24c3.69-1.31,6.83-2.51,10.03-3.54,7.46-2.38,14.94-4.62,22.38-7.05,2.04-.66,2.95-.31,3.24,1.93,1.32,10.08,2.09,20.22,2.31,30.38,0,1.51-.15,2.14-1.83,1.21-12.24-6.86-23.93-14.64-36.09-22.94h-.03Zm28.74,90.89c.85.27,1.67.56,2.99,1.02-2.88,1.78-5.89,3.34-9.01,4.66-21.32,9.61-43.18,17.87-65.06,26.09-.48.18-1.02.72-1.51.08s.14-1.02.39-1.5c8.44-15.51,15.6-31.67,21.42-48.34.64-1.89,1.46-2.77,3.5-1.56,14.87,8.79,30.97,14.46,47.31,19.55h-.03Zm-106.14-71.4c-3.97,1.76-7.93,3.57-11.9,5.35-.59.31-1.02.33-1.02-.53,11.75-8.82,22.84-18.48,33.19-28.9,4.67-4.8,9.18-9.76,13.38-14.97,1.76-2.18,1.87-2.17,3.42,0,3.64,5.26,6.2,11.18,7.54,17.43.58,2.61,0,3.49-2.94,4.62-14.01,5.4-27.96,10.91-41.66,17Zm18.49,7.38c5.89,13.17,14.7,24.82,25.77,34.07,2.3,1.96,2.3,2.34-.46,3.4-18.52,7.14-37.27,13.59-56.1,19.77-.58.31-1.27.31-1.85,0,.17-.96.59-1.85,1.2-2.6,10.61-17.34,19.08-35.7,26.61-54.51.55-1.38.19-3.7,2.45-3.63,1.9.05,1.77,2.21,2.36,3.52h.01Zm-43.53-2.04c-.64.37-1.02.32-1.02-.56,4.19-5.1,8.61-10.03,12.7-15.24,2.9-3.48,6.32-6.5,10.13-8.94,7.06-4.84,13.98-9.86,21.28-14.34.86-.54,1.79-.98,2.75-1.32-2.8,3.73-5.87,7.24-9.18,10.53-10.92,11.45-23.24,21.48-36.67,29.85v.02Zm60.74-63.72c-4.19-4.49-9.14-8.21-14.62-10.98-1.43-.69-1.81-1.24-.4-2.55,10.81-10.04,22.05-19.58,33.05-29.42.68-.56,1.41-1.06,2.19-1.48.47-.29,1.02-.67,1.56-.23.36.28.55.73.49,1.18-3.06,10-5.62,19.74-10.49,28.66-2.7,4.96-5.64,9.77-8.57,14.59-1.12,1.87-1.9,1.65-3.21.23Zm15.99-50.55c-.62.75-1.33,1.41-2.12,1.97-8.36,5.48-15.3,12.6-22.53,19.38-2.98,2.8-6.01,5.56-9.52,8.8,1.05-10.41,1.05-20.9,0-31.31-.29-2.9-.61-5.78-1.09-8.65-.37-2.15.42-2.59,2.37-2.16,8.48,1.99,16.84,4.43,25.06,7.3,2.22.73,4.49,1.3,6.79,1.71,2.11.4,2.39,1.39,1.04,2.99v-.03Zm-26.04,57.91c1.76,1.18,1.6,1.96,0,3.16-8.07,6.03-16.07,12.14-24.1,18.22-.62.51-.91.33-.92-.45,4.96-8,8.97-16.56,11.94-25.5.88-2.69,1.16-2.79,3.73-1.4,3.24,1.78,6.26,3.94,9.34,6v-.03Zm-22.96-94.36c-8.72-13.59-19.5-25.75-31.95-36.02.85-.51,1.52-.12,2.17.05l19.11,5.19c1.29.35,2.39.83,2.84,2.29,2.83,9.18,6.12,18.15,8.29,27.54.1.41.47.98-.46.95Zm-3.86,156.44c.52-.22,1.02-.48,1.56-.65s1.12-.55,1.55,0,0,1.02-.21,1.57l-6.12,12.06c-6.89,13.51-14.8,26.44-22.75,39.34-.39.63-.57,1.69-1.58,1.58s-1.09-1.11-1.43-1.82c-3.43-7.23-5.21-15.14-5.19-23.15.02-3.14.29-6.28.8-9.38.32-2.69,2.03-5.01,4.5-6.12,9.49-4.71,19.15-9.13,28.88-13.42Zm45.6,43.44c.42.89.35,1.93-.19,2.75-7.27,17.18-16.2,33.51-25.13,49.84-.9,1.63-1.95,2.16-3.71,1.12-13.47-8.02-25.61-17.64-35.7-29.75-.42-.36-.65-.9-.62-1.45,22.3-5.93,44.14-13.46,65.36-22.52Zm14.76-58.13c-.42,13.26-3.25,26.04-6.94,38.7-.5,1.74-1.12,2.04-2.57.7-9.65-9.07-18.22-18.93-23.92-31.05-1.68-3.6-1.27-5.01,2.25-6.31l28.07-10.41c2.74-1.02,3.06-.81,3.06,2.12.05,2.1,0,4.2,0,6.29l.04-.04Zm-8.84-17.34c-.21-2.12-.44-3.61-.51-5.1-.46-7.27-2.4-14.36-5.69-20.86-1.02-2.11-.66-3.29,1.24-4.59,10.83-7.18,22.08-13.69,33.71-19.49,4.22-2.17,8.44-4.36,12.67-6.56.81-.42,1.62-.89,2.42-.05s.38,1.58-.19,2.37c-9.57,13.19-19.05,26.45-29.8,38.76-4.44,5.13-8.95,10.13-13.84,15.61v-.09Zm43.95-66.89c-2.98,1.22-6.06,2.22-8.93,3.64-10.57,5.19-20.54,11.44-30.78,17.22-.71.41-1.35,1.2-2.74.85,6.39-11.47,11.09-23.8,13.97-36.6.36-1.59,1.2-1.76,2.65-1.38,5.49,1.63,10.72,4.01,15.55,7.08,3.41,2.14,6.96,4.06,10.61,5.76.72.32,1.84.52,1.81,1.37-.04,1.23-1.15,1.76-2.13,2.16v-.09Zm-33.11-74.24c.6-.7,1.69-.21,2.55-.09,5.42.79,10.85,1.54,16.26,2.45,12.79,2.16,25.52,4.66,38.2,7.49.94.09,1.82.46,2.54,1.07-3.48,1.68-6.72,3.28-9.98,4.82-13.82,6.52-26.63,14.77-39.42,23.06-.96.62-1.81,1.88-3.18,1.02s-1.02-2.12-.96-3.29c0-10.2-.63-20.32-3.99-30.07-.44-1.3-1.02-2.54-1.43-3.85-.29-.89-1.37-1.72-.58-2.61Zm-7.95-.2c1.41-1.15,2.18-.9,2.73.86,1.62,5.15,2.79,10.44,3.5,15.8.82,6.12,1.5,12.31,2.2,18.2-.2,1.82-.28,3.36-.57,4.85-.34,1.75-1.51,2.56-3.2,1.78-11.64-5.35-24.24-7.69-36.33-11.63-2.04-.65-1.9-1.13-.58-2.54,8.44-9.09,18.17-16.64,28.05-24.06,1.4-1.07,2.81-2.13,4.18-3.26h.02Zm-22.14,8.58c-6.02,4.19-11.65,8.92-16.83,14.12-1.35,1.39-1.81,1.25-2.32-.6-3.11-11.01-7.03-21.77-11.74-32.19-.23-.53-.92-1.09-.36-1.72.36-.39.92,0,1.38.06,15.19,3.29,30.46,6.12,45.73,9.03.39.13.77.28,1.14.45-6.01,3.63-11.65,7.05-17.03,10.86h.02Zm-16.32-76.16c6.63-2.91,13.21-5.63,19.96-8.01,1.92-.69,3.52-1.95,5.41-2.64s2.45-.21,2.3,1.78c-.86,9.82-.34,19.7,1.56,29.37.55,2.61.25,2.96-2.26,2.54l-51.5-8.7c-.54-.09-1.02-.25-2.14-.52,8.59-5.18,17.5-9.8,26.69-13.83h-.02Zm-21.54,22.65c16.56,3.93,33.38,6.45,50.24,8.73.72.1,1.44.16,2.16.29.75.07,1.36.64,1.5,1.38.16.88-.41,1.29-1.1,1.66-8.54,4.7-17.05,9.46-25.62,14.14-3.45,1.87-6.24,1.62-8.86-1.02-8.53-8.59-16.93-17.29-25.37-25.96-.15-.15-.17-.43-.37-1.02l7.41,1.81Zm-30.98,13.5c3.71-5.59,8.63-9.97,13.8-14.14,1.32-1.02,1.83-.1,2.45.75l16.43,22.44c0,.9-.54.88-1.18.67-10.37-1.48-20.61-3.81-30.6-6.98-1.69-.53-1.84-1.3-.9-2.75Zm-64.17,281.19c3.82-11.71,11.39-20.98,19.17-30.23,8.39-9.97,19.82-15.3,30.78-21.42,1.42-.79,2.86-1.51,4.29-2.23,1.02-.5,1.72-.43,1.82.82-.52,2.47-.86,4.98-1.02,7.51-.63,10.15,2.11,19.46,6.86,28.29,1.25,2.34,1.02,2.86-1.51,3.46-19.68,4.63-38.91,10.66-58.37,15.91-.75.2-1.65.87-2.28.29-.85-.71.01-1.66.25-2.39Zm20.62,45.9c-9.85-8.94-17.52-19.32-21.24-32.3-1.13-3.94-1.02-4.03,2.98-4.96,17.99-4.08,35.97-8.19,53.94-12.33,1.58-.45,3.12-.99,4.63-1.63.5-.05.82,0,.94.37s-.14.75-.41,1.02c-13.16,15.51-23.64,32.96-35.7,49.24-2.3,2.98-2.39,3.03-5.14.51v.08Zm10.51,7.04c-.69.31-1.5.11-1.97-.48-.64-.82,0-1.33.49-1.88l15.63-19.38c7.12-8.84,14.23-17.71,21.34-26.61,1.1-1.39,2.04-2.91,3.06-4.38,1.57-2.36,2.04-2.44,4.01-.46,4.9,4.91,9.64,9.97,15.04,14.35,5.1,4.07,10.51,7.75,16.18,11,.61.36,1.35.6,1.55,1.43-.23.89-1.09.87-1.72,1.11-5.71,2.19-11.72,3.52-17.49,5.54-18.26,6.36-36.47,12.83-54.7,19.27-.5.06-.95.25-1.41.4v.08Zm51,24.06c-15.77-4.45-30.89-10.93-44.98-19.29-.13-.07-.2-.24-.56-.7l19.38-5.54,52.74-15.09c.53-.15,1.13-.59,1.54,0s-.16,1.02-.46,1.5c-7.95,12.82-16.32,25.36-24.68,37.91-.57,1.09-1.86,1.58-3.01,1.13l.03.08Zm11.81,2.46c-.46.14-1.02.45-1.35,0-.46-.6.14-1.02.48-1.44,3.31-4.16,6.75-8.24,9.93-12.5,5.36-7.14,10.58-14.46,15.85-21.69,1.39-1.91,2.13-4.16,3.25-6.2,1.48-2.68,2.28-2.99,5.04-1.91,19.34,7.45,39.57,12.34,60.17,14.54,1.15.13,2.28.41,3.43.61v.74l-18.06,5.18-77.38,22.26c-.47.06-.94.17-1.4.32l.03.08Zm98.1-23.2c-3.38,9.92-7.02,19.76-10.76,29.58-.78,2.04-1.63,4.08-2.28,6.12s-2.04,2.79-4.23,2.46c-10.53-1.61-21.06-3.16-31.62-4.65-11.77-1.66-23.21-4.75-34.68-7.59-.25-.38-1.24.07-.96-.88,11.98-2.56,23.97-5.1,35.89-7.99,13.5-3.25,26.08-8.86,38.55-14.77,2.76-1.31,5.57-2.54,8.35-3.8.57-.25,1.14-.91,1.76-.43s.17,1.18-.06,1.87l.03.08Zm19.38-63.93c-3.58,15.22-7.92,30.23-12.72,45.11-.74,2.31-1.44,4.62-2.18,6.92-1.02,3.12-1.72,3.59-4.98,2.92-16.21-3.17-32.13-7.72-47.57-13.6-4.27-1.68-8.48-3.51-13.43-5.57,5.27-2.36,9.8-4.41,14.36-6.42,21.97-9.71,43.7-19.9,64.92-31.19.48-.25.94-.85,1.5-.42.81.57.24,1.42.07,2.16l.03.08Zm3.83-29.21c-.7,4.78-1.15,9.61-1.8,14.4-.42,3.16-.67,3.29-3.67,2.4-15.61-4.72-29.88-12.13-43.61-20.7-2.14-1.34-.79-1.9.41-2.54,8.68-4.64,17.34-9.35,25.76-14.39,7.8-4.56,15.32-9.58,22.53-15.03.61-.47,1.11-1.4,2.04-1.02s.56,1.56.74,2.04c-1.59,11.75-.76,23.35-2.44,34.77l.03.08Zm33.66-102.59c-.24.96-1.45.9-2.25,1.12-15.07,4.15-30.1,8.49-44.95,13.38-12.32,4.08-24.55,8.4-36.82,12.62-1.02.34-1.94.64-2.91.96,3.63-3.86,6.54-8.16,10.31-11.68,11.35-10.79,21.72-22.57,30.98-35.19,2.47-3.27,5.5-6.12,7.52-9.76.86-1.56,2.04-.73,3.06,0,7.06,4.97,14.2,9.83,20.84,15.36,4.33,3.61,8.5,7.44,12.71,11.22.62.43,1.72.9,1.48,1.89l.03.08Zm6.47-4.54c-8.19-12.13-18.23-22.91-29.76-31.92-2.36-1.89-2.35-1.95.43-3.19,18.12-8.11,36.79-14.83,55.55-21.27,7.92-2.72,15.88-5.36,24.04-7.33.46-.11.93-.17,2.04-.38-3.5,5.9-7.38,11.57-11.6,16.98-12.34,15.77-24.73,31.49-37.18,47.16-1.7,2.01-2.14,2.01-3.56-.13l.03.08Zm113.93-16.64c-33.66,2.46-66.69,8.57-99.5,16.2-.58.13-1.19.61-1.87.14,0-1.2,1.02-1.78,1.69-2.51,8.36-8.41,16.99-16.58,24.1-26.15,7.18-9.58,13.31-19.91,18.29-30.81,1.62-3.58,1.84-3.63,5.32-1.61,19.6,11.33,37.37,25.57,52.7,42.22.53.57,1.52,1.07,1.2,1.93s-1.3.47-1.97.51l.03.08Z"/>
        </g>
      </g>
    </g>
  </g>
</svg>