<?xml version="1.0" encoding="UTF-8"?>
<svg id="Layer_2" data-name="Layer 2" xmlns="http://www.w3.org/2000/svg" viewBox="0 0 382.88 381.4">
  <defs>
    <style>
      .cls-1 {
        fill: #0094a4;
      }
    </style>
  </defs>
  <g id="Layer_1-2" data-name="Layer 1">
    <path class="cls-1" d="m0,207.9c1-8.39,2.38-16.75,2.94-25.17C7.6,112.42,40.74,59.3,101.47,24.57c53.86-30.79,110.36-31.75,167.26-7.89,58.98,24.73,94.04,69.61,109.38,131.01,3.6,14.42,4.66,28.98,4.76,43.7.04,5.87-2.44,9.34-7.18,10.37-6.03,1.31-11.42-.84-13.1-6.42-1.71-5.66-2.6-11.66-3.06-17.58-3.97-51.41-27.37-92.13-68.44-122.55C216.64.08,110.54,17.94,55.82,94.29c-13.08,18.25-20.92,38.66-25.88,60.36-.38,1.65-.96,3.4-1.96,4.73-10.92,14.59-16.2,30.99-16.02,49.19.04,4.09,0,8.19,0,12.29-4.99.8-9.13-1.52-10.86-6.14C.73,213.7.37,212.67,0,211.64c0-1.25,0-2.5,0-3.74Z"/>
    <path class="cls-1" d="m57.79,137.93c3.81-7.54,7-15.27,11.37-22.26,30.61-48.88,75.16-72.43,132.52-69.92,67.17,2.94,124.86,55.93,135.31,122.38,2.9,18.43,2.12,36.83.39,55.21-3.51,37.44-13.37,73.19-29.75,107.07-2.98,6.16-6.03,12.33-9.62,18.15-4.41,7.16-10.81,8.09-16.62,2.98-3.19-2.81-4.49-6.34-3.25-10.43.86-2.84,2.06-5.62,3.43-8.26,15.8-30.4,27.11-62.31,32.49-96.21,5.58-35.21,3.16-69.52-13.56-101.61-19.63-37.68-51-59.4-92.96-65.72-28.02-4.22-54.37.4-78.45,15.84-16.15,10.35-29.04,23.95-38.56,40.54-3.08,5.36-6.62,7.85-12.96,8.18-6.35.33-12.61,2.49-19.79,4.04Z"/>
    <path class="cls-1" d="m129.7,148.1c-6.92-3.66-13.5-7.14-20.35-10.77,6.53-10.56,14.63-20.15,25.1-27.71,51.98-37.53,139.73-18.84,156.77,62.92,2.94,14.09,2.55,28.27,1.32,42.46-2.74,31.53-10.19,61.88-23.23,90.78-11.5,25.5-26.4,48.86-44.75,69.99-6.15,7.09-12.02,7.43-17.77,1.32-4.18-4.44-4.38-9.07-.31-14.48,3.59-4.78,7.48-9.34,11.14-14.07,25.73-33.19,42.95-70.23,50.08-111.72,3.17-18.47,4.91-37.11,2.49-55.84-4.8-37.14-36.26-65.47-73.58-66.87-27.75-1.04-49.09,10.48-65.55,32.19-.52.69-1.04,1.37-1.37,1.81Z"/>
    <path class="cls-1" d="m180.33,356.91c0-11.79-.12-22.72.13-33.65.04-1.58,1.64-3.26,2.79-4.67,17.22-20.96,28.54-44.88,35.57-70.94,4.7-17.41,7.26-35.15,7.36-53.17.03-4.91-.61-10.02-2.06-14.7-4.41-14.24-16.43-22.38-31.53-22.01-13.73.34-26.21,10.65-30.08,25.01-1.48,5.51-2.67,11.11-4.25,17.79-.72-3.93-.87-6.89-1.82-9.57-2.84-7.93-5.78-15.84-9.14-23.56-1.05-2.42-1.4-4-.02-6.39,19.62-34.1,69.75-34.52,92.15-1.01,7.75,11.6,10.63,24.17,9.86,37.94-1.9,33.71-9.06,66.09-24.04,96.51-11.32,22.99-25.78,43.76-44.91,62.43Z"/>
    <path class="cls-1" d="m146.08,242.13h-27.3c-.09-1.35-.24-2.66-.24-3.96-.02-10.35.14-20.7-.06-31.04-.37-19.99-15.52-34.92-34.65-34.38-16.74.47-31.38,14.8-32.16,31.56-.18,3.86,0,7.73-.14,11.59-.3,7.75-5.77,13.39-13.11,13.67-7.43.29-14.49-5.46-14.98-12.84-1.58-23.75,5.34-44.25,24.83-58.97,18.59-14.03,39.29-16.67,60.72-7.62,21.26,8.97,34.3,25.42,36.81,48.4,1.56,14.25.29,28.81.29,43.59Z"/>
    <path class="cls-1" d="m179.91,280.23c-.27-4.32-.35-8.67-.85-12.96-.66-5.59-3.13-10.49-6.97-14.58-1.47-1.56-1.87-2.87-1.08-4.91,6.57-17.15,9.41-35.02,9.99-53.3.03-.87.08-1.74.16-2.61.7-7.26,4.17-10.73,10.79-10.82,7.95-.11,12.46,3.09,12.4,10.62-.09,9.66-.85,19.42-2.54,28.92-2.05,11.47-4.63,22.98-8.38,33.99-3.09,9.06-8.23,17.43-12.47,26.1-.35-.15-.69-.3-1.04-.45Z"/>
    <path class="cls-1" d="m147.08,254.82c-20.58-.03-41.16,0-61.74,0-20.71,0-41.41-.01-62.12,0-13.43.01-20.87,7.43-20.87,20.8-.01,28.19-.01,56.38,0,84.57,0,13.39,7.43,20.85,20.82,20.86,41.29.02,82.58.02,123.86,0,13.21,0,20.64-7.45,20.64-20.62,0-28.32,0-56.63,0-84.95,0-13.21-7.4-20.65-20.59-20.66Zm-47.1,65.28c-2.96,3.47-3.21,6.61-2.24,10.54.72,2.9,1.18,5.86,1.63,8.81.56,3.62-.93,5.49-4.6,5.64-3.11.12-6.23.03-9.35.04-2.87,0-5.74.07-8.6-.02-4.1-.13-5.6-1.99-4.81-6.07.73-3.79,1.53-7.57,2.51-11.3.71-2.66.26-4.7-1.67-6.8-7.09-7.72-7.05-18.22-.1-25.22,6.69-6.73,17.99-7.09,25.16-.8,7.4,6.49,8.62,17.49,2.07,25.18Z"/>
  </g>
</svg>