<svg xmlns="http://www.w3.org/2000/svg" width="70" height="70" viewBox="0 0 70 70" fill="none"><rect width="70" height="70" fill="none"></rect><path d="M25.5 13C25.5 13.2761 25.2761 13.5 25 13.5C24.7239 13.5 24.5 13.2761 24.5 13C24.5 12.7239 24.7239 12.5 25 12.5C25.2761 12.5 25.5 12.7239 25.5 13Z" fill="black" stroke="black"></path><path d="M29.5 13C29.5 13.2761 29.2761 13.5 29 13.5C28.7239 13.5 28.5 13.2761 28.5 13C28.5 12.7239 28.7239 12.5 29 12.5C29.2761 12.5 29.5 12.7239 29.5 13Z" fill="black" stroke="black"></path><path d="M33.5 13C33.5 13.2761 33.2761 13.5 33 13.5C32.7239 13.5 32.5 13.2761 32.5 13C32.5 12.7239 32.7239 12.5 33 12.5C33.2761 12.5 33.5 12.7239 33.5 13Z" fill="black" stroke="black"></path><path d="M37.5 13C37.5 13.2761 37.2761 13.5 37 13.5C36.7239 13.5 36.5 13.2761 36.5 13C36.5 12.7239 36.7239 12.5 37 12.5C37.2761 12.5 37.5 12.7239 37.5 13Z" fill="black" stroke="black"></path><path d="M21.5 13C21.5 13.2761 21.2761 13.5 21 13.5C20.7239 13.5 20.5 13.2761 20.5 13C20.5 12.7239 20.7239 12.5 21 12.5C21.2761 12.5 21.5 12.7239 21.5 13Z" fill="black" stroke="black"></path><path d="M41.5 13C41.5 13.2761 41.2761 13.5 41 13.5C40.7239 13.5 40.5 13.2761 40.5 13C40.5 12.7239 40.7239 12.5 41 12.5C41.2761 12.5 41.5 12.7239 41.5 13Z" fill="black" stroke="black"></path><path d="M45.5 13C45.5 13.2761 45.2761 13.5 45 13.5C44.7239 13.5 44.5 13.2761 44.5 13C44.5 12.7239 44.7239 12.5 45 12.5C45.2761 12.5 45.5 12.7239 45.5 13Z" fill="black" stroke="black"></path><path d="M49.5 13C49.5 13.2761 49.2761 13.5 49 13.5C48.7239 13.5 48.5 13.2761 48.5 13C48.5 12.7239 48.7239 12.5 49 12.5C49.2761 12.5 49.5 12.7239 49.5 13Z" fill="black" stroke="black"></path><path d="M17.5 13C17.5 13.2761 17.2761 13.5 17 13.5C16.7239 13.5 16.5 13.2761 16.5 13C16.5 12.7239 16.7239 12.5 17 12.5C17.2761 12.5 17.5 12.7239 17.5 13Z" fill="black" stroke="black"></path><path d="M53.5 13C53.5 13.2761 53.2761 13.5 53 13.5C52.7239 13.5 52.5 13.2761 52.5 13C52.5 12.7239 52.7239 12.5 53 12.5C53.2761 12.5 53.5 12.7239 53.5 13Z" fill="black" stroke="black"></path><path d="M25.5 57C25.5 57.2761 25.2761 57.5 25 57.5C24.7239 57.5 24.5 57.2761 24.5 57C24.5 56.7239 24.7239 56.5 25 56.5C25.2761 56.5 25.5 56.7239 25.5 57Z" fill="black" stroke="black"></path><path d="M29.5 57C29.5 57.2761 29.2761 57.5 29 57.5C28.7239 57.5 28.5 57.2761 28.5 57C28.5 56.7239 28.7239 56.5 29 56.5C29.2761 56.5 29.5 56.7239 29.5 57Z" fill="black" stroke="black"></path><path d="M33.5 57C33.5 57.2761 33.2761 57.5 33 57.5C32.7239 57.5 32.5 57.2761 32.5 57C32.5 56.7239 32.7239 56.5 33 56.5C33.2761 56.5 33.5 56.7239 33.5 57Z" fill="black" stroke="black"></path><path d="M37.5 57C37.5 57.2761 37.2761 57.5 37 57.5C36.7239 57.5 36.5 57.2761 36.5 57C36.5 56.7239 36.7239 56.5 37 56.5C37.2761 56.5 37.5 56.7239 37.5 57Z" fill="black" stroke="black"></path><path d="M21.5 57C21.5 57.2761 21.2761 57.5 21 57.5C20.7239 57.5 20.5 57.2761 20.5 57C20.5 56.7239 20.7239 56.5 21 56.5C21.2761 56.5 21.5 56.7239 21.5 57Z" fill="black" stroke="black"></path><path d="M41.5 57C41.5 57.2761 41.2761 57.5 41 57.5C40.7239 57.5 40.5 57.2761 40.5 57C40.5 56.7239 40.7239 56.5 41 56.5C41.2761 56.5 41.5 56.7239 41.5 57Z" fill="black" stroke="black"></path><path d="M45.5 57C45.5 57.2761 45.2761 57.5 45 57.5C44.7239 57.5 44.5 57.2761 44.5 57C44.5 56.7239 44.7239 56.5 45 56.5C45.2761 56.5 45.5 56.7239 45.5 57Z" fill="black" stroke="black"></path><path d="M49.5 57C49.5 57.2761 49.2761 57.5 49 57.5C48.7239 57.5 48.5 57.2761 48.5 57C48.5 56.7239 48.7239 56.5 49 56.5C49.2761 56.5 49.5 56.7239 49.5 57Z" fill="black" stroke="black"></path><path d="M17.5 57C17.5 57.2761 17.2761 57.5 17 57.5C16.7239 57.5 16.5 57.2761 16.5 57C16.5 56.7239 16.7239 56.5 17 56.5C17.2761 56.5 17.5 56.7239 17.5 57Z" fill="black" stroke="black"></path><path d="M53.5 57C53.5 57.2761 53.2761 57.5 53 57.5C52.7239 57.5 52.5 57.2761 52.5 57C52.5 56.7239 52.7239 56.5 53 56.5C53.2761 56.5 53.5 56.7239 53.5 57Z" fill="black" stroke="black"></path><path d="M57.5 25C57.5 25.2761 57.2761 25.5 57 25.5C56.7239 25.5 56.5 25.2761 56.5 25C56.5 24.7239 56.7239 24.5 57 24.5C57.2761 24.5 57.5 24.7239 57.5 25Z" fill="black" stroke="black"></path><path d="M57.5 29C57.5 29.2761 57.2761 29.5 57 29.5C56.7239 29.5 56.5 29.2761 56.5 29C56.5 28.7239 56.7239 28.5 57 28.5C57.2761 28.5 57.5 28.7239 57.5 29Z" fill="black" stroke="black"></path><path d="M57.5 33C57.5 33.2761 57.2761 33.5 57 33.5C56.7239 33.5 56.5 33.2761 56.5 33C56.5 32.7239 56.7239 32.5 57 32.5C57.2761 32.5 57.5 32.7239 57.5 33Z" fill="black" stroke="black"></path><path d="M57.5 37C57.5 37.2761 57.2761 37.5 57 37.5C56.7239 37.5 56.5 37.2761 56.5 37C56.5 36.7239 56.7239 36.5 57 36.5C57.2761 36.5 57.5 36.7239 57.5 37Z" fill="black" stroke="black"></path><path d="M57.5 21C57.5 21.2761 57.2761 21.5 57 21.5C56.7239 21.5 56.5 21.2761 56.5 21C56.5 20.7239 56.7239 20.5 57 20.5C57.2761 20.5 57.5 20.7239 57.5 21Z" fill="black" stroke="black"></path><path d="M57.5 41C57.5 41.2761 57.2761 41.5 57 41.5C56.7239 41.5 56.5 41.2761 56.5 41C56.5 40.7239 56.7239 40.5 57 40.5C57.2761 40.5 57.5 40.7239 57.5 41Z" fill="black" stroke="black"></path><path d="M57.5 45C57.5 45.2761 57.2761 45.5 57 45.5C56.7239 45.5 56.5 45.2761 56.5 45C56.5 44.7239 56.7239 44.5 57 44.5C57.2761 44.5 57.5 44.7239 57.5 45Z" fill="black" stroke="black"></path><path d="M57.5 17C57.5 17.2761 57.2761 17.5 57 17.5C56.7239 17.5 56.5 17.2761 56.5 17C56.5 16.7239 56.7239 16.5 57 16.5C57.2761 16.5 57.5 16.7239 57.5 17Z" fill="black" stroke="black"></path><path d="M57.5 53C57.5 53.2761 57.2761 53.5 57 53.5C56.7239 53.5 56.5 53.2761 56.5 53C56.5 52.7239 56.7239 52.5 57 52.5C57.2761 52.5 57.5 52.7239 57.5 53Z" fill="black" stroke="black"></path><path d="M13.5 25C13.5 25.2761 13.2761 25.5 13 25.5C12.7239 25.5 12.5 25.2761 12.5 25C12.5 24.7239 12.7239 24.5 13 24.5C13.2761 24.5 13.5 24.7239 13.5 25Z" fill="black" stroke="black"></path><path d="M13.5 29C13.5 29.2761 13.2761 29.5 13 29.5C12.7239 29.5 12.5 29.2761 12.5 29C12.5 28.7239 12.7239 28.5 13 28.5C13.2761 28.5 13.5 28.7239 13.5 29Z" fill="black" stroke="black"></path><path d="M13.5 33C13.5 33.2761 13.2761 33.5 13 33.5C12.7239 33.5 12.5 33.2761 12.5 33C12.5 32.7239 12.7239 32.5 13 32.5C13.2761 32.5 13.5 32.7239 13.5 33Z" fill="black" stroke="black"></path><path d="M13.5 37C13.5 37.2761 13.2761 37.5 13 37.5C12.7239 37.5 12.5 37.2761 12.5 37C12.5 36.7239 12.7239 36.5 13 36.5C13.2761 36.5 13.5 36.7239 13.5 37Z" fill="black" stroke="black"></path><path d="M13.5 21C13.5 21.2761 13.2761 21.5 13 21.5C12.7239 21.5 12.5 21.2761 12.5 21C12.5 20.7239 12.7239 20.5 13 20.5C13.2761 20.5 13.5 20.7239 13.5 21Z" fill="black" stroke="black"></path><path d="M13.5 41C13.5 41.2761 13.2761 41.5 13 41.5C12.7239 41.5 12.5 41.2761 12.5 41C12.5 40.7239 12.7239 40.5 13 40.5C13.2761 40.5 13.5 40.7239 13.5 41Z" fill="black" stroke="black"></path><path d="M13.5 45C13.5 45.2761 13.2761 45.5 13 45.5C12.7239 45.5 12.5 45.2761 12.5 45C12.5 44.7239 12.7239 44.5 13 44.5C13.2761 44.5 13.5 44.7239 13.5 45Z" fill="black" stroke="black"></path><path d="M13.5 17C13.5 17.2761 13.2761 17.5 13 17.5C12.7239 17.5 12.5 17.2761 12.5 17C12.5 16.7239 12.7239 16.5 13 16.5C13.2761 16.5 13.5 16.7239 13.5 17Z" fill="black" stroke="black"></path><path d="M57.5 13C57.5 13.2761 57.2761 13.5 57 13.5C56.7239 13.5 56.5 13.2761 56.5 13C56.5 12.7239 56.7239 12.5 57 12.5C57.2761 12.5 57.5 12.7239 57.5 13Z" fill="black" stroke="black"></path><path d="M13.5 13C13.5 13.2761 13.2761 13.5 13 13.5C12.7239 13.5 12.5 13.2761 12.5 13C12.5 12.7239 12.7239 12.5 13 12.5C13.2761 12.5 13.5 12.7239 13.5 13Z" fill="black" stroke="black"></path><path d="M57.5 57C57.5 57.2761 57.2761 57.5 57 57.5C56.7239 57.5 56.5 57.2761 56.5 57C56.5 56.7239 56.7239 56.5 57 56.5C57.2761 56.5 57.5 56.7239 57.5 57Z" fill="black" stroke="black"></path><path d="M13.5 57C13.5 57.2761 13.2761 57.5 13 57.5C12.7239 57.5 12.5 57.2761 12.5 57C12.5 56.7239 12.7239 56.5 13 56.5C13.2761 56.5 13.5 56.7239 13.5 57Z" fill="black" stroke="black"></path><path d="M13.5 53C13.5 53.2761 13.2761 53.5 13 53.5C12.7239 53.5 12.5 53.2761 12.5 53C12.5 52.7239 12.7239 52.5 13 52.5C13.2761 52.5 13.5 52.7239 13.5 53Z" fill="black" stroke="black"></path><path d="M60 64H10C7.791 64 6 62.209 6 60V10C6 7.791 7.791 6 10 6H60C62.209 6 64 7.791 64 10V60C64 62.209 62.209 64 60 64Z" stroke="black" stroke-width="2" stroke-miterlimit="10"></path><path d="M13 49H19L21 37L23 49H27L30 22L34 49H38L41 29L44 49H48L50 41L52 49H57" stroke="black" stroke-width="2" stroke-miterlimit="10" stroke-linecap="round" stroke-linejoin="round"></path></svg>