<?xml version="1.0" encoding="utf-8"?>
<!-- Generator: Adobe Illustrator 26.2.1, SVG Export Plug-In . SVG Version: 6.00 Build 0)  -->
<svg version="1.1" id="Layer_1" xmlns="http://www.w3.org/2000/svg" xmlns:xlink="http://www.w3.org/1999/xlink" x="0px" y="0px"
	 viewBox="0 0 500 500" style="enable-background:new 0 0 500 500;" xml:space="preserve">
<style type="text/css">
	.st0{fill:#FFFFFF;}
</style>
<path class="st0" d="M55.6,232.8c21.5,0,43,0,64.6-0.1c88.2,0,176.4,0,264.6,0c1.4,0,2.7,0,4.3,0c-0.3-1.6-1.5-2.3-2.4-3.1
	c-23.2-23.2-46.3-46.4-69.6-69.5c-2.4-2.4-2.1-3.5,0.1-5.6c4.2-3.8,8.2-7.9,12.1-12.1c1.7-1.9,2.6-1.6,4.3,0.1
	c16.7,16.8,33.6,33.6,50.4,50.4c16.4,16.4,32.9,32.9,49.4,49.3c2,2,2,2.9,0,4.9c-33.2,33.1-66.4,66.2-99.5,99.4
	c-1.9,1.9-2.9,2.2-4.8,0.1c-3.8-4.2-7.8-8.3-12.1-12.1c-2.5-2.2-1.9-3.3,0.2-5.3c23.4-23.3,46.8-46.7,70.1-70
	c0.7-0.7,1.3-1.4,2.5-2.6c-1.9,0-3.2,0-4.5,0c-108.4,0-216.7,0-325.1,0c-1.5,0-3,0-4.4-0.1C55.6,248.7,55.6,240.7,55.6,232.8z"/>
</svg>
