<svg xmlns="http://www.w3.org/2000/svg" id="Layer_1" data-name="Layer 1" width="17.53mm" height="18.66mm" viewBox="0 0 49.69 52.89"><rect x="23.38" y="30.61" width="25.7" height="21.68" rx="2.51" fill="none" stroke="#060606" stroke-miterlimit="10" stroke-width="1.22"></rect><circle cx="36.31" cy="40.38" r="1.46"></circle><line x1="36.31" y1="40.17" x2="36.31" y2="43.85" fill="none" stroke="#060606" stroke-linecap="round" stroke-miterlimit="10" stroke-width="1.22"></line><path d="M36,18.85h-.2A9.74,9.74,0,0,0,26,28.28a.65.65,0,0,0,1.3,0,8.44,8.44,0,0,1,8.34-8.18h.19A8.46,8.46,0,0,1,44.34,28h1.3A9.7,9.7,0,0,0,36,18.85Z" transform="translate(0 0)" fill="#060606"></path><rect x="44.36" y="29.96" width="1.3" height="0.55" fill="#060606"></rect><path d="M45.64,28h-1.3c0,.1,0,.2,0,.3V30h1.3V28.28A3,3,0,0,0,45.64,28Z" transform="translate(0 0)" fill="#060606"></path><path d="M29.29,21.61a.6.6,0,0,0-.29-.37,19.41,19.41,0,0,0-4.39-1.77l-2.23-.58,0,.13h0l-5.52,0,0-.13-2.26.62A19.62,19.62,0,0,0,0,38.38V40.8a3.54,3.54,0,0,0,1.11,2.65,3.52,3.52,0,0,0,2.6,1.07H23a.62.62,0,0,0,.64-.59v-.06a.65.65,0,0,0-.64-.64H3.66a2.57,2.57,0,0,1-1.81-.68,2.37,2.37,0,0,1-.68-1.69V38.44a18.13,18.13,0,0,1,5.41-12.9,18.23,18.23,0,0,1,13-5.41,18.66,18.66,0,0,1,4.53.55,17.33,17.33,0,0,1,4.31,1.66.65.65,0,0,0,.86-.24A.64.64,0,0,0,29.29,21.61Z" transform="translate(0 0)" fill="#060606"></path><circle cx="19.6" cy="9.95" r="9.34" fill="none" stroke="#060606" stroke-miterlimit="10" stroke-width="1.22"></circle><path d="M35.85,18.88h-.2A9.67,9.67,0,0,0,26,28.29v2.22h1.27V28.28a8.48,8.48,0,0,1,8.53-8.19H36a8.44,8.44,0,0,1,8.36,8.18.64.64,0,0,0,1.27,0A9.73,9.73,0,0,0,35.85,18.88Z" transform="translate(0 0)" fill="#060606"></path><circle cx="37.26" cy="48.55" r="0.44" fill="#060606"></circle><circle cx="39.2" cy="48.55" r="0.44" fill="#060606"></circle><circle cx="41.13" cy="48.55" r="0.44" fill="#060606"></circle><circle cx="43.07" cy="48.55" r="0.44" fill="#060606"></circle><circle cx="44.9" cy="48.28" r="0.44" fill="#060606"></circle><circle cx="45.68" cy="46.59" r="0.44" fill="#060606"></circle><circle cx="45.68" cy="44.74" r="0.44" fill="#060606"></circle><circle cx="45.68" cy="42.81" r="0.44" fill="#060606"></circle><circle cx="45.68" cy="40.87" r="0.44" fill="#060606"></circle><circle cx="45.68" cy="38.94" r="0.44" fill="#060606"></circle><circle cx="45.68" cy="37" r="0.44" fill="#060606"></circle></svg>