<svg xmlns="http://www.w3.org/2000/svg" width="70" height="70" viewBox="0 0 70 70" fill="none"><rect width="70" height="70" fill="none"></rect><path d="M25.5 12C25.5 12.2761 25.2761 12.5 25 12.5C24.7239 12.5 24.5 12.2761 24.5 12C24.5 11.7239 24.7239 11.5 25 11.5C25.2761 11.5 25.5 11.7239 25.5 12Z" fill="black" stroke="black"></path><path d="M23.5 19C23.5 19.2761 23.2761 19.5 23 19.5C22.7239 19.5 22.5 19.2761 22.5 19C22.5 18.7239 22.7239 18.5 23 18.5C23.2761 18.5 23.5 18.7239 23.5 19Z" fill="black" stroke="black"></path><path d="M21.5 12C21.5 12.2761 21.2761 12.5 21 12.5C20.7239 12.5 20.5 12.2761 20.5 12C20.5 11.7239 20.7239 11.5 21 11.5C21.2761 11.5 21.5 11.7239 21.5 12Z" fill="black" stroke="black"></path><path d="M17.5 12C17.5 12.2761 17.2761 12.5 17 12.5C16.7239 12.5 16.5 12.2761 16.5 12C16.5 11.7239 16.7239 11.5 17 11.5C17.2761 11.5 17.5 11.7239 17.5 12Z" fill="black" stroke="black"></path><path d="M13.5 12C13.5 12.2761 13.2761 12.5 13 12.5C12.7239 12.5 12.5 12.2761 12.5 12C12.5 11.7239 12.7239 11.5 13 11.5C13.2761 11.5 13.5 11.7239 13.5 12Z" fill="black" stroke="black"></path><path d="M49.5 12C49.5 12.2761 49.2761 12.5 49 12.5C48.7239 12.5 48.5 12.2761 48.5 12C48.5 11.7239 48.7239 11.5 49 11.5C49.2761 11.5 49.5 11.7239 49.5 12Z" fill="black" stroke="black"></path><path d="M53.5 12C53.5 12.2761 53.2761 12.5 53 12.5C52.7239 12.5 52.5 12.2761 52.5 12C52.5 11.7239 52.7239 11.5 53 11.5C53.2761 11.5 53.5 11.7239 53.5 12Z" fill="black" stroke="black"></path><path d="M57.5 12C57.5 12.2761 57.2761 12.5 57 12.5C56.7239 12.5 56.5 12.2761 56.5 12C56.5 11.7239 56.7239 11.5 57 11.5C57.2761 11.5 57.5 11.7239 57.5 12Z" fill="black" stroke="black"></path><path d="M29.5 12C29.5 12.2761 29.2761 12.5 29 12.5C28.7239 12.5 28.5 12.2761 28.5 12C28.5 11.7239 28.7239 11.5 29 11.5C29.2761 11.5 29.5 11.7239 29.5 12Z" fill="black" stroke="black"></path><path d="M33.5 12C33.5 12.2761 33.2761 12.5 33 12.5C32.7239 12.5 32.5 12.2761 32.5 12C32.5 11.7239 32.7239 11.5 33 11.5C33.2761 11.5 33.5 11.7239 33.5 12Z" fill="black" stroke="black"></path><path d="M37.5 12C37.5 12.2761 37.2761 12.5 37 12.5C36.7239 12.5 36.5 12.2761 36.5 12C36.5 11.7239 36.7239 11.5 37 11.5C37.2761 11.5 37.5 11.7239 37.5 12Z" fill="black" stroke="black"></path><path d="M35.5 50C35.5 50.2761 35.2761 50.5 35 50.5C34.7239 50.5 34.5 50.2761 34.5 50C34.5 49.7239 34.7239 49.5 35 49.5C35.2761 49.5 35.5 49.7239 35.5 50Z" fill="black" stroke="black"></path><path d="M35.5 46C35.5 46.2761 35.2761 46.5 35 46.5C34.7239 46.5 34.5 46.2761 34.5 46C34.5 45.7239 34.7239 45.5 35 45.5C35.2761 45.5 35.5 45.7239 35.5 46Z" fill="black" stroke="black"></path><path d="M35.5 42C35.5 42.2761 35.2761 42.5 35 42.5C34.7239 42.5 34.5 42.2761 34.5 42C34.5 41.7239 34.7239 41.5 35 41.5C35.2761 41.5 35.5 41.7239 35.5 42Z" fill="black" stroke="black"></path><path d="M57.5 50C57.5 50.2761 57.2761 50.5 57 50.5C56.7239 50.5 56.5 50.2761 56.5 50C56.5 49.7239 56.7239 49.5 57 49.5C57.2761 49.5 57.5 49.7239 57.5 50Z" fill="black" stroke="black"></path><path d="M55.5 46C55.5 46.2761 55.2761 46.5 55 46.5C54.7239 46.5 54.5 46.2761 54.5 46C54.5 45.7239 54.7239 45.5 55 45.5C55.2761 45.5 55.5 45.7239 55.5 46Z" fill="black" stroke="black"></path><path d="M53.5 42C53.5 42.2761 53.2761 42.5 53 42.5C52.7239 42.5 52.5 42.2761 52.5 42C52.5 41.7239 52.7239 41.5 53 41.5C53.2761 41.5 53.5 41.7239 53.5 42Z" fill="black" stroke="black"></path><path d="M13.5 50C13.5 50.2761 13.2761 50.5 13 50.5C12.7239 50.5 12.5 50.2761 12.5 50C12.5 49.7239 12.7239 49.5 13 49.5C13.2761 49.5 13.5 49.7239 13.5 50Z" fill="black" stroke="black"></path><path d="M15.5 46C15.5 46.2761 15.2761 46.5 15 46.5C14.7239 46.5 14.5 46.2761 14.5 46C14.5 45.7239 14.7239 45.5 15 45.5C15.2761 45.5 15.5 45.7239 15.5 46Z" fill="black" stroke="black"></path><path d="M17.5 42C17.5 42.2761 17.2761 42.5 17 42.5C16.7239 42.5 16.5 42.2761 16.5 42C16.5 41.7239 16.7239 41.5 17 41.5C17.2761 41.5 17.5 41.7239 17.5 42Z" fill="black" stroke="black"></path><path d="M41.5 12C41.5 12.2761 41.2761 12.5 41 12.5C40.7239 12.5 40.5 12.2761 40.5 12C40.5 11.7239 40.7239 11.5 41 11.5C41.2761 11.5 41.5 11.7239 41.5 12Z" fill="black" stroke="black"></path><path d="M45.5 12C45.5 12.2761 45.2761 12.5 45 12.5C44.7239 12.5 44.5 12.2761 44.5 12C44.5 11.7239 44.7239 11.5 45 11.5C45.2761 11.5 45.5 11.7239 45.5 12Z" fill="black" stroke="black"></path><path d="M58 38H12V9C12 7.343 13.343 6 15 6H55C56.657 6 58 7.343 58 9V38Z" stroke="black" stroke-width="2" stroke-miterlimit="10" stroke-linecap="round"></path><path d="M28 60L42 60L42 51L28 51L28 60Z" stroke="black" stroke-width="2" stroke-miterlimit="10" stroke-linecap="round"></path><path d="M32 64H38" stroke="black" stroke-width="2" stroke-miterlimit="10" stroke-linecap="round"></path><path d="M6 60L20 60L20 51L6 51L6 60Z" stroke="black" stroke-width="2" stroke-miterlimit="10" stroke-linecap="round"></path><path d="M54 64H60" stroke="black" stroke-width="2" stroke-miterlimit="10" stroke-linecap="round"></path><path d="M50 60L64 60L64 51L50 51L50 60Z" stroke="black" stroke-width="2" stroke-miterlimit="10" stroke-linecap="round"></path><path d="M10 64H16" stroke="black" stroke-width="2" stroke-miterlimit="10" stroke-linecap="round"></path><path d="M27 19H48" stroke="black" stroke-width="2" stroke-miterlimit="10" stroke-linecap="round"></path><path d="M23.5 25C23.5 25.2761 23.2761 25.5 23 25.5C22.7239 25.5 22.5 25.2761 22.5 25C22.5 24.7239 22.7239 24.5 23 24.5C23.2761 24.5 23.5 24.7239 23.5 25Z" fill="black" stroke="black"></path><path d="M27 25H48" stroke="black" stroke-width="2" stroke-miterlimit="10" stroke-linecap="round"></path><path d="M23.5 31C23.5 31.2761 23.2761 31.5 23 31.5C22.7239 31.5 22.5 31.2761 22.5 31C22.5 30.7239 22.7239 30.5 23 30.5C23.2761 30.5 23.5 30.7239 23.5 31Z" fill="black" stroke="black"></path><path d="M27 31H48" stroke="black" stroke-width="2" stroke-miterlimit="10" stroke-linecap="round"></path></svg>