<svg width="70" height="70" viewBox="0 0 70 70" fill="none" xmlns="http://www.w3.org/2000/svg">
<rect width="70" height="70"  fill="none"/>
<path d="M27.9375 53.75C27.9375 53.9916 27.7416 54.1875 27.5 54.1875C27.2584 54.1875 27.0625 53.9916 27.0625 53.75C27.0625 53.5084 27.2584 53.3125 27.5 53.3125C27.7416 53.3125 27.9375 53.5084 27.9375 53.75Z" fill="black" stroke="black"/>
<path d="M31.6875 53.75C31.6875 53.9916 31.4916 54.1875 31.25 54.1875C31.0084 54.1875 30.8125 53.9916 30.8125 53.75C30.8125 53.5084 31.0084 53.3125 31.25 53.3125C31.4916 53.3125 31.6875 53.5084 31.6875 53.75Z" fill="black" stroke="black"/>
<path d="M35.4375 53.75C35.4375 53.9916 35.2416 54.1875 35 54.1875C34.7584 54.1875 34.5625 53.9916 34.5625 53.75C34.5625 53.5084 34.7584 53.3125 35 53.3125C35.2416 53.3125 35.4375 53.5084 35.4375 53.75Z" fill="black" stroke="black"/>
<path d="M16.6875 53.75C16.6875 53.9916 16.4916 54.1875 16.25 54.1875C16.0084 54.1875 15.8125 53.9916 15.8125 53.75C15.8125 53.5084 16.0084 53.3125 16.25 53.3125C16.4916 53.3125 16.6875 53.5084 16.6875 53.75Z" fill="black" stroke="black"/>
<path d="M20.4375 53.75C20.4375 53.9916 20.2416 54.1875 20 54.1875C19.7584 54.1875 19.5625 53.9916 19.5625 53.75C19.5625 53.5084 19.7584 53.3125 20 53.3125C20.2416 53.3125 20.4375 53.5084 20.4375 53.75Z" fill="black" stroke="black"/>
<path d="M24.1875 53.75C24.1875 53.9916 23.9916 54.1875 23.75 54.1875C23.5084 54.1875 23.3125 53.9916 23.3125 53.75C23.3125 53.5084 23.5084 53.3125 23.75 53.3125C23.9916 53.3125 24.1875 53.5084 24.1875 53.75Z" fill="black" stroke="black"/>
<path d="M35.4375 46.25C35.4375 46.4916 35.2416 46.6875 35 46.6875C34.7584 46.6875 34.5625 46.4916 34.5625 46.25C34.5625 46.0084 34.7584 45.8125 35 45.8125C35.2416 45.8125 35.4375 46.0084 35.4375 46.25Z" fill="black" stroke="black"/>
<path d="M35.4375 42.5C35.4375 42.7416 35.2416 42.9375 35 42.9375C34.7584 42.9375 34.5625 42.7416 34.5625 42.5C34.5625 42.2584 34.7584 42.0625 35 42.0625C35.2416 42.0625 35.4375 42.2584 35.4375 42.5Z" fill="black" stroke="black"/>
<path d="M35.4375 38.75C35.4375 38.9916 35.2416 39.1875 35 39.1875C34.7584 39.1875 34.5625 38.9916 34.5625 38.75C34.5625 38.5084 34.7584 38.3125 35 38.3125C35.2416 38.3125 35.4375 38.5084 35.4375 38.75Z" fill="black" stroke="black"/>
<path d="M35.4375 35C35.4375 35.2416 35.2416 35.4375 35 35.4375C34.7584 35.4375 34.5625 35.2416 34.5625 35C34.5625 34.7584 34.7584 34.5625 35 34.5625C35.2416 34.5625 35.4375 34.7584 35.4375 35Z" fill="black" stroke="black"/>
<path d="M35.4375 50C35.4375 50.2416 35.2416 50.4375 35 50.4375C34.7584 50.4375 34.5625 50.2416 34.5625 50C34.5625 49.7584 34.7584 49.5625 35 49.5625C35.2416 49.5625 35.4375 49.7584 35.4375 50Z" fill="black" stroke="black"/>
<path d="M35.4375 53.75C35.4375 53.9916 35.2416 54.1875 35 54.1875C34.7584 54.1875 34.5625 53.9916 34.5625 53.75C34.5625 53.5084 34.7584 53.3125 35 53.3125C35.2416 53.3125 35.4375 53.5084 35.4375 53.75Z" fill="black" stroke="black"/>
<path d="M35.4375 57.5C35.4375 57.7416 35.2416 57.9375 35 57.9375C34.7584 57.9375 34.5625 57.7416 34.5625 57.5C34.5625 57.2584 34.7584 57.0625 35 57.0625C35.2416 57.0625 35.4375 57.2584 35.4375 57.5Z" fill="black" stroke="black"/>
<path d="M35.4375 61.25C35.4375 61.4916 35.2416 61.6875 35 61.6875C34.7584 61.6875 34.5625 61.4916 34.5625 61.25C34.5625 61.0084 34.7584 60.8125 35 60.8125C35.2416 60.8125 35.4375 61.0084 35.4375 61.25Z" fill="black" stroke="black"/>
<path d="M16.6875 35C16.6875 35.2416 16.4916 35.4375 16.25 35.4375C16.0084 35.4375 15.8125 35.2416 15.8125 35C15.8125 34.7584 16.0084 34.5625 16.25 34.5625C16.4916 34.5625 16.6875 34.7584 16.6875 35Z" fill="black" stroke="black"/>
<path d="M24.1875 35C24.1875 35.2416 23.9916 35.4375 23.75 35.4375C23.5084 35.4375 23.3125 35.2416 23.3125 35C23.3125 34.7584 23.5084 34.5625 23.75 34.5625C23.9916 34.5625 24.1875 34.7584 24.1875 35Z" fill="black" stroke="black"/>
<path d="M27.9375 35C27.9375 35.2416 27.7416 35.4375 27.5 35.4375C27.2584 35.4375 27.0625 35.2416 27.0625 35C27.0625 34.7584 27.2584 34.5625 27.5 34.5625C27.7416 34.5625 27.9375 34.7584 27.9375 35Z" fill="black" stroke="black"/>
<path d="M31.6875 35C31.6875 35.2416 31.4916 35.4375 31.25 35.4375C31.0084 35.4375 30.8125 35.2416 30.8125 35C30.8125 34.7584 31.0084 34.5625 31.25 34.5625C31.4916 34.5625 31.6875 34.7584 31.6875 35Z" fill="black" stroke="black"/>
<path d="M20.4375 35C20.4375 35.2416 20.2416 35.4375 20 35.4375C19.7584 35.4375 19.5625 35.2416 19.5625 35C19.5625 34.7584 19.7584 34.5625 20 34.5625C20.2416 34.5625 20.4375 34.7584 20.4375 35Z" fill="black" stroke="black"/>
<path d="M16.6875 35C16.6875 35.2416 16.4916 35.4375 16.25 35.4375C16.0084 35.4375 15.8125 35.2416 15.8125 35C15.8125 34.7584 16.0084 34.5625 16.25 34.5625C16.4916 34.5625 16.6875 34.7584 16.6875 35Z" fill="black" stroke="black"/>
<path d="M12.9375 35C12.9375 35.2416 12.7416 35.4375 12.5 35.4375C12.2584 35.4375 12.0625 35.2416 12.0625 35C12.0625 34.7584 12.2584 34.5625 12.5 34.5625C12.7416 34.5625 12.9375 34.7584 12.9375 35Z" fill="black" stroke="black"/>
<path d="M9.1875 35C9.1875 35.2416 8.99162 35.4375 8.75 35.4375C8.50838 35.4375 8.3125 35.2416 8.3125 35C8.3125 34.7584 8.50838 34.5625 8.75 34.5625C8.99162 34.5625 9.1875 34.7584 9.1875 35Z" fill="black" stroke="black"/>
<path d="M26.0625 57.5C26.0625 57.7416 25.8666 57.9375 25.625 57.9375C25.3834 57.9375 25.1875 57.7416 25.1875 57.5C25.1875 57.2584 25.3834 57.0625 25.625 57.0625C25.8666 57.0625 26.0625 57.2584 26.0625 57.5Z" fill="black" stroke="black"/>
<path d="M28.875 60.3125C28.875 60.5541 28.6791 60.75 28.4375 60.75C28.1959 60.75 28 60.5541 28 60.3125C28 60.0709 28.1959 59.875 28.4375 59.875C28.6791 59.875 28.875 60.0709 28.875 60.3125Z" fill="black" stroke="black"/>
<path d="M20.4375 46.25C20.4375 46.4916 20.2416 46.6875 20 46.6875C19.7584 46.6875 19.5625 46.4916 19.5625 46.25C19.5625 46.0084 19.7584 45.8125 20 45.8125C20.2416 45.8125 20.4375 46.0084 20.4375 46.25Z" fill="black" stroke="black"/>
<path d="M18.5625 42.5C18.5625 42.7416 18.3666 42.9375 18.125 42.9375C17.8834 42.9375 17.6875 42.7416 17.6875 42.5C17.6875 42.2584 17.8834 42.0625 18.125 42.0625C18.3666 42.0625 18.5625 42.2584 18.5625 42.5Z" fill="black" stroke="black"/>
<path d="M17.625 38.75C17.625 38.9916 17.4291 39.1875 17.1875 39.1875C16.9459 39.1875 16.75 38.9916 16.75 38.75C16.75 38.5084 16.9459 38.3125 17.1875 38.3125C17.4291 38.3125 17.625 38.5084 17.625 38.75Z" fill="black" stroke="black"/>
<path d="M22.3125 50C22.3125 50.2416 22.1166 50.4375 21.875 50.4375C21.6334 50.4375 21.4375 50.2416 21.4375 50C21.4375 49.7584 21.6334 49.5625 21.875 49.5625C22.1166 49.5625 22.3125 49.7584 22.3125 50Z" fill="black" stroke="black"/>
<path d="M35.4375 16.25C35.4375 16.4916 35.2416 16.6875 35 16.6875C34.7584 16.6875 34.5625 16.4916 34.5625 16.25C34.5625 16.0084 34.7584 15.8125 35 15.8125C35.2416 15.8125 35.4375 16.0084 35.4375 16.25Z" fill="black" stroke="black"/>
<path d="M31.6875 16.25C31.6875 16.4916 31.4916 16.6875 31.25 16.6875C31.0084 16.6875 30.8125 16.4916 30.8125 16.25C30.8125 16.0084 31.0084 15.8125 31.25 15.8125C31.4916 15.8125 31.6875 16.0084 31.6875 16.25Z" fill="black" stroke="black"/>
<path d="M27.9375 16.25C27.9375 16.4916 27.7416 16.6875 27.5 16.6875C27.2584 16.6875 27.0625 16.4916 27.0625 16.25C27.0625 16.0084 27.2584 15.8125 27.5 15.8125C27.7416 15.8125 27.9375 16.0084 27.9375 16.25Z" fill="black" stroke="black"/>
<path d="M24.1875 16.25C24.1875 16.4916 23.9916 16.6875 23.75 16.6875C23.5084 16.6875 23.3125 16.4916 23.3125 16.25C23.3125 16.0084 23.5084 15.8125 23.75 15.8125C23.9916 15.8125 24.1875 16.0084 24.1875 16.25Z" fill="black" stroke="black"/>
<path d="M20.4375 16.25C20.4375 16.4916 20.2416 16.6875 20 16.6875C19.7584 16.6875 19.5625 16.4916 19.5625 16.25C19.5625 16.0084 19.7584 15.8125 20 15.8125C20.2416 15.8125 20.4375 16.0084 20.4375 16.25Z" fill="black" stroke="black"/>
<path d="M16.6875 16.25C16.6875 16.4916 16.4916 16.6875 16.25 16.6875C16.0084 16.6875 15.8125 16.4916 15.8125 16.25C15.8125 16.0084 16.0084 15.8125 16.25 15.8125C16.4916 15.8125 16.6875 16.0084 16.6875 16.25Z" fill="black" stroke="black"/>
<path d="M35.4375 23.75C35.4375 23.9916 35.2416 24.1875 35 24.1875C34.7584 24.1875 34.5625 23.9916 34.5625 23.75C34.5625 23.5084 34.7584 23.3125 35 23.3125C35.2416 23.3125 35.4375 23.5084 35.4375 23.75Z" fill="black" stroke="black"/>
<path d="M35.4375 27.5C35.4375 27.7416 35.2416 27.9375 35 27.9375C34.7584 27.9375 34.5625 27.7416 34.5625 27.5C34.5625 27.2584 34.7584 27.0625 35 27.0625C35.2416 27.0625 35.4375 27.2584 35.4375 27.5Z" fill="black" stroke="black"/>
<path d="M35.4375 31.25C35.4375 31.4916 35.2416 31.6875 35 31.6875C34.7584 31.6875 34.5625 31.4916 34.5625 31.25C34.5625 31.0084 34.7584 30.8125 35 30.8125C35.2416 30.8125 35.4375 31.0084 35.4375 31.25Z" fill="black" stroke="black"/>
<path d="M35.4375 20C35.4375 20.2416 35.2416 20.4375 35 20.4375C34.7584 20.4375 34.5625 20.2416 34.5625 20C34.5625 19.7584 34.7584 19.5625 35 19.5625C35.2416 19.5625 35.4375 19.7584 35.4375 20Z" fill="black" stroke="black"/>
<path d="M35.4375 16.25C35.4375 16.4916 35.2416 16.6875 35 16.6875C34.7584 16.6875 34.5625 16.4916 34.5625 16.25C34.5625 16.0084 34.7584 15.8125 35 15.8125C35.2416 15.8125 35.4375 16.0084 35.4375 16.25Z" fill="black" stroke="black"/>
<path d="M35.4375 12.5C35.4375 12.7416 35.2416 12.9375 35 12.9375C34.7584 12.9375 34.5625 12.7416 34.5625 12.5C34.5625 12.2584 34.7584 12.0625 35 12.0625C35.2416 12.0625 35.4375 12.2584 35.4375 12.5Z" fill="black" stroke="black"/>
<path d="M35.4375 8.75C35.4375 8.99162 35.2416 9.1875 35 9.1875C34.7584 9.1875 34.5625 8.99162 34.5625 8.75C34.5625 8.50838 34.7584 8.3125 35 8.3125C35.2416 8.3125 35.4375 8.50838 35.4375 8.75Z" fill="black" stroke="black"/>
<path d="M20.4375 23.75C20.4375 23.9916 20.2416 24.1875 20 24.1875C19.7584 24.1875 19.5625 23.9916 19.5625 23.75C19.5625 23.5084 19.7584 23.3125 20 23.3125C20.2416 23.3125 20.4375 23.5084 20.4375 23.75Z" fill="black" stroke="black"/>
<path d="M18.5625 27.5C18.5625 27.7416 18.3666 27.9375 18.125 27.9375C17.8834 27.9375 17.6875 27.7416 17.6875 27.5C17.6875 27.2584 17.8834 27.0625 18.125 27.0625C18.3666 27.0625 18.5625 27.2584 18.5625 27.5Z" fill="black" stroke="black"/>
<path d="M17.625 31.25C17.625 31.4916 17.4291 31.6875 17.1875 31.6875C16.9459 31.6875 16.75 31.4916 16.75 31.25C16.75 31.0084 16.9459 30.8125 17.1875 30.8125C17.4291 30.8125 17.625 31.0084 17.625 31.25Z" fill="black" stroke="black"/>
<path d="M22.3125 20C22.3125 20.2416 22.1166 20.4375 21.875 20.4375C21.6334 20.4375 21.4375 20.2416 21.4375 20C21.4375 19.7584 21.6334 19.5625 21.875 19.5625C22.1166 19.5625 22.3125 19.7584 22.3125 20Z" fill="black" stroke="black"/>
<path d="M26.0625 12.5C26.0625 12.7416 25.8666 12.9375 25.625 12.9375C25.3834 12.9375 25.1875 12.7416 25.1875 12.5C25.1875 12.2584 25.3834 12.0625 25.625 12.0625C25.8666 12.0625 26.0625 12.2584 26.0625 12.5Z" fill="black" stroke="black"/>
<path d="M28.875 9.6875C28.875 9.92912 28.6791 10.125 28.4375 10.125C28.1959 10.125 28 9.92912 28 9.6875C28 9.44588 28.1959 9.25 28.4375 9.25C28.6791 9.25 28.875 9.44588 28.875 9.6875Z" fill="black" stroke="black"/>
<path d="M42.9375 53.75C42.9375 53.9916 42.7416 54.1875 42.5 54.1875C42.2584 54.1875 42.0625 53.9916 42.0625 53.75C42.0625 53.5084 42.2584 53.3125 42.5 53.3125C42.7416 53.3125 42.9375 53.5084 42.9375 53.75Z" fill="black" stroke="black"/>
<path d="M39.1875 53.75C39.1875 53.9916 38.9916 54.1875 38.75 54.1875C38.5084 54.1875 38.3125 53.9916 38.3125 53.75C38.3125 53.5084 38.5084 53.3125 38.75 53.3125C38.9916 53.3125 39.1875 53.5084 39.1875 53.75Z" fill="black" stroke="black"/>
<path d="M54.1875 53.75C54.1875 53.9916 53.9916 54.1875 53.75 54.1875C53.5084 54.1875 53.3125 53.9916 53.3125 53.75C53.3125 53.5084 53.5084 53.3125 53.75 53.3125C53.9916 53.3125 54.1875 53.5084 54.1875 53.75Z" fill="black" stroke="black"/>
<path d="M50.4375 53.75C50.4375 53.9916 50.2416 54.1875 50 54.1875C49.7584 54.1875 49.5625 53.9916 49.5625 53.75C49.5625 53.5084 49.7584 53.3125 50 53.3125C50.2416 53.3125 50.4375 53.5084 50.4375 53.75Z" fill="black" stroke="black"/>
<path d="M46.6875 53.75C46.6875 53.9916 46.4916 54.1875 46.25 54.1875C46.0084 54.1875 45.8125 53.9916 45.8125 53.75C45.8125 53.5084 46.0084 53.3125 46.25 53.3125C46.4916 53.3125 46.6875 53.5084 46.6875 53.75Z" fill="black" stroke="black"/>
<path d="M54.1875 35C54.1875 35.2416 53.9916 35.4375 53.75 35.4375C53.5084 35.4375 53.3125 35.2416 53.3125 35C53.3125 34.7584 53.5084 34.5625 53.75 34.5625C53.9916 34.5625 54.1875 34.7584 54.1875 35Z" fill="black" stroke="black"/>
<path d="M46.6875 35C46.6875 35.2416 46.4916 35.4375 46.25 35.4375C46.0084 35.4375 45.8125 35.2416 45.8125 35C45.8125 34.7584 46.0084 34.5625 46.25 34.5625C46.4916 34.5625 46.6875 34.7584 46.6875 35Z" fill="black" stroke="black"/>
<path d="M42.9375 35C42.9375 35.2416 42.7416 35.4375 42.5 35.4375C42.2584 35.4375 42.0625 35.2416 42.0625 35C42.0625 34.7584 42.2584 34.5625 42.5 34.5625C42.7416 34.5625 42.9375 34.7584 42.9375 35Z" fill="black" stroke="black"/>
<path d="M39.1875 35C39.1875 35.2416 38.9916 35.4375 38.75 35.4375C38.5084 35.4375 38.3125 35.2416 38.3125 35C38.3125 34.7584 38.5084 34.5625 38.75 34.5625C38.9916 34.5625 39.1875 34.7584 39.1875 35Z" fill="black" stroke="black"/>
<path d="M50.4375 35C50.4375 35.2416 50.2416 35.4375 50 35.4375C49.7584 35.4375 49.5625 35.2416 49.5625 35C49.5625 34.7584 49.7584 34.5625 50 34.5625C50.2416 34.5625 50.4375 34.7584 50.4375 35Z" fill="black" stroke="black"/>
<path d="M54.1875 35C54.1875 35.2416 53.9916 35.4375 53.75 35.4375C53.5084 35.4375 53.3125 35.2416 53.3125 35C53.3125 34.7584 53.5084 34.5625 53.75 34.5625C53.9916 34.5625 54.1875 34.7584 54.1875 35Z" fill="black" stroke="black"/>
<path d="M57.9375 35C57.9375 35.2416 57.7416 35.4375 57.5 35.4375C57.2584 35.4375 57.0625 35.2416 57.0625 35C57.0625 34.7584 57.2584 34.5625 57.5 34.5625C57.7416 34.5625 57.9375 34.7584 57.9375 35Z" fill="black" stroke="black"/>
<path d="M61.6875 35C61.6875 35.2416 61.4916 35.4375 61.25 35.4375C61.0084 35.4375 60.8125 35.2416 60.8125 35C60.8125 34.7584 61.0084 34.5625 61.25 34.5625C61.4916 34.5625 61.6875 34.7584 61.6875 35Z" fill="black" stroke="black"/>
<path d="M44.8125 57.5C44.8125 57.7416 44.6166 57.9375 44.375 57.9375C44.1334 57.9375 43.9375 57.7416 43.9375 57.5C43.9375 57.2584 44.1334 57.0625 44.375 57.0625C44.6166 57.0625 44.8125 57.2584 44.8125 57.5Z" fill="black" stroke="black"/>
<path d="M42 60.3125C42 60.5541 41.8041 60.75 41.5625 60.75C41.3209 60.75 41.125 60.5541 41.125 60.3125C41.125 60.0709 41.3209 59.875 41.5625 59.875C41.8041 59.875 42 60.0709 42 60.3125Z" fill="black" stroke="black"/>
<path d="M50.4375 46.25C50.4375 46.4916 50.2416 46.6875 50 46.6875C49.7584 46.6875 49.5625 46.4916 49.5625 46.25C49.5625 46.0084 49.7584 45.8125 50 45.8125C50.2416 45.8125 50.4375 46.0084 50.4375 46.25Z" fill="black" stroke="black"/>
<path d="M52.3125 42.5C52.3125 42.7416 52.1166 42.9375 51.875 42.9375C51.6334 42.9375 51.4375 42.7416 51.4375 42.5C51.4375 42.2584 51.6334 42.0625 51.875 42.0625C52.1166 42.0625 52.3125 42.2584 52.3125 42.5Z" fill="black" stroke="black"/>
<path d="M53.25 38.75C53.25 38.9916 53.0541 39.1875 52.8125 39.1875C52.5709 39.1875 52.375 38.9916 52.375 38.75C52.375 38.5084 52.5709 38.3125 52.8125 38.3125C53.0541 38.3125 53.25 38.5084 53.25 38.75Z" fill="black" stroke="black"/>
<path d="M48.5625 50C48.5625 50.2416 48.3666 50.4375 48.125 50.4375C47.8834 50.4375 47.6875 50.2416 47.6875 50C47.6875 49.7584 47.8834 49.5625 48.125 49.5625C48.3666 49.5625 48.5625 49.7584 48.5625 50Z" fill="black" stroke="black"/>
<path d="M39.1875 16.25C39.1875 16.4916 38.9916 16.6875 38.75 16.6875C38.5084 16.6875 38.3125 16.4916 38.3125 16.25C38.3125 16.0084 38.5084 15.8125 38.75 15.8125C38.9916 15.8125 39.1875 16.0084 39.1875 16.25Z" fill="black" stroke="black"/>
<path d="M42.9375 16.25C42.9375 16.4916 42.7416 16.6875 42.5 16.6875C42.2584 16.6875 42.0625 16.4916 42.0625 16.25C42.0625 16.0084 42.2584 15.8125 42.5 15.8125C42.7416 15.8125 42.9375 16.0084 42.9375 16.25Z" fill="black" stroke="black"/>
<path d="M46.6875 16.25C46.6875 16.4916 46.4916 16.6875 46.25 16.6875C46.0084 16.6875 45.8125 16.4916 45.8125 16.25C45.8125 16.0084 46.0084 15.8125 46.25 15.8125C46.4916 15.8125 46.6875 16.0084 46.6875 16.25Z" fill="black" stroke="black"/>
<path d="M50.4375 16.25C50.4375 16.4916 50.2416 16.6875 50 16.6875C49.7584 16.6875 49.5625 16.4916 49.5625 16.25C49.5625 16.0084 49.7584 15.8125 50 15.8125C50.2416 15.8125 50.4375 16.0084 50.4375 16.25Z" fill="black" stroke="black"/>
<path d="M54.1875 16.25C54.1875 16.4916 53.9916 16.6875 53.75 16.6875C53.5084 16.6875 53.3125 16.4916 53.3125 16.25C53.3125 16.0084 53.5084 15.8125 53.75 15.8125C53.9916 15.8125 54.1875 16.0084 54.1875 16.25Z" fill="black" stroke="black"/>
<path d="M50.4375 23.75C50.4375 23.9916 50.2416 24.1875 50 24.1875C49.7584 24.1875 49.5625 23.9916 49.5625 23.75C49.5625 23.5084 49.7584 23.3125 50 23.3125C50.2416 23.3125 50.4375 23.5084 50.4375 23.75Z" fill="black" stroke="black"/>
<path d="M52.3125 27.5C52.3125 27.7416 52.1166 27.9375 51.875 27.9375C51.6334 27.9375 51.4375 27.7416 51.4375 27.5C51.4375 27.2584 51.6334 27.0625 51.875 27.0625C52.1166 27.0625 52.3125 27.2584 52.3125 27.5Z" fill="black" stroke="black"/>
<path d="M53.25 31.25C53.25 31.4916 53.0541 31.6875 52.8125 31.6875C52.5709 31.6875 52.375 31.4916 52.375 31.25C52.375 31.0084 52.5709 30.8125 52.8125 30.8125C53.0541 30.8125 53.25 31.0084 53.25 31.25Z" fill="black" stroke="black"/>
<path d="M48.5625 20C48.5625 20.2416 48.3666 20.4375 48.125 20.4375C47.8834 20.4375 47.6875 20.2416 47.6875 20C47.6875 19.7584 47.8834 19.5625 48.125 19.5625C48.3666 19.5625 48.5625 19.7584 48.5625 20Z" fill="black" stroke="black"/>
<path d="M44.8125 12.5C44.8125 12.7416 44.6166 12.9375 44.375 12.9375C44.1334 12.9375 43.9375 12.7416 43.9375 12.5C43.9375 12.2584 44.1334 12.0625 44.375 12.0625C44.6166 12.0625 44.8125 12.2584 44.8125 12.5Z" fill="black" stroke="black"/>
<path d="M42 9.6875C42 9.92912 41.8041 10.125 41.5625 10.125C41.3209 10.125 41.125 9.92912 41.125 9.6875C41.125 9.44588 41.3209 9.25 41.5625 9.25C41.8041 9.25 42 9.44588 42 9.6875Z" fill="black" stroke="black"/>
<path d="M35 5C51.5684 5 65 18.4316 65 35C65 51.5684 51.5684 65 35 65C18.4316 65 5 51.5684 5 35C5 18.4316 18.4316 5 35 5Z" stroke="black" stroke-width="2" stroke-miterlimit="10" stroke-linecap="round"/>
</svg>
