<svg xmlns="http://www.w3.org/2000/svg" width="71" height="57" viewBox="0 0 71 57" fill="none"><path d="M15.0486 21.5255C15.5043 21.5255 15.8736 21.1561 15.8736 20.7005C15.8736 20.2449 15.5043 19.8755 15.0486 19.8755C14.593 19.8755 14.2236 20.2449 14.2236 20.7005C14.2236 21.1561 14.593 21.5255 15.0486 21.5255Z" fill="white"></path><path d="M18.3484 21.5255C18.8041 21.5255 19.1734 21.1561 19.1734 20.7005C19.1734 20.2449 18.8041 19.8755 18.3484 19.8755C17.8928 19.8755 17.5234 20.2449 17.5234 20.7005C17.5234 21.1561 17.8928 21.5255 18.3484 21.5255Z" fill="white"></path><path d="M21.6492 23.1756C22.1049 23.1756 22.4742 22.8063 22.4742 22.3506C22.4742 21.895 22.1049 21.5256 21.6492 21.5256C21.1936 21.5256 20.8242 21.895 20.8242 22.3506C20.8242 22.8063 21.1936 23.1756 21.6492 23.1756Z" fill="white"></path><path d="M24.1238 25.6505C24.5795 25.6505 24.9488 25.2811 24.9488 24.8255C24.9488 24.3699 24.5795 24.0005 24.1238 24.0005C23.6682 24.0005 23.2988 24.3699 23.2988 24.8255C23.2988 25.2811 23.6682 25.6505 24.1238 25.6505Z" fill="white"></path><path d="M23.2986 14.1007C23.7543 14.1007 24.1236 13.7313 24.1236 13.2757C24.1236 12.82 23.7543 12.4507 23.2986 12.4507C22.843 12.4507 22.4736 12.82 22.4736 13.2757C22.4736 13.7313 22.843 14.1007 23.2986 14.1007Z" fill="white"></path><path d="M26.5984 14.1007C27.0541 14.1007 27.4234 13.7313 27.4234 13.2757C27.4234 12.82 27.0541 12.4507 26.5984 12.4507C26.1428 12.4507 25.7734 12.82 25.7734 13.2757C25.7734 13.7313 26.1428 14.1007 26.5984 14.1007Z" fill="white"></path><path d="M29.8992 15.7506C30.3549 15.7506 30.7242 15.3812 30.7242 14.9256C30.7242 14.47 30.3549 14.1006 29.8992 14.1006C29.4436 14.1006 29.0742 14.47 29.0742 14.9256C29.0742 15.3812 29.4436 15.7506 29.8992 15.7506Z" fill="white"></path><path d="M32.3738 18.2257C32.8295 18.2257 33.1988 17.8563 33.1988 17.4007C33.1988 16.945 32.8295 16.5757 32.3738 16.5757C31.9182 16.5757 31.5488 16.945 31.5488 17.4007C31.5488 17.8563 31.9182 18.2257 32.3738 18.2257Z" fill="white"></path><path d="M48.8738 15.7506C49.3295 15.7506 49.6988 15.3812 49.6988 14.9256C49.6988 14.47 49.3295 14.1006 48.8738 14.1006C48.4182 14.1006 48.0488 14.47 48.0488 14.9256C48.0488 15.3812 48.4182 15.7506 48.8738 15.7506Z" fill="white"></path><path d="M48.8738 19.0506C49.3295 19.0506 49.6988 18.6813 49.6988 18.2256C49.6988 17.77 49.3295 17.4006 48.8738 17.4006C48.4182 17.4006 48.0488 17.77 48.0488 18.2256C48.0488 18.6813 48.4182 19.0506 48.8738 19.0506Z" fill="white"></path><path d="M48.0486 12.4505C48.5043 12.4505 48.8736 12.0812 48.8736 11.6255C48.8736 11.1699 48.5043 10.8005 48.0486 10.8005C47.593 10.8005 47.2236 11.1699 47.2236 11.6255C47.2236 12.0812 47.593 12.4505 48.0486 12.4505Z" fill="white"></path><path d="M59.5984 28.1256C60.0541 28.1256 60.4234 27.7562 60.4234 27.3006C60.4234 26.845 60.0541 26.4756 59.5984 26.4756C59.1428 26.4756 58.7734 26.845 58.7734 27.3006C58.7734 27.7562 59.1428 28.1256 59.5984 28.1256Z" fill="white"></path><path d="M57.949 30.6007C58.4047 30.6007 58.774 30.2313 58.774 29.7757C58.774 29.32 58.4047 28.9507 57.949 28.9507C57.4934 28.9507 57.124 29.32 57.124 29.7757C57.124 30.2313 57.4934 30.6007 57.949 30.6007Z" fill="white"></path><path d="M61.8626 23.6764C62.0029 22.9528 62.0738 22.2326 62.0738 21.5256C62.0738 15.1566 56.8928 9.97559 50.5238 9.97559C49.8704 9.97559 49.1997 10.0366 48.5224 10.1587C46.3106 5.08664 41.2343 1.72559 35.6738 1.72559C29.1423 1.72559 23.501 6.23834 22.0267 12.5422C18.0065 13.0578 14.7164 15.9676 13.7156 19.8863C7.58175 20.1536 2.67383 25.2265 2.67383 31.4256C2.67383 37.7946 7.85483 42.9756 14.2238 42.9756H32.3738V41.3256H14.2238C8.7648 41.3256 4.32383 36.8846 4.32383 31.4256C4.32383 25.9682 8.76315 21.5272 14.242 21.5272C14.2428 21.5272 14.2445 21.5272 14.2453 21.5272L15.0653 21.5446L15.1916 20.8573C15.8722 17.1399 18.9857 14.3728 22.7626 14.1295L23.402 14.0882L23.5199 13.4579C24.6155 7.61609 29.7272 3.37559 35.6738 3.37559C40.7888 3.37559 45.4385 6.59886 47.2453 11.3979L47.5019 12.0785L48.2089 11.9094C48.9959 11.7205 49.7756 11.6256 50.5238 11.6256C55.9829 11.6256 60.4238 16.0666 60.4238 21.5256C60.4238 22.3481 60.31 23.1962 60.0864 24.0476L59.8719 24.8644L60.6936 25.0599C64.4201 25.9492 67.0238 29.2451 67.0238 33.0756C67.0238 37.6246 63.3229 41.3256 58.7738 41.3256H40.6238V42.9756H58.7738C64.2329 42.9756 68.6738 38.5346 68.6738 33.0756C68.6738 28.7534 65.9117 24.9972 61.8626 23.6764Z" fill="white"></path><path d="M36.4988 27.3006C36.9545 27.3006 37.3238 26.9313 37.3238 26.4756C37.3238 26.02 36.9545 25.6506 36.4988 25.6506C36.0432 25.6506 35.6738 26.02 35.6738 26.4756C35.6738 26.9313 36.0432 27.3006 36.4988 27.3006Z" fill="white"></path><path d="M36.4988 30.6007C36.9545 30.6007 37.3238 30.2313 37.3238 29.7757C37.3238 29.32 36.9545 28.9507 36.4988 28.9507C36.0432 28.9507 35.6738 29.32 35.6738 29.7757C35.6738 30.2313 36.0432 30.6007 36.4988 30.6007Z" fill="white"></path><path d="M36.499 32.2505V55.3505" stroke="white" stroke-width="2.18152" stroke-miterlimit="10"></path><path d="M43.0579 48.7092L36.4992 55.2672L29.9404 48.7092" stroke="white" stroke-width="2.18152" stroke-miterlimit="10"></path></svg>