<svg xmlns="http://www.w3.org/2000/svg" width="87" height="71" viewBox="0 0 87 71" fill="none"><path d="M49.408 43.4613L43.9887 38.1536L38.5693 43.4613" stroke="white" stroke-width="2" stroke-miterlimit="10" stroke-linecap="round" stroke-linejoin="round"></path><path d="M43.9883 70V63.3654C43.9883 58.1904 48.1883 54.0769 53.4722 54.0769H69.7302C78.6722 54.0769 85.9883 46.9115 85.9883 38.1538C85.9883 30.325 80.5689 23.5577 72.4399 23.5577C72.4399 16.9231 68.3754 11.6154 60.2463 11.6154H58.8915C55.2334 5.11346 48.0528 1 39.9238 1C28.0012 1 18.2463 10.5538 18.2463 22.2308C9.30441 22.2308 1.98828 29.3962 1.98828 38.1538C1.98828 46.9115 9.30441 54.0769 18.2463 54.0769H34.5044C39.7883 54.0769 43.9883 49.9635 43.9883 44.7885V38.1538" stroke="white" stroke-width="2" stroke-miterlimit="10"></path><path d="M38.5693 64.6919L43.9887 69.9996L49.408 64.6919" stroke="white" stroke-width="2" stroke-miterlimit="10" stroke-linecap="round" stroke-linejoin="round"></path><path d="M26.376 23.5573C26.376 15.4631 33.1502 8.96118 39.9244 8.96118" stroke="white" stroke-width="2" stroke-miterlimit="10"></path><path d="M29.085 46.1155H31.7946" stroke="white" stroke-width="2" stroke-miterlimit="10"></path><path d="M18.2461 46.1155H20.9558" stroke="white" stroke-width="2" stroke-miterlimit="10"></path><path d="M23.666 46.1155H26.3757" stroke="white" stroke-width="2" stroke-miterlimit="10"></path><path d="M67.0195 46.1155H69.7292" stroke="white" stroke-width="2" stroke-miterlimit="10"></path><path d="M56.1826 46.1155H58.8923" stroke="white" stroke-width="2" stroke-miterlimit="10"></path><path d="M61.6006 46.1155H64.3103" stroke="white" stroke-width="2" stroke-miterlimit="10"></path></svg>