<svg xmlns="http://www.w3.org/2000/svg" id="Layer_1" data-name="Layer 1" width="17.77mm" height="19.27mm" viewBox="0 0 50.38 54.62"><polygon points="39.39 29.48 41.11 32.95 44.95 33.51 42.17 36.22 42.83 40.04 39.39 38.23 35.96 40.04 36.62 36.22 33.84 33.51 37.68 32.95 39.39 29.48" fill="none" stroke="#060606" stroke-linecap="round" stroke-linejoin="round" stroke-width="1.38"></polygon><path d="M.72,48.46a.55.55,0,0,1-.59-.52.19.19,0,0,1,0-.08V.66A.56.56,0,0,1,.69.12h31a.58.58,0,0,1,.4.13L39.6,7.44l.06.07.06.1a.73.73,0,0,1,.15.36V21.78a.54.54,0,0,1-.54.54.55.55,0,0,1-.54-.54h0V8.57H34.18a3,3,0,0,1-3-3V1.26H1.26V47.39H30a.54.54,0,1,1,0,1.07ZM32.32,5.57a1.86,1.86,0,0,0,1.86,1.86H38L32.32,2Z" transform="translate(0 0)" stroke="#060606" stroke-miterlimit="10" stroke-width="0.25"></path><path d="M34.11,53.93c-.15,0-.2,0-.23,0a.61.61,0,0,1-.3-.51V44.07l-.24-.23a10.36,10.36,0,1,1,14.44-2.45,10.18,10.18,0,0,1-2.45,2.45l-.24.17v9.32a.5.5,0,0,1-.24.47.54.54,0,0,1-.28.08.72.72,0,0,1-.32-.08l-4.92-2.91-4.95,2.93A.54.54,0,0,1,34.11,53.93Z" transform="translate(0 0)" fill="none" stroke="#060606" stroke-miterlimit="10" stroke-width="1.38"></path><path d="M8.7,13.78a.67.67,0,0,1-.4-.14L6.7,12.1a.56.56,0,0,1-.2-.4.53.53,0,0,1,.15-.39.58.58,0,0,1,.43-.21.55.55,0,0,1,.36.15l1.17,1.07,2.58-3.66a.62.62,0,0,1,.48-.22.57.57,0,0,1,.31.1.58.58,0,0,1,.12.82h0L9.16,13.53a.5.5,0,0,1-.39.25Z" transform="translate(0 0)" stroke="#060606" stroke-miterlimit="10" stroke-width="0.25"></path><path d="M8.7,21.58a.62.62,0,0,1-.39-.14L6.7,19.9a.57.57,0,0,1-.2-.4.51.51,0,0,1,.15-.39.55.55,0,0,1,.43-.21.51.51,0,0,1,.36.15l1.17,1.06,2.58-3.65a.62.62,0,0,1,.48-.22.5.5,0,0,1,.31.1.6.6,0,0,1,.14.8l-3,4.19a.52.52,0,0,1-.39.25Z" transform="translate(0 0)" stroke="#060606" stroke-miterlimit="10" stroke-width="0.25"></path><path d="M8.7,29.44a.58.58,0,0,1-.39-.15L6.7,27.75a.56.56,0,0,1-.2-.4A.5.5,0,0,1,6.65,27a.55.55,0,0,1,.43-.21.51.51,0,0,1,.36.15L8.61,28l2.58-3.66a.62.62,0,0,1,.48-.22.51.51,0,0,1,.31.11.4.4,0,0,1,.22.3.68.68,0,0,1-.1.52L9.16,29.18a.53.53,0,0,1-.39.26Z" transform="translate(0 0)" stroke="#060606" stroke-miterlimit="10" stroke-width="0.25"></path><path d="M8.7,37.23a.67.67,0,0,1-.4-.14L6.7,35.55a.57.57,0,0,1-.2-.4.51.51,0,0,1,.15-.39.55.55,0,0,1,.43-.21.51.51,0,0,1,.36.15l1.17,1.06,2.58-3.65a.56.56,0,0,1,.45-.22A.63.63,0,0,1,12,32a.57.57,0,0,1,.2.37.55.55,0,0,1-.09.41L9.16,37a.52.52,0,0,1-.39.25Z" transform="translate(0 0)" stroke="#060606" stroke-miterlimit="10" stroke-width="0.25"></path><circle cx="15.07" cy="12.65" r="0.55" fill="#060606"></circle><circle cx="17.48" cy="12.65" r="0.55" fill="#060606"></circle><circle cx="19.9" cy="12.65" r="0.55" fill="#060606"></circle><circle cx="22.32" cy="12.65" r="0.55" fill="#060606"></circle><circle cx="24.74" cy="12.65" r="0.55" fill="#060606"></circle><circle cx="27.16" cy="12.65" r="0.55" fill="#060606"></circle><circle cx="29.58" cy="12.65" r="0.55" fill="#060606"></circle><circle cx="15.07" cy="20.99" r="0.55" fill="#060606"></circle><circle cx="17.48" cy="20.99" r="0.55" fill="#060606"></circle><circle cx="19.9" cy="20.99" r="0.55" fill="#060606"></circle><circle cx="22.32" cy="20.99" r="0.55" fill="#060606"></circle><circle cx="24.74" cy="20.99" r="0.55" fill="#060606"></circle><circle cx="27.16" cy="20.99" r="0.55" fill="#060606"></circle><circle cx="15.07" cy="28.78" r="0.55" fill="#060606"></circle><circle cx="17.48" cy="28.78" r="0.55" fill="#060606"></circle><circle cx="19.9" cy="28.78" r="0.55" fill="#060606"></circle><circle cx="22.32" cy="28.78" r="0.55" fill="#060606"></circle><circle cx="24.74" cy="28.78" r="0.55" fill="#060606"></circle><circle cx="15.07" cy="36.57" r="0.55" fill="#060606"></circle><circle cx="17.48" cy="36.57" r="0.55" fill="#060606"></circle><circle cx="19.9" cy="36.57" r="0.55" fill="#060606"></circle><circle cx="22.32" cy="36.57" r="0.55" fill="#060606"></circle></svg>