<svg xmlns="http://www.w3.org/2000/svg" id="Layer_1" data-name="Layer 1" width="17.05mm" height="17.05mm" viewBox="0 0 48.33 48.33"><path d="M20.57,48.33a.59.59,0,0,1-.58-.59V43.13L19.58,43c-.46-.11-.91-.21-1.37-.36a.6.6,0,0,1-.4-.74v0a.58.58,0,0,1,.55-.39.69.69,0,0,1,.2,0,16.88,16.88,0,0,0,2.12.54.62.62,0,0,1,.48.58v4.47h6V42.7a.57.57,0,0,1,.47-.58,18.28,18.28,0,0,0,6.76-2.8.59.59,0,0,1,.75.07l3.14,3.15,4.25-4.25-3.16-3.15a.59.59,0,0,1-.07-.75,18.24,18.24,0,0,0,2.8-6.75.58.58,0,0,1,.57-.48h4.47v-6H42.7a.58.58,0,0,1-.58-.47,18.28,18.28,0,0,0-2.8-6.76.59.59,0,0,1,.07-.75L42.54,10,38.29,5.79,35.14,9a.59.59,0,0,1-.75.06,18.39,18.39,0,0,0-6.75-2.79.58.58,0,0,1-.47-.57V1.18h-6V5.63a.61.61,0,0,1-.48.58A18.28,18.28,0,0,0,13.93,9a.59.59,0,0,1-.75-.07L10,5.79,5.79,10,9,13.19a.6.6,0,0,1,.07.75,18.17,18.17,0,0,0-2.8,6.75.58.58,0,0,1-.57.47H1.18v6H5.63a.58.58,0,0,1,.56.41,19.76,19.76,0,0,1,.59,2.26.59.59,0,1,1-1.16.22c-.08-.43-.21-.86-.33-1.29l-.12-.42H.59A.59.59,0,0,1,0,27.75V20.57A.58.58,0,0,1,.59,20H5.3l0-.22A19.4,19.4,0,0,1,7.75,14l.12-.19L4.54,10.45a.59.59,0,0,1,0-.83h0L9.62,4.54a.59.59,0,0,1,.83,0h0l3.33,3.32L14,7.75a19.17,19.17,0,0,1,5.8-2.41l.22,0V.59A.59.59,0,0,1,20.57,0h7.19a.59.59,0,0,1,.58.59V5.31l.22.05a19.47,19.47,0,0,1,5.79,2.39l.19.12,3.34-3.33a.59.59,0,0,1,.83,0h0l5.08,5.08A.55.55,0,0,1,44,10a.54.54,0,0,1-.17.41l-3.33,3.33.12.19A19.42,19.42,0,0,1,43,19.77L43,20h4.7a.59.59,0,0,1,.59.58v7.18a.59.59,0,0,1-.59.59H43l-.05.22a19.58,19.58,0,0,1-2.39,5.79l-.12.19,3.33,3.33a.58.58,0,0,1,.17.42.55.55,0,0,1-.17.42l-5.08,5.08a.59.59,0,0,1-.42.17.58.58,0,0,1-.41-.17l-3.33-3.33-.19.12a19.4,19.4,0,0,1-5.8,2.4l-.22.05v4.71a.59.59,0,0,1-.58.59ZM7.45,41.47a.59.59,0,0,1-.59-.59v-.05a.59.59,0,0,1,.21-.4L23.63,23.86,18.37,24a.62.62,0,0,1-.63-.58h0a.59.59,0,0,1,.59-.59L25,22.64h.24a.6.6,0,0,1,.45.7h0L25.48,30a.6.6,0,0,1-.59.56h0a.6.6,0,0,1-.59-.6l.16-5.25L7.83,41.33a.57.57,0,0,1-.38.14Z" transform="translate(0 0)"></path><circle cx="25.14" cy="35.19" r="0.62" fill="#060606"></circle><circle cx="27.79" cy="34.67" r="0.62" fill="#060606"></circle><circle cx="30.16" cy="33.57" r="0.62" fill="#060606"></circle><circle cx="32.18" cy="31.98" r="0.62" fill="#060606"></circle><circle cx="33.78" cy="29.97" r="0.62" fill="#060606"></circle><circle cx="34.89" cy="27.63" r="0.62" fill="#060606"></circle><circle cx="35.43" cy="25.06" r="0.62" fill="#060606"></circle><circle cx="35.33" cy="22.33" r="0.62" fill="#060606"></circle><circle cx="34.61" cy="19.77" r="0.62" fill="#060606"></circle><circle cx="33.33" cy="17.51" r="0.62" fill="#060606"></circle><circle cx="31.59" cy="15.62" r="0.62" fill="#060606"></circle><circle cx="29.47" cy="14.18" r="0.62" fill="#060606"></circle><circle cx="27.04" cy="13.25" r="0.62" fill="#060606"></circle><circle cx="24.4" cy="12.92" r="0.62" fill="#060606"></circle><circle cx="21.69" cy="13.23" r="0.62" fill="#060606"></circle><circle cx="19.22" cy="14.14" r="0.62" fill="#060606"></circle><circle cx="17.08" cy="15.58" r="0.62" fill="#060606"></circle><circle cx="15.33" cy="17.46" r="0.62" fill="#060606"></circle><circle cx="14.05" cy="19.7" r="0.62" fill="#060606"></circle><circle cx="13.32" cy="22.2" r="0.62" fill="#060606"></circle><circle cx="13.19" cy="24.9" r="0.62" fill="#060606"></circle></svg>