<svg width="70" height="70" viewBox="0 0 70 70" fill="none" xmlns="http://www.w3.org/2000/svg">
<rect width="70" height="70"/>
<path d="M35.8729 65.5C35.8729 65.5 61.5778 56.5 61.5778 10.5C46.8893 10.5 35.8729 4.5 35.8729 4.5C35.8729 4.5 24.8565 10.5 10.168 10.5C10.168 56.5 35.8729 65.5 35.8729 65.5Z" stroke="black" stroke-width="2" stroke-miterlimit="10"/>
<path d="M35.9063 58.9391C35.8934 58.9461 35.8806 58.9531 35.8677 58.9601C35.8549 58.9531 35.8429 58.9461 35.8301 58.9391" stroke="black" stroke-width="2" stroke-miterlimit="10" stroke-linecap="round"/>
<path d="M32.6138 56.8131C26.4722 52.1491 16.4381 41.0451 15.8496 18.3311" stroke="black" stroke-width="2" stroke-miterlimit="10" stroke-linecap="round" stroke-dasharray="0.1 4.1"/>
<path d="M15.8223 16.264C15.8223 16.25 15.8223 16.235 15.8223 16.221C15.8379 16.22 15.8526 16.218 15.8682 16.217" stroke="black" stroke-width="2" stroke-miterlimit="10" stroke-linecap="round"/>
<path d="M19.5127 15.7651C26.9276 14.6291 32.7627 12.4131 35.872 11.0391C39.232 12.5241 45.773 14.9911 54.0528 16.0181" stroke="black" stroke-width="2" stroke-miterlimit="10" stroke-linecap="round" stroke-dasharray="0.1 4"/>
<path d="M55.877 16.217C55.8926 16.218 55.9072 16.22 55.9229 16.221C55.9229 16.234 55.9229 16.248 55.9229 16.261" stroke="black" stroke-width="2" stroke-miterlimit="10" stroke-linecap="round"/>
<path d="M55.7995 20.3391C54.4959 41.8821 43.1674 53.8361 37.5215 57.8951" stroke="black" stroke-width="2" stroke-miterlimit="10" stroke-linecap="round" stroke-dasharray="0.1 4.08"/>
<path d="M47.8658 24.3477L33.5463 39.3877L25.833 30.7687" stroke="black" stroke-width="3" stroke-miterlimit="10"/>
</svg>
