<svg width="70" height="70" viewBox="0 0 70 70" fill="none" xmlns="http://www.w3.org/2000/svg">
<rect width="70" height="70" fill="none"/>
<path d="M43.6416 60.3906C43.6416 60.6754 43.4108 60.9062 43.126 60.9062C42.8412 60.9062 42.6104 60.6754 42.6104 60.3906C42.6104 60.1059 42.8412 59.875 43.126 59.875C43.4108 59.875 43.6416 60.1059 43.6416 60.3906Z" fill="black" stroke="black"/>
<path d="M39.5791 60.3906C39.5791 60.6754 39.3482 60.9062 39.0635 60.9062C38.7787 60.9062 38.5479 60.6754 38.5479 60.3906C38.5479 60.1059 38.7787 59.875 39.0635 59.875C39.3482 59.875 39.5791 60.1059 39.5791 60.3906Z" fill="black" stroke="black"/>
<path d="M35.5166 59.375C35.5166 59.6598 35.2858 59.8906 35.001 59.8906C34.7162 59.8906 34.4854 59.6598 34.4854 59.375C34.4854 59.0902 34.7162 58.8594 35.001 58.8594C35.2858 58.8594 35.5166 59.0902 35.5166 59.375Z" fill="black" stroke="black"/>
<path d="M32.4697 56.3281C32.4697 56.6129 32.2389 56.8438 31.9541 56.8438C31.6693 56.8438 31.4385 56.6129 31.4385 56.3281C31.4385 56.0434 31.6693 55.8125 31.9541 55.8125C32.2389 55.8125 32.4697 56.0434 32.4697 56.3281Z" fill="black" stroke="black"/>
<path d="M44.1416 67.5V60.3906H50.2354C54.7224 60.3906 58.3604 56.7527 58.3604 52.2656V44.1406L64.4389 41.0348C65.4078 40.5402 65.7592 39.3316 65.2077 38.3942L58.3604 26.7643C58.3604 14.6875 49.2197 2.5 31.9541 2.5C16.7197 2.5 4.53223 14.7657 4.53223 29.0027C4.53223 45.1563 17.7354 49.2188 17.7354 61.1361V67.5" stroke="black" stroke-width="2" stroke-miterlimit="10"/>
<path d="M32.4697 19.7656C32.4697 20.0504 32.2389 20.2812 31.9541 20.2812C31.6693 20.2812 31.4385 20.0504 31.4385 19.7656C31.4385 19.4809 31.6693 19.25 31.9541 19.25C32.2389 19.25 32.4697 19.4809 32.4697 19.7656Z" fill="black" stroke="black"/>
<path d="M32.4697 38.0469C32.4697 38.3316 32.2389 38.5625 31.9541 38.5625C31.6693 38.5625 31.4385 38.3316 31.4385 38.0469C31.4385 37.7621 31.6693 37.5312 31.9541 37.5312C32.2389 37.5312 32.4697 37.7621 32.4697 38.0469Z" fill="black" stroke="black"/>
<path d="M41.6104 28.9062C41.6104 29.191 41.3795 29.4219 41.0947 29.4219C40.81 29.4219 40.5791 29.191 40.5791 28.9062C40.5791 28.6215 40.81 28.3906 41.0947 28.3906C41.3795 28.3906 41.6104 28.6215 41.6104 28.9062Z" fill="black" stroke="black"/>
<path d="M23.3291 28.9062C23.3291 29.191 23.0983 29.4219 22.8135 29.4219C22.5287 29.4219 22.2979 29.191 22.2979 28.9062C22.2979 28.6215 22.5287 28.3906 22.8135 28.3906C23.0983 28.3906 23.3291 28.6215 23.3291 28.9062Z" fill="black" stroke="black"/>
<path d="M24.4843 33.2177C24.6267 33.4643 24.5422 33.7796 24.2955 33.922C24.0489 34.0644 23.7336 33.9799 23.5912 33.7333C23.4488 33.4867 23.5333 33.1713 23.7799 33.0289C24.0265 32.8866 24.3419 32.9711 24.4843 33.2177Z" fill="black" stroke="black"/>
<path d="M40.3153 24.0774C40.4577 24.324 40.3732 24.6394 40.1266 24.7818C39.88 24.9241 39.5646 24.8396 39.4223 24.593C39.2799 24.3464 39.3644 24.0311 39.611 23.8887C39.8576 23.7463 40.1729 23.8308 40.3153 24.0774Z" fill="black" stroke="black"/>
<path d="M27.83 20.7319C27.9724 20.9786 27.8879 21.2939 27.6412 21.4363C27.3946 21.5787 27.0793 21.4942 26.9369 21.2476C26.7945 21.001 26.879 20.6856 27.1256 20.5432C27.3722 20.4008 27.6876 20.4853 27.83 20.7319Z" fill="black" stroke="black"/>
<path d="M36.9696 36.5631C37.112 36.8097 37.0275 37.1251 36.7809 37.2675C36.5343 37.4099 36.2189 37.3254 36.0766 37.0788C35.9342 36.8321 36.0187 36.5168 36.2653 36.3744C36.5119 36.232 36.8272 36.3165 36.9696 36.5631Z" fill="black" stroke="black"/>
<path d="M40.1266 33.0315C40.3732 33.1739 40.4577 33.4892 40.3153 33.7358C40.1729 33.9824 39.8576 34.0669 39.611 33.9245C39.3644 33.7822 39.2799 33.4668 39.4223 33.2202C39.5646 32.9736 39.88 32.8891 40.1266 33.0315Z" fill="black" stroke="black"/>
<path d="M24.2955 23.89C24.5422 24.0324 24.6267 24.3477 24.4843 24.5943C24.3419 24.841 24.0265 24.9255 23.7799 24.7831C23.5333 24.6407 23.4488 24.3253 23.5912 24.0787C23.7336 23.8321 24.0489 23.7476 24.2955 23.89Z" fill="black" stroke="black"/>
<path d="M27.6403 36.3766C27.8869 36.519 27.9714 36.8343 27.829 37.0809C27.6866 37.3275 27.3713 37.412 27.1246 37.2696C26.878 37.1273 26.7935 36.8119 26.9359 36.5653C27.0783 36.3187 27.3937 36.2342 27.6403 36.3766Z" fill="black" stroke="black"/>
<path d="M36.7819 20.5449C37.0285 20.6873 37.113 21.0026 36.9706 21.2493C36.8282 21.4959 36.5129 21.5804 36.2662 21.438C36.0196 21.2956 35.9351 20.9802 36.0775 20.7336C36.2199 20.487 36.5353 20.4025 36.7819 20.5449Z" fill="black" stroke="black"/>
<path d="M45.1575 28.9062C45.1575 27.6489 44.9706 26.4373 44.6425 25.2855L46.9409 22.3646L45.1128 19.1979L41.4332 19.728C39.7482 17.9883 37.589 16.7198 35.1647 16.1124L33.7825 12.6562H30.1262L28.7439 16.1124C26.3186 16.7198 24.1604 17.9883 22.4755 19.728L18.7959 19.1979L16.9678 22.3646L19.2661 25.2855C18.9381 26.4373 18.7512 27.6489 18.7512 28.9062C18.7512 30.1636 18.9381 31.3752 19.2661 32.527L16.9678 35.4479L18.7959 38.6146L22.4755 38.0845C24.1604 39.8242 26.3196 41.0927 28.7439 41.7001L30.1262 45.1562H33.7825L35.1647 41.7001C37.59 41.0927 39.7493 39.8242 41.4332 38.0845L45.1128 38.6146L46.9409 35.4479L44.6425 32.527C44.9706 31.3752 45.1575 30.1636 45.1575 28.9062Z" stroke="black" stroke-width="2" stroke-miterlimit="10"/>
<path d="M31.9541 33.9844C34.7587 33.9844 37.0322 31.7108 37.0322 28.9062C37.0322 26.1017 34.7587 23.8281 31.9541 23.8281C29.1495 23.8281 26.876 26.1017 26.876 28.9062C26.876 31.7108 29.1495 33.9844 31.9541 33.9844Z" stroke="black" stroke-width="2" stroke-miterlimit="10"/>
</svg>
