<svg width="70" height="70" viewBox="0 0 70 70" fill="none" xmlns="http://www.w3.org/2000/svg">
<g clip-path="url(#clip0)">
<rect width="70" height="70" fill="none"/>
<path d="M45.1789 19.1304C45.1789 19.4026 44.9583 19.6232 44.6862 19.6232C44.414 19.6232 44.1934 19.4026 44.1934 19.1304C44.1934 18.8583 44.414 18.6377 44.6862 18.6377C44.9583 18.6377 45.1789 18.8583 45.1789 19.1304Z" stroke="black" stroke-width="0.898551"/>
<path d="M41.4113 19.1304C41.4113 19.4026 41.1907 19.6232 40.9186 19.6232C40.6465 19.6232 40.4258 19.4026 40.4258 19.1304C40.4258 18.8583 40.6465 18.6377 40.9186 18.6377C41.1907 18.6377 41.4113 18.8583 41.4113 19.1304Z" stroke="black" stroke-width="0.898551"/>
<path d="M37.6428 19.1304C37.6428 19.4026 37.4222 19.6232 37.15 19.6232C36.8779 19.6232 36.6573 19.4026 36.6573 19.1304C36.6573 18.8583 36.8779 18.6377 37.15 18.6377C37.4222 18.6377 37.6428 18.8583 37.6428 19.1304Z" stroke="black" stroke-width="0.898551"/>
<path d="M33.8752 19.1304C33.8752 19.4026 33.6546 19.6232 33.3825 19.6232C33.1103 19.6232 32.8897 19.4026 32.8897 19.1304C32.8897 18.8583 33.1103 18.6377 33.3825 18.6377C33.6546 18.6377 33.8752 18.8583 33.8752 19.1304Z" stroke="black" stroke-width="0.898551"/>
<path d="M30.1067 19.1304C30.1067 19.4026 29.886 19.6232 29.6139 19.6232C29.3418 19.6232 29.1212 19.4026 29.1212 19.1304C29.1212 18.8583 29.3418 18.6377 29.6139 18.6377C29.886 18.6377 30.1067 18.8583 30.1067 19.1304Z" stroke="black" stroke-width="0.898551"/>
<path d="M26.3381 19.1304C26.3381 19.4026 26.1175 19.6232 25.8453 19.6232C25.5732 19.6232 25.3526 19.4026 25.3526 19.1304C25.3526 18.8583 25.5732 18.6377 25.8453 18.6377C26.1175 18.6377 26.3381 18.8583 26.3381 19.1304Z" stroke="black" stroke-width="0.898551"/>
<path d="M22.5705 19.1304C22.5705 19.4026 22.3499 19.6232 22.0778 19.6232C21.8056 19.6232 21.585 19.4026 21.585 19.1304C21.585 18.8583 21.8056 18.6377 22.0778 18.6377C22.3499 18.6377 22.5705 18.8583 22.5705 19.1304Z" stroke="black" stroke-width="0.898551"/>
<path d="M18.802 19.1304C18.802 19.4026 18.5814 19.6232 18.3092 19.6232C18.0371 19.6232 17.8165 19.4026 17.8165 19.1304C17.8165 18.8583 18.0371 18.6377 18.3092 18.6377C18.5814 18.6377 18.802 18.8583 18.802 19.1304Z" stroke="black" stroke-width="0.898551"/>
<path d="M15.0344 19.1304C15.0344 19.4026 14.8138 19.6232 14.5416 19.6232C14.2695 19.6232 14.0489 19.4026 14.0489 19.1304C14.0489 18.8583 14.2695 18.6377 14.5416 18.6377C14.8138 18.6377 15.0344 18.8583 15.0344 19.1304Z" stroke="black" stroke-width="0.898551"/>
<path d="M11.2658 19.1304C11.2658 19.4026 11.0452 19.6232 10.7731 19.6232C10.5009 19.6232 10.2803 19.4026 10.2803 19.1304C10.2803 18.8583 10.5009 18.6377 10.7731 18.6377C11.0452 18.6377 11.2658 18.8583 11.2658 19.1304Z" stroke="black" stroke-width="0.898551"/>
<path d="M45.1789 33.2609C45.1789 33.533 44.9583 33.7536 44.6862 33.7536C44.414 33.7536 44.1934 33.533 44.1934 33.2609C44.1934 32.9887 44.414 32.7681 44.6862 32.7681C44.9583 32.7681 45.1789 32.9887 45.1789 33.2609Z" stroke="black" stroke-width="0.898551"/>
<path d="M41.4113 33.2609C41.4113 33.533 41.1907 33.7536 40.9186 33.7536C40.6465 33.7536 40.4258 33.533 40.4258 33.2609C40.4258 32.9887 40.6465 32.7681 40.9186 32.7681C41.1907 32.7681 41.4113 32.9887 41.4113 33.2609Z" stroke="black" stroke-width="0.898551"/>
<path d="M37.6428 33.2609C37.6428 33.533 37.4222 33.7536 37.15 33.7536C36.8779 33.7536 36.6573 33.533 36.6573 33.2609C36.6573 32.9887 36.8779 32.7681 37.15 32.7681C37.4222 32.7681 37.6428 32.9887 37.6428 33.2609Z" stroke="black" stroke-width="0.898551"/>
<path d="M33.8752 33.2609C33.8752 33.533 33.6546 33.7536 33.3825 33.7536C33.1103 33.7536 32.8897 33.533 32.8897 33.2609C32.8897 32.9887 33.1103 32.7681 33.3825 32.7681C33.6546 32.7681 33.8752 32.9887 33.8752 33.2609Z" stroke="black" stroke-width="0.898551"/>
<path d="M30.1067 33.2609C30.1067 33.533 29.886 33.7536 29.6139 33.7536C29.3418 33.7536 29.1212 33.533 29.1212 33.2609C29.1212 32.9887 29.3418 32.7681 29.6139 32.7681C29.886 32.7681 30.1067 32.9887 30.1067 33.2609Z" stroke="black" stroke-width="0.898551"/>
<path d="M26.3381 33.2609C26.3381 33.533 26.1175 33.7536 25.8453 33.7536C25.5732 33.7536 25.3526 33.533 25.3526 33.2609C25.3526 32.9887 25.5732 32.7681 25.8453 32.7681C26.1175 32.7681 26.3381 32.9887 26.3381 33.2609Z" stroke="black" stroke-width="0.898551"/>
<path d="M22.5705 33.2609C22.5705 33.533 22.3499 33.7536 22.0778 33.7536C21.8056 33.7536 21.585 33.533 21.585 33.2609C21.585 32.9887 21.8056 32.7681 22.0778 32.7681C22.3499 32.7681 22.5705 32.9887 22.5705 33.2609Z" stroke="black" stroke-width="0.898551"/>
<path d="M18.802 33.2609C18.802 33.533 18.5814 33.7536 18.3092 33.7536C18.0371 33.7536 17.8165 33.533 17.8165 33.2609C17.8165 32.9887 18.0371 32.7681 18.3092 32.7681C18.5814 32.7681 18.802 32.9887 18.802 33.2609Z" stroke="black" stroke-width="0.898551"/>
<path d="M15.0344 33.2609C15.0344 33.533 14.8138 33.7536 14.5416 33.7536C14.2695 33.7536 14.0489 33.533 14.0489 33.2609C14.0489 32.9887 14.2695 32.7681 14.5416 32.7681C14.8138 32.7681 15.0344 32.9887 15.0344 33.2609Z" stroke="black" stroke-width="0.898551"/>
<path d="M11.2658 33.2609C11.2658 33.533 11.0452 33.7536 10.7731 33.7536C10.5009 33.7536 10.2803 33.533 10.2803 33.2609C10.2803 32.9887 10.5009 32.7681 10.7731 32.7681C11.0452 32.7681 11.2658 32.9887 11.2658 33.2609Z" stroke="black" stroke-width="0.898551"/>
<path d="M33.8752 47.3913C33.8752 47.6635 33.6546 47.8841 33.3825 47.8841C33.1103 47.8841 32.8897 47.6635 32.8897 47.3913C32.8897 47.1192 33.1103 46.8986 33.3825 46.8986C33.6546 46.8986 33.8752 47.1192 33.8752 47.3913Z" stroke="black" stroke-width="0.898551"/>
<path d="M30.1067 47.3913C30.1067 47.6635 29.886 47.8841 29.6139 47.8841C29.3418 47.8841 29.1212 47.6635 29.1212 47.3913C29.1212 47.1192 29.3418 46.8986 29.6139 46.8986C29.886 46.8986 30.1067 47.1192 30.1067 47.3913Z" stroke="black" stroke-width="0.898551"/>
<path d="M26.3381 47.3913C26.3381 47.6635 26.1175 47.8841 25.8453 47.8841C25.5732 47.8841 25.3526 47.6635 25.3526 47.3913C25.3526 47.1192 25.5732 46.8986 25.8453 46.8986C26.1175 46.8986 26.3381 47.1192 26.3381 47.3913Z" stroke="black" stroke-width="0.898551"/>
<path d="M22.5705 47.3913C22.5705 47.6635 22.3499 47.8841 22.0778 47.8841C21.8056 47.8841 21.585 47.6635 21.585 47.3913C21.585 47.1192 21.8056 46.8986 22.0778 46.8986C22.3499 46.8986 22.5705 47.1192 22.5705 47.3913Z" stroke="black" stroke-width="0.898551"/>
<path d="M18.802 47.3913C18.802 47.6635 18.5814 47.8841 18.3092 47.8841C18.0371 47.8841 17.8165 47.6635 17.8165 47.3913C17.8165 47.1192 18.0371 46.8986 18.3092 46.8986C18.5814 46.8986 18.802 47.1192 18.802 47.3913Z" stroke="black" stroke-width="0.898551"/>
<path d="M15.0344 47.3913C15.0344 47.6635 14.8138 47.8841 14.5416 47.8841C14.2695 47.8841 14.0489 47.6635 14.0489 47.3913C14.0489 47.1192 14.2695 46.8986 14.5416 46.8986C14.8138 46.8986 15.0344 47.1192 15.0344 47.3913Z" stroke="black" stroke-width="0.898551"/>
<path d="M11.2658 47.3913C11.2658 47.6635 11.0452 47.8841 10.7731 47.8841C10.5009 47.8841 10.2803 47.6635 10.2803 47.3913C10.2803 47.1192 10.5009 46.8986 10.7731 46.8986C11.0452 46.8986 11.2658 47.1192 11.2658 47.3913Z" stroke="black" stroke-width="0.898551"/>
<path d="M50.3385 41.7391V36.087C50.3385 34.526 49.0733 33.2609 47.5124 33.2609C49.0733 33.2609 50.3385 31.9957 50.3385 30.4348V21.9565C50.3385 20.3956 49.0733 19.1304 47.5124 19.1304C49.0733 19.1304 50.3385 17.8653 50.3385 16.3043V7.82609C50.3385 6.26514 49.0733 5 47.5124 5H7.94718C6.38624 5 5.12109 6.26514 5.12109 7.82609V16.3043C5.12109 17.8653 6.38624 19.1304 7.94718 19.1304C6.38624 19.1304 5.12109 20.3956 5.12109 21.9565V30.4348C5.12109 31.9957 6.38624 33.2609 7.94718 33.2609C6.38624 33.2609 5.12109 34.526 5.12109 36.087V44.5652C5.12109 46.1262 6.38624 47.3913 7.94718 47.3913C6.38624 47.3913 5.12109 48.6564 5.12109 50.2174V58.6957C5.12109 60.2566 6.38624 61.5217 7.94718 61.5217H41.8602" stroke="black" stroke-width="1.7971" stroke-miterlimit="10"/>
<path d="M33.3818 11.5942H37.15" stroke="black" stroke-width="1.7971" stroke-miterlimit="10" stroke-linecap="square" stroke-linejoin="round"/>
<path d="M33.3818 25.7247H37.15" stroke="black" stroke-width="1.7971" stroke-miterlimit="10" stroke-linecap="square" stroke-linejoin="round"/>
<path d="M33.3818 39.8551H37.15" stroke="black" stroke-width="1.7971" stroke-miterlimit="10" stroke-linecap="square" stroke-linejoin="round"/>
<path d="M51.2802 70C51.2802 70 64.4686 65.8306 64.4686 44.5191C56.9324 44.5191 51.2802 41.7391 51.2802 41.7391C51.2802 41.7391 45.628 44.5191 38.0918 44.5191C38.0918 65.8306 51.2802 70 51.2802 70Z" stroke="black" stroke-width="1.7971" stroke-miterlimit="10"/>
<path d="M59.7585 49.2753C58.8165 60.5797 51.2803 65.2898 51.2803 65.2898" stroke="black" stroke-width="1.7971" stroke-miterlimit="10" stroke-linecap="round" stroke-dasharray="0.09 3.67"/>
</g>
<defs>
<clipPath id="clip0">
<rect width="70" height="70" fill="none"/>
</clipPath>
</defs>
</svg>
