<svg xmlns="http://www.w3.org/2000/svg" width="89" height="73" viewBox="0 0 89 73" fill="none"><path d="M81.7739 71.9144H6.87065L1.32227 66.3144V63.5144H34.6126L37.3868 66.3144H51.2577L54.0319 63.5144H87.3223V66.3144L81.7739 71.9144Z" stroke="white" stroke-width="2" stroke-miterlimit="10" stroke-linejoin="round"></path><path d="M23.5163 13.1143H11.0324C8.67432 13.1143 6.87109 14.9343 6.87109 17.3143V59.3143" stroke="white" stroke-width="2" stroke-miterlimit="10" stroke-linejoin="round"></path><path d="M81.7741 59.3143V17.3143C81.7741 14.9343 79.9708 13.1143 77.6128 13.1143H65.1289" stroke="white" stroke-width="2" stroke-miterlimit="10" stroke-linejoin="round"></path><path d="M37.3867 55.1145H40.1609" stroke="white" stroke-width="2" stroke-miterlimit="10" stroke-linejoin="round"></path><path d="M31.8379 55.1145H34.6121" stroke="white" stroke-width="2" stroke-miterlimit="10" stroke-linejoin="round"></path><path d="M42.9355 55.1145H45.7097" stroke="white" stroke-width="2" stroke-miterlimit="10" stroke-linejoin="round"></path><path d="M48.4824 55.1145H51.2566" stroke="white" stroke-width="2" stroke-miterlimit="10" stroke-linejoin="round"></path><path d="M54.0312 55.1145H56.8054" stroke="white" stroke-width="2" stroke-miterlimit="10" stroke-linejoin="round"></path><path d="M65.1285 18.7144H76.2252V55.1144H59.5801" stroke="white" stroke-width="2" stroke-miterlimit="10" stroke-linejoin="round"></path><path d="M29.0651 55.1144H12.4199V18.7144H23.5167" stroke="white" stroke-width="2" stroke-miterlimit="10" stroke-linejoin="round"></path><path d="M44.3225 46.7141C56.5796 46.7141 66.516 36.6853 66.516 24.3141C66.516 11.9429 56.5796 1.91406 44.3225 1.91406C32.0653 1.91406 22.1289 11.9429 22.1289 24.3141C22.1289 36.6853 32.0653 46.7141 44.3225 46.7141Z" stroke="white" stroke-width="2" stroke-miterlimit="10"></path><path d="M31.0059 37.7547L37.2478 35.0947" stroke="white" stroke-width="2" stroke-miterlimit="10"></path><path d="M57.6384 37.7547L51.3965 35.0947" stroke="white" stroke-width="2" stroke-miterlimit="10"></path><path d="M47.9287 38.5946L44.3222 36.9146L40.7158 38.5946L37.248 35.0946L39.0513 32.4346L44.3222 33.2746L49.5932 32.4346L51.3964 35.0946L47.9287 38.5946Z" stroke="white" stroke-width="2" stroke-miterlimit="10"></path><path d="M48.7598 28.7944V32.4344" stroke="white" stroke-width="2" stroke-miterlimit="10"></path><path d="M39.8848 32.4344V28.7944" stroke="white" stroke-width="2" stroke-miterlimit="10"></path><path d="M52.3677 17.1743V20.8143C51.5354 27.1143 48.7612 28.9343 48.7612 28.9343C46.958 29.7743 44.3225 29.7743 44.3225 29.7743C44.3225 29.7743 41.687 29.7743 39.8838 28.9343C39.8838 28.9343 37.2483 27.1143 36.2773 20.8143V17.1743" stroke="white" stroke-width="2" stroke-miterlimit="10"></path><path d="M36.2773 17.1745C36.2773 11.7144 38.9128 9.05444 44.3225 9.05444C49.7322 9.05444 52.3677 11.7144 52.3677 17.1745" stroke="white" stroke-width="2" stroke-miterlimit="10"></path><path d="M36.2773 17.1745L39.8838 15.3545L44.3225 17.1745L48.7612 18.9945L52.3677 17.1745" stroke="white" stroke-width="2" stroke-miterlimit="10"></path></svg>