<svg xmlns="http://www.w3.org/2000/svg" width="108" height="56" viewBox="0 0 108 56" fill="none"><path d="M75.6009 4.84441L74.951 2.75662L73.7968 4.6137L43.428 53.4725L42.4784 55.0004H44.2773H60.1005H60.5003L60.7899 54.7248L60.1005 54.0004C60.7899 54.7248 60.79 54.7248 60.79 54.7247L60.7904 54.7243L60.792 54.7228L60.7984 54.7167L60.8238 54.6925L60.9233 54.5979L61.3027 54.2376C61.6304 53.9267 62.1002 53.4813 62.6687 52.9439C63.8057 51.869 65.3366 50.4263 66.9132 48.9543C68.4905 47.4817 70.1105 45.9826 71.4266 44.7939C72.085 44.1992 72.6634 43.6858 73.1203 43.2937C73.3438 43.1019 73.527 42.949 73.6705 42.833C76.4703 43.623 83.1575 45.4281 89.0442 45.4281C92.6327 45.4281 96.2599 44.7362 98.381 42.4114C100.491 40.1174 102.617 36.8134 104.112 33.9552L104.159 33.9081L104.227 33.779C104.287 33.6656 104.352 33.5456 104.419 33.4218C104.701 32.8965 105.022 32.3013 105.204 31.8426C107.793 25.6531 108.43 15.179 101.228 8.40183L98.666 5.99058L99.5771 9.38903C100.34 12.2354 99.8804 15.4087 98.7201 18.2565C97.9097 20.2456 96.7819 22.0157 95.5679 23.3507C96.261 21.2224 96.3045 18.7193 95.5152 15.7069L94.883 13.2937L93.6733 15.4754C92.5474 17.5063 90.5158 19.2377 87.8947 20.4203C84.7351 18.4872 82.1086 16.8757 81.0049 16.1291L80.9956 16.1229L80.9862 16.1168L78.2342 14.3441L77.3906 10.6051L77.3818 10.5661L77.3699 10.528L75.6009 4.84441ZM84.0319 29.7177C82.9761 29.7177 82.1326 28.8828 82.1326 27.7762C82.1326 26.6806 83.0143 25.8347 84.0319 25.8347C85.0767 25.8347 85.9311 26.7083 85.9311 27.7762C85.9311 28.8828 85.0876 29.7177 84.0319 29.7177Z" stroke="white" stroke-width="2"></path><path d="M84.0321 30.7177C82.4105 30.7177 81.1328 29.4215 81.1328 27.7762C81.1328 26.131 82.4596 24.8347 84.0321 24.8347C85.6537 24.8347 86.9314 26.1808 86.9314 27.7762C86.9314 29.4215 85.6537 30.7177 84.0321 30.7177Z" fill="white"></path><path d="M40.272 14.7022L43.6786 3.37863L57.8196 9.72529C57.7393 16.6868 56.25 23.7476 53.2316 29.5248C50.1757 35.3738 45.581 39.8634 39.3144 41.6926C33.0478 39.8634 28.4531 35.3738 25.3972 29.5248C22.3789 23.7478 20.8896 16.6874 20.8091 9.72611L34.9951 3.37906L38.3557 14.6987L39.308 17.9064L40.272 14.7022Z" stroke="white" stroke-width="2"></path><path d="M14.2097 20.0554L13.9145 19.5962H13.3686H3H1.60832L2.05224 20.9152C2.86089 23.3178 5.22805 25.1844 7.1633 26.3926C8.16241 27.0164 9.11312 27.505 9.813 27.8374C9.97751 27.9155 10.1286 27.9853 10.2637 28.0463L6.87343 53.8194L6.72473 54.9498H7.86489H21.6733H22.2093L22.506 54.5035L21.6733 53.9498L22.5061 54.5034L22.5062 54.5032L22.5068 54.5023L22.5091 54.4989L22.5182 54.4852L22.5537 54.4317L22.6907 54.2255C22.8099 54.046 22.9828 53.7854 23.198 53.4606C23.6283 52.8112 24.2276 51.9053 24.9039 50.8793C26.2556 48.8285 27.9172 46.2936 29.1495 44.3681L29.4953 43.8278L29.1484 43.2882L14.2097 20.0554Z" stroke="white" stroke-width="2"></path></svg>