<svg xmlns="http://www.w3.org/2000/svg" id="Layer_1" data-name="Layer 1" width="21.06mm" height="21.06mm" viewBox="0 0 59.7 59.7"><path d="M14.72,45a.49.49,0,0,0,0,.7.5.5,0,0,0,.71,0l0,0a.47.47,0,0,0,0-.67h0A.52.52,0,0,0,14.72,45Z" transform="translate(0 0)" fill="#060606"></path><path d="M10.35,30.07h-.07a.46.46,0,0,0-.46.47v0a.53.53,0,0,0,.53.5.5.5,0,0,0,.5-.5.5.5,0,0,0-.5-.5Z" transform="translate(0 0)" fill="#060606"></path><path d="M18.85,20.18a2.34,2.34,0,0,1,.24-.31l.15-.17.2-.19a.31.31,0,0,0-.1-.15l-.05-.05a.46.46,0,0,0-.66,0l0,0a.52.52,0,0,0,0,.73A.45.45,0,0,0,18.85,20.18Z" transform="translate(0 0)" fill="#060606"></path><path d="M16,17.2a.51.51,0,0,0,.5-.5.49.49,0,0,0-.15-.36l0,0a.46.46,0,0,0-.66,0l0,0a.53.53,0,0,0,0,.73A.51.51,0,0,0,16,17.2Z" transform="translate(0 0)" fill="#060606"></path><path d="M15.06,30.79a.41.41,0,0,1,0-.11v-.35a.51.51,0,0,0-.44-.26h-.07a.46.46,0,0,0-.46.47v0a.53.53,0,0,0,.53.5A.51.51,0,0,0,15.06,30.79Z" transform="translate(0 0)" fill="#060606"></path><path d="M12.48,30.07h-.07a.46.46,0,0,0-.46.47v0a.53.53,0,0,0,.53.5.5.5,0,0,0,.5-.5A.5.5,0,0,0,12.48,30.07Z" transform="translate(0 0)" fill="#060606"></path><path d="M14.47,15.69a.5.5,0,0,0,.5-.5.47.47,0,0,0-.15-.35l0-.05a.47.47,0,0,0-.67,0l0,0a.54.54,0,0,0,0,.73A.5.5,0,0,0,14.47,15.69Z" transform="translate(0 0)" fill="#060606"></path><path d="M8.22,30.07H8.16a.46.46,0,0,0-.47.47v0a.53.53,0,0,0,.53.5.5.5,0,0,0,.5-.5A.5.5,0,0,0,8.22,30.07Z" transform="translate(0 0)" fill="#060606"></path><path d="M42.49,18.43a.47.47,0,0,0,.35-.15l0-.05a.46.46,0,0,0,0-.66v0a.53.53,0,0,0-.74,0,.5.5,0,0,0,0,.7A.49.49,0,0,0,42.49,18.43Z" transform="translate(0 0)" fill="#060606"></path><path d="M44,16.92a.52.52,0,0,0,.36-.14l0-.05a.48.48,0,0,0,0-.67h0a.53.53,0,0,0-.73,0,.5.5,0,0,0,.35.85Z" transform="translate(0 0)" fill="#060606"></path><path d="M41,19.93a.46.46,0,0,0,.35-.14l.05-.05a.47.47,0,0,0,0-.67h0a.53.53,0,0,0-.73,0,.5.5,0,0,0,.35.85Z" transform="translate(0 0)" fill="#060606"></path><path d="M29.85,15.11a.5.5,0,0,0,.5-.5h0v-.07a.46.46,0,0,0-.48-.46h0a.53.53,0,0,0-.5.53.5.5,0,0,0,.5.5Z" transform="translate(0 0)" fill="#060606"></path><path d="M29.85,13a.5.5,0,0,0,.5-.5h0v-.07a.47.47,0,0,0-.48-.46h0a.53.53,0,0,0-.5.53.5.5,0,0,0,.5.5Z" transform="translate(0 0)" fill="#060606"></path><path d="M29.85,10.85a.5.5,0,0,0,.5-.5h0v-.07a.47.47,0,0,0-.48-.46h0a.53.53,0,0,0-.5.53.5.5,0,0,0,.5.5Z" transform="translate(0 0)" fill="#060606"></path><path d="M29.85,8.72a.5.5,0,0,0,.5-.5h0V8.16a.47.47,0,0,0-.48-.47h0a.53.53,0,0,0-.5.53.5.5,0,0,0,.5.5Z" transform="translate(0 0)" fill="#060606"></path><path d="M17.48,18.7a.5.5,0,0,0,.36-.85l-.05-.05a.47.47,0,0,0-.67,0v0a.53.53,0,0,0,0,.73A.5.5,0,0,0,17.48,18.7Z" transform="translate(0 0)" fill="#060606"></path><path d="M45.08,30.07a.49.49,0,0,0-.43.26v.32c0,.05,0,.09,0,.14a.49.49,0,0,0,.44.28h.07a.48.48,0,0,0,.47-.48v0A.52.52,0,0,0,45.08,30.07Z" transform="translate(0 0)" fill="#060606"></path><path d="M45.15,14.56a.5.5,0,1,0,.69.72h0l0,0a.47.47,0,0,0,0-.66l0,0A.53.53,0,0,0,45.15,14.56Z" transform="translate(0 0)" fill="#060606"></path><path d="M43.72,43.73a.46.46,0,0,0-.67,0l0,0a.53.53,0,0,0,0,.73.51.51,0,0,0,.36.15.51.51,0,0,0,.5-.5.47.47,0,0,0-.15-.35Z" transform="translate(0 0)" fill="#060606"></path><path d="M42.21,42.22a.48.48,0,0,0-.67,0v0a.53.53,0,0,0,0,.73.51.51,0,0,0,.36.15.5.5,0,0,0,.36-.85Z" transform="translate(0 0)" fill="#060606"></path><path d="M16.23,43.48a.5.5,0,1,0,.71.7l0,0a.47.47,0,0,0,0-.66l0,0A.53.53,0,0,0,16.23,43.48Z" transform="translate(0 0)" fill="#060606"></path><path d="M47.21,30.07a.5.5,0,0,0-.5.5.51.51,0,0,0,.5.5h.07a.48.48,0,0,0,.47-.48v0A.52.52,0,0,0,47.21,30.07Z" transform="translate(0 0)" fill="#060606"></path><path d="M49.34,30.07a.5.5,0,0,0-.5.5.51.51,0,0,0,.5.5h.07a.48.48,0,0,0,.47-.48v0A.52.52,0,0,0,49.34,30.07Z" transform="translate(0 0)" fill="#060606"></path><path d="M51.47,30.07a.5.5,0,0,0-.5.5.51.51,0,0,0,.5.5h.07a.48.48,0,0,0,.47-.48v0A.52.52,0,0,0,51.47,30.07Z" transform="translate(0 0)" fill="#060606"></path><path d="M19.28,40.47l0,0,0,0a.5.5,0,0,0,.7.71h0l.05-.05h0A8.8,8.8,0,0,1,19.28,40.47Z" transform="translate(0 0)" fill="#060606"></path><path d="M29.85,50.79a.53.53,0,0,0-.5.53.5.5,0,0,0,.5.5.5.5,0,0,0,.5-.5v-.07a.46.46,0,0,0-.48-.46Z" transform="translate(0 0)" fill="#060606"></path><path d="M40.7,40.71a.43.43,0,0,0-.42-.11l-.37.35a.55.55,0,0,0,.13.52.5.5,0,0,0,.71-.71Z" transform="translate(0 0)" fill="#060606"></path><path d="M17.73,42a.49.49,0,0,0,0,.7.5.5,0,0,0,.71,0l.05,0a.47.47,0,0,0,0-.67l0,0A.53.53,0,0,0,17.73,42Z" transform="translate(0 0)" fill="#060606"></path><path d="M29.85,48.66a.53.53,0,0,0-.5.53.5.5,0,0,0,.5.5.5.5,0,0,0,.5-.5v-.07a.46.46,0,0,0-.48-.46Z" transform="translate(0 0)" fill="#060606"></path><path d="M30.16,44.86h-.58l-.21,0a.29.29,0,0,0,0,.09.5.5,0,0,0,.5.5.5.5,0,0,0,.5-.5v-.09Z" transform="translate(0 0)" fill="#060606"></path><path d="M29.85,46.53a.53.53,0,0,0-.5.53.5.5,0,0,0,.5.5.5.5,0,0,0,.5-.5V47a.46.46,0,0,0-.48-.46Z" transform="translate(0 0)" fill="#060606"></path><circle cx="29.85" cy="30.07" r="5.32" fill="none" stroke="#060606" stroke-miterlimit="10" stroke-width="1.17"></circle><circle cx="29.85" cy="4.37" r="3.79" fill="none" stroke="#060606" stroke-miterlimit="10" stroke-width="1.17"></circle><circle cx="29.85" cy="55.33" r="3.79" fill="none" stroke="#060606" stroke-miterlimit="10" stroke-width="1.17"></circle><circle cx="55.33" cy="29.85" r="3.79" fill="none" stroke="#060606" stroke-miterlimit="10" stroke-width="1.17"></circle><circle cx="4.37" cy="29.85" r="3.79" fill="none" stroke="#060606" stroke-miterlimit="10" stroke-width="1.17"></circle><circle cx="47.87" cy="11.83" r="3.79" fill="none" stroke="#060606" stroke-miterlimit="10" stroke-width="1.17"></circle><circle cx="11.83" cy="47.87" r="3.79" fill="none" stroke="#060606" stroke-miterlimit="10" stroke-width="1.17"></circle><circle cx="47.87" cy="47.87" r="3.79" fill="none" stroke="#060606" stroke-miterlimit="10" stroke-width="1.17"></circle><circle cx="11.83" cy="11.83" r="3.79" fill="none" stroke="#060606" stroke-miterlimit="10" stroke-width="1.17"></circle><path d="M42.62,27.54a3.4,3.4,0,0,1-2.51-3.6c.11-.74.69-1.29.73-2.06a2.86,2.86,0,0,0-1.26-2.2A2.29,2.29,0,0,0,37.39,19c-.47.15-.81.52-1.27.69a2.1,2.1,0,0,1-1.59-.16,3.67,3.67,0,0,1-2.16-1.76C32,17,31.83,16.25,30.85,16a2.67,2.67,0,0,0-3.42,1.51,3.44,3.44,0,0,1-2,2,3.38,3.38,0,0,1-1.42.41c-.58,0-1-.47-1.45-.7-1.49-.71-3.6.91-3.73,2.47-.07.84.51,1.37.7,2.13a3.38,3.38,0,0,1-.49,2.32,2.86,2.86,0,0,1-1.57,1.35c-.9.32-1.62.63-1.82,1.66a3.52,3.52,0,0,0,.56,3.06c.56.52,1.35.47,2,.9a3.74,3.74,0,0,1,1.42,2.71c.05.92-.61,1.47-.73,2.33a2.81,2.81,0,0,0,1.37,2.49,2.12,2.12,0,0,0,2.77.15,2.42,2.42,0,0,1,2.59,0,3.56,3.56,0,0,1,1.68,1.43c.33.7.38,1.36,1.11,1.79a3.54,3.54,0,0,0,2.71.1,2.42,2.42,0,0,0,1.22-1.59A2.82,2.82,0,0,1,33.75,41a2.76,2.76,0,0,1,2.78-.34c.61.32,1,.7,1.75.57a3,3,0,0,0,1.51-.92,2.35,2.35,0,0,0,.91-2.62,11.43,11.43,0,0,1-.59-1.28,3.23,3.23,0,0,1,.18-1.57,3.19,3.19,0,0,1,2.18-2.14A2.05,2.05,0,0,0,44,31.3C44.38,29.94,44.11,28.05,42.62,27.54Z" transform="translate(0 0)" fill="none" stroke="#060606" stroke-miterlimit="10" stroke-width="1.17"></path></svg>