<svg xmlns="http://www.w3.org/2000/svg" width="89" height="75" viewBox="0 0 89 75" fill="none"><path d="M18.6203 65.1515H1V1H69.2785V9.84848" stroke="white" stroke-width="2" stroke-miterlimit="10"></path><path d="M1 9.84839H23.0253" stroke="white" stroke-width="2" stroke-miterlimit="10"></path><path d="M4.30371 5.42432H6.50624" stroke="white" stroke-width="2" stroke-miterlimit="10"></path><path d="M8.70898 5.42432H10.9115" stroke="white" stroke-width="2" stroke-miterlimit="10"></path><path d="M13.1143 5.42432H15.3168" stroke="white" stroke-width="2" stroke-miterlimit="10"></path><path d="M19.7213 33.0758H7.60742V16.4849H19.7213" stroke="white" stroke-width="2" stroke-miterlimit="10"></path><path d="M19.7218 65.1516H16.418" stroke="white" stroke-width="2" stroke-miterlimit="10"></path><path d="M7.60742 65.1516V39.7122H20.8226" stroke="white" stroke-width="2" stroke-miterlimit="10"></path><path d="M88.0002 9.84839H19.7217V73.9999H88.0002V9.84839Z" stroke="white" stroke-width="2" stroke-miterlimit="10"></path><path d="M19.7217 18.6968H88.0002" stroke="white" stroke-width="2" stroke-miterlimit="10"></path><path d="M23.0254 14.2725H25.2279" stroke="white" stroke-width="2" stroke-miterlimit="10"></path><path d="M27.4307 14.2725H29.6332" stroke="white" stroke-width="2" stroke-miterlimit="10"></path><path d="M31.8359 14.2725H34.0385" stroke="white" stroke-width="2" stroke-miterlimit="10"></path><path d="M42.8481 25.333H26.3291V41.9239H42.8481V25.333Z" stroke="white" stroke-width="2" stroke-miterlimit="10"></path><path d="M81.3924 48.5603H26.3291V73.9997H81.3924V48.5603Z" stroke="white" stroke-width="2" stroke-miterlimit="10"></path><path d="M47.2529 38.6057H60.4681" stroke="white" stroke-width="2" stroke-miterlimit="10"></path><path d="M47.2529 33.0754H79.1896" stroke="white" stroke-width="2" stroke-miterlimit="10"></path><path d="M47.2529 27.5452H79.1896" stroke="white" stroke-width="2" stroke-miterlimit="10"></path></svg>