<?xml version="1.0" encoding="utf-8"?>
<!-- Generator: Adobe Illustrator 26.0.1, SVG Export Plug-In . SVG Version: 6.00 Build 0)  -->
<svg version="1.1" id="Layer_1" xmlns="http://www.w3.org/2000/svg" xmlns:xlink="http://www.w3.org/1999/xlink" x="0px" y="0px"
	 viewBox="0 0 205.3 183.7" style="enable-background:new 0 0 205.3 183.7;" xml:space="preserve">
<style type="text/css">
	.st0{fill:#172B54;}
	.st1{clip-path:url(#SVGID_00000005984511510349734520000013465199784204830635_);fill:#FFFFFF;}
	.st2{clip-path:url(#SVGID_00000005984511510349734520000013465199784204830635_);fill:#019AD7;}
	.st3{clip-path:url(#SVGID_00000005984511510349734520000013465199784204830635_);fill:#172B54;}
</style>
<rect y="0" class="st0" width="193.9" height="183.7"/>
<g>
	<defs>
		<rect id="SVGID_1_" width="205.3" height="183.7"/>
	</defs>
	<clipPath id="SVGID_00000052823090815719164520000001057310651464352912_">
		<use xlink:href="#SVGID_1_"  style="overflow:visible;"/>
	</clipPath>
	<path style="clip-path:url(#SVGID_00000052823090815719164520000001057310651464352912_);fill:#FFFFFF;" d="M22.4,87v-0.2
		c0-6.6,4.4-11.4,10.5-11.4c4.6,0,8.6,2.5,9,7.3h-2.7c-0.6-3.4-2.5-5.1-6.3-5.1c-4.6,0-7.7,3.6-7.7,9.2V87c0,5.7,2.9,9.1,7.7,9.1
		c3.7,0,6.2-1.8,6.7-5.5h2.5c-0.8,5.1-4.3,7.7-9.3,7.7C26.4,98.3,22.4,93.9,22.4,87"/>
	<path style="clip-path:url(#SVGID_00000052823090815719164520000001057310651464352912_);fill:#FFFFFF;" d="M45.9,87v-0.2
		c0-6.3,4.4-11.3,11-11.3s10.9,5,10.9,11.3V87c0,6.3-4.3,11.4-10.8,11.4C50.4,98.3,45.9,93.3,45.9,87 M65,86.9v-0.2c0-5-2.9-9-8.1-9
		c-5.2,0-8.2,3.8-8.2,9.1V87c0,5.4,3.6,9.1,8.2,9.1C61.9,96.1,65,92.3,65,86.9"/>
	<path style="clip-path:url(#SVGID_00000052823090815719164520000001057310651464352912_);fill:#FFFFFF;" d="M71.9,87v-0.2
		c0-6.3,4.4-11.3,11-11.3c6.6,0,10.9,5,10.9,11.3V87c0,6.3-4.3,11.4-10.8,11.4C76.4,98.3,71.9,93.3,71.9,87 M91,86.9v-0.2
		c0-5-2.9-9-8.1-9c-5.2,0-8.2,3.8-8.2,9.1V87c0,5.4,3.6,9.1,8.2,9.1C87.9,96.1,91,92.3,91,86.9"/>
	<polygon style="clip-path:url(#SVGID_00000052823090815719164520000001057310651464352912_);fill:#FFFFFF;" points="101.8,95.8 
		112,95.8 112,98 99.1,98 99.1,75.7 101.8,75.7 	"/>
	<polygon style="clip-path:url(#SVGID_00000052823090815719164520000001057310651464352912_);fill:#FFFFFF;" points="31,126.6 
		37.6,106.9 40.2,106.9 32.5,129.2 29.2,129.2 21.7,106.9 24.3,106.9 	"/>
	<polygon style="clip-path:url(#SVGID_00000052823090815719164520000001057310651464352912_);fill:#FFFFFF;" points="57.5,109.2 
		47.2,109.2 47.2,116.7 55.5,116.7 55.5,119 47.2,119 47.2,127 58.1,127 58.1,129.2 44.5,129.2 44.5,106.9 57.5,106.9 	"/>
	<polygon style="clip-path:url(#SVGID_00000052823090815719164520000001057310651464352912_);fill:#FFFFFF;" points="76.9,125.4 
		76.9,106.9 79.5,106.9 79.5,129.2 76.3,129.2 65.1,110.1 65.1,129.2 62.5,129.2 62.5,106.9 66,106.9 	"/>
	<path style="clip-path:url(#SVGID_00000052823090815719164520000001057310651464352912_);fill:#FFFFFF;" d="M103.1,117.9v0.3
		c0,6.2-3.6,11.1-11.4,11.1h-5.8v-22.3h5.9C99.5,106.9,103.1,111.7,103.1,117.9 M100.3,118.1v-0.2c0-5.1-2.5-8.8-8.6-8.8h-3V127h3.1
		C97.4,127,100.3,123.6,100.3,118.1"/>
	<path style="clip-path:url(#SVGID_00000052823090815719164520000001057310651464352912_);fill:#FFFFFF;" d="M107.3,118.2V118
		c0-6.3,4.4-11.3,11-11.3c6.6,0,10.9,5,10.9,11.3v0.2c0,6.3-4.3,11.4-10.8,11.4C111.7,129.5,107.3,124.5,107.3,118.2 M126.3,118.1
		v-0.2c0-5-2.9-9-8.1-9c-5.2,0-8.2,3.8-8.2,9.1v0.2c0,5.4,3.6,9.1,8.2,9.1C123.3,127.3,126.3,123.5,126.3,118.1"/>
	<path style="clip-path:url(#SVGID_00000052823090815719164520000001057310651464352912_);fill:#FFFFFF;" d="M148.4,113.1v0.1
		c0,3.7-2.5,5.5-5.5,6.1l6.8,9.9h-3l-6.6-9.7h-3.4v9.7h-2.7v-22.3h6.7C144.8,106.9,148.4,108.7,148.4,113.1 M145.7,113.3v-0.1
		c0-3-1.9-4-4.9-4h-4.2v8.3h4.2C143.9,117.4,145.7,116,145.7,113.3"/>
	<path style="clip-path:url(#SVGID_00000052823090815719164520000001057310651464352912_);fill:#019AD7;" d="M33.4,144
		c0-2.5-1.5-4-4-4c-2.6,0-4.3,1.5-4.7,5h-2.5c0.3-4.4,3-7.1,7.2-7.1c4.1,0,6.7,2.4,6.7,6.3c0,2.7-1.7,5.4-4.5,8.1l-6.1,6h10.8v2.2
		H21.3v-0.6l8.9-9.3C32.2,148.3,33.4,146.3,33.4,144"/>
	<path style="clip-path:url(#SVGID_00000052823090815719164520000001057310651464352912_);fill:#019AD7;" d="M39.3,149.9v-1.2
		c0-6.6,3.3-10.8,8.8-10.8c5.5,0,8.7,4.4,8.7,10.8v1.2c0,6.5-3.2,10.9-8.6,10.9C42.8,160.7,39.3,156.4,39.3,149.9 M54.1,149.8v-1.2
		c0-5.2-2.2-8.6-6-8.6c-3.8,0-6,3.1-6,8.6v1.2c0,5.6,2.4,8.6,6.1,8.6C52.1,158.5,54.1,155.5,54.1,149.8"/>
	<path style="clip-path:url(#SVGID_00000052823090815719164520000001057310651464352912_);fill:#019AD7;" d="M71,144
		c0-2.5-1.5-4-4-4c-2.6,0-4.3,1.5-4.7,5h-2.5c0.3-4.4,3-7.1,7.2-7.1c4.1,0,6.7,2.4,6.7,6.3c0,2.7-1.7,5.4-4.5,8.1l-6.1,6h10.8v2.2
		H59v-0.6l8.9-9.3C69.9,148.3,71,146.3,71,144"/>
	<path style="clip-path:url(#SVGID_00000052823090815719164520000001057310651464352912_);fill:#019AD7;" d="M88.6,144
		c0-2.5-1.5-4-4-4c-2.6,0-4.3,1.5-4.7,5h-2.5c0.3-4.4,3-7.1,7.2-7.1c4.1,0,6.7,2.4,6.7,6.3c0,2.7-1.7,5.4-4.5,8.1l-6.1,6h10.8v2.2
		H76.6v-0.6l8.9-9.3C87.5,148.3,88.6,146.3,88.6,144"/>
	<path style="clip-path:url(#SVGID_00000052823090815719164520000001057310651464352912_);fill:#FFFFFF;" d="M118.6,30l-0.3,3.4H117
		c-2.2,0-3.3,1.8-3.3,3.4v7.6h-3.9V30h3.7l0.1,1.8c0.8-1.2,2.1-1.8,3.8-1.8H118.6z"/>
	<path style="clip-path:url(#SVGID_00000052823090815719164520000001057310651464352912_);fill:#FFFFFF;" d="M91.7,44.3h-3.9v-7.6
		c0-1.6-0.1-3.6-2.4-3.6c-2.2,0-3,1.6-3,3.4v7.8h-3.9V30h3.6l0.1,1.8c0.8-1.2,2.2-2.2,4.3-2.2c3.9,0,5.1,2.8,5.1,5.7V44.3z"/>
	<path style="clip-path:url(#SVGID_00000052823090815719164520000001057310651464352912_);fill:#FFFFFF;" d="M76.9,41l-0.3,3.3
		c-0.9,0.2-1.8,0.3-2.8,0.3c-3.7,0-4.7-1.7-4.7-5V25.9H73V30h3.9l-0.3,3.4H73v5.9c0,1.4,0.4,2.1,1.8,2.1
		C75.4,41.3,76.1,41.3,76.9,41"/>
	<path style="clip-path:url(#SVGID_00000052823090815719164520000001057310651464352912_);fill:#FFFFFF;" d="M67.9,30l-0.3,3.4h-1.1
		c-2.2,0-3.3,1.8-3.3,3.4v7.6h-3.9V30h3.7l0.1,1.8c0.8-1.2,2.1-1.8,3.8-1.8H67.9z"/>
	<path style="clip-path:url(#SVGID_00000052823090815719164520000001057310651464352912_);fill:#FFFFFF;" d="M41.9,42.7
		c-2.6,1.4-5.3,2.2-8.7,2.1c-6.4-0.2-11.1-4.2-11.1-10.9c0-6.7,4.7-11,11.1-11.1c3.2-0.1,6.1,0.8,8.4,2.8l-2.7,2.8
		c-1.4-1.2-3.5-1.9-5.9-1.8c-4,0.2-6.4,3.1-6.5,7.1c-0.1,4.4,2.6,7.4,6.8,7.5c2,0,3.4-0.2,4.6-0.8v-4.5h-4.3l0.3-3.7h8.1V42.7z"/>
	<path style="clip-path:url(#SVGID_00000052823090815719164520000001057310651464352912_);fill:#FFFFFF;" d="M108,38.5H97.4
		c0.3,1.8,1.7,2.9,3.5,3c1.7,0,2.7-0.5,4-1.8l2.5,1.9c-1.8,2.2-4,3-6.4,3c-4.3,0-7.6-3-7.6-7.5c0-4.5,3.2-7.5,7.4-7.5
		c4.6,0,7.1,2.8,7.1,7.7V38.5z M104.1,35.5c-0.1-1.8-1.5-3-3.4-2.9c-1.9,0.1-3.1,1.3-3.4,2.9H104.1z"/>
	<path style="clip-path:url(#SVGID_00000052823090815719164520000001057310651464352912_);fill:#FFFFFF;" d="M56.9,34.9v9.4h-3.4
		l-0.1-1.4c-1,1.3-2.8,1.8-4.5,1.8c-2.6,0-5.1-1.3-5.2-4.3c-0.1-4.8,5.4-5.1,8.8-5.1h0.7v-0.2c0-1.6-1-2.4-3-2.4
		c-1.4,0-2.8,0.6-3.8,1.5l-2.2-2.3c2-1.6,4.1-2.3,6.4-2.3C55,29.6,56.9,31.7,56.9,34.9 M53.2,38.1h-0.5c-1.8,0-5.1,0.1-5,2
		c0,2.7,5.6,1.8,5.6-1.4V38.1z"/>
	<polygon style="clip-path:url(#SVGID_00000052823090815719164520000001057310651464352912_);fill:#172B54;" points="196.1,178.7 
		199.6,178.7 199.6,179.2 198.2,179.2 198.2,183.7 197.6,183.7 197.6,179.2 196.1,179.2 	"/>
	<polygon style="clip-path:url(#SVGID_00000052823090815719164520000001057310651464352912_);fill:#172B54;" points="203,182.6 
		204.5,178.7 205.3,178.7 205.3,183.7 204.7,183.7 204.7,179.5 203.1,183.7 202.9,183.7 201.2,179.5 201.2,183.7 200.6,183.7 
		200.6,178.7 201.4,178.7 	"/>
</g>
</svg>
