<?xml version="1.0" encoding="utf-8"?>
<!-- Generator: Adobe Illustrator 26.0.2, SVG Export Plug-In . SVG Version: 6.00 Build 0)  -->
<svg version="1.1" id="Layer_1" xmlns="http://www.w3.org/2000/svg" xmlns:xlink="http://www.w3.org/1999/xlink" x="0px" y="0px"
	 viewBox="0 0 223.4 62" style="enable-background:new 0 0 223.4 62;" xml:space="preserve">
<style type="text/css">
	.st0{fill:#0100A4;}
	.st1{opacity:9.000000e-02;}
	.st2{fill:#FFCA06;}
	.st3{fill:#FFFFFF;}
</style>
<g>
	<path class="st0" d="M31,62C13.9,62,0,48.1,0,31S13.9,0,31,0h161.4c17.1,0,31,13.9,31,31s-13.9,31-31,31H31z"/>
	<path class="st0" d="M192.4,55H31C17.8,55,7,44.3,7,31v0C7,17.7,17.8,7,31,7h161.4c13.3,0,24,10.7,24,24v0v0v0
		C216.4,44.3,205.6,55,192.4,55z"/>
	<g>
		<g class="st1">
			<path d="M31,9.1c12.1,0,22,9.9,22,22s-9.9,22-22,22s-22-9.9-22-22S18.9,9.1,31,9.1 M31,7.1c-13.3,0-24,10.7-24,24s10.7,24,24,24
				s24-10.7,24-24S44.2,7.1,31,7.1L31,7.1z"/>
		</g>
	</g>
	<g>
		<polygon class="st2" points="31,9.7 31.7,11.7 33.8,11.7 32.1,13 32.7,15 31,13.7 29.3,15 29.9,13 28.2,11.7 30.3,11.7 		"/>
		<polygon class="st2" points="41.7,12.5 41.3,14.6 43.1,15.7 41,15.9 40.5,18 39.7,16.1 37.5,16.3 39.1,14.8 38.3,12.9 40.1,14 		
			"/>
		<polygon class="st2" points="49.5,20.4 48.1,22 49.2,23.8 47.2,22.9 45.8,24.5 46,22.4 44.1,21.5 46.2,21.1 46.4,19 47.4,20.8 		
			"/>
		<polygon class="st2" points="52.4,31.1 50.4,31.7 50.4,33.9 49.1,32.1 47.1,32.8 48.3,31.1 47.1,29.3 49.1,30 50.4,28.3 
			50.4,30.4 		"/>
		<polygon class="st2" points="49.5,41.8 47.4,41.3 46.4,43.2 46.2,41.1 44.1,40.6 46,39.7 45.8,37.6 47.2,39.2 49.2,38.3 
			48.1,40.2 		"/>
		<polygon class="st2" points="41.7,49.6 40.1,48.2 38.3,49.3 39.1,47.3 37.5,45.9 39.7,46.1 40.5,44.1 41,46.2 43.1,46.5 
			41.3,47.5 		"/>
		<polygon class="st2" points="31,52.5 30.3,50.5 28.2,50.5 29.9,49.2 29.3,47.2 31,48.4 32.7,47.2 32.1,49.2 33.8,50.5 31.7,50.5 
					"/>
		<polygon class="st2" points="20.3,49.6 20.7,47.5 18.9,46.5 21,46.2 21.5,44.1 22.3,46.1 24.5,45.9 22.9,47.3 23.7,49.3 
			21.9,48.2 		"/>
		<polygon class="st2" points="12.4,41.8 13.9,40.2 12.8,38.3 14.8,39.2 16.2,37.6 16,39.7 17.9,40.6 15.8,41.1 15.6,43.2 
			14.5,41.3 		"/>
		<polygon class="st2" points="9.6,31.1 11.6,30.4 11.6,28.3 12.9,30 14.9,29.3 13.7,31.1 14.9,32.8 12.9,32.1 11.6,33.9 11.6,31.7 
					"/>
		<polygon class="st2" points="12.4,20.4 14.5,20.8 15.6,19 15.8,21.1 17.9,21.5 16,22.4 16.2,24.5 14.8,22.9 12.8,23.8 13.9,22 		
			"/>
		<polygon class="st2" points="20.3,12.5 21.9,14 23.7,12.9 22.9,14.8 24.5,16.3 22.3,16.1 21.5,18 21,15.9 18.9,15.7 20.7,14.6 		
			"/>
		<polygon class="st2" points="31,9.7 31.7,11.7 33.8,11.7 32.1,13 32.7,15 31,13.7 29.3,15 29.9,13 28.2,11.7 30.3,11.7 		"/>
	</g>
	<g>
		<path class="st3" d="M19.1,33.6c-0.6-0.6-0.9-1.5-0.9-2.5c0-1.1,0.4-2,1-2.6c0.6-0.6,1.3-0.9,2.3-0.9c1.7,0,2.8,0.9,3,2.3h-1.6
			c-0.1-0.5-0.6-1-1.3-1c-1.1,0-1.7,0.9-1.7,2.1c0,1.2,0.6,2.1,1.7,2.1c0.9,0,1.4-0.6,1.5-1.2v0h-1.3v-1.2h2.8v3.6h-1.2l-0.1-0.8h0
			c-0.4,0.7-1.1,1-1.9,1C20.4,34.6,19.7,34.2,19.1,33.6z"/>
		<path class="st3" d="M25.4,27.7h2.9c1.9,0,3.1,1.3,3.1,3.4c0,1.2-0.4,2.1-1.2,2.7c-0.5,0.4-1.2,0.6-2,0.6h-2.8V27.7z M28,33
			c1.1,0,1.7-0.7,1.7-1.9c0-1.2-0.6-2-1.6-2h-1V33H28z"/>
		<path class="st3" d="M32,27.7h3c0.8,0,1.4,0.2,1.8,0.6c0.4,0.4,0.7,1,0.7,1.7c0,1.3-0.9,2.2-2.3,2.2h-1.6v2.2H32V27.7z M34.9,30.9
			c0.6,0,0.9-0.4,0.9-0.9c0-0.5-0.3-0.9-0.9-0.9h-1.2v1.8H34.9z"/>
		<path class="st3" d="M38.1,27.7h3.2c1.3,0,2.3,0.7,2.3,1.9c0,0.8-0.4,1.4-1.2,1.6v0c0.6,0.2,0.9,0.6,1,1.2c0.1,0.9,0,1.7,0.3,1.8
			v0.1h-1.6c-0.2-0.1-0.2-0.9-0.3-1.6c-0.1-0.6-0.4-1-1.1-1h-1v2.5h-1.7V27.7z M41,30.7c0.7,0,1-0.3,1-0.8c0-0.5-0.3-0.8-1-0.8h-1.3
			v1.7H41z"/>
	</g>
	<g>
		<path class="st3" d="M73.9,30.1c0-3.2,1.8-5.6,5.1-5.6c2.2,0,3.8,1.1,4.2,3.3h-1c-0.3-1.6-1.6-2.4-3.2-2.4c-2.8,0-4,2.1-4,4.7
			c0,2.6,1.3,4.7,3.9,4.7c2.5,0,3.5-1.7,3.5-3.6v-0.4h-3.5V30h4.4v5.5h-0.7l-0.2-1.7h0c-0.6,0.9-1.6,1.9-3.6,1.9
			C75.7,35.7,73.9,33.3,73.9,30.1z"/>
		<path class="st3" d="M85.2,24.8H89c3.2,0,4.6,2.2,4.6,5.4c0,3.2-1.5,5.3-4.7,5.3h-3.7V24.8z M88.8,34.6c2.6,0,3.7-1.7,3.7-4.4
			s-1-4.5-3.6-4.5h-2.8v9H88.8z"/>
		<path class="st3" d="M95.1,24.8h4.2c1.2,0,2,0.3,2.5,0.9c0.5,0.5,0.8,1.2,0.8,2.1c0,2-1.2,3.1-3.4,3.1h-3.1v4.7h-1V24.8z M99.1,30
			c1.7,0,2.5-0.8,2.5-2.2c0-1.4-0.8-2.1-2.4-2.1h-3.1V30H99.1z"/>
		<path class="st3" d="M103.8,24.8h4.8c1.9,0,3,1.1,3,2.9c0,1.3-0.6,2.2-1.8,2.6v0c1.1,0.4,1.5,1.2,1.5,2.8c0.1,1.7,0.3,2.2,0.5,2.3
			v0.1h-1.1c-0.2-0.2-0.3-0.6-0.4-2.4c-0.1-1.9-0.7-2.4-2.3-2.4h-3.3v4.8h-1V24.8z M108.3,29.8c1.6,0,2.4-0.8,2.4-2.1
			s-0.6-2.1-2.2-2.1h-3.6v4.2H108.3z"/>
		<path class="st3" d="M115.1,30.1c0-3.2,1.8-5.6,4.9-5.6c2.3,0,3.8,1.3,4.1,3.3h-1c-0.3-1.4-1.4-2.4-3.2-2.4
			c-2.5,0-3.8,2.1-3.8,4.7c0,2.7,1.3,4.7,3.8,4.7c2.1,0,3.2-1.4,3.4-3.2h1c-0.1,1-0.5,2.1-1.1,2.8c-0.8,0.8-1.9,1.3-3.2,1.3
			C117,35.7,115.1,33.4,115.1,30.1z"/>
		<path class="st3" d="M125.1,31.6c0-2.3,1.4-4.1,3.6-4.1c2.2,0,3.6,1.8,3.6,4.1c0,2.3-1.3,4.1-3.6,4.1
			C126.5,35.7,125.1,33.9,125.1,31.6z M131.4,31.6c0-1.8-0.9-3.3-2.6-3.3c-1.7,0-2.6,1.5-2.6,3.3s0.9,3.3,2.6,3.3
			C130.5,34.9,131.4,33.4,131.4,31.6z"/>
		<path class="st3" d="M133.5,27.7h0.9v1.2h0c0.5-0.8,1.2-1.3,2.4-1.3c0.9,0,1.8,0.5,2.1,1.4h0c0.5-0.9,1.4-1.4,2.5-1.4
			c1.3,0,2.3,0.9,2.3,2.4v5.5h-0.9v-5.4c0-1.2-0.7-1.7-1.6-1.7c-1.1,0-2.1,0.8-2.1,2.2v4.9h-0.9v-5.4c0-1.2-0.7-1.7-1.6-1.7
			c-1.1,0-2.2,0.9-2.2,2.2v4.9h-0.9V27.7z"/>
		<path class="st3" d="M145.2,27.7h0.9v1.3h0c0.5-0.9,1.4-1.5,2.6-1.5c1.9,0,3.2,1.5,3.2,4.1c0,2.4-1.2,4.1-3.3,4.1
			c-1.2,0-2-0.5-2.6-1.3h0V38h-0.9V27.7z M151.1,31.6c0-1.9-0.8-3.3-2.4-3.3c-1.7,0-2.6,1.5-2.6,3.3c0,1.9,0.9,3.3,2.6,3.3
			C150.3,34.9,151.1,33.4,151.1,31.6z"/>
		<path class="st3" d="M153.2,24.8h0.9v10.7h-0.9V24.8z"/>
		<path class="st3" d="M155.8,24.8h0.9v1.3h-0.9V24.8z M155.8,27.7h0.9v7.8h-0.9V27.7z"/>
		<path class="st3" d="M157.9,33.5c0-1.8,1.4-2.2,3.2-2.4c1.5-0.2,2.1-0.3,2.1-1.1v-0.1c0-1-0.7-1.6-1.9-1.6c-1.4,0-2.1,0.6-2.2,1.7
			h-0.9c0.1-1.5,1.1-2.5,3.1-2.5c1.7,0,2.7,0.7,2.7,2.4v4.2c0,0.5,0.2,0.7,0.5,0.7c0.1,0,0.2,0,0.3-0.1h0v0.7
			c-0.1,0.1-0.3,0.1-0.6,0.1c-0.7,0-1.1-0.3-1.1-1.1v-0.2h0c-0.4,0.6-1.2,1.3-2.7,1.3C159,35.7,157.9,34.9,157.9,33.5z M163.2,32.7
			v-1.4c-0.5,0.3-1.3,0.4-2,0.5c-1.3,0.2-2.3,0.4-2.3,1.7c0,1.1,0.8,1.4,1.7,1.4C162.3,34.9,163.2,33.7,163.2,32.7z"/>
		<path class="st3" d="M165.8,27.7h0.9v1.2h0c0.5-0.8,1.4-1.4,2.6-1.4c1.4,0,2.5,0.9,2.5,2.4v5.5h-0.9v-5.4c0-1.2-0.7-1.7-1.8-1.7
			c-1.3,0-2.4,0.9-2.4,2.2v4.9h-0.9V27.7z"/>
		<path class="st3" d="M173.8,34.1v-5.7h-1.2v-0.8h1.2v-2.4h0.9v2.4h1.4v0.8h-1.4V34c0,0.6,0.3,0.7,0.8,0.7c0.2,0,0.5-0.1,0.6-0.1h0
			v0.8c-0.3,0.1-0.5,0.1-0.9,0.1C174.4,35.5,173.8,35.1,173.8,34.1z"/>
	</g>
</g>
</svg>
