<svg xmlns="http://www.w3.org/2000/svg" width="66.541" height="76.435" viewBox="0 0 66.541 76.435">
  <g id="network_1_" data-name="network (1)" transform="translate(-27.055 -0.001)">
    <g id="Group_170" data-name="Group 170" transform="translate(27.055 0.001)">
      <path id="Path_121" data-name="Path 121" d="M72.465,41.707l6.958,1.381a7.093,7.093,0,1,0,.72-3.585l-7.2-1.429a11.382,11.382,0,0,0-2.974-7.35l9.706-13.711A8.87,8.87,0,1,0,76.692,14.9L67.1,28.445a11.4,11.4,0,0,0-13.926,2.18L40.606,20.865a7.108,7.108,0,1,0-2.348,2.807l12.876,10a11.4,11.4,0,0,0,2.708,13.192L46.129,57.77a9.439,9.439,0,1,0,2.8,2.377l7.981-11.288a11.386,11.386,0,0,0,8.772.193l9.541,14.094A8.007,8.007,0,1,0,78.2,61.022L68.833,47.187A11.457,11.457,0,0,0,72.465,41.707Zm14.034-2.5a3.435,3.435,0,1,1-3.435,3.435A3.435,3.435,0,0,1,86.5,39.209ZM83.181,3.7a5.189,5.189,0,1,1-5.19,5.189A5.189,5.189,0,0,1,83.181,3.7Zm-49,17.609a3.435,3.435,0,1,1,3.435-3.435A3.439,3.439,0,0,1,34.177,21.31Zm7.379,50.44a5.757,5.757,0,1,1,5.757-5.757A5.756,5.756,0,0,1,41.556,71.75Zm39.68-7.67a4.363,4.363,0,1,1-4.363,4.363A4.368,4.368,0,0,1,81.236,64.08Zm-19.711-17.9a7.778,7.778,0,0,1-7.769-7.769h0a7.769,7.769,0,1,1,7.769,7.769Z" transform="translate(-27.055 -0.001)" fill="#707070"/>
    </g>
  </g>
</svg>
