<svg xmlns="http://www.w3.org/2000/svg" width="80.658" height="76.389" viewBox="0 0 80.658 76.389">
  <g id="balance" transform="translate(0 -9.96)">
    <g id="Group_175" data-name="Group 175" transform="translate(0 9.96)">
      <path id="Path_124" data-name="Path 124" d="M80.521,48.823l-.069.034-11.572-28.8h5.28a1.714,1.714,0,1,0,0-3.429H41.9V11.674a1.714,1.714,0,0,0-3.429,0v4.937H6.223a1.714,1.714,0,1,0,0,3.429h5.5L.137,48.823A1.714,1.714,0,0,0,0,49.458a14.254,14.254,0,1,0,28.509,0,1.714,1.714,0,0,0-.137-.634L16.8,20.023H38.469V73.029C30.292,73.646,23.9,78.618,23.9,84.635a1.714,1.714,0,0,0,1.714,1.714H54.755a1.714,1.714,0,0,0,1.714-1.714c0-6.017-6.394-10.989-14.572-11.606V20.023H63.789l-11.5,28.8a1.714,1.714,0,0,0-.137.634,14.254,14.254,0,1,0,28.509,0A1.714,1.714,0,0,0,80.521,48.823ZM14.246,60.309a10.834,10.834,0,0,1-10.68-9.1H24.857A10.834,10.834,0,0,1,14.246,60.309ZM24.24,47.777H4.286L14.28,22.9ZM52.732,82.921H27.617c1.269-3.686,6.5-6.531,12.549-6.531S51.463,79.235,52.732,82.921Zm13.594-60,9.96,24.857H56.332Zm0,37.389v.017a10.834,10.834,0,0,1-10.612-9.12H77.006A10.834,10.834,0,0,1,66.326,60.309Z" transform="translate(0 -9.96)" fill="#fff"/>
    </g>
  </g>
</svg>
