<svg xmlns="http://www.w3.org/2000/svg" width="58.069" height="75.307" viewBox="0 0 58.069 75.307">
  <g id="shield_2_" data-name="shield (2)" transform="translate(-58.597 -0.001)">
    <g id="Group_172" data-name="Group 172" transform="translate(58.597 0.001)">
      <g id="Group_171" data-name="Group 171" transform="translate(0 0)">
        <path id="Path_122" data-name="Path 122" d="M115.2,14.521,88.564.326a2.761,2.761,0,0,0-2.63.016l-25.9,14.195A2.765,2.765,0,0,0,58.6,16.962V37.055A39.833,39.833,0,0,0,82.471,73.51l3.595,1.567a2.763,2.763,0,0,0,2.2,0l4.047-1.748a39.754,39.754,0,0,0,24.352-36.647V16.961A2.764,2.764,0,0,0,115.2,14.521Zm-4.066,22.165A34.23,34.23,0,0,1,90.15,68.243l-.019.008-2.954,1.276-2.49-1.086A34.3,34.3,0,0,1,64.127,37.055V18.6L87.282,5.91l23.854,12.711V36.686Z" transform="translate(-58.597 -0.001)" fill="#fff"/>
      </g>
    </g>
    <g id="Group_174" data-name="Group 174" transform="translate(73.714 29.221)">
      <g id="Group_173" data-name="Group 173" transform="translate(0)">
        <path id="Path_123" data-name="Path 123" d="M189.6,199.683a2.766,2.766,0,0,0-3.891-.4l-14.221,11.569-5.252-6.15a2.765,2.765,0,1,0-4.2,3.591l7.005,8.2a2.764,2.764,0,0,0,3.847.349L189.2,203.573A2.763,2.763,0,0,0,189.6,199.683Z" transform="translate(-161.373 -198.663)" fill="#fff"/>
      </g>
    </g>
  </g>
</svg>
