<svg xmlns="http://www.w3.org/2000/svg" width="67.389" height="87.216" viewBox="0 0 67.389 87.216">
  <g id="selective" transform="translate(-58.197)">
    <g id="Group_155" data-name="Group 155" transform="translate(59.627 15.331)">
      <g id="Group_154" data-name="Group 154">
        <path id="Path_113" data-name="Path 113" d="M132.15,103.389a3.4,3.4,0,0,0-3.007-1.805h-9.677a9.707,9.707,0,0,0-19.114,0h-9.8a7.5,7.5,0,1,0-12.554,0H70a3.407,3.407,0,0,0-2.827,5.308l22.859,33.993v19.3a1.7,1.7,0,0,0,2.384,1.562l15.672-6.824a1.7,1.7,0,0,0,1.023-1.562V140.884l22.859-33.993A3.4,3.4,0,0,0,132.15,103.389Zm-22.241-6.4a6.313,6.313,0,0,1,6.067,4.6H103.842A6.313,6.313,0,0,1,109.909,96.984ZM84.271,93.407A4.088,4.088,0,1,1,80.183,97.5,4.093,4.093,0,0,1,84.271,93.407Zm21.723,46.007a1.7,1.7,0,0,0-.29.951v11.876l-12.265,5.341V142.068h6.154a1.7,1.7,0,1,0,0-3.407h-6.95L75.5,113.167h34.41a1.7,1.7,0,1,0,0-3.407h-36.7L70,104.99h59.142Z" transform="translate(-66.593 -90)" fill="#707070"/>
      </g>
    </g>
    <g id="Group_157" data-name="Group 157" transform="translate(90.924)">
      <g id="Group_156" data-name="Group 156">
        <path id="Path_114" data-name="Path 114" d="M257.819,0a7.5,7.5,0,1,0,7.5,7.5A7.5,7.5,0,0,0,257.819,0Zm0,11.583A4.088,4.088,0,1,1,261.907,7.5,4.093,4.093,0,0,1,257.819,11.583Z" transform="translate(-250.324)" fill="#707070"/>
      </g>
    </g>
    <g id="Group_159" data-name="Group 159" transform="translate(114.921 8.233)">
      <g id="Group_158" data-name="Group 158" transform="translate(0)">
        <path id="Path_115" data-name="Path 115" d="M392.9,48.333a1.7,1.7,0,0,0-1.7,1.7v9.681a1.7,1.7,0,1,0,3.407,0V50.036A1.7,1.7,0,0,0,392.9,48.333Z" transform="translate(-391.197 -48.333)" fill="#707070"/>
      </g>
    </g>
    <g id="Group_161" data-name="Group 161" transform="translate(114.921 2.64)">
      <g id="Group_160" data-name="Group 160" transform="translate(0)">
        <path id="Path_116" data-name="Path 116" d="M394.1,16a1.7,1.7,0,1,0,.5,1.2A1.716,1.716,0,0,0,394.1,16Z" transform="translate(-391.197 -15.5)" fill="#707070"/>
      </g>
    </g>
    <g id="Group_163" data-name="Group 163" transform="translate(81.394 2.173)">
      <g id="Group_162" data-name="Group 162">
        <path id="Path_117" data-name="Path 117" d="M196.078,12.755a1.7,1.7,0,0,0-1.7,1.7v6.984a1.7,1.7,0,0,0,3.407,0V14.458A1.7,1.7,0,0,0,196.078,12.755Z" transform="translate(-194.375 -12.755)" fill="#707070"/>
      </g>
    </g>
    <g id="Group_165" data-name="Group 165" transform="translate(58.197)">
      <g id="Group_164" data-name="Group 164" transform="translate(0)">
        <path id="Path_118" data-name="Path 118" d="M59.9,0a1.7,1.7,0,0,0-1.7,1.7V12.8a1.7,1.7,0,1,0,3.407,0V1.7A1.7,1.7,0,0,0,59.9,0Z" transform="translate(-58.197)" fill="#707070"/>
      </g>
    </g>
    <g id="Group_167" data-name="Group 167" transform="translate(58.197 17.489)">
      <g id="Group_166" data-name="Group 166" transform="translate(0)">
        <path id="Path_119" data-name="Path 119" d="M61.1,103.169a1.7,1.7,0,1,0,.5,1.2A1.709,1.709,0,0,0,61.1,103.169Z" transform="translate(-58.197 -102.67)" fill="#707070"/>
      </g>
    </g>
    <g id="Group_169" data-name="Group 169" transform="translate(108.814 35.091)">
      <g id="Group_168" data-name="Group 168">
        <path id="Path_120" data-name="Path 120" d="M358.255,206.5a1.7,1.7,0,1,0,.5,1.2A1.716,1.716,0,0,0,358.255,206.5Z" transform="translate(-355.347 -206)" fill="#707070"/>
      </g>
    </g>
  </g>
</svg>
