<svg xmlns="http://www.w3.org/2000/svg" width="73.307" height="73.307" viewBox="0 0 73.307 73.307">
  <g id="data" transform="translate(-0.001)">
    <path id="Path_102" data-name="Path 102" d="M304,32h11.824v2.365H304Zm0,0" transform="translate(-259.069 -27.271)" fill="#707070"/>
    <path id="Path_103" data-name="Path 103" d="M32,384h9.459v2.365H32Zm0,0" transform="translate(-27.27 -327.246)" fill="#707070"/>
    <path id="Path_104" data-name="Path 104" d="M32,416h9.459v2.365H32Zm0,0" transform="translate(-27.27 -354.517)" fill="#707070"/>
    <path id="Path_105" data-name="Path 105" d="M32,448h9.459v2.365H32Zm0,0" transform="translate(-27.27 -381.787)" fill="#707070"/>
    <path id="Path_106" data-name="Path 106" d="M216,384h9.459v2.365H216Zm0,0" transform="translate(-184.075 -327.246)" fill="#707070"/>
    <path id="Path_107" data-name="Path 107" d="M216,416h9.459v2.365H216Zm0,0" transform="translate(-184.075 -354.517)" fill="#707070"/>
    <path id="Path_108" data-name="Path 108" d="M216,448h9.459v2.365H216Zm0,0" transform="translate(-184.075 -381.787)" fill="#707070"/>
    <path id="Path_109" data-name="Path 109" d="M65.476,52.024l-16-14c.04-.061.073-.126.114-.186h8.351a3.552,3.552,0,0,0,3.547-3.547V3.547A3.552,3.552,0,0,0,57.937,0H43.4a3.549,3.549,0,0,0-2.216.778L36.239,4.729H15.372a3.552,3.552,0,0,0-3.547,3.547V34.289a3.552,3.552,0,0,0,3.547,3.547h8.351c.181.281.372.552.57.82L9.015,52.024H0V73.307H18.919V52.024H12.608l13.22-11.567a15.325,15.325,0,0,0,9.645,4.414v7.153H27.2V73.307H46.114V52.024H37.837V44.87a15.32,15.32,0,0,0,10.172-4.988L61.884,52.024H54.39V73.307H73.308V52.024ZM16.554,70.942H2.366V54.389H16.554Zm27.195,0H29.56V54.389H43.749ZM37.837,16.613A13.019,13.019,0,0,1,49.661,29.559H48.251a5.442,5.442,0,0,1-5.077-3.437A7.831,7.831,0,0,0,40.6,22.765l-.577-.432a5.493,5.493,0,0,1-2.188-4.375ZM15.372,7.094h21.7l5.589-4.47a1.182,1.182,0,0,1,.738-.259H57.937A1.185,1.185,0,0,1,59.12,3.547V9.459H14.189V8.277a1.185,1.185,0,0,1,1.182-1.182Zm0,28.377a1.185,1.185,0,0,1-1.182-1.182V11.824H59.12V34.289a1.185,1.185,0,0,1-1.182,1.182h-7.1a15.371,15.371,0,1,0-28.37,0ZM29.75,21.333a5.9,5.9,0,0,1,.993,3.279v2.119a4.252,4.252,0,0,0,1.9,3.544l.808.538a1.893,1.893,0,0,1-.2,3.268,3.023,3.023,0,0,1-3.694-.811l-.85-1.063a7.01,7.01,0,0,0-5.05-2.622c0-.008,0-.017,0-.025a12.978,12.978,0,0,1,4.844-10.111ZM23.886,32a4.64,4.64,0,0,1,2.966,1.682l.85,1.063a5.4,5.4,0,0,0,4.212,2.01A5.313,5.313,0,0,0,34.3,36.2a4.258,4.258,0,0,0,.458-7.352l-.808-.538a1.889,1.889,0,0,1-.843-1.575V24.612a8.258,8.258,0,0,0-1.39-4.591l-1.262-1.893a12.909,12.909,0,0,1,5.017-1.515v1.345a7.872,7.872,0,0,0,3.133,6.266l.577.433A5.471,5.471,0,0,1,40.979,27a7.8,7.8,0,0,0,7.273,4.923h1.184a12.959,12.959,0,0,1-.441,1.719A8.226,8.226,0,0,0,37.921,42.5c-.417.04-.839.064-1.266.064A13.022,13.022,0,0,1,23.886,32ZM40.251,42.049a5.814,5.814,0,0,1,5.862-6.578,5.888,5.888,0,0,1,1.938.343,13.053,13.053,0,0,1-7.8,6.235ZM70.943,70.942H56.755V54.389H70.943Zm0,0" fill="#707070"/>
    <path id="Path_110" data-name="Path 110" d="M400,384h9.459v2.365H400Zm0,0" transform="translate(-340.88 -327.246)" fill="#707070"/>
    <path id="Path_111" data-name="Path 111" d="M400,416h9.459v2.365H400Zm0,0" transform="translate(-340.88 -354.517)" fill="#707070"/>
    <path id="Path_112" data-name="Path 112" d="M400,448h9.459v2.365H400Zm0,0" transform="translate(-340.88 -381.787)" fill="#707070"/>
  </g>
</svg>
