<?xml version="1.0" encoding="UTF-8"?>
<svg id="Layer_2" data-name="Layer 2" xmlns="http://www.w3.org/2000/svg" viewBox="0 0 975.78 938.83">
  <defs>
    <style>
      .cls-1 {
        fill: #0091da;
      }

      .cls-2 {
        fill: #1c1c1c;
      }
    </style>
  </defs>
  <g id="Layer_1-2" data-name="Layer 1">
    <path class="cls-2" d="M16.36,452.23c1.21,1.5,1.08,2.99,0,4.49v-4.49Z"/>
    <g>
      <path class="cls-1" d="M664.48,116.28c-1.18,7,1.04,8.3,7.29,9.16,21.29,2.93,42.49,6.55,65.59,10.21-15.95,15.95-31.68,31.66-47.27,47.25l86.37,86.37c14.07-14.06,28.14-28.12,42.22-42.17,1.36-1.36,2.22-4.11,5.45-2.98,3.39,21.51,7.06,43.08,10.01,64.75,.82,6.03,2.77,6.99,8.38,6.07,35.39-5.83,70.79-11.55,106.28-16.72,6.76-.98,7.11-3.54,6.23-9.12-11.74-73.65-23.35-147.33-34.82-221.03-.83-5.32-2.33-7.89-8.36-8.82-74.03-11.39-148.02-23.07-221.97-34.97-6.34-1.02-7.88,.71-8.77,6.66-5.25,35.16-10.71,70.28-16.63,105.33Z"/>
      <path class="cls-1" d="M478.23,577.46c-2.85-5.19-2.44-7.9,1.65-11.96,2.08-2.06,4.15-4.13,6.22-6.19l-86.2-86.2c-2.61,2.63-5.22,5.25-7.83,7.88-3.82,3.85-6.34,2.05-9.81,.18-110.6-59.7-243.86-29.18-316.87,72.53-79.38,110.58-50.79,267.9,62.45,343.6,93.58,62.56,218.76,53.63,300.42-21.44,83.86-77.09,104.41-199.18,49.96-298.41Zm-300.55,203.32c-47.49-47.78-46.98-125.29,1.12-172.93,47.53-47.07,124.82-46.57,172.22,1.11,47.51,47.79,47.02,125.32-1.1,172.91-47.56,47.04-124.9,46.55-172.25-1.09Z"/>
      <rect class="cls-1" x="479.23" y="146.23" width="122.82" height="544.6" transform="translate(454.3 -259.7) rotate(45)"/>
    </g>
    <path class="cls-1" d="M55.03,390.46h-.76c-1.58-.84-2.91-1.99-4.17-3.26-15.7-15.73-31.43-31.44-47.14-47.17-3.93-3.93-3.93-4.24,.01-8.18,44.1-44.1,88.2-88.2,132.3-132.3,.81-.81,1.6-1.63,2.42-2.43,1.23-1.21,1.3-2.37,.04-3.6-.82-.8-1.61-1.62-2.42-2.43C91.73,147.53,48.17,103.97,4.61,60.41c-.81-.81-1.63-1.6-2.42-2.43-2.89-3-2.92-3.65-.08-6.55,3.47-3.54,7-7.01,10.5-10.52C25.27,28.24,37.93,15.58,50.6,2.92c3.91-3.91,4.18-3.91,8.18,.09,44.1,44.1,88.2,88.2,132.3,132.29,.81,.81,1.63,1.6,2.43,2.42,1.24,1.26,2.4,1.18,3.61-.04,.8-.81,1.62-1.61,2.43-2.42C243.11,91.7,286.67,48.14,330.23,4.58c.81-.81,1.6-1.63,2.43-2.42,2.97-2.84,3.65-2.89,6.55,0,16.28,16.24,32.52,32.51,48.79,48.75,1.01,1.01,1.7,2.19,2.44,3.36v.76c-.97,1.98-2.55,3.45-4.07,4.98-43.83,43.82-87.66,87.65-131.48,131.47q-3.81,3.81,0,7.64c43.83,43.83,87.65,87.65,131.48,131.47,1.53,1.53,3.1,3,4.07,4.97v.76c-.84,1.58-1.98,2.9-3.25,4.16-15.59,15.56-31.16,31.13-46.72,46.72-1.26,1.26-2.58,2.41-4.16,3.25h-.76c-1.98-.97-3.45-2.55-4.98-4.07-43.82-43.83-87.65-87.66-131.47-131.48q-3.82-3.81-7.64,0c-43.83,43.82-87.65,87.65-131.47,131.48-1.53,1.53-3,3.1-4.97,4.07Z"/>
    <path class="cls-1" d="M640.36,938.83h-.76c-1.58-.84-2.91-1.99-4.17-3.26-15.7-15.73-31.43-31.44-47.14-47.17-3.93-3.93-3.93-4.24,.01-8.18,44.1-44.1,88.2-88.2,132.3-132.3,.81-.81,1.6-1.63,2.42-2.43,1.23-1.21,1.3-2.37,.04-3.6-.82-.8-1.61-1.62-2.42-2.43-43.56-43.56-87.12-87.12-130.68-130.68-.81-.81-1.63-1.6-2.42-2.43-2.89-3-2.92-3.65-.08-6.55,3.47-3.54,7-7.01,10.5-10.52,12.66-12.66,25.32-25.33,37.99-37.99,3.91-3.91,4.18-3.91,8.18,.09,44.1,44.1,88.2,88.2,132.3,132.29,.81,.81,1.63,1.6,2.43,2.42,1.24,1.26,2.4,1.18,3.61-.04,.8-.81,1.62-1.61,2.43-2.42,43.56-43.56,87.12-87.12,130.68-130.68,.81-.81,1.6-1.63,2.43-2.42,2.97-2.84,3.65-2.89,6.55,0,16.28,16.24,32.52,32.51,48.79,48.75,1.01,1.01,1.7,2.19,2.44,3.36v.76c-.97,1.98-2.55,3.45-4.07,4.98-43.83,43.82-87.66,87.65-131.48,131.47q-3.81,3.81,0,7.64c43.83,43.83,87.65,87.65,131.48,131.47,1.53,1.53,3.1,3,4.07,4.97v.76c-.84,1.58-1.98,2.9-3.25,4.16-15.59,15.56-31.16,31.13-46.72,46.72-1.26,1.26-2.58,2.41-4.16,3.25h-.76c-1.98-.97-3.45-2.55-4.98-4.07-43.82-43.83-87.65-87.66-131.47-131.48q-3.82-3.81-7.64,0c-43.83,43.82-87.65,87.65-131.47,131.48-1.53,1.53-3,3.1-4.97,4.07Z"/>
  </g>
</svg>