<?xml version="1.0" encoding="UTF-8"?>
<svg id="Layer_2" data-name="Layer 2" xmlns="http://www.w3.org/2000/svg" viewBox="0 0 924.46 963.67">
  <defs>
    <style>
      .cls-1 {
        fill: none;
        stroke: #0091da;
        stroke-miterlimit: 10;
        stroke-width: 60px;
      }

      .cls-2 {
        fill: #0091da;
      }
    </style>
  </defs>
  <g id="Layer_1-2" data-name="Layer 1">
    <g>
      <path class="cls-2" d="M269.95,961.22c7.14-7.22,14.26-14.46,21.43-21.64,49.11-49.13,98.19-98.3,147.47-147.27,3.72-3.69,3.15-5.29-.19-8.62-55.48-55.26-110.84-110.63-166.11-166.09-2.9-2.91-4.28-3.04-7.23-.05-20.94,21.23-42.02,42.33-63.26,63.25-3.11,3.06-2.66,4.45,.17,7.23,15.58,15.28,30.92,30.8,46.4,46.19,1.13,1.12,2.69,1.8,4.05,2.68-.34,.51-.67,1.02-1.01,1.54-1.58,0-3.17,0-4.75,0-36.82,0-73.65-.53-110.45,.21-19.83,.4-37.38-13.87-37.27-37.6,.38-81.63,.1-163.26,.27-244.9,.01-4.86-1.18-5.9-5.93-5.86-29.65,.25-59.31,.2-88.96,.03C.82,450.29,0,451.25,0,454.95c.12,85.46,.02,170.93,.11,256.39,.07,64.88,46.56,117.48,110.95,125.65,5.93,.75,11.97,.82,17.96,.83,38.98,.07,77.97,.04,116.95,.04h5.51c.11,2.08-1.51,2.69-2.47,3.66-15.75,15.82-31.46,31.68-47.41,47.3-2.81,2.75-2.4,3.99,.13,6.5,20.84,20.63,41.54,41.4,62.23,62.17,1.11,1.11,2.81,1.85,2.98,3.75,1,0,2,0,3,0Z"/>
      <path class="cls-2" d="M654.51,0c-7.14,7.22-14.26,14.46-21.43,21.64-49.11,49.13-98.19,98.3-147.47,147.27-3.72,3.69-3.15,5.29,.19,8.62,55.48,55.26,110.84,110.63,166.11,166.09,2.9,2.91,4.28,3.04,7.23,.05,20.94-21.23,42.02-42.33,63.26-63.25,3.11-3.06,2.66-4.45-.17-7.23-15.58-15.28-30.92-30.8-46.4-46.19-1.13-1.12-2.69-1.8-4.05-2.68,.34-.51,.67-1.02,1.01-1.54,1.58,0,3.17,0,4.75,0,36.82,0,73.65,.53,110.45-.21,19.83-.4,37.38,13.87,37.27,37.6-.38,81.63-.1,163.26-.27,244.9-.01,4.86,1.18,5.9,5.93,5.86,29.65-.25,59.31-.2,88.96-.03,3.77,.02,4.59-.93,4.59-4.63-.12-85.46-.02-170.93-.11-256.39-.07-64.88-46.56-117.48-110.95-125.65-5.93-.75-11.97-.82-17.96-.83-38.98-.07-77.97-.04-116.95-.04h-5.51c-.11-2.08,1.51-2.69,2.47-3.66,15.75-15.82,31.46-31.68,47.41-47.3,2.81-2.75,2.4-3.99-.13-6.5-20.84-20.63-41.54-41.4-62.23-62.16-1.11-1.11-2.81-1.85-2.98-3.75-1,0-2,0-3,0Z"/>
      <circle class="cls-1" cx="703.76" cy="754.59" r="179.08"/>
      <circle class="cls-1" cx="210.8" cy="226.06" r="179.08"/>
    </g>
  </g>
</svg>