<?xml version="1.0" encoding="UTF-8"?>
<svg id="Layer_2" data-name="Layer 2" xmlns="http://www.w3.org/2000/svg" viewBox="0 0 214.31 367.78">
  <defs>
    <style>
      .cls-1 {
        fill: #0091da;
      }
    </style>
  </defs>
  <g id="Layer_1-2" data-name="Layer 1">
    <path class="cls-1" d="M202.16,143.56c-20.45-1.34-40.91-2.63-61.36-3.86-13.1-.79-12.81-.7-11.6-14,3.34-36.9,6.4-73.82,9.45-109.27,.47-9.93-1.8-14.2-7.59-15.87-5.74-1.66-10.25,.32-13.87,6.46C78.91,71.99,40.63,136.96,2.44,201.97c-5.66,9.63-1.11,17.86,9.94,18.65,23.95,1.71,47.89,3.62,71.85,5.07,5.27,.32,6.4,1.96,5.83,7.05-4.56,40.3-8.86,80.63-13.23,120.95-.7,6.5,2.3,11.99,7.34,13.53,5.57,1.7,10.34-.47,13.84-6.56,38.03-66.3,76.04-132.6,114.01-198.93,5.39-9.42,1-17.45-9.85-18.16Zm-96.04,158.62c-.38-.11-.76-.22-1.14-.34,2.34-21.8,4.68-43.6,7.02-65.41,.6-5.56,1.33-11.1,1.76-16.67,.77-10.14-2.48-14.03-12.72-14.91-12.99-1.11-26.01-1.92-39.02-2.9-10.44-.79-20.88-1.65-32.17-2.55,27.49-46.68,54.57-92.64,81.65-138.61,.27,.15,.54,.3,.81,.45-2.41,27.61-4.93,55.22-7.17,82.85-.98,12.18,1.59,15.13,13.85,16.11,21.45,1.7,42.93,3.07,65.48,4.66-26.33,46.15-52.33,91.73-78.34,137.32Z"/>
  </g>
</svg>