<svg width="212" height="43" viewBox="0 0 212 43" fill="none" xmlns="http://www.w3.org/2000/svg">
<path fill-rule="evenodd" clip-rule="evenodd" d="M9.86478 23.258C6.34412 23.258 2.79018 22.0628 0 19.6401L3.02266 16.119C5.11495 17.7987 7.30731 18.8647 9.96438 18.8647C12.0569 18.8647 13.3191 18.0572 13.3191 16.7328V16.6683C13.3191 15.4084 12.5219 14.7622 8.63584 13.7934C3.95257 12.6303 0.929906 11.3706 0.929906 6.88051V6.81601C0.929906 2.71355 4.31792 0 9.06775 0C12.4555 0 15.3453 1.03382 17.7036 2.87514L15.0463 6.62205C12.987 5.23292 10.9608 4.39328 9.0012 4.39328C7.04155 4.39328 6.01181 5.26551 6.01181 6.36382V6.42833C6.01181 7.9141 7.00827 8.39887 11.0274 9.40033C15.7437 10.5953 18.401 12.2427 18.401 16.1835V16.2482C18.401 20.7382 14.8801 23.258 9.86478 23.258Z" transform="translate(36.4121 9.69727)" fill="white"/>
<path fill-rule="evenodd" clip-rule="evenodd" d="M45.9341 23.0965H41.4833L36.2353 8.30186L30.9874 23.0965H26.5366L18.5982 0.323257H24.0788L28.8949 15.6345L34.1095 0.25853H38.4939L43.7087 15.6345L48.5249 0.323257H53.8723L45.9341 23.0965Z" transform="translate(36.4121 9.69727)" fill="white"/>
<path fill-rule="evenodd" clip-rule="evenodd" d="M55.7957 22.9348H60.9109V0.323177H55.7957V22.9348Z" transform="translate(36.4121 9.69727)" fill="white"/>
<path fill-rule="evenodd" clip-rule="evenodd" d="M81.8665 22.9349V8.1726L75.3232 17.8309H75.1903L68.7135 8.26947V22.9349H63.6979V0.323232H69.2115L75.3232 9.8847L81.4348 0.323232H86.9484V22.9349H81.8665Z" transform="translate(36.4121 9.69727)" fill="white"/>
<path fill-rule="evenodd" clip-rule="evenodd" d="M89.7348 22.9349V0.323232H94.8497V18.4126H106.442L104.58 22.9349H89.7348Z" transform="translate(36.4121 9.69727)" fill="white"/>
<path fill-rule="evenodd" clip-rule="evenodd" d="M119.393 6.13759L116.305 13.4701H122.482L119.393 6.13759ZM126.435 22.9349L124.309 17.8634H114.478L112.352 22.9349H107.137L117.102 0.161726H121.818L131.783 22.9349H126.435Z" transform="translate(36.4121 9.69727)" fill="white"/>
<path fill-rule="evenodd" clip-rule="evenodd" d="M150.514 22.9349L139.254 8.56006V22.9349H134.205V0.323232H138.922L149.816 14.2454V0.323232H154.865V22.9349H150.514Z" transform="translate(36.4121 9.69727)" fill="white"/>
<path fill-rule="evenodd" clip-rule="evenodd" d="M157.884 22.9349V0.323232H175.422V4.74865H162.966V9.33542H173.927V13.7611H162.966V18.5094H175.587V22.9349H157.884Z" transform="translate(36.4121 9.69727)" fill="white"/>
<path fill-rule="evenodd" clip-rule="evenodd" d="M8.51682 0.301656C8.00214 -0.100552 7.26953 -0.100552 6.75485 0.301656L0.526587 5.16812C-0.175529 5.7165 -0.175529 6.75708 0.526587 7.30569L6.97536 12.3444C7.00351 12.3663 7.04386 12.3663 7.07201 12.3444L15.4256 5.81722C15.4643 5.78707 15.4643 5.72997 15.4256 5.69982L8.51682 0.301656Z" transform="translate(13.584 12.1055)" fill="#19CCC0"/>
<path fill-rule="evenodd" clip-rule="evenodd" d="M1.44505 24.9483L16.0886 13.5067C16.2988 13.3425 16.421 13.0945 16.421 12.8318V0L0.332643 12.5708C0.122454 12.7347 0 12.983 0 13.2454V24.2736C0 24.9999 0.863511 25.4028 1.44505 24.9483Z" transform="translate(12.668 17.8594)" fill="#00FFF4"/>
<path fill-rule="evenodd" clip-rule="evenodd" d="M10.8067 0L2.32475 6.63037L0 4.8137L10.8067 0Z" transform="translate(18.2812 17.8574)" fill="#27AFA2"/>
<path fill-rule="evenodd" clip-rule="evenodd" d="M6.93782 12.0591C7.45251 12.4613 8.18512 12.4613 8.6998 12.0591L14.9281 7.19263C15.6302 6.64425 15.6302 5.60367 14.9281 5.05529L8.47929 0.0166159C8.45114 -0.00553863 8.41079 -0.00553863 8.38264 0.0166159L0.02903 6.54375C-0.00967668 6.57367 -0.00967668 6.63077 0.02903 6.66092L6.93782 12.0591Z" transform="translate(0.0507812 18.5352)" fill="#028ACF"/>
<path fill-rule="evenodd" clip-rule="evenodd" d="M14.976 0.192083L0.332408 11.6336C0.122219 11.7979 0 12.0461 0 12.3086V25.1404L16.0884 12.5698C16.2986 12.4056 16.421 12.1574 16.421 11.8949V0.866997C16.421 0.140693 15.5575 -0.262428 14.976 0.192083Z" fill="#02AAFF"/>
<path fill-rule="evenodd" clip-rule="evenodd" d="M0 6.63014L8.48193 0L10.8067 1.81644L0 6.63014Z" transform="translate(0 18.5137)" fill="#0578A5"/>
</svg>
