<?xml version="1.0" encoding="UTF-8"?>
<svg id="Layer_2" data-name="Layer 2" xmlns="http://www.w3.org/2000/svg" viewBox="0 0 146.96 146.96">
  <defs>
    <style>
      .cls-1 {
        fill: #ffdc1a;
      }
    </style>
  </defs>
  <g id="Layer_1-2" data-name="Layer 1">
    <circle class="cls-1" cx="73.48" cy="73.48" r="73.48"/>
    <g>
      <path d="M111,68.56c-1.58-1.6-3.18-3.18-4.76-4.77-1.81-1.83-2.72-4.02-2.74-6.6-.02-2.61,.11-5.22-.08-7.82-.22-2.94-2.87-5.59-5.8-5.82-2.55-.19-5.11-.08-7.67-.08-2.73,0-5.03-.95-6.93-2.89-1.25-1.27-2.55-2.49-3.77-3.79-1.39-1.48-2.93-2.66-4.99-3h-1.55c-2,0-3.41,1.11-4.71,2.46-1.41,1.47-2.86,2.91-4.33,4.33-1.76,1.7-3.83,2.63-6.33,2.63-2.63,0-5.27-.14-7.9,.13-2.16,.22-3.78,1.28-5.01,3-1.01,1.41-1.2,3.06-1.23,4.73-.04,2.07-.04,4.13,0,6.2,.05,2.56-.93,4.67-2.67,6.47-1.4,1.44-2.82,2.88-4.28,4.27-1.36,1.3-2.46,2.71-2.46,4.71v1.55c.34,2.06,1.52,3.61,3.01,4.99,1.15,1.07,2.2,2.26,3.36,3.33,2.38,2.18,3.44,4.85,3.34,8.08-.07,2.32-.11,4.65,.06,6.97,.21,2.89,2.87,5.58,5.74,5.79,2.66,.2,5.32,.06,7.98,.09,2.52,.03,4.68,.92,6.47,2.68,1.62,1.6,3.21,3.22,4.83,4.82,2.94,2.91,6.9,2.9,9.85,0,1.58-1.56,3.15-3.14,4.72-4.71,1.86-1.86,4.1-2.77,6.74-2.79,2.61-.01,5.22,.11,7.82-.08,2.83-.22,5.51-2.89,5.73-5.72,.2-2.61,.07-5.22,.09-7.82,.01-2.64,.92-4.88,2.79-6.74,1.57-1.57,3.15-3.13,4.71-4.71,2.91-2.94,2.91-6.91,0-9.85Zm-4.83,5.34c-1.59,1.55-3.16,3.12-4.72,4.71-2.99,3.06-4.52,6.73-4.56,11-.02,2.14-.03,4.29,.01,6.43,.01,.64-.1,.88-.82,.86-2.17-.06-4.34-.04-6.51-.02-4.25,.05-7.9,1.57-10.93,4.54-1.59,1.55-3.16,3.13-4.71,4.72-.36,.37-.55,.35-.9,0-1.55-1.59-3.12-3.17-4.71-4.72-3.04-2.96-6.69-4.49-10.93-4.53-2.17-.02-4.34-.03-6.51,.01-.62,.01-.83-.11-.82-.78,.05-2.17,.03-4.34,.01-6.51-.04-4.28-1.58-7.95-4.57-11-1.55-1.59-3.13-3.16-4.72-4.71-.35-.34-.33-.51,0-.84,1.59-1.55,3.16-3.12,4.72-4.71,2.99-3.06,4.52-6.72,4.56-11,.02-2.2,.02-4.39,0-6.59,0-.52,.1-.71,.67-.7,1.32,.04,2.64,.01,3.95,.01,2.29-.02,4.59,.12,6.84-.57,2.59-.8,4.89-2.04,6.81-3.97,1.57-1.58,3.15-3.13,4.7-4.72,.36-.37,.55-.35,.9,0,1.55,1.59,3.12,3.17,4.71,4.72,3.04,2.96,6.69,4.48,10.94,4.53,2.12,.02,4.24,.04,6.36-.01,.74-.02,1.01,.11,.98,.94-.07,2.12-.04,4.24-.02,6.36,.04,4.28,1.58,7.95,4.56,11,1.55,1.59,3.13,3.16,4.72,4.71,.35,.34,.34,.51,0,.84Z"/>
      <path d="M58.41,69.03c.14,.2,.24,.39,.38,.53,2.96,2.96,5.93,5.9,8.86,8.9,.51,.52,.73,.42,1.18-.03,6.42-6.44,12.86-12.86,19.27-19.31,.47-.47,.69-.43,1.11,.02,1.21,1.27,2.46,2.51,3.73,3.73,.35,.34,.32,.5-.01,.83-8.1,8.08-16.2,16.17-24.28,24.28-.35,.35-.51,.32-.84,0-4.57-4.6-9.16-9.18-13.76-13.75-.37-.37-.35-.55,.01-.89,1.28-1.24,2.53-2.51,3.79-3.77,.14-.14,.3-.28,.55-.51Z"/>
    </g>
  </g>
</svg>