<?xml version="1.0" encoding="UTF-8"?>
<svg id="Layer_2" data-name="Layer 2" xmlns="http://www.w3.org/2000/svg" viewBox="0 0 146.96 146.96">
  <defs>
    <style>
      .cls-1 {
        fill: #ffdc1a;
      }
    </style>
  </defs>
  <g id="Layer_1-2" data-name="Layer 1">
    <circle class="cls-1" cx="73.48" cy="73.48" r="73.48"/>
    <g>
      <path d="M120.74,70.98c-3.19-4.07-6.68-7.86-10.5-11.35-6.58-6-13.77-11.04-22.16-14.2-7.31-2.76-14.82-3.53-22.51-1.94-6.93,1.43-13.17,4.46-19,8.37-7.48,5.01-13.92,11.17-19.59,18.15-.73,.9-1.47,1.79-1.85,2.91v1.13c.28,.59,.5,1.2,.92,1.72,7.86,9.89,17,18.25,28.44,23.87,5.44,2.68,11.18,4.32,17.26,4.6,8.92,.41,17.05-2.26,24.66-6.66,9.57-5.54,17.51-12.96,24.34-21.6,1.46-1.84,1.45-3.15,0-5Zm-6.57,3c-6.61,7.73-14.03,14.51-23.13,19.24-5.49,2.86-11.3,4.69-17.57,4.68-6.28,0-12.07-1.84-17.57-4.71-9.06-4.73-16.46-11.48-23.07-19.17-.36-.42-.38-.65-.01-1.09,6.6-7.7,13.99-14.46,23.06-19.18,5.99-3.12,12.31-5.01,19.17-4.67,4.48,.22,8.73,1.39,12.82,3.16,8.17,3.55,15.03,8.95,21.25,15.22,1.75,1.76,3.43,3.59,5.04,5.49,.33,.38,.35,.61,.01,1.01Z"/>
      <path d="M73.52,54.37c-10.54-.03-19.13,8.54-19.14,19.1,0,10.55,8.57,19.13,19.12,19.12,10.56-.02,19.13-8.61,19.09-19.15-.04-10.54-8.54-19.04-19.08-19.07Zm0,31.86c-7,.05-12.8-5.75-12.78-12.76,.02-7.05,5.83-12.82,12.81-12.74,7.06,.09,12.7,5.76,12.68,12.76-.02,7.02-5.67,12.69-12.71,12.74Z"/>
    </g>
  </g>
</svg>