<?xml version="1.0" encoding="UTF-8"?>
<svg id="Layer_2" data-name="Layer 2" xmlns="http://www.w3.org/2000/svg" viewBox="0 0 146.96 146.96">
  <defs>
    <style>
      .cls-1 {
        fill: #ffdc1a;
      }
    </style>
  </defs>
  <g id="Layer_1-2" data-name="Layer 1">
    <circle class="cls-1" cx="73.48" cy="73.48" r="73.48"/>
    <g>
      <path d="M109.13,68.25c-.71-5.58-2.81-10.65-6.01-15.26-2.82-4.07-6.33-7.42-10.52-10.07-3.95-2.49-8.22-4.14-12.81-4.97-2.91-.53-5.86-.46-8.8-.4-3.03,.06-5.95,.69-8.79,1.63-6.37,2.1-11.74,5.71-16.13,10.78-4.44,5.14-7.18,11.07-8.31,17.76-.16,.94-.12,1.9-.28,2.84v.7c.1,.09,.06,.22,.07,.33-.03,.17,.06,.36-.07,.51v2.67c.12,.12,.06,.27,.07,.41,0,.09,0,.17,0,.26,0,.11,.02,.23-.07,.32v.7c.16,.94,.12,1.9,.28,2.84,1.49,8.6,5.49,15.78,12.07,21.51,5.1,4.44,11.01,7.18,17.66,8.33,.99,.17,1.99,.14,2.98,.31h.56c.09-.1,.22-.06,.33-.07,.09,0,.18,0,.27,0,.17,.03,.36-.06,.52,.07h2.53c.16-.14,.35-.05,.52-.07,.09,0,.18,0,.27,0,.11,0,.24-.03,.33,.07h.28c.07-.07,.17-.07,.26-.07,4.22-.08,8.17-1.26,11.97-2.97,4.87-2.19,9.03-5.36,12.51-9.41,3-3.48,5.22-7.4,6.75-11.72,1.96-5.54,2.27-11.25,1.54-17.02Zm-35.75,35.62c-16.78-.06-30.41-13.73-30.32-30.42,.09-16.78,13.65-30.31,30.37-30.3,16.76,.01,30.39,13.66,30.35,30.39-.04,16.77-13.69,30.4-30.41,30.34Z"/>
      <path d="M70.62,65.29c0-2.71-.02-5.43,0-8.14,.02-2.08,1.88-3.41,3.74-2.73,1.17,.42,1.84,1.47,1.84,2.93,0,4.65,.02,9.31-.02,13.96,0,.76,.22,1.21,.83,1.66,3.03,2.23,6.03,4.5,9.04,6.76,1.09,.82,1.49,1.93,1.17,3.06-.55,1.93-2.71,2.68-4.38,1.48-1.76-1.27-3.48-2.6-5.22-3.9-1.87-1.4-3.73-2.82-5.61-4.2-.97-.71-1.41-1.63-1.41-2.81,.02-2.69,0-5.38,0-8.07Z"/>
    </g>
  </g>
</svg>