<?xml version="1.0" encoding="utf-8"?>
<!-- Generator: Adobe Illustrator 23.0.6, SVG Export Plug-In . SVG Version: 6.00 Build 0)  -->
<svg version="1.1" id="Layer_1" xmlns="http://www.w3.org/2000/svg" xmlns:xlink="http://www.w3.org/1999/xlink" x="0px" y="0px"
	 viewBox="0 0 447.3 461.2" style="enable-background:new 0 0 447.3 461.2;" xml:space="preserve">
<style type="text/css">
	.st0{fill:#EAEAEA;}
	.st1{fill:#F7F6F5;}
	.st2{fill:#2D2820;}
	.st3{fill:#F4EDED;}
	.st4{fill:#B0DDF4;}
	.st5{fill:#97C9E8;}
	.st6{fill:#60B6FF;}
	.st7{fill:#BAEB6C;}
	.st8{fill:#96D629;}
	.st9{fill:#49CB5C;}
	.st10{fill:#07B128;}
	.st11{fill:#8CCFEA;}
	.st12{fill:#FF5D5D;}
	.st13{fill:#D8D8E4;}
	.st14{fill:#2E9DE3;}
	.st15{fill:#72D8FF;}
	.st16{fill:#88B337;}
	.st17{fill:#6B962A;}
	.st18{fill:#FFFFFF;}
	.st19{fill:#FDB62F;}
	.st20{fill:#FEC9A3;}
	.st21{fill:#F7BB8F;}
	.st22{fill:#4398D1;}
	.st23{fill:#3E8CC7;}
	.st24{fill:#D9D9D9;}
	.st25{fill:#FFBE52;}
	.st26{fill:#B3EAD8;}
	.st27{fill:#00CCF2;}
	.st28{fill:#FED2A4;}
	.st29{fill:#AFABB0;}
</style>
<title>Asset 1</title>
<g>
	<g id="Layer_1-2">
		<path class="st0" d="M11.1,0h333.6c6.1,0,11.1,5,11.1,11.1v333.6c0,6.1-5,11.1-11.1,11.1H11.1c-6.1,0-11.1-5-11.1-11.1V11.1
			C0,5,5,0,11.1,0z"/>
		<path class="st1" d="M51,35.2h333.6c6.1,0,11.1,5,11.1,11.1v333.6c0,6.1-5,11.1-11.1,11.1H51c-6.1,0-11.1-5-11.1-11.1V46.3
			C39.8,40.2,44.8,35.2,51,35.2z"/>
		<path class="st2" d="M321.8,137.1c-1.2,6.8-6.5,12.2-13.4,13.4c-2.3,0-4.2,1.9-4.2,4.2s1.9,4.2,4.2,4.2c0,0,0,0,0,0
			c6.8,1.2,12.2,6.5,13.4,13.4c0,2.3,1.9,4.2,4.2,4.2c2.3,0,4.2-1.9,4.2-4.2c1.2-6.8,6.5-12.2,13.4-13.4c2.3,0,4.2-1.9,4.2-4.2
			s-1.9-4.2-4.2-4.2c0,0,0,0,0,0c-6.8-1.2-12.2-6.5-13.4-13.4c0-2.3-1.9-4.2-4.2-4.2C323.7,132.8,321.8,134.7,321.8,137.1z
			 M332,154.7c-2.4,1.6-4.4,3.7-6,6.1c-1.6-2.4-3.7-4.4-6-6.1c2.4-1.6,4.4-3.7,6-6C327.6,151,329.7,153,332,154.7L332,154.7z"/>
		<circle class="st3" cx="95.2" cy="115" r="26.6"/>
		<circle class="st4" cx="90.7" cy="138.9" r="12.8"/>
		<path class="st5" d="M123.3,117c0-13.4-11-24.3-24.4-24.3s-24.3,11-24.3,24.4c0,13.4,10.9,24.3,24.3,24.3
			C112.5,141.4,123.4,130.5,123.3,117z"/>
		<path class="st6" d="M99,92.7c-1.2,0-2.5,0.1-3.7,0.3c13.3,2.1,22.4,14.6,20.3,27.9c-1.6,10.5-9.8,18.7-20.3,20.3
			c1.2,0.2,2.5,0.3,3.7,0.3c13.5,0,24.4-10.9,24.4-24.4C123.4,103.6,112.5,92.7,99,92.7L99,92.7z"/>
		<path class="st7" d="M95.9,102.1c-3.7,2.3-6.6,6.1-4.4,10.3c2.1,4.2,6.8,2.6,11.1,2c4.3-0.6,1.1,12.8,3.6,16.1
			c2.6,3.3,9.8-3.3,9.1-7.5c-1-6.3-1.4-8.5,7-12.9l0,0c-2.9-9.8-11.6-16.8-21.8-17.4l0,0C100.5,92.7,99.6,99.8,95.9,102.1z"/>
		<path class="st7" d="M114.3,98L114.3,98z"/>
		<path class="st7" d="M117.2,100.9"/>
		<path class="st7" d="M82.9,128.1c-1.1-1.7,2-5.8,2.7-8.8c0.7-3-3.5-2.8-4.8-3.9c-1.3-1.1-3-5.6-4.3-6.7l-0.2-0.2
			c-3.8,10.2-0.4,21.7,8.3,28.1v-0.5C85.1,133.3,84.4,130.4,82.9,128.1z"/>
		<path class="st7" d="M115.3,123C115.3,123,115.3,122.9,115.3,123c-0.5,1.8-1.1,3.6-2,5.3C114.6,126.6,115.6,124.6,115.3,123z"/>
		<path class="st8" d="M100.5,92.7L100.5,92.7c0,0-0.1,0.6-0.3,1.5c8.7,3.3,14.8,11.3,15.6,20.6c1.1-1.5,3-2.9,6.4-4.6l0,0
			C119.4,100.3,110.7,93.3,100.5,92.7z"/>
		<path class="st9" d="M92.3,101c-11.8-2-19.1-16.8-19.1-16.8S85,72.6,96.7,74.6s19.1,16.8,19.1,16.8S104.1,103,92.3,101z"/>
		<path class="st10" d="M96.8,74.6c-2.2-0.4-4.5-0.3-6.7,0.2c11.3,2.5,18.2,16.7,18.2,16.7s-7.7,7.6-16.9,9.4
			c0.3,0.1,0.6,0.1,0.8,0.2c11.8,1.9,23.5-9.6,23.5-9.6S108.5,76.6,96.8,74.6z"/>
		<path class="st9" d="M123.8,86.6c3.2-7.4,14.1-10,14.1-10s5.8,9.6,2.7,17.1c-3.2,7.5-14.1,10-14.1,10S120.7,94.1,123.8,86.6z"/>
		<path class="st10" d="M137.9,76.6c-1.9,0.5-3.7,1.1-5.4,2c1.5,3.2,3.9,9.7,1.6,15.1c-1.6,3.9-5.4,6.5-8.7,8c0.6,1.2,1,2,1,2
			s10.9-2.5,14.1-10C143.8,86.2,137.9,76.6,137.9,76.6z"/>
		<path d="M141.5,82c-0.7-2.1-1.5-4.1-2.6-6c-0.2-0.4-0.7-0.6-1.2-0.5c-2.1,0.5-4.1,1.3-6.1,2.3c-4.3,2.2-7.3,5.1-8.7,8.3
			c-1.2,3.1-1.4,6.6-0.5,9.8c-1.7-1.9-3.7-3.7-5.9-5.1c-1.4-2.8-3.1-5.4-5.1-7.8c-0.4-0.4-1.1-0.5-1.6,0c-0.4,0.4-0.5,1-0.1,1.4
			c1.5,1.9,2.9,3.9,4.1,6l-10-2l-9.5-13c0.9,0,1.9,0.1,2.8,0.3c3.2,0.7,6.2,2.2,8.6,4.4c0.5,0.4,1.2,0.3,1.6-0.1
			c0.4-0.5,0.3-1.2-0.1-1.6l0,0c-2.7-2.5-6.1-4.2-9.7-5c-5-1-10.9,0.3-17,3.7c-2.8,1.6-5.3,3.4-7.7,5.5c-0.4,0.4-0.5,1.1-0.1,1.5
			c1.4,2.7,3,5.3,4.9,7.8c1.5,2,3.3,3.8,5.2,5.4c-0.5,0.4-1,0.9-1.5,1.4c-10.1,9.8-10.2,25.9-0.4,36c2.5,2.5,5.4,4.5,8.6,5.8
			c0.6,0.2,1.2-0.1,1.4-0.7c0.2-0.5-0.1-1.1-0.6-1.3c-1.7-0.7-3.3-1.6-4.8-2.6c0.5-3-0.2-6.1-1.9-8.7c-0.4-0.5,0.7-2.7,1.3-4
			c0.7-1.3,1.2-2.6,1.6-4c0.4-1.2-0.1-2.5-1.1-3.3c-0.8-0.5-1.7-0.9-2.6-1.1c-0.5-0.1-1-0.3-1.4-0.6c-0.7-0.9-1.4-2-1.9-3
			c-0.6-1.2-1.2-2.3-2-3.3c1.5-3.6,3.9-6.7,7-9.2c2.7,1.9,5.9,3.1,9.3,3.4c-3.9,3-5.2,6.9-3.4,10.6c2.1,4.3,6.4,3.6,10.2,3
			c0.7-0.1,1.3-0.2,2-0.3c0.3,0,0.3,0,0.4,0.1c0.8,0.7,0.8,4.3,0.8,6.9c0,3.6,0,7,1.3,8.7c0.7,0.9,1.7,1.4,2.8,1.3
			c0.8,0,1.5-0.2,2.2-0.5c3.3-1.4,6.8-5.7,6.3-9.1c-0.5-3-0.8-4.9-0.1-6.5s2.3-2.8,5.4-4.5c0.4,1.7,0.6,3.5,0.5,5.3
			c0,6.2-2.6,12.1-7,16.4c-5,4.9-11.9,7.2-18.8,6.5c-0.6,0-1.1,0.4-1.1,1.1c0,0.5,0.4,1,0.9,1.1c7.6,0.8,15.2-1.8,20.6-7.1
			c10-9.8,10.2-25.9,0.4-36c-1.3-1.3-2.8-2.5-4.3-3.6c1.5-1,2.5-1.9,3.1-2.5c9,6.5,13.6,17.6,11.8,28.6c-2.8,15.9-18,26.5-33.9,23.6
			c-15.6-2.8-26.1-17.5-23.8-33.2c0.1-0.6-0.3-1.2-0.9-1.3c-0.6-0.1-1.2,0.3-1.3,0.9l0,0c-2.8,17.1,8.8,33.3,25.9,36.1c0,0,0,0,0,0
			c1.7,0.3,3.5,0.4,5.2,0.4c17.4,0,31.4-14.2,31.4-31.5c0-4.3-0.9-8.5-2.6-12.5c1.8-0.5,3.5-1.2,5.1-2c4.3-2.2,7.3-5,8.7-8.3
			C143.1,90.8,143,86.6,141.5,82z M77.5,112.3c0.6,1.4,1.4,2.6,2.4,3.7c0.7,0.5,1.4,0.8,2.2,1c2.1,0.7,2.4,1,2.2,1.9
			c-0.4,1.2-0.9,2.4-1.4,3.5c-1.1,2.3-2.2,4.5-1.2,6.1c1.1,1.7,1.7,3.8,1.7,5.8c-6.6-6-9.2-15.2-6.8-23.8
			C76.9,111.1,77.2,111.7,77.5,112.3L77.5,112.3z M130.8,90.7l-3.1-7.6c1.4-1.3,3.1-2.4,4.8-3.3c1.1-0.6,2.3-1.1,3.5-1.5L130.8,90.7
			z M138,79.2c0.5,1.1,1,2.3,1.4,3.5c0.6,1.7,0.9,3.5,1,5.3l-7.3,3L138,79.2z M124.8,87c0.3-0.8,0.7-1.5,1.2-2.1l3.6,8.6l-3.2,7.7
			c-0.6-1.2-1-2.4-1.4-3.6C124.1,94.7,123.4,90.6,124.8,87L124.8,87z M131.9,100.5c-1.1,0.5-2.2,1-3.4,1.4l3.3-7.9l8.5-3.5
			c-0.1,1-0.4,1.9-0.7,2.8C138.1,96.8,134.6,99.2,131.9,100.5L131.9,100.5z M92.2,99.8c-0.4-0.1-0.8-0.2-1.2-0.3l12.2-8.9l10,2
			C109.6,95.4,100.7,101.5,92.2,99.8L92.2,99.8z M81.1,92.9c-2.1-2.4-4-5-5.6-7.7l12.8,2.5L81.1,92.9z M83.3,78.2l5.3,7.3L75.8,83
			C78.1,81.2,80.6,79.6,83.3,78.2L83.3,78.2z M91.8,86.2l-6.5-8.8c2-0.8,4-1.4,6.2-1.7l9,12.2L91.8,86.2z M91.1,88.3l9.1,1.8
			l-11.7,8.6c-2.2-1.1-4.2-2.5-5.9-4.1L91.1,88.3z M121,109.8c-4,2.1-5.9,3.8-6.8,5.8c-1,2.2-0.6,4.5-0.1,7.7c0.3,1.9-2,5.5-4.9,6.7
			c-1.1,0.5-1.9,0.4-2.3-0.2c-0.9-1.1-0.8-4.6-0.8-7.3c0-3.8,0-7.1-1.5-8.6c-0.6-0.5-1.3-0.7-2.1-0.6c-0.7,0.1-1.4,0.2-2.1,0.3
			c-4,0.6-6.6,0.9-7.9-1.9c-2.1-4.4,2.2-7.7,4.2-8.8c0.4-0.2,0.8-0.5,1.1-0.9c4.7-0.7,9.2-2.5,13.2-5.1
			C115.6,99.9,119.3,104.4,121,109.8L121,109.8z"/>
		<circle class="st3" cx="387.4" cy="351" r="20.6"/>
		<circle class="st11" cx="367.3" cy="369.8" r="10.3"/>
		<circle class="st12" cx="367.5" cy="369.7" r="3.5"/>
		<path class="st13" d="M389,360.5v2.3c0,0.7-0.5,1.2-1.2,1.2h-2.4c-0.7,0-1.2-0.5-1.2-1.2v-2.3H389z"/>
		<path class="st14" d="M395.3,345.7h-17.5c-1.7,0-3.1-1.4-3.1-3.1l0,0c0-1.7,1.4-3.1,3.1-3.1h17.5c1.7,0,3.1,1.4,3.1,3.1l0,0
			C398.4,344.3,397,345.7,395.3,345.7z"/>
		<path class="st15" d="M395.3,345.7v6.1c0,4.8-3.9,8.7-8.7,8.7l0,0l0,0c-4.8,0-8.7-3.9-8.7-8.7v-6.1"/>
		<path class="st13" d="M380.6,329.5L380.6,329.5c-1.2,0-2.2,1-2.2,2.2v7.9h4.4v-7.9C382.7,330.5,381.8,329.5,380.6,329.5z"/>
		<path class="st13" d="M392.6,329.5L392.6,329.5c-1.2,0-2.2,1-2.2,2.2v7.9h4.4v-7.9C394.8,330.5,393.8,329.5,392.6,329.5
			C392.6,329.5,392.6,329.5,392.6,329.5z"/>
		<path d="M367.5,365.1c-0.7,0-1.4,0.2-2.1,0.5c-6.3-9-6.2-20.9,0.1-29.8c0.4-0.5,0.2-1.2-0.3-1.5s-1.2-0.2-1.5,0.3
			c-6.9,9.7-6.9,22.8,0.1,32.5c-1.5,2.1-1.1,5,1,6.5c1.8,1.4,4.4,1.2,6-0.5l0,0c1.8-1.8,1.8-4.7,0-6.6
			C370,365.6,368.8,365.1,367.5,365.1L367.5,365.1z M369.3,371.5c-1,1-2.5,1-3.5,0c-1-1-1-2.5,0-3.5c1-1,2.5-1,3.5,0
			C370.2,369,370.2,370.5,369.3,371.5L369.3,371.5z"/>
		<path d="M401.6,371.6c-3.1,2.2-6.7,3.8-10.4,4.4c-0.9,0.2-1.8-0.1-2.5-0.6c-0.7-0.6-1.1-1.4-1.1-2.3v-8h0.1c1.3,0,2.3-1,2.3-2.3
			c0,0,0,0,0,0V361c3.8-1.5,6.3-5.1,6.3-9.2v-5.2c2.2-0.6,3.5-2.9,2.9-5.1c-0.4-1.6-1.8-2.8-3.5-3v-6.8c0-1.8-1.5-3.3-3.3-3.3
			c-1.8,0-3.3,1.5-3.3,3.3c0,0,0,0,0,0v6.8h-5.5v-6.8c0.1-1.8-1.3-3.4-3.1-3.5c-1.8-0.1-3.4,1.3-3.5,3.1c0,0.1,0,0.2,0,0.3v6.8
			c-2.3,0.3-3.9,2.4-3.6,4.7c0.2,1.7,1.4,3,3,3.5v5.2c0,4.1,2.5,7.7,6.3,9.2v1.9c0,1.3,1,2.3,2.3,2.3c0,0,0,0,0,0h0.1v8
			c0,2.9,2.3,5.2,5.2,5.2c0,0,0,0,0,0c0.3,0,0.6,0,0.9-0.1c4.1-0.7,8-2.4,11.3-4.8c0.5-0.4,0.6-1,0.2-1.5
			C402.8,371.4,402.1,371.3,401.6,371.6L401.6,371.6L401.6,371.6z M391.5,331.6c0-0.6,0.5-1.1,1.1-1.1c0.6,0,1.1,0.5,1.1,1.1v6.8
			h-2.2V331.6z M379.4,331.6c0-0.6,0.5-1.1,1.1-1.1c0.6,0,1.1,0.5,1.1,1.1c0,0,0,0,0,0v6.8h-2.2V331.6z M375.8,342.6
			c0-1.1,0.9-2,2-2h17.5c1.1,0,2,0.9,2,2c0,1.1-0.9,2-2,2h-17.4C376.7,344.5,375.9,343.7,375.8,342.6L375.8,342.6z M378.9,351.8v-5
			h15.4v5c0.1,4.2-3.2,7.8-7.4,7.9c-4.2,0.1-7.8-3.2-7.9-7.4C378.9,352.1,378.9,351.9,378.9,351.8L378.9,351.8z M385.2,362.8v-1.3
			c0.4,0.1,0.9,0.1,1.3,0.1c0.4,0,0.9,0,1.3-0.1v1.3c0,0.1,0,0.1-0.1,0.1h-2.4C385.3,362.9,385.3,362.9,385.2,362.8L385.2,362.8z"/>
		<path d="M404.8,368.9L404.8,368.9c-0.4,0.4-0.4,1.1,0.1,1.5c0,0,0,0,0,0c0.4,0.4,1.1,0.4,1.5,0l0,0c0.4-0.4,0.4-1.1,0-1.5
			C405.9,368.5,405.2,368.5,404.8,368.9L404.8,368.9z"/>
		<path d="M414.5,348.7c-1-13.8-11.9-24.8-25.7-25.8c-6.5-0.5-13.1,1.3-18.4,5c-0.5,0.3-0.6,1-0.3,1.5c0,0,0,0,0,0
			c0.3,0.5,1,0.6,1.5,0.3c0,0,0,0,0,0c10.3-7.2,24.2-6,33.2,2.8c9.1,9,10.2,23.2,2.6,33.5c-0.4,0.5-0.2,1.2,0.2,1.5
			c0.5,0.4,1.2,0.2,1.5-0.2l0,0C413.1,361.8,415,355.3,414.5,348.7z"/>
		<path d="M367.4,332.9c0.3,0,0.6-0.1,0.8-0.3l0,0c0.5-0.4,0.5-1.1,0.1-1.5c-0.4-0.5-1.1-0.5-1.5-0.1c0,0-0.1,0.1-0.1,0.1l0,0
			c-0.4,0.4-0.4,1.1,0,1.5c0,0,0,0,0,0C366.8,332.8,367.1,332.9,367.4,332.9z"/>
		<path d="M386.8,356.5l2.3-4c0.2-0.3,0.2-0.8,0-1.1c-0.2-0.3-0.5-0.5-0.9-0.5h-0.8l1.4-1.9c0.4-0.5,0.3-1.2-0.2-1.5
			c-0.5-0.4-1.2-0.3-1.5,0.2l0,0l-2.9,3.6c-0.4,0.5-0.3,1.2,0.2,1.5c0.2,0.2,0.4,0.2,0.7,0.2h1.2l-1.3,2.4c-0.3,0.5-0.1,1.2,0.4,1.5
			c0,0,0,0,0,0C385.8,357.1,386.5,357,386.8,356.5L386.8,356.5z"/>
		<path class="st16" d="M314.3,275.2c0-1.9-0.5-3.7-1.5-5.2l-9.4-15.1c-1.2-2.3-1.8-4.9-1.8-7.5v-46.8c0-30.3-24.6-55-55-55
			c0,0,0,0,0,0h-25.4c-30.3,0-55,24.6-55,54.9c0,0,0,0,0,0v46.8c0,2.6-0.6,5.2-1.8,7.5l-9.4,15.2c-1,1.6-1.5,3.4-1.5,5.2l0,0
			c0,5.4,4.4,9.8,9.9,9.9h140.9C309.9,285.1,314.3,280.7,314.3,275.2z"/>
		<polygon class="st16" points="246.6,145.6 267.8,116 200.1,116 221.3,145.6 221.3,154 246.6,154 		"/>
		<path class="st17" d="M312.8,270l-9.4-15.1c-1.2-2.3-1.8-4.9-1.8-7.5v-46.8c0-12.2-4-24.1-11.5-33.8c-11.3,62.2-51,98-88.3,118.4
			h102.7c5.5,0,9.9-4.4,9.9-9.8C314.4,273.4,313.9,271.6,312.8,270L312.8,270z"/>
		<path class="st18" d="M255.1,209v-2.7c0-7.8-6.3-14.2-14.2-14.2h-2.8v-8.5h-8.5v8.5H227c-7.8,0-14.2,6.3-14.2,14.2
			c0,6,3.7,11.3,9.3,13.4l7.7,2.9v16.1H227c-3.2,0-5.7-2.6-5.7-5.7l0,0v-2.7h-8.5v2.7c0,7.8,6.4,14.2,14.2,14.2h13.9
			c7.8,0,14.2-6.3,14.3-14.1c0-6-3.7-11.3-9.3-13.4l-7.7-2.9v-16.1h2.7c3.2,0,5.7,2.6,5.7,5.7c0,0,0,0,0,0l0,0v2.7H255.1z
			 M242.9,227.4c2.2,0.9,3.7,3,3.7,5.4c0,3.2-2.6,5.7-5.7,5.7h0h-2.7v-13L242.9,227.4z M229.7,213.5l-4.7-1.8
			c-2.2-0.9-3.7-3-3.7-5.4c0-3.2,2.6-5.7,5.7-5.7c0,0,0,0,0,0h2.7L229.7,213.5L229.7,213.5z"/>
		<path class="st19" d="M318.5,158.3L318.5,158.3c-1.4-8.7-8.2-15.5-16.9-16.9l0,0c8.7-1.4,15.5-8.2,16.9-16.9l0,0
			c1.4,8.7,8.3,15.5,17,16.9l0,0C326.8,142.8,320,149.6,318.5,158.3z"/>
		<path class="st19" d="M128.3,242.8L128.3,242.8c-1.4-8.7-8.2-15.5-16.9-16.9l0,0c8.7-1.4,15.5-8.2,16.9-16.9l0,0
			c1.4,8.7,8.2,15.5,16.9,16.9l0,0C136.5,227.3,129.7,234.1,128.3,242.8z"/>
		<path class="st20" d="M354.7,263.5c-3.5-5.8-10.9-7.9-16.9-4.7l-60,25.6c-1.1,0.4-2.2,0.7-3.3,0.7h-74.3c-4.7,0.2-8.6-3.5-8.7-8.2
			c-0.2-4.7,3.5-8.6,8.2-8.7c0.2,0,0.4,0,0.6,0H234c14,0,25.4-11.4,25.3-25.4c0,0,0,0,0,0H189c-11.7,0-22.7,5.3-30,14.4l-26.5,32.1
			l29.8,54.7l114.8-27.6c5-1.1,9.8-2.9,14.3-5.2l59.2-30.3C356.6,277.1,358.4,269.4,354.7,263.5z"/>
		<path class="st21" d="M152.8,326.6l9.5,17.4l114.8-27.6c5-1.1,9.8-2.9,14.3-5.2l32-16.5C270.3,311,199.7,321.1,152.8,326.6z"/>
		<polygon class="st22" points="111.4,285.1 111.4,361.2 166.3,361.2 179,348.5 128.3,272.4 		"/>
		<path class="st23" d="M111.4,361.2h55l12.7-12.7l-9.3-13.9c-18.8,7.8-38.4,13.6-58.3,17.4L111.4,361.2z"/>
		<circle class="st24" cx="149.4" cy="340" r="8.5"/>
		<path d="M111.4,365.4h55c1.1,0,2.2-0.4,3-1.2l12.7-12.7c1.4-1.4,1.6-3.7,0.5-5.3l-2.1-3.2l97.8-22.5c5.3-1.2,10.4-3.1,15.3-5.6
			l59.2-30.5c8.2-4.5,11.1-14.8,6.6-23c-4.5-8.2-14.8-11.1-23-6.6l0,0l0,0l-23.1,9.9l-5.9-11.8c-0.9-1.8-1.4-3.7-1.4-5.7v-46.8
			c0-29.6-22-54.7-51.4-58.6l16.9-23.5c1.4-1.9,0.9-4.6-1-5.9c-0.8-0.5-1.7-0.8-2.6-0.8h-67.6c-2.3,0-4.2,1.9-4.2,4.3
			c0,0.9,0.3,1.7,0.8,2.4l16.9,23.5c-29.4,3.8-51.5,28.9-51.5,58.6v47.6c-2.3,1.9-4.5,4-6.4,6.4L137,277.9l-5.2-7.9
			c-0.6-1-1.6-1.7-2.8-1.9c-1.2-0.2-2.3,0.1-3.3,0.8l-16.9,12.7c-1.1,0.8-1.7,2.1-1.7,3.4v76.1C107.2,363.5,109,365.4,111.4,365.4z
			 M208.3,120.2h51.2l-15.1,21.1h-21.2L208.3,120.2z M170.6,200.5c0-28,22.7-50.7,50.7-50.7l0,0h25.4c28,0,50.7,22.7,50.7,50.7v46.8
			c0,3.3,0.8,6.5,2.2,9.4l5.7,11.5l-29,12.3c-0.5,0.2-1.1,0.3-1.6,0.3h-74.4c-2.3-0.1-4.1-2.1-4-4.4c0.1-2.2,1.8-3.9,4-4H234
			c16.3,0,29.6-13.2,29.6-29.6c0-2.3-1.9-4.2-4.2-4.2h-5.4c0.8-1.8,1.2-3.8,1.2-5.7c0-5.9-3.7-11.2-9.2-13.3l-7.7-2.9v-16.1h2.7
			c3.2,0,5.7,2.6,5.7,5.7c0,0,0,0,0,0l0,0v2.7h8.5v-2.7c0-7.8-6.4-14.2-14.2-14.2h-2.8v-8.5h-8.5v8.5H227c-7.8,0-14.2,6.3-14.2,14.2
			c0,6,3.7,11.3,9.3,13.4l7.7,2.9v16.1H227c-3.2,0-5.7-2.6-5.7-5.7l0,0v-2.7h-8.5v2.7c0,2,0.4,3.9,1.2,5.7h-25
			c-6.4,0-12.7,1.4-18.5,4.2V200.5z M246.6,232.8c0,3.2-2.6,5.7-5.7,5.7h0h-2.7v-13l4.7,1.8C245.2,228.2,246.6,230.4,246.6,232.8
			L246.6,232.8z M229.7,200.5v13l-4.7-1.8c-2.2-0.9-3.7-3-3.7-5.4c0-3.2,2.6-5.7,5.7-5.7c0,0,0,0,0,0L229.7,200.5L229.7,200.5z
			 M162.3,259.7c6.5-8.1,16.3-12.7,26.7-12.7h65.7c-2,9.8-10.7,16.9-20.7,16.9h-33.8c-7-0.2-12.8,5.3-13,12.3s5.3,12.8,12.3,13
			c0.2,0,0.5,0,0.7,0h74.4c1.7,0,3.4-0.3,5-1l60.4-25.8c4.1-2.3,9.2-0.9,11.6,3.2c2.3,4,1,9-2.9,11.4l0,0l-58.9,30.3
			c-4.2,2.2-8.7,3.8-13.4,4.9l-100.8,23.2L142,285.3L162.3,259.7z M115.6,287.2l11.6-8.7l46.5,69.5l-9.1,9h-49L115.6,287.2z"/>
		<path d="M149.4,327.3c-7,0-12.7,5.7-12.7,12.7c0,7,5.7,12.7,12.7,12.7c7,0,12.7-5.7,12.7-12.7c0,0,0,0,0,0
			C162.1,333,156.4,327.3,149.4,327.3z M149.4,344.2c-2.3,0-4.2-1.9-4.2-4.2s1.9-4.2,4.2-4.2c2.3,0,4.2,1.9,4.2,4.2l0,0
			C153.6,342.4,151.8,344.2,149.4,344.2z"/>
		<path class="st2" d="M110.7,230.1c6.8,1.2,12.2,6.5,13.4,13.4c0,2.3,1.9,4.2,4.2,4.2c2.3,0,4.2-1.9,4.2-4.2
			c1.2-6.8,6.5-12.2,13.4-13.4c2.3-0.1,4.1-2.1,4-4.4c-0.1-2.2-1.8-3.9-4-4c-6.8-1.2-12.2-6.5-13.4-13.4c0-2.3-1.9-4.2-4.2-4.2
			c-2.3,0-4.2,1.9-4.2,4.2c-1.2,6.8-6.5,12.2-13.4,13.4c-2.3,0.1-4.1,2.1-4,4.4C106.8,228.3,108.5,230,110.7,230.1L110.7,230.1z
			 M128.3,219.8c1.6,2.4,3.7,4.4,6,6.1c-2.4,1.6-4.4,3.7-6,6c-1.6-2.4-3.7-4.4-6-6C124.6,224.2,126.6,222.2,128.3,219.8L128.3,219.8
			z"/>
		<path class="st18" d="M65.8,300.1h92.3c6.1,0,11.1,5,11.1,11.1v105c0,6.1-5,11.1-11.1,11.1H65.8c-6.1,0-11.1-5-11.1-11.1v-105
			C54.7,305.1,59.7,300.1,65.8,300.1z"/>
		<path class="st11" d="M72.2,307.6h78.4c6.1,0,11.1,5,11.1,11.1v87.5c0,6.1-5,11.1-11.1,11.1H72.2c-6.1,0-11.1-5-11.1-11.1v-87.5
			C61.1,312.6,66.1,307.6,72.2,307.6z"/>
		<path class="st25" d="M141.2,307.7v15.7c0,2.5,2.1,4.5,4.6,4.5c0,0,0,0,0,0h15.9L141.2,307.7z"/>
		<rect x="114.9" y="383" class="st26" width="12.8" height="22.7"/>
		<rect x="136.8" y="374.3" class="st25" width="12.8" height="31.4"/>
		<path class="st27" d="M49.6,417.8v-15.3c0-4.2,3-7.9,7.1-8.7l11.1-2.4c1.4-0.3,2.4-1.5,2.4-2.9h12.4c0,1.4,1,2.7,2.4,2.9l11.2,2.4
			c4.1,0.9,7.1,4.5,7.2,8.7v15.3H49.6z"/>
		<polygon class="st18" points="86.7,391.7 76.5,417.8 66.2,391.7 71.6,390 81.4,390 		"/>
		<path class="st28" d="M64.6,370.4v7.9c0.1,6.5,5.4,11.7,11.9,11.7c0,0,0,0,0,0l0,0c6.5,0.1,11.8-5.2,11.9-11.7c0,0,0,0,0,0v-7.9
			H64.6z"/>
		<path class="st29" d="M74.4,355.3h15.8v7.7c0,4-3.3,7.3-7.4,7.3c0,0,0,0,0,0H64.6v-5.4C64.7,359.6,69,355.3,74.4,355.3
			C74.4,355.3,74.4,355.3,74.4,355.3z"/>
		<path d="M163.6,326.4l-21-20.6c-0.4-0.4-1-0.7-1.6-0.7H77c-3.7,0-6.8,3-6.9,6.7v25.5c0.1,1.3,1.2,2.2,2.4,2.1
			c1.1-0.1,2.1-1,2.1-2.1v-25.6c0-1.3,1-2.3,2.3-2.2h61.9v13.7c0,3.7,3.1,6.8,6.9,6.7h13.9v83.3c0,1.2-1,2.3-2.3,2.2c0,0,0,0,0,0
			h-51.6v-13.1c-0.1-5.3-3.8-9.8-8.9-10.9l-11.2-2.4l-0.1,0c3.3-2.6,5.2-6.6,5.2-10.8v-9.7c1.2-1.6,1.9-3.6,1.9-5.6v-7.7
			c0-1.2-1-2.3-2.3-2.3c0,0,0,0,0,0H74.4c-6.6-0.1-12,5.2-12,11.8c0,0,0,0,0,0v13.4c0,4.2,1.9,8.1,5.2,10.8l-0.2,0.1l-11.1,2.4
			c-5.2,1.1-8.9,5.7-9,11v15.3c0,1.2,1,2.3,2.3,2.2c0,0,0,0,0,0h107.8c3.7,0,6.8-3,6.9-6.7V328C164.2,327.4,164,326.8,163.6,326.4z
			 M66.9,364.9c0.1-4.1,3.4-7.3,7.4-7.3h13.6v5.5c0,2.8-2.3,5-5.1,5H66.9V364.9z M66.9,372.6h15.9c1.1,0,2.2-0.2,3.3-0.6v6.3
			c-0.2,5.3-4.6,9.5-9.9,9.3c-5.1-0.2-9.1-4.2-9.3-9.3V372.6L66.9,372.6z M76.5,392.3c1.7,0,3.3-0.3,4.9-0.8
			c0.6,0.8,1.4,1.5,2.3,1.9l-4.9,12.4V399c-0.1-1.3-1.2-2.2-2.4-2.1c-1.1,0.1-2.1,1-2.1,2.1v6.8l-4.9-12.6c0.9-0.4,1.7-1,2.3-1.9
			C73.2,392,74.8,392.3,76.5,392.3L76.5,392.3z M51.8,402.4c0-3.2,2.3-5.9,5.3-6.5l7.6-1.6l8.3,21.2H51.8L51.8,402.4z M79.8,415.5
			l8.3-21.2l7.7,1.6c3.1,0.7,5.3,3.4,5.4,6.5v13H79.8z M143.4,323.3V313l12.8,12.6h-10.5C144.5,325.6,143.5,324.6,143.4,323.3
			L143.4,323.3z"/>
		<path d="M114.9,380.7c-1.2,0-2.3,1-2.3,2.2c0,0,0,0,0,0v22.7c0,1.2,1,2.3,2.3,2.2c0,0,0,0,0,0h12.8c1.3,0,2.3-1,2.3-2.2V383
			c0-1.3-1-2.3-2.3-2.2H114.9z M125.4,403.4h-8.2v-18.2h8.2V403.4z"/>
		<path d="M134.5,374.3v31.4c0,1.2,1,2.3,2.3,2.2c0,0,0,0,0,0h12.8c1.2,0,2.3-1,2.3-2.2c0,0,0,0,0,0v-31.4c0-1.3-1-2.3-2.3-2.3
			h-12.8C135.6,372,134.5,373,134.5,374.3z M139.1,376.5h8.2v26.9h-8.2L139.1,376.5z"/>
		<path d="M112.8,348h29.3c1.2,0,2.2-1,2.2-2.2c0-1.2-1-2.2-2.2-2.2c0,0,0,0,0,0h-29.3c-1.2,0-2.2,1-2.2,2.2
			C110.6,347,111.6,348,112.8,348C112.8,348,112.8,348,112.8,348z"/>
		<path d="M113.1,330c0.6,0,1.2-0.2,1.6-0.7c0.9-0.9,0.9-2.3,0-3.1c0,0,0,0,0,0c-0.9-0.9-2.3-0.9-3.2,0c-0.9,0.9-0.9,2.3,0,3.1
			c0,0,0,0,0,0C111.9,329.8,112.5,330,113.1,330z"/>
		<path d="M132.2,330c1.2,0,2.2-1,2.2-2.2s-1-2.2-2.2-2.2c0,0,0,0,0,0h-9.9c-1.2,0-2.2,1-2.2,2.2c0,1.2,1,2.2,2.2,2.2c0,0,0,0,0,0
			H132.2z"/>
		<path d="M92.2,330h9.1c1.2,0,2.3-1,2.3-2.2c0,0,0,0,0,0v-9c0-1.2-1-2.3-2.3-2.2c0,0,0,0,0,0h-9.1c-1.2,0-2.3,1-2.3,2.2
			c0,0,0,0,0,0v9C89.9,329,90.9,330,92.2,330C92.2,330,92.2,330,92.2,330z M94.5,321.1h4.6v4.5h-4.5L94.5,321.1z"/>
		<path d="M89.9,345.7c0,1.2,1,2.3,2.3,2.2c0,0,0,0,0,0h9.1c1.2,0,2.3-1,2.3-2.2c0,0,0,0,0,0v-9c0-1.2-1-2.3-2.3-2.2c0,0,0,0,0,0
			h-9.1c-1.2,0-2.3,1-2.3,2.2c0,0,0,0,0,0V345.7z M94.5,339H99v4.5h-4.5L94.5,339z"/>
		<path d="M99.4,375.4c-0.6,0-1.2,0.2-1.6,0.7c-0.9,0.8-0.9,2.2-0.1,3.1c0,0,0,0,0.1,0.1c0.9,0.9,2.3,0.9,3.2,0
			c0.9-0.9,0.9-2.3,0-3.1c0,0,0,0,0,0C100.5,375.7,100,375.4,99.4,375.4z"/>
		<path d="M105.6,375c0.4,0.8,1.2,1.4,2.1,1.4c0.3,0,0.6-0.1,0.9-0.2l31.2-13.3c-0.1,0.9,0.3,1.7,1.1,2.1c1.1,0.6,2.5,0.3,3.1-0.8
			l3.5-5.7c0.4-0.7,0.4-1.6,0-2.3c-0.4-0.7-1.2-1.1-2-1.1h-7.1c-1.2,0-2.3,1-2.3,2.2c0,0.7,0.3,1.4,0.9,1.8l-30.4,13
			C105.7,372.6,105.2,373.9,105.6,375z"/>
		<path d="M74,347.9c0.9-0.9,0.9-2.3,0-3.1c0,0,0,0,0,0c-0.9-0.9-2.3-0.9-3.2,0c-0.9,0.8-0.9,2.2-0.1,3.1c0,0,0,0,0.1,0.1
			C71.7,348.8,73.1,348.8,74,347.9z"/>
	</g>
</g>
</svg>
