<svg height="512" viewBox="0 0 60 60" width="512" xmlns="http://www.w3.org/2000/svg"><g id="012---Money-Growth" fill="none"><g id="Icons_copy" transform="translate(1 1)"><path id="Shape" d="m42.27 57.27c-.5798208.5702077-1.3983916.8269413-2.2.69-.5081392-.083284-.9770566-.3247415-1.34-.69l-6.73-6.74v4.47c0 1.6568542-1.3431458 3-3 3-.0734753.0016609-.1469784-.0016802-.22-.01-1.5665321-.1151888-2.7789934-1.4192389-2.78-2.99v-4.47l-2.46 2.46-4.27 4.28c-.977544.977544-2.562456.977544-3.54 0s-.977544-2.562456 0-3.54l7.74-7.73h11.06l7.74 7.73c.9699707.9806688.9699707 2.5593312 0 3.54z" fill="#7facfa"/><path id="Rectangle-path" d="m3 4h52v38h-52z" fill="#e8edfc"/><path id="Rectangle-path" d="m3 4h49v38h-49z" fill="#f5f5f5"/><path id="Shape" d="m51 17c0 4.9705627-4.0294373 9-9 9-.5024216.0006098-1.0040654-.0395217-1.5-.12-4.3308924-.7350807-7.4998009-4.4871681-7.4998009-8.88s3.1689085-8.14491927 7.4998009-8.88c.4959346-.08047831.9975784-.12060981 1.5-.12 4.9705627 0 9 4.0294373 9 9z" fill="#cad9fc"/><ellipse id="Oval" cx="40.5" cy="17" fill="#e8edfc" rx="7.5" ry="8.88"/><path id="Shape" d="m58 2c-.0032948 1.10320187-.8967981 1.9967052-2 2h-54c-.53059053.00282307-1.0395388-.2101411-1.41-.59-.3798589-.3704612-.59282307-.87940947-.59-1.41.0032948-1.10320187.89679813-1.9967052 2-2h54c.5305905-.00282307 1.0395388.2101411 1.41.59.3798589.3704612.5928231.87940947.59 1.41z" fill="#cad9fc"/><path id="Shape" d="m58 44c-.0032948 1.1032019-.8967981 1.9967052-2 2h-54c-.53059053.0028231-1.0395388-.2101411-1.41-.59-.3798589-.3704612-.59282307-.8794095-.59-1.41.0032948-1.1032019.89679813-1.9967052 2-2h54c1.1011688.0081672 1.9918328.8988312 2 2z" fill="#cad9fc"/><path id="Shape" d="m55 2c-.0032948 1.10320187-.8967981 1.9967052-2 2h-51c-.53059053.00282307-1.0395388-.2101411-1.41-.59-.3798589-.3704612-.59282307-.87940947-.59-1.41.0032948-1.10320187.89679813-1.9967052 2-2h51c.5305905-.00282307 1.0395388.2101411 1.41.59.3798589.3704612.5928231.87940947.59 1.41z" fill="#e8edfc"/><path id="Shape" d="m55 44c-.0032948 1.1032019-.8967981 1.9967052-2 2h-51c-.53059053.0028231-1.0395388-.2101411-1.41-.59-.3798589-.3704612-.59282307-.8794095-.59-1.41.0032948-1.1032019.89679813-1.9967052 2-2h51c1.1011688.0081672 1.9918328.8988312 2 2z" fill="#e8edfc"/><path id="Shape" d="m32.0000006 46-.0000006 9c.0006877 1.0721404-.5708375 2.0631514-1.4991666 2.5995194-.9283291.5363679-2.0723325.5365511-3.0008334.0004806-.2250081-.1347918-.4331436-.295929-.62-.48-.5634227-.5616324-.8800702-1.3244649-.88-2.12v-9z" fill="#a4c2f7"/><path id="Shape" d="m29.0000006 46-.0000006 9c.0006876 1.072484-.5712013 2.0637581-1.5 2.6-.2250081-.1347918-.4331436-.295929-.62-.48-.5634227-.5616324-.8800702-1.3244649-.88-2.12v-9z" fill="#cad9fc"/><path id="Shape" d="m29 21c0 3.3137085-2.6862915 6-6 6-.5059025-.0015378-1.0096916-.0653511-1.5-.19-2.6489982-.6814484-4.5006779-3.0697553-4.5006779-5.805s1.8516797-5.1235516 4.5006779-5.805c.4889242-.1328621.9933451-.2001182 1.5-.2 3.3137085 0 6 2.6862915 6 6z" fill="#cad9fc"/><path id="Shape" d="m26 21c-.0064399 2.7338968-1.8545861 5.120059-4.5 5.81-2.6489982-.6814484-4.5006779-3.0697553-4.5006779-5.805s1.8516797-5.1235516 4.5006779-5.805c2.6456983.6831127 4.4956841 3.0675388 4.5 5.8z" fill="#e8edfc"/><path id="Shape" d="m13 24c0 1.6568542-1.3431458 3-3 3-1.65685425 0-3-1.3431458-3-3s1.34314575-3 3-3c1.6568542 0 3 1.3431458 3 3z" fill="#cad9fc"/><path id="Shape" d="m10 24c.0006876 1.072484-.57120128 2.0637581-1.5 2.6-.93008329-.5353928-1.50333705-1.526827-1.50333705-2.6s.57325376-2.0646072 1.50333705-2.6c.92879872.5362419 1.5006876 1.527516 1.5 2.6z" fill="#e8edfc"/><path id="Shape" d="m37.6 32.99-4.79 4.71c-.72.7-1.81.1-1.81-1v-1.7l-14.01-1.87c-.5663595-.0755139-.9893348-.5586285-.9893348-1.13s.4229753-1.0544861.9893348-1.13l14.01-1.87v-1.7c0-1.1 1.09-1.7 1.81-1l4.79 4.71c.5297849.5536848.5297849 1.4263152 0 1.98z" fill="#cad9fc"/><path id="Shape" d="m34.6 32.99-3.6 3.54v-1.53l-14.01-1.87c-.5663595-.0755139-.9893348-.5586285-.9893348-1.13s.4229753-1.0544861.9893348-1.13l14.01-1.87v-1.53l3.6 3.54c.5297849.5536848.5297849 1.4263152 0 1.98z" fill="#e8edfc"/></g><path id="Shape" d="m2 42c-.80631139.0033854-1.5317303.4906258-1.83983461 1.2357575s-.13862704 1.6024026.42983461 2.1742425c.3704612.3798589.87940947.5928231 1.41.59h3c-1.1045695 0-2-.8954305-2-2s.8954305-2 2-2h1v-38h-1c-1.1045695 0-2-.8954305-2-2s.8954305-2 2-2h-3c-.80631139.00338536-1.5317303.49062584-1.83983461 1.23575754s-.13862704 1.60240256.42983461 2.17424246c.718.738 1.575.59 2.41.59v38z" fill="#fff" transform="translate(1 1)"/><path id="Rectangle-path" d="m3 35h2v8h-2z" fill="#fff"/><g fill="#428dff"><path id="Shape" d="m5.02 39c-.00439867-.554357-.45562666-1.0011174-1.01-1-.55094938.0055098-.99364192.4556353-.98997789 1.0066001.00366403.5509647.45230402.9951627 1.00327794.9933445.55097393-.0018183.9966724-.4489677.99669995-.9999446z"/><path id="Shape" d="m60 3c0-1.65685425-1.3431458-3-3-3h-54c-1.65685425 0-3 1.34314575-3 3s1.34314575 3 3 3v29c0 .5522847.44771525 1 1 1s1-.4477153 1-1v-29h50v36h-52c-1.65685425 0-3 1.3431458-3 3s1.34314575 3 3 3h19.054l-6.034 6.026c-1.3671808 1.3691139-1.3656138 3.587319.0035001 4.9544999 1.3691138 1.3671809 3.587319 1.3656139 4.9544999-.0034999l5.022-5.031v2.054c0 2.209139 1.790861 4 4 4s4-1.790861 4-4v-2.054l5.026 5.034c1.3691139 1.3671809 3.5873191 1.3656139 4.9545-.0035s1.3656139-3.5873191-.0035-4.9545l-6.031-6.022h19.054c1.6568542 0 3-1.3431458 3-3s-1.3431458-3-3-3v-36c1.6568542 0 3-1.34314575 3-3zm-34 48.116-6.434 6.444c-.3790588.3803092-.9322161.529504-1.451103.3913841-.5188868-.1381199-.924672-.5425709-1.0645-1.061-.1398281-.5184292.0075442-1.0720749.386603-1.4523841l7.447-7.438h1.116zm6 4.884c0 1.1045695-.8954305 2-2 2s-2-.8954305-2-2v-8h4zm10.56-.566c.3803093.3792374.5294087.9325598.3911341 1.451536s-.5429162.9247613-1.0615 1.0645c-.5185839.1397388-1.0723249-.0077985-1.4526341-.387036l-6.437-6.447v-3.116h1.116zm15.14-11.134c.2801197.2857003.3629755.7108712.210632 1.0808485-.1523436.3699772-.5105568.6135314-.910632.6191515h-54c-.55228475 0-1-.4477153-1-1s.44771525-1 1-1c57.654 0 54.228-.177 54.7.3zm-54.7-40.3c-.55228475 0-1-.44771525-1-1s.44771525-1 1-1h54c.5522847 0 1 .44771525 1 1s-.4477153 1-1 1z"/><path id="Shape" d="m40.667 20.5c0-.5522847-.4477153-1-1-1-1.825 0-1.209 3.726 2.346 4.4.0331679.5207463.4651985.9261351.987.9261351s.9538321-.4053888.987-.9261351c1.7842443-.188694 3.1858932-1.6129636 3.346-3.4-.15753-1.7833785-1.5531095-3.2070119-3.333-3.4v-2.938c.772.251 1.333.767 1.333 1.338 0 .5522847.4477153 1 1 1 1.825 0 1.209-3.726-2.346-4.4-.0331679-.5207463-.4651985-.9261351-.987-.9261351s-.9538321.4053888-.987.9261351c-1.7842443.188694-3.1858932 1.6129636-3.346 3.4.15753 1.7833785 1.5531095 3.2070119 3.333 3.4v2.941c-.772-.254-1.333-.77-1.333-1.341zm3.333-1.338c1.77.575 1.772 2.1 0 2.676zm-2-5v2.676c-1.77-.575-1.772-2.101 0-2.676z"/><path id="Shape" d="m11 29c2.1445409-.0070093 3.9019823-1.7040166 3.984-3.847l2.523-.552c1.2674134 3.1759173 4.6461821 4.9689667 7.9866981 4.2383915s5.6623394-3.7703515 5.4883019-7.1853915l2.518-.554c1.6527063 5.0655489 6.9870074 7.9455283 12.1289132 6.548378 5.1419057-1.3971503 8.2852111-6.5806512 7.1471175-11.7860299-1.1380935-5.2053786-6.1578061-8.60413372-11.4136146-7.72794865-5.2558086.87618507-8.9014973 5.71953145-8.2894161 11.01260055l-2.473.543c-1.164131-3.3422864-4.6415457-5.2881634-8.0990515-4.5320332-3.4575058.7561303-5.8052281 3.9759207-5.4679485 7.4990332l-2.481.543c-.8900282-1.7520389-2.922773-2.5957359-4.79186793-1.9888795-1.86909494.6068564-3.01852386 2.4837392-2.70959327 4.4244485.3089306 1.9407092 1.9843204 3.367925 3.9494612 3.364431zm32-19c4.418278 0 8 3.581722 8 8s-3.581722 8-8 8-8-3.581722-8-8c.0049599-4.4162219 3.5837781-7.9950401 8-8zm-19 7c2.7614237 0 5 2.2385763 5 5s-2.2385763 5-5 5-5-2.2385763-5-5c.0033061-2.7600532 2.2399468-4.9966939 5-5zm-13 6c1.1045695 0 2 .8954305 2 2s-.8954305 2-2 2-2-.8954305-2-2 .8954305-2 2-2z"/><path id="Shape" d="m8 10h14c.5522847 0 1-.44771525 1-1s-.4477153-1-1-1h-14c-.55228475 0-1 .44771525-1 1s.44771525 1 1 1z"/><path id="Shape" d="m8 14h11c.5522847 0 1-.4477153 1-1s-.4477153-1-1-1h-11c-.55228475 0-1 .4477153-1 1s.44771525 1 1 1z"/><path id="Shape" d="m8 18h7c.5522847 0 1-.4477153 1-1s-.4477153-1-1-1h-7c-.55228475 0-1 .4477153-1 1s.44771525 1 1 1z"/><path id="Shape" d="m52 34h-9c-.5522847 0-1 .4477153-1 1s.4477153 1 1 1h9c.5522847 0 1-.4477153 1-1s-.4477153-1-1-1z"/><path id="Shape" d="m40 40h12c.5522847 0 1-.4477153 1-1s-.4477153-1-1-1h-12c-.5522847 0-1 .4477153-1 1s.4477153 1 1 1z"/><path id="Shape" d="m52 30h-7c-.5522847 0-1 .4477153-1 1s.4477153 1 1 1h7c.5522847 0 1-.4477153 1-1s-.4477153-1-1-1z"/><path id="Shape" d="m34.51 39.412 4.791-4.7c.9294553-.9489959.9294553-2.4670041 0-3.416l-4.8-4.706c-.6336044-.5839807-1.560562-.7194884-2.3348191-.3413165-.7742571.3781718-1.2372481 1.1925747-1.1661809 2.0513165v.83l-13.143 1.747c-1.0634553.1425954-1.8573335 1.0500272-1.8573335 2.123s.7938782 1.9804046 1.8573335 2.123l13.143 1.752v.83c-.0737492.8619548.3909118 1.6803241 1.1688932 2.0586758.7779813.3783516 1.7086233.2385527 2.3411068-.3516758zm-16.389-6.271c-.068804-.0116297-.1191672-.0712201-.1191672-.141s.0503632-.1293703.1191672-.141l14.01-1.868c.497182-.065697.8688082-.4894962.869-.991 0-.223-.055-2.148.109-1.984 2.161 2.121 4.9 4.81 4.8 4.707.0641029.077596.0965969.1765062.091.277 0 .262.339-.152-4.878 5-.173-.056-.122-.44-.122-2-.0001252-.5011704-.3712149-.9248455-.868-.991z"/></g></g></svg>