<svg height="512" viewBox="0 0 60 60" width="512" xmlns="http://www.w3.org/2000/svg"><g id="007---Securing-Funding" fill="none"><g id="Icons_copy" transform="translate(1 1)"><path id="Shape" d="m54.92 27h-5.02c-.9558562-10.0155949-8.8844051-17.94414377-18.9-18.9v-5.02c12.7818317.98199348 22.9380065 11.1381683 23.92 23.92z" fill="#cad9fc"/><path id="Shape" d="m3.08 31c.98199348 12.7818317 11.1381683 22.9380065 23.92 23.92v-5.02c-10.0155949-.9558562-17.94414377-8.8844051-18.9-18.9z" fill="#e8edfc"/><path id="Shape" d="m27 3.08c-12.7818317.98199348-22.93800652 11.1381683-23.92 23.92h5.02c.95585623-10.0155949 8.8844051-17.94414377 18.9-18.9z" fill="#e8edfc"/><path id="Shape" d="m54.92 31c-.9819935 12.7818317-11.1381683 22.9380065-23.92 23.92v-5.02c10.0155949-.9558562 17.9441438-8.8844051 18.9-18.9z" fill="#cad9fc"/><path id="Shape" d="m52.42 27h-2.52c-.9558562-10.0155949-8.8844051-17.94414377-18.9-18.9v-4.7c11.6928477 2.04978671 20.5095581 11.7638094 21.42 23.6z" fill="#e8edfc"/><path id="Shape" d="m52.42 31c-.9104419 11.8361906-9.7271523 21.5502133-21.42 23.6v-4.7c10.0155949-.9558562 17.9441438-8.8844051 18.9-18.9z" fill="#e8edfc"/><path id="Shape" d="m41 33c0 5.927-7.1 9.583-13.5 8.93-9.855-.916-14.077-10.061-6.92-15.34.8228306-.6239177 1.337249-1.5718586 1.4119091-2.6017854s-.2976647-2.0421483-1.0219091-2.7782146c-.837283-.7658516-1.1708162-1.9385686-.8618825-3.0304164.3089337-1.0918477 1.2074607-1.9159586 2.3218825-2.1295836.7118553-.1196375 1.4432902-.000076 2.08.34.9410862.4854434 2.0589138.4854434 3 0 .9251623-.520448 2.0548377-.520448 2.98 0 1.0076457.5024767 2.1988948.4725082 3.18-.08 1.3390076-.6653024 2.9635114-.2430596 3.8090792.99006.8455677 1.2331196.6540435 2.9006387-.4490792 3.90994-.7298701.7333022-1.1060413 1.7469767-1.0312372 2.7788908.0748042 1.0319141.5932384 1.9807381 1.4212372 2.6011092 2.1544565 1.436863 3.486584 3.822041 3.58 6.41z" fill="#cad9fc"/><path id="Shape" d="m37.42 26.59c-.8279988-.6203711-1.346433-1.5691951-1.4212372-2.6011092-.0748041-1.0319141.3013671-2.0455886 1.0312372-2.7788908 1.1031227-1.0093013 1.2946469-2.6768204.4490792-3.90994-.8455678-1.2331196-2.4700716-1.6553624-3.8090792-.99006-.064.032-.131.058-.2.087.761165.4163923 1.2984678 1.1489115 1.467 2 .2144364 1.0316578-.1315056 2.0998963-.91 2.81-.7298701.7333022-1.1060413 1.7469767-1.0312372 2.7788908.0748042 1.0319141.5932384 1.9807381 1.4212372 2.6011092 2.1564379 1.4368073 3.4898554 3.8234124 3.583 6.413 0 5.023-5.1 8.4-10.551 8.924l.051.006c6.4.653 13.5-3 13.5-8.93-.093416-2.587959-1.4255435-4.973137-3.58-6.41z" fill="#a4c2f7"/><g fill="#cad9fc"><rect id="Rectangle-path" height="11" rx="2" width="4" x="27"/><rect id="Rectangle-path" height="11" rx="2" width="4" x="27" y="47"/><path id="Shape" d="m58 29c-.0081672 1.1011688-.8988312 1.9918328-2 2h-7c-1.1045695 0-2-.8954305-2-2s.8954305-2 2-2h7c1.1032019.0032948 1.9967052.8967981 2 2z"/></g><path id="Shape" d="m55 29c-.0081672 1.1011688-.8988312 1.9918328-2 2h-4c-1.1045695 0-2-.8954305-2-2s.8954305-2 2-2h4c1.1032019.0032948 1.9967052.8967981 2 2z" fill="#e8edfc"/><path id="Shape" d="m11 29c-.0081672 1.1011688-.8988312 1.9918328-2 2h-7c-1.1045695 0-2-.8954305-2-2s.8954305-2 2-2h7c1.1032019.0032948 1.9967052.8967981 2 2z" fill="#cad9fc"/><path id="Shape" d="m8 29c-.00816722 1.1011688-.89883122 1.9918328-2 2h-4c-1.1045695 0-2-.8954305-2-2s.8954305-2 2-2h4c1.10320187.0032948 1.9967052.8967981 2 2z" fill="#e8edfc"/></g><path id="Shape" d="m27.5 51.42c-12.77-.97-20.45-10.65-21.42-23.42h-1.08c-1.1045695 0-2-.8954305-2-2s.8954305-2 2-2h1.08c.97-12.77 9.15-21.95 21.92-22.92l-1-1c-12.7818317.98199348-22.93800652 11.1381683-23.92 23.92h-1.08c-1.10456947 0-1.99999992.8954305-1.99999992 2s.89543045 2 1.99999992 2h1.08c.98199348 12.7818317 11.1381683 22.9380065 23.92 23.92z" fill="#fff" transform="translate(1 4)"/><path id="Shape" d="m6.846 39.376-1.853.751c-1.03534272-2.5731641-1.67916129-5.2869773-1.91-8.051l1.994-.152c.21519456 2.5582468.81144452 5.0699793 1.769 7.452z" fill="#fff"/><g fill="#428dff"><path id="Shape" d="m5.726 35.953c-.00385272-.5545871-.45540198-1.0016656-1.01-1-.55094938.0055098-.99364192.4556353-.98997789 1.0066001.00366403.5509647.45230402.9951627 1.00327794.9933445.55097393-.0018183.9966724-.4489677.99669995-.9999446z"/><path id="Shape" d="m44.982 27.815c-.3-1.609-1.833-2.649-3.468-3.315 1.635-.666 3.165-1.706 3.468-3.315.0814899-.357178-.038858-.7303238-.3136799-.9725833s-.6601174-.3148457-1.0042509-.1891919c-.3441334.1256539-.5920073.42943-.6460692.7917752-.239 1.263-2.693 2.124-4.645 2.543.0897123-.1477207.1994176-.2823284.326-.4 1.4764006-1.3426813 1.7372804-3.5681715.6114261-5.2158983s-3.2939687-2.2135405-5.0814261-1.3261017c-.6875002.3893396-1.5182716.4319528-2.242.115-1.2347361-.6889313-2.7382639-.6889313-3.973 0-.7237667.318073-1.5552116.275815-2.243-.114-1.7855265-.8804179-3.9467302-.3137904-5.0706083 1.3294195-1.1238781 1.6432098-.868312 3.8627941.5996083 5.2075805.502749.5331818.7553545 1.2548204.6948909 1.9851516-.0604635.7303311-.4283043 1.4006035-1.0118909 1.8438484-2.4184701 1.6183255-3.902946 4.3081229-3.983 7.217 0 5.514 5.832 10 13 10s13-4.486 13-10c-.0805063-2.9092489-1.565769-5.5991212-3.985-7.217-.4079706-.2987805-.7149909-.7150023-.88-1.193 1.983.4 4.633 1.276 4.883 2.595.0540619.3623452.3019358.6661213.6460692.7917752.3441335.1256538.729429.0530676 1.0042509-.1891919s.3951698-.6154053.3136799-.9725833zm-22.941-8.231c.127864-.605151.5285221-1.1170949 1.085212-1.3866376.5566899-.2695428 1.2067694-.2663538 1.760788.0086376 1.2767965.7093284 2.824396.7303638 4.12.056.6177733-.3435903 1.3692267-.3435903 1.987 0 1.2956288.6735667 2.8428503.6517802 4.119-.058.8933719-.4472683 1.979774-.166659 2.5447972.6573017.5650232.8239606.4353288 1.9384966-.3037972 2.6106983-.5842337.5541099-.99429 1.2664959-1.18 2.05-4.0915796.6340805-8.2564204.6340805-12.348 0-.18571-.7835041-.5957663-1.4958901-1.18-2.05-.5194263-.4792932-.7491163-1.196078-.605-1.888zm7.959 22.416c-9.669 0-14.688-8.545-7.827-13.608.9388396-.6745847 1.5737705-1.6921989 1.767-2.832 4.0197909.585511 8.1032091.585511 12.123 0 .1934086 1.138974.8270121 2.1561877 1.764 2.832 6.901 5.092 1.806 13.608-7.827 13.608z"/><path id="Shape" d="m32.333 31.5c0 .5522847.4477153 1 1 1 1.824 0 1.209-3.726-2.346-4.4-.0331679-.5207463-.4651985-.9261351-.987-.9261351s-.9538321.4053888-.987.9261351c-1.7842443.188694-3.1858932 1.6129636-3.346 3.4.15753 1.7833785 1.5531095 3.2070119 3.333 3.4v2.941c-.772-.251-1.333-.767-1.333-1.338 0-.5522847-.4477153-1-1-1-1.824 0-1.209 3.726 2.346 4.4.0331679.5207463.4651985.9261351.987.9261351s.9538321-.4053888.987-.9261351c1.7842443-.188694 3.1858932-1.6129636 3.346-3.4-.1561757-1.7845443-1.5520867-3.2097724-3.333-3.403v-2.938c.772.251 1.333.767 1.333 1.338zm-3.333 1.338c-1.769-.575-1.772-2.1 0-2.676zm2 5v-2.676c1.77.575 1.771 2.101 0 2.676z"/><path id="Shape" d="m56.8 27c-1.4579464-12.4908017-11.3091983-22.34205359-23.8-23.8.0642933-1.1131294-.4930267-2.17035029-1.4477323-2.74630854-.9547056-.57595826-2.1498298-.57595826-3.1045354 0-.9547056.57595825-1.5120256 1.63317914-1.4477323 2.74630854-12.4908017 1.45794641-22.34205359 11.3091983-23.8 23.8-1.65685425-.0552285-3.04477152 1.2431458-3.1 2.9-.05522847 1.6568542 1.24314575 3.0447715 2.9 3.1h5.23c1.33576094 9.759797 9.010203 17.4342391 18.77 18.77v3.021c-9.0216183-1.0903624-16.7396299-6.9935652-20.154-15.415-.22532436-.492522-.78961406-.7312599-1.3-.55-.2518042.0912436-.45410825.2834283-.55814183.5302233s-.10035757.5258082.01014183.7697767c3.71839159 9.175336 12.1633409 15.5771772 22.002 16.679-.0642933 1.1131294.4930267 2.1703503 1.4477323 2.7463085.9547056.5759583 2.1498298.5759583 3.1045354 0 .9547056-.5759582 1.5120256-1.6331791 1.4477323-2.7463085 12.4924428-1.4584158 22.3442084-11.3122512 23.8-23.805 1.1131294.0642933 2.1703503-.4930267 2.7463085-1.4477323.5759583-.9547056.5759583-2.1498298 0-3.1045354-.5759582-.9547056-1.6331791-1.5120256-2.7463085-1.4477323zm-23.8-21.791c11.389673 1.4309404 20.3600596 10.401327 21.791 21.791h-3.021c-1.3357609-9.759797-9.010203-17.43423906-18.77-18.77zm-4-2.209c0-.55228475.4477153-1 1-1s1 .44771525 1 1v7c0 .5522847-.4477153 1-1 1s-1-.4477153-1-1zm-2 2.209v3.021c-9.759797 1.33576094-17.43423906 9.010203-18.77 18.77h-3.021c1.4309404-11.389673 10.401327-20.3600596 21.791-21.791zm-24 25.791c-.55228475 0-1-.4477153-1-1s.44771525-1 1-1h7c.5522847 0 1 .4477153 1 1s-.4477153 1-1 1zm28 26c0 .5522847-.4477153 1-1 1s-1-.4477153-1-1v-7c0-.5522847.4477153-1 1-1s1 .4477153 1 1zm1.975-7.244c-.1209294-1.5534992-1.4168011-2.7524163-2.975-2.7524163s-2.8540706 1.1989171-2.975 2.7524163c-8.6740426-1.2976178-15.4838653-8.1070348-16.782-16.781 1.5534992-.1209294 2.7524163-1.4168011 2.7524163-2.975s-1.1989171-2.8540706-2.7524163-2.975c1.2981347-8.6739652 8.1079574-15.4833822 16.782-16.781.1209294 1.5534992 1.4168011 2.7524163 2.975 2.7524163s2.8540706-1.1989171 2.975-2.7524163c8.6740426 1.2976178 15.4838653 8.1070348 16.782 16.781-1.5534992.1209294-2.7524163 1.4168011-2.7524163 2.975s1.1989171 2.8540706 2.7524163 2.975c-1.2981347 8.6739652-8.1079574 15.4833822-16.782 16.781zm.025 5.035v-3.021c9.759797-1.3357609 17.4342391-9.010203 18.77-18.77h3.021c-1.4309404 11.389673-10.401327 20.3600596-21.791 21.791zm24-23.791h-7c-.5522847 0-1-.4477153-1-1s.4477153-1 1-1h7c.5522847 0 1 .4477153 1 1s-.4477153 1-1 1z"/></g></g></svg>