<svg height="512" viewBox="0 0 40 60" width="512" xmlns="http://www.w3.org/2000/svg" xmlns:xlink="http://www.w3.org/1999/xlink"><linearGradient id="linearGradient-1" x1="-11.148%" x2="111.148%" y1="8.791%" y2="91.209%"><stop offset="0" stop-color="#d3dff2"/><stop offset=".172" stop-color="#d3dff2"/><stop offset=".2" stop-color="#d3dff2"/><stop offset=".2" stop-color="#dae2f2"/><stop offset=".201" stop-color="#ebeaf2"/><stop offset=".201" stop-color="#f6eff2"/><stop offset=".202" stop-color="#fdf2f2"/><stop offset=".205" stop-color="#fff3f2"/><stop offset=".252" stop-color="#fff3f2"/><stop offset=".26" stop-color="#fff3f2"/><stop offset=".26" stop-color="#d3dff2"/><stop offset=".397" stop-color="#d3dff2"/><stop offset=".42" stop-color="#d3dff2"/><stop offset=".42" stop-color="#dae2f2"/><stop offset=".421" stop-color="#ebeaf2"/><stop offset=".421" stop-color="#f6eff2"/><stop offset=".422" stop-color="#fdf2f2"/><stop offset=".425" stop-color="#fff3f2"/><stop offset=".489" stop-color="#fff3f2"/><stop offset=".5" stop-color="#fff3f2"/><stop offset=".5" stop-color="#f8f0f2"/><stop offset=".5" stop-color="#e7e8f2"/><stop offset=".5" stop-color="#dce3f2"/><stop offset=".5" stop-color="#d5e0f2"/><stop offset=".501" stop-color="#d3dff2"/><stop offset=".706" stop-color="#d3dff2"/><stop offset=".74" stop-color="#d3dff2"/><stop offset=".741" stop-color="#fff3f2"/><stop offset=".835" stop-color="#fff3f2"/><stop offset=".85" stop-color="#fff3f2"/><stop offset=".851" stop-color="#d3dff2"/></linearGradient><g id="004---Time-is-Money" fill="none"><g id="Icons_copy" transform="translate(1 1)"><path id="Shape" d="m27.29 30.75c5.3459895 2.740669 8.7088217 8.2424324 8.71 14.25v6c0 .5522847-.4477153 1-1 1h-32c-.55228475 0-1-.4477153-1-1v-6c.00117832-6.0075676 3.3640105-11.509331 8.71-14.25.6500917-.3416876 1.0572017-1.0155822 1.0572017-1.75s-.40711-1.4083124-1.0572017-1.75c-.4764882-.240872-.93739364-.5114035-1.38-.81-1.60841191-1.0293807-3.01490417-2.3443663-4.15-3.88-2.06886722-2.7573951-3.18498469-6.1127671-3.18-9.56v-6c0-.55228475.44771525-1 1-1h32c.0703842.00170355.1405596.00838692.21.02.4602138.10155551.7884357.50871683.79.98v6c-.0011783 6.0075676-3.3640105 11.509331-8.71 14.25-.6500917.3416876-1.0572017 1.0155822-1.0572017 1.75s.40711 1.4083124 1.0572017 1.75z" fill="#a4c2f7"/><path id="Shape" d="m24.29 30.75c5.3459895 2.740669 8.7088217 8.2424324 8.71 14.25v6c0 .5522847-.4477153 1-1 1h-29c-.55228475 0-1-.4477153-1-1v-6c.00117832-6.0075676 3.3640105-11.509331 8.71-14.25.6500917-.3416876 1.0572017-1.0155822 1.0572017-1.75s-.40711-1.4083124-1.0572017-1.75c-.4764882-.240872-.93739364-.5114035-1.38-.81-1.60841191-1.0293807-3.01490417-2.3443663-4.15-3.88-2.06886722-2.7573951-3.18498469-6.1127671-3.18-9.56v-6c0-.55228475.44771525-1 1-1h29c.0703842.00170355.1405596.00838692.21.02.4602138.10155551.7884357.50871683.79.98v6c-.0011783 6.0075676-3.3640105 11.509331-8.71 14.25-.6500917.3416876-1.0572017 1.0155822-1.0572017 1.75s.40711 1.4083124 1.0572017 1.75z" fill="url(#linearGradient-1)"/><path id="Shape" d="m32 12v1c.0092243 4.5084645-2.5145407 8.6400186-6.53 10.69-.6525644.2829761-1.2619107.6566636-1.81 1.11-.4671301.4821835-.7071079 1.1403043-.66 1.81v.17c.0203758 1.0626957-.7651971 1.9691259-1.82 2.1-.06 0-.12.01-.18.01-.5295768-.0022328-1.0366497-.2144122-1.41-.59l-.11-.11c-.3112129-.3614597-.4816375-.8230263-.48-1.3v2c.0203758 1.0626957-.7651971 1.9691259-1.82 2.1-.5907828.0597834-1.1764709-.1538638-1.59-.58l-.11-.11c-.3112129-.3614597-.4816375-.8230263-.48-1.3v-2.21c0-1.73-.89-2.29-2.44-3.08-.01-.01-.02-.01-.03-.02-4.01545932-2.0499814-6.53922432-6.1815355-6.53-10.69v-1c.0032948-1.1032019.89679813-1.9967052 2-2h22c1.1032019.0032948 1.9967052.8967981 2 2z" fill="#fff"/><path id="Shape" d="m30 10h-3c1.1032019.0032948 1.9967052.8967981 2 2v1c.0092243 4.5084645-2.5145407 8.6400186-6.53 10.69-.6525644.2829761-1.2619107.6566636-1.81 1.11-.4671301.4821835-.7071079 1.1403043-.66 1.81v.17c-.0009106.5169971-.1843634 1.0170653-.518 1.412l.108.108c.3733503.3755878.8804232.5877672 1.41.59.06 0 .12-.01.18-.01 1.0548029-.1308741 1.8403758-1.0373043 1.82-2.1v-.17c-.0471079-.6696957.1928699-1.3278165.66-1.81.5480893-.4533364 1.1574356-.8270239 1.81-1.11 4.0154593-2.0499814 6.5392243-6.1815355 6.53-10.69v-1c-.0032948-1.1032019-.8967981-1.9967052-2-2z" fill="#e8edfc"/><path id="Shape" d="m28 43c0 4.9705627-4.0294373 9-9 9-.5024216.0006098-1.0040654-.0395217-1.5-.12-4.3308924-.7350807-7.4998009-4.4871681-7.4998009-8.88s3.1689085-8.1449193 7.4998009-8.88c.4959346-.0804783.9975784-.1206098 1.5-.12 4.9705627 0 9 4.0294373 9 9z" fill="#e8edfc"/><ellipse id="Oval" cx="17.5" cy="43" fill="#fff" rx="7.5" ry="8.88"/><rect id="Rectangle-path" fill="#a4c2f7" height="6" rx="2" width="38"/><rect id="Rectangle-path" fill="#a4c2f7" height="6" rx="2" width="38" y="52"/><g fill="#cad9fc"><rect id="Rectangle-path" height="6" rx="2" width="35"/><rect id="Rectangle-path" height="6" rx="2" width="35" y="52"/></g></g><path id="Shape" d="m2 58h3c-1.10320187-.0032948-1.9967052-.8967981-2-2v-2c.0032948-1.1032019.89679813-1.9967052 2-2h1c-.55228475 0-1-.4477153-1-1v-6c.00117832-6.0075676 3.3640105-11.509331 8.71-14.25.6500917-.3416876 1.0572017-1.0155822 1.0572017-1.75s-.40711-1.4083124-1.0572017-1.75c-5.34243321-2.7445006-8.70378994-8.24385-8.71-14.25v-6c0-.55228475.44771525-1 1-1h-1c-1.10320187-.0032948-1.9967052-.89679813-2-2v-2c.0032948-1.10320187.89679813-1.9967052 2-2h-3c-1.10320187.0032948-1.9967052.89679813-2 2v2c.0032948 1.10320187.89679813 1.9967052 2 2h1c-.55228475 0-1 .44771525-1 1v6c.00963007 6.0051851 3.3699851 11.5028957 8.71 14.25.6500917.3416876 1.0572017 1.0155822 1.0572017 1.75s-.40711 1.4083124-1.0572017 1.75c-5.3459895 2.740669-8.70882168 8.2424324-8.71 14.25v6c0 .5522847.44771525 1 1 1h-1c-1.10320187.0032948-1.9967052.8967981-2 2v2c.0032948 1.1032019.89679813 1.9967052 2 2z" fill="#fff" transform="translate(1 1)"/><path id="Shape" d="m4.123 15.871-1.984.247c-.19252178-2.701521-.23892276-5.4114716-.139-8.118h2c-.09400366 2.62404-.05294941 5.2511786.123 7.871z" fill="#fff"/><g fill="#428dff"><path id="Shape" d="m3 60h34c1.6568542 0 3-1.3431458 3-3v-2c-.0037218-1.2739864-.8134994-2.4059897-2.018-2.821.028-.313.018.011.018-6.179.0146151-6.385417-3.562239-12.2366585-9.252-15.135-.3178837-.1716106-.5160268-.5037518-.5160268-.865s.1981431-.6933894.5160268-.865c5.689761-2.8983415 9.2666151-8.749583 9.252-15.135 0-6.645.007-5.9-.018-6.179 1.2045006-.41501027 2.0142782-1.54701363 2.018-2.821v-2c0-1.65685425-1.3431458-3-3-3h-34c-1.65685425 0-3 1.34314575-3 3v2c.00372178 1.27398637.81349944 2.40598973 2.018 2.821-.005.06-.018.118-.018.179 0 .55228475.44771525 1 1 1s1-.44771525 1-1h32v6c.012941 5.6350109-3.1437333 10.7985801-8.165 13.356-.9839943.5148108-1.6006996 1.5334708-1.6006996 2.644s.6167053 2.1291892 1.6006996 2.644c5.0212667 2.5574199 8.177941 7.7209891 8.165 13.356v6h-10.025c3.4560945-2.5752544 4.8733309-7.0751632 3.5167567-11.1661571-1.3565742-4.0909938-5.1817075-6.852532-9.4917567-6.852532s-8.1351825 2.7615382-9.4917567 6.852532c-1.35657419 4.0909939.0606622 8.5909027 3.5167567 11.1661571h-10.025v-6c-.01294098-5.6350109 3.14373333-10.7985801 8.165-13.356.9846034-.5143257 1.6018581-1.5331558 1.6018581-2.644s-.6172547-2.1296743-1.6018581-2.644c-4.41205158-2.2662434-7.42137141-6.5639353-8.042-11.485-.08222018-.5279509-.55382224-.90584-1.087-.871-.27258061.0173155-.5253324.1484007-.69651147.3612334-.17117908.2128327-.24502149.4878129-.20348853.7577666.70186737 5.5778431 4.11220414 10.4495389 9.113 13.018.3178837.1716106.5160268.5037518.5160268.865s-.1981431.6933894-.5160268.865c-5.68795344 2.8988451-9.26343446 8.7489645-9.249 15.133 0 6.645-.007 5.9.018 6.179-1.20450056.4150103-2.01427822 1.5470136-2.018 2.821v2c0 1.6568542 1.34314575 3 3 3zm0-54c-.55228475 0-1-.44771525-1-1v-2c0-.55228475.44771525-1 1-1h34c.5522847 0 1 .44771525 1 1v2c0 .55228475-.4477153 1-1 1zm9 38c0-4.418278 3.581722-8 8-8s8 3.581722 8 8-3.581722 8-8 8c-4.4162219-.0049599-7.9950401-3.5837781-8-8zm-10 11c0-.5522847.44771525-1 1-1h34c.5522847 0 1 .4477153 1 1v2c0 .5522847-.4477153 1-1 1h-34c-.55228475 0-1-.4477153-1-1z"/><path id="Shape" d="m3.02 13c.55228475 0 1-.4477153 1-1s-.44771525-1-1-1-1 .4477153-1 1 .44771525 1 1 1z"/><path id="Shape" d="m15.874 32.108c.7641739.7742858 1.8895541 1.0706261 2.9359597.7731104 1.0464056-.2975156 1.8475371-1.1416047 2.0900403-2.2021104.970382.3698716 2.0625856.2170197 2.8941499-.4050309.8315643-.6220507 1.2866319-1.6266331 1.2058501-2.6619691 0-1.008.346-1.224 1.811-1.973 4.4157319-2.1957477 7.2024746-6.7074876 7.189-11.639v-1c0-1.6568542-1.3431458-3-3-3h-22c-1.65685425 0-3 1.3431458-3 3v1c-.0090721 4.8977892 2.73933282 9.3837182 7.107 11.6 2.184 1.116 1.893 1.14 1.893 4.4-.0059733.7919954.309374 1.5525814.874 2.108zm-1.887-8.308c-3.6820616-1.8784201-5.99625949-5.6664841-5.987-9.8v-1c0-.5522847.44771525-1 1-1h22c.5522847 0 1 .4477153 1 1v1c.0117063 4.1800387-2.3540022 8.0031789-6.1 9.858-1.968 1.007-2.9 1.711-2.9 3.917.0399457.4221146-.1890584.8239608-.5725851 1.0047471-.3835266.1807862-.839233.1016977-1.1394149-.1977471-.388-.374-.288-.507-.288-3.582 0-.5522847-.4477153-1-1-1s-1 .4477153-1 1v4.888c.0222991.5466723-.3670023 1.0239637-.907 1.112-.2804909.0243491-.5583499-.0699564-.7660739-.2600057-.2077239-.1900494-.3263018-.4584493-.3269261-.7399943 0-3.509.3-4.5-3.013-6.2z"/><path id="Shape" d="m13 14h-2c-.5522847 0-1 .4477153-1 1s.4477153 1 1 1h2c.5522847 0 1-.4477153 1-1s-.4477153-1-1-1z"/><path id="Shape" d="m17 16h12c.5522847 0 1-.4477153 1-1s-.4477153-1-1-1h-12c-.5522847 0-1 .4477153-1 1s.4477153 1 1 1z"/><path id="Shape" d="m16.518 48.874c1.491 1.019 3.527 1.209 4.779-.042 1.1468134-1.3731796 1.1652277-3.364851.044-4.759l2.08-2.08c.3929016.5683756.3929016 1.3206244 0 1.889-.187777.1875683-.2932867.4420908-.2932867.7075s.1055097.5199317.2932867.7075c1.278 1.275 3.5-1.769 1.452-4.771.3865993-.3865993.3865993-1.0134006 0-1.4-.3865994-.3865993-1.0134007-.3865993-1.4 0-1.3954656-1.1279609-3.3936783-1.1120455-4.771.038-1.1468134 1.3731796-1.1652277 3.364851-.044 4.759l-2.08 2.08c-.3929016-.5683756-.3929016-1.3206244 0-1.889.187777-.1875683.2932867-.4420908.2932867-.7075s-.1055097-.5199317-.2932867-.7075c-1.278-1.275-3.5 1.769-1.452 4.771-.3877039.3843902-.3903901 1.0102961-.006 1.398.3843902.3877038 1.0102961.3903901 1.398.006zm5.489-8.3-1.893 1.892c-.845-1.653.233-2.733 1.893-1.887zm-2.121 4.95c.845 1.657-.233 2.739-1.893 1.892z"/></g></g></svg>