<svg id="Group_511" data-name="Group 511" xmlns="http://www.w3.org/2000/svg" xmlns:xlink="http://www.w3.org/1999/xlink" width="1821.256" height="354.928" viewBox="0 0 1821.256 354.928">
  <defs>
    <clipPath id="clip-path">
      <rect id="Rectangle_228" data-name="Rectangle 228" width="1821.256" height="354.928" fill="none"/>
    </clipPath>
  </defs>
  <g id="Group_508" data-name="Group 508">
    <g id="Group_507" data-name="Group 507" clip-path="url(#clip-path)">
      <path id="Path_199" data-name="Path 199" d="M921.948,322.436H543.035A46.088,46.088,0,0,1,497,276.4V46.038A46.088,46.088,0,0,1,543.035,0H921.948V60.4H888.509A29.589,29.589,0,0,0,858.956,89.95V231.335a29.588,29.588,0,0,0,29.553,29.552h33.439ZM543.035,9.143a36.935,36.935,0,0,0-36.894,36.895V276.4a36.934,36.934,0,0,0,36.894,36.894H912.806V270.03h-24.3a38.741,38.741,0,0,1-38.7-38.695V89.95a38.74,38.74,0,0,1,38.7-38.695h24.3V9.143Z" fill="#338ae8"/>
      <path id="Path_200" data-name="Path 200" d="M1373.526,325.745H994.613a46.087,46.087,0,0,1-46.037-46.037V49.347A46.087,46.087,0,0,1,994.613,3.309h378.913v60.4h-33.439a29.588,29.588,0,0,0-29.553,29.553V234.644a29.588,29.588,0,0,0,29.553,29.553h33.439ZM994.613,12.452a36.935,36.935,0,0,0-36.895,36.9V279.708A36.935,36.935,0,0,0,994.613,316.6h369.771V273.339h-24.3a38.74,38.74,0,0,1-38.7-38.695V93.259a38.74,38.74,0,0,1,38.7-38.7h24.3V12.452Z" fill="#338ae8"/>
      <path id="Path_201" data-name="Path 201" d="M1821.255,324.436H1470.609a46.086,46.086,0,0,1-46.033-46.037V48.038A46.086,46.086,0,0,1,1470.609,2h350.646ZM1470.609,11.143a36.935,36.935,0,0,0-36.891,36.895V278.4a36.934,36.934,0,0,0,36.891,36.894h341.5V11.143Z" fill="#2192a2"/>
      <path id="Path_202" data-name="Path 202" d="M74.757,94.125V241.12H25.2V131.5H0V94.125Z" fill="#ff3654"/>
      <path id="Path_203" data-name="Path 203" d="M464.413,322.436H85.5A46.088,46.088,0,0,1,39.463,276.4V46.038A46.088,46.088,0,0,1,85.5,0H464.413V60.4H430.974A29.588,29.588,0,0,0,401.421,89.95V231.335a29.587,29.587,0,0,0,29.553,29.552h33.439ZM85.5,9.143A36.935,36.935,0,0,0,48.6,46.038V276.4a36.935,36.935,0,0,0,36.9,36.894H455.271V270.03h-24.3a38.74,38.74,0,0,1-38.7-38.695V89.95a38.739,38.739,0,0,1,38.7-38.695h24.3V9.143Z" fill="#ff3654"/>
      <path id="Path_204" data-name="Path 204" d="M548.032,202.693v38.428H430.226V210.672l53.13-49.138q6.927-6.508,9.237-11.131a20.108,20.108,0,0,0,2.31-9.029,10.443,10.443,0,0,0-3.673-8.5q-3.678-3.044-10.607-3.047a23.856,23.856,0,0,0-12.6,3.571,23.4,23.4,0,0,0-9.03,10.08l-37.379-18.69A61.321,61.321,0,0,1,446.187,99.9q16.165-9.138,39.058-9.136,17.429,0,30.869,5.669t21,16.169a40.3,40.3,0,0,1,7.559,24.151,51.473,51.473,0,0,1-5.146,22.785q-5.147,10.606-20.053,24.044l-21,19.109Z" fill="#338ae8"/>
      <path id="Path_205" data-name="Path 205" d="M998.054,167.518q9.133,11.026,9.134,26.565a45.3,45.3,0,0,1-7.245,24.675Q992.7,230.2,977.578,237.341t-37.588,7.138a145.334,145.334,0,0,1-30.975-3.359,96.333,96.333,0,0,1-26.984-9.869l16.8-36.54a77.494,77.494,0,0,0,19.424,7.981,78.71,78.71,0,0,0,20.057,2.73q8.605,0,13.855-2.941t5.25-8.4q0-10.08-17.427-10.08H920.461V153.555l21.63-22.051h-52.5V94.125H999.208v30.448l-27.3,27.719q17.01,4.206,26.147,15.226" fill="#2258b5"/>
      <path id="Path_206" data-name="Path 206" d="M637.649,89.848l-9.831-9.831a13.731,13.731,0,0,0,3.166-8.709A13.863,13.863,0,1,0,617.12,85.171a13.707,13.707,0,0,0,6.845-1.881l10.12,10.122ZM608.3,71.308a8.822,8.822,0,1,1,8.82,8.821,8.831,8.831,0,0,1-8.82-8.821" fill="#338ae8"/>
      <path id="Path_207" data-name="Path 207" d="M169.985,87.463H160.4a1.105,1.105,0,1,1,0-2.211h9.581a1.105,1.105,0,1,1,0,2.211" fill="#ff3654"/>
      <path id="Path_208" data-name="Path 208" d="M168.327,91.129h-5.988a1.105,1.105,0,1,1,0-2.211h5.988a1.105,1.105,0,1,1,0,2.211" fill="#ff3654"/>
      <path id="Path_209" data-name="Path 209" d="M165.147,53.18a12.777,12.777,0,0,0-8.635,22.2,10.957,10.957,0,0,1,3.545,8.07h10.181a10.987,10.987,0,0,1,3.545-8.07,12.628,12.628,0,0,0,4.144-9.4,12.789,12.789,0,0,0-12.78-12.8m-4.217,5.6a8.194,8.194,0,0,0-3.182,11.107,1.114,1.114,0,0,1-.435,1.509,1.074,1.074,0,0,1-.527.127,1.1,1.1,0,0,1-.964-.564,10.381,10.381,0,0,1,4.035-14.106,1.1,1.1,0,1,1,1.073,1.927" fill="#ff3654"/>
      <path id="Path_210" data-name="Path 210" d="M1063.017,87.816l7.072-7.071,2.977,2.974L1086.8,69.988l2.289,2.289.894-5.473.259-.259-.188-.185.668-4.091L1080.715,63.9l2.58,2.578-10.229,10.228-2.977-2.975-7.547,7.547V58.687h-4.337V92.154h33.466V87.816Z" fill="#2258b5"/>
      <text id="_4" data-name="4" transform="translate(1321.684 267.037)" fill="#2192a2" font-size="300" font-family="OpenSans-Bold, Open Sans" font-weight="700"><tspan x="0" y="0">4</tspan></text>
    </g>
  </g>
  <text id="AMEAÇAS_NA_LISTA_NEGRA" data-name="AMEAÇAS NA LISTA NEGRA" transform="translate(101.235 113.303)" fill="#ff3654" font-size="20" font-family="OpenSans-Bold, Open Sans" font-weight="700"><tspan x="0" y="0">AMEAÇAS NA LISTA NEGRA</tspan></text>
  <text id="COM_O_NOSSO_BANCO_DE_DADOS" data-name="COM O NOSSO BANCO DE DADOS" transform="translate(111.296 147.956)" fill="#4d4d4d" font-size="15" font-family="OpenSans, Open Sans"><tspan x="0" y="0">COM O NOSSO BANCO DE DADOS</tspan></text>
  <text id="ABRANGENTE_DE_VULNERABILIDADES" data-name="ABRANGENTE DE VULNERABILIDADES" transform="translate(111.296 175.961)" fill="#4d4d4d" font-size="15" font-family="OpenSans, Open Sans"><tspan x="0" y="0">ABRANGENTE DE VULNERABILIDADES</tspan></text>
  <text id="CONHECIDAS_SEMPRE_QUE_UMA_NOVA" data-name="CONHECIDAS, SEMPRE QUE UMA NOVA" transform="translate(111.296 203.966)" fill="#4d4d4d" font-size="15" font-family="OpenSans, Open Sans"><tspan x="0" y="0">CONHECIDAS, SEMPRE QUE UMA NOVA</tspan></text>
  <text id="É_IDENTIFICADA_NOSSA_PLATAFORMA" data-name="É IDENTIFICADA NOSSA PLATAFORMA" transform="translate(111.296 231.971)" fill="#4d4d4d" font-size="15" font-family="OpenSans, Open Sans"><tspan x="0" y="0">É IDENTIFICADA NOSSA PLATAFORMA</tspan></text>
  <text id="É_ATUALIZADA." data-name="É ATUALIZADA." transform="translate(111.296 259.976)" fill="#4d4d4d" font-size="15" font-family="OpenSans, Open Sans"><tspan x="0" y="0">É ATUALIZADA.</tspan></text>
  <text id="PERMISSÕES_DE_APPS" data-name="PERMISSÕES DE APPS" transform="translate(564.343 118.167)" fill="#338ae8" font-size="20" font-family="OpenSans-Bold, Open Sans" font-weight="700"><tspan x="0" y="0">PERMISSÕES DE APPS</tspan></text>
  <text id="OS_EXPLOITS_DE_ZERO-DAY_SÃO_" data-name="OS EXPLOITS DE ZERO-DAY SÃO " transform="translate(566.227 147.936)" fill="#4d4d4d" font-size="15" font-family="OpenSans, Open Sans"><tspan x="0" y="0">OS EXPLOITS DE ZERO-DAY SÃO </tspan></text>
  <text id="DERROTADOS_PELA_NEGAÇÃO_DE_TODO_" data-name="DERROTADOS PELA NEGAÇÃO DE TODO " transform="translate(566.227 175.941)" fill="#4d4d4d" font-size="15" font-family="OpenSans, Open Sans"><tspan x="0" y="0">DERROTADOS PELA NEGAÇÃO DE TODO </tspan></text>
  <text id="O_TRÁFEGO_QUE_NÃO_ESTEJA_EM_" data-name="O TRÁFEGO QUE NÃO ESTEJA EM " transform="translate(566.227 203.947)" fill="#4d4d4d" font-size="15" font-family="OpenSans, Open Sans"><tspan x="0" y="0">O TRÁFEGO QUE NÃO ESTEJA EM </tspan></text>
  <text id="CONFORMIDADE_COM_UM_CONJUNTO_" data-name="CONFORMIDADE COM UM CONJUNTO " transform="translate(566.227 231.951)" fill="#4d4d4d" font-size="15" font-family="OpenSans, Open Sans"><tspan x="0" y="0">CONFORMIDADE COM UM CONJUNTO </tspan></text>
  <text id="DE_REGRAS_RESTRITAS_E_REFINADAS_DE_" data-name="DE REGRAS RESTRITAS E REFINADAS DE " transform="translate(566.227 259.956)" fill="#4d4d4d" font-size="15" font-family="OpenSans, Open Sans"><tspan x="0" y="0">DE REGRAS RESTRITAS E REFINADAS DE </tspan></text>
  <text id="ESPECIFICAÇÕES_DE_APLICATIVOS." data-name="ESPECIFICAÇÕES DE APLICATIVOS." transform="translate(566.227 287.961)" fill="#4d4d4d" font-size="15" font-family="OpenSans, Open Sans"><tspan x="0" y="0">ESPECIFICAÇÕES DE APLICATIVOS.</tspan></text>
  <text id="ANÁLISE_COMPORTAMENTAL" data-name="ANÁLISE COMPORTAMENTAL" transform="translate(1020.936 117.817)" fill="#338ae8" font-size="19" font-family="OpenSans-Bold, Open Sans" font-weight="700"><tspan x="0" y="0">ANÁLISE COMPORTAMENTAL</tspan></text>
  <text id="PERMITE_DETECTAR_E_NEGAR_" data-name="PERMITE DETECTAR E NEGAR " transform="translate(1017.228 147.936)" fill="#4d4d4d" font-size="15" font-family="OpenSans, Open Sans"><tspan x="0" y="0">PERMITE DETECTAR E NEGAR </tspan></text>
  <text id="RECONHECIMENTO_DE_REDE_PEN_TESTS_" data-name="RECONHECIMENTO DE REDE, PEN TESTS, " transform="translate(1017.228 175.941)" fill="#4d4d4d" font-size="15" font-family="OpenSans, Open Sans"><tspan x="0" y="0">RECONHECIMENTO DE REDE, PEN TESTS, </tspan></text>
  <text id="TENTATIVAS_DE_ENGENHARIA_REVERSA_" data-name="TENTATIVAS DE ENGENHARIA REVERSA " transform="translate(1017.228 203.947)" fill="#4d4d4d" font-size="15" font-family="OpenSans, Open Sans"><tspan x="0" y="0">TENTATIVAS DE ENGENHARIA REVERSA </tspan></text>
  <text id="EM_PÁGINAS_OU_PROTOCOLOS_DE_" data-name="EM PÁGINAS OU PROTOCOLOS DE " transform="translate(1017.228 231.951)" fill="#4d4d4d" font-size="15" font-family="OpenSans, Open Sans"><tspan x="0" y="0">EM PÁGINAS OU PROTOCOLOS DE </tspan></text>
  <text id="APLICATIVOS_E_OUTRAS_SONDAGENS." data-name="APLICATIVOS E OUTRAS SONDAGENS." transform="translate(1017.228 259.956)" fill="#4d4d4d" font-size="15" font-family="OpenSans, Open Sans"><tspan x="0" y="0">APLICATIVOS E OUTRAS SONDAGENS.</tspan></text>
  <text id="FERRAMENTAS_ADMINISTRATIVAS" data-name="FERRAMENTAS ADMINISTRATIVAS" transform="translate(1479.936 117.817)" fill="#2192a2" font-size="19" font-family="OpenSans-Bold, Open Sans" font-weight="700"><tspan x="0" y="0">FERRAMENTAS ADMINISTRATIVAS</tspan></text>
  <g id="Group_510" data-name="Group 510">
    <g id="Group_509" data-name="Group 509" clip-path="url(#clip-path)">
      <path id="Path_211" data-name="Path 211" d="M1543.569,59.6a3.122,3.122,0,0,0-2.292-.954h-32.456a3.259,3.259,0,0,0-3.247,3.246v22.07a3.257,3.257,0,0,0,3.247,3.246h11.035a4.253,4.253,0,0,1-.325,1.582,14.214,14.214,0,0,1-.649,1.42,2.26,2.26,0,0,0-.324.892,1.318,1.318,0,0,0,1.3,1.3h10.386a1.317,1.317,0,0,0,1.3-1.3,2.32,2.32,0,0,0-.324-.882,14.5,14.5,0,0,1-.648-1.44,4.248,4.248,0,0,1-.326-1.572h11.036a3.254,3.254,0,0,0,3.245-3.246V61.9a3.122,3.122,0,0,0-.954-2.292m-1.642,19.169a.657.657,0,0,1-.65.649h-32.456a.657.657,0,0,1-.649-.649V61.9a.659.659,0,0,1,.649-.649h32.457a.659.659,0,0,1,.649.649Z" fill="#2192a2"/>
    </g>
  </g>
  <text id="TECNOLOGIA_EXCLUSIVA_DE_CONTROLE_DE_" data-name="TECNOLOGIA EXCLUSIVA DE CONTROLE DE " transform="translate(1498.292 148.259)" fill="#4d4d4d" font-size="15" font-family="OpenSans, Open Sans"><tspan x="0" y="0">TECNOLOGIA EXCLUSIVA DE CONTROLE DE </tspan></text>
  <text id="ACESSO_PERMITE_QUE_OS_CLIENTES_" data-name="ACESSO PERMITE QUE OS CLIENTES " transform="translate(1498.292 176.263)" fill="#4d4d4d" font-size="15" font-family="OpenSans, Open Sans"><tspan x="0" y="0">ACESSO PERMITE QUE OS CLIENTES </tspan></text>
  <text id="PERMITAM_OU_EXCLUAM_O_TRÁFEGO_DE_" data-name="PERMITAM OU EXCLUAM O TRÁFEGO DE " transform="translate(1498.292 204.269)" fill="#4d4d4d" font-size="15" font-family="OpenSans, Open Sans"><tspan x="0" y="0">PERMITAM OU EXCLUAM O TRÁFEGO DE </tspan></text>
  <text id="REDE_DE_PAÍSES_CIDADES_REDES_EMPRESAS_" data-name="REDE DE PAÍSES, CIDADES, REDES, EMPRESAS," transform="translate(1498.292 232.274)" fill="#4d4d4d" font-size="15" font-family="OpenSans, Open Sans"><tspan x="0" y="0">REDE DE PAÍSES, CIDADES, REDES, EMPRESAS,</tspan></text>
  <text id="ETC..." transform="translate(1498.292 260.279)" fill="#4d4d4d" font-size="15" font-family="OpenSans, Open Sans"><tspan x="0" y="0">ETC...</tspan></text>
</svg>
