<svg width="24" height="24" viewBox="0 0 24 24" fill="none" xmlns="http://www.w3.org/2000/svg">
<path d="M10.7857 14C10.3518 14 10 13.6482 10 13.2143V10.7857C10 10.3518 10.3518 10 10.7857 10H13.2143C13.6482 10 14 10.3518 14 10.7857V13.2143C14 13.6482 13.6482 14 13.2143 14H10.7857Z" fill="#D22730"/>
<path d="M2 6L2.00001 9.21428C2.00001 9.64822 2.35178 10 2.78572 10H5.21429C5.64822 10 6 9.64822 6 9.21428L5.99999 6L2 6Z" fill="#0047BB"/>
<path d="M10 2.78572C10 2.35178 9.64823 2 9.21429 2L2.78572 2C2.35178 2 2.00001 2.35178 2.00001 2.78571L2 6L9.21429 6C9.64822 6 10 5.64822 10 5.21429L10 2.78572Z" fill="#0068DA"/>
<path d="M22 18V14.7857C22 14.3518 21.6482 14 21.2143 14H18.7857C18.3518 14 18 14.3518 18 14.7857V18H22Z" fill="#0047BB"/>
<path d="M14 21.2143C14 21.6482 14.3518 22 14.7857 22H21.2143C21.6482 22 22 21.6482 22 21.2143L22 18L14.7857 18C14.3518 18 14 18.3518 14 18.7857V21.2143Z" fill="#0068DA"/>
<path d="M2.00002 18L2.00002 14.7857C2.00002 14.3518 2.35179 14 2.78573 14H5.21428C5.64822 14 5.99999 14.3518 5.99999 14.7857V18H2.00002Z" fill="#0047BB"/>
<path d="M10 21.2143C10 21.6482 9.64822 22 9.21429 22H2.78572C2.35178 22 2.00001 21.6482 2.00001 21.2143L2.00002 18L9.21429 18C9.64822 18 10 18.3518 10 18.7857V21.2143Z" fill="#0068DA"/>
<path d="M22 6L22 9.21429C22 9.64822 21.6482 10 21.2143 10H18.7857C18.3518 10 18 9.64822 18 9.21429L18 6L22 6Z" fill="#D22730"/>
<path d="M14 2.78572C14 2.35178 14.3518 2 14.7857 2L21.2143 2C21.6482 2 22 2.35178 22 2.78571L22 6L14.7857 6C14.3518 6 14 5.64822 14 5.21429L14 2.78572Z" fill="#D22730"/>
</svg>
