<svg width="24" height="24" viewBox="0 0 24 24" fill="none" xmlns="http://www.w3.org/2000/svg">
<path d="M2 2.74998C2 2.33577 2.33579 1.99998 2.75 1.99998H9.28403C9.5824 1.99998 9.86855 2.11851 10.0795 2.32948L12.9697 4.71967C13.4422 5.19214 13.1076 6 12.4394 6H2.00001L2 2.74998Z" fill="#D22730"/>
<path d="M2.00001 6L2.00001 9.28402C2.00001 9.58239 2.11854 9.86854 2.32952 10.0795L4.71971 12.9697C5.19218 13.4421 6.00004 13.1075 6.00004 12.4393L6.00003 6H2.00001Z" fill="#D22730"/>
<path d="M22 6.1875L18.8907 6.1875L15.5149 3.27763C15.0461 2.80408 15.3815 1.99998 16.0479 1.99998L21.25 1.99998C21.6642 1.99998 22 2.33576 22 2.74998L22 6.1875Z" fill="#0047BB"/>
<path d="M6.18754 22L6.18753 18.8906L3.27767 15.5149C2.80411 15.0461 2.00001 15.3815 2.00001 16.0479L2.00001 21.25C2.00001 21.6642 2.3358 22 2.75001 22H6.18754Z" fill="#0047BB"/>
<path d="M3.03126 22L18.8907 6.1875L22 3.0781L22 8.44026C22 8.73863 21.8815 9.02478 21.6705 9.23576L9.23579 21.6705C9.02481 21.8815 8.73867 22 8.4403 22H3.03126Z" fill="#0068DA"/>
<path d="M16.8027 22C16.1357 22 15.8006 21.1945 16.2708 20.7213L20.718 16.2431C21.1898 15.7684 22 16.1025 22 16.7718L22 21.25C22 21.6642 21.6642 22 21.25 22L16.8027 22Z" fill="#D22730"/>
</svg>
