<svg width="24" height="24" viewBox="0 0 24 24" fill="none" xmlns="http://www.w3.org/2000/svg">
<path d="M9.75417 12.7071C9.36365 12.3166 9.36365 11.6834 9.75417 11.2929L11.2929 9.75417C11.6834 9.36364 12.3166 9.36364 12.7071 9.75417L14.2459 11.2929C14.6364 11.6834 14.6364 12.3166 14.2459 12.7071L12.7071 14.2459C12.3166 14.6364 11.6835 14.6364 11.2929 14.2459L9.75417 12.7071Z" fill="#D22730"/>
<path fill-rule="evenodd" clip-rule="evenodd" d="M1.17175 14.8307L4.06393 11.9385L6.03256 9.96985C6.30437 9.69804 6.30437 9.25734 6.03256 8.98553L4.06393 7.0169C3.79212 6.74508 3.35142 6.74508 3.07961 7.0169L1.39127 8.70524C1.21179 8.88471 1.11096 9.12814 1.11096 9.38196L1.11096 14.4951C1.11096 14.6108 1.13192 14.7244 1.17175 14.8307Z" fill="#0068DA"/>
<path fill-rule="evenodd" clip-rule="evenodd" d="M1.17175 14.8307C1.21926 14.9576 1.29363 15.0741 1.39127 15.1718L3.14113 16.9216C3.41294 17.1934 3.85364 17.1934 4.12545 16.9216L6.0941 14.953C6.36591 14.6812 6.36591 14.2405 6.09409 13.9687L4.06393 11.9385L1.17175 14.8307Z" fill="#0047BB"/>
<path fill-rule="evenodd" clip-rule="evenodd" d="M9.04632 1.17175L11.9385 4.06393L13.9687 6.09408C14.2405 6.36589 14.6812 6.36589 14.953 6.09408L16.9216 4.12545C17.1935 3.85364 17.1935 3.41294 16.9216 3.14113L15.1718 1.39127C14.9923 1.21179 14.7489 1.11096 14.4951 1.11096L9.38196 1.11096C9.26623 1.11096 9.15266 1.13192 9.04632 1.17175Z" fill="#0068DA"/>
<path fill-rule="evenodd" clip-rule="evenodd" d="M9.04632 1.17175C8.91945 1.21926 8.80288 1.29362 8.70523 1.39126L7.0169 3.0796C6.74508 3.35141 6.74508 3.79211 7.0169 4.06392L8.98554 6.03256C9.25735 6.30438 9.69805 6.30438 9.96986 6.03256L11.9385 4.06393L9.04632 1.17175Z" fill="#0047BB"/>
<path fill-rule="evenodd" clip-rule="evenodd" d="M9.16936 22.8283L12.0615 19.9361L14.0302 17.9675C14.302 17.6957 14.7427 17.6957 15.0145 17.9675L16.9832 19.9361C17.255 20.2079 17.255 20.6486 16.9832 20.9205L15.2948 22.6088C15.1153 22.7883 14.8719 22.8891 14.6181 22.8891L9.505 22.8891C9.38927 22.8891 9.2757 22.8681 9.16936 22.8283Z" fill="#0068DA"/>
<path fill-rule="evenodd" clip-rule="evenodd" d="M9.16936 22.8283C9.04249 22.7808 8.92592 22.7064 8.82828 22.6088L7.07842 20.8589C6.80661 20.5871 6.80661 20.1464 7.07842 19.8746L9.04706 17.906C9.31888 17.6341 9.75957 17.6341 10.0314 17.906L12.0615 19.9361L9.16936 22.8283Z" fill="#0047BB"/>
<path fill-rule="evenodd" clip-rule="evenodd" d="M22.8283 14.9537L19.9361 12.0615L17.906 10.0314C17.6342 9.75955 17.6342 9.31886 17.906 9.04704L19.8746 7.07841C20.1464 6.8066 20.5871 6.8066 20.8589 7.07841L22.6088 8.82827C22.7883 9.00775 22.8891 9.25117 22.8891 9.50499L22.8891 14.6181C22.8891 14.7338 22.8681 14.8474 22.8283 14.9537Z" fill="#0068DA"/>
<path fill-rule="evenodd" clip-rule="evenodd" d="M22.8283 14.9537C22.7808 15.0806 22.7064 15.1972 22.6088 15.2948L20.9204 16.9832C20.6486 17.255 20.2079 17.255 19.9361 16.9832L17.9675 15.0145C17.6957 14.7427 17.6957 14.302 17.9675 14.0302L19.9361 12.0615L22.8283 14.9537Z" fill="#0047BB"/>
</svg>
