<svg width="24" height="24" viewBox="0 0 24 24" fill="none" xmlns="http://www.w3.org/2000/svg">
<path d="M18.7565 22C18.3422 22 18.0063 21.6642 18.0063 21.25L18.0063 18.75C18.0063 18.3358 18.3422 18 18.7565 18L21.2497 18C21.6641 18 22 18.3358 22 18.75L22 21.25C22 21.6642 21.6641 22 21.2497 22L18.7565 22Z" fill="#0068DA"/>
<path d="M2.75029 2C2.33592 2 2 2.33579 2 2.75L2 15C2 15.2984 2.11857 15.5845 2.32963 15.7955L4.72073 18.2197C5.19339 18.6921 6.00156 18.3575 6.00156 17.6893L6.00156 2L2.75029 2Z" fill="#0068DA"/>
<path d="M17.6619 6C18.3284 6 18.664 5.19605 18.1952 4.72245L15.8 2.33367C15.5886 2.12015 15.3005 2 15 2L6.00156 2L6.00156 6L17.6619 6Z" fill="#0047BB"/>
<path d="M20.6966 14C21.3651 14 21.6998 13.1921 21.2272 12.7197L18.8021 10.3295C18.591 10.1185 18.3047 10 18.0063 10L14.0047 10L14.0047 14L20.6966 14Z" fill="#D22730"/>
<path d="M14.0047 10L14.0047 20.6893C14.0047 21.3575 13.1965 21.6921 12.7239 21.2196L10.3296 18.7955C10.1186 18.5845 10 18.2984 10 18L10.0004 10.75C10.0004 10.2813 10.2817 10 10.7506 10L14.0047 10Z" fill="#D22730"/>
</svg>
