<svg width="24" height="24" viewBox="0 0 24 24" fill="none" xmlns="http://www.w3.org/2000/svg">
<path d="M5.5196 9.99979C5.81431 9.99979 6.09624 9.84881 6.24901 9.60918L8.64935 5.99978L3.39934 5.99977L1.41082 8.9632C1.10819 9.43791 1.44101 9.99979 2.02484 9.99979H5.5196Z" fill="#0047BB"/>
<path d="M18.4799 13.9998C18.1855 13.9998 17.9039 14.1506 17.7512 14.3901L15.4453 17.9998L20.6953 17.9998L22.5886 15.0372C22.8914 14.5623 22.5584 13.9998 21.9745 13.9998H18.4799Z" fill="#0047BB"/>
<path d="M18.4804 9.99979C18.1857 9.99979 17.9037 9.84881 17.751 9.60918L15.4453 5.99978L20.6953 5.99978L22.5892 8.96319C22.8918 9.43791 22.559 9.99979 21.9751 9.99979H18.4804Z" fill="#0047BB"/>
<path d="M5.52015 13.9998C5.81458 13.9998 6.09618 14.1506 6.24885 14.3901L8.64935 17.9998L3.39934 17.9998L1.41139 14.7872C1.10863 14.3123 1.44164 13.9998 2.02555 13.9998L5.52015 13.9998Z" fill="#0047BB"/>
<path d="M20.6953 5.99978L3.39934 5.99977L5.66858 2.52145C5.87501 2.19658 6.2332 1.99979 6.61811 1.99979L17.382 1.99979C17.7669 1.99979 18.1251 2.19658 18.3315 2.52145L20.6953 5.99978Z" fill="#0068DA"/>
<path d="M3.39934 17.9998L20.6953 17.9998L18.3626 21.4733C18.1567 21.801 17.7969 21.9998 17.41 21.9998H6.59003C6.20311 21.9998 5.84334 21.801 5.63748 21.4733L3.39934 17.9998Z" fill="#0068DA"/>
<path d="M10.75 13.9998C10.3358 13.9998 10 13.6642 10 13.25V10.75C10 10.3358 10.3358 10 10.75 10H13.25C13.6642 10 14 10.3358 14 10.75V13.25C14 13.6642 13.6642 13.9998 13.25 13.9998H10.75Z" fill="#D22730"/>
</svg>
