<svg width="24" height="24" viewBox="0 0 24 24" fill="none" xmlns="http://www.w3.org/2000/svg">
<path d="M10.6 14C10.2686 14 9.99999 13.7314 9.99999 13.4V10.6C9.99999 10.2686 10.2686 9.99999 10.6 9.99999H13.4C13.7314 9.99999 14 10.2686 14 10.6V13.4C14 13.7314 13.7314 14 13.4 14L10.6 14Z" fill="#D22730"/>
<path d="M17.4999 8.30858V15.7344L21.9999 12.7891L22 11.2031L17.4999 8.30858Z" fill="#0047BB"/>
<path d="M13.9986 5.39564C13.9995 5.78361 14.1964 6.15492 14.5101 6.35968L22 11.25L21.9915 7.28867C21.9898 6.51273 21.5959 5.77011 20.9687 5.36059L14.826 1.34988C14.4454 1.10138 13.99 1.36809 13.991 1.83893L13.9986 5.39564Z" fill="#0068DA"/>
<path d="M13.9986 18.631C13.9995 18.243 14.1964 17.8717 14.5101 17.667L22 12.7766L21.9915 16.738C21.9898 17.5139 21.5959 18.2565 20.9687 18.666L14.826 22.6768C14.4454 22.9253 13.99 22.6585 13.991 22.1877L13.9986 18.631Z" fill="#0068DA"/>
<path d="M6.49486 8.30858V15.7344L1.99486 12.7891L1.99475 11.2031L6.49486 8.30858Z" fill="#0047BB"/>
<path d="M9.99609 5.39564C9.99526 5.78361 9.79829 6.15492 9.48468 6.35968L1.99478 11.25L2.00324 7.28867C2.00489 6.51273 2.39884 5.77011 3.02606 5.36059L9.16877 1.34988C9.54936 1.10138 10.0047 1.36809 10.0037 1.83893L9.99609 5.39564Z" fill="#0068DA"/>
<path d="M9.99609 18.631C9.99526 18.243 9.79829 17.8717 9.48468 17.667L1.99478 12.7766L2.00324 16.738C2.00489 17.5139 2.39884 18.2565 3.02606 18.666L9.16877 22.6768C9.54936 22.9253 10.0047 22.6585 10.0037 22.1877L9.99609 18.631Z" fill="#0068DA"/>
</svg>
