<svg width="24" height="24" viewBox="0 0 24 24" fill="none" xmlns="http://www.w3.org/2000/svg">
<path d="M20.3512 19L17.6635 21.6717C17.4525 21.8826 17.1664 22.0011 16.8681 22.0011L13.8108 21.9854C13.1426 21.9854 12.808 21.1774 13.2806 20.705L15.0003 19H20.3512Z" fill="#0068DA"/>
<path d="M20.3512 14.9998L17.6801 12.3293C17.4691 12.1184 17.183 11.9998 16.8846 11.9998H13.8109C13.1427 11.9998 12.8081 12.8077 13.2806 13.2802L15.0003 14.9998H20.3512Z" fill="#0047BB"/>
<path d="M20.3512 14.9998H2.00002L2 18.2489C2 18.6631 2.33579 18.9989 2.75 18.9989L20.3512 19L21.7773 17.5427C22.0702 17.2498 22.0702 16.7281 21.7773 16.4352L20.3512 14.9998Z" fill="#0068DA"/>
<path d="M6.00025 14.9998V5.99982L2.00002 5.99983L2.00002 14.9998L6.00025 14.9998Z" fill="#0047BB"/>
<path d="M14.2503 2L2.75002 2C2.3358 2 2.00002 2.33579 2.00002 2.75L2.00002 5.99983L14.2503 5.99983C14.6645 5.99983 15.0003 5.66404 15.0003 5.24983V2.75C15.0003 2.33579 14.6645 2 14.2503 2Z" fill="#0068DA"/>
<path d="M21.2463 2C21.6606 2 21.9963 2.33579 21.9963 2.75V5.24982C21.9963 5.66404 21.6606 5.99982 21.2463 5.99982H18.7503C18.336 5.99982 18.0003 5.66404 18.0003 5.24982V2.75C18.0003 2.33579 18.336 2 18.7503 2L21.2463 2Z" fill="#D22730"/>
</svg>
