<svg width="24" height="24" viewBox="0 0 24 24" fill="none" xmlns="http://www.w3.org/2000/svg">
<path d="M21.25 1.99995C21.6642 1.99995 22 2.33574 22 2.74995V9.284C22 9.58237 21.8815 9.86852 21.6705 10.0795L19.2803 12.5302C18.8079 13.0027 18 12.6681 18 11.9999V1.99995L21.25 1.99995Z" fill="#0068DA"/>
<path d="M18 1.99995L14.716 1.99996C14.4176 1.99996 14.1314 2.11848 13.9205 2.32946L11.4697 4.71966C10.9972 5.19213 11.3318 5.99999 12 5.99999L18 5.99999L18 1.99995Z" fill="#0047BB"/>
<path d="M2.75 21.9999C2.33579 21.9999 2 21.6641 2 21.2499L2 14.7159C2 14.4175 2.11853 14.1314 2.3295 13.9204L4.71967 11.4695C5.19214 10.9971 6 11.3317 6 11.9999L6 21.9999L2.75 21.9999Z" fill="#0068DA"/>
<path d="M6 21.9999L9.284 21.9999C9.58237 21.9999 9.86852 21.8814 10.0795 21.6704L12.5303 19.2803C13.0028 18.8078 12.6682 18 12 18H5.99998L6 21.9999Z" fill="#0047BB"/>
<path d="M16.8027 21.9999C16.1356 21.9999 15.8005 21.1944 16.2707 20.7213L20.718 16.2431C21.1898 15.7683 22 16.1025 22 16.7718V21.25C22 21.6642 21.6642 22 21.25 22L16.8027 21.9999Z" fill="#D22730"/>
<path d="M7.22074 1.99996C7.88779 1.99996 8.22292 2.80549 7.75272 3.27863L3.30542 7.75681C2.83363 8.23156 2.02344 7.89744 2.02344 7.22814L2.02344 2.74987C2.02344 2.33566 2.35923 1.99987 2.77345 1.99987L7.22074 1.99996Z" fill="#D22730"/>
</svg>
