<svg width="24" height="24" viewBox="0 0 24 24" fill="none" xmlns="http://www.w3.org/2000/svg">
<path d="M4.3099 9.00005H15V1.99991L9.96599 1.99991C9.66762 1.99991 9.38147 2.11844 9.17049 2.32942L3.77957 7.71972C3.30709 8.19219 3.64172 9.00005 4.3099 9.00005Z" fill="#0047BB"/>
<path d="M15 19.6569V1.99991L21.2578 2.00006C21.672 2.00006 22 2.30186 22 2.71608L22 14.0002C22 14.2985 21.8815 14.5847 21.6705 14.7957L16.2803 20.1873C15.8079 20.6597 15 20.3251 15 19.6569Z" fill="#0068DA"/>
<path d="M8.25 15C8.66421 15 9 15.3358 9 15.75V21.25C9 21.6642 8.66421 22 8.25 22H2.75C2.33579 22 2 21.6642 2 21.25L2 15.75C2 15.3358 2.33579 15 2.75 15H8.25Z" fill="#D22730"/>
</svg>
