<svg width="24" height="24" viewBox="0 0 24 24" fill="none" xmlns="http://www.w3.org/2000/svg">
<path d="M6.99993 21.4393L6.99993 8.75C6.99993 8.33578 6.66414 8 6.24993 8L3.75 7.99999C3.33579 7.99999 3 8.33578 3 8.74999V18.7535C3 19.0519 3.11852 19.338 3.3295 19.549L5.7196 21.9697C6.19207 22.4421 6.99993 22.1075 6.99993 21.4393Z" fill="#0068DA"/>
<path d="M16.9999 21.4393L16.9999 8.75C16.9999 8.33578 17.3357 8 17.7499 8L20.2499 7.99999C20.6641 7.99999 20.9999 8.33578 20.9999 8.74999V18.7535C20.9999 19.0519 20.8814 19.338 20.6704 19.549L18.2803 21.9697C17.8078 22.4421 16.9999 22.1075 16.9999 21.4393Z" fill="#0068DA"/>
<path d="M3 2.74999C3 2.33578 3.33579 1.99999 3.75 1.99999L20.2499 1.99999C20.6641 1.99999 20.9999 2.33578 20.9999 2.74999L20.9999 5.25C20.9999 5.66421 20.6641 6 20.2499 6L3.75 6C3.33579 6 3 5.66421 3 5.25L3 2.74999Z" fill="#0047BB"/>
<path d="M13.25 10.0016C13.6642 10.0016 14 10.3374 14 10.7516L14 15.6891C14 15.888 13.921 16.0787 13.7803 16.2194L12.5302 17.4698C12.2373 17.7626 11.7625 17.7627 11.4696 17.4699L10.2198 16.2195C10.0791 16.0788 10 15.888 10 15.6891V10.7508C10 10.3366 10.3358 10.0008 10.75 10.0008L13.25 10.0016Z" fill="#D22730"/>
</svg>
