<svg width="24" height="24" viewBox="0 0 24 24" fill="none" xmlns="http://www.w3.org/2000/svg">
<path d="M5.97192 2.31381C6.17285 2.11288 6.44537 2 6.72953 2L21.2857 2C21.6802 2 22 2.3198 22 2.71429V6H4C3.36364 6 3.04495 5.23061 3.49492 4.78064L5.97192 2.31381Z" fill="#0068DA"/>
<path d="M18 6H22V13.2857C22 13.6802 21.6802 14 21.2857 14H18.7143C18.3198 14 18 13.6802 18 13.2857V6Z" fill="#0047BB"/>
<path d="M18.0281 21.6862C17.8272 21.8871 17.5547 22 17.2705 22H2.7143C2.31981 22 2.00002 21.6802 2.00002 21.2857V18H20C20.6364 18 20.955 18.7694 20.5051 19.2194L18.0281 21.6862Z" fill="#0068DA"/>
<path d="M6.28573 18H2.00002L2 10.7143C2 10.3198 2.3198 10 2.71429 10H5.57143C5.96592 10 6.28571 10.3198 6.28571 10.7143L6.28573 18Z" fill="#0047BB"/>
<path d="M10.7143 14C10.3198 14 10 13.6802 10 13.2857V10.7143C10 10.3198 10.3198 10 10.7143 10H13.2857C13.6802 10 14 10.3198 14 10.7143V13.2857C14 13.6802 13.6802 14 13.2857 14H10.7143Z" fill="#D22730"/>
</svg>
