<svg width="24" height="24" viewBox="0 0 24 24" fill="none" xmlns="http://www.w3.org/2000/svg">
<path d="M1.5 16.8211V14.4598C1.5 13.695 2.32366 13.2133 2.99026 13.5883L11.5097 18.3805C11.8142 18.5517 12.1858 18.5517 12.4903 18.3805L21.0097 13.5883C21.6763 13.2133 22.5 13.695 22.5 14.4598V16.5671C22.5 17.28 22.1205 17.939 21.5039 18.2968L12.9806 23.2434C12.3723 23.5964 11.6234 23.604 11.0081 23.2634L2.53137 18.5709C1.89495 18.2186 1.5 17.5486 1.5 16.8211Z" fill="#0068DA"/>
<path d="M9.75 9.70512C9.75 9.34794 9.9405 9.01789 10.2498 8.83922L11.4998 8.1171C11.8093 7.93829 12.1907 7.93829 12.5002 8.1171L13.7502 8.83922C14.0595 9.01789 14.25 9.34794 14.25 9.70512V13.5918C14.25 13.9489 14.0595 14.279 13.7502 14.4577L12.5002 15.1798C12.1907 15.3586 11.8093 15.3586 11.4998 15.1798L10.2498 14.4577C9.9405 14.279 9.75 13.9489 9.75 13.5918V9.70512Z" fill="#D22730"/>
<path fill-rule="evenodd" clip-rule="evenodd" d="M1.63494 5.61091L6.09918 8.21044C6.16248 8.09993 6.25389 8.0055 6.3671 7.93829L10.1329 5.70234C10.3605 5.56721 10.5 5.32213 10.5 5.05745V1.54603C10.5 0.965896 9.86956 0.605414 9.36959 0.89967L2.00818 5.23216C1.85011 5.3252 1.72267 5.45674 1.63494 5.61091Z" fill="#0047BB"/>
<path fill-rule="evenodd" clip-rule="evenodd" d="M1.63494 5.61091C1.54765 5.764 1.5 5.93867 1.5 6.12091V9.25143C1.5 9.61821 1.69481 9.95739 2.01163 10.1422L4.8721 11.8108C5.37209 12.1025 6 11.7418 6 11.163V8.58318C6 8.45014 6.03522 8.3221 6.09918 8.21044L1.63494 5.61091Z" fill="#0068DA"/>
<path fill-rule="evenodd" clip-rule="evenodd" d="M22.3651 5.61091L17.9008 8.21044C17.8375 8.09993 17.7461 8.0055 17.6329 7.93829L13.8671 5.70234C13.6395 5.56721 13.5 5.32213 13.5 5.05745V1.54603C13.5 0.965896 14.1304 0.605414 14.6304 0.89967L21.9918 5.23216C22.1499 5.3252 22.2773 5.45674 22.3651 5.61091Z" fill="#0047BB"/>
<path fill-rule="evenodd" clip-rule="evenodd" d="M22.3651 5.61091C22.4523 5.764 22.5 5.93867 22.5 6.12091V9.25143C22.5 9.61821 22.3052 9.95739 21.9884 10.1422L19.1279 11.8108C18.6279 12.1025 18 11.7418 18 11.163V8.58318C18 8.45014 17.9648 8.3221 17.9008 8.21044L22.3651 5.61091Z" fill="#0068DA"/>
</svg>
