<svg xmlns="http://www.w3.org/2000/svg" viewBox="0 0 482.88 482.94"><defs><style>.cls-1{fill:#2d82ce;}.cls-2{fill:#4c93d4;}.cls-3{fill:#569ad7;}.cls-4{fill:#aeceeb;}.cls-5{fill:#74acde;}.cls-6{fill:#90bce5;}.cls-7{fill:#67a4db;}.cls-8{fill:#adcdeb;}.cls-9{fill:#afcfec;}.cls-10{fill:#4c93d5;}.cls-11{fill:#c9def2;}.cls-12{fill:#84b5e2;}.cls-13{fill:#e9282e;}.cls-14{fill:#ed4d52;}.cls-15{fill:#f9cbcd;}.cls-16{fill:#ed4f55;}.cls-17{fill:#f1757a;}.cls-18{fill:#f1767a;}.cls-19{fill:#f9cdce;}.cls-20{fill:#f9cdcf;}.cls-21{fill:#f17478;}.cls-22{fill:#ed4c52;}.cls-23{fill:#ed5056;}.cls-24{fill:#acdd74;}.cls-25{fill:#e1f2cd;}.cls-26{fill:#c5e79e;}.cls-27{fill:#9ad654;}.cls-28{fill:#9ad655;}.cls-29{fill:#99d654;}.cls-30{fill:#86ce35;}.cls-31{fill:#87ce35;}</style></defs><title>Asset 8FILE SERVER</title><g id="Layer_2" data-name="Layer 2"><g id="Layer_1-2" data-name="Layer 1"><path class="cls-1" d="M482.43,247.86l0-9.62c.17-.32.31-.3.42,0v9.56C482.74,248.17,482.59,248.17,482.43,247.86Z"/><path class="cls-2" d="M239.16,482.5h5.77c.33.16.32.3,0,.43h-5.73C238.85,482.81,238.84,482.66,239.16,482.5Z"/><path class="cls-3" d="M482.88,238.28l-.42,0c.2-1.57-.61-3.24.42-4.74Z"/><path class="cls-4" d="M482.88,232.55a2.73,2.73,0,0,1,0-3.35Z"/><path class="cls-5" d="M482.48,253.61v-3.34c.09-.36.22-.37.39,0v3.34C482.77,253.92,482.64,253.93,482.48,253.61Z"/><path class="cls-6" d="M232.46,482.53h3.35c.35.11.35.25,0,.41h-3.34C232.14,482.83,232.13,482.69,232.46,482.53Z"/><path class="cls-7" d="M235.83,482.94a2.75,2.75,0,0,0,0-.41l3.35,0a3.24,3.24,0,0,1,0,.44Z"/><path class="cls-8" d="M482.48,253.61a1.81,1.81,0,0,0,.4,0v2.87C481.92,255.62,482.59,254.55,482.48,253.61Z"/><path class="cls-7" d="M244.91,482.94c0-.15,0-.29,0-.43l2.88,0q.49.22,0,.39Z"/><path class="cls-9" d="M250.2,482.54c1,.11,2-.57,2.84.4h-2.87C249.84,482.78,249.85,482.65,250.2,482.54Z"/><path class="cls-10" d="M482.88,250.23a1.72,1.72,0,0,1-.39,0l-.06-2.41a3.39,3.39,0,0,1,.45,0Z"/><path class="cls-11" d="M232.46,482.53a2.83,2.83,0,0,1,0,.41H230.1c0-.13,0-.27,0-.4Z"/><path class="cls-12" d="M250.2,482.54c0,.13,0,.27,0,.4h-2.39l0-.39Z"/><path class="cls-13" d="M236,467.49l11.43,0c.3.16.3.31,0,.45H236.07C235.76,467.81,235.75,467.67,236,467.49Z"/><path class="cls-13" d="M470.48,244q0-4.37,0-8.73c.18-.2.31-.17.4.07V244C470.79,244.28,470.64,244.29,470.48,244Z"/><path class="cls-14" d="M470.93,235.33l-.4-.07c0-1.2,0-2.4,0-3.6.16-.29.3-.28.41,0Z"/><path class="cls-15" d="M470.54,224.84a.73.73,0,0,1,.39,0v3.19C470.11,227.07,470.56,225.93,470.54,224.84Z"/><path class="cls-16" d="M470.48,244a2.26,2.26,0,0,1,.45,0v3.19c-.11.31-.24.32-.4,0C470.52,246.13,470.5,245.06,470.48,244Z"/><path class="cls-15" d="M256.57,467.52c0,.13,0,.26,0,.39h-3.19C254.35,467.09,255.49,467.55,256.57,467.52Z"/><path class="cls-17" d="M470.93,231.69l-.41,0c.11-.9-.43-1.91.41-2.7Z"/><path class="cls-18" d="M470.53,247.2l.4,0v2.73C470.08,249.11,470.63,248.1,470.53,247.2Z"/><path class="cls-19" d="M470.93,254l-.19,0-.2,0c0-.93-.46-1.94.39-2.75Z"/><path class="cls-20" d="M226.51,467.91c0-.13,0-.27,0-.4.93,0,1.93-.4,2.75.4Z"/><path class="cls-21" d="M230.61,467.91c.79-.84,1.78-.32,2.68-.38.35.09.37.21.05.38Z"/><path class="cls-22" d="M233.34,467.91c0-.12,0-.25-.05-.38l2.74,0c0,.14,0,.28,0,.42Z"/><path class="cls-23" d="M247.45,467.91a3.38,3.38,0,0,1,0-.45c.91.12,1.92-.3,2.72.45Z"/><path class="cls-24" d="M482.42,233.9c0-1,0-1.91,0-2.87l.24-.33.16.37V234C482.66,234.28,482.52,234.26,482.42,233.9Z"/><path class="cls-24" d="M482.44,252.19c0-1,0-1.92,0-2.88.1-.36.24-.38.42,0v2.87l-.16.37Z"/><path class="cls-24" d="M231,482.49l2.87,0c.36.1.38.24,0,.42H231l-.37-.16Z"/><path class="cls-24" d="M249.25,482.47l2.87,0,.33.24-.37.15h-2.87C248.87,482.71,248.89,482.57,249.25,482.47Z"/><path class="cls-25" d="M482.43,226.26a1.14,1.14,0,0,1,.41,0v2.39c-.17.33-.3.32-.4,0C482.44,227.85,482.43,227.06,482.43,226.26Z"/><path class="cls-26" d="M482.44,228.64a1.07,1.07,0,0,1,.4,0v2.39a1.81,1.81,0,0,0-.4,0Z"/><path class="cls-27" d="M482.42,233.9a3,3,0,0,1,.42,0v2.39A3.58,3.58,0,0,1,482.42,233.9Z"/><path class="cls-28" d="M482.84,249.27l-.42,0a3.58,3.58,0,0,1,.42-2.44Z"/><path class="cls-26" d="M482.44,252.19a1.33,1.33,0,0,0,.4-.05v2.39l-.17.37-.23-.33Z"/><path class="cls-25" d="M482.44,254.57a1.07,1.07,0,0,0,.4,0v2.4l-.2,0h-.21C482.43,256.16,482.44,255.36,482.44,254.57Z"/><path class="cls-25" d="M226.23,482.89c0-.13,0-.27,0-.4h2.39q.53.15,0,.39Z"/><path class="cls-26" d="M228.62,482.89l0-.39H231c0,.14,0,.27,0,.4Z"/><path class="cls-29" d="M233.89,482.89c0-.14,0-.28,0-.42a3.58,3.58,0,0,1,2.44.42Z"/><path class="cls-29" d="M249.25,482.47c0,.14,0,.28,0,.42h-2.4A3.59,3.59,0,0,1,249.25,482.47Z"/><path class="cls-26" d="M252.08,482.89c0-.13,0-.26,0-.39h2.39l.33.22-.37.17Z"/><path class="cls-25" d="M254.47,482.89c0-.13,0-.26,0-.39h2.38c0,.13,0,.27,0,.4Z"/><path class="cls-30" d="M482.84,236.34c-.49-.83-.13-1.74-.24-2.6v-7.36a62,62,0,0,0-.26-6.68A136.82,136.82,0,0,0,481,202.54a242.74,242.74,0,0,0-30-83.29,231.43,231.43,0,0,0-30.33-41.12A253.17,253.17,0,0,0,398.84,57a243.18,243.18,0,0,0-44.27-30,237.92,237.92,0,0,0-50.7-19.85A201.62,201.62,0,0,0,271.47,1C265.75.5,260,.46,254.27.27a367.73,367.73,0,0,0-42,.74c-15.33,1.25-30.22,4.9-44.83,9.59a241.74,241.74,0,0,0-65.89,32.94A246.92,246.92,0,0,0,52.71,89.43,237.36,237.36,0,0,0,18.24,146.9C6.39,174.77-.3,203.72,0,234.14c.08,7.73-.07,15.46.23,23.19a187.75,187.75,0,0,0,1.84,23.33A243.41,243.41,0,0,0,32,363.74a232.31,232.31,0,0,0,30.46,41.33,254.55,254.55,0,0,0,21.82,21.12,243.08,243.08,0,0,0,89.19,48.29c17.3,5,34.86,8.28,52.94,8.17h7.34c.85.12,1.75-.25,2.57.24h10.53c.83-.49,1.74-.12,2.6-.24h7.35a67.52,67.52,0,0,0,7.39-.27,142,142,0,0,0,16.48-1.32,243,243,0,0,0,83.48-30.12A232.45,232.45,0,0,0,405,420.73a253.17,253.17,0,0,0,21.12-21.83,240.5,240.5,0,0,0,29.23-42.77,243.46,243.46,0,0,0,18.91-45.95c5.11-17.45,8.42-35.16,8.32-53.42v-7.31c.11-.86-.25-1.76.24-2.58Zm-79,142.22q-80.67-.12-161.33-.06-80.42,0-160.84.06c-2.42,0-3-.59-3-3q.12-76.23,0-152.47a9.42,9.42,0,0,1,.84-4.14q30.1-64.41,60.11-128.86a3.82,3.82,0,0,1,4.09-2.62q99,.11,198,0a3.8,3.8,0,0,1,4.08,2.61q29.83,64.14,59.82,128.21a11.9,11.9,0,0,1,1.18,5.26q0,76,0,152C406.79,377.91,406.28,378.56,403.82,378.56Z"/><path class="cls-30" d="M381.22,214.72h-274a11.78,11.78,0,0,0-1.19,0c-1.39.12-1.9-.15-1.19-1.69q8-17.25,15.8-34.56c.46-1,1-1.54,2.15-1.41a15.69,15.69,0,0,0,1.68,0q117.77,0,235.54,0c2.32,0,3.49.64,4.49,2.77,5,10.83,10.29,21.57,15.47,32.34C380.35,212.83,380.67,213.55,381.22,214.72Z"/><path class="cls-30" d="M240.78,141.87H132.59c-2.9,0-2.9,0-1.74-2.56,3.9-8.55,7.82-17.09,11.66-25.67a2.83,2.83,0,0,1,3.05-2q94.91.06,189.81,0a3,3,0,0,1,3.18,2.12c4.05,8.57,8.19,17.09,12.3,25.64,1.17,2.43,1.17,2.44-1.64,2.44Z"/><path class="cls-31" d="M242,306.6c-16.19,0-32.38,0-48.58,0-1.93,0-2.65-.25-1.59-2.32,1.63-3.18,3.12-6.45,4.47-9.77.63-1.54,1.52-1.89,3.07-1.89q42.6.06,85.19,0a3.17,3.17,0,0,1,3.39,2.21c1.4,3.21,2.9,6.38,4.54,9.48,1,1.88.71,2.33-1.43,2.32C274.73,306.57,258.37,306.6,242,306.6Z"/></g></g></svg>