<svg xmlns="http://www.w3.org/2000/svg" viewBox="0 0 484.95 484.98"><defs><style>.cls-1{fill:#eb4d1a;}.cls-2{fill:#f39577;}.cls-3{fill:#ed6033;}.cls-4{fill:#e9420e;}</style></defs><title>Asset 13ORACLE</title><g id="Layer_2" data-name="Layer 2"><g id="Layer_1-2" data-name="Layer 1"><path class="cls-1" d="M247.66.45H237c-.31-.17-.3-.32,0-.45h10.57C248,.13,248,.28,247.66.45Z"/><path class="cls-1" d="M.45,237v10.64q-.25.47-.45,0V237Q.2,236.55.45,237Z"/><path class="cls-2" d="M233.2,0a2.82,2.82,0,0,1-3.37,0Z"/><path class="cls-2" d="M254.84,0a2.82,2.82,0,0,1-3.37,0Z"/><path class="cls-3" d="M237.05,0c0,.15,0,.3,0,.45-1,0-2,.27-2.85-.45Z"/><path class="cls-3" d="M247.66.45c0-.15,0-.3,0-.45h2.89C249.65.72,248.63.42,247.66.45Z"/><path class="cls-2" d="M0,229.83a2.16,2.16,0,0,1,0,2.88Z"/><path class="cls-3" d="M.45,237,0,237v-2.88C.71,235,.43,236,.45,237Z"/><path class="cls-3" d="M0,247.62l.45,0c0,1,.26,2-.45,2.85Z"/><path class="cls-2" d="M0,252a2.16,2.16,0,0,1,0,2.88Z"/><path class="cls-4" d="M484.92,237.11c-.08-7.84-.18-15.69-.84-23.49a194.89,194.89,0,0,0-5-28.35,243.41,243.41,0,0,0-26.34-65.52,230.12,230.12,0,0,0-30.53-41.49,244.34,244.34,0,0,0-64.42-50.34A237.51,237.51,0,0,0,295,4.56C286.14,2.67,277.29.91,268.19.66A83.6,83.6,0,0,1,257.24,0h-2.4a5.12,5.12,0,0,1-3.37,0h-1c-1.06.48-2.18.13-3.26.24H237.4c-1.08-.11-2.19.24-3.24-.24h-1a5.12,5.12,0,0,1-3.37,0h-2.4a26.8,26.8,0,0,1-5.92.43A154.6,154.6,0,0,0,196,3.22a242.3,242.3,0,0,0-94.87,40.66,214.11,214.11,0,0,0-24,19.54,283,283,0,0,0-22.78,24,243.22,243.22,0,0,0-26.5,39.38A237.05,237.05,0,0,0,4.57,189.69C3,197.2,1.4,204.71.91,212.41c-.32,4.84-.23,9.71-.91,14.53v2.89a3.78,3.78,0,0,1,0,2.88v1.45c.48,1.05.13,2.17.24,3.26v9.84c-.11,1.08.24,2.19-.24,3.24V252a3.78,3.78,0,0,1,0,2.88v2.89a48.83,48.83,0,0,1,.48,6.4A132.45,132.45,0,0,0,2,281.79a243.28,243.28,0,0,0,37,94.59,225.83,225.83,0,0,0,21.73,28.06A254.93,254.93,0,0,0,89,431.49a245,245,0,0,0,87.25,45.25,221.37,221.37,0,0,0,36.23,7.16c5.65.6,11.33.59,17,.8a388.11,388.11,0,0,0,41.5-.63c9.66-.67,19.16-2.74,28.59-5a241.51,241.51,0,0,0,65.29-26.27A230.57,230.57,0,0,0,406.68,422a257.47,257.47,0,0,0,23.5-24.69,243.34,243.34,0,0,0,26.64-39.58,239.77,239.77,0,0,0,23.28-62.63,175.8,175.8,0,0,0,4-24.61C484.9,259.37,485,248.24,484.92,237.11ZM349.53,239.9q0,51.32.05,102.64c0,2.11-.64,2.86-2.65,3.35q-34.74,8.55-69.42,17.32a7.5,7.5,0,0,1-4.66-.24q-65.52-23.84-131.06-47.61c-2-.72-3-1.64-3-4q.1-72,0-144c0-1.94,1.06-2.2,2.34-2.67q45.22-16.44,90.44-32.91c13.08-4.76,26.17-9.51,39.22-14.35a14,14,0,0,1,8.68-.49q33.39,8.44,66.85,16.7c2.46.61,3.27,1.49,3.26,4.12C349.49,171.8,349.53,205.85,349.53,239.9Z"/><path class="cls-4" d="M271.89,154q-40.14,8.59-80.3,17.15c-2.31.49-3.09,1.35-3.08,3.76q.11,59.25.1,118.51a3,3,0,0,1-2.33,3.27c-6.92,2.5-13.8,5.13-20.69,7.72l-24.86,9.33.09.5q20.69,2.81,41.37,5.6,45,6.15,89.95,12.34c2.13.29,2.9,0,2.9-2.46q-.1-86.65-.05-173.31C275,153.35,275,153.36,271.89,154Z"/></g></g></svg>