<svg xmlns="http://www.w3.org/2000/svg" viewBox="0 0 430.51 431.46"><defs><style>.cls-1{fill:#5f7c89;}.cls-2{fill:#fafbfb;}.cls-3{fill:#e7ebed;}.cls-4{fill:#f1f4f5;}.cls-5{fill:#f5f7f7;}.cls-6{fill:#f5f7f8;}.cls-7{fill:#f8f9fa;}</style></defs><title>Asset 18NetworkDevice</title><g id="Layer_2" data-name="Layer 2"><g id="Layer_1-2" data-name="Layer 1"><path class="cls-1" d="M214.44,0C80.11.47-6.43,116.22.37,216c-6.55,98.92,79.32,214.87,214,215.42,119.21.49,216.05-96.27,216.19-215.3C430.66,96.65,333.92-.41,214.44,0ZM182.86,147c10.67-2.75,21.61-3.54,32.51-3.91,11,.38,22,1.2,32.64,3.94,2.06.53,5.19.3,4.23,4.33-.86,3.58-2.56,3.71-5.75,2.94a130.2,130.2,0,0,0-62.23,0c-3.31.82-4.93.46-5.72-3C177.63,147.24,180.78,147.5,182.86,147Zm59.33,28.32c-.89,2.95-2.21,3.49-5.31,2.78a94.41,94.41,0,0,0-42.79,0c-3,.69-4.44.47-5.4-2.62-1.17-3.78,1.54-4.15,3.82-4.65a107.66,107.66,0,0,1,23.94-2.47,102.09,102.09,0,0,1,21.77,2.44C240.43,171.19,243.34,171.44,242.19,175.28ZM349.42,293.61c-.36,11.05-8.34,17.81-20.07,17.82q-56.85.07-113.7,0-56.49,0-113,0c-14,0-21.12-7.18-21.19-21.27q-.09-18,0-35.94c.09-13.81,7.09-20.83,20.68-20.91C115,233.24,115,233.24,115,220.1c0-31.06-.07-62.11.12-93.17,0-2.73-2.66-7.7,3.34-7.82,6.62-.13,3.7,5.28,3.72,8.14.22,32.76.28,65.53,0,98.3,0,5.79,1,8,7.46,7.93,25.18-.4,50.38-.34,75.56,0,5.68.07,7.06-1.71,6.81-7.07-.42-9-.16-18.09-.08-27.13,0-2.45-1.06-5.59,3.41-5.76,5-.19,3.81,3.34,3.84,6,.09,9.29.2,18.59,0,27.87-.11,4.2.75,6.09,5.56,6,23.72-.23,47.44-.27,71.16,0,5.34.07,5.84-2.24,5.82-6.54q-.17-50.61,0-101.23c0-1.91-.07-4,.74-5.65s3.07-1.13,4.68-.79c2.33.5,1.83,2.6,1.84,4.2.05,8.8,0,17.6,0,26.41,0,25.67.13,51.35-.11,77-.05,5.15,1.42,7,6.58,6.55a152.09,152.09,0,0,1,15.4-.07c10.66.23,18.27,7.1,18.58,17.73C349.85,265.24,349.88,279.44,349.42,293.61Z"/><path class="cls-1" d="M216.13,240.64q55.77,0,111.54,0c10.91,0,14.56,3.61,14.6,14.44q.08,17.23,0,34.49c0,10.75-3.72,14.33-14.68,14.33q-112.27,0-224.54,0c-10.43,0-14.18-3.68-14.25-14-.08-12-.13-24,0-36,.11-9.42,4.06-13.24,13.56-13.25Q159.26,240.59,216.13,240.64Z"/><path class="cls-2" d="M274.37,276.11c-9.74,0-19.49,0-29.24,0-2.81,0-5.42.16-5.24-4,.16-3.83,2.74-3.36,5.13-3.36q30,0,59.94,0c2.57,0,4.88-.05,4.89,3.63s-2.1,3.77-4.77,3.76C294.84,276.08,284.61,276.11,274.37,276.11Z"/><path class="cls-3" d="M165.24,268.54c3-.27,3.76,1.31,3.77,3.94,0,2.87-1.36,3.75-4,3.74s-4.18-.58-4.15-3.57S162.2,268.17,165.24,268.54Z"/><path class="cls-4" d="M122.68,272c.29,2.87-.71,4.2-3.57,4.19-2.61,0-4-.8-4-3.66,0-2.63.83-4,3.68-4C121.37,268.55,123,269.26,122.68,272Z"/><path class="cls-5" d="M138.22,272.48c.31,3.28-1.61,3.6-4.05,3.66-3,.08-3.47-1.61-3.48-4.09,0-3,1.6-3.52,4.12-3.5C137.74,268.57,138.53,270.1,138.22,272.48Z"/><path class="cls-6" d="M153.32,273c.07,3.28-2.24,3-4.43,3.06-3.24,0-3.09-2.21-3.09-4.43,0-3.24,2.24-3.07,4.46-3.07C153.49,268.59,153.37,270.83,153.32,273Z"/><path class="cls-7" d="M179.91,268.65c2.91-.36,4.1.76,4.1,3.58,0,2.63-.75,3.95-3.64,3.92-2.61,0-4-.78-3.93-3.66C176.5,269.93,177.09,268.21,179.91,268.65Z"/></g></g></svg>