<svg xmlns="http://www.w3.org/2000/svg" viewBox="0 0 475.77 489.83"><defs><style>.cls-1{fill:#eb4d1a;}.cls-2{fill:#f39577;}.cls-3{fill:#ed6033;}.cls-4{fill:#0c4da2;}.cls-5{fill:#fff;}</style></defs><title>Asset 14nutanix</title><g id="Layer_2" data-name="Layer 2"><g id="Layer_1-2" data-name="Layer 1"><path class="cls-1" d="M249.94.45H239.29c-.31-.17-.3-.32,0-.45H249.9C250.23.13,250.25.28,249.94.45Z"/><path class="cls-1" d="M2.73,237v10.64c-.17.31-.33.3-.45,0V237C2.4,236.71,2.56,236.7,2.73,237Z"/><path class="cls-2" d="M235.48,0a2.82,2.82,0,0,1-3.37,0Z"/><path class="cls-2" d="M257.12,0a2.82,2.82,0,0,1-3.37,0Z"/><path class="cls-3" d="M239.33,0c0,.15,0,.3,0,.45-1,0-2,.27-2.85-.45Z"/><path class="cls-3" d="M249.94.45c0-.15,0-.3,0-.45h2.89C251.93.72,250.91.42,249.94.45Z"/><path class="cls-2" d="M2.28,229.83a2.16,2.16,0,0,1,0,2.88Z"/><path class="cls-3" d="M2.73,237l-.45,0v-2.88C3,235,2.7,236,2.73,237Z"/><path class="cls-3" d="M2.28,247.62l.45,0c0,1,.26,2-.45,2.85Z"/><path class="cls-2" d="M2.28,252a2.16,2.16,0,0,1,0,2.88Z"/><circle class="cls-4" cx="237.88" cy="251.95" r="237.88"/><path class="cls-5" d="M180.23,252.84l-121-106.71A7.17,7.17,0,0,1,64,133.58h72.23a7.18,7.18,0,0,1,4.77,1.81L273,253a7.17,7.17,0,0,1,.07,10.65L140.41,384.83a7.2,7.2,0,0,1-4.83,1.87H66.05a7.17,7.17,0,0,1-4.89-12.42L180.37,263.47A7.18,7.18,0,0,0,180.23,252.84Z"/><path class="cls-5" d="M262.39,198.07l71.73-63a5.89,5.89,0,0,1,3.9-1.47H416A5.9,5.9,0,0,1,419.79,144L309.65,237.89a5.92,5.92,0,0,1-7.47.16l-39.53-30.9A5.9,5.9,0,0,1,262.39,198.07Z"/><path class="cls-5" d="M309,282.88l108.79,94a5.61,5.61,0,0,1-3.67,9.86h-76.2a5.63,5.63,0,0,1-3.67-1.36l-72.07-62.29a5.62,5.62,0,0,1,.16-8.63l39.47-31.67A5.63,5.63,0,0,1,309,282.88Z"/></g></g></svg>