<svg xmlns="http://www.w3.org/2000/svg" viewBox="0 0 481.96 481.92"><defs><style>.cls-1{fill:#2d82ce;}.cls-2{fill:#4c93d4;}.cls-3{fill:#569ad7;}.cls-4{fill:#aeceeb;}.cls-5{fill:#74acde;}.cls-6{fill:#90bce5;}.cls-7{fill:#67a4db;}.cls-8{fill:#adcdeb;}.cls-9{fill:#afcfec;}.cls-10{fill:#4c93d5;}.cls-11{fill:#c9def2;}.cls-12{fill:#84b5e2;}.cls-13{fill:#0468c4;}</style></defs><title>Asset 6NETAPP</title><g id="Layer_2" data-name="Layer 2"><g id="Layer_1-2" data-name="Layer 1"><path class="cls-1" d="M481.5,246.84l0-9.61c.17-.32.32-.31.43,0v9.56C481.82,247.15,481.66,247.16,481.5,246.84Z"/><path class="cls-2" d="M238.23,481.49H244c.33.16.32.3,0,.43h-5.74C237.92,481.79,237.91,481.65,238.23,481.49Z"/><path class="cls-3" d="M482,237.27l-.43,0c.21-1.58-.61-3.24.43-4.74Z"/><path class="cls-4" d="M482,231.53a2.7,2.7,0,0,1,0-3.34Z"/><path class="cls-5" d="M481.55,252.59v-3.33c.09-.36.22-.38.4,0v3.35C481.85,252.91,481.71,252.92,481.55,252.59Z"/><path class="cls-6" d="M231.53,481.52h3.35c.35.12.36.26,0,.41h-3.35C231.21,481.81,231.2,481.67,231.53,481.52Z"/><path class="cls-7" d="M234.91,481.92a2.93,2.93,0,0,0,0-.41l3.35,0a3.1,3.1,0,0,1,0,.43Z"/><path class="cls-8" d="M481.55,252.59a1.44,1.44,0,0,0,.41,0v2.87C481,254.6,481.66,253.54,481.55,252.59Z"/><path class="cls-7" d="M244,481.92a3.12,3.12,0,0,1,0-.43l2.88.05c.33.15.33.28,0,.38Z"/><path class="cls-9" d="M249.27,481.53c.95.1,2-.57,2.84.39h-2.87Q248.75,481.69,249.27,481.53Z"/><path class="cls-10" d="M482,249.21a1.83,1.83,0,0,1-.4,0l-.06-2.42a3.49,3.49,0,0,1,.46,0Z"/><path class="cls-11" d="M231.53,481.52a2.69,2.69,0,0,1,0,.4h-2.39c0-.13,0-.26,0-.4Z"/><path class="cls-12" d="M249.27,481.53l0,.39h-2.39l0-.38Z"/><path class="cls-13" d="M482,227.71a22.43,22.43,0,0,1-.44-5.41c0-12.17-2-24.08-4.79-35.85A252.8,252.8,0,0,0,453,124.15a239.05,239.05,0,0,0-38.78-52.39c-5.14-5.31-10.7-10.2-16.32-15A245.7,245.7,0,0,0,348.78,24,224.61,224.61,0,0,0,313.35,9.78,211.37,211.37,0,0,0,250.9,0c-9.07,0-18.14-.13-27.21.26-3.65.16-7.32.16-10.94.58a238.9,238.9,0,0,0-149,76,273.68,273.68,0,0,0-20.63,25.33A232.23,232.23,0,0,0,12.75,160.7,223.75,223.75,0,0,0,0,237.28c0,4.93.23,9.86.3,14.79A179.86,179.86,0,0,0,1.54,274a231.38,231.38,0,0,0,10,43.43,257.64,257.64,0,0,0,17.11,39.1A239.6,239.6,0,0,0,65,406.9a229.31,229.31,0,0,0,26.1,23.74,250.56,250.56,0,0,0,48.2,29.85,241.19,241.19,0,0,0,45.45,15.85,190.39,190.39,0,0,0,44.64,5.35h19.75c1,.12,2-.27,3,.23h.95a24.84,24.84,0,0,1,5.89-.42c13.29,0,26.29-2.23,39.13-5.37a243.94,243.94,0,0,0,59.25-23,251,251,0,0,0,52.3-38.52,219.3,219.3,0,0,0,18.43-20,240,240,0,0,0,34-54.79,232.64,232.64,0,0,0,15.41-46.61,157.81,157.81,0,0,0,3.57-22.59c.31-4.74.13-9.5.88-14.21v-.95c-.49-1-.13-2.06-.24-3.08V237.48c.12-1.66-.27-3.35.24-5v-1a4.91,4.91,0,0,1,0-3.34Zm-137.7,102c0,3.4,0,3.4-3.46,3.4H272.71c-3.15,0-3.15,0-3.15-3.18V219.27c0-3.87,0-3.87-4-3.87h-48c-3.09,0-3.18.11-3.18,3.23q0,55.43,0,110.85c0,1.86-.49,2.5-2.4,2.5q-35.59-.08-71.2,0c-1.85,0-2.42-.73-2.3-2.39,0-.47,0-.95,0-1.43V164.26c0-3.73,0-3.73,3.86-3.73H340.45c3.81,0,3.81,0,3.81,3.82V329.67Z"/></g></g></svg>