<svg xmlns="http://www.w3.org/2000/svg" viewBox="0 0 469.61 469.54"><defs><style>.cls-1{fill:#135291;}.cls-2{fill:#135191;}.cls-3{fill:#7298be;}.cls-4{fill:#2d649e;}.cls-5{fill:#2d659e;}.cls-6{fill:#2c649e;}.cls-7{fill:#07488c;}</style></defs><title>Asset 4EMC</title><g id="Layer_2" data-name="Layer 2"><g id="Layer_1-2" data-name="Layer 1"><path class="cls-1" d="M239.81.44H229.5c-.29-.17-.28-.31,0-.44h10.25C240.09.12,240.1.27,239.81.44Z"/><path class="cls-2" d="M.44,229.5v10.31c-.17.29-.32.28-.44,0V229.53C.12,229.22.27,229.21.44,229.5Z"/><path class="cls-3" d="M225.81,0a2.7,2.7,0,0,1-3.26,0Z"/><path class="cls-3" d="M246.76,0a2.7,2.7,0,0,1-3.26,0Z"/><path class="cls-4" d="M229.53,0a3.25,3.25,0,0,1,0,.44c-.93,0-1.93.29-2.76-.44Z"/><path class="cls-5" d="M239.81.44l0-.44h2.79C241.74.74,240.75.39,239.81.44Z"/><path class="cls-3" d="M0,222.55a2.07,2.07,0,0,1,0,2.79Z"/><path class="cls-6" d="M.44,229.5l-.44,0v-2.79C.73,227.57.39,228.56.44,229.5Z"/><path class="cls-6" d="M0,239.77l.44,0c0,.93.29,1.93-.44,2.76Z"/><path class="cls-3" d="M0,244a2.08,2.08,0,0,1,0,2.8Z"/><path class="cls-7" d="M469.5,224.64c-.08-5.8-.14-11.63-.73-17.4a214.4,214.4,0,0,0-4.84-27.65A235,235,0,0,0,438.36,116a226,226,0,0,0-29.71-40.34A240.25,240.25,0,0,0,384.91,53a236.83,236.83,0,0,0-38.47-26A230,230,0,0,0,287,4.77c-9.07-2-18.16-3.86-27.51-4.13A80,80,0,0,1,249.09,0h-2.33a4.93,4.93,0,0,1-3.26,0h-.93c-1,.47-2.11.12-3.16.23h-9.53c-1-.11-2.12.24-3.14-.23h-.93a4.93,4.93,0,0,1-3.26,0h-2.33c-.32.3-.71.22-1.09.23a174.05,174.05,0,0,0-29.5,3,233.92,233.92,0,0,0-53,17A230.58,230.58,0,0,0,98.85,42,216.3,216.3,0,0,0,75,61.21,276.36,276.36,0,0,0,55.51,81.45a234.7,234.7,0,0,0-28.37,41.27A230.15,230.15,0,0,0,4.77,182.36a165.88,165.88,0,0,0-3.9,23.56c-.34,4.61-.22,9.25-.87,13.83v2.8a3.65,3.65,0,0,1,0,2.79v1.4c.47,1,.12,2.1.23,3.15v9.54c-.11,1,.24,2.12-.23,3.14V244a3.67,3.67,0,0,1,0,2.8v2.79a18.62,18.62,0,0,1,.42,5c0,11.93,2.25,23.55,5,35.09a233.67,233.67,0,0,0,25.54,63.64,225.21,225.21,0,0,0,29.71,40.35,240.2,240.2,0,0,0,23.91,22.74,235,235,0,0,0,38.29,25.81,238,238,0,0,0,44,18.26,204.43,204.43,0,0,0,59.7,9.06c8,0,16,0,23.95-.21a163.1,163.1,0,0,0,22.41-2,236.08,236.08,0,0,0,43.73-11.58A240.24,240.24,0,0,0,368,429a243,243,0,0,0,42.44-37.42A232.1,232.1,0,0,0,451.59,327c9.23-21.67,15.35-44.15,17.26-67.68C469.78,247.74,469.66,236.18,469.5,224.64ZM141.17,285.16c0,3-.1,3.12-3.16,3.07-23.72-.35-47.45-1.07-71.18-.84a131.44,131.44,0,0,0-16.46,1.15c-1.21.17-2.15,0-2.53-1.35a2,2,0,0,1,1.41-2.55c2.56-1.11,5.12-2.22,7.72-3.22,5-1.95,7.07-4.62,7.19-10.18q.27-13.14.29-26.29c0-13.73-.11-27.46-.09-41.19,0-6.69-3-11-9.44-12.93-1.71-.51-3.36-1.19-5-1.78-1-.34-2-.7-1.7-2.05s1.29-1.31,2.37-1.31l34.91,0h7.68v.11c13.72,0,27.45,0,41.18,0,4.11,0,4.28.14,4.26,4.3q-.08,10.71-.06,21.41c0,.75.42,1.65-.72,1.86-1,.18-1.37-.58-1.62-1.33-1.62-4.95-4.65-9.06-7.68-13.19a5.27,5.27,0,0,0-4.71-2.38c-10.55,0-21.1.07-31.65,0-2.25,0-3,.82-3,3q.14,13.14,0,26.29c0,2.24.73,3,3,2.94q12.92-.14,25.83,0a5.82,5.82,0,0,0,5.27-2.75,50,50,0,0,0,5.31-10.3c.34-.87.71-1.85,1.95-1.49,1.09.32.94,1.27.9,2.13-.61,11.47-.53,22.94-.32,34.42a11.09,11.09,0,0,1,0,1.63c-.1.79.15,1.89-1,2s-1.16-.9-1.43-1.57a64.92,64.92,0,0,0-5.54-10.7,5.6,5.6,0,0,0-5.2-2.86c-8.53.05-17.07,0-25.6,0-2.74,0-3,.35-3,3.1,0,10.23,0,20.47-.09,30.71,0,2,.69,3,2.84,3q17.57-.07,35.14,0a4.71,4.71,0,0,0,4.52-2.65,88.72,88.72,0,0,0,6.63-14.55c.32-1,.56-2.09,1.94-1.81s1,1.35,1,2.26Q141.14,272.25,141.17,285.16Zm177.5,2.12c-.21.87-.87.89-1.64.86-18.69-.56-37.38-.49-56.07,0a6.45,6.45,0,0,1-1.39-.08c-.68-.14-1.46-.33-1.56-1.15s.75-1.1,1.37-1.3a73.9,73.9,0,0,0,12.26-5c2.81-1.5,3.9-3.39,3.6-6.7-1.89-20.93-3.58-41.88-5.34-62.83,0-.52-.16-1-.27-1.74-1,.53-1.13,1.41-1.47,2.1Q250,248.19,231.89,284.93c-1.53,3.09-4.15,4.26-7.42,3.24-1.43-.44-1.85-1.76-2.4-2.95Q209,257,196,228.73c-2.2-4.78-4.39-9.56-6.61-14.33a4.16,4.16,0,0,0-2.14-2.53c-.66,6.68-1.32,13.2-1.94,19.73-1.35,14.2-2.65,28.41-4,42.61a5.63,5.63,0,0,0,2.72,5.72c3.35,2.21,7.16,3.28,10.94,4.43.6.18,1.2.31,1.79.5.87.28,1.69.76,1.47,1.77s-1.23.93-2.1.89q-20.83-.82-41.64.29c-.62,0-1.24.06-1.86.05-1,0-1.87-.42-2-1.51s.74-1.43,1.57-1.67c1.94-.56,3.86-1.2,5.83-1.59a11.1,11.1,0,0,0,9-8.14c1.71-5.43,2.27-11.07,2.93-16.69,2.12-17.94,4.19-35.89,6.38-53.83,1-8.22-.6-11.05-8.47-13.78-2-.69-4-1.14-6-1.75-1.35-.42-2.9-.85-2.5-2.74s1.93-1,3.06-.94c11.32.16,22.65.51,34,.41,4.27,0,6.54,1.48,8.37,5.33,9.26,19.5,18.79,38.87,28.24,58.27.26.54.38,1.21,1.15,1.58q7.29-14.22,14.58-28.45c5.53-10.81,11.08-21.62,16.51-32.48a5.14,5.14,0,0,1,5.25-3.28q12.45.19,24.9.05c3.48,0,7-.54,10.43-.75,1.12-.07,2.65-.89,3.08,1s-1,2.2-2.23,2.76c-3.72,1.72-7.47,3.4-11.15,5.22-3.39,1.67-3.59,2.3-3.19,6q3.13,29.61,6.22,59.24c.52,5,1,10,1.47,15.05a4.83,4.83,0,0,0,2.66,3.82,72.24,72.24,0,0,0,13.68,6.34c.44.16.88.3,1.33.44C318.31,286,318.87,286.42,318.67,287.28Zm84.59-4.87c0,2.37-1.63,3.35-3.65,3.92a108.53,108.53,0,0,1-18.48,3.5c-10.23,1-20.47,1.41-30.55-1.09a45.57,45.57,0,0,1-35-40.32c-1.79-17.37,2.3-33,14.36-46,9.74-10.5,22.15-15.9,36.13-18,10.83-1.62,21.65-1.14,32.48.21,2.2.27,2.83,1.26,2.75,3.37-.14,3.71,0,7.44,0,11.16h-.87c0,3.87,0,7.75,0,11.62,0,1,.13,2.21-1.2,2.44-1.49.25-1.7-1.07-2-2.08a77.61,77.61,0,0,0-3.69-9.76c-2.94-6.17-7.75-9-14.59-9.25-13.15-.49-22.45,5-28.21,16.84-5.43,11.16-8.68,22.7-7.13,35.24a53,53,0,0,0,9.36,24.5,30.15,30.15,0,0,0,36.35,10,10.9,10.9,0,0,0,5.66-5.58c2-4.21,3.42-8.63,5-13a16.52,16.52,0,0,1,1.24-2.74,1.37,1.37,0,0,1,1.6-.68c.73.2.84.78.83,1.46C403.49,266.3,403.39,274.36,403.26,282.41Zm33.91-73.82c-8.53-.1-17.06-.11-25.6-.15a7.25,7.25,0,0,1-.93-.05c-1.1-.15-2.66,1.08-3.21-.7s-.78-3.83,1.06-5.33a72.87,72.87,0,0,0,8.26-7.84c2.34-2.59,4.61-5.24,6.85-7.92a12.15,12.15,0,0,0,2.92-8.36c-.11-5.41-3.58-8.07-8.84-6.68a32.05,32.05,0,0,0-6,2.49c-1.18.58-2.4.94-3.27-.48s.12-2.16,1-2.93c5.5-4.66,11.59-7.55,19-5.89,7.83,1.76,11.7,9.15,8.89,16.68a21.62,21.62,0,0,1-6.23,8.57c-3.3,2.93-6.72,5.74-10.07,8.63-.38.32-1,.46-1,1.31,4.1,0,8.18,0,12.25,0a2.93,2.93,0,0,0,2.36-1.69c1.14-1.73,2.28-3.46,3.47-5.25.3.25.6.39.6.53.07,4.5.1,9,.16,13.5C438.86,208.16,438.42,208.6,437.17,208.59Z"/></g></g></svg>