<svg xmlns="http://www.w3.org/2000/svg" viewBox="0 0 485.17 480.89"><defs><style>.cls-1{fill:#4acff4;}.cls-2{fill:#97e3f8;}.cls-3{fill:#95e3f8;}.cls-4{fill:#b1eafa;}.cls-5{fill:#68d7f6;}.cls-6{fill:#69d7f6;}.cls-7{fill:#cef1fb;}.cls-8{fill:#d1f2fb;}.cls-9{fill:#87dff7;}.cls-10{fill:#88dff7;}.cls-11{fill:#82267a;}</style></defs><title>Asset 12VMWARE</title><g id="Layer_2" data-name="Layer 2"><g id="Layer_1-2" data-name="Layer 1"><path class="cls-1" d="M484.75,241.74c0-3.24,0-6.49,0-9.74.16-.32.3-.31.41,0v9.69C485.05,242.07,484.91,242.07,484.75,241.74Z"/><path class="cls-1" d="M238.21,480.48h5.87c.33.16.32.3,0,.41h-5.81C237.89,480.78,237.88,480.64,238.21,480.48Z"/><path class="cls-2" d="M484.76,229.1c0-1.13,0-2.26,0-3.38.16-.34.3-.33.42,0v3.39C485,229.46,484.87,229.45,484.76,229.1Z"/><path class="cls-3" d="M484.75,248v-3.39q.18-.53.42,0V248Q485,248.54,484.75,248Z"/><path class="cls-4" d="M229,480.89c1-1,2.25-.25,3.37-.4.35.11.36.25,0,.4Z"/><path class="cls-5" d="M238.21,480.48a2.83,2.83,0,0,1,0,.41h-3.39c-.35-.11-.36-.25,0-.4Z"/><path class="cls-5" d="M244.05,480.89l0-.41h3.38c.34.15.33.29,0,.4Z"/><path class="cls-6" d="M484.76,229.1a1.89,1.89,0,0,1,.41,0V232l-.41,0Z"/><path class="cls-5" d="M485.17,244.62l-.42,0v-2.91l.42,0Z"/><path class="cls-4" d="M249.89,480.49c1,.1,2-.56,2.88.4h-2.91C249.52,480.74,249.53,480.6,249.89,480.49Z"/><path class="cls-7" d="M485.17,225.74l-.42,0V223.3a3,3,0,0,1,.42,0Z"/><path class="cls-8" d="M484.75,248l.42,0v2.42l-.43,0C484.75,249.64,484.75,248.84,484.75,248Z"/><path class="cls-9" d="M234.83,480.49c0,.13,0,.27,0,.4h-2.42c0-.13,0-.27,0-.4Z"/><path class="cls-10" d="M249.89,480.49c0,.13,0,.27,0,.4h-2.42c0-.13,0-.27,0-.4Z"/><path class="cls-11" d="M152.6,272.47c8.3.1,16.6.07,24.9.1,3.84,0,4.47-.59,4.47-4.47V225.8h0V183.49c0-3.75-.73-4.47-4.53-4.47H145.06c-3.62,0-4.27.62-4.27,4.19q0,38.68.06,77.36C140.86,268.29,144.89,272.38,152.6,272.47Z"/><path class="cls-11" d="M289.36,339.37a21.56,21.56,0,0,0-2.41-.07q-39.15.31-78.31.06c-16.82-.13-26.61-9.81-26.7-26.57,0-7.42,0-14.83.05-22.24,0-3.95-.62-4.57-4.62-4.55-8.7,0-17.41.2-26.1-.06-11.17-.35-19.42-6.21-22.73-15.7a30.42,30.42,0,0,1-1.69-10q0-29.61,0-59.23c0-6,.07-12.08.06-18.12,0-2-.52-3.86-3-3.86-9.51,0-19-.16-28.52.24-6.26.26-9.18,3.54-10,9.77a23.22,23.22,0,0,0-.16,2.89q0,87.51,0,175c0,8.86,3.68,12.37,12.6,12.43h90.9v.05h45.68q22.84,0,45.69-.06c8.43,0,12.31-3.51,12.52-11.58s.1-16.44.16-24.66A3.38,3.38,0,0,0,289.36,339.37Z"/><path class="cls-11" d="M288,286H244.25v.11h-30.7c-4.75,0-9.5-.05-14.25-.08-1.94,0-3.38.61-3.38,2.84,0,8.94-.12,17.89.19,26.82.2,6,4,9.53,10,10.11,1,.09,1.92.2,2.89.2q39.87,0,79.75.06c3.22,0,4-.8,4-4q0-15.7,0-31.41C292.76,286.89,291.79,286,288,286Z"/><path class="cls-11" d="M292.72,192.72a26.69,26.69,0,0,0-.41-5.05c-.85-4.42-3.41-7.15-7.84-8.12a21.18,21.18,0,0,0-4.56-.45L200.64,179c-4.22,0-4.74.56-4.74,4.74q0,42,0,84.1c0,4.05.64,4.71,4.79,4.71h87c4.56,0,5.11-.56,5.11-5.17Q292.74,230.05,292.72,192.72Z"/><path class="cls-11" d="M404,201.57c-.77-1.19-.57-2.46-.57-3.72q0-29.13,0-58.26a37.55,37.55,0,0,0-.39-5.29c-.71-5-3.25-7.51-8.22-8.45a31.93,31.93,0,0,0-6-.42c-7.17,0-14.34,0-21.51-.07-4.7-.06-5.45.61-5.46,5.39v64.54h.05c0,21.43.08,42.87,0,64.3-.06,10.34-3.59,19-13.51,23.76A27.81,27.81,0,0,1,336.12,286q-12.21.06-24.41,0c-4.49,0-5.08.5-5,4.9,0,6.61.11,13.22.12,19.82,0,3.79-.14,7.57-.1,11.36,0,2.64,1,3.64,3.59,3.94a21.27,21.27,0,0,0,2.65.06l76.14-.1c10.84,0,14.33-3.51,14.33-14.35q0-9.66,0-19.34c0-6.44,0-12.89,0-19.33s0-13.06,0-19.58.1-12.9,0-19.34c-.12-6.28.41-12.57,0-18.85,0-.24-.06-.58.06-.7,1.27-1.24,0-2.71.19-3.57.56-2.64-.33-5.24.35-7.76A2.1,2.1,0,0,0,404,201.57Z"/><path class="cls-11" d="M311.12,272.57c8.05,0,16.11,0,24.17-.08,8.68-.12,12.54-4,12.55-12.66q.06-64.78.09-129.57c0-4.25-.65-4.87-4.92-4.87H275.33v.08q-33.72,0-67.44,0c-7.72,0-11.84,4-11.92,11.74-.09,8-.1,15.95-.1,23.92,0,3.38,1.07,4.46,4.52,4.48,5.56,0,11.12,0,16.67,0,20.71-.05,41.42.12,62.12-.22,15.79-.26,27.79,11.16,27.66,27q-.18,21.26-.22,42.53c0,11.11,0,22.23.05,33.35C306.69,271.87,307.46,272.58,311.12,272.57Z"/><path class="cls-11" d="M144.38,165.59h34.08c2.77,0,3.5-.71,3.5-3.37,0-7.17-.05-14.34-.06-21.51,0-4.11,0-8.23,1.19-12.22,2.78-9.11,11.77-15.67,22.49-16.11,7.4-.3,14.82-.26,22.23-.26,17.56,0,35.13.08,52.69.11q30.94.06,61.88.06c5,0,5.58-.62,5.52-5.5-.07-5.16,0-10.32-.07-15.47,0-3.62.28-7.25-.4-10.85-.83-4.43-3.1-6.8-7.45-7.82a25.73,25.73,0,0,0-6-.47q-44.84,0-89.68,0-45.69,0-91.37,0c-8.47,0-12.09,3.66-12.09,12.07q0,21.39,0,42.79,0,17.4,0,34.8C140.79,165,141.32,165.58,144.38,165.59Z"/><path class="cls-11" d="M237.69,0C106.47,0-.07,106.61,0,237.4.07,366.1,102.75,473.31,234.49,475.08c129.93,1.75,239.32-100.49,240.75-234.72C476.71,102.21,365.25-.17,237.69,0ZM416.37,321.46c-2.67,10.29-11,17.1-21.86,17.73-5.14.3-10.31.28-15.46.28q-33.36,0-66.72-.17c-5,0-5.76.81-5.67,5.72.15,8.62.69,17.28-.28,25.84-1.54,13.49-10.87,21.74-24.5,22.36-1.2,0-2.41.06-3.62.06H99.35a39.58,39.58,0,0,1-9.82-1.07c-11-2.8-17.6-11.31-18.22-23.31-.07-1.37-.09-2.74-.09-4.11q0-85.34,0-170.68c0-4.87.39-9.67,2.31-14.21,4.16-9.82,12.27-13.77,22.26-14.19,8.85-.38,17.72-.09,26.58-.07,3.51,0,4.54-.89,4.52-4.38-.13-24.82.63-49.65-.28-74.45-.68-18.65,13.3-28.74,27.77-28.61,30,.26,60,.08,89.93.08v.08h90.91a32.57,32.57,0,0,1,8.84,1.11c10.95,3.05,17.55,12,17.75,24.19.13,7.66.06,15.32,0,23,0,5.19.52,5.86,5.81,5.64,8.14-.35,16.27-.22,24.4,0,15.91.39,25.32,10,25.4,26.05.06,12,0,24,0,36q0,68.77,0,137.56A37.59,37.59,0,0,1,416.37,321.46Z"/></g></g></svg>