<svg xmlns="http://www.w3.org/2000/svg" viewBox="0 0 512.81 511.45"><defs><style>.cls-1{fill:#0d72b8;}.cls-2{fill:#c1dbec;}.cls-3{fill:#4d97cb;}.cls-4{fill:#4391c8;}.cls-5{fill:#fefefe;}.cls-6{fill:#fbfcfd;}.cls-7{fill:#5c9fcf;}.cls-8{fill:#fcfdfd;}</style></defs><title>Asset 22WebSites</title><g id="Layer_2" data-name="Layer 2"><g id="Layer_1-2" data-name="Layer 1"><path class="cls-1" d="M238.91,511.45h-6c-7.17-1.08-14.45-.91-21.64-1.78-19.64-2.39-38.28-8.42-56.39-16.11a256,256,0,0,1-73-47c-32.34-29.51-55.83-64.69-70.06-106-2.16-6.28-4.12-12.62-6-19C1.88,308.38,1.31,294.86.49,281.34.42,280.22.86,279,0,278v-6a10.45,10.45,0,0,0,0-7v-18a10.45,10.45,0,0,0,0-7v-6c1.05-6.7,1.13-13.47,1.51-20.22.54-9.53,2.93-18.71,5.58-27.78C18.38,147.38,37.17,112.88,64.5,82.91A262.17,262.17,0,0,1,146.09,22.4,241.49,241.49,0,0,1,210.67,2.1C219.83.57,229.19.47,238.46.26,257-.15,275.62-.27,294.14,1.37c19.56,1.73,38.21,7.37,56.38,14.5a255.33,255.33,0,0,1,77.32,47.64c43.21,38.56,70.31,86.27,81.82,142.75,2.9,14.25,2.68,28.94,2.65,43.5v12.41c1.76,42.45-9.68,81.64-29.88,118.54a252.59,252.59,0,0,1-32.18,45.44,255.87,255.87,0,0,1-83.76,63.17c-21,9.9-42.77,17.45-65.95,20.36-7.52.94-15.13.69-22.64,1.77h-33A7.89,7.89,0,0,0,238.91,511.45Z"/><path class="cls-2" d="M512.81,263l-.41.11-.41-.05V249a1.16,1.16,0,0,1,.82.06Z"/><path class="cls-3" d="M0,240.09c1.64,2.32,1.32,4.65,0,7Z"/><path class="cls-3" d="M0,265c1.32,2.32,1.64,4.65,0,7Z"/><path class="cls-4" d="M238.91,511.45c2-1.5,4-1.29,6,0Z"/><path class="cls-5" d="M413.91,371.46c0,6.34.16,11.3,0,16.24-.66,16.39-12.36,27.91-28.74,28.46-1.16,0-2.33,0-3.5,0H123.76c-21.05,0-32.63-11.64-32.63-32.8q0-130.92,0-261.85c0-15.72,8.6-27.24,22.75-30.48a29.38,29.38,0,0,1,6.43-.58q132.44,0,264.86,0c15.59,0,28.3,11.78,28.59,27.35.41,22.1.23,44.22.2,66.33,0,4.92-3,8-7.07,7.9s-6.82-3.06-6.86-8.11c-.08-8.32-.24-16.64.07-24.94.14-3.93-1-4.94-4.95-4.94q-84.95.21-169.91.09c-38.15,0-76.29.08-114.44-.1-4.47,0-5.8,1-5.79,5.68q.24,112,.11,223.94c0,12.89,5.59,18.54,18.53,18.55q83.22,0,166.42,0H381c13.75,0,19-5.26,19-19,0-5-.5-10,.12-14.95,1-8-1.91-13.75-7.83-19-7.08-6.28-13.51-13.3-20.06-20.16-3.95-4.15-3.74-7.49.26-11.63,1.5-1.56,3.14-3,4.56-4.62,1-1.17,3.43-1.86,1.29-4.31-2-2.27-3.32-1.63-5.34-.09a77.81,77.81,0,0,1-51.63,16.51c-20.56-.78-38.1-8.57-52.76-22.8a10.64,10.64,0,0,0-8.27-3.24q-61,.15-121.94.07c-8.34,0-10.29-1.95-10.29-10.26q0-45.15,0-90.28c0-8.27,2-10.2,10.34-10.2q61.72,0,123.44.06a10.7,10.7,0,0,0,7.85-3.16c22.82-20.62,49.32-27.3,78.68-18,29.52,9.39,47.62,30.25,54.28,60.33,5.28,23.83-.07,45.81-14.47,65.51-1.6,2.19-2.47,3.65,0,5.71s3.17-.62,4.18-1.58c10.68-10.25,10.66-10.3,21.31.37,8.11,8.12,16.16,16.31,24.27,24.43,2.38,2.38,3.89,5,2.92,8.46-1.47,5.25-7.66,6.65-11.92,2.47-7.84-7.69-15.6-15.47-23.18-23.41-2.31-2.43-3.66-2.34-5.81.05a111,111,0,0,1-10.25,10.21c-3.07,2.64-3.23,4.27-.15,7.29,16.23,16,32.2,32.28,48.25,48.46a26.34,26.34,0,0,1,2.08,2.15c2.77,3.49,2.63,7.64-.45,10.26-3.41,2.91-6.77,2.32-9.79-.63C424.75,382.36,419.86,377.4,413.91,371.46Z"/><path class="cls-5" d="M224.79,365q-32.19,0-64.4,0c-5.9,0-8.46-2-8.61-6.57-.15-4.82,2.66-7.37,8.5-7.37q64.89,0,129.8,0c5.25,0,8.54,2.78,8.59,7s-3.24,6.94-8.48,6.95Q257.49,365,224.79,365Z"/><path class="cls-5" d="M164.71,331.87c-9.49,0-19,0-28.47,0-5,0-8-2.58-8.1-6.76s3-7.15,7.82-7.17q29.22-.1,58.44,0c5.1,0,7.72,2.63,7.68,7.14s-2.58,6.76-7.9,6.79C184.36,331.9,174.53,331.87,164.71,331.87Z"/><path class="cls-5" d="M246.07,331.87c-6.48,0-13,.05-19.43,0-4.5,0-7.53-2.77-7.67-6.72s2.85-7.13,7.27-7.17q19.94-.19,39.86,0c4.59,0,7.14,2.95,6.94,7.28s-2.71,6.58-7.05,6.61C259.35,331.9,252.71,331.87,246.07,331.87Z"/><path class="cls-6" d="M142,358.15a6.59,6.59,0,0,1-6.87,6.8,6.82,6.82,0,0,1-7-6.73,7.15,7.15,0,0,1,7.2-7.22A7,7,0,0,1,142,358.15Z"/><path class="cls-1" d="M259.7,246.2c3.35,6.49,6.75,12.95,10,19.47,1.52,3,3.52,5.35,7.16,5.27s5.55-2.53,7-5.56c4.44-9.46,9-18.89,13.39-28.35,2.23-4.75,1.18-8.94-2.55-10.72s-7.72-.1-10,4.6c-2.62,5.35-5.16,10.74-8.15,17-3.05-5.82-5.77-11-8.45-16.12-.84-1.62-1.32-3.87-3-4.45-5.45-1.84-3.21-5.23-1.95-8.37,10.9-27.24,40.27-45.11,67.92-41.37,31.69,4.29,55.35,27.57,59,58,5,41.8-27.05,76.65-69.23,75.32-31.33-1-59.89-28.48-62-59.69C258.67,249.47,257.18,247.46,259.7,246.2Z"/><path class="cls-1" d="M252.5,140.15c-47.3,0-94.59-.05-141.88.1-4.24,0-6-.79-5.59-5.4.44-4.95,0-10,.12-14.95.24-9.29,6.58-15.48,15.93-15.48q131.64,0,263.27,0c9.16,0,15.41,6.08,15.63,15.16.14,5.65-.1,11.31.09,17,.09,2.84-.87,3.72-3.7,3.68-10.66-.14-21.32-.06-32-.06Z"/><path class="cls-1" d="M243.23,243.4c-2.16-4.22-4.28-8.46-6.49-12.66-2.39-4.54-6.43-6.25-10.19-4.42s-4.78,6.06-2.37,10.82c4.94,9.78,10,19.49,15,29.23.94,1.83,2.3,4.15,4.14,4,6.23-.54,6.8,4.23,8.5,8.09.85,1.93,1.78,3.83,3,6.36h-4.9c-34.14,0-68.29-.09-102.42.12-4.52,0-5.5-1.25-5.46-5.56.22-24.1.18-48.2,0-72.3,0-3.61.77-4.83,4.64-4.82q52.22.24,104.42,0c3.58,0,4.45.59,2.58,4a76.54,76.54,0,0,0-9.29,34.79A9.1,9.1,0,0,1,244,243C244,243.08,243.78,243.13,243.23,243.4Z"/><path class="cls-7" d="M259.7,246.2c-1.14,1.52-.34,3.4-.94,5a6.88,6.88,0,0,1-.72-5.53C258.86,243.24,259.23,245.58,259.7,246.2Z"/><path class="cls-5" d="M323.84,248c3-6.38,5.62-11.7,8.1-17.07,1.35-2.91,3.16-5.11,6.61-5.26,3.64-.15,5.81,1.89,7.34,5,2.73,5.49,5.56,10.94,8.8,17.29l6.74-13.78a43.57,43.57,0,0,1,2.64-5.35,6.57,6.57,0,0,1,8.78-2.46c3.44,1.58,5.14,4.84,3.61,8.28-5,11.19-10.19,22.33-15.89,33.19-2.56,4.87-8.88,4.28-11.73-.76-3.27-5.76-6.16-11.74-9.6-18.38-2.89,5.93-5.64,11.28-8.11,16.76-1.41,3.14-3.36,5.43-6.95,5.52s-5.63-2.26-7.15-5.28c-4.79-9.47-9.66-18.9-14.48-28.36-2.37-4.68-1.52-8.91,2.11-10.85,3.88-2.08,7.85-.35,10.4,4.56C317.81,236.3,320.54,241.6,323.84,248Z"/><path class="cls-5" d="M302.4,129.18q-34.95,0-69.9,0c-6.39,0-10-5-7.36-10.18,1.53-3,4.23-3.81,7.51-3.8q69.64.07,139.3,0c5.19,0,8,2.45,8.06,6.75.08,4.5-2.86,7.18-8.21,7.19Q337.11,129.23,302.4,129.18Z"/><path class="cls-6" d="M157.28,129.18a7.22,7.22,0,0,1-7.11-6.83,7.11,7.11,0,0,1,7.24-7.13,6.69,6.69,0,0,1,6.69,7A6.76,6.76,0,0,1,157.28,129.18Z"/><path class="cls-8" d="M189.1,122c.09,4.14-2.6,7.09-6.56,7.22a7,7,0,0,1-.42-14C186.25,115.13,189,117.79,189.1,122Z"/><path class="cls-6" d="M132,129.18a7,7,0,0,1,0-14,6.7,6.7,0,0,1,7,7.19A6.89,6.89,0,0,1,132,129.18Z"/><path class="cls-5" d="M182.63,248.56c-2.82,5.94-5.32,11.11-7.74,16.32-1.46,3.13-3.17,6-7.11,6.07s-5.89-2.45-7.47-5.6c-4.62-9.17-9.34-18.3-14-27.47-2.74-5.43-1.93-9.69,2.11-11.61,3.88-1.85,7.62,0,10.27,5.08,2.74,5.27,5.45,10.56,8.58,16.62,2.88-6,5.45-11.3,7.92-16.62,1.4-3,3.16-5.51,6.85-5.69,4-.19,6,2.32,7.54,5.45,2.73,5.43,5.53,10.83,8.61,16.86,3-6.33,5.63-11.88,8.36-17.35,2.22-4.45,5.93-6.07,9.67-4.42s5,5.62,2.94,10.2c-4.63,10.09-9.49,20.07-14.22,30.11-1.33,2.84-3.52,4.47-6.61,4.42s-5.16-1.76-6.55-4.57C189,260.59,185.93,254.92,182.63,248.56Z"/></g></g></svg>