<svg xmlns="http://www.w3.org/2000/svg" viewBox="0 0 465.92 464.41"><defs><style>.cls-1{fill:#03a0dd;}.cls-2{fill:#c2e7f6;}.cls-3{fill:#bfe6f6;}.cls-4{fill:#80cfed;}.cls-5{fill:#fefefe;}.cls-6{fill:#0ca4de;}.cls-7{fill:#10a5df;}.cls-8{fill:#0da4de;}.cls-9{fill:#0ba3de;}.cls-10{fill:#0aa3de;}.cls-11{fill:#28aee2;}.cls-12{fill:#1caae0;}.cls-13{fill:#fbfdfe;}.cls-14{fill:#ebf7fc;}.cls-15{fill:#d2edf8;}.cls-16{fill:#fafcfd;}</style></defs><title>Asset 21SalesForce</title><g id="Layer_2" data-name="Layer 2"><g id="Layer_1-2" data-name="Layer 1"><path class="cls-1" d="M261.61,464.41H202.93c-6.57-2.18-13.46-2-20.22-2.6-35.48-3.1-65.31-19.68-92.75-40.52C47.41,389,18.82,346.74,4.85,294.89c-2.7-10-3-20.25-3.51-30.38C-.21,232.3-2,199.83,6,168.26c9-35.71,27.1-66.72,52.33-93.8C87.84,42.76,122.18,19.24,164,6.83c17.33-5.15,35.12-5.07,52.74-6.2a341,341,0,0,1,67.5,2.67c33.85,4.6,63.66,19.37,90.27,40,38.56,29.89,68.11,66.92,83.26,114,6.21,19.33,6.55,39.57,7.06,59.69v33.42c1.63,51.93-17.72,95.86-50.47,135.1-26.83,32.16-60.28,54.43-98.86,69.74-15.73,6.24-32.41,6.08-48.78,8C265,463.51,263.09,463,261.61,464.41Z"/><path class="cls-2" d="M465.92,251.42c-.64.05-1.27.08-1.91.08q.08-6.47.14-12.93c.42-1.64,1-1.7,1.77-.2Z"/><path class="cls-3" d="M464.14,216.51a2.86,2.86,0,0,1,1.78.13v10.87c-.75,1.48-1.36,1.43-1.85-.16C464.09,223.74,464.12,220.12,464.14,216.51Z"/><path class="cls-4" d="M464.07,227.35a10.43,10.43,0,0,1,1.85.16v10.86a4.27,4.27,0,0,1-1.77.2Q464.11,233,464.07,227.35Z"/><path class="cls-5" d="M329.7,307c-7.74-2.42-12.92,1.08-18.58,7.65-14.74,17.08-34.1,22.62-55.91,17-6.67-1.73-9.92-1.24-13.76,5.07-24.1,39.62-85.95,39.59-109.19-2.46-3.52-6.37-7.1-8.3-14.24-8.07-25.82.81-47.73-13.55-56.41-37.7-8.23-22.9-4.42-50.14,16.5-67.11,6.1-4.95,6.87-9.24,5-16.47a67.92,67.92,0,0,1,32.49-76.06c26.28-15,59.5-11.3,81.23,10,5.78,5.68,8.73,5.13,14.78.63a61.06,61.06,0,0,1,84.54,11.18c4.69,5.89,8.18,7.37,15.92,5.36,30.67-7.93,57.74-.36,78.24,24.09,21.32,25.41,24.54,54.55,10.13,84.17C386.54,292.91,362.2,306.6,329.7,307Z"/><path class="cls-6" d="M246.93,233.3c-8-7.87,2.1-12.3,4.12-18.56,1.22-3.81,4.55-5.53,8.24-6.16,2.44-.41,5.59-.61,6.55,2.27,1.34,4.07-2.36,3.31-4.56,3.86s-5,3.36-4,4.11c12,9.48-6.56,10.93-4.85,19.09,1.56,7.4-2.54,16.07-4.54,24.09-.71,2.84-3.25,4.71-6.06,5.78-3.09,1.16-7.32,2.53-8.93-.5-2.56-4.81,2.26-4.48,5.23-5.28,2.78-.75,3.67-3.29,4.2-5.8C243.85,248.81,245.3,241.4,246.93,233.3Z"/><path class="cls-7" d="M200.94,248.65c3.46-1,6.39-2,7,1.65s-2.78,3.77-5.12,4.07c-7,.89-14.16.9-18.43-5.76-4.17-6.48-4.2-13.75-.18-20.48,5.21-8.75,18.26-9.17,23.61-1a12.13,12.13,0,0,1,1.68,10.31c-1.29,4.29-5.44,2.07-8.3,2.91-3.62,1.06-10.34-3-10.42,3C190.68,248.7,197.07,248.92,200.94,248.65Z"/><path class="cls-8" d="M163.51,238.14c0,15.33-4.37,18.91-18,16.21-5.29-1.06-8.61-3.62-8.85-9.23-.22-5.41,2.57-8.91,7.49-10.69,1.66-.6,3.57-.47,5.33-.84,2.12-.45,5.83,1.14,5.29-3.12-.32-2.57-3.15-2.29-5.18-2.94-3.48-1.11-10.29,5.32-10-2.17.21-4.57,8.14-4.48,13.09-3.89C163.78,222.79,163.9,231,163.51,238.14Z"/><path class="cls-9" d="M360.78,254.74c-9.15-.16-15.24-3.47-16.7-12.69-1.59-10,2.37-18,10.42-20.06,7-1.82,12.94-.16,16.33,6.91,3.82,8,1.91,11.07-7,11.33-2.16.06-4.34-.07-6.51.05-2,.11-4.81-.67-5,2.51a4.68,4.68,0,0,0,3.7,4.78c1.72.5,3.48.85,5.23,1.19,3,.58,8.54-3.87,8.59,2.11C369.93,255.9,363.67,253.68,360.78,254.74Z"/><path class="cls-9" d="M292.44,238.33c-.07,10.39-5.24,16.3-14.32,16.37-9.63.07-15.38-6.25-15.27-16.78.11-9.88,5.87-16.43,14.58-16.59C286.68,221.17,292.51,227.77,292.44,238.33Z"/><path class="cls-6" d="M227.89,221c2,.63,4.4,1.32,6.74,2.16a2.86,2.86,0,0,1,2.1,3.3c-.41,2.1-1.75,2.8-4,2.23-3.3-.85-8.08-3.23-9.43.92-1.54,4.76,4.3,4.84,7.27,6,4.92,2,8,4.67,7.45,10.37-.4,4-2.39,6.86-6.28,7.87-5.74,1.48-11.45,1.43-16.52-2.23a3.6,3.6,0,0,1-.89-2.85c.2-1.72,1.81-2.28,3.19-2.05,2.81.46,5.54,1.45,8.35,1.93a3.84,3.84,0,0,0,4.37-2.46c.67-2.06-1.22-3.1-2.86-3.84s-3.33-1.36-5-2c-5.16-2-9.13-5-7.66-11.17C216.28,222.74,221.85,221.85,227.89,221Z"/><path class="cls-8" d="M121.06,255.16c-2.12-.44-4.61-.86-7-1.51s-5.27-1.71-4.22-5c.86-2.69,3.39-1.83,5.49-1.24a34,34,0,0,0,5.2,1.27c2.32.27,4.73-.61,5.31-2.78.47-1.75-1.49-3-3.33-3.63-1.36-.47-2.64-1.14-4-1.6-6.61-2.2-11.55-6-7.76-13.44,3.88-7.65,11-6.79,18-4.63,2.33.72,3.79,2.2,2.82,4.81-.86,2.29-2.62,1.73-4.44,1.17-3-.91-7-2.81-8.28,1.23-1.43,4.51,3.73,4.64,6.33,5.63,5.75,2.2,9.56,5.37,8,12C131.78,253.53,126.51,254.35,121.06,255.16Z"/><path class="cls-10" d="M333.08,221.3c3.16.21,7.73-.48,8.09,3.37.39,4.08-4,2.85-6.66,2.93-6.79.21-9.7,4.27-9.73,10.49,0,6.91,3.54,10.81,10.7,10.47,2.53-.12,5.67-1.24,6.08,2.22.55,4.57-3.87,3.49-6.21,3.75-10.3,1.19-16.94-4.36-17.6-14.22C317,228.44,322.55,221.5,333.08,221.3Z"/><path class="cls-11" d="M176.68,232c0,5.38,0,10.75,0,16.12,0,2.48.17,5.36-3.35,5.65s-4.2-2.33-4.23-4.93c-.11-11.47-.1-22.93-.06-34.39,0-2.7.8-5.25,4.11-5.11s3.57,2.83,3.57,5.46C176.67,220.51,176.68,226.24,176.68,232Z"/><path class="cls-12" d="M297.29,237.76c0-3.23,0-6.46,0-9.68.05-2.59.61-6.25,3.46-5.55,5,1.21,10.16-2.69,14.48.7,1.93,1.52.82,4.16-1.91,4.61-9,1.48-8.22,8.21-8.59,14.77-.22,3.81,2.5,10.64-3.39,10.64-6.81,0-3.13-7.18-4.05-11.2a19.8,19.8,0,0,1-.05-4.29Z"/><path class="cls-13" d="M196.65,235c-2.4-.68-6.58,1.3-6.48-3.33.08-3.5,3.21-4.46,6.36-4.39s6.08,1.07,6,4.73C202.45,235.93,198.93,234.51,196.65,235Z"/><path class="cls-14" d="M156.92,244.6c-.23,5.33-3.92,4.86-7.06,4.81-3.76-.06-6.45-2.32-6.12-6,.42-4.58,4.46-5.05,8.19-5C156.24,238.56,157.28,241.31,156.92,244.6Z"/><path class="cls-15" d="M358,235.52c-2.43-.79-6.7,1.26-6.5-3.25.15-3.58,3.31-5.23,6.93-5.23s7,1.43,7,5.1C365.33,237.22,360.59,234.57,358,235.52Z"/><path class="cls-16" d="M285.92,238c-.68,5.83-1.28,11.36-8.3,11.05-7.71-.34-7.58-6.45-7.55-11.94s1.56-10.35,8.54-9.8C285.79,227.9,285.09,233.81,285.92,238Z"/></g></g></svg>