<svg xmlns="http://www.w3.org/2000/svg" viewBox="0 0 488.32 488.29"><defs><style>.cls-1{fill:#4acff4;}.cls-2{fill:#97e3f8;}.cls-3{fill:#95e3f8;}.cls-4{fill:#b1eafa;}.cls-5{fill:#68d7f6;}.cls-6{fill:#69d7f6;}.cls-7{fill:#cef1fb;}.cls-8{fill:#d1f2fb;}.cls-9{fill:#87dff7;}.cls-10{fill:#88dff7;}.cls-11{fill:#00bcf0;}</style></defs><title>Asset 11AZURE</title><g id="Layer_2" data-name="Layer 2"><g id="Layer_1-2" data-name="Layer 1"><path class="cls-1" d="M487.9,249.14q0-4.86,0-9.74c.16-.32.3-.31.41,0v9.68C488.2,249.47,488.06,249.47,487.9,249.14Z"/><path class="cls-1" d="M241.36,487.88h5.87c.33.16.32.3,0,.41h-5.81C241,488.18,241,488,241.36,487.88Z"/><path class="cls-2" d="M487.91,236.5c0-1.13,0-2.26,0-3.38.16-.34.3-.33.42,0v3.39C488.15,236.87,488,236.85,487.91,236.5Z"/><path class="cls-3" d="M487.9,255.44v-3.39q.17-.53.42,0v3.39Q488.14,255.94,487.9,255.44Z"/><path class="cls-4" d="M232.19,488.29c1-1,2.25-.25,3.37-.4.35.11.36.25,0,.4Z"/><path class="cls-5" d="M241.36,487.88l0,.41H238c-.35-.11-.36-.24,0-.4Z"/><path class="cls-5" d="M247.2,488.29l0-.41h3.38c.34.15.33.29,0,.4Z"/><path class="cls-6" d="M487.91,236.5a2.83,2.83,0,0,1,.41,0v2.91l-.41,0Z"/><path class="cls-5" d="M488.32,252l-.42,0v-2.91l.42,0Z"/><path class="cls-4" d="M253,487.89c1,.1,2-.56,2.89.4H253C252.67,488.14,252.68,488,253,487.89Z"/><path class="cls-7" d="M488.32,233.14l-.42,0V230.7a3,3,0,0,1,.42,0Z"/><path class="cls-8" d="M487.9,255.44l.42,0v2.42l-.43,0C487.89,257,487.9,256.24,487.9,255.44Z"/><path class="cls-9" d="M238,487.89c0,.14,0,.27,0,.4h-2.42c0-.13,0-.27,0-.4Z"/><path class="cls-10" d="M253,487.89c0,.13,0,.27,0,.4h-2.42c0-.13,0-.27,0-.4Z"/><path class="cls-11" d="M487.88,225.55a163.82,163.82,0,0,0-4.17-33.73,244,244,0,0,0-18.93-54.73,234.72,234.72,0,0,0-21-35.27A239.86,239.86,0,0,0,421,74.53c-3.88-4-7.88-7.85-12-11.63a230.56,230.56,0,0,0-18.82-15.54,236.65,236.65,0,0,0-49.13-28.29C312.25,6.77,282.27-.3,250.73,0c-7.1.07-14.19,0-21.28.23a176.28,176.28,0,0,0-24.29,2A245.7,245.7,0,0,0,77.36,64.77a244.54,244.54,0,0,0-63.61,96.08C4.56,186.24-.37,212.39,0,239.46c.09,6.12,0,12.25.23,18.37a195.77,195.77,0,0,0,1.8,23.82,243.35,243.35,0,0,0,26.5,78.93,249.28,249.28,0,0,0,37.22,51.64,231.1,231.1,0,0,0,25.6,23.55,246.21,246.21,0,0,0,49.4,30.65A242.37,242.37,0,0,0,193,483.88c8.91,1.87,17.84,3.54,27,3.76,3.74.09,7.54-.05,11.26.65h1c1.15-.51,2.35-.12,3.52-.24h17.16c1,.13,2.06-.27,3,.24h1c.66-.46,1.41-.2,2.11-.23,5.55-.27,11.13-.19,16.63-.83a227.86,227.86,0,0,0,44.31-9.82,244.7,244.7,0,0,0,44.85-19.73,240.86,240.86,0,0,0,67.08-55.81,242.59,242.59,0,0,0,32.5-49.63,233.73,233.73,0,0,0,14.71-37.56c5.51-18.63,9.15-37.55,9-57.06V230.86C488.07,229.08,487.89,227.31,487.88,225.55Zm-71.23,94.26c-14,1.89-26.52-1.69-37.61-10.35-4.86-3.79-6.1-3.83-11.08-.29q-36.85,26.24-73.73,52.45c-4.4,3.13-4.88,4.72-2.51,9.52,16.23,32.93-7.35,67-38.22,70.42-19.84,2.2-36-5.39-47-21.88s-11.12-34-1.54-51.47c1-1.77,2.13-3.42,3.12-5.17a2.9,2.9,0,0,0-1-4.22,50.47,50.47,0,0,0-4.37-2.57q-42.57-22.44-84.77-45.58c-3.87-2.11-7.16-2-10.73.66-9.29,6.88-19.61,10.65-31.37,9.94-19.84-1.2-40.48-17.22-45.16-35.58-3.2-12.54-.55-24.56,5.07-35.87C45,231.21,62.85,221,83,222.48a43.79,43.79,0,0,1,13.8,3.39c3.72,1.57,6.77.84,9.71-1.9q46-42.94,92.45-85.39a13.9,13.9,0,0,0,3.19-3.61c1.45-2.75.32-5.18-1.09-7.51a50.66,50.66,0,0,1-7.15-20.37C191.1,83.61,202.66,62.54,224,52.18a56,56,0,0,1,24.52-5.71C284.7,45.91,315,86.07,296.73,123c-2.25,4.53-1.82,7.93,1.49,11.81q38.88,45.56,77.51,91.33c3.63,4.29,5,4.55,9.9,1.83,30.27-16.93,67.13.74,73,35C463.1,289.36,443.22,316.24,416.65,319.81Z"/><path class="cls-11" d="M232.12,349.09,213.77,338q-40.61-24.47-81.23-48.89c-3.78-2.26-5.78-5.19-5.76-9.57a109.32,109.32,0,0,0-4-28.67c-1-3.62-.09-6.26,2.69-8.81q46.85-42.93,93.55-86l.89-.82c3.17-2.82,4.5-2.65,6.92.89a30,30,0,0,1,5.45,17.46q-.21,56.64-.19,113.28c0,19.77,0,39.53.05,59.3Z"/><path class="cls-11" d="M255,349v-2.81q0-64.5,0-129c0-14.52,0-29-.18-43.56a29.53,29.53,0,0,1,5.29-17.27c2.57-3.82,3.87-4,7.23-1q20.55,18.93,41.08,37.9Q335,217.72,361.58,242c2.78,2.53,3.76,5.17,2.75,8.8a111.47,111.47,0,0,0-4.09,28.89c0,4.2-1.85,7.06-5.47,9.23q-49,29.43-98,59C256.33,348.25,255.85,348.51,255,349Z"/></g></g></svg>