<svg xmlns="http://www.w3.org/2000/svg" viewBox="0 0 468.54 467.85"><defs><style>.cls-1{fill:#3fadd8;}.cls-2{fill:#82cae5;}.cls-3{fill:#39abd7;}.cls-4{fill:#0093cb;}</style></defs><title>Asset 19OpenText</title><g id="Layer_2" data-name="Layer 2"><g id="Layer_1-2" data-name="Layer 1"><path class="cls-1" d="M467.62,244.94V223.58c.4-.71.71-.67.92.11v21.14C468.33,245.61,468,245.65,467.62,244.94Z"/><path class="cls-2" d="M468.54,223.69a5.64,5.64,0,0,0-.92-.11c.17-2.1-1-4.4.92-6.23Z"/><path class="cls-2" d="M467.62,244.94a4.72,4.72,0,0,0,.92-.11v6.34C466.6,249.34,467.79,247,467.62,244.94Z"/><path class="cls-3" d="M219.1,467.85c2.11-1.57,4.23-1.35,6.34,0Z"/><path class="cls-1" d="M244.47,467.85a3.88,3.88,0,0,1,5.28,0Z"/><path class="cls-4" d="M468.54,216.29c-1-1.25-.42-2.71-.52-4.08-.71-10-.5-20.07-2.73-29.86A233.52,233.52,0,0,0,407.46,73,230.86,230.86,0,0,0,319.77,13.9C305.46,8.45,290.91,3.42,275.56,1.82A404.24,404.24,0,0,0,222.1.23C210.28.56,198.36.58,186.71,3A227.23,227.23,0,0,0,99.17,40.9C67.09,63.79,41.42,92.39,23.82,127.77,10.59,154.36,1.4,182.16.64,212.28.14,232.34-1,252.51,1.89,272.36c6.48,44.74,25.49,84.06,55.39,117.8C80.54,416.41,108,437.39,140.63,451c16.76,7,33.76,13.2,52,15.12,6.7.7,13.47.57,20.14,1.73h6.34a8.29,8.29,0,0,1,6.34,0h19a5.85,5.85,0,0,1,5.28,0H255c.72-.68,1.62-.5,2.48-.53,15.74-.61,31.22-2.18,46.43-7,35.66-11.35,67.1-29.57,94.17-55.37a228.09,228.09,0,0,0,52.07-73.58C458.67,312.11,466,292.43,467,271c.29-5.88.24-11.87,1.51-17.69v-2.12c-1.06-2.31-.28-4.76-.53-7.13v-19.6c.25-2.36-.53-4.79.53-7.09ZM215.15,265.86q-12.12,47-24.74,93.83c-3.67,13.68-16.85,21.73-29.43,18.45-13.66-3.55-21.2-16.39-17.76-30.75,2.54-10.59,5.5-21.09,8.17-31.66.31-1.21,1.68-2.81.07-3.83-1.4-.88-2.55.63-3.73,1.31-21.2,12.18-42.32,24.51-63.63,36.5-13.78,7.75-29.09,2.83-35-10.82-5.11-11.73-.61-24.81,11.18-31.68,21-12.23,42-24.32,63-36.49,1.46-.85,3.39-1.2,4-3.88l-21.62-6c-5.25-1.45-10.57-2.69-15.72-4.44-13-4.42-19.43-17.26-15.49-30.51C78,214,91.28,206.66,103.81,210c31.43,8.35,62.89,16.6,94.18,25.42C213.28,239.73,219.1,250.55,215.15,265.86Zm.47-64.26q-33-33.1-66-66.24c-10.95-11-11.41-26.06-1.29-36.21,7.2-7.22,24.09-10.9,36,1.71,8.07,8.54,17.06,16.21,25.74,24.37.93-1.32.64-3.67.64-5.92,0-23.24-.11-46.49-.06-69.73,0-12.52,5.71-21.79,15.27-25.45A24.24,24.24,0,0,1,259.22,46.9c.18,23.77,0,47.55,0,71.32,0,1.23-.06,2.47,0,3.69.1,1.52-.66,3.49,1.08,4.33,2,.94,2.62-1.22,3.63-2.25,7.4-7.53,14.64-15.24,22.15-22.65,7.29-7.19,15.91-10.31,26-6.8A24.27,24.27,0,0,1,323.29,133a137.2,137.2,0,0,1-10.23,10.67q-28.92,29-57.89,57.9C242.09,214.59,228.61,214.63,215.62,201.6ZM421.94,333.89c-1.85,9.84-10.46,17.76-21.17,19.43-5.87.92-11.07-1-16.06-3.85q-30.84-17.82-61.7-35.56c-1.82-1-3.68-2-6.5-3.54,3.51,13.58,7,25.92,9.84,38.39a24.28,24.28,0,0,1-13.89,27.88A25.22,25.22,0,0,1,283,369a23,23,0,0,1-3.77-8.06c-8.33-31.24-16.78-62.46-25.06-93.72-4.29-16.2,2.42-28,18.67-32.65,11.14-3.22,22.39-6.07,33.6-9,19.2-5.05,38.41-10.12,57.64-15.06,14.67-3.78,27.13,2.87,30.75,16.22,3.81,14-3.56,26.56-18.25,30.7-9.47,2.68-19,5.06-28.52,7.61-2,.54-4.17.74-6.05,2.33.77,2.21,2.89,2.82,4.6,3.8,21,12.14,42.08,24.17,63,36.39C419.51,313.23,424,323.16,421.94,333.89Z"/></g></g></svg>