<svg xmlns="http://www.w3.org/2000/svg" viewBox="0 0 470.89 473.92"><defs><style>.cls-1{fill:#2d82ce;}.cls-2{fill:#4c93d4;}.cls-3{fill:#569ad7;}.cls-4{fill:#aeceeb;}.cls-5{fill:#74acde;}.cls-6{fill:#90bce5;}.cls-7{fill:#67a4db;}.cls-8{fill:#adcdeb;}.cls-9{fill:#afcfec;}.cls-10{fill:#4c93d5;}.cls-11{fill:#c9def2;}.cls-12{fill:#84b5e2;}.cls-13{fill:#e9282e;}.cls-14{fill:#ed4d52;}.cls-15{fill:#f9cbcd;}.cls-16{fill:#ed4f55;}.cls-17{fill:#f1757a;}.cls-18{fill:#f1767a;}.cls-19{fill:#f9cdce;}.cls-20{fill:#f9cdcf;}.cls-21{fill:#f17478;}.cls-22{fill:#ed4c52;}.cls-23{fill:#ed5056;}.cls-24{fill:#e81b22;}</style></defs><title>Asset 7ORACLE</title><g id="Layer_2" data-name="Layer 2"><g id="Layer_1-2" data-name="Layer 1"><path class="cls-1" d="M470.43,238.84l0-9.62c.17-.32.32-.3.43,0v9.56C470.75,239.15,470.6,239.15,470.43,238.84Z"/><path class="cls-2" d="M227.16,473.48h5.77c.33.15.32.3,0,.43h-5.74C226.85,473.78,226.84,473.64,227.16,473.48Z"/><path class="cls-3" d="M470.89,229.26l-.43,0c.21-1.57-.61-3.24.43-4.74Z"/><path class="cls-4" d="M470.89,223.53a2.72,2.72,0,0,1,0-3.35Z"/><path class="cls-5" d="M470.48,244.58v-3.33c.09-.36.23-.37.4,0v3.34C470.78,244.9,470.64,244.91,470.48,244.58Z"/><path class="cls-6" d="M220.46,473.51h3.35q.52.18,0,.42h-3.35C220.14,473.8,220.13,473.67,220.46,473.51Z"/><path class="cls-7" d="M223.84,473.92a3,3,0,0,0,0-.42l3.35,0a3.24,3.24,0,0,1,0,.44Z"/><path class="cls-8" d="M470.48,244.58a1.44,1.44,0,0,0,.41,0v2.87C469.92,246.59,470.59,245.53,470.48,244.58Z"/><path class="cls-7" d="M232.92,473.92a3.05,3.05,0,0,1,0-.43l2.88,0c.33.15.33.28,0,.39Z"/><path class="cls-9" d="M238.2,473.52c1,.11,2-.57,2.84.4h-2.87C237.84,473.76,237.85,473.63,238.2,473.52Z"/><path class="cls-10" d="M470.89,241.21a2.71,2.71,0,0,1-.4,0l-.06-2.42h.46Z"/><path class="cls-11" d="M220.46,473.51a2.73,2.73,0,0,1,0,.41H218.1c0-.14,0-.27,0-.4Z"/><path class="cls-12" d="M238.2,473.52l0,.4h-2.39l0-.39Z"/><path class="cls-13" d="M224,458.47l11.43,0c.3.16.3.31,0,.45H224.08C223.77,458.79,223.75,458.64,224,458.47Z"/><path class="cls-13" d="M458.49,235q0-4.36.05-8.73c.17-.2.3-.17.4.07V235C458.79,235.26,458.64,235.27,458.49,235Z"/><path class="cls-14" d="M458.94,226.31l-.41-.07c0-1.2,0-2.4,0-3.6q.24-.45.42,0Z"/><path class="cls-15" d="M458.55,215.82a.74.74,0,0,1,.39,0V219C458.12,218,458.57,216.9,458.55,215.82Z"/><path class="cls-16" d="M458.49,235a2.26,2.26,0,0,1,.45,0v3.18c-.11.32-.25.33-.41,0C458.52,237.11,458.5,236,458.49,235Z"/><path class="cls-15" d="M244.58,458.5c0,.13,0,.26,0,.39h-3.19C242.35,458.07,243.5,458.53,244.58,458.5Z"/><path class="cls-17" d="M458.94,222.67l-.42,0c.11-.91-.43-1.91.42-2.7Z"/><path class="cls-18" d="M458.53,238.18l.41,0v2.74C458.08,240.08,458.63,239.08,458.53,238.18Z"/><path class="cls-19" d="M458.94,245l-.2,0h-.2c0-.93-.46-1.94.4-2.75Z"/><path class="cls-20" d="M214.52,458.89c0-.13,0-.27,0-.41.93,0,1.93-.4,2.75.41Z"/><path class="cls-21" d="M218.61,458.89c.79-.84,1.78-.32,2.68-.38.35.09.37.21.05.38Z"/><path class="cls-22" d="M221.34,458.89c0-.12,0-.25-.05-.38l2.74,0c0,.14,0,.28.05.42Z"/><path class="cls-23" d="M235.45,458.89a3.38,3.38,0,0,1,0-.45c.92.12,1.92-.3,2.72.45Z"/><path class="cls-24" d="M458.94,219c-.49-1-.12-2.12-.23-3.17-.3-7.18-.4-14.36-1.51-21.49a228.23,228.23,0,0,0-29.9-82.86,236.31,236.31,0,0,0-31.41-41.36,222.6,222.6,0,0,0-21.58-19.82,224.3,224.3,0,0,0-38.07-25.1A228.24,228.24,0,0,0,281.35,5,182.27,182.27,0,0,0,239.74.08c-6.13,0-12.26-.17-18.39,0a207.7,207.7,0,0,0-28.72,2.18,231.24,231.24,0,0,0-64.3,20.48,222.09,222.09,0,0,0-21.61,12.11A214.63,214.63,0,0,0,73.61,60.24a247.45,247.45,0,0,0-21.9,23.07,233.24,233.24,0,0,0-25.62,38.28,225.19,225.19,0,0,0-18.68,47C3,184.82.11,201.25.14,218.11c0,6.58-.28,13.16-.06,19.75.29,8.63.44,17.23,1.72,25.8a228.8,228.8,0,0,0,13.31,49.95,232.25,232.25,0,0,0,48.36,75.52,221.24,221.24,0,0,0,18.62,17.34,228.71,228.71,0,0,0,94.44,47.34,167.61,167.61,0,0,0,38,4.86c.92.11,1.87-.26,2.76.22h1.36c1-.46,2-.12,3-.22h13.49c1,.1,2.1-.23,3.1.22h3.19c1-.48,2.1-.11,3.14-.22,7-.34,14.06-.39,21-1.52a227.59,227.59,0,0,0,78.23-27.53,227.66,227.66,0,0,0,42.4-31.12,232.4,232.4,0,0,0,49.15-64.9,225.38,225.38,0,0,0,16.12-41.22c4.4-15.5,7.26-31.23,7.27-47.41.11-.9-.25-1.85.23-2.73v-1.36c-.46-1-.12-2-.23-3v-15c.11-1-.23-2,.23-3ZM380,264c-8.81,30.8-29.35,50.55-59.5,60.61-13.29,4.44-27,6.16-41,6.23-16.68.08-33.37,0-51.68,0-15.44.08-32.5.26-49.57,0-26.92-.39-51.05-8.32-71.2-26.58-18.47-16.75-29-37.76-31.36-62.54-3.05-31.53,6.31-59.06,28.23-82,17.24-18,38.62-28,63.41-30.4,13.74-1.32,27.56-1.31,41.36-1.54,23.73-.4,47.46.2,71.19.74,17.7.41,34.86,3.21,50.91,11.06,23.15,11.31,39,29.24,47.29,53.58A116.09,116.09,0,0,1,380,264Z"/><path class="cls-24" d="M231.09,289.7c-19.34-.32-38.68.26-58-.25-7.91-.21-15.73-1-23.23-3.76-13.61-5-22.79-14.48-27.68-28A79.09,79.09,0,0,1,120,209.18c5.82-21.4,20.34-33.56,42.05-36.94,12.9-2,26-2,39-2.39,20.17-.63,40.33-.28,60.5.25,11.44.29,22.91.08,34.31,1.17,20.16,1.93,35.21,11.43,43.23,30.59,4.13,9.88,5.39,20.3,5.27,30.94a73.24,73.24,0,0,1-4,24.34c-6.4,17.65-19.24,27.59-37.44,31-9.75,1.85-19.64,1.41-29.49,1.49C259.31,289.79,245.2,289.7,231.09,289.7Z"/></g></g></svg>