<svg xmlns="http://www.w3.org/2000/svg" viewBox="0 0 487.94 488.1"><defs><style>.cls-1{fill:#80c3ce;}.cls-2{fill:#49a9b9;}.cls-3{fill:#7fc3cd;}.cls-4{fill:#eef6f8;}.cls-5{fill:#7fc2cd;}.cls-6{fill:#b6dce2;}.cls-7{fill:#eff7f8;}.cls-8{fill:#b7dce2;}.cls-9{fill:#deeff2;}.cls-10{fill:#b5dbe2;}.cls-11{fill:#b8dde3;}.cls-12{fill:#dfeff2;}.cls-13{fill:#c8e5e9;}.cls-14{fill:#c1e1e7;}.cls-15{fill:#8ec9d3;}.cls-16{fill:#9cd0d9;}.cls-17{fill:#add8df;}.cls-18{fill:#00869c;}</style></defs><title>Asset 2SQL</title><g id="Layer_2" data-name="Layer 2"><g id="Layer_1-2" data-name="Layer 1"><path class="cls-1" d="M484.1,234.64v9.5a.54.54,0,0,1-.75-.22,20.13,20.13,0,0,1,0-9.07A.53.53,0,0,1,484.1,234.64Z"/><path class="cls-2" d="M240.91,0h7.6a.52.52,0,0,1-.19.73,13.09,13.09,0,0,1-7.21,0A.53.53,0,0,1,240.91,0Z"/><path class="cls-3" d="M240.91,0c0,.13,0,.27,0,.4-1.58,1.2-3.27.88-5,.34a.53.53,0,0,1-.2-.74Z"/><path class="cls-4" d="M260.86,0l0,.55a5,5,0,0,1-4.54.18.53.53,0,0,1-.19-.73Z"/><path class="cls-5" d="M248.53.45a3.39,3.39,0,0,1,0-.45h4.75a.53.53,0,0,1-.19.74C251.52,1.26,250,1.53,248.53.45Z"/><path class="cls-6" d="M483.66,244.15h.44v4.27a.53.53,0,0,1-.74-.19C482.84,246.82,482.62,245.44,483.66,244.15Z"/><path class="cls-7" d="M228.57.52V0h4.27a.52.52,0,0,1-.19.73A4.1,4.1,0,0,1,228.57.52Z"/><path class="cls-8" d="M484.1,234.64h-.23l-.22,0c-1-1.29-.82-2.67-.29-4.07a.53.53,0,0,1,.74-.19Z"/><path class="cls-9" d="M483.68,248.42a2,2,0,0,0,.42,0v2.85h-.44A1.93,1.93,0,0,1,483.68,248.42Z"/><path class="cls-10" d="M253.29.42l0-.42h2.85a2.6,2.6,0,0,1,0,.4A1.9,1.9,0,0,1,253.29.42Z"/><path class="cls-11" d="M232.82.42c0-.14,0-.28,0-.42h2.85a2.16,2.16,0,0,1,0,.44A1.93,1.93,0,0,1,232.82.42Z"/><path class="cls-12" d="M484.1,230.36h-.43a1.94,1.94,0,0,1,0-2.84h.45Z"/><path class="cls-9" d="M483.18,257.91a11.26,11.26,0,0,1,.4-4.36C483.57,255,484,256.52,483.18,257.91Z"/><path class="cls-12" d="M483.58,225.22a11.26,11.26,0,0,1-.4-4.36C484,222.25,483.57,223.76,483.58,225.22Z"/><path class="cls-13" d="M157.73,268.75c.18.44.58.5,1,.54-.61.92-1.65,1-2.8,1.69A4.36,4.36,0,0,1,157.73,268.75Z"/><path class="cls-14" d="M170.6,268.8c.18.45.61.45,1,.53a2.72,2.72,0,0,1-2.81.83A3.19,3.19,0,0,1,170.6,268.8Z"/><path class="cls-15" d="M183.88,234.61c.16.44.53.43.91.43-.35.53-.85,1.24-1.43.8S183.46,234.93,183.88,234.61Z"/><path class="cls-16" d="M177.19,83.69c.42-.17.95-.14,1.16-.67.39.18.7.62.44.86C178.29,84.35,177.69,84.1,177.19,83.69Z"/><path class="cls-17" d="M185.91,121.53l.46-1c.46.55.75,1.2.14,1.71C186.25,122.48,186,121.89,185.91,121.53Z"/><path class="cls-11" d="M188.69,429.41l.94.86c-.68.06-1.38.05-1.69-.66C187.86,429.42,188.39,429.35,188.69,429.41Z"/><path class="cls-18" d="M244,.17C109.23.17,0,109.39,0,244.14s109.23,244,244,244,244-109.22,244-244S378.71.17,244,.17ZM319,127.2a395.09,395.09,0,0,1,61.13,21.14c.35.16.67.39,1.62.95-27.05,6.25-53,13.88-78.07,24.25-.6-1.06.08-1.69.39-2.36,6.2-13.36,10.71-27.22,12.19-42C316.49,127.43,317.09,126.69,319,127.2Zm-8,1.42c-.93,6.35-3.14,12.35-5.47,18.31a198.11,198.11,0,0,1-12.62,25.45c-1.65,2.9-2.18,3.07-5,1.39A220.8,220.8,0,0,0,261.52,161c-.44-.19-.88-.37-1.3-.59-2.43-1.22-2.54-1.95-.33-3.64a161.59,161.59,0,0,1,15.46-10.56c11.06-6.59,22.3-12.88,33.63-19C310.86,126.15,311.35,126.64,311,128.62Zm-59.3,129.65c.11-2.07.79-2.52,2.74-1.68a26.11,26.11,0,0,1,3.34,1.79c12.18,7.54,24.6,14.65,37.43,21,.68.34,1.47.56,1.79,1.28-.34,1-1.11,1.29-1.74,1.73a222,222,0,0,1-25.66,15.29c-7.45,3.85-15.06,7.35-22.69,10.83-.63.29-1.28.83-2,.33s-.36-1.23-.16-1.92a161.71,161.71,0,0,0,6.93-46.29C251.72,259.85,251.69,259.06,251.73,258.27Zm9.19-5.14c3.62-1.28,6.7-2.46,9.83-3.47,7.31-2.33,14.65-4.53,21.94-6.91,2-.65,2.89-.3,3.18,1.89a274.93,274.93,0,0,1,2.26,29.79c0,1.48-.15,2.1-1.79,1.19C284.31,268.89,272.85,261.27,260.92,253.13Zm28.18,89.12c.83.26,1.64.55,2.93,1a66.17,66.17,0,0,1-8.83,4.57c-20.9,9.42-42.34,17.52-63.79,25.58-.47.18-1,.71-1.48.08s.14-1,.38-1.47a318.36,318.36,0,0,0,21-47.4c.63-1.85,1.43-2.72,3.43-1.53C257.29,331.7,273.08,337.26,289.1,342.25ZM185,272.24c-3.89,1.73-7.78,3.5-11.67,5.25-.58.3-1,.32-1-.52a298.26,298.26,0,0,0,32.54-28.34c4.58-4.71,9-9.57,13.12-14.68,1.73-2.14,1.83-2.13,3.35,0a47.45,47.45,0,0,1,7.39,17.09c.57,2.56,0,3.42-2.88,4.53C212.11,260.86,198.44,266.27,185,272.24Zm18.13,7.24a93,93,0,0,0,25.27,33.4c2.26,1.92,2.26,2.29-.45,3.33-18.16,7-36.54,13.32-55,19.38a1.9,1.9,0,0,1-1.81,0,5.6,5.6,0,0,1,1.18-2.55c10.4-17,18.71-35,26.09-53.45.54-1.35.19-3.63,2.4-3.56C202.67,276.08,202.55,278.2,203.12,279.48Zm-42.68-2c-.63.36-1,.31-1-.55,4.11-5,8.44-9.83,12.45-14.94a43.59,43.59,0,0,1,9.93-8.77c6.92-4.75,13.71-9.67,20.86-14.06a13.16,13.16,0,0,1,2.7-1.29,94.11,94.11,0,0,1-9,10.32A185,185,0,0,1,160.44,277.46ZM220,215a51.26,51.26,0,0,0-14.33-10.77c-1.4-.68-1.77-1.22-.39-2.5,10.6-9.84,21.62-19.2,32.4-28.85a13.07,13.07,0,0,1,2.15-1.45c.46-.28,1-.66,1.53-.23a1.26,1.26,0,0,1,.48,1.16c-3,9.8-5.51,19.35-10.29,28.1-2.65,4.86-5.53,9.58-8.4,14.31C222.05,216.6,221.29,216.39,220,215Zm15.68-49.56a10.55,10.55,0,0,1-2.08,1.93c-8.2,5.37-15,12.35-22.09,19-2.92,2.75-5.89,5.45-9.33,8.63a153.58,153.58,0,0,0,0-30.7c-.28-2.84-.6-5.67-1.07-8.48-.36-2.11.41-2.54,2.32-2.12A241.45,241.45,0,0,1,228,160.86a50.32,50.32,0,0,0,6.66,1.68C236.73,162.93,237,163.9,235.68,165.47Zm-25.53,56.78c1.73,1.16,1.57,1.92,0,3.1-7.91,5.91-15.76,11.9-23.63,17.86-.61.5-.89.32-.9-.44a118,118,0,0,0,11.71-25c.86-2.64,1.14-2.74,3.66-1.37C204.17,218.12,207.13,220.23,210.15,222.25ZM187.64,129.7a152.62,152.62,0,0,0-31.33-35.32c.83-.5,1.49-.12,2.13.05l18.74,5.09c1.26.34,2.34.81,2.78,2.25,2.77,9,6,17.8,8.13,27C188.19,129.17,188.55,129.73,187.64,129.7Zm-3.78,153.39c.51-.22,1-.47,1.53-.64s1.1-.54,1.52,0,0,1-.21,1.54l-6,11.82c-6.76,13.25-14.51,25.92-22.31,38.57-.38.62-.56,1.66-1.55,1.55s-1.07-1.09-1.4-1.78a52.67,52.67,0,0,1-5.09-22.7,59.09,59.09,0,0,1,.78-9.2,7.55,7.55,0,0,1,4.41-6C164.84,291.63,174.32,287.3,183.86,283.09Zm44.71,42.59a2.75,2.75,0,0,1-.19,2.7c-7.13,16.84-15.88,32.86-24.64,48.87-.88,1.6-1.91,2.12-3.64,1.1-13.21-7.86-25.11-17.3-35-29.17a1.78,1.78,0,0,1-.61-1.42A471.91,471.91,0,0,0,228.57,325.68Zm14.47-57c-.41,13-3.19,25.53-6.8,37.94-.49,1.71-1.1,2-2.52.69-9.46-8.89-17.86-18.56-23.45-30.44-1.65-3.53-1.25-4.91,2.21-6.19L240,260.47c2.69-1,3-.79,3,2.08C243.05,264.61,243,266.67,243,268.72Zm-8.67-17c-.21-2.08-.43-3.54-.5-5a52.59,52.59,0,0,0-5.58-20.45c-1-2.07-.65-3.23,1.22-4.5a310.18,310.18,0,0,1,33.05-19.11q6.21-3.19,12.42-6.43c.79-.41,1.59-.87,2.37-.05s.37,1.55-.19,2.32c-9.38,12.93-18.68,25.93-29.22,38C243.59,241.49,239.16,246.39,234.37,251.77Zm43.09-65.58c-2.92,1.2-5.94,2.18-8.76,3.57-10.36,5.09-20.14,11.22-30.18,16.88-.7.4-1.32,1.18-2.69.83a134.28,134.28,0,0,0,13.7-35.89c.35-1.56,1.18-1.73,2.6-1.35a60.88,60.88,0,0,1,15.25,6.94,96.64,96.64,0,0,0,10.4,5.65c.71.31,1.8.51,1.77,1.34C279.51,185.28,278.42,185.8,277.46,186.19ZM245,113.31c.59-.69,1.66-.21,2.5-.09,5.31.77,10.64,1.51,15.94,2.4q18.81,3.18,37.45,7.34a4.48,4.48,0,0,1,2.49,1.05c-3.41,1.65-6.59,3.22-9.79,4.73-13.55,6.39-26.11,14.48-38.65,22.61-.94.61-1.77,1.84-3.12,1s-1-2.08-.94-3.23c0-10-.62-19.92-3.91-29.48-.43-1.27-1-2.49-1.4-3.77C245.29,115,244.23,114.18,245,113.31Zm-7.79-.2c1.38-1.13,2.14-.88,2.68.84a91.39,91.39,0,0,1,3.43,15.49c.8,6,1.47,12.07,2.16,17.84-.2,1.78-.27,3.29-.56,4.76-.33,1.72-1.48,2.51-3.14,1.75-11.41-5.25-23.77-7.54-35.62-11.4-2-.64-1.86-1.11-.57-2.49,8.28-8.91,17.82-16.32,27.5-23.59C234.46,115.26,235.85,114.22,237.19,113.11Zm-21.71,8.41A120.62,120.62,0,0,0,199,135.36c-1.32,1.36-1.77,1.23-2.27-.59a225.53,225.53,0,0,0-11.51-31.56c-.23-.52-.9-1.07-.35-1.69.35-.38.9,0,1.35.06,14.89,3.23,29.87,6,44.84,8.85a10.5,10.5,0,0,1,1.12.44C226.29,114.43,220.76,117.78,215.48,121.52Zm-16-74.67C206,44,212.45,41.33,219.07,39c1.88-.68,3.45-1.91,5.3-2.59s2.4-.21,2.26,1.75a102.68,102.68,0,0,0,1.53,28.8c.54,2.56.25,2.9-2.22,2.49l-50.49-8.53c-.53-.09-1-.25-2.1-.51A226.76,226.76,0,0,1,199.52,46.85ZM178.38,69.06c16.24,3.85,32.73,6.32,49.26,8.56.71.1,1.41.16,2.12.28a1.66,1.66,0,0,1,1.47,1.35c.16.86-.4,1.26-1.08,1.63-8.37,4.61-16.72,9.28-25.12,13.86-3.38,1.83-6.12,1.59-8.69-1-8.36-8.42-16.6-16.95-24.87-25.45-.15-.15-.17-.42-.36-1ZM148,82.3c3.64-5.48,8.46-9.78,13.53-13.86,1.29-1,1.79-.1,2.4.74l16.11,22c0,.88-.53.86-1.16.66a186.59,186.59,0,0,1-30-6.84C147.22,84.48,147.08,83.73,148,82.3ZM85.08,358c3.75-11.48,11.17-20.57,18.8-29.64,8.23-9.78,19.43-15,30.18-21,1.39-.77,2.8-1.48,4.21-2.19,1-.49,1.69-.42,1.78.8a52.55,52.55,0,0,0-1,7.36c-.62,9.95,2.07,19.08,6.73,27.74,1.23,2.29,1,2.8-1.48,3.39C125,349,106.15,354.91,87.07,360.06c-.74.2-1.62.85-2.24.28C84,359.64,84.84,358.71,85.08,358Zm20.22,45c-9.66-8.77-17.18-18.94-20.83-31.67-1.11-3.86-1-3.95,2.92-4.86q26.46-6,52.89-12.09a39.59,39.59,0,0,0,4.54-1.6c.49-.05.8,0,.92.36s-.14.74-.4,1c-12.9,15.21-23.18,32.32-35,48.28C108.08,405.34,108,405.39,105.3,402.92Zm10.3,6.9a1.62,1.62,0,0,1-1.93-.47c-.63-.8,0-1.3.48-1.84l15.32-19q10.47-13,20.92-26.09c1.08-1.36,2-2.85,3-4.29,1.54-2.31,2-2.39,3.93-.45,4.8,4.81,9.45,9.78,14.75,14.07a126.18,126.18,0,0,0,15.86,10.79c.6.35,1.32.59,1.52,1.4-.23.87-1.07.85-1.69,1.09-5.6,2.15-11.49,3.45-17.15,5.43-17.9,6.24-35.76,12.58-53.63,18.89C116.49,409.49,116.05,409.68,115.6,409.82Zm50,23.59a184.81,184.81,0,0,1-44.1-18.91c-.13-.07-.2-.24-.55-.69l19-5.43,51.71-14.8c.52-.15,1.11-.58,1.51,0s-.16,1-.45,1.47c-7.79,12.57-16,24.86-24.2,37.17A2.36,2.36,0,0,1,165.57,433.41Zm11.58,2.41c-.45.14-1,.44-1.32,0-.45-.59.14-1,.47-1.41,3.25-4.08,6.62-8.08,9.74-12.26,5.26-7,10.37-14.18,15.54-21.27,1.36-1.87,2.09-4.08,3.19-6.08,1.45-2.63,2.24-2.93,4.94-1.87a232.68,232.68,0,0,0,59,14.26c1.13.13,2.24.4,3.36.6,0,.24,0,.49,0,.73l-17.71,5.08-75.87,21.83C178.06,435.57,177.6,435.68,177.15,435.82Zm96.18-22.75c-3.31,9.73-6.88,19.37-10.55,29-.76,2-1.6,4-2.24,6s-2,2.74-4.15,2.41q-15.48-2.37-31-4.56c-11.54-1.63-22.76-4.66-34-7.44-.25-.37-1.22.07-.94-.86,11.75-2.51,23.5-5,35.19-7.83,13.24-3.19,25.57-8.69,37.8-14.48,2.71-1.28,5.46-2.49,8.19-3.73.56-.25,1.12-.89,1.73-.42S273.56,412.4,273.33,413.07Zm19-62.68c-3.51,14.92-7.77,29.64-12.47,44.23-.73,2.26-1.41,4.53-2.14,6.78-1,3.06-1.69,3.52-4.88,2.86a285,285,0,0,1-46.64-13.33c-4.19-1.65-8.31-3.44-13.17-5.46,5.17-2.31,9.61-4.32,14.08-6.29,21.54-9.52,42.85-19.51,63.65-30.58.47-.25.92-.83,1.47-.41C293.05,348.83,292.5,349.66,292.33,350.39Zm3.76-28.64c-.69,4.69-1.13,9.42-1.76,14.12-.41,3.1-.66,3.23-3.6,2.35C275.45,333.67,261.46,326.41,248,318c-2.1-1.31-.77-1.86.4-2.49,8.51-4.55,17-9.17,25.26-14.11a223.83,223.83,0,0,0,22.09-14.74c.6-.46,1.09-1.37,2-1s.55,1.53.73,2C296.92,299.18,297.73,310.55,296.09,321.75Zm33-100.59c-.24.94-1.42.88-2.21,1.1-14.78,4.07-29.51,8.32-44.07,13.12-12.08,4-24.07,8.24-36.1,12.37-1,.33-1.9.63-2.85.94,3.56-3.78,6.41-8,10.11-11.45a260.05,260.05,0,0,0,30.38-34.5c2.42-3.21,5.39-6,7.37-9.57.84-1.53,2-.72,3,0,6.92,4.87,13.92,9.64,20.43,15.06,4.25,3.54,8.33,7.29,12.46,11C328.25,219.73,329.33,220.19,329.09,221.16Zm6.34-4.45a137.12,137.12,0,0,0-29.18-31.3c-2.31-1.85-2.3-1.91.42-3.13,17.77-7.95,36.07-14.54,54.47-20.85,7.77-2.67,15.57-5.26,23.57-7.19.45-.11.91-.17,2-.37a159.1,159.1,0,0,1-11.37,16.65q-18.15,23.19-36.45,46.24C337.25,218.81,336.82,218.81,335.43,216.71Zm111.71-16.32c-33,2.41-65.39,8.4-97.56,15.88-.57.13-1.17.6-1.83.14,0-1.18,1-1.75,1.66-2.46,8.2-8.25,16.66-16.26,23.63-25.64A163.67,163.67,0,0,0,391,158.18c1.59-3.51,1.8-3.56,5.22-1.58A219.79,219.79,0,0,1,447.89,198c.52.56,1.49,1.05,1.18,1.89S447.8,200.35,447.14,200.39Z"/></g></g></svg>