<svg xmlns="http://www.w3.org/2000/svg" viewBox="0 0 467.35 467.4"><defs><style>.cls-1{fill:#135291;}.cls-2{fill:#135191;}.cls-3{fill:#7298be;}.cls-4{fill:#2d649e;}.cls-5{fill:#2d659e;}.cls-6{fill:#2c649e;}.cls-7{fill:#8e8ec2;}.cls-8{fill:#a7a7d0;}.cls-9{fill:#8283bd;}.cls-10{fill:#8485bd;}.cls-11{fill:#a8a9d1;}.cls-12{fill:#aaaad1;}.cls-13{fill:#cbcbe3;}.cls-14{fill:#6162ab;}</style></defs><title>Asset 5EXCHANGE</title><g id="Layer_2" data-name="Layer 2"><g id="Layer_1-2" data-name="Layer 1"><path class="cls-1" d="M239.81.44H229.5c-.29-.17-.28-.31,0-.44h10.25C240.09.12,240.1.27,239.81.44Z"/><path class="cls-2" d="M.44,229.5v10.31c-.17.29-.32.28-.44,0V229.53C.12,229.22.27,229.21.44,229.5Z"/><path class="cls-3" d="M225.81,0a2.7,2.7,0,0,1-3.26,0Z"/><path class="cls-3" d="M246.76,0a2.7,2.7,0,0,1-3.26,0Z"/><path class="cls-4" d="M229.53,0a3.25,3.25,0,0,1,0,.44c-.93,0-1.93.29-2.76-.44Z"/><path class="cls-5" d="M239.81.44l0-.44h2.79C241.74.74,240.75.39,239.81.44Z"/><path class="cls-3" d="M0,222.55a2.07,2.07,0,0,1,0,2.79Z"/><path class="cls-6" d="M.44,229.5l-.44,0v-2.79C.73,227.57.39,228.56.44,229.5Z"/><path class="cls-6" d="M0,239.77l.44,0c0,.93.29,1.93-.44,2.76Z"/><path class="cls-3" d="M0,244a2.08,2.08,0,0,1,0,2.8Z"/><path class="cls-7" d="M467,237.7v-6.08l.23-.33.16.37v6l-.16.37Z"/><path class="cls-8" d="M467.35,231.66a1.72,1.72,0,0,0-.39,0c0-1.69,0-3.38,0-5.08.17-.33.3-.32.4,0Z"/><path class="cls-8" d="M467,237.7a1.72,1.72,0,0,0,.39,0v5.08c-.1.36-.23.37-.4,0C467,241.08,467,239.39,467,237.7Z"/><path class="cls-9" d="M243.91,2.58c-1.41,0-2.85.26-4.2-.41h4.16C244.23,2.26,244.25,2.4,243.91,2.58Z"/><path class="cls-10" d="M229.09,2.17a6.87,6.87,0,0,1-3.75.39L225,2.32l.37-.15Z"/><path class="cls-11" d="M225.4,2.17l-.06.39c-1.06-.1-2.21.5-3.18-.39Z"/><path class="cls-12" d="M243.91,2.58c0-.14,0-.28,0-.41h3.23C246.14,3.08,245,2.43,243.91,2.58Z"/><path class="cls-13" d="M467.35,226.58a1.33,1.33,0,0,0-.4,0c.15-1.06-.56-2.23.4-3.19Z"/><path class="cls-13" d="M467,242.77a1.33,1.33,0,0,0,.4,0V246C466.39,245,467.1,243.84,467,242.77Z"/><polygon class="cls-14" points="150.14 284.42 151.83 245.42 191.21 245.42 192.71 218.12 155.35 219.74 155.51 185.62 199.56 180.32 198.18 153.33 124.41 161.23 126.45 310 200.02 316.45 199.91 286.07 150.14 284.42"/><path class="cls-14" d="M397.42,263.76c-1.3-1.08-2.46-2.33-3.74-3.43a305.81,305.81,0,0,0-38-27.7,83.68,83.68,0,0,0-11.85-6.15,12,12,0,0,0-4.44-1.16c-2.81-.07-3.94,1.61-2.75,4.19a16.69,16.69,0,0,0,3.26,4.44c4.43,4.61,9.29,8.75,14.06,13,7.93,7.06,15.72,14.27,22.37,22.6a5.36,5.36,0,0,1,1.42,3.53q-.09,10.16,0,20.31c0,1.52-.34,2.17-2,2.16-8.3-.09-16.61-.06-24.92,0a3.66,3.66,0,0,1-2.85-1.2q-3.13-3.22-6.36-6.37c-2.18-2.14-3.17-2.11-5.41.07-1.21,1.18-2.39,2.39-3.59,3.59-4.86,4.85-4.85,4.84.13,9.64,4.7,4.54,9.52,9,14,13.72a6.27,6.27,0,0,0,5.09,2.39c6.84-.1,13.69,0,20.54,0,7.15,0,14.3,0,21.46,0,3.51,0,4.37-.92,4.39-4.39,0-5.07,0-10.15,0-15.23,0-.71-.37-1.8.59-2,1.54-.33,1.14-1.41,1.15-2.32,0-7.77-.09-15.54.06-23.31A7.29,7.29,0,0,0,397.42,263.76Z"/><path class="cls-14" d="M350.39,185.35a5.91,5.91,0,0,1,4-1.45c6.54.06,13.08.09,19.62,0,1.92,0,2.5.57,2.48,2.48-.09,8-.07,16,0,24a4.59,4.59,0,0,1-1.55,3.64q-3.33,3.18-6.52,6.53c-1.57,1.66-1.5,3.07.23,4.56,2.16,1.85,4.44,3.56,6.63,5.38,1.62,1.35,3.05,1.15,4.45-.31s2.91-3,4.36-4.45c4-4.09,7.88-8.21,11.89-12.25,1.05-1.06,2.37-1.65,2.36-3.59-.1-14.31,0-28.62-.08-42.93,0-4-.86-4.76-5-4.77H372v-.05c-7.15,0-14.31.06-21.46,0a7.29,7.29,0,0,0-5.56,2.23,121.78,121.78,0,0,0-9.72,11.1c-9.42,11.8-18.26,24-25.47,37.29a33.08,33.08,0,0,0-3.41,8.55c-.3,1.34-.49,2.88.88,3.8s2.66.28,3.87-.47a30.91,30.91,0,0,0,6.58-5.76q7.83-8.62,15.65-17.27A151.77,151.77,0,0,1,350.39,185.35Z"/><path class="cls-14" d="M467.35,222.88c-.46-.7-.19-1.49-.22-2.24-.28-5.55-.32-11.11-.87-16.64a186.75,186.75,0,0,0-6.56-32.76A232.79,232.79,0,0,0,430.48,107a237,237,0,0,0-43.89-49.9A232.1,232.1,0,0,0,284.81,6.36c-7.18-1.53-14.36-3-21.74-3.37-4.55-.23-9.13-.19-13.66-.82H247.1c-1.08.49-2.21.11-3.31.23-1.36-.11-2.74.24-4.08-.23H229.09c-1.19.48-2.44.11-3.66.23-1.09-.12-2.21.26-3.27-.23h-2.77a43.2,43.2,0,0,1-5.91.47,136.85,136.85,0,0,0-16.56,1.29,234.31,234.31,0,0,0-183.61,155A203.74,203.74,0,0,0,1.66,227.26c.05,7.84,0,15.68.29,23.52.12,3.78.25,7.57.56,11.34a183.73,183.73,0,0,0,5.4,30.18A233.11,233.11,0,0,0,83,412.53a228.88,228.88,0,0,0,61.46,37.82c26.56,11.11,54.13,17.36,83.05,17,8.07-.09,16.15.11,24.22-.26a165.4,165.4,0,0,0,21-1.79,240.77,240.77,0,0,0,42.55-11.25,233.5,233.5,0,0,0,97-67.57,232.45,232.45,0,0,0,29.84-44,226.73,226.73,0,0,0,18.25-46.79c3.32-12.42,6.11-24.94,6.34-37.91a73.63,73.63,0,0,1,.66-10.89V246c-.5-1.14-.11-2.34-.23-3.5V226.82c.12-1.15-.27-2.34.23-3.47ZM272.09,232.5h0V407c0,2.76-.14,2.87-2.92,2.32L102.45,376c-10.78-2.16-21.55-4.38-32.36-6.41-2.27-.43-3-1.27-3-3.59q.12-46,0-92.1,0-87.49-.06-175c0-2.51.72-3.4,3.16-3.89Q168.48,75.5,266.64,55.87c6.62-1.32,5.43-1.44,5.43,4.42Q272.13,146.41,272.09,232.5Zm150.76,7.17v82.88c0,11.57-7.53,19.42-19.1,19.45-38.33.09-76.65,0-115,.06-1.69,0-2.31-.52-2.29-2.25q.12-9.36,0-18.7c0-1.61.5-2.34,2.12-2.07,3.42.57,5.86-1,8.08-3.42a244.89,244.89,0,0,0,35-48.23,31.46,31.46,0,0,0,3-7.71c.33-1.35.58-2.84-.69-3.86s-2.78-.34-4.06.41a29.14,29.14,0,0,0-6.23,5.44c-8,8.35-15.22,17.37-23.53,25.4-3,2.89-6.07,5.67-9.31,8.28a9.72,9.72,0,0,1-1.71,1.16c-1.9.93-2.71.43-2.72-1.67q0-13.15,0-26.32V250.74c0-2.8,0-2.76,2.38-1.51,3.21,1.67,6.42,3.31,9.68,4.86a19.28,19.28,0,0,0,3.94,1.27c1.19.27,2.46.43,3.35-.81a3.56,3.56,0,0,0,.2-3.92,19.7,19.7,0,0,0-4.77-5.88q-6.39-5.83-12.94-11.49a4.68,4.68,0,0,1-1.87-3.93q.09-21.47,0-42.94c0-1.88.54-2.42,2.43-2.58a7.83,7.83,0,0,1,7.47,3.08,60.1,60.1,0,0,0,5,5.11c1.48,1.47,3,1.44,4.43,0,2.08-2,4.18-4.09,6.22-6.19s2.11-3.31,0-5.44c-4.89-4.8-9.81-9.56-14.72-14.34a.81.81,0,0,1-.16-.16c-2.11-3.23-5.07-4.35-8.82-3.68-1.26.22-1.78-.37-1.77-1.69q.06-10.62,0-21.24c0-1.14.34-1.76,1.58-1.66.61,0,1.23,0,1.85,0,37.86,0,75.72.14,113.58-.09,10.12-.06,19.55,8.21,19.43,19.3C422.65,184.41,422.85,212,422.85,239.67Z"/></g></g></svg>