<svg xmlns="http://www.w3.org/2000/svg" viewBox="0 0 467.03 467.9"><defs><style>.cls-1{fill:#eb4d1a;}.cls-2{fill:#f39577;}.cls-3{fill:#ed6033;}.cls-4{fill:#bfeafa;}.cls-5{fill:#c1ebfa;}.cls-6{fill:#c0ebfa;}.cls-7{fill:#88d8f7;}.cls-8{fill:#f7ae58;}.cls-9{fill:#f9c88d;}.cls-10{fill:#f7ad56;}.cls-11{fill:#f9c688;}.cls-12{fill:#f5931e;}</style></defs><title>Asset 16googleDrive</title><g id="Layer_2" data-name="Layer 2"><g id="Layer_1-2" data-name="Layer 1"><path class="cls-1" d="M247.66.45H237c-.31-.17-.3-.32,0-.45h10.57C248,.13,248,.28,247.66.45Z"/><path class="cls-1" d="M.45,237v10.64q-.25.47-.45,0V237Q.2,236.55.45,237Z"/><path class="cls-2" d="M233.2,0a2.82,2.82,0,0,1-3.37,0Z"/><path class="cls-2" d="M254.84,0a2.82,2.82,0,0,1-3.37,0Z"/><path class="cls-3" d="M237.05,0c0,.15,0,.3,0,.45-1,0-2,.27-2.85-.45Z"/><path class="cls-3" d="M247.66.45c0-.15,0-.3,0-.45h2.89C249.65.72,248.63.42,247.66.45Z"/><path class="cls-2" d="M0,229.83a2.16,2.16,0,0,1,0,2.88Z"/><path class="cls-3" d="M.45,237,0,237v-2.88C.71,235,.43,236,.45,237Z"/><path class="cls-3" d="M0,247.62l.45,0c0,1,.26,2-.45,2.85Z"/><path class="cls-2" d="M0,252a2.16,2.16,0,0,1,0,2.88Z"/><path class="cls-4" d="M1.13,235.32a2.83,2.83,0,0,1,.87,0,15.74,15.74,0,0,1,0,15.62,6.55,6.55,0,0,1-.89,0Z"/><path class="cls-5" d="M224.59,8.59a3.46,3.46,0,0,0,0-.91h9.31a1.14,1.14,0,0,1-.43,1.6C230.43,10.43,227.4,10.92,224.59,8.59Z"/><path class="cls-6" d="M248.43,7.68a5.26,5.26,0,0,0,0,.89c-2.81,2.37-5.84,1.86-8.93.72a1.14,1.14,0,0,1-.43-1.61Z"/><path class="cls-7" d="M239.12,7.68a3.94,3.94,0,0,0,0,.91c-1.77,1.63-3.53,1.65-5.29,0a6.4,6.4,0,0,0,.06-.88Z"/><path class="cls-8" d="M258.68,15.63a63.51,63.51,0,0,1-34.72,0Z"/><path class="cls-9" d="M15.63,221.91c3.54,3.58,1.56,8,1.8,12.05q-.64,2.32-1.8.2Z"/><path class="cls-10" d="M15.63,234.16c.6-.09,1.2-.16,1.8-.2q-.09,6.38-.19,12.75c-.72.92-1.26.82-1.61-.29Z"/><path class="cls-11" d="M15.63,246.42a4.45,4.45,0,0,0,1.61.29c.08,4.07,2,8.38-1.61,12Z"/><path class="cls-12" d="M454.58,155.81c-27.72-65.76-75-110.55-142.72-133.51-15.3-5.18-31.5-3.58-47.06-6.67h-6.12a120.93,120.93,0,0,1-34.72,0h-8.17c-1.4,1.31-3.15.86-4.8,1-17.1,1.81-34.32,2-50.76,8.76C134.3,36.11,110.5,49.64,89.3,68.34c-28.65,25.27-48.81,55.9-63.24,90.91-7.78,18.88-7.2,39-10.43,58.57v4.09c2.16,4.1.5,8.5,1,12.73V246c-.52,4.2,1.14,8.58-1,12.65v4.09c2.8,15.63,1.49,31.89,6.28,47.15C35,351.49,58.6,386.19,91.15,415c51,45.21,111.65,57.14,177.35,51.6,10.78-.91,21.68-1.06,32.26-4C360.45,445.85,406.67,411.12,438.47,358c15.41-25.75,26.93-53,27.81-84,.49-17.6.8-35.19.75-52.8C467,198.58,463.4,176.73,454.58,155.81ZM212.33,113.88c20.74.32,41.49.15,62.23.1,5.41,0,9.94,1.11,12.93,6.28q41.24,71.5,82.58,142.93c.44.78.3,1.89.61,4.23-22.68,0-45,.34-67.25-.17-9.13-.21-15.75-6-20.22-13.77C258,209.59,233,165.62,207.68,121.77,204.1,115.57,205.08,113.77,212.33,113.88ZM117.25,300.49c-18.61-32.85-18.14-20.42-.27-52.1,22.2-39.35,45.1-78.32,67.71-117.44,1.68-2.92,3.43-5.79,5.75-9.71,12.68,21.66,24.93,42.39,36.92,63.27,2.31,4,2,8.61-.37,12.72-27.76,48.25-55.55,96.47-84.37,146.49C133.6,328.36,125.22,314.54,117.25,300.49Zm231.26,21.37c-20.13,34.33-9.72,28.35-49,28.64-47.28.34-94.56.08-144.43.08,13.32-22.87,25.52-43.94,37.86-64.92,1.81-3.07,4.85-4.53,8.61-4.53,56.08,0,112.16,0,170.13,0C363.49,295.56,356.16,308.8,348.51,321.86Z"/></g></g></svg>