<svg xmlns="http://www.w3.org/2000/svg" viewBox="0 0 469.75 469.19"><defs><style>.cls-1{fill:#33678f;}.cls-2{fill:#99b3c7;}.cls-3{fill:#fdfdfd;}.cls-4{fill:#2a5170;}.cls-5{fill:#33668f;}.cls-6{fill:#336790;}.cls-7{fill:#346790;}.cls-8{fill:#fbfcfc;}</style></defs><title>Asset 20PostGreSql</title><g id="Layer_2" data-name="Layer 2"><g id="Layer_1-2" data-name="Layer 1"><path class="cls-1" d="M256.74,469.19h-44c-4.48-1-9.07-1-13.62-1.22-20.67-1-39.8-7.84-58.56-15.81-24.73-10.5-46.59-25.38-66.32-43.65-37.54-34.76-61-77.29-71.34-127.23C.6,270.33.78,259.13.34,248a342.9,342.9,0,0,1,1.72-53.62c2.24-19.09,8.65-37.15,16.26-54.76a228.37,228.37,0,0,1,35-56.32A235.28,235.28,0,0,1,140,18.15c18.37-8.06,37.37-14.45,57.3-16.64C217.63-.72,238.11,0,258.56.59c30,.82,57.52,10.29,84,23.39,19.2,9.51,36.41,22,52.29,36.42a231.18,231.18,0,0,1,55.94,76.74c10.12,22.56,17.87,45.89,18.09,71.11,0,4-.22,8.13.89,12.09v2a29.94,29.94,0,0,0,0,12.29v2a26.39,26.39,0,0,0,0,11.26v3.07c-1.09,8-1,16-1.78,24-1.82,18.17-7.69,35.25-14.54,52-13.75,33.62-35.05,62-62,85.93-30.15,26.78-65.27,44.37-104.64,53.23-8.69,2-17.7,1.8-26.58,2.47C259,468.77,257.78,468.31,256.74,469.19Z"/><path class="cls-2" d="M469.75,234.68a16.1,16.1,0,0,1,0-12.29Z"/><path class="cls-2" d="M469.75,248a13.39,13.39,0,0,1,0-11.26Z"/><path class="cls-3" d="M224.55,314.12c-8,6.15-17,9.81-27.18,10-9.13.15-18.05-.73-26.17-5.42-3.59-2.07-6.37-4.88-6.2-9.27s3.37-6.8,7.17-8.47c4.89-2.16,10.13-3,15.29-4,7.41-1.51,12.33-5.95,16.12-12.73-5.61-.76-10.91-1.7-15.8-4.06-2.33-1.12-3.75,0-5.24,1.69-7.27,8.36-14.74,16.55-21.94,25-14.95,17.53-29.71,17.06-43.45-1.67-9.9-13.49-15.93-28.88-21.33-44.53C86.24,232.81,79,204.42,75.08,175.31c-2.6-19.48-1.57-38.94,7.68-56.91C94,96.62,113.47,88.48,136.62,87.27c19.33-1,38,2.68,56.23,8.94a9.35,9.35,0,0,0,8.56-.87C219.6,84.9,239.13,84.75,259,88.56a17.78,17.78,0,0,0,8.45-.57c25.79-7.08,51.44-7.91,76.76,2.06a84.1,84.1,0,0,1,35.5,26.79c6.72,8.49,7.31,18.74,6.64,28.76-3.12,46.38-20.69,87.82-44.5,127-3,5-3,5.58,2.91,6.65,8.35,1.53,16.65.4,24.92-1a80.1,80.1,0,0,1,9.59-1.33c3.19-.18,6.15.76,7.82,3.82,1.78,3.25.9,6.33-1.09,9.11-4.29,6-10.27,10-16.7,13.21-13.83,6.93-28.58,8.73-43.8,6.67-3.14-.42-4,.1-4.41,3.35-2.37,19.11-4.24,38.29-7.72,57.26-4.06,22.11-16,33.86-42.38,37.26-23.93,3.08-40-10.78-43-35.13-2.17-17.82-2.05-35.73-2.54-53.62C225.44,317.37,226,315.78,224.55,314.12Z"/><path class="cls-4" d="M304.87,73.94a4.82,4.82,0,0,1-1.31.42c-.19,0-.39-.44-.59-.68a5.52,5.52,0,0,1,1.19-.55C304.31,73.1,304.54,73.55,304.87,73.94Z"/><path class="cls-5" d="M171.83,173c.86-29.09,14-61.17,38.66-71.65,20.39-8.69,41.17-7,61.25.91,26.8,10.59,44.64,30.51,55.8,56.77,1.21,2.85,1.46,4.46-2.54,4a58.73,58.73,0,0,0-8.18-.06c-20.54.47-31.54,14.05-27.84,34.32,2.8,15.29,9.2,29.21,16.76,42.58,6.45,11.39,11,23.91,19.85,33.87,1.47,1.65.93,2.44-1,3.23-8.85,3.58-11.08,10.88-11.77,19.69-2,25.49-4.78,50.9-9.87,76-2.34,11.55-9.62,18.9-20.75,22.47a62.1,62.1,0,0,1-18,3.42c-9.9.16-16.88-4.28-21.74-12.67-5-8.59-5.45-18.16-6.13-27.67-1.43-19.75-1.09-39.54-.92-59.32.12-14.27-4.73-20.07-18.72-22.39-2.78-.46-1.81-1.83-1.32-3.17,2.25-6.07,4.09-12.34,6.93-18.12,11.68-23.75,10.65-48.23,4.2-72.86-3.74-14.27-16.68-20.41-33.56-17C185.55,166.86,178.68,169.73,171.83,173Z"/><path class="cls-1" d="M188.55,105.35a86.17,86.17,0,0,0-18.81,30.74A142.7,142.7,0,0,0,162.11,197,135.23,135.23,0,0,1,160.93,226c-2.23,16.81,1.38,31.87,13.54,44.22,2.33,2.37,2.34,3.76.07,6.24-8,8.8-15.82,17.86-23.69,26.83-7.66,8.73-14.37,8.92-22.34.39-8.41-9-13.53-20-18-31.26a416.11,416.11,0,0,1-26.39-102.6c-1.91-15.53-.35-31,6.39-45.51,7.63-16.37,21.37-24.2,38.55-26.69,19.84-2.89,39,.85,57.87,6.74A8.85,8.85,0,0,1,188.55,105.35Z"/><path class="cls-1" d="M282,94.51c33.31-5.39,64-2,88.69,24.43a27.83,27.83,0,0,1,7.55,18.43c1.08,20.28-3.87,39.58-9.67,58.67C361.34,219.77,350.6,242,338,263.28a7.48,7.48,0,0,1-.83,1.29c-1,1-1.34,3.5-3.17,2.47s-.05-2.75.58-3.92c6.21-11.47,7.11-23.9,5.32-36.33a143.35,143.35,0,0,1,.7-46.77c1.77-9.6.05-18.52-4-27.28-11.38-24.4-28.13-43.68-52.44-55.92C283.31,96.4,282,96.41,282,94.51Z"/><path class="cls-1" d="M171.71,201c-.18-3.4,0-6.88-.63-10.18-1-5,1.13-7.49,5.31-9.63,8.77-4.5,17.76-7.89,27.79-7.18,7.3.51,11.87,4.15,13.52,11.1,5.5,23.19,6.84,46.1-4.72,68.21-2.74,5.24-4.51,11-6.25,16.71-1,3.43-2.45,4.57-6.16,4-16.82-2.79-30.57-18.48-30.85-35.76C169.52,225.83,172.58,213.54,171.71,201Z"/><path class="cls-6" d="M325.35,257.3c-10.22-20.58-22.86-38.83-27.08-60.89a34.88,34.88,0,0,1-.49-9.17c.53-7.05,4.4-11.85,11.1-13.7,5.83-1.61,11.81-1.55,17.79-1.09,2.68.21,3.85,1.42,3.41,4.39-1.05,7.08-1.92,14.19-2.66,21.3-1.24,12,1.71,23.78,2.14,35.7C329.84,241.53,329.34,249.1,325.35,257.3Z"/><path class="cls-6" d="M176.18,309.9c3.51-2.1,7.47-2.51,11.2-3.13,10.46-1.74,17.82-7.62,23.93-15.9,4.5-6.09,7.13-6.52,11.12-3.19,4.47,3.72,4.72,9,.86,13.88-12.65,16-33.68,14.92-46,9.55C176.88,310.93,176.62,310.39,176.18,309.9Z"/><path class="cls-7" d="M374.87,287.17c-3.91,4.54-8.38,6.93-13,8.81a67.17,67.17,0,0,1-32.45,4.68c-7.23-.75-9.19-4.57-6-11,1.91-3.83,7.1-6.19,10.82-4.15,10.44,5.72,21.42,4.06,32.39,2.95C369.13,288.17,371.6,287.67,374.87,287.17Z"/><path class="cls-8" d="M203.21,179.33a14,14,0,0,1,5.51.86c2.37,1,5.13,1.75,4.91,5-.2,2.9-2.6,4.39-5,5.19a9.1,9.1,0,0,1-7.88-.63c-2.67-1.67-5.41-3.7-4.65-7.17C196.87,178.86,200.39,179.48,203.21,179.33Z"/><path class="cls-8" d="M315,176.68c2.38.69,5.63-.26,6.2,3.29.48,3-4.88,7.24-8.82,7-3.41-.2-7.5-1.62-7.15-5.12C305.73,176.55,311.21,177.61,315,176.68Z"/></g></g></svg>