<svg xmlns="http://www.w3.org/2000/svg" viewBox="0 0 492.03 492.5"><defs><style>.cls-1{fill:#f79b1b;}</style></defs><title>Asset 10SHARE</title><g id="Layer_2" data-name="Layer 2"><g id="Layer_1-2" data-name="Layer 1"><path class="cls-1" d="M249.24,0C108.24-1.67.23,111.83,0,246-.23,381.83,110.13,492.5,246,492.5,379.39,492.42,490.16,386.1,492,249.62S386,1.66,249.24,0ZM432,296.69a44.47,44.47,0,0,1-9.71.32,3.21,3.21,0,0,0-3.41,1.78,98.08,98.08,0,0,1-45.73,39.14,16.45,16.45,0,0,1-2.31.94c-1.5.37-2,1.19-2.21,2.79-2.52,23.72-18.6,40.57-42.2,44.22a39.94,39.94,0,0,1-11.45,0c-2.88-.38-3-.39-2.95,2.59q.08,26.35.15,52.72c0,5.58-2.24,8.65-6.78,9.68-1.64.37-3.15-.13-4.68-.42q-72.62-13.92-145.22-27.88l-78.38-15c-5.46-1.06-7.62-3.74-7.64-9.35,0-.66,0-1.33,0-2Q69.35,277,69.28,157.73c0-15.41.11-30.82.15-46.23,0-4.16-.16-8.32-.15-12.48,0-6.26,2.64-9.25,8.81-10.41Q134.48,78,190.83,67.36q55-10.38,110-20.76c2.6-.49,5.05-.9,7.44.66,3,1.94,3.85,4.84,3.85,8.18V81.93c0,8.5,0,17,0,25.49,0,4.24-.8,3.88,3.84,3.59,16.13-1,29.8,4.23,40.57,16.36a46.08,46.08,0,0,1,11.69,27.29,2.82,2.82,0,0,0,2,2.74,97.73,97.73,0,0,1,49.26,41.18c1,1.64,2.28,1.57,3.82,1.53,20-.44,35.42,8.07,44.71,25.55C485.43,258.3,462.74,292.61,432,296.69Z"/><path class="cls-1" d="M314.63,251.12c0-13.07,0-26.14,0-39.21,0-1.77.71-1.81,2.13-1.62A48.2,48.2,0,0,0,367,182c.43-1,.84-2,1.21-3,1.18-3.24,1.17-3.24,4.4-1.7a83.36,83.36,0,0,1,33.09,28.11c1.15,1.66,1,2.34-.78,3.32C388.7,217.8,380,231.8,379.53,250.3c-.52,19.21,8.6,33.39,24.74,43.21,2.07,1.25,2,1.93.72,3.64a83.89,83.89,0,0,1-33.13,27.71c-2.12,1-3,.89-3.9-1.49-8.2-20.93-26.72-32.73-49.08-31.47-4.2.24-4.19.24-4.19-4q0-18.36,0-36.73Z"/><path class="cls-1" d="M460.46,251.49a32.16,32.16,0,0,1-33,32.16c-17.93-.23-31.93-14.92-31.68-33.25a32.34,32.34,0,0,1,64.68,1.09Z"/><path class="cls-1" d="M314.7,340.24c0-9.66,0-19.32,0-29,0-1.76.53-2.52,2.26-2.84,14.32-2.67,29,4.55,35,17.32,6.58,14,3.29,30.29-8.15,39.76-7.95,6.57-17.17,8.34-27.19,6.78a2,2,0,0,1-2-2.31c.05-9.91,0-19.82,0-29.73Z"/><path class="cls-1" d="M314.67,162c0-9.75.06-19.5-.05-29.24,0-1.82.75-2.22,2.26-2.52a31.9,31.9,0,0,1,37.87,26.51c2.87,18.51-8.19,34.19-26.48,37.4a36.83,36.83,0,0,1-11.19,0c-1.9-.25-2.44-1-2.42-2.91.08-9.74,0-19.49,0-29.23Z"/><path class="cls-1" d="M290.91,61.8c-17,3.31-34,6.46-51,9.7q-76.8,14.61-153.6,29.18c-2.69.5-3.45,1.48-3.45,4.18q.11,141.2.06,282.4a6.68,6.68,0,0,1,0,1c-.22,1.53.42,2.21,2,2.51q38.82,7.46,77.61,15l127.79,24.75c3.1.6,3.1.63,3.1-2.63V246.21q0-91.1,0-182.18C293.46,61.94,293.14,61.37,290.91,61.8ZM233.56,287.55c-3.16,18.15-15,27.24-31.39,32-15.21,4.39-30.66,4.6-46.21,1.86-6.63-1.16-13.26-2.31-19.54-4.91-1.9-.79-3-1.83-2.95-4,.06-10,0-19.93,0-30.43,9.5,8,20.08,12.3,31.68,14.29a54.45,54.45,0,0,0,21.32-.19,20.71,20.71,0,0,0,7.47-3.34,13.06,13.06,0,0,0,1.95-20.19,43.72,43.72,0,0,0-13.34-9.08c-8.11-3.84-16.53-7-24.39-11.4-6.68-3.72-12.74-8.13-17.49-14.24-10.51-13.54-13.78-41.68,9-57.52,9.43-6.57,20-9.76,31.27-10.57,15.13-1.09,30.08-.25,44.69,4.26,2,.6,2.55,1.48,2.53,3.5-.11,9.41,0,18.82,0,28.37-1.45,0-2.29-1-3.31-1.62-13.46-7.77-27.85-10-43-7.2a19.45,19.45,0,0,0-8,3.44,12.89,12.89,0,0,0-1.94,19.61,30.41,30.41,0,0,0,8.21,6c7,3.69,14.33,6.63,21.56,9.8a90.68,90.68,0,0,1,12.93,7C230.84,253.52,236.88,268.47,233.56,287.55Z"/></g></g></svg>