<svg xmlns="http://www.w3.org/2000/svg" viewBox="0 0 479.5 479.4"><defs><style>.cls-1{fill:#eb4d1a;}.cls-2{fill:#f39577;}.cls-3{fill:#ed6033;}.cls-4{fill:#bfeafa;}.cls-5{fill:#c1ebfa;}.cls-6{fill:#c0ebfa;}.cls-7{fill:#88d8f7;}.cls-8{fill:#f7ae58;}.cls-9{fill:#f9c88d;}.cls-10{fill:#f7ad56;}.cls-11{fill:#f9c688;}.cls-12{fill:#c1e6e3;}.cls-13{fill:#0b9f94;}</style></defs><title>Asset 17MySql</title><g id="Layer_2" data-name="Layer 2"><g id="Layer_1-2" data-name="Layer 1"><path class="cls-1" d="M247.66.45H237c-.31-.17-.3-.32,0-.45h10.57C248,.13,248,.28,247.66.45Z"/><path class="cls-1" d="M.45,237v10.64q-.25.47-.45,0V237Q.2,236.55.45,237Z"/><path class="cls-2" d="M233.2,0a2.82,2.82,0,0,1-3.37,0Z"/><path class="cls-2" d="M254.84,0a2.82,2.82,0,0,1-3.37,0Z"/><path class="cls-3" d="M237.05,0c0,.15,0,.3,0,.45-1,0-2,.27-2.85-.45Z"/><path class="cls-3" d="M247.66.45c0-.15,0-.3,0-.45h2.89C249.65.72,248.63.42,247.66.45Z"/><path class="cls-2" d="M0,229.83a2.16,2.16,0,0,1,0,2.88Z"/><path class="cls-3" d="M.45,237,0,237v-2.88C.71,235,.43,236,.45,237Z"/><path class="cls-3" d="M0,247.62l.45,0c0,1,.26,2-.45,2.85Z"/><path class="cls-2" d="M0,252a2.16,2.16,0,0,1,0,2.88Z"/><path class="cls-4" d="M1.13,235.32a2.83,2.83,0,0,1,.87,0,15.74,15.74,0,0,1,0,15.62,6.55,6.55,0,0,1-.89,0Z"/><path class="cls-5" d="M224.59,8.59a3.46,3.46,0,0,0,0-.91h9.31a1.14,1.14,0,0,1-.43,1.6C230.43,10.43,227.4,10.92,224.59,8.59Z"/><path class="cls-6" d="M248.43,7.68a5.26,5.26,0,0,0,0,.89c-2.81,2.37-5.84,1.86-8.93.72a1.14,1.14,0,0,1-.43-1.61Z"/><path class="cls-7" d="M239.12,7.68a3.94,3.94,0,0,0,0,.91c-1.77,1.63-3.53,1.65-5.29,0a6.4,6.4,0,0,0,.06-.88Z"/><path class="cls-8" d="M258.68,15.63a63.51,63.51,0,0,1-34.72,0Z"/><path class="cls-9" d="M15.63,221.91c3.54,3.58,1.56,8,1.8,12.05q-.64,2.32-1.8.2Z"/><path class="cls-10" d="M15.63,234.16c.6-.09,1.2-.16,1.8-.2q-.09,6.38-.19,12.75c-.72.92-1.26.82-1.61-.29Z"/><path class="cls-11" d="M15.63,246.42a4.45,4.45,0,0,0,1.61.29c.08,4.07,2,8.38-1.61,12Z"/><path class="cls-12" d="M249.46.14c0,.42,0,.83.08,1.24q-9.64,5.76-19.27,0c0-.41.06-.82.07-1.24Z"/><path class="cls-13" d="M473.7,189.55C448.85,81.45,360.41,7.22,249.54,1.38H230.27A256.64,256.64,0,0,0,201.8,4.3C58.1,26.44-32.9,174.85,12.18,313.63,49.75,429.31,164.94,497.39,285.61,475.24,416,451.32,503.36,318.57,473.7,189.55ZM407.25,352.16c-10,2.67-20.53,1.08-30.52,3.87-3.22.9-7.23.7-8.07,5-.88,4.55,2.74,6.49,5.79,8.46,6,3.85,12.12,7.4,18,11.31,1.44,1,5.51,1.58,2.82,4.33-2.22,2.27-3.51,7.94-8.18,5.52-15-7.77-28.1-17.84-36.74-32.83-2.12-3.67-.91-5.58,2.77-7.31a80.23,80.23,0,0,1,38.49-7.71c1.85.08,4.49.81,5.42-1,1.37-2.62-1.68-3.7-3.12-5.07-14-13.26-29.36-24.35-47.81-30.73C332.48,301.35,322.83,292.52,317,279c-9-20.87-18.68-41.48-28.29-62.1-15.65-33.62-41.93-57.29-72.2-77.42-15.68-10.42-32-17.69-51.19-17.56-8.16,0-14.83-4.55-20.86-9.79A53.38,53.38,0,0,0,116.8,99.47c-3.94-.6-7.32-.43-10,2.85s-1.74,6.89-.18,10.37a41.67,41.67,0,0,0,8.58,12.75c11.94,11.77,18.34,26.35,22.44,42.25,3.76,14.59,9.11,28.37,19.67,39.68,5.35,5.71,4.57,12.49,2.14,19.32-7.09,19.87-7.89,40.19-4.27,60.82a58.83,58.83,0,0,0,8.49,21c1.3,2.1,2.5,4.6,5.57,3.54,2.67-.92,2.09-3.53,2.21-5.68.8-13.64,3.18-26.71,12.42-37.63,2.9-3.42,4.35-4,6.36.67a247.43,247.43,0,0,0,23.64,42.24c-11.78,1.84-17.8-4.12-21.41-13.73-.81-2.16-1.41-5.28-4.68-4.61-2.92.6-2.9,3.57-3.32,6-.85,4.82-1.68,9.65-2.54,14.47-.94,5.27-2.64,10.2-8.46,11.75s-10.41-1.31-14.24-5.55c-10.17-11.25-14.08-25-15.62-39.61-2-18.49-.58-36.73,5.8-54.32,2.07-5.73,1.16-10.16-3-14.73-9.43-10.44-14.17-23.35-17.61-36.71-4.36-16.9-11.37-32.22-24-44.72a34.68,34.68,0,0,1-8.73-15.93c-3.62-13.48,5-24.06,19.17-23.07A57.41,57.41,0,0,1,147,103.46c8.29,6.51,17,9.56,27.47,10.34a83.55,83.55,0,0,1,37.3,12.46C254,152,287.7,185.35,306,232.5c6.11,15.72,13.41,31,20.83,46.14a35.6,35.6,0,0,0,20.54,18.65c24.76,9.34,45.59,24.53,63.12,44.26C416.26,348,415.61,349.92,407.25,352.16Zm-233.95-186c-3-7.24-6.58-13.8-12.23-19.84,7.06-2.54,12.33-1.58,16,4.37S177.94,161.31,173.3,166.19Z"/></g></g></svg>