<?xml version="1.0" encoding="utf-8"?>
<!-- Generator: Adobe Illustrator 24.0.1, SVG Export Plug-In . SVG Version: 6.00 Build 0)  -->
<svg version="1.1" id="Layer_1" xmlns="http://www.w3.org/2000/svg" xmlns:xlink="http://www.w3.org/1999/xlink" x="0px" y="0px"
	 viewBox="0 0 43 43" style="enable-background:new 0 0 43 43;" xml:space="preserve">
<style type="text/css">
	.st0{clip-path:url(#SVGID_2_);}
	.st1{fill:#FF9900;}
	.st2{fill:#FFFFFF;}
	.st3{fill-rule:evenodd;clip-rule:evenodd;fill:#FFFFFF;}
</style>
<g>
	<defs>
		<rect id="SVGID_1_" width="43" height="43"/>
	</defs>
	<clipPath id="SVGID_2_">
		<use xlink:href="#SVGID_1_"  style="overflow:visible;"/>
	</clipPath>
	<g class="st0">
		<path class="st1" d="M43,21.5c0,4.3-1.3,8.4-3.6,12c-2.4,3.5-5.7,6.3-9.7,7.9c-3.9,1.6-8.3,2.1-12.4,1.2c-4.2-0.8-8-2.9-11-5.9
			c-3-3-5.1-6.8-5.9-11c-0.8-4.2-0.4-8.5,1.2-12.4C3.3,9.4,6,6,9.6,3.6C13.1,1.3,17.2,0,21.5,0c5.7,0,11.2,2.3,15.2,6.3
			C40.7,10.4,43,15.8,43,21.5L43,21.5z"/>
	</g>
</g>
<g>
	<path class="st2" d="M14.4,18.9c0,0.4,0,0.7,0.1,1c0.1,0.2,0.2,0.5,0.3,0.8c0.1,0.1,0.1,0.2,0.1,0.2c0,0.1-0.1,0.2-0.2,0.3
		l-0.7,0.5c-0.1,0.1-0.2,0.1-0.3,0.1c-0.1,0-0.2-0.1-0.3-0.2c-0.2-0.2-0.3-0.3-0.4-0.5c-0.1-0.2-0.2-0.4-0.3-0.6
		c-0.8,1-1.9,1.5-3.2,1.5c-0.9,0-1.6-0.3-2.2-0.8s-0.8-1.2-0.8-2.1c0-0.9,0.3-1.7,1-2.2S9.2,16,10.3,16c0.4,0,0.7,0,1.1,0.1
		c0.4,0.1,0.8,0.1,1.2,0.2v-0.8c0-0.8-0.2-1.4-0.5-1.7c-0.3-0.3-0.9-0.5-1.8-0.5c-0.4,0-0.8,0-1.2,0.1c-0.4,0.1-0.8,0.2-1.2,0.4
		c-0.2,0.1-0.3,0.1-0.4,0.1c-0.1,0-0.1,0-0.2,0c-0.2,0-0.2-0.1-0.2-0.3v-0.5c0-0.2,0-0.3,0.1-0.4c0.1-0.1,0.2-0.2,0.3-0.2
		C8,12.3,8.5,12.2,9,12c0.5-0.1,1.1-0.2,1.7-0.2c1.3,0,2.2,0.3,2.8,0.9c0.6,0.6,0.9,1.5,0.9,2.6L14.4,18.9L14.4,18.9z M10.1,20.5
		c0.4,0,0.7-0.1,1.1-0.2s0.7-0.4,1-0.7c0.2-0.2,0.3-0.4,0.4-0.7c0.1-0.3,0.1-0.6,0.1-0.9v-0.5c-0.3-0.1-0.6-0.1-1-0.2
		c-0.3,0-0.7-0.1-1-0.1c-0.7,0-1.2,0.1-1.6,0.4c-0.4,0.3-0.5,0.7-0.5,1.2c0,0.5,0.1,0.9,0.4,1.1C9.2,20.4,9.6,20.5,10.1,20.5z
		 M18.7,21.7c-0.2,0-0.3,0-0.4-0.1c-0.1-0.1-0.2-0.2-0.2-0.4l-2.5-8.3c-0.1-0.2-0.1-0.4-0.1-0.4c0-0.2,0.1-0.3,0.3-0.3h1.1
		c0.2,0,0.3,0,0.4,0.1c0.1,0.1,0.2,0.2,0.2,0.4l1.8,7.1l1.7-7.1c0.1-0.2,0.1-0.4,0.2-0.4s0.2-0.1,0.4-0.1h0.9c0.2,0,0.3,0,0.4,0.1
		c0.1,0.1,0.2,0.2,0.2,0.4l1.7,7.2l1.9-7.2c0.1-0.2,0.1-0.4,0.2-0.4c0.1-0.1,0.2-0.1,0.4-0.1h1c0.2,0,0.3,0.1,0.3,0.3
		c0,0.1,0,0.1,0,0.2s0,0.2-0.1,0.3l-2.6,8.3c-0.1,0.2-0.1,0.4-0.2,0.4c-0.1,0.1-0.2,0.1-0.4,0.1h-0.9c-0.2,0-0.3,0-0.4-0.1
		c-0.1-0.1-0.2-0.2-0.2-0.4l-1.7-6.9l-1.7,6.9c-0.1,0.2-0.1,0.4-0.2,0.4c-0.1,0.1-0.2,0.1-0.4,0.1H18.7z M32.6,21.9
		c-0.6,0-1.1-0.1-1.7-0.2s-1-0.3-1.2-0.4c-0.2-0.1-0.3-0.2-0.3-0.3c0-0.1-0.1-0.2-0.1-0.3v-0.5c0-0.2,0.1-0.3,0.2-0.3
		c0.1,0,0.1,0,0.2,0c0.1,0,0.2,0.1,0.3,0.1c0.4,0.2,0.8,0.3,1.2,0.4c0.4,0.1,0.9,0.1,1.3,0.1c0.7,0,1.2-0.1,1.6-0.4
		c0.4-0.2,0.6-0.6,0.6-1c0-0.3-0.1-0.5-0.3-0.8c-0.2-0.2-0.6-0.4-1.1-0.6l-1.6-0.5c-0.8-0.2-1.4-0.6-1.7-1.1c-0.4-0.5-0.5-1-0.5-1.6
		c0-0.5,0.1-0.9,0.3-1.2c0.2-0.3,0.5-0.6,0.8-0.9c0.3-0.2,0.7-0.4,1.1-0.6s0.9-0.2,1.4-0.2c0.2,0,0.5,0,0.7,0c0.2,0,0.5,0.1,0.7,0.1
		c0.2,0.1,0.4,0.1,0.6,0.2s0.3,0.1,0.5,0.2c0.2,0.1,0.3,0.2,0.3,0.3c0.1,0.1,0.1,0.2,0.1,0.4v0.5c0,0.2-0.1,0.3-0.2,0.3
		c-0.1,0-0.2,0-0.4-0.1c-0.6-0.3-1.3-0.4-2.1-0.4c-0.6,0-1.1,0.1-1.4,0.3c-0.3,0.2-0.5,0.5-0.5,1c0,0.3,0.1,0.6,0.3,0.8
		c0.2,0.2,0.6,0.4,1.2,0.6l1.5,0.5c0.8,0.2,1.3,0.6,1.7,1c0.3,0.4,0.5,0.9,0.5,1.5c0,0.5-0.1,0.9-0.3,1.2c-0.2,0.4-0.5,0.7-0.8,0.9
		c-0.3,0.3-0.7,0.5-1.2,0.6C33.6,21.9,33.1,21.9,32.6,21.9z"/>
	<g>
		<path class="st3" d="M34.6,27.2c-3.5,2.6-8.7,4-13.1,4c-6.2,0-11.8-2.3-16-6.1c-0.3-0.3,0-0.7,0.4-0.5c4.6,2.6,10.2,4.3,16,4.3
			c3.9,0,8.3-0.8,12.2-2.5C34.7,26.1,35.2,26.7,34.6,27.2z"/>
		<path class="st3" d="M36.1,25.5c-0.5-0.6-3-0.3-4.1-0.1c-0.3,0-0.4-0.3-0.1-0.5c2-1.4,5.4-1,5.7-0.5c0.4,0.5-0.1,3.8-2,5.4
			c-0.3,0.2-0.6,0.1-0.4-0.2C35.6,28.5,36.5,26.1,36.1,25.5z"/>
	</g>
</g>
</svg>
