<?xml version="1.0" encoding="utf-8"?>
<!-- Generator: Adobe Illustrator 24.0.1, SVG Export Plug-In . SVG Version: 6.00 Build 0)  -->
<svg version="1.1" id="Layer_1" xmlns="http://www.w3.org/2000/svg" xmlns:xlink="http://www.w3.org/1999/xlink" x="0px" y="0px"
	 viewBox="0 0 43 43" style="enable-background:new 0 0 43 43;" xml:space="preserve">
<style type="text/css">
	.st0{clip-path:url(#SVGID_2_);}
	.st1{fill:#16BCEF;}
	.st2{fill:url(#SVGID_3_);}
	.st3{fill:#0078D4;}
	.st4{fill:#FFFFFF;}
</style>
<g>
	<defs>
		<rect id="SVGID_1_" width="43" height="43"/>
	</defs>
	<clipPath id="SVGID_2_">
		<use xlink:href="#SVGID_1_"  style="overflow:visible;"/>
	</clipPath>
	<g class="st0">
		<path class="st1" d="M43,21.5c0,4.3-1.3,8.4-3.6,12c-2.4,3.5-5.7,6.3-9.7,7.9c-3.9,1.6-8.3,2.1-12.4,1.2c-4.2-0.8-8-2.9-11-5.9
			c-3-3-5.1-6.8-5.9-11c-0.8-4.2-0.4-8.5,1.2-12.4C3.3,9.4,6,6,9.6,3.6C13.1,1.3,17.2,0,21.5,0c5.7,0,11.2,2.3,15.2,6.3
			C40.7,10.4,43,15.8,43,21.5L43,21.5z"/>
	</g>
</g>
<g>
	
		<linearGradient id="SVGID_3_" gradientUnits="userSpaceOnUse" x1="-1169.5406" y1="225.0724" x2="-1174.8762" y2="240.8353" gradientTransform="matrix(1.5625 0 0 1.5625 1847.3125 -342.0625)">
		<stop  offset="0" style="stop-color:#114A8B"/>
		<stop  offset="1" style="stop-color:#0669BC"/>
	</linearGradient>
	<path class="st2" d="M17,7.7h8l-8.3,24.7c-0.2,0.5-0.7,0.9-1.2,0.9H9.2c-0.7,0-1.3-0.6-1.3-1.3c0-0.1,0-0.3,0.1-0.4l7.8-23
		C15.9,8.1,16.4,7.7,17,7.7L17,7.7z"/>
	<path class="st3" d="M28.6,24.3H15.9c-0.3,0-0.6,0.3-0.6,0.6c0,0.2,0.1,0.3,0.2,0.4l8.2,7.6c0.2,0.2,0.6,0.3,0.9,0.3h7.2L28.6,24.3
		z"/>
	<path class="st4" d="M17,7.7c-0.6,0-1,0.4-1.2,0.9L8,31.6c-0.2,0.7,0.1,1.4,0.8,1.6c0.1,0.1,0.3,0.1,0.4,0.1h6.4
		c0.5-0.1,0.9-0.4,1.1-0.9l1.5-4.6l5.5,5.2c0.2,0.2,0.5,0.3,0.8,0.3h7.2l-3.1-9l-9.2,0L25,7.7H17z"/>
	<path class="st4" d="M27.2,8.6c-0.2-0.5-0.7-0.9-1.2-0.9h-8.9c0.5,0,1,0.3,1.2,0.9l7.8,23c0.2,0.7-0.1,1.4-0.8,1.6
		c-0.1,0-0.3,0.1-0.4,0.1h8.9c0.7,0,1.3-0.6,1.3-1.3c0-0.1,0-0.3-0.1-0.4L27.2,8.6z"/>
</g>
</svg>
