<?xml version="1.0" encoding="utf-8"?>
<!-- Generator: Adobe Illustrator 24.0.1, SVG Export Plug-In . SVG Version: 6.00 Build 0)  -->
<svg version="1.1" id="Layer_1" xmlns="http://www.w3.org/2000/svg" xmlns:xlink="http://www.w3.org/1999/xlink" x="0px" y="0px"
	 viewBox="0 0 43 43" style="enable-background:new 0 0 43 43;" xml:space="preserve">
<style type="text/css">
	.st0{clip-path:url(#SVGID_2_);}
	.st1{fill:#812A7A;}
	.st2{fill:#FFFFFF;}
</style>
<g>
	<g>
		<defs>
			<rect id="SVGID_1_" width="43" height="43"/>
		</defs>
		<clipPath id="SVGID_2_">
			<use xlink:href="#SVGID_1_"  style="overflow:visible;"/>
		</clipPath>
		<g class="st0">
			<path class="st1" d="M43,21.5c0,4.3-1.3,8.4-3.6,11.9c-2.4,3.5-5.7,6.3-9.6,7.9s-8.3,2.1-12.4,1.2c-4.2-0.8-8-2.9-11-5.9
				s-5.1-6.8-5.9-11s-0.4-8.5,1.2-12.4S6,6,9.6,3.6C13.1,1.3,17.2,0,21.5,0c5.7,0,11.2,2.3,15.2,6.3S43,15.8,43,21.5z"/>
			<path class="st1" d="M26.1,21L26.1,21L26.1,21z"/>
		</g>
	</g>
</g>
<g>
	<rect x="19.8" y="10.2" class="st2" width="3.2" height="3.2"/>
	<rect x="19.8" y="14.2" class="st2" width="3.2" height="3.2"/>
	<rect x="19.8" y="18.2" class="st2" width="3.2" height="3.2"/>
	<rect x="16" y="14.2" class="st2" width="3.2" height="3.2"/>
	<rect x="16" y="18.2" class="st2" width="3.2" height="3.2"/>
	<rect x="12.1" y="14.2" class="st2" width="3.2" height="3.2"/>
	<rect x="12.1" y="18.2" class="st2" width="3.2" height="3.2"/>
	<rect x="8.3" y="18.2" class="st2" width="3.2" height="3.2"/>
	<rect x="23.7" y="18.2" class="st2" width="3.2" height="3.2"/>
	<path class="st2" d="M16.9,32.8C5.2,32.8,6.6,22.4,6.6,22.4s16.2,0,19.5,0s4.4-1,4.4-1s-1.9-2.4,0.3-5.3c2.5,1.4,2.4,3.5,2.4,3.5
		s2.5-0.8,4,0.6c-0.9,2.8-4.7,2.6-4.7,2.6S29,32.8,16.9,32.8z"/>
</g>
</svg>
