<?xml version="1.0" encoding="utf-8"?>
<!-- Generator: Adobe Illustrator 24.0.1, SVG Export Plug-In . SVG Version: 6.00 Build 0)  -->
<svg version="1.1" id="Layer_1" xmlns="http://www.w3.org/2000/svg" xmlns:xlink="http://www.w3.org/1999/xlink" x="0px" y="0px"
	 viewBox="0 0 43 43" style="enable-background:new 0 0 43 43;" xml:space="preserve">
<style type="text/css">
	.st0{clip-path:url(#SVGID_2_);}
	.st1{fill:#87C346;}
	.st2{fill:#FFFFFF;stroke:#87C346;stroke-width:1.5;stroke-linecap:round;stroke-linejoin:round;}
</style>
<g>
	<defs>
		<rect id="SVGID_1_" width="43" height="43"/>
	</defs>
	<clipPath id="SVGID_2_">
		<use xlink:href="#SVGID_1_"  style="overflow:visible;"/>
	</clipPath>
	<g class="st0">
		<path class="st1" d="M43,21.5c0,4.3-1.3,8.4-3.6,11.9c-2.4,3.5-5.7,6.3-9.6,7.9s-8.3,2.1-12.4,1.2c-4.2-0.8-8-2.9-11-5.9
			c-3-3-5.1-6.8-5.9-11c-0.8-4.2-0.4-8.5,1.2-12.4C3.3,9.3,6,6,9.6,3.6C13.1,1.3,17.2,0,21.5,0c5.7,0,11.2,2.3,15.2,6.3
			C40.7,10.3,43,15.8,43,21.5z"/>
		<path class="st1" d="M26.1,21L26.1,21L26.1,21z"/>
	</g>
</g>
<g id="Programming-Apps-Websites__x2F__Databases__x2F__database-2">
	<g id="Group_115">
		<g id="database-2">
			<path id="Shape_622_1_" class="st2" d="M11.5,24.9v6c0,2.2,4.5,4,10,4s10-1.8,10-4v-6"/>
			<path id="Shape_622" class="st2" d="M11.5,18.6v6c0,2.2,4.5,4,10,4s10-1.8,10-4v-6"/>
			<path id="Shape_621" class="st2" d="M11.5,12.6v6c0,2.2,4.5,4,10,4s10-1.8,10-4v-6"/>
			<path id="Oval_29" class="st2" d="M21.5,16.6c5.5,0,10-1.8,10-4s-4.5-4-10-4c-5.5,0-10,1.8-10,4S16,16.6,21.5,16.6z"/>
		</g>
	</g>
</g>
</svg>
