<svg xmlns="http://www.w3.org/2000/svg" viewBox="0 0 486 411.76"><defs><style>.cls-1{fill:#0062fe;}</style></defs><g id="Layer_2" data-name="Layer 2"><g id="Layer_1-2" data-name="Layer 1"><path class="cls-1" d="M366.37,150.61,244,76,367,0,485,75,367.62,150.6A1.18,1.18,0,0,1,366.37,150.61Z"/><path class="cls-1" d="M122.37,151.59,0,77,123,1,241,76l-117.38,75.6A1.2,1.2,0,0,1,122.37,151.59Z"/><path class="cls-1" d="M122.37,307.59,0,233l123-76,118,75-117.38,75.6A1.2,1.2,0,0,1,122.37,307.59Z"/><path class="cls-1" d="M367.37,306.59,245,232l123-76,118,75-117.38,75.6A1.2,1.2,0,0,1,367.37,306.59Z"/><path class="cls-1" d="M246.37,411.59,124,337l123-76,118,75-117.38,75.6A1.2,1.2,0,0,1,246.37,411.59Z"/></g></g></svg>