<?xml version="1.0" encoding="utf-8"?>
<!-- Generator: Adobe Illustrator 24.0.1, SVG Export Plug-In . SVG Version: 6.00 Build 0)  -->
<svg version="1.1" id="Layer_1" xmlns="http://www.w3.org/2000/svg" xmlns:xlink="http://www.w3.org/1999/xlink" x="0px" y="0px"
	 viewBox="0 0 43 43" style="enable-background:new 0 0 43 43;" xml:space="preserve">
<style type="text/css">
	.st0{clip-path:url(#SVGID_2_);}
	.st1{fill:#4384F0;}
	.st2{fill:#FFFFFF;}
</style>
<g>
	<defs>
		<rect id="SVGID_1_" width="43" height="43"/>
	</defs>
	<clipPath id="SVGID_2_">
		<use xlink:href="#SVGID_1_"  style="overflow:visible;"/>
	</clipPath>
	<g class="st0">
		<path class="st1" d="M43,21.5c0,4.3-1.3,8.4-3.6,11.9c-2.4,3.5-5.7,6.3-9.6,7.9s-8.3,2.1-12.4,1.2c-4.2-0.8-8-2.9-11-5.9
			c-3-3-5.1-6.8-5.9-11c-0.8-4.2-0.4-8.5,1.2-12.4C3.3,9.3,6,6,9.6,3.6C13.1,1.3,17.2,0,21.5,0c5.7,0,11.2,2.3,15.2,6.3
			C40.7,10.3,43,15.8,43,21.5z"/>
		<path class="st1" d="M26.1,21L26.1,21L26.1,21z"/>
	</g>
</g>
<g>
	<path class="st2" d="M25.9,14.6h1l2.8-2.8l0.1-1.2c-5.3-4.7-13.4-4.2-18,1.1c-1.3,1.5-2.2,3.2-2.8,5.1c0.3-0.1,0.7-0.2,1-0.1
		l5.7-0.9c0,0,0.3-0.5,0.4-0.4C18.7,12.5,23,12.2,25.9,14.6L25.9,14.6z"/>
	<path class="st2" d="M33.8,16.8c-0.7-2.4-2-4.6-3.9-6.2l-4,4c1.7,1.4,2.6,3.5,2.6,5.6v0.7c2,0,3.6,1.6,3.6,3.6S30.5,28,28.5,28
		h-7.1l-0.7,0.7V33l0.7,0.7h7.1c5.1,0,9.3-4.1,9.3-9.2C37.9,21.4,36.4,18.5,33.8,16.8z"/>
	<path class="st2" d="M14.3,33.6h7.1v-5.7h-7.1c-0.5,0-1-0.1-1.5-0.3l-1,0.3L9,30.8l-0.2,1C10.4,33,12.3,33.6,14.3,33.6z"/>
	<path class="st2" d="M14.3,15.2c-5.1,0-9.2,4.2-9.2,9.3c0,2.8,1.3,5.5,3.6,7.3l4.1-4.1c-1.8-0.8-2.6-2.9-1.8-4.7
		c0.8-1.8,2.9-2.6,4.7-1.8c0.8,0.4,1.4,1,1.8,1.8l4.1-4.1C19.9,16.5,17.2,15.2,14.3,15.2z"/>
</g>
</svg>
