<?xml version="1.0" encoding="utf-8"?>
<!-- Generator: Adobe Illustrator 24.0.1, SVG Export Plug-In . SVG Version: 6.00 Build 0)  -->
<svg version="1.1" id="Layer_1" xmlns="http://www.w3.org/2000/svg" xmlns:xlink="http://www.w3.org/1999/xlink" x="0px" y="0px"
	 viewBox="0 0 43 43" style="enable-background:new 0 0 43 43;" xml:space="preserve">
<style type="text/css">
	.st0{clip-path:url(#SVGID_2_);}
	.st1{fill:#6364AA;}
	.st2{fill:#FFFFFF;}
</style>
<g>
	<g>
		<defs>
			<rect id="SVGID_1_" width="43" height="43"/>
		</defs>
		<clipPath id="SVGID_2_">
			<use xlink:href="#SVGID_1_"  style="overflow:visible;"/>
		</clipPath>
		<g class="st0">
			<path class="st1" d="M43,21.5c0,4.3-1.3,8.4-3.6,11.9c-2.4,3.5-5.7,6.3-9.6,7.9s-8.3,2.1-12.4,1.2c-4.2-0.8-8-2.9-11-5.9
				s-5.1-6.8-5.9-11s-0.4-8.5,1.2-12.4S6,6,9.6,3.6C13.1,1.3,17.2,0,21.5,0c5.7,0,11.2,2.3,15.2,6.3S43,15.8,43,21.5z"/>
			<path class="st2" d="M26.1,21L26.1,21L26.1,21z"/>
		</g>
	</g>
</g>
<g>
	<path class="st2" d="M30,19.9v-1.4c0-0.2-0.1-0.3-0.2-0.4l-4.6-2c-0.1-0.1-0.3,0-0.4,0c-0.1,0.1-0.2,0.2-0.2,0.3v1.4l-4.1-1.8
		c-0.1-0.1-0.3,0-0.4,0c-0.1,0.1-0.2,0.2-0.2,0.3v1.4l-4.1-1.8c-0.1-0.1-0.3,0-0.4,0c-0.1,0.1-0.2,0.2-0.2,0.3v1.9h-2L13,8.6
		c0-0.2-0.2-0.4-0.4-0.4h-2.2c-0.2,0-0.4,0.2-0.4,0.4l-0.4,9.7H8.6c-0.2,0-0.4,0.2-0.4,0.4v9c0,0.2,0.2,0.4,0.4,0.4h12.7 M13.5,23.8
		c0,0.2-0.1,0.3-0.3,0.3h-2.2c-0.2,0-0.3-0.1-0.3-0.3v-2.2c0-0.2,0.1-0.3,0.3-0.3h2.2c0.2,0,0.3,0.1,0.3,0.3V23.8z M18,23.8
		c0,0.2-0.1,0.3-0.3,0.3h-2.1c-0.2,0-0.3-0.1-0.3-0.3v-2.2c0-0.2,0.1-0.3,0.3-0.3h2.1c0.2,0,0.3,0.1,0.3,0.3V23.8z"/>
</g>
<path class="st2" d="M21.3,28.1h3v-1.8l1-0.3l-0.5-1l2-2l1,0.5l0.3-1H30v-3.6"/>
<g>
	<g>
		<path class="st2" d="M33.8,28.4v-1.7l-1.3-0.4l0-0.1l0.6-1.2l-1.2-1.2l-1.2,0.6l-0.1,0l-0.4-1.3h-1.7l-0.4,1.3l-0.1,0l-1.2-0.6
			L25.6,25l0.6,1.2l0,0.1l-1.3,0.4v1.7l1.3,0.4l0,0.1l-0.6,1.2l1.2,1.2l1.2-0.6l0.1,0l0.4,1.3h1.7l0.4-1.3l0.1,0l1.2,0.6l1.2-1.2
			l-0.6-1.2l0-0.1L33.8,28.4z M29.3,29.3c-1,0-1.7-0.8-1.7-1.7c0-1,0.8-1.7,1.7-1.7c1,0,1.7,0.8,1.7,1.7
			C31.1,28.5,30.3,29.3,29.3,29.3z"/>
	</g>
</g>
<g>
	<g>
		<path class="st1" d="M26.2,22.5v-1.2l-0.9-0.3l0-0.1l0.4-0.8l-0.8-0.8l-0.8,0.4l-0.1,0l-0.3-0.9h-1.2l-0.3,0.9l-0.1,0l-0.8-0.4
			l-0.8,0.8L21,21l0,0.1l-0.9,0.3v1.2l0.9,0.3l0,0.1l-0.4,0.8l0.8,0.8l0.8-0.4l0.1,0l0.3,0.9h1.2l0.3-0.9l0.1,0l0.8,0.4l0.8-0.8
			l-0.4-0.8l0-0.1L26.2,22.5z M23.2,23.1c-0.7,0-1.2-0.5-1.2-1.2c0-0.7,0.5-1.2,1.2-1.2c0.7,0,1.2,0.5,1.2,1.2
			C24.4,22.6,23.9,23.1,23.2,23.1z"/>
	</g>
</g>
</svg>
