<?xml version="1.0" encoding="utf-8"?>
<!-- Generator: Adobe Illustrator 24.0.1, SVG Export Plug-In . SVG Version: 6.00 Build 0)  -->
<svg version="1.1" id="Layer_1" xmlns="http://www.w3.org/2000/svg" xmlns:xlink="http://www.w3.org/1999/xlink" x="0px" y="0px"
	 viewBox="0 0 43 43" style="enable-background:new 0 0 43 43;" xml:space="preserve">
<style type="text/css">
	.st0{clip-path:url(#SVGID_2_);}
	.st1{fill:#0B4F9C;}
	.st2{fill-rule:evenodd;clip-rule:evenodd;fill:#FFFFFF;}
</style>
<g>
	<g>
		<defs>
			<rect id="SVGID_1_" width="43" height="43"/>
		</defs>
		<clipPath id="SVGID_2_">
			<use xlink:href="#SVGID_1_"  style="overflow:visible;"/>
		</clipPath>
		<g class="st0">
			<path class="st1" d="M43,21.5c0,4.3-1.3,8.4-3.6,11.9c-2.4,3.5-5.7,6.3-9.6,7.9s-8.3,2.1-12.4,1.2c-4.2-0.8-8-2.9-11-5.9
				s-5.1-6.8-5.9-11s-0.4-8.5,1.2-12.4S6,6,9.6,3.6C13.1,1.3,17.2,0,21.5,0c5.7,0,11.2,2.3,15.2,6.3S43,15.8,43,21.5z"/>
			<path class="st1" d="M26.1,21L26.1,21L26.1,21z"/>
		</g>
	</g>
</g>
<g>
	<path class="st2" d="M16.9,10c-0.1-3.6,1.3-5.1,4.2-5.2c2.9-0.1,4.7,1.5,5,3.5c0.4,2,0.2,4.6,0.9,6c0.7,1.4,1.2,2.4,2.5,4
		c1.3,1.6,2,3.2,2.4,5.1c0.4,1.9,0.6,2.8-0.4,3.8c-0.9,1-2.6,2.6-3.9,0.8C27,27,26.9,25.9,28,25.7c0.7-0.2,1.2-0.1,1.7,0.2
		c0.5,0.3,0.6,0.1,0-0.3c-0.6-0.5-0.7,0-0.5-0.8c0.2-0.7,0.5-2-0.1-3.5c-0.3-0.7-1.2-2.5-2-2.9c-0.1,0-0.3-0.1-0.1,0.1
		c0.2,0.3,1.4,2.1,1.8,3.1c0.4,1.1,0.4,2.2,0.2,2.9c-0.2,0.7-0.5,1-0.9,1s-0.8,0.2-0.8-0.7c0-0.9,0.1-2.3-0.4-3.5
		c-0.5-1.2-1.1-2-1.2-2.5c-0.1-0.5-0.4-1.8-1-2.6C24,15.3,23.7,14.9,24,14c0.3-0.9,0.1-1.1-0.5-1.3c-0.6-0.2-1.5-0.4-1.7-0.9
		c-0.2-0.4-0.1-1.3,0.4-1.5c0.5-0.2,1.3,0.1,1.3,0.7c0,0.6-0.3,0.9-0.2,1c0.1,0.1,0.5,0.3,0.7,0.1c0.2-0.2,0.3-1,0.1-1.6
		c-0.2-0.7-0.3-1.2-1.1-1.3c-0.8-0.2-1.1-0.1-1.5,0.4c-0.4,0.5-0.5,1.2-0.4,1.8c0.1,0.5-0.1,0.2-0.5,0.2c-0.4,0-0.3-0.1-0.6,0
		c-0.4,0-0.2-0.2-0.3-0.6c0-0.4-0.1-1.2-0.6-1.5c-0.5-0.3-1.5,0.1-1.5,1.4c0,1.3,0.5,1.9,0.7,1.5c0.3-0.5,0.1-0.2-0.1-0.4
		c-0.3-0.2-0.4-1.1-0.2-1.3c0.3-0.3,0.6-0.3,0.8-0.1c0.2,0.2,0.5,0.7,0.4,1c-0.1,0.3-0.1,0.4-0.4,0.6c-0.3,0.2-0.5,0.4-0.9,0.7
		c-0.4,0.3-0.5,0.9-0.2,1c0.3,0.2,0.3,0.1,0.6,0.5c0.3,0.4,0.7,0.6,1.8,0.4c1.1-0.2,1.5-0.4,2.4-0.7c0.6-0.2,0.4-0.2,0.6-0.4
		c0.2-0.2,0.5,0.1,0.2,0.3c-0.3,0.2-1,0.4-1.5,0.6c-0.5,0.2-1.1,0.7-2.2,0.7c-1.1-0.1-0.3,0-0.7-0.1c-0.3,0-0.5,0-0.1,0.3
		c0.4,0.3,0.3,0.3,0.7,0.4c0.3,0.1,0.7,0.1,1.2-0.1c0.5-0.2,1.8-0.7,2.1-1c0.4-0.3,0.7,0.1,0.3,0.3c-0.4,0.3-0.5,0.2-0.9,0.4
		c-0.4,0.2-1,0.6-1.5,1c-0.4,0.4-0.5,0.4-1.1,0.5c-0.5,0-0.9-0.5-1.1-0.8c-0.2-0.3-0.2-0.4-0.5-0.7c-0.3-0.3-0.3-0.2-0.4,0.1
		c-0.1,0.3-0.4,1.2-0.8,1.8c-0.3,0.6-0.4,1.3-0.3,1.8c0.1,0.5-0.1,0.5-0.5,1.1c-0.4,0.6-1,2.3-1.2,2.8c-0.1,0.5-0.2,1.7-0.2,2.3
		c0.1,0.7-0.1,0.8-0.6,0.3c-0.5-0.4-0.6-0.9-0.6-1.6c0-0.6,0.1-1,0.2-1.2c0.1-0.2,0-0.3-0.1-0.1c-0.3,0.6-0.3,1.5-0.3,1.9
		c0.1,0.3,0.1,0.9,1,1.8c0.9,0.8,2.1,1.9,3.2,2.7c1,0.8,1.4,1.7-0.1,2.4c1,1.3,1.5,2,1.1,2.9c0.9-0.5,0.5-1.7,0.1-2
		c-0.4-0.3-0.2-0.6,0.2-0.3c0.4,0.2,0.5,0.7,1.9,0.7c1.4,0,3-0.2,3.9-1.4c0.9-1.3,1-0.2,0.8,0.5c-0.2,0.7-0.7,2.4,0.1,2.2
		c0.1-1,0.3-1.8,0.3-2.9c0-1,0.1-1.6,0-3.1c-0.1-1.5,0.6-1.6,1.2-1.6c0.1,0,0.1,0.3,0.1,0.4c0.1,0.3-1,0.1-1,1.2c0,1.1,0,1,0.2,1.9
		c0.2,1,0.2,1.3,0.1,2.3c-0.2,1.1-0.3,1.6,0.4,2.3c0.7,0.7,1.8,0.5,2.3,0.1c0.5-0.4,1.6-1.4,2.5-1.7c0.9-0.3,1.9-0.5,2.5-1.1
		c0.5-0.5,0.4-0.9-0.2-1.2c-0.5-0.3-1.1-0.2-1.5-0.6c-0.4-0.5-0.6-1.5-0.5-2.1c0.2-0.5,0.3-0.3,0.3,0.1c0,0.4,0,0.8,0.4,1.3
		c0.4,0.5,0.8,0.7,1.4,1.1c0.6,0.4,1,1,0.2,1.6c-0.8,0.5-1.2,0.9-1.9,1.1c-0.7,0.3-1.7,0.9-2.4,1.5c-0.7,0.7-1,1.2-2.3,1.2
		c-1.3,0-1.9-0.3-2.2-1.1c-0.3-0.5-0.4-0.4-1-0.5c-0.6,0-2.6-0.1-4.2,0c-1.6,0-2.1,0.3-2.8,0.9c-0.7,0.6-1,1-2.3,0.6
		c-1.3-0.4-2-0.9-4-1.3c-2-0.4-0.9-0.2-2.1-0.5c-1.2-0.3-1.1-0.8-1-1.3c0.2-0.5,0.5-1.2,0.2-2.2c-0.3-1-0.2-2,0.7-2
		c0.9,0,1.8,0.2,2.1-1c0.4-1.2,0.5-0.3,0.4,0.1c-0.1,0.3-0.2,1.2-1,1.3c-0.8,0.1-1-0.1-1.5-0.1c-0.5,0-0.7,0.3-0.4,0.9
		c0.3,0.6,0.6,1.2,0.5,1.7c-0.1,0.5-0.1,0.7-0.5,1.2c-0.4,0.5-0.3,0.7,0.3,0.9c0.7,0.2,1.8,0.5,2.9,0.7c1.1,0.3,1.2,0.3,3.1,0.8
		c1.9,0.5,2.4-0.4,2.6-1.5c0.2-1.1-0.6-2.1-1.3-3.1c-0.7-1-1.4-2.2-2.3-3.3c-0.9-1.1-1.4-1.2-1.9-0.9c-0.4,0.2-0.5,0.2-0.5-0.4
		c0-0.6-0.1-1,0.4-1.9c0.5-0.9,0.9-1.9,1.5-3.3c0.5-1.5,1-1.8,1.9-3.1c0.9-1.3,0.5-0.8,1.1-1.6c0.6-0.9,0.4-0.7,0.4-2.1
		C17,12.6,16.9,11.8,16.9,10L16.9,10z M19.7,11.9c-0.2,0-0.4,0-0.6,0.1c-0.1,0.1,0,0.2,0.1,0.2c0.1,0.1,0.2-0.1,0.2-0.2
		c0,0,0-0.1,0.1-0.1C19.6,12,19.7,12,19.7,11.9C19.8,12,19.7,11.9,19.7,11.9L19.7,11.9z M20.7,12c0.1,0.1,0.2,0.1,0.3,0.2
		c0.1,0,0.2,0.1,0.2,0C21.3,11.8,20.9,11.9,20.7,12C20.7,11.9,20.6,11.9,20.7,12L20.7,12z M22.6,10.7c0.2,0,0.4,0.3,0.4,0.7
		c0,0.1,0.2,0.1,0.2,0c0.1-0.1,0-0.3,0-0.5c0-0.1-0.2-0.3-0.3-0.4c-0.1,0-0.2-0.1-0.3,0C22.5,10.5,22.4,10.7,22.6,10.7L22.6,10.7z
		 M18.7,10.6c-0.2,0-0.1,0.1-0.1,0.2c0.2,0.1,0.2,0.4,0.3,0.6c0,0.1,0.1,0,0.1,0c0.1-0.2,0-0.4-0.1-0.6
		C18.9,10.8,18.8,10.7,18.7,10.6C18.7,10.6,18.7,10.6,18.7,10.6L18.7,10.6z"/>
</g>
</svg>
