<?xml version="1.0" encoding="utf-8"?>
<!-- Generator: Adobe Illustrator 24.0.1, SVG Export Plug-In . SVG Version: 6.00 Build 0)  -->
<svg version="1.1" id="Layer_1" xmlns="http://www.w3.org/2000/svg" xmlns:xlink="http://www.w3.org/1999/xlink" x="0px" y="0px"
	 viewBox="0 0 43 43" style="enable-background:new 0 0 43 43;" xml:space="preserve">
<style type="text/css">
	.st0{clip-path:url(#SVGID_2_);}
	.st1{fill:#9B9B9B;}
	.st2{fill:#FFFFFF;}
</style>
<g>
	<defs>
		<rect id="SVGID_1_" width="43" height="43"/>
	</defs>
	<clipPath id="SVGID_2_">
		<use xlink:href="#SVGID_1_"  style="overflow:visible;"/>
	</clipPath>
	<g class="st0">
		<path class="st1" d="M43,21.5c0,4.3-1.3,8.4-3.6,11.9c-2.4,3.5-5.7,6.3-9.6,7.9s-8.3,2.1-12.4,1.2c-4.2-0.8-8-2.9-11-5.9
			c-3-3-5.1-6.8-5.9-11c-0.8-4.2-0.4-8.5,1.2-12.4C3.3,9.3,6,6,9.6,3.6C13.1,1.3,17.2,0,21.5,0c5.7,0,11.2,2.3,15.2,6.3
			C40.7,10.3,43,15.8,43,21.5z"/>
		<path class="st1" d="M26.1,21L26.1,21L26.1,21z"/>
	</g>
</g>
<path class="st2" d="M28.5,32c-1.4,1.3-2.8,1.1-4.3,0.5c-1.5-0.6-2.9-0.7-4.5,0c-2,0.9-3,0.6-4.2-0.5c-6.8-7-5.8-17.6,1.9-18
	c1.9,0.1,3.2,1,4.3,1.1c1.6-0.3,3.2-1.3,4.9-1.2c2.1,0.2,3.7,1,4.7,2.5C27,19,28.1,24.7,32,26.3C31.2,28.4,30.2,30.5,28.5,32
	L28.5,32z M21.5,13.9c-0.2-3.1,2.3-5.6,5.2-5.9C27.1,11.6,23.5,14.3,21.5,13.9z"/>
</svg>
