<?xml version="1.0" encoding="utf-8"?>
<!-- Generator: Adobe Illustrator 24.0.1, SVG Export Plug-In . SVG Version: 6.00 Build 0)  -->
<svg version="1.1" id="Layer_1" xmlns="http://www.w3.org/2000/svg" xmlns:xlink="http://www.w3.org/1999/xlink" x="0px" y="0px"
	 viewBox="0 0 43 43" style="enable-background:new 0 0 43 43;" xml:space="preserve">
<style type="text/css">
	.st0{clip-path:url(#SVGID_2_);}
	.st1{fill:#1D9A34;}
	.st2{fill:#FFFFFF;}
</style>
<g>
	<g>
		<g>
			<defs>
				<rect id="SVGID_1_" width="43" height="43"/>
			</defs>
			<clipPath id="SVGID_2_">
				<use xlink:href="#SVGID_1_"  style="overflow:visible;"/>
			</clipPath>
			<g class="st0">
				<path class="st1" d="M43,21.5c0,4.3-1.3,8.4-3.6,11.9c-2.4,3.5-5.7,6.3-9.6,7.9s-8.3,2.1-12.4,1.2c-4.2-0.8-8-2.9-11-5.9
					s-5.1-6.8-5.9-11s-0.4-8.5,1.2-12.4S6,6,9.6,3.6C13.1,1.3,17.2,0,21.5,0c5.7,0,11.2,2.3,15.2,6.3S43,15.8,43,21.5z"/>
				<path class="st2" d="M26.1,21L26.1,21L26.1,21z"/>
			</g>
		</g>
	</g>
</g>
<g id="g12">
	<path id="path4" class="st2" d="M12.4,16.7h1.3v5.5c0,1-0.1,1.7-0.3,2.3c-0.2,0.6-0.6,1-1.2,1.4c-0.6,0.4-1.3,0.5-2.2,0.5
		c-0.9,0-1.6-0.2-2.2-0.5c-0.6-0.3-1-0.8-1.2-1.3c-0.2-0.6-0.4-1.4-0.4-2.4v-5.5h1.3v5.5c0,0.8,0.1,1.4,0.2,1.8
		c0.2,0.4,0.4,0.7,0.8,0.9c0.4,0.2,0.8,0.3,1.4,0.3c0.9,0,1.6-0.2,2-0.6c0.4-0.4,0.6-1.2,0.6-2.4V16.7z"/>
	<path id="path6" class="st2" d="M15.7,26.2v-9.5H17l5,7.5v-7.5h1.2v9.5H22l-5-7.5v7.5H15.7z"/>
	<path id="path8" class="st2" d="M25.6,26.2v-9.5h1.3v9.5H25.6z"/>
	<path id="path10" class="st2" d="M28.1,26.2l3.7-5l-3.3-4.6H30l1.7,2.4c0.4,0.5,0.6,0.9,0.8,1.2c0.2-0.3,0.5-0.7,0.8-1.1l1.9-2.5
		h1.4l-3.3,4.5l3.6,5h-1.6l-2.4-3.4c-0.1-0.2-0.3-0.4-0.4-0.6c-0.2,0.3-0.4,0.6-0.5,0.7l-2.4,3.3H28.1z"/>
</g>
</svg>
