<svg id="Layer_1" data-name="Layer 1" xmlns="http://www.w3.org/2000/svg" viewBox="0 0 1399.84 1185.91"><defs><style>.cls-1,.cls-2,.cls-3,.cls-6{fill:#e6e7e8;}.cls-2{opacity:0.54;}.cls-3{opacity:0.11;}.cls-4{fill:none;stroke:#bcbec0;}.cls-4,.cls-6{stroke-miterlimit:10;}.cls-5{font-size:45.29px;fill:#fff;font-family:MyriadPro-Regular, Myriad Pro;}.cls-6{stroke:#939598;}.cls-7{opacity:0.51;}.cls-8{opacity:0.37;}.cls-9{opacity:0.72;}</style></defs><title>workflows</title><path class="cls-1" d="M1379,375.47,1024.7,269.18a26.44,26.44,0,0,0-15.21,0L655.17,375.47a26.47,26.47,0,0,0-18.86,25.35V790.56c0,50.7,20.52,102.59,61,154.24,30.91,39.45,73.67,79.06,127.11,117.74,89.75,65,178.14,104.83,181.86,106.49a26.45,26.45,0,0,0,21.62,0c3.72-1.66,92.11-41.52,181.86-106.49,53.43-38.68,96.2-78.29,127.11-117.74,40.47-51.65,61-103.54,61-154.24V400.82A26.47,26.47,0,0,0,1379,375.47Zm-34.07,415.09c0,89.72-90,173.84-165.53,228.61-67.7,49.11-136.36,83.95-162.32,96.47-26-12.52-94.62-47.36-162.32-96.47C779.26,964.4,689.24,880.28,689.24,790.56v-370l327.85-98.36,327.85,98.36Z" transform="translate(1.97 -98.59)"/><polygon class="cls-2" points="669.68 314.92 1019.06 209.63 1019.06 1057.6 743.66 869.79 669.68 707.6 669.68 314.92"/><path class="cls-3" d="M1362,829.07a625.08,625.08,0,0,1-105.28,148c-91.63,95.83-194.84,144.29-257,167.88q-2.38-437.87-4.78-875.74L1362,396.55Z" transform="translate(1.97 -98.59)"/><rect class="cls-1" x="834.15" y="373.2" width="42.61" height="42.61"/><rect class="cls-4" x="823.73" y="362.78" width="63.45" height="63.45"/><rect class="cls-4" x="816.18" y="355.23" width="78.56" height="78.56"/><text class="cls-5" transform="translate(843.71 409.91)">1</text><rect class="cls-1" x="732.04" y="373.2" width="42.61" height="42.61"/><rect class="cls-4" x="721.62" y="362.78" width="63.45" height="63.45"/><rect class="cls-4" x="714.07" y="355.23" width="78.56" height="78.56"/><text class="cls-5" transform="translate(741.6 409.91)">0</text><rect class="cls-1" x="1067.57" y="573.98" width="42.61" height="42.61"/><rect class="cls-4" x="1057.15" y="563.56" width="63.45" height="63.45"/><rect class="cls-4" x="1049.6" y="556" width="78.56" height="78.56"/><text class="cls-5" transform="translate(1077.13 610.69)">1</text><rect class="cls-1" x="834.15" y="573.98" width="42.61" height="42.61"/><rect class="cls-4" x="823.73" y="563.56" width="63.45" height="63.45"/><rect class="cls-4" x="816.18" y="556" width="78.56" height="78.56"/><text class="cls-5" transform="translate(843.71 610.69)">1</text><rect class="cls-1" x="1168.73" y="473.59" width="42.61" height="42.61"/><rect class="cls-4" x="1158.31" y="463.17" width="63.45" height="63.45"/><rect class="cls-4" x="1150.76" y="455.62" width="78.56" height="78.56"/><text class="cls-5" transform="translate(1178.29 510.3)">1</text><rect class="cls-1" x="1067.57" y="473.59" width="42.61" height="42.61"/><rect class="cls-4" x="1057.15" y="463.17" width="63.45" height="63.45"/><rect class="cls-4" x="1049.6" y="455.62" width="78.56" height="78.56"/><text class="cls-5" transform="translate(1077.13 510.3)">1</text><rect class="cls-1" x="1270.32" y="373.2" width="42.61" height="42.61"/><rect class="cls-4" x="1259.9" y="362.78" width="63.45" height="63.45"/><rect class="cls-4" x="1252.35" y="355.23" width="78.56" height="78.56"/><text class="cls-5" transform="translate(1279.88 409.91)">1</text><rect class="cls-1" x="1168.73" y="373.2" width="42.61" height="42.61"/><rect class="cls-4" x="1158.31" y="362.78" width="63.45" height="63.45"/><rect class="cls-4" x="1150.76" y="355.23" width="78.56" height="78.56"/><text class="cls-5" transform="translate(1178.29 409.91)">1</text><rect class="cls-1" x="1067.57" y="373.2" width="42.61" height="42.61"/><rect class="cls-4" x="1057.15" y="362.78" width="63.45" height="63.45"/><rect class="cls-4" x="1049.6" y="355.23" width="78.56" height="78.56"/><text class="cls-5" transform="translate(1077.13 409.91)">1</text><rect class="cls-1" x="937.17" y="373.2" width="42.61" height="42.61"/><rect class="cls-4" x="926.75" y="362.78" width="63.45" height="63.45"/><rect class="cls-4" x="919.2" y="355.23" width="78.56" height="78.56"/><text class="cls-5" transform="translate(946.73 409.91)">1</text><rect class="cls-1" x="937.17" y="573.98" width="42.61" height="42.61"/><rect class="cls-4" x="926.75" y="563.56" width="63.45" height="63.45"/><rect class="cls-4" x="919.2" y="556" width="78.56" height="78.56"/><text class="cls-5" transform="translate(946.73 610.69)">0</text><rect class="cls-1" x="732.04" y="573.98" width="42.61" height="42.61"/><rect class="cls-4" x="721.62" y="563.56" width="63.45" height="63.45"/><rect class="cls-4" x="714.07" y="556" width="78.56" height="78.56"/><text class="cls-5" transform="translate(741.6 610.69)">0</text><rect class="cls-1" x="1270.32" y="473.59" width="42.61" height="42.61"/><rect class="cls-4" x="1259.9" y="463.17" width="63.45" height="63.45"/><rect class="cls-4" x="1252.35" y="455.62" width="78.56" height="78.56"/><text class="cls-5" transform="translate(1279.88 510.3)">0</text><rect class="cls-1" x="938.53" y="473.59" width="42.61" height="42.61"/><rect class="cls-4" x="928.11" y="463.17" width="63.45" height="63.45"/><rect class="cls-4" x="920.55" y="455.62" width="78.56" height="78.56"/><text class="cls-5" transform="translate(948.09 510.3)">0</text><rect class="cls-1" x="834.15" y="473.59" width="42.61" height="42.61"/><rect class="cls-4" x="823.73" y="463.17" width="63.45" height="63.45"/><rect class="cls-4" x="816.18" y="455.62" width="78.56" height="78.56"/><text class="cls-5" transform="translate(843.71 510.3)">0</text><rect class="cls-1" x="732.04" y="473.59" width="42.61" height="42.61"/><rect class="cls-4" x="721.62" y="463.17" width="63.45" height="63.45"/><rect class="cls-4" x="714.07" y="455.62" width="78.56" height="78.56"/><text class="cls-5" transform="translate(741.6 510.3)">0</text><rect class="cls-1" x="1270.32" y="573.98" width="42.61" height="42.61"/><rect class="cls-4" x="1259.9" y="563.56" width="63.45" height="63.45"/><rect class="cls-4" x="1252.35" y="556" width="78.56" height="78.56"/><text class="cls-5" transform="translate(1279.88 610.69)">1</text><rect class="cls-1" x="1168.73" y="573.98" width="42.61" height="42.61"/><rect class="cls-4" x="1158.31" y="563.56" width="63.45" height="63.45"/><rect class="cls-4" x="1150.76" y="556" width="78.56" height="78.56"/><text class="cls-5" transform="translate(1178.29 610.69)">1</text><rect class="cls-1" x="1168.73" y="674.36" width="42.61" height="42.61"/><rect class="cls-4" x="1158.31" y="663.94" width="63.45" height="63.45"/><rect class="cls-4" x="1150.76" y="656.39" width="78.56" height="78.56"/><text class="cls-5" transform="translate(1178.29 711.08)">1</text><rect class="cls-1" x="1067.57" y="674.36" width="42.61" height="42.61"/><rect class="cls-4" x="1057.15" y="663.94" width="63.45" height="63.45"/><rect class="cls-4" x="1049.6" y="656.39" width="78.56" height="78.56"/><text class="cls-5" transform="translate(1077.13 711.08)">1</text><rect class="cls-1" x="1270.32" y="674.36" width="42.61" height="42.61"/><rect class="cls-4" x="1259.9" y="663.94" width="63.45" height="63.45"/><rect class="cls-4" x="1252.35" y="656.39" width="78.56" height="78.56"/><text class="cls-5" transform="translate(1279.88 711.08)">0</text><rect class="cls-1" x="938.53" y="674.36" width="42.61" height="42.61"/><rect class="cls-4" x="928.11" y="663.94" width="63.45" height="63.45"/><rect class="cls-4" x="920.55" y="656.39" width="78.56" height="78.56"/><text class="cls-5" transform="translate(948.09 711.08)">0</text><rect class="cls-1" x="834.15" y="674.36" width="42.61" height="42.61"/><rect class="cls-4" x="823.73" y="663.94" width="63.45" height="63.45"/><rect class="cls-4" x="816.18" y="656.39" width="78.56" height="78.56"/><text class="cls-5" transform="translate(843.71 711.08)">0</text><rect class="cls-1" x="732.04" y="674.36" width="42.61" height="42.61"/><rect class="cls-4" x="721.62" y="663.94" width="63.45" height="63.45"/><rect class="cls-4" x="714.07" y="656.39" width="78.56" height="78.56"/><text class="cls-5" transform="translate(741.6 711.08)">0</text><rect class="cls-6" x="520.41" y="0.5" width="14.63" height="1184.91"/><rect class="cls-6" x="506.35" y="0.5" width="14.06" height="1184.91"/><g class="cls-7"><rect class="cls-1" x="314.52" y="812.23" width="42.61" height="42.61" transform="translate(392.59 -162.03) rotate(25.44)"/><rect class="cls-4" x="304.1" y="801.82" width="63.45" height="63.45" transform="translate(392.59 -162.03) rotate(25.44)"/><rect class="cls-4" x="296.55" y="794.26" width="78.56" height="78.56" transform="translate(392.59 -162.03) rotate(25.44)"/><text class="cls-5" transform="translate(320.58 743.81) rotate(25.44)">0</text></g><g class="cls-8"><rect class="cls-1" x="117.44" y="750.1" width="42.61" height="42.61" transform="translate(273.67 -99.62) rotate(19.96)"/><rect class="cls-4" x="107.03" y="739.68" width="63.45" height="63.45" transform="translate(273.67 -99.62) rotate(19.96)"/><rect class="cls-4" x="99.47" y="732.13" width="78.56" height="78.56" transform="translate(273.67 -99.62) rotate(19.96)"/><text class="cls-5" transform="matrix(0.94, 0.34, -0.34, 0.94, 124.42, 683.28)">1</text></g><g class="cls-9"><rect class="cls-1" x="404.32" y="935.68" width="42.61" height="42.61" transform="translate(354.26 -186.4) rotate(19.96)"/><rect class="cls-4" x="393.9" y="925.26" width="63.45" height="63.45" transform="translate(354.26 -186.4) rotate(19.96)"/><rect class="cls-4" x="386.35" y="917.71" width="78.56" height="78.56" transform="translate(354.26 -186.4) rotate(19.96)"/><text class="cls-5" transform="matrix(0.94, 0.34, -0.34, 0.94, 411.3, 868.86)">1</text></g><g class="cls-8"><rect class="cls-1" x="22.25" y="348.63" width="42.61" height="42.61" transform="translate(60.51 -100.85) rotate(9.02)"/><rect class="cls-4" x="11.83" y="338.21" width="63.45" height="63.45" transform="translate(60.51 -100.85) rotate(9.02)"/><rect class="cls-4" x="4.27" y="330.66" width="78.56" height="78.56" transform="matrix(0.99, 0.16, -0.16, 0.99, 60.51, -100.85)"/><text class="cls-5" transform="translate(31.51 284.72) rotate(9.02)">1</text></g><g class="cls-7"><rect class="cls-1" x="208.85" y="855.01" width="42.61" height="42.61" transform="translate(314.98 -124.52) rotate(19.96)"/><rect class="cls-4" x="198.43" y="844.59" width="63.45" height="63.45" transform="translate(314.98 -124.52) rotate(19.96)"/><rect class="cls-4" x="190.88" y="837.04" width="78.56" height="78.56" transform="translate(314.98 -124.52) rotate(19.96)"/><text class="cls-5" transform="matrix(0.94, 0.34, -0.34, 0.94, 215.82, 788.19)">1</text></g><g class="cls-7"><rect class="cls-1" x="242.88" y="670.24" width="42.61" height="42.61" transform="translate(253.94 -147.24) rotate(19.96)"/><rect class="cls-4" x="232.46" y="659.82" width="63.45" height="63.45" transform="translate(253.94 -147.24) rotate(19.96)"/><rect class="cls-4" x="224.9" y="652.27" width="78.56" height="78.56" transform="translate(253.94 -147.24) rotate(19.96)"/><text class="cls-5" transform="matrix(0.94, 0.34, -0.34, 0.94, 249.85, 603.42)">1</text></g><g class="cls-9"><rect class="cls-1" x="337.69" y="619.91" width="42.61" height="42.61" transform="translate(242.45 -182.63) rotate(19.96)"/><rect class="cls-4" x="327.27" y="609.49" width="63.45" height="63.45" transform="translate(242.45 -182.63) rotate(19.96)"/><rect class="cls-4" x="319.72" y="601.94" width="78.56" height="78.56" transform="translate(242.45 -182.63) rotate(19.96)"/><text class="cls-5" transform="matrix(0.94, 0.34, -0.34, 0.94, 344.67, 553.09)">1</text></g><g class="cls-9"><rect class="cls-1" x="404.32" y="741.23" width="42.61" height="42.61" transform="translate(370.8 -207.49) rotate(25.44)"/><rect class="cls-4" x="393.9" y="730.81" width="63.45" height="63.45" transform="translate(370.8 -207.49) rotate(25.44)"/><rect class="cls-4" x="386.35" y="723.26" width="78.56" height="78.56" transform="translate(370.8 -207.49) rotate(25.44)"/><text class="cls-5" transform="translate(410.37 672.81) rotate(25.44)">0</text></g><g class="cls-8"><rect class="cls-1" x="39.47" y="593.49" width="42.61" height="42.61" transform="translate(271.96 -65.09) rotate(25.44)"/><rect class="cls-4" x="29.05" y="583.07" width="63.45" height="63.45" transform="translate(271.96 -65.09) rotate(25.44)"/><rect class="cls-4" x="21.5" y="575.52" width="78.56" height="78.56" transform="translate(271.96 -65.09) rotate(25.44)"/><text class="cls-5" transform="translate(45.52 525.07) rotate(25.44)">0</text></g><rect class="cls-1" x="461.49" y="781.82" width="42.61" height="42.61" transform="translate(967.57 1507.67) rotate(180)"/><rect class="cls-4" x="451.07" y="771.41" width="63.45" height="63.45" transform="translate(967.57 1507.67) rotate(180)"/><rect class="cls-4" x="443.52" y="763.85" width="78.56" height="78.56" transform="translate(967.57 1507.67) rotate(180)"/><text class="cls-5" transform="translate(496.51 689.13) rotate(180)">0</text><g class="cls-9"><rect class="cls-1" x="414.16" y="855.01" width="42.61" height="42.61" transform="translate(420.63 -200.68) rotate(25.44)"/><rect class="cls-4" x="403.74" y="844.59" width="63.45" height="63.45" transform="translate(420.63 -200.68) rotate(25.44)"/><rect class="cls-4" x="396.19" y="837.04" width="78.56" height="78.56" transform="translate(420.63 -200.68) rotate(25.44)"/><text class="cls-5" transform="translate(420.21 786.59) rotate(25.44)">0</text></g><g class="cls-9"><rect class="cls-1" x="422.21" y="657.38" width="42.61" height="42.61" transform="translate(336.51 -223.31) rotate(25.44)"/><rect class="cls-4" x="411.79" y="646.96" width="63.45" height="63.45" transform="translate(336.51 -223.31) rotate(25.44)"/><rect class="cls-4" x="404.24" y="639.4" width="78.56" height="78.56" transform="translate(336.51 -223.31) rotate(25.44)"/><text class="cls-5" transform="translate(428.27 588.96) rotate(25.44)">0</text></g><g class="cls-8"><rect class="cls-1" x="154.96" y="540.46" width="42.61" height="42.61" transform="translate(260.38 -119.84) rotate(25.44)"/><rect class="cls-4" x="144.54" y="530.04" width="63.45" height="63.45" transform="translate(260.38 -119.84) rotate(25.44)"/><rect class="cls-4" x="136.98" y="522.49" width="78.56" height="78.56" transform="translate(260.38 -119.84) rotate(25.44)"/><text class="cls-5" transform="translate(161.01 472.04) rotate(25.44)">0</text></g><g class="cls-8"><rect class="cls-1" x="91.81" y="450.49" width="42.61" height="42.61" transform="translate(215.61 -101.44) rotate(25.44)"/><rect class="cls-4" x="81.39" y="440.07" width="63.45" height="63.45" transform="translate(215.61 -101.44) rotate(25.44)"/><rect class="cls-4" x="73.84" y="432.52" width="78.56" height="78.56" transform="translate(215.61 -101.44) rotate(25.44)"/><text class="cls-5" transform="translate(97.87 382.07) rotate(25.44)">0</text></g><g class="cls-7"><rect class="cls-1" x="226.58" y="763.42" width="42.61" height="42.61" transform="translate(131.26 -128.22) rotate(9.24)"/><rect class="cls-4" x="216.16" y="753" width="63.45" height="63.45" transform="matrix(0.99, 0.16, -0.16, 0.99, 131.26, -128.22)"/><rect class="cls-4" x="208.6" y="745.45" width="78.56" height="78.56" transform="translate(131.26 -128.22) rotate(9.24)"/><text class="cls-5" transform="matrix(0.99, 0.16, -0.16, 0.99, 235.79, 699.45)">1</text></g><g class="cls-8"><rect class="cls-1" x="149.23" y="640.84" width="42.61" height="42.61" transform="translate(238.28 -117.03) rotate(19.96)"/><rect class="cls-4" x="138.82" y="630.43" width="63.45" height="63.45" transform="matrix(0.94, 0.34, -0.34, 0.94, 238.28, -117.03)"/><rect class="cls-4" x="131.26" y="622.87" width="78.56" height="78.56" transform="translate(238.28 -117.03) rotate(19.96)"/><text class="cls-5" transform="matrix(0.94, 0.34, -0.34, 0.94, 156.21, 574.03)">1</text></g><g class="cls-7"><rect class="cls-1" x="259.08" y="493.1" width="42.61" height="42.61" transform="translate(194.44 -163.41) rotate(19.96)"/><rect class="cls-4" x="248.66" y="482.68" width="63.45" height="63.45" transform="matrix(0.94, 0.34, -0.34, 0.94, 194.44, -163.41)"/><rect class="cls-4" x="241.11" y="475.13" width="78.56" height="78.56" transform="translate(194.44 -163.41) rotate(19.96)"/><text class="cls-5" transform="matrix(0.94, 0.34, -0.34, 0.94, 266.06, 426.29)">1</text></g><rect class="cls-1" x="461.49" y="742.54" width="42.61" height="42.61" transform="translate(967.57 1429.11) rotate(-180)"/><rect class="cls-4" x="451.07" y="732.13" width="63.45" height="63.45" transform="translate(967.57 1429.11) rotate(-180)"/><rect class="cls-4" x="443.52" y="724.57" width="78.56" height="78.56" transform="translate(967.57 1429.11) rotate(-180)"/><text class="cls-5" transform="translate(496.51 649.86) rotate(180)">1</text><g class="cls-9"><rect class="cls-1" x="444.1" y="698.39" width="42.61" height="42.61" transform="translate(932.79 1340.81) rotate(-180)"/><rect class="cls-4" x="433.69" y="687.98" width="63.45" height="63.45" transform="translate(932.79 1340.81) rotate(-180)"/><rect class="cls-4" x="426.13" y="680.42" width="78.56" height="78.56" transform="translate(932.79 1340.81) rotate(-180)"/><text class="cls-5" transform="translate(479.12 605.71) rotate(180)">1</text></g><g class="cls-9"><rect class="cls-1" x="429.77" y="750.1" width="42.61" height="42.61" transform="translate(904.12 1444.22) rotate(-180)"/><rect class="cls-4" x="419.35" y="739.68" width="63.45" height="63.45" transform="translate(904.12 1444.22) rotate(-180)"/><rect class="cls-4" x="411.79" y="732.13" width="78.56" height="78.56" transform="translate(904.12 1444.22) rotate(-180)"/><text class="cls-5" transform="translate(464.79 657.41) rotate(180)">1</text></g><g class="cls-9"><rect class="cls-1" x="441.51" y="776.74" width="42.61" height="42.61" transform="translate(927.6 1497.49) rotate(-180)"/><rect class="cls-4" x="431.09" y="766.32" width="63.45" height="63.45" transform="translate(927.6 1497.49) rotate(-180)"/><rect class="cls-4" x="423.54" y="758.76" width="78.56" height="78.56" transform="translate(927.6 1497.49) rotate(-180)"/><text class="cls-5" transform="translate(476.53 684.05) rotate(180)">1</text></g><rect class="cls-1" x="557.89" y="760.52" width="42.61" height="42.61" transform="translate(3.9 -100.02) rotate(0.14)"/><rect class="cls-4" x="547.47" y="750.1" width="63.45" height="63.45" transform="translate(3.9 -100.02) rotate(0.14)"/><rect class="cls-4" x="539.92" y="742.54" width="78.56" height="78.56" transform="translate(3.9 -100.02) rotate(0.14)"/><text class="cls-5" transform="matrix(1, 0, 0, 1, 569.41, 698.63)">1</text></svg>