<svg id="Layer_3" data-name="Layer 3" xmlns="http://www.w3.org/2000/svg" viewBox="0 0 75 75"><defs><style>.cls-1,.cls-4{fill:none;stroke-linecap:round;stroke-width:2px;}.cls-1,.cls-2,.cls-4{stroke:#0068da;}.cls-1{stroke-linejoin:round;}.cls-2,.cls-3{fill:#0068da;isolation:isolate;}.cls-2,.cls-4{stroke-miterlimit:10;}.cls-2{opacity:0.2;}.cls-3{opacity:0.1;}</style></defs><title>Streamline taxonomy management_blue</title><g id="Layer_2" data-name="Layer 2"><circle class="cls-1" cx="68" cy="4.6" r="3"/><path class="cls-1" d="M72.1,10A9.9,9.9,0,0,0,68,9h0a8.57,8.57,0,0,0-4.1,1A3.14,3.14,0,0,0,62,12.6V15a.32.32,0,0,0,.3.3H73.6a.27.27,0,0,0,.3-.3V12.6A2.7,2.7,0,0,0,72.1,10Z"/><circle class="cls-2" cx="68" cy="37.2" r="3"/><path class="cls-2" d="M72.1,42.7a9.9,9.9,0,0,0-4.1-1h0a8.57,8.57,0,0,0-4.1,1A3.14,3.14,0,0,0,62,45.3v2.4a.32.32,0,0,0,.3.3H73.6a.27.27,0,0,0,.3-.3V45.3A2.7,2.7,0,0,0,72.1,42.7Z"/><circle class="cls-1" cx="68" cy="37.2" r="3"/><path class="cls-1" d="M72.1,42.7a9.9,9.9,0,0,0-4.1-1h0a8.57,8.57,0,0,0-4.1,1A3.14,3.14,0,0,0,62,45.3v2.4a.32.32,0,0,0,.3.3H73.6a.27.27,0,0,0,.3-.3V45.3A2.7,2.7,0,0,0,72.1,42.7Z"/><circle class="cls-2" cx="68" cy="63.3" r="3"/><path class="cls-2" d="M72.1,68.7a9.9,9.9,0,0,0-4.1-1h0a8.57,8.57,0,0,0-4.1,1A3.14,3.14,0,0,0,62,71.3v2.4a.32.32,0,0,0,.3.3H73.6a.27.27,0,0,0,.3-.3V71.3A2.7,2.7,0,0,0,72.1,68.7Z"/><circle class="cls-1" cx="68" cy="63.3" r="3"/><path class="cls-1" d="M72.1,68.7a9.9,9.9,0,0,0-4.1-1h0a8.57,8.57,0,0,0-4.1,1A3.14,3.14,0,0,0,62,71.3v2.4a.32.32,0,0,0,.3.3H73.6a.27.27,0,0,0,.3-.3V71.3A2.7,2.7,0,0,0,72.1,68.7Z"/><path class="cls-3" d="M37.1,53H7.3a3,3,0,0,1-3-3V28.3a3,3,0,0,1,3-3H37.2a3,3,0,0,1,3,3V50A3.17,3.17,0,0,1,37.1,53Z"/><path class="cls-4" d="M38.1,56.1H6.3a5,5,0,0,1-5-5v-24a5,5,0,0,1,5-5H38.2a5,5,0,0,1,5,5V51.2A5.08,5.08,0,0,1,38.1,56.1Z"/><line class="cls-4" x1="15.5" y1="30.1" x2="30.3" y2="30.1"/><line class="cls-1" x1="8.2" y1="37.2" x2="36.3" y2="37.2"/><line class="cls-1" x1="8.2" y1="42.2" x2="36.3" y2="42.2"/><line class="cls-1" x1="8.2" y1="47.2" x2="36.3" y2="47.2"/><path class="cls-4" d="M57,69.5H27.3a5,5,0,0,1-5-5V56.2"/><path class="cls-4" d="M22.3,21.7V14.9a5,5,0,0,1,5-5H48.9"/><line class="cls-1" x1="43.3" y1="42.2" x2="57" y2="42.2"/><line class="cls-4" x1="56.9" y1="7.7" x2="52.2" y2="12.4"/><line class="cls-4" x1="56.9" y1="12.4" x2="52.2" y2="7.7"/></g></svg>