<?xml version="1.0" encoding="utf-8"?>
<!-- Generator: Adobe Illustrator 26.0.1, SVG Export Plug-In . SVG Version: 6.00 Build 0)  -->
<svg version="1.1" id="Layer_3" xmlns="http://www.w3.org/2000/svg" xmlns:xlink="http://www.w3.org/1999/xlink" x="0px" y="0px"
	 viewBox="0 0 75 75" style="enable-background:new 0 0 75 75;" xml:space="preserve">
<style type="text/css">
	.st0{display:none;fill:#0068DA;}
	.st1{fill:#0068DA;}
	.st2{opacity:0.15;fill:#0068DA;enable-background:new    ;}
</style>
<g>
	<g>
		<circle class="st0" cx="37.5" cy="10.6" r="7"/>
		<path class="st1" d="M37.5,18.5c-4.4,0-7.9-3.5-7.9-7.9s3.5-7.9,7.9-7.9c4.4,0,7.9,3.6,7.9,7.9S41.9,18.5,37.5,18.5z M37.5,4.5
			c-3.3,0-6.1,2.7-6.1,6.1s2.7,6.1,6.1,6.1c3.3,0,6.1-2.7,6.1-6.1S40.8,4.5,37.5,4.5z"/>
		<circle class="st0" cx="37.5" cy="64.4" r="7"/>
		<path class="st1" d="M37.5,72.4c-4.4,0-7.9-3.5-7.9-7.9s3.5-7.9,7.9-7.9c4.4,0,7.9,3.5,7.9,7.9S41.9,72.4,37.5,72.4z M37.5,58.4
			c-3.3,0-6.1,2.7-6.1,6.1s2.7,6.1,6.1,6.1c3.3,0,6.1-2.7,6.1-6.1S40.8,58.4,37.5,58.4z"/>
	</g>
	<g>
		<circle class="st0" cx="14" cy="24.3" r="7"/>
		<path class="st1" d="M14,32.2c-1.3,0-2.6-0.3-3.9-1h0c-3.8-2.1-5.1-7-3-10.8c2.1-3.8,7-5.2,10.8-3c1.8,1,3.2,2.7,3.7,4.8
			c0.6,2,0.3,4.2-0.7,6C19.5,30.7,16.8,32.2,14,32.2z M11.1,29.6c2.9,1.6,6.6,0.6,8.3-2.3c0.8-1.4,1-3,0.6-4.6
			c-0.4-1.6-1.5-2.9-2.9-3.6c-2.9-1.6-6.6-0.6-8.3,2.3C7.1,24.2,8.1,27.9,11.1,29.6L11.1,29.6z"/>
		<circle class="st0" cx="61" cy="50.7" r="7"/>
		<path class="st1" d="M61,58.6c-1.3,0-2.6-0.3-3.9-1h0c-3.8-2.1-5.1-7-3-10.8c2.1-3.8,7-5.2,10.8-3c3.8,2.1,5.2,7,3,10.8
			C66.4,57.2,63.7,58.6,61,58.6z M58,56c2.9,1.6,6.6,0.6,8.3-2.3c1.6-2.9,0.6-6.6-2.3-8.2c-2.9-1.6-6.6-0.6-8.3,2.3
			C54.1,50.7,55.1,54.4,58,56L58,56z"/>
	</g>
	<g>
		<circle class="st0" cx="13.9" cy="50.5" r="7"/>
		<path class="st1" d="M13.9,58.4c-0.7,0-1.5-0.1-2.2-0.3c-2-0.6-3.7-1.9-4.7-3.8c-1-1.9-1.3-4-0.7-6c0.6-2,1.9-3.7,3.8-4.7
			c1.9-1,4-1.3,6-0.7c2,0.6,3.7,1.9,4.7,3.8c2.1,3.8,0.7,8.6-3.1,10.7C16.5,58,15.2,58.4,13.9,58.4z M13.9,44.4c-1,0-2,0.2-2.9,0.7
			c-1.4,0.8-2.4,2.1-2.9,3.6c-0.5,1.6-0.3,3.2,0.5,4.6c0.8,1.4,2.1,2.4,3.6,2.9c1.6,0.5,3.2,0.3,4.6-0.5c0,0,0,0,0,0
			c2.9-1.6,4-5.3,2.4-8.2C18.1,45.5,16,44.4,13.9,44.4z"/>
		<circle class="st0" cx="61.1" cy="24.5" r="7"/>
		<path class="st1" d="M61.1,32.4c-2.8,0-5.5-1.5-7-4.1c-2.1-3.8-0.7-8.6,3.1-10.7c3.8-2.1,8.6-0.7,10.7,3.1c1,1.9,1.3,4,0.7,6
			s-1.9,3.7-3.8,4.7l0,0C63.7,32.1,62.4,32.4,61.1,32.4z M64.5,30.7L64.5,30.7L64.5,30.7z M61.1,18.5c-1,0-2,0.2-2.9,0.7
			c-2.9,1.6-4,5.3-2.4,8.2c1.6,2.9,5.3,4,8.2,2.4l0,0c2.9-1.6,4-5.3,2.4-8.2C65.3,19.6,63.3,18.5,61.1,18.5z"/>
	</g>
	<path class="st1" d="M37.7,50.3c-7,0-12.7-5.7-12.7-12.7S30.7,25,37.7,25s12.7,5.7,12.7,12.7S44.7,50.3,37.7,50.3z M37.7,26.9
		c-6,0-10.8,4.8-10.8,10.8s4.8,10.8,10.8,10.8s10.8-4.8,10.8-10.8S43.6,26.9,37.7,26.9z"/>
	<rect x="36.6" y="17.5" class="st1" width="1.9" height="8.4"/>
	<rect x="36.6" y="49.4" class="st1" width="1.9" height="8.1"/>
	
		<rect x="22.7" y="25.7" transform="matrix(0.4803 -0.8771 0.8771 0.4803 -13.9941 36.3361)" class="st1" width="1.9" height="8.5"/>
	
		<rect x="50.6" y="41.2" transform="matrix(0.4804 -0.8771 0.8771 0.4804 -12.8978 68.6924)" class="st1" width="1.9" height="8.1"/>
	
		<rect x="19.5" y="44.3" transform="matrix(0.8763 -0.4817 0.4817 0.8763 -18.8682 16.9391)" class="st1" width="8.2" height="1.9"/>
	<rect x="47.1" y="29" transform="matrix(0.8763 -0.4817 0.4817 0.8763 -8.0801 28.4352)" class="st1" width="8.5" height="1.9"/>
</g>
<circle class="st2" cx="37.5" cy="10.6" r="6.8"/>
<circle class="st2" cx="13.9" cy="50.3" r="6.8"/>
<circle class="st2" cx="61.1" cy="50.3" r="6.8"/>
</svg>
