<?xml version="1.0" encoding="utf-8"?>
<!-- Generator: Adobe Illustrator 24.0.1, SVG Export Plug-In . SVG Version: 6.00 Build 0)  -->
<svg version="1.1" id="Layer_3" xmlns="http://www.w3.org/2000/svg" xmlns:xlink="http://www.w3.org/1999/xlink" x="0px" y="0px"
	 viewBox="0 0 75 75" style="enable-background:new 0 0 75 75;" xml:space="preserve">
<style type="text/css">
	.st0{fill:#FFFFFF;stroke:#0068DA;stroke-width:2;stroke-linecap:round;stroke-miterlimit:10;}
	.st1{opacity:0.2;fill:#0068DA;enable-background:new    ;}
	.st2{fill:none;stroke:#0068DA;stroke-width:2;stroke-linecap:round;stroke-miterlimit:10;}
</style>
<title>webinar_blue</title>
<g>
	<path id="Rectangle-path_32_1_" class="st0" d="M14.9,31.7c0-1.1,0.9-2.1,2.1-2.1h41c1.1,0,2.1,0.9,2.1,2.1v11.7
		c0,1.1-0.9,2.1-2.1,2.1H17c-1.1,0-2.1-0.9-2.1-2.1V31.7z"/>
	<path id="Rectangle-path_32_2_" class="st1" d="M14.9,31.7c0-1.1,0.9-2.1,2.1-2.1h41c1.1,0,2.1,0.9,2.1,2.1v11.7
		c0,1.1-0.9,2.1-2.1,2.1H17c-1.1,0-2.1-0.9-2.1-2.1V31.7z"/>
	<g>
		<path id="Shape_526_1_" class="st2" d="M27.4,36.5c-0.6,0-1,0.4-1,1c0,0.5,0.5,1,1,1c0.6,0,1-0.4,1-1c0-0.3-0.1-0.5-0.3-0.7
			C27.9,36.6,27.7,36.5,27.4,36.5L27.4,36.5"/>
		<path id="Shape_527_1_" class="st2" d="M37.5,36.5c-0.6,0-1,0.4-1,1c0,0.5,0.5,1,1,1c0.6,0,1-0.4,1-1c0-0.3-0.1-0.5-0.3-0.7
			C38,36.6,37.8,36.5,37.5,36.5L37.5,36.5"/>
		<path id="Shape_527_2_" class="st2" d="M47.6,36.5c-0.6,0-1,0.4-1,1c0,0.5,0.5,1,1,1c0.6,0,1-0.4,1-1c0-0.3-0.1-0.5-0.3-0.7
			C48.1,36.6,47.9,36.5,47.6,36.5L47.6,36.5"/>
	</g>
</g>
<g id="Layer_2_1_">
	<polyline class="st2" points="45.4,73.7 41.4,69.9 45.2,65.9 	"/>
	<polyline class="st2" points="29.2,9.1 33.3,5.3 29.4,1.3 	"/>
	<path class="st2" d="M43,5.2c18,3,30.2,20.1,27.1,38.1c-2.3,14-13.3,24.9-27.3,27.2"/>
	<path class="st2" d="M32.5,70.5C14.4,67.8,2,50.9,4.8,32.8C7,18.5,18.2,7.3,32.5,5.1"/>
</g>
</svg>
