<svg xmlns="http://www.w3.org/2000/svg" xmlns:xlink="http://www.w3.org/1999/xlink" version="1.1" id="Layer_1" x="0px" y="0px" viewBox="0 0 1312.4 267.9" style="enable-background:new 0 0 1312.4 267.9;" xml:space="preserve" width="1312.4"  height="267.9" >
<style type="text/css">
	.st0{display:none;}
	.st1{opacity:0.2;fill:#06121E;stroke:#06121E;stroke-miterlimit:10;enable-background:new    ;}
	.st2{fill:none;stroke:#06121E;stroke-width:1.5;stroke-miterlimit:10;}
	.st3{opacity:0.2;fill:none;stroke:#D2D2D2;stroke-miterlimit:10;enable-background:new    ;}
	.st4{fill:none;stroke:#1E1E1E;stroke-width:2;stroke-linecap:round;stroke-linejoin:round;stroke-miterlimit:10;}
	.st5{fill:#06121E;}
	.st6{fill:#0DD8D6;}
	.st7{fill:none;stroke:#0DD8D6;stroke-width:2;stroke-miterlimit:10;}
	.st8{fill:#1E1E1E;}
	.st9{fill:#FFFFFF;}
	.st10{fill:none;stroke:#FFFFFF;stroke-width:1.5;stroke-miterlimit:10;}
</style>
<g id="Layer_1_00000057134189275053389100000007093300888458814376_" class="st0">
</g>
<g id="Layer_31">
</g>
<g id="Layer_9">
</g>
<g id="Layer_9_copy">
</g>
<g id="Layer_9_copy_3">
</g>
<g id="Layer_9_copy_4">
</g>
<g id="Layer_9_copy_5">
</g>
<g id="Layer_9_copy_2">
</g>
<g id="Layer_4">
</g>
<g id="Layer_7">
</g>
<g id="Layer_5">
</g>
<g id="Layer_18">
</g>
<g>
	<g id="Layer_27">
		<path class="st1" d="M767.8,213.6c-1.7,0-3.5-0.1-5.2-0.2c-0.4,0-0.7-0.1-1.1-0.1l-0.6-0.1h-0.4c-1-0.1-2-0.2-3-0.3    c-0.4-0.1-0.9-0.1-1.3-0.2l-1.4-0.2c-0.8-0.1-1.6-0.2-2.4-0.3c-0.5-0.1-1-0.2-1.4-0.3l-1.4-0.3c-0.7-0.1-1.5-0.3-2.2-0.4    c-0.5-0.1-1-0.2-1.5-0.4l-1.4-0.3c-0.7-0.2-1.4-0.3-2.1-0.5c-0.5-0.1-1-0.3-1.5-0.4l-1.3-0.4c-0.7-0.2-1.3-0.4-2-0.6    c-0.5-0.2-1-0.3-1.5-0.5l-1.2-0.4c-0.7-0.2-1.3-0.5-2-0.7c-0.5-0.2-1-0.4-1.6-0.6l-1.2-0.5c-0.6-0.3-1.3-0.5-1.9-0.8    c-0.5-0.2-1-0.5-1.6-0.7l-1.1-0.5c-0.6-0.3-1.2-0.6-1.9-0.9c-0.5-0.3-1-0.5-1.5-0.8l-1-0.5c-0.6-0.3-1.2-0.6-1.8-1    c-0.5-0.3-1-0.6-1.6-0.9l-0.8-0.5c-0.6-0.4-1.2-0.7-1.8-1.1c-0.5-0.3-1-0.6-1.5-1l-0.8-0.5c-0.6-0.4-1.2-0.8-1.8-1.2    c-0.5-0.4-1-0.7-1.5-1.1l-0.7-0.5c-0.6-0.4-1.2-0.9-1.8-1.3c-0.5-0.4-1-0.8-1.5-1.2l-0.6-0.5c-0.6-0.5-1.2-0.9-1.7-1.4    c-0.5-0.4-1-0.8-1.5-1.3l-0.5-0.5c-0.6-0.5-1.1-1-1.7-1.5c-0.5-0.5-1-1-1.5-1.4l-0.5-0.5c-0.6-0.6-1.2-1.2-1.8-1.8l-0.4-0.4    c-1-1-2-2.1-2.9-3.2l-0.4-0.5c-0.9-1.1-1.9-2.2-2.8-3.3l-0.4-0.5c-0.9-1.1-1.8-2.3-2.6-3.4l-0.4-0.5c-0.8-1.2-1.7-2.4-2.5-3.6    l-0.3-0.5c-0.8-1.2-1.6-2.5-2.3-3.7l-0.3-0.5c-0.7-1.3-1.5-2.6-2.1-3.8l-0.2-0.5c-0.7-1.4-1.4-2.7-2-4l-0.2-0.5    c-0.6-1.4-1.2-2.8-1.8-4.1l-0.2-0.5c-0.6-1.4-1.1-2.8-1.6-4.2l-0.2-0.5c-0.5-1.5-1-2.9-1.4-4.3l-0.1-0.5c-0.4-1.5-0.8-3-1.2-4.5    l-0.1-0.4c-0.4-1.6-0.7-3.1-1-4.6l-0.1-0.4c-0.3-1.6-0.6-3.2-0.8-4.7v-0.3c-0.2-1.7-0.4-3.3-0.5-4.9v-0.2    c-0.2-1.8-0.3-3.5-0.3-5.1v-0.1c-0.1-1.8-0.1-3.5-0.1-5.2c0-1.3,0.1-2.7,0.2-4c2.5-39.1,33.6-53,66.4-67.6    c4.8-2.1,9.4-7.7,13.8-13c6.9-8.3,14-17,24.1-16.8c1.8,0,3.5,0.1,5.3,0.2c8.6,0.6,17.1,2.2,25.3,4.9c3.2,1,6.3,2.3,9.4,3.6    c1.2,0.5,2.5,1.1,4,1.9c0.3,0.2,0.6,0.3,1,0.5c1.5,0.7,2.7,1.4,3.9,2.1l0.2,0.1c1.2,0.7,2.4,1.4,3.6,2.2c0.3,0.2,0.6,0.4,0.9,0.6    c1.3,0.9,2.5,1.6,3.6,2.4l0.4,0.3c1,0.7,2.1,1.5,3.2,2.3l0.8,0.6c1.2,1,2.3,1.8,3.4,2.7l0.5,0.4c0.9,0.8,1.9,1.7,2.9,2.6l0.7,0.7    c1.1,1,2.1,2,3.1,3l0.5,0.6c0.9,0.9,1.7,1.8,2.6,2.8l0.6,0.7c0.9,1.1,1.9,2.2,2.8,3.3l0.5,0.7c0.7,0.9,1.4,1.8,2,2.7    c0.3,0.5,0.7,0.9,1,1.4c0.6,0.8,1.2,1.7,1.7,2.5l0.3,0.4c0.2,0.3,0.4,0.6,0.6,0.9c0.7,1.1,1.4,2.2,2.1,3.4c0,0,0.3,0.4,0.3,0.6    c0.7,1.3,1.5,2.6,2.2,4c0.1,0.3,0.3,0.5,0.4,0.8L861,64c0.5,1,1,1.9,1.4,2.9c0.2,0.4,0.4,0.8,0.6,1.2l0.1,0.3    c0.4,0.9,0.8,1.8,1.2,2.7c0.2,0.6,0.5,1.1,0.7,1.7c0.4,0.9,0.7,1.9,1.1,2.8l0.1,0.4c0.1,0.4,0.3,0.8,0.4,1.2    c0.4,1.1,0.7,2.2,1.1,3.3l0.1,0.4c0.1,0.3,0.2,0.5,0.2,0.8c0.4,1.5,0.9,3.1,1.2,4.6c0.1,0.2,0.1,0.4,0.1,0.6l0.1,0.4    c0.3,1.3,0.6,2.5,0.8,3.6c0.1,0.4,0.1,0.8,0.2,1.2l0.1,0.4c0.2,1,0.4,2.1,0.5,3.1c0.1,0.6,0.2,1.2,0.2,1.8c0.1,1,0.2,2,0.3,3.1    c0.1,0.6,0.1,1.2,0.2,1.8c0.1,1.1,0.2,2.2,0.2,3.3v0.6c0,0.3,0,0.7,0,1c0.1,1.8,0.1,3.4,0,4.9c0,1.4-0.1,3-0.2,4.8l-0.1,0.8    c-0.1,1.5-0.2,3-0.4,4.5l-0.1,0.9c-0.2,1.7-0.4,3.2-0.7,4.6v0.2c-0.2,1.4-0.5,2.9-0.9,4.4l-0.2,0.7c-0.3,1.4-0.7,2.8-1.1,4.3    l-0.2,0.8c-0.4,1.6-0.9,3-1.3,4.3l-0.2,0.5c-0.4,1.3-0.9,2.7-1.4,4l-0.2,0.6c-0.5,1.3-1,2.6-1.7,4.1l-0.4,0.8    c-0.6,1.4-1.2,2.7-1.9,4l-0.3,0.6c-0.5,0.9-0.9,1.8-1.4,2.7c-8.6,15.2-23.1,18.5-38.5,22.1c-6.6,1.5-13.4,3.1-20,5.6    c-4.3,1.7-8.4,6.7-12.5,11.5C782.9,206.2,776.6,213.7,767.8,213.6z"/>
	</g>
	<g id="Layer_27_copy">
		<path class="st2" d="M868.8,120.8L868.8,120.8c0,0.3-0.1,0.6-0.1,0.9c-0.1,1.1-0.3,2.1-0.4,3.2c-0.1,0.6-0.2,1.1-0.2,1.7    c-0.2,1-0.3,1.9-0.5,2.9c-0.1,0.5-0.2,1-0.3,1.5c-0.2,1.3-0.5,2.5-0.8,3.8c-0.1,0.2-0.1,0.4-0.2,0.6c-0.4,1.4-0.8,2.9-1.2,4.3    c-0.1,0.4-0.3,0.9-0.4,1.3c-0.3,1-0.7,2-1,3c-0.2,0.5-0.4,1-0.6,1.6c-0.3,0.9-0.7,1.8-1,2.7c-0.2,0.5-0.4,1.1-0.7,1.6    c-0.4,0.9-0.8,1.8-1.2,2.7c-0.2,0.5-0.5,1-0.7,1.5c-0.5,1-1,2-1.5,3c-0.2,0.4-0.4,0.7-0.5,1.1c-0.7,1.3-1.5,2.7-2.3,4    c-0.2,0.3-0.4,0.6-0.5,0.8c-0.6,1-1.3,2.1-1.9,3.1c-0.3,0.4-0.6,0.9-0.9,1.4c-0.6,0.8-1.2,1.7-1.8,2.5c-0.3,0.5-0.7,1-1.1,1.4    c-0.6,0.8-1.2,1.6-1.8,2.4c-0.4,0.5-0.8,0.9-1.1,1.4c-0.7,0.8-1.4,1.6-2.1,2.4c-0.3,0.4-0.7,0.8-1,1.1c-1.1,1.2-2.2,2.3-3.3,3.4    c-1.1,1.1-2.2,2.2-3.4,3.2c-0.2,0.2-0.4,0.4-0.6,0.5c-1.1,1-2.2,1.9-3.4,2.8c-0.2,0.2-0.4,0.4-0.7,0.5c-1.2,0.9-2.4,1.8-3.6,2.7    c-0.1,0.1-0.2,0.1-0.2,0.2c-1.2,0.8-2.4,1.6-3.6,2.4c-0.2,0.1-0.4,0.3-0.6,0.4c-1.2,0.8-2.4,1.5-3.7,2.2c-0.2,0.2-0.5,0.3-0.8,0.4    c-1.2,0.7-2.5,1.4-3.8,2.1c-0.1,0.1-0.3,0.1-0.4,0.2c-1.2,0.6-2.5,1.2-3.7,1.8c-0.2,0.1-0.4,0.2-0.5,0.2c-1.3,0.6-2.6,1.1-3.9,1.7    c-0.3,0.1-0.5,0.2-0.8,0.3c-1.3,0.5-2.7,1-4,1.5c-0.2,0.1-0.4,0.1-0.6,0.2c-0.9,0.3-1.9,0.6-2.8,0.9c-22.4,6.3-37.2-11.7-59-21.3    c-11.4-5-32.1,5.1-41.4-4.4c-1.2-1.2-2.4-2.5-3.5-3.7c-0.4-0.4-0.7-0.9-1.1-1.3c-0.7-0.8-1.5-1.7-2.2-2.5    c-0.4-0.5-0.8-1.1-1.2-1.6c-0.6-0.8-1.2-1.6-1.8-2.4c-0.4-0.6-0.8-1.2-1.2-1.8c-0.5-0.8-1.1-1.5-1.6-2.3c-0.4-0.6-0.8-1.2-1.2-1.9    c-0.5-0.8-1-1.5-1.4-2.3c-0.4-0.7-0.7-1.3-1.1-2c-0.4-0.8-0.9-1.5-1.3-2.3c-0.3-0.7-0.7-1.4-1-2c-0.4-0.8-0.8-1.6-1.1-2.4    c-0.3-0.7-0.6-1.4-0.9-2.1c-0.3-0.8-0.7-1.6-1-2.4c-0.3-0.7-0.5-1.4-0.8-2.1c-0.3-0.8-0.6-1.6-0.9-2.4c-0.2-0.7-0.5-1.4-0.7-2.2    c-0.3-0.8-0.5-1.6-0.8-2.4c-0.2-0.7-0.4-1.5-0.6-2.2c-0.2-0.8-0.4-1.6-0.6-2.4c-0.2-0.7-0.3-1.5-0.5-2.2c-0.2-0.8-0.3-1.6-0.5-2.4    c-0.1-0.8-0.3-1.5-0.4-2.2c-0.1-0.8-0.3-1.6-0.4-2.4c-0.1-0.8-0.2-1.5-0.3-2.3c-0.1-0.5-0.1-1.1-0.2-1.6"/>
		<path class="st2" d="M670.1,97.8c0.1-0.7,0.2-1.4,0.3-2.1c0-0.2,0.1-0.4,0.1-0.6c0.2-1.4,0.5-2.8,0.7-4.1c0-0.2,0.1-0.4,0.1-0.6    c0.3-1.4,0.6-2.8,0.9-4.1c0-0.2,0.1-0.4,0.1-0.6c0.4-1.4,0.7-2.7,1.1-4.1c0.1-0.2,0.1-0.4,0.2-0.6c0.4-1.4,0.9-2.7,1.4-4    c0.1-0.2,0.1-0.4,0.2-0.5c0.5-1.3,1-2.7,1.6-4c0.1-0.2,0.1-0.3,0.2-0.5c0.6-1.3,1.2-2.7,1.8-4c0.1-0.1,0.1-0.3,0.2-0.5    c0.6-1.3,1.3-2.6,2-3.9c0.1-0.1,0.2-0.3,0.2-0.4c0.7-1.3,1.5-2.6,2.2-3.9c0.1-0.1,0.2-0.2,0.2-0.4c0.8-1.3,1.6-2.6,2.4-3.8    c0.1-0.1,0.1-0.2,0.2-0.3c0.9-1.3,1.8-2.5,2.7-3.8c0.1-0.1,0.1-0.2,0.2-0.2c1-1.3,1.9-2.5,3-3.8c0-0.1,0.1-0.1,0.1-0.2    c1-1.2,2.1-2.5,3.2-3.7l0.1-0.1c1.1-1.2,2.3-2.5,3.5-3.6c0.9-0.9,1.9-1.8,2.8-2.6c27.8-24.8,57.6-13.6,91.7-0.8    c13.2,5,36.3-6,46.9,4.7c1.2,1.2,2.4,2.5,3.5,3.8c5.7,6.4,10.4,13.3,14.1,20.6c1.5,2.9,2.8,5.9,4,8.9c0.5,1.4,1,2.7,1.5,4.1    c0.1,0.3,0.2,0.7,0.3,1c0.5,1.4,0.9,2.7,1.3,4.1c0,0.1,0.1,0.2,0.1,0.3c0.4,1.3,0.7,2.6,1,3.9c0.1,0.3,0.2,0.7,0.2,1    c0.3,1.4,0.6,2.8,0.9,4.1c0,0.2,0.1,0.3,0.1,0.5c0.2,1.3,0.4,2.5,0.6,3.8c0.1,0.3,0.1,0.7,0.1,1c0,0.1,0,0.1,0,0.2"/>
	</g>
	<g id="Layer_18_copy_2">
		<path class="st3" d="M171.5,108.7c0,13.7-3.3,26.6-9.1,37.9c-9.1,17.9-27.2,11.6-38.1,11.1c-10.4-0.5-25.3,34.4-36.3,34.4    c-22.6,0-56.3,14.6-71.4,0C1,176.9,4.5,132.1,4.5,108.6c0-33.6,46.6-18.7,51.4-49.8C58.8,40.4,75.5,0.6,88,0.6    c11.5,0,22.5,26.8,32.5,31.1c13.1,5.5,24.5,14.3,33.2,25.4C164.8,71.3,171.5,89.2,171.5,108.7z"/>
		<g id="Layer_20_copy">
		</g>
	</g>
	<g id="Layer_3">
		<polyline class="st4" points="196.6,98.7 206.6,108.7 196.6,118.7   "/>
		<polyline class="st4" points="317.9,220.5 317.9,206.4 332.1,206.4   "/>
		<polyline class="st4" points="423.9,98.7 433.9,108.7 423.9,118.7   "/>
		<polyline class="st4" points="651.2,98.7 661.2,108.7 651.2,118.7   "/>
		<polyline class="st4" points="878.5,98.7 888.5,108.7 878.5,118.7   "/>
		<polyline class="st4" points="1105.8,98.7 1115.8,108.7 1105.8,118.7   "/>
	</g>
	<g id="Layer_6">
		<path class="st1" d="M542.6,202.7c-51.8,0-94-42.2-94-94s42.2-94,94-94c8.4,0,16.5,1.1,24.2,3.2c10.8,2.9,20.8,7.6,29.7,13.9    c11.3,7.9,20.8,18.3,27.7,30.3c4.2,7.4,23,7,25.2,15.5c1.8,7.3-12.8,23.3-12.8,31.1C636.6,160.5,594.4,202.7,542.6,202.7z"/>
		<path class="st2" d="M542.6,206.2c-6.7,0-13.2-0.7-19.5-2c-44.4-9.1-78-48.5-78-95.5c0-16.3,4-31.8,11.2-45.3    c4.6-8.7-1.7-34.3,7-41.1c10.1-7.9,35.3-2.1,50.8-6.9c9-2.8,18.6-4.3,28.5-4.3c53.8,0,97.5,43.7,97.5,97.5    c0,27.8-11.5,53-30.3,70.6c-14,13.1,0.3,46.4-9.2,50.2C584.1,236.1,563.4,206.2,542.6,206.2z"/>
	</g>
	<g id="Layer_2_00000130648682851867517460000003483669451836398740_">
		<circle class="st5" cx="88" cy="108.7" r="88"/>
		<g>
			<g>
				<path class="st6" d="M77.8,111.6h-5.6l-1.4,4.3c0,0.1-0.1,0.2-0.3,0.2h-2.6c-0.2,0-0.2-0.1-0.2-0.2l5.1-14.4      c0.1-0.2,0.2-0.7,0.2-1.4c0-0.1,0.1-0.1,0.2-0.1h3.5c0.1,0,0.1,0,0.2,0.1l5.6,15.8c0,0.1,0,0.2-0.1,0.2h-2.9      c-0.1,0-0.2-0.1-0.2-0.2L77.8,111.6z M72.8,109.3h4.4c-0.1-0.2-0.4-1.3-1-3.1c-0.6-1.8-1-3.1-1.2-3.8l0,0      C74.8,103.2,74.1,105.5,72.8,109.3z"/>
				<path class="st6" d="M89.1,104c1.9,0,3.4,0.6,4.4,1.7s1.5,2.5,1.5,4.2c0,1.1-0.2,2-0.6,2.8s-0.9,1.5-1.5,2s-1.4,0.9-2.1,1.1      c-0.8,0.3-1.6,0.4-2.4,0.4c-0.6,0-1.1-0.1-1.5-0.2v5c0,0.1-0.1,0.2-0.2,0.2c-0.3,0-0.6,0.1-1.1,0.1c-0.4,0-0.8,0.1-1.2,0.1      c-0.3,0-0.5,0-0.5,0c-0.1,0-0.1-0.1-0.1-0.2v-14.8c0-0.5,0-1-0.1-1.5c0-0.1,0-0.1,0.1-0.1C85.9,104.3,87.6,104,89.1,104z       M88.8,106.2c-0.6,0-1.3,0.1-1.8,0.3v7.3c0.5,0.2,1.1,0.3,1.7,0.3c0.9,0,1.7-0.4,2.3-1.1c0.6-0.7,1-1.7,1-3      c0-1.2-0.3-2.2-0.8-2.8C90.5,106.6,89.7,106.2,88.8,106.2z"/>
				<path class="st6" d="M101.9,104c1.9,0,3.4,0.6,4.4,1.7s1.5,2.5,1.5,4.2c0,1.1-0.2,2-0.6,2.8s-0.9,1.5-1.5,2s-1.4,0.9-2.1,1.1      c-0.8,0.3-1.6,0.4-2.4,0.4c-0.6,0-1.1-0.1-1.5-0.2v5c0,0.1-0.1,0.2-0.2,0.2c-0.3,0-0.6,0.1-1.1,0.1c-0.4,0-0.8,0.1-1.2,0.1      c-0.3,0-0.5,0-0.5,0c-0.1,0-0.1-0.1-0.1-0.2v-14.8c0-0.5,0-1-0.1-1.5c0-0.1,0-0.1,0.1-0.1C98.7,104.3,100.4,104,101.9,104z       M101.6,106.2c-0.6,0-1.3,0.1-1.8,0.3v7.3c0.5,0.2,1.1,0.3,1.7,0.3c0.9,0,1.7-0.4,2.3-1.1c0.6-0.7,1-1.7,1-3      c0-1.2-0.3-2.2-0.8-2.8C103.3,106.6,102.5,106.2,101.6,106.2z"/>
				<path class="st6" d="M39.4,129.2V145c0,0.1-0.1,0.2-0.2,0.2h-2.7c-0.1,0-0.2-0.1-0.2-0.2v-15.8c0-0.1,0.1-0.2,0.2-0.2h2.7      C39.3,129,39.4,129.1,39.4,129.2z"/>
				<path class="st6" d="M41.9,145v-8.8c0-1.1,0-1.9-0.1-2.6c0-0.1,0-0.2,0.1-0.2h2.3c0.1,0,0.2,0.1,0.3,0.2c0.1,0.2,0.1,0.6,0.2,1      c1-0.9,2.2-1.4,3.5-1.4c1.1,0,2.1,0.4,2.9,1.1s1.2,2,1.2,3.7v7c0,0.1-0.1,0.2-0.2,0.2h-2.7c-0.1,0-0.2-0.1-0.2-0.2v-7.1      c0-0.7-0.2-1.3-0.5-1.8c-0.3-0.4-0.8-0.6-1.5-0.6c-0.9,0-1.7,0.4-2.3,1.1v8.4c0,0.1-0.1,0.2-0.2,0.2H42      C41.9,145.2,41.9,145.1,41.9,145z"/>
				<path class="st6" d="M60.3,143.3v1.5c0,0.2,0,0.3-0.1,0.3c-0.6,0.3-1.3,0.4-2.2,0.4c-2.2,0-3.2-1.1-3.2-3.4v-6.4h-1.6      c-0.1,0-0.2-0.1-0.2-0.2v-1.8c0-0.1,0.1-0.2,0.2-0.2h1.5c0.1-1.5,0.2-2.5,0.3-3c0-0.1,0.1-0.2,0.2-0.2l2.6-0.3      c0.1,0,0.2,0,0.2,0.1c-0.1,0.7-0.1,1.9-0.1,3.4h2.3c0.1,0,0.2,0.1,0.2,0.2v1.8c0,0.1,0,0.2-0.1,0.2h-2.4v6.1      c0,0.6,0.1,1,0.3,1.2c0.2,0.3,0.6,0.4,1.1,0.4c0.3,0,0.7-0.1,1-0.2C60.3,143.1,60.3,143.1,60.3,143.3z"/>
				<path class="st6" d="M68.9,139.9H64c0,1,0.3,1.8,0.9,2.4s1.5,0.9,2.7,0.9s2.2-0.2,3-0.6c0.1,0,0.1,0,0.1,0.1v1.8      c0,0.1,0,0.2-0.1,0.3c-1,0.5-2.2,0.7-3.7,0.7c-1.1,0-2-0.2-2.8-0.5s-1.4-0.8-1.9-1.4s-0.8-1.2-1-1.9s-0.3-1.4-0.3-2.2      c0-1.8,0.5-3.3,1.5-4.5s2.4-1.8,4.2-1.8c1.7,0,2.9,0.5,3.8,1.5c0.8,1,1.3,2.2,1.3,3.5c0,0.5,0,1-0.1,1.4c0,0.1-0.1,0.2-0.2,0.2      C71,139.8,70.1,139.9,68.9,139.9z M64,138h3.5c0.8,0,1.2,0,1.3,0c0-0.1,0-0.2,0-0.3c0-0.6-0.2-1.2-0.5-1.7s-0.9-0.7-1.7-0.7      c-0.8,0-1.4,0.3-1.8,0.8C64.3,136.5,64.1,137.2,64,138z"/>
				<path class="st6" d="M83.9,133.6v1.8c0,0.1-0.1,0.2-0.2,0.2l-1.9-0.1c0.4,0.4,0.6,1.1,0.6,1.9c0,1.2-0.4,2.2-1.3,2.8      c-0.9,0.7-2,1-3.4,1c-0.4,0-0.6,0-0.9-0.1c-0.4,0.3-0.6,0.6-0.6,1c0,0.5,0.2,0.8,0.7,1h2.2c3.4,0,5.2,1.2,5.2,3.5      c0,1.2-0.6,2.3-1.7,3.2s-2.7,1.3-4.5,1.3s-3.3-0.4-4.3-1.1s-1.5-1.6-1.5-2.7c0-1,0.7-2,2.2-2.8c-0.7-0.5-1-1.1-1-1.8      c0-0.8,0.4-1.4,1.3-2c-1.3-0.6-2-1.8-2-3.4c0-1.2,0.4-2.1,1.3-2.9s2.1-1.2,3.6-1.2c0.9,0,1.7,0.1,2.2,0.2c0.1,0,0.3,0,0.6,0h3.4      C83.9,133.4,83.9,133.4,83.9,133.6z M81.3,147c0-1.2-1-1.7-3-1.7c-0.9,0-1.5,0-1.9,0.1c-0.8,0.5-1.2,1-1.2,1.7      c0,0.6,0.3,1,0.8,1.4s1.3,0.6,2.2,0.6c1,0,1.8-0.2,2.3-0.6C81,148,81.3,147.5,81.3,147z M79.6,137.2c0-0.7-0.2-1.2-0.5-1.6      s-0.8-0.6-1.4-0.6s-1.1,0.2-1.4,0.6c-0.4,0.4-0.6,0.9-0.6,1.6s0.2,1.2,0.5,1.6c0.4,0.4,0.8,0.6,1.4,0.6s1.1-0.2,1.4-0.6      C79.4,138.5,79.6,137.9,79.6,137.2z"/>
				<path class="st6" d="M85.1,133.4h2.4c0.1,0,0.2,0.1,0.3,0.2c0.1,0.3,0.2,0.8,0.3,1.4c1-1.2,2.3-1.9,3.9-1.9      c0.1,0,0.2,0.1,0.2,0.2v2.5c0,0.1-0.1,0.2-0.2,0.2c-1.5-0.1-2.6,0.3-3.5,1.2c-0.1,0.1-0.2,0.3-0.2,0.6v7.2      c0,0.1-0.1,0.2-0.2,0.2h-2.9c-0.1,0-0.2-0.1-0.2-0.2v-8.2c0-1.3,0-2.4-0.1-3.3C84.9,133.4,84.9,133.4,85.1,133.4z"/>
				<path class="st6" d="M102.1,137.9v4.7c0,0.7,0,1.2,0.1,1.6c0,0,0,0.1-0.1,0.1c-1.7,0.8-3.4,1.2-5.2,1.2c-1.4,0-2.6-0.3-3.5-1      c-0.9-0.6-1.3-1.6-1.3-2.9c0-1.2,0.5-2.2,1.5-2.8c1-0.6,2.4-1,4-1c0.3,0,0.6,0,0.9,0c0.4,0,0.6,0,0.6,0v-0.4      c0-0.3,0-0.5-0.1-0.8s-0.3-0.5-0.7-0.8c-0.4-0.3-0.9-0.4-1.6-0.4c-1.1,0-2.2,0.3-3.3,0.9c-0.1,0.1-0.2,0-0.2-0.1v-1.9      c0-0.1,0-0.2,0.1-0.2c1.1-0.6,2.5-0.9,4-0.9c1.6,0,2.8,0.4,3.6,1.3C101.7,135.3,102.1,136.5,102.1,137.9z M99.1,143.1v-3.4      c-0.3-0.1-0.7-0.1-1.4-0.1c-0.9,0-1.5,0.2-2,0.5s-0.7,0.8-0.7,1.4s0.2,1,0.6,1.4s1,0.5,1.8,0.5      C98.1,143.4,98.6,143.3,99.1,143.1z"/>
				<path class="st6" d="M110.1,143.3v1.5c0,0.2,0,0.3-0.1,0.3c-0.6,0.3-1.3,0.4-2.2,0.4c-2.2,0-3.2-1.1-3.2-3.4v-6.4h-1.5      c-0.1,0-0.2-0.1-0.2-0.2v-1.8c0-0.1,0.1-0.2,0.2-0.2h1.5c0.1-1.5,0.2-2.5,0.3-3c0-0.1,0.1-0.2,0.2-0.2l2.6-0.3      c0.1,0,0.2,0,0.2,0.1c-0.1,0.7-0.1,1.9-0.1,3.4h2.3c0.1,0,0.2,0.1,0.2,0.2v1.8c0,0.1,0,0.2-0.1,0.2h-2.4v6.1      c0,0.6,0.1,1,0.3,1.2c0.2,0.3,0.6,0.4,1.1,0.4c0.3,0,0.7-0.1,1-0.2C110.1,143.1,110.1,143.1,110.1,143.3z"/>
				<path class="st6" d="M114,130.9c-0.3,0.3-0.7,0.4-1.2,0.4s-0.9-0.1-1.2-0.4c-0.3-0.3-0.4-0.7-0.4-1.2s0.2-0.9,0.5-1.2      c0.3-0.3,0.7-0.5,1.2-0.5s0.9,0.2,1.2,0.5c0.3,0.3,0.4,0.7,0.4,1.2C114.4,130.2,114.3,130.6,114,130.9z M111.2,145v-11.4      c0-0.1,0.1-0.2,0.2-0.2h2.7c0.1,0,0.2,0.1,0.2,0.2V145c0,0.1-0.1,0.2-0.2,0.2h-2.7C111.3,145.2,111.2,145.1,111.2,145z"/>
				<path class="st6" d="M122,133.2c1.8,0,3.3,0.6,4.3,1.7c1.1,1.2,1.6,2.6,1.6,4.4c0,1.9-0.6,3.4-1.7,4.5s-2.5,1.7-4.3,1.7      c-2,0-3.5-0.6-4.5-1.8c-1-1.2-1.5-2.6-1.5-4.4s0.6-3.3,1.7-4.4C118.7,133.7,120.2,133.2,122,133.2z M121.9,135.3      c-0.8,0-1.5,0.4-2,1.1s-0.8,1.7-0.8,2.9c0,1.2,0.3,2.2,0.8,3c0.5,0.7,1.2,1.1,2.2,1.1c0.8,0,1.5-0.3,2-1s0.8-1.7,0.8-3      c0-1.2-0.2-2.2-0.7-2.9S122.8,135.3,121.9,135.3z"/>
				<path class="st6" d="M129.5,145v-8.8c0-1.1,0-1.9-0.1-2.6c0-0.1,0-0.2,0.1-0.2h2.3c0.1,0,0.2,0.1,0.3,0.2c0.1,0.2,0.1,0.6,0.2,1      c1-0.9,2.2-1.4,3.5-1.4c1.1,0,2.1,0.4,2.9,1.1s1.2,2,1.2,3.7v7c0,0.1-0.1,0.2-0.2,0.2H137c-0.1,0-0.2-0.1-0.2-0.2v-7.1      c0-0.7-0.2-1.3-0.5-1.8c-0.3-0.4-0.8-0.6-1.5-0.6c-0.9,0-1.7,0.4-2.3,1.1v8.4c0,0.1-0.1,0.2-0.2,0.2h-2.7      C129.6,145.2,129.5,145.1,129.5,145z"/>
			</g>
		</g>
		<g>
			<circle class="st5" cx="315.3" cy="108.7" r="88"/>
			<g>
				<g>
					<path class="st6" d="M265.8,111.6h-5.6l-1.4,4.3c0,0.1-0.1,0.2-0.3,0.2h-2.6c-0.2,0-0.2-0.1-0.2-0.2l5.1-14.4       c0.1-0.2,0.2-0.7,0.2-1.4c0-0.1,0.1-0.1,0.2-0.1h3.5c0.1,0,0.1,0,0.2,0.1l5.6,15.8c0,0.1,0,0.2-0.1,0.2h-2.9       c-0.1,0-0.2-0.1-0.2-0.2L265.8,111.6z M260.8,109.3h4.4c-0.1-0.2-0.4-1.3-1-3.1c-0.6-1.8-1-3.1-1.2-3.8l0,0       C262.8,103.2,262.1,105.5,260.8,109.3z"/>
					<path class="st6" d="M277.1,104c1.9,0,3.4,0.6,4.4,1.7s1.5,2.5,1.5,4.2c0,1.1-0.2,2-0.6,2.8c-0.4,0.8-0.9,1.5-1.5,2       s-1.4,0.9-2.1,1.1c-0.8,0.3-1.6,0.4-2.4,0.4c-0.6,0-1.1-0.1-1.5-0.2v5c0,0.1-0.1,0.2-0.2,0.2c-0.3,0-0.6,0.1-1.1,0.1       c-0.4,0-0.8,0.1-1.2,0.1c-0.3,0-0.5,0-0.5,0c-0.1,0-0.1-0.1-0.1-0.2v-14.8c0-0.5,0-1-0.1-1.5c0-0.1,0-0.1,0.1-0.1       C273.9,104.3,275.6,104,277.1,104z M276.8,106.2c-0.6,0-1.3,0.1-1.8,0.3v7.3c0.5,0.2,1.1,0.3,1.7,0.3c0.9,0,1.7-0.4,2.3-1.1       s1-1.7,1-3c0-1.2-0.3-2.2-0.8-2.8C278.5,106.6,277.7,106.2,276.8,106.2z"/>
					<path class="st6" d="M289.9,104c1.9,0,3.4,0.6,4.4,1.7s1.5,2.5,1.5,4.2c0,1.1-0.2,2-0.6,2.8c-0.4,0.8-0.9,1.5-1.5,2       s-1.4,0.9-2.1,1.1c-0.8,0.3-1.6,0.4-2.4,0.4c-0.6,0-1.1-0.1-1.5-0.2v5c0,0.1-0.1,0.2-0.2,0.2c-0.3,0-0.6,0.1-1.1,0.1       c-0.4,0-0.8,0.1-1.2,0.1c-0.3,0-0.5,0-0.5,0c-0.1,0-0.1-0.1-0.1-0.2v-14.8c0-0.5,0-1-0.1-1.5c0-0.1,0-0.1,0.1-0.1       C286.7,104.3,288.4,104,289.9,104z M289.6,106.2c-0.6,0-1.3,0.1-1.8,0.3v7.3c0.5,0.2,1.1,0.3,1.7,0.3c0.9,0,1.7-0.4,2.3-1.1       s1-1.7,1-3c0-1.2-0.3-2.2-0.8-2.8C291.3,106.6,290.5,106.2,289.6,106.2z"/>
					<path class="st6" d="M302.3,115.9v-15.8c0-0.1,0.1-0.2,0.2-0.2c1.2,0,2.8,0,4.7,0c2.2,0,3.9,0.5,4.9,1.5s1.6,2.2,1.6,3.7       c0,1.8-0.6,3.2-1.9,4.1c-1.3,0.9-2.9,1.3-4.9,1.3h-1.4v5.4c0,0.1-0.1,0.2-0.2,0.2h-2.7C302.4,116.1,302.3,116,302.3,115.9z        M305.4,102.2v6c0.2,0,0.8,0,1.6,0c1.1,0,2-0.2,2.6-0.7s1-1.3,1-2.3s-0.3-1.7-0.9-2.2c-0.6-0.5-1.4-0.8-2.6-0.8       c-0.3,0-0.5,0-0.8,0s-0.5,0-0.7,0S305.4,102.2,305.4,102.2z"/>
					<path class="st6" d="M320.7,104c1.8,0,3.3,0.6,4.3,1.7c1.1,1.2,1.6,2.6,1.6,4.4c0,1.9-0.6,3.4-1.7,4.5       c-1.1,1.1-2.5,1.7-4.3,1.7c-2,0-3.5-0.6-4.5-1.8c-1-1.2-1.5-2.6-1.5-4.4s0.6-3.3,1.7-4.4C317.4,104.6,318.9,104,320.7,104z        M320.6,106.1c-0.8,0-1.5,0.4-2,1.1s-0.8,1.7-0.8,2.9c0,1.2,0.3,2.2,0.8,3c0.5,0.7,1.2,1.1,2.2,1.1c0.8,0,1.5-0.3,2-1       s0.8-1.7,0.8-3c0-1.2-0.2-2.2-0.7-2.9C322.3,106.5,321.5,106.1,320.6,106.1z"/>
					<path class="st6" d="M334.8,107c-0.9-0.6-1.9-0.9-2.8-0.9c-0.6,0-1,0.1-1.3,0.3c-0.3,0.2-0.4,0.5-0.4,0.8s0.1,0.5,0.3,0.8       c0.2,0.2,0.7,0.5,1.4,0.8c1.3,0.5,2.3,1.1,2.8,1.6c0.5,0.6,0.8,1.3,0.8,2.2c0,1.1-0.4,2-1.3,2.7c-0.8,0.7-2,1-3.4,1       s-2.6-0.3-3.5-0.8c-0.1,0-0.1-0.1-0.1-0.2V113c0-0.1,0-0.1,0.1-0.1h0.1c1.1,0.8,2.2,1.2,3.4,1.2c0.6,0,1-0.1,1.3-0.3       c0.3-0.2,0.4-0.5,0.4-0.8s-0.1-0.6-0.4-0.9s-0.7-0.5-1.4-0.8c-1.3-0.5-2.2-1-2.7-1.6s-0.8-1.3-0.8-2.2c0-1,0.4-1.8,1.1-2.5       c0.8-0.7,1.8-1,3.3-1c1.3,0,2.3,0.2,3,0.5c0.1,0,0.1,0.2,0.1,0.3v2C335,107.1,334.9,107.1,334.8,107z"/>
					<path class="st6" d="M342.8,114.1v1.5c0,0.2,0,0.3-0.1,0.3c-0.6,0.3-1.3,0.4-2.2,0.4c-2.2,0-3.2-1.1-3.2-3.4v-6.4h-1.5       c-0.1,0-0.2-0.1-0.2-0.2v-1.8c0-0.1,0.1-0.2,0.2-0.2h1.5c0.1-1.5,0.2-2.5,0.3-3c0-0.1,0.1-0.2,0.2-0.2l2.6-0.3       c0.1,0,0.2,0,0.2,0.1c-0.1,0.7-0.1,1.9-0.1,3.4h2.3c0.1,0,0.2,0.1,0.2,0.2v1.8c0,0.1,0,0.2-0.1,0.2h-2.4v6.1       c0,0.6,0.1,1,0.3,1.2c0.2,0.3,0.6,0.4,1.1,0.4c0.3,0,0.7-0.1,1-0.2C342.8,113.9,342.8,114,342.8,114.1z"/>
					<path class="st6" d="M354.3,104.4v9c0,1,0,1.8,0.1,2.5c0,0.1-0.1,0.2-0.2,0.2h-2.4c-0.1,0-0.2-0.1-0.3-0.2       c-0.1-0.3-0.1-0.5-0.1-0.8c-0.9,0.8-2,1.2-3.4,1.2c-2.7,0-4.1-1.5-4.1-4.6v-7.2c0-0.1,0.1-0.2,0.2-0.2h2.7       c0.1,0,0.2,0.1,0.2,0.2v7c0,1.7,0.7,2.5,2,2.5c0.9,0,1.6-0.3,2.2-0.9v-8.6c0-0.1,0.1-0.2,0.2-0.2h2.7       C354.2,104.2,354.3,104.3,354.3,104.4z"/>
					<path class="st6" d="M356.4,104.2h2.4c0.1,0,0.2,0.1,0.3,0.2c0.1,0.3,0.2,0.8,0.3,1.4c1-1.2,2.3-1.9,3.9-1.9       c0.1,0,0.2,0.1,0.2,0.2v2.5c0,0.1-0.1,0.2-0.2,0.2c-1.5-0.1-2.6,0.3-3.5,1.2c-0.1,0.1-0.2,0.3-0.2,0.6v7.2       c0,0.1-0.1,0.2-0.2,0.2h-2.7c-0.1,0-0.2-0.1-0.2-0.2v-8.2c0-1.3,0-2.4-0.1-3.3C356.3,104.3,356.3,104.2,356.4,104.2z"/>
					<path class="st6" d="M371.7,110.7h-4.9c0,1,0.3,1.8,0.9,2.4s1.5,0.9,2.7,0.9s2.2-0.2,3-0.6c0.1,0,0.1,0,0.1,0.1v1.8       c0,0.1,0,0.2-0.1,0.3c-1,0.5-2.2,0.7-3.7,0.7c-1.1,0-2-0.2-2.8-0.5s-1.4-0.8-1.9-1.4s-0.8-1.2-1-1.9c-0.2-0.7-0.3-1.4-0.3-2.2       c0-1.8,0.5-3.3,1.5-4.5s2.4-1.8,4.2-1.8c1.7,0,2.9,0.5,3.8,1.5c0.8,1,1.3,2.2,1.3,3.5c0,0.5,0,1-0.1,1.4c0,0.1-0.1,0.2-0.2,0.2       C373.8,110.7,372.9,110.7,371.7,110.7z M366.8,108.8h3.5c0.8,0,1.2,0,1.3,0c0-0.1,0-0.2,0-0.3c0-0.6-0.2-1.2-0.5-1.7       s-0.9-0.7-1.7-0.7s-1.4,0.3-1.8,0.8C367.2,107.4,366.9,108,366.8,108.8z"/>
				</g>
			</g>
		</g>
		<circle class="st5" cx="542.6" cy="108.7" r="88"/>
		<g>
			<g>
				<path class="st6" d="M485.3,116.1h-2.6c-0.1,0-0.2-0.1-0.2-0.2v-15.8c0-0.1,0.1-0.2,0.2-0.2c0.9,0,2.5,0,5,0      c1.9,0,3.5,0.4,4.5,1.2s1.6,1.9,1.6,3.5c0,2.1-1.1,3.5-3.3,4.3c0.5,0.5,1.3,1.7,2.5,3.4s2.1,2.9,2.5,3.7c0.1,0.2,0.1,0.3,0,0.3      h-3.3c-0.2,0-0.3,0-0.3-0.1c-0.3-0.4-0.9-1.3-1.9-2.9s-1.7-2.6-1.9-3c-0.2-0.3-0.4-0.5-0.8-0.5h-1.7v6.3      C485.5,116,485.4,116.1,485.3,116.1z M485.5,107.2h2c1.1,0,1.8-0.2,2.4-0.7c0.5-0.5,0.8-1.1,0.8-1.9s-0.3-1.4-0.8-1.9      c-0.5-0.4-1.3-0.7-2.4-0.7c-1.1,0-1.8,0-2,0V107.2z"/>
				<path class="st6" d="M499,101.8c-0.3,0.3-0.7,0.4-1.2,0.4s-0.9-0.1-1.2-0.4s-0.4-0.7-0.4-1.2s0.2-0.9,0.5-1.2      c0.3-0.3,0.7-0.5,1.2-0.5s0.9,0.2,1.2,0.5s0.4,0.7,0.4,1.2C499.4,101.1,499.3,101.5,499,101.8z M496.2,115.8v-11.4      c0-0.1,0.1-0.2,0.2-0.2h2.7c0.1,0,0.2,0.1,0.2,0.2v11.5c0,0.1-0.1,0.2-0.2,0.2h-2.7C496.3,116.1,496.2,116,496.2,115.8z"/>
				<path class="st6" d="M508.1,107c-0.9-0.6-1.9-0.9-2.8-0.9c-0.6,0-1,0.1-1.3,0.3c-0.3,0.2-0.4,0.5-0.4,0.8s0.1,0.5,0.3,0.8      c0.2,0.2,0.7,0.5,1.4,0.8c1.3,0.5,2.3,1.1,2.8,1.6c0.5,0.6,0.8,1.3,0.8,2.2c0,1.1-0.4,2-1.3,2.7c-0.8,0.7-2,1-3.4,1      s-2.6-0.3-3.5-0.8c-0.1,0-0.1-0.1-0.1-0.2V113c0-0.1,0-0.1,0.1-0.1h0.1c1.1,0.8,2.2,1.2,3.4,1.2c0.6,0,1-0.1,1.3-0.3      c0.3-0.2,0.5-0.5,0.5-0.8s-0.1-0.6-0.4-0.9s-0.7-0.5-1.4-0.8c-1.3-0.5-2.2-1-2.7-1.6s-0.8-1.3-0.8-2.2c0-1,0.4-1.8,1.1-2.5      c0.8-0.7,1.8-1,3.3-1c1.3,0,2.3,0.2,3,0.5c0.1,0,0.1,0.2,0.1,0.3v2C508.3,107.1,508.2,107.1,508.1,107z"/>
				<path class="st6" d="M510.2,98.7c0-0.1,0.1-0.2,0.2-0.2h2.7c0.1,0,0.2,0.1,0.2,0.2V109h0.3c0.2,0,0.4,0,0.5-0.1s0.2-0.1,0.4-0.3      c1.1-1.3,2.2-2.7,3.3-4.2c0.1-0.1,0.2-0.2,0.3-0.2h2.8c0.2,0,0.2,0.1,0.1,0.2c-0.3,0.4-1,1.3-2.3,2.7c-1.3,1.4-2,2.3-2.2,2.6      c-0.1,0-0.1,0.1,0,0.2c2.4,2.8,4.2,4.7,5.2,6v0.1l-0.1,0.1h-3.4c-0.1,0-0.3-0.1-0.3-0.2c-0.8-1-1.9-2.4-3.4-4.3      c-0.2-0.2-0.3-0.3-0.4-0.4c-0.1,0-0.2-0.1-0.4-0.1h-0.2v4.7c0,0.1-0.1,0.2-0.2,0.2h-2.7c-0.1,0-0.2-0.1-0.2-0.2V98.7H510.2z"/>
				<path class="st6" d="M535.9,111.6h-5.7l-1.4,4.3c0,0.1-0.1,0.2-0.3,0.2h-2.6c-0.2,0-0.2-0.1-0.2-0.2l5.1-14.4      c0.1-0.2,0.2-0.7,0.2-1.4c0-0.1,0.1-0.1,0.2-0.1h3.5c0.1,0,0.1,0,0.2,0.1l5.6,15.8c0,0.1,0,0.2-0.1,0.2h-2.9      c-0.1,0-0.2-0.1-0.2-0.2L535.9,111.6z M530.8,109.3h4.4c-0.1-0.2-0.4-1.3-1-3.1c-0.6-1.8-1-3.1-1.2-3.8l0,0      C532.8,103.2,532.1,105.5,530.8,109.3z"/>
				<path class="st6" d="M541.9,115.8V107c0-1.1,0-1.9-0.1-2.6c0-0.1,0-0.2,0.1-0.2h2.3c0.1,0,0.2,0.1,0.3,0.2      c0.1,0.2,0.1,0.6,0.2,1c1-0.9,2.2-1.4,3.5-1.4c1.1,0,2.1,0.4,2.9,1.1c0.8,0.7,1.2,2,1.2,3.7v7c0,0.1-0.1,0.2-0.2,0.2h-2.7      c-0.1,0-0.2-0.1-0.2-0.2v-7.1c0-0.7-0.2-1.3-0.5-1.7c-0.3-0.4-0.8-0.6-1.5-0.6c-0.9,0-1.7,0.4-2.3,1.1v8.4      c0,0.1-0.1,0.2-0.2,0.2H542C541.9,116.1,541.9,116,541.9,115.8z"/>
				<path class="st6" d="M563.7,108.7v4.7c0,0.7,0,1.2,0.1,1.6c0,0,0,0.1-0.1,0.1c-1.7,0.8-3.4,1.2-5.2,1.2c-1.4,0-2.6-0.3-3.5-1      c-0.9-0.6-1.3-1.6-1.3-2.9c0-1.2,0.5-2.2,1.5-2.8c1-0.6,2.4-1,4-1c0.3,0,0.6,0,0.9,0c0.4,0,0.6,0,0.6,0v-0.4      c0-0.3,0-0.5-0.1-0.8s-0.3-0.5-0.7-0.8s-0.9-0.4-1.6-0.4c-1.1,0-2.2,0.3-3.3,0.9c-0.1,0.1-0.2,0-0.2-0.1v-1.9      c0-0.1,0-0.2,0.1-0.2c1.1-0.6,2.5-0.9,4-0.9c1.6,0,2.8,0.4,3.6,1.3C563.3,106.2,563.7,107.3,563.7,108.7z M560.8,113.9v-3.4      c-0.3-0.1-0.7-0.1-1.4-0.1c-0.9,0-1.5,0.2-2,0.5s-0.7,0.8-0.7,1.4s0.2,1,0.6,1.4c0.4,0.4,1,0.5,1.8,0.5      C559.7,114.2,560.3,114.1,560.8,113.9z"/>
				<path class="st6" d="M565.9,113.3V98.8c0-0.1,0.1-0.2,0.2-0.2h2.6c0.1,0,0.2,0.1,0.2,0.2v14.5c0,0.3,0.1,0.6,0.2,0.7      c0.1,0.1,0.3,0.2,0.5,0.2c0.1,0,0.3,0,0.5,0c0.1,0,0.1,0,0.1,0.1v1.6c0,0.1,0,0.2-0.1,0.3c-0.4,0.2-0.9,0.2-1.6,0.2      c-0.9,0-1.5-0.2-2-0.7C566.1,115.2,565.9,114.4,565.9,113.3z"/>
				<path class="st6" d="M570.2,104.2h3c0.1,0,0.2,0.1,0.2,0.2c1.6,4.2,2.5,6.7,2.8,7.6l0,0c0.6-1.7,1.5-4.2,2.6-7.6      c0-0.1,0.1-0.2,0.2-0.2h2.5c0.2,0,0.2,0.1,0.1,0.2c-0.9,2.8-2.2,6.1-3.9,10c-1.6,3.7-2.7,6-3.3,6.9c0,0.1-0.2,0.2-0.3,0.2h-2.7      c-0.1,0-0.2-0.1-0.1-0.2c0.9-1.6,2-3.6,3.2-6.1c0.1-0.1,0.1-0.3,0-0.4c-0.2-0.6-1-2.3-2.3-5.2c-1.3-2.9-2-4.6-2.2-5.1      C570,104.3,570.1,104.2,570.2,104.2z"/>
				<path class="st6" d="M589,107c-0.9-0.6-1.9-0.9-2.8-0.9c-0.6,0-1,0.1-1.3,0.3c-0.3,0.2-0.4,0.5-0.4,0.8s0.1,0.5,0.3,0.8      c0.2,0.2,0.7,0.5,1.4,0.8c1.3,0.5,2.3,1.1,2.8,1.6c0.5,0.6,0.8,1.3,0.8,2.2c0,1.1-0.4,2-1.3,2.7c-0.8,0.7-2,1-3.4,1      s-2.6-0.3-3.5-0.8c-0.1,0-0.1-0.1-0.1-0.2V113c0-0.1,0-0.1,0.1-0.1h0.1c1.1,0.8,2.2,1.2,3.4,1.2c0.6,0,1-0.1,1.3-0.3      c0.3-0.2,0.4-0.5,0.4-0.8s-0.1-0.6-0.4-0.9s-0.7-0.5-1.4-0.8c-1.3-0.5-2.2-1-2.7-1.6s-0.8-1.3-0.8-2.2c0-1,0.4-1.8,1.1-2.5      c0.8-0.7,1.8-1,3.3-1c1.3,0,2.3,0.2,3,0.5c0.1,0,0.1,0.2,0.1,0.3v2C589.2,107.1,589.2,107.1,589,107z"/>
				<path class="st6" d="M593.9,101.8c-0.3,0.3-0.7,0.4-1.2,0.4s-0.9-0.1-1.2-0.4s-0.4-0.7-0.4-1.2s0.2-0.9,0.5-1.2      c0.3-0.3,0.7-0.5,1.2-0.5s0.9,0.2,1.2,0.5s0.4,0.7,0.4,1.2C594.4,101.1,594.2,101.5,593.9,101.8z M591.2,115.8v-11.4      c0-0.1,0.1-0.2,0.2-0.2h2.7c0.1,0,0.2,0.1,0.2,0.2v11.5c0,0.1-0.1,0.2-0.2,0.2h-2.7C591.3,116.1,591.2,116,591.2,115.8z"/>
				<path class="st6" d="M603,107c-0.9-0.6-1.9-0.9-2.8-0.9c-0.6,0-1,0.1-1.3,0.3c-0.3,0.2-0.4,0.5-0.4,0.8s0.1,0.5,0.3,0.8      c0.2,0.2,0.7,0.5,1.4,0.8c1.3,0.5,2.3,1.1,2.8,1.6c0.5,0.6,0.8,1.3,0.8,2.2c0,1.1-0.4,2-1.3,2.7c-0.8,0.7-2,1-3.4,1      s-2.6-0.3-3.5-0.8c-0.1,0-0.1-0.1-0.1-0.2V113c0-0.1,0-0.1,0.1-0.1h0.1c1.1,0.8,2.2,1.2,3.4,1.2c0.6,0,1-0.1,1.3-0.3      c0.3-0.2,0.4-0.5,0.4-0.8s-0.1-0.6-0.4-0.9s-0.7-0.5-1.4-0.8c-1.3-0.5-2.2-1-2.7-1.6s-0.8-1.3-0.8-2.2c0-1,0.4-1.8,1.1-2.5      c0.8-0.7,1.8-1,3.3-1c1.3,0,2.3,0.2,3,0.5c0.1,0,0.1,0.2,0.1,0.3v2C603.2,107.1,603.1,107.1,603,107z"/>
			</g>
		</g>
		<g>
			<circle class="st5" cx="769.8" cy="108.7" r="88"/>
			<g>
				<g>
					<path class="st6" d="M711.7,116.1h-2.6c-0.1,0-0.2-0.1-0.2-0.2v-15.8c0-0.1,0.1-0.2,0.2-0.2c0.9,0,2.5,0,5,0       c1.9,0,3.5,0.4,4.5,1.2s1.6,1.9,1.6,3.5c0,2.1-1.1,3.5-3.3,4.3c0.5,0.5,1.3,1.7,2.5,3.4c1.2,1.7,2.1,2.9,2.5,3.7       c0.1,0.2,0.1,0.3,0,0.3h-3.2c-0.2,0-0.3,0-0.3-0.1c-0.3-0.4-0.9-1.3-1.9-2.9s-1.7-2.6-1.9-3c-0.2-0.3-0.4-0.5-0.8-0.5h-1.7v6.3       C711.9,116,711.8,116.1,711.7,116.1z M711.9,107.2h2c1.1,0,1.8-0.2,2.4-0.7c0.5-0.5,0.8-1.1,0.8-1.9s-0.3-1.4-0.8-1.9       c-0.5-0.4-1.3-0.7-2.4-0.7c-1.1,0-1.8,0-2,0V107.2z"/>
					<path class="st6" d="M730.1,110.7h-4.9c0,1,0.3,1.8,0.9,2.4s1.5,0.9,2.7,0.9s2.2-0.2,3-0.6c0.1,0,0.1,0,0.1,0.1v1.8       c0,0.1,0,0.2-0.1,0.3c-1,0.5-2.2,0.7-3.7,0.7c-1.1,0-2-0.2-2.8-0.5s-1.4-0.8-1.9-1.4s-0.8-1.2-1-1.9c-0.2-0.7-0.3-1.4-0.3-2.2       c0-1.8,0.5-3.3,1.5-4.5s2.4-1.8,4.2-1.8c1.7,0,2.9,0.5,3.8,1.5c0.8,1,1.3,2.2,1.3,3.5c0,0.5,0,1-0.1,1.4c0,0.1-0.1,0.2-0.2,0.2       C732.2,110.7,731.3,110.7,730.1,110.7z M725.2,108.8h3.5c0.8,0,1.2,0,1.3,0c0-0.1,0-0.2,0-0.3c0-0.6-0.2-1.2-0.5-1.7       s-0.9-0.7-1.7-0.7c-0.8,0-1.4,0.3-1.8,0.8C725.6,107.4,725.3,108,725.2,108.8z"/>
					<path class="st6" d="M737.3,116.1h-2.7c-0.1,0-0.2-0.1-0.2-0.2v-9c0-0.4,0-1.2-0.1-2.4c0-0.1,0-0.2,0.2-0.2h2.4       c0.1,0,0.2,0.1,0.2,0.2c0.1,0.1,0.1,0.4,0.2,0.9c1-0.9,2.2-1.3,3.5-1.3c1.5,0,2.5,0.5,3.2,1.6c1.2-1.1,2.5-1.6,4-1.6       c1.2,0,2.2,0.4,3,1.1s1.2,2,1.2,3.6v7.1c0,0.1-0.1,0.2-0.2,0.2h-2.6c-0.1,0-0.2-0.1-0.2-0.2v-7.1c0-0.7-0.2-1.3-0.5-1.7       s-0.8-0.7-1.5-0.7c-0.9,0-1.7,0.4-2.3,1.1c0,0.3,0.1,0.7,0.1,1.3v7.1c0,0.1-0.1,0.2-0.2,0.2h-2.6c-0.2,0-0.2-0.1-0.2-0.2v-7.1       c0-0.8-0.2-1.4-0.5-1.8s-0.8-0.6-1.5-0.6c-0.9,0-1.6,0.3-2.2,1v8.5C737.5,116,737.4,116.1,737.3,116.1z"/>
					<path class="st6" d="M761.7,110.7h-4.9c0,1,0.3,1.8,0.9,2.4s1.5,0.9,2.7,0.9s2.2-0.2,3-0.6c0.1,0,0.1,0,0.1,0.1v1.8       c0,0.1,0,0.2-0.1,0.3c-1,0.5-2.2,0.7-3.7,0.7c-1.1,0-2-0.2-2.8-0.5s-1.4-0.8-1.9-1.4s-0.8-1.2-1-1.9c-0.2-0.7-0.3-1.4-0.3-2.2       c0-1.8,0.5-3.3,1.5-4.5s2.4-1.8,4.2-1.8c1.7,0,2.9,0.5,3.8,1.5c0.8,1,1.3,2.2,1.3,3.5c0,0.5,0,1-0.1,1.4c0,0.1-0.1,0.2-0.2,0.2       C763.8,110.7,763,110.7,761.7,110.7z M756.9,108.8h3.5c0.8,0,1.2,0,1.3,0c0-0.1,0-0.2,0-0.3c0-0.6-0.2-1.2-0.5-1.7       s-0.9-0.7-1.7-0.7c-0.8,0-1.4,0.3-1.8,0.8C757.2,107.4,756.9,108,756.9,108.8z"/>
					<path class="st6" d="M771.7,116.3c-1.9,0-3.4-0.5-4.5-1.5s-1.7-2.5-1.7-4.5c0-1.8,0.6-3.3,1.8-4.5c1.2-1.2,2.9-1.8,4.9-1.8       c0.6,0,1,0,1.4,0.1v-5.4c0-0.1,0.1-0.2,0.2-0.2h2.8c0.1,0,0.1,0,0.1,0.1v14.7c0,0.3,0,0.8,0.1,1.7c0,0.1,0,0.2-0.1,0.2       C775.1,115.9,773.5,116.3,771.7,116.3z M773.6,113.8v-7.4c-0.4-0.2-0.8-0.3-1.4-0.3c-1.1,0-1.9,0.3-2.6,1c-0.6,0.7-1,1.7-1,2.9       c0,1.3,0.3,2.3,1,3c0.6,0.6,1.5,1,2.5,1C772.7,114,773.2,114,773.6,113.8z"/>
					<path class="st6" d="M781.6,101.8c-0.3,0.3-0.7,0.4-1.2,0.4s-0.9-0.1-1.2-0.4c-0.3-0.3-0.4-0.7-0.4-1.2s0.2-0.9,0.5-1.2       c0.3-0.3,0.7-0.5,1.2-0.5s0.9,0.2,1.2,0.5c0.3,0.3,0.4,0.7,0.4,1.2C782,101.1,781.9,101.5,781.6,101.8z M778.8,115.8v-11.4       c0-0.1,0.1-0.2,0.2-0.2h2.7c0.1,0,0.2,0.1,0.2,0.2v11.5c0,0.1-0.1,0.2-0.2,0.2H779C778.9,116.1,778.8,116,778.8,115.8z"/>
					<path class="st6" d="M793.3,108.7v4.7c0,0.7,0,1.2,0.1,1.6c0,0,0,0.1-0.1,0.1c-1.7,0.8-3.4,1.2-5.2,1.2c-1.4,0-2.6-0.3-3.5-1       c-0.9-0.6-1.3-1.6-1.3-2.9c0-1.2,0.5-2.2,1.5-2.8c1-0.6,2.4-1,4-1c0.3,0,0.6,0,0.9,0c0.4,0,0.6,0,0.6,0v-0.4       c0-0.3,0-0.5-0.1-0.8s-0.3-0.5-0.7-0.8c-0.4-0.3-0.9-0.4-1.6-0.4c-1.1,0-2.2,0.3-3.3,0.9c-0.1,0.1-0.2,0-0.2-0.1v-1.9       c0-0.1,0-0.2,0.1-0.2c1.1-0.6,2.5-0.9,4-0.9c1.6,0,2.8,0.4,3.6,1.3C792.9,106.2,793.3,107.3,793.3,108.7z M790.3,113.9v-3.4       c-0.3-0.1-0.7-0.1-1.4-0.1c-0.9,0-1.5,0.2-2,0.5s-0.7,0.8-0.7,1.4s0.2,1,0.6,1.4s1,0.5,1.8,0.5       C789.2,114.2,789.8,114.1,790.3,113.9z"/>
					<path class="st6" d="M801.3,114.1v1.5c0,0.2,0,0.3-0.1,0.3c-0.6,0.3-1.3,0.4-2.2,0.4c-2.2,0-3.2-1.1-3.2-3.4v-6.4h-1.5       c-0.1,0-0.2-0.1-0.2-0.2v-1.8c0-0.1,0.1-0.2,0.2-0.2h1.5c0.1-1.5,0.2-2.5,0.3-3c0-0.1,0.1-0.2,0.2-0.2l2.6-0.3       c0.1,0,0.2,0,0.2,0.1c-0.1,0.7-0.1,1.9-0.1,3.4h2.3c0.1,0,0.2,0.1,0.2,0.2v1.8c0,0.1,0,0.2-0.1,0.2H799v6.1       c0,0.6,0.1,1,0.3,1.2c0.2,0.3,0.6,0.4,1.1,0.4c0.3,0,0.7-0.1,1-0.2C801.2,113.9,801.3,114,801.3,114.1z"/>
					<path class="st6" d="M805.2,101.8c-0.3,0.3-0.7,0.4-1.2,0.4s-0.9-0.1-1.2-0.4c-0.3-0.3-0.4-0.7-0.4-1.2s0.2-0.9,0.5-1.2       c0.3-0.3,0.7-0.5,1.2-0.5s0.9,0.2,1.2,0.5c0.3,0.3,0.4,0.7,0.4,1.2C805.6,101.1,805.5,101.5,805.2,101.8z M802.4,115.8v-11.4       c0-0.1,0.1-0.2,0.2-0.2h2.7c0.1,0,0.2,0.1,0.2,0.2v11.5c0,0.1-0.1,0.2-0.2,0.2h-2.7C802.5,116.1,802.4,116,802.4,115.8z"/>
					<path class="st6" d="M813.2,104c1.8,0,3.3,0.6,4.3,1.7c1.1,1.2,1.6,2.6,1.6,4.4c0,1.9-0.6,3.4-1.7,4.5s-2.5,1.7-4.3,1.7       c-2,0-3.5-0.6-4.5-1.8c-1-1.2-1.5-2.6-1.5-4.4s0.6-3.3,1.7-4.4C809.9,104.6,811.3,104,813.2,104z M813,106.1       c-0.8,0-1.5,0.4-2,1.1s-0.8,1.7-0.8,2.9c0,1.2,0.3,2.2,0.8,3s1.2,1.1,2.2,1.1c0.8,0,1.5-0.3,2-1s0.8-1.7,0.8-3       c0-1.2-0.2-2.2-0.7-2.9C814.7,106.5,814,106.1,813,106.1z"/>
					<path class="st6" d="M820.7,115.8V107c0-1.1,0-1.9-0.1-2.6c0-0.1,0-0.2,0.1-0.2h2.3c0.1,0,0.2,0.1,0.3,0.2       c0.1,0.2,0.1,0.6,0.2,1c1-0.9,2.2-1.4,3.5-1.4c1.1,0,2.1,0.4,2.9,1.1s1.2,2,1.2,3.7v7c0,0.1-0.1,0.2-0.2,0.2h-2.7       c-0.1,0-0.2-0.1-0.2-0.2v-7.1c0-0.7-0.2-1.3-0.5-1.7c-0.3-0.4-0.8-0.6-1.5-0.6c-0.9,0-1.7,0.4-2.3,1.1v8.4       c0,0.1-0.1,0.2-0.2,0.2h-2.7C820.7,116.1,820.7,116,820.7,115.8z"/>
					<path class="st6" d="M747.2,140.8h-5.6l-1.4,4.3c0,0.1-0.1,0.2-0.3,0.2h-2.6c-0.2,0-0.2-0.1-0.2-0.2l5.1-14.4       c0.1-0.2,0.2-0.7,0.2-1.4c0-0.1,0.1-0.1,0.2-0.1h3.5c0.1,0,0.1,0,0.2,0.1l5.6,15.8c0,0.1,0,0.2-0.1,0.2h-2.9       c-0.1,0-0.2-0.1-0.2-0.2L747.2,140.8z M742.2,138.4h4.4c-0.1-0.2-0.4-1.3-1-3.1c-0.6-1.8-1-3.1-1.2-3.8l0,0       C744.1,132.4,743.4,134.7,742.2,138.4z"/>
					<path class="st6" d="M758.9,145.5c-1.9,0-3.4-0.5-4.5-1.5s-1.7-2.5-1.7-4.5c0-1.8,0.6-3.3,1.8-4.5c1.2-1.2,2.9-1.8,4.9-1.8       c0.6,0,1,0,1.4,0.1v-5.4c0-0.1,0.1-0.2,0.2-0.2h2.8c0.1,0,0.1,0,0.1,0.1v14.7c0,0.3,0,0.8,0.1,1.7c0,0.1,0,0.2-0.1,0.2       C762.2,145.1,760.6,145.5,758.9,145.5z M760.7,142.9v-7.4c-0.4-0.2-0.8-0.3-1.4-0.3c-1.1,0-1.9,0.3-2.6,1c-0.6,0.7-1,1.7-1,2.9       c0,1.3,0.3,2.3,1,3c0.6,0.6,1.5,1,2.5,1C759.9,143.2,760.4,143.1,760.7,142.9z"/>
					<path class="st6" d="M771.8,145.2h-2.9c-0.1,0-0.2-0.1-0.2-0.2c-1.3-3.8-2.7-7.6-4-11.5c0-0.1,0-0.2,0.1-0.2h2.9       c0.1,0,0.2,0.1,0.2,0.2c1.4,4.7,2.3,7.8,2.6,9.1l0,0c0.3-1.4,1.2-4.4,2.7-9.1c0-0.1,0.1-0.2,0.2-0.2h2.6c0.1,0,0.2,0.1,0.1,0.2       c-0.2,0.7-0.9,2.5-2,5.5s-1.8,5-2.1,5.9C772,145.2,771.9,145.2,771.8,145.2z"/>
					<path class="st6" d="M779.7,130.9c-0.3,0.3-0.7,0.4-1.2,0.4s-0.9-0.1-1.2-0.4c-0.3-0.3-0.4-0.7-0.4-1.2s0.2-0.9,0.5-1.2       c0.3-0.3,0.7-0.5,1.2-0.5s0.9,0.2,1.2,0.5c0.3,0.3,0.4,0.7,0.4,1.2C780.1,130.2,780,130.6,779.7,130.9z M776.9,145v-11.4       c0-0.1,0.1-0.2,0.2-0.2h2.7c0.1,0,0.2,0.1,0.2,0.2V145c0,0.1-0.1,0.2-0.2,0.2h-2.7C777,145.2,776.9,145.1,776.9,145z"/>
					<path class="st6" d="M790.7,142.9v1.9c0,0.1,0,0.2-0.1,0.2c-0.7,0.3-1.6,0.4-2.8,0.4c-1.9,0-3.4-0.6-4.5-1.7s-1.6-2.6-1.6-4.4       s0.6-3.3,1.8-4.4c1.2-1.2,2.8-1.8,4.7-1.8c1.1,0,1.9,0.1,2.4,0.3c0.1,0.1,0.1,0.2,0.1,0.3v1.9c0,0.2-0.1,0.2-0.2,0.1       c-0.6-0.3-1.3-0.4-2.1-0.4c-1.1,0-1.9,0.3-2.6,1c-0.6,0.7-1,1.6-1,2.8c0,1.2,0.3,2.2,1,2.9c0.7,0.7,1.5,1,2.5,1       c0.8,0,1.5-0.1,2.1-0.4C790.6,142.7,790.7,142.7,790.7,142.9z"/>
					<path class="st6" d="M799.5,139.9h-4.9c0,1,0.3,1.8,0.9,2.4s1.5,0.9,2.7,0.9s2.2-0.2,3-0.6c0.1,0,0.1,0,0.1,0.1v1.8       c0,0.1,0,0.2-0.1,0.3c-1,0.5-2.2,0.7-3.7,0.7c-1.1,0-2-0.2-2.8-0.5s-1.4-0.8-1.9-1.4s-0.8-1.2-1-1.9s-0.3-1.4-0.3-2.2       c0-1.8,0.5-3.3,1.5-4.5s2.4-1.8,4.2-1.8c1.7,0,2.9,0.5,3.8,1.5c0.8,1,1.3,2.2,1.3,3.5c0,0.5,0,1-0.1,1.4c0,0.1-0.1,0.2-0.2,0.2       C801.6,139.8,800.7,139.9,799.5,139.9z M794.6,138h3.5c0.8,0,1.2,0,1.3,0c0-0.1,0-0.2,0-0.3c0-0.6-0.2-1.2-0.5-1.7       s-0.9-0.7-1.7-0.7c-0.8,0-1.4,0.3-1.8,0.8C794.9,136.5,794.7,137.2,794.6,138z"/>
				</g>
			</g>
		</g>
		<circle class="st5" cx="997.1" cy="108.7" r="88"/>
		<g>
			<g>
				<path class="st6" d="M957.8,115.8v-13.6h-5c-0.1,0-0.2-0.1-0.2-0.2l0.3-1.9c0-0.1,0.1-0.2,0.2-0.2h12.3c0.1,0,0.2,0.1,0.2,0.2      l0.2,1.9c0,0.2,0,0.2-0.2,0.2h-5v13.6c0,0.2-0.1,0.2-0.2,0.2h-2.6C957.9,116.1,957.8,116,957.8,115.8z"/>
				<path class="st6" d="M969.6,101.8c-0.3,0.3-0.7,0.4-1.2,0.4s-0.9-0.1-1.2-0.4c-0.3-0.3-0.4-0.7-0.4-1.2s0.2-0.9,0.5-1.2      c0.3-0.3,0.7-0.5,1.2-0.5s0.9,0.2,1.2,0.5c0.3,0.3,0.4,0.7,0.4,1.2C970.1,101.1,969.9,101.5,969.6,101.8z M966.9,115.8v-11.4      c0-0.1,0.1-0.2,0.2-0.2h2.7c0.1,0,0.2,0.1,0.2,0.2v11.5c0,0.1-0.1,0.2-0.2,0.2h-2.7C967,116.1,966.9,116,966.9,115.8z"/>
				<path class="st6" d="M980.6,113.7v1.9c0,0.1,0,0.2-0.1,0.2c-0.7,0.3-1.6,0.4-2.8,0.4c-1.9,0-3.4-0.6-4.5-1.7s-1.6-2.6-1.6-4.4      s0.6-3.3,1.8-4.4c1.2-1.2,2.8-1.7,4.7-1.7c1.1,0,1.9,0.1,2.4,0.3c0.1,0.1,0.1,0.2,0.1,0.3v1.9c0,0.2-0.1,0.2-0.2,0.1      c-0.6-0.3-1.3-0.4-2.1-0.4c-1.1,0-1.9,0.3-2.6,1c-0.6,0.7-1,1.6-1,2.8c0,1.2,0.3,2.2,1,2.9c0.7,0.7,1.5,1,2.5,1      c0.8,0,1.5-0.1,2.1-0.4C980.5,113.5,980.6,113.6,980.6,113.7z"/>
				<path class="st6" d="M982,98.7c0-0.1,0.1-0.2,0.2-0.2h2.7c0.1,0,0.2,0.1,0.2,0.2V109h0.3c0.2,0,0.4,0,0.5-0.1      c0.1,0,0.2-0.1,0.4-0.3c1.1-1.3,2.2-2.7,3.3-4.2c0.1-0.1,0.2-0.2,0.3-0.2h2.8c0.2,0,0.2,0.1,0.1,0.2c-0.3,0.4-1,1.3-2.3,2.7      c-1.3,1.4-2,2.3-2.2,2.6c-0.1,0-0.1,0.1,0,0.2c2.4,2.8,4.2,4.7,5.2,6v0.1l-0.1,0.1H990c-0.1,0-0.2-0.1-0.3-0.2      c-0.8-1-1.9-2.4-3.4-4.3c-0.2-0.2-0.3-0.3-0.4-0.4c-0.1,0-0.2-0.1-0.4-0.1h-0.2v4.7c0,0.1-0.1,0.2-0.2,0.2h-2.7      c-0.1,0-0.2-0.1-0.2-0.2V98.7H982z"/>
				<path class="st6" d="M1001.4,110.7h-4.9c0,1,0.3,1.8,0.9,2.4s1.5,0.9,2.7,0.9s2.2-0.2,3-0.6c0.1,0,0.1,0,0.1,0.1v1.8      c0,0.1,0,0.2-0.1,0.3c-1,0.5-2.2,0.7-3.7,0.7c-1.1,0-2-0.2-2.8-0.5s-1.4-0.8-1.9-1.4s-0.8-1.2-1-1.9c-0.2-0.7-0.3-1.4-0.3-2.2      c0-1.8,0.5-3.3,1.5-4.5s2.4-1.8,4.2-1.8c1.7,0,2.9,0.5,3.8,1.5c0.8,1,1.3,2.2,1.3,3.5c0,0.5,0,1-0.1,1.4c0,0.1-0.1,0.2-0.2,0.2      C1003.4,110.7,1002.6,110.7,1001.4,110.7z M996.5,108.8h3.5c0.8,0,1.2,0,1.3,0c0-0.1,0-0.2,0-0.3c0-0.6-0.2-1.2-0.5-1.7      s-0.9-0.7-1.7-0.7c-0.8,0-1.4,0.3-1.8,0.8C996.8,107.4,996.6,108,996.5,108.8z"/>
				<path class="st6" d="M1011.5,114.1v1.5c0,0.2,0,0.3-0.1,0.3c-0.6,0.3-1.3,0.4-2.2,0.4c-2.2,0-3.2-1.1-3.2-3.4v-6.4h-1.5      c-0.1,0-0.2-0.1-0.2-0.2v-1.8c0-0.1,0.1-0.2,0.2-0.2h1.5c0.1-1.5,0.2-2.5,0.3-3c0-0.1,0.1-0.2,0.2-0.2l2.6-0.3      c0.1,0,0.2,0,0.2,0.1c-0.1,0.7-0.1,1.9-0.1,3.4h2.3c0.1,0,0.2,0.1,0.2,0.2v1.8c0,0.1,0,0.2-0.1,0.2h-2.4v6.1      c0,0.6,0.1,1,0.3,1.2c0.2,0.3,0.6,0.4,1.1,0.4c0.3,0,0.7-0.1,1-0.2C1011.5,113.9,1011.5,114,1011.5,114.1z"/>
				<path class="st6" d="M1015.4,101.8c-0.3,0.3-0.7,0.4-1.2,0.4s-0.9-0.1-1.2-0.4c-0.3-0.3-0.4-0.7-0.4-1.2s0.2-0.9,0.5-1.2      c0.3-0.3,0.7-0.5,1.2-0.5s0.9,0.2,1.2,0.5c0.3,0.3,0.4,0.7,0.4,1.2C1015.8,101.1,1015.7,101.5,1015.4,101.8z M1012.6,115.8      v-11.4c0-0.1,0.1-0.2,0.2-0.2h2.7c0.1,0,0.2,0.1,0.2,0.2v11.5c0,0.1-0.1,0.2-0.2,0.2h-2.7C1012.7,116.1,1012.6,116,1012.6,115.8      z"/>
				<path class="st6" d="M1017.9,115.8V107c0-1.1,0-1.9-0.1-2.6c0-0.1,0-0.2,0.1-0.2h2.3c0.1,0,0.2,0.1,0.3,0.2      c0.1,0.2,0.1,0.6,0.2,1c1-0.9,2.2-1.4,3.5-1.4c1.1,0,2.1,0.4,2.9,1.1s1.2,2,1.2,3.7v7c0,0.1-0.1,0.2-0.2,0.2h-2.7      c-0.1,0-0.2-0.1-0.2-0.2v-7.1c0-0.7-0.2-1.3-0.5-1.7c-0.3-0.4-0.8-0.6-1.5-0.6c-0.9,0-1.7,0.4-2.3,1.1v8.4      c0,0.1-0.1,0.2-0.2,0.2h-2.7C1017.9,116.1,1017.9,116,1017.9,115.8z"/>
				<path class="st6" d="M1041.2,104.4v1.8c0,0.1-0.1,0.2-0.2,0.2l-1.9-0.1c0.4,0.4,0.6,1.1,0.6,1.9c0,1.2-0.4,2.2-1.3,2.8      c-0.9,0.7-2,1-3.4,1c-0.4,0-0.6,0-0.9-0.1c-0.4,0.3-0.6,0.6-0.6,1c0,0.5,0.2,0.8,0.7,1h2.2c3.4,0,5.2,1.2,5.2,3.5      c0,1.2-0.6,2.3-1.7,3.2c-1.1,0.9-2.7,1.3-4.5,1.3s-3.3-0.4-4.3-1.1s-1.5-1.6-1.5-2.7c0-1,0.7-2,2.2-2.8c-0.7-0.5-1-1.1-1-1.8      c0-0.8,0.4-1.4,1.3-2c-1.3-0.6-2-1.8-2-3.4c0-1.2,0.4-2.1,1.3-2.9c0.9-0.8,2.1-1.2,3.6-1.2c0.9,0,1.7,0.1,2.2,0.2      c0.1,0,0.3,0,0.6,0h3.4C1041.2,104.2,1041.2,104.3,1041.2,104.4z M1038.6,117.8c0-1.2-1-1.7-3-1.7c-0.9,0-1.5,0-1.9,0.1      c-0.8,0.5-1.2,1-1.2,1.7c0,0.6,0.3,1,0.8,1.4s1.3,0.6,2.2,0.6c1,0,1.8-0.2,2.3-0.6C1038.3,118.8,1038.6,118.3,1038.6,117.8z       M1036.9,108.1c0-0.7-0.2-1.2-0.5-1.6s-0.8-0.6-1.4-0.6c-0.6,0-1.1,0.2-1.4,0.6s-0.6,0.9-0.6,1.6s0.2,1.2,0.5,1.6      c0.4,0.4,0.8,0.6,1.4,0.6c0.6,0,1.1-0.2,1.4-0.6C1036.7,109.3,1036.9,108.8,1036.9,108.1z"/>
			</g>
		</g>
		<circle class="st5" cx="1224.4" cy="108.7" r="88"/>
		<g>
			<g>
				<path class="st6" d="M1202.7,109.4v6.5c0,0.1-0.1,0.2-0.2,0.2h-2.7c-0.1,0-0.2-0.1-0.2-0.2v-15.8c0-0.1,0.1-0.2,0.2-0.2h9.5      c0.1,0,0.2,0.1,0.2,0.2l0.2,1.9c0,0.1,0,0.2-0.2,0.2h-6.8v4.8h6.1c0.1,0,0.2,0.1,0.2,0.2v2c0,0.1-0.1,0.2-0.2,0.2L1202.7,109.4      L1202.7,109.4z"/>
				<path class="st6" d="M1213.7,101.8c-0.3,0.3-0.7,0.4-1.2,0.4s-0.9-0.1-1.2-0.4s-0.4-0.7-0.4-1.2s0.2-0.9,0.5-1.2      c0.3-0.3,0.7-0.5,1.2-0.5s0.9,0.2,1.2,0.5s0.4,0.7,0.4,1.2C1214.1,101.1,1214,101.5,1213.7,101.8z M1210.9,115.8v-11.4      c0-0.1,0.1-0.2,0.2-0.2h2.7c0.1,0,0.2,0.1,0.2,0.2v11.5c0,0.1-0.1,0.2-0.2,0.2h-2.7C1211,116.1,1210.9,116,1210.9,115.8z"/>
				<path class="st6" d="M1218.5,110.2l-3.6-5.7c0,0,0-0.1,0-0.2s0.1-0.1,0.2-0.1h3c0.1,0,0.3,0.1,0.3,0.2l2.2,4.1l0,0l2.3-4.2      c0.1-0.1,0.1-0.1,0.2-0.1h2.7c0.2,0,0.2,0.1,0.1,0.2c-1.5,2.3-2.7,4.2-3.7,5.6c1.5,2.2,2.8,4.1,3.9,5.8c0.1,0.1,0,0.2-0.1,0.2      h-3.2c-0.1,0-0.2-0.1-0.3-0.2l-2.4-4.1l0,0l-2.4,4.2c0,0.1-0.1,0.1-0.3,0.1h-2.7c-0.2,0-0.2-0.1-0.1-0.2      C1217,112.4,1218.3,110.5,1218.5,110.2z"/>
				<path class="st6" d="M1234.6,110.7h-4.9c0,1,0.3,1.8,0.9,2.4c0.6,0.6,1.5,0.9,2.7,0.9s2.2-0.2,3-0.6c0.1,0,0.1,0,0.1,0.1v1.8      c0,0.1,0,0.2-0.1,0.3c-1,0.5-2.2,0.7-3.7,0.7c-1.1,0-2-0.2-2.8-0.5s-1.4-0.8-1.9-1.4s-0.8-1.2-1-1.9c-0.2-0.7-0.3-1.4-0.3-2.2      c0-1.8,0.5-3.3,1.5-4.5s2.4-1.8,4.2-1.8c1.7,0,2.9,0.5,3.8,1.5c0.8,1,1.3,2.2,1.3,3.5c0,0.5,0,1-0.1,1.4c0,0.1-0.1,0.2-0.2,0.2      C1236.6,110.7,1235.8,110.7,1234.6,110.7z M1229.7,108.8h3.5c0.8,0,1.2,0,1.3,0c0-0.1,0-0.2,0-0.3c0-0.6-0.2-1.2-0.5-1.7      s-0.9-0.7-1.7-0.7s-1.4,0.3-1.8,0.8C1230,107.4,1229.7,108,1229.7,108.8z"/>
				<path class="st6" d="M1244.5,116.3c-1.9,0-3.4-0.5-4.5-1.5c-1.1-1-1.7-2.5-1.7-4.5c0-1.8,0.6-3.3,1.8-4.5s2.9-1.8,4.9-1.8      c0.6,0,1,0,1.4,0.1v-5.4c0-0.1,0.1-0.2,0.2-0.2h2.8c0.1,0,0.1,0,0.1,0.1v14.7c0,0.3,0,0.8,0.1,1.7c0,0.1,0,0.2-0.1,0.2      C1247.9,115.9,1246.3,116.3,1244.5,116.3z M1246.4,113.8v-7.4c-0.4-0.2-0.8-0.3-1.4-0.3c-1.1,0-1.9,0.3-2.6,1      c-0.6,0.7-1,1.7-1,2.9c0,1.3,0.3,2.3,1,3c0.6,0.6,1.5,1,2.5,1C1245.6,114,1246.1,114,1246.4,113.8z"/>
			</g>
		</g>
		<path class="st4" d="M862.1,266.9h209.3c49.7,0,93.9-23.7,121.9-60.3"/>
		<path class="st4" d="M319.1,206.6c28,36.7,72.2,60.3,121.9,60.3h209.3"/>
		<line class="st4" x1="650.3" y1="266.9" x2="862.1" y2="266.9"/>
	</g>
	<g id="Layer_30">
		<g>
			<g>
				<polyline class="st7" points="1006.7,52.1 1006.7,66.2 992.6,66.2     "/>
				<line class="st7" x1="1006.7" y1="66.2" x2="987.5" y2="47"/>
			</g>
			<g>
				<polyline class="st7" points="987.5,165.3 987.5,151.1 1001.7,151.1     "/>
				<line class="st7" x1="987.5" y1="151.1" x2="1006.7" y2="170.3"/>
			</g>
		</g>
	</g>
	<g id="Layer_29">
		<polyline class="st7" points="1207,67.5 1218.3,78.8 1241.8,55.2   "/>
	</g>
	<g id="Layer_18_copy">
		<path class="st8" d="M92.3,25.3c7.1,0.4,14,1.6,20.5,3.6C106.3,26.9,99.4,25.6,92.3,25.3z"/>
		<path class="st9" d="M64.4,65.3c9.2-7.4,11-40.1,23.6-40.1c-45,0-81.7,35.7-83.4,80.3C6.1,74.4,33,90.4,64.4,65.3z"/>
		<path class="st9" d="M114.8,170.1C105.2,174,99,192.2,88,192.2c32.1,0,60-18.2,74-44.8C152.7,164.4,133.2,162.7,114.8,170.1z"/>
		<g id="Layer_20">
		</g>
	</g>
	<g id="Layer_18_copy_3">
		<g id="Layer_20_copy_2">
		</g>
		<path class="st10" d="M171.5,108.7c0,13.7-3.3,26.6-9.1,37.9c-9.1,17.9-28.9,15.9-47.6,23.5C105.2,174,99,192.2,88,192.2    c-22.6,0-43.1-9-58.2-23.6c-15.6-15.2-25.3-36.4-25.3-59.9c0-33.6,24.7-45.1,53.3-58.3c10.7-5,17.7-25.2,30.2-25.2    c11.5,0,22.5,2.3,32.5,6.6c13.1,5.5,10.4,29.9,19.1,40.9C150.8,86.8,171.5,89.2,171.5,108.7z"/>
		<path class="st10" d="M120.5,31.7c13.1,5.5,12.6,27.4,21.3,38.5c11.2,14.2,29.7,19,29.7,38.5"/>
	</g>
	<g id="Layer_17">
		<g>
			<g>
				<g>
					<line class="st2" x1="218.9" y1="67.2" x2="228.3" y2="71.3"/>
					<line class="st2" x1="402.2" y1="146.1" x2="411.6" y2="150.1"/>
				</g>
			</g>
			<g>
				<g>
					<line class="st2" x1="220.8" y1="63.1" x2="230.1" y2="67.5"/>
					<line class="st2" x1="400.5" y1="149.8" x2="409.7" y2="154.3"/>
				</g>
			</g>
			<g>
				<g>
					<line class="st2" x1="222.9" y1="59" x2="231.9" y2="63.8"/>
					<line class="st2" x1="398.6" y1="153.5" x2="407.6" y2="158.3"/>
				</g>
			</g>
			<g>
				<g>
					<line class="st2" x1="225.2" y1="55" x2="234" y2="60.3"/>
					<line class="st2" x1="396.6" y1="157.1" x2="405.4" y2="162.3"/>
				</g>
			</g>
			<g>
				<g>
					<line class="st2" x1="227.6" y1="51.1" x2="236.2" y2="56.8"/>
					<line class="st2" x1="394.4" y1="160.6" x2="403" y2="166.2"/>
				</g>
			</g>
			<g>
				<g>
					<line class="st2" x1="230.2" y1="47.4" x2="238.5" y2="53.4"/>
					<line class="st2" x1="392.1" y1="164" x2="400.4" y2="170"/>
				</g>
			</g>
			<g>
				<g>
					<line class="st2" x1="233" y1="43.7" x2="241" y2="50.1"/>
					<line class="st2" x1="389.6" y1="167.3" x2="397.6" y2="173.6"/>
				</g>
			</g>
			<g>
				<g>
					<line class="st2" x1="235.9" y1="40.2" x2="243.6" y2="46.9"/>
					<line class="st2" x1="387" y1="170.5" x2="394.7" y2="177.1"/>
				</g>
			</g>
			<g>
				<g>
					<line class="st2" x1="238.9" y1="36.8" x2="246.4" y2="43.8"/>
					<line class="st2" x1="384.2" y1="173.5" x2="391.6" y2="180.5"/>
				</g>
			</g>
			<g>
				<g>
					<line class="st2" x1="242.1" y1="33.5" x2="249.3" y2="40.9"/>
					<line class="st2" x1="381.3" y1="176.5" x2="388.4" y2="183.8"/>
				</g>
			</g>
			<g>
				<g>
					<line class="st2" x1="245.5" y1="30.4" x2="252.3" y2="38"/>
					<line class="st2" x1="378.3" y1="179.3" x2="385.1" y2="186.9"/>
				</g>
			</g>
			<g>
				<g>
					<line class="st2" x1="249" y1="27.4" x2="255.4" y2="35.4"/>
					<line class="st2" x1="375.1" y1="182" x2="381.6" y2="189.9"/>
				</g>
			</g>
			<g>
				<g>
					<line class="st2" x1="252.6" y1="24.6" x2="258.7" y2="32.8"/>
					<line class="st2" x1="371.9" y1="184.5" x2="378" y2="192.7"/>
				</g>
			</g>
			<g>
				<g>
					<line class="st2" x1="256.3" y1="22" x2="262" y2="30.4"/>
					<line class="st2" x1="368.5" y1="186.9" x2="374.3" y2="195.4"/>
				</g>
			</g>
			<g>
				<g>
					<line class="st2" x1="260.1" y1="19.5" x2="265.5" y2="28.2"/>
					<line class="st2" x1="365.1" y1="189.2" x2="370.4" y2="197.9"/>
				</g>
			</g>
			<g>
				<g>
					<line class="st2" x1="264.1" y1="17.2" x2="269.1" y2="26.1"/>
					<line class="st2" x1="361.5" y1="191.4" x2="366.5" y2="200.2"/>
				</g>
			</g>
		</g>
	</g>
	<g id="Layer_17_copy">
		<g>
			<g>
				<g>
					<line class="st2" x1="349.1" y1="9.4" x2="345.8" y2="19.1"/>
					<line class="st2" x1="284.7" y1="198.2" x2="281.4" y2="207.9"/>
				</g>
			</g>
			<g>
				<g>
					<line class="st2" x1="353.4" y1="11" x2="349.7" y2="20.5"/>
					<line class="st2" x1="280.8" y1="196.9" x2="277.1" y2="206.4"/>
				</g>
			</g>
			<g>
				<g>
					<line class="st2" x1="357.7" y1="12.8" x2="353.5" y2="22.1"/>
					<line class="st2" x1="277" y1="195.2" x2="272.9" y2="204.6"/>
				</g>
			</g>
			<g>
				<g>
					<line class="st2" x1="361.8" y1="14.7" x2="357.3" y2="23.9"/>
					<line class="st2" x1="273.3" y1="193.5" x2="268.8" y2="202.6"/>
				</g>
			</g>
			<g>
				<g>
					<line class="st2" x1="365.8" y1="16.8" x2="360.9" y2="25.8"/>
					<line class="st2" x1="269.6" y1="191.6" x2="264.7" y2="200.5"/>
				</g>
			</g>
			<g>
				<g>
					<line class="st2" x1="369.8" y1="19.1" x2="364.5" y2="27.8"/>
					<line class="st2" x1="266.1" y1="189.5" x2="260.7" y2="198.2"/>
				</g>
			</g>
		</g>
	</g>
	<g id="Layer_17_copy_2">
		<g>
			<g>
				<g>
					<line class="st2" x1="395.4" y1="47.4" x2="390.4" y2="51.2"/>
					<line class="st2" x1="240.1" y1="166.2" x2="235.2" y2="170"/>
				</g>
			</g>
			<g>
				<g>
					<line class="st2" x1="398" y1="50.9" x2="392.9" y2="54.5"/>
					<line class="st2" x1="237.7" y1="162.9" x2="232.6" y2="166.4"/>
				</g>
			</g>
			<g>
				<g>
					<line class="st2" x1="400.4" y1="54.6" x2="395.2" y2="57.9"/>
					<line class="st2" x1="235.4" y1="159.4" x2="230.2" y2="162.8"/>
				</g>
			</g>
			<g>
				<g>
					<line class="st2" x1="402.7" y1="58.3" x2="397.3" y2="61.5"/>
					<line class="st2" x1="233.3" y1="155.9" x2="227.9" y2="159"/>
				</g>
			</g>
			<g>
				<g>
					<line class="st2" x1="404.8" y1="62.2" x2="399.3" y2="65.1"/>
					<line class="st2" x1="231.3" y1="152.3" x2="225.8" y2="155.2"/>
				</g>
			</g>
			<g>
				<g>
					<line class="st2" x1="406.7" y1="66.1" x2="401.1" y2="68.8"/>
					<line class="st2" x1="229.4" y1="148.6" x2="223.8" y2="151.2"/>
				</g>
			</g>
		</g>
	</g>
	<g id="Layer_8">
		<path class="st2" d="M892.4,82.1c11.9-46.7,54.3-81.4,104.7-81.4c10.3,0,20.3,1.5,29.7,4.2c16.8,4.8,32,13.6,44.4,25.3    c14.7,13.9,25.5,31.8,30.6,51.9"/>
		<path class="st2" d="M892.4,135.3c11.9,46.7,54.3,81.4,104.7,81.4c50.4,0,92.8-34.7,104.7-81.4"/>
	</g>
	<g id="Layer_15">
		<path class="st2" d="M1028.9,22.9c34.9,12.9,59.8,46.5,59.8,85.8c0,50.5-41,91.5-91.5,91.5c-14.6,0-28.3-3.4-40.6-9.5"/>
		<path class="st2" d="M937.9,178.4c-19.7-16.8-32.3-41.8-32.3-69.7c0-50.4,41.1-91.5,91.5-91.5c3.4,0,6.7,0.2,10,0.6"/>
	</g>
	<g id="Layer_15_copy">
	</g>
</g>
</svg>