<?xml version="1.0" encoding="utf-8"?>
<!-- Generator: Adobe Illustrator 26.0.2, SVG Export Plug-In . SVG Version: 6.00 Build 0)  -->
<svg version="1.1" id="Layer_1" xmlns="http://www.w3.org/2000/svg" xmlns:xlink="http://www.w3.org/1999/xlink" x="0px" y="0px"
	 viewBox="0 0 148.7 57.5" style="enable-background:new 0 0 148.7 57.5;" xml:space="preserve">
<style type="text/css">
	.st0{filter:url(#Adobe_OpacityMaskFilter);}
	.st1{fill-rule:evenodd;clip-rule:evenodd;fill:#FFFFFF;}
	.st2{mask:url(#mask-2_00000081625826405482490400000014798037437813445253_);fill-rule:evenodd;clip-rule:evenodd;fill:#0CD8D5;}
	.st3{filter:url(#Adobe_OpacityMaskFilter_00000177465140843371775070000016149109046365254076_);}
	.st4{mask:url(#mask-2_00000000183598301419891390000001462071250826994608_);fill-rule:evenodd;clip-rule:evenodd;fill:#0CD8D5;}
</style>
<g>
	<g>
		<defs>
			<filter id="Adobe_OpacityMaskFilter" filterUnits="userSpaceOnUse" x="0" y="0" width="18.7" height="57.5">
				<feColorMatrix  type="matrix" values="1 0 0 0 0  0 1 0 0 0  0 0 1 0 0  0 0 0 1 0"/>
			</filter>
		</defs>
		
			<mask maskUnits="userSpaceOnUse" x="0" y="0" width="18.7" height="57.5" id="mask-2_00000081625826405482490400000014798037437813445253_">
			<g class="st0">
				<polygon id="path-1_00000180337720393040352620000007002047001192381610_" class="st1" points="0,57.5 138.4,57.5 138.4,0 0,0 
									"/>
			</g>
		</mask>
		<path id="Fill-21_00000114770643459245937060000014923338367658919859_" class="st2" d="M13.8,4.7c0.7-0.5,2.4-1.4,4.8-2.4V0
			C8.9,0,2.4,3.7,0.7,4.7C0.5,4.9,0.3,5.2,0.3,5.5C0.1,8.8-1.2,29.1,3.7,40.5c5.3,12.5,15,16.9,15,16.9V44.4
			c-0.7-1.2-1.3-2.5-1.9-3.8c-4.8-11.4-3.6-31.7-3.4-35.1C13.4,5.2,13.6,4.9,13.8,4.7"/>
		<defs>
			
				<filter id="Adobe_OpacityMaskFilter_00000054948718394987904490000017893559490698724235_" filterUnits="userSpaceOnUse" x="32.3" y="0" width="18.7" height="57.5">
				<feColorMatrix  type="matrix" values="1 0 0 0 0  0 1 0 0 0  0 0 1 0 0  0 0 0 1 0"/>
			</filter>
		</defs>
		
			<mask maskUnits="userSpaceOnUse" x="32.3" y="0" width="18.7" height="57.5" id="mask-2_00000000183598301419891390000001462071250826994608_">
			<g style="filter:url(#Adobe_OpacityMaskFilter_00000054948718394987904490000017893559490698724235_);">
				<polygon id="path-1_00000047746248699233926560000011397525063464707247_" class="st1" points="0,57.5 138.4,57.5 138.4,0 0,0 
									"/>
			</g>
		</mask>
		<path id="Fill-22_00000057850567655646054050000009972593960685596814_" class="st4" d="M50.3,4.7C48.6,3.7,42.1,0,32.3,0v2.4
			c2.5,0.9,4.1,1.9,4.8,2.4c0.3,0.2,0.4,0.4,0.4,0.7c0.2,3.3,1.5,23.6-3.4,35.1c-0.6,1.4-1.2,2.7-1.9,3.8v13.1c0,0,9.7-4.4,15-16.9
			c4.8-11.4,3.6-31.7,3.4-35.1C50.7,5.2,50.5,4.9,50.3,4.7"/>
	</g>
	<polygon points="141.3,28.3 141.3,6.9 148.6,6.9 148.6,9.9 144.8,9.9 144.8,15.9 148.5,15.9 148.5,18.9 144.8,18.9 144.8,25.3 
		148.7,25.3 148.7,28.3 	"/>
	<rect x="122.1" y="6.9" width="3.5" height="21.4"/>
	<g>
		<polygon points="131.1,28.3 127.1,6.9 130.3,6.9 134.3,28.3 		"/>
		<polygon points="132.7,28.3 136.7,6.9 139.8,6.9 135.8,28.3 		"/>
	</g>
	<polygon points="114.4,28.3 114.4,9.9 111.7,9.9 111.7,6.9 120.6,6.9 120.6,9.9 117.9,9.9 117.9,28.3 	"/>
	<path d="M106.6,6.9h-6.1v21.4h3.5v-7.8h2.6c2.5,0,3.7-1.2,3.7-3.7v-6.3C110.2,8.1,109.1,6.9,106.6,6.9z M106.7,16.4
		c0,0.8-0.5,1.3-1.3,1.3H104V9.7h1.5c0.8,0,1.3,0.5,1.3,1.3V16.4z"/>
	<path d="M79.6,6.9h-5.8v21.4h5.8c2.9,0,4.3-1.4,4.3-4.3V11.2C83.9,8.3,82.6,6.9,79.6,6.9z M80.5,23.7c0,1.1-0.6,1.7-1.7,1.7h-1.4
		V9.7h1.4c1.1,0,1.7,0.6,1.7,1.7V23.7z"/>
	<path d="M62.4,54.1c-2.5,0-3.7-1.2-3.7-3.7v-4.3h3.4V50c0,0.8,0.5,1.3,1.3,1.3h0.4c0.8,0,1.3-0.5,1.3-1.3v-2.7c0-0.8-0.3-1.4-1-1.8
		l-3.8-2.8c-0.6-0.4-1-0.9-1.3-1.3c-0.2-0.5-0.3-1.1-0.3-1.8V36c0-2.5,1.2-3.7,3.7-3.7h2.4c2.5,0,3.7,1.2,3.7,3.7v3.6h-3.4v-3.2
		c0-0.8-0.5-1.3-1.3-1.3h-0.4c-0.8,0-1.3,0.5-1.3,1.3v2.1c0,0.8,0.3,1.4,1,1.8l3.8,2.8c0.6,0.4,1,0.9,1.3,1.3c0.2,0.4,0.3,1,0.3,1.8
		v4.1c0,2.5-1.2,3.7-3.7,3.7H62.4z M112.7,53.9V32.5h5.8c2.9,0,4.3,1.4,4.3,4.3v12.8c0,2.9-1.4,4.3-4.3,4.3H112.7z M116.2,51.1h1.4
		c1.1,0,1.7-0.6,1.7-1.7V37.1c0-1.1-0.6-1.7-1.7-1.7h-1.4V51.1z M103.2,53.9V32.5h3.5v18.4h3.2v3H103.2z M91.8,53.9V32.5h8.3v3h-4.8
		v6h4.7v3h-4.7v6.4h4.9v3H91.8z M85,53.9V32.5h3.5v21.4H85z M78.3,53.9v-9.4h-3.2v9.4h-3.5V32.5h3.5v9h3.2v-9h3.5v21.4H78.3z"/>
	<g>
		<polygon points="94.7,6.9 99,28.3 95.6,28.3 91.4,6.9 		"/>
		<polygon points="93.1,6.9 88.8,28.3 85.4,28.3 89.7,6.9 		"/>
		<rect x="89.3" y="18.6" width="5.4" height="3"/>
	</g>
	<g>
		<polygon points="68,6.9 72.3,28.3 69,28.3 64.7,6.9 		"/>
		<polygon points="66.4,6.9 62.1,28.3 58.8,28.3 63.1,6.9 		"/>
		<rect x="62.7" y="18.6" width="5.4" height="3"/>
	</g>
</g>
</svg>
