<svg xmlns="http://www.w3.org/2000/svg" viewBox="0 0 571.7 470.68"><defs><style>.cls-1{fill:#f0e462;}.cls-2{fill:#06121e;}.cls-3,.cls-5,.cls-6{fill:none;}.cls-3,.cls-5,.cls-7{stroke:#0cd8d5;stroke-linecap:round;stroke-linejoin:round;stroke-width:1.2px;}.cls-4,.cls-7{fill:#0cd8d5;}.cls-5{opacity:0;}</style></defs><g id="Layer_2" data-name="Layer 2"><g id="Layer_1-2" data-name="Layer 1"><rect class="cls-1" x="395.7" y="201.45" width="176" height="70" rx="4.84"/><path class="cls-2" d="M416.35,230.81v.93a.15.15,0,0,1-.1.16,5.61,5.61,0,0,1-2.17.33,5.68,5.68,0,0,1-1.87-.3,4.94,4.94,0,0,1-1.61-.93,4.12,4.12,0,0,1-1.18-1.73,7.07,7.07,0,0,1-.43-2.57,5.42,5.42,0,0,1,1.43-3.94,5,5,0,0,1,3.8-1.49,4.77,4.77,0,0,1,2.14.36c.06,0,.08.07.08.14v1c0,.1,0,.13-.11.08a3.8,3.8,0,0,0-2.08-.46,3.64,3.64,0,0,0-2.79,1.13,4.39,4.39,0,0,0-1,3.11,5.74,5.74,0,0,0,.38,2.18,3.22,3.22,0,0,0,1,1.37,4.4,4.4,0,0,0,1.23.67,4.15,4.15,0,0,0,1.26.2,5.4,5.4,0,0,0,2-.32C416.32,230.72,416.35,230.75,416.35,230.81Z"/><path class="cls-2" d="M418.54,225.35a3.22,3.22,0,0,1,2.58-1.13,3.16,3.16,0,0,1,2.53,1.1,4.95,4.95,0,0,1,0,5.83,3.22,3.22,0,0,1-2.53,1.08,3.13,3.13,0,0,1-2.64-1.17,4.54,4.54,0,0,1-.9-2.83A4.24,4.24,0,0,1,418.54,225.35Zm2.5-.09a1.79,1.79,0,0,0-1.5.77,3.61,3.61,0,0,0-.57,2.17,3.78,3.78,0,0,0,.57,2.17,1.8,1.8,0,0,0,1.58.84,1.83,1.83,0,0,0,1.46-.74,3.5,3.5,0,0,0,.6-2.22,4,4,0,0,0-.53-2.16A1.76,1.76,0,0,0,421,225.26Z"/><path class="cls-2" d="M426.32,232v-5.81a16.58,16.58,0,0,0-.08-1.7.08.08,0,0,1,.09-.09h1a.14.14,0,0,1,.15.08,3.51,3.51,0,0,1,.09.75,3.15,3.15,0,0,1,2.29-1,2.44,2.44,0,0,1,1.63.57,2.07,2.07,0,0,1,.61.93,4.41,4.41,0,0,1,.22,1.49V232c0,.07,0,.11-.09.11H431.1c-.09,0-.13,0-.13-.11v-4.77a2.2,2.2,0,0,0-.37-1.36,1.34,1.34,0,0,0-1.12-.5,2.16,2.16,0,0,0-1.77.92V232a.1.1,0,0,1-.11.11h-1.19C426.35,232.09,426.32,232.05,426.32,232Z"/><path class="cls-2" d="M437.79,231.15v.7a.18.18,0,0,1-.1.16,2.78,2.78,0,0,1-1.21.22c-1.23,0-1.84-.68-1.84-2.06v-4.74h-1a.11.11,0,0,1-.1-.12v-.84c0-.06,0-.09.11-.09h1a12.73,12.73,0,0,1,.15-2q0-.1.09-.12l1.14-.16c.06,0,.09,0,.09.06-.05.57-.08,1.3-.08,2.21h1.6c.07,0,.1,0,.1.09v.87c0,.06,0,.09-.1.09H436v4.64q0,1.14.93,1.14a2.56,2.56,0,0,0,.73-.14C437.76,231,437.79,231.07,437.79,231.15Z"/><path class="cls-2" d="M440,222.7a.74.74,0,0,1-.57-.22.81.81,0,0,1,.58-1.37.75.75,0,0,1,.57.23.81.81,0,0,1,.22.57.78.78,0,0,1-.22.57A.76.76,0,0,1,440,222.7Zm-.69,9.28v-7.51c0-.06,0-.09.1-.09h1.18c.07,0,.11,0,.11.09V232a.1.1,0,0,1-.11.11h-1.17A.1.1,0,0,1,439.26,232Z"/><path class="cls-2" d="M442.79,232v-5.81a16.86,16.86,0,0,0-.07-1.7.08.08,0,0,1,.09-.09h1a.14.14,0,0,1,.15.08,3.51,3.51,0,0,1,.09.75,3.14,3.14,0,0,1,2.29-1,2.65,2.65,0,0,1,.85.13,2.8,2.8,0,0,1,.78.44,2.07,2.07,0,0,1,.61.93,4.41,4.41,0,0,1,.22,1.49V232c0,.07,0,.11-.09.11h-1.17c-.09,0-.13,0-.13-.11v-4.77a2.2,2.2,0,0,0-.37-1.36,1.34,1.34,0,0,0-1.12-.5,2.16,2.16,0,0,0-1.77.92V232a.1.1,0,0,1-.11.11h-1.19A.1.1,0,0,1,442.79,232Z"/><path class="cls-2" d="M457,224.47v6A14.25,14.25,0,0,0,457,232c0,.07,0,.1-.1.1h-1.06a.13.13,0,0,1-.13-.08,3.33,3.33,0,0,1-.09-.62,2.94,2.94,0,0,1-2.18.84,2.59,2.59,0,0,1-1.79-.64,2.82,2.82,0,0,1-.72-2.2v-4.92c0-.06,0-.09.11-.09h1.2c.06,0,.08,0,.08.09v4.79a2.14,2.14,0,0,0,.39,1.38,1.37,1.37,0,0,0,1.13.49,2.08,2.08,0,0,0,1.68-.78v-5.88c0-.06,0-.09.11-.09h1.19C456.92,224.38,457,224.41,457,224.47Z"/><path class="cls-2" d="M459.71,225.35a3.21,3.21,0,0,1,2.57-1.13,3.18,3.18,0,0,1,2.54,1.1,4.35,4.35,0,0,1,.93,2.9,4.29,4.29,0,0,1-1,2.93,3.2,3.2,0,0,1-2.52,1.08,3.1,3.1,0,0,1-2.64-1.17,4.54,4.54,0,0,1-.9-2.83A4.24,4.24,0,0,1,459.71,225.35Zm2.49-.09a1.76,1.76,0,0,0-1.49.77,3.61,3.61,0,0,0-.57,2.17,3.78,3.78,0,0,0,.57,2.17,1.78,1.78,0,0,0,1.57.84,1.84,1.84,0,0,0,1.47-.74,3.5,3.5,0,0,0,.6-2.22,4,4,0,0,0-.53-2.16A1.77,1.77,0,0,0,462.2,225.26Z"/><path class="cls-2" d="M473.5,224.47v6c0,.48,0,1,.08,1.55,0,.07,0,.1-.1.1h-1.05c-.08,0-.12,0-.13-.08a3.19,3.19,0,0,1-.1-.62,2.92,2.92,0,0,1-2.17.84,2.55,2.55,0,0,1-1.79-.64,2.79,2.79,0,0,1-.73-2.2v-4.92q0-.09.12-.09h1.2c.05,0,.08,0,.08.09v4.79a2.14,2.14,0,0,0,.39,1.38,1.35,1.35,0,0,0,1.13.49,2.1,2.1,0,0,0,1.68-.78v-5.88c0-.06,0-.09.11-.09h1.18C473.47,224.38,473.5,224.41,473.5,224.47Z"/><path class="cls-2" d="M479.55,225.77a3,3,0,0,0-1.67-.5,1.42,1.42,0,0,0-1,.28.89.89,0,0,0-.31.68,1,1,0,0,0,.27.68,3.33,3.33,0,0,0,1.08.65,4.88,4.88,0,0,1,1.64,1,2,2,0,0,1,.49,1.39,2,2,0,0,1-.77,1.65,3,3,0,0,1-1.94.59,3.84,3.84,0,0,1-2.05-.48.19.19,0,0,1-.08-.16v-1.07c0-.1,0-.13.1-.06a3.17,3.17,0,0,0,2,.7,1.56,1.56,0,0,0,1-.28.86.86,0,0,0,.35-.73,1.06,1.06,0,0,0-.28-.75,4.08,4.08,0,0,0-1.09-.67,4.24,4.24,0,0,1-1.56-1,2,2,0,0,1-.47-1.36,1.93,1.93,0,0,1,.68-1.53,2.66,2.66,0,0,1,1.86-.61,3.59,3.59,0,0,1,1.74.35c.06,0,.08.07.08.16v1C479.66,225.79,479.62,225.81,479.55,225.77Z"/><path class="cls-2" d="M481.69,230.55v-9.88c0-.07,0-.1.11-.1H483c.06,0,.09,0,.09.1v9.88a.74.74,0,0,0,.14.52.53.53,0,0,0,.37.12l.36,0s.06,0,.06.08V232a.14.14,0,0,1-.08.14,2.14,2.14,0,0,1-.82.13C482.16,232.25,481.69,231.68,481.69,230.55Z"/><path class="cls-2" d="M484.83,224.38h1.31c.06,0,.1,0,.11.08,1.23,3.23,1.9,5.07,2,5.52h0q.88-2.32,1.92-5.52c0-.06.06-.08.13-.08h1.12c.07,0,.09,0,.08.11q-.87,2.81-2.54,6.7-1.42,3.26-2,4.4c0,.07-.08.1-.18.1h-1.22c-.08,0-.1,0,0-.13q.81-1.44,2-4.05a.2.2,0,0,0,0-.2q-1.08-2.59-2.81-6.84C484.73,224.41,484.75,224.38,484.83,224.38Z"/><path class="cls-2" d="M496.22,232V220.67c0-.07,0-.1.09-.1h1.22a.07.07,0,0,1,.08.08V225a3.31,3.31,0,0,1,2.14-.75,2.53,2.53,0,0,1,1.78.69,3.11,3.11,0,0,1,.75,2.35V232c0,.07,0,.11-.09.11H501a.1.1,0,0,1-.11-.11v-4.72a2.27,2.27,0,0,0-.39-1.41,1.34,1.34,0,0,0-1.13-.51,2.53,2.53,0,0,0-1.76.72V232c0,.07,0,.1-.1.1h-1.18A.1.1,0,0,1,496.22,232Z"/><path class="cls-2" d="M509.71,227.15v3.55q0,.27,0,.78a.09.09,0,0,1,0,.07,6.47,6.47,0,0,1-2.9.68,3.3,3.3,0,0,1-2.12-.62,2.17,2.17,0,0,1-.79-1.82,2,2,0,0,1,1-1.83,4.64,4.64,0,0,1,2.49-.61,8.28,8.28,0,0,1,1,0v-.48a2,2,0,0,0-.07-.48,2.24,2.24,0,0,0-.21-.5,1.12,1.12,0,0,0-.51-.44,2,2,0,0,0-.85-.17,4,4,0,0,0-2,.56c-.07,0-.1,0-.1-.06v-.91a.14.14,0,0,1,.07-.13,4.64,4.64,0,0,1,2.28-.56,2.56,2.56,0,0,1,2.07.8A3.14,3.14,0,0,1,509.71,227.15ZM508.35,231v-2.64a8.39,8.39,0,0,0-1-.05,2.68,2.68,0,0,0-1.57.39,1.23,1.23,0,0,0-.56,1.08,1.44,1.44,0,0,0,.44,1.06,1.8,1.8,0,0,0,1.34.43A3.05,3.05,0,0,0,508.35,231Z"/><path class="cls-2" d="M511.85,224.38h1.06a.13.13,0,0,1,.14.09,4.23,4.23,0,0,1,.13,1,2.91,2.91,0,0,1,2.43-1.21c.06,0,.1,0,.1.09v1.17a.09.09,0,0,1-.1.1,2.67,2.67,0,0,0-2.24.86.57.57,0,0,0-.13.4V232c0,.07,0,.1-.09.1H512c-.07,0-.1,0-.1-.11v-5.46c0-.86,0-1.54-.08-2.05C511.76,224.41,511.79,224.38,511.85,224.38Z"/><path class="cls-2" d="M520.23,232.23a3.71,3.71,0,0,1-2.73-1,3.91,3.91,0,0,1-1-2.94,4,4,0,0,1,1.11-2.93,3.92,3.92,0,0,1,2.92-1.13,3.83,3.83,0,0,1,1.12.14v-3.71a.07.07,0,0,1,.08-.08h1.22c.06,0,.09,0,.09.08v10q0,.36,0,.78a.14.14,0,0,1-.08.14A5.74,5.74,0,0,1,520.23,232.23Zm1.38-1.29V225.5a2.25,2.25,0,0,0-1.14-.24,2.35,2.35,0,0,0-1.89.81,3.21,3.21,0,0,0-.7,2.16,3,3,0,0,0,.72,2.21,2.4,2.4,0,0,0,1.76.72A2.86,2.86,0,0,0,521.61,230.94Z"/><path class="cls-2" d="M529.19,228.33h-3.08a2.89,2.89,0,0,0,.6,2,2.27,2.27,0,0,0,1.86.76,3.79,3.79,0,0,0,1.82-.4c.06,0,.08,0,.08.06v.87a.16.16,0,0,1-.08.16,4.44,4.44,0,0,1-2.09.41,3.23,3.23,0,0,1-2.73-1.12,4.42,4.42,0,0,1-.87-2.81,4.56,4.56,0,0,1,.91-2.91,3,3,0,0,1,2.46-1.17,3,3,0,0,1,1.38.29,2.31,2.31,0,0,1,.92.76,3.86,3.86,0,0,1,.49,1,3.91,3.91,0,0,1,.16,1.07,3.32,3.32,0,0,1-.07.83c0,.06,0,.1-.11.11A16.26,16.26,0,0,1,529.19,228.33Zm-3.07-.93h2.63a6.62,6.62,0,0,0,.92,0,1.31,1.31,0,0,0,0-.27,2.74,2.74,0,0,0-.12-.81,1.61,1.61,0,0,0-.53-.73,1.59,1.59,0,0,0-1-.33,1.55,1.55,0,0,0-1.3.6A3.12,3.12,0,0,0,526.12,227.4Z"/><path class="cls-2" d="M532.7,232v-5.81a16.58,16.58,0,0,0-.08-1.7.08.08,0,0,1,.09-.09h1c.08,0,.13,0,.15.08a3.51,3.51,0,0,1,.09.75,3.17,3.17,0,0,1,2.29-1,2.65,2.65,0,0,1,.85.13,2.55,2.55,0,0,1,.78.44,2.07,2.07,0,0,1,.61.93,4.4,4.4,0,0,1,.23,1.49V232a.1.1,0,0,1-.1.11h-1.17c-.08,0-.13,0-.13-.11v-4.77a2.2,2.2,0,0,0-.37-1.36,1.31,1.31,0,0,0-1.11-.5,2.16,2.16,0,0,0-1.78.92V232a.1.1,0,0,1-.11.11h-1.19C532.73,232.09,532.7,232.05,532.7,232Z"/><path class="cls-2" d="M408.38,242h1.31c.07,0,.1,0,.11.08q1.84,4.84,2,5.52h0q.87-2.33,1.92-5.52c0-.06,0-.08.12-.08H415c.06,0,.09,0,.08.11q-.89,2.81-2.55,6.7-1.43,3.26-2,4.4c0,.07-.08.1-.18.1h-1.21c-.09,0-.1,0,0-.13q.81-1.44,2-4a.2.2,0,0,0,0-.2q-1.1-2.59-2.82-6.84C408.28,242,408.3,242,408.38,242Z"/><path class="cls-2" d="M417,243a3.22,3.22,0,0,1,2.58-1.13,3.16,3.16,0,0,1,2.53,1.1,4.95,4.95,0,0,1,0,5.83,3.22,3.22,0,0,1-2.53,1.08,3.13,3.13,0,0,1-2.64-1.17,4.53,4.53,0,0,1-.89-2.83A4.24,4.24,0,0,1,417,243Zm2.5-.09a1.79,1.79,0,0,0-1.5.77,3.61,3.61,0,0,0-.57,2.17A3.78,3.78,0,0,0,418,248a1.81,1.81,0,0,0,1.58.84,1.83,1.83,0,0,0,1.46-.74,3.5,3.5,0,0,0,.6-2.22,3.88,3.88,0,0,0-.53-2.16A1.78,1.78,0,0,0,419.47,242.86Z"/><path class="cls-2" d="M430.76,242.07v6c0,.48,0,1,.08,1.55,0,.07,0,.1-.09.1h-1.06c-.07,0-.12,0-.13-.08a3.33,3.33,0,0,1-.09-.62,2.94,2.94,0,0,1-2.18.84,2.59,2.59,0,0,1-1.79-.64,2.82,2.82,0,0,1-.72-2.2v-4.92c0-.06,0-.09.11-.09h1.2c.05,0,.08,0,.08.09v4.79a2.14,2.14,0,0,0,.39,1.38,1.35,1.35,0,0,0,1.13.49,2.1,2.1,0,0,0,1.68-.78v-5.88c0-.06,0-.09.11-.09h1.19A.08.08,0,0,1,430.76,242.07Z"/><path class="cls-2" d="M432.91,242h1a.15.15,0,0,1,.15.09,4.9,4.9,0,0,1,.13,1,2.89,2.89,0,0,1,2.43-1.21.08.08,0,0,1,.09.09v1.17c0,.07,0,.1-.09.1a2.7,2.7,0,0,0-2.24.86.57.57,0,0,0-.13.4v5.15c0,.07,0,.1-.1.1H433c-.06,0-.09,0-.09-.11v-5.46c0-.86,0-1.54-.08-2.05C432.82,242,432.84,242,432.91,242Z"/><path class="cls-2" d="M443.69,249.83a4.78,4.78,0,0,1-2.62-.65.19.19,0,0,1-.1-.19v-1.14a.07.07,0,0,1,0-.07s.05,0,.07,0a4.35,4.35,0,0,0,2.66.89,2.29,2.29,0,0,0,1.55-.45,1.5,1.5,0,0,0,.51-1.16,1.67,1.67,0,0,0-.38-1.12,4.63,4.63,0,0,0-1.42-1l-.63-.31a4.62,4.62,0,0,1-1.77-1.3,2.77,2.77,0,0,1-.5-1.69,2.65,2.65,0,0,1,.89-2,3.43,3.43,0,0,1,2.4-.8,4.45,4.45,0,0,1,2.21.47.15.15,0,0,1,.08.16v1.07c0,.09,0,.1-.11.05a3.92,3.92,0,0,0-2.19-.61,1.92,1.92,0,0,0-1.49.49,1.51,1.51,0,0,0-.45,1.05,1.55,1.55,0,0,0,.36,1,4.18,4.18,0,0,0,1.34.91l.72.35a5,5,0,0,1,1.85,1.36,2.85,2.85,0,0,1,.5,1.68,2.67,2.67,0,0,1-.94,2.14A3.85,3.85,0,0,1,443.69,249.83Z"/><path class="cls-2" d="M454.47,244.75v3.55c0,.18,0,.44,0,.78a.07.07,0,0,1,0,.07,6.4,6.4,0,0,1-2.89.68,3.3,3.3,0,0,1-2.12-.62,2.17,2.17,0,0,1-.79-1.82,2,2,0,0,1,1-1.83,4.64,4.64,0,0,1,2.49-.61,8,8,0,0,1,1,0v-.48a2,2,0,0,0-.06-.48,1.91,1.91,0,0,0-.22-.5,1,1,0,0,0-.5-.44,2,2,0,0,0-.85-.17,4,4,0,0,0-2,.56c-.07,0-.1,0-.1-.06v-.91a.15.15,0,0,1,.06-.13,4.71,4.71,0,0,1,2.29-.56,2.56,2.56,0,0,1,2.07.8A3.13,3.13,0,0,1,454.47,244.75Zm-1.36,3.82v-2.64a8.06,8.06,0,0,0-.94-.05,2.73,2.73,0,0,0-1.58.39,1.24,1.24,0,0,0-.55,1.08,1.47,1.47,0,0,0,.43,1.06,1.84,1.84,0,0,0,1.35.43A3,3,0,0,0,453.11,248.57Z"/><path class="cls-2" d="M461.85,244.75v3.55q0,.27,0,.78a.08.08,0,0,1,0,.07,6.44,6.44,0,0,1-2.9.68,3.32,3.32,0,0,1-2.12-.62,2.2,2.2,0,0,1-.79-1.82,2,2,0,0,1,1-1.83,4.65,4.65,0,0,1,2.5-.61,8,8,0,0,1,1,0v-.48a2,2,0,0,0-.06-.48,3,3,0,0,0-.22-.5,1.09,1.09,0,0,0-.5-.44,2,2,0,0,0-.85-.17,4,4,0,0,0-2,.56q-.09,0-.09-.06v-.91a.15.15,0,0,1,.06-.13,4.68,4.68,0,0,1,2.29-.56,2.54,2.54,0,0,1,2.06.8A3.14,3.14,0,0,1,461.85,244.75Zm-1.36,3.82v-2.64a8.2,8.2,0,0,0-.94-.05,2.71,2.71,0,0,0-1.58.39,1.22,1.22,0,0,0-.55,1.08,1.43,1.43,0,0,0,.43,1.06,1.83,1.83,0,0,0,1.34.43A3,3,0,0,0,460.49,248.57Z"/><path class="cls-2" d="M466.23,249.83a4.8,4.8,0,0,1-2.62-.65.2.2,0,0,1-.1-.19v-1.14a.08.08,0,0,1,0-.07.05.05,0,0,1,.08,0,4.3,4.3,0,0,0,2.65.89,2.28,2.28,0,0,0,1.55-.45,1.47,1.47,0,0,0,.52-1.16A1.63,1.63,0,0,0,468,246a4.5,4.5,0,0,0-1.42-1l-.63-.31a4.49,4.49,0,0,1-1.76-1.3,2.71,2.71,0,0,1-.51-1.69,2.65,2.65,0,0,1,.89-2,3.44,3.44,0,0,1,2.41-.8,4.48,4.48,0,0,1,2.21.47.17.17,0,0,1,.08.16v1.07c0,.09,0,.1-.12.05a3.9,3.9,0,0,0-2.19-.61,1.94,1.94,0,0,0-1.49.49,1.57,1.57,0,0,0-.08,2.09,4.11,4.11,0,0,0,1.33.91l.72.35a4.91,4.91,0,0,1,1.85,1.36,2.78,2.78,0,0,1,.5,1.68,2.69,2.69,0,0,1-.93,2.14A3.89,3.89,0,0,1,466.23,249.83Z"/><path class="cls-2" d="M478.71,243.37a3,3,0,0,0-1.66-.5,1.47,1.47,0,0,0-1,.28.91.91,0,0,0-.3.68,1,1,0,0,0,.27.68,3.26,3.26,0,0,0,1.07.65,4.68,4.68,0,0,1,1.64,1,2,2,0,0,1,.49,1.39,2,2,0,0,1-.76,1.65,3,3,0,0,1-1.94.59,3.82,3.82,0,0,1-2.05-.48.19.19,0,0,1-.08-.16v-1.07c0-.1,0-.13.1-.06a3.15,3.15,0,0,0,2,.7,1.56,1.56,0,0,0,1-.28.89.89,0,0,0,.35-.73,1,1,0,0,0-.29-.75,3.83,3.83,0,0,0-1.08-.67,4.24,4.24,0,0,1-1.56-1,2.11,2.11,0,0,1,.2-2.89,2.7,2.7,0,0,1,1.87-.61,3.62,3.62,0,0,1,1.74.35c.06,0,.08.07.08.16v1C478.83,243.39,478.79,243.41,478.71,243.37Z"/><path class="cls-2" d="M484.23,248.75v.7a.19.19,0,0,1-.09.16,2.83,2.83,0,0,1-1.22.22c-1.22,0-1.84-.68-1.84-2.06V243h-1a.1.1,0,0,1-.09-.12v-.84c0-.06,0-.09.11-.09h1a14.82,14.82,0,0,1,.14-2c0-.07,0-.11.1-.12l1.13-.16c.07,0,.1,0,.1.06-.05.57-.08,1.3-.08,2.21h1.6c.06,0,.1,0,.1.09v.87c0,.06,0,.09-.1.09h-1.62v4.64q0,1.14.93,1.14a2.62,2.62,0,0,0,.74-.14C484.2,248.64,484.23,248.67,484.23,248.75Z"/><path class="cls-2" d="M491.1,244.75v3.55q0,.27,0,.78a.08.08,0,0,1,0,.07,6.44,6.44,0,0,1-2.9.68,3.32,3.32,0,0,1-2.12-.62,2.17,2.17,0,0,1-.79-1.82,2,2,0,0,1,1-1.83,4.65,4.65,0,0,1,2.5-.61,8.2,8.2,0,0,1,1,0v-.48a1.59,1.59,0,0,0-.07-.48,2.24,2.24,0,0,0-.21-.5,1.07,1.07,0,0,0-.51-.44,1.93,1.93,0,0,0-.84-.17,4,4,0,0,0-2,.56c-.06,0-.1,0-.1-.06v-.91a.14.14,0,0,1,.07-.13,4.64,4.64,0,0,1,2.28-.56,2.56,2.56,0,0,1,2.07.8A3.14,3.14,0,0,1,491.1,244.75Zm-1.36,3.82v-2.64a8.25,8.25,0,0,0-.95-.05,2.68,2.68,0,0,0-1.57.39,1.23,1.23,0,0,0-.56,1.08,1.44,1.44,0,0,0,.44,1.06,1.81,1.81,0,0,0,1.34.43A3.05,3.05,0,0,0,489.74,248.57Z"/><path class="cls-2" d="M498.23,248.54l0,.89a.13.13,0,0,1-.08.13,4.21,4.21,0,0,1-1.67.27,3.38,3.38,0,0,1-2.72-1.11,4.2,4.2,0,0,1-.95-2.85,4.09,4.09,0,0,1,1.06-2.91,3.66,3.66,0,0,1,2.81-1.14,3.31,3.31,0,0,1,1.47.24.16.16,0,0,1,.08.14l0,.91c0,.08,0,.11-.11.08a2.83,2.83,0,0,0-1.36-.28,2.28,2.28,0,0,0-1.83.8,3.1,3.1,0,0,0-.7,2.11A3,3,0,0,0,495,248a2.42,2.42,0,0,0,1.8.75,3.32,3.32,0,0,0,1.39-.26C498.21,248.45,498.23,248.47,498.23,248.54Z"/><path class="cls-2" d="M499.85,238.27c0-.07,0-.1.11-.1h1.19c.06,0,.09,0,.09.1v7h.21a1,1,0,0,0,.31,0A1,1,0,0,0,502,245c.07-.1.3-.37.67-.82l1-1.27c.32-.39.55-.66.67-.82a.12.12,0,0,1,.13-.08h1.28c.11,0,.13,0,.07.13s-.63.75-1.48,1.7-1.35,1.54-1.52,1.75a.08.08,0,0,0,0,.11q2.34,2.63,3.47,3.91s0,0,0,.07a.07.07,0,0,1-.07,0h-1.52a.25.25,0,0,1-.18-.08l-1.31-1.54L502,246.52a1.29,1.29,0,0,0-.24-.22.56.56,0,0,0-.27-.05h-.21v3.33c0,.07,0,.11-.09.11H500a.1.1,0,0,1-.11-.11Z"/><path class="cls-2" d="M514.63,243.37a3,3,0,0,0-1.66-.5,1.47,1.47,0,0,0-1,.28.91.91,0,0,0-.3.68,1,1,0,0,0,.27.68,3.26,3.26,0,0,0,1.07.65,4.68,4.68,0,0,1,1.64,1,2,2,0,0,1,.49,1.39,2,2,0,0,1-.76,1.65,3,3,0,0,1-1.94.59,3.82,3.82,0,0,1-2.05-.48.19.19,0,0,1-.08-.16v-1.07c0-.1,0-.13.09-.06a3.18,3.18,0,0,0,2,.7,1.58,1.58,0,0,0,1-.28.89.89,0,0,0,.35-.73,1,1,0,0,0-.29-.75,3.77,3.77,0,0,0-1.09-.67,4.27,4.27,0,0,1-1.55-1,2.11,2.11,0,0,1,.2-2.89,2.7,2.7,0,0,1,1.87-.61,3.62,3.62,0,0,1,1.74.35c.06,0,.08.07.08.16v1C514.75,243.39,514.71,243.41,514.63,243.37Z"/><path class="cls-2" d="M521,245.93H517.9a3,3,0,0,0,.6,2,2.27,2.27,0,0,0,1.86.76,3.77,3.77,0,0,0,1.82-.4c.06,0,.08,0,.08.06v.87a.16.16,0,0,1-.08.16,4.44,4.44,0,0,1-2.09.41,3.23,3.23,0,0,1-2.73-1.12,4.42,4.42,0,0,1-.87-2.81,4.56,4.56,0,0,1,.91-2.91,3.25,3.25,0,0,1,3.84-.88,2.25,2.25,0,0,1,.92.76,3.86,3.86,0,0,1,.49,1,3.56,3.56,0,0,1,.16,1.07,4.06,4.06,0,0,1-.06.83c0,.06,0,.1-.12.11A16.15,16.15,0,0,1,521,245.93Zm-3.08-.93h2.63a6.93,6.93,0,0,0,.93,0,1.64,1.64,0,0,0,0-.27,2.74,2.74,0,0,0-.12-.81,1.54,1.54,0,0,0-.53-.73,1.73,1.73,0,0,0-2.33.27A3.12,3.12,0,0,0,517.91,245Z"/><path class="cls-2" d="M529.59,248.54l0,.89a.13.13,0,0,1-.08.13,4.21,4.21,0,0,1-1.67.27,3.38,3.38,0,0,1-2.72-1.11,4.2,4.2,0,0,1-1-2.85,4.1,4.1,0,0,1,1.07-2.91,3.66,3.66,0,0,1,2.81-1.14,3.31,3.31,0,0,1,1.47.24.16.16,0,0,1,.08.14l0,.91c0,.08,0,.11-.11.08a2.86,2.86,0,0,0-1.36-.28,2.28,2.28,0,0,0-1.83.8,3.1,3.1,0,0,0-.7,2.11,3,3,0,0,0,.73,2.16,2.42,2.42,0,0,0,1.8.75,3.35,3.35,0,0,0,1.39-.26C529.57,248.45,529.59,248.47,529.59,248.54Z"/><path class="cls-2" d="M537.13,242.07v6c0,.48,0,1,.08,1.55,0,.07,0,.1-.1.1h-1.05c-.08,0-.12,0-.13-.08a3.19,3.19,0,0,1-.1-.62,2.92,2.92,0,0,1-2.17.84,2.55,2.55,0,0,1-1.79-.64,2.82,2.82,0,0,1-.72-2.2v-4.92c0-.06,0-.09.11-.09h1.2s.08,0,.08.09v4.79a2.14,2.14,0,0,0,.39,1.38,1.35,1.35,0,0,0,1.13.49,2.1,2.1,0,0,0,1.68-.78v-5.88c0-.06,0-.09.11-.09H537C537.1,242,537.13,242,537.13,242.07Z"/><path class="cls-2" d="M539.27,242h1.06a.13.13,0,0,1,.14.09,3.72,3.72,0,0,1,.13,1,2.91,2.91,0,0,1,2.43-1.21c.07,0,.1,0,.1.09v1.17c0,.07,0,.1-.1.1a2.71,2.71,0,0,0-2.24.86.62.62,0,0,0-.13.4v5.15c0,.07,0,.1-.09.1h-1.2c-.07,0-.1,0-.1-.11v-5.46a18.77,18.77,0,0,0-.08-2.05C539.18,242,539.21,242,539.27,242Z"/><path class="cls-2" d="M545.18,240.3a.75.75,0,0,1-.79-.79.79.79,0,0,1,.8-.8.75.75,0,0,1,.57.23.81.81,0,0,1,.22.57.78.78,0,0,1-.22.57A.76.76,0,0,1,545.18,240.3Zm-.69,9.28v-7.51a.08.08,0,0,1,.09-.09h1.19c.07,0,.11,0,.11.09v7.51a.1.1,0,0,1-.11.11H544.6A.1.1,0,0,1,544.49,249.58Z"/><path class="cls-2" d="M551.45,248.75v.7a.18.18,0,0,1-.1.16,2.78,2.78,0,0,1-1.21.22c-1.23,0-1.84-.68-1.84-2.06V243h-1a.11.11,0,0,1-.1-.12v-.84c0-.06,0-.09.11-.09h1a12.73,12.73,0,0,1,.15-2q0-.11.09-.12l1.14-.16c.06,0,.09,0,.09.06,0,.57-.08,1.3-.08,2.21h1.6c.07,0,.1,0,.1.09v.87c0,.06,0,.09-.1.09h-1.61v4.64q0,1.14.93,1.14a2.56,2.56,0,0,0,.73-.14C551.42,248.64,551.45,248.67,551.45,248.75Z"/><path class="cls-2" d="M552.39,242h1.31c.07,0,.11,0,.12.08q1.83,4.84,2,5.52h0q.89-2.33,1.92-5.52c0-.06.05-.08.13-.08h1.12c.06,0,.09,0,.08.11q-.89,2.81-2.55,6.7c-1,2.17-1.62,3.64-2,4.4,0,.07-.08.1-.17.1h-1.22c-.09,0-.1,0,0-.13.55-1,1.21-2.31,2-4a.2.2,0,0,0,0-.2q-1.1-2.59-2.82-6.84C552.29,242,552.32,242,552.39,242Z"/><line class="cls-3" x1="399.43" y1="436.94" x2="339.59" y2="333.3"/><polygon class="cls-4" points="342.62 332.56 337.44 329.57 337.44 335.55 342.62 332.56"/><line class="cls-3" x1="329.44" y1="315.72" x2="293.57" y2="253.58"/><line class="cls-3" x1="337.89" y1="438.81" x2="311.51" y2="340.34"/><polygon class="cls-4" points="340.55 437.19 339 442.97 334.77 438.74 340.55 437.19"/><line class="cls-3" x1="307.37" y1="324.88" x2="288.8" y2="255.56"/><line class="cls-5" x1="283.67" y1="4.94" x2="283.67" y2="216.67"/><line class="cls-5" x1="283.67" y1="256.23" x2="283.67" y2="467.95"/><line class="cls-3" x1="307.37" y1="148.02" x2="288.8" y2="217.34"/><line class="cls-3" x1="343.59" y1="12.83" x2="312.62" y2="128.4"/><polygon class="cls-4" points="309.96 126.78 311.51 132.56 315.74 128.33 309.96 126.78"/><line class="cls-3" x1="329.44" y1="157.18" x2="293.57" y2="219.32"/><line class="cls-3" x1="386.76" y1="57.9" x2="337.44" y2="143.33"/><polygon class="cls-4" points="383.73 57.16 388.91 54.17 388.91 60.15 383.73 57.16"/><line class="cls-3" x1="348.38" y1="171.74" x2="297.66" y2="222.46"/><line class="cls-3" x1="447.37" y1="72.75" x2="362.73" y2="157.38"/><polygon class="cls-4" points="361.23 154.65 359.69 160.43 365.46 158.88 361.23 154.65"/><line class="cls-3" x1="204.61" y1="315.51" x2="119.98" y2="400.15"/><polygon class="cls-4" points="201.88 314.02 207.66 312.47 206.11 318.25 201.88 314.02"/><line class="cls-3" x1="269.69" y1="250.44" x2="222.02" y2="298.1"/><polygon class="cls-4" points="220.52 295.37 218.98 301.15 224.75 299.6 220.52 295.37"/><line class="cls-3" x1="362.94" y1="190.69" x2="300.81" y2="226.56"/><line class="cls-3" x1="456.63" y1="136.6" x2="376.8" y2="182.69"/><polygon class="cls-4" points="454.37 134.45 460.36 134.45 457.37 139.63 454.37 134.45"/><line class="cls-3" x1="507.29" y1="176.53" x2="391.73" y2="207.49"/><polygon class="cls-4" points="391.8 204.38 387.57 208.61 393.35 210.16 391.8 204.38"/><line class="cls-3" x1="372.11" y1="212.75" x2="302.78" y2="231.33"/><line class="cls-6" x1="523.18" y1="236.45" x2="311.45" y2="236.45"/><line class="cls-3" x1="171.81" y1="236.45" x2="52.17" y2="236.45"/><polygon class="cls-4" points="170.94 233.46 176.12 236.45 170.94 239.44 170.94 233.46"/><line class="cls-3" x1="263.89" y1="236.45" x2="196.42" y2="236.45"/><polygon class="cls-4" points="197.3 233.46 192.12 236.45 197.3 239.44 197.3 233.46"/><line class="cls-3" x1="480.18" y1="289.1" x2="387.57" y2="264.29"/><polygon class="cls-4" points="480.11 285.99 484.33 290.22 478.56 291.77 480.11 285.99"/><line class="cls-3" x1="372.11" y1="260.15" x2="302.78" y2="241.57"/><line class="cls-3" x1="362.94" y1="282.21" x2="300.81" y2="246.34"/><line class="cls-3" x1="484.17" y1="352.2" x2="380.52" y2="292.36"/><polygon class="cls-4" points="382.78 290.21 376.8 290.21 379.79 295.39 382.78 290.21"/><line class="cls-3" x1="348.38" y1="301.16" x2="297.66" y2="250.44"/><line class="cls-3" x1="432.91" y1="385.68" x2="359.69" y2="312.47"/><polygon class="cls-4" points="434.4 382.95 435.95 388.73 430.17 387.18 434.4 382.95"/><line class="cls-3" x1="204.61" y1="157.38" x2="119.98" y2="72.75"/><polygon class="cls-4" points="206.11 154.65 207.66 160.43 201.88 158.88 206.11 154.65"/><line class="cls-3" x1="222.02" y1="174.79" x2="269.69" y2="222.46"/><polygon class="cls-4" points="220.52 177.53 218.97 171.75 224.75 173.29 220.52 177.53"/><circle class="cls-3" cx="283.67" cy="236.45" r="99.55"/><circle class="cls-2" cx="283.67" cy="236.45" r="56.78"/><path class="cls-4" d="M250.41,246.55a12.19,12.19,0,0,1-6-1.39c-.16-.06-.24-.22-.24-.46v-3.37a.19.19,0,0,1,.09-.18c.05,0,.12,0,.21,0a10.39,10.39,0,0,0,6,2,4.56,4.56,0,0,0,2.9-.74,2.27,2.27,0,0,0,.93-1.86,2.56,2.56,0,0,0-.73-1.87,8.9,8.9,0,0,0-2.7-1.6l-1.36-.56a10.35,10.35,0,0,1-4-2.74,6.14,6.14,0,0,1,.81-8.17,8.34,8.34,0,0,1,5.69-1.76,10.72,10.72,0,0,1,5.08,1,.46.46,0,0,1,.23.43v3.07c0,.22-.1.26-.3.13a9.55,9.55,0,0,0-5.11-1.39,3.88,3.88,0,0,0-2.69.79,2.36,2.36,0,0,0-.84,1.72,2.45,2.45,0,0,0,.69,1.75,9.25,9.25,0,0,0,2.71,1.62l1.38.59a10.47,10.47,0,0,1,4.23,2.84,5.81,5.81,0,0,1,1.15,3.63,5.69,5.69,0,0,1-2.21,4.73A9.38,9.38,0,0,1,250.41,246.55Z"/><path class="cls-4" d="M267.83,246.55a12.19,12.19,0,0,1-6-1.39c-.16-.06-.23-.22-.23-.46v-3.37a.21.21,0,0,1,.08-.18c.05,0,.13,0,.21,0a10.39,10.39,0,0,0,6,2,4.61,4.61,0,0,0,2.91-.74,2.29,2.29,0,0,0,.92-1.86,2.59,2.59,0,0,0-.72-1.87,9.12,9.12,0,0,0-2.71-1.6l-1.35-.56a10.4,10.4,0,0,1-4-2.74,6.14,6.14,0,0,1,.81-8.17,8.35,8.35,0,0,1,5.69-1.76,10.72,10.72,0,0,1,5.08,1,.45.45,0,0,1,.24.43v3.07c0,.22-.1.26-.3.13a9.58,9.58,0,0,0-5.12-1.39,3.88,3.88,0,0,0-2.69.79,2.36,2.36,0,0,0-.84,1.72,2.41,2.41,0,0,0,.7,1.75,9.16,9.16,0,0,0,2.7,1.62l1.39.59a10.5,10.5,0,0,1,4.22,2.84,5.82,5.82,0,0,1,1.16,3.63,5.67,5.67,0,0,1-2.22,4.73A9.38,9.38,0,0,1,267.83,246.55Z"/><path class="cls-4" d="M279.91,246V224.47a.21.21,0,0,1,.23-.23c1.67,0,3.8-.07,6.37-.07,3,0,5.26.69,6.68,2.05a6.72,6.72,0,0,1,2.13,5.05,6.27,6.27,0,0,1-2.64,5.54,11.44,11.44,0,0,1-6.63,1.82H284.1V246a.24.24,0,0,1-.26.27h-3.67C280,246.22,279.91,246.14,279.91,246Zm4.19-18.65v8.12a21.27,21.27,0,0,0,2.15.07,6.06,6.06,0,0,0,3.58-1,3.64,3.64,0,0,0,1.37-3.18,3.81,3.81,0,0,0-1.21-3,5.13,5.13,0,0,0-3.48-1.05H285.4c-.36,0-.66,0-.89,0Z"/><path class="cls-4" d="M299.81,224.44c0-.14.11-.2.26-.2h5.51c.2,0,.31.08.33.23q4.23,14.46,4.59,16.3h0q.41-1.58,2.46-8.36c1.38-4.52,2.17-7.17,2.39-7.94a.33.33,0,0,1,.3-.23H321c.15,0,.24.06.26.2l.93,21.51q0,.27-.27.27h-3.86c-.18,0-.26-.08-.26-.23q-.27-13.28-.17-18.78h0q-.19.85-5.38,18.78a.35.35,0,0,1-.33.23h-3.23c-.22,0-.35-.08-.37-.23q-3.49-11.88-5.15-18.81h0q-.06,8.37-.53,18.81c0,.15-.08.23-.26.23h-3.47c-.19,0-.28-.09-.26-.27Z"/><rect class="cls-1" y="71.03" width="153.54" height="70.14" rx="4.53"/><rect class="cls-1" y="330.01" width="153.54" height="70.14" rx="4.53"/><rect class="cls-1" y="201.38" width="153.54" height="70.14" rx="4.53"/><path class="cls-2" d="M22.57,91.49v10.44a.1.1,0,0,1-.11.11H21.29a.1.1,0,0,1-.11-.11V91.49c0-.07,0-.11.09-.11h1.2C22.54,91.38,22.57,91.42,22.57,91.49Z"/><path class="cls-2" d="M28.23,102.18a3.76,3.76,0,0,1-2.73-1,3.91,3.91,0,0,1-1-2.94,4,4,0,0,1,1.11-2.93,3.92,3.92,0,0,1,2.92-1.13,3.51,3.51,0,0,1,1.12.14V90.6a.07.07,0,0,1,.08-.08h1.22c.06,0,.09,0,.09.08v10q0,.36,0,.78a.14.14,0,0,1-.08.14A5.74,5.74,0,0,1,28.23,102.18Zm1.38-1.29V95.45a2.25,2.25,0,0,0-1.14-.24,2.35,2.35,0,0,0-1.89.81,3.21,3.21,0,0,0-.7,2.16,3,3,0,0,0,.72,2.21,2.4,2.4,0,0,0,1.76.72A2.86,2.86,0,0,0,29.61,100.89Z"/><path class="cls-2" d="M37.19,98.28H34.11a2.94,2.94,0,0,0,.6,2,2.27,2.27,0,0,0,1.86.76,3.79,3.79,0,0,0,1.82-.4c.06,0,.08,0,.08.06v.87a.17.17,0,0,1-.08.16,4.57,4.57,0,0,1-2.09.41,3.23,3.23,0,0,1-2.73-1.12,4.42,4.42,0,0,1-.87-2.81,4.59,4.59,0,0,1,.91-2.92,3,3,0,0,1,2.46-1.16,3.12,3.12,0,0,1,1.38.28,2.42,2.42,0,0,1,.92.77A3.59,3.59,0,0,1,39,97.29a3.32,3.32,0,0,1-.07.83c0,.06,0,.1-.11.11A16.26,16.26,0,0,1,37.19,98.28Zm-3.07-.93h2.63a6.62,6.62,0,0,0,.92,0,1.31,1.31,0,0,0,0-.27,2.74,2.74,0,0,0-.12-.81,1.69,1.69,0,0,0-2.86-.46A3.12,3.12,0,0,0,34.12,97.35Z"/><path class="cls-2" d="M40.7,101.93V96.12a16.58,16.58,0,0,0-.08-1.7.08.08,0,0,1,.09-.09h1c.08,0,.13,0,.15.08a3.32,3.32,0,0,1,.09.75,3.17,3.17,0,0,1,2.29-1,2.65,2.65,0,0,1,.85.13,2.55,2.55,0,0,1,.78.44,2,2,0,0,1,.61.93,4.4,4.4,0,0,1,.23,1.49v4.77a.1.1,0,0,1-.1.11H45.48c-.08,0-.13,0-.13-.11V97.16A2.2,2.2,0,0,0,45,95.8a1.31,1.31,0,0,0-1.11-.5,2.18,2.18,0,0,0-1.78.91v5.72A.1.1,0,0,1,42,102H40.79C40.73,102,40.7,102,40.7,101.93Z"/><path class="cls-2" d="M52.17,101.1v.7a.18.18,0,0,1-.1.16,2.78,2.78,0,0,1-1.21.22c-1.23,0-1.84-.69-1.84-2.06V95.38H48a.12.12,0,0,1-.1-.13v-.83q0-.09.12-.09h1a14.2,14.2,0,0,1,.15-2,.15.15,0,0,1,.09-.13l1.14-.16c.06,0,.1,0,.1.07-.06.56-.08,1.3-.08,2.21H52a.08.08,0,0,1,.09.09v.87a.08.08,0,0,1-.09.09H50.41V100q0,1.14.93,1.14a2.26,2.26,0,0,0,.73-.15C52.14,101,52.17,101,52.17,101.1Z"/><path class="cls-2" d="M54.33,92.65a.75.75,0,0,1-.57-.22.86.86,0,0,1,0-1.14.78.78,0,0,1,.58-.23.74.74,0,0,1,.56.23.77.77,0,0,1,.22.57.74.74,0,0,1-.22.57A.75.75,0,0,1,54.33,92.65Zm-.69,9.28V94.42c0-.06,0-.09.1-.09h1.18c.08,0,.11,0,.11.09v7.51a.1.1,0,0,1-.11.11H53.75A.1.1,0,0,1,53.64,101.93Z"/><path class="cls-2" d="M57.47,95.38h-1c-.07,0-.1-.06-.1-.11v-.86c0-.06,0-.08.1-.08h1v-.8a3.92,3.92,0,0,1,.4-1.92A2.2,2.2,0,0,1,60,90.36a2,2,0,0,1,.91.16.13.13,0,0,1,.08.13v1c0,.08,0,.11-.1.08a1.42,1.42,0,0,0-.72-.16c-.86,0-1.29.62-1.29,1.87v.93H60.3c.06,0,.09,0,.09.08v.86a.1.1,0,0,1-.09.11H58.86v6.55c0,.07,0,.11-.1.11H57.58a.1.1,0,0,1-.11-.11Z"/><path class="cls-2" d="M61.39,94.33H62.7c.06,0,.1,0,.11.08,1.23,3.23,1.9,5.07,2,5.52h0q.88-2.33,1.92-5.52c0-.06.06-.08.13-.08H68c.07,0,.09,0,.08.11-.59,1.87-1.43,4.1-2.54,6.7-1,2.17-1.63,3.63-2,4.4a.17.17,0,0,1-.18.1H62.15c-.08,0-.1,0,0-.13q.81-1.44,2-4.05a.22.22,0,0,0,0-.21Q63,98.67,61.31,94.42C61.28,94.36,61.31,94.33,61.39,94.33Z"/><path class="cls-2" d="M75,102.18a4.89,4.89,0,0,1-2.62-.65.2.2,0,0,1-.1-.2V100.2a.08.08,0,0,1,0-.07s.05,0,.07,0a4.35,4.35,0,0,0,2.66.89,2.29,2.29,0,0,0,1.55-.45,1.52,1.52,0,0,0,.51-1.17,1.65,1.65,0,0,0-.38-1.12,5,5,0,0,0-1.42-1l-.63-.3A4.49,4.49,0,0,1,73,95.73,2.88,2.88,0,0,1,73.33,92a3.48,3.48,0,0,1,2.41-.79,4.48,4.48,0,0,1,2.21.47.17.17,0,0,1,.08.16v1.07c0,.08,0,.1-.12,0a3.92,3.92,0,0,0-2.19-.61,1.94,1.94,0,0,0-1.49.49,1.49,1.49,0,0,0-.44,1,1.6,1.6,0,0,0,.35,1,4.18,4.18,0,0,0,1.34.91l.72.35a4.91,4.91,0,0,1,1.85,1.36,2.85,2.85,0,0,1,.5,1.68,2.67,2.67,0,0,1-.93,2.13A3.84,3.84,0,0,1,75,102.18Z"/><path class="cls-2" d="M85.82,97.1v3.55q0,.27,0,.78a.06.06,0,0,1,0,.06,6.35,6.35,0,0,1-2.9.69,3.38,3.38,0,0,1-2.12-.62A2.19,2.19,0,0,1,80,99.73a2,2,0,0,1,1-1.82,4.64,4.64,0,0,1,2.49-.61c.45,0,.78,0,1,0v-.48a1.91,1.91,0,0,0-.07-.47,2.24,2.24,0,0,0-.21-.5,1.07,1.07,0,0,0-.51-.44,2,2,0,0,0-.85-.17,4,4,0,0,0-2,.56c-.07,0-.1,0-.1-.06v-.92a.13.13,0,0,1,.07-.12,4.64,4.64,0,0,1,2.28-.56,2.56,2.56,0,0,1,2.07.8A3.14,3.14,0,0,1,85.82,97.1Zm-1.36,3.82V98.28a8.25,8.25,0,0,0-.95,0,2.68,2.68,0,0,0-1.57.39,1.23,1.23,0,0,0-.56,1.08,1.44,1.44,0,0,0,.44,1.06,1.8,1.8,0,0,0,1.34.43A3.05,3.05,0,0,0,84.46,100.92Z"/><path class="cls-2" d="M93.19,97.1v3.55q0,.27,0,.78a.06.06,0,0,1,0,.06,6.28,6.28,0,0,1-2.89.69,3.34,3.34,0,0,1-2.12-.62,2.2,2.2,0,0,1-.8-1.83,2,2,0,0,1,1-1.82,4.67,4.67,0,0,1,2.5-.61q.68,0,1,0v-.48a1.89,1.89,0,0,0-.06-.47,2.32,2.32,0,0,0-.22-.5,1.09,1.09,0,0,0-.5-.44,2,2,0,0,0-.85-.17,4,4,0,0,0-2,.56q-.09,0-.09-.06v-.92a.14.14,0,0,1,.06-.12,4.71,4.71,0,0,1,2.29-.56,2.53,2.53,0,0,1,2.06.8A3.14,3.14,0,0,1,93.19,97.1Zm-1.36,3.82V98.28a8.06,8.06,0,0,0-.94,0,2.73,2.73,0,0,0-1.58.39,1.22,1.22,0,0,0-.55,1.08,1.43,1.43,0,0,0,.43,1.06,1.84,1.84,0,0,0,1.35.43A3,3,0,0,0,91.83,100.92Z"/><path class="cls-2" d="M97.58,102.18a4.93,4.93,0,0,1-2.63-.65.22.22,0,0,1-.09-.2V100.2a.07.07,0,0,1,0-.07,0,0,0,0,1,.07,0,4.32,4.32,0,0,0,2.65.89,2.31,2.31,0,0,0,1.56-.45,1.52,1.52,0,0,0,.51-1.17,1.66,1.66,0,0,0-.39-1.12,4.87,4.87,0,0,0-1.42-1l-.62-.3a4.54,4.54,0,0,1-1.77-1.3A2.88,2.88,0,0,1,95.87,92a3.5,3.5,0,0,1,2.41-.79,4.48,4.48,0,0,1,2.21.47.17.17,0,0,1,.08.16v1.07c0,.08,0,.1-.11,0a3.93,3.93,0,0,0-2.2-.61,1.91,1.91,0,0,0-1.48.49,1.5,1.5,0,0,0-.45,1,1.56,1.56,0,0,0,.36,1,4.11,4.11,0,0,0,1.33.91l.72.35a4.83,4.83,0,0,1,1.85,1.36,2.79,2.79,0,0,1,.51,1.68,2.68,2.68,0,0,1-.94,2.13A3.82,3.82,0,0,1,97.58,102.18Z"/><path class="cls-2" d="M22.28,119.64H21.1a.1.1,0,0,1-.11-.11v-5.94c0-.64,0-1.16-.07-1.57,0-.06,0-.09.1-.09h1a.15.15,0,0,1,.13.08,3.34,3.34,0,0,1,.11.7,3.1,3.1,0,0,1,2.25-.94,2.09,2.09,0,0,1,2,1.1,3.58,3.58,0,0,1,2.54-1.1,2.42,2.42,0,0,1,1.75.67,3,3,0,0,1,.72,2.29v4.8c0,.07,0,.11-.12.11H30.27c-.08,0-.12,0-.12-.13v-4.78a2.26,2.26,0,0,0-.36-1.34,1.28,1.28,0,0,0-1.11-.5,2.21,2.21,0,0,0-1.77.89,6.46,6.46,0,0,1,.06,1v4.79c0,.07,0,.11-.1.11H25.69a.1.1,0,0,1-.11-.11v-4.82a2.12,2.12,0,0,0-.38-1.33,1.29,1.29,0,0,0-1.08-.48,2.24,2.24,0,0,0-1.74.87v5.77C22.38,119.61,22.35,119.64,22.28,119.64Z"/><path class="cls-2" d="M34.39,110.25a.73.73,0,0,1-.56-.22.74.74,0,0,1-.22-.57.77.77,0,0,1,.22-.57.83.83,0,0,1,1.15,0,.8.8,0,0,1,.21.57A.77.77,0,0,1,35,110,.78.78,0,0,1,34.39,110.25Zm-.68,9.28V112a.08.08,0,0,1,.09-.09H35c.07,0,.11,0,.11.09v7.51a.1.1,0,0,1-.11.11H33.82A.1.1,0,0,1,33.71,119.53Z"/><path class="cls-2" d="M41.18,113.32a3,3,0,0,0-1.67-.5,1.44,1.44,0,0,0-1,.28.93.93,0,0,0,0,1.36,3.15,3.15,0,0,0,1.07.65,4.78,4.78,0,0,1,1.64,1,2,2,0,0,1,.49,1.39,2,2,0,0,1-.76,1.65,3.06,3.06,0,0,1-2,.59,3.86,3.86,0,0,1-2-.48.19.19,0,0,1-.08-.16v-1.07c0-.11,0-.13.1-.06a3.18,3.18,0,0,0,2,.7,1.55,1.55,0,0,0,1-.28.89.89,0,0,0,.36-.73,1.05,1.05,0,0,0-.29-.75,3.69,3.69,0,0,0-1.09-.67,4.24,4.24,0,0,1-1.56-1,2.14,2.14,0,0,1,.21-2.9,2.7,2.7,0,0,1,1.86-.6,3.55,3.55,0,0,1,1.75.35c.05,0,.08.07.08.16l0,1C41.29,113.33,41.25,113.36,41.18,113.32Z"/><path class="cls-2" d="M48.46,118.49v.89c0,.07,0,.11-.08.13a4.16,4.16,0,0,1-1.66.27A3.41,3.41,0,0,1,44,118.67a4.25,4.25,0,0,1-1-2.86,4.08,4.08,0,0,1,1.06-2.9,3.67,3.67,0,0,1,2.81-1.14,3.31,3.31,0,0,1,1.47.24.14.14,0,0,1,.08.14v.91c0,.08,0,.1-.11.08a2.88,2.88,0,0,0-1.36-.29,2.32,2.32,0,0,0-1.84.81,3.1,3.1,0,0,0-.69,2.11,3,3,0,0,0,.73,2.16,2.39,2.39,0,0,0,1.8.75,3.38,3.38,0,0,0,1.39-.26S48.46,118.42,48.46,118.49Z"/><path class="cls-2" d="M50.63,112.89a3.24,3.24,0,0,1,2.58-1.12,3.18,3.18,0,0,1,2.54,1.1,4.35,4.35,0,0,1,.93,2.9,4.29,4.29,0,0,1-1,2.93,3.22,3.22,0,0,1-2.53,1.08,3.13,3.13,0,0,1-2.64-1.17,4.59,4.59,0,0,1-.89-2.83A4.28,4.28,0,0,1,50.63,112.89Zm2.5-.08a1.79,1.79,0,0,0-1.5.77,3.61,3.61,0,0,0-.57,2.17,3.78,3.78,0,0,0,.57,2.17,1.85,1.85,0,0,0,3,.09,3.45,3.45,0,0,0,.6-2.21,4,4,0,0,0-.52-2.16A1.79,1.79,0,0,0,53.13,112.81Z"/><path class="cls-2" d="M58.41,119.53v-5.81a16.58,16.58,0,0,0-.08-1.7.08.08,0,0,1,.09-.09h1c.08,0,.13,0,.15.08a3.77,3.77,0,0,1,.1.75,3.13,3.13,0,0,1,2.28-1,2.65,2.65,0,0,1,.85.13,2.71,2.71,0,0,1,.79.44,2.09,2.09,0,0,1,.6.93,4.4,4.4,0,0,1,.23,1.49v4.77a.1.1,0,0,1-.1.11H63.19c-.08,0-.12,0-.12-.11v-4.77a2.2,2.2,0,0,0-.38-1.36,1.31,1.31,0,0,0-1.11-.5,2.18,2.18,0,0,0-1.78.91v5.72a.1.1,0,0,1-.11.11H58.5C58.44,119.64,58.41,119.6,58.41,119.53Z"/><path class="cls-2" d="M68,119.64H66.84a.1.1,0,0,1-.11-.11V113h-1a.13.13,0,0,1-.1-.11V112c0-.06,0-.08.1-.08h1v-.5a3.55,3.55,0,0,1,1-2.64,3.45,3.45,0,0,1,2.38-.83,3.33,3.33,0,0,1,1.63.32.17.17,0,0,1,.07.14v1c0,.09,0,.12-.1.08a3.1,3.1,0,0,0-1.6-.41,2.32,2.32,0,0,0-.67.08,1.72,1.72,0,0,0-.6.31,1.48,1.48,0,0,0-.49.74,3.91,3.91,0,0,0-.18,1.28v.39h4c.07,0,.11,0,.11.09v7.51a.1.1,0,0,1-.11.11H71c-.08,0-.12,0-.12-.13V113H68.12v6.55C68.12,119.6,68.09,119.64,68,119.64Z"/><path class="cls-2" d="M80.6,112v.87s0,.08-.1.08l-1.37,0a2.07,2.07,0,0,1,.53,1.53,2.36,2.36,0,0,1-.8,1.93,3,3,0,0,1-2,.67,2.64,2.64,0,0,1-.68-.08.87.87,0,0,0-.49.75.79.79,0,0,0,.54.75h1.44A4.44,4.44,0,0,1,80,119a1.83,1.83,0,0,1,.88,1.7,2.48,2.48,0,0,1-1,2,4.16,4.16,0,0,1-2.7.82,4.07,4.07,0,0,1-2.55-.7,2.13,2.13,0,0,1-.92-1.74c0-.69.48-1.32,1.44-1.91a1.41,1.41,0,0,1-.7-1.2,1.54,1.54,0,0,1,.8-1.26A2.36,2.36,0,0,1,74,114.45a2.57,2.57,0,0,1,.78-1.91,2.91,2.91,0,0,1,2.1-.76,5.15,5.15,0,0,1,1.18.1,1.55,1.55,0,0,0,.34.05H80.5C80.57,111.93,80.6,112,80.6,112Zm-1.14,8.83c0-.88-.71-1.32-2.12-1.32a9.27,9.27,0,0,0-1.3.06c-.69.41-1,.86-1,1.36a1.34,1.34,0,0,0,.61,1.09,2.55,2.55,0,0,0,1.6.46,2.52,2.52,0,0,0,1.67-.49A1.48,1.48,0,0,0,79.46,120.85Zm-1.12-6.43a2,2,0,0,0-.37-1.27,1.33,1.33,0,0,0-1.11-.49,1.45,1.45,0,0,0-1.12.47,1.79,1.79,0,0,0-.44,1.28,1.85,1.85,0,0,0,.42,1.27,1.43,1.43,0,0,0,1.12.47,1.41,1.41,0,0,0,1.1-.45A1.87,1.87,0,0,0,78.34,114.42Z"/><path class="cls-2" d="M87.88,112v6c0,.48,0,1,.08,1.55,0,.07,0,.1-.1.1h-1c-.08,0-.12,0-.13-.08a3.33,3.33,0,0,1-.09-.63,2.92,2.92,0,0,1-2.18.85,2.57,2.57,0,0,1-1.79-.64,2.83,2.83,0,0,1-.72-2.21V112c0-.06,0-.09.11-.09h1.2c.05,0,.08,0,.08.09v4.79a2.16,2.16,0,0,0,.39,1.38,1.35,1.35,0,0,0,1.13.49,2.08,2.08,0,0,0,1.68-.79V112c0-.06,0-.09.11-.09h1.18C87.85,111.93,87.88,112,87.88,112Z"/><path class="cls-2" d="M90,111.93h1.06a.13.13,0,0,1,.14.09,3.65,3.65,0,0,1,.13,1,2.92,2.92,0,0,1,2.44-1.21.08.08,0,0,1,.09.09V113c0,.07,0,.1-.09.1a2.67,2.67,0,0,0-2.24.86.57.57,0,0,0-.13.4v5.15a.09.09,0,0,1-.1.1h-1.2a.1.1,0,0,1-.1-.11v-5.46c0-.86,0-1.55-.07-2C89.93,112,90,111.93,90,111.93Z"/><path class="cls-2" d="M100.33,114.7v3.55q0,.27,0,.78a.09.09,0,0,1,0,.07,6.44,6.44,0,0,1-2.9.68,3.32,3.32,0,0,1-2.12-.62,2.18,2.18,0,0,1-.79-1.83,2,2,0,0,1,1-1.82,4.65,4.65,0,0,1,2.5-.61q.66,0,1,0v-.48a1.53,1.53,0,0,0-.07-.47,2.24,2.24,0,0,0-.21-.5,1.07,1.07,0,0,0-.51-.44,1.93,1.93,0,0,0-.84-.17,4,4,0,0,0-2,.56c-.06,0-.1,0-.1-.06v-.92a.15.15,0,0,1,.07-.12,4.65,4.65,0,0,1,2.29-.56,2.56,2.56,0,0,1,2.06.8A3.14,3.14,0,0,1,100.33,114.7ZM99,118.52v-2.64a8.25,8.25,0,0,0-1,0,2.7,2.7,0,0,0-1.57.39,1.22,1.22,0,0,0-.55,1.08,1.43,1.43,0,0,0,.43,1.06,1.81,1.81,0,0,0,1.34.43A3.05,3.05,0,0,0,99,118.52Z"/><path class="cls-2" d="M105.75,118.7v.7a.19.19,0,0,1-.09.16,2.83,2.83,0,0,1-1.22.22c-1.23,0-1.84-.68-1.84-2.06V113h-1c-.06,0-.09,0-.09-.13V112c0-.06,0-.09.11-.09h1a14.82,14.82,0,0,1,.14-2,.14.14,0,0,1,.1-.13l1.13-.15c.07,0,.1,0,.1.06-.06.56-.08,1.3-.08,2.21h1.6a.08.08,0,0,1,.09.09v.87a.08.08,0,0,1-.09.09H104v4.64q0,1.14.93,1.14a2.62,2.62,0,0,0,.74-.14C105.72,118.59,105.75,118.62,105.75,118.7Z"/><path class="cls-2" d="M107.91,110.25a.81.81,0,0,1-.56-1.36.83.83,0,0,1,1.15,0,.8.8,0,0,1,.21.57.77.77,0,0,1-.21.57A.78.78,0,0,1,107.91,110.25Zm-.69,9.28V112c0-.06,0-.09.1-.09h1.18q.12,0,.12.09v7.51c0,.07,0,.11-.12.11h-1.16C107.26,119.64,107.22,119.6,107.22,119.53Z"/><path class="cls-2" d="M111.32,112.89a3.24,3.24,0,0,1,2.58-1.12,3.16,3.16,0,0,1,2.53,1.1,4.95,4.95,0,0,1,0,5.83,3.22,3.22,0,0,1-2.53,1.08,3.13,3.13,0,0,1-2.64-1.17,4.54,4.54,0,0,1-.9-2.83A4.29,4.29,0,0,1,111.32,112.89Zm2.5-.08a1.79,1.79,0,0,0-1.5.77,3.61,3.61,0,0,0-.57,2.17,3.78,3.78,0,0,0,.57,2.17,1.85,1.85,0,0,0,3,.09,3.45,3.45,0,0,0,.6-2.21,4,4,0,0,0-.53-2.16A1.76,1.76,0,0,0,113.82,112.81Z"/><path class="cls-2" d="M119.1,119.53v-5.81A16.58,16.58,0,0,0,119,112a.08.08,0,0,1,.09-.09h1a.14.14,0,0,1,.15.08,3.32,3.32,0,0,1,.09.75,3.15,3.15,0,0,1,2.29-1,2.65,2.65,0,0,1,.85.13,2.55,2.55,0,0,1,.78.44,2,2,0,0,1,.61.93,4.41,4.41,0,0,1,.22,1.49v4.77c0,.07,0,.11-.09.11h-1.17c-.08,0-.13,0-.13-.11v-4.77a2.2,2.2,0,0,0-.37-1.36,1.33,1.33,0,0,0-1.12-.5,2.17,2.17,0,0,0-1.77.91v5.72a.1.1,0,0,1-.11.11h-1.19C119.13,119.64,119.1,119.6,119.1,119.53Z"/><path class="cls-2" d="M131.08,113.32a3,3,0,0,0-1.66-.5,1.45,1.45,0,0,0-1,.28.91.91,0,0,0-.3.68,1,1,0,0,0,.27.68,3.26,3.26,0,0,0,1.07.65,4.68,4.68,0,0,1,1.64,1,2.19,2.19,0,0,1-.27,3,3.06,3.06,0,0,1-1.95.59,3.8,3.8,0,0,1-2-.48.17.17,0,0,1-.08-.16v-1.07q0-.16.09-.06a3.18,3.18,0,0,0,2,.7,1.58,1.58,0,0,0,1-.28.9.9,0,0,0,.35-.73A1.05,1.05,0,0,0,130,117a3.56,3.56,0,0,0-1.09-.67,4.42,4.42,0,0,1-1.56-1,2,2,0,0,1-.47-1.36,2,2,0,0,1,.68-1.54,2.7,2.7,0,0,1,1.86-.6,3.55,3.55,0,0,1,1.75.35c.05,0,.08.07.08.16l0,1C131.19,113.33,131.15,113.36,131.08,113.32Z"/><path class="cls-2" d="M26.54,237.75h-3.7l-1.09,3.34a.11.11,0,0,1-.12.1H20.51c-.1,0-.13-.05-.1-.13l3.26-9.78a2.52,2.52,0,0,0,.12-.67c0-.05,0-.08.08-.08h1.61a.09.09,0,0,1,.1.08l3.53,10.46c0,.08,0,.12-.08.12H27.79a.13.13,0,0,1-.13-.08Zm-3.39-1.11h3.1c-.06-.22-.31-1-.75-2.33s-.71-2.22-.82-2.64h0Q24.52,232.3,23.15,236.64Z"/><path class="cls-2" d="M34.67,234.87a2.9,2.9,0,0,0-1.67-.5,1.37,1.37,0,0,0-1,.28.87.87,0,0,0-.31.68A1,1,0,0,0,32,236a3.52,3.52,0,0,0,1.08.65,4.73,4.73,0,0,1,1.64,1,2,2,0,0,1,.48,1.39,2,2,0,0,1-.76,1.65,3.07,3.07,0,0,1-1.94.59,3.84,3.84,0,0,1-2.05-.48.21.21,0,0,1-.08-.16v-1.07c0-.11,0-.13.1-.07a3.18,3.18,0,0,0,2,.71,1.62,1.62,0,0,0,1-.28.88.88,0,0,0,.35-.73,1,1,0,0,0-.28-.75,3.62,3.62,0,0,0-1.09-.67,4.24,4.24,0,0,1-1.56-1,2,2,0,0,1-.47-1.36,2,2,0,0,1,.68-1.54,2.7,2.7,0,0,1,1.86-.61,3.47,3.47,0,0,1,1.74.36c.06,0,.09.07.09.16l0,1C34.78,234.88,34.74,234.91,34.67,234.87Z"/><path class="cls-2" d="M40.73,234.87a2.89,2.89,0,0,0-1.66-.5,1.4,1.4,0,0,0-1,.28.9.9,0,0,0-.3.68,1,1,0,0,0,.27.68,3.44,3.44,0,0,0,1.07.65,4.63,4.63,0,0,1,1.64,1,2.19,2.19,0,0,1-.27,3,3.12,3.12,0,0,1-2,.59,3.8,3.8,0,0,1-2-.48.18.18,0,0,1-.08-.16v-1.07c0-.11,0-.13.09-.07a3.19,3.19,0,0,0,2,.71,1.64,1.64,0,0,0,1-.28.9.9,0,0,0,.35-.73,1.05,1.05,0,0,0-.29-.75,3.37,3.37,0,0,0-1.09-.67,4.42,4.42,0,0,1-1.56-1,2,2,0,0,1-.47-1.36,2,2,0,0,1,.68-1.54,2.7,2.7,0,0,1,1.86-.61,3.54,3.54,0,0,1,1.75.36s.08.07.08.16l0,1C40.84,234.88,40.8,234.91,40.73,234.87Z"/><path class="cls-2" d="M47.08,237.43H44a3,3,0,0,0,.6,2,2.32,2.32,0,0,0,1.87.76,3.91,3.91,0,0,0,1.82-.4c.06,0,.08,0,.08.06v.86a.15.15,0,0,1-.08.16,4.43,4.43,0,0,1-2.09.42,3.23,3.23,0,0,1-2.73-1.12,4.47,4.47,0,0,1-.87-2.82,4.58,4.58,0,0,1,.91-2.91A3,3,0,0,1,46,233.31a3.18,3.18,0,0,1,1.38.29,2.33,2.33,0,0,1,.92.77,3.71,3.71,0,0,1,.49,1,3.84,3.84,0,0,1,.16,1.06,3.94,3.94,0,0,1-.07.84c0,.06,0,.1-.11.11A16.26,16.26,0,0,1,47.08,237.43ZM44,236.5h2.62a6.71,6.71,0,0,0,.93,0,1.52,1.52,0,0,0,0-.28,2.72,2.72,0,0,0-.12-.8,1.51,1.51,0,0,0-.53-.73,1.54,1.54,0,0,0-1-.34,1.56,1.56,0,0,0-1.31.61A3.07,3.07,0,0,0,44,236.5Z"/><path class="cls-2" d="M54.6,234.87a2.87,2.87,0,0,0-1.66-.5,1.4,1.4,0,0,0-1,.28.9.9,0,0,0-.3.68,1,1,0,0,0,.27.68,3.44,3.44,0,0,0,1.07.65,4.54,4.54,0,0,1,1.64,1,2.19,2.19,0,0,1-.27,3,3.11,3.11,0,0,1-1.94.59,3.82,3.82,0,0,1-2-.48.18.18,0,0,1-.08-.16v-1.07c0-.11,0-.13.09-.07a3.19,3.19,0,0,0,2,.71,1.64,1.64,0,0,0,1-.28.9.9,0,0,0,.35-.73,1.05,1.05,0,0,0-.29-.75,3.37,3.37,0,0,0-1.09-.67,4.42,4.42,0,0,1-1.56-1,2,2,0,0,1-.47-1.36,2,2,0,0,1,.68-1.54,2.75,2.75,0,0,1,1.87-.61,3.52,3.52,0,0,1,1.74.36c.05,0,.08.07.08.16l0,1C54.71,234.88,54.68,234.91,54.6,234.87Z"/><path class="cls-2" d="M60.67,234.87a2.92,2.92,0,0,0-1.67-.5,1.37,1.37,0,0,0-1,.28.87.87,0,0,0-.31.68A1,1,0,0,0,58,236a3.4,3.4,0,0,0,1.08.65,4.73,4.73,0,0,1,1.64,1,2,2,0,0,1,.48,1.39,2,2,0,0,1-.76,1.65,3.07,3.07,0,0,1-1.94.59,3.84,3.84,0,0,1-2.05-.48.21.21,0,0,1-.08-.16v-1.07c0-.11,0-.13.1-.07a3.16,3.16,0,0,0,2,.71,1.62,1.62,0,0,0,1-.28.88.88,0,0,0,.35-.73,1,1,0,0,0-.28-.75,3.62,3.62,0,0,0-1.09-.67,4.24,4.24,0,0,1-1.56-1,2,2,0,0,1-.47-1.36,2,2,0,0,1,.68-1.54,2.7,2.7,0,0,1,1.86-.61,3.47,3.47,0,0,1,1.74.36c.06,0,.08.07.08.16v1C60.78,234.88,60.74,234.91,60.67,234.87Z"/><path class="cls-2" d="M66.2,233.47h1.06a.14.14,0,0,1,.14.1,3.58,3.58,0,0,1,.13,1A2.92,2.92,0,0,1,70,233.31a.09.09,0,0,1,.1.1v1.17c0,.06,0,.09-.1.09a2.72,2.72,0,0,0-2.24.87.6.6,0,0,0-.13.4v5.15c0,.06,0,.1-.09.1H66.3c-.07,0-.1,0-.1-.12v-5.45c0-.87,0-1.55-.08-2.05A.08.08,0,0,1,66.2,233.47Z"/><path class="cls-2" d="M72.1,231.79a.74.74,0,0,1-.78-.78.78.78,0,0,1,.23-.58.75.75,0,0,1,.57-.22.74.74,0,0,1,.57.22.86.86,0,0,1,0,1.15A.8.8,0,0,1,72.1,231.79Zm-.68,9.28v-7.5c0-.06,0-.1.09-.1H72.7a.1.1,0,0,1,.11.1v7.5c0,.08,0,.12-.11.12H71.53C71.45,241.19,71.42,241.15,71.42,241.07Z"/><path class="cls-2" d="M78.89,234.87a2.89,2.89,0,0,0-1.66-.5,1.4,1.4,0,0,0-1,.28.9.9,0,0,0-.3.68,1,1,0,0,0,.27.68,3.44,3.44,0,0,0,1.07.65,4.63,4.63,0,0,1,1.64,1,2.19,2.19,0,0,1-.27,3,3.12,3.12,0,0,1-2,.59,3.8,3.8,0,0,1-2-.48.18.18,0,0,1-.08-.16v-1.07c0-.11,0-.13.09-.07a3.19,3.19,0,0,0,2,.71,1.66,1.66,0,0,0,1-.28.9.9,0,0,0,.35-.73,1.05,1.05,0,0,0-.29-.75,3.49,3.49,0,0,0-1.09-.67,4.42,4.42,0,0,1-1.56-1,2,2,0,0,1-.47-1.36,2,2,0,0,1,.68-1.54,2.7,2.7,0,0,1,1.86-.61,3.54,3.54,0,0,1,1.75.36s.08.07.08.16l0,1C79,234.88,79,234.91,78.89,234.87Z"/><path class="cls-2" d="M81,229.76c0-.06,0-.09.11-.09h1.19a.08.08,0,0,1,.09.09v7h.21a.73.73,0,0,0,.31,0,.8.8,0,0,0,.25-.21l.68-.83,1-1.26.67-.83a.13.13,0,0,1,.13-.08H87c.11,0,.13.05.07.13s-.63.75-1.47,1.71-1.35,1.53-1.52,1.75c0,0,0,.08,0,.11l3.47,3.9a.08.08,0,0,1,0,.08.1.1,0,0,1-.08,0H85.94a.21.21,0,0,1-.17-.08l-1.31-1.55c-.64-.75-1.08-1.27-1.32-1.54a1.59,1.59,0,0,0-.23-.23.66.66,0,0,0-.28,0h-.21v3.32q0,.12-.09.12H81.14c-.07,0-.11,0-.11-.12Z"/><path class="cls-2" d="M92.7,234.87a2.9,2.9,0,0,0-1.67-.5,1.39,1.39,0,0,0-1,.28.87.87,0,0,0-.31.68A1,1,0,0,0,90,236a3.52,3.52,0,0,0,1.08.65,4.73,4.73,0,0,1,1.64,1,2,2,0,0,1,.48,1.39,2,2,0,0,1-.76,1.65,3.07,3.07,0,0,1-1.94.59,3.84,3.84,0,0,1-2-.48.21.21,0,0,1-.08-.16v-1.07c0-.11,0-.13.1-.07a3.18,3.18,0,0,0,2,.71,1.62,1.62,0,0,0,1-.28.88.88,0,0,0,.35-.73,1,1,0,0,0-.28-.75,3.62,3.62,0,0,0-1.09-.67,4.24,4.24,0,0,1-1.56-1,2,2,0,0,1-.47-1.36,2,2,0,0,1,.68-1.54,2.7,2.7,0,0,1,1.86-.61,3.54,3.54,0,0,1,1.75.36s.08.07.08.16l0,1C92.81,234.88,92.77,234.91,92.7,234.87Z"/><path class="cls-2" d="M22.57,356.34v4.56a.1.1,0,0,1-.11.11h-1.2c-.05,0-.08,0-.08-.11V350.47c0-.08,0-.11.09-.11h5.59a.1.1,0,0,1,.11.09l.11.9c0,.07,0,.11-.09.11H22.57v3.78h3.94c.07,0,.11,0,.11.09v.9a.1.1,0,0,1-.11.11Z"/><path class="cls-2" d="M29.15,351.62a.74.74,0,0,1-.79-.78.78.78,0,0,1,.23-.58.77.77,0,0,1,.57-.22.74.74,0,0,1,.57.22.86.86,0,0,1,0,1.15A.79.79,0,0,1,29.15,351.62Zm-.69,9.28v-7.5c0-.07,0-.1.09-.1h1.19c.07,0,.11,0,.11.1v7.5a.1.1,0,0,1-.11.11H28.57A.1.1,0,0,1,28.46,360.9Z"/><path class="cls-2" d="M33.67,357.17l-2.3-3.76c0-.07,0-.11.06-.11h1.36a.16.16,0,0,1,.15.08l1.69,3h0l1.76-3a.14.14,0,0,1,.13-.07h1.21c.09,0,.11,0,0,.11q-1.47,2.4-2.35,3.67c.46.73,1.28,2,2.46,3.82a.05.05,0,0,1,0,.07s0,0-.08,0H36.46a.16.16,0,0,1-.16-.09l-1.78-3h0l-1.79,3c0,.06-.07.08-.15.08H31.34c-.1,0-.12,0-.07-.11Z"/><path class="cls-2" d="M47.71,359.86v.9a.13.13,0,0,1-.08.13,4.16,4.16,0,0,1-1.66.27,3.39,3.39,0,0,1-2.73-1.11,4.29,4.29,0,0,1-1-2.86,4.12,4.12,0,0,1,1.06-2.91,3.67,3.67,0,0,1,2.81-1.14,3.31,3.31,0,0,1,1.47.24.15.15,0,0,1,.08.15v.91c0,.07,0,.1-.12.08a2.83,2.83,0,0,0-1.36-.29,2.34,2.34,0,0,0-1.83.8,3.12,3.12,0,0,0-.69,2.11,3,3,0,0,0,.72,2.16,2.42,2.42,0,0,0,1.8.75,3.41,3.41,0,0,0,1.4-.25S47.71,359.8,47.71,359.86Z"/><path class="cls-2" d="M49.88,354.27a3.25,3.25,0,0,1,2.58-1.13,3.16,3.16,0,0,1,2.53,1.1,4.32,4.32,0,0,1,.94,2.9,4.27,4.27,0,0,1-1,2.93,3.22,3.22,0,0,1-2.53,1.09A3.13,3.13,0,0,1,49.8,360a4.48,4.48,0,0,1-.89-2.82A4.25,4.25,0,0,1,49.88,354.27Zm2.5-.09a1.77,1.77,0,0,0-1.5.78,3.58,3.58,0,0,0-.57,2.16,3.78,3.78,0,0,0,.57,2.17,1.86,1.86,0,0,0,3,.1,3.5,3.5,0,0,0,.6-2.22A3.93,3.93,0,0,0,54,355,1.78,1.78,0,0,0,52.38,354.18Z"/><path class="cls-2" d="M57.66,360.9v-5.81a16.38,16.38,0,0,0-.08-1.69c0-.07,0-.1.09-.1h1a.14.14,0,0,1,.15.08,3.51,3.51,0,0,1,.09.75,3.17,3.17,0,0,1,2.29-1,2.66,2.66,0,0,1,.85.14,2.36,2.36,0,0,1,.78.44,2,2,0,0,1,.61.92,4.44,4.44,0,0,1,.23,1.49v4.77c0,.08,0,.11-.1.11H62.44c-.08,0-.13,0-.13-.11v-4.77a2.22,2.22,0,0,0-.37-1.36,1.3,1.3,0,0,0-1.11-.49,2.15,2.15,0,0,0-1.78.91v5.71a.1.1,0,0,1-.11.11H57.75C57.69,361,57.66,361,57.66,360.9Z"/><path class="cls-2" d="M67.27,361H66.09c-.08,0-.11,0-.11-.11v-6.54H65a.12.12,0,0,1-.1-.12v-.86c0-.05,0-.08.1-.08h1v-.5a3.59,3.59,0,0,1,1-2.64,3.45,3.45,0,0,1,2.38-.83,3.33,3.33,0,0,1,1.63.32.18.18,0,0,1,.06.15v1c0,.08,0,.11-.09.08a3,3,0,0,0-1.6-.42,2.73,2.73,0,0,0-.67.08,1.81,1.81,0,0,0-.6.31,1.56,1.56,0,0,0-.49.75,3.91,3.91,0,0,0-.18,1.28v.38h3.95c.08,0,.12,0,.12.1v7.5c0,.08,0,.11-.12.11H70.2c-.08,0-.13,0-.13-.12v-6.53h-2.7v6.54C67.37,361,67.34,361,67.27,361Z"/><path class="cls-2" d="M79.85,353.4v.86c0,.05,0,.08-.1.08l-1.37,0a2.1,2.1,0,0,1,.53,1.54,2.39,2.39,0,0,1-.8,1.93,3.05,3.05,0,0,1-2,.66,2.59,2.59,0,0,1-.68-.08.87.87,0,0,0-.49.75.81.81,0,0,0,.54.76h1.44a4.44,4.44,0,0,1,2.31.53,1.83,1.83,0,0,1,.88,1.69,2.5,2.5,0,0,1-1,2,4.22,4.22,0,0,1-2.7.82,4.12,4.12,0,0,1-2.56-.71,2.13,2.13,0,0,1-.91-1.74c0-.68.48-1.32,1.44-1.9a1.41,1.41,0,0,1-.7-1.2,1.57,1.57,0,0,1,.8-1.27,2.36,2.36,0,0,1-1.23-2.22,2.54,2.54,0,0,1,.78-1.91,2.87,2.87,0,0,1,2.1-.76,5.93,5.93,0,0,1,1.18.09,1.55,1.55,0,0,0,.34.05h2.12C79.82,353.3,79.85,353.33,79.85,353.4Zm-1.14,8.83c0-.89-.71-1.33-2.12-1.33a7.51,7.51,0,0,0-1.3.07c-.69.4-1,.85-1,1.36a1.33,1.33,0,0,0,.61,1.08,2.56,2.56,0,0,0,1.6.47,2.52,2.52,0,0,0,1.67-.5A1.46,1.46,0,0,0,78.71,362.23Zm-1.12-6.43a2,2,0,0,0-.37-1.27,1.3,1.3,0,0,0-1.11-.49,1.44,1.44,0,0,0-1.12.46,1.81,1.81,0,0,0-.44,1.28,1.84,1.84,0,0,0,.42,1.27,1.41,1.41,0,0,0,1.12.48,1.43,1.43,0,0,0,1.1-.46A1.86,1.86,0,0,0,77.59,355.8Z"/><path class="cls-2" d="M87.13,353.4v6c0,.48,0,1,.08,1.55,0,.06,0,.09-.1.09h-1c-.08,0-.12,0-.13-.08a3.05,3.05,0,0,1-.1-.62,2.92,2.92,0,0,1-2.17.85,2.6,2.6,0,0,1-1.79-.64,2.82,2.82,0,0,1-.72-2.21V353.4c0-.07,0-.1.11-.1h1.2c.05,0,.08,0,.08.1v4.78a2.14,2.14,0,0,0,.39,1.38,1.35,1.35,0,0,0,1.13.49,2.1,2.1,0,0,0,1.68-.78V353.4c0-.07,0-.1.11-.1H87C87.1,353.3,87.13,353.33,87.13,353.4Z"/><path class="cls-2" d="M89.27,353.3h1.06a.13.13,0,0,1,.14.1,3.58,3.58,0,0,1,.13,1A2.92,2.92,0,0,1,93,353.14c.07,0,.1,0,.1.1v1.17c0,.06,0,.09-.1.09a2.73,2.73,0,0,0-2.24.87.57.57,0,0,0-.12.39v5.16c0,.06,0,.09-.1.09h-1.2c-.06,0-.1,0-.1-.11v-5.45a18.54,18.54,0,0,0-.08-2.05C89.18,353.33,89.21,353.3,89.27,353.3Z"/><path class="cls-2" d="M99.58,356.07v3.55c0,.18,0,.44,0,.79a.06.06,0,0,1,0,.06,6.32,6.32,0,0,1-2.9.69,3.32,3.32,0,0,1-2.12-.63,2.16,2.16,0,0,1-.79-1.82,2,2,0,0,1,1-1.82,4.55,4.55,0,0,1,2.49-.61c.45,0,.78,0,1,0v-.48a1.49,1.49,0,0,0-.07-.47,2.12,2.12,0,0,0-.21-.51,1.12,1.12,0,0,0-.51-.44,1.93,1.93,0,0,0-.84-.17,4,4,0,0,0-2,.56c-.07,0-.1,0-.1-.06v-.91a.15.15,0,0,1,.07-.13,4.75,4.75,0,0,1,2.28-.56,2.6,2.6,0,0,1,2.07.8A3.14,3.14,0,0,1,99.58,356.07Zm-1.36,3.82v-2.64a8.25,8.25,0,0,0-1-.05,2.68,2.68,0,0,0-1.57.39,1.26,1.26,0,0,0-.56,1.09,1.42,1.42,0,0,0,.44,1.05,1.8,1.8,0,0,0,1.34.43A3.05,3.05,0,0,0,98.22,359.89Z"/><path class="cls-2" d="M105,360.07v.7a.17.17,0,0,1-.1.16,2.77,2.77,0,0,1-1.21.23c-1.23,0-1.84-.69-1.84-2.07v-4.73h-1c-.06,0-.09-.06-.09-.13v-.83c0-.07,0-.1.11-.1h1a14,14,0,0,1,.15-2c0-.08,0-.12.09-.13l1.14-.16c.06,0,.1,0,.1.06-.06.57-.08,1.3-.08,2.21h1.6c.06,0,.09,0,.09.1v.86c0,.07,0,.1-.09.1h-1.62V359c0,.75.31,1.13.93,1.13a2.5,2.5,0,0,0,.73-.14C105,360,105,360,105,360.07Z"/><path class="cls-2" d="M107.16,351.62a.72.72,0,0,1-.78-.78.81.81,0,0,1,1.37-.58.89.89,0,0,1,0,1.15A.82.82,0,0,1,107.16,351.62Zm-.69,9.28v-7.5c0-.07,0-.1.1-.1h1.18c.08,0,.11,0,.11.1v7.5c0,.08,0,.11-.11.11h-1.16C106.51,361,106.47,361,106.47,360.9Z"/><path class="cls-2" d="M110.57,354.27a3.24,3.24,0,0,1,2.57-1.13,3.17,3.17,0,0,1,2.54,1.1,4.38,4.38,0,0,1,.94,2.9,4.27,4.27,0,0,1-1,2.93,3.24,3.24,0,0,1-2.53,1.09,3.13,3.13,0,0,1-2.64-1.18,4.49,4.49,0,0,1-.9-2.82A4.25,4.25,0,0,1,110.57,354.27Zm2.49-.09a1.77,1.77,0,0,0-1.49.78,3.58,3.58,0,0,0-.57,2.16,3.78,3.78,0,0,0,.57,2.17,1.86,1.86,0,0,0,3,.1,3.5,3.5,0,0,0,.6-2.22,4,4,0,0,0-.53-2.16A1.79,1.79,0,0,0,113.06,354.18Z"/><path class="cls-2" d="M118.34,360.9v-5.81a14,14,0,0,0-.08-1.69.09.09,0,0,1,.1-.1h1a.15.15,0,0,1,.15.08,3.51,3.51,0,0,1,.09.75,3.14,3.14,0,0,1,2.29-1,2.66,2.66,0,0,1,.85.14,2.57,2.57,0,0,1,.78.44,2,2,0,0,1,.61.92,4.45,4.45,0,0,1,.22,1.49v4.77c0,.08,0,.11-.09.11h-1.17c-.09,0-.13,0-.13-.11v-4.77a2.22,2.22,0,0,0-.37-1.36,1.33,1.33,0,0,0-1.12-.49,2.15,2.15,0,0,0-1.77.91v5.71a.1.1,0,0,1-.11.11h-1.19C118.38,361,118.34,361,118.34,360.9Z"/><path class="cls-2" d="M28.41,378.61H27.16c-.08,0-.13,0-.14-.11-.89-3.43-1.4-5.49-1.55-6.16h0q-.06.35-.27,1.08c-.14.5-.36,1.26-.67,2.3s-.56,2-.79,2.78c0,.08-.06.11-.14.11H22.35a.17.17,0,0,1-.18-.11L20.11,371c0-.07,0-.11.08-.11H21.4a.13.13,0,0,1,.13.08c.89,3.31,1.4,5.4,1.55,6.29h0c.4-1.48,1-3.57,1.7-6.26,0-.07.07-.11.13-.11h1.21c.06,0,.09,0,.1.1q1.41,5.28,1.58,6.28h0c.23-1.1.79-3.21,1.68-6.3a.09.09,0,0,1,.09-.08h1.14s.07,0,.06.08l-2.29,7.52A.14.14,0,0,1,28.41,378.61Z"/><path class="cls-2" d="M36.28,374.85H33.19a3,3,0,0,0,.6,2,2.29,2.29,0,0,0,1.87.76,3.79,3.79,0,0,0,1.82-.4c.06,0,.08,0,.08.07v.86a.15.15,0,0,1-.08.16,4.43,4.43,0,0,1-2.09.42,3.26,3.26,0,0,1-2.73-1.12,4.47,4.47,0,0,1-.87-2.82,4.58,4.58,0,0,1,.91-2.91,3,3,0,0,1,2.46-1.17,3.18,3.18,0,0,1,1.38.29,2.33,2.33,0,0,1,.92.77,3.71,3.71,0,0,1,.49,1,3.78,3.78,0,0,1,.16,1.06,3.89,3.89,0,0,1-.07.83c0,.07,0,.1-.11.11A13.58,13.58,0,0,1,36.28,374.85Zm-3.07-.92h2.62a5.85,5.85,0,0,0,.93,0,1.31,1.31,0,0,0,0-.27,2.74,2.74,0,0,0-.12-.81,1.63,1.63,0,0,0-1.56-1.06,1.56,1.56,0,0,0-1.31.61A3,3,0,0,0,33.21,373.93Z"/><path class="cls-2" d="M45,373.67v3.55c0,.18,0,.44,0,.79a.06.06,0,0,1,0,.06,6.32,6.32,0,0,1-2.9.69,3.32,3.32,0,0,1-2.12-.63,2.16,2.16,0,0,1-.79-1.82,2,2,0,0,1,1-1.82,4.56,4.56,0,0,1,2.5-.61q.66,0,1,0v-.48a1.49,1.49,0,0,0-.07-.47,2.12,2.12,0,0,0-.21-.51,1.12,1.12,0,0,0-.51-.44,1.94,1.94,0,0,0-.84-.16,3.88,3.88,0,0,0-2,.56c-.06,0-.1,0-.1-.07v-.91a.17.17,0,0,1,.07-.13,4.76,4.76,0,0,1,2.29-.56,2.59,2.59,0,0,1,2.06.8A3.14,3.14,0,0,1,45,373.67Zm-1.36,3.82v-2.64a8.25,8.25,0,0,0-.95-.05,2.7,2.7,0,0,0-1.57.39,1.25,1.25,0,0,0-.55,1.09,1.41,1.41,0,0,0,.43,1.05,1.81,1.81,0,0,0,1.34.43A3.05,3.05,0,0,0,43.66,377.49Z"/><path class="cls-2" d="M47.15,367.19c0-.06,0-.1.11-.1h1.18a.09.09,0,0,1,.1.1v7h.21a.76.76,0,0,0,.31,0,1,1,0,0,0,.25-.22c.07-.09.29-.37.67-.82l1-1.27c.32-.38.54-.66.67-.82a.13.13,0,0,1,.13-.08H53.1c.1,0,.13,0,.06.13s-.63.75-1.47,1.7-1.35,1.54-1.52,1.76a.08.08,0,0,0,0,.11l3.47,3.9a0,0,0,0,1,0,.07.08.08,0,0,1-.07,0H52.06a.19.19,0,0,1-.18-.08L50.57,377l-1.31-1.54a1.49,1.49,0,0,0-.24-.23.62.62,0,0,0-.27-.05h-.21v3.33c0,.08,0,.11-.1.11H47.26c-.08,0-.11,0-.11-.11Z"/><path class="cls-2" d="M54.83,378.5v-5.81a16.38,16.38,0,0,0-.08-1.69c0-.07,0-.1.09-.1h1A.15.15,0,0,1,56,371a3.51,3.51,0,0,1,.09.75,3.15,3.15,0,0,1,2.29-1,2.66,2.66,0,0,1,.85.14,2.46,2.46,0,0,1,.78.44,2,2,0,0,1,.61.92,4.45,4.45,0,0,1,.22,1.49v4.77c0,.08,0,.11-.09.11H59.61c-.09,0-.13,0-.13-.11v-4.77a2.22,2.22,0,0,0-.37-1.36,1.32,1.32,0,0,0-1.12-.49,2.15,2.15,0,0,0-1.77.91v5.71a.1.1,0,0,1-.11.11H54.92C54.86,378.61,54.83,378.58,54.83,378.5Z"/><path class="cls-2" d="M67.07,374.85H64a3,3,0,0,0,.6,2,2.27,2.27,0,0,0,1.86.76,3.83,3.83,0,0,0,1.83-.4s.08,0,.08.07v.86a.17.17,0,0,1-.08.16,4.47,4.47,0,0,1-2.1.42,3.26,3.26,0,0,1-2.73-1.12,4.47,4.47,0,0,1-.87-2.82,4.58,4.58,0,0,1,.91-2.91A3,3,0,0,1,66,370.74a3.1,3.1,0,0,1,1.37.29,2.27,2.27,0,0,1,.92.77,3.71,3.71,0,0,1,.49,1,3.45,3.45,0,0,1,.16,1.06,4.06,4.06,0,0,1-.06.83c0,.07,0,.1-.12.11A13.48,13.48,0,0,1,67.07,374.85ZM64,373.93h2.63a6.06,6.06,0,0,0,.93,0,1.64,1.64,0,0,0,0-.27,2.74,2.74,0,0,0-.12-.81,1.47,1.47,0,0,0-.53-.72,1.52,1.52,0,0,0-1-.34,1.54,1.54,0,0,0-1.3.61A3,3,0,0,0,64,373.93Z"/><path class="cls-2" d="M74.59,372.29a3,3,0,0,0-1.67-.49,1.37,1.37,0,0,0-1,.28.86.86,0,0,0-.31.68,1,1,0,0,0,.27.68,3.59,3.59,0,0,0,1.08.65,4.73,4.73,0,0,1,1.64,1,2,2,0,0,1,.48,1.39,2,2,0,0,1-.76,1.64,3,3,0,0,1-1.94.6,3.84,3.84,0,0,1-2-.48.23.23,0,0,1-.08-.16v-1.07c0-.11,0-.13.1-.07a3.15,3.15,0,0,0,2,.7,1.62,1.62,0,0,0,1-.27.88.88,0,0,0,.35-.73,1,1,0,0,0-.28-.75,3.82,3.82,0,0,0-1.09-.68,4.12,4.12,0,0,1-1.56-1,2.12,2.12,0,0,1,.21-2.89,2.66,2.66,0,0,1,1.86-.61,3.59,3.59,0,0,1,1.74.35c.06,0,.08.08.08.16v1C74.7,372.31,74.66,372.34,74.59,372.29Z"/><path class="cls-2" d="M80.65,372.29A3,3,0,0,0,79,371.8a1.4,1.4,0,0,0-1,.28.88.88,0,0,0-.3.68,1,1,0,0,0,.27.68,3.64,3.64,0,0,0,1.07.65,4.63,4.63,0,0,1,1.64,1,2,2,0,0,1,.49,1.39,2,2,0,0,1-.76,1.64,3.06,3.06,0,0,1-2,.6,3.8,3.8,0,0,1-2-.48.19.19,0,0,1-.08-.16v-1.07c0-.11,0-.13.09-.07a3.18,3.18,0,0,0,2,.7,1.64,1.64,0,0,0,1-.27.9.9,0,0,0,.35-.73,1.05,1.05,0,0,0-.29-.75,3.54,3.54,0,0,0-1.09-.68,4.29,4.29,0,0,1-1.56-1,2.12,2.12,0,0,1,.21-2.89,2.66,2.66,0,0,1,1.86-.61,3.66,3.66,0,0,1,1.75.35.16.16,0,0,1,.08.16l0,1C80.76,372.31,80.72,372.34,80.65,372.29Z"/><path class="cls-2" d="M87,374.85H83.91a3,3,0,0,0,.6,2,2.29,2.29,0,0,0,1.87.76,3.79,3.79,0,0,0,1.82-.4s.08,0,.08.07v.86a.17.17,0,0,1-.08.16,4.43,4.43,0,0,1-2.09.42,3.26,3.26,0,0,1-2.73-1.12,4.47,4.47,0,0,1-.87-2.82,4.58,4.58,0,0,1,.91-2.91,3,3,0,0,1,2.46-1.17,3.18,3.18,0,0,1,1.38.29,2.33,2.33,0,0,1,.92.77,3.71,3.71,0,0,1,.49,1,3.78,3.78,0,0,1,.16,1.06,3.89,3.89,0,0,1-.07.83c0,.07,0,.1-.11.11A13.58,13.58,0,0,1,87,374.85Zm-3.07-.92h2.62a5.85,5.85,0,0,0,.93,0,1.31,1.31,0,0,0,0-.27,2.74,2.74,0,0,0-.12-.81,1.63,1.63,0,0,0-1.56-1.06,1.56,1.56,0,0,0-1.31.61A3,3,0,0,0,83.93,373.93Z"/><path class="cls-2" d="M94.52,372.29a3,3,0,0,0-1.66-.49,1.4,1.4,0,0,0-1,.28.88.88,0,0,0-.3.68,1,1,0,0,0,.27.68,3.64,3.64,0,0,0,1.07.65,4.54,4.54,0,0,1,1.64,1,2,2,0,0,1,.49,1.39,2,2,0,0,1-.76,1.64,3.06,3.06,0,0,1-2,.6,3.8,3.8,0,0,1-2-.48.19.19,0,0,1-.08-.16v-1.07c0-.11,0-.13.09-.07a3.18,3.18,0,0,0,2,.7,1.64,1.64,0,0,0,1-.27.9.9,0,0,0,.35-.73,1.05,1.05,0,0,0-.29-.75,3.54,3.54,0,0,0-1.09-.68,4.29,4.29,0,0,1-1.56-1,2.12,2.12,0,0,1,.21-2.89,2.68,2.68,0,0,1,1.87-.61,3.65,3.65,0,0,1,1.74.35.16.16,0,0,1,.08.16l0,1C94.63,372.31,94.6,372.34,94.52,372.29Z"/><path class="cls-3" d="M393.13,46h-3.69a5,5,0,1,1,0-10,10,10,0,1,1,20,0,5,5,0,0,1,0,10h-8.62"/><ellipse class="cls-3" cx="399.43" cy="34.91" rx="5.63" ry="5.67"/><ellipse class="cls-7" cx="399.43" cy="34.91" rx="1.76" ry="1.77"/><path class="cls-3" d="M499.12,306.38h-3.69a5,5,0,1,1,0-10,10,10,0,1,1,20,0,5,5,0,0,1,0,10h-8.62"/><ellipse class="cls-3" cx="505.42" cy="295.32" rx="5.63" ry="5.67"/><ellipse class="cls-7" cx="505.42" cy="295.32" rx="1.76" ry="1.77"/><path class="cls-3" d="M441.07,410.21h-3.69a5,5,0,1,1,0-10,10,10,0,1,1,20,0,5,5,0,0,1,0,10h-8.62"/><ellipse class="cls-3" cx="447.37" cy="399.15" rx="5.63" ry="5.67"/><ellipse class="cls-7" cx="447.37" cy="399.15" rx="1.76" ry="1.77"/><path class="cls-3" d="M337.29,470.08H333.6a5,5,0,1,1,0-10,10,10,0,1,1,20,0,5,5,0,0,1,0,10H345"/><ellipse class="cls-3" cx="343.59" cy="459.02" rx="5.63" ry="5.67"/><ellipse class="cls-7" cx="343.59" cy="459.02" rx="1.76" ry="1.77"/><path class="cls-3" d="M441.07,83.48h-3.69a5,5,0,1,1,0-10,10,10,0,1,1,20,0,5,5,0,0,1,0,10h-8.62"/><ellipse class="cls-3" cx="447.37" cy="72.42" rx="5.63" ry="5.67"/><ellipse class="cls-7" cx="447.37" cy="72.42" rx="1.76" ry="1.77"/><ellipse class="cls-3" cx="347.59" cy="12.83" rx="5.99" ry="6.03"/><ellipse class="cls-7" cx="347.59" cy="12.83" rx="1.87" ry="1.88"/><path class="cls-3" d="M354.11,25.06h6.29a7.17,7.17,0,0,0,7.19-7.17v-.21a7.28,7.28,0,0,0-5.44-7A12.3,12.3,0,0,0,350.12.6a11.94,11.94,0,0,0-9.51,4.67,4.54,4.54,0,0,0-2.33-.59,5.84,5.84,0,0,0-5.83,5.83v.37a7,7,0,0,0-4.86,6.8v.21a7.17,7.17,0,0,0,7.2,7.17h13"/><ellipse class="cls-3" cx="484.17" cy="120.7" rx="5.99" ry="6.03"/><ellipse class="cls-7" cx="484.17" cy="120.7" rx="1.87" ry="1.88"/><path class="cls-3" d="M490.69,132.93H497a7.18,7.18,0,0,0,7.2-7.17v-.21a7.28,7.28,0,0,0-5.45-7,12.3,12.3,0,0,0-12-10.09,11.94,11.94,0,0,0-9.51,4.67,4.49,4.49,0,0,0-2.33-.59,5.84,5.84,0,0,0-5.83,5.83v.37a7,7,0,0,0-4.85,6.8v.21a7.17,7.17,0,0,0,7.19,7.17h13"/><ellipse class="cls-3" cx="484.17" cy="353.14" rx="5.99" ry="6.03"/><ellipse class="cls-7" cx="484.17" cy="353.14" rx="1.87" ry="1.88"/><path class="cls-3" d="M490.69,365.37H497a7.18,7.18,0,0,0,7.2-7.17V358a7.28,7.28,0,0,0-5.45-7,12.29,12.29,0,0,0-12-10.1,11.94,11.94,0,0,0-9.51,4.67,4.49,4.49,0,0,0-2.33-.59,5.85,5.85,0,0,0-5.83,5.83v.38a7,7,0,0,0-4.85,6.79v.21a7.17,7.17,0,0,0,7.19,7.17h13"/><ellipse class="cls-3" cx="399.43" cy="436.94" rx="5.99" ry="6.03"/><ellipse class="cls-7" cx="399.43" cy="436.94" rx="1.87" ry="1.88"/><path class="cls-3" d="M406,449.17h6.28a7.18,7.18,0,0,0,7.2-7.17v-.21a7.28,7.28,0,0,0-5.45-7,12.3,12.3,0,0,0-12-10.09,11.94,11.94,0,0,0-9.51,4.67,4.49,4.49,0,0,0-2.33-.59,5.84,5.84,0,0,0-5.83,5.83V435a7,7,0,0,0-4.85,6.8V442a7.17,7.17,0,0,0,7.19,7.17h13"/><ellipse class="cls-3" cx="507.29" cy="176.53" rx="5.99" ry="6.03"/><ellipse class="cls-7" cx="507.29" cy="176.53" rx="1.87" ry="1.88"/><path class="cls-3" d="M513.81,188.76h6.28a7.18,7.18,0,0,0,7.2-7.17v-.21a7.28,7.28,0,0,0-5.45-7,12.3,12.3,0,0,0-12-10.09A11.94,11.94,0,0,0,500.3,169a4.49,4.49,0,0,0-2.33-.59,5.84,5.84,0,0,0-5.83,5.83v.37a7,7,0,0,0-4.85,6.8v.21a7.17,7.17,0,0,0,7.19,7.17h13"/></g></g></svg>