<svg width="70" height="70" viewBox="0 0 70 70" fill="none" xmlns="http://www.w3.org/2000/svg">
<rect width="70" height="70" fill="none"/>
<path d="M35.4688 30.1562C35.4688 30.4151 35.2589 30.625 35 30.625C34.7411 30.625 34.5312 30.4151 34.5312 30.1562C34.5312 29.8974 34.7411 29.6875 35 29.6875C35.2589 29.6875 35.4688 29.8974 35.4688 30.1562Z" fill="black" stroke="black"/>
<path d="M35.4688 39.8438C35.4688 40.1026 35.2589 40.3125 35 40.3125C34.7411 40.3125 34.5312 40.1026 34.5312 39.8438C34.5312 39.5849 34.7411 39.375 35 39.375C35.2589 39.375 35.4688 39.5849 35.4688 39.8438Z" fill="black" stroke="black"/>
<path d="M40.3125 35C40.3125 35.2589 40.1026 35.4688 39.8438 35.4688C39.5849 35.4688 39.375 35.2589 39.375 35C39.375 34.7411 39.5849 34.5312 39.8438 34.5312C40.1026 34.5312 40.3125 34.7411 40.3125 35Z" fill="black" stroke="black"/>
<path d="M30.625 35C30.625 35.2589 30.4151 35.4688 30.1562 35.4688C29.8974 35.4688 29.6875 35.2589 29.6875 35C29.6875 34.7411 29.8974 34.5312 30.1562 34.5312C30.4151 34.5312 30.625 34.7411 30.625 35Z" fill="black" stroke="black"/>
<path d="M38.7561 31.2429C38.9392 31.4259 38.9392 31.7227 38.7561 31.9058C38.5731 32.0889 38.2763 32.0889 38.0932 31.9058C37.9102 31.7227 37.9102 31.4259 38.0932 31.2429C38.2763 31.0598 38.5731 31.0598 38.7561 31.2429Z" fill="black" stroke="black"/>
<path d="M31.9056 38.0942C32.0886 38.2773 32.0886 38.5741 31.9056 38.7571C31.7225 38.9402 31.4257 38.9402 31.2427 38.7571C31.0596 38.5741 31.0596 38.2773 31.2427 38.0942C31.4257 37.9111 31.7225 37.9111 31.9056 38.0942Z" fill="black" stroke="black"/>
<path d="M38.7561 38.0936C38.9392 38.2767 38.9392 38.5734 38.7561 38.7565C38.5731 38.9396 38.2763 38.9396 38.0932 38.7565C37.9102 38.5734 37.9102 38.2767 38.0932 38.0936C38.2763 37.9105 38.5731 37.9105 38.7561 38.0936Z" fill="black" stroke="black"/>
<path d="M31.9056 31.2435C32.0886 31.4266 32.0886 31.7233 31.9056 31.9064C31.7225 32.0895 31.4257 32.0895 31.2427 31.9064C31.0596 31.7233 31.0596 31.4266 31.2427 31.2435C31.4257 31.0604 31.7225 31.0604 31.9056 31.2435Z" fill="black" stroke="black"/>
<path d="M35 43.7188C39.8152 43.7188 43.7188 39.8152 43.7188 35C43.7188 30.1848 39.8152 26.2812 35 26.2812C30.1848 26.2812 26.2812 30.1848 26.2812 35C26.2812 39.8152 30.1848 43.7188 35 43.7188Z" stroke="black" stroke-width="2" stroke-miterlimit="10"/>
<path d="M60.1875 30.1562C63.3977 30.1562 66 27.5539 66 24.3438C66 21.1336 63.3977 18.5312 60.1875 18.5312C56.9773 18.5312 54.375 21.1336 54.375 24.3438C54.375 27.5539 56.9773 30.1562 60.1875 30.1562Z" stroke="black" stroke-width="2" stroke-miterlimit="10"/>
<path d="M60.1875 66C63.3977 66 66 63.3977 66 60.1875C66 56.9773 63.3977 54.375 60.1875 54.375C56.9773 54.375 54.375 56.9773 54.375 60.1875C54.375 63.3977 56.9773 66 60.1875 66Z" stroke="black" stroke-width="2" stroke-miterlimit="10"/>
<path d="M9.8125 27.25C13.0227 27.25 15.625 24.6477 15.625 21.4375C15.625 18.2273 13.0227 15.625 9.8125 15.625C6.60234 15.625 4 18.2273 4 21.4375C4 24.6477 6.60234 27.25 9.8125 27.25Z" stroke="black" stroke-width="2" stroke-miterlimit="10"/>
<path d="M15.625 66C18.8352 66 21.4375 63.3977 21.4375 60.1875C21.4375 56.9773 18.8352 54.375 15.625 54.375C12.4148 54.375 9.8125 56.9773 9.8125 60.1875C9.8125 63.3977 12.4148 66 15.625 66Z" stroke="black" stroke-width="2" stroke-miterlimit="10"/>
<path d="M35 15.625C38.2102 15.625 40.8125 13.0227 40.8125 9.8125C40.8125 6.60234 38.2102 4 35 4C31.7898 4 29.1875 6.60234 29.1875 9.8125C29.1875 13.0227 31.7898 15.625 35 15.625Z" stroke="black" stroke-width="2" stroke-miterlimit="10"/>
<path d="M35 25.8075V15.2898" stroke="black" stroke-width="2" stroke-miterlimit="10" stroke-linecap="round" stroke-dasharray="0.1 4"/>
<path d="M26.92 30.6493L14.9473 24.2023" stroke="black" stroke-width="2" stroke-miterlimit="10" stroke-linecap="round" stroke-dasharray="0.1 4"/>
<path d="M29.5164 42.13L19.1934 55.5491" stroke="black" stroke-width="2" stroke-miterlimit="10" stroke-linecap="round" stroke-dasharray="0.1 4"/>
<path d="M41.1416 41.1418L56.195 56.1953" stroke="black" stroke-width="2" stroke-miterlimit="10" stroke-linecap="round" stroke-dasharray="0.1 4"/>
<path d="M43.2314 31.5173L54.9359 26.5651" stroke="black" stroke-width="2" stroke-miterlimit="10" stroke-linecap="round" stroke-dasharray="0.1 4"/>
</svg>
