<?xml version="1.0" encoding="utf-8"?>
<!-- Generator: Adobe Illustrator 24.3.0, SVG Export Plug-In . SVG Version: 6.00 Build 0)  -->
<svg version="1.1" id="Layer_1" xmlns="http://www.w3.org/2000/svg" xmlns:xlink="http://www.w3.org/1999/xlink" x="0px" y="0px"
	 viewBox="0 0 191 34" style="enable-background:new 0 0 191 34;" xml:space="preserve">
<style type="text/css">
	.st0{fill:#0C0C0C;}
</style>
<path class="st0" d="M47,2.1L27.1,34h10.4c0,0,7.8-7.4,8.8-8c1.6,0.5,6.2,1.8,10.2,1.8c2.3,0,4.5-0.5,5.6-1.8
	c1.4-1.5,2.7-3.6,3.7-5.5l0,0c0.2-0.4,0.5-0.9,0.6-1.2c1.6-3.9,2-10.4-2.5-14.6c1.1,4.1-1.4,8.9-3.9,10.8c-0.2-0.1-0.4-0.2-0.6-0.4
	c0.9-1.5,1.3-3.4,0.6-6c-0.9,1.6-2.5,2.8-4.4,3.7c-2.2-1.3-4.1-2.5-4.8-3l-2-1.3l-0.6-2.7L47,2.1z M53.2,18.8
	c-1.1,0-1.9-0.8-1.9-1.9c0-1.1,0.9-1.9,1.9-1.9c1.1,0,1.9,0.9,1.9,1.9C55.1,17.9,54.2,18.8,53.2,18.8z"/>
<path class="st0" d="M26.3,0l-2.5,8.1L21.4,0L11,4.6v0c0,9.5,4,19.5,12.8,22c8.8-2.4,12.8-12.5,12.8-22v0L26.3,0z"/>
<path class="st0" d="M6.8,12.2H0c0.9,2.7,5.5,4.5,5.5,4.5L3.2,34h9.1c0,0,2.7-4.1,4.4-6.6L6.8,12.2z"/>
<path class="st0" d="M130.5,19.5l-0.7,4.6c-0.3,1.6-0.9,3.1-3.8,3.1c-0.7,0-1.4,0-2.1-0.1l-0.3,0l1.4-8.7l0.2-0.1
	c0.9-0.5,2.3-1,3.5-1c0.7,0,1.2,0.2,1.5,0.6C130.5,18.2,130.6,18.7,130.5,19.5z M131,13.3c-1.6,0-3.2,0.3-4.9,1l-0.5,0.2l1.3-8h-4.5
	l-3.8,23.9c2.4,0.4,5,0.5,6.6,0.5c6.7,0,8.5-2.7,9.2-7.1l0.7-4.6c0.3-2.2,0.1-3.8-0.7-4.8C133.6,13.8,132.5,13.3,131,13.3z"/>
<path class="st0" d="M185.3,13.3c-4.7,0-7.5,2.3-8.2,6.8l-0.6,4.1c-0.3,2.2,0,3.8,0.9,4.9c1,1.2,2.8,1.8,5.4,1.8
	c2.4,0,4.9-0.5,6.4-1l-0.1-3.3c-1.5,0.4-3.5,0.7-5.1,0.7c-1.5,0-2.3-0.2-2.7-0.8c-0.4-0.5-0.5-1.1-0.3-2.2l0.1-0.8h9.3l0.5-3.4
	c0.4-2.4,0.1-4.2-0.8-5.3C189.1,13.9,187.6,13.3,185.3,13.3z M181.5,20.4l0.2-1.1c0.3-1.6,1.3-2.5,3-2.5c0.8,0,1.4,0.2,1.8,0.6
	c0.5,0.6,0.4,1.4,0.3,2l-0.2,1L181.5,20.4L181.5,20.4z"/>
<path class="st0" d="M153.4,13.3c-1.9,0-4.3,0.3-6,0.8l0,3.3c1.7-0.3,3.1-0.5,4.4-0.5c1.5,0,2.3,0.2,2.8,0.7
	c0.4,0.5,0.4,1.1,0.2,2.1l-0.3,1.6h-4c-3.5,0-5.1,1.3-5.6,4.7c-0.3,1.7,0,3.1,0.7,3.9c0.6,0.7,1.5,1,2.7,1c0.7,0,2.5-0.2,5-1.5
	l0.4-0.2l0.2,1.3h3.7l1.7-10.9c0.4-2.5,0.3-4-0.5-4.9C158,13.8,156.3,13.3,153.4,13.3z M150.8,27.6c-0.6,0-1-0.2-1.2-0.4
	c-0.3-0.3-0.3-0.7-0.2-1.3c0.2-1.3,0.9-1.5,2-1.5h2.8l-0.4,2.6l-0.2,0.1C152.7,27.3,151.8,27.6,150.8,27.6z"/>
<path class="st0" d="M163.3,13.7l-0.5,3.3h7.4l-9,10.1l-0.6,3.5h12.7l0.5-3.3H166l9.1-10.1l0.6-3.5H163.3z"/>
<path class="st0" d="M94.2,7.3H82l-0.9,4.2H84L81,30.6h4.7l1.2-7.5h3.6l4,7.5h5.6l-4.3-8.1l0.3-0.1c2.4-0.9,3.7-2.8,4.2-5.8l0.5-2.9
	c0.3-2.1,0.1-3.7-0.8-4.7C98.9,7.8,97.1,7.3,94.2,7.3z M87.5,19.1l1.2-7.7h4.5c1.2,0,2,0.2,2.4,0.7c0.4,0.5,0.5,1.1,0.3,2.1
	l-0.3,1.9c-0.3,2.1-1.3,2.9-3.6,2.9H87.5z"/>
<path class="st0" d="M111.5,13.3c-4.7,0-7.5,2.3-8.2,6.8l-0.6,4.1c-0.3,2.2,0,3.8,0.9,4.9c1,1.2,2.8,1.8,5.4,1.8
	c2.4,0,4.9-0.5,6.4-1l-0.1-3.3c-1.5,0.4-3.5,0.7-5.1,0.7c-1.5,0-2.3-0.2-2.7-0.8c-0.4-0.5-0.5-1.1-0.3-2.2l0.1-0.8h9.3l0.5-3.4
	c0.4-2.4,0.1-4.2-0.8-5.3C115.3,13.9,113.8,13.3,111.5,13.3z M107.7,20.4l0.2-1.1c0.3-1.6,1.3-2.5,3-2.5c0.8,0,1.4,0.2,1.8,0.6
	c0.5,0.6,0.4,1.4,0.3,2l-0.2,1L107.7,20.4L107.7,20.4z"/>
<path class="st0" d="M140.1,6.5l-3.8,24.1h4.5l3.8-24.1H140.1z"/>
</svg>
