<svg width="191" height="34" viewBox="0 0 191 34" fill="none" xmlns="http://www.w3.org/2000/svg">
<path d="M47.0201 2.05371L27.0898 34H37.4742C37.4742 34 45.2786 26.6002 46.2461 25.9808C47.8586 26.4372 52.4703 27.7412 56.4693 27.7412C58.7912 27.7412 60.9197 27.2848 62.1129 25.9808C63.4674 24.5139 64.8542 22.3624 65.8217 20.5043L65.8539 20.4717C66.0797 20.048 66.3376 19.5916 66.4666 19.2656C68.1114 15.3538 68.4661 8.83415 64.0157 4.66157C65.1122 8.73636 62.6612 13.5609 60.0812 15.4516C59.8877 15.3212 59.6942 15.2234 59.5007 15.093C60.436 13.5935 60.7585 11.7028 60.0812 9.12754C59.2105 10.6923 57.6302 11.9636 55.663 12.7785C53.47 11.442 51.5996 10.3011 50.8256 9.7795L48.7938 8.47557L48.1811 5.76991L47.0201 2.05371ZM53.1798 18.7766C52.1156 18.7766 51.2771 17.9291 51.2771 16.8533C51.2771 15.7776 52.1478 14.93 53.1798 14.93C54.244 14.93 55.0825 15.8102 55.0825 16.8533C55.0825 17.9291 54.244 18.7766 53.1798 18.7766Z" fill="white"/>
<path d="M26.2834 0L23.8324 8.11697L21.4137 0L11.0293 4.62895V4.66155C11.0293 14.1802 14.996 24.1879 23.8324 26.6328C32.6688 24.1879 36.6355 14.1802 36.6355 4.66155V4.62895L26.2834 0Z" fill="white"/>
<path d="M6.80467 12.1592H-4.9209e-07C0.902989 14.8322 5.48244 16.6251 5.48244 16.6251L3.19271 33.9674H12.2549C12.2549 33.9674 14.9961 29.86 16.6086 27.35L6.80467 12.1592Z" fill="white"/>
<path d="M130.491 19.4515L129.776 24.0021C129.512 25.6081 128.872 27.0995 126.009 27.0995C125.293 27.0995 124.653 27.0995 123.9 27.023L123.561 26.9848L124.954 18.2661L125.105 18.1896C126.047 17.7308 127.44 17.1954 128.646 17.1954C129.361 17.1954 129.889 17.3866 130.19 17.769C130.529 18.1514 130.604 18.725 130.491 19.4515ZM130.981 13.3332C129.399 13.3332 127.779 13.6391 126.047 14.2892L125.557 14.4804L126.838 6.48828H122.355L118.551 30.4263C120.924 30.8087 123.561 30.9617 125.143 30.9617C131.847 30.9617 133.618 28.2467 134.296 23.8491L135.011 19.2986C135.35 17.0807 135.124 15.5128 134.333 14.5186C133.618 13.7538 132.525 13.3332 130.981 13.3332Z" fill="white"/>
<path d="M185.335 13.3332C180.589 13.3332 177.839 15.5894 177.123 20.1017L176.483 24.1933C176.144 26.373 176.445 28.0173 177.349 29.1262C178.366 30.3499 180.174 30.9618 182.773 30.9618C185.184 30.9618 187.632 30.4264 189.139 29.9293L189.026 26.6789C187.482 27.0613 185.523 27.329 183.941 27.329C182.472 27.329 181.681 27.0995 181.229 26.5642C180.852 26.1053 180.739 25.417 180.89 24.3845L181.003 23.6197H190.307L190.834 20.2164C191.211 17.7691 190.947 16.0483 190.043 14.9393C189.139 13.9068 187.557 13.3332 185.335 13.3332ZM181.53 20.4076L181.719 19.2604C181.982 17.6543 183.037 16.7748 184.732 16.7748C185.561 16.7748 186.126 16.966 186.502 17.3867C186.992 17.9603 186.917 18.8015 186.841 19.3369L186.691 20.3694H181.53V20.4076Z" fill="white"/>
<path d="M153.393 13.3332C151.509 13.3332 149.061 13.6774 147.366 14.1363L147.403 17.4249C149.061 17.119 150.492 16.966 151.848 16.966C153.393 16.966 154.184 17.1572 154.598 17.6543C155.012 18.1132 154.975 18.7633 154.824 19.7575L154.56 21.3636H150.568C147.102 21.3636 145.482 22.702 144.955 26.0288C144.691 27.7496 144.917 29.1262 145.633 29.9675C146.198 30.6558 147.102 31 148.307 31C148.985 31 150.794 30.847 153.317 29.5469L153.694 29.3557L153.882 30.6176H157.536L159.269 19.681C159.683 17.1572 159.532 15.6659 158.779 14.7864C157.988 13.7921 156.331 13.3332 153.393 13.3332ZM150.756 27.5584C150.153 27.5584 149.739 27.4055 149.513 27.1378C149.249 26.8319 149.211 26.4112 149.287 25.8376C149.475 24.5757 150.229 24.308 151.321 24.308H154.146L153.732 26.8701L153.581 26.9466C152.677 27.329 151.848 27.5584 150.756 27.5584Z" fill="white"/>
<path d="M163.262 13.7156L162.734 17.0424H170.155L161.115 27.0995L160.55 30.6175H173.206L173.733 27.2907H166.012L175.127 17.1954L175.692 13.7156H163.262Z" fill="white"/>
<path d="M94.2178 7.25317H82.0137L81.1473 11.4213H84.01L80.959 30.6176H85.6674L86.8351 23.1609H90.4134L94.4438 30.6176H100.056L95.7245 22.5491L96.0635 22.4343C98.4365 21.5166 99.7925 19.6046 100.282 16.6601L100.734 13.7157C101.073 11.5743 100.81 10.0447 99.9809 9.05044C98.9262 7.82677 97.0805 7.25317 94.2178 7.25317ZM87.4754 19.1075L88.6807 11.4213H93.1631C94.4061 11.4213 95.1595 11.6507 95.5738 12.1479C95.9505 12.6067 96.0635 13.295 95.9128 14.2893L95.6115 16.2013C95.2725 18.3044 94.2931 19.1075 92.0331 19.1075H87.4754Z" fill="white"/>
<path d="M111.508 13.3332C106.762 13.3332 104.012 15.5894 103.296 20.1017L102.656 24.1933C102.317 26.373 102.618 28.0173 103.522 29.1262C104.539 30.3499 106.347 30.9618 108.946 30.9618C111.357 30.9618 113.805 30.4264 115.312 29.9293L115.199 26.6789C113.655 27.0613 111.696 27.329 110.114 27.329C108.645 27.329 107.854 27.0995 107.402 26.5642C107.025 26.1053 106.912 25.417 107.063 24.3845L107.176 23.6197H116.48L117.007 20.2164C117.384 17.7691 117.12 16.0483 116.216 14.9393C115.35 13.9068 113.768 13.3332 111.508 13.3332ZM107.741 20.4076L107.929 19.2604C108.193 17.6543 109.248 16.7748 110.943 16.7748C111.771 16.7748 112.336 16.966 112.713 17.3867C113.203 17.9603 113.127 18.8015 113.014 19.3369L112.864 20.3694H107.741V20.4076Z" fill="white"/>
<path d="M140.134 6.48828L136.33 30.6175H140.812L144.617 6.48828H140.134Z" fill="white"/>
</svg>
