<svg xmlns="http://www.w3.org/2000/svg" viewBox="0 0 67.6 34"><g id="Layer_2" data-name="Layer 2"><g id="Layer_1-2" data-name="Layer 1"><path d="M47,2.05,27.09,34H37.47s7.81-7.4,8.78-8a40.77,40.77,0,0,0,10.22,1.76c2.32,0,4.45-.46,5.64-1.76a27.05,27.05,0,0,0,3.71-5.48l0,0c.23-.42.49-.88.62-1.2,1.64-3.92,2-10.44-2.45-14.61,1.09,4.08-1.36,8.9-3.94,10.79-.19-.13-.39-.23-.58-.36a7.21,7.21,0,0,0,.58-6,8.84,8.84,0,0,1-4.42,3.65c-2.19-1.34-4.06-2.48-4.83-3l-2-1.3-.61-2.71Zm6.16,16.73a1.93,1.93,0,1,1,1.9-1.93A1.9,1.9,0,0,1,53.18,18.78Z"/><path d="M26.28,0,23.83,8.12,21.41,0,11,4.63v0c0,9.52,4,19.53,12.8,22,8.84-2.44,12.81-12.45,12.81-22v0Z"/><path d="M6.8,12.16H0c.9,2.67,5.48,4.47,5.48,4.47L3.19,34h9.06s2.75-4.11,4.36-6.62Z"/></g></g></svg>