<svg xmlns="http://www.w3.org/2000/svg" viewBox="0 0 496.79 259.74"><defs><style>.cls-1{fill:#2b353f;}</style></defs><g id="Layer_2" data-name="Layer 2"><g id="Layer_1-2" data-name="Layer 1"><path class="cls-1" d="M175.42,57.66q7-24.37,14.07-48.77c3-10.42,2.94-10.43,12.7-5.88q30.24,14.09,60.48,28.18c3.37,1.57,6.69,2.72,6.51,7.82-1.59,44.39-10.22,86.67-37,123.44a111.48,111.48,0,0,1-48.6,37.9,21.6,21.6,0,0,1-17.52,0c-34.13-14-54.76-40.51-68.54-73.3-11.55-27.51-16-56.5-17.4-86.14-.25-5.33,1.89-7.63,6.32-9.66,21.54-9.84,43-19.76,64.37-30,5.3-2.56,6.8-1.12,8.18,4,4.74,17.52,9.9,34.93,14.89,52.39Z"/><path class="cls-1" d="M56.39,259.35c-9,0-18-.28-26.9.1-5.69.25-6.6-1.61-5.88-7,5.22-39.5,9.91-79.06,15.21-118.55.75-5.6-.43-8.19-5.48-10.59-12.1-5.74-23.2-13-30.85-24.47C1.28,97-.94,95,.43,92.63c1.17-2,3.68-.94,5.56-.95,12.43-.1,24.88.2,37.31-.18,4.81-.15,7.2,1.82,9.55,5.64q32.7,53.13,65.8,106c2.6,4.13,2.43,6.84-.13,10.72q-13.09,19.89-25.47,40.25c-2.42,4-5.14,5.51-9.77,5.33C74.33,259.11,65.35,259.35,56.39,259.35Z"/><path class="cls-1" d="M495.26,83.66c-3.06-17.92-9.86-34-23.31-47.56a11.37,11.37,0,0,0-.72,2.51c.09,1.44.35,2.86.47,4.3,2.14,27-7.18,49.86-25.3,69.47-1.83,2-4,5.26-7.17,2.8-2.93-2.26.3-4.68,1.13-6.83,4.81-12.38,4.74-24.74,1.09-39.06a74.13,74.13,0,0,1-26.64,24.35c-4.05,2.21-7.09,2.22-11-.42-12.93-8.75-26-17.32-39.26-25.54a15.72,15.72,0,0,1-7.83-11.63c-2.31-13.38-6.39-26.29-11.43-41.47-12,20-23,38.31-34,56.59q-53.91,90-107.78,180c-1.29,2.17-3.6,5.2-2.93,6.76,1.29,3,5.08,1.35,7.76,1.37,20,.13,39.94-.09,59.9.16,5.06.07,8.6-1.52,12.18-5,17.53-17.22,35.43-34.08,53-51.28,4.23-4.15,8.24-5,13.94-3.28a325.85,325.85,0,0,0,51.71,10.73c31.83,4.18,56.66-3.81,73.68-34C489.33,147.29,501.12,117.88,495.26,83.66ZM390.32,142.73c-7.54-.25-13.69-7.11-13.51-15.08s6.49-14.34,14.24-14.13a14.38,14.38,0,0,1,13.65,14.85C404.47,136.1,397.59,143,390.32,142.73Z"/></g></g></svg>