<?xml version="1.0"?>
<svg xmlns="http://www.w3.org/2000/svg" xmlns:xlink="http://www.w3.org/1999/xlink" version="1.1" id="Capa_1" x="0px" y="0px" viewBox="0 0 60 60" style="enable-background:new 0 0 60 60;" xml:space="preserve" width="512px" height="512px" class=""><g><g>
	<path d="M52.179,41.429l-5.596,8.04l-3.949-3.241c-0.426-0.351-1.057-0.287-1.407,0.138c-0.351,0.427-0.289,1.058,0.139,1.407   l4.786,3.929c0.18,0.148,0.404,0.228,0.634,0.228c0.045,0,0.091-0.003,0.137-0.01c0.276-0.038,0.524-0.19,0.684-0.419l6.214-8.929   c0.315-0.453,0.204-1.076-0.25-1.392C53.117,40.86,52.495,40.974,52.179,41.429z" data-original="#000000" class="active-path" data-old_color="#000000" fill="#0094A9"/>
	<path d="M47,34c-7.168,0-13,5.832-13,13s5.832,13,13,13s13-5.832,13-13S54.168,34,47,34z M47,58c-6.065,0-11-4.935-11-11   s4.935-11,11-11s11,4.935,11,11S53.065,58,47,58z" data-original="#000000" class="active-path" data-old_color="#000000" fill="#0094A9"/>
	<path d="M55.392,0H4.608C2.067,0,0,2.067,0,4.608v11.783C0,17.365,0.314,18.26,0.835,19h58.329C59.686,18.26,60,17.365,60,16.392   V4.608C60,2.067,57.933,0,55.392,0z M10.5,15C8.019,15,6,12.981,6,10.5S8.019,6,10.5,6S15,8.019,15,10.5S12.981,15,10.5,15z M34,10   c-0.552,0-1-0.448-1-1s0.448-1,1-1s1,0.448,1,1S34.552,10,34,10z M36,13c-0.552,0-1-0.448-1-1s0.448-1,1-1s1,0.448,1,1   S36.552,13,36,13z M38,10c-0.552,0-1-0.448-1-1s0.448-1,1-1s1,0.448,1,1S38.552,10,38,10z M40,13c-0.552,0-1-0.448-1-1s0.448-1,1-1   s1,0.448,1,1S40.552,13,40,13z M42,10c-0.552,0-1-0.448-1-1s0.448-1,1-1s1,0.448,1,1S42.552,10,42,10z M44,13c-0.552,0-1-0.448-1-1   s0.448-1,1-1s1,0.448,1,1S44.552,13,44,13z M46,10c-0.552,0-1-0.448-1-1s0.448-1,1-1s1,0.448,1,1S46.552,10,46,10z M48,13   c-0.552,0-1-0.448-1-1s0.448-1,1-1s1,0.448,1,1S48.552,13,48,13z M50,10c-0.552,0-1-0.448-1-1s0.448-1,1-1s1,0.448,1,1   S50.552,10,50,10z M52,13c-0.552,0-1-0.448-1-1s0.448-1,1-1s1,0.448,1,1S52.552,13,52,13z" data-original="#000000" class="active-path" data-old_color="#000000" fill="#0094A9"/>
	<path d="M31,47c0-2.512,0.598-4.882,1.635-7H0.835C0.314,40.74,0,41.635,0,42.608v11.783C0,56.933,2.067,59,4.608,59h31.844   C33.118,56.065,31,51.78,31,47z M10.5,53C8.019,53,6,50.981,6,48.5S8.019,44,10.5,44s4.5,2.019,4.5,4.5S12.981,53,10.5,53z" data-original="#000000" class="active-path" data-old_color="#000000" fill="#0094A9"/>
	<path d="M0.835,21C0.314,21.74,0,22.635,0,23.608v11.783C0,36.365,0.314,37.26,0.835,38h32.946c2.884-4.222,7.732-7,13.218-7   c5.123,0,9.68,2.43,12.61,6.188c0.243-0.552,0.39-1.154,0.39-1.796V23.608c0-0.974-0.314-1.868-0.835-2.608H0.835z M10.5,34   C8.019,34,6,31.981,6,29.5S8.019,25,10.5,25s4.5,2.019,4.5,4.5S12.981,34,10.5,34z M34,29c-0.552,0-1-0.448-1-1s0.448-1,1-1   s1,0.448,1,1S34.552,29,34,29z M38,29c-0.552,0-1-0.448-1-1s0.448-1,1-1s1,0.448,1,1S38.552,29,38,29z M42,29c-0.552,0-1-0.448-1-1   s0.448-1,1-1s1,0.448,1,1S42.552,29,42,29z M46,29c-0.552,0-1-0.448-1-1s0.448-1,1-1s1,0.448,1,1S46.552,29,46,29z M50,29   c-0.552,0-1-0.448-1-1s0.448-1,1-1s1,0.448,1,1S50.552,29,50,29z" data-original="#000000" class="active-path" data-old_color="#000000" fill="#0094A9"/>
</g></g> </svg>
