<svg xmlns="http://www.w3.org/2000/svg" width="630.402" height="229" viewBox="0 0 630.402 229">
  <g id="Layer_2" data-name="Layer 2" transform="translate(0.015 0)">
    <g id="Layer_1" data-name="Layer 1" transform="translate(-0.015 0)">
      <path id="Path_10" data-name="Path 10" d="M385.263,99.734c-11.5,19.523-24.088,25.984-40.275,20.366-12.29-4.249-19.611-12.834-20.278-25.773-.65-12.465-.176-24.966-.246-37.449,0-6.636,2.195-11.763,9.639-12.009,8.059-.246,10.868,4.933,10.885,12.167,0,10.394.088,20.8,0,31.2-.088,6.514,1.422,12.114,9.147,12.29,8.094.123,10.534-5.443,10.534-12.536V60.53c0-5.267-1.159-11.131,4.74-14.519,6.373-3.652,10.991.527,15.8,3.757Z" transform="translate(245.139 33.696)" fill="#3668fe"/>
      <path id="Path_11" data-name="Path 11" d="M187.412,56.831c8.427-2.388,12.518-8.568,16.117-15.31,31.269,37.817,35.605,88.837,11.465,129.92-24.351,41.469-72.51,64.188-118.456,55.848C47.66,218.511,10,181.449,1.732,134.239c-14.888-85.554,68-155.992,150.743-128.007a61.94,61.94,0,0,1,9.235,3.9c6.6,3.511,8.339,9.235,5.741,15.889s-8.111,6.514-13.747,5.091c-6.865-1.756-13.571-4.2-20.489-5.636a90.8,90.8,0,0,0-107.2,70.719c-9.849,49.264,22.4,98.283,70.561,107.2,51.617,9.568,99.6-22.174,108.852-71.983C210.166,105.182,206.145,87.959,187.412,56.831Z" transform="translate(0.015 0)" fill="#3668fe"/>
      <path id="Path_12" data-name="Path 12" d="M176.419,95.394c17.557-9.305,24.737-21.648,26.16-37.5.685-7.391,2.23-13.659,11.254-13.15,9.323.544,9.551,7.585,9.41,14.607-.615,32.076-33.481,63.011-66.716,62.291a59.808,59.808,0,0,1-.808-7.128q0-32.945,0-65.785c7.023-2.985,13.2-.966,20.77-1.756Z" transform="translate(117.7 33.788)" fill="#3769fe"/>
      <path id="Path_13" data-name="Path 13" d="M51.47,123.239a41.028,41.028,0,0,1-.86-5.583q0-34.324,0-68.717c6.373-3.283,12.606-1.369,19.8-1.563v48.79c14.4-8.339,23.017-17.75,25.914-31.971.65-3.248.667-6.619,1.176-9.9.948-6.11,4.056-10.078,10.85-9.586,7.374.527,10.288,5.548,9.955,11.956-.632,11.745-3.511,23.052-10.148,33.024C94.713,109.65,75.33,119.57,51.47,123.239Z" transform="translate(38.271 33.753)" fill="#3668fe"/>
      <path id="Path_14" data-name="Path 14" d="M280.565,51.162c9.779.86,20.032-1.756,20.1,10.218,0,12.9-11.184,9.27-20.19,10.885,0,13.782-.158,27.81,0,41.8.123,7.321-.983,14.045-9.814,14.344-9.762.246-10.815-7.128-10.8-14.765V52.62c0-7.479-1.159-16.363,9.568-17.083C279.582,34.87,281.2,42.788,280.565,51.162Z" transform="translate(196.373 26.824)" fill="#3668fe"/>
      <path id="Path_15" data-name="Path 15" d="M225.771,50.921c13.062-5.759,25.44-9.849,39.292-5.882,6.672,1.914,10.2,5.618,8.971,12.588-1.194,6.689-6.057,8.392-12.167,7.778-4.881-.492-9.832-2.142-15.555,1.9,0,13.308-.14,27.336,0,41.364.105,7.514-1.756,13.835-10.534,13.712-7.743-.105-10.218-5.688-10.148-12.9C225.876,90.055,225.771,70.584,225.771,50.921Z" transform="translate(170.529 32.842)" fill="#3768fe"/>
      <path id="Path_16" data-name="Path 16" d="M310.451,65.369c0,15.222-.158,29.32,0,43.418.105,7.128-1.756,12.887-9.8,13.2s-10.534-5.021-10.534-12.29c.158-19.558,0-39.1,0-58.868,11.991-6,23.965-8.3,36.869-5.829,7.023,1.334,12.044,4.337,11.184,12.29-.913,8.392-6.672,9.288-13.8,8.287C320.458,64.895,316.245,65.369,310.451,65.369Z" transform="translate(219.263 33.265)" fill="#3668fe"/>
      <path id="Path_17" data-name="Path 17" d="M202.783,82.169c0-8.339.105-16.679,0-25-.123-7.233,2.124-12.553,10.376-12.448,7.444.105,9.867,4.916,9.832,11.71q-.123,26.879,0,53.759c0,7.023-3.266,11.447-10.341,11.271s-10.043-4.793-9.867-11.781C202.941,100.516,202.783,91.334,202.783,82.169Z" transform="translate(153.259 33.793)" fill="#3668fe"/>
      <path id="Path_18" data-name="Path 18" d="M212.9,27.33c6.566.509,10.1,3.9,10.06,10.253S218.925,47.52,212.8,47.52s-9.99-3.933-9.937-10.2S206.793,27.786,212.9,27.33Z" transform="translate(153.322 20.652)" fill="#3a6bfe"/>
    </g>
  </g>
</svg>
