<svg width="24" height="24" viewBox="0 0 24 24" fill="none" xmlns="http://www.w3.org/2000/svg">
<path d="M17.9999 6H22V14.534C22 14.8324 21.8815 15.1185 21.6705 15.3295L15.2955 21.6705C15.0845 21.8815 14.7984 22 14.5 22H11.2767C10.6085 22 10.2738 21.1921 10.7463 20.7197L17.7802 13.7197C17.9209 13.579 17.9999 13.3882 17.9999 13.1893V6Z" fill="#0068DA"/>
<path d="M5.99991 6H2V14.534C2 14.8324 2.11853 15.1185 2.3295 15.3295L5.93934 19C6.23223 19.2929 6.70711 19.2929 7 19L8.70795 17.2276C9.00084 16.9347 9.00084 16.4599 8.70795 16.167L6.21958 13.7197C6.07893 13.579 5.99991 13.3882 5.99991 13.1893V6Z" fill="#0068DA"/>
<path d="M13.25 9C13.6642 9 14 9.33579 14 9.75L14 12.6805C14 12.8794 13.921 13.0702 13.7803 13.2108L12.5302 14.4697C12.2373 14.7626 11.7625 14.7626 11.4696 14.4697L10.2197 13.2108C10.079 13.0702 10 12.8794 10 12.6805V9.75C10 9.33579 10.3358 9 10.75 9H13.25Z" fill="#D22730"/>
<path d="M22 6H2L4.67827 2.49705C4.88692 2.18408 5.23818 1.99609 5.61432 1.99609H18.4102C18.7863 1.99609 19.1376 2.18408 19.3462 2.49706L22 6Z" fill="#0047BB"/>
</svg>
